<?xml version="1.0" encoding="utf-8"?>
<!-- Generator: Adobe Illustrator 19.0.0, SVG Export Plug-In . SVG Version: 6.00 Build 0)  -->
<svg version="1.1" id="Layer_1" xmlns="http://www.w3.org/2000/svg" xmlns:xlink="http://www.w3.org/1999/xlink" x="0px" y="0px"
	 viewBox="0 0 612 792" style="enable-background:new 0 0 612 792;" xml:space="preserve">
<style type="text/css">
	.st0{fill:#2C2C2C;}
	.st1{fill:#F1F7F4;}
	.st2{fill:#E1EDF8;}
	.st3{fill:#F47A20;}
	.st4{fill:#3F78BB;}
	.st5{fill:#ADC8D8;}
	.st6{fill:#9EB9CC;}
	.st7{fill:#FDFEFF;}
	.st8{fill:#DDE8F2;}
	.st9{fill:#F9FBFA;}
	.st10{fill:#D8E8F0;}
	.st11{fill:#FEFEFE;}
	.st12{fill:#E7F1EC;}
	.st13{fill:#CFE6DB;}
	.st14{fill:#C6D8ED;}
</style>
<g id="XMLID_1_">
	<path id="XMLID_1260_" class="st0" d="M326.8,234.8c1,1.5,2.5,0.7,3.7,0.7c9.6,0.1,19.2,0.6,28.5,3.3c12.6,3.7,18.6,11.7,19.5,24.8
		c1,13.3-0.3,26.5-1.1,39.7c-1.5,24.5-2.1,48.9-0.5,73.4c0.2,2.7,1.5,2.3,3.1,2.2c14.6-0.7,28.9,0.7,42.8,5.5
		c33.2,11.4,56.7,33.6,71.1,65.4c7.1,15.6,11.1,32.1,10.5,49.3c-1,32.6-13.5,60.2-37,82.8c-12.5,12-27.2,21.1-43.4,26.5
		c-50.6,16.7-101.9,3.4-134.2-41.7c-1.3-1.8-2.6-2.5-4.8-2.5c-33.9,0.1-67.7,0-101.6,0.1c-6.9,0-13.7,0.6-20.6,1.1
		c-7.7,0.5-15.3,0.3-22.6-1.9c-8.7-2.7-14.1-10-14.3-18.9c-1.6-84.9-0.5-169.7,0.7-254.6c0.1-4,2.1-7.1,4.1-10.2
		c6.3-9.8,15.4-16.9,24.2-24.3c5.8-4.9,12-9.4,17.1-15.1c1-1.1,2.2-1.6,3.6-1.8c8.7-0.7,17.2-3.1,25.9-2.8c0.2,0,0.5-0.4,0.7-0.7
		c2.8,0,5.5,0,8.3,0c0.4,1.2,1.4,0.7,2.2,0.7c8.4,0,16.7,0.9,25,1.4c9.8,0.6,19.7,1.6,29.5,1.2c18-0.7,35.9-2.6,53.9-2.6
		c0.7,0,1.5,0.3,1.8-0.7C324.3,234.8,325.5,234.8,326.8,234.8z M144.5,274.4c-0.3,0.3-0.6,0.6-0.8,1c-2,2-3.2,4.6-5.1,7.4
		c4.1,0.2,7.6,0.4,11.2,0.6c3.5,0,7,0.5,10.5-0.6c6.4-0.4,9.4-3,10.7-9.2c0.8-3.7,0.6-7.4,0.5-11.1c0-1,0-1.9,0-2.9
		c0-3.3,0.3-6.6-0.8-10.1c-8.7,5.9-16.4,12.3-22.5,20.4c-1.5,1.3-2.8,2.7-3.7,4.6L144.5,274.4z M285.5,450.7
		c-0.6-0.1-0.7,0.4-0.7,0.8c-0.6,0.7-0.9,1.4-0.9,2.3c-2.8,6-4.4,12.4-5.7,18.8c-0.1,0.5-0.1,1-0.2,1.5c-0.8,2.9-1.3,5.8-1.4,8.8
		c-0.2,2-0.5,4.1-0.7,6.1c0,2.7-0.1,5.5-0.1,8.2c0,2.2,0,4.4,0.1,6.6c0.2,2.5,0.5,5,0.7,7.5c-0.1,1.4-0.1,2.9,0.6,4.2
		c0.1,2.4,0.5,4.7,1.5,6.9c-0.1,1.5-0.1,2.9,0.8,4.2c0.6,2.4,1.3,4.8,1.9,7.3c0.2,0.6,0.5,1.1,0.7,1.7c0.7,2,1.4,4,2.1,6
		c0.4,0.8,0.8,1.7,1.2,2.5c0.7,2.1,1.5,4.1,2.9,5.9c0.2,1.3,0.8,2.5,1.7,3.5c1.2,2,2.4,3.9,3.6,5.9c1.1,1.6,2.1,3.1,3.2,4.7
		c1.1,1.9,2.4,3.8,4.2,5.2c0.1,0.3,0.3,0.6,0.4,0.9c3.2,3.7,6.4,7.4,10.3,10.3c1.4,1.8,3.3,3,5.1,4.3c1.7,1.6,3.4,3,5.6,4
		c1.4,1.3,2.9,2.4,4.7,3.1c2,1.6,4.2,2.9,6.7,3.7c0.6,0.3,1.1,0.6,1.7,0.9c2.4,1.4,4.9,2.7,7.6,3.4c1.2,0.5,2.4,1,3.5,1.4
		c2.7,1.1,5.3,2.3,8.2,2.6c1.1,0.8,2.5,0.8,3.7,1.2c3,0.9,6.1,1.8,9.3,1.8c1.9,1,4,0.8,6,1.2c3.8,0.6,7.7,1.1,11.6,0.8
		c1.5,0,3,0,4.4,0c5.6-0.4,11.3-0.1,16.7-2c5,0,9.7-1.5,14.4-3.1c0.5,0,1,0,1-0.6l0,0c1,0.3,2-0.1,2.9-0.5
		c22.9-8.1,40.8-22.6,53.3-43.5c2.8-4.6,6.1-9,6.9-14.6l-0.1,0c0.8,0.2,0.7-0.5,0.8-0.9c1-1.3,1.4-2.8,1.9-4.4
		c1.2-3.1,2.7-6.2,2.7-9.6l-0.1,0c0.7,0.1,0.6-0.4,0.6-0.8c0.3-1,1-1.9,0.8-3c1-2.9,1.7-5.9,1.7-9c0.7-1,0.7-2.1,0.6-3.3
		c0.6-2.7,1.1-5.5,0.7-8.3c0-0.7,0.1-1.3,0.1-2c0.4-2.6,1-5.1,0.1-7.7c0.4-1.7,0.1-3.4-0.2-5.2c0-2.5,0.4-5.1-0.7-7.5
		c0.1-2.1,0.1-4.2-0.8-6.2c-0.3-5.1-1.7-9.9-3.2-14.6c-0.1-0.3-0.3-0.6-0.4-0.9c-0.2-2.3-1-4.3-2.2-6.3c-0.4-2.1-1.1-4-2.3-5.7
		c-0.6-2.2-1.5-4.2-2.8-6.1c-0.4-1.1-0.7-2.3-1.7-3.1c-0.7-2.2-2-4.1-3.4-5.9c-0.6-0.9-1.2-1.8-1.8-2.7c-1-2-2.3-3.7-3.8-5.3
		c-0.4-0.5-0.9-1.1-1.3-1.6c-1.1-2-2.7-3.6-4.4-5.1c-1-1-2-2-3-3c-1.5-1.5-2.5-3.6-4.9-4c-0.5-1.9-2.2-2.5-3.5-3.4
		c-1.6-1.6-3.4-3-5.5-4c-1.8-1.5-3.6-2.9-5.8-3.7c-2.2-1.6-4.4-2.9-7.1-3.7c-1.8-1.5-4.1-2.3-6.3-2.9c-2.3-1.3-4.6-2.3-7.3-2.6
		c-0.8-0.3-1.6-0.7-2.5-1c-6-2-12.1-3.6-18.5-4c-1-0.9-2.2-0.6-3.4-0.6c-3.9-1.1-7.9-0.9-11.9-0.7c-3.8-0.3-7.6,0.1-11.4,0.7
		c-6.3,0.2-12.5,1.4-18.6,3c-0.6,0-1.4-0.2-1.6,0.7l0.1,0c-3.1,0-5.7,1.4-8.4,2.6c-5.4,1.3-10.3,3.8-15.1,6.5
		c-14.4,8-26.6,18.5-35.5,32.6c-1.6,2-3.3,3.9-4,6.4c0,0,0,0,0,0c-0.2,0.3-0.5,0.6-0.7,0.9C288.8,442.7,286.1,446.3,285.5,450.7
		L285.5,450.7z M146.8,289.7c-1.7-0.1-3.5-0.1-5.2-0.2c-6.6-0.3-7,0.1-7.6,6.8c0,0.2,0.1,0.5,0.1,0.7c0,1.2,0,2.5-0.1,3.7
		c-0.8,3-0.7,6-0.5,9c0,1.5-0.1,3-0.1,4.5c0,2.8,0,5.5-0.1,8.3c0,1.2,0,2.5,0,3.7c0,2.8,0,5.5,0,8.3c0,1,0,2,0,3
		c-0.4,8.5-0.3,17,0,25.5c0,1.2,0,2.5,0,3.7c0,2.5,0,5,0,7.5c0,1.2,0,2.5,0,3.7c0,2.5,0,5,0,7.5c0,0.7,0,1.5,0,2.2c0,1.5,0,3,0,4.5
		c0,0.7,0,1.5,0,2.2c0,1.7,0.1,3.5,0.1,5.2c-0.3,2.8-0.4,5.5,0.1,8.2c0.1,1.5,0.1,3,0.2,4.5c-0.7,2.8-0.5,5.6,0,8.3
		c0,1.7,0.1,3.5,0.1,5.2c-0.4,2.5-0.3,5,0,7.5c0,1,0,2,0,3c0,2.7,0,5.5,0,8.2c0,2,0,4,0,6c0,14.3-0.1,28.5-0.1,42.8
		c-0.1,2.2-0.3,4.4-0.4,6.6c-0.3,3-0.5,6-0.8,9.1c-0.1,1.5-0.2,3-0.2,4.5c-0.8,2.5-0.8,5-0.7,7.5c0,2-0.1,4-0.1,6
		c-0.8,2.5-0.6,5-0.1,7.5c0,2-0.1,4,0.4,6c0.2,2.4,0.4,4.7,1.8,6.8c0.4,1.9,1.4,3.4,2.9,4.6c1.6,2.2,3.7,3.5,6.2,4.3
		c2.6,1.2,5.3,2.3,8.2,2.5c3.2,1,6.5,1.6,9.8,1.3c3.1,0.3,6.2,0.6,9.3,0.4c4.2,0.7,8.3,0.1,12.4-0.4c2.8,0.2,5.5,0,8.2-0.5
		c5.4,0.1,10.7-0.6,16-1.2c1.9-0.1,3.8-0.3,5.7-0.4c4.3,0.2,8.5,0.3,12.8-0.1c3,0,6,0,9,0.1c4.3,0.3,8.5,0.4,12.8-0.1
		c1.7,0,3.5,0,5.2,0c10.4,0,20.8,0,31.7,0c-6.1-10.3-10.5-20.7-13.3-31.9c-1.9-7.5-2-7.7-10-7.7c-17.6-0.1-35.1,1.2-52.6,2.2
		c-1.5,0-3,0-4.5,0c-6,0-12,0-18-0.1c-1.3-0.1-2.7-0.2-4-0.3c-5.1-0.7-10.2-1.4-15.3-2.1l-0.1,0c-0.1-0.5-0.5-0.5-0.9-0.4
		c-1-0.3-2-0.6-3-1c-2.3-1.3-4.7-2.6-7-3.9c-0.9-1-1.7-2-2.6-2.9c-1.1-2.6-1-5.4-1.5-8c0.3-1.3,0.7-2.5,1-3.8c2-3.1,4.7-5.4,8.1-6.7
		c3.1-1.2,6.3-2.1,9.4-3.1c1.8,0,3.5-0.1,5.2-0.8c6.3-0.3,12.5-0.7,18.8-1c1,0,2,0,3,0.1c7,0.2,14,0.4,21,0.6
		c15.5,0.5,30.9,2.1,46.4,1.2c2.5-0.1,3.6-0.9,3.7-3.4c0.2-5,1.4-9.9,2.6-14.7c0.5-1.9-0.1-2.3-1.5-2.9c-4.3-1.6-6.9-4.7-8.2-9
		c-2.8-8.9-2.3-18.1-1.5-27.1c1.8-18.5,1.8-36.9,0.7-55.4c-0.8-13.1-0.7-26.2,1.4-39.2c0.5-3.3,2-5.4,4.8-7
		c8.5-4.8,18.7-3.5,25.6,3.5c0.3,0.5,0.6,1,0.9,1.4c0.8,3,0.8,6.1,0.8,9.2c0,4.2-0.2,8.4,0.6,12.6c0.1,0.7,0.1,1.5,0.2,2.2
		c0,10.7,0,21.4,0,32.1c-0.6,5.3-0.7,10.6-0.4,15.9c0,0.5,0,1,0,1.5c0,5.1,0,10.2,0,15.8c4.8-5.9,9.6-11,15-15.4
		c3.6-3,4.3-6.6,3.5-10.9c0-0.7,0-1.5-0.1-2.2c-0.1-2.7,0.1-5.5-0.2-8.2c-0.7-6.1-0.8-12.2-0.5-18.3c0.5-10.5,4.5-15.4,13.8-16.8
		c6.7-1,12.8-0.1,16.7,6.3c1.8,3,2,6.6,2.6,10c0,2.1-0.3,4.2,0.5,6.3c-0.1,1.4-0.2,2.8-0.3,4.2c-0.2,1.8-0.2,3.7-0.5,5.5
		c-0.2,1.7,0.2,2.4,1.9,1.7c2.4-0.9,4.8-1.8,7.2-2.7c0.8,0,1.5,0.1,2-0.7c0,0,0.2,0,0.2,0c2.8-0.6,5.5-1.1,8.3-1.7
		c1.9-0.8,5.9,1.2,5-3.6c0-1.3,0-2.5,0-3.8c0.4-2.7,0.4-5.5,0-8.2c0-2,0-4,0-6c0.5-2.7,0.3-5.5,0.1-8.2c0-0.5,0-1.1,0-1.6
		c0.3-8.2,0.3-16.4,0-24.6c0-0.5,0-1.1,0-1.6c0.2-2.5,0.3-5-0.1-7.4c0-1.5-0.1-3.1-0.1-4.6c0.5-3.2,0.4-6.4,0.1-9.7c0-1,0-2,0-3
		c0.4-2.5,0.3-5,0.1-7.5c0.1-1.8,0.2-3.5,0.2-5.3c1.1-2.7,0.7-5.5,0.8-8.3c0.1-1.8,0.2-3.5,0.3-5.3c0.6-2.5,0.6-5-0.1-7.5
		c-0.1-1.8,0.1-3.6-0.7-5.3c-0.7-5.8-2.9-10.7-8.5-13.4c-0.5-0.6-1.2-0.9-2-0.9c-3.9-2.1-8.1-2.3-12.4-1.8c-2.5,0.2-4.9,0.5-7.4,0.7
		c-14.7,0.9-29.5,0.3-44.2,0.6c-2.2,0-4.5-0.1-6.7-0.1c-4.2-0.6-8.5-0.7-12.8-0.4c-2-0.1-4-0.1-6-0.2c-4.2-0.1-8.5-0.8-12.7-0.2
		c-3-0.1-6-0.3-9.1-0.4c-4.2-0.1-8.5-0.1-12.7-0.2c-2.7,0-5.5,0-8.2,0c-4.7,0-9.5,0.1-14.2,0.1c-3.2,0.2-6.5,0.3-9.7,0.5
		c-4.5-0.1-9.1-0.1-13.5,0.9c-1.7,0.1-3.5,0.1-5.2,0.4c-6,0.8-6,0.8-5.4,7.1c0,3.5,0.1,7,0.1,10.5c0,0.2,0,0.5,0,0.7
		c-0.3,2.3-0.6,4.7-0.8,7c-1,11.3-6.9,17.1-18.1,18.6c-3.7,0.5-7.5,0.4-11.2,0.8C148.3,289.7,147.5,289.7,146.8,289.7z M259.3,493.7
		c-0.5,0-1,0-1.5,0.1c-4.8,0-9.5,0-14.3-0.1c-0.5,0-1,0-1.5,0c-7.3,0-14.5,0-21.8,0c-0.5,0-1,0-1.5,0c-16.5,0-33-0.1-49.5-0.1
		c-4.3,0-7.3,2.4-8.9,6.3c-2.8,6.9,2.3,13.6,10.4,13.6c26.6,0.1,53.2,0.1,79.8,0.1c5,0,10-0.1,15-0.1c1.4,0,3,0.2,2.5-2
		c-1-5.4-0.8-10.9-0.7-16.4c0-1-0.2-1.7-1.4-1.4c-1.5,0-3,0-4.5,0C260.8,493.7,260,493.7,259.3,493.7z M337.9,368.9
		c-0.5-3.2-0.9-6.4-4.2-8.3c-2.4-2-5.2-1.4-7.9-1.2c-6.4,1.2-6.3,1.2-7.5,7.2c-0.7,3.6-0.6,7.1-0.4,10.7c-0.1,1.3-0.3,2.6,0.4,3.8
		c0.3,3.2-0.2,6.5,0.8,9.7c0.1,1.2,0.1,2.4,0.2,3.6c-0.1,1.9-0.3,3.7-0.5,6.2c6-4.1,11.7-7.5,17.7-10.3c1.5-0.7,1.6-1.7,1.3-3
		c0-1.3,0-2.6,0-4c0-3.5,0-7.1,0.1-10.6C337.9,371.4,337.9,370.1,337.9,368.9z M266.9,427.2c-0.2,3.4-0.8,6.7-0.4,10.1
		c-0.2,1.2-0.4,2.4,0.2,3.5c0,5.7,0.6,11.2,3.1,16.4c0.6,1.1,1,2.8,2.8,2.5c1.4-0.2,2-1.6,2.5-2.9c2.6-7.3,6.1-14.1,10.1-20.7
		c0.8-1.3,1.5-2.6,1.1-4.2c0-1,0-1.9,0-2.9c0.4-5.6,0-11.3-0.1-16.9c-0.1-11.7,0.6-23.3,0.7-35c0.1-11.7,0.5-23.3-0.4-35
		c-0.4-4.9-4.8-8.6-9.7-8.4c-5.4,0.2-8.9,3.6-9.1,8.9c-0.2,5.4-0.9,10.7-0.6,16.1c0.4,9.1,0.7,18.2,1.2,27.2
		c0.7,12.5-0.4,24.9-1.1,37.4C266.9,424.6,266.9,425.9,266.9,427.2z"/>
	<path id="XMLID_1259_" class="st1" d="M323,234.8c-0.3,1-1.2,0.7-1.8,0.7c-18,0-35.9,1.9-53.9,2.6c-9.8,0.4-19.7-0.6-29.5-1.2
		c-8.3-0.5-16.7-1.3-25-1.4c-0.8,0-1.8,0.5-2.2-0.7C248,234.8,285.5,234.8,323,234.8z"/>
	<path id="XMLID_1236_" class="st2" d="M361.3,246.1c5.6,2.7,7.8,7.6,8.5,13.4c-3,0.4-5.1,2.5-7.5,4c-19.4,12.2-38.8,24.4-58.1,36.7
		c-2.9,1.9-6.2,3.3-8.5,6.1c1.2-0.1,2.2-0.4,3.1-0.9c19.7-11.4,39.3-23,59.1-34.3c4-2.3,7.8-5.4,12.5-6.3c0.7,2.5,0.7,5,0.1,7.5
		c-3,0.4-5.2,2.4-7.5,3.9c-21.1,13.3-42.1,26.6-63.1,39.9c-0.5,0.3-1.6,0.4-1,1.7c3.8-1.2,6.9-3.8,10.3-5.7
		c14.1-8,28-16.3,42.1-24.2c6.3-3.5,12.1-7.9,18.9-10.4c0,2.8,0.3,5.6-0.8,8.3c-0.9,0.4-1.9,0.6-2.8,1.1
		c-6.2,3.9-12.4,7.8-18.6,11.7c-14,8.8-28.1,17.5-41.9,26.5c-3.7,2.5-8.4,3.8-11,8l0,0c-1.1,0-2.1,0.1-3.2,0.1
		c-6.9-7-17.1-8.4-25.6-3.5c-2.8,1.6-4.3,3.8-4.8,7c-2.1,13-2.1,26.1-1.4,39.2c1.1,18.5,1,36.9-0.7,55.4c-0.9,9-1.3,18.2,1.5,27.1
		c1.3,4.3,3.9,7.5,8.2,9c1.5,0.5,2,1,1.5,2.9c-1.2,4.8-2.4,9.7-2.6,14.7c-0.1,2.5-1.3,3.3-3.7,3.4c-15.5,0.9-30.9-0.7-46.4-1.2
		c-7-0.2-14-0.4-21-0.6c5.1-3.6,10.7-6.2,16.3-10.8c-4.1,0.4-6.2,2.5-8.5,3.9c-3.6,2.2-7.9,3.5-10.8,6.9c-6.3,0.3-12.5,0.7-18.8,1
		c4.8-4.6,11.4-6.6,16.1-11.5c-3.6,0.7-6.4,3.1-9.4,4.8c-4,2.4-8.6,4-12,7.4c-3.1,1-6.3,1.9-9.4,3.1c-3.4,1.3-6.2,3.6-8.1,6.7
		c-6.8,3.2-13.1,7.4-19.7,11.1c0.3-3,0.5-6,0.8-9.1c1.4,0.3,2.3-0.7,3.3-1.4c15.2-9.6,30.4-19.2,45.6-28.9c1.7-1.1,4.4-1.5,4.5-4.4
		c0,0,0,0,0,0c1.3,0.5,2.3-0.2,3.4-0.9c3.8-2.5,7.8-4.7,11.5-7.3c2.2-1.5,5-2.2,6.5-4.7c0.7,2.5,1.5,5,2.2,7.4
		c1.5,4.9,4.6,7.5,9.7,7.9c2.4,0.2,4.7,0.3,7.1,0.3c8.3,0,11.6-3,13.5-11c2.6-11.3,2.7-22.7,2.3-34.2c-0.6-19.6-2.6-39.1-0.5-58.7
		c1.3-12.4,2.5-24.9,0.9-37.4c-0.7-4.9-1.2-10.1-4.1-14.2c-5.3-7.4-15.8-8.4-23.1-2.4c-1.9,1.5-4.7,2.8-5,5.3
		c-0.9,6.3-3,12.3-3.1,18.7c-1,1.1-0.6,2.4-0.6,3.5c-0.1,4.8-0.1,9.6-0.1,14.5c-4.7,1.8-8.7,4.6-13,7.2c-3.7,2.2-8,3.6-10.9,6.9
		c-2.4-0.5-4.8-1.3-7.3-1.4c-12.7-0.2-16.8,3.2-18.4,15.7c-2.4,1.3-4.8,2.6-7.2,3.9c-5.6,2.9-10.6,6.9-16.7,8.9
		c-0.2-0.5-0.4-1-0.6-1.5c0-1.5,0-3,0-4.5c1-0.8,2.1-1.5,0-2.2c0-2.5,0-5,0-7.5c1-0.4,2.1-0.8,3-1.3c9.8-6.1,19.6-12.2,29.4-18.3
		c3.7-2.3,7.2-4.8,10.8-7.2c-1.2-0.4-2-0.2-2.7,0.2c-7.2,4.2-14.3,8.5-21.6,12.5c-6.3,3.5-12.1,7.8-18.9,10.4c0-2.5,0-5,0-7.5
		c0.5-0.1,1-0.2,1.4-0.5c9.5-6,19-11.9,28.4-17.9c4.8-3,9.4-6.1,14.2-9.2c-0.2-0.3-0.3-0.6-0.5-0.9c-4.3,2.5-8.7,4.9-13,7.4
		c-10.2,5.8-20.3,11.6-30.4,17.4c-0.3-8.5-0.4-17,0-25.5c5.5-2,9.8-6.2,14.8-9.1c5.4-3.1,10.5-6.8,15.7-10.3c-0.2-0.3-0.4-0.6-0.6-1
		c-10,5.8-20,11.6-29.9,17.3c0-2.8,0-5.5,0-8.3c8.4-5.4,16.9-10.8,25.3-16.1c-0.2-0.3-0.4-0.6-0.5-0.9c-1.6,0.3-2.8,1.2-4.2,2
		c-6.9,3.7-13.3,8.2-20.5,11.3c0-2.8,0-5.5,0.1-8.3c0.9,0,1.7-0.2,2.4-0.7c8.3-5.9,16.7-11.6,25-17.5c2.3-1.6,4.5-3.3,6.7-4.9
		c-0.2-0.3-0.4-0.6-0.6-0.9c-11.2,6.5-22.3,13-33.5,19.5c-0.2-3-0.3-6,0.5-9c3.8-1.6,6.8-4.5,10.1-6.8c1.8-1.2,4.2-1.7,4.9-4.2
		c3.7-0.4,7.4-0.3,11.2-0.8c11.3-1.5,17.1-7.4,18.1-18.6c0.2-2.4,0.5-4.7,0.8-7c0.2-0.2,0.5-0.5,0.7-0.7l0,0c1.3,0.1,2.4-0.4,3.5-1
		c8-4.6,16-9.1,23.8-13.9c2-1.2,4.8-1.6,5.7-4.4c4.7,0,9.5-0.1,14.2-0.1c-8.5,6.2-16.9,12.3-25.6,18.7c1.3,0.7,1.9,0.3,2.5-0.1
		c4.7-2.7,9.6-5.3,14.2-8.2c5.7-3.6,11.9-6.2,17.2-10.3c4.2,0.1,8.5,0.1,12.7,0.2c-13,9.1-25.9,18.1-39.3,27.5
		c2,0.8,2.9-0.2,3.8-0.7c11.6-6.6,23.2-13.2,34.6-20c3.4-2,7.3-3.3,10-6.4c4.3-0.6,8.5,0.1,12.7,0.2c-8.4,6.5-17.5,11.8-26.1,17.8
		c-1,0.7-2.3,1.2-3,3c1-0.4,1.6-0.5,2.1-0.8c6.6-3.8,13.3-7.4,19.7-11.4c4.5-2.8,9.6-4.6,13.3-8.6c4.3-0.3,8.5-0.1,12.8,0.4
		c-0.3,0.4-0.5,0.9-0.9,1.2c-7.1,4.6-14.2,9.1-21.3,13.7c-3.4,2.2-6.9,4.1-9.6,7.2c3.7-1.6,7.2-3.5,10.6-5.6
		c9.2-5.6,18.9-10.4,27.9-16.5c14.7-0.3,29.5,0.3,44.2-0.6c-16.2,10.4-32.4,20.8-49.1,31.5c1.9,0.4,2.8-0.3,3.7-0.8
		c14.6-8.4,29.2-16.7,43.6-25.3c3.1-1.9,6.9-2.9,9.2-6.1c4.3-0.5,8.5-0.2,12.4,1.8c-1.9,0.4-3.5,1.3-5.1,2.3
		c-10.5,6.6-21.1,13.1-31.5,19.8c-3.6,2.3-7.6,4.1-11.1,7.5c1.9,0.3,2.8-0.5,3.7-1c13.1-7.5,26.3-15,39.3-22.8
		C357,249.7,360.4,249.4,361.3,246.1z M195.5,473.3c-1.2,0.1-2.2,0.4-2.8,2C194.4,475.2,195.3,474.8,195.5,473.3
		c0.1-0.1,0.1-0.2,0.2-0.3C195.6,473.1,195.6,473.2,195.5,473.3z M236.7,266.4c1.6,0.6,2.3,0.1,2.9-1
		C238.4,264.7,237.7,265.4,236.7,266.4z M252.8,268.8c1.3,0.3,2.1-0.1,2.6-1.4C254,267.1,253.2,267.5,252.8,268.8z M308.3,277.1
		c1.3,0.3,2.1-0.1,2.6-1.4C309.5,275.4,308.7,275.8,308.3,277.1z M297.6,318.6c-1.6-0.6-2.3-0.1-2.9,1
		C295.9,320.4,296.6,319.6,297.6,318.6z M216.3,473.7c-1.3-0.3-2.1,0.1-2.6,1.4C215,475.4,215.8,475,216.3,473.7z M307,278
		c-1.2-0.4-1.8,0.2-2.4,0.8c-0.1,0.1,0.3,0.7,0.4,0.7C305.9,279.4,306.7,279.2,307,278z M180.5,348.4c-1.5-0.1-2.4,0.1-2.7,1.4
		C179,350.2,179.7,349.7,180.5,348.4z M178.6,337.7c0.2,0.1,0.5,0.3,0.6,0.2c0.2-0.1,0.2-0.4,0.3-0.6c-0.2-0.1-0.5-0.3-0.6-0.2
		C178.7,337.2,178.6,337.5,178.6,337.7z M199,472c-0.1-0.2-0.1-0.5-0.3-0.6c-0.2-0.1-0.4,0.1-0.6,0.2c0.1,0.2,0.1,0.5,0.3,0.6
		C198.5,472.3,198.8,472.1,199,472z M199.6,263.5c0.2,0.1,0.5,0.3,0.6,0.2c0.2-0.1,0.2-0.4,0.3-0.6c-0.2-0.1-0.5-0.3-0.6-0.2
		C199.7,262.9,199.6,263.3,199.6,263.5z M218.5,472.3c-0.2-0.1-0.5-0.3-0.6-0.2c-0.2,0.1-0.2,0.4-0.3,0.6c0.2,0.1,0.5,0.3,0.6,0.2
		C218.4,472.8,218.4,472.5,218.5,472.3z M166,316.3c-0.2-0.1-0.5-0.3-0.6-0.2c-0.2,0.1-0.2,0.4-0.3,0.6c0.2,0.1,0.5,0.3,0.6,0.2
		C165.9,316.8,165.9,316.5,166,316.3z M160.1,307.8c-0.1,0.2-0.2,0.4-0.3,0.6c0.2,0.1,0.5,0.3,0.6,0.2c0.2-0.1,0.2-0.4,0.3-0.6
		C160.5,308,160.3,307.9,160.1,307.8z M294.3,307.3c-0.2-0.1-0.5-0.3-0.6-0.2c-0.2,0.1-0.2,0.4-0.3,0.6c0.2,0.1,0.5,0.3,0.6,0.2
		C294.1,307.9,294.2,307.5,294.3,307.3z M168.8,289.7c0.2,0.1,0.5,0.3,0.6,0.2c0.2-0.1,0.2-0.4,0.3-0.6c-0.2-0.1-0.5-0.3-0.6-0.2
		C168.9,289.2,168.9,289.5,168.8,289.7z M289.8,276.6c-0.2-0.1-0.5-0.3-0.6-0.2c-0.2,0.1-0.2,0.4-0.3,0.6c0.2,0.1,0.5,0.3,0.6,0.2
		C289.6,277.1,289.7,276.8,289.8,276.6z M182.5,347.1c-0.2-0.1-0.5-0.3-0.6-0.2c-0.2,0.1-0.2,0.4-0.3,0.6c0.2,0.1,0.5,0.3,0.6,0.2
		C182.4,347.6,182.4,347.3,182.5,347.1z M207.3,271.8c-0.1,0.2-0.2,0.4-0.3,0.6c0.2,0.1,0.5,0.3,0.6,0.2c0.1-0.1,0.2-0.4,0.3-0.6
		C207.7,272,207.5,271.9,207.3,271.8z M293.5,321.2c-0.1-0.2-0.1-0.5-0.3-0.6c-0.2-0.1-0.4,0.1-0.6,0.2c0.1,0.2,0.1,0.5,0.3,0.6
		C293,321.5,293.3,321.3,293.5,321.2z M302.3,280.9c-0.2,0-0.4,0-0.6,0c0.1,0.1,0.2,0.2,0.3,0.2C302.1,281.1,302.2,281,302.3,280.9z
		"/>
	<path id="XMLID_1229_" class="st3" d="M401.4,386.9c6.4,0.4,12.5,2,18.5,4c-3.3,2.2-6.7,4.5-10,6.7c0.1,0.2,0.3,0.5,0.4,0.7
		c4-2.1,8-4.3,12-6.4c2.6,0.3,5,1.3,7.3,2.6c-1,0.7-1.9,1.5-3,2.2c-18,12-36.1,24.1-54.1,36.1c-1.8,0.8-3.5,1.9-4.9,3.3
		c-0.3,0.3-0.7,0.5-1,0.8c0.6,0.5,1,0.2,1.4-0.3c1.9-0.7,3.7-1.6,5.3-3c6.7-3.8,13.5-7.6,20.2-11.5c14.1-8.2,28.3-16.5,42.4-24.7
		c2.6,0.7,4.9,2.1,7.1,3.7c-22.2,14.6-44.3,29.3-66.5,43.9c0.2,0.4,0.4,0.7,0.6,1.1c23.9-13.7,47.8-27.5,71.7-41.2
		c2.1,1,3.9,2.4,5.5,4c-1,0.7-2,1.5-3,2.1c-16.3,10.5-32.5,21.1-48.8,31.6c-1.8,0.8-3.4,1.7-5.3,3.9c2.8-0.9,4.5-1.9,6-3.2
		c7-4,14.1-8,21.1-12c11.2-6.3,22-13.1,33.4-19c2.4,0.4,3.4,2.5,4.9,4c-1.3,0.9-2.6,1.9-3.9,2.8c-16,10.3-32,20.7-48,31
		c-1.8,0.8-3.4,1.7-5.3,3.9c2.8-0.9,4.5-2,6.1-3.2c3.7-1.4,6.5-4.5,10.5-5.3c0.3,1.6-1.2,2-2,2.8c-3,3.3-6.2,6.5-9.1,9.9
		c-10.3,12-19.3,24.9-30,36.6c-6.9,7.6-14.3,14.6-24.5,17.7c-4,1.2-7.8,1.7-10.9-1.8c0.1-3.1-1.5-4-4.3-3.6
		c-2.1-1.9-4.3-3.8-6.2-5.8c-2.6-2.6-6.2-3.3-9.4-1.6c-8,4.2-13.1,15.7-10.8,24.4c-10.2,5.8-20.3,11.7-30.5,17.5c-0.7-2-1.4-4-2.1-6
		c5.9-3.8,11.7-7.6,17.6-11.4c2-0.9,3.8-2,5.4-3.5c0.3-0.2,0.6-0.4,0.9-0.6c0.3-0.2,0.7-0.5,1-0.7c-0.1-0.1-0.2-0.2-0.2-0.2
		c-0.4,0.2-0.7,0.4-1.1,0.6c-0.3,0.2-0.6,0.4-0.9,0.6c-2.2,0.6-4,1.8-5.8,3.2c-6,3.3-12.1,6.3-17.5,10.4c-0.6-2.4-1.3-4.8-1.9-7.3
		c0.5-0.2,0.9-0.3,1.4-0.6c16.2-10.4,32.4-20.8,48.5-31.2c0.7-0.5,1.7-0.8,1.9-2c-1.6-0.1-2.5,0.9-3.6,1.5
		c-16.4,9.4-32.7,18.7-49,28.1c-1-2.2-1.4-4.5-1.5-6.9c3.3-2,6.6-4,9.8-6.1c13.4-8.7,26.7-17.4,40-26.1c0.3-0.3,0.6-0.6,0.9-0.8
		c-0.6-0.5-1-0.2-1.4,0.3c-1,0.5-2,0.9-3,1.5c-15.7,9-31.4,18.1-47,27.1c-0.2-2.5-0.5-5-0.7-7.5c4.9-3.2,9.8-6.4,14.7-9.6
		c16-10.6,31.9-21.2,47.9-31.9c0.3-0.3,0.5-0.6,0.8-0.9c-0.6-0.5-1-0.2-1.4,0.3c-1.5,0.8-3.1,1.6-4.6,2.4c-19.1,11-38.3,22-57.4,33
		c0-2.7,0.1-5.5,0.1-8.2c0.5-0.2,1-0.3,1.4-0.6c16.2-10.8,32.5-21.7,48.7-32.5c2.7-1.4,5.3-3.1,7.6-5.1c0.3-0.2,0.6-0.4,0.8-0.7
		c0.4-0.2,1.2-0.1,0.8-0.7c-0.3-0.5-0.9,0-1.1,0.4c-0.3,0.2-0.6,0.4-0.9,0.6c-3,1-5.6,2.8-8.1,4.6c-16.2,9.3-32.3,18.5-48.5,27.8
		c0.1-3,0.6-5.9,1.4-8.8c1-0.2,1.8-0.7,2.4-1.5c1.1-0.4,2.3-0.8,2.9-2.3c-1.7,0.3-2.6,0.9-3.4,1.8c-0.6,0.2-1.1,0.3-1.7,0.5
		c1.3-6.5,2.9-12.8,5.7-18.8c2.6-1.6,5.2-3,7.9-5.6c-2.8,0.4-4.1,2.6-6.3,2.5c0.7-4.5,3.3-8,5.4-11.9c0.2-0.3,0.5-0.6,0.7-0.9
		c0,0,0,0,0,0c1,0.4,1.6-0.4,2.3-0.9c6.2-4.4,12.3-8.8,18.4-13.3c0.4-0.3,1.1-0.6,0.5-1.6c-5.8,3.1-11.5,6.3-17.2,9.4
		c8.9-14,21-24.6,35.5-32.6c4.8-2.6,9.7-5.2,15.1-6.5c-0.7,1.4-2.3,2-3,3.6c4.3-1.2,8.2-3.1,11.5-6.2c0,0-0.1,0-0.1,0
		c0.7,0.1,1.3,0,1.6-0.7c6.1-1.7,12.3-2.8,18.6-3c-2.8,2.2-5.7,4.4-8.5,6.6c-7.7,5.4-15.4,10.8-23,16.3c0.3,0.4,0.5,0.8,0.8,1.2
		c8.5-5,17-10.1,25.5-15.1c5.7-2.9,11.3-6,16.6-9.7c4-0.1,8-0.4,11.9,0.7c-4.6,3.1-9.2,6.3-13.9,9.4
		C390.4,393.8,395.8,390.1,401.4,386.9z M404.6,454.3c-0.3,0.2-0.7,0.5-1,0.7c0.6,0.5,1,0.1,1.4-0.4c0.3-0.1,0.7-0.2,0.5-0.6
		C405.4,454,404.8,454.2,404.6,454.3z M396.3,446.8c-0.4,0.2-0.7,0.4-1.1,0.6c0.1,0.1,0.2,0.2,0.2,0.2c0.4-0.2,0.7-0.4,1.1-0.6
		c0.3-0.1,0.7-0.1,0.5-0.6C396.9,446.6,396.6,446.7,396.3,446.8z M408.9,398.4c-0.2,0.1-0.5,0.2-0.6,0.4c-0.1,0.1,0.1,0.4,0.2,0.6
		c0.3-0.2,0.5-0.3,0.8-0.5C409.1,398.6,409,398.5,408.9,398.4z M284.6,469.9c-0.1-0.1-0.1-0.2-0.2-0.2c-0.1,0-0.2,0.1-0.3,0.2
		c0.1,0.1,0.2,0.2,0.3,0.2C284.4,470.1,284.5,470,284.6,469.9z M332.3,492.2c-0.1,0.1-0.2,0.2-0.3,0.2c0.1,0.1,0.2,0.2,0.2,0.3
		c0.1,0,0.2-0.1,0.3-0.2C332.5,492.3,332.4,492.3,332.3,492.2z"/>
	<path id="XMLID_1210_" class="st3" d="M354.9,603.9c-2.9-0.3-5.6-1.4-8.2-2.6c8.6-5.7,17.2-11.4,25.8-17.1c1.8-0.8,3.5-1.7,5-3.8
		c-2.7,0.4-4.3,1.6-5.9,2.9c-9.6,5.3-19.2,10.6-28.4,16.6c-2.7-0.7-5.2-2-7.6-3.4c4.2-2.6,8.3-5.2,12.5-7.8c-0.2-0.3-0.4-0.7-0.6-1
		c-4.5,2.6-9.1,5.3-13.6,7.9c-2.5-0.8-4.6-2.1-6.7-3.7c18.8-12.3,37.7-24.7,56.5-37c1.7-0.8,3.4-1.6,5.1-3.9c-2.7,0.9-4.3,2-5.8,3.2
		c-0.8,0.4-1.6,0.8-2.3,1.2c-19.4,11.2-38.8,22.3-58.2,33.5c-2.1-1-3.9-2.4-5.6-4c1-0.7,2-1.5,3-2.2c12.7-8.5,25.5-16.9,38.2-25.4
		c8.1-2.5,13.5-9,20.1-13.6c0.6,0,1.1,0,1-0.8l0,0c0.8,0.3,1.4,0.1,1.5-0.8l-0.1,0c4-1,6.8-3.9,10.3-6.1c-1.5-1-2.4,0.7-3.5-0.1
		c0-1.5,1.3-2,2.2-2.8c5.5-5.6,11.2-11,16.7-16.7c11.1-11.6,22.1-23.3,33.1-35c1.9,0.2,3.3-1,4.8-1.9c14.4-8.3,28.9-16.6,43.3-24.9
		c1.1,2,1.9,4,2.2,6.3c-0.6,0.3-1.8,0.5-1.4,1.3c0.5,0.9,1.2-0.3,1.8-0.4c1.5,4.8,2.9,9.6,3.2,14.6c-0.5,0.2-0.9,0.4-1.4,0.6
		c-21.5,14.2-43.1,28.4-64.6,42.6c-1.8,0.8-3.4,1.7-5.1,3.8c2.7-0.6,4.3-1.8,5.9-3.1c5.4-3.1,10.8-6.1,16.2-9.2
		c16.6-9.5,33.2-19.1,49.8-28.6c1.1,2.4,0.7,5,0.7,7.5c-16.2,10.6-32.5,21.1-48.8,31.7c-1.7,0.8-3.5,1.7-5.4,4.3
		c2.9-1.2,4.7-1.9,6.2-3.4c1.1-0.6,2.2-1.1,3.3-1.7c14.9-8.6,29.8-17.1,44.7-25.7c0.8,2.6,0.2,5.2-0.1,7.7c-3.2,1.7-6.3,3.6-9.2,5.9
		c-0.3,0.2-0.6,0.4-0.9,0.6c-0.5,0.3-1,0.5-1.5,0.8c0,0,0.1,0.5,0.2,0.6c0.8,0.1,1.3-0.3,1.7-0.9c0.3-0.2,0.6-0.4,0.9-0.6
		c2.9-1.5,5.7-3,8.6-4.4c0.4,2.8-0.1,5.6-0.7,8.3c-7.5,4.1-14.5,9.1-21.7,13.8c-1.7,0.8-3.4,1.7-4.5,3.5c2-0.5,3.8-1.3,5.3-2.7
		c6.8-3.8,13.5-7.6,20.3-11.4c0,3.1-0.7,6.1-1.7,9c-5.5,3.5-10.9,7.1-16.4,10.6c-1.7,0.8-3.4,1.6-4.3,3.4c1.9-0.5,3.6-1.4,5.1-2.7
		c5-2.1,9-5.9,14.3-7.5c0,3.5-1.5,6.5-2.7,9.6c-7.6,4.3-14.7,9.5-21.9,14.5c-0.4,0.4-1.7,0.1-1.3,1c0.2,0.5,1.3,0.2,1.8-0.4
		c2.9-1.6,5.8-3.2,8.7-4.7c3.4-1.7,6.1-4.5,10-5.1c-0.8,5.6-4.1,10-6.9,14.6c-12.5,20.8-30.3,35.3-53.3,43.5
		c-0.9,0.3-1.9,0.7-2.9,0.5c0.2-1.1,1.3-1.4,2-2c5.3-4.3,10.7-8.6,16.1-13c0.2-0.2,0.5-0.4,0.5-0.4c-0.3-0.4-0.6-0.2-0.9,0.1
		c-11.2,6-22.3,12.4-33.1,19.1c-5.4,1.9-11.1,1.6-16.7,2c4.3-2.9,8.6-5.9,12.8-8.8c-0.2-0.3-0.4-0.7-0.7-1
		c-5.5,3.3-11.1,6.6-16.6,9.8c-3.9,0.4-7.7-0.1-11.6-0.8c9.8-6.7,19.6-13.4,29.4-20.1c-0.2-0.3-0.4-0.7-0.6-1
		c-11.6,6.7-23.2,13.3-34.7,20c-3.2,0-6.2-1-9.3-1.8c7.8-5.2,15.6-10.5,23.5-15.7c-0.2-0.3-0.4-0.6-0.6-0.9
		C372.7,593.6,363.8,598.8,354.9,603.9z M390,550.7c0.4-0.2,1.2-0.1,0.8-0.7c-0.3-0.5-0.9,0-1.1,0.4c-0.3,0.1-0.7,0.1-0.5,0.6
		C389.4,550.9,389.7,550.8,390,550.7z M482.7,465.7c-0.4,0.1-0.8,0.3-1.2,0.4c0.1,0.1,0.1,0.2,0.2,0.3
		C482.3,466.5,482.6,466.3,482.7,465.7c0.3,0,0.5-0.1,0.7-0.2c-0.1-0.1-0.2-0.2-0.3-0.3C483,465.4,482.8,465.6,482.7,465.7z
		 M469.1,540.6c-0.4,0.1-1.2,0.1-0.9,0.7c0.3,0.5,0.8,0,1.1-0.4c0.2-0.2,0.3-0.4,0.5-0.6C469.6,540.4,469.4,540.5,469.1,540.6z
		 M421.1,524.1c-0.3,0.2-0.7,0.4-1,0.7c0.6,0.5,1,0.1,1.3-0.3c0.3-0.1,0.7-0.2,0.5-0.6C421.6,523.8,421.3,524,421.1,524.1z
		 M354.4,584.1c-0.9,0.2-1.9,0.1-1.8,1.5c1,0,1.6-0.5,2.1-1.3c0.2-0.2,0.3-0.4,0.5-0.6C354.8,583.9,354.6,584,354.4,584.1z
		 M465,532.7c0.9-0.2,1.7-0.4,2-1.5c-1.3-0.3-1.8,0.4-2.4,1.1c-0.2,0.2-0.3,0.4-0.5,0.7C464.4,532.9,464.7,532.8,465,532.7z
		 M349.2,586.9c-0.3,0.2-0.5,0.4-0.8,0.7c0.3,0.1,0.5,0.2,0.8,0.4c0.9-0.4,1.9-0.8,2.4-1.9C350.4,585.6,349.8,586.4,349.2,586.9z
		 M446.7,540.9c-0.2-2.9-2.3-2.4-4.1-2.5c-7.9-0.1-7.9-0.1-8.1-8c0-1.8,0.4-4.3-2.3-4.3c-2.5,0-4.9,1.2-5,4.4
		c-0.1,1.6-0.1,3.2,0,4.9c0.2,2.2-0.6,3.2-2.9,3c-1.9-0.1-3.8-0.2-5.6,0.1c-2.8,0.3-3.7,2.6-3.8,4.9c-0.1,2.4,2,2.3,3.8,2.4
		c2.7,0.2,6.1-1.2,7.9,0.7c1.7,1.9,0.4,5.2,0.6,8c0.2,3.4,1.8,4.4,4.8,2.7c1.7-0.9,2.5-2.4,2.6-4.3c0.1-2.2-0.9-4.9,0.6-6.5
		c1.5-1.6,4.3-0.5,6.5-0.6C444.7,545.6,446.1,543.6,446.7,540.9z M487.7,462.6c-1.8,0.5-2.9,0.8-3.3,2.2
		C485.7,464.8,486.6,464.2,487.7,462.6z M441.4,525.5c-1.9,0.5-2.9,0.9-3.8,2.4C439.3,527.7,440.2,527.2,441.4,525.5z M380.6,578.5
		c-1.2,0.1-2.3,0.4-3,1.8C379.2,580.5,380,579.7,380.6,578.5z M462.9,533.9c0.1-0.1,0.2-0.1,0.3-0.2c-0.1-0.1-0.2-0.2-0.2-0.2
		c-0.1,0-0.2,0.1-0.3,0.2C462.8,533.7,462.8,533.8,462.9,533.9z M391.8,535.2c-0.1-0.1-0.2-0.2-0.3-0.2c-0.1,0-0.2,0.1-0.3,0.2
		c0.1,0.1,0.2,0.2,0.3,0.2C391.7,535.4,391.8,535.2,391.8,535.2z M381.9,578.1c0.1-0.1,0.2-0.1,0.2-0.2c-0.1-0.1-0.1-0.1-0.2-0.2
		c-0.1,0.1-0.2,0.2-0.2,0.3C381.7,578,381.8,578,381.9,578.1z M356.3,583.3c0.1-0.1,0.2-0.1,0.2-0.2c-0.1-0.1-0.1-0.2-0.2-0.2
		c-0.1,0-0.2,0.1-0.3,0.2C356.2,583.2,356.3,583.2,356.3,583.3z M436.7,528.7c0.1-0.1,0.2-0.2,0.3-0.2c-0.1-0.1-0.2-0.2-0.3-0.2
		c-0.1,0-0.2,0.1-0.3,0.2C436.5,528.5,436.6,528.6,436.7,528.7z M403.9,598.9c-0.1-0.1-0.2-0.2-0.3-0.2c-0.1,0-0.2,0.2-0.3,0.2
		c0.1,0.1,0.2,0.2,0.3,0.2C403.7,599.2,403.8,599,403.9,598.9z"/>
	<path id="XMLID_1205_" class="st2" d="M225.5,558c-4.3,0.4-8.5,0.3-12.8,0.1c5.2-5.1,11.8-8.2,17.5-12.5c2.1-1.6,4.5-2.7,6-5.1
		c-4.2,1.3-7.7,3.8-11.4,5.9c-5.6,3.2-11.3,6.3-16.9,9.6c-0.6,0.4-3.2,0.7-1,2.5c-5.3,0.6-10.6,1.3-16,1.2c0-1,0.7-1.5,1.4-2
		c5.3-3.5,10.6-7,15.8-10.5c2.7-1.8,5.7-3.2,8.3-6c-1.5-0.3-2.4,0.3-3.2,0.8c-5.4,3.1-10.8,6.2-16.1,9.4c-4.9,2.9-10.2,5.1-14.6,8.8
		c-4.1,0.5-8.3,1.1-12.4,0.4c1.5-0.9,2.2-2.5,3.8-3.5c15.8-10.1,31.6-20.4,47.3-30.6c0.6-0.4,1.7-0.6,1.2-2
		c-0.8,0.3-1.5,0.5-2.1,0.9c-11,6.3-22,12.6-32.9,19.1c-8.9,5.3-18.1,9.9-26.6,15.8c-3.4,0.3-6.6-0.3-9.8-1.3c0.7-0.7,1.2-1.6,2-2.1
		c10.3-6.7,20.7-13.3,30.9-20c8.1-5.3,16.5-10,24.1-16.1c17.5-1,35.1-2.3,52.6-2.2c8,0,8.1,0.2,10,7.7c2.8,11.1,7.3,21.6,13.3,31.9
		c-10.9,0-21.3,0-31.7,0c1.4-2.8,4.9-3.5,6.3-6.4c-4.1,1.7-7.9,3.8-11.5,6.3c-4.3,0.4-8.5,0.3-12.8,0.1c4.6-4.5,10.2-7.8,15.3-11.7
		c2.4-1.8,4.8-3.5,7.2-5.3c-0.2-0.3-0.4-0.7-0.7-1C246,545.8,235.6,551.5,225.5,558z M238.7,539.1c-0.2-0.1-0.5-0.3-0.6-0.2
		c-0.2,0.1-0.2,0.4-0.3,0.6c0.2,0.1,0.5,0.3,0.6,0.2C238.6,539.6,238.7,539.3,238.7,539.1z M259,539.5c-0.1-0.2-0.1-0.5-0.3-0.6
		c-0.2-0.1-0.4,0.1-0.6,0.2c0.1,0.2,0.1,0.5,0.3,0.6C258.5,539.8,258.8,539.6,259,539.5z M217.8,539.6c-0.1,0.2-0.2,0.4-0.3,0.6
		c0.2,0.1,0.5,0.3,0.6,0.2c0.1-0.1,0.2-0.4,0.3-0.6C218.2,539.8,218,539.7,217.8,539.6z"/>
	<path id="XMLID_1204_" class="st2" d="M294.5,390.6c0-10.7,0-21.4,0-32.1c1-0.4,2.2-0.7,3.1-1.2c11.9-6.9,23.8-13.9,35.8-20.7
		c11.7-6.7,23.5-13.4,35.3-20.1c0.4,2.2-0.5,4.6,0.6,6.8c0,0.5,0,1.1,0,1.6c-0.8,8.2-0.8,16.4,0,24.6c0,0.5,0,1.1,0,1.6
		c-1.1,2.7-0.2,5.5-0.5,8.2c-7.7,4.8-15.4,9.6-23,14.3c-0.5-1.7,0.5-3.7-0.8-5.3c-0.6-3.4-0.8-7-2.6-10c-3.9-6.4-10-7.4-16.7-6.3
		c-9.3,1.5-13.3,6.3-13.8,16.8c-0.3,6.1-0.2,12.2,0.5,18.3c0.3,2.7,0.1,5.5,0.2,8.2c-1.4,0.1-2.5,1-3.7,1.7c-4.7,3-9.5,5.9-14.2,8.8
		C294.6,400.7,294.5,395.7,294.5,390.6z"/>
	<path id="XMLID_1203_" class="st4" d="M267,423.3c0.8-12.4,1.8-24.9,1.1-37.4c-0.5-9.1-0.8-18.2-1.2-27.2
		c-0.2-5.4,0.4-10.7,0.6-16.1c0.2-5.3,3.7-8.6,9.1-8.9c4.9-0.2,9.3,3.6,9.7,8.4c0.9,11.7,0.4,23.3,0.4,35c-0.1,11.7-0.8,23.3-0.7,35
		c0.1,5.6,0.5,11.3,0.1,16.9c-1.3,1.4-2.6,2.8-4,4.4c1.7,0.3,2.7-1.1,4-1.5c0.4,1.6-0.2,2.8-1.1,4.2c-4,6.6-7.6,13.4-10.1,20.7
		c-0.5,1.4-1.1,2.7-2.5,2.9c-1.7,0.3-2.2-1.4-2.8-2.5c-2.5-5.2-3.1-10.7-3.1-16.4c1.8-2.2,4.5-3.7,5.4-6.6c0.1-0.1,0.3-0.2,0.4-0.3
		c-0.1,0-0.2,0-0.2,0c-0.1,0.1-0.1,0.2-0.1,0.3c-2.2,0.4-3.8,1.9-5.6,3c-0.4-3.4,0.2-6.8,0.4-10.1c1.8-2.1,4.4-3.5,5.1-6.4
		c0.2,0,0.4,0,0.7-0.1c0-0.1-0.1-0.2-0.1-0.4c-0.2,0.2-0.3,0.3-0.5,0.5C270.3,421.6,268.7,422.5,267,423.3z"/>
	<path id="XMLID_1197_" class="st5" d="M266,493.7c1.3-0.3,1.5,0.4,1.4,1.4c-0.1,5.5-0.3,11,0.7,16.4c0.4,2.2-1.1,2-2.5,2
		c-5,0-10,0.1-15,0.1c-26.6,0-53.2-0.1-79.8-0.1c-8.2,0-13.3-6.6-10.4-13.6c1.6-3.9,4.7-6.3,8.9-6.3c16.5-0.1,33,0,49.5,0.1
		c-5.1,0.3-9.2,2.2-11.3,7.3c-0.1,0.1-0.2,0.3-0.3,0.4c0.1-0.1,0.3-0.2,0.4-0.3c4.7-1.7,9-3.9,12.7-7.4c7.3,0,14.5,0,21.8,0
		c-1.3,1-2.9,0.4-4.3,0.6c-1.3,0.1-3-0.5-3.9,0.7c-2,2.8-4.9,4.9-6,8.4c-0.1,0-0.2,0.1-0.3,0.1c0,0,0,0.1-0.1,0.2
		c0.1-0.1,0.2-0.2,0.3-0.3c3.4-1.2,6.2-3.3,9.3-5.1c2.3-1.3,5-2,6.4-4.5c4.8,0,9.5,0,14.3,0.1c-1.5,3.2-5.2,5-6.1,8.7
		c-0.1,0.1-0.2,0.2-0.3,0.4c0.1-0.1,0.2-0.2,0.4-0.3c4.4-1.5,8-4.5,12.1-6.5C265,495.6,266,495.1,266,493.7z M193.3,505.5
		c-4.5,1.7-8.2,4.6-13.1,7.3C188.3,513.2,190.3,512,193.3,505.5c0.4,0,0.7-0.2,1-0.3c-0.1-0.1-0.2-0.3-0.2-0.3
		C193.8,505.1,193.5,505.3,193.3,505.5z M240.5,504c-5.3,2.4-10.1,5.5-15.4,8.7C233.8,513.4,237.1,511.5,240.5,504
		c0.1,0,0.2,0,0.3-0.1c0,0,0-0.1,0.1-0.2C240.7,503.8,240.6,503.9,240.5,504z M217.2,504c-3.9,1.4-13.4,7.1-14.8,8.9
		C211.1,513.1,214.1,511.3,217.2,504c0.2-0.1,0.3-0.2,0.4-0.3C217.5,503.8,217.4,503.9,217.2,504z M247.8,512.5
		c5.9,0.8,6.7,0.3,9.1-5C253.8,509.2,251.2,510.7,247.8,512.5z"/>
	<path id="XMLID_1192_" class="st2" d="M294.3,356.3c-0.8-4.2-0.6-8.4-0.6-12.6c0-3.1,0.1-6.2-0.8-9.2c1.1,0,1.9-0.5,2.3-1.5
		c0,0,0,0,0,0c2.1-0.1,3.6-1.7,5.3-2.7c17.3-9.9,34.4-20,51.8-29.8c5.4-3,10.4-6.8,16.3-8.8c0.1,2.3-0.7,4.7,0.2,7
		c-12.3,7.6-24.5,15.2-36.8,22.8c0.2,0.3,0.4,0.6,0.5,0.9c4.7-1.8,8.7-4.9,13-7.3c7.7-4.2,15-9.2,23-12.9c0,2.5,0,5.1,0,7.6
		c-20,12.7-39.9,25.4-60,37.9C303.9,350.7,299.6,354.4,294.3,356.3z M328.4,324.5c1.4-0.1,2.3-0.2,2.7-1.8
		C329.8,322.9,329,322.9,328.4,324.5z M325.1,325.8c-0.1,0.2-0.2,0.4-0.3,0.6c0.2,0.1,0.5,0.3,0.6,0.2c0.2-0.1,0.2-0.4,0.3-0.6
		C325.5,326,325.3,325.9,325.1,325.8z M322.1,328.2c0.1,0,0.2,0.1,0.3,0.1c0,0,0.1-0.2,0.1-0.3c-0.1,0-0.2-0.1-0.3-0.1
		C322.1,328,322.1,328.1,322.1,328.2z"/>
	<path id="XMLID_1191_" class="st2" d="M134,493.5c0-14.3,0.1-28.5,0.1-42.8c2.7-1,4.9-2.8,7.4-4.2c5.3-2.9,9.8-7.3,15.6-9.3
		c0.3,6.3,0.6,12.7,0.8,19c0.3,7,4.3,11.3,11.3,11.7c3.7,0.2,7.5,0.1,11.2,0.1c-1,1.2-2.6,0.4-3.8,1.1c-8.3,4.9-16.7,9.8-25.1,14.6
		C145.8,487.1,140.2,490.9,134,493.5z"/>
	<path id="XMLID_1186_" class="st3" d="M301.1,569.4c-1.7-1.5-3-3.3-4.2-5.2c1.2-0.7,2.4-1.3,3.5-2c10.3-6.7,20.6-13.4,30.9-20.1
		c1.4,1.3,2.7,2.5,4.1,3.8c4.8,4.7,9.5,9.5,16.2,11.6c-13.3,7.7-26.5,15.5-39.8,23.2c-4-2.9-7.1-6.6-10.3-10.3
		c0.8-0.2,2.3-0.5,1.9-1.2C302.8,567.9,301.9,569.3,301.1,569.4z M310.1,564.6c-0.6,0.1-1.2,0.2-1.5,0.8c-0.2,0.2-0.3,0.4-0.5,0.6
		c0.3-0.1,0.5-0.2,0.8-0.3c0.6-0.1,1.1-0.2,1.4-0.9c0.2-0.2,0.3-0.4,0.5-0.6C310.6,564.4,310.4,564.5,310.1,564.6z M304,568.3
		c1.6,0.2,2.5-0.5,3.4-1.9C305.8,566.5,304.8,567,304,568.3z M312.1,563.8c0.1-0.1,0.2-0.1,0.3-0.2c-0.1-0.1-0.2-0.2-0.2-0.2
		c-0.1,0-0.2,0.1-0.3,0.2C311.9,563.7,312,563.8,312.1,563.8z"/>
	<path id="XMLID_1185_" class="st4" d="M318,377.3c-0.2-3.6-0.3-7.1,0.4-10.7c1.2-6,1.1-6,7.5-7.2c-1,2.3-2,4.6-3,6.9
		c0.2,0.2,0.4,0.4,0.6,0.5c3.4-2.1,6.8-4.2,10.2-6.2c3.2,1.8,3.7,5.1,4.2,8.3c-1.9,1.9-3.8,3.8-6,5.9c2.7,0.4,4.1-1.7,6.1-2.2
		c0,3.5,0,7.1-0.1,10.6c-2.1,1.6-3.8,3.7-5.3,5.9c-0.1,0.2-0.2,0.5-0.3,0.7c0.3-0.1,0.5-0.1,0.8-0.2c1.8-0.4,3.2-1.6,4.8-2.5
		c0.3,1.3,0.1,2.3-1.3,3c-6,2.8-11.8,6.2-17.7,10.3c0.2-2.4,0.3-4.3,0.5-6.2c1.8-2,3.6-4,5.4-6c-2.4,0.1-4,1.2-5.6,2.4
		c-1-3.2-0.4-6.5-0.8-9.7c1.8-2.1,4.1-3.8,4.9-6.9C321.5,375.2,319.7,376.2,318,377.3z"/>
	<path id="XMLID_1184_" class="st6" d="M149.8,283.4c-3.5-0.2-7.1-0.4-11.2-0.6c1.9-2.8,3.1-5.4,5.1-7.4c0.3-0.3,0.6-0.6,0.8-1
		c0,0-0.1,0-0.1,0c2.2-0.8,4.8-1.1,3.7-4.6c6.2-8.1,13.8-14.5,22.5-20.4c1.1,3.5,0.9,6.8,0.8,10.1c-1.9,1.5-3.7,3.1-5.2,5.1
		c-0.2,0.3-0.5,0.5-0.7,0.8c-0.3,0.1-0.7,0.2-1,0.3c0.1,0.1,0.1,0.2,0.2,0.3c0.3-0.2,0.5-0.4,0.8-0.6c0.3-0.2,0.5-0.5,0.8-0.7
		c2.1,0.2,3.4-1.6,5.1-2.3c0.1,3.7,0.3,7.4-0.5,11.1c-1.3,6.2-4.3,8.8-10.7,9.2c1.3-2.8,3.5-5.2,4.5-9.2c-5.3,3.1-9.9,5.7-14.5,8.5
		C150,282.2,149.9,282.9,149.8,283.4z"/>
	<path id="XMLID_1183_" class="st2" d="M185.8,520.6c6,0,12,0,18,0.1c-2.8,3-6.6,4.3-10,6.3c-16.8,9.9-33.8,19.6-50.7,29.4
		c-2.5-0.8-4.7-2.1-6.2-4.3C153.1,541.6,169.4,531.1,185.8,520.6z"/>
	<path id="XMLID_1182_" class="st2" d="M166.5,518.1c5.1,0.7,10.2,1.4,15.3,2.1c-4.7,2.6-9.3,5.1-14,7.7
		c-11.3,6.5-22.6,13-33.8,19.5c-1.4-2.1-1.6-4.4-1.8-6.8c10.7-6.7,21.5-13.4,32.2-20.2C165.2,520,166.3,519.4,166.5,518.1z"/>
	<path id="XMLID_1181_" class="st7" d="M294.3,356.3c5.3-1.9,9.7-5.6,14.4-8.5c20.1-12.6,40-25.3,60-37.9c0.2,0.5,0.3,0.9,0.5,1.4
		c0,1.5,0.1,3.1,0.1,4.6c-0.2,0.2-0.3,0.5-0.5,0.7c-11.8,6.7-23.5,13.4-35.3,20.1c-12,6.9-23.9,13.9-35.8,20.7
		c-0.9,0.5-2.1,0.8-3.1,1.2C294.4,357.8,294.4,357,294.3,356.3z"/>
	<path id="XMLID_1180_" class="st1" d="M448.8,404.9c-23.9,13.7-47.8,27.5-71.7,41.2c-0.2-0.4-0.4-0.7-0.6-1.1
		c22.2-14.6,44.3-29.3,66.5-43.9C445.2,402,447.1,403.3,448.8,404.9z"/>
	<path id="XMLID_1179_" class="st3" d="M293.7,559.4c-1.2-2-2.4-3.9-3.6-5.9c3.5-2.3,6.9-4.5,10.4-6.8c0.3-0.2,0.6-0.5,0.8-0.7
		c0,0,0,0.1,0,0.1c7.1-3.9,13.8-8.6,20.7-13c2.3,1.8,4.5,3.7,6.3,5.9C316.8,545.9,305.2,552.7,293.7,559.4z"/>
	<path id="XMLID_1178_" class="st7" d="M143.1,556.4c16.9-9.8,33.8-19.5,50.7-29.4c3.4-2,7.2-3.4,10-6.3c1.5,0,3,0,4.5,0
		c-7.6,6.1-16.1,10.7-24.1,16.1c-10.3,6.8-20.6,13.3-30.9,20c-0.8,0.5-1.3,1.4-2,2.1C148.3,558.6,145.6,557.6,143.1,556.4z"/>
	<path id="XMLID_1177_" class="st1" d="M494.1,482.8c-16.6,9.5-33.2,19.1-49.8,28.6c-5.4,3.1-10.8,6.1-16.2,9.2
		c-0.3-0.2-0.5-0.5-0.8-0.7c21.5-14.2,43.1-28.4,64.6-42.6c0.4-0.3,0.9-0.4,1.4-0.6C494.2,478.6,494.2,480.7,494.1,482.8z"/>
	<path id="XMLID_1176_" class="st7" d="M370.4,264.7c-4.8,1-8.5,4-12.5,6.3c-19.8,11.3-39.4,22.8-59.1,34.3
		c-0.9,0.5-1.9,0.9-3.1,0.9c2.3-2.8,5.6-4.3,8.5-6.1c19.3-12.3,38.7-24.5,58.1-36.7c2.4-1.5,4.6-3.5,7.5-4
		C370.5,261.2,370.4,263,370.4,264.7z"/>
	<path id="XMLID_1175_" class="st8" d="M338.5,462.5c-16,10.6-31.9,21.3-47.9,31.9c-4.9,3.2-9.8,6.4-14.7,9.6c0-2.2,0-4.4-0.1-6.6
		c19.1-11,38.3-22,57.4-33c1.5-0.9,3.1-1.6,4.6-2.4C338.1,462,338.3,462.3,338.5,462.5z"/>
	<path id="XMLID_1174_" class="st3" d="M288.4,550.1c-1.3-1.8-2.2-3.8-2.9-5.9c1.3-0.7,2.6-1.4,3.9-2.2c8.7-5.4,17.5-10.9,26.2-16.3
		c1.7,2,3.4,4.1,5,6.1c-6.4,3.8-12.9,7.5-19.3,11.3C297,545.3,292.7,547.7,288.4,550.1z"/>
	<path id="XMLID_1173_" class="st7" d="M134,493.5c6.2-2.6,11.8-6.4,17.6-9.7c8.4-4.8,16.8-9.7,25.1-14.6c1.2-0.7,2.8,0,3.8-1.1
		c2.5,0,4.4-1.6,6.5-2.6c-0.1,2.8-2.8,3.3-4.5,4.4c-15.1,9.7-30.4,19.3-45.6,28.9c-1,0.6-1.9,1.7-3.3,1.4
		C133.7,498,133.9,495.7,134,493.5z"/>
	<path id="XMLID_1172_" class="st1" d="M435.9,397.5c-14.1,8.2-28.2,16.5-42.4,24.7c-6.7,3.9-13.4,7.7-20.2,11.5
		c-0.3-0.3-0.6-0.5-0.8-0.8c18-12,36.1-24.1,54.1-36.1c1-0.7,2-1.5,3-2.2C431.9,395.2,434.1,395.9,435.9,397.5z"/>
	<path id="XMLID_1171_" class="st7" d="M368.7,291.7c-5.9,2.1-11,5.8-16.3,8.8c-17.3,9.8-34.5,19.9-51.8,29.8
		c-1.7,1-3.1,2.6-5.3,2.7c2.5-4.2,7.2-5.5,11-8c13.8-9,27.9-17.7,41.9-26.5c6.2-3.9,12.4-7.8,18.6-11.7c0.8-0.5,1.8-0.7,2.8-1.1
		c-0.1,1.8-0.2,3.5-0.2,5.3C369.1,291.2,368.9,291.5,368.7,291.7z"/>
	<path id="XMLID_1170_" class="st3" d="M482.3,443c1.3,1.8,2.3,3.9,2.8,6.1c-11.1,7.2-22.2,14.5-33.4,21.7c-1.1,0.7-2,1.9-3.6,1.8
		c0.7-2.7,3-4.1,4.8-5.8c2.9-2.8,5.1-5.7,5.1-9.9C466.2,452.2,474.2,447.6,482.3,443z"/>
	<path id="XMLID_1169_" class="st1" d="M448.2,472.5c1.6,0.2,2.5-1.1,3.6-1.8c11.2-7.2,22.3-14.4,33.4-21.7c1.2,1.7,1.9,3.7,2.3,5.7
		c-14.4,8.3-28.9,16.6-43.3,24.9c-1.5,0.8-2.8,2.1-4.8,1.9c1.8-2.8,4.3-4.9,6.6-7.2c0.6-0.2,1.3-0.4,1.5-1.1l-0.1,0
		C447.9,473.2,448.3,473.1,448.2,472.5L448.2,472.5z"/>
	<path id="XMLID_1168_" class="st7" d="M370.3,277.5c-6.8,2.6-12.7,6.9-18.9,10.4c-14.1,7.9-28.1,16.2-42.1,24.2
		c-3.4,1.9-6.5,4.5-10.3,5.7c-0.7-1.4,0.5-1.4,1-1.7c21-13.3,42.1-26.7,63.1-39.9c2.4-1.5,4.5-3.6,7.5-3.9
		C370.5,274,370.4,275.7,370.3,277.5z"/>
	<path id="XMLID_1167_" class="st1" d="M311.8,580.6c13.3-7.7,26.5-15.5,39.8-23.2c2.2,0,4.4,0,6.5,0c-12.7,8.5-25.5,16.9-38.2,25.4
		c-1,0.7-2,1.4-3,2.2C315.1,583.6,313.2,582.4,311.8,580.6z"/>
	<path id="XMLID_1166_" class="st7" d="M133.9,547.6c11.3-6.5,22.5-13,33.8-19.5c4.6-2.6,9.3-5.2,14-7.7c1.3,0.1,2.7,0.2,4,0.3
		c-16.3,10.5-32.6,21-48.9,31.5C135.3,550.9,134.3,549.4,133.9,547.6z"/>
	<path id="XMLID_1165_" class="st8" d="M155.5,512.9c2.3,1.3,4.7,2.6,7,3.9c-2.6,3.4-6.6,4.6-10.1,6.6c-6.9,3.9-13.3,8.6-20.7,11.4
		c-0.6-2.5-0.7-5,0.1-7.5c1.4-0.1,2.5-1,3.7-1.7C142.1,521.3,148.8,517.1,155.5,512.9z"/>
	<path id="XMLID_1164_" class="st1" d="M383.7,554.9c-18.8,12.3-37.7,24.7-56.5,37c-1.8-0.7-3.3-1.8-4.7-3.1
		c19.4-11.2,38.8-22.3,58.2-33.5c0.8-0.4,1.5-0.8,2.3-1.2C383.2,554.5,383.5,554.7,383.7,554.9z"/>
	<path id="XMLID_1163_" class="st9" d="M293.7,559.4c11.6-6.8,23.1-13.5,34.7-20.3c1.2,0.7,2.2,1.7,3,2.9
		c-10.3,6.7-20.6,13.4-30.9,20.1c-1.1,0.7-2.3,1.4-3.5,2C295.8,562.6,294.7,561,293.7,559.4z"/>
	<path id="XMLID_1162_" class="st10" d="M133.9,420.8c-0.5-2.8-0.7-5.5,0-8.3c0.8,0,1.4-0.3,2-0.7c7.3-4.5,14.6-9,21.9-13.5
		c0.1,3,0.3,6-0.2,9C149.7,411.8,141.8,416.3,133.9,420.8z"/>
	<path id="XMLID_1161_" class="st7" d="M161,560.2c8.5-5.8,17.8-10.5,26.6-15.8c10.9-6.5,21.9-12.8,32.9-19.1
		c0.6-0.4,1.3-0.6,2.1-0.9c0.5,1.4-0.7,1.7-1.2,2c-15.7,10.3-31.5,20.5-47.3,30.6c-1.5,1-2.3,2.6-3.8,3.5
		C167.2,560.8,164.1,560.5,161,560.2z"/>
	<path id="XMLID_1160_" class="st10" d="M353.8,383.2c-2.4,0.9-4.8,1.8-7.2,2.7c-1.8,0.7-2.2,0-1.9-1.7c0.3-1.8,0.3-3.7,0.5-5.5
		c8.4-3.8,16-9.1,24.1-13.5c0.3,2.7,0.4,5.5,0,8.2c-4.3,1.5-7.9,4.4-11.7,6.7c-0.9,0.6-1.5,1.2-1.5,2.3c0,0-0.2,0-0.2,0
		C355,382.6,354.3,382.5,353.8,383.2z"/>
	<path id="XMLID_1159_" class="st8" d="M312.6,397.4c0.8,4.3,0.1,7.9-3.5,10.9c-5.4,4.4-10.2,9.5-15,15.4c0-5.6,0-10.7,0-15.8
		c2.2,0.1,3.7-1.5,5.3-2.5C303.7,402.8,308.7,401.1,312.6,397.4z"/>
	<path id="XMLID_1158_" class="st1" d="M326,456c-16.2,10.8-32.5,21.7-48.7,32.5c-0.4,0.3-0.9,0.4-1.4,0.6c0.2-2,0.5-4.1,0.7-6.1
		c16.2-9.3,32.3-18.5,48.5-27.8C325.4,455.4,325.7,455.7,326,456z"/>
	<path id="XMLID_1157_" class="st3" d="M465.8,419.3c1.7,1.5,3.3,3.1,4.4,5.1c-5.1,3.2-10.1,6.4-15.1,9.7c-0.9,0.6-2.6,0.6-2.3,2.4
		c0,0,0,0,0,0c-1.9-0.7-2.9,1.2-4.4,1.7c-3.2-1.7-6.5-2.8-10.2-2.3c0.9-0.6,1.8-1.3,2.7-1.9C449.2,429,457.8,424.7,465.8,419.3z"/>
	<path id="XMLID_1156_" class="st2" d="M134.1,433.5c-0.3-2.5-0.4-5,0-7.5c7.7-4.8,15.4-9.5,23.1-14.3c0.1,2.8,0.1,5.6,0.2,8.3
		c0,0.2,0,0.5-0.1,0.7c-2,1.1-3.9,2.2-5.9,3.2C145.6,427.1,140.1,430.9,134.1,433.5z"/>
	<path id="XMLID_1155_" class="st2" d="M189.5,244.6c4.5-1,9-1,13.5-0.9c-0.7,1.3-1.9,2.2-3.1,3.1c-6.8,5.2-13.4,10.4-20.2,15.7
		c0,0,0,0,0,0c-0.2,0-0.4,0-0.7,0c0-3.5-0.1-7-0.1-10.5c0.1-1.7,1.6-2.1,2.7-2.8C184.2,247.6,186.9,246.1,189.5,244.6z"/>
	<path id="XMLID_1154_" class="st2" d="M134.1,444.8c0-2.7,0-5.5,0-8.2c1.4-0.2,2.5-1,3.6-1.7c6.5-4,13-7.9,19.5-11.8
		c0,2.8,0,5.5-0.1,8.3c-1.4,0.8-2.8,1.7-4.1,2.5C146.7,437.4,140.4,441.1,134.1,444.8z"/>
	<path id="XMLID_1153_" class="st3" d="M477.2,434c1.4,1.8,2.7,3.7,3.4,5.9c-7.9,4.1-15,9.6-22.7,14c-0.9-2.5-1.7-4.9-2.6-7.4
		C462.6,442.3,469.9,438.2,477.2,434z"/>
	<path id="XMLID_1152_" class="st1" d="M402.6,442.6c16.3-10.5,32.5-21.1,48.8-31.6c1-0.7,2-1.4,3-2.1c1.3,1,3,1.6,3.5,3.4
		c-11.4,5.9-22.3,12.7-33.4,19c-7,4-14.1,8-21.1,12C403.1,443.1,402.8,442.8,402.6,442.6z"/>
	<path id="XMLID_1151_" class="st7" d="M257,243.7c-2.7,3.1-6.6,4.4-10,6.4c-11.4,6.8-23,13.4-34.6,20c-0.9,0.5-1.8,1.4-3.8,0.7
		c13.4-9.4,26.4-18.4,39.3-27.5C251,243.4,254,243.6,257,243.7z"/>
	<path id="XMLID_1150_" class="st1" d="M465.8,419.3c-8,5.4-16.6,9.7-24.8,14.7c-0.9,0.6-1.8,1.2-2.7,1.8c-5.2,2.3-10,5.2-14.5,8.7
		c-0.8-0.1-1.5,0-1.7,1l0.1,0c-4,0.8-6.8,3.9-10.5,5.3c-0.3-0.2-0.5-0.5-0.8-0.7c16-10.3,32-20.7,48-31c1.3-0.9,2.6-1.9,3.9-2.8
		C463.8,417.3,464.8,418.3,465.8,419.3z"/>
	<path id="XMLID_1149_" class="st1" d="M494.9,495.5c-14.9,8.6-29.8,17.1-44.7,25.7c-1.1,0.6-2.2,1.2-3.3,1.7
		c-0.3-0.3-0.6-0.6-0.9-0.8c16.3-10.6,32.5-21.1,48.8-31.7C495.1,492,495.4,493.7,494.9,495.5z"/>
	<path id="XMLID_1148_" class="st3" d="M471.5,426.1c1.6,1.5,2.9,3.3,3.8,5.3c-7,4.4-13.9,8.8-20.9,13.3c-1.7-1.9-3.3-3.8-5-5.6
		c1.1-0.9,2.7-1,3.3-2.5c0,0,0,0,0,0C459.4,433.7,465.3,429.7,471.5,426.1z"/>
	<path id="XMLID_1147_" class="st10" d="M278.7,522.5c16.3-9.4,32.7-18.8,49-28.1c1-0.6,2-1.5,3.6-1.5c-0.2,1.2-1.2,1.5-1.9,2
		c-16.2,10.4-32.4,20.8-48.5,31.2c-0.4,0.3-0.9,0.4-1.4,0.6C278.6,525.4,278.6,524,278.7,522.5z"/>
	<path id="XMLID_1146_" class="st8" d="M151.5,501.9c0.6,2.7,0.4,5.5,1.5,8c-0.7,0.3-1.4,0.5-2,0.8c-6.4,3.4-12.4,7.5-19.1,10.5
		c-0.2-2.5-0.1-5.1,0.7-7.5C138.9,509.8,145.2,505.8,151.5,501.9z"/>
	<path id="XMLID_1145_" class="st7" d="M131.7,534.8c7.5-2.8,13.9-7.5,20.7-11.4c3.5-2,7.5-3.2,10.1-6.6c1,0.3,2,0.6,3,1
		c0.3,0.1,0.6,0.3,0.9,0.4c0,0,0.1,0,0.1,0c-0.2,1.3-1.2,1.8-2.1,2.4c-10.7,6.7-21.4,13.5-32.2,20.2
		C131.6,538.8,131.7,536.8,131.7,534.8z"/>
	<path id="XMLID_1144_" class="st10" d="M327.1,483.4c-13.3,8.7-26.7,17.4-40.1,26.1c-3.2,2.1-6.6,4.1-9.8,6.1
		c-0.7-1.3-0.8-2.7-0.6-4.2c15.7-9,31.3-18.1,47-27.1c1-0.6,2-1,3-1.5C326.8,483.1,327,483.3,327.1,483.4z"/>
	<path id="XMLID_1143_" class="st7" d="M346.9,243.3c-2.3,3.2-6,4.2-9.2,6.1c-14.5,8.6-29.1,16.9-43.6,25.3
		c-0.9,0.5-1.8,1.2-3.7,0.8c16.7-10.7,32.9-21.1,49.1-31.5C342,243.8,344.4,243.5,346.9,243.3z"/>
	<path id="XMLID_1142_" class="st11" d="M369.2,365.3c-8.1,4.4-15.7,9.7-24.1,13.5c0.1-1.4,0.2-2.8,0.3-4.2c0.1-0.3,0.2-0.7,0.3-1
		c7.7-4.8,15.4-9.6,23-14.3c0,0,0.2,0.1,0.2,0.1s0.2,0,0.2,0C369.2,361.3,369.2,363.3,369.2,365.3z"/>
	<path id="XMLID_1141_" class="st7" d="M361.3,246.1c-0.9,3.4-4.3,3.6-6.6,4.9c-13,7.8-26.2,15.2-39.3,22.8c-0.9,0.5-1.8,1.3-3.7,1
		c3.4-3.4,7.5-5.2,11.1-7.5c10.4-6.8,21-13.2,31.5-19.8c1.6-1,3.2-2,5.1-2.3C360.1,245.1,360.7,245.5,361.3,246.1z"/>
	<path id="XMLID_1140_" class="st11" d="M134.1,444.8c6.3-3.7,12.6-7.3,18.9-11c1.4-0.8,2.8-1.6,4.1-2.5c0,2,0,4,0,6
		c-5.9,2-10.3,6.4-15.6,9.3c-2.5,1.3-4.7,3.2-7.4,4.2C134.1,448.8,134.1,446.8,134.1,444.8z"/>
	<path id="XMLID_1139_" class="st7" d="M134.1,393.8c6.1-2,11.1-6,16.7-8.9c2.4-1.3,4.8-2.6,7.2-3.9c0,1.5,0,3,0,4.5
		c-1.4,0.2-2.5,1.1-3.6,1.8c-6.7,4.2-13.5,8.3-20.2,12.5c-0.2,0-0.3,0-0.5,0c0-1.7-0.1-3.5-0.1-5.2
		C133.7,394.3,133.9,394,134.1,393.8z"/>
	<path id="XMLID_1138_" class="st7" d="M131.9,521.3c6.6-3,12.7-7.1,19.1-10.5c0.6-0.3,1.3-0.5,2-0.8c0.9,1,1.7,2,2.6,2.9
		c-6.7,4.2-13.4,8.4-20.1,12.7c-1.2,0.7-2.2,1.6-3.7,1.7C131.8,525.3,131.8,523.3,131.9,521.3z"/>
	<path id="XMLID_1137_" class="st7" d="M133.5,309.7c11.2-6.5,22.3-13,33.5-19.5c0.2,0.3,0.4,0.6,0.6,0.9c-2.2,1.6-4.5,3.3-6.7,4.9
		c-8.3,5.8-16.7,11.6-25,17.5c-0.8,0.5-1.5,0.7-2.4,0.7C133.5,312.8,133.5,311.2,133.5,309.7z"/>
	<path id="XMLID_1136_" class="st7" d="M133.3,363c10.1-5.8,20.3-11.6,30.4-17.4c4.3-2.5,8.7-4.9,13-7.4c0.2,0.3,0.3,0.6,0.5,0.9
		c-4.7,3.1-9.4,6.2-14.2,9.2c-9.5,6-18.9,12-28.4,17.9c-0.4,0.3-0.9,0.3-1.4,0.5C133.4,365.5,133.3,364.3,133.3,363z"/>
	<path id="XMLID_1135_" class="st7" d="M133.4,374.3c6.7-2.7,12.6-7,18.9-10.4c7.3-4,14.4-8.3,21.6-12.5c0.7-0.4,1.5-0.6,2.7-0.2
		c-3.6,2.4-7.1,4.9-10.8,7.2c-9.8,6.2-19.6,12.3-29.4,18.3c-0.9,0.6-2,0.9-3,1.3C133.4,376.8,133.4,375.5,133.4,374.3z"/>
	<path id="XMLID_1134_" class="st7" d="M179.8,262.5c6.7-5.2,13.4-10.5,20.2-15.7c1.2-0.9,2.4-1.8,3.1-3.1c3.2-0.2,6.5-0.3,9.7-0.5
		c-0.8,2.8-3.7,3.2-5.7,4.4c-7.8,4.8-15.9,9.3-23.8,13.9C182.2,262.1,181.1,262.6,179.8,262.5z"/>
	<path id="XMLID_1133_" class="st7" d="M157.1,411.7c-7.7,4.8-15.4,9.5-23.1,14.3c0-1.7-0.1-3.5-0.1-5.2c7.9-4.5,15.8-9,23.7-13.5
		c-0.1,1.1-0.2,2.3-0.2,3.4C157.3,411,157.2,411.4,157.1,411.7z"/>
	<path id="XMLID_1132_" class="st7" d="M157.9,398.2c-7.3,4.5-14.6,9-21.9,13.5c-0.7,0.4-1.3,0.7-2,0.7c-0.1-1.5-0.1-3-0.2-4.5
		c0.2-0.2,0.3-0.4,0.5-0.6c1.6-0.7,3.1-1.4,4.7-2.3c6.4-3.5,12.3-7.9,19.1-10.6C157.9,395.8,157.9,397,157.9,398.2z"/>
	<path id="XMLID_1131_" class="st1" d="M406.6,606.8c10.8-6.8,21.8-13.1,33.1-19.1c0.1,0.1,0.3,0.3,0.4,0.4
		c-5.4,4.3-10.7,8.6-16.1,13c-0.7,0.6-1.8,0.9-2,2c0,0,0,0,0,0c-0.3,0.2-0.7,0.4-1,0.6C416.4,605.3,411.6,606.8,406.6,606.8z"/>
	<path id="XMLID_1130_" class="st1" d="M367.9,606.9c11.6-6.7,23.2-13.3,34.7-20c0.2,0.3,0.4,0.7,0.6,1
		c-9.8,6.7-19.6,13.4-29.4,20.1C371.9,607.8,369.8,607.9,367.9,606.9z"/>
	<path id="XMLID_1129_" class="st7" d="M235.3,243.1c-5.3,4.1-11.5,6.7-17.2,10.3c-4.6,2.9-9.4,5.5-14.2,8.2
		c-0.6,0.3-1.3,0.8-2.5,0.1c8.7-6.3,17.2-12.5,25.6-18.7C229.8,243.1,232.5,243.1,235.3,243.1z"/>
	<path id="XMLID_1128_" class="st7" d="M295.3,244.6c-8.9,6.1-18.7,10.9-27.9,16.5c-3.4,2.1-6.9,4-10.6,5.6c2.7-3.1,6.3-5,9.6-7.2
		c7.1-4.6,14.2-9.2,21.3-13.7c0.4-0.3,0.6-0.8,0.9-1.2C290.8,244.5,293,244.6,295.3,244.6z"/>
	<path id="XMLID_1127_" class="st7" d="M225.5,558c10-6.4,20.4-12.2,30.8-18c0.2,0.3,0.4,0.7,0.7,1c-2.4,1.8-4.9,3.5-7.2,5.3
		c-5.1,3.9-10.6,7.2-15.3,11.7C231.5,558,228.5,558,225.5,558z"/>
	<path id="XMLID_1126_" class="st7" d="M275.8,244c-3.7,3.9-8.9,5.8-13.3,8.6c-6.4,4-13.1,7.6-19.7,11.4c-0.5,0.3-1.1,0.4-2.1,0.8
		c0.7-1.9,2-2.3,3-3c8.6-6.1,17.8-11.4,26.1-17.8C271.8,243.9,273.8,244,275.8,244z"/>
	<path id="XMLID_1125_" class="st7" d="M207,558.5c-2.1-1.8,0.4-2.1,1-2.5c5.6-3.3,11.2-6.5,16.9-9.6c3.7-2.1,7.2-4.6,11.4-5.9
		c-1.5,2.4-3.9,3.5-6,5.1c-5.7,4.3-12.3,7.5-17.5,12.5C210.8,558.2,208.9,558.3,207,558.5z"/>
	<path id="XMLID_1124_" class="st1" d="M457.9,453.9c7.7-4.4,14.8-9.9,22.7-14c1,0.8,1.3,2,1.7,3.1c-8.1,4.6-16.1,9.2-24.2,13.7
		C458,455.8,458,454.8,457.9,453.9z"/>
	<path id="XMLID_1123_" class="st7" d="M368.7,302.2c-8,3.8-15.3,8.8-23,12.9c-4.4,2.4-8.4,5.5-13,7.3c-0.2-0.3-0.4-0.6-0.5-0.9
		c12.3-7.6,24.5-15.2,36.8-22.8c0,0,0.3-0.1,0.3-0.1c0,1,0,2,0,3C369,301.8,368.9,302,368.7,302.2z"/>
	<path id="XMLID_1122_" class="st7" d="M182.8,560.2c4.4-3.7,9.7-5.9,14.6-8.8c5.3-3.2,10.7-6.3,16.1-9.4c0.8-0.5,1.6-1.1,3.2-0.8
		c-2.6,2.7-5.6,4.2-8.3,6c-5.3,3.5-10.6,7-15.8,10.5c-0.8,0.5-1.4,1-1.4,2C188.3,560.2,185.5,560.4,182.8,560.2z"/>
	<path id="XMLID_1121_" class="st10" d="M315.6,525.6c-8.7,5.4-17.5,10.9-26.2,16.3c-1.3,0.8-2.6,1.5-3.9,2.2
		c-0.4-0.8-0.8-1.7-1.2-2.5c10.2-5.8,20.3-11.7,30.5-17.5C315,524.6,315.3,525.1,315.6,525.6z"/>
	<path id="XMLID_1120_" class="st1" d="M343.2,600c9.2-6,18.9-11.2,28.4-16.6c0.3,0.3,0.6,0.6,0.9,0.9c-8.6,5.7-17.2,11.4-25.8,17.1
		C345.5,600.9,344.4,600.4,343.2,600z"/>
	<path id="XMLID_1119_" class="st1" d="M366.2,392.9c2.8-2.2,5.7-4.4,8.5-6.6c3.8-0.6,7.6-1,11.4-0.7c-5.3,3.7-10.9,6.7-16.6,9.7
		C368.8,393.9,367.8,393,366.2,392.9z"/>
	<path id="XMLID_1118_" class="st7" d="M133.4,334.5c10-5.8,20-11.6,29.9-17.3c0.2,0.3,0.4,0.6,0.6,1c-5.2,3.5-10.3,7.2-15.7,10.3
		c-5,2.9-9.3,7-14.8,9.1C133.4,336.5,133.4,335.5,133.4,334.5z"/>
	<path id="XMLID_1117_" class="st7" d="M151.5,501.9c-6.3,4-12.6,7.9-18.9,11.9c0.1-1.5,0.2-3,0.2-4.5c6.5-3.8,12.8-7.9,19.7-11.1
		C152.1,499.4,151.8,500.6,151.5,501.9z"/>
	<path id="XMLID_1116_" class="st1" d="M454.4,444.6c7-4.4,13.9-8.8,20.9-13.3c0.6,0.9,1.2,1.8,1.8,2.7c-7.3,4.2-14.6,8.3-21.8,12.5
		C455,445.9,454.7,445.2,454.4,444.6z"/>
	<path id="XMLID_1115_" class="st7" d="M133.4,322.5c7.2-3.1,13.7-7.6,20.5-11.3c1.4-0.7,2.7-1.7,4.2-2c0.2,0.3,0.4,0.6,0.5,0.9
		c-8.4,5.4-16.9,10.8-25.3,16.1C133.4,325,133.4,323.8,133.4,322.5z"/>
	<path id="XMLID_1114_" class="st1" d="M354.9,603.9c8.9-5.2,17.7-10.3,26.6-15.5c0.2,0.3,0.4,0.6,0.6,0.9
		c-7.8,5.2-15.6,10.5-23.5,15.7C357.4,604.8,356,604.8,354.9,603.9z"/>
	<path id="XMLID_1113_" class="st10" d="M295.5,431.6c5.7-3.1,11.5-6.2,17.2-9.4c0.6,1-0.1,1.3-0.5,1.6c-6.1,4.4-12.3,8.9-18.4,13.3
		c-0.7,0.5-1.3,1.2-2.3,0.9C292.2,435.5,293.9,433.6,295.5,431.6z"/>
	<path id="XMLID_1112_" class="st8" d="M149.8,283.4c0.2-0.5,0.2-1.1,0.5-1.3c4.6-2.7,9.3-5.4,14.5-8.5c-1,4-3.2,6.4-4.5,9.2
		C156.8,283.9,153.3,283.4,149.8,283.4z"/>
	<path id="XMLID_1111_" class="st7" d="M157.2,423c-6.5,3.9-13,7.8-19.5,11.8c-1.2,0.7-2.2,1.6-3.6,1.7c0-1,0-2,0-3
		c6.1-2.6,11.5-6.4,17.3-9.5c2-1.1,3.9-2.2,5.9-3.2C157.2,421.5,157.2,422.3,157.2,423z"/>
	<path id="XMLID_1110_" class="st1" d="M465.8,553.8c7.1-5.1,14.2-10.2,21.9-14.5c-0.4,1.5-0.8,3.1-1.9,4.4
		c-0.4,0.2-0.9,0.3-0.8,0.9c0,0,0.1,0,0.1,0c-3.9,0.6-6.6,3.4-10,5.1c-3,1.5-5.8,3.1-8.7,4.7C466.2,554.2,466,554,465.8,553.8z"/>
	<path id="XMLID_1109_" class="st12" d="M493.4,516.7c-6.8,3.8-13.5,7.6-20.3,11.4c-0.3-0.3-0.6-0.5-0.9-0.8
		c7.2-4.7,14.1-9.7,21.7-13.8C494.1,514.6,494.1,515.7,493.4,516.7z"/>
	<path id="XMLID_1108_" class="st2" d="M243.5,493.7c-1.4,2.5-4.1,3.2-6.4,4.5c-3.1,1.8-6,3.8-9.3,5.1l0,0c1.1-3.4,4-5.6,6-8.4
		c0.9-1.2,2.6-0.5,3.9-0.7c1.4-0.2,3,0.5,4.3-0.6C242.5,493.7,243,493.7,243.5,493.7z"/>
	<path id="XMLID_1107_" class="st7" d="M312.6,397.4c-3.8,3.6-8.8,5.4-13.2,8.1c-1.6,1-3.1,2.6-5.3,2.5c0-0.5,0-1,0-1.5
		c0.2-0.2,0.4-0.5,0.6-0.7c4.7-2.9,9.5-5.8,14.2-8.8c1.2-0.7,2.2-1.6,3.7-1.7C312.5,396,312.5,396.7,312.6,397.4z"/>
	<path id="XMLID_1106_" class="st10" d="M288.4,550.1c4.3-2.4,8.6-4.7,12.9-7.1c0,1.1,0.1,2.1,0.1,3.2c0,0,0-0.1,0-0.1
		c-0.3,0.2-0.6,0.5-0.8,0.7c-3.5,2.3-6.9,4.5-10.4,6.8C289.2,552.6,288.6,551.4,288.4,550.1z"/>
	<path id="XMLID_1105_" class="st2" d="M266,493.7c0,1.4-1,1.9-2.1,2.4c-4.1,2-7.8,5-12.1,6.5l-0.1-0.1c0.9-3.7,4.5-5.5,6.1-8.7
		c0.5,0,1,0,1.5-0.1c0.7,0.7,1.5,0.7,2.2,0C263,493.7,264.5,493.7,266,493.7z"/>
	<path id="XMLID_1104_" class="st9" d="M356,382.6c0-1.1,0.6-1.8,1.5-2.3c3.8-2.4,7.4-5.2,11.7-6.7c0,1.3,0,2.5,0,3.8
		c-1.6,1.2-3.9,1.6-5,3.6C361.5,381.4,358.8,382,356,382.6z"/>
	<path id="XMLID_1103_" class="st2" d="M134.1,297c0-0.2-0.1-0.5-0.1-0.7c0.5-6.7,1-7.1,7.6-6.8c1.7,0.1,3.5,0.1,5.2,0.2
		C142.5,292.1,138.3,294.6,134.1,297z"/>
	<path id="XMLID_1102_" class="st7" d="M134.1,297c4.2-2.5,8.4-4.9,12.7-7.4c0.8,0,1.5,0.1,2.3,0.1c-0.7,2.5-3.2,3-4.9,4.2
		c-3.3,2.3-6.3,5.2-10.1,6.8C134,299.5,134.1,298.3,134.1,297z"/>
	<path id="XMLID_1101_" class="st9" d="M170,488.3c3.4-3.4,7.9-5,12-7.4c3-1.8,5.8-4.1,9.4-4.8c-4.7,4.8-11.3,6.9-16.1,11.5
		C173.6,488.2,171.8,488.3,170,488.3z"/>
	<path id="XMLID_1100_" class="st8" d="M333.7,360.6c-3.4,2.1-6.8,4.2-10.2,6.2c-0.2-0.2-0.4-0.4-0.6-0.5c1-2.3,2-4.6,3-6.9
		C328.6,359.2,331.4,358.6,333.7,360.6z"/>
	<path id="XMLID_1099_" class="st12" d="M471.5,426.1c-6.2,3.6-12.1,7.7-18.8,10.5c-0.3-1.8,1.4-1.8,2.3-2.4
		c5-3.3,10.1-6.5,15.1-9.7C470.6,425,471.1,425.5,471.5,426.1z"/>
	<path id="XMLID_1098_" class="st9" d="M194,486.5c2.9-3.4,7.2-4.6,10.8-6.9c2.3-1.4,4.5-3.5,8.5-3.9c-5.6,4.6-11.3,7.3-16.3,10.8
		C196,486.5,195,486.5,194,486.5z"/>
	<path id="XMLID_1097_" class="st1" d="M189.5,244.6c-2.6,1.5-5.3,3-7.8,4.7c-1,0.7-2.6,1.1-2.7,2.8c-0.7-6.2-0.7-6.3,5.4-7.1
		C186.1,244.7,187.8,244.7,189.5,244.6z"/>
	<path id="XMLID_1096_" class="st12" d="M490.4,529.6c-5.3,1.5-9.3,5.4-14.3,7.5c-0.3-0.2-0.5-0.5-0.8-0.7
		c5.5-3.5,10.9-7.1,16.4-10.6c0.2,1.1-0.5,2-0.8,3C490.5,528.9,490.2,529.1,490.4,529.6L490.4,529.6z"/>
	<path id="XMLID_1095_" class="st10" d="M281.4,533.9c5.5-4.1,11.6-7.2,17.5-10.4c0.2,0.2,0.5,0.4,0.7,0.7
		c-5.9,3.8-11.7,7.6-17.6,11.4C281.9,535,281.7,534.5,281.4,533.9z"/>
	<path id="XMLID_1094_" class="st12" d="M385.5,608.8c5.5-3.3,11.1-6.6,16.6-9.8c0.2,0.3,0.4,0.7,0.7,1c-4.3,2.9-8.6,5.9-12.8,8.8
		C388.5,608.8,387,608.8,385.5,608.8z"/>
	<path id="XMLID_1093_" class="st2" d="M220.2,493.7c-3.6,3.5-8,5.7-12.7,7.4l-0.1-0.1c2.1-5,6.2-7,11.3-7.3
		C219.3,493.7,219.8,493.7,220.2,493.7z"/>
	<path id="XMLID_1092_" class="st12" d="M401.4,386.9c-5.6,3.2-11,6.9-17.3,8.8c4.6-3.1,9.3-6.3,13.9-9.4
		C399.2,386.3,400.4,386,401.4,386.9z"/>
	<path id="XMLID_1091_" class="st10" d="M354.5,389.9c-3.3,3.1-7.2,5.1-11.5,6.2c0.8-1.6,2.3-2.2,3-3.6
		C348.8,391.3,351.4,390,354.5,389.9z"/>
	<path id="XMLID_1090_" class="st12" d="M333.9,595.7c4.5-2.6,9.1-5.3,13.6-7.9c0.2,0.3,0.4,0.7,0.6,1c-4.2,2.6-8.3,5.2-12.5,7.8
		C335,596.3,334.5,596,333.9,595.7z"/>
	<path id="XMLID_1089_" class="st7" d="M247.3,558c3.6-2.5,7.4-4.6,11.5-6.3c-1.4,2.9-4.8,3.6-6.3,6.4C250.8,558,249,558,247.3,558z
		"/>
	<path id="XMLID_1088_" class="st13" d="M422.4,391.9c-4,2.1-8,4.3-12,6.4c-0.1-0.2-0.3-0.5-0.4-0.7c3.3-2.2,6.7-4.5,10-6.7
		C420.7,391.3,421.5,391.6,422.4,391.9z"/>
	<path id="XMLID_1087_" class="st10" d="M369.2,349.5c-0.7-8.2-0.8-16.4,0-24.6C369.5,333,369.6,341.3,369.2,349.5z"/>
	<path id="XMLID_1086_" class="st14" d="M272,434.2c-0.9,2.9-3.6,4.4-5.4,6.6c-0.6-1.2-0.4-2.3-0.2-3.5
		C268.2,436.1,269.8,434.7,272,434.2L272,434.2z"/>
	<path id="XMLID_1085_" class="st14" d="M318,377.3c1.8-1,3.5-2.1,5.3-3.1c-0.9,3.1-3.2,4.8-4.9,6.9
		C317.6,379.8,317.9,378.5,318,377.3z"/>
	<path id="XMLID_1084_" class="st14" d="M337.9,387.2c-1.5,0.9-3,2.1-4.8,2.5c-0.1-0.2-0.3-0.4-0.5-0.6c1.5-2.2,3.1-4.3,5.3-5.9
		C337.9,384.5,337.9,385.8,337.9,387.2z"/>
	<path id="XMLID_1083_" class="st13" d="M485.6,509.1c2.9-2.3,6-4.2,9.2-5.9c0,0.7-0.1,1.3-0.1,2c-2.9,1.5-5.7,3-8.6,4.4
		C485.9,509.4,485.8,509.3,485.6,509.1z"/>
	<path id="XMLID_1082_" class="st10" d="M338,372.6c-1.9,0.6-3.3,2.6-6.1,2.2c2.2-2.1,4.1-4,6-5.9
		C337.9,370.1,337.9,371.4,338,372.6z"/>
	<path id="XMLID_1081_" class="st2" d="M319.1,390.7c1.6-1.2,3.2-2.2,5.6-2.4c-1.8,2-3.6,4-5.4,6
		C319.2,393.1,319.1,391.9,319.1,390.7z"/>
	<path id="XMLID_1080_" class="st14" d="M272,420.7c-0.8,2.9-3.4,4.3-5.1,6.4c0-1.3,0.1-2.6,0.1-3.9
		C268.7,422.5,270.3,421.6,272,420.7L272,420.7z"/>
	<path id="XMLID_1079_" class="st4" d="M285.5,450.7c2.2,0.1,3.5-2.1,6.3-2.5c-2.7,2.6-5.4,4-7.9,5.6c0-0.9,0.3-1.6,0.9-2.3
		C285.2,451.4,285.6,451.3,285.5,450.7L285.5,450.7z"/>
	<path id="XMLID_1078_" class="st8" d="M294.6,405.8c-0.2,0.2-0.4,0.5-0.6,0.7c-0.2-5.3-0.2-10.6,0.4-15.9
		C294.5,395.7,294.6,400.7,294.6,405.8z"/>
	<path id="XMLID_1077_" class="st10" d="M171.4,262.5c-1.7,0.7-3,2.5-5.1,2.3c0,0-0.1-0.1-0.1-0.1c1.4-2,3.2-3.6,5.2-5.1
		C171.4,260.6,171.4,261.5,171.4,262.5z"/>
	<path id="XMLID_1076_" class="st10" d="M364.3,380.9c1.1-2,3.3-2.4,5-3.6C370.1,382,366.2,380,364.3,380.9z"/>
	<path id="XMLID_1075_" class="st14" d="M286.1,432c-1.3,0.4-2.4,1.8-4,1.5c1.4-1.5,2.7-2.9,4-4.4C286.1,430.1,286.1,431,286.1,432z
		"/>
	<path id="XMLID_1074_" class="st14" d="M148,269.9c1.2,3.4-1.5,3.8-3.7,4.6C145.2,272.6,146.5,271.2,148,269.9z"/>
	<path id="XMLID_1073_" class="st10" d="M368.7,302.2c0.2-0.2,0.3-0.5,0.5-0.7c0.4,3.2,0.4,6.4-0.1,9.7c-0.2-0.5-0.3-0.9-0.5-1.4
		C368.7,307.3,368.7,304.7,368.7,302.2z"/>
	<path id="XMLID_1072_" class="st10" d="M369.2,298.5c0,0-0.3,0.1-0.3,0.1c-1-2.3-0.1-4.6-0.2-7c0.2-0.2,0.4-0.5,0.6-0.7
		C369.5,293.5,369.6,296,369.2,298.5z"/>
	<path id="XMLID_1071_" class="st10" d="M369.2,359.3l-0.2,0c0,0-0.2-0.1-0.2-0.1c0.3-2.7-0.5-5.5,0.5-8.2
		C369.5,353.8,369.6,356.5,369.2,359.3z"/>
	<path id="XMLID_1070_" class="st10" d="M134.1,407.3c-0.2,0.2-0.3,0.4-0.5,0.6c-0.5-2.7-0.4-5.5-0.1-8.2c0.2,0,0.3,0,0.5,0
		C134.1,402.3,134.1,404.8,134.1,407.3z"/>
	<path id="XMLID_1069_" class="st10" d="M368.7,316.5c0.2-0.2,0.3-0.5,0.5-0.7c0.4,2.5,0.3,5,0.1,7.4
		C368.2,321,369.1,318.7,368.7,316.5z"/>
	<path id="XMLID_1068_" class="st10" d="M345.7,373.6c-0.1,0.3-0.2,0.7-0.3,1c-0.8-2-0.5-4.2-0.5-6.3
		C346.2,369.9,345.2,371.8,345.7,373.6z"/>
	<path id="XMLID_1067_" class="st7" d="M295.3,333c-0.4,1-1.2,1.5-2.3,1.5c-0.3-0.5-0.6-1-0.9-1.4C293.2,333.1,294.2,333,295.3,333z
		"/>
	<path id="XMLID_1066_" class="st13" d="M301.1,569.4c0.8-0.1,1.8-1.5,2.3-0.4c0.3,0.7-1.1,1-1.9,1.2
		C301.4,570,301.2,569.7,301.1,569.4z"/>
	<path id="XMLID_1065_" class="st10" d="M133.4,385.5c2.1,0.7,1,1.5,0,2.2C133.4,387,133.4,386.3,133.4,385.5z"/>
	<path id="XMLID_1064_" class="st13" d="M278.2,472.7c0.6-0.2,1.1-0.3,1.7-0.5c0.2,0.2,0.3,0.3,0.5,0.5c-0.6,0.8-1.4,1.3-2.4,1.5
		C278.1,473.7,278.1,473.2,278.2,472.7z"/>
	<path id="XMLID_1063_" class="st13" d="M490,462c-0.6,0.1-1.4,1.3-1.8,0.4c-0.4-0.8,0.7-1,1.4-1.3C489.7,461.4,489.9,461.7,490,462
		z"/>
	<path id="XMLID_1062_" class="st5" d="M261.5,493.7c-0.7,0.7-1.5,0.8-2.2,0C260,493.7,260.8,493.7,261.5,493.7z"/>
	<path id="XMLID_1061_" class="st10" d="M134.1,393.8c-0.2,0.2-0.4,0.5-0.6,0.7c0-0.7,0-1.5,0-2.2
		C133.6,392.8,133.9,393.3,134.1,393.8z"/>
	<path id="XMLID_1060_" class="st9" d="M353.8,383.2c0.5-0.7,1.3-0.7,2-0.7C355.3,383.3,354.5,383.3,353.8,383.2z"/>
	<path id="XMLID_1059_" class="st10" d="M356.1,389.3c-0.4,0.7-1,0.7-1.6,0.7C354.7,389.1,355.5,389.4,356.1,389.3z"/>
	<path id="XMLID_1058_" class="st14" d="M144.5,274.4c-0.3,0.3-0.6,0.6-0.8,1C143.9,275,144.2,274.7,144.5,274.4z"/>
	<path id="XMLID_1057_" class="st7" d="M179.1,262.5c0.2,0,0.4,0,0.7,0c-0.2,0.2-0.5,0.5-0.7,0.7C179.1,263,179.1,262.8,179.1,262.5
		z"/>
	<path id="XMLID_1056_" class="st10" d="M291.5,438c-0.2,0.3-0.5,0.6-0.7,0.9C291.1,438.6,291.3,438.3,291.5,438z"/>
	<path id="XMLID_1055_" class="st2" d="M166.4,518.1c-0.3-0.1-0.6-0.3-0.9-0.4C165.9,517.6,166.3,517.6,166.4,518.1z"/>
	<path id="XMLID_1054_" class="st3" d="M285.5,450.7c0.1,0.5-0.3,0.7-0.7,0.8C284.8,451.1,284.9,450.6,285.5,450.7z"/>
	<path id="XMLID_1053_" class="st3" d="M485.1,544.6c-0.1-0.6,0.4-0.8,0.8-0.9C485.8,544.1,485.9,544.7,485.1,544.6z"/>
	<path id="XMLID_1052_" class="st3" d="M490.3,529.6c-0.1-0.5,0.2-0.7,0.6-0.8C490.9,529.2,491,529.7,490.3,529.6z"/>
	<path id="XMLID_1051_" class="st3" d="M421,603.7c0.3-0.2,0.7-0.4,1-0.6C422,603.7,421.5,603.7,421,603.7z"/>
	<path id="XMLID_1048_" class="st0" d="M208.1,334.5c0.1-6.4,2.2-12.4,3.1-18.7c0.4-2.5,3.1-3.8,5-5.3c7.3-6,17.8-5,23.1,2.4
		c2.9,4.1,3.5,9.2,4.1,14.2c1.6,12.5,0.4,25-0.9,37.4c-2.1,19.6-0.1,39.1,0.5,58.7c0.4,11.5,0.3,22.9-2.3,34.2
		c-1.8,8-5.2,10.9-13.5,11c-2.4,0-4.7-0.1-7.1-0.3c-5.1-0.4-8.2-3-9.7-7.9c-0.8-2.5-1.5-5-2.2-7.4c-0.1-0.4-0.1-0.8-0.2-1.2
		c-0.9-9.7-0.7-19.4,0-29.1c0.5-6.3,1.2-12.6,0.9-19c0-0.5,0-1,0-1.4l0-0.3c0.9-1.6,0.5-3.3,0.5-4.9c0.5-5.5,0.4-11,0-16.5
		C208.9,365,207.6,349.8,208.1,334.5z M216.8,450.1c0.3,0.9,0.6,1.8,0.8,2.7c0.8,3.2,2.5,5.8,5.4,7.5c1.6,1,3.4,1.8,5.4,1.5
		c3.6,0.9,5.3-1,6.3-4.1c1.4-4.2,2.2-8.4,2-12.8c0.9-1.5,0.7-3.1,0.5-4.7c0-3.1,0-6.1,0-9.2c0-1.2,0-2.4,0-3.6c0-3-0.1-6-0.1-9.1
		c0.1-1,0.2-2-0.3-2.9c-0.3-5.8,0-11.7-1-17.5c0-1.2-0.1-2.4-0.1-3.6c-0.4-5.6-0.2-11.3-1.3-16.9c0.4-1.2,0.3-2.4,0-3.6
		c0.2-3.7,0.3-7.5,0.5-11.2c0-1.1,0-2.2,0.1-3.3c0.1-3.4,0.1-6.9,0.2-10.3c0.5-1.2,0.5-2.4,0.1-3.6c-0.1-5.2,0.3-10.4-0.4-15.6
		c-0.7-5-0.8-10.3-4.5-14.4c-1.9-2.5-4.4-2.6-7.1-1.9c-3.3,0.8-5.4,2.5-5.8,6.2c-0.4,3.7-1.4,7.3-1.3,11.1c-0.7,1-0.6,2.2-0.5,3.4
		c-0.3,6.5-0.3,13,0,19.5c0,1.1,0,2.1,0.1,3.2c0.2,3.2,0.4,6.5,0.6,9.7c0,1.1,0,2.2,0.1,3.3c0.2,3.3,0.4,6.7,0.6,10
		c0,1.2,0,2.4,0.1,3.6c0.4,6.1-1.3,12.3,0,18.4c0,1,0,1.9,0.1,2.9c0.1,11-1.9,21.9-1.5,32.9c0,0.9,0,1.9,0,2.8
		C215.5,444,216.3,447.1,216.8,450.1z"/>
	<path id="XMLID_1045_" class="st0" d="M157.2,423c0-0.7,0-1.5,0-2.2c0-0.2,0-0.5,0.1-0.7c0.3-3.1,0.9-6.2,0.1-9.3
		c0.1-1.1,0.2-2.3,0.2-3.4c0.5-3,0.4-6,0.2-9c0-1.2,0-2.5,0-3.7c0-3,0-6,0-9c0-1.5,0-3,0-4.5c1.6-12.5,5.6-15.9,18.4-15.7
		c2.5,0,4.9,0.9,7.3,1.4c0.7,0.3,1.4,0.6,2.1,0.9c1.5,2.3,3,4.5,4.5,6.8c0.1,0.5,0.2,0.9,0.3,1.4c0.4,3.8,0.9,7.5,1.3,11.3
		c0,0.7,0,1.5,0,2.2c-0.1,2.4-0.1,4.9-0.2,7.3c-0.6,5.2-0.9,10.4-0.1,15.6c0,0.6,0,1.3,0,1.9c-0.7,1.3-0.4,2.7-0.4,4
		c0,11.2,0,22.4,0,33.6c0,3,0,6-0.7,8.9c-0.6,2.1-2.1,3.5-3.4,5c0,0,0,0,0,0c-2.1,1-4,2.6-6.5,2.6c-3.7,0-7.5,0.1-11.2-0.1
		c-7-0.4-11.1-4.7-11.3-11.7c-0.2-6.3-0.5-12.7-0.8-19c0-2,0-4,0-6C157.2,428.5,157.2,425.8,157.2,423z M185.1,440.2
		c0.3-1.4,0.3-2.9-0.1-4.3c0.3-5.8-0.4-11.6-0.9-17.4c0.1-1.1,0.2-2.2-0.3-3.2c-0.6-6.3,0.1-12.5,0.3-18.8c0-1.4,0-2.7,0-4.1
		c0.4-5.5,0.6-11-1.6-16.2c-1.4-3.3-4-5.1-7.6-5c-5.7,0.3-7.9,2-8.8,6.6c-1.4,7.3-1.7,14.6-0.7,21.9c0,1.2,0.1,2.5,0.1,3.7
		c0.2,6.2,0.4,12.5,0.6,18.7c-0.4,1.1-0.7,2.3-0.4,3.5c-0.3,6.3-0.5,12.6-0.8,19c-0.2,1.3-0.4,2.6,0.3,3.9c0,2.9,0.4,5.7,1.7,8.3
		c2,4,6.4,6.2,11.1,5.7c4.6-0.5,5.1-4.3,5.9-7.5C185.3,450.2,185.4,445.2,185.1,440.2z"/>
	<path id="XMLID_1042_" class="st8" d="M191.8,387c-0.4-3.8-0.9-7.5-1.3-11.3c0.4,0.2,1.1,0.7,1.3,0.6c4.4-2.3,8.6-4.8,12.3-8.2
		c-5.1,1.2-8.7,5.5-13.9,6.3c-1.5-2.3-3-4.5-4.5-6.8c4.8-3.1,9.8-5.9,14.5-9.3c2.5-1.8,6.1-2.4,7.3-5.8c0-4.8,0-9.6,0.1-14.5
		c0-1.2-0.4-2.5,0.6-3.5c-0.5,15.3,0.8,30.5,1.5,45.7c-0.2-0.5-0.4-1-0.7-1.5c-1.9-1.1-3.1,0.6-4.5,1.3
		C200.2,382.2,196.4,385.3,191.8,387z M205.5,367c1.2,0.4,1.8-0.2,2.4-0.8c0.1-0.1-0.3-0.7-0.4-0.7
		C206.7,365.6,205.9,365.8,205.5,367z"/>
	<path id="XMLID_1041_" class="st7" d="M187,465.5c1.3-1.5,2.9-2.9,3.4-5c2.1,0,3.7-1.3,5.4-2.3c4.1-2.3,8.2-4.5,12.3-6.8
		c0.1,0.4,0.1,0.8,0.2,1.2c-1.5,2.4-4.3,3.2-6.5,4.7c-3.7,2.6-7.7,4.8-11.5,7.3C189.3,465.4,188.4,466,187,465.5z"/>
	<path id="XMLID_1040_" class="st9" d="M207.4,352.6c-1.2,3.4-4.8,4-7.3,5.8c-4.6,3.3-9.6,6.2-14.5,9.3c-0.7-0.3-1.4-0.6-2.1-0.9
		c3-3.4,7.2-4.7,10.9-6.9C198.7,357.2,202.8,354.3,207.4,352.6z"/>
	<path id="XMLID_1039_" class="st7" d="M236.7,266.4c1.1-1,1.7-1.7,2.9-1C239,266.4,238.3,267,236.7,266.4z"/>
	<path id="XMLID_1038_" class="st7" d="M252.8,268.8c0.5-1.3,1.2-1.7,2.6-1.4C254.8,268.8,254.1,269.1,252.8,268.8z"/>
	<path id="XMLID_1037_" class="st7" d="M308.3,277.1c0.5-1.3,1.2-1.7,2.6-1.4C310.3,277,309.6,277.4,308.3,277.1z"/>
	<path id="XMLID_1036_" class="st7" d="M297.6,318.6c-1.1,1-1.7,1.7-2.9,1C295.3,318.6,296,318,297.6,318.6z"/>
	<path id="XMLID_1035_" class="st9" d="M195.5,473.3c-0.2,1.5-1.2,1.9-2.8,2C193.3,473.7,194.3,473.4,195.5,473.3L195.5,473.3z"/>
	<path id="XMLID_1034_" class="st9" d="M216.3,473.7c-0.5,1.3-1.2,1.7-2.6,1.4C214.2,473.8,215,473.4,216.3,473.7z"/>
	<path id="XMLID_1033_" class="st7" d="M307,278c-0.3,1.2-1.1,1.4-2,1.5c-0.1,0-0.5-0.7-0.4-0.7C305.2,278.2,305.8,277.6,307,278z"
		/>
	<path id="XMLID_1032_" class="st7" d="M180.5,348.4c-0.8,1.3-1.5,1.8-2.7,1.4C178.1,348.5,179,348.3,180.5,348.4z"/>
	<path id="XMLID_1031_" class="st7" d="M178.6,337.7c0.1-0.2,0.1-0.5,0.3-0.6c0.1-0.1,0.4,0.1,0.6,0.2c-0.1,0.2-0.1,0.5-0.3,0.6
		C179,338,178.8,337.8,178.6,337.7z"/>
	<path id="XMLID_1030_" class="st9" d="M199,472c-0.2,0.1-0.5,0.3-0.6,0.2c-0.1-0.1-0.2-0.4-0.3-0.6c0.2-0.1,0.5-0.3,0.6-0.2
		C198.9,471.4,198.9,471.8,199,472z"/>
	<path id="XMLID_1029_" class="st7" d="M199.6,263.5c0.1-0.2,0.1-0.5,0.3-0.6c0.1-0.1,0.4,0.1,0.6,0.2c-0.1,0.2-0.1,0.5-0.3,0.6
		C200,263.8,199.8,263.6,199.6,263.5z"/>
	<path id="XMLID_1028_" class="st9" d="M218.5,472.3c-0.1,0.2-0.1,0.5-0.3,0.6c-0.1,0.1-0.4-0.1-0.6-0.2c0.1-0.2,0.1-0.5,0.3-0.6
		C218,472,218.3,472.2,218.5,472.3z"/>
	<path id="XMLID_1027_" class="st7" d="M166,316.3c-0.1,0.2-0.1,0.5-0.3,0.6c-0.1,0.1-0.4-0.1-0.6-0.2c0.1-0.2,0.1-0.5,0.3-0.6
		C165.5,316,165.8,316.2,166,316.3z"/>
	<path id="XMLID_1026_" class="st7" d="M160.1,307.8c0.2,0.1,0.4,0.2,0.6,0.3c-0.1,0.2-0.1,0.5-0.3,0.6c-0.2,0.1-0.4-0.1-0.6-0.2
		C159.9,308.2,160,308,160.1,307.8z"/>
	<path id="XMLID_1025_" class="st7" d="M294.3,307.3c-0.1,0.2-0.1,0.5-0.3,0.6c-0.2,0.1-0.4-0.1-0.6-0.2c0.1-0.2,0.1-0.5,0.3-0.6
		C293.8,307,294,307.2,294.3,307.3z"/>
	<path id="XMLID_1024_" class="st7" d="M168.8,289.7c0.1-0.2,0.1-0.5,0.3-0.6c0.1-0.1,0.4,0.1,0.6,0.2c-0.1,0.2-0.1,0.5-0.3,0.6
		C169.3,290,169,289.8,168.8,289.7z"/>
	<path id="XMLID_1023_" class="st7" d="M289.8,276.6c-0.1,0.2-0.1,0.5-0.3,0.6c-0.2,0.1-0.4-0.1-0.6-0.2c0.1-0.2,0.1-0.5,0.3-0.6
		C289.3,276.3,289.5,276.5,289.8,276.6z"/>
	<path id="XMLID_1022_" class="st7" d="M182.5,347.1c-0.1,0.2-0.1,0.5-0.3,0.6c-0.1,0.1-0.4-0.1-0.6-0.2c0.1-0.2,0.1-0.5,0.3-0.6
		C182,346.8,182.3,347,182.5,347.1z"/>
	<path id="XMLID_1021_" class="st7" d="M207.3,271.8c0.2,0.1,0.4,0.2,0.6,0.3c-0.1,0.2-0.1,0.5-0.3,0.6c-0.2,0.1-0.4-0.1-0.6-0.2
		C207.1,272.2,207.2,272,207.3,271.8z"/>
	<path id="XMLID_1020_" class="st7" d="M293.5,321.2c-0.2,0.1-0.5,0.3-0.6,0.2c-0.1-0.1-0.2-0.4-0.3-0.6c0.2-0.1,0.5-0.3,0.6-0.2
		C293.4,320.7,293.4,321,293.5,321.2z"/>
	<path id="XMLID_1019_" class="st7" d="M302.3,280.9c-0.1,0.1-0.2,0.2-0.3,0.2c-0.1,0-0.2-0.1-0.3-0.2
		C301.9,280.9,302.1,280.9,302.3,280.9z"/>
	<path id="XMLID_1018_" class="st9" d="M195.5,473.3c0.1-0.1,0.1-0.2,0.2-0.3C195.6,473.1,195.6,473.2,195.5,473.3
		C195.5,473.3,195.5,473.3,195.5,473.3z"/>
	<path id="XMLID_1015_" class="st0" d="M454.4,444.6c0.3,0.6,0.6,1.3,0.9,1.9c0.9,2.5,1.7,4.9,2.6,7.4c0.1,1,0.1,1.9,0.2,2.9
		c0,4.2-2.2,7.1-5.1,9.9c-1.8,1.7-4.1,3.2-4.8,5.8c0,0,0,0,0,0c-0.7-0.2-0.8,0.1-0.8,0.7c0,0,0.1,0,0.1,0c-0.9-0.1-1.2,0.4-1.5,1.1
		c-2.3,2.3-4.9,4.4-6.6,7.2c-11,11.7-22,23.4-33.1,35c-5.4,5.7-11.1,11.1-16.7,16.7c-0.8,0.8-2.2,1.3-2.2,2.8c0,0,0,0.1,0,0.1
		c-1-0.4-1.3,0.4-1.6,1c-1.6,1.7-4.3,2.4-5.1,5c0,0,0.1,0,0.1,0c-1-0.6-1.2,0.2-1.5,0.8l0,0c-0.5,0-0.8,0.3-1,0.8
		c-6.6,4.7-12,11.1-20.1,13.6c-2.2,0-4.4,0-6.5,0c-6.7-2.1-11.4-6.8-16.2-11.6c-1.3-1.3-2.7-2.5-4.1-3.8c-0.8-1.2-1.8-2.2-3-2.9
		c-1.9-2.2-4-4.2-6.3-5.9c-0.5-0.5-1-1-1.4-1.5c-1.7-2-3.4-4.1-5-6.1c-0.3-0.5-0.5-1-0.8-1.5c-2.3-8.7,2.7-20.2,10.8-24.4
		c3.2-1.7,6.8-1,9.4,1.6c2,2,4.2,3.9,6.2,5.8c1.1,1.6,2.5,2.9,4.3,3.6c3.2,3.5,6.9,3.1,10.9,1.8c10.2-3.2,17.6-10.2,24.5-17.7
		c10.7-11.7,19.7-24.6,30-36.6c2.9-3.4,6.1-6.6,9.1-9.9c0.8-0.8,2.3-1.2,2-2.8c0,0-0.1,0-0.1,0c1,0.5,1.3-0.3,1.7-1
		c4.5-3.5,9.3-6.4,14.5-8.7c3.7-0.6,7,0.6,10.2,2.3c0.4,0.3,0.7,0.5,1.1,0.8C451.1,440.8,452.8,442.7,454.4,444.6z M449,460.6
		c0.4-0.3,0.8-0.6,1.1-0.8c2.1-1.5,2.8-3.5,1.9-6c-1.8-6.9-13.8-10.3-19.1-5.2c-20.5,19.9-40.6,40.3-59.9,61.4
		c-3,3.2-5.9,6.5-9.3,9.2c-2.4,1.9-4.9,3.4-7.9,4c-3.1,0.7-5.6-1.4-8.4-1.6c0.1-3.7-3.4-5.1-5-7.7c-2.2-3.6-5.8-4.8-9.7-5.4
		c-6.3-1-11.7,4.3-10.6,10.6c0.8,4.3,2.8,7.9,5.5,11.2c0.7,0.8,1.3,1.6,2,2.5c1.5,2.6,3.7,4.6,6.1,6.5c0.3,0.3,0.6,0.6,0.8,0.8
		c1.6,1.9,3.4,3.4,5.7,4.4c1.3,1.4,3,2.2,4.7,2.9c4.2,2.1,8.4,2,12.7,0.4c4.3-1.6,7.9-4.2,11.2-7.2c4.8-4.4,8.8-9.6,13.3-14.2
		c20.3-20.5,40.7-41,61-61.5c1-1,2.5-1.6,2.5-3.3l-0.1-0.2C448.7,462.1,448.8,461.2,449,460.6L449,460.6z"/>
	<path id="XMLID_1014_" class="st10" d="M366.2,392.9c1.6,0.1,2.6,1,3.3,2.4c-8.5,5-17,10.1-25.5,15.1c-0.3-0.4-0.5-0.8-0.8-1.2
		C350.9,403.7,358.5,398.3,366.2,392.9z"/>
	<path id="XMLID_1013_" class="st13" d="M326,456c-0.3-0.3-0.6-0.6-0.9-0.9c2.5-1.9,5.1-3.6,8.1-4.6c0.1,0.1,0.3,0.2,0.4,0.4
		C331.3,452.9,328.8,454.6,326,456z"/>
	<path id="XMLID_1012_" class="st12" d="M345.5,510.8c-1.8-0.8-3.2-2-4.3-3.6C344,506.8,345.6,507.7,345.5,510.8z"/>
	<path id="XMLID_1011_" class="st13" d="M299.7,524.1c-0.2-0.2-0.5-0.4-0.7-0.7c1.7-1.4,3.6-2.6,5.8-3.2c0.1,0.1,0.3,0.3,0.4,0.4
		C303.6,522.1,301.7,523.2,299.7,524.1z"/>
	<path id="XMLID_1010_" class="st13" d="M372.6,432.9c0.3,0.3,0.6,0.5,0.8,0.8c-1.5,1.4-3.3,2.3-5.3,3c-0.1-0.2-0.3-0.3-0.4-0.5
		C369.1,434.7,370.8,433.7,372.6,432.9z"/>
	<path id="XMLID_1009_" class="st13" d="M410.8,450.1c0.3,0.2,0.5,0.5,0.8,0.7c-1.6,1.3-3.2,2.3-6.1,3.2
		C407.4,451.8,409.1,450.9,410.8,450.1z"/>
	<path id="XMLID_1008_" class="st13" d="M402.6,442.6c0.2,0.2,0.5,0.5,0.7,0.7c-1.5,1.3-3.2,2.3-6,3.2
		C399.2,444.3,400.8,443.4,402.6,442.6z"/>
	<path id="XMLID_1007_" class="st13" d="M279.9,472.2c0.8-0.9,1.8-1.5,3.4-1.8c-0.7,1.5-1.8,1.9-2.9,2.3
		C280.2,472.5,280.1,472.3,279.9,472.2z"/>
	<path id="XMLID_1006_" class="st13" d="M408.9,398.4c0.1,0.1,0.3,0.3,0.4,0.4c-0.3,0.2-0.5,0.3-0.8,0.5c-0.1-0.2-0.2-0.5-0.2-0.6
		C408.4,398.6,408.7,398.5,408.9,398.4z"/>
	<path id="XMLID_1005_" class="st8" d="M337.9,461.8c0.4-0.5,0.8-0.7,1.4-0.3c-0.3,0.3-0.5,0.6-0.8,0.9
		C338.3,462.3,338.1,462,337.9,461.8z"/>
	<path id="XMLID_1004_" class="st13" d="M396.6,447.1c-0.4,0.2-0.7,0.4-1.1,0.6c0,0-0.2-0.1-0.2-0.2c0.4-0.2,0.7-0.4,1.1-0.6
		C396.4,446.9,396.5,447,396.6,447.1z"/>
	<path id="XMLID_1003_" class="st13" d="M368.1,436.7c-0.4,0.5-0.8,0.8-1.4,0.3c0.3-0.3,0.7-0.5,1-0.8
		C367.9,436.3,368,436.5,368.1,436.7z"/>
	<path id="XMLID_1002_" class="st10" d="M326.7,482.9c0.4-0.5,0.8-0.8,1.4-0.3c-0.3,0.3-0.6,0.5-0.9,0.8
		C327,483.3,326.8,483.1,326.7,482.9z"/>
	<path id="XMLID_1001_" class="st13" d="M305.7,519.7c0.4-0.2,0.7-0.4,1.1-0.6c0,0,0.2,0.1,0.2,0.2c-0.3,0.2-0.7,0.5-1,0.7
		C305.9,519.9,305.8,519.8,305.7,519.7z"/>
	<path id="XMLID_1000_" class="st13" d="M334.2,449.9c0.3-0.4,0.9-0.9,1.1-0.4c0.4,0.6-0.5,0.6-0.8,0.7
		C334.4,450.1,334.3,450,334.2,449.9z"/>
	<path id="XMLID_999_" class="st13" d="M404.9,454.6c-0.4,0.5-0.7,0.9-1.4,0.3c0.3-0.2,0.7-0.5,1-0.7
		C404.7,454.4,404.8,454.5,404.9,454.6z"/>
	<path id="XMLID_998_" class="st13" d="M306,520c-0.3,0.2-0.6,0.4-0.9,0.6c-0.1-0.1-0.3-0.3-0.4-0.4c0.3-0.2,0.6-0.4,0.9-0.6
		C305.8,519.8,305.9,519.9,306,520z"/>
	<path id="XMLID_997_" class="st13" d="M284.6,469.9c-0.1,0.1-0.2,0.2-0.2,0.2c-0.1,0-0.2-0.1-0.3-0.2c0.1-0.1,0.2-0.2,0.3-0.2
		C284.5,469.7,284.5,469.8,284.6,469.9z"/>
	<path id="XMLID_996_" class="st13" d="M404.6,454.3c0.3-0.1,0.8-0.3,0.8-0.3c0.2,0.5-0.2,0.5-0.5,0.6
		C404.8,454.5,404.7,454.4,404.6,454.3z"/>
	<path id="XMLID_995_" class="st13" d="M333.3,450.5c0.3-0.2,0.6-0.4,0.9-0.6c0.1,0.1,0.2,0.2,0.3,0.3c-0.3,0.2-0.6,0.4-0.8,0.7
		C333.5,450.8,333.4,450.6,333.3,450.5z"/>
	<path id="XMLID_994_" class="st10" d="M332.3,492.2c0.1,0.1,0.2,0.2,0.2,0.3c-0.1,0.1-0.2,0.2-0.3,0.2c-0.1,0-0.2-0.2-0.2-0.3
		C332.2,492.3,332.3,492.2,332.3,492.2z"/>
	<path id="XMLID_993_" class="st13" d="M396.3,446.8c0.3-0.1,0.5-0.2,0.8-0.3c0.2,0.5-0.2,0.5-0.5,0.6
		C396.5,447,396.4,446.9,396.3,446.8z"/>
	<path id="XMLID_992_" class="st0" d="M446.7,540.9c-0.6,2.8-1.9,4.7-5.2,4.9c-2.2,0.1-5-1-6.5,0.6c-1.5,1.6-0.4,4.3-0.6,6.5
		c-0.1,1.9-0.9,3.3-2.6,4.3c-3,1.7-4.6,0.7-4.8-2.7c-0.1-2.7,1.1-6.1-0.6-8c-1.7-1.9-5.2-0.5-7.9-0.7c-1.8-0.1-3.9,0-3.8-2.4
		c0.1-2.3,1-4.5,3.8-4.9c1.8-0.2,3.7-0.2,5.6-0.1c2.4,0.2,3.1-0.8,2.9-3c-0.1-1.6-0.1-3.2,0-4.9c0.1-3.2,2.5-4.4,5-4.4
		c2.7,0,2.2,2.5,2.3,4.3c0.2,7.9,0.2,7.8,8.1,8C444.3,538.4,446.5,537.9,446.7,540.9z"/>
	<path id="XMLID_991_" class="st13" d="M380.7,542.2c0.8-2.6,3.5-3.3,5.1-5c0.8,0,1.6,0.1,1.6-1c0,0,0-0.1,0-0.1
		c1.1,0.8,2-0.9,3.5,0.1C387.4,538.3,384.6,541.1,380.7,542.2z"/>
	<path id="XMLID_990_" class="st13" d="M372.5,584.3c-0.3-0.3-0.6-0.6-0.9-0.9c1.6-1.4,3.3-2.5,5.9-2.9
		C376,582.5,374.3,583.4,372.5,584.3z"/>
	<path id="XMLID_989_" class="st13" d="M446,522c0.3,0.3,0.6,0.6,0.9,0.8c-1.5,1.5-3.4,2.3-6.2,3.4C442.6,523.7,444.3,522.9,446,522
		z"/>
	<path id="XMLID_988_" class="st13" d="M472.3,527.3c0.3,0.3,0.6,0.5,0.9,0.8c-1.5,1.4-3.4,2.2-5.3,2.7
		C468.9,529,470.6,528.1,472.3,527.3z"/>
	<path id="XMLID_987_" class="st13" d="M383.7,554.9c-0.3-0.2-0.5-0.5-0.8-0.7c1.5-1.3,3.1-2.3,5.8-3.2
		C387.1,553.3,385.4,554.1,383.7,554.9z"/>
	<path id="XMLID_986_" class="st13" d="M427.3,519.8c0.3,0.2,0.5,0.5,0.8,0.7c-1.6,1.2-3.2,2.4-5.9,3.1
		C423.9,521.6,425.5,520.6,427.3,519.8z"/>
	<path id="XMLID_985_" class="st13" d="M475.3,536.3c0.3,0.2,0.5,0.5,0.8,0.7c-1.5,1.3-3.2,2.2-5.1,2.7
		C471.9,538,473.6,537.2,475.3,536.3z"/>
	<path id="XMLID_984_" class="st13" d="M487.7,462.6c-1.1,1.6-1.9,2.2-3.3,2.2C484.8,463.4,485.9,463.1,487.7,462.6z"/>
	<path id="XMLID_983_" class="st13" d="M441.4,525.5c-1.2,1.7-2.1,2.2-3.8,2.4C438.4,526.4,439.5,526,441.4,525.5z"/>
	<path id="XMLID_982_" class="st13" d="M380.6,578.5c-0.6,1.2-1.4,2-3,1.8C378.3,578.9,379.4,578.6,380.6,578.5z"/>
	<path id="XMLID_981_" class="st13" d="M349.2,586.9c0.6-0.5,1.1-1.2,2.4-0.8c-0.5,1.1-1.5,1.4-2.4,1.9
		C349.2,587.6,349.2,587.2,349.2,586.9z"/>
	<path id="XMLID_980_" class="st13" d="M464.6,532.4c0.6-0.7,1.2-1.4,2.4-1.1c-0.3,1.1-1.2,1.3-2,1.5
		C464.9,532.6,464.8,532.5,464.6,532.4z"/>
	<path id="XMLID_979_" class="st13" d="M485.2,510.2c-0.4,0.6-1,1-1.7,0.9c-0.1,0-0.2-0.5-0.2-0.6c0.5-0.3,1-0.6,1.5-0.8
		C484.9,509.9,485,510,485.2,510.2z"/>
	<path id="XMLID_978_" class="st13" d="M354.6,584.3c-0.5,0.8-1.1,1.2-2.1,1.3c-0.1-1.4,1-1.3,1.8-1.5L354.6,584.3z"/>
	<path id="XMLID_977_" class="st1" d="M466.4,554.4c-0.5,0.7-1.6,0.9-1.8,0.4c-0.4-0.9,0.9-0.6,1.3-1
		C466,554,466.2,554.2,466.4,554.4z"/>
	<path id="XMLID_976_" class="st13" d="M421.4,524.4c-0.4,0.5-0.7,0.9-1.3,0.3c0.3-0.2,0.7-0.4,1-0.7
		C421.2,524.2,421.3,524.3,421.4,524.4z"/>
	<path id="XMLID_975_" class="st13" d="M469.4,540.9c-0.3,0.5-0.9,0.9-1.1,0.4c-0.3-0.6,0.5-0.5,0.9-0.7L469.4,540.9z"/>
	<path id="XMLID_974_" class="st13" d="M482.8,465.8c-0.2,0.5-0.5,0.7-1,0.6c-0.1,0-0.1-0.2-0.2-0.3
		C482,466,482.4,465.9,482.8,465.8L482.8,465.8z"/>
	<path id="XMLID_973_" class="st13" d="M379.2,543c0.3-0.6,0.5-1.4,1.5-0.8C380.6,543.1,380,543.3,379.2,543z"/>
	<path id="XMLID_972_" class="st13" d="M389.7,550.4c0.3-0.5,0.9-0.9,1.1-0.4c0.4,0.6-0.5,0.6-0.8,0.7
		C389.9,550.6,389.8,550.5,389.7,550.4z"/>
	<path id="XMLID_971_" class="st13" d="M465,532.7c-0.3,0.1-0.6,0.2-0.8,0.3c0.2-0.2,0.3-0.4,0.5-0.7
		C464.8,532.5,464.9,532.6,465,532.7z"/>
	<path id="XMLID_970_" class="st13" d="M462.9,533.9c-0.1-0.1-0.2-0.2-0.2-0.2c0.1-0.1,0.2-0.2,0.3-0.2c0.1,0,0.2,0.1,0.2,0.2
		C463.1,533.7,463,533.8,462.9,533.9z"/>
	<path id="XMLID_969_" class="st13" d="M482.7,465.7c0.1-0.2,0.2-0.4,0.3-0.5c0.1,0.1,0.2,0.2,0.3,0.3
		C483.2,465.6,483,465.7,482.7,465.7C482.8,465.8,482.7,465.7,482.7,465.7z"/>
	<path id="XMLID_968_" class="st13" d="M391.8,535.2c-0.1,0.1-0.2,0.2-0.3,0.2c-0.1,0-0.2-0.1-0.3-0.2c0.1-0.1,0.2-0.2,0.3-0.2
		C391.7,534.9,391.8,535.1,391.8,535.2z"/>
	<path id="XMLID_967_" class="st13" d="M486.1,509.6c-0.3,0.2-0.6,0.4-0.9,0.6c-0.2-0.2-0.3-0.3-0.5-0.5c0.3-0.2,0.6-0.4,0.9-0.6
		C485.8,509.3,485.9,509.4,486.1,509.6z"/>
	<path id="XMLID_966_" class="st13" d="M469.1,540.6c0.3-0.1,0.5-0.2,0.8-0.3c-0.2,0.2-0.3,0.4-0.5,0.6
		C469.4,540.9,469.1,540.6,469.1,540.6z"/>
	<path id="XMLID_965_" class="st13" d="M378.3,543.7c0.1-0.5,0.4-0.8,1-0.8C379.3,543.7,378.9,543.8,378.3,543.7z"/>
	<path id="XMLID_964_" class="st13" d="M390,550.7c-0.3,0.1-0.5,0.2-0.8,0.3c-0.2-0.5,0.2-0.5,0.5-0.6
		C389.8,550.5,389.9,550.6,390,550.7z"/>
	<path id="XMLID_963_" class="st13" d="M421.1,524.1c0.3-0.1,0.6-0.2,0.8-0.3c0.2,0.5-0.2,0.5-0.5,0.6
		C421.3,524.3,421.2,524.2,421.1,524.1z"/>
	<path id="XMLID_962_" class="st13" d="M381.9,578.1c-0.1,0-0.1-0.1-0.2-0.1c0.1-0.1,0.2-0.2,0.2-0.3c0.1,0.1,0.1,0.1,0.2,0.2
		C382,578,381.9,578,381.9,578.1z"/>
	<path id="XMLID_961_" class="st13" d="M356.3,583.3c-0.1-0.1-0.2-0.1-0.2-0.2c0.1-0.1,0.2-0.2,0.3-0.2c0.1,0,0.1,0.1,0.2,0.2
		C356.5,583.2,356.4,583.3,356.3,583.3z"/>
	<path id="XMLID_960_" class="st13" d="M354.4,584.1c0.2-0.1,0.5-0.2,0.7-0.3c-0.2,0.2-0.3,0.4-0.5,0.6
		C354.6,584.3,354.4,584.1,354.4,584.1z"/>
	<path id="XMLID_959_" class="st12" d="M349.2,586.9c0,0.3,0,0.7,0,1c-0.3-0.1-0.5-0.2-0.8-0.4C348.7,587.3,349,587.1,349.2,586.9z"
		/>
	<path id="XMLID_958_" class="st1" d="M439.7,587.7c0.3-0.3,0.6-0.5,0.9-0.1c0,0-0.3,0.3-0.5,0.4C440,588,439.8,587.8,439.7,587.7z"
		/>
	<path id="XMLID_957_" class="st13" d="M436.7,528.7c-0.1-0.1-0.2-0.2-0.2-0.3c0.1-0.1,0.2-0.2,0.3-0.2c0.1,0,0.2,0.1,0.3,0.2
		C436.9,528.5,436.8,528.6,436.7,528.7z"/>
	<path id="XMLID_956_" class="st12" d="M403.9,598.9c-0.1,0.1-0.2,0.2-0.3,0.2c-0.1,0-0.2-0.2-0.3-0.2c0.1-0.1,0.2-0.2,0.3-0.2
		C403.7,598.7,403.8,598.8,403.9,598.9z"/>
	<path id="XMLID_955_" class="st7" d="M238.7,539.1c-0.1,0.2-0.1,0.5-0.3,0.6c-0.1,0.1-0.4-0.1-0.6-0.2c0.1-0.2,0.1-0.5,0.3-0.6
		C238.3,538.8,238.5,539,238.7,539.1z"/>
	<path id="XMLID_954_" class="st7" d="M259,539.5c-0.2,0.1-0.5,0.3-0.6,0.2c-0.1-0.1-0.2-0.4-0.3-0.6c0.2-0.1,0.5-0.3,0.6-0.2
		C258.9,538.9,258.9,539.3,259,539.5z"/>
	<path id="XMLID_953_" class="st7" d="M217.8,539.6c0.2,0.1,0.4,0.2,0.6,0.3c-0.1,0.2-0.1,0.5-0.3,0.6c-0.2,0.1-0.4-0.1-0.6-0.2
		C217.6,540,217.7,539.8,217.8,539.6z"/>
	<path id="XMLID_952_" class="st14" d="M272,420.8c0.2-0.2,0.3-0.3,0.5-0.5c0,0.1,0.1,0.2,0.1,0.4
		C272.4,420.7,272.2,420.7,272,420.8C272,420.7,272,420.8,272,420.8z"/>
	<path id="XMLID_951_" class="st14" d="M272,434.3c0-0.1,0.1-0.2,0.1-0.3c0,0,0.1,0,0.2,0C272.3,434,272.1,434.1,272,434.3
		C272,434.2,272,434.3,272,434.3z"/>
	<path id="XMLID_950_" class="st2" d="M217.3,504c-3.2,7.2-6.2,9-14.8,8.9C203.9,511.1,213.4,505.4,217.3,504L217.3,504z"/>
	<path id="XMLID_949_" class="st2" d="M240.5,504c-3.4,7.5-6.7,9.4-15.5,8.7C230.4,509.5,235.2,506.4,240.5,504L240.5,504z"/>
	<path id="XMLID_948_" class="st8" d="M193.3,505.5c-3,6.5-5,7.7-13.2,7.2C185.1,510,188.8,507.2,193.3,505.5L193.3,505.5z"/>
	<path id="XMLID_947_" class="st8" d="M247.8,512.5c3.4-1.8,6-3.3,9.1-5C254.6,512.8,253.7,513.3,247.8,512.5z"/>
	<path id="XMLID_946_" class="st8" d="M193.3,505.5c0.3-0.2,0.6-0.4,0.8-0.5c0,0,0.1,0.2,0.2,0.3C194,505.3,193.6,505.4,193.3,505.5
		C193.3,505.5,193.3,505.5,193.3,505.5z"/>
	<path id="XMLID_945_" class="st2" d="M227.8,503.3c-0.1,0.1-0.2,0.2-0.3,0.3c0-0.1,0-0.2,0.1-0.2
		C227.6,503.3,227.7,503.3,227.8,503.3C227.8,503.3,227.8,503.3,227.8,503.3z"/>
	<path id="XMLID_944_" class="st2" d="M240.5,504c0.1-0.1,0.2-0.2,0.3-0.3c0,0.1,0,0.2-0.1,0.2C240.7,504,240.6,504,240.5,504
		C240.5,504,240.5,504,240.5,504z"/>
	<path id="XMLID_943_" class="st2" d="M207.6,501.1c-0.1,0.1-0.3,0.2-0.4,0.3C207.3,501.2,207.4,501.1,207.6,501.1
		C207.5,501,207.6,501.1,207.6,501.1z"/>
	<path id="XMLID_942_" class="st2" d="M251.8,502.5c-0.1,0.1-0.2,0.2-0.4,0.3C251.5,502.7,251.6,502.6,251.8,502.5
		C251.7,502.5,251.8,502.5,251.8,502.5z"/>
	<path id="XMLID_941_" class="st2" d="M217.2,504c0.1-0.1,0.2-0.2,0.4-0.3C217.5,503.8,217.4,503.9,217.2,504
		C217.3,504,217.2,504,217.2,504z"/>
	<path id="XMLID_940_" class="st7" d="M328.4,324.5c0.6-1.6,1.5-1.7,2.7-1.8C330.7,324.3,329.8,324.4,328.4,324.5z"/>
	<path id="XMLID_939_" class="st7" d="M325.1,325.8c0.2,0.1,0.4,0.2,0.6,0.3c-0.1,0.2-0.1,0.5-0.3,0.6c-0.2,0.1-0.4-0.1-0.6-0.2
		C324.9,326.2,325,326,325.1,325.8z"/>
	<path id="XMLID_938_" class="st7" d="M322.1,328.2c0-0.1,0.1-0.3,0.1-0.3c0.1,0,0.2,0.1,0.3,0.1c0,0.1-0.1,0.3-0.1,0.3
		C322.3,328.3,322.2,328.3,322.1,328.2z"/>
	<path id="XMLID_937_" class="st13" d="M304,568.3c0.8-1.3,1.8-1.8,3.4-1.9C306.5,567.8,305.6,568.5,304,568.3z"/>
	<path id="XMLID_936_" class="st13" d="M310.4,564.9c-0.3,0.6-0.8,0.7-1.4,0.9c-0.1-0.1-0.2-0.2-0.3-0.3c0.3-0.6,0.9-0.7,1.5-0.8
		L310.4,564.9z"/>
	<path id="XMLID_935_" class="st13" d="M312.1,563.8c-0.1-0.1-0.2-0.2-0.2-0.2c0.1-0.1,0.2-0.2,0.3-0.2c0.1,0,0.2,0.1,0.2,0.2
		C312.3,563.7,312.2,563.8,312.1,563.8z"/>
	<path id="XMLID_934_" class="st13" d="M310.1,564.6c0.2-0.1,0.5-0.2,0.7-0.3c-0.2,0.2-0.3,0.4-0.5,0.6
		C310.4,564.9,310.1,564.6,310.1,564.6z"/>
	<path id="XMLID_933_" class="st13" d="M309,565.7c-0.3,0.1-0.5,0.2-0.8,0.3c0.2-0.2,0.3-0.4,0.5-0.6
		C308.8,565.5,308.9,565.6,309,565.7z"/>
	<path id="XMLID_932_" class="st14" d="M333.1,389.7c-0.3,0.1-0.5,0.1-0.8,0.2c0.1-0.2,0.2-0.5,0.3-0.7
		C332.8,389.3,333,389.5,333.1,389.7z"/>
	<path id="XMLID_931_" class="st10" d="M165.5,265.5c-0.3,0.2-0.5,0.4-0.8,0.6c-0.1-0.1-0.1-0.2-0.2-0.3
		C164.9,265.7,165.2,265.6,165.5,265.5C165.5,265.5,165.5,265.5,165.5,265.5z"/>
	<path id="XMLID_930_" class="st10" d="M165.5,265.5c0.2-0.3,0.5-0.5,0.7-0.8c0,0,0.1,0.1,0.1,0.1
		C166.1,265.1,165.8,265.3,165.5,265.5C165.5,265.5,165.5,265.5,165.5,265.5z"/>
	<path id="XMLID_929_" class="st1" d="M320.6,531.7c0.5,0.5,1,1,1.4,1.5c-6.9,4.3-13.5,9.1-20.7,13c0-1.1-0.1-2.1-0.1-3.2
		C307.7,539.2,314.1,535.5,320.6,531.7z"/>
	<path id="XMLID_928_" class="st1" d="M300.5,546.8c0.3-0.2,0.6-0.5,0.8-0.7C301.1,546.3,300.8,546.5,300.5,546.8z"/>
	<path id="XMLID_927_" class="st3" d="M446,474.3c0.2-0.7,0.6-1.3,1.5-1.1C447.3,473.9,446.6,474.1,446,474.3z"/>
	<path id="XMLID_926_" class="st3" d="M447.4,473.2c0-0.6,0.2-0.9,0.8-0.7C448.3,473.1,447.9,473.2,447.4,473.2z"/>
	<path id="XMLID_925_" class="st12" d="M449.5,439c-0.4-0.3-0.7-0.5-1.1-0.8c1.5-0.4,2.5-2.3,4.4-1.7
		C452.1,437.9,450.5,438.1,449.5,439z"/>
	<path id="XMLID_924_" class="st10" d="M157.4,410.7c0.7,3.1,0.2,6.2-0.1,9.3c-0.1-2.8-0.1-5.6-0.2-8.3
		C157.2,411.4,157.3,411,157.4,410.7z"/>
	<path id="XMLID_923_" class="st3" d="M423.8,444.6c-0.4,0.7-0.7,1.5-1.7,1C422.2,444.6,422.9,444.4,423.8,444.6z"/>
	<path id="XMLID_922_" class="st2" d="M157.9,385.5c0,3,0,6,0,9c-6.8,2.7-12.7,7.1-19.1,10.6c-1.5,0.8-3.1,1.5-4.7,2.3
		c0-2.5-0.1-5.1-0.1-7.6c6.7-4.1,13.5-8.3,20.2-12.5C155.4,386.6,156.5,385.7,157.9,385.5z"/>
	<path id="XMLID_921_" class="st4" d="M236,398.1c1.1,5.8,0.7,11.7,1,17.5c-1.4,1.7-3.4,2.8-4.2,5c-0.3,0.2-0.6,0.3-0.9,0.5
		c0.1,0.1,0.2,0.3,0.2,0.2c0.3-0.2,0.6-0.3,0.8-0.5c1.7-0.3,2.9-1.4,4.3-2.3c0,3,0.1,6,0.1,9.1c-1.9,1.8-4.3,3.2-5.1,6
		c-0.1,0.1-0.3,0.2-0.4,0.3c0.1,0,0.2,0,0.3,0c0.1-0.1,0.1-0.2,0.1-0.3c2-0.1,3.3-1.9,5.2-2.3c0,3.1,0,6.1,0,9.2
		c-2.2,1.8-4,3.9-5.6,6.3c-0.3,0.4-0.7,0.8-1,1.2c-0.1,0-0.2,0.1-0.3,0.1c0,0,0,0.1,0,0.2c0.1-0.1,0.2-0.3,0.3-0.4
		c0.7,0.2,1.2,0,1.7-0.6c1.5-0.7,2.9-1.5,4.4-2.2c0.2,4.4-0.6,8.6-2,12.8c-1,3.1-2.8,5-6.3,4.1c0.8-1.9,1.5-3.7,2.6-6.3
		c-3.3,1.7-5.9,2.8-7.9,4.8c-2.9-1.7-4.6-4.3-5.4-7.5c1.4-1.7,2.7-3.4,4.1-5.1c0.1,0,0.2-0.1,0.3-0.2c0,0,0-0.1,0-0.2
		c-0.1,0.1-0.2,0.3-0.3,0.4c-2.1-0.2-3.4,1.4-5,2.3c-0.5-3.1-1.3-6.1-0.9-9.3c1.4-1.1,2.7-2.3,3.9-4.7c-1.8,0.8-2.9,1.3-3.9,1.8
		c-0.4-11,1.6-21.9,1.5-32.9c1.5-1.3,3.4-2.3,3.6-4.6c0.2,0,0.5,0,0.7,0c-0.1-0.1-0.1-0.3-0.2-0.4c-0.2,0.2-0.3,0.3-0.5,0.5
		c-1.2,0.6-2.5,1.1-3.7,1.7c-1.3-6.1,0.4-12.3,0-18.4c1.6-1.6,3.4-3.2,4.5-5.7c-2,0.2-3.1,1.4-4.5,2.1c-0.2-3.3-0.4-6.7-0.6-10
		c1.7-1.4,3.2-3.1,4.3-5c0.2-0.1,0.8,0,0.2-0.5c-0.1,0.2-0.1,0.4-0.2,0.5c-1.8-0.4-2.8,1.4-4.4,1.6c-0.2-3.2-0.4-6.5-0.6-9.7
		c2.2-1.3,3.5-3.4,5-5.4c0.2-0.1,0.8-0.2,0.2-0.6c-0.1,0.2-0.2,0.3-0.3,0.5c-2-0.1-3.3,1.5-4.9,2.3c-0.3-6.5-0.3-13,0-19.5
		c1.4-1.1,2.9-2.2,3.5-4.1c-1.3-0.8-2.1,0.4-3.1,0.7c-0.1-3.8,0.9-7.4,1.3-11.1c0.4-3.7,2.5-5.4,5.8-6.2c-1,2.4-2,4.9-3.3,8.1
		c4-2.4,7.2-4.4,10.3-6.3c3.7,4.1,3.8,9.4,4.5,14.4c0.7,5.1,0.3,10.4,0.4,15.6c-1.9,1.6-3.4,3.4-4.7,5.4c-0.2,0.1-0.8,0.1-0.2,0.6
		c0.1-0.2,0.1-0.4,0.2-0.5c1.9,0.3,3-1.2,4.5-1.8c-0.1,3.4-0.1,6.9-0.2,10.3c-1.6,1.5-3.2,3.1-4.3,5c-0.1,0.1-0.8,0.1-0.1,0.5
		c0-0.2,0.1-0.4,0.1-0.5c1.9,0.5,2.9-1.2,4.3-1.6c-0.2,3.7-0.3,7.5-0.5,11.2c-2.1,1.6-3.6,3.7-4.7,6.2c1.6-0.9,3.2-1.7,4.7-2.6
		c1,5.6,0.9,11.2,1.3,16.9c-2,1.6-3.7,3.4-5.7,6.6C232.8,399.8,234.4,398.9,236,398.1z"/>
	<path id="XMLID_920_" class="st8" d="M208.2,451.5c-4.1,2.3-8.3,4.5-12.3,6.8c-1.7,1-3.3,2.2-5.4,2.3c0.7-2.9,0.7-5.9,0.7-8.9
		c0-11.2,0-22.4,0-33.6c0-1.3-0.3-2.7,0.4-4c1.3-0.1,2.3-0.7,3.4-1.4c4.7-3.1,9.5-6.1,14.2-9.2c0.3,6.3-0.5,12.6-0.9,19
		C207.5,432.1,207.4,441.8,208.2,451.5z"/>
	<path id="XMLID_919_" class="st2" d="M209,378.7c0.2,0.5,0.4,1,0.7,1.5c0.3,5.5,0.5,11,0,16.5c-1.1,1.5-0.4,3.3-0.5,4.9
		c0,0,0,0.3,0,0.3c-1.9,0.2-3.4,1.3-5,2.3c-4.1,2.3-8.1,4.6-12.2,6.8c-0.1-4.8-0.1-9.7-0.2-14.5c0.1-2.4,0.1-4.9,0.2-7.3
		C197.9,386.4,203.3,382.3,209,378.7z"/>
	<path id="XMLID_918_" class="st7" d="M191.9,411.1c4.1-2.3,8.2-4.5,12.2-6.8c1.6-0.9,3.1-2,5-2.3c0,0.5,0,1,0,1.4
		c-4.7,3.1-9.5,6.1-14.2,9.2c-1,0.7-2.1,1.3-3.4,1.4c0-0.6,0-1.3,0-1.9C191.7,411.8,191.8,411.4,191.9,411.1z"/>
	<path id="XMLID_917_" class="st10" d="M230.6,315.7c-3.2,1.9-6.4,3.9-10.3,6.3c1.3-3.3,2.3-5.7,3.3-8.1
		C226.2,313,228.7,313.1,230.6,315.7z"/>
	<path id="XMLID_916_" class="st10" d="M223.1,460.4c2.1-2,4.7-3.1,7.9-4.8c-1,2.6-1.8,4.4-2.6,6.3
		C226.5,462.2,224.8,461.4,223.1,460.4z"/>
	<path id="XMLID_915_" class="st14" d="M236.8,445c-1.5,0.7-2.9,1.5-4.4,2.2c-0.2-0.2-0.4-0.4-0.6-0.6c1.5-2.4,3.3-4.5,5.6-6.3
		C237.5,441.9,237.7,443.5,236.8,445z"/>
	<path id="XMLID_914_" class="st14" d="M236,398.1c-1.6,0.8-3.2,1.6-5.8,3c1.9-3.2,3.7-5,5.7-6.6C235.9,395.7,236,396.9,236,398.1z"
		/>
	<path id="XMLID_913_" class="st14" d="M232.3,433.5c0.9-2.7,3.2-4.2,5.1-6c0,1.2,0,2.4,0,3.6C235.5,431.6,234.3,433.4,232.3,433.5
		L232.3,433.5z"/>
	<path id="XMLID_912_" class="st14" d="M221,351.8c-1.5,2-2.8,4.1-5,5.4c0-1.1,0-2.1,0-3.2c1.6-0.9,2.9-2.4,4.9-2.3L221,351.8z"/>
	<path id="XMLID_911_" class="st14" d="M234.6,377.6c-1.6,0.9-3.2,1.7-4.7,2.6c1.1-2.5,2.6-4.6,4.7-6.2
		C234.9,375.2,235,376.4,234.6,377.6z"/>
	<path id="XMLID_910_" class="st14" d="M217.3,380.2c1.4-0.6,2.5-1.9,4.5-2.1c-1.1,2.5-2.8,4-4.5,5.7
		C217.3,382.6,217.3,381.4,217.3,380.2z"/>
	<path id="XMLID_909_" class="st14" d="M230.8,351c1.3-2,2.9-3.9,4.7-5.4c0.4,1.2,0.3,2.4-0.1,3.6
		C233.8,349.8,232.7,351.4,230.8,351L230.8,351z"/>
	<path id="XMLID_908_" class="st14" d="M232.9,420.6c0.7-2.2,2.8-3.3,4.2-5c0.5,0.9,0.4,1.9,0.3,2.9c-1.4,0.8-2.6,2-4.3,2.3
		L232.9,420.6z"/>
	<path id="XMLID_907_" class="st14" d="M221.7,447.7c-1.4,1.7-2.7,3.4-4.1,5.1c-0.3-0.9-0.6-1.8-0.8-2.7
		C218.4,449.2,219.7,447.6,221.7,447.7C221.8,447.8,221.7,447.7,221.7,447.7z"/>
	<path id="XMLID_906_" class="st14" d="M230.8,364.5c1.2-1.9,2.7-3.5,4.3-5c0,1.1,0,2.2-0.1,3.3C233.6,363.3,232.6,365,230.8,364.5
		L230.8,364.5z"/>
	<path id="XMLID_905_" class="st14" d="M221,365.3c-1.1,1.9-2.6,3.6-4.3,5c0-1.1,0-2.2-0.1-3.3C218.2,366.7,219.2,364.9,221,365.3
		L221,365.3z"/>
	<path id="XMLID_904_" class="st5" d="M216.4,331.1c1-0.3,1.8-1.4,3.1-0.7c-0.6,1.9-2.1,3-3.5,4.1
		C215.8,333.3,215.7,332.2,216.4,331.1z"/>
	<path id="XMLID_903_" class="st14" d="M215.9,438c1.1-0.5,2.1-1,3.9-1.8c-1.2,2.4-2.5,3.6-3.9,4.7C215.9,439.9,215.9,439,215.9,438
		z"/>
	<path id="XMLID_902_" class="st14" d="M221,400.5c-0.3,2.3-2.2,3.3-3.6,4.6c0-1,0-1.9-0.1-2.9C218.5,401.7,219.8,401.1,221,400.5
		L221,400.5z"/>
	<path id="XMLID_901_" class="st8" d="M209.1,401.7c0.1-1.6-0.6-3.4,0.5-4.9C209.6,398.4,210.1,400.1,209.1,401.7z"/>
	<path id="XMLID_900_" class="st4" d="M166.3,422.3c-0.2-6.2-0.4-12.5-0.6-18.7c1.8-1.5,3.4-3.2,4.6-5.2c0.2-0.3,0.4-0.6,0.6-0.9
		c0.2-0.1,0.8,0,0.3-0.5c-0.1,0.2-0.2,0.3-0.2,0.5c-0.4,0.1-0.7,0.2-1.1,0.3c-1.4,0.7-2.8,1.3-4.1,2c-1-7.3-0.7-14.6,0.7-21.9
		c0.9-4.6,3.1-6.3,8.8-6.6c3.6-0.2,6.2,1.6,7.6,5c2.1,5.2,2,10.7,1.6,16.2c-1.7,1.8-3.3,3.6-5,5.4c2.3,0.9,3.4-1.1,5-1.4
		c-0.2,6.3-0.9,12.5-0.4,18.8c-1.2,1.7-3.3,2.9-4.3,5.7c2-1,3.3-1.8,4.7-2.5c0.5,5.8,1.2,11.5,0.9,17.4c-2.1,2.3-4.7,4.3-6,7.3
		c-0.3,0-0.8,0-0.3,0.5c0.1-0.2,0.2-0.3,0.3-0.5c2.3-0.4,4.1-2,6.1-3c0.3,5,0.2,10-1,14.8c-0.8,3.3-1.4,7-5.9,7.5
		c-4.7,0.5-9.2-1.7-11.1-5.7c-1.3-2.6-1.8-5.4-1.7-8.3c1.9-2.1,3.7-4.2,5.6-6.3c-0.2-0.2-0.4-0.5-0.7-0.7c-1.7,1-3.5,2.1-5.2,3.1
		c0.3-6.3,0.5-12.6,0.8-19c1.4-1.2,2.8-2.4,3.6-4.1c0.1-0.3,0.2-0.5,0.3-0.8c-0.3,0.1-0.5,0.1-0.8,0.2
		C168.1,421.5,167.2,421.9,166.3,422.3z"/>
	<path id="XMLID_899_" class="st7" d="M209,378.7c-5.7,3.5-11,7.6-17.1,10.5c0-0.7,0-1.5,0-2.2c4.5-1.7,8.3-4.8,12.6-7
		C205.8,379.4,207,377.7,209,378.7z"/>
	<path id="XMLID_898_" class="st7" d="M190.2,374.4c5.2-0.9,8.8-5.1,13.9-6.3c-3.7,3.4-7.9,5.9-12.3,8.2c-0.3,0.1-0.9-0.4-1.3-0.6
		C190.4,375.3,190.3,374.8,190.2,374.4z"/>
	<path id="XMLID_897_" class="st10" d="M179,443.3c1.3-3,3.9-5,6-7.3c0.3,1.4,0.4,2.8,0.1,4.3C183.1,441.3,181.4,442.9,179,443.3
		L179,443.3z"/>
	<path id="XMLID_896_" class="st14" d="M165,444.7c1.7-1,3.5-2.1,5.2-3.1c0.2,0.2,0.4,0.5,0.7,0.7c-1.9,2.1-3.7,4.2-5.6,6.3
		C164.6,447.4,164.9,446,165,444.7z"/>
	<path id="XMLID_895_" class="st8" d="M184.1,396.6c-1.6,0.3-2.8,2.3-5,1.4c1.7-1.9,3.4-3.7,5-5.4
		C184.2,393.9,184.1,395.2,184.1,396.6z"/>
	<path id="XMLID_894_" class="st14" d="M165.6,399.9c1.4-0.7,2.8-1.3,4.1-2c0.2,0.2,0.3,0.4,0.5,0.6c-1.2,2-2.7,3.7-4.6,5.2
		C165.6,402.4,165.6,401.1,165.6,399.9z"/>
	<path id="XMLID_893_" class="st8" d="M191.9,411.1c-0.1,0.3-0.2,0.7-0.3,1c-0.8-5.2-0.5-10.4,0.1-15.6
		C191.8,401.4,191.8,406.2,191.9,411.1z"/>
	<path id="XMLID_892_" class="st14" d="M184.1,418.6c-1.4,0.7-2.7,1.4-4.7,2.5c1.1-2.8,3.1-4,4.3-5.7
		C184.3,416.4,184.2,417.5,184.1,418.6z"/>
	<path id="XMLID_891_" class="st5" d="M169.5,421.7c-0.9,1.7-2.2,2.9-3.6,4.1c-0.3-1.2,0-2.4,0.4-3.5c0.9-0.4,1.8-0.8,2.7-1.1
		C169.1,421.4,169.3,421.5,169.5,421.7z"/>
	<path id="XMLID_890_" class="st7" d="M205.5,367c0.3-1.2,1.1-1.4,2-1.5c0.1,0,0.5,0.7,0.4,0.7C207.3,366.9,206.7,367.5,205.5,367z"
		/>
	<path id="XMLID_883_" class="st9" d="M327.6,530.3c-2.8-3.3-4.8-7-5.5-11.2c-1.1-6.3,4.2-11.6,10.6-10.6c3.9,0.6,7.5,1.9,9.7,5.4
		c1.6,2.6,5.1,4,5,7.7c2.9,0.1,5.4,2.2,8.4,1.6c3-0.6,5.5-2.2,7.9-4c3.5-2.7,6.4-6,9.3-9.2c19.3-21.1,39.4-41.5,59.9-61.4
		c5.3-5.1,17.3-1.7,19.1,5.2c-8.7,6.3-17.3,12.7-26,19c-0.4,0.5-1.6,0.2-1.2,1c0.2,0.5,1.3,0.3,1.8-0.4c6.3-3,11.9-7.2,17.8-10.7
		c0.9-0.6,1.7-2,3.2-1.1c0,1.7-1.6,2.4-2.5,3.3c-20.3,20.5-40.7,40.9-61,61.5c-4.6,4.6-8.5,9.8-13.3,14.2c-3.3,3-6.9,5.7-11.2,7.2
		c-4.3,1.6-8.5,1.7-12.7-0.4c7.3-5.8,14.5-11.5,21.8-17.3c-0.2-0.3-0.4-0.6-0.6-0.9c-8.6,5.1-17.5,9.7-25.8,15.3
		c-2.2-1-4.1-2.6-5.7-4.4c0.9-1,2.5-1.3,3.2-3c-1.9,0.3-3,1.2-4,2.2c-2.4-1.8-4.6-3.8-6.1-6.5c1.4-1.8,3.2-3.2,3.9-5.5
		c0.1-0.1,0.1-0.1,0.2-0.2c-0.1,0.1-0.1,0.1-0.2,0.2C331.5,528.3,329.6,529.3,327.6,530.3z M349.2,531c-1-0.2-1.8,0.1-2.2,1.3
		C348.1,532.3,348.8,531.8,349.2,531c0.7,0,1.3-0.3,1.5-0.9c0,0-0.3-0.3-0.5-0.3C349.6,529.9,349.1,530.2,349.2,531z M343.4,536
		c0.2-0.5,0.4-1,0.6-1.5c0-0.1-0.3-0.4-0.4-0.4c-0.4,0.3-0.8,0.5-1.1,0.8C342.6,535.1,342.8,535.3,343.4,536z M341,535.6
		c-0.3,0.3-0.6,0.6-0.9,1c0.3,0.1,0.6,0.4,0.8,0.3c0.3-0.1,0.6-0.4,0.8-0.6C342,535.6,341.4,535.8,341,535.6z M345.5,532.6
		c-0.3,0.3-0.6,0.7-0.8,1c0.2,0.1,0.5,0.3,0.6,0.2c0.4-0.3,0.7-0.6,1-0.9C346.1,532.8,345.9,532.7,345.5,532.6z M351.8,528.9
		c0,0.1-0.1,0.2-0.1,0.2c0,0.1,0.1,0.2,0.2,0.2c0-0.1,0.1-0.3,0.1-0.4C351.9,528.9,351.8,528.9,351.8,528.9z"/>
	<path id="XMLID_882_" class="st3" d="M342.2,544.5c8.3-5.6,17.2-10.1,25.8-15.3c0.2,0.3,0.4,0.6,0.6,0.9
		c-7.3,5.8-14.5,11.5-21.8,17.3C345.2,546.7,343.5,545.9,342.2,544.5z"/>
	<path id="XMLID_881_" class="st3" d="M447.7,461.6c-1.5-0.9-2.3,0.5-3.2,1.1c-6,3.5-11.6,7.7-17.8,10.7c-0.2-0.2-0.4-0.4-0.5-0.6
		c8.7-6.3,17.3-12.7,26-19c0.9,2.5,0.1,4.4-1.9,6c-0.6,0-1.2-0.1-1.1,0.8c0,0,0,0,0,0c-0.9-0.5-1.4-0.2-1.5,0.9L447.7,461.6z"/>
	<path id="XMLID_880_" class="st3" d="M327.6,530.3c2-1,4-2,5.9-3l0,0c-0.6,2.3-2.5,3.8-3.9,5.5C328.9,532,328.3,531.1,327.6,530.3z
		"/>
	<path id="XMLID_879_" class="st3" d="M335.7,539.2c1.1-1,2.2-1.9,4-2.2c-0.7,1.7-2.3,2-3.2,3C336.3,539.8,336,539.5,335.7,539.2z"
		/>
	<path id="XMLID_878_" class="st3" d="M387.4,536.1c-0.1,1.1-0.9,1.1-1.6,1C386.1,536.5,386.4,535.7,387.4,536.1z"/>
	<path id="XMLID_877_" class="st9" d="M447.6,461.4c0-1.1,0.6-1.3,1.5-0.9C448.8,461.2,448.7,462.1,447.6,461.4z"/>
	<path id="XMLID_876_" class="st9" d="M449,460.6c-0.1-0.9,0.6-0.8,1.1-0.8C449.8,460,449.4,460.3,449,460.6z"/>
	<path id="XMLID_875_" class="st14" d="M233,420.8c-0.3,0.2-0.5,0.4-0.8,0.5c0,0-0.1-0.2-0.2-0.2c0.3-0.2,0.6-0.3,0.9-0.5
		C232.9,420.6,233,420.8,233,420.8z"/>
	<path id="XMLID_874_" class="st14" d="M221,400.5c0.2-0.2,0.3-0.3,0.5-0.5c0.1,0.1,0.1,0.3,0.2,0.4
		C221.5,400.4,221.2,400.5,221,400.5C221,400.5,221,400.5,221,400.5z"/>
	<path id="XMLID_873_" class="st14" d="M232.4,447.2c-0.4,0.6-1,0.8-1.7,0.6l0.1,0c0.3-0.4,0.7-0.8,1-1.2
		C232,446.8,232.2,447,232.4,447.2z"/>
	<path id="XMLID_872_" class="st14" d="M230.7,364.5c0,0.2-0.1,0.4-0.1,0.5C230,364.7,230.6,364.7,230.7,364.5
		C230.8,364.5,230.7,364.5,230.7,364.5z"/>
	<path id="XMLID_871_" class="st14" d="M221,365.3c0.1-0.2,0.1-0.4,0.2-0.5C221.8,365.2,221.2,365.1,221,365.3
		C221,365.3,221,365.3,221,365.3z"/>
	<path id="XMLID_870_" class="st14" d="M230.8,351c-0.1,0.2-0.1,0.4-0.2,0.5C229.9,351.2,230.6,351.2,230.8,351
		C230.8,351,230.8,351,230.8,351z"/>
	<path id="XMLID_869_" class="st14" d="M220.9,351.7c0.1-0.2,0.2-0.3,0.3-0.5c0.6,0.4,0,0.4-0.2,0.6
		C221,351.8,220.9,351.7,220.9,351.7z"/>
	<path id="XMLID_868_" class="st14" d="M230.7,447.7c-0.1,0.1-0.2,0.3-0.3,0.4c0-0.1,0-0.2,0-0.2
		C230.6,447.9,230.7,447.8,230.7,447.7C230.8,447.8,230.7,447.7,230.7,447.7z"/>
	<path id="XMLID_867_" class="st14" d="M221.8,447.8c0.1-0.1,0.2-0.3,0.3-0.4c0,0.1,0,0.2,0,0.2C222,447.7,221.9,447.7,221.8,447.8
		C221.7,447.7,221.8,447.8,221.8,447.8z"/>
	<path id="XMLID_866_" class="st14" d="M232.3,433.5c0,0.1-0.1,0.2-0.1,0.3c0,0-0.2,0-0.3,0C232,433.7,232.2,433.6,232.3,433.5
		C232.3,433.5,232.3,433.5,232.3,433.5z"/>
	<path id="XMLID_865_" class="st10" d="M179,443.3c-0.1,0.2-0.2,0.3-0.3,0.5C178.2,443.3,178.7,443.3,179,443.3
		C179,443.3,179,443.3,179,443.3z"/>
	<path id="XMLID_864_" class="st14" d="M169.7,397.9c0.4-0.1,0.7-0.2,1.1-0.3c0,0,0,0,0,0c-0.2,0.3-0.4,0.6-0.6,0.9
		C170,398.2,169.9,398.1,169.7,397.9z"/>
	<path id="XMLID_863_" class="st5" d="M169,421.2c0.3-0.1,0.5-0.1,0.8-0.2c-0.1,0.3-0.2,0.5-0.3,0.8
		C169.3,421.5,169.1,421.4,169,421.2z"/>
	<path id="XMLID_862_" class="st14" d="M170.8,397.5c0.1-0.2,0.2-0.3,0.2-0.5C171.5,397.5,171,397.4,170.8,397.5
		C170.8,397.5,170.8,397.5,170.8,397.5z"/>
	<path id="XMLID_861_" class="st3" d="M349.3,531c-0.5,0.8-1.2,1.3-2.3,1.3C347.4,531.1,348.2,530.7,349.3,531L349.3,531z"/>
	<path id="XMLID_860_" class="st3" d="M349.2,531c-0.1-0.8,0.4-1.1,1-1.2c0.1,0,0.5,0.2,0.5,0.3C350.5,530.7,349.9,530.9,349.2,531
		C349.3,531,349.2,531,349.2,531z"/>
	<path id="XMLID_859_" class="st3" d="M343.4,536c-0.6-0.7-0.8-0.9-0.9-1c0.4-0.3,0.7-0.6,1.1-0.8c0,0,0.4,0.3,0.4,0.4
		C343.9,535,343.6,535.5,343.4,536z"/>
	<path id="XMLID_858_" class="st3" d="M341,535.6c0.4,0.2,1,0,0.6,0.6c-0.2,0.3-0.5,0.5-0.8,0.6c-0.2,0.1-0.5-0.2-0.8-0.3
		C340.5,536.2,340.8,535.9,341,535.6z"/>
	<path id="XMLID_857_" class="st3" d="M345.5,532.6c0.4,0.1,0.6,0.2,0.8,0.3c-0.3,0.3-0.7,0.7-1,0.9c-0.1,0.1-0.4-0.1-0.6-0.2
		C345,533.3,345.3,532.9,345.5,532.6z"/>
	<path id="XMLID_856_" class="st3" d="M426.6,473.4c-0.5,0.7-1.6,0.9-1.8,0.4c-0.4-0.9,0.9-0.6,1.2-1
		C426.3,473,426.5,473.2,426.6,473.4z"/>
	<path id="XMLID_855_" class="st3" d="M333.5,527.3c0.1-0.1,0.1-0.1,0.2-0.2C333.6,527.1,333.5,527.2,333.5,527.3
		C333.5,527.2,333.5,527.3,333.5,527.3z"/>
	<path id="XMLID_854_" class="st3" d="M351.8,528.9c0.1,0,0.2,0,0.2,0c0,0.1-0.1,0.3-0.1,0.4c-0.1-0.1-0.2-0.1-0.2-0.2
		C351.6,529.1,351.7,529,351.8,528.9z"/>
</g>
</svg>
