<?xml version="1.0" encoding="utf-8"?>
<!-- Generator: Adobe Illustrator 19.0.0, SVG Export Plug-In . SVG Version: 6.00 Build 0)  -->
<svg version="1.1" id="Layer_1" xmlns="http://www.w3.org/2000/svg" xmlns:xlink="http://www.w3.org/1999/xlink" x="0px" y="0px"
	 viewBox="0 0 612 792" style="enable-background:new 0 0 612 792;" xml:space="preserve">
<style type="text/css">
	.st0{fill:#272626;}
	.st1{fill:#413E3E;}
	.st2{fill:#4B4847;}
	.st3{fill:#4C4948;}
	.st4{fill:#938F8F;}
	.st5{fill:#7F7A7A;}
	.st6{fill:#A9A5A5;}
	.st7{fill:#2F2F63;}
	.st8{fill:#F47A20;}
	.st9{fill:#393972;}
	.st10{fill:#E6EAEE;}
	.st11{fill:#C2CCD3;}
	.st12{fill:#FEFEFE;}
	.st13{fill:#FDFDFD;}
	.st14{fill:#E4E8EC;}
	.st15{fill:#FDFEFE;}
	.st16{fill:#FCFDFD;}
	.st17{fill:#F7F7F7;}
	.st18{fill:#FBFCFC;}
	.st19{fill:#FBFBFC;}
	.st20{fill:#F9FAFB;}
	.st21{fill:#D9DDE1;}
	.st22{fill:#E2E7EB;}
	.st23{fill:#FBFCFD;}
	.st24{fill:#F7F8F9;}
	.st25{fill:#F8F9FA;}
	.st26{fill:#DBE0E5;}
	.st27{fill:#F3F5F7;}
	.st28{fill:#F4F6F7;}
	.st29{fill:#C2CBD3;}
	.st30{fill:#FDFDFE;}
	.st31{fill:#F4F4F4;}
	.st32{fill:#F8F8F8;}
	.st33{fill:#F7F8FA;}
	.st34{fill:#F8F9FB;}
	.st35{fill:#E5E8EC;}
	.st36{fill:#FAFBFC;}
	.st37{fill:#DFE4E9;}
	.st38{fill:#D3D3D5;}
	.st39{fill:#FEFEFF;}
	.st40{fill:#FEFFFF;}
	.st41{fill:#FAFBFB;}
	.st42{fill:#FAFAFA;}
	.st43{fill:#FBFBFB;}
	.st44{fill:#E1E5E9;}
	.st45{fill:#F3F4F4;}
	.st46{fill:#DADFE3;}
	.st47{fill:#EBECEE;}
	.st48{fill:#F2F1F5;}
	.st49{fill:#E7E6ED;}
	.st50{fill:#E9E8EF;}
	.st51{fill:#EDECF3;}
	.st52{fill:#E3E3EF;}
	.st53{fill:#E3E3ED;}
	.st54{fill:#E1E0EA;}
	.st55{fill:#E6E6F0;}
	.st56{fill:#CECEE0;}
	.st57{fill:#E4E3EB;}
	.st58{fill:#DBDBE8;}
	.st59{fill:#F9F9FC;}
	.st60{fill:#E2E2EF;}
	.st61{fill:#D5D4E2;}
	.st62{fill:#B6B9DD;}
	.st63{fill:#F9F8FB;}
	.st64{fill:#F3F3F5;}
	.st65{fill:#F5F4F8;}
	.st66{fill:#F2F1F4;}
	.st67{fill:#F3F2F4;}
	.st68{fill:#F6F5F9;}
	.st69{fill:#F0EFF2;}
	.st70{fill:#F6F5F8;}
	.st71{fill:#F4F3F7;}
	.st72{fill:#EFEEF1;}
	.st73{fill:#E5E3E9;}
	.st74{fill:#F0EEF3;}
	.st75{fill:#DEDBE3;}
	.st76{fill:#E8E6ED;}
	.st77{fill:#DAD8E5;}
	.st78{fill:#E4E2EF;}
	.st79{fill:#CBC8D4;}
	.st80{fill:#E5E3EC;}
	.st81{fill:#D5D2E5;}
	.st82{fill:#9F9AA8;}
	.st83{fill:#BAB5CD;}
	.st84{fill:#B7B3CB;}
	.st85{fill:#F6F6FA;}
	.st86{fill:#E9E9F4;}
	.st87{fill:#D7D7E9;}
	.st88{fill:#272727;}
	.st89{fill:#292828;}
	.st90{fill:#FCFCFC;}
	.st91{fill:#F6F6F7;}
	.st92{fill:#D3DAE0;}
	.st93{fill:#F8F8F9;}
	.st94{fill:#F9F9FA;}
	.st95{fill:#F2F4F6;}
	.st96{fill:#F1F3F5;}
	.st97{fill:#F1F3F6;}
	.st98{fill:#D1D6DC;}
	.st99{fill:#282828;}
	.st100{fill:#F2F1F2;}
	.st101{fill:#F4F5F7;}
	.st102{fill:#EEF0F3;}
	.st103{fill:#D9DFE4;}
	.st104{fill:#DBD9EA;}
	.st105{fill:#B7B2D3;}
</style>
<g id="XMLID_1_">
	<path id="XMLID_586_" class="st0" d="M523.2,369.8c-1.6,4.4-1.2,9.2-2.2,13.8c-1.1,4.9-2.3,9.7-4.6,14.2c-2.8,5.3-7,8-13.3,8.1
		c-21,0.3-42,1.8-63,0.7c-5-0.2-9.9-0.9-14.8-2.1c-11.1-2.9-16-9.1-16.9-20.4c-1-12.8,0.3-25.5,1-38.2c0.9-15.5,1.5-31,1.4-46.5
		c0-2.5,0.7-4.5,2.1-6.5c5.6-7.9,12.4-14.7,19.2-21.5c7.7-7.7,16.4-14.3,23.5-22.6c1.2-1.4,3.1-1.7,4.8-1.5
		c8.3,1.1,16.5-0.3,24.7-0.9c6.9-0.5,13.7-0.9,20.5,0.4c2.6,0.5,5.1,1.2,7.4,2.6c5.5,3.5,8.9,8,8,15.1c-1.5,11.6-0.3,23.2,0.1,34.8
		c0.3,9,0.9,18,1.4,27c0,0.8-0.5,1.8,0.7,2.2c0,0.8,0,1.5,0,2.3c-0.7,0.7-0.3,1.6-0.4,2.4c0,0.7,0,1.3,0,2c0.1,0.8-0.3,1.7,0.4,2.4
		c0,1.3,0,2.5,0,3.8c-0.8,2.3-0.2,4.6-0.4,7c0,3,0,6.1,0,9.1c0.2,1.6-0.4,3.4,0.4,5C523.2,364.8,523.2,367.3,523.2,369.8z"/>
	<path id="XMLID_585_" class="st1" d="M522.5,357.8c0-3.3,0-6.5,0-9.8c0.2-0.3,0.5-0.3,0.7,0c0,3.3,0,6.5,0,9.8
		C523,358.1,522.8,358.1,522.5,357.8z"/>
	<path id="XMLID_584_" class="st2" d="M523.2,348c-0.2,0-0.5,0-0.7,0c0.3-2.2-0.8-4.6,0.7-6.7C523.2,343.5,523.2,345.8,523.2,348z"
		/>
	<path id="XMLID_583_" class="st3" d="M522.5,357.8c0.2,0,0.5,0,0.7,0c0,1.5,0,3,0,4.5C521.8,360.9,522.8,359.3,522.5,357.8z"/>
	<path id="XMLID_582_" class="st4" d="M522.6,335.2c0-0.7,0-1.5,0-2.2c0.2-0.3,0.4-0.3,0.6,0c0,0.8,0,1.5,0,2.3
		C523,335.6,522.8,335.6,522.6,335.2z"/>
	<path id="XMLID_581_" class="st5" d="M522.6,335.2c0.2,0,0.4,0,0.6,0c0,0.8,0,1.5,0,2.3C522.2,337,522.5,336.1,522.6,335.2z"/>
	<path id="XMLID_580_" class="st6" d="M523.2,333c-0.2,0-0.4,0-0.6,0c0-0.8-0.6-1.8,0.6-2.2C523.2,331.5,523.2,332.3,523.2,333z"/>
	<path id="XMLID_579_" class="st0" d="M252.8,317.6c0,16.7,0.1,33.5,0,50.2c0,7.1,1.4,14.2-0.1,21.3c-2.4,11.2-10.1,17.7-21.6,18.1
		c-3.9,0.1-7.7-0.2-11.6-0.8c-13.4-2-26.7,0.5-40,1.1c-10.3,0.4-20.4,0.2-30-4.5c-4.7-2.3-7.1-5.3-7.6-11.1
		c-2.7-31.3-1.9-62.6,0-93.9c0.1-2,0.8-3.5,2.1-5c9.1-10.6,17.2-22.1,27.5-31.7c8-7.4,16.7-14.4,27.9-14.7
		c13.2-0.4,26.4-2.3,39.6,0.1c8.9,1.6,13.7,7.7,13.7,16.9C252.7,281.7,252.7,299.6,252.8,317.6C252.7,317.6,252.8,317.6,252.8,317.6
		z"/>
	<path id="XMLID_578_" class="st0" d="M275,304.9c0-7.4-0.1-18.9,0-30.4c0-4.4,0.5-8.7,0.8-13.1c0.2-2.8,1.3-5.1,3.2-7.3
		c9-10.3,17-21.6,27.1-31c8.2-7.6,17.2-14.5,28.7-14.5c12.5,0,24.9-2.1,37.4-0.1c10.1,1.6,15.3,7.9,14.3,18.2
		c-1.4,13.3-0.1,26.5,0.4,39.7c0.9,22.5,2.8,44.9,1,67.4c-0.7,8.3-1.7,16.6-5.3,24.4c-3.6,7.7-7.6,9.9-16,9.1
		c-13-1.2-25.9,0.8-38.9,1.4c-12.1,0.5-24.2,1.3-36.1-1.8c-0.6-0.2-1.2-0.2-1.8-0.5c-14.6-5.5-14-5.4-14.9-19.5
		C274.4,334.2,276,321.6,275,304.9z"/>
	<path id="XMLID_577_" class="st0" d="M255.2,531c-6.7,0-13.5,0.1-20.2,0c-2.4,0-4.7-0.3-7-0.8c-5.3-1.1-6.6-4.2-4.1-9
		c0.9-1.7,3.4-3.1,2.8-4.9c-0.5-1.6-2.9-2.6-4.3-4c-17.2-17.7-30.3-37.9-36.2-62.2c-1-4-1-8.2-0.3-12.3c1.1-6.6,5.9-11.3,13.1-12.4
		c4.3-0.7,8.7-0.5,13.1,0.1c4.6,0.6,7.4,3.3,8.3,7.9c1.5,8.1,2.9,16.2,5.9,23.9c4.6,11.7,11.1,22,20.3,30.5c1.7,1.6,2.9,2.2,4.5-0.1
		c1.5-2.1,3.8-3.2,6.3-3.8c4.5-1.1,8.8,1,9.2,5.2c1,8.8,3.7,17.3,4.7,26.1c1.3,11.5-1.8,14.9-13.5,14.9c-0.9,0-1.7,0-2.6,0
		C255.2,530.4,255.2,530.7,255.2,531z"/>
	<path id="XMLID_576_" class="st0" d="M476.9,442.6c-0.1,7.6-2.4,14.7-5.4,21.6c-8.4,18.9-19.2,36.1-34.8,49.9
		c-1.3,1.2-1,1.5-0.1,2.5c0.9,1,1.8,2.1,2.5,3.3c2,3.7,1,7.1-2.6,9.2c-4,2.3-8.4,2.4-12.7,1.7c-4.6-0.8-9.2-0.6-13.8-0.2
		c-3.7,0.3-7.5,0.4-11.2-0.3c-5.9-1.2-8-3.8-7.5-9.7c0.7-8.6,1.5-17.1,3.8-25.5c0.7-2.6,1.6-5.2,3.1-7.6c2.8-4.5,6.3-5.2,10.8-2.4
		c0.5,0.3,1.1,0.7,1.5,1.1c5.1,4,5.1,4,10-0.5c7.8-7.2,11.4-16.7,14.4-26.6c2.5-8.3,4.3-16.9,8.3-24.7c2.7-5.3,7-8.3,12.7-9.3
		C468.2,423,477.5,429,476.9,442.6z"/>
	<path id="XMLID_575_" class="st0" d="M451,557c2.2,0.3,4.4,0.7,6.6,1c5.9,0.8,6.4,1.3,7,7.2c0.4,3.8,0,7.5-1.5,11
		c-2.2,5.5-6.6,8.3-12.5,8.3c-1.2,0-2.5,0-3.7-0.1c-1.5,0.2-3.1,0.3-4.6,0c-4,0-8,0-11.9,0c-1.6,0.2-3.1,0.2-4.7,0
		c-6.3,0-12.6,0-18.9,0c-0.9,0.2-1.7,0.2-2.6,0.2c-50.3,0-100.7,0-151,0c-0.9,0-1.8,0.1-2.6-0.2c-10.5,0.6-21-0.2-31.5,0
		c-1.5,0.3-3,0.3-4.5,0c-2,0-4,0-6-0.1c-6.3-0.3-9.2-2.7-9.9-8.9c-0.4-3.2-0.4-6.5-0.1-9.7c0.6-6.4,7.4-11.3,13.9-11.7
		c9.6-0.6,19.1,0.5,28.7,0.9c1.6-0.5,3.1-0.5,4.6,0c4,0,8,0,12,0c1.7-0.6,3.4-0.8,5.1,0.1c6.7-0.1,13.2,0.9,20-0.5
		c3.4-0.7,7.9,1.4,11.9,0.8c8.7-1.3,17.5,0.1,26.2-0.4c28.5-1.4,57-1.7,85.6-1.4c12.3,0.2,24.6,1.5,36.9,2.3
		C446.1,555.6,448.7,555,451,557z"/>
	<path id="XMLID_574_" class="st0" d="M350.4,420.2c-0.9,13.7-1.8,26.5-2.6,39.3c-0.1,1.2,0,2.5,0,3.7c0.2,7.1,0.2,7,6.9,7.9
		c2.6,0.3,5.5,0.6,6.5,3.6c0.9,2.8-1,4.6-2.9,6.4c-4.4,4.3-7.7,9.5-11.4,14.3c-3.9,4.9-7.9,9.7-14.2,11.8c-2.9,1-5.3,0.8-7.9-1.4
		c-9.1-7.7-16.1-17-23.1-26.5c-1.6-2.2-0.6-5.1,2.1-6.5c2.3-1.2,4.9-1.9,7.6-1.9c2,0,2.5-0.5,2.8-2.4c1.4-8.8,0.1-17.4-0.5-26.1
		c-0.8-11.8-2.7-23.6-1.2-35.5c0.6-4.5,1.7-8.9,3.9-12.8c2.1-3.8,6.1-5.8,10.4-6.4c3.6-0.5,7.2-0.2,10.8,0c5.5,0.3,8.4,3.9,10.2,8.5
		C350.8,404.2,350.5,412.6,350.4,420.2z"/>
	<path id="XMLID_573_" class="st7" d="M250.6,584.5c19.5-0.1,39-0.1,58.4-0.1c31.5,0,63,0,94.4,0c1.1,0,2.2,0.1,3.3,0.2
		c-2.1,1.4-4.4,0.3-6.5,0.3c-5,0-10,0.1-15,0.1c-8.9,0-17.9,0-26.8,0c-9.5,0-18.9,0.1-28.4,0.1c-12.3,0-24.6-0.3-37,0
		c-11.2,0.3-22.4-0.7-33.6,0.3C256.6,585.4,253.6,584.7,250.6,584.5z"/>
	<path id="XMLID_572_" class="st8" d="M451,557c-2.5-0.6-5.1,0-7.5-1.2C448.1,552.8,449.2,552.9,451,557z"/>
	<path id="XMLID_571_" class="st8" d="M262.9,555c-1.7,0-3.4,0-5.1-0.1C259.5,553.3,261.2,553.1,262.9,555z"/>
	<path id="XMLID_570_" class="st8" d="M245.8,554.9c-1.5,0-3.1,0-4.6,0C242.7,553.5,244.3,553.2,245.8,554.9z"/>
	<path id="XMLID_569_" class="st8" d="M214.7,584.4c1.5,0,3,0,4.5,0C217.6,585.4,216.1,585.7,214.7,584.4z"/>
	<path id="XMLID_568_" class="st9" d="M425.7,584.5c1.6-0.4,3.1-0.3,4.7,0C428.8,585.5,427.2,585.6,425.7,584.5z"/>
	<path id="XMLID_567_" class="st8" d="M442.3,584.4c1.5-0.3,3.1-0.3,4.6,0C445.4,585.5,443.8,585.6,442.3,584.4z"/>
	<path id="XMLID_566_" class="st10" d="M418.2,351c0-5.8-0.2-11.6,0.9-17.3c2.9-4.1,7.5-5.9,11.4-8.8c2.1-1.6,4.5-2.9,6.7-4.3
		c-4.8,3.1-9.7,6-14.6,8.9c-1,0.6-2.1,1.4-3.4,0.5c0.3-5,0.5-10,0.8-15c0.5-0.7,0-1.7,0.5-2.4c1.5-1.1,3.2-1.8,4.7-2.9
		c0.5-0.3,1-0.6,1.5-0.9c-0.7,0.3-1.3,0.8-2,1.3c-1.5,0.3-2.5,2.6-4.4,0.9c-0.1-2.1,0-4.3,0-6.4c1-3.5,4.4-4.3,7.1-5.9
		c5.9-0.3,11.9,0.3,17.8-0.8c11.3-2,17.4-8.4,19-19.8c0.9-6.5,0.4-12.9,0.7-19.4c3-2.8,6.7-4.6,10.5-6c8.3-1.1,16.5-2.3,24.8-0.8
		c1.9,0.4,3.9,0.6,5.4,2.2c-3.3,2.4-6.9,4.2-10.4,6.8c3.7-2.4,7.1-4.7,10.9-6.5c2.5,1.2,4.1,3.3,5.1,5.9c-1.9,2.4-4.8,3.3-6.8,4.8
		c2.3-0.4,3.9-3.7,7.2-3.4c1.3,5.2,0.5,10.6,0.5,15.9c-1.1,2.3-3.2,3.4-5.1,4.7c-4.3,3-8.8,5.6-13.1,8.6c4.9-3.4,10-6.3,15.2-9.3
		c0.9-0.5,1.9-1.3,3.1-0.3c0,5.5,0,11,0,16.5c-3.1,3.7-7.7,5.2-11.1,7.8c2.6-1.5,5.5-3.4,8.4-5.1c0.8-0.5,1.6-1.3,2.7-0.4
		c0,2.8,0,5.5,0,8.3c-3.1,3.7-7.5,5.7-11.2,8.5c-3.2,2.5-6.8,4.5-10.2,6.7c-1.1,0.7-2.1,1.4-3.4,1.2c-12.3-0.8-24.7-0.4-37-0.2
		c-1.8,0-5.1-0.1-5,2c0.1,2.2,3.2,1.5,5.1,1.5c7.1,0.3,14.2-0.2,21.3,0.5c3.9,0.4,7.9-0.5,11.9-0.8c1.6-0.2,3.1-0.9,4.3-2.1
		c6.8-5.2,14.5-9,21.8-13.3c0.7-0.4,1.5-0.8,2.5-0.4c0.3,2.8,0.3,5.5,0,8.3c-1.3,2.8-4.2,3.7-6.5,5.4c-6.2,4.6-12.7,9-17.7,12.1
		c4.8-3.5,11.8-6.9,18.4-11c1.7-1.1,3.4-2.6,5.7-2.1c0.3,2.8,0.3,5.5,0,8.3c-3.8,4-8.8,6.3-13.4,9.3c-1.4,0.9-2.9,1.7-3.8,2.5
		c5.4-2.9,10.4-7.8,17.1-9.6c0.3,5.5,0.4,11,0,16.5c-0.8,0.8-1.7,1.4-2.7,1.9c0.9-0.2,1.7-1.5,2.8-0.4c0.3,2.8,0.4,5.5,0,8.3
		c-2.4,3.1-6.1,4.4-8.7,6.7c2.7-1.3,4.9-4.4,8.7-4.4c0.3,3.3,0.3,6.5,0,9.8c-1.7,1.9-3.4,3.8-5.6,5c1.9-0.3,3-3.4,5.6-2
		c0.3,4,0.3,8,0,12c0,0.5-1.4,1,0,1.5c-0.3,4.7-3.4,7.2-7.3,8.9c-5.3,2.3-10.9,3-16.6,2.9c-0.1-0.4,0.1-0.9,0.4-0.9
		c5.8-0.3,7.6-5.3,11.3-9.3c-6.9,3.4-12.6,7.7-19.2,10.2c-3.8,0.1-7.6,0.3-11.3-0.6c-0.5-1.4,0.5-2.1,1.3-2.8
		c3.9-3.1,7.4-6.6,10.3-8.6c-4.8,3.1-11,6.6-17.1,10c0.5,0.2,1.7-0.2,1.7,1.3c-5.3-0.4-10.5-0.8-15.8-1.2c-0.5-1.8,1.1-2.3,2.1-3
		c3.3-2.4,6.6-5,9.8-6.9c-5.7,3.2-11.3,7.3-17.8,9.7c-4.9-0.4-9.7,1.6-14.5,0.2c1.3-1.7,3.4-2.3,5-3.7c-2,1.3-3.9,2.7-6.2,3.4
		c-5.5-2.7-6.9-8-8.1-13.3c5.3-2.6,9.9-6.4,13.2-8.2c-1.9,1.2-5.5,3.7-9.4,5.8c-1.2,0.7-2.4,2-4,0.9c-1-2.7-1.3-5.4-1.3-8.3
		c7.2-4.4,13.8-9.6,20.9-14.2c1.8-1.1,3.5-2.4,5.5-3.1c8.1,0.5,16.1,0.6,24.2,0.5c5.4-0.1,10.7-0.7,16.7-1.7
		c-10.2-0.1-19.5-1-28.9-0.7c-4.4,0.2-8.7,0.6-12.9,1.9c-7.3,4.9-14.9,9.2-22.5,13.4c-0.9,0.5-1.9,1.4-3.1,0.9
		c-0.8-6.8-1.1-13.5-0.2-20.3c2.8-3.9,7.5-5.3,11.1-8c1-0.7,2.1-1.3,3.2-1.9c-3.7,2.1-7.3,4.5-10.9,6.6
		C420.5,350.5,419.6,351.6,418.2,351z"/>
	<path id="XMLID_565_" class="st11" d="M433.1,280.5c6.9-7.2,13.9-14.5,21.3-22.2c0.5,4.8,0.7,9,0.4,13.3c-1.1,2.6-3.4,4.2-5.4,6.1
		c-0.2,0.1-0.3,0.3-0.2,0.5c0.1-0.2,0.2-0.4,0.4-0.5c1.6-1,3.1-2.4,5.2-2.4c-0.2,5.9-0.5,11.8-7.1,14.7c-0.5,0.2-1.2,0.2-1.8,0.3
		c-0.4-0.2,0-1.5-1-0.9c-1.3,0.9-3,0.8-4.3,1.6c-4.3,0.9-8.5,0.3-12.8-0.1c0.6-3.4,3.4-5.3,5.5-7.7c1.2-1.4,2.6-2.6,4.3-4.1
		C436.1,280.3,435,281.6,433.1,280.5z"/>
	<path id="XMLID_564_" class="st12" d="M480.5,401.9c6.4-4.6,13.5-8,20.6-11.5c-3.8,4.5-5.6,11.3-13.1,11.4
		C485.5,401.9,483,401.9,480.5,401.9z"/>
	<path id="XMLID_563_" class="st12" d="M512,324.7c-9.2,5.2-18.5,10.5-27.7,15.7c-0.1-0.2-0.3-0.5-0.4-0.7
		c9.4-6.5,18.7-13,28.1-19.5C511.9,321.8,512,323.3,512,324.7z"/>
	<path id="XMLID_562_" class="st12" d="M418.3,373.5c8.2-4.7,16.4-9.5,24.6-14.2c0.7-0.5,0.8,0,0.9,0.5c-7.7,5.5-15.4,11-23,16.6
		c-0.7,0.5-1.6,0.8-2.4,0.2C418.3,375.5,418.3,374.5,418.3,373.5z"/>
	<path id="XMLID_561_" class="st13" d="M465.5,401.1c-0.8-1-2.1-0.4-3.6-1.1c7.6-4.4,15-8.7,22.3-12.9c-4.5,5.3-10.3,9.1-15,14.1
		C468,401.2,466.7,401.2,465.5,401.1z"/>
	<path id="XMLID_560_" class="st12" d="M487.7,324.1c5.3-2.5,9.7-6.4,14.6-9.6c3.2-2.1,6.4-4.2,9.6-6.3c0,1.2,0,2.5,0,3.7
		c-7.7,4.5-15.4,9-23.2,13.5C488.1,325.3,487.7,324.9,487.7,324.1z"/>
	<path id="XMLID_559_" class="st14" d="M433.1,280.5c2.5,0.1,3.8-2.6,6.9-2.7c-4.4,4.6-8.7,8.5-12.1,13.2c-1.5,0-3,0-4.5,0
		C426.7,287.4,429.9,283.9,433.1,280.5z"/>
	<path id="XMLID_558_" class="st15" d="M443.8,399.7c6.7-4,13.3-8,20-11.9c0.2,0.2,0.4,0.5,0.5,0.7c-4.9,3.8-9.7,7.6-14.6,11.5
		C447.7,399.8,445.7,399.7,443.8,399.7z"/>
	<path id="XMLID_557_" class="st16" d="M419.1,330c6.2-2.5,11.6-6.6,17.5-9.7c0.9-0.5,1.7-1,2.5-1.4c0.2,0.2,0.3,0.5,0.5,0.7
		c-6.9,4.7-13.7,9.4-20.6,14.2C419.1,332.5,419.1,331.3,419.1,330z"/>
	<path id="XMLID_556_" class="st13" d="M511.9,281.2c-6.1,2.7-11.7,6.4-17.5,9.7c-0.9,0.5-1.7,1.4-3.4,1.1c7.2-5,14.1-9.8,20.9-14.5
		C511.9,278.8,511.9,280,511.9,281.2z"/>
	<path id="XMLID_555_" class="st17" d="M475.2,252.8c-3.2,2.5-6.7,4.5-10.5,6c-0.2-2-1.3-4.4-0.5-5.8c1-1.9,3.5,0.1,5.4-0.1
		C471.5,252.5,473.4,252.8,475.2,252.8z"/>
	<path id="XMLID_554_" class="st18" d="M512,335.2c-6,3.5-11.9,7-17.9,10.5c-0.2-0.3-0.3-0.5-0.5-0.8c6.1-4,12.2-8,18.3-11.9
		C512,333.8,512,334.5,512,335.2z"/>
	<path id="XMLID_553_" class="st19" d="M419.7,384.8c4.5-1.6,8.2-4.5,12.3-6.7c1.4-0.8,2.7-1.5,4.5-1.7c-5,3.4-9.9,6.9-14.9,10.3
		c-0.3,0.2-1.1-0.3-1.7-0.4C419.8,385.8,419.8,385.3,419.7,384.8z"/>
	<path id="XMLID_552_" class="st20" d="M418.2,351c4.7-2.8,9.5-5.6,14.2-8.3c0.2,0.3,0.3,0.6,0.5,0.8c-4.9,3.2-9.8,6.5-14.8,9.7
		C418.1,352.5,418.2,351.7,418.2,351z"/>
	<path id="XMLID_551_" class="st20" d="M506,254.3c-3.5,3.9-8.5,5.4-12.9,7.8c3.9-3,7.4-6.8,12.4-8
		C505.7,254.1,505.9,254.1,506,254.3z"/>
	<path id="XMLID_550_" class="st21" d="M420.6,303.7c0,2.5,0,5.1,0,7.6c0.4,0.5,0.4,1-0.1,1.4c0,0.8,0.1,1.7-0.6,2.2
		c-0.1-5,0-10.1-0.2-15.1c-0.1-1.7,0.5-2.2,2.1-1.9c1.1,0.2,2.2,0.4,3.3,0.6c0.4,1.7-1.1,2-2,2.5
		C421.9,301.7,421.1,302.5,420.6,303.7z"/>
	<path id="XMLID_549_" class="st19" d="M511.9,300c-4.5,2.5-9,4.9-13.4,7.4c-0.1-0.2-0.3-0.4-0.4-0.7c4.6-3,9.2-6,13.8-8.9
		C511.9,298.5,511.9,299.3,511.9,300z"/>
	<path id="XMLID_548_" class="st19" d="M512,363.7c-3.5,2-7,4-10.4,5.9c3.2-3.1,6.3-6.3,10.4-8.2C512,362.2,512,363,512,363.7z"/>
	<path id="XMLID_547_" class="st22" d="M449,277.5c1.7-2.3,3.7-4.2,5.9-6c0,1.2,0,2.5,0,3.7c-1.7,1-3.4,2-5.1,3
		C449,278.5,448.8,278.2,449,277.5z"/>
	<path id="XMLID_546_" class="st23" d="M512,376.5c-2.9,0.3-4.6,3.2-7.8,3.2c2.9-1.7,4.4-5.1,7.7-6.2C512,374.5,512,375.5,512,376.5
		z"/>
	<path id="XMLID_545_" class="st24" d="M511.5,261.7c-3.1,1.7-6.1,3.4-9.2,5.2c2.5-2.9,5.4-5,8.8-6.6
		C511.2,260.7,511.3,261.2,511.5,261.7z"/>
	<path id="XMLID_544_" class="st25" d="M428,399.6c2.4-2.1,5.2-3.7,8.4-4.6c-2.1,2.1-4.3,3.9-7.2,4.9
		C428.8,399.8,428.4,399.7,428,399.6z"/>
	<path id="XMLID_543_" class="st25" d="M420.6,303.7c-0.6-3.5,3.5-2.9,4.4-5.1c0.7,0,1.5,0,2.2,0.1C425.6,301,422.8,302,420.6,303.7
		z"/>
	<path id="XMLID_542_" class="st26" d="M440.7,291c1.9-1.2,3.8-2.4,6-3.8c0.5,1.3-0.5,2.1-0.8,3C444.4,291.3,442.5,291.1,440.7,291z
		"/>
	<path id="XMLID_541_" class="st27" d="M512,353.2c-1.8,0-2.9,1.6-5.1,2.2c1.5-2.2,3.1-3.2,5.1-3.7C512,352.2,512,352.7,512,353.2z"
		/>
	<path id="XMLID_540_" class="st28" d="M511.9,390c-0.7,0.5-1.4,0.9-2.7,1.9c0.7-1.9,1.7-2.7,2.8-3.3
		C511.9,389,511.9,389.5,511.9,390z"/>
	<path id="XMLID_539_" class="st10" d="M149.1,365.3c-0.1-6.3-0.4-12.5,0.7-18.8c2-3.1,5.5-3.9,7.9-5.9c-2.6,0.8-4.3,4.2-7.8,3.7
		c0-2.8-0.4-5.6,0.6-8.3c1.1-2.1,3.2-3.1,5-4.4c5.9-4.3,12.1-8.3,15.8-10.7c-3.9,2.6-10.4,6.3-16.9,10.1c-1.1,0.7-2.2,1.8-3.7,1.2
		c0-1.3,0-2.5,0.1-3.8c0.7-2.3-0.2-4.7,0.5-7c0.1-2.4,0.1-4.8,0.2-7.2c2.6-2.7,6.1-4.1,8.7-6c-2.8,1.1-5.1,4.3-8.7,4.5
		c0-2.7-0.1-5.5-0.1-8.2c1.9-2.8,4.3-4.6,7.5-5.6c-0.2-0.4-1.6,0.3-1.5-1c6.3-0.2,12.7,0.5,19-0.7c12.1-2.3,18.1-9,19.3-21.2
		c0.5-6,0.2-12,0.1-17.9c2-1.3,4.1-2.3,6.1-3.4c0.7-0.4,0.9-0.7,0.2-1.2c5.8-0.8,11.6-1.3,17.5-1.3c0.1,2.3-2.3,2.2-3.3,3.5
		c1.9-1.5,4-2.7,6.3-3.6c3.8-0.2,7.7-0.2,11.3,1.4c0.3,1.7-1.2,2-2.1,2.7c-6,4.4-12,8.8-18.4,12.7c8-4.8,15.7-9.9,24.2-13.8
		c2.8,1.1,4.3,3.2,5.1,6c-2.5,2.6-6,3.8-8.3,5.9c2.7-1.2,4.9-4.4,8.6-4.4c1,1.3,0.5,2.9,0.5,4.3c0,39.5,0,78.9,0,118.4
		c0,7.9-2.7,11.6-10.2,14c-2,0.6-4,1.4-6.2,1.2c-0.3-2.4,2-2.8,2.5-3.8c-1,1.6-4.5,1.1-5.3,4c-4.3,1.2-8.6,0.7-13,0.6
		c-9.3-0.3-18.6-0.9-27.8-2.1c-0.2-1.9,1.5-2.4,2.5-3.2c2.7-2.1,5.6-3.8,8.2-5.6c-4.8,2.9-9.4,6.7-15.1,8.6c-4.5,0.1-9,0.1-13.5,0.2
		c-0.3-1.8,1.4-2.1,2.4-2.9c2.2-1.7,4.7-3.1,7.4-4.8c-4.9,3-9.3,6.1-14.2,8.3c-3.2-0.4-5.5-2.1-6.8-5.1c1.5-2.6,4.3-3.7,6.5-5.4
		c7.8-5.8,15.6-11.5,22-15.6c-8.5,5.7-19.8,11-30,18c-1.5-2.5-2.3-5.3-2.2-8.3c0.7-1.5,2-2.5,3.3-3.4c6-4.2,12-8.3,17.4-11.6
		c-5.2,3.3-11.3,7-17.7,10.4c-1.1,0.6-2.2,1.9-3.7,0.9c-0.7-3.5-1-7-0.7-10.5c2,1,3.3-0.4,4.7-1.4c10.6-7.4,20.8-15.5,28.7-20.6
		c-7.8,4.9-18.9,11.2-30,17.5C151.5,365.1,150.5,366.2,149.1,365.3z"/>
	<path id="XMLID_538_" class="st29" d="M164,291.7c-3,0-6,0-8.9,0c-0.2-0.3-0.4-0.6-0.7-0.8c10.2-10.5,20.9-20.6,31.1-31.9
		c0.7,8.3,1.4,16-0.2,23.7c-1.2,6-5.5,8.3-11,8.9c-2.5,0.3-5,0.1-7.4,0.1C166,289.6,165,291.9,164,291.7z"/>
	<path id="XMLID_537_" class="st12" d="M149.1,365.3c10.4-5.4,20.3-11.5,30.4-17.4c2.5-1.5,5.1-2.9,8.1-3.6
		c-3.6,2.6-7.3,5.2-10.9,7.8c-8.1,5.8-16.1,11.6-24.2,17.5c-1.5,1.1-2.7,1.8-3.5-0.6C149.1,367.8,149.1,366.5,149.1,365.3z"/>
	<path id="XMLID_536_" class="st12" d="M152.7,391.5c0-1.9,1.6-2.4,2.8-3.1c10.3-6,20.6-11.8,31.1-17.4
		c-10.7,8.1-21.2,16.3-32.5,23.5C153.4,393.7,152.8,392.7,152.7,391.5z"/>
	<path id="XMLID_535_" class="st30" d="M237.5,255c-4.9,4.2-11,6.6-16.4,10c-3.2,2-6.5,3.8-10.2,5c7.6-5.5,15.3-11,22.9-16.6
		C235.2,253.5,236.4,254.1,237.5,255z"/>
	<path id="XMLID_534_" class="st30" d="M150.6,332.2c8.2-4.8,16.4-9.5,24.6-14.3c0.2,0.2,0.3,0.5,0.5,0.7
		c-8.4,5.8-16.8,11.5-25.2,17.3C150.5,334.7,150.5,333.5,150.6,332.2z"/>
	<path id="XMLID_533_" class="st13" d="M149.8,379.5c8-4.4,15.9-8.9,23.9-13.3c0.1,0.2,0.3,0.4,0.4,0.6c-7.9,5.5-15.8,11-23.7,16.4
		C150.1,382,149.6,380.8,149.8,379.5z"/>
	<path id="XMLID_532_" class="st23" d="M179,398.9c5.4-4,11.5-6.8,17.5-9.9c-4.4,3.4-8.7,6.7-13.1,10.1C182,399,180.5,399,179,398.9
		z"/>
	<path id="XMLID_531_" class="st20" d="M161,399.6c4.5-4.3,10.5-6.2,16-9c-3.8,2.8-7.7,5.7-11.5,8.5
		C164.1,399.7,162.6,399.9,161,399.6z"/>
	<path id="XMLID_530_" class="st31" d="M202,253.4c0.6,0.1,1.2,0.2,2.4,0.4c-3,1.9-5.4,4.1-8.7,4.3c-0.1-0.5-0.1-1-0.2-1.5
		c-0.5-2.7,0-4.3,3.3-3.4C199.7,253.5,200.9,253.3,202,253.4z"/>
	<path id="XMLID_529_" class="st32" d="M157.3,297.9c-0.3,0.8,3.1,0.2,0.7,1.9c-2.3,1.5-4.5,3.1-6.7,4.7c-0.2-0.2-0.2-0.4,0-0.6
		c-0.5-4.3-0.2-4.5,5.3-6.1C156.7,297.9,157,297.9,157.3,297.9z"/>
	<path id="XMLID_528_" class="st31" d="M224.2,400.6c-0.6-0.1-1.2-0.2-2.1-0.4c3-2.5,6.3-3.9,9.7-5.2c-1.6,1.8-3.2,3.6-4.8,5.4
		C226.1,400.5,225.1,400.5,224.2,400.6z"/>
	<path id="XMLID_527_" class="st20" d="M242.9,262.4c-3.5,2-7,4-10.5,6.1c-0.2-0.3-0.4-0.6-0.6-0.8c3.8-1.9,6.4-5.5,10.7-6.7
		C242.7,261.5,242.8,262,242.9,262.4z"/>
	<path id="XMLID_526_" class="st33" d="M151.3,312.7c3.6-1.8,6.6-4.5,10.6-5.6c-3.5,2.5-6.6,5.4-10.6,7.1
		C151.3,313.7,151.3,313.2,151.3,312.7z"/>
	<path id="XMLID_525_" class="st34" d="M149.8,344.3c3.2-1.7,6.4-3.4,9.6-5.2c0.1,0.2,0.3,0.4,0.4,0.6c-3.3,2.3-6.7,4.5-10,6.8
		C149.8,345.7,149.8,345,149.8,344.3z"/>
	<path id="XMLID_524_" class="st35" d="M156.5,297.9c-2,1.8-6,1.9-5.3,6.1C149.3,297.7,149.7,297.2,156.5,297.9z"/>
	<path id="XMLID_523_" class="st36" d="M222.5,252.1c-2.4,2.3-5.3,3.8-9,5.3c1.7-2.9,4.6-3.2,6-5.3
		C220.5,252.1,221.5,252.1,222.5,252.1z"/>
	<path id="XMLID_522_" class="st37" d="M164,291.7c1.5-1,3-1.9,4.7-3c0,1.6-1.4,2-1.7,3C166,291.7,165,291.7,164,291.7z"/>
	<path id="XMLID_521_" class="st38" d="M151.1,321.5c0.1,2.4,0.7,4.7-0.5,7C150.4,326.1,150.6,323.8,151.1,321.5z"/>
	<path id="XMLID_520_" class="st10" d="M373.3,217.5c2.7,1.8,3.8,4.5,4.4,7.5c-6.8,5.2-13.8,10.2-21,14.8c-1.7,1.1-3.3,2.4-4.4,3
		c5.8-4.2,12.9-7.8,19.7-11.9c1.8-1.1,3.4-2.6,5.8-2.1c0,8,0,16,0,24c-2.3,3.3-6,4.7-9,7c-3.4,2.6-7.3,4.7-10.8,7.2
		c5.1-3.6,10.6-6.7,16.1-9.8c1.1-0.6,2.2-1.8,3.7-0.8c0,2.8,0,5.5,0,8.3c-6,5.3-12.9,9.4-19.5,13.8c-1.3,0.9-2.7,1.8-4,2.7
		c6.6-4.5,13.6-8.3,20.5-12.4c0.9-0.6,1.9-1.3,3.1-0.4c0,2.8,0,5.5,0,8.3c-5.4,5-11.8,8.6-17.9,12.7c-1.2,0.8-2.6,1.4-3.5,2.3
		c6.3-4,12.8-8.1,19.6-11.7c0.6-0.3,1.1-0.5,1.8-0.3c0,3,0,6,0,9c-3.4,3.5-7.6,6.1-11.5,8.9c-7.6,5.4-15,11.2-22.9,16.2
		c10.2-6.5,20.9-12.2,31.2-18.4c0.9-0.6,1.9-1.2,3.2-0.7c0,2.8,0,5.5,0,8.3c-2.3,3.4-6.5,4.2-8.9,6.4c2.7-1.1,5-4.4,8.9-4.2
		c0,5.3,0,10.5,0,15.8c-0.1,0.2-0.2,0.4-0.4,0.6c-0.3,0.5-0.8,0.8-1.3,1.2c0.5-0.2,1-0.6,1.7-0.4c0,2.8,0,5.5,0,8.3
		c-0.1,0.2-0.2,0.4-0.4,0.6c-0.3,0.5-0.8,0.8-1.3,1.2c0.5-0.2,1-0.6,1.7-0.4c0,6,0,12,0,18c-1.8,1.3-0.2,3.1-0.6,4.6
		c0.1,0.2,0.1,0.5-0.1,0.6c-1.9,1.6-3.6,3.4-5.2,5.2c-0.2,0.1-0.4,0.2-0.7,0.3c-1.1-0.3-2.2-0.4-3,0.7l0.1-0.1
		c-4.6-1.1-9.3,1-13.9,0c-1.8,0-3.6,0-5.5,0c-1.8,0.7-3.7-0.1-5.5,0.5c-1.9,0.1-3.9,0.1-5.8,0.2c-2.8,0.8-5.7-0.2-8.4,0.6
		c-1.3,0-2.5,0-3.8,0c-0.2-2.2,1.8-2.7,3-3.7c1.2-1,2.8-1.5,3.7-2.4c-3.5,2-6.9,4.9-11.2,6.2c-2,0-4,0-6,0c-1.6-1.5-3.6,0.3-5.3-0.5
		c-0.6-2.1,1.5-2.3,2.4-3.2c1.5-1.4,3.6-2.1,5.1-3.3c-3.7,2-7,5-11.3,6.3c-4.6,0-8.9-1.1-12.9-3.3c-0.5-1.9-2.5-1.7-3.7-2.5
		c-0.2-0.2-0.5-0.5-0.7-0.7c3.2-3.7,8-5.3,11.3-8c-3.8,2.2-7.6,5.1-12,7.3c-2.1-1.5-2.7-3.9-3.6-6.1c0.4-1.5,1-2.7,2.3-3.7
		c10.4-7.3,20.6-15,31.1-22.2c0.3-0.2,0.7-0.3,1-0.4c5.7-0.4,11.3-0.3,17,0c1.2,0.1,2.4,0.3,3.6-0.4c1.2-0.4,2.4-0.5,3.6-0.5
		c1.3,0,2.6,0.1,3.9-0.3c0.7-0.2,1.4-0.3,2.1-0.2c1.6,0,3.4,1.1,4.7-0.7c0.2-0.3,0.3-0.5,0.5-0.8c0.3-1.7,0.1-2.9-2.1-1.9
		c-1.5,0.7-3.1,0.7-4.7,1.2c-1,0.2-1.9,0.1-2.9-0.1c-2.8-0.7-5.6-0.3-8.4-0.3c-8.3,0.2-16.7-1-25.3,2c2,0.9,3.8,0.8,5.2,1.7
		c1.3,1.5-0.2,2-1,2.5c-9.4,5.7-18.9,11.1-28.5,16.6c-0.9,0.5-2,1.1-3.1,0.2c-0.6-2.5-0.5-5,0-7.5c0.7-1.7,2.3-2.6,3.7-3.6
		c6.6-4.5,13.2-9.2,18-12.1c-5.1,3.5-12.5,7.9-20.1,11.9c-0.4,0.2-1,0.2-1.4,0c-0.3-3,0.3-6,0.7-9c5.4-5,11.9-8.6,17.9-12.8
		c1.4-1,2.8-1.9,4.2-2.9c-6.9,5.4-15.6,8.1-22.1,14.2c0.3-4.3,0.3-8.7,1.2-13c0.9,1,1.4,0.1,2-0.3c5.8-4.4,12.1-8.2,18.2-12.3
		c-5.3,3.4-10.6,6.7-16.1,9.7c-1.2,0.7-2.4,2-4,0.9c0-12,0-24,0-36c3.1-4.2,7.5-6.6,12-8.9c4.8-0.4,9.7-0.3,14.5-1.4
		c11.2-2.6,16.7-9.1,17.9-20.5c0.7-6.8,0.3-13.5,0-20.2c1.6,0.9,3,1.2,4.7,0c1.9-1.4,4-2.5,6.4-2.9c8-1,16-2.1,24-0.9
		c2.2,0.3,4.4,0.6,6.1,2.2c-6.3,5.4-13.3,9.9-20.2,14.6c-1.6,1.1-3.2,2.4-5.6,3.5c1.9-0.8,3-1.8,4.2-2.6
		C357.3,226.6,365.6,222.5,373.3,217.5z"/>
	<path id="XMLID_519_" class="st11" d="M292.1,249c8.9-9.7,18.7-18.5,27.9-29.2c0.6,9.2,1.5,17.5-0.5,25.7c-1.1,4.7-4.6,7-9,7.8
		c-6.9,1.3-13.9,0.4-20.9,0.2c-1.4,0-1.5-0.7-0.4-1.5c1.2,0,1.9-1,2.8-1.5C292.8,250,293.3,249.6,292.1,249z"/>
	<path id="XMLID_518_" class="st39" d="M317.8,323.3c-7,5.9-14.8,10.7-22.1,16.3c-3.9,3-8.4,5.2-11.6,9.2c-0.3-2.5-1.3-4.9-0.9-7.5
		c6.1-2.2,11.3-6.2,16.9-9.3c5.4-3,10.7-6.2,16.1-9.4c0.4-0.5,0.9-0.5,1.5-0.3c0.2,0.2,0.3,0.4,0.2,0.6
		C317.9,323.1,317.8,323.3,317.8,323.3z"/>
	<path id="XMLID_517_" class="st40" d="M377.6,294.8c-12.2,7-24.4,14-36.6,21c-0.2-0.3-0.3-0.5-0.5-0.8c3.6-2.6,7.2-5.1,10.7-7.7
		c7.9-5.7,15.8-11.5,23.8-17.2c0.8-0.6,1.5-1.4,2.6-1.3C377.6,290.8,377.6,292.8,377.6,294.8z"/>
	<path id="XMLID_516_" class="st30" d="M373.3,217.5c-0.8,2.8-3.6,3.2-5.6,4.5c-7.8,4.6-15.6,9.1-23.9,12.9
		c3.4-2.4,6.7-5.1,10.2-7.3c5.8-3.7,10.8-8.7,17.2-11.6C372,216.2,372.8,216.6,373.3,217.5z"/>
	<path id="XMLID_515_" class="st12" d="M377.6,228.8c-9.2,5.2-18.3,10.5-28.4,16.2c1.6-2.6,3.6-3.3,5.2-4.5
		c6.7-4.9,13.6-9.6,20.4-14.4c0.8-0.5,1.8-0.8,2.7-1.1C377.6,226.3,377.6,227.5,377.6,228.8z"/>
	<path id="XMLID_514_" class="st19" d="M284.1,319.5c0.6-2.1,2-3.3,4-4.4c5.5-3,10.9-6.4,16.4-9.5c1.1-0.7,2.4-1.1,3.7-1.3
		c-8,5.7-15.6,12-24.2,16.8C284.1,320.5,284.1,320,284.1,319.5z"/>
	<path id="XMLID_513_" class="st30" d="M377.6,268.5c-7.4,3.6-14.2,8-21.3,12.1c-1.3,0.8-2.7,1.5-4.3,1.8
		c8.7-5.7,16.4-12.7,25.6-17.6C377.6,266,377.6,267.2,377.6,268.5z"/>
	<path id="XMLID_512_" class="st15" d="M283.4,330c8.2-4.7,16.3-9.5,24.5-14.2c0.2,0.2,0.3,0.5,0.5,0.7c-8.3,5.7-16.7,11.5-25,17.2
		C283.3,332.5,283.3,331.2,283.4,330z"/>
	<path id="XMLID_511_" class="st30" d="M377.6,279.8c-7.7,4.5-15.3,9-23,13.5c-0.2-0.3-0.3-0.5-0.5-0.8c8-5,15.1-11.3,23.5-15.7
		C377.6,277.8,377.6,278.8,377.6,279.8z"/>
	<path id="XMLID_510_" class="st30" d="M377.6,256.5c-6.1,2.7-11.7,6.5-17.6,9.8c-1.3,0.8-2.7,1.5-4.1,2.2c-0.1-0.3-0.3-0.5-0.4-0.8
		c7.4-5,14.7-10,22.1-14.9C377.6,254,377.6,255.3,377.6,256.5z"/>
	<path id="XMLID_509_" class="st41" d="M285.5,304.5c6.3-2.5,11.6-6.6,17.5-9.7c1.4-0.7,2.7-1.7,4.6-1.6c-3,2.1-6.1,4.3-9.1,6.4
		c-3.5,2.4-6.9,4.9-10.4,7.2c-0.8,0.6-2,2.2-2.7-0.2C285.4,305.9,285.4,305.2,285.5,304.5z"/>
	<path id="XMLID_508_" class="st42" d="M341,214.6c-2.4,1.4-5.1,2.7-7.3,4.4c-2.4,1.9-3.2,0.6-3.8-1.5c-0.7-2.7,0-3.7,3-3.1
		C335.5,214.8,338.3,214.6,341,214.6z"/>
	<path id="XMLID_507_" class="st43" d="M297.5,259.6c-4,3-8,5.9-12,8.9c0-0.6-0.1-1.3-0.1-1.9c-0.7-1.9,0.1-3.3,1.7-4.3
		c1.9-1.2,3.8-2.2,5.9-2.9C294.5,259.5,296,259.5,297.5,259.6z"/>
	<path id="XMLID_506_" class="st44" d="M293,259.4c-0.8,1.8-2.7,2-4.1,2.9c-1.7,1-3.6,1.8-3.5,4.3
		C283.8,257.5,284.5,258.1,293,259.4z"/>
	<path id="XMLID_505_" class="st20" d="M287.7,354.8c4-4.2,9.5-5.9,14.1-9.1c0.2,0.3,0.4,0.6,0.6,0.9c-4.7,3-9.3,6-14,9
		C288.2,355.3,287.9,355.1,287.7,354.8z"/>
	<path id="XMLID_504_" class="st18" d="M320.8,362.9c4.2-3.2,8.9-5.5,13.6-7.9c-2.6,3.1-6.6,4.7-9.1,7.9
		C323.8,362.9,322.3,362.9,320.8,362.9z"/>
	<path id="XMLID_503_" class="st45" d="M305.8,362.2c4.1-3.4,9-5.3,13.7-7.6c-3.4,2.5-6.7,5-10.1,7.6c-0.5,0.6-1,0.5-1.6,0.2
		C307.1,362.3,306.4,362.2,305.8,362.2z"/>
	<path id="XMLID_502_" class="st20" d="M377.6,305.2c-3.7,2-7.4,3.9-11.1,5.9c-0.1-0.2-0.3-0.5-0.4-0.7c3.8-2.5,7.7-5,11.5-7.4
		C377.6,303.8,377.6,304.5,377.6,305.2z"/>
	<path id="XMLID_501_" class="st10" d="M354.2,361.6c2.7-0.3,5.7,0.6,8-1.9c0.7-0.8,1.8,0,2.3,0.6c1,1.2,2.3,1.2,3.7,1.3
		C363.5,362.7,358.9,362.5,354.2,361.6z"/>
	<path id="XMLID_500_" class="st10" d="M371.7,360.7c0.7-2.8,2.1-4.8,5.2-5.2C376.3,358.3,374.4,359.9,371.7,360.7z"/>
	<path id="XMLID_499_" class="st10" d="M377.1,354.9c-0.8-1.7-3.3-3.6,0.6-4.6C377.7,351.8,378.1,353.5,377.1,354.9z"/>
	<path id="XMLID_498_" class="st10" d="M307.8,362.3c0.5-0.1,1.1-0.1,1.6-0.2c1.7,1.1,4-2.5,5.3,0.8
		C312.4,363,310.1,363.3,307.8,362.3z"/>
	<path id="XMLID_497_" class="st46" d="M292.1,249c0.8-0.1,1.6-0.3,2.7-0.5c-0.6,1.4-1.5,2.2-2.6,2.8c-0.4-0.5-1.2-0.1-1.6-0.8
		C291.2,250,291.7,249.5,292.1,249z"/>
	<path id="XMLID_496_" class="st10" d="M289.1,356.3c1.7,0.1,4.2-0.8,3.7,2.5C291.5,358.2,290.1,357.6,289.1,356.3z"/>
	<path id="XMLID_495_" class="st10" d="M329,362.9c2.7-1.3,5.6-0.3,8.4-0.6C334.7,363.2,331.8,363,329,362.9z"/>
	<path id="XMLID_494_" class="st27" d="M377.6,332.3c-1.2,0.7-2.4,1.4-4.3,2.4c1.2-2.4,3.1-2.8,4.3-3.9
		C377.6,331.3,377.6,331.8,377.6,332.3z"/>
	<path id="XMLID_493_" class="st27" d="M377.6,322.5c-1.2,0.7-2.4,1.4-4.3,2.4c1.2-2.4,3.1-2.8,4.3-3.9
		C377.6,321.5,377.6,322,377.6,322.5z"/>
	<path id="XMLID_492_" class="st47" d="M290.7,250.5c0.6,0,1.2,0.1,1.6,0.8c-1,0.1-1.6,2.4-3,0.7C289.7,251.4,290.2,251,290.7,250.5
		z"/>
	<path id="XMLID_491_" class="st10" d="M343.3,362.1c1.7-1.2,3.7-0.4,5.5-0.5C347,362.3,345.1,362.2,343.3,362.1z"/>
	<path id="XMLID_490_" class="st10" d="M368.1,361.7c0.7-1.6,1.6-2.4,3-0.7C370.2,361.7,369.1,361.6,368.1,361.7z"/>
	<path id="XMLID_489_" class="st8" d="M214.1,487.5c-3.8-5.4-7.3-10.9-9.6-17.2c-0.1-0.7,1.2-2.3-1-1.6c-1.7-2.6-2.8-5.6-3.8-8.6
		c-0.1-0.5,0.3-1.2-0.5-1.4c-1.6-2.7-2.4-5.7-2.9-8.8c0.8-1.6,1.4-3.4,3.5-5.1c-1.9,0.8-2.8,2-4.2,1.3c-1.4-3.6-1.1-7.1,0.3-10.6
		c0.8-2,2-3.8,4.6-3.8c0.4,1.2-0.2,2.2-0.7,3.8c2.4-1.7,4.7-2.8,7.1-3.5c4,1.5,5.2,4.7,5.3,8.6c0.1,1.5-1.3,2.1-1.8,3.3
		c0.8,0,1.5-0.7,2.3,0c0.5,6.7,3.8,12.6,5.6,18.9c0,1-0.4,1.8-1,2.5c0.7,0,1.3-0.6,2.1-0.3c3.1,5.7,6.2,11.5,9.2,17.2
		c0,1.3-0.5,2.3-1.6,3.5c1.3-0.6,2.2-1.4,3.3-1.3c3.6,4.5,7.2,9,12.3,11.8c0.1,1.6-1.1,2.7-1.7,4.6c2.3-1.1,4-2.6,6.1-3.2
		c2.9-0.5,5.8-1,8.1-3.3c2-1.9,2.4-0.1,2.7,1.5c1.2,6.8,2.4,13.7,3.6,20.5c0,0.2,0,0.5,0,0.7c0.9,7.1,0.4,7.5-6.9,6.5
		c-0.2-0.5-0.2-1-0.1-1.4c0.6-1.5,1-3.1,1.9-4.6c-4.3,2.1-8,5-12.4,6.5c-4.2,0-8.4,0-12.9,0c1.1-2.6,3.3-4.3,4.9-6.4
		c1.7-2.2,1.8-3.9-0.8-5.5c-2.5-1.6-5-3.2-6.7-5.7c-0.1-2.1,1.8-3.4,2.4-5.3c-1.7,0.8-3.1,2.2-5.1,2.1c-4.2-3.9-7.5-8.5-10.2-13.5
		c0-1,0.4-1.9,1.2-3C215.8,487.2,215,487.6,214.1,487.5z"/>
	<path id="XMLID_488_" class="st48" d="M244.1,524.1c3.9-3.3,8.7-5.2,13.4-8.3c-0.5,3.2-1.8,5.4-2.9,7.8
		C251.1,523.8,247.6,523.9,244.1,524.1z"/>
	<path id="XMLID_487_" class="st49" d="M206.9,432.1c-2.4,2-5.3,3.3-8.9,5.4c1-2.4,1.7-4,2.5-5.6
		C202.7,431.1,204.8,431.2,206.9,432.1z"/>
	<path id="XMLID_486_" class="st50" d="M247,497.7c-1.8,2-4.1,3.4-8.4,4.9c1.5-2.4,2.7-4.3,3.9-6.2
		C244.1,496.8,245.5,497.3,247,497.7z"/>
	<path id="XMLID_485_" class="st51" d="M226,503.4c2.1-1.3,4.3-2.6,6.4-3.9c-0.9,2.7-1.8,5.2-3.7,7.1
		C227.7,505.5,226.9,504.4,226,503.4z"/>
	<path id="XMLID_484_" class="st52" d="M195.6,446.2c1.9-0.8,3.3-2.4,6.1-2.9c-2.1,2.5-3.7,4.6-5.4,6.6
		C196.1,448.7,195.9,447.4,195.6,446.2z"/>
	<path id="XMLID_483_" class="st53" d="M230.2,484.5c-1.3,1.5-3.1,2.3-5.7,3.3c1.6-2.3,2.8-3.9,4-5.6
		C229.1,483,229.7,483.8,230.2,484.5z"/>
	<path id="XMLID_482_" class="st54" d="M212.6,443.9c-1.4,0.2-2.4,1.8-4.5,1.5c1.4-1.9,2.2-3.8,4.1-4.8
		C212.4,441.7,212.5,442.8,212.6,443.9z"/>
	<path id="XMLID_481_" class="st55" d="M214.1,487.5c1.2-1.1,2.4-2,4.8-2.4c-1.3,1.9-2.2,3.3-3.2,4.7
		C215.2,489.1,214.6,488.3,214.1,487.5z"/>
	<path id="XMLID_480_" class="st56" d="M219.3,465c-1.2,0.8-2.3,1.8-4.3,2c1.2-1.6,2.2-2.9,3.2-4.3
		C218.6,463.6,218.9,464.3,219.3,465z"/>
	<path id="XMLID_479_" class="st57" d="M203.5,468.7c0.7-1.1,1.7-1.6,3.2-2.1c0,1.8-1.3,2.7-2.2,3.7
		C204.1,469.8,203.8,469.3,203.5,468.7z"/>
	<path id="XMLID_478_" class="st58" d="M199.2,458.7c0.6-0.5,1.6-0.9,1.8-0.3c0.4,0.9-0.7,1.3-1.4,1.7
		C199.5,459.7,199.4,459.2,199.2,458.7z"/>
	<path id="XMLID_477_" class="st8" d="M458.6,470.9c0.3,3.3-2.2,5.4-3.6,7.9c-1.9,3.3-3.6,6.8-6.8,9.1c-0.4,0.3-1.3,0.3-0.7,1.2
		c-2.7,5.3-7.2,9.3-10.8,13.8c-2.5,3.1-5.4,5.9-7.8,9.1c-4,5.3-3.3,7.9,3,12c-4.6,0-9,0-13.4,0c-0.4-1,0.7-1.4,1-2.5
		c-1.8,1.3-3.6,2-5.5,2.6c-1.7,0-3.5,0.1-5.2,0.1c-6.7-0.2-8.5-2.5-7.6-10c1.6-2.8,4.5-4,6.8-5.8c-2,1-3.9,2.8-6.5,3.1
		c0.3-5.6,2-10.9,2.7-16.4c0.2-1.2,0.5-1.7,1.9-0.9c8.1,4.5,12.3,3.9,19.1-2.7c1.7-1.6,3.1-3.5,5.2-4.7c3-3.2,7.3-4.6,10.9-7
		c4.6-2.9,9.4-5.4,14.1-8.2C456.3,471.1,457.3,470.1,458.6,470.9z"/>
	<path id="XMLID_476_" class="st8" d="M434.6,479.9c4.9-8.9,9.6-17.9,12.8-27.6c1.7-5,3.2-10.2,3.4-15.5c0.1-3.6,1.9-5.2,5.5-5
		c2.4,0.2,4.7,0,7.1,0.2c2.7,0.2,4.6,1.7,4.4,4.6c-0.8,9.8-1.6,19.5-6,28.6c-2.8,3.4-7,4.6-10.5,6.9c-4.2,2.7-8.6,5-12.9,7.4
		C437.1,480.1,436,481.1,434.6,479.9z"/>
	<path id="XMLID_475_" class="st59" d="M434.6,479.9c2.3,0,3.8-1.6,5.6-2.6c7.2-4,14.4-8.1,21.6-12.2c-0.7,2.1-1.4,4.2-3,5.8
		c-8.2,4.7-16.5,9.4-24.7,14.1c-1.2,0.7-2.4,1.2-3.7,1.8C431,484.1,433.2,482.3,434.6,479.9z"/>
	<path id="XMLID_474_" class="st60" d="M401.3,511.5c2.7-2.1,5.6-3.7,8.7-5.1c0.2,0.3,0.4,0.6,0.6,0.8c-3.2,2.3-6.3,4.7-9.5,7
		C401.2,513.3,401.2,512.4,401.3,511.5z"/>
	<path id="XMLID_473_" class="st61" d="M414,524.1c2.1-1.8,4.6-3,7.5-4.6c-0.2,2.6-2,3.3-3,4.5C416.9,524.1,415.5,524.1,414,524.1z"
		/>
	<path id="XMLID_472_" class="st62" d="M447.5,489.1c-0.6-0.1-1.7,1-1.7,0.1c0-1.1,1-2.1,2.5-1.4C448.3,488.5,448,488.9,447.5,489.1
		z"/>
	<path id="XMLID_471_" class="st8" d="M250.3,558.9c4.2,0,8.4,0,12.6,0c-0.4,3.5-3.6,5.1-5.1,8c5.4-2.4,9.9-6.4,15.6-8
		c4.1,0,8.3,0,12.4,0c0.4,2.8-2.2,3.6-3.4,5.3c3.5-1.7,6.7-4.4,10.6-5.3c4.2,0,8.4,0,12.6,0c-0.5,4-4.2,5.9-5.7,9
		c5.8-2.5,10.8-7.1,17.2-9c4.2,0,8.4,0,12.6,0c-0.4,4.2-4.3,6.2-5.8,9.8c4.3-2.1,8.3-4.9,12.6-7.2c1.9-1,3.7-1.9,5.8-2.5
		c4.1,0,8.2,0,12.3,0c0.9,0.8,1.9,0.3,2.8,0c4.1,0,8.2,0,12.3,0c-0.1,3.6-3.6,4.8-4.8,7.5c5-2.1,9.1-6.1,14.6-7.5
		c4.2,0,8.3,0,12.5,0c0.2,1.7-1,2.4-2,3.2c2.4-1,4.6-2.7,7.3-3.3c4.2,0,8.3,0,12.5,0c0.4,0.6,0.1,1-0.3,1.4c0.5,0.1,0.8-0.4,1.2-0.6
		c0.7-0.5,1.6-0.5,2.4-0.8c4.3,0,8.6,0,12.9,0c-0.4,4-4,6-5.8,9.2c5.9-2.9,11.1-7.1,17.4-9.2c4.1,0,8.3,0,12.4,0
		c0.6,2.4-1.6,3.4-2.6,5c-1,1.6-2.2,3-3.3,4.3c3.3-1.4,6-4.5,10.1-4.8c1.6,5,0.8,10.1,0.1,15.1c-0.3,1.6-1.4,1.9-2.7,1.8
		c-3.1-0.1-6.2-0.1-9.3-0.2c-0.5-0.2,0.8-1.7-0.6-1.1c-1.2,0.5-2.4,1-3.7,1.2c-4.1,0-8.3,0-12.4,0c-0.8-1.9,1-2.5,1.7-3.6
		c1.4-1.9,2.7-3.8,4.1-5.4c-5.6,2.7-10.8,6.9-17.1,9c-4.2,0-8.5,0-12.7-0.1c-1.2-0.2-0.4-1-0.2-1.3c2.5-2.9,4.5-6.3,6.5-8.2
		c-5.3,2.7-10.9,7.1-17.6,9.6c-4.2,0-8.3,0-12.5-0.1c-0.1-0.2-0.2-0.5-0.2-0.7c-0.5-0.6-0.9,0-1.3,0c-0.9,0.3-1.7,0.5-2.6,0.7
		c-4.1,0-8.1-0.1-12.2-0.1c0-1.8,1.5-2.6,2.4-3.7c-2.4,1.3-4.6,3.4-7.7,3.7c-4.2,0.2-8.4,0.3-12.5,0c0.4-3.2,3.6-4.7,4.9-7.5
		c-4.9,2.5-9.2,6-14.4,7.7c-9.2,0-18.5-0.1-27.7-0.1c-0.6-2.2,1.5-3.1,2.4-4.6c0.8-1.4,2-2.5,3-4.6c-6.5,2.8-11.5,7.4-17.9,9.2
		c-4.2,0.2-8.4,0.4-12.6-0.1c0.6-4,4.4-5.8,5.7-8.9c-5.6,2.6-10.8,6.9-17.1,9c-4.2,0.2-8.4,0.3-12.6-0.1c0.2-2.4,2.5-3.3,3.7-5.2
		c-3.8,1.5-6.8,4.4-10.8,5.3c-4.2,0-8.4-0.1-12.6-0.1c0.2-3.6,4-4.9,5-8c-5.2,2.3-9.8,6.3-15.5,8c-4.2,0.1-8.4,0.4-12.6-0.2
		c0-0.8,0.3-1.4,0.9-1.9c-1.3,0.3-2.2,1.6-3.7,1.1c-3.3-1.7-3.3-5-3.8-8c-0.6-3.6-0.1-7.2,0.6-10.7c0.6-3.2,3.4-1.1,5.2-1.5
		c0.7,0.2-0.1,3,1.9,1c0.7-0.7,1.8-0.7,2.7-1c4.3,0,8.6,0,12.8,0c0.9,0.8,1.9,0.3,2.8,0c4.1,0,8.1,0,12.2,0c0.2,1.5-1.1,2.2-1.9,3
		c-0.2,0.1-0.3,0.2-0.1,0.3c0.1-0.2,0.2-0.3,0.4-0.5C246.1,560.5,248,559.4,250.3,558.9z"/>
	<path id="XMLID_470_" class="st63" d="M342.2,558.9c-6.7,4-13.5,8-20.2,11.9c-0.2-0.2-0.4-0.3-0.5-0.5c2.7-3.8,5.5-7.7,8.2-11.5
		C333.8,558.9,338,558.9,342.2,558.9z"/>
	<path id="XMLID_469_" class="st64" d="M293.7,580.2c6.4-3.8,12.7-7.5,19.1-11.3c-1,4.6-4.3,7.7-6.6,11.3
		C302,580.2,297.8,580.2,293.7,580.2z"/>
	<path id="XMLID_468_" class="st65" d="M437.5,558.9c-6.5,3.8-12.9,7.6-19.4,11.4c-0.1-0.2-0.3-0.4-0.4-0.6
		c2.7-3.6,5.4-7.2,8.1-10.8C429.8,558.9,433.6,558.9,437.5,558.9z"/>
	<path id="XMLID_467_" class="st66" d="M390.1,580.3c6.1-4.4,12.9-7.6,19.8-11c-2.8,3.6-5.6,7.3-8.4,10.9
		C397.7,580.2,393.9,580.3,390.1,580.3z"/>
	<path id="XMLID_466_" class="st67" d="M269.6,580.2c6.4-3.8,12.7-7.5,19.1-11.3c0.2,0.2,0.4,0.5,0.6,0.7c-2.7,3.5-5.5,7-8.2,10.4
		C277.2,580.2,273.4,580.2,269.6,580.2z"/>
	<path id="XMLID_465_" class="st68" d="M317,558.9c-6.3,3.8-12.7,7.6-19,11.3c-0.2-0.2-0.4-0.4-0.6-0.6c2.7-3.6,5.4-7.1,8.1-10.7
		C309.4,558.9,313.2,558.9,317,558.9z"/>
	<path id="XMLID_464_" class="st66" d="M414.2,580.3c6.2-3.7,12.4-7.4,18.5-11.2c0.2,0.2,0.5,0.5,0.7,0.7c-2.7,3.4-5.3,6.9-8,10.3
		C421.7,580.2,418,580.2,414.2,580.3z"/>
	<path id="XMLID_463_" class="st69" d="M226.9,580.2c5.7-3.4,11.4-6.8,17.1-10.2c0.3,0.3,0.5,0.6,0.8,0.9c-2.5,3.1-5,6.2-7.4,9.2
		C233.9,580.2,230.4,580.2,226.9,580.2z"/>
	<path id="XMLID_462_" class="st70" d="M273.3,558.9c-5.7,3.4-11.4,6.7-17.1,10.1c-0.2-0.3-0.5-0.6-0.7-0.9c2.4-3.1,4.9-6.2,7.3-9.3
		C266.3,558.9,269.8,558.9,273.3,558.9z"/>
	<path id="XMLID_461_" class="st71" d="M379.4,558.9c-5.6,3.3-11.2,6.7-16.7,10c-0.2-0.2-0.4-0.5-0.5-0.7c2.5-3.1,5-6.2,7.5-9.3
		C372.9,558.9,376.2,558.9,379.4,558.9z"/>
	<path id="XMLID_460_" class="st72" d="M333.9,580.3c5.4-3.3,10.7-6.5,16.1-9.8c0.3,0.3,0.6,0.6,0.9,0.9c-2.5,2.9-5,5.8-7.5,8.7
		C340.3,580.2,337.1,580.2,333.9,580.3z"/>
	<path id="XMLID_459_" class="st71" d="M454.2,563.4c-4,2.3-8.1,4.6-12.1,6.9c-0.1-0.2-0.2-0.3-0.3-0.5c2.7-3.6,5.4-7.3,8.2-10.9
		C452.8,559,453.7,561,454.2,563.4z"/>
	<path id="XMLID_458_" class="st73" d="M250,580.3c4.1-2.5,8.2-5,12.3-7.5c-0.6,3.4-3.4,5.1-5.2,7.3
		C254.7,580.2,252.3,580.2,250,580.3z"/>
	<path id="XMLID_457_" class="st74" d="M293,558.9c-4.1,2.9-8.5,5.2-13.3,7c2.1-2.3,4.1-4.6,6.2-7
		C288.2,558.9,290.6,558.9,293,558.9z"/>
	<path id="XMLID_456_" class="st75" d="M356,580.2c3.3-2,6.7-4,10-6c0.2,0.3,0.5,0.6,0.7,0.9c-1.8,1.7-3.6,3.4-5.4,5.1
		C359.6,580.2,357.8,580.2,356,580.2z"/>
	<path id="XMLID_455_" class="st76" d="M397.3,558.9c-2.9,2.2-6,3.9-9.7,4.8c1.5-1.6,2.9-3.2,4.4-4.7
		C393.7,558.9,395.5,558.9,397.3,558.9z"/>
	<path id="XMLID_454_" class="st77" d="M250.3,558.9c-1.8,1.5-3.9,2.6-6.1,3.6c-0.8,0.2-1-0.1-0.8-0.8c0.8-0.9,1.6-1.8,2.4-2.7
		C247.3,558.9,248.8,558.9,250.3,558.9z"/>
	<path id="XMLID_453_" class="st78" d="M218,558.9c-1.7,1.4-3.3,2.8-5.9,3.7c0.5-1.4,0.9-2.5,1.3-3.7
		C215,558.9,216.5,558.9,218,558.9z"/>
	<path id="XMLID_452_" class="st79" d="M437.9,580.2c2.1-1.2,4.1-2.5,6.6-4c-0.4,2.1-1.6,2.8-2.3,3.9
		C440.7,580.5,439.3,580.4,437.9,580.2z"/>
	<path id="XMLID_451_" class="st80" d="M211.5,579.2c1.9-1.1,3.7-2.1,6.1-3.5c-0.5,2.5-2.2,3.2-3.3,4.4
		C213.3,580,212.2,580.1,211.5,579.2z"/>
	<path id="XMLID_450_" class="st81" d="M413,558.9c-1.7,1.4-3.3,2.8-5.8,3.5c0.2-2,2-2.3,2.5-3.5C410.8,558.9,411.9,558.9,413,558.9
		z"/>
	<path id="XMLID_449_" class="st82" d="M377.8,579.7c0,0.2-0.1,0.4-0.2,0.5c-1.4,0.4-2.8,0.4-4.2,0c0.6-0.4,1.3-0.8,1.9-1.1
		C376.2,579.5,377.2,578.8,377.8,579.7z"/>
	<path id="XMLID_448_" class="st83" d="M357.4,558.9c-1,0.3-1.9,2.9-2.8,0C355.5,558.9,356.4,558.9,357.4,558.9z"/>
	<path id="XMLID_447_" class="st84" d="M233.6,558.9c-0.9,0.3-1.9,2.9-2.8,0C231.8,558.9,232.7,558.9,233.6,558.9z"/>
	<path id="XMLID_446_" class="st8" d="M337,393.9c3.6,2.4,2.3,6.1,2.6,9.4c0.8,2-0.1,4.2,0.6,6.2c0,0.3,0,0.5,0,0.8
		c-0.6,1.9-0.1,3.8-0.3,5.7c0,1.3-0.1,2.6,0.1,4c-0.8,1.5-0.3,3.1-0.3,4.6c-0.4,11.9-1.2,23.8-0.9,35.7c-4.9,4.1-10.1,7.5-16.3,9.2
		c0.7-4.4,1.6-8.8,1.5-13.4c0.4-5.2,0.4-10.5,0-15.7c-0.3-8.2-0.6-16.4-0.9-24.6c-0.8-2.3,0.2-4.7-0.6-7c0-3.5-0.1-7-0.1-10.5
		c0.1-5.3,1.2-6.1,6.8-5.4c0.7,2.2-1.3,3.6-1.6,5.6C330.8,397.1,333.4,394.4,337,393.9z"/>
	<path id="XMLID_445_" class="st8" d="M347.3,475.8c4,0.7,4.8,2.5,2.5,5.6c-5.1,6.8-12.1,11.9-17,18.9c-0.8,1.1-1.5,0.6-2.1-0.2
		c-2.9-3.7-5.8-7.3-8.7-11c1.6-2.3-0.6-1.3-1.4-1.6c-3.9-3.4-6.8-7.7-11.1-11.1c4.7-0.1,9.4,0,11.9-4.9c5.2-4.2,10.9-7.6,17.3-9.9
		c1.3,4.3,1,8.9,2.9,13.1c0.3,0.6,0.2,1.2,1,1.4c0.2,0.6-0.2,1.1-0.3,1.7C344.1,477.3,345.7,476.4,347.3,475.8z"/>
	<path id="XMLID_444_" class="st85" d="M337,393.9c-3.5,2.1-6.9,4.2-10.9,6.7c0.4-3.1,1.8-5.4,3-7.7
		C331.8,392.8,334.5,392.5,337,393.9z"/>
	<path id="XMLID_443_" class="st86" d="M338.8,461.7c-5.8,3.3-11.5,6.6-17.3,9.9c0.3-0.7,0.5-1.5,0.8-2.2c5.4-3.1,10.9-6.1,16.3-9.2
		C338.7,460.7,338.8,461.2,338.8,461.7z"/>
	<path id="XMLID_442_" class="st61" d="M347.3,475.8c-1.7,2-4.2,2.9-6.8,4.3c-0.1-2.1,1.6-2.7,2.2-3.9
		C344.3,476.1,345.8,475.9,347.3,475.8z"/>
	<path id="XMLID_441_" class="st8" d="M323.9,440.3c1.1,5.2,1.1,10.5,0,15.7C323.9,450.7,323.9,445.5,323.9,440.3z"/>
	<path id="XMLID_440_" class="st87" d="M320.7,487.6c1.1-0.7,2.3-1.3,3.8-2.3c-0.2,2.1-1.5,2.9-2.5,3.8
		C321.6,488.6,321.2,488.1,320.7,487.6z"/>
	<path id="XMLID_439_" class="st8" d="M322.4,408.8c1.2,2.2,0.5,4.6,0.6,7C321.9,413.5,322.3,411.1,322.4,408.8z"/>
	<path id="XMLID_438_" class="st8" d="M339.5,416.3c0.2-2-0.7-4.1,0.6-6c0,2,0,4,0,6C339.9,416.6,339.7,416.6,339.5,416.3z"/>
	<path id="XMLID_437_" class="st8" d="M340.1,409.5c-1.3-2-0.4-4.1-0.6-6.2C340.6,405.2,340.2,407.4,340.1,409.5z"/>
	<path id="XMLID_436_" class="st8" d="M339.5,416.3c0.2,0,0.4,0,0.6,0c0.1,1.2,0.3,2.5-0.2,3.7C339.1,418.8,339.6,417.5,339.5,416.3
		z"/>
	<path id="XMLID_435_" class="st88" d="M487.7,324.1c0.3,0.5,0.7,0.9,1,1.4c0,2.1-1.5,2.7-3.1,3c-5.2,1.2-10.4,1.1-15.6,1.1
		c-7.7-0.1-15.5-0.4-23.2-0.4c-2.1,0-3.7-0.6-4-2.5c-0.4-2.2,1.8-2.4,3.2-2.7c4.8-1.2,9.7-0.9,14.5-0.9c8.2,0,16.5,0.2,24.7,0.2
		C486.2,323.4,486.9,323.9,487.7,324.1z"/>
	<path id="XMLID_434_" class="st89" d="M443.8,359.8c-0.3-0.2-0.6-0.3-0.9-0.5c1.1-2.4,3.5-1.9,5.4-2.2c8.3-1.5,16.7-0.8,25-0.6
		c4.1,0.1,8.2,0.5,12.3,0.1c1.1-0.1,2.3-0.4,3.5,1.6C473.9,361.8,458.9,361.1,443.8,359.8z"/>
	<path id="XMLID_433_" class="st90" d="M444.3,347.2c-8.6,6-17.1,11.9-25.7,17.8c-0.8-2.7-0.2-4,2-5.2c7.4-4.1,14.6-8.5,21.9-12.7
		C443,346.9,443.4,346.5,444.3,347.2z"/>
	<path id="XMLID_432_" class="st91" d="M477,260.8c5.6-2.6,9.1-8.7,16.5-8.2c-5.3,3.1-10.6,6.1-15.9,9.2
		C477.4,261.4,477.2,261.1,477,260.8z"/>
	<path id="XMLID_431_" class="st33" d="M420.5,312.7c0-0.5,0-1,0.1-1.4c1.5-0.5,2.9-1,4.4-1.5l0,0
		C423.9,311.3,422.4,312.3,420.5,312.7z"/>
	<path id="XMLID_430_" class="st27" d="M425,309.7c0.6-1.4,1.8-1.7,3.7-2.3C427.5,309.2,426.3,309.6,425,309.7
		C425,309.8,425,309.7,425,309.7z"/>
	<path id="XMLID_429_" class="st92" d="M449,277.5c0.3,0.3,0.5,0.5,0.8,0.8c-0.6,0.7-1.3,1.3-2.4,1.2
		C447.3,278.3,448.2,278,449,277.5z"/>
	<path id="XMLID_428_" class="st88" d="M194.1,329.8c-5,0-10,0-14.9,0c-0.9,0-1.7,0.2-2.5-0.4c-1.3-0.9-3.2-1.6-3-3.4
		c0.1-1.9,2.1-1.9,3.5-2.2c6.6-1.4,13.4-1.2,20.1-1.2c5.9,0.1,11.7,0.3,17.6,0.4c0.1,0,0.2,0,0.4,0c2.5,0,4.8,1.2,5,3.6
		c0.1,2.3-2.6,2.3-4.3,2.6C208.6,330.5,201.3,329.9,194.1,329.8z"/>
	<path id="XMLID_427_" class="st88" d="M219.5,357c0.5,2.4-0.8,3.3-2.9,3.8c-4.5,1.1-9.2,1.1-13.8,1.1c-8.4-0.1-16.7-0.4-25.1-0.5
		c-2.1,0-3.2-1-3.6-2.5c-0.5-2,1.2-2.5,2.6-2.9c3.1-0.9,6.4-1.3,9.6-1.2c10,0.2,20,0.5,30,0.6C217.8,355.4,218.6,356.2,219.5,357
		L219.5,357z"/>
	<path id="XMLID_426_" class="st12" d="M206.8,338.5c11.9-8.6,23.6-17.1,35.6-25.8c0.6,3.6,0.6,6.1-2.6,7.9
		c-10.1,5.7-20.1,11.5-30.1,17.3C209,338.3,208.3,339,206.8,338.5z"/>
	<path id="XMLID_425_" class="st13" d="M219.5,357c1.5-3.5,5-4.5,7.7-6.6c4.9-3.7,9.9-7.3,15.1-11c1.2,3.6,0.1,5.6-3.1,7.2
		c-5.5,2.8-10.7,6.2-16.1,9.4C221.9,356.6,220.8,357.1,219.5,357C219.5,357,219.5,357,219.5,357z"/>
	<path id="XMLID_424_" class="st90" d="M217.7,344.4c8.2-5.7,16.4-11.3,24.7-17.1c0.5,1.6,0.7,3-0.5,3.8c-7.9,4.7-15.9,9.4-23.8,14
		C217.9,344.8,217.8,344.6,217.7,344.4z"/>
	<path id="XMLID_423_" class="st90" d="M218.7,296.3c7.8-5.4,15.7-10.7,23.7-16.2c0.5,1.6,0.7,3-0.8,3.9c-7.5,4.5-14.9,9.2-22.9,13
		c-0.2-0.2-0.3-0.3-0.2-0.5C218.6,296.3,218.7,296.3,218.7,296.3z"/>
	<path id="XMLID_422_" class="st93" d="M168.9,344.2c-6.2,4.2-12.3,8.4-18.5,12.7c-0.8-1.5-0.7-2.6,0.3-3.1
		c5.9-3.5,11.9-6.8,17.9-10.2C168.6,343.7,168.7,344,168.9,344.2z"/>
	<path id="XMLID_421_" class="st94" d="M223.7,314.3c2.7-1.8,5.3-3.6,8-5.4c2.9-2,5.7-4,8.5-5.9c0.7-0.5,1.6-1.7,2.4-0.4
		c0.6,1-0.3,1.8-1.3,2.3c-1.9,1.1-3.8,2.3-5.8,3.4c-3.8,2.2-7.6,4.4-11.4,6.7C224,314.7,223.8,314.5,223.7,314.3z"/>
	<path id="XMLID_420_" class="st45" d="M234.1,369.1c2.7-2,5.3-3.9,8.3-6.1C241.8,365.8,240.1,367,234.1,369.1z"/>
	<path id="XMLID_419_" class="st25" d="M242.4,292.5c-2.1,3.1-5.8,3.8-8.7,5.7C236.2,295.7,239.1,293.7,242.4,292.5z"/>
	<path id="XMLID_418_" class="st33" d="M234.2,358.5c2.7-1.9,5.3-3.7,8-5.6C240.9,356.7,237.1,357.1,234.2,358.5z"/>
	<path id="XMLID_417_" class="st95" d="M218.7,296.3c0,0.2,0,0.5,0,0.7c-0.6,1.4-1.8,1.7-3.4,1.6C216.5,297.8,217.6,297,218.7,296.3
		z"/>
	<path id="XMLID_416_" class="st96" d="M239.1,273.3c-0.5,1.1-1.3,1.7-2.6,1.6C236.9,273.6,238.1,273.7,239.1,273.3z"/>
	<path id="XMLID_415_" class="st97" d="M229,269.9c-0.8,1.7-1.9,1.8-3.4,2.5C226.5,270.6,227.7,270.6,229,269.9z"/>
	<path id="XMLID_414_" class="st98" d="M181.1,274.1c1.5-1.4,2.9-2.8,4.4-4.3C186.2,273.3,182.3,272.5,181.1,274.1z"/>
	<path id="XMLID_413_" class="st99" d="M355.2,287.5c-6.1,3-12,3.4-18,3.3c-8.6-0.1-17.2-1.1-25.8-0.5c-1.4,0.1-3.2-0.1-3.4-1.5
		c-0.2-1.8,2-1.7,3.1-1.8c11.4-1.9,22.8-2.3,34.2-1.4C348.5,285.7,351.6,285.4,355.2,287.5z"/>
	<path id="XMLID_412_" class="st88" d="M317.7,322.6c-0.5,0-1,0-1.5,0c-2.7-0.7-5.7-0.3-8.7-2.1c4.3-2.5,8.6-3,13-3.2
		c4.9-0.2,9.9,0,14.8,0c3.1,0.8,6.3-0.1,9.4,0.6c1,0,2,0,3,0c1.4-0.5,2.9-0.3,4.3-0.4c1.7-0.1,3.2,0.4,2.3,2.8l0.1-0.1
		c-1.4,1.9-3.5,1.1-5.3,1.5c-0.7,0.1-1.4,0.1-2.2,0.2c-1.3,0.5-2.7-0.1-4,0.5c-1.2,0.1-2.3,0.1-3.5,0.2c-3.2,1-6.4,0.1-9.5,0.2
		C325.9,322.9,321.8,323.2,317.7,322.6z"/>
	<path id="XMLID_411_" class="st94" d="M311,263.2c-8,5.6-16.1,11.2-24.6,17.1c-0.1-2.2-0.8-3.9,1.4-5.1c7.5-4.2,14.9-8.5,22.4-12.7
		C311,262.2,311.2,262.6,311,263.2z"/>
	<path id="XMLID_410_" class="st100" d="M338.3,225.6c7.3-3.6,12.4-11.1,21-12.3c0.2,0.3,0.4,0.6,0.5,0.9c-7,4.1-14,8.1-21,12.2
		C338.7,226.2,338.5,225.9,338.3,225.6z"/>
	<path id="XMLID_409_" class="st10" d="M317.7,322.6c7.2,0,14.5,0,21.7,0c-0.5,0.8-1.1,1.5-2.1,1.3c-6.5-1.3-13.1-0.3-19.7-0.6
		C317.7,323,317.7,322.8,317.7,322.6z"/>
	<path id="XMLID_408_" class="st10" d="M354.4,320.2c0.4-2-0.9-2.2-2.3-2.3c-1.4-0.1-2.9,0-4.3,0c1-1.1,2.7-0.2,3.8-1.1
		c0.9-0.7,2-1.5,2.9-0.4C355.6,317.5,355.8,319,354.4,320.2z"/>
	<path id="XMLID_407_" class="st10" d="M344.7,317.9c-3.1,0.1-6.3,0.4-9.4-0.6C338.5,317.5,341.7,316.6,344.7,317.9z"/>
	<path id="XMLID_406_" class="st10" d="M349.1,321.7c1.8-0.5,3.5-1,5.3-1.5C353.4,323.1,351.3,322.4,349.1,321.7z"/>
	<path id="XMLID_405_" class="st101" d="M311,263.2c-0.2-0.2-0.5-0.5-0.7-0.7c0.6-0.8,1.3-1.3,2.4-1.2
		C312.7,262.5,311.7,262.8,311,263.2z"/>
	<path id="XMLID_404_" class="st10" d="M343,322.4c1.3-0.6,2.6-0.7,4-0.5C345.8,322.9,344.3,322.4,343,322.4z"/>
	<path id="XMLID_403_" class="st102" d="M314.8,228c1.5-1.3,3.1-2.7,4.9-4.3c0.8,3.9-2.5,3.8-4.2,5.1
		C314.7,229,314.6,228.7,314.8,228z"/>
	<path id="XMLID_402_" class="st103" d="M314.8,228c0.2,0.3,0.5,0.5,0.7,0.8c-0.6,0.7-1.4,1.3-2.4,1.2
		C313.1,228.8,314,228.5,314.8,228z"/>
	<path id="XMLID_401_" class="st104" d="M377.8,579.7c-0.9,0-1.8,0.4-2.4-0.6c0.5-0.3,1-0.7,1.6-0.9c0.6-0.3,1.3-1.3,1.9-0.4
		C379.6,578.7,378.4,579.2,377.8,579.7z"/>
	<path id="XMLID_400_" class="st105" d="M243.4,561.6c0.3,0.3,0.5,0.6,0.8,0.8c-0.6,0.8-1.4,1.2-2.4,1.4
		C241.5,562.5,242.6,562.2,243.4,561.6z"/>
</g>
</svg>
