<?xml version="1.0" encoding="UTF-8"?>
<svg id="Layer_1" data-name="Layer 1" xmlns="http://www.w3.org/2000/svg" viewBox="0 0 35 35">
  <defs>
    <style>
      .cls-1 {
        fill: #f47721;
      }

      .cls-1, .cls-2, .cls-3, .cls-4 {
        stroke-width: 0px;
      }

      .cls-3 {
        fill: #fff;
      }

      .cls-4 {
        fill: #c1dbf0;
      }
    </style>
  </defs>
  <path class="cls-4" d="m21.18,31.9c-.16,0-.29-.13-.29-.29,0-.1.06-.2.15-.25l9.1-5.25c.14-.08.32-.03.4.11.07.13.04.29-.08.38l-.5.37.44-.25c.14-.08.32-.03.4.11.07.13.04.29-.08.38l-.4.31.31-.18c.14-.08.32-.03.4.12.06.11.04.25-.05.34l-1.61,1.61c.16.02.27.17.25.33-.01.09-.07.17-.14.21l-1.58.91c-.14.08-.32.03-.4-.11-.06-.11-.04-.25.05-.35l1.45-1.44-2.39,1.38c-.14.08-.32.03-.4-.11-.07-.13-.04-.29.08-.38l.4-.31-.83.48c-.14.08-.32.03-.4-.11-.07-.13-.04-.29.08-.38l.5-.37-4.69,2.71s-.1.04-.15.04h0Z"/>
  <path class="cls-4" d="m32.9,20.37c-.16,0-.29-.13-.29-.29,0-.1.06-.2.15-.25l1.5-.87c.14-.09.32-.05.4.09.09.14.05.32-.09.4,0,0-.01,0-.02.01l-1.5.87s-.1.04-.15.04h0Z"/>
  <path class="cls-4" d="m26.94,25.79c-.16,0-.29-.13-.29-.29,0-.09.04-.18.11-.23l1.4-1.09c-.16.02-.31-.1-.33-.26-.01-.1.03-.19.1-.26l1.25-1.06-.15.09c-.14.08-.32.03-.4-.11-.07-.13-.04-.29.07-.38l2.57-2.04-1.67.97c-.14.08-.32.03-.4-.11-.07-.12-.04-.28.07-.37l2.42-2.01-1.76,1.02c-.14.08-.32.03-.4-.11-.07-.12-.04-.27.06-.37l2.24-1.96-1.75,1.01c-.14.08-.32.03-.4-.11-.07-.13-.04-.28.07-.37l.28-.22c-.12.04-.25,0-.32-.1-.09-.11-.08-.28.02-.38l1.13-1.2-.84.48c-.14.08-.32.03-.4-.11-.06-.11-.05-.25.04-.34l.63-.68-.4.23c-.14.08-.32.03-.4-.11-.06-.1-.05-.24.03-.33l.79-.97-.65.38c-.12.07-.28.05-.37-.06-.09-.11-.1-.26,0-.37l.74-.94-.68.39c-.14.08-.32.03-.4-.11-.06-.1-.05-.23.02-.33l.67-.87-.68.39c-.14.08-.32.03-.4-.11-.06-.1-.05-.23.02-.32l.63-.83-.69.4c-.14.08-.32.02-.4-.12-.06-.11-.04-.25.04-.34l.16-.17-.13.08c-.14.08-.32.03-.4-.11-.06-.11-.05-.25.04-.35l.83-.87-1,.58c-.14.08-.32.03-.4-.11-.07-.12-.04-.28.07-.37l.35-.29-.43.25c-.14.08-.32.03-.4-.11-.07-.13-.04-.28.07-.37l.39-.31-.5.29c-.14.08-.32.03-.4-.11-.07-.12-.04-.28.06-.37l1.11-.96-1.4.81c-.14.08-.32.03-.4-.11-.07-.12-.04-.28.07-.37l.53-.42-.73.42c-.14.08-.32.03-.4-.11-.07-.11-.05-.26.05-.35l1.66-1.63-2.32,1.34c-.14.08-.32.03-.4-.11-.06-.1-.05-.23.02-.33l.89-1.17-1.62.94c-.14.08-.32.03-.4-.11-.06-.1-.05-.24.02-.33l.47-.59-1.02.59c-.14.08-.32.03-.4-.11-.06-.1-.05-.22.01-.31l.58-.86-1.43.83c-.14.08-.32.03-.4-.11-.06-.11-.05-.25.04-.34l.42-.47-1.12.64c-.14.08-.32.04-.4-.1-.07-.11-.05-.25.03-.35l.56-.67-1.56.9c-.12.07-.27.05-.37-.06-.09-.1-.1-.26-.02-.37l.89-1.19-2.79,1.61c-.14.08-.32.03-.4-.11-.07-.12-.04-.27.06-.37l1.51-1.35-4.45,2.57c-.14.07-.32.02-.4-.12-.07-.13-.03-.3.1-.38l6.93-4c.14-.08.32-.03.4.11.07.12.04.27-.06.36l-1.51,1.35,1.55-.9c.14-.08.32-.03.4.11.06.1.05.23-.02.32l-.89,1.19,1.75-1.01c.14-.08.32-.03.4.11.06.11.05.24-.03.33l-.56.67,1.28-.74c.14-.08.32-.03.4.11.06.11.05.25-.03.34l-.42.47.93-.54c.14-.08.32-.03.4.11.06.1.05.22-.01.31l-.58.86,1.26-.73c.12-.07.28-.04.37.06.09.11.1.26,0,.37l-.47.59,1.56-.9c.14-.08.32-.03.4.11.06.1.05.23-.02.32l-.9,1.17,3.03-1.75c.14-.08.32-.03.4.11.07.11.05.26-.05.35l-1.66,1.63,2.18-1.26c.14-.08.32-.03.4.11.07.13.04.28-.07.37l-.52.41.67-.39c.14-.08.32-.03.4.11.07.12.04.28-.06.37l-1.11.96,1.32-.76c.14-.08.32-.03.4.11.07.13.04.28-.07.37l-.39.31.07-.04c.14-.08.32-.03.4.11.07.12.04.28-.07.37l-.59.48c.08,0,.16.04.22.11.09.11.08.28-.02.38l-.83.87.18-.1c.14-.08.32-.03.4.11.06.11.05.25-.04.35l-.16.17.13-.08c.14-.08.32-.03.4.11.06.1.05.23-.02.32l-.63.83.7-.4c.14-.08.32-.03.4.11.06.1.05.23-.02.33l-.68.87.7-.4c.14-.08.32-.03.4.11.06.1.05.23-.02.33l-.74.94.71-.41c.14-.08.32-.03.4.11.06.1.05.24-.03.33l-.79.97.7-.41c.14-.08.32-.03.4.11.06.11.05.25-.04.34l-.63.68.89-.51c.14-.08.32-.03.4.11.06.11.05.25-.04.35l-1.13,1.2,2.01-1.16c.14-.08.32-.03.4.11.07.13.04.29-.07.38l-.25.19.53-.31c.14-.08.32-.03.4.11.07.12.04.27-.06.36l-2.24,1.96,2.17-1.25c.14-.08.32-.03.4.11.07.12.04.28-.07.37l-2.42,2.01,2.1-1.21c.14-.08.32-.03.4.11.07.13.04.28-.07.37l-2.87,2.28c.16.02.28.16.26.32,0,.07-.04.14-.1.19l-1.25,1.06.59-.34c.14-.08.32-.03.4.11.07.12.04.28-.07.37l-1.27.99.49-.28c.14-.08.32-.03.4.11.08.14.03.32-.11.4l-4.12,2.38s-.1.04-.15.04h0Z"/>
  <path class="cls-4" d="m18.02,34.68c-.16,0-.29-.13-.29-.29,0-.08.03-.16.1-.22l.54-.49-1.62.94c-.14.08-.32.03-.4-.11-.08-.13-.04-.3.09-.39l5.94-3.97-6.8,3.93c-.14.08-.32.03-.4-.11-.07-.13-.04-.29.08-.38l2.46-1.85-2.51,1.45c-.14.08-.32.03-.4-.11-.07-.13-.04-.29.08-.38l.51-.38-.44.25c-.14.08-.32.03-.4-.11-.06-.11-.05-.25.04-.34l1.05-1.16-1.53.88c-.14.08-.32.03-.4-.11-.06-.11-.05-.25.04-.35l.45-.48-1.1.63c-.14.08-.32.03-.4-.11-.07-.11-.05-.26.05-.35l.3-.31-.78.45c-.14.08-.32.03-.4-.11-.07-.12-.05-.26.05-.36l.14-.14-.5.29c-.12.07-.27.05-.36-.06-.09-.1-.1-.25-.02-.37l.57-.81-1.21.7c-.14.08-.32.03-.4-.12-.06-.11-.04-.25.05-.34l.1-.1-.35.2c-.14.08-.32.03-.4-.11-.06-.1-.05-.23.02-.33l.48-.6-3.05,1.76c-.14.08-.32.03-.4-.11-.07-.12-.05-.26.05-.36l1.66-1.62-2.22,1.28c-.14.08-.32.03-.4-.11-.07-.12-.04-.28.06-.37l1.02-.86-1.28.74c-.14.08-.32.03-.4-.11-.07-.12-.04-.28.07-.37l.71-.58-.88.51c-.14.08-.32.03-.4-.11-.07-.13-.04-.28.07-.38l.59-.47-.62.36c-.14.08-.32.03-.4-.11-.07-.13-.04-.29.07-.38l.42-.33c-.11.02-.22-.02-.28-.11-.09-.11-.08-.28.02-.38l1.29-1.35-.23.13c-.14.08-.32.03-.4-.11-.06-.1-.05-.23.02-.32l.65-.89-.76.44c-.14.08-.32.03-.4-.11-.06-.11-.05-.25.04-.35l.26-.27-.22.12c-.14.08-.32.03-.4-.11-.06-.11-.05-.24.03-.33l.57-.69-.57.33c-.12.07-.28.04-.37-.06-.09-.11-.1-.26,0-.37l.7-.88-.68.39c-.14.08-.32.03-.4-.11-.06-.1-.05-.23.02-.33l.79-1-.73.42c-.14.08-.32.03-.4-.11-.06-.11-.05-.24.03-.33l.8-.95-.94.54c-.14.08-.32.03-.4-.11-.07-.12-.05-.26.05-.36l.53-.51-1.07.62c-.14.08-.32.03-.4-.11-.07-.12-.04-.28.07-.37l.59-.49-1.09.63c-.14.08-.32.03-.4-.11-.07-.12-.04-.28.06-.37l1.58-1.34-1.79,1.03c-.14.08-.32.03-.4-.11-.07-.13-.04-.29.08-.38l1.08-.82-.81.47c-.13.09-.32.06-.41-.08-.09-.13-.06-.32.08-.41l2.46-2.03-2.12,1.23c-.14.08-.32.04-.4-.1-.06-.11-.05-.24.03-.34l.55-.66h-.03c-.14.1-.32.06-.4-.08-.09-.14-.05-.32.09-.4,0,0,.01,0,.02-.01l1.44-.83c.14-.08.32-.03.4.11.06.11.05.24-.03.33l-.55.66,3.75-2.17c.14-.08.32-.04.4.1.07.12.04.29-.07.38l-2.46,2.03,1.76-1.01c.14-.08.32-.03.4.11.07.13.04.29-.08.38l-1.07.82.63-.36c.14-.08.32-.03.4.11.07.12.04.28-.06.37l-1.58,1.34,1.19-.68c.14-.08.32-.03.4.11.07.12.04.28-.07.37l-.59.49.27-.16c.14-.09.32-.04.4.1.08.12.05.28-.06.37l-.53.51.26-.15c.14-.08.32-.03.4.11.06.11.05.24-.03.33l-.8.95.61-.35c.14-.08.32-.03.4.11.06.1.05.23-.02.33l-.79,1,.68-.39c.14-.08.32-.03.4.11.06.1.05.23-.02.33l-.7.88.66-.38c.14-.08.32-.03.4.11.06.11.05.24-.03.33l-.57.69.55-.32c.14-.08.32-.03.4.11.06.11.05.25-.04.35l-.26.27.21-.12c.14-.08.32-.03.4.11.06.1.05.23-.02.32l-.65.89.8-.46c.14-.08.32-.03.4.11.06.11.05.25-.04.35l-1.29,1.35,1.58-.91c.14-.08.32-.04.4.1.07.13.04.29-.07.38l-.32.25.42-.24c.14-.08.32-.03.4.11.07.13.04.28-.07.38l-.59.48.76-.44c.14-.08.32-.03.4.11.07.12.04.28-.07.37l-.71.57.93-.54c.14-.08.32-.04.4.1.07.12.05.28-.07.38l-1.02.86,1.36-.79c.14-.08.32-.03.4.11.07.12.05.26-.05.36l-1.66,1.62,2.36-1.36c.14-.08.32-.03.4.11.06.1.05.23-.02.33l-.48.6.96-.56c.14-.08.32-.03.4.12.06.11.04.25-.05.34l-.1.1.42-.24c.14-.08.32-.03.4.11.06.1.05.22-.01.32l-.57.81,1.37-.79c.14-.08.32-.03.4.11.07.12.05.26-.05.36l-.14.14.63-.37c.14-.08.32-.03.4.11.07.11.05.26-.04.35l-.3.31.99-.57c.14-.08.32-.03.4.11.06.11.05.25-.04.35l-.45.48,1.4-.81c.14-.08.32-.03.4.11.06.11.05.25-.04.34l-1.05,1.16,3.01-1.73c.14-.08.32-.03.4.11.07.13.04.29-.08.38l-.51.38,2.49-1.44c.14-.08.32-.03.4.11.07.13.04.29-.08.38l-2.46,1.85,10.31-5.95c.14-.08.32-.03.4.11.07.13.04.3-.09.38l-9.32,6.23c.08.12.07.28-.04.38l-.65.6c.11,0,.21.06.26.15.08.14.03.32-.11.4l-2.04,1.17s-.09.04-.15.04h0Z"/>
  <path class="cls-4" d="m14.96,2.46c-.16,0-.29-.13-.29-.29,0-.07.02-.13.07-.19l.56-.67c-.14-.07-.2-.25-.13-.39.03-.05.07-.09.12-.12l.89-.51c.14-.08.32-.03.4.11.06.11.05.24-.03.33l-.32.39,1.52-.88c.14-.07.32-.02.4.12.07.13.03.3-.1.38l-2.92,1.69s-.1.04-.15.04Z"/>
  <path class="cls-4" d="m3.56,13.7c-.16,0-.29-.13-.29-.29,0-.09.04-.18.11-.23l.76-.6-.1.06c-.14.08-.32.03-.4-.11-.07-.13-.03-.3.09-.39l7.95-5.25-6.84,3.95c-.14.08-.32.02-.4-.12-.07-.13-.03-.3.09-.38l2.45-1.55-1.52.88c-.14.08-.32.04-.4-.1-.08-.14-.04-.32.1-.4h0l2.63-1.67-2.61,1.51c-.14.08-.32.03-.4-.11-.07-.12-.04-.27.06-.36l2.03-1.78-2.13,1.23c-.14.08-.32.03-.4-.11-.07-.12-.04-.27.05-.36l1.53-1.4-1.15.66c-.14.08-.32.03-.4-.11-.07-.12-.04-.28.06-.37l1.48-1.25c-.07-.14-.02-.31.11-.39l1.13-.65c.14-.08.32-.03.4.11.07.12.04.28-.06.37l-.16.13.61-.35c.14-.08.32-.03.4.11.07.12.04.27-.05.36l-1.53,1.4,2.37-1.37c.14-.08.32-.04.4.1.07.12.05.28-.06.37l-2.03,1.78L19.07.31c.14-.08.32-.04.4.1.08.14.04.32-.1.4h0l-2.63,1.67,2.91-1.68c.14-.08.32-.03.4.12.07.13.03.3-.09.39l-2.45,1.55,2.43-1.41c.14-.08.32-.03.4.11.07.13.03.3-.09.38L7.82,10.14c.06.12.02.27-.08.36l-.98.77c.16,0,.29.13.29.3,0,.1-.06.2-.15.25l-3.19,1.84s-.1.04-.15.04h0Z"/>
  <path class="cls-2" d="m17.64,30.01c16.64-.58,16.53-24.58-.06-25.15-16.72.64-16.61,24.52.06,25.15Zm-.76-24.56c16.23-.42,16.85,23.41.7,24.02-15.32-.56-15.93-22.55-.7-24.02Z"/>
  <path class="cls-2" d="m2.21,20.35c.8.45.55.25.96,1.05.39.77.57,1.69.95,2.49.19.41.77,1.08.8,1.53.03.53-.62,1.13-.71,1.67-.26,1.46,1.17,3.26,2.62,3.69,1.02.37,1.92-.56,2.85-.74.48.02,1.31.75,1.82.98.7.32,1.82.43,2.43.84.85.58.79,1.86,1.6,2.53,1.13.83,3.85.57,4.68-.54.25-.34.25-.87.49-1.23.59-.88,1.18-.82,2.29-1.25.67-.26,1.38-.77,2.07-.97,1.23-.53,2.15.71,3.42.38.89-.27,2.55-1.87,2.67-2.79.11-.8-.62-1.39-.7-2.13-.13-1.12,1.08-3.29,1.6-4.39.58-1.24,1.42-.82,2.32-1.72.93-.94.59-2.59.5-3.82-.27-.87-1.06-1.16-1.86-1.43-1.01-.57-.84-.73-1.23-1.9-.36-1.08-1.46-2.49-1.33-3.53.09-.72.79-1.31.7-2.09-.16-1.45-2.31-3.15-3.76-2.95-2.01.68-1.74,1.02-3.67-.2-.77-.34-2.36-.57-2.85-1.09-1.39-1.45-.27-2.4-2.76-2.57-.76-.05-2.01-.2-2.7.3-.64.47-.54,1.44-1,2-.68.84-2.41,1.03-3.48,1.57-1.46.94-1.7.68-3.09.03-1.46-.28-3.61,1.31-3.78,2.82-.08.69.48,1.22.6,1.85.27,1.34-.92,2.8-1.37,4.19-.51,1.6-.88,1.09-2.1,1.92-.43.21-.75.6-.86,1.06-.92,2.54.15,3.45,1.87,4.42h0Zm-.59-4.99c.5-.4,1.47-.32,1.9-.84.16-1.04,2.08-4.12,2.14-4.96,0-.36-.34-.75-.43-1.09-.39-1.48.4-3.9,2.52-3.85,1.82.04,1.22,1.04,2.9.29,1.5-.67,3.58-.87,4.44-2.2.21-.33.22-.83.45-1.14.76-1,3.13-1.3,4.07-.27.4.44.29,1.43.73,1.83.47.3,1,.5,1.55.57,2,.75,2.97,2.48,5.07,1.17,1.46-.31,2.89.61,3.2,2.07.07.32.08.64.03.96-.12.67-1.04,1.43-.36,2.04.16.98,1.14,2.55,1.55,3.57.19.46.15.77.46,1.1.66.7,1.88.25,2.35,1.36.25,2.37-.33,3.59-2.53,4.31-.46.42-.58,1.98-.86,2.65-.37.89-1.25,1.68-1.17,2.62.05.57.69,1.1.71,1.67.1,2.17-2.19,3.05-3.72,2.66-.35-.09-.74-.43-1.12-.44-.83-.03-2.44,1.27-3.29,1.56-2.33.82-1.21.37-2.47,2.09-.85,1.16-1.7,1.05-2.95.74-1.7-.42-.91-.1-1.53-1.14-.18-.31-.22-.86-.48-1.12-.41-.4-2.14-.65-2.72-.89-.16-.07-1.97-1.29-2.51-1.25-1.91,1.12-4.93.35-4.53-2.5.08-.5.57-.95.62-1.45.04-.46-1.23-2.46-1.23-2.48-.23-.57-.5-2.29-.89-2.69-.26-.26-.85-.31-1.15-.49-1.33-.77-2.29-3.07-.75-4.49h0Z"/>
  <g>
    <path class="cls-4" d="m14.64,23.58c-.16,0-.29-.13-.29-.29,0-.07.03-.14.07-.2l1.15-1.29-1.31.76c-.14.08-.32.03-.4-.11-.07-.12-.05-.26.05-.36l.31-.31c-.15.06-.32-.01-.38-.16-.02-.06-.03-.12-.01-.18l.16-.63c-.06-.02-.1-.07-.13-.12-.08-.14-.03-.32.11-.4l.29-.17c.1-.06.23-.05.32.02.09.07.14.19.11.31l-.12.47,1.39-.8c.14-.08.32-.03.4.11.07.12.05.26-.05.36l-.31.3.85-.49c.14-.08.32-.03.4.11.06.11.05.25-.04.34l-1.15,1.29.79-.45c.14-.08.32-.03.4.11.05.09.05.19,0,.28l-.28.53c.16,0,.29.14.28.3,0,.1-.06.19-.15.24l-.68.39c-.14.08-.32.03-.4-.11-.05-.09-.05-.19,0-.28l.24-.46-1.49.86s-.09.04-.14.04h0Z"/>
    <path class="cls-1" d="m13.32,25.32c-.16,0-.29-.13-.29-.29,0-.07.02-.13.06-.18l.35-.44-1.31.76c-.14.08-.32.03-.4-.11-.07-.12-.04-.27.06-.36l.45-.4-.33.19c-.14.08-.32.03-.4-.11-.07-.12-.04-.28.07-.37l.28-.23c-.15.05-.32-.04-.37-.19-.03-.11,0-.22.08-.3l1.18-1.14-.83.48c-.14.08-.32.03-.4-.11-.06-.11-.05-.25.04-.34l.55-.59-.18.11c-.14.08-.32.03-.4-.11-.04-.07-.05-.15-.03-.23l.15-.54c-.05-.03-.1-.07-.12-.12-.08-.14-.03-.32.11-.4l.29-.17c.1-.06.23-.05.33.02.09.07.13.2.1.31l-.1.37,1.23-.71c.14-.08.32-.03.4.11.06.11.05.25-.04.35l-.54.59,1.23-.71c.14-.08.32-.04.4.1.07.12.05.27-.05.36l-1.18,1.15.83-.48c.14-.08.32-.03.4.11.07.12.04.28-.07.37l-.28.23c.15-.05.32.03.37.19.04.11,0,.24-.09.31l-.45.4.11-.06c.14-.08.32-.03.4.11.06.1.05.23-.03.33l-.36.44c.15-.07.32,0,.39.14.06.14.01.3-.12.38l-1.34.77s-.09.04-.15.04h0Z"/>
    <path class="cls-4" d="m24.58,19.67c-.16,0-.29-.13-.29-.29,0-.07.03-.15.08-.2l1-1.08-.85.49c-.14.08-.32.03-.4-.11-.06-.11-.05-.25.04-.34l.83-.9-.66.38c-.14.08-.32.03-.4-.11-.07-.11-.05-.26.04-.35l.33-.34c-.15.06-.32,0-.39-.15-.04-.08-.03-.17,0-.25l.47-.89s-.03-.04-.05-.06c-.08-.14-.03-.32.11-.4l.34-.19c.14-.08.32-.03.4.11.05.09.05.19,0,.28l-.28.53.91-.53c.14-.08.32-.03.4.11.06.11.05.25-.04.35l-.32.33.5-.29c.14-.08.32-.03.4.11.06.11.05.25-.04.34l-.83.9.87-.5c.14-.08.32-.03.4.11.06.11.05.25-.04.35l-1,1.08.62-.36c.14-.08.32-.03.4.11.08.14.03.32-.11.4l-2.3,1.33s-.09.04-.15.04h0Z"/>
    <path class="cls-1" d="m10.86,20.05c-.06,0-.13-.02-.18-.06-.09-.07-.14-.19-.11-.3l.15-.63-1.54.89c-.14.08-.32.03-.4-.11-.07-.12-.05-.27.05-.36l.22-.2-.44.25c-.14.08-.32.03-.4-.11-.07-.12-.05-.26.05-.36l1.01-.99-.88.51c-.14.08-.32.02-.4-.12-.06-.11-.04-.25.05-.34l1.34-1.34-.98.57c-.14.08-.32.03-.4-.11-.05-.09-.05-.2,0-.29l.6-1.05-.03.02c-.14.07-.32.02-.4-.12-.07-.13-.03-.3.1-.38l.97-.56c.14-.08.32-.03.4.11.05.09.05.2,0,.29l-.6,1.05,1.96-1.13c.14-.08.32-.02.4.12.06.11.04.25-.05.34l-1.34,1.35.99-.57c.14-.08.32-.03.4.11.07.12.05.26-.05.36l-1.01.99.67-.38c.14-.08.32-.03.4.11.07.12.05.27-.05.36l-.26.24c.08-.02.17,0,.24.05.09.07.14.19.11.3l-.18.77c.15.06.23.22.17.38-.02.06-.07.12-.13.15l-.31.18s-.09.04-.15.04h0Z"/>
    <path class="cls-1" d="m12.16,21.22c-.16,0-.29-.13-.29-.29,0-.09.04-.18.12-.23l2.47-1.83-3.4,1.96c-.14.08-.32.03-.4-.11-.07-.13-.04-.29.08-.38l3.84-2.86-3.83,2.21c-.14.08-.32.03-.4-.11-.07-.13-.04-.29.08-.38l3.29-2.43-2.97,1.72c-.14.08-.32.03-.4-.11-.07-.13-.04-.29.08-.38l2.04-1.56-1.72.99c-.14.08-.32.03-.4-.11-.07-.11-.05-.26.05-.35l1.66-1.63-1.31.76c-.14.08-.32.03-.4-.11-.05-.09-.05-.21,0-.3l.56-.94c-.14.08-.32.02-.4-.12-.07-.14-.02-.31.11-.39l.97-.56c.12-.07.26-.05.36.05.09.1.11.24.04.36l-.56.94,2.34-1.35c.14-.08.32-.03.4.11.07.11.05.26-.05.35l-1.66,1.63,3.63-2.1c.14-.08.32-.03.4.11.07.13.04.29-.08.38l-2.04,1.56,3.55-2.05c.14-.08.32-.03.4.11.07.13.04.29-.08.38l-3.29,2.43,3.67-2.12c.14-.08.32-.03.4.11.07.13.04.29-.08.37l-3.84,2.86,3.52-2.03c.14-.08.32-.04.4.1.08.13.04.3-.08.38l-2.47,1.83,2.15-1.24c.14-.08.32-.03.4.11.07.12.04.28-.07.37l-1.9,1.57,1.57-.91c.14-.08.32-.03.4.12.06.12.04.26-.05.35l-.92.83.57-.33c.14-.08.32-.03.4.11.07.11.05.26-.05.35l-.23.23c.07,0,.15.01.21.06.09.07.13.2.1.31l-.14.47c.14.08.19.26.12.4-.03.05-.06.09-.11.11l-.29.17c-.14.08-.32.03-.4-.11-.04-.07-.05-.15-.03-.23l.08-.27-1.05.61c-.14.08-.32.03-.4-.11-.06-.11-.05-.26.05-.35l.16-.16-1.08.63c-.14.08-.32.03-.4-.12-.06-.12-.04-.26.05-.35l.92-.83-2.25,1.3c-.14.08-.32.03-.4-.11-.07-.12-.04-.28.07-.37l1.9-1.57-3.55,2.05s-.09.04-.15.04h0Z"/>
    <path class="cls-3" d="m22.59,24.15c-.16,0-.29-.13-.29-.29,0-.03,0-.06.01-.09l.07-.22-.46.27c-.12.07-.27.04-.36-.06-.09-.1-.1-.26-.02-.37l.3-.42-.7.41c-.14.08-.32.03-.4-.11-.07-.11-.05-.26.04-.35l.39-.4-.78.45c-.14.08-.32.04-.4-.1-.07-.12-.05-.27.05-.36l.91-.88-1.46.84c-.14.08-.32.03-.4-.11-.07-.12-.04-.27.05-.36l1.57-1.44-2.28,1.32c-.14.08-.32.04-.4-.1-.08-.13-.04-.29.08-.38l1.08-.83-1.53.89c-.14.08-.32.03-.4-.11-.07-.12-.04-.28.07-.37l2.66-2.19-2.79,1.61c-.14.08-.32.03-.4-.11-.08-.13-.04-.3.08-.39l.73-.52-.41.24c-.13.08-.31.04-.39-.09-.09-.13-.05-.3.07-.4l1.68-1.24-1.36.78c-.14.08-.32.03-.4-.11-.07-.12-.04-.28.07-.37l2.54-1.98-2.21,1.28c-.14.08-.32.03-.4-.11-.07-.12-.04-.28.07-.37l2.7-2.14-2.37,1.37c-.14.08-.32.03-.4-.12-.07-.13-.04-.29.08-.38l.4-.28-.08.05c-.14.08-.32.03-.4-.11-.07-.12-.04-.28.07-.37l2.23-1.77-1.9,1.1c-.14.07-.32.02-.4-.12-.07-.13-.03-.3.1-.38l5.36-3.09c.14-.08.32-.03.4.11.07.12.04.28-.07.37l-2.23,1.77,2.36-1.37c.14-.08.32-.03.4.12.07.13.04.29-.08.38l-.4.28.09-.05c.14-.08.32-.03.4.11.07.12.04.28-.07.37l-2.7,2.14,2.37-1.37c.14-.08.32-.03.4.11.07.12.04.28-.07.37l-2.54,1.99,2.21-1.28c.14-.08.32-.03.4.11.07.13.04.29-.08.38l-1.68,1.24,1.36-.78c.14-.08.32-.04.4.1.08.13.04.3-.09.39l-.73.52.42-.24c.14-.08.32-.04.4.1.07.12.04.29-.07.38l-2.66,2.19,2.33-1.34c.14-.08.32-.03.4.11.07.13.04.29-.07.38l-1.08.83.76-.44c.14-.08.32-.03.4.11.07.12.04.27-.05.36l-1.57,1.44,1.22-.7c.14-.08.32-.04.4.1.07.12.05.27-.05.36l-.91.88.56-.32c.14-.08.32-.03.4.11.07.11.05.26-.04.35l-.39.4.04-.02c.14-.08.32-.03.4.11.06.1.05.22-.02.32l-.31.43c.16-.04.32.05.36.2.02.05.01.11,0,.17l-.13.43s.08.06.11.11c.08.14.03.32-.11.4h0s-.29.17-.29.17c-.05.03-.1.04-.15.04h0Z"/>
    <path class="cls-4" d="m23.23,25.3c-.16,0-.29-.13-.29-.29,0-.06.02-.13.06-.18l.51-.67-.91.52c-.14.08-.32.03-.4-.11-.07-.11-.05-.26.05-.35l.53-.52-.31.18c-.14.08-.32.03-.4-.11-.06-.11-.05-.25.04-.34l1.07-1.19-.7.41c-.14.08-.32.03-.4-.11-.06-.11-.05-.24.03-.34l1.11-1.24-.74.43c-.14.08-.32.03-.4-.11-.06-.11-.05-.25.04-.34l1.08-1.2-.71.41c-.14.08-.32.04-.4-.1-.07-.12-.05-.27.05-.37l.45-.42-.1.06c-.14.08-.32.04-.4-.1-.07-.12-.05-.27.05-.37l.46-.43-.11.06c-.14.08-.32.03-.4-.11-.06-.11-.05-.25.04-.34l.96-1.03-.6.35c-.14.08-.32.03-.4-.11-.07-.12-.05-.26.05-.36l.64-.63-.29.17c-.14.09-.32.04-.4-.1-.08-.12-.05-.28.06-.37l.52-.5-.18.1c-.14.08-.32.03-.4-.11-.06-.11-.05-.24.03-.34l1.14-1.31-.78.45c-.14.08-.32.03-.4-.11-.07-.12-.05-.26.05-.36l.63-.61-.28.16c-.14.08-.32.03-.4-.11-.07-.11-.05-.26.04-.35l.82-.84-.46.26c-.14.08-.32.03-.4-.11-.06-.11-.04-.26.05-.35l.32-.32c-.15.06-.32,0-.38-.16-.04-.1-.03-.21.04-.3l.32-.4c-.16-.04-.25-.2-.21-.36.02-.07.07-.14.14-.18l.97-.56c.14-.08.32-.03.4.11.06.1.05.23-.02.33l-.17.22.6-.34c.14-.08.32-.03.4.11.06.11.04.26-.05.35l-.31.31.3-.18c.14-.08.32-.03.4.11.06.11.05.25-.04.35l-.81.84.49-.28c.14-.08.32-.03.4.11.07.12.05.26-.05.36l-.63.61.28-.16c.14-.08.32-.03.4.11.06.11.05.24-.03.34l-1.14,1.31.78-.45c.14-.09.32-.04.4.1.08.12.05.28-.06.37l-.52.5.18-.1c.14-.08.32-.03.4.11.07.12.05.26-.05.36l-.64.62.29-.17c.14-.08.32-.03.4.11.06.11.05.25-.04.34l-.96,1.03.6-.35c.14-.08.32-.04.4.1.07.12.05.27-.05.37l-.46.43.11-.07c.14-.08.32-.04.4.1.07.12.05.27-.05.37l-.45.42.1-.06c.14-.08.32-.03.4.11.06.11.05.25-.04.34l-1.08,1.2.71-.41c.14-.08.32-.03.4.11.06.11.05.24-.03.34l-1.11,1.25.74-.43c.14-.08.32-.03.4.11.06.11.05.25-.04.34l-1.07,1.19.7-.41c.14-.08.32-.03.4.11.07.11.05.26-.05.35l-.53.52.18-.1c.14-.08.32-.03.4.11.06.1.05.23-.02.32l-.51.67.08-.04c.14-.09.32-.05.4.09.09.14.05.32-.09.4,0,0-.01,0-.02.01l-1.34.78s-.09.04-.15.04h0Z"/>
    <path class="cls-2" d="m10.34,20.05c.09.6.55,1.08,1.15,1.18.13,1.26-.29,2.71.22,3.87.36.42,1,.3,1.48.3,1.53.19,1.87-.4,1.76-1.84,1.93.02,2.62.25,2.43-2.02l4.62,2.57c.34,1.58,2.91,1.61,3-.19v-3.87c2.83-.52,3.01-4.86,0-5.25v-3.77c-.1-1.8-2.81-1.96-3.02-.19l-4.99,2.77h-3.68c-1.11-.02-2.63-.18-2.97,1.21-2-.24-2.65.7-2.44,2.59-.22,1.87.47,2.87,2.45,2.65h0Zm4.08,4.35c-.16.42-.81.29-1.17.29-.32,0-1.05.13-1.23-.24-.09-1.03.05-2.15,0-3.2h2.4v1.84c-.08.09-.08.23,0,.32.05.33.05.66,0,.99Zm2.2-1.52c-.42.35-1.16.06-1.67.14v-1.76h1.73c-.06.5.15,1.15-.06,1.62h0Zm5.34.4l-4.62-2.57v-6.63l4.62-2.57v11.77Zm3.04-3.89v-3.92c2.07.5,2.25,3.53,0,3.92Zm-1.52-9.32c.46.02.82.4.82.87v12.89c.02.48-.34.89-.82.94-.46-.02-.82-.4-.82-.87v-12.89c-.02-.48.34-.89.82-.94h0Zm-7.64,4.15c.3.02.59.02.89,0-.04,2.13.03,4.27,0,6.4-.71,0-1.43,0-2.14,0-2.91,0-4.07.55-3.7-2.98-.09-.79-.1-1.59-.04-2.39.04-.05.06-.12.05-.18.54-1.47,3.7-.85,4.93-.85h0Zm-7.17,4.79c-.12-.51-.15-1.04-.08-1.56-.14-1.3.01-2.32,1.63-2.11-.12,1.44.12,2.8.06,4.17-.57.03-1.34.07-1.62-.5Z"/>
  </g>
</svg>