<?xml version="1.0" encoding="UTF-8"?>
<svg id="Layer_1" data-name="Layer 1" xmlns="http://www.w3.org/2000/svg" viewBox="0 0 35 35">
  <defs>
    <style>
      .cls-1 {
        fill: #f47721;
      }

      .cls-1, .cls-2, .cls-3, .cls-4 {
        stroke-width: 0px;
      }

      .cls-3 {
        fill: #c1dbef;
      }

      .cls-4 {
        fill: #c1dbf0;
      }
    </style>
  </defs>
  <path class="cls-4" d="m11.56,26.09c-.16,0-.3-.13-.3-.3,0-.1.05-.19.14-.25l8.37-5.41-8.82,5.09c-.14.08-.32.03-.4-.12-.07-.13-.03-.3.1-.39l5.35-3.37-5.26,3.03c-.14.08-.32.03-.4-.11-.08-.13-.03-.3.09-.39l7.22-4.7-7.17,4.14c-.14.08-.32.03-.4-.11-.08-.14-.04-.31.09-.39l6.13-4.02-6.07,3.5c-.14.08-.32.03-.4-.11-.08-.13-.04-.31.09-.39l6.21-4.24-6.18,3.57c-.14.08-.32.03-.4-.11-.07-.13-.04-.3.09-.39l4.85-3.36-4.81,2.77c-.14.08-.32.03-.4-.11-.07-.13-.04-.29.08-.38l4.16-3.01-4.12,2.38c-.14.08-.32.03-.4-.11-.08-.13-.04-.31.09-.39l1.16-.79-1.02.59c-.14.08-.32.03-.4-.11-.07-.13-.04-.29.08-.38l1.79-1.31-1.68.97c-.14.08-.32.03-.4-.11-.07-.12-.04-.28.06-.37l1.98-1.72-1.91,1.1c-.14.08-.32.03-.4-.11-.07-.12-.05-.28.06-.37l.8-.71-.65.38c-.14.08-.32.03-.4-.11-.06-.11-.05-.24.03-.34l.43-.49-.26.15c-.14.08-.32.03-.4-.11-.03-.05-.04-.1-.04-.16l.02-.59c-.16-.03-.27-.18-.24-.34.02-.08.07-.16.14-.2l.26-.15c.14-.08.32-.03.4.11.03.05.04.1.04.16l-.02.51,1.35-.78c.14-.08.32-.03.4.11.06.11.05.24-.03.34l-.43.49,1.63-.94c.14-.08.32-.03.4.11.07.12.04.27-.06.37l-.8.71,2.05-1.18c.14-.08.32-.03.4.11.07.12.05.28-.06.37l-1.98,1.72,3.8-2.2c.14-.08.32-.03.4.11.07.13.04.3-.08.38l-1.8,1.31,3.13-1.8c.14-.08.32-.03.4.11.07.13.04.3-.09.39l-1.16.79,2.23-1.29c.14-.08.32-.03.4.11.08.13.04.3-.08.39l-4.16,3.01,6.07-3.5c.14-.08.32-.03.4.12.07.13.03.29-.09.38l-4.85,3.36,6.68-3.85c.14-.08.32-.03.4.11.07.13.04.3-.09.39l-6.21,4.24,8.21-4.74c.14-.08.32-.03.4.12.07.13.03.3-.09.38l-6.13,4.02,7.84-4.53c.14-.08.32-.02.4.12.07.13.03.3-.09.38l-7.22,4.7,8.91-5.15c.14-.08.32-.04.41.1.08.14.04.32-.1.41l-5.35,3.37,5.73-3.31c.14-.09.32-.04.41.1s.04.32-.1.41h0l-8.37,5.42,8.05-4.65c.14-.08.32-.03.4.12.07.13.03.3-.1.39l-4.12,2.6,3.56-2.06c.14-.08.32-.03.4.11.08.14.04.31-.1.39l-4.82,3.12,4.23-2.44c.14-.08.32-.04.41.1.08.13.04.31-.09.4l-5.9,4.06,5.21-3.01c.14-.08.32-.03.4.11.08.13.04.3-.08.39l-4.52,3.25,3.84-2.21c.14-.08.32-.03.4.11.07.13.04.29-.08.38l-2.92,2.18,2.27-1.31c.14-.08.32-.03.4.11.07.13.04.3-.08.38l-.67.49.13-.08c.14-.08.32-.03.4.11.07.13.04.28-.07.38l-.51.4c.15-.06.32.02.38.17.04.09.02.2-.04.28l-.66.9c.16-.03.32.07.35.23.02.12-.03.25-.14.31l-1.11.64c-.14.08-.32.03-.4-.11-.06-.1-.05-.23.02-.32l.64-.86-2.25,1.3c-.14.08-.32.03-.4-.11-.07-.13-.04-.28.07-.38l.49-.39-1.52.88c-.14.08-.32.03-.4-.11-.07-.13-.04-.3.08-.38l.67-.48-1.7.98c-.14.08-.32.03-.4-.11-.07-.13-.04-.29.08-.38l2.92-2.18-4.64,2.68c-.14.08-.32.03-.4-.11-.08-.13-.04-.3.08-.39l4.52-3.25-6.49,3.75c-.14.08-.32.04-.41-.1-.08-.13-.04-.31.09-.4l5.89-4.06-7.9,4.56c-.14.08-.32.03-.4-.11-.08-.14-.04-.31.1-.39l4.83-3.12-6.29,3.63c-.14.08-.32.04-.41-.1-.08-.14-.04-.32.1-.41l4.11-2.6-5.38,3.1s-.09.04-.14.04Z"/>
  <path class="cls-1" d="m.64,5.39c-.16,0-.29-.14-.29-.3,0-.09.04-.18.12-.23l2.02-1.48-1.98,1.14c-.14.08-.32.03-.4-.11-.07-.13-.04-.3.08-.38l.55-.39-.23.13c-.14.08-.32.03-.4-.11-.07-.11-.05-.26.04-.35l1.55-1.58-1.19.69c-.14.08-.32.03-.4-.11-.06-.11-.05-.25.03-.34l.51-.57c-.16-.03-.26-.19-.23-.35.02-.08.07-.16.14-.2L1.77.14c.14-.08.32-.03.4.11.06.11.05.25-.03.34l-.35.39L3.27.13c.14-.08.32-.03.4.11.07.11.05.26-.04.35l-1.55,1.58L5.63.13c.14-.08.32-.03.4.11.07.13.04.3-.08.38l-.55.39,1.54-.89c.14-.08.32-.03.4.11.07.13.04.29-.08.38l-2.02,1.48L8.66.13c.14-.08.32-.03.4.11.07.13.04.29-.08.38l-2.14,1.58L10.43.13c.14-.08.32-.03.4.11.07.13.04.29-.08.38l-2.23,1.66L12.25.13c.14-.08.32-.03.4.11.08.13.04.3-.08.39l-2.08,1.53L14,.13c.14-.08.32-.03.4.11.07.13.04.29-.08.38l-1.48,1.05L15.52.13c.14-.08.32-.03.4.12.07.13.04.29-.08.38l-1.38.98,2.55-1.47c.14-.08.32-.03.4.11.07.13.04.3-.09.38l-.92.64,1.97-1.13c.14-.08.32-.03.4.12.07.13.03.29-.09.38l-.84.58,1.87-1.08c.13-.08.3-.04.39.09.09.13.06.3-.06.4l-2.8,2.22L21.95.13c.14-.08.32-.03.4.12.07.13.03.3-.09.38l-.11.08,1-.58c.14-.08.32-.03.4.11.08.13.04.29-.08.38l-2.46,1.87L25.11.13c.14-.08.32-.03.4.11.07.13.04.29-.08.38l-2.35,1.77L26.99.13c.14-.08.32-.03.4.11.08.13.04.3-.08.39l-2.07,1.52L28.74.13c.14-.08.32-.03.4.11.07.13.04.29-.07.38l-2.63,2.04L30.82.13c.14-.08.32-.03.4.11.07.13.04.29-.07.38l-2.72,2.13L32.95.14c.14-.08.32-.03.4.11.08.13.04.3-.09.39l-.12.08.53-.31c.14-.08.32-.03.4.11.08.13.04.3-.09.39l-.9.64,1.1-.63c.14-.08.31-.04.39.09.09.13.06.31-.07.4l-1.32.99,1.28-.74c.14-.08.32-.03.4.11.08.13.04.3-.08.39l-.23.17c.16-.04.32.06.36.21.03.1,0,.21-.08.28l-.88.88.52-.3c.14-.08.32-.03.4.11.05.08.05.17.02.26l-.27.68c.11,0,.2.06.26.15.08.14.03.32-.11.4l-.57.33c-.14.08-.32.03-.4-.11-.05-.08-.05-.17-.02-.26l.25-.63-1.72.99c-.14.08-.32.02-.4-.12-.06-.11-.04-.25.05-.35l.87-.88-2.33,1.35c-.14.08-.32.03-.4-.11-.08-.13-.04-.3.08-.39l.16-.12-1.06.61c-.14.08-.32.03-.4-.11-.07-.13-.04-.29.08-.38l1.32-.99-2.58,1.48c-.14.08-.32.03-.4-.11-.08-.13-.04-.3.09-.39l.91-.64-1.98,1.14c-.14.08-.31.04-.4-.1-.08-.13-.05-.31.08-.4l.11-.08-1,.58c-.14.08-.32.03-.4-.11-.07-.13-.04-.29.07-.38l2.72-2.13-4.54,2.62c-.14.08-.32.03-.4-.11-.07-.13-.04-.29.07-.38l2.63-2.04-4.38,2.53c-.14.08-.32.03-.4-.11-.08-.13-.04-.3.08-.39l2.07-1.52-3.49,2.01c-.14.08-.32.03-.4-.11-.07-.13-.04-.29.08-.38l2.35-1.77-3.92,2.26c-.14.08-.32.03-.4-.11-.08-.13-.04-.29.08-.38l2.46-1.87-4.09,2.36c-.14.08-.32.03-.4-.11-.08-.13-.04-.3.09-.39l.11-.08-1,.58c-.14.08-.32.03-.4-.12-.07-.12-.04-.28.07-.37l2.8-2.22-4.7,2.71c-.14.08-.32.03-.4-.11-.08-.13-.04-.3.09-.39l.84-.58-1.87,1.08c-.14.08-.32.03-.4-.11-.08-.13-.04-.3.09-.39l.92-.64-1.97,1.14c-.14.08-.32.03-.4-.11-.07-.13-.04-.3.08-.38l1.38-.98-2.55,1.47c-.14.08-.32.03-.4-.11-.08-.13-.04-.3.09-.39l1.48-1.05-2.68,1.55c-.14.08-.32.03-.4-.11-.08-.13-.04-.3.08-.39l2.08-1.53-3.51,2.02c-.14.08-.32.02-.4-.13-.06-.12-.03-.28.07-.36l2.23-1.66-3.73,2.15c-.14.08-.32.02-.4-.13-.06-.12-.03-.28.08-.37l2.14-1.58L.79,5.35s-.1.04-.15.04Z"/>
  <path class="cls-3" d="m13.35,34.93c-.16,0-.3-.13-.3-.3,0-.08.03-.15.08-.21l.29-.3-1.05.6c-.14.08-.32.03-.4-.11-.07-.12-.05-.27.05-.36l.94-.89-1.35.78c-.14.08-.32.03-.4-.11-.07-.13-.04-.29.07-.38l.28-.23-.27.16c-.14.08-.32.04-.41-.1-.07-.12-.05-.28.06-.37l.91-.85-.68.4c-.14.08-.32.03-.4-.11-.07-.11-.05-.26.04-.35l.56-.58c-.07-.02-.13-.07-.17-.14-.08-.14-.03-.32.11-.4l1.32-.76c.14-.08.32-.03.4.11.06.11.05.25-.04.35l-.33.34,1.11-.64c.14-.08.32-.04.41.1.07.12.05.28-.06.37l-.91.85,1.3-.75c.14-.08.32-.03.4.11.07.13.04.29-.07.38l-.28.23.27-.16c.14-.09.32-.05.41.09.08.12.05.28-.06.38l-.94.89.71-.41c.14-.08.32-.03.4.11.07.11.05.26-.04.36l-.54.56c.07.02.12.07.16.13.08.14.03.32-.11.4l-1.32.76s-.1.04-.15.04Z"/>
  <path class="cls-3" d="m23.98,34.92c-.16,0-.3-.13-.3-.3,0-.08.03-.16.09-.21l.7-.69-1.29.75c-.14.08-.32.03-.4-.11-.06-.11-.05-.25.04-.35l1.42-1.51-1.74,1.01c-.14.08-.32.03-.4-.11-.07-.12-.04-.28.06-.37l.39-.33-.16.09c-.14.08-.32.03-.4-.11-.06-.11-.05-.25.04-.35l.63-.71c-.16-.01-.28-.16-.27-.32,0-.1.06-.18.15-.23l1.32-.76c.14-.08.32-.03.4.11.06.11.05.25-.04.34l-.52.58,1.41-.81c.14-.08.32-.03.4.11.07.12.04.28-.06.37l-.39.33.63-.36c.14-.08.32-.03.4.11.07.11.05.26-.04.35l-1.42,1.51,1.56-.9c.14-.08.32-.03.4.11.07.12.05.26-.05.36l-.7.69.22-.13c.14-.09.32-.05.41.09.09.14.05.32-.09.41,0,0-.01,0-.02.01l-2.22,1.28s-.1.04-.15.04Z"/>
  <path class="cls-1" d="m13.37,26.09c-.16,0-.3-.13-.3-.3,0-.07.03-.14.08-.2l1.06-1.17-.7.4c-.14.08-.32.03-.4-.11-.07-.12-.05-.28.06-.37l.25-.22c-.16.03-.32-.08-.35-.24-.02-.1.02-.2.09-.27l.37-.34h-.02c-.14.09-.32.05-.4-.09-.07-.12-.05-.27.06-.37l.39-.36-.04.02c-.14.08-.32.03-.4-.11-.05-.08-.05-.18-.02-.26l.39-.93c-.13.04-.27-.02-.34-.14-.08-.14-.03-.32.11-.4l.69-.4c.14-.08.32-.03.4.11.05.08.05.18.02.26l-.38.92,1.54-.89c.14-.08.32-.04.4.1.07.12.05.27-.06.37l-.39.36.07-.04c.14-.08.32-.03.4.11.07.12.04.27-.06.36l-.37.34h.02c.14-.09.32-.05.4.1.07.12.05.28-.06.37l-.25.22c.16-.03.32.07.35.23.02.09,0,.19-.07.25l-1.06,1.17.7-.41c.14-.08.32-.03.4.11.04.06.05.14.03.21l-.19.82c.15.05.24.22.18.38-.02.07-.07.12-.13.16l-.31.18c-.14.08-.32.03-.4-.11-.04-.06-.05-.14-.03-.21l.16-.68-1.75,1.01s-.1.04-.15.04Z"/>
  <path class="cls-1" d="m19.47,26.08c-.16,0-.3-.13-.3-.3,0-.06.02-.11.05-.16l.31-.48-1.28.74c-.14.08-.32.03-.4-.11-.06-.11-.05-.24.03-.34l1.19-1.37-.82.47c-.14.08-.32.02-.4-.12-.06-.12-.04-.26.06-.35l.29-.26c-.16.05-.32-.03-.37-.19-.03-.1,0-.21.06-.29l1-1.07-.63.36c-.14.08-.32.03-.4-.11-.06-.11-.05-.25.04-.35l.93-.98-.57.33c-.14.08-.32.03-.4-.12-.06-.12-.04-.26.06-.36l.28-.26c-.16.05-.32-.04-.37-.2-.02-.06-.02-.13,0-.2l.4-.98c-.15.05-.32-.03-.37-.19-.04-.13.01-.28.13-.35l.69-.4c.14-.08.32-.03.4.11.05.08.05.18.02.26l-.39.97,1.57-.9c.14-.08.32-.03.4.12.06.12.04.26-.06.36l-.27.25c.15-.05.32.03.37.19.03.1,0,.22-.07.3l-.93.98.57-.33c.14-.08.32-.03.4.11.06.11.05.25-.04.35l-1,1.07.63-.37c.14-.08.32-.02.4.12.06.12.04.26-.06.35l-.29.26c.12-.04.24,0,.32.09.09.11.09.27,0,.38l-1.19,1.37.82-.47c.14-.08.32-.03.4.11.05.09.05.21,0,.3l-.32.5c.16-.04.32.05.36.21.03.13-.02.26-.14.33l-.98.56s-.1.04-.15.04Z"/>
  <path class="cls-1" d="m22.95,26.09c-.16,0-.3-.13-.3-.3,0-.07.03-.14.07-.19l1.03-1.17-.78.45c-.14.08-.32.03-.4-.11-.06-.11-.05-.26.04-.35l.91-.95-.55.32c-.14.08-.32.03-.4-.11-.07-.12-.05-.28.06-.37l.2-.17c-.09,0-.18-.04-.24-.12-.09-.12-.08-.28.03-.39l.73-.73-.37.22c-.14.08-.32.03-.4-.11-.07-.12-.04-.27.06-.37l.22-.19c-.1,0-.19-.03-.25-.11-.09-.11-.09-.28.01-.38l1.05-1.14-.68.39c-.14.08-.32.03-.4-.11-.07-.11-.05-.26.05-.35l.78-.79-.42.24c-.14.08-.32.03-.4-.11-.06-.11-.04-.26.05-.35l.72-.72-.36.21c-.14.08-.32.03-.4-.11-.07-.12-.05-.27.05-.36l.36-.34h0c-.14.09-.32.04-.4-.1-.05-.09-.05-.19,0-.28l.29-.56c-.16,0-.29-.14-.29-.3,0-.1.06-.2.15-.25l.69-.4c.11-.07.26-.05.35.04.1.09.12.23.06.35l-.26.5,1.27-.73c.14-.09.32-.04.41.1.07.12.05.28-.05.37l-.36.34.19-.11c.14-.08.32-.03.4.11.06.11.04.26-.05.35l-.73.72.37-.21c.14-.08.32-.03.4.11.07.11.05.26-.05.35l-.78.79.42-.24c.14-.08.32-.03.4.11.06.11.05.25-.04.34l-1.05,1.14.68-.39c.14-.08.32-.03.4.11.07.12.04.27-.06.37l-.22.19c.1,0,.2.04.26.12.09.12.08.28-.03.39l-.73.73.37-.22c.14-.08.32-.03.4.11.07.12.05.28-.06.37l-.2.17c.09,0,.18.03.24.11.09.12.08.28-.02.39l-.91.95.55-.32c.14-.08.32-.03.4.11.06.11.05.25-.03.34l-1.03,1.17.66-.38c.14-.08.32-.03.4.11.06.1.05.22,0,.31l-.22.33c.16.02.28.16.27.32,0,.09-.06.18-.15.23l-.84.49c-.14.08-.32.03-.4-.11-.06-.1-.05-.22,0-.31l.15-.23-1.14.66s-.09.04-.14.04Z"/>
  <path class="cls-2" d="m34.39.66c-.85-.88-2.46-.61-3.56-.61H4.81C.82-.14-.23.96.04,4.95c-.03.06-.03.14,0,.2C.02,10.86.04,16.56.04,22.27v8.9c0,1.7-.18,3.39,1.93,3.81,9.85.03,19.71,0,29.57.01,3.34,0,3.41-1.99,3.41-4.8V5.25c.03-.07.03-.14,0-.21-.09-1.35.43-3.26-.56-4.39ZM.64,2.15C1.24.24,3.05.69,4.49.69h23.5c3.84-.21,6.9-.91,6.36,4.14H.58c-.13-.89-.11-1.8.06-2.68Zm11.66,28.83c.49.03.98.04,1.47.04.6.33.99.96,1.01,1.64-.05.95-.87,1.69-1.82,1.63-.93-.05-1.66-.83-1.64-1.77,0-.66.38-1.27.97-1.55Zm3.15,1.59c0-.58-.22-1.14-.62-1.56,2.67-.11,5.23-.15,7.87-.13-1.06.77-1.1,2.74-.09,3.47h-8.03c.52-.45.83-1.09.87-1.77h0Zm10.55.05c0,.79-.52,1.49-1.28,1.73h-.8c-1.69-.37-1.83-3.02-.13-3.47h.89c.76.25,1.29.94,1.31,1.74h0Zm5.54,1.73h-5.77c.99-.76,1.18-2.18.42-3.17-.08-.11-.17-.21-.27-.3h1.06c.38,0,.26-.69-.08-.69-4.96,0-10.1.41-15.04,0-2.11-.17-4.94-2.85-1.17-3.98,4.04-.23,8.14.05,12.21-.06,1.52,0,3.93.57,4.8-1.01,1.04-1.89,1.18-4.91,1.68-7.01.28-1.18,1.47-3.78.17-4.78-.96-.74-3.18-.32-4.25-.32h-4.84l5.23-3.41c-.07.56-.14,1.11-.21,1.67-.05.41.63.34.67,0,.35-3.14.95-2.49-2.22-2.92-.33-.04-.75.49-.31.54l1.78.23-5.97,3.89h-11.24c-.51-3.55-1.16-4.48-4.85-4.08-.37,0-.56.57-.1.57,1.77,0,3.05-.17,3.71,1.62,1.35,4.74,2.31,9.62,3.6,14.39-3.5.77-2.49,5.4.88,5.38-.95.86-1.03,2.33-.17,3.28.05.05.09.1.14.15H2.23c-2.14-.46-1.59-3.07-1.59-4.51-.03-8.16.05-16.31-.03-24.46h33.72v22.13c0,2.73,1,6.85-2.78,6.85h0ZM12.38,18.31l7.03-4.58h4.04c1.21,0,5.72-.82,6.16.97.17.68-.51,2.15-.67,2.82-.38,1.61-.76,3.22-1.15,4.83-.24,1.3-.48,3.34-2.26,3.21v-5.8c0-1.24.64-3.96-1-4.28-2.57-.35-2.19,1.41-2.07,3.26v6.71h-1.75v-4.06c0-.93.37-2.58-.69-2.99-.63-.1-1.66-.24-2.07.39-.41,2.14-.01,4.47-.14,6.66h-1.83v-2.96c0-.81.27-2.24-.85-2.37-.53,0-1.3-.16-1.74.23-.38.34-.33.87-.33,1.33v3.74c-.61-.04-1.22-.04-1.83,0-.97-3.9-1.96-7.8-2.92-11.7h10.04l-6.42,4.19c-.39.25.12.6.43.4Zm10.78-1.11c.08-1.02.3-1.18,1.33-1.19.63.33.33,1.82.33,2.38-.09,2.35.16,4.77,0,7.11-.62-.01-1.1-.08-1.67-.06.04-2.75-.07-5.51,0-8.25Zm-4.82,6.11c.03-1.35-.04-2.73,0-4.06.24-.34,1.11-.2,1.46-.2.78.21.37,2.96.37,3.55v2.84c-.56.04-1.19-.07-1.74,0h-.15c-.03-.71,0-1.43.06-2.14Zm-4.73-2.23c.21-.43.99-.28,1.42-.26.74.16.4,2.1.4,2.64v1.99c-.61,0-1.21,0-1.82,0,.07-1.43-.11-2.96,0-4.36Z"/>
  <path class="cls-2" d="m5.64,3c.3-.05.85.15.97-.23.02-.17-.18-.3-.33-.3-.3.05-.85-.15-.97.23-.02.17.18.3.33.3Z"/>
  <path class="cls-2" d="m8.68,3c.28-.04.88.15.89-.29-.14-.39-.67-.21-.99-.25-.48.04-.3.58.11.54Z"/>
  <path class="cls-2" d="m28.82,3.01h3.55c.46,0,.17-.55-.19-.55h-3.55c-.46,0-.17.55.19.55Z"/>
  <path class="cls-2" d="m2.66,3.08h.59c.34,0,.48-.69.1-.69h-.59c-.34,0-.48.69-.1.69Z"/>
</svg>