<?xml version="1.0" encoding="UTF-8"?>
<svg id="Layer_1" data-name="Layer 1" xmlns="http://www.w3.org/2000/svg" viewBox="0 0 35 35">
  <defs>
    <style>
      .cls-1 {
        fill: #f47721;
      }

      .cls-1, .cls-2, .cls-3, .cls-4, .cls-5 {
        stroke-width: 0px;
      }

      .cls-3 {
        fill: #fff;
      }

      .cls-4 {
        fill: #c1dbf0;
      }

      .cls-5 {
        fill: #fdcca7;
      }
    </style>
  </defs>
  <path class="cls-4" d="m9.56,22.53c-.16,0-.29-.13-.29-.29,0-.1.05-.19.13-.24l2.88-1.9-3.43,1.98c-.14.08-.32.03-.4-.11-.07-.13-.04-.3.09-.38l3.44-2.31-3.22,1.86c-.14.08-.32.03-.4-.11-.08-.13-.04-.3.08-.38l4.11-3-3.74,2.16c-.14.08-.32.04-.4-.1-.08-.13-.04-.31.09-.39l.69-.47c-.16.04-.31-.06-.35-.22-.03-.11.01-.22.1-.29l1.8-1.5c-.16-.01-.28-.15-.27-.31,0-.1.06-.19.15-.23l2.54-1.47c.14-.08.32-.03.4.1.07.12.04.28-.07.37l-1.58,1.32,3.81-2.2c.14-.08.32-.03.4.11.07.13.04.3-.09.38l-.56.38,1.51-.87c.14-.08.32-.03.4.11.08.13.04.3-.08.38l-4.11,3,6.04-3.49c.14-.08.32-.03.4.11.07.13.04.3-.09.38l-3.44,2.3,4.57-2.64c.14-.08.32-.03.4.11.07.13.03.3-.09.38l-2.89,1.9,3.63-2.09c.14-.08.32-.04.4.09.08.14.04.32-.09.4h0l-2.83,1.87,3.41-1.97c.14-.08.32-.03.4.11.07.13.04.29-.08.38l-4.11,2.88,4.78-2.76c.14-.08.32-.04.4.1s.04.32-.1.4l-.1.07.29-.16c.14-.08.32-.03.4.11.08.13.04.3-.09.38l-2.09,1.43,2.36-1.36c.14-.08.32-.03.4.11.07.13.04.29-.08.38l-2.71,1.99,3-1.73c.14-.08.32-.03.4.11.08.13.04.3-.09.39l-.6.42.64-.37c.14-.08.32-.03.4.11.07.12.04.28-.07.37l-1.87,1.52,1.98-1.14c.14-.08.32-.04.4.1.07.12.05.28-.05.37l-1.31,1.23,1.18-.68c.14-.08.32-.03.4.11.07.11.05.26-.05.35l-.36.36c.15-.05.32.04.37.19.02.06.02.12,0,.18l-.2.57c.14.08.18.26.1.4-.03.04-.06.08-.1.1l-.31.18c-.14.08-.32.03-.4-.11-.04-.07-.05-.16-.02-.24l.12-.35-1.22.7c-.14.08-.32.03-.4-.11-.07-.11-.05-.26.05-.35l.34-.34-1.39.8c-.14.08-.32.04-.4-.1-.07-.12-.05-.27.05-.37l1.32-1.24-2.95,1.7c-.14.08-.32.03-.4-.11-.07-.12-.04-.28.07-.37l1.87-1.52-3.47,2.01c-.14.08-.32.03-.4-.11-.07-.13-.04-.29.08-.38l.6-.42-1.58.91c-.14.08-.32.03-.4-.11-.07-.13-.04-.29.08-.38l2.71-1.99-4.3,2.48c-.14.08-.32.03-.4-.11-.08-.13-.04-.3.09-.38l2.09-1.44-3.34,1.93c-.14.08-.32.03-.4-.11-.07-.13-.03-.3.09-.39l.1-.07-.98.57c-.14.08-.32.03-.4-.1-.08-.13-.04-.3.09-.39l4.11-2.88-5.85,3.38c-.14.08-.32.04-.4-.09s-.04-.32.09-.4l2.83-1.87-4.11,2.37s-.1.04-.15.04h0Z"/>
  <path class="cls-1" d="m17.01,16.6c-.16,0-.29-.13-.29-.29,0-.07.02-.13.07-.19l1.05-1.25-1.65.95c-.14.08-.32.03-.4-.11-.06-.11-.05-.25.04-.35l.24-.24-.13.07c-.14.08-.32.03-.4-.11-.04-.06-.05-.14-.03-.21l.15-.63c-.06-.02-.11-.07-.14-.13-.08-.14-.03-.32.11-.4l.29-.17c.14-.08.32-.03.4.11.04.06.05.14.03.21l-.11.48,1.41-.81c.14-.08.32-.03.4.1.07.11.05.26-.04.35l-.24.24,1.22-.71c.14-.08.32-.03.4.11.06.11.05.24-.03.33l-1.04,1.25.74-.42c.14-.08.32-.03.4.11.08.14.03.32-.11.4l-2.17,1.25s-.09.04-.15.04h0Z"/>
  <g>
    <path class="cls-5" d="m16.74,14.29c-.16,0-.29-.13-.29-.29,0-.09.04-.18.12-.23l1.15-.85-1.9,1.09c-.14.08-.32.04-.4-.1-.08-.13-.04-.31.08-.39l2.73-1.95-3.37,1.94c-.14.08-.32.04-.4-.09s-.04-.32.09-.4l.24-.16-.43.25c-.14.08-.32.03-.4-.11-.07-.13-.04-.29.08-.38l3.18-2.27-3.47,2c-.14.08-.32.03-.4-.11-.07-.13-.04-.29.08-.38l4.07-3.02-4.24,2.45c-.14.08-.32.04-.4-.1-.08-.13-.04-.3.08-.39l3.42-2.52-3.35,1.94c-.14.08-.32.03-.4-.11-.07-.13-.04-.29.08-.38l2.55-1.92-2.88,1.66c-.14.08-.32.03-.4-.11-.08-.13-.04-.3.09-.38l.6-.42-.73.42c-.14.08-.32.03-.4-.11-.07-.13-.04-.29.08-.38l1.55-1.13-1.28.74c-.14.08-.32.04-.4-.1-.07-.12-.05-.28.05-.37l1.42-1.33s-.04-.04-.05-.07c-.08-.14-.03-.32.11-.4l1.17-.68c.14-.08.32-.04.4.1.07.12.05.28-.05.37l-.75.71,3.82-2.21c.14-.08.32-.03.4.11.08.13.04.3-.08.38l-1.55,1.13,1.98-1.14c.14-.08.32-.03.4.11.08.13.04.3-.09.38l-.6.42,1.05-.61c.14-.08.32-.04.4.1.08.13.04.29-.08.38l-2.54,1.92,3.72-2.15c.14-.08.32-.03.4.11.07.13.04.29-.08.38l-3.41,2.52,4.15-2.4c.14-.08.32-.04.4.1.08.13.04.3-.08.38l-4.07,3.02,4.26-2.46c.14-.08.32-.04.4.1.08.13.04.3-.08.39l-3.18,2.27,3.75-2.16c.14-.08.32-.04.4.09.08.14.04.32-.09.4l-.24.16.06-.04c.14-.08.32-.04.4.1.08.13.04.3-.08.39l-2.73,1.95,1.19-.69c.14-.08.32-.03.4.11.07.13.04.29-.08.38l-1.15.85.59-.34c.14-.08.32-.04.4.1.07.12.05.28-.06.37l-.99.84c.15-.06.32,0,.38.15.06.14,0,.29-.12.37l-2.75,1.59c-.14.08-.32.03-.4-.11-.07-.12-.04-.28.06-.37l.98-.83-2.3,1.33s-.09.04-.15.04h0Z"/>
    <path class="cls-5" d="m20.03,32.17c-.16,0-.29-.13-.29-.29,0-.05.01-.1.04-.15l.55-.94-1.29.75c-.14.09-.32.05-.4-.09-.09-.14-.05-.32.09-.4,0,0,.01,0,.02-.01l2.24-1.29c.14-.08.32-.03.4.11.05.09.05.2,0,.29l-.55.94.09-.05c.14-.09.32-.05.4.09.09.14.05.32-.09.4,0,0-.01,0-.02.01l-1.04.6s-.09.04-.15.04Z"/>
    <path class="cls-5" d="m22.08,30.5c-.16,0-.29-.13-.29-.29,0-.06.02-.12.06-.18l.36-.49-.95.55c-.14.07-.32.02-.39-.12-.07-.13-.03-.3.1-.38l2.16-1.25c.14-.08.32-.03.4.11.06.1.05.23-.02.32l-.41.56c.11,0,.2.06.26.15.08.14.03.32-.11.4l-1.03.59s-.09.04-.14.04Z"/>
    <path class="cls-5" d="m17.08,33.4c-.16,0-.29-.13-.29-.29,0-.09.04-.17.1-.22l1.28-1.07-1.56.9c-.14.08-.32.03-.4-.1-.08-.14-.03-.32.1-.4,0,0,0,0,0,0l4.56-2.63c.14-.08.32-.04.4.1.07.12.04.28-.07.37l-2.02,1.68s.07.06.09.1c.08.14.03.32-.11.4l-1.96,1.13s-.09.04-.14.04h0Z"/>
    <path class="cls-5" d="m14.64,34.57c-.16,0-.29-.13-.29-.29,0-.08.03-.15.08-.2l.34-.35-.48.28c-.14.08-.32.03-.4-.11-.08-.13-.04-.3.09-.39l1.9-1.28-2.06,1.19c-.14.08-.32.03-.4-.11-.07-.13-.04-.3.09-.38l2.62-1.81-2.85,1.65c-.14.08-.32.04-.4-.1-.08-.13-.04-.3.08-.39l3.23-2.29-3.56,2.05c-.14.08-.32.03-.4-.12-.07-.13-.03-.29.09-.38l1.67-1.12-1.88,1.08c-.14.08-.32.03-.4-.11-.08-.13-.04-.3.09-.38l2.35-1.62-2.66,1.53c-.14.08-.32.03-.4-.11-.07-.13-.04-.3.09-.38l.96-.64-1.2.69c-.14.08-.32.03-.4-.11-.07-.13-.03-.29.09-.38l1.4-.94-1.74,1c-.14.08-.32.03-.4-.11-.07-.13-.04-.29.08-.38l4.03-2.97-4.94,2.85c-.14.08-.32.03-.4-.11-.07-.13-.04-.29.08-.38l4.17-3.05-5.39,3.11c-.14.08-.32.04-.4-.09s-.04-.32.09-.4l1.49-.99-1.56.9c-.14.08-.32.03-.4-.11-.08-.13-.04-.3.09-.38l3.43-2.39-3.12,1.8c-.14.08-.32.03-.4-.11-.08-.13-.04-.3.09-.38l2.76-1.93-2.45,1.41c-.14.08-.32.03-.4-.11-.08-.13-.04-.3.09-.38l2.08-1.45-1.76,1.01c-.14.08-.32.03-.4-.11-.07-.13-.04-.29.08-.38l1.09-.77-.78.45c-.14.08-.32.03-.4-.11-.07-.12-.04-.28.07-.37l1.79-1.43-1.46.84c-.14.08-.32.03-.4-.11-.06-.11-.05-.25.04-.35l1.09-1.15-.74.42c-.14.08-.32.03-.4-.11-.04-.08-.05-.17-.02-.25l.18-.47c-.15-.06-.23-.22-.17-.37.02-.06.07-.12.13-.15l.41-.23c.14-.08.32-.03.4.11.04.08.05.17.02.25l-.12.32,1.78-1.03c.14-.08.32-.03.4.11.06.11.05.25-.04.35l-1.09,1.15,3.05-1.76c.14-.08.32-.04.4.1.07.13.04.29-.07.38l-1.79,1.43,3.15-1.82c.14-.08.32-.03.4.11.07.13.04.29-.08.38l-1.1.77,1.95-1.13c.14-.08.32-.03.4.11.08.13.04.3-.09.38l-2.07,1.45,2.44-1.41c.14-.08.32-.03.4.11.08.13.04.3-.09.38l-2.76,1.93,3.17-1.83c.14-.08.32-.03.4.11.08.13.04.3-.09.38l-3.43,2.39,3.89-2.25c.14-.08.32-.03.4.11.07.13.03.3-.09.38l-1.49.99,1.75-1.01c.14-.08.32-.03.4.11.07.13.04.29-.08.38l-4.16,3.05,4.8-2.77c.14-.08.32-.03.4.11.07.13.04.29-.08.38l-4.03,2.97,4.65-2.69c.14-.08.32-.03.4.11.08.13.04.3-.09.39l-1.4.94,1.65-.95c.14-.08.32-.04.4.1.08.13.04.31-.09.39l-.96.64,1.17-.68c.14-.08.32-.03.4.11.08.13.04.3-.09.38l-2.34,1.62,2.66-1.54c.14-.08.32-.03.4.11.08.13.04.3-.09.39l-1.67,1.13,1.9-1.1c.14-.08.32-.03.4.11.08.13.04.3-.08.38l-3.23,2.28,3.6-2.08c.14-.08.32-.03.4.11.07.13.04.3-.09.38l-2.62,1.81,2.89-1.67c.14-.08.32-.03.4.11.08.13.04.3-.09.39l-6.29,4.26c.02.1,0,.2-.07.27l-.34.35.22-.12c.14-.09.32-.05.4.09.09.14.05.32-.09.4,0,0-.01,0-.02.01l-2,1.15s-.1.04-.15.04h0Z"/>
  </g>
  <path class="cls-1" d="m2.84,30.11c-.16,0-.29-.13-.29-.29,0-.09.04-.18.12-.23l1.99-1.49-3.42,1.97c-.14.08-.32.04-.4-.1-.08-.13-.04-.3.09-.39l2.22-1.55-2.43,1.4c-.14.08-.32.03-.4-.11-.07-.13-.04-.29.08-.38l4.26-3.13-3.94,2.28c-.14.08-.32.03-.4-.11-.07-.13-.03-.3.09-.38l.49-.32-.18.1c-.14.08-.32.03-.4-.11-.07-.13-.04-.29.08-.38l3.69-2.63-3.38,1.95c-.14.08-.32.03-.4-.11-.07-.13-.03-.29.09-.38l1.31-.88-1,.58c-.14.08-.32.03-.4-.11-.07-.12-.04-.28.07-.37l3.27-2.51-2.95,1.7c-.14.08-.32.03-.4-.11-.07-.12-.04-.28.07-.37l1.95-1.57-1.62.93c-.14.08-.32.03-.4-.11-.06-.11-.04-.25.05-.35l1.25-1.25-.9.52c-.14.08-.32.03-.4-.11-.05-.08-.05-.18-.02-.26l.37-.85c-.13.03-.26-.03-.32-.14-.08-.14-.03-.32.11-.4l.68-.39c.14-.08.32-.03.4.11.05.08.05.18.02.26l-.36.83,2.07-1.2c.14-.08.32-.03.4.11.06.11.04.25-.05.35l-1.25,1.25,2.95-1.7c.14-.08.32-.03.4.11.07.12.04.28-.07.37l-1.95,1.57,3.56-2.05c.14-.08.32-.03.4.11.07.12.04.28-.07.37l-3.27,2.51,4.54-2.62c.14-.09.32-.04.4.09s.04.32-.09.4l-1.31.88,1.29-.75c.14-.08.32-.03.4.11.07.13.04.29-.08.38l-3.69,2.63,3.27-1.89c.14-.08.32-.03.4.11.07.13.03.3-.09.38l-.48.32.09-.05c.14-.08.32-.03.4.11.07.13.04.29-.08.38l-4.26,3.13,3.77-2.18c.14-.08.32-.03.4.11.08.13.04.3-.09.38l-2.22,1.55,1.79-1.03c.14-.08.32-.03.4.11.07.13.04.29-.08.38l-2,1.49,1.55-.89c.14-.08.32-.03.4.11.07.13.04.29-.08.38l-.6.45.18-.11c.14-.08.32-.03.4.11.06.11.04.25-.05.35l-.96.95.47-.27c.14-.08.32-.03.4.11.06.11.05.24-.03.33l-.32.38c.06.02.11.07.14.12.08.14.03.32-.11.4l-.97.56c-.14.08-.32.03-.4-.11-.06-.11-.05-.24.03-.33l.1-.12-.98.56c-.14.08-.32.03-.4-.11-.06-.11-.04-.25.05-.35l.96-.95-2.44,1.41c-.14.08-.32.03-.4-.11-.07-.13-.04-.29.08-.38l.6-.45-1.62.94s-.09.04-.15.04h0Z"/>
  <path class="cls-3" d="m24.52,28.89c-.16,0-.29-.13-.29-.29,0-.07.02-.13.06-.18l.75-.93-1.73,1c-.14.08-.32.03-.4-.11-.07-.12-.04-.28.07-.37l.18-.14-.25.14c-.14.08-.32.03-.4-.11-.07-.12-.04-.27.06-.36l1.35-1.2-1.67.96c-.14.08-.32.03-.4-.11-.07-.13-.04-.29.08-.38l.19-.14-.31.18c-.14.08-.32.03-.4-.11-.07-.12-.04-.27.06-.36l2.16-1.85-2.66,1.53c-.14.08-.32.03-.4-.11-.07-.13-.04-.29.08-.38l1.67-1.27-2,1.16c-.14.08-.32.03-.4-.11-.07-.13-.04-.29.08-.38l.7-.49-.91.53c-.14.09-.32.05-.4-.09-.09-.14-.05-.32.09-.4l.45-.32-.64.37c-.14.08-.32.03-.4-.11-.07-.11-.05-.26.05-.35l1.58-1.56-2.17,1.25c-.14.08-.32.03-.4-.11-.07-.11-.05-.26.04-.35l.97-.99-1.66.96c-.14.09-.32.05-.4-.09-.09-.14-.05-.32.09-.4,0,0,.01,0,.02-.01l3.48-2.01c.14-.08.32-.03.4.11.07.11.05.26-.04.35l-.97.99,2.33-1.34c.14-.08.32-.03.4.11.07.11.05.26-.05.35l-1.58,1.56,3.69-2.13c.14-.08.32-.03.4.11.07.13.04.29-.08.38l-.44.32,1.37-.79c.14-.08.32-.03.4.11.07.13.04.29-.08.38l-.69.49.58-.33c.14-.08.32-.03.4.11.07.13.04.28-.08.37l-1.67,1.27,1.35-.78c.14-.08.32-.03.4.11.07.12.04.27-.06.36l-2.16,1.85,1.83-1.06c.14-.08.32-.03.4.11.07.13.04.29-.08.38l-.25.19c.16-.04.32.05.36.21.03.11,0,.22-.09.29l-1.35,1.2,1.01-.58c.14-.08.32-.04.4.1.07.13.04.29-.07.38l-.24.2c.16-.04.31.06.35.22.02.09,0,.18-.06.25l-.75.93.37-.22c.14-.09.32-.05.4.09.09.14.05.32-.09.4,0,0-.01,0-.02.01l-1.73,1s-.09.04-.15.04h0Z"/>
  <path class="cls-3" d="m12.75,25.66c-.16,0-.29-.13-.29-.29,0-.09.04-.17.11-.23l2.82-2.23-3.26,1.88c-.14.08-.32.03-.4-.11-.07-.12-.04-.28.07-.37l2.51-2.04-2.08,1.2c-.14.08-.32.03-.4-.1-.07-.12-.04-.28.07-.37l2.55-2.08h0c-.08-.15-.03-.33.11-.41l1.4-.81c.14-.08.32-.03.4.11.07.12.04.28-.07.37l-1.2.98,2.1-1.21c.14-.08.32-.03.4.11.07.12.04.28-.07.37l-2.51,2.04,3.54-2.04c.14-.08.32-.03.4.1.07.13.04.29-.07.38l-2.82,2.24,4.1-2.37c.14-.07.32-.02.39.12.07.13.03.3-.1.38l-7.54,4.36s-.09.04-.15.04h0Z"/>
  <path class="cls-1" d="m27.93,30.11c-.16,0-.29-.13-.29-.29,0-.09.05-.18.12-.24l1.89-1.37-3.17,1.83c-.14.08-.32.03-.4-.12-.07-.13-.03-.29.09-.38l.37-.25-.68.39c-.14.08-.32.03-.4-.11-.07-.13-.04-.29.08-.38l4-2.88-4.03,2.32c-.14.08-.32.03-.4-.11-.07-.13-.03-.29.09-.38l2.14-1.44-1.93,1.11c-.14.08-.32.03-.4-.11-.08-.13-.04-.31.09-.39l.24-.16h-.01c-.14.08-.32.03-.4-.11-.07-.13-.04-.29.08-.38l3.58-2.49-3.39,1.96c-.14.08-.32.03-.4-.11-.08-.13-.04-.3.09-.39l1.99-1.34-1.78,1.02c-.14.08-.32.03-.4-.11-.08-.13-.04-.3.09-.38l1.79-1.25-1.57.91c-.14.08-.32.03-.4-.11-.07-.12-.04-.28.07-.37l2.39-1.91-2.2,1.27c-.14.08-.32.03-.4-.11-.07-.13-.04-.29.08-.38l.25-.18h0c-.14.08-.32.03-.4-.11-.07-.11-.05-.26.05-.35l.93-.92-.7.4c-.12.07-.27.05-.36-.06-.09-.1-.1-.25-.02-.37l.37-.53c-.11,0-.2-.06-.26-.15-.08-.14-.03-.32.11-.4l.96-.56c.14-.08.32-.03.4.11.06.1.05.22-.01.31l-.32.45,1.52-.88c.14-.08.32-.03.4.11.07.11.05.26-.05.35l-.93.92,2.4-1.38c.14-.08.32-.03.4.11.07.13.04.29-.08.38l-.25.18,1.16-.67c.14-.08.32-.03.4.11.07.12.04.28-.07.37l-2.39,1.91,4.15-2.39c.14-.08.32-.03.4.11.07.13.04.29-.08.38l-1.79,1.25,3-1.73c.14-.08.32-.03.4.11.08.13.04.3-.09.39l-1.99,1.34,2.19-1.27c.14-.08.32-.03.4.11.08.13.04.3-.09.38l-3.58,2.49,3.27-1.89c.14-.08.32-.03.4.11.07.13.03.3-.09.38l-.27.18c.15-.06.32,0,.38.16.05.13,0,.27-.11.35l-2.14,1.44,1.83-1.06c.14-.08.32-.03.4.11.07.13.04.29-.08.38l-4,2.88,3.68-2.12c.14-.08.32-.02.4.12.07.13.03.29-.09.38l-.37.25.06-.04c.14-.08.32-.03.4.11.07.13.04.29-.08.38l-1.89,1.37,1.58-.91c.14-.08.32-.03.4.11.07.12.04.28-.07.37l-1.57,1.24,1.24-.72c.14-.08.32-.03.4.11.06.11.05.25-.04.34l-1.22,1.32.86-.5c.14-.08.32-.03.4.11.06.11.05.24-.03.33l-.23.29c.11,0,.21.06.26.15.08.14.03.32-.11.4l-1.21.69c-.14.08-.32.03-.4-.11-.06-.11-.05-.24.03-.33l.18-.21-1.13.65c-.14.08-.32.03-.4-.11-.06-.11-.05-.25.04-.34l1.22-1.32-3.07,1.77c-.14.08-.32.03-.4-.11-.07-.12-.04-.28.07-.37l1.57-1.24-2.99,1.72s-.09.04-.15.04h0Z"/>
  <path class="cls-2" d="m1.41,30.02c2.28-.29,5.09.69,7.07-.59,3.08.27,6,8.4,8.54,4.03.94.51,2.46-.31,2.42-1.39,1.07.26,2.3-.51,2.27-1.58.91.14,1.77-.42,2.02-1.31.42-.13.83-.28,1.23-.44.43,2.33,3.62,1.11,5.29,1.37,1.4-.25,4,.8,4.61-.9-.68-9.92,3.29-9.91-8.03-9.58-1.1-3.04-3.92-5.12-7.15-5.27,0-.15,0-.3,0-.44,1.7-.77,2.83-2.44,2.9-4.3,1.9-.62,1.11-3.27,1.09-4.79C23.06,1.19,19-.36,15.72.48c-3.65.69-4.94,4.47-4.49,7.78.01.69.51,1.27,1.18,1.39.08,1.84,1.14,3.71,2.91,4.36v.35c-3.24.21-6.04,2.31-7.15,5.36-1.99.46-7.34-1.11-8.04,1.02.45,1.73-1.21,10.05,1.27,9.27h0Zm21.47-.85c-.05.46-.46.78-.92.73-.23-.03-.44-.15-.58-.34-.23-.24-1.02.01-.78.36.38.43.33,1.07-.09,1.45-.04.04-.09.07-.14.1-.53.27-.9-.07-1.2-.49-.2-.28-.99,0-.78.36.53.68.06,2.01-.92,1.58-.29-.19-.54-.45-.72-.75-.21-.27-1,0-.78.36.88,1.53-.89,2.37-1.67.79-1.47-1.89-3.18-3.73-5.5-4.51.27-2.7.82-5.32.88-8.05,1.44-.16,2.89-.13,4.32.1-1.56,1.15-4.21,3.82-1.14,4.9,1.7.37,2.65-1.38,3.82-2.24,1.1-.51,6.34,4.47,6.2,5.64h0Zm1.29-.71c-.15.05-.3.11-.46.16-.88-1.64-5.66-7.09-7.62-5.4-.93.58-1.5,1.88-2.64,2.02-3.21-1.07,1.1-4.16,2.43-5,2.66.48,5.36,1.63,8.2,1.1.26,2.28.55,4.56.8,6.84-.24.1-.47.19-.71.28h0Zm4.35-8.28c1.32.38,5.93-1.01,5.48,1.04,0,2.69,0,5.38,0,8.06.06.51-.58.18-.89.27-1.94-.5-7.08,1.3-7.34-1.33.18-1.93-1.7-7-.25-8.05.99-.02,2,.02,3.01,0h0ZM12.11,5.28c.78-6.85,11.9-5.18,10.82,1.63-.12-.05-.24-.1-.37-.12-.15-1.54-1.73-1.74-2.98-1.89-.92,0-1.62-1.47-2.45-.88-1.29,1.51-4.33.42-4.72,2.82-.12.04-.24.08-.35.14-.02-.57,0-1.13.05-1.7h0Zm1.49,5.8c-.39-.6-.07-1.66-.6-1.99-.98-.04-1.33-1.66-.22-1.74.16-.01.47-.13.47-.34.12-2.1,3.08-1.07,4.19-2.43,1.15,1.39,4.1.35,4.3,2.5,0,.15.13.27.28.27.97.06,1.28,1.66.19,1.73-.16.01-.47.13-.47.34.03,1.49-.68,2.9-1.89,3.77-2.16,1.31-5.47.41-6.25-2.11h0Zm5.22,3.13c.37,2.49-2.86,2.45-2.66.06.88.19,1.79.17,2.66-.06h0Zm-3.49.76c.29,2.29,3.87,2.16,4.29,0,2.81.22,5.25,2.02,6.28,4.64-.77-.05-1.49.41-1.75,1.14-3.31,1.07-6.91-2.45-9.71-.27-1.6-.25-3.23-.26-4.83-.01-.11-.3-.34-.54-.65-.65.93-2.77,3.45-4.69,6.37-4.87h0Zm-7.79,5.11c.2,0,.4.02.6.07,1.69.99.03,4.09.2,5.79-.36,1.07.28,3.58-1.19,3.7-9.4.57-5.32-.71-6.19-9.56h6.58Z"/>
</svg>