<?xml version="1.0" encoding="UTF-8"?>
<svg id="Layer_1" data-name="Layer 1" xmlns="http://www.w3.org/2000/svg" viewBox="0 0 35 35">
  <defs>
    <style>
      .cls-1 {
        fill: #f47721;
      }

      .cls-1, .cls-2, .cls-3, .cls-4 {
        stroke-width: 0px;
      }

      .cls-3 {
        fill: #fff;
      }

      .cls-4 {
        fill: #c1dbf0;
      }
    </style>
  </defs>
  <path class="cls-4" d="m20.92,32.53c-.16,0-.29-.13-.29-.29,0-.07.03-.15.08-.2l.43-.45-.69.4c-.14.09-.32.05-.41-.09-.09-.14-.05-.32.09-.41,0,0,.01,0,.02-.01l2.44-1.41c.14-.08.32-.03.4.11.06.11.05.25-.04.35l-.43.46.26-.15c.14-.09.32-.05.41.09.09.14.05.32-.09.41,0,0-.01,0-.02.01l-2,1.16s-.1.04-.15.04Z"/>
  <path class="cls-4" d="m23.97,31.05c-.16,0-.29-.13-.29-.29,0-.07.03-.14.07-.2l.08-.09-.55.31c-.14.09-.32.05-.41-.09-.08-.12-.05-.28.06-.38l.15-.15-.3.17c-.14.09-.32.05-.41-.09-.09-.14-.05-.32.09-.41,0,0,.01,0,.02-.01l2.43-1.4c.14-.09.32-.04.4.1.08.12.05.28-.06.37l-.15.15c.14-.08.32-.02.4.12.06.11.04.24-.04.33l-.33.37c.15.06.22.24.15.39-.03.06-.07.11-.12.14l-1.06.61s-.09.04-.14.04h0Z"/>
  <path class="cls-4" d="m25.5,28.64c-.16,0-.29-.13-.29-.29,0-.07.02-.13.07-.19l.25-.3-.79.46c-.14.09-.32.05-.41-.09-.09-.14-.05-.32.09-.41,0,0,.01,0,.02-.01l2.2-1.27c.14-.08.32-.03.4.11.06.11.05.24-.03.33l-.39.47c.16.03.26.19.22.35-.02.08-.07.15-.14.19l-1.06.61s-.1.04-.15.04h0Z"/>
  <path class="cls-4" d="m12.51,14.73c-.16,0-.29-.13-.29-.29,0-.1.06-.2.15-.25l1.8-1.04c.14-.09.32-.05.41.09.09.14.05.32-.09.41,0,0-.01,0-.02.01l-1.8,1.04s-.1.04-.15.04Z"/>
  <path class="cls-4" d="m19.04,34.3c-.16,0-.29-.13-.29-.29,0-.07.02-.13.07-.19l.46-.57-.96.55c-.14.08-.32.03-.4-.11-.07-.13-.04-.3.08-.38l2.5-1.84-2.88,1.66c-.14.08-.32.03-.4-.11-.07-.13-.04-.29.08-.38l3.58-2.5-4.06,2.35c-.14.08-.32.03-.4-.11-.08-.13-.04-.3.09-.39l4.26-2.97-4.84,2.79c-.14.08-.32.03-.4-.11-.08-.13-.04-.3.08-.39l5.03-3.57-5.72,3.3c-.14.08-.32.04-.4-.1s-.04-.32.1-.4l.31-.2-.53.31c-.14.08-.32.03-.4-.11-.08-.13-.04-.3.09-.39l3.18-2.12-3.59,2.07c-.14.08-.32.04-.4-.1s-.04-.32.1-.4h0l1.24-.8-1.51.87c-.14.08-.32.03-.4-.11-.07-.13-.04-.3.09-.38l5.3-3.68-5.97,3.44c-.14.08-.32.03-.4-.11-.07-.13-.04-.3.09-.38l5.15-3.53-5.76,3.33c-.14.08-.32.02-.4-.12-.07-.13-.03-.3.09-.38l.98-.63-1.23.71c-.14.08-.32.02-.4-.12-.07-.13-.03-.29.09-.38l2.94-1.91-3.31,1.91c-.14.08-.31.04-.4-.1-.08-.13-.05-.31.08-.4l5.45-3.69-6.07,3.5c-.14.08-.32.03-.4-.11-.07-.13-.04-.3.09-.39l4.89-3.26-5.59,3.23c-.14.08-.32.03-.4-.11-.08-.13-.04-.31.09-.39l5.02-3.33-6.09,3.51c-.14.08-.32.03-.4-.11-.08-.13-.04-.31.09-.39l6.66-4.48-7.38,4.26c-.14.08-.32.02-.4-.12-.07-.13-.03-.3.09-.38l3.26-2.08-3.22,1.86c-.14.08-.32.03-.4-.11-.08-.14-.04-.31.09-.39l4.92-3.21-4.4,2.54c-.14.08-.32.03-.4-.11-.07-.13-.03-.3.09-.39l4.43-2.9-3.91,2.26c-.14.08-.32.03-.4-.11-.07-.13-.04-.3.09-.39l4.28-2.87-3.76,2.17c-.14.08-.32.04-.4-.1-.08-.14-.04-.32.1-.4l1.01-.66-.55.32c-.14.08-.32.03-.4-.11-.08-.13-.04-.3.09-.39l2.51-1.7-2.01,1.16c-.14.08-.32.03-.4-.11-.06-.11-.05-.24.03-.34l.54-.62c-.15.07-.32,0-.39-.15-.06-.14,0-.3.12-.37l1.46-.84c.14-.08.32-.03.4.11.06.11.05.24-.03.34l-.53.62,7.63-4.4c.14-.08.32-.03.4.12.07.13.03.29-.09.38l-2.5,1.7,3.29-1.9c.14-.08.32-.03.4.11.07.13.03.3-.09.39l-1.02.66,1.6-.92c.14-.08.32-.02.4.12.07.13.03.29-.09.38l-4.28,2.86,5.23-3.02c.14-.08.32-.03.4.11.07.13.03.3-.09.39l-4.43,2.91,4.83-2.79c.14-.08.32-.03.4.11.08.13.04.3-.09.39l-4.92,3.21,5.14-2.97c.14-.08.32-.02.4.12.07.13.03.3-.09.38l-3.26,2.08,3.39-1.96c.14-.09.32-.04.4.09s.04.32-.09.4l-6.66,4.49,7.02-4.06c.14-.08.32-.03.4.11.08.13.04.31-.09.39l-5.02,3.33,5.28-3.05c.14-.08.32-.03.4.11.08.13.04.3-.09.39l-4.9,3.26,5.15-2.97c.14-.08.32-.03.4.11.08.13.04.3-.09.39l-5.44,3.69,5.76-3.32c.14-.08.32-.02.4.12.07.13.03.29-.09.38l-2.94,1.91,3.08-1.78c.14-.08.32-.04.4.1.08.14.04.31-.1.4l-.98.63,1.05-.61c.14-.08.32-.03.4.11.07.13.04.3-.09.38l-5.15,3.53,5.47-3.15c.14-.08.32-.03.4.11.08.13.04.3-.09.39l-5.3,3.67,5.64-3.26c.14-.08.32-.04.4.1s.04.32-.1.4l-1.25.81,1.33-.77c.14-.08.32-.04.4.1.08.14.04.31-.09.4l-3.18,2.12,3.36-1.94c.14-.08.32-.04.41.1.08.14.04.32-.1.41l-.3.19.35-.2c.14-.08.32-.03.4.11.08.13.04.3-.08.39l-5.03,3.56,5.39-3.11c.14-.08.32-.03.4.11.07.13.04.29-.08.38l-4.26,2.97,4.01-2.32c.14-.08.32-.04.4.1.08.13.04.31-.09.39l-3.58,2.5,1.56-.9c.14-.09.32-.05.41.09s.05.32-.09.41l-4.41,3.24c.08.11.08.26,0,.36l-.46.57.05-.03c.14-.09.32-.05.41.09.09.14.05.32-.09.41,0,0-.01,0-.02.01l-1.44.83s-.1.04-.15.04h0Z"/>
  <g>
    <path class="cls-1" d="m20.32,10.57c-.16,0-.29-.13-.29-.29,0-.04,0-.07.02-.11l.1-.27-.43.25c-.14.08-.32.03-.4-.11-.06-.1-.05-.22.02-.32l.2-.27-.54.31c-.14.08-.32.03-.4-.11-.06-.1-.05-.22.02-.32l.76-1.06-1.53.88c-.14.08-.32.03-.4-.11-.07-.12-.04-.28.07-.37l.45-.37-3.63,2.1c-.14.09-.32.05-.41-.08s-.05-.32.08-.41l4.03-2.96-3.46,2c-.14.08-.32.03-.4-.11-.07-.13-.04-.29.08-.38l1.5-1.05-1.02.59c-.14.08-.32.03-.4-.11-.07-.13-.04-.29.07-.38l1.93-1.52-1.62.93c-.14.08-.32.03-.4-.11-.07-.12-.04-.28.07-.37l1.68-1.39-2.06,1.19c-.14.08-.32.03-.4-.11-.07-.12-.04-.28.06-.37l2.05-1.72-2.5,1.44c-.08.05-.18.05-.26.02-.09-.04-.15-.11-.17-.2l-.18-.81-.21.12c-.14.08-.32.03-.4-.11s-.03-.32.11-.4l.56-.32c.08-.05.18-.05.27-.01.09.04.15.11.17.2l.18.81,5.07-2.93c.14-.08.32-.03.4.11.07.12.04.28-.06.37l-2.05,1.72,2.19-1.26c.14-.08.32-.03.4.11.07.12.04.28-.07.37l-1.68,1.39,2.14-1.23c.14-.08.32-.03.4.11.07.13.04.28-.07.37l-1.93,1.52,3.1-1.79c.14-.08.32-.03.4.11.08.13.04.3-.09.39l-1.5,1.06,2.39-1.38c.14-.08.32-.03.4.11.07.13.04.29-.08.38l-4.03,2.96,2.12-1.22c.14-.08.32-.03.4.11.07.12.04.28-.07.37l-.66.54c.16,0,.29.14.29.3,0,.06-.02.12-.05.16l-.76,1.06.57-.33c.14-.08.32-.03.4.11.06.1.05.23-.02.32l-.2.28c.15-.05.32.03.37.19.02.06.02.13,0,.2l-.13.34c.16,0,.29.15.28.31,0,.1-.06.19-.15.24l-.53.31s-.1.04-.15.04h0Z"/>
    <path class="cls-1" d="m16.37,2.75c-.16,0-.29-.13-.29-.29,0-.06.02-.11.05-.16l.88-1.33s-.03-.04-.04-.06c-.08-.14-.03-.32.11-.4,0,0,0,0,0,0l.45-.26c.14-.08.32-.03.4.11.06.1.05.22,0,.31l-.61.92.72-.41c.14-.08.32-.02.4.12.07.14.03.3-.1.38l-1.8,1.04s-.1.04-.15.04Z"/>
    <path class="cls-4" d="m9.85,12.88c-.16,0-.29-.13-.29-.29,0-.03,0-.07.02-.1l.07-.2-.32.18c-.14.08-.32.03-.4-.11-.06-.1-.05-.22.01-.31l.14-.2-.44.25c-.14.08-.32.03-.4-.11-.06-.11-.05-.25.04-.34l.54-.58-2.76,1.59c-.14.08-.32.03-.4-.11-.07-.13-.04-.29.07-.38l1.9-1.47-1.39.8c-.14.08-.32.04-.4-.1-.07-.12-.05-.27.05-.37l1.65-1.58-1.35.79c-.14.08-.32.03-.4-.11-.07-.12-.04-.27.05-.36l.94-.86-1.21.7c-.14.08-.32.03-.4-.11-.01-.02-.02-.05-.03-.07l-.2-.75-.17.09c-.14.09-.32.05-.41-.09-.09-.14-.05-.32.09-.41,0,0,.01,0,.02-.01l.5-.29c.08-.05.18-.05.26-.02.08.03.15.11.17.2l.2.75,3.21-1.85c.14-.08.32-.03.4.11.07.12.04.27-.05.36l-.94.86,1.13-.65c.14-.08.32-.04.4.1.07.12.05.27-.05.37l-1.65,1.58,3.08-1.78c.14-.08.32-.03.4.11.07.13.04.28-.07.37l-1.89,1.46.64-.37c.14-.08.32-.03.4.11.06.11.05.25-.04.35l-.56.61c.16-.04.32.05.36.21.02.08,0,.17-.04.24l-.17.24c.08-.01.17.01.23.07.09.08.13.21.09.33l-.11.3c.16.03.26.18.23.34-.02.08-.07.16-.14.2l-.46.27s-.1.04-.15.04h0Z"/>
    <path class="cls-4" d="m7.14,7.9c-.16,0-.29-.13-.29-.29,0-.05.02-.11.04-.16l.77-1.24s-.02-.03-.03-.04c-.08-.14-.03-.32.11-.4,0,0,0,0,0,0l.36-.21c.14-.08.32-.04.4.1.06.1.05.22,0,.31l-.5.8.53-.31c.14-.09.32-.05.41.09.09.14.05.32-.09.41,0,0-.01,0-.02.01l-1.54.89s-.09.04-.14.04Z"/>
    <path class="cls-4" d="m28.51,12.8c-.07,0-.13-.02-.18-.06-.09-.07-.13-.2-.1-.31l.2-.67-.78.45c-.14.08-.32.03-.4-.11-.06-.1-.05-.23.02-.33l.87-1.09-3.26,1.88c-.14.08-.32.03-.4-.11-.07-.13-.04-.29.08-.38l.86-.62-.4.24c-.14.08-.32.04-.4-.1-.07-.12-.05-.28.06-.37l1.51-1.29-.98.57c-.14.08-.32.03-.4-.11-.07-.11-.05-.26.04-.35l1.33-1.41-1.79,1.03c-.14.08-.32.03-.4-.11-.01-.02-.02-.04-.03-.07l-.23-.79-.17.1c-.14.09-.32.05-.41-.09-.09-.14-.05-.32.09-.41,0,0,.01,0,.02-.01l.5-.29c.14-.08.32-.03.4.11.01.02.02.04.03.07l.23.79,3.21-1.85c.14-.08.32-.03.4.11.06.11.05.25-.04.35l-1.33,1.41,1.99-1.15c.14-.08.32-.03.4.11.07.12.04.27-.06.37l-1.51,1.29,2.67-1.54c.14-.08.32-.03.4.11.07.13.04.29-.08.38l-1.14.82c.09,0,.17.04.23.1.09.11.1.27,0,.38l-.87,1.09.07-.04c.14-.08.32-.03.4.11.04.07.05.15.03.23l-.2.68c.16-.05.32.04.37.19.04.13-.01.27-.13.34l-.58.33s-.09.04-.14.04h0Z"/>
    <path class="cls-4" d="m25.92,7.96c-.08,0-.16-.03-.21-.09-.09-.1-.11-.24-.04-.36l.8-1.31s-.02-.03-.03-.04c-.08-.14-.03-.32.11-.4,0,0,0,0,0,0l.36-.21c.14-.08.32-.03.4.11.05.09.05.21,0,.3l-.53.87.59-.34c.14-.08.32-.03.4.11.08.14.03.32-.11.4l-1.59.92s-.1.04-.15.04h0Z"/>
  </g>
  <path class="cls-1" d="m14.92,34.8c-.16,0-.29-.13-.29-.29,0-.07.03-.15.08-.2l1.11-1.18-1.9,1.1c-.14.08-.32.03-.4-.11-.07-.12-.05-.27.05-.36l1.3-1.19-1.22.71c-.14.08-.32.03-.4-.11-.07-.12-.05-.27.05-.36l.73-.67-1.83,1.05c-.14.08-.32.02-.4-.12-.06-.12-.04-.26.05-.35l1.62-1.46-2.11,1.22c-.14.08-.32.04-.4-.1-.07-.13-.04-.29.07-.38l1.3-1.05-1.07.62c-.14.08-.32.03-.4-.11-.07-.12-.05-.27.05-.36l1.39-1.28-2.35,1.36c-.14.09-.32.04-.4-.1-.08-.12-.05-.28.06-.37l1.66-1.57-2.01,1.16c-.14.08-.32.03-.4-.11-.07-.12-.04-.26.05-.36l1.51-1.38-1.55.9c-.14.08-.32.03-.4-.11-.07-.11-.05-.26.04-.35l.76-.78-1.61.93c-.14.08-.32.03-.4-.11-.07-.13-.04-.28.07-.37l.13-.11-.16.09c-.14.08-.32.03-.4-.11-.07-.12-.05-.27.06-.37l1.06-.94-.75.43c-.14.08-.32.02-.4-.12-.06-.12-.04-.26.05-.35l1.19-1.07c-.1-.13-.08-.31.05-.41.01,0,.02-.02.03-.02l1.14-.66c.14-.08.32-.02.4.12.06.12.04.26-.05.35l-.29.26.83-.48c.14-.08.32-.03.4.11.07.12.05.27-.06.37l-1.05.94,1.22-.71c.14-.08.32-.03.4.11.07.13.04.29-.07.38l-.21.17c.16-.04.32.06.35.22.02.1,0,.2-.08.27l-.76.79,2.09-1.21c.14-.08.32-.03.4.11.07.12.04.26-.05.36l-1.51,1.38,1.84-1.06c.14-.09.32-.04.4.1.08.12.05.28-.06.37l-1.65,1.57,2.48-1.43c.14-.08.32-.03.4.11.07.12.05.27-.05.36l-1.39,1.28,2.08-1.2c.14-.08.32-.03.4.11.07.13.04.28-.07.38l-1.3,1.05,1.23-.71c.14-.08.32-.02.4.12.06.12.04.26-.05.35l-1.62,1.46,1.67-.96c.14-.08.32-.03.4.11.07.12.05.27-.05.36l-.73.67,1.25-.72c.14-.08.32-.03.4.11.07.12.05.27-.05.36l-1.29,1.19,1.32-.76c.14-.08.32-.03.4.11.06.11.05.25-.04.35l-1.38,1.46c.06.02.11.07.15.13.08.14.03.32-.11.4l-1.21.7s-.1.04-.15.04h0Z"/>
  <path class="cls-1" d="m14.92,34.8c-.16,0-.29-.13-.29-.29,0-.07.03-.15.08-.2l1.11-1.18-1.9,1.1c-.14.08-.32.03-.4-.11-.07-.12-.05-.27.05-.36l1.3-1.19-1.22.71c-.14.08-.32.03-.4-.11-.07-.12-.05-.27.05-.36l.73-.67-1.83,1.05c-.14.08-.32.02-.4-.12-.06-.12-.04-.26.05-.35l1.62-1.46-2.11,1.22c-.14.08-.32.04-.4-.1-.07-.13-.04-.29.07-.38l1.3-1.05-1.07.62c-.14.08-.32.03-.4-.11-.07-.12-.05-.27.05-.36l1.39-1.28-2.35,1.36c-.14.09-.32.04-.4-.1-.08-.12-.05-.28.06-.37l1.66-1.57-2.01,1.16c-.14.08-.32.03-.4-.11-.07-.12-.04-.26.05-.36l1.51-1.38-1.55.9c-.14.08-.32.03-.4-.11-.07-.11-.05-.26.04-.35l.76-.78-1.61.93c-.14.08-.32.03-.4-.11-.07-.13-.04-.28.07-.37l.13-.11-.16.09c-.14.08-.32.03-.4-.11-.07-.12-.05-.27.06-.37l1.06-.94-.75.43c-.14.08-.32.02-.4-.12-.06-.12-.04-.26.05-.35l1.19-1.07c-.1-.13-.08-.31.05-.41.01,0,.02-.02.03-.02l1.14-.66c.14-.08.32-.02.4.12.06.12.04.26-.05.35l-.29.26.83-.48c.14-.08.32-.03.4.11.07.12.05.27-.06.37l-1.05.94,1.22-.71c.14-.08.32-.03.4.11.07.13.04.29-.07.38l-.21.17c.16-.04.32.06.35.22.02.1,0,.2-.08.27l-.76.79,2.09-1.21c.14-.08.32-.03.4.11.07.12.04.26-.05.36l-1.51,1.38,1.84-1.06c.14-.09.32-.04.4.1.08.12.05.28-.06.37l-1.65,1.57,2.48-1.43c.14-.08.32-.03.4.11.07.12.05.27-.05.36l-1.39,1.28,2.08-1.2c.14-.08.32-.03.4.11.07.13.04.28-.07.38l-1.3,1.05,1.23-.71c.14-.08.32-.02.4.12.06.12.04.26-.05.35l-1.62,1.46,1.67-.96c.14-.08.32-.03.4.11.07.12.05.27-.05.36l-.73.67,1.25-.72c.14-.08.32-.03.4.11.07.12.05.27-.05.36l-1.29,1.19,1.32-.76c.14-.08.32-.03.4.11.06.11.05.25-.04.35l-1.38,1.46c.06.02.11.07.15.13.08.14.03.32-.11.4l-1.21.7s-.1.04-.15.04h0Z"/>
  <path class="cls-1" d="m10.19,31.3c-.16,0-.29-.13-.29-.29,0-.08.04-.17.1-.22l.93-.81-1.4.81c-.14.08-.32.03-.4-.11-.07-.12-.05-.27.05-.36l1.76-1.65-1.69.98c-.14.08-.32.04-.4-.1-.07-.12-.05-.27.05-.36l1.68-1.63c-.12-.11-.14-.29-.03-.41.02-.03.05-.05.08-.06l1.14-.66c.14-.08.32-.04.4.1.07.12.05.27-.05.36l-1.1,1.07,1.87-1.07c.14-.08.32-.04.4.1.07.12.05.27-.06.37l-1.76,1.65,1.74-1.01c.14-.08.32-.03.4.11.07.12.05.28-.06.37l-1.31,1.16c.15.05.23.22.18.37-.02.07-.07.12-.13.16l-1.94,1.12s-.1.04-.15.04Z"/>
  <path class="cls-1" d="m14.95,34.79c-.16,0-.29-.13-.29-.29,0-.08.03-.15.08-.2l1.03-1.09-1.82,1.05c-.14.08-.32.03-.4-.11-.07-.12-.04-.28.06-.37l.99-.86-.96.56c-.14.08-.32.03-.4-.11-.06-.11-.05-.25.04-.35l1.42-1.55c-.15-.06-.23-.23-.17-.38.02-.06.07-.12.13-.15l1.14-.66c.14-.08.32-.03.4.11.06.11.05.25-.04.35l-1.18,1.29,2.01-1.16c.14-.08.32-.03.4.11.07.12.05.28-.06.37l-.99.86.9-.52c.14-.08.32-.03.4.11.06.11.05.25-.04.35l-1.38,1.45s.09.06.12.11c.08.14.03.32-.11.4l-1.14.66s-.1.04-.15.04h0Z"/>
  <path class="cls-1" d="m26.65,26.58c-.16,0-.29-.13-.29-.29,0-.08.03-.15.08-.21l.82-.83-1.08.62c-.14.08-.32.04-.4-.1-.07-.12-.05-.27.05-.37l.97-.93-1.29.75c-.14.08-.32.03-.4-.11-.07-.12-.04-.27.05-.36l1.21-1.11-1.57.9c-.14.08-.32.03-.4-.11-.07-.12-.04-.28.06-.37l1.19-1.01-1.5.87c-.14.08-.32.03-.4-.11-.07-.13-.04-.29.08-.38l.5-.38-.68.39c-.14.08-.32.03-.4-.11-.07-.12-.04-.28.07-.37l1.61-1.31-1.96,1.13c-.14.08-.32.03-.4-.11-.07-.12-.04-.28.06-.37l2.33-1.96-2.83,1.63c-.14.08-.32.03-.4-.11-.07-.13-.04-.29.08-.38l1.58-1.18-1.87,1.08c-.14.08-.32.02-.4-.12-.06-.12-.04-.26.05-.35l2.11-1.89-2.64,1.52c-.14.08-.32.03-.4-.11-.07-.13-.04-.29.08-.38l.16-.12-.29.17c-.14.08-.32.03-.4-.11-.07-.12-.04-.28.06-.37l1.51-1.28-1.87,1.08c-.14.08-.32.03-.4-.11-.07-.12-.04-.28.07-.37l1.25-1.04-1.57.91c-.14.08-.32.03-.4-.11-.07-.12-.04-.28.07-.37l.97-.79-1.94,1.12c-.14.08-.32.02-.4-.12-.07-.14-.03-.3.1-.38l5.14-2.97c.14-.08.32-.03.4.11.07.12.04.28-.07.37l-.97.79,1.37-.79c.14-.08.32-.03.4.11.07.12.04.28-.07.37l-1.25,1.04,1.72-.99c.14-.08.32-.03.4.11.07.12.04.28-.06.37l-1.51,1.28,2.04-1.18c.14-.08.32-.03.4.12.07.13.04.29-.08.37l-.16.12.49-.28c.14-.08.32-.02.4.12.06.12.04.26-.05.35l-2.11,1.89,3.7-2.14c.14-.08.32-.03.4.11.07.13.04.29-.08.38l-1.57,1.18,1.44-.83c.14-.08.32-.03.4.11.07.12.04.28-.06.37l-2.33,1.96,2.26-1.3c.14-.08.32-.03.4.11.07.12.04.28-.07.37l-1.61,1.31,1.49-.86c.14-.08.32-.03.4.11.07.13.04.29-.08.38l-.5.38.33-.19c.14-.08.32-.03.4.11.07.12.04.28-.06.37l-1.19,1.01,1.05-.61c.14-.08.32-.03.4.11.07.12.04.26-.05.36l-1.21,1.11,1.08-.62c.14-.08.32-.03.4.11.07.12.05.26-.05.36l-.97.93.83-.48c.14-.08.32-.03.4.11.07.11.05.26-.05.35l-.82.83.67-.39c.14-.08.32-.03.4.11.08.14.03.32-.11.4l-2.54,1.47s-.1.04-.15.04h0Z"/>
  <path class="cls-1" d="m12.42,21.89c-.16,0-.29-.13-.29-.29,0-.1.05-.19.13-.24l3.06-2.08-3.53,2.04c-.14.08-.32.03-.4-.11-.08-.13-.04-.3.09-.39l2.45-1.65-2.5,1.44c-.14.08-.32.03-.4-.11-.08-.13-.04-.3.09-.39l2.54-1.74-2.14,1.24c-.14.08-.32.03-.4-.11-.07-.13-.04-.29.08-.38l1.76-1.29-.23.13c-.14.08-.32.03-.4-.11-.07-.12-.05-.28.06-.37l1.1-.96s-.04-.04-.05-.07c-.08-.14-.03-.32.11-.4l1.45-.84c.14-.08.32-.04.4.1.07.12.05.28-.06.37l-.29.25,2.42-1.4c.14-.08.32-.03.4.11.07.13.04.29-.08.38l-1.77,1.29,4.09-2.37c.14-.08.32-.04.4.1.08.14.04.31-.09.4l-2.54,1.73,3.21-1.85c.14-.08.32-.03.4.11.08.13.04.3-.09.39l-2.45,1.65,2.87-1.66c.14-.08.32-.03.4.11.08.13.04.3-.09.39l-6.16,4.2h0c.08.15.03.33-.11.41l-3.3,1.91s-.1.04-.15.04h0Z"/>
  <path class="cls-3" d="m29.52,26.92c-.09,0-.17-.04-.23-.11-.09-.11-.08-.28.02-.38l.63-.67-.86.5c-.14.08-.32.03-.4-.11-.07-.12-.05-.28.06-.37l.2-.17c-.14.08-.32.03-.4-.11-.06-.11-.05-.24.03-.34l1.18-1.35-1.07.62c-.14.08-.32.03-.4-.11-.06-.11-.05-.25.04-.35l.98-1.02-.84.48c-.14.08-.32.02-.4-.12-.06-.12-.04-.26.05-.35l.43-.39-.24.14c-.14.08-.32.04-.4-.1-.07-.12-.05-.27.06-.37l.63-.59-.45.26c-.14.08-.32.03-.4-.11-.06-.11-.05-.25.04-.34l1.18-1.31-1.07.62c-.14.08-.32.02-.4-.12-.06-.11-.04-.25.05-.34l.93-.94-.79.45c-.14.08-.32.03-.4-.11-.06-.11-.05-.25.04-.34l1.21-1.34-1.11.64c-.14.08-.32.03-.4-.11-.06-.11-.05-.25.04-.35l.83-.9-.68.39c-.14.08-.32.03-.4-.11-.06-.09-.05-.21,0-.31l.25-.4c-.16.01-.3-.11-.32-.27,0-.11.05-.22.15-.28l.87-.5c.14-.08.32-.03.4.11.05.09.05.21,0,.3l-.22.35,1.32-.76c.14-.08.32-.03.4.11.06.11.05.25-.04.35l-.83.9,1.05-.61c.14-.08.32-.03.4.11.06.11.05.25-.04.34l-1.21,1.34,1.08-.62c.14-.08.32-.02.4.12.06.11.04.25-.05.34l-.93.94.77-.44c.14-.08.32-.03.4.11.06.11.05.25-.04.34l-1.18,1.31,1.05-.61c.14-.08.32-.04.4.1.07.12.05.27-.06.37l-.63.59.44-.25c.14-.08.32-.02.4.12.06.12.04.26-.05.35l-.43.39.23-.13c.14-.08.32-.03.4.11.06.11.05.25-.04.35l-.97,1.02.82-.47c.14-.08.32-.03.4.11.06.11.05.24-.03.34l-1.18,1.35,1.05-.61c.14-.08.32-.03.4.11.07.12.04.27-.06.37l-.2.17c.14-.07.32-.02.4.13.06.11.04.24-.05.33l-.63.67.28-.16c.14-.08.32-.03.4.11.08.14.03.32-.11.4l-1.99,1.15s-.1.04-.15.04h0Z"/>
  <path class="cls-3" d="m5.21,26.64c-.16,0-.29-.13-.29-.29,0-.06.02-.11.05-.16l.32-.5-1.28.74c-.14.08-.32.03-.4-.11-.07-.12-.05-.27.06-.37l.37-.33-.31.18c-.14.08-.32.03-.4-.11-.07-.12-.05-.27.06-.37l.86-.77-.59.34c-.14.08-.32.04-.4-.1-.07-.12-.05-.27.05-.37l1.57-1.51-1.04.6c-.14.08-.32.03-.4-.11-.07-.12-.05-.27.05-.36l1.44-1.33-.92.53c-.14.08-.32.03-.4-.11-.07-.12-.05-.28.06-.37l1.2-1.06-.71.41c-.14.08-.32.03-.4-.11-.07-.13-.04-.29.07-.38l.32-.25c-.16.02-.31-.09-.33-.26-.01-.1.02-.19.1-.26l1.33-1.18-.83.48c-.13.09-.32.06-.41-.07-.09-.13-.06-.32.07-.41l.76-.63-.29.17c-.14.08-.32.04-.4-.1-.07-.12-.05-.28.06-.37l.29-.25c-.16,0-.29-.13-.29-.3,0-.07.03-.14.07-.19l.31-.35c-.16-.01-.28-.15-.27-.32,0-.1.06-.18.15-.23l1.29-.74c.14-.08.32-.03.4.11.06.11.05.25-.03.34l-.2.23.92-.53c.14-.08.32-.03.4.11.07.12.04.28-.06.37l-.12.1.37-.21c.14-.08.32-.03.4.11.07.12.04.28-.07.37l-.76.64.48-.27c.14-.08.32-.03.4.11.07.12.04.27-.06.36l-1.33,1.18.77-.44c.14-.08.32-.03.4.11.07.13.04.28-.07.37l-.35.28c.1-.01.2.04.26.12.09.12.07.29-.04.39l-1.2,1.06.65-.37c.14-.08.32-.03.4.11.07.12.05.27-.05.36l-1.44,1.33.86-.49c.14-.08.32-.04.4.1.07.12.05.27-.05.37l-1.58,1.52.97-.56c.14-.08.32-.03.4.11.07.12.05.27-.06.37l-.86.77.33-.19c.14-.08.32-.03.4.11.07.12.05.27-.06.37l-.42.37c.16-.04.32.06.35.22.02.08,0,.16-.04.23l-.41.63c.08.02.16.07.2.14.08.14.03.32-.11.4l-.78.45s-.09.04-.15.04h0Z"/>
  <path class="cls-3" d="m2.58,28.78c-.16,0-.29-.13-.29-.29,0-.06.02-.11.05-.16l.37-.59-1.41.81c-.14.08-.32.02-.4-.12-.06-.11-.04-.24.04-.33l1.23-1.28-1.54.89c-.14.08-.32.03-.4-.11-.07-.12-.04-.28.07-.37l.26-.2c-.12.03-.24-.01-.31-.11-.09-.12-.07-.29.04-.39l1.75-1.6-1.41.81c-.14.08-.32.03-.4-.12-.06-.12-.04-.26.05-.35l1.99-1.81-1.64.95c-.14.08-.32.03-.4-.11-.07-.13-.04-.29.08-.38l.27-.2c-.15.05-.32-.03-.37-.18-.04-.12,0-.25.1-.33l.24-.18c-.16.04-.32-.06-.35-.22-.03-.11.02-.23.11-.3l1.18-.93-.86.49c-.14.08-.32.03-.4-.11-.07-.13-.04-.29.08-.38l.61-.45-.29.17c-.14.08-.32.03-.4-.11-.07-.13-.04-.29.07-.38l1.34-1.03-1.01.58c-.14.08-.32.03-.4-.11-.07-.13-.04-.29.08-.37l1.25-.95-.93.54c-.14.08-.32.03-.4-.11-.07-.13-.04-.29.08-.38l.76-.56-.44.26c-.14.08-.32.03-.4-.11-.07-.12-.04-.28.07-.37l1.78-1.46-1.45.84c-.13.07-.29.04-.38-.08-.09-.12-.07-.29.04-.39l1.16-1.07-.81.47c-.14.08-.32.03-.4-.11-.06-.11-.04-.26.05-.35l.35-.35c-.14.08-.32.03-.4-.11-.05-.09-.05-.19,0-.28l.26-.48c-.16-.02-.28-.16-.26-.33.01-.09.06-.17.15-.22l.66-.38c.14-.08.32-.03.4.11.05.09.05.2,0,.29l-.2.38,1.05-.6c.14-.08.32-.03.4.11.06.11.04.26-.05.35l-.35.35,1.13-.66c.14-.08.32-.03.4.11.07.12.05.27-.05.36l-1.16,1.07,2.3-1.33c.14-.08.32-.03.4.11.07.12.04.28-.07.37l-1.78,1.46,2.02-1.17c.14-.08.32-.03.4.11.07.13.04.29-.08.38l-.76.56.3-.17c.14-.08.32-.03.4.11.07.13.04.29-.08.38l-1.25.95.75-.43c.14-.08.32-.03.4.11.07.13.04.28-.07.37l-1.34,1.03.82-.48c.14-.08.32-.03.4.11.07.13.04.29-.08.38l-.61.45.13-.07c.14-.08.32-.03.4.11.07.13.04.28-.07.37l-1.18.93.67-.39c.14-.08.32-.03.4.11.07.13.04.29-.08.38l-.34.25c.11,0,.21.04.27.13.09.13.06.3-.07.4l-.36.27c.11-.02.22.03.28.12.09.12.07.29-.04.39l-1.99,1.81,1.38-.8c.14-.08.32-.03.4.11.07.12.04.26-.05.36l-1.75,1.6,1.16-.67c.14-.08.32-.03.4.11.07.12.04.28-.07.37l-.35.27c.1,0,.2.03.26.11.09.12.08.28-.02.38l-1.24,1.28.64-.37c.14-.08.32-.03.4.11.05.09.05.21,0,.3l-.44.7c.16.02.27.17.25.33-.01.09-.06.17-.14.22l-.79.45s-.1.04-.15.04h0Z"/>
  <path class="cls-1" d="m32.48,28.96c-.16,0-.29-.13-.29-.29,0-.08.03-.16.09-.21l.21-.2-.58.34c-.14.08-.32.03-.4-.11-.07-.12-.04-.28.07-.37l.23-.19-.09.05c-.14.08-.32.03-.4-.12-.06-.11-.04-.25.05-.35l1.41-1.42-1.31.76c-.14.08-.32.03-.4-.11-.07-.12-.05-.26.05-.35l1.59-1.56-1.49.86c-.14.08-.32.03-.4-.11-.07-.12-.04-.28.07-.37l.46-.37-.29.17c-.14.08-.32.04-.4-.1-.08-.13-.05-.29.07-.38l.55-.44-.38.22c-.14.08-.32.03-.4-.11-.07-.12-.04-.27.06-.37l1.53-1.34-1.41.82c-.14.08-.32.02-.4-.12-.06-.12-.04-.26.05-.35l1.97-1.78-1.88,1.09c-.14.08-.32.03-.4-.11-.07-.13-.04-.29.07-.38l1.21-.96-1.06.61c-.14.08-.32.03-.4-.11-.07-.13-.04-.29.08-.38l.52-.39-.35.2c-.14.08-.32.03-.4-.11-.07-.13-.04-.29.08-.38l.43-.32-.26.15c-.14.08-.32.03-.4-.11-.07-.13-.04-.29.07-.38l1.21-.93-1.06.61c-.14.08-.32.03-.4-.11-.07-.12-.04-.28.06-.37l2.48-2.11-2.41,1.39c-.13.09-.32.06-.41-.08-.09-.13-.06-.32.08-.41l1.38-1.09-1.24.71c-.14.08-.32.03-.4-.11-.07-.12-.04-.28.06-.37l.36-.32-.18.1c-.14.08-.32.03-.4-.11-.06-.1-.05-.22,0-.31l.22-.33c-.16-.01-.29-.15-.28-.31,0-.1.06-.19.15-.24l.87-.5c.14-.08.32-.03.4.11.06.1.05.22,0,.31l-.16.24,1.76-1.01c.14-.08.32-.03.4.11.07.12.04.27-.06.36l-.36.32,1.98-1.14c.14-.08.32-.03.4.11.07.13.04.29-.07.38l-1.37,1.09,1.79-1.04c.14-.08.32-.03.4.11.07.12.04.28-.06.37l-2.48,2.11,2.14-1.24c.14-.08.32-.03.4.11.07.13.04.29-.07.38l-1.21.93.89-.51c.14-.08.32-.03.4.11.07.13.04.29-.08.38l-.43.32.11-.06c.14-.08.32-.03.4.11.07.13.04.29-.08.38l-.52.39.2-.12c.14-.08.32-.03.4.11.07.12.04.28-.07.37l-1.2.96.87-.5c.14-.08.32-.02.4.12.06.12.04.26-.05.35l-1.97,1.78,1.63-.94c.14-.08.32-.03.4.11.07.12.04.27-.06.37l-1.53,1.34,1.19-.69c.13-.08.3-.04.39.09.09.13.06.3-.06.4l-.55.44.22-.13c.14-.08.32-.03.4.11.07.13.04.29-.07.38l-.47.37.14-.08c.14-.08.32-.03.4.11.07.12.05.26-.05.35l-1.59,1.56,1.23-.71c.14-.08.32-.03.4.12.06.11.04.25-.05.35l-1.42,1.42,1.06-.61c.14-.08.32-.03.4.11.07.12.04.28-.07.37l-.27.22c.16-.04.32.05.36.21.03.1,0,.22-.08.29l-.26.24c.16-.03.31.07.35.23.02.12-.03.25-.14.31l-2.07,1.2s-.09.04-.14.04h0Z"/>
  <path class="cls-2" d="m22.73,3.76c-1.07-.22-2.06-.26-3.15-.5-1.82-4.19-2.3-3.98-4.09.06-4.41.46-4.58.66-1.21,3.63-1.04,4.54-.72,4.39,3.16,2.25,3.92,2.25,4.35,2.16,3.32-2.36.41-.68,3.58-2.57,1.96-3.09Zm-8.45,3.18,3.26,2.22s.03-.01.04-.02c.12-.07.04.01-.04.02Zm4.62-4.56c-2.53,2.23-2.43,2.03-1.79,5.32-2.5-1.71-3.31-1.4-5.79.12.82-3.22.7-3.66-1.92-5.73,3.06-.27,3.68-.28,4.83-3.29,1.47,3.44,1.42,2.8,4.87,3.31.06.06-.1.16-.2.26Z"/>
  <path class="cls-2" d="m11.75,8.03c-.72-.17-1.37-.18-2.12-.35-1.12-3-1.87-2.82-2.98.06-3.05.33-3.02.59-.84,2.63-.66,2.85-.38,3.34,2.22,1.64,2.64,1.72,3.13,1.15,2.4-1.79.3-.54,2.35-1.72,1.32-2.19h0Zm-.59.57c-1.38,1.24-1.88,1.76-1.29,3.65-1.37-1.16-2.19-.81-3.55.11.53-2.42.4-2.3-1.22-3.89,1.59-.09,2.55-.37,2.98-2.04.58,1.91,1.35,1.9,3.14,2.09,0,0,.01,0,.01,0,0,.02-.06.06-.08.08h0Z"/>
  <path class="cls-2" d="m30.47,8.03c-.72-.17-1.37-.18-2.12-.35-1.12-3-1.87-2.82-2.98.06-3.05.33-3.03.59-.84,2.63-.66,2.85-.38,3.34,2.22,1.64,2.64,1.72,3.13,1.15,2.4-1.79.3-.54,2.35-1.72,1.32-2.19h0Zm-.59.57c-1.38,1.24-1.88,1.76-1.29,3.65-1.37-1.16-2.19-.81-3.55.11.53-2.42.39-2.3-1.22-3.89,1.59-.09,2.55-.37,2.98-2.04.58,1.91,1.35,1.9,3.14,2.09,0,0,.01,0,.01,0,0,.02-.06.06-.08.08h0Z"/>
  <path class="cls-2" d="m15.23,34.3h0s-.01,0,0,0Z"/>
  <path class="cls-2" d="m.05,27.03c-.21,1.02.36,1.6,1.37,1.55,1.6.41,2.66-.38,2.67-2.04.88.14,1.94.27,2.32-.61l1.17.27c-1.65,1.04-.92,3.57,1.12,3.07-.24.87.28,1.76,1.15,2,.28.08.58.08.86,0-.4,1.36,1.17,2.36,2.36,1.82.04,2.54,3.19,1.66,4.08.07.98,1.56,3.75,1.33,3.86-.61,1,.3,2.41-.58,2.33-1.64,1.24.45,3.04-1.07,2.14-2.37,1.06-.13,2.02-1.05,1.7-2.06l1.31-.36c.31,1.1,1.47.86,2.4.67.15,1.55.72,2.57,2.43,1.95.56-.1,1.45-.14,1.65-.79.08-1.53,0-3.1.03-4.64,0-2.9,0-5.8,0-8.7-.5-1.42-2.53-.15-3.62-.2-.88.16-2.7.19-2.87,1.29-.91.14-2.1.33-2.01,1.43-1.26.2-2.31-1.18-3.39-1.71-1.24-.88-2.47-1.79-4.06-1.19-1.42-.32-2.81-.93-4.26-1.09-2.69-.02-4.1,3.73-6.69,3.48.03-1.06-1.13-1.15-2.04-1.25-.24-1.49-2.45-.92-3.55-1.29-.84-.12-2.4-.44-2.46.83-.14,4.04.06,8.1,0,12.14h0Zm8.38,1.86c-1.26-.33-1.17-1.93-.22-2.58.25.02.59-.21.45-.47.15-.17.31-.33.49-.46,0,0,.07-.04.09-.05.01,0,.02,0,.03,0-.1.02.12-.02.13-.01,2.29.55.52,2.67-.55,3.54.03-.02-.09.04-.08.04-.02.01-.05.03,0,0-.11.03-.23.03-.35,0h0Zm1.91,1.87c-2.13-.93.31-3.16,1.42-3.85,2.7.27,0,3.86-1.42,3.85h0Zm1.63,1.75c-1.51-1.32,1.23-3.53,2.33-4.1.69.13,1.15.79,1.03,1.48-.04.22-.14.42-.28.59-.93.6-1.8,2.88-3.08,2.02h0Zm3.66,1.44c-.1.12-.22.22-.34.31,0,0-.07.04-.09.05-.01,0-.02,0-.03,0,.1-.02-.12.02-.13,0-2.26-.54-.57-2.71.55-3.55,2.19-.06,1.38,2.25.04,3.17h0Zm14.47-18.97c1.02.08,3.63-1.31,4.02-.16-.04,4.46.11,8.98-.04,13.41-2.44,1.05-2.25-1.49-2.68-3.13.05-1.69-3.32-10.25-1.3-10.12Zm-2.47,1.46c.29-.1.59-.16.9-.18.73,3.32,1.5,6.62,2.21,9.94-1.84.79-1.57-1.57-1.95-2.71-.15-2.07-1.83-5.31-1.15-7.05h0Zm-6.77-1.68c1.85.87,3.48,3.23,5.68,2.7.63,2.78,1.19,5.57,1.85,8.34l-1.37.37c-2.67-2.7-5.41-5.6-8.39-7.91-2.21-.6-3.29,1.67-4.69,2.91-.58.48-1.43.4-1.91-.18-.06-.07-.11-.15-.16-.24-.82-1.87,1.69-3.91,2.96-5.02,1.93-.39,4.06-1.73,6.01-.96h0Zm-10.98,1.95c3.1-2.36,3.99-3.95,8.04-2.2-1.32.43-2.75.6-3.98,1.23-1.2,1.35-3.95,3.36-2.81,5.37.64.77,1.71,1.03,2.64.64,1.78-.47,2.6-3.92,4.64-2.9,2.59,2.38,5.07,4.92,7.64,7.34.75.9-.06,2.58-1.2,1.63-1.91-.11.51,1.06-.04,2.01-.31,1-1.41.67-1.89,0-.17-.17-.98.11-.8.31,1.03,1.34-.29,2.99-1.55,1.32-.17-.16-.98.11-.8.31,1.33,2.23-.97,2.54-2.13.75.7-1.12-.47-2.46-1.69-2.2.93-1.4-.74-2.92-2.15-2.27.15-1.27-1.35-2.05-2.41-1.56.15-1.78-2.34-2.08-3.28-.89l-1.55-.35c.47-2.72,1.01-5.43,1.46-8.16.65.12,1.32-.03,1.85-.41h0Zm-2.66.2c-.49,2.83-1.03,5.66-1.53,8.49.03.93-.86.71-1.5.55.6-3.34,1.19-6.68,1.79-10.02.62.02,1.43.18,1.24.97h0ZM.9,14.76c.02-.33-.12-.58.35-.43,1.19.46,3.72-.27,3.97,1.33-.75,4.08-1.43,8.19-2.19,12.26-.13.43-.22.4-.6.35-.63-.07-1.64-.03-1.53-.91,0-4.2,0-8.4,0-12.6h0Z"/>
</svg>