<?xml version="1.0" encoding="UTF-8"?>
<svg id="Layer_1" data-name="Layer 1" xmlns="http://www.w3.org/2000/svg" viewBox="0 0 35 35">
  <defs>
    <style>
      .cls-1 {
        fill: #f47721;
      }

      .cls-1, .cls-2, .cls-3, .cls-4 {
        stroke-width: 0px;
      }

      .cls-3 {
        fill: #fff;
      }

      .cls-4 {
        fill: #c1dbf0;
      }
    </style>
  </defs>
  <path class="cls-3" d="m14.35,33.05c-.16,0-.29-.13-.29-.3,0-.09.04-.18.12-.23l1.92-1.4-2.59,1.49c-.14.08-.32.03-.4-.11-.07-.13-.04-.29.08-.38l1.28-.93-.97.56c-.14.08-.32.03-.4-.11-.07-.12-.04-.27.06-.36l1.64-1.43-1.3.75c-.14.08-.32.03-.4-.11-.06-.1-.05-.23.02-.32l.83-1.1-.45.26c-.14.08-.32.03-.4-.11-.04-.07-.05-.15-.03-.23l.14-.47s-.09-.06-.12-.11c-.08-.14-.03-.32.11-.4l.29-.17c.14-.08.32-.03.4.11.04.07.05.15.03.23l-.08.27,1.06-.61c.14-.08.32-.03.4.11.06.1.05.23-.02.32l-.83,1.1,2.66-1.54c.14-.08.32-.03.4.11.07.12.04.27-.06.36l-1.63,1.43,3.3-1.9c.14-.08.32-.03.4.11.07.13.04.29-.08.38l-1.28.93,2.46-1.42c.14-.08.32-.03.4.11.07.13.04.29-.08.38l-1.92,1.4,2.34-1.35c.14-.08.32-.03.4.11.07.12.04.28-.06.37l-2.39,2.03,2.06-1.19c.14-.08.32-.04.4.1.07.12.05.27-.05.36l-1.14,1.06.8-.46c.14-.08.32-.03.4.11.05.08.05.18.01.26l-.41.92c.14-.08.32-.03.4.11.08.14.03.32-.11.4l-.78.45c-.14.08-.32.03-.4-.11-.05-.08-.05-.18-.01-.26l.41-.92-2.24,1.3c-.14.08-.32.03-.4-.11-.07-.12-.05-.27.05-.36l1.14-1.06-2.66,1.53c-.14.08-.32.03-.4-.11-.07-.12-.04-.28.06-.37l2.39-2.03-4.34,2.51s-.09.04-.15.04h0Z"/>
  <path class="cls-4" d="m26.57,28.95c-.16,0-.29-.13-.29-.29,0-.1.05-.18.12-.24l1.82-1.27-3.05,1.76c-.14.08-.32.03-.4-.11-.07-.13-.04-.29.08-.38l3.13-2.22-4.7,2.71c-.14.08-.32.03-.4-.11-.07-.13-.04-.29.08-.38l3.8-2.83-5.75,3.32c-.14.08-.32.03-.4-.11-.08-.13-.04-.3.08-.38l3.35-2.41-5.02,2.9c-.14.08-.32.02-.4-.12-.07-.13-.03-.29.08-.37l2.24-1.53-3.51,2.03c-.14.08-.32.03-.4-.1-.08-.13-.04-.3.08-.38l3.53-2.57-5.31,3.06c-.14.08-.32.03-.4-.11-.07-.13-.04-.29.08-.38l3.75-2.78-5.65,3.26c-.14.08-.32.03-.4-.11-.07-.13-.04-.29.08-.38l3.03-2.14-4.56,2.63c-.14.08-.32.03-.4-.12-.07-.13-.03-.29.08-.38l2.81-1.97-4.26,2.46c-.14.08-.32.03-.4-.11-.07-.13-.04-.29.08-.38l3.57-2.61-5.37,3.1c-.14.08-.32.03-.4-.11-.07-.13-.04-.29.08-.37l3.86-2.89-5.85,3.38c-.13.08-.31.04-.39-.09-.08-.13-.05-.3.07-.39l3.6-2.64-5.17,2.98c-.14.08-.32.03-.4-.11-.08-.13-.04-.3.09-.39l1.42-.96-1.91,1.1c-.14.08-.32.03-.4-.11-.07-.13-.03-.29.09-.38l.89-.6-1.15.67c-.13.09-.32.05-.4-.08-.09-.13-.05-.32.08-.4h0l2.7-2.04-3.02,1.75c-.14.08-.32.03-.4-.11-.07-.12-.04-.27.06-.36l2.33-1.96-2.41,1.39c-.14.08-.32.03-.4-.12-.06-.11-.04-.25.05-.34l1.5-1.49-1.22.71c-.14.08-.32.03-.4-.11-.05-.08-.05-.18-.01-.27l.58-1.2s-.08-.06-.11-.11c-.08-.14-.04-.32.1-.4h0s.41-.24.41-.24c.14-.08.32-.03.4.11.05.08.05.18.01.27l-.47.97,2.34-1.35c.14-.08.32-.03.4.12.06.11.04.25-.05.34l-1.5,1.49,3.38-1.95c.14-.08.32-.03.4.11.07.12.04.27-.06.36l-2.33,1.96,4.21-2.43c.14-.08.32-.03.4.11.07.13.04.29-.08.38l-2.7,2.04,4.37-2.53c.14-.08.32-.03.4.11.08.13.04.3-.09.39l-.89.6,1.89-1.09c.14-.08.32-.03.4.11.07.13.03.29-.09.38l-1.42.96,2.52-1.46c.14-.08.32-.03.4.11.07.13.04.29-.08.38l-3.6,2.63,5.41-3.12c.14-.08.32-.03.4.11.07.13.04.29-.08.37l-3.86,2.89,5.86-3.38c.14-.08.32-.03.4.11.07.13.04.29-.08.38l-3.57,2.61,5.37-3.1c.14-.08.32-.03.4.11.07.13.04.29-.08.38l-2.81,1.97,4.26-2.46c.14-.08.32-.03.4.11.08.13.04.3-.08.38l-3.03,2.14,4.56-2.63c.14-.08.32-.03.4.11.07.13.04.29-.08.38l-3.74,2.78,5.66-3.27c.14-.08.32-.03.4.1.08.13.04.3-.08.38l-3.53,2.57,5.31-3.06c.14-.08.32-.03.4.11.07.13.04.29-.09.38l-2.24,1.53,3.51-2.03c.14-.08.32-.03.4.11.08.13.04.3-.08.38l-3.35,2.41,5.02-2.9c.14-.08.32-.03.4.11.07.13.04.29-.08.38l-3.8,2.83,5.75-3.32c.14-.08.32-.03.4.11.07.13.04.29-.08.38l-3.13,2.23,3.67-2.12c.14-.08.32-.03.4.11.07.13.04.29-.08.38l-1.82,1.27,1.79-1.03c.14-.08.32-.03.4.11.07.13.04.29-.08.38l-1.69,1.22,1.37-.79c.14-.08.32-.03.4.11.07.12.04.27-.06.36l-1.86,1.65,1.26-.73c.14-.08.32-.04.4.1.07.12.05.28-.06.37l-.72.62s.06.06.08.09c.08.14.03.32-.11.4l-1.71.99c-.14.08-.32.03-.4-.11-.07-.12-.04-.28.06-.37l.02-.02-1.03.59c-.14.08-.32.03-.4-.11-.07-.12-.04-.27.06-.36l1.86-1.65-3.68,2.12c-.14.08-.32.03-.4-.11-.07-.13-.04-.29.08-.38l1.69-1.22-2.97,1.71s-.09.04-.14.04h0Z"/>
  <path class="cls-3" d="m19.95,34.79c-.16,0-.29-.13-.29-.29,0-.09.04-.17.11-.23l.07-.06-.93.53c-.14.08-.32.03-.4-.11-.06-.11-.05-.24.03-.33l.85-.98-2.47,1.43c-.14.08-.32.03-.4-.11-.06-.1-.05-.23.02-.33l.87-1.1-2.65,1.53c-.14.08-.32.03-.4-.11-.06-.11-.05-.24.03-.33l.86-1.02-2.53,1.46c-.14.08-.32.03-.4-.11-.06-.1-.05-.23.02-.33l.87-1.11-2.67,1.54c-.14.08-.32.04-.4-.1-.07-.12-.05-.28.05-.37l.62-.58-1.48.85c-.14.08-.32.03-.4-.11-.07-.11-.05-.26.04-.35l.57-.58-.68.39c-.14.08-.32.03-.4-.11-.06-.1-.05-.22.02-.32l.32-.43c-.16-.02-.27-.17-.25-.33.01-.09.06-.17.14-.22l.97-.56c.14-.08.32-.03.4.11.06.1.05.22-.02.32l-.23.31,1.28-.74c.14-.08.32-.03.4.11.06.11.05.25-.04.35l-.57.58,1.8-1.04c.14-.08.32-.04.4.1.07.12.05.28-.05.37l-.62.58,1.82-1.05c.14-.08.32-.03.4.11.06.1.05.23-.02.33l-.87,1.11,2.67-1.54c.14-.08.32-.03.4.11.06.11.05.24-.03.33l-.86,1.02,2.53-1.46c.12-.07.28-.04.37.06.09.11.09.26,0,.37l-.87,1.1,2.65-1.53c.14-.08.32-.03.4.11.06.11.05.24-.03.33l-.86.98,2.47-1.43c.14-.08.32-.03.4.11.07.12.04.27-.07.36l-.07.06.92-.53c.14-.08.32-.03.4.11.06.11.05.25-.04.34l-.83.91,2.11-1.22c.14-.08.32-.03.4.11.07.12.04.27-.06.36l-.12.11.24-.14c.14-.08.32-.03.4.11.05.09.05.21,0,.3l-.45.7.1-.06c.14-.08.32-.03.4.11.08.14.03.32-.11.4l-1.15.66c-.14.08-.32.03-.4-.11-.05-.09-.05-.21,0-.3l.45-.7-1.92,1.11c-.14.08-.32.03-.4-.11-.07-.12-.04-.27.06-.36l.12-.11-1.01.58c-.14.08-.32.03-.4-.11-.06-.11-.05-.25.04-.34l.83-.91-2.35,1.35s-.1.04-.15.04Z"/>
  <path class="cls-3" d="m1.41,24.3c-.16,0-.29-.13-.29-.29,0-.1.05-.2.14-.25l2.72-1.63-3.29,1.9c-.14.08-.32.02-.39-.12-.07-.13-.03-.3.1-.38l3.81-2.29-3.52,2.03c-.14.08-.32.02-.39-.12-.07-.13-.03-.3.1-.38l14.87-9.13L.69,22.06c-.14.08-.32.02-.4-.12-.07-.13-.03-.3.1-.38l10.5-6.38L.69,21.07c-.15.07-.32,0-.39-.14-.06-.13-.02-.28.09-.36l13.08-8.02L.69,19.93c-.14.08-.32.02-.4-.12-.07-.13-.03-.3.1-.38l5.83-3.52-5.54,3.2c-.14.08-.32.02-.4-.12-.07-.13-.03-.3.1-.38l4.38-2.65-4.08,2.36c-.14.08-.32.02-.4-.12-.07-.13-.03-.3.1-.38l3.27-1.98-2.97,1.72c-.14.08-.32.02-.4-.12-.07-.13-.03-.3.1-.38l6.11-3.72-5.82,3.36c-.14.08-.32.02-.39-.12-.07-.13-.03-.3.1-.38l.26-.16c-.15.06-.32,0-.38-.16-.05-.13,0-.28.11-.36l9.63-6.01L.69,14.89c-.14.08-.32.04-.4-.1-.08-.14-.04-.32.1-.4l6.64-4.11L.69,13.93c-.14.08-.32.03-.4-.11-.08-.14-.03-.31.1-.39l5.06-3.13L.69,13.05c-.14.08-.32.03-.4-.12-.07-.13-.03-.3.09-.38l8.56-5.5L.69,11.81c-.14.08-.32.03-.4-.11-.07-.13-.03-.3.09-.38l7.44-4.83L.69,10.6c-.14.08-.32.03-.4-.11-.07-.13-.03-.3.09-.38l5.97-3.91L.69,9.47c-.14.08-.32.02-.4-.12-.07-.13-.03-.29.08-.37l6.18-4.23L.69,8.13c-.14.08-.32.02-.39-.12-.07-.13-.03-.29.09-.38l.45-.29-.15.08c-.14.08-.32.03-.4-.11-.07-.13-.04-.29.08-.38l4.37-3.16L.69,6.12c-.14.08-.32.03-.4-.12-.07-.13-.03-.29.09-.38l.24-.16c-.12.04-.25-.01-.32-.12-.09-.13-.06-.3.06-.39l2.62-2.1-2.27,1.31c-.14.08-.32.03-.4-.11-.07-.13-.04-.29.08-.38l.43-.32c-.12.04-.25,0-.32-.11-.09-.12-.07-.29.04-.39l.88-.81c-.15-.06-.23-.22-.17-.37.02-.06.07-.12.13-.15l1.71-.99c.14-.08.32-.03.4.11.07.12.04.26-.05.36l-.53.49,1.82-1.05c.14-.08.32-.03.4.11.07.13.04.29-.08.38l-.38.29,1.34-.77c.14-.08.32-.03.4.11.07.12.04.28-.07.37l-2.61,2.1L8.16.45c.14-.08.32-.03.4.12.07.13.03.29-.09.38l-.13.09,1.01-.58c.14-.08.32-.03.4.11.07.13.04.29-.08.38l-4.37,3.16L11.62.45c.14-.08.32-.02.39.12.07.13.03.29-.09.38l-.44.28,1.35-.78c.14-.08.32-.02.4.12.07.13.03.29-.08.37l-6.18,4.23L15.15.45c.14-.08.32-.02.4.12.07.13.03.29-.09.38l-5.98,3.91L17.11.45c.14-.08.32-.02.39.12.07.13.03.29-.09.38l-7.44,4.83L19.21.45c.14-.08.32-.03.4.11.08.13.04.3-.09.39l-8.56,5.5L21.35.45c.14-.08.32-.03.4.11.07.13.03.3-.1.39l-5.06,3.13L22.88.45c.14-.08.32-.03.4.11.07.13.03.3-.1.39l-6.63,4.11L24.54.45c.14-.08.32-.02.4.12.07.13.03.3-.09.38l-9.63,6.01L26.48.45c.14-.08.32-.02.39.12.07.13.03.3-.1.38l-.18.11,1.06-.61c.14-.08.32-.02.39.12.07.13.03.3-.1.38l-6.11,3.72L29.16.45c.14-.08.32-.02.4.12.07.13.03.3-.1.38l-3.26,1.97L30.47.45c.14-.08.32-.02.4.12.07.13.03.3-.1.38l-4.37,2.64,5.23-3.02c.14-.08.32-.02.4.12.07.13.03.3-.1.38l-5.84,3.52,6.37-3.68c.14-.08.32-.04.4.1.08.14.04.32-.1.4l-13.08,8.02,13.6-7.85c.14-.08.32-.03.4.11.08.14.03.31-.1.39l-10.5,6.38,10.71-6.18c.14-.08.32-.04.4.1s.04.32-.1.4h0l-14.87,9.13,14.93-8.62c.14-.08.32-.02.39.12.07.13.03.3-.1.38l-3.79,2.27,3.55-2.05c.14-.08.32-.02.39.12.07.13.03.3-.1.38l-2.75,1.65,2.46-1.42c.14-.08.31-.03.4.1.08.14.04.31-.1.4l-12.09,7.41,11.79-6.81c.14-.08.32-.02.4.12.07.13.03.3-.1.38l-8.04,4.9,7.75-4.47c.14-.08.32-.02.4.12.07.13.03.3-.1.38l-10.78,6.66,10.48-6.05c.14-.07.32-.02.39.12.07.13.03.29-.09.38l-9.26,5.72,8.96-5.17c.14-.08.32-.03.4.11.08.14.03.31-.1.39l-3.49,2.13,3.19-1.84c.14-.07.32-.02.39.12.07.13.03.29-.1.38l-1.7,1.04,1.41-.81c.14-.08.32-.02.4.12.07.13.03.3-.09.38l-9.15,5.81,8.85-5.11c.14-.08.32-.02.4.12.07.13.03.3-.09.38l-7.17,4.54,6.87-3.97c.14-.08.32-.02.4.12.07.13.03.3-.09.38l-3.52,2.2,3.22-1.86c.14-.08.32-.03.4.11.08.13.04.3-.09.39l-6.74,4.41,6.44-3.72c.14-.09.32-.04.4.09s.04.32-.09.4l-6.29,4.23,5.98-3.45c.14-.09.32-.04.4.09s.04.32-.09.4l-4.52,3.05,4.21-2.43c.14-.08.32-.03.4.11.08.13.04.3-.09.39l-3.79,2.63,3.48-2.01c.14-.08.32-.03.4.11.07.13.04.29-.08.38l-2.82,2.02,2.51-1.45c.14-.08.32-.03.4.11.07.13.04.29-.08.38l-1.92,1.42,1.6-.92c.14-.08.32-.03.4.11.07.13.04.29-.08.38l-.71.53.39-.22c.14-.08.32-.03.4.11.06.11.05.25-.04.34l-1.13,1.18.78-.45c.14-.08.32-.03.4.11.04.08.05.17.02.25l-.29.73c.11,0,.22.05.28.14.08.14.03.32-.11.4l-.59.34c-.14.08-.32.03-.4-.11-.04-.08-.05-.17-.02-.25l.28-.69-1.82,1.05c-.14.08-.32.03-.4-.11-.06-.11-.05-.25.04-.34l1.13-1.18-2.84,1.64c-.14.08-.32.03-.4-.11-.07-.13-.04-.29.08-.38l.71-.53-1.76,1.02c-.14.08-.32.03-.4-.11-.07-.13-.04-.29.08-.37l1.92-1.43-3.31,1.91c-.14.08-.32.03-.4-.11-.07-.13-.04-.29.08-.38l2.82-2.02-4.35,2.51c-.14.08-.32.04-.4-.1-.08-.13-.04-.31.09-.39l3.79-2.63-5.41,3.12c-.14.08-.32.03-.4-.11-.08-.13-.04-.3.09-.39l4.52-3.05-6.14,3.54c-.14.08-.32.03-.4-.11-.08-.13-.04-.3.09-.39l6.29-4.23-8.18,4.72c-.14.08-.32.04-.4-.1-.08-.14-.04-.32.1-.4l6.74-4.41-8.49,4.9c-.14.08-.32.02-.39-.12-.07-.13-.03-.29.09-.38l3.51-2.19-4.67,2.7c-.14.08-.32.03-.4-.12-.07-.13-.03-.3.09-.38l7.18-4.55-8.75,5.05c-.14.08-.32.03-.4-.12-.07-.13-.03-.3.09-.38l9.15-5.8-10.92,6.3c-.14.08-.32.03-.4-.11-.08-.14-.03-.31.1-.39l1.7-1.04-2.67,1.54c-.14.08-.32.03-.4-.11-.08-.14-.03-.31.1-.39l3.48-2.12-4.54,2.62c-.14.08-.32.02-.4-.12-.07-.13-.03-.3.1-.38l9.26-5.73-10.79,6.23c-.14.08-.32.04-.4-.1-.08-.14-.04-.32.1-.4l10.78-6.66-12.4,7.16c-.14.08-.32.03-.4-.11-.08-.14-.03-.31.1-.39l8.03-4.89-9.34,5.39c-.14.08-.32.04-.4-.1s-.04-.32.1-.4l12.1-7.42L1.56,24.27s-.09.04-.15.04h0Z"/>
  <path class="cls-3" d="m13.4,10.31c-.16,0-.29-.13-.29-.29,0-.1.05-.19.13-.24l.19-.13-1.07.62c-.14.08-.32.03-.4-.11-.08-.13-.04-.3.09-.39l.36-.24-.05.03c-.14.08-.32.03-.4-.1-.08-.13-.04-.3.09-.39l2.65-1.87-2.32,1.34c-.14.08-.32.03-.4-.11-.07-.13-.04-.29.08-.38l2.01-1.43-1.58.91c-.14.08-.32.03-.4-.11-.08-.13-.04-.3.08-.38l1.12-.81-.56.32c-.14.08-.32.03-.4-.1-.07-.12-.05-.26.05-.36l1.46-1.42c-.15.06-.32-.02-.37-.17-.05-.13,0-.28.13-.35l1.98-1.14c.14-.08.32-.03.4.1.07.12.05.26-.05.36l-1.45,1.41,3.57-2.06c.14-.08.32-.03.4.11.08.13.04.3-.08.38l-1.12.81,1.87-1.08c.14-.08.32-.03.4.11.07.13.04.29-.08.38l-2.01,1.43,2.64-1.52c.14-.08.32-.02.4.12.07.13.03.29-.08.37l-2.65,1.87,3.12-1.8c.14-.08.32-.03.4.11.08.13.04.3-.09.39l-.36.23.49-.28c.14-.08.32-.03.4.11.08.13.04.3-.09.39l-.19.12.23-.13c.14-.08.32-.03.4.11.07.13.04.29-.08.38l-2.59,1.95,2.71-1.56c.14-.08.32-.03.4.11.07.13.04.29-.08.38l-1.31.97,1.22-.71c.14-.08.32-.04.4.1.07.12.04.28-.07.37l-1.19.98,1.02-.59c.14-.08.32-.03.4.11.06.1.05.23-.02.32l-.88,1.13.58-.34c.14-.08.32-.03.4.11.04.07.05.14.03.22l-.15.58c.15.07.21.24.14.39-.03.05-.07.1-.12.13l-.29.17c-.14.08-.32.03-.4-.11-.04-.07-.05-.14-.03-.22l.1-.42-1.29.74c-.14.08-.32.03-.4-.11-.06-.1-.05-.23.02-.32l.88-1.13-2.71,1.57c-.14.08-.32.03-.4-.11-.07-.12-.04-.28.07-.37l1.19-.98-2.54,1.46c-.14.08-.32.03-.4-.11-.07-.13-.04-.29.08-.38l1.31-.97-2.53,1.46c-.14.08-.32.03-.4-.11-.07-.13-.04-.29.08-.38l2.59-1.95-4.22,2.44s-.09.04-.15.04h0Z"/>
  <path class="cls-1" d="m9.08,24.3c-.16,0-.29-.13-.29-.3,0-.09.04-.18.12-.23l4.2-3.06-4.25,2.45c-.14.08-.32.03-.4-.11-.07-.13-.04-.29.08-.38l3.09-2.33-2.76,1.59c-.14.08-.32.03-.4-.11-.07-.12-.04-.28.07-.37l1.88-1.48-1.26.73c-.14.08-.32.03-.4-.11-.07-.12-.04-.27.06-.37l1.01-.89c-.06-.02-.11-.07-.15-.13-.08-.14-.03-.32.11-.4l1.87-1.08c.14-.08.32-.03.4.11.07.12.04.27-.06.36l-.61.54,2.25-1.3c.14-.08.32-.03.4.11.07.12.04.28-.07.37l-1.88,1.48,3.4-1.97c.14-.08.32-.03.4.11.07.13.04.29-.08.38l-3.09,2.33,4.88-2.81c.14-.08.32-.03.4.11.07.13.04.29-.08.38l-4.2,3.06,6.14-3.54c.14-.08.32-.03.4.12.07.13.03.29-.09.38l-1.88,1.25,3.02-1.74c.14-.08.32-.03.4.11.07.13.04.29-.08.38l-4.29,3.14,5.73-3.31c.14-.08.32-.03.4.11.08.13.04.3-.09.39l-2.1,1.42,2.67-1.54c.14-.08.32-.03.4.11.07.13.04.29-.08.38l-2.48,1.73,2.9-1.68c.14-.08.32-.03.4.11.07.13.04.29-.08.38l-2.18,1.56,2.43-1.4c.14-.08.32-.03.4.11.07.13.04.29-.07.37l-2.25,1.74,2.39-1.38c.14-.08.32-.03.4.11.07.13.04.28-.07.37l-1.03.79.93-.54c.14-.08.32-.03.4.11.07.13.04.29-.07.38l-.32.25.08-.04c.14-.08.32-.03.4.11.06.11.05.24-.03.33l-.73.87.38-.22c.14-.08.32-.03.4.11.04.07.05.15.03.22l-.14.52c.05.03.09.07.12.12.08.14.03.32-.11.4l-.29.17c-.14.08-.32.03-.4-.11-.04-.07-.05-.15-.03-.22l.1-.35-1.18.68c-.14.08-.32.03-.4-.11-.06-.11-.05-.24.03-.33l.73-.87-2.27,1.31c-.14.08-.32.03-.4-.11-.07-.13-.04-.29.07-.38l.32-.25-1.27.73c-.14.08-.32.03-.4-.11-.07-.13-.04-.29.07-.37l1.04-.78-2.2,1.27c-.14.08-.32.03-.4-.11-.07-.13-.04-.29.07-.37l2.25-1.74-3.85,2.22c-.14.08-.32.03-.4-.11-.07-.13-.04-.29.08-.38l2.18-1.56-3.55,2.05c-.14.08-.32.03-.4-.11-.08-.13-.04-.3.09-.38l2.48-1.74-3.86,2.23c-.14.08-.32.03-.4-.11-.08-.13-.04-.3.09-.39l2.1-1.42-3.32,1.92c-.14.08-.32.03-.4-.11-.07-.13-.04-.29.08-.38l4.29-3.14-6.3,3.64c-.14.08-.32.03-.4-.11-.08-.13-.04-.3.09-.39l1.88-1.25-3.03,1.75s-.09.04-.14.04h0Z"/>
  <path class="cls-3" d="m19.66,20.5c-.16,0-.29-.13-.29-.29,0-.07.03-.14.07-.19l.74-.84-1.16.67c-.14.08-.32.04-.4-.1-.07-.12-.05-.27.05-.36l.66-.64-.9.52c-.14.08-.32.03-.4-.11-.06-.11-.05-.24.03-.33l.85-1.01-1.22.71c-.14.09-.32.05-.4-.09-.09-.14-.05-.32.09-.4,0,0,.01,0,.02-.01l2.66-1.54c.14-.08.32-.03.4.11.06.11.05.24-.03.33l-.85,1.01,1.51-.87c.14-.08.32-.04.4.1.07.12.05.27-.05.36l-.66.64.64-.37c.14-.08.32-.03.4.11.06.11.05.24-.03.34l-1.17,1.34s.03.04.05.06c.08.14.03.32-.11.4,0,0,0,0,0,0l-.74.43s-.1.04-.15.04h0Z"/>
  <path class="cls-3" d="m14.58,20.23c-.16,0-.29-.13-.29-.29,0-.08.03-.16.1-.22l1.5-1.36-1.73,1c-.14.08-.32.03-.4-.11-.07-.12-.04-.26.05-.36l.62-.56-.7.4c-.14.08-.32.03-.4-.11-.06-.1-.05-.22.01-.31l.46-.65-.58.33c-.14.09-.32.05-.4-.09-.09-.14-.05-.32.09-.4,0,0,.01,0,.02-.01l1.73-1c.14-.08.32-.03.4.11.06.1.05.22-.01.31l-.46.65,1.86-1.07c.14-.08.32-.03.4.11.07.12.04.26-.05.36l-.62.56,1.79-1.03c.14-.08.32-.03.4.11.06.12.04.26-.05.35l-1.5,1.36.17-.1c.14-.09.32-.05.4.09.09.14.05.32-.09.4,0,0-.01,0-.02.01l-2.54,1.47s-.1.04-.15.04h0Z"/>
  <path class="cls-3" d="m18.1,18.26c-.16,0-.29-.13-.29-.29,0-.07.03-.14.08-.2l.63-.7-1.83,1.06c-.14.08-.32.03-.4-.11-.07-.12-.04-.27.06-.36l.6-.51-1.08.62c-.14.08-.32.04-.4-.1-.07-.12-.05-.28.06-.37l.72-.63-1.13.65c-.14.08-.32.03-.4-.11-.07-.11-.05-.26.04-.35l.58-.6-.47.27c-.14.08-.32.03-.4-.11-.06-.1-.05-.21,0-.31l.5-.75s-.02-.02-.02-.04c-.08-.14-.03-.32.11-.4l.39-.23c.12-.07.27-.05.36.05.09.1.11.25.03.36l-.19.29,1.22-.71c.14-.08.32-.03.4.11.06.11.05.25-.04.35l-.58.6,1.83-1.06c.14-.08.32-.03.4.11.07.12.04.27-.06.37l-.72.63,1.42-.82c.14-.08.32-.03.4.11.07.12.04.28-.06.37l-.61.5.56-.32c.14-.08.32-.03.4.11.06.11.05.25-.04.34l-.63.7.61-.35c.14-.07.32-.02.39.12.07.13.03.3-.1.38l-2.21,1.28s-.09.04-.15.04h0Z"/>
  <path class="cls-4" d="m13.18,12.62c-.16,0-.29-.13-.29-.29,0-.06.02-.12.06-.17l.5-.68-1.67.97c-.14.08-.32.03-.4-.11-.07-.11-.05-.26.05-.35l1.33-1.34-1.56.9c-.14.08-.32.03-.4-.11-.06-.11-.05-.25.04-.35l.92-.96-.57.33c-.14.08-.32.03-.4-.11-.05-.09-.05-.19,0-.28l.28-.52c-.16,0-.29-.14-.28-.3,0-.1.06-.19.15-.24l.68-.39c.14-.08.32-.03.4.11.05.09.05.19,0,.28l-.24.45,1.46-.85c.14-.08.32-.03.4.11.06.11.05.25-.04.35l-.92.96,1.69-.97c.14-.08.32-.02.4.12.06.11.04.25-.05.34l-1.33,1.34.98-.57c.14-.08.32-.03.4.11.06.1.05.23-.02.32l-.5.68.13-.07c.14-.09.32-.05.4.09.09.14.05.32-.09.4,0,0-.01,0-.02.01l-1.33.77s-.09.04-.15.04h0Z"/>
  <path class="cls-4" d="m20.56,12.64c-.16,0-.29-.13-.29-.29,0-.08.04-.16.1-.22l1.18-1.06-1.03.59c-.14.08-.32.03-.4-.11-.07-.12-.04-.27.06-.36l.46-.39-.13.08c-.14.08-.32.03-.4-.11-.06-.11-.05-.24.03-.34l.38-.43h-.01c-.14.09-.32.04-.4-.1-.04-.07-.05-.16-.02-.24l.13-.38c-.14-.08-.18-.26-.1-.4.03-.04.06-.08.1-.1l.29-.17c.11-.06.24-.05.33.03.09.08.13.2.09.32l-.06.17.89-.51c.14-.08.32-.03.4.11.06.11.05.24-.03.33l-.38.43,1.49-.86c.14-.08.32-.03.4.11.07.12.04.28-.06.37l-.46.39.57-.33c.14-.08.32-.03.4.11.07.12.04.27-.06.36l-1.18,1.06.84-.49c.14-.08.32-.03.4.11.06.1.05.22-.02.31l-.56.78.09-.05c.14-.09.32-.05.4.09s.05.32-.09.4c0,0-.01,0-.02.01l-1.26.72c-.14.08-.32.03-.4-.11-.06-.1-.05-.22.02-.31l.56-.78-2.11,1.22s-.09.04-.15.04h0Z"/>
  <path class="cls-3" d="m18.04,16.12c-.16,0-.29-.13-.29-.29,0-.08.03-.15.09-.21l1.2-1.17-2.58,1.49c-.14.08-.32.03-.4-.11-.07-.13-.04-.29.08-.37l.51-.38-.77.45c-.14.08-.32.03-.4-.11-.07-.12-.04-.28.07-.37l2.41-1.97-2.99,1.72c-.14.08-.32.03-.4-.1-.07-.13-.04-.29.07-.38l3.03-2.41-3.41,1.97c-.14.08-.32.03-.4-.11-.07-.13-.04-.29.08-.38l1.21-.85-1.06.61c-.14.08-.32.03-.4-.11-.07-.13-.04-.29.08-.38l3.15-2.4-2.83,1.64c-.14.08-.32.03-.4-.11-.07-.12-.04-.28.07-.37l3.11-2.47-2.79,1.61c-.14.08-.32.03-.4-.11-.07-.12-.04-.28.07-.37l2.62-2.16-2.29,1.32c-.14.08-.32.03-.4-.11-.07-.12-.04-.28.07-.37l1.28-1.01-.83.48c-.14.08-.32.03-.4-.11-.07-.12-.05-.26.05-.35l1.03-1.01c-.16,0-.29-.14-.28-.3,0-.1.06-.19.15-.24l1.71-.99c.14-.08.32-.03.4.11.07.12.05.26-.05.35l-.9.88,2.28-1.32c.14-.08.32-.03.4.1.07.13.04.29-.07.38l-1.27,1.01,1.88-1.08c.14-.08.32-.03.4.11.07.12.04.28-.07.37l-2.62,2.17,3.19-1.84c.14-.08.32-.03.4.11.07.12.04.28-.07.37l-3.12,2.47,3.34-1.93c.14-.08.32-.03.4.11.07.13.04.29-.07.37l-3.15,2.4,3.01-1.74c.14-.08.32-.03.4.11.07.13.04.29-.08.38l-1.22.85.91-.52c.14-.08.32-.03.4.11.07.12.04.28-.07.37l-3.02,2.41,2.7-1.56c.14-.08.32-.03.4.11.07.12.04.28-.07.37l-2.41,1.97,2.08-1.2c.14-.08.32-.03.4.11.07.13.04.29-.08.38l-.52.38.18-.11c.14-.08.32-.03.4.1.07.12.05.26-.05.36l-1.52,1.48c.15.06.22.23.16.38-.02.06-.07.11-.13.15l-1.44.83s-.1.04-.15.04h0Z"/>
  <g>
    <path class="cls-2" d="m32.93.93c-5.61-1.27-11.73-.14-17.51-.51C10.8,1.29,1.06-2.31.1,4.27c.28,7.46-.58,15.16.33,22.52,2.53,3.99,8.52,1.49,12.5,2.15v3c-1.44.16-3.33-.51-4.41.71-.67.93.04,1.91,1.01,2.09,5.06.06,10.14.1,15.2.02,1.54.21,2.7-1.91,1.08-2.69-1.21-.38-2.61-.03-3.87-.13v-3c4.19-.57,12.72,2.23,12.83-4.26-.75-4.93,1.91-21.81-1.85-23.75h0Zm-8.1,31.49c5.49,3.32-13.36,1.36-14.81,1.85-.98-.08-1.3-1.67-.23-1.85,1.08-.03,2.17.02,3.25,0,3.87.04,7.88-.05,11.79,0Zm-3.73-.56v.08h-7.32v-3h7.32v2.92Zm9.92-3.44H13.65c-4.12-.69-13.02,2.47-12.7-4.25h7.35c5.78.01,11.69,0,17.5,0,.12.21.53.17.72,0h7.43c.2,1.94-.7,4.19-2.93,4.25h0Zm-21.87-6.98c.23-1.86,1.72-3.32,3.59-3.49,1.46,2.71,2.51,3.41,4.62.72,2.1,2.66,3.15,2.22,4.66-.6,2.95.29,4.13,3.12,3.75,5.78H9.11c-.04-.8-.03-1.61.03-2.41h0Zm3.55-9.27c-1.64.12-1.28-1.99-1.2-3.05.67-.11,1.34-.14,2.02-.1,0,1.06.02,2.07-.03,3.15h-.78Zm8.67-3.09c1.89-.16,2.29.03,2.07,2,.16,1.29-1.21,1.04-2.07,1.04,0-1.01,0-2.03,0-3.04Zm-.02-.47c-.2-4.76-7.54-4.58-7.82.05h-1.49c.22-7.06,10.37-6.96,10.79-.05h-1.48Zm-6.98,3.62c-.62-3.73,1.16-9.09,5.43-5.37,1.08,1.83,1.43,6.87-.66,8.04-1.75,1.72-4.93-.4-4.81-2.59.02-.02.03-.05.03-.08h0Zm5.97,4.95l.95.63c-1.52,2.18-1.11,2.75-3.13.51.78-.27,1.51-.66,2.18-1.14Zm-4.63-1.41c1.15.68,2.6.6,3.67-.19l.49,1.11c-.7.54-1.51.93-2.37,1.14-.91-.23-1.76-.65-2.5-1.22l.45-1.02c.08.06.17.12.25.18Zm-1.32,1.35c.73.57,1.56,1,2.45,1.26-.53.54-1.07,1.07-1.61,1.61-.71-.59-1.09-1.58-1.67-2.32l.83-.55Zm.83,2.88,18.72-5.35c0,3.06.05,6.14.02,9.2h-7.33c.73-4.99-2.34-5.54-5.89-7.35l-.66-1.5c.8-.55,1.28-1.45,1.28-2.43.5.02,1,0,1.5-.04-.06.81.13,1.69-.08,2.47,0,0,0,0,0,0-1.64-.07-1.18.81.16.44,1.33-.43.58-2.22.77-3.27.79-.68,1.02-3.04,0-3.53-.11-7.85-12.46-7.59-12.5.15-.95.34-.48,1.53-.58,2.29-.11,1.64,1.75,1.46,2.88,1.42-.03,1.03.47,2,1.33,2.57-.23.54-.49,1.06-.7,1.6-3.38,1.66-6.57,2.46-5.85,7.16H.95c0-5.84,0-11.67,0-17.51C.47,3.17,1.79.38,5.35.94h25.34c5.74.91,2.45,9.64,3.24,13.72h0Zm-11.19.39"/>
    <path class="cls-2" d="m18.18,26.1c-.48.1-1.72-.29-1.72.42.29.23,2.73.09,1.72-.42Z"/>
  </g>
</svg>