<?xml version="1.0" encoding="UTF-8"?>
<svg id="Layer_1" data-name="Layer 1" xmlns="http://www.w3.org/2000/svg" viewBox="0 0 35 35">
  <defs>
    <style>
      .cls-1 {
        fill: #f47721;
      }

      .cls-1, .cls-2, .cls-3 {
        stroke-width: 0px;
      }

      .cls-3 {
        fill: #c1dbf0;
      }
    </style>
  </defs>
  <path class="cls-3" d="m10.47,15.96c-.16,0-.29-.13-.29-.29,0-.1.05-.2.14-.25l3.05-1.91-4.18,2.41c-.14.08-.32.02-.4-.12-.07-.13-.03-.3.09-.38l5.57-3.56-7.04,4.06c-.14.08-.32.03-.4-.12-.07-.13-.03-.3.1-.39l3.61-2.26-4.8,2.77c-.14.08-.32.03-.4-.11-.07-.13-.03-.3.09-.39l6.65-4.31L3.92,15.91c-.14.08-.32.03-.4-.12-.07-.13-.03-.3.09-.39l5.72-3.66-6.84,3.95c-.14.08-.32.03-.4-.11-.08-.14-.03-.31.1-.39l2.77-1.74-3.17,1.83c-.14.08-.32.04-.4-.1-.08-.14-.04-.31.09-.4l7.39-4.94L1.03,14.38c-.14.08-.32.03-.4-.12-.07-.13-.03-.3.1-.39l1.52-.96-1.47.85c-.14.08-.32.03-.4-.11-.08-.14-.04-.31.09-.39l2.77-1.78-2.57,1.48c-.14.08-.32.03-.4-.11-.08-.13-.04-.3.09-.39l3.83-2.56-3.52,2.03c-.14.08-.32.03-.4-.11-.08-.13-.04-.3.09-.39l3.32-2.27-3.01,1.74c-.14.08-.32.03-.4-.11-.08-.13-.04-.3.09-.39l1.88-1.29-1.57.9c-.14.08-.32.03-.4-.11-.07-.13-.04-.29.08-.38l1.63-1.17-1.31.76c-.14.08-.32.02-.4-.12-.06-.12-.04-.26.05-.35l2.08-1.87-1.74,1c-.14.08-.32.03-.4-.11-.07-.12-.04-.28.07-.37l.24-.2c-.1.02-.2-.02-.27-.09-.09-.1-.11-.25-.03-.37l.46-.68c-.16.03-.31-.08-.34-.25-.02-.12.04-.24.14-.3l.98-.56c.12-.07.27-.05.36.05.09.1.11.25.03.37l-.44.65,1.86-1.07c.14-.08.32-.03.4.11.07.12.04.28-.07.37l-.16.13,1.06-.62c.14-.08.32-.02.4.12.06.12.04.26-.05.35l-2.08,1.87,4.05-2.34c.14-.08.32-.03.4.11.07.13.04.29-.08.38l-1.63,1.17,2.88-1.66c.14-.08.32-.03.4.12.07.13.03.29-.09.38l-1.88,1.29,3.1-1.79c.14-.08.32-.02.4.12.07.13.03.29-.09.38l-3.32,2.28,4.8-2.77c.14-.08.32-.03.4.11.07.13.04.3-.09.39l-3.83,2.56,5.29-3.05c.14-.08.32-.03.4.11.08.14.04.31-.09.39l-2.77,1.78,3.95-2.28c.14-.08.32-.03.4.12.07.13.03.3-.1.39l-1.53.96,2.54-1.47c.14-.08.32-.03.4.12.07.13.03.3-.09.38l-7.39,4.93,9.41-5.43c.14-.08.32-.03.4.11.08.14.03.31-.1.39l-2.78,1.74,3.89-2.24c.14-.08.32-.02.4.12.07.13.03.3-.09.38l-5.72,3.67,7.22-4.17c.14-.08.32-.03.4.11.07.13.03.3-.09.39l-6.65,4.3,8.33-4.81c.14-.08.32-.03.4.12.07.13.03.3-.1.39l-3.61,2.27,4.8-2.77c.14-.08.32-.03.4.12.07.13.03.3-.09.39l-5.57,3.56,7.04-4.06c.14-.08.32-.02.4.12.07.13.03.3-.1.39l-3.04,1.91,3.73-2.15c.14-.08.32-.03.4.11.08.13.04.3-.09.39l-7.72,5.13,7.84-4.53c.14-.08.32-.03.4.11.08.14.03.31-.1.39l-2.05,1.29,1.75-1.01c.14-.08.32-.03.4.11.08.13.04.3-.09.39l-5.04,3.36,4.73-2.73c.14-.08.32-.03.4.11.07.13.03.3-.09.38l-3.72,2.51,3.41-1.97c.14-.08.32-.03.4.12.07.13.04.29-.08.38l-3.45,2.42,3.13-1.81c.14-.08.32-.03.4.11.07.13.04.29-.07.38l-3.2,2.48,2.87-1.66c.14-.08.32-.03.4.11.07.12.04.28-.07.37l-1.94,1.61,1.59-.92c.14-.08.32-.03.4.11.06.11.05.25-.04.34l-1.08,1.21c.15-.07.32-.01.39.14.07.14.02.3-.11.38l-1.58.91c-.14.08-.32.03-.4-.11-.06-.11-.05-.25.04-.34l1.09-1.21-2.99,1.73c-.14.08-.32.03-.4-.11-.07-.12-.04-.28.07-.37l1.94-1.61-3.62,2.09c-.14.08-.32.03-.4-.11-.07-.13-.04-.29.07-.38l3.2-2.48-5.14,2.97c-.14.08-.32.03-.4-.12-.07-.13-.04-.29.08-.38l3.45-2.42-5.05,2.91c-.14.08-.32.03-.4-.11-.07-.13-.03-.3.09-.38l3.72-2.5-5.21,3c-.14.08-.32.03-.4-.11-.07-.13-.04-.3.09-.39l5.04-3.36-6.69,3.86c-.14.08-.32.02-.4-.12-.07-.13-.03-.3.09-.38l2.05-1.29-3.12,1.8c-.14.08-.32.02-.4-.12-.07-.13-.03-.29.09-.38l7.71-5.13-9.74,5.62s-.1.04-.15.04h0Z"/>
  <path class="cls-1" d="m6.38,19.45c-.16,0-.29-.13-.29-.29,0-.06.02-.13.06-.18l.91-1.22-1.52.88c-.14.08-.32.02-.4-.12-.06-.11-.04-.25.05-.34l.54-.54-.34.19c-.14.08-.32.03-.4-.11-.04-.06-.05-.14-.03-.21l.18-.78c-.06-.02-.11-.07-.15-.13-.08-.14-.03-.32.11-.4l.3-.17c.14-.08.32-.03.4.11.04.06.05.14.03.21l-.15.63,1.67-.96c.14-.08.32-.03.4.11.07.11.05.26-.05.35l-.54.54.84-.48c.14-.08.32-.03.4.11.06.1.05.23-.02.32l-.91,1.22.46-.26c.14-.08.32-.02.4.12.07.14.03.3-.1.38l-1.7.98s-.1.04-.15.04h0Z"/>
  <path class="cls-1" d="m6.4,17.13c-.16,0-.29-.13-.3-.29,0-.08.03-.16.09-.22l.49-.47-1.54.89c-.14.08-.32.03-.4-.11-.07-.12-.04-.27.06-.36l1-.88-1.01.59c-.14.08-.32.03-.4-.11-.06-.11-.05-.25.04-.35l.61-.65-.24.14c-.14.08-.32.03-.4-.11-.05-.09-.05-.21,0-.3l.19-.3c-.07-.02-.13-.07-.16-.13-.08-.14-.03-.32.11-.4l.68-.39c.14-.08.32-.03.4.11.05.09.05.21,0,.3l-.08.12.93-.54c.13-.07.29-.04.38.07.09.11.08.28-.02.38l-.61.65,1.89-1.09c.14-.08.32-.03.4.11.07.12.04.27-.06.37l-1,.88,1.13-.66c.14-.08.32-.04.4.1.07.12.05.28-.06.37l-.49.47.15-.08c.14-.08.32-.03.4.11.05.09.05.19,0,.28l-.28.52c.16,0,.29.15.28.31,0,.1-.06.19-.15.24l-.68.39c-.14.08-.32.03-.4-.11-.05-.09-.05-.2,0-.29l.24-.44-1.45.83s-.1.04-.15.04h0Z"/>
  <path class="cls-1" d="m25,27.73c-.16,0-.29-.13-.29-.29,0-.1.05-.19.13-.24l.49-.33-1.43.82c-.14.08-.32.03-.4-.11-.08-.13-.04-.3.09-.39l2-1.32-2.96,1.71c-.14.09-.32.04-.41-.09s-.04-.32.09-.41l4.36-2.92-4.57,2.64c-.14.09-.32.04-.41-.09s-.04-.32.09-.41l5.14-3.44-5.17,2.98c-.14.08-.32.03-.4-.11-.08-.14-.04-.31.09-.4l4.03-2.63-4.11,2.38c-.14.08-.32.03-.4-.11-.08-.13-.04-.3.09-.39l4.94-3.25-5.19,3c-.14.08-.32.03-.4-.11-.08-.13-.03-.3.1-.39l3.06-1.96-3.3,1.91c-.14.08-.32.02-.4-.12-.07-.13-.03-.29.09-.38l6.73-4.51-7.26,4.19c-.14.08-.32.03-.4-.11-.08-.14-.04-.31.1-.4l1.33-.84-1.45.84c-.14.08-.32.03-.4-.11-.08-.13-.04-.3.09-.39l6.71-4.45-7.01,4.05c-.14.08-.32.03-.4-.11-.08-.14-.04-.31.09-.4l5.39-3.5-5.52,3.19c-.14.08-.32.03-.4-.11-.08-.13-.04-.3.09-.39l6.62-4.39-6.7,3.87c-.14.08-.32.04-.4-.1-.08-.14-.04-.32.1-.4l2.62-1.67-2.51,1.45c-.14.08-.32.03-.4-.11-.07-.13-.04-.3.09-.39l5.98-3.98-5.84,3.37c-.14.08-.32.03-.4-.11-.07-.13-.04-.3.09-.38l6.13-4.17-5.84,3.37c-.14.08-.32.02-.4-.12-.07-.13-.03-.3.09-.38l.29-.19c-.16.04-.32-.06-.35-.22-.03-.12.02-.24.12-.31l5.09-3.58-4.43,2.56c-.14.08-.32.03-.4-.11-.08-.13-.04-.3.09-.39l1.37-.91-.64.37c-.14.08-.32.03-.4-.12-.07-.13-.03-.29.09-.38l1.24-.86-.19.11c-.14.08-.32.03-.4-.11-.07-.13-.04-.28.08-.37l1.54-1.17s-.08-.06-.1-.1c-.08-.14-.03-.32.11-.4l2.73-1.58c.14-.08.32-.03.4.11.07.13.04.29-.08.38l-.57.44,2.43-1.41c.14-.08.32-.03.4.11.07.13.04.3-.09.39l-1.24.86,2.36-1.36c.14-.08.32-.03.4.11.07.13.04.3-.09.39l-1.37.91,2.18-1.26c.14-.08.32-.03.4.11.07.13.04.3-.09.38l-5.1,3.58,6.29-3.63c.14-.08.32-.03.4.11.08.14.04.31-.1.39h-.02s.37-.2.37-.2c.14-.08.32-.03.4.11.08.13.04.3-.09.39l-6.12,4.17,6.93-4c.14-.08.32-.03.4.12.07.13.03.3-.09.38l-5.98,3.98,6.55-3.78c.14-.08.32-.04.4.1s.04.32-.1.4l-2.62,1.67,2.85-1.65c.14-.08.32-.03.4.11.08.13.04.3-.09.39l-6.62,4.39,7-4.04c.14-.08.32-.03.4.11.08.14.04.31-.09.39l-5.39,3.5,5.59-3.23c.14-.07.32-.02.4.13.07.13.03.29-.09.37l-6.71,4.45,6.89-3.97c.14-.08.32-.02.4.12.07.13.03.3-.1.39l-1.33.83,1.25-.72c.14-.08.32-.03.4.11.08.13.04.31-.09.39l-6.74,4.51,6.71-3.88c.14-.08.32-.03.4.11.08.13.03.3-.1.39l-3.06,1.96,2.86-1.65c.14-.08.32-.04.4.1.08.14.04.31-.09.4l-4.94,3.25,4.66-2.69c.14-.08.32-.03.4.12.07.13.03.3-.09.39l-4.03,2.63,3.63-2.09c.14-.08.32-.03.4.11.07.13.04.3-.09.39l-5.14,3.44,4.52-2.61c.14-.09.32-.04.41.09s.04.32-.09.41l-4.37,2.92,3.46-2c.14-.08.32-.03.4.11.08.13.04.31-.09.39l-2,1.33.8-.46c.14-.08.32-.02.4.12.07.13.03.29-.09.38l-1.67,1.12c.06.02.12.06.16.12.08.13.05.31-.07.4l-.97.7c.05.02.1.05.14.09.09.11.09.27,0,.38l-.89,1.07c.16-.04.32.06.36.21.03.13-.02.26-.14.33l-1.35.78c-.14.08-.32.03-.4-.11-.06-.11-.05-.24.03-.34l.88-1.04-2.58,1.48c-.14.08-.32.03-.4-.11-.07-.13-.04-.3.08-.38l.24-.17-1.15.66s-.1.04-.15.04h0Z"/>
  <g>
    <path class="cls-2" d="m.08,12.65c-.01.69.19,1.38.58,1.95.61,2.54-1.58,11.15,1.61,11.39,6.32.12,12.64-.04,18.96,0,.11.58.41,1.11.87,1.5-.99.24-1.15,2.01-.11,2.34-.66.37-.9,1.2-.54,1.86.21.38.59.64,1.02.7.12,3.46,6.48,3.37,6.66-.02,1.26-.26,1.74-2.09.46-2.67.64-.27.93-1.01.66-1.65-.13-.31-.38-.55-.69-.67,1.01-1.12,1.02-2.97,2.42-3.9,5.05-4.24,3.52-13.04-2.79-15.09.82-4.78-2.72-3.29-5.9-3.5.04-3.95-1.54-5.24-5.41-4.7-4.37.48-12.38-2.25-11.87,4.7C-1.7,4.11.3,6.63.08,12.65h0Zm9.09,12.73c-11.22.52-6.83-.48-7.65-9.98.83.41,1.75.57,2.67.48-.04.49.03,1.09.59,1.23-.66,3.13,4.33,2.88,3.8-.06.43-.18.67-.63.6-1.08h7.44c-.73,3.93,2.21,6.66,4.38,9.43h-11.83Zm-4.04-11.16s0,0,0,0c.94,0,2.13,0,2.95,0,.51.43.13,1.34.24,1.95-.25.89-2.17.16-3.02.39-.48-.49-.24-1.68-.16-2.33Zm2.59,3.73c-.29,2.02-2.43.73-2.09-.8h2.1c0,.27.01.53,0,.8h0Zm-.7,1.06s.02,0,0,0h0Zm0,0h0,0,0Zm19.73,15.2c-1.45.1-3.22.1-3.35-1.74,1.62-.02,3.24,0,4.86,0-.13.84-.53,1.76-1.51,1.75h0Zm2.12-2.35c-1.49-.43-7.95,1.26-6.44-1.65,1.96-.34,4.11-.02,6.13-.13.99-.06,1.33,1.58.31,1.77Zm.51-3.65c.18.35.16,1.15-.26,1.35-1.66-.6-7.97,1.4-6.76-1.7,1.63-.16,5.84-.7,7.02.35h0Zm1.91-4.86c-4.24,5.31,0,3.68-8.2,3.86-.56-.08-.66-.53-.8-1-.67-2.24-2.74-3.34-3.83-5.33-1.96-3.63-1.1-8.13,2.06-10.79,8.56-6.72,18.8,6.15,10.76,13.25h0ZM8.6.59c3.78-.12,7.63.02,11.43-.02,2.2.13,2.22,2.62,2.39,4.32h-1.49c.21-2.86-1.64-2.55-3.83-2.46-2.71.59-9.04-1.92-8.73,2.46h-1.53c.15-1.38.08-3.98,1.77-4.3Zm11.44,4.3h-10.82c-.07-2.63,1.18-1.74,3.12-1.86h6.94c.89-.1.59,1.27.77,1.86Zm-18.32.39c2.22-.03,4.44.02,6.67,0,.12.14.43.13.64,0h11.09c.1.16.42.13.63,0,2.7.51,8.51-1.81,7.61,2.85-5.02-1.5-10.87,2.09-11.64,7.27h-7.53c.44-1.95-1.27-1.89-2.7-1.79-1.38-.22-2.64.26-2.29,1.87C-.16,15.71,1.09,10.46.94,7.63c0-.73-.25-2.3.78-2.35Z"/>
    <path class="cls-2" d="m19.16,15.15c1.48.99.61-4.12,7.06-4.77-2.66-.88-6.33,1.92-7.06,4.77Z"/>
  </g>
</svg>