<?xml version="1.0" encoding="UTF-8"?>
<svg id="Layer_1" data-name="Layer 1" xmlns="http://www.w3.org/2000/svg" viewBox="0 0 35 35">
  <defs>
    <style>
      .cls-1 {
        fill: #f47721;
      }

      .cls-1, .cls-2, .cls-3 {
        stroke-width: 0px;
      }

      .cls-3 {
        fill: #c1dbf0;
      }
    </style>
  </defs>
  <path class="cls-3" d="m3.58,34.8c-.16,0-.29-.13-.29-.29,0-.07.03-.14.08-.2l.82-.9-2.25,1.29c-.14.08-.32.03-.4-.11-.07-.12-.05-.28.06-.37l1.6-1.39-1.99,1.15c-.14.08-.32.03-.4-.11-.07-.13-.04-.29.08-.38l.6-.45-.34.19c-.14.08-.32.03-.4-.11-.07-.12-.04-.28.07-.37l1.4-1.14-1.07.62c-.14.08-.32.04-.4-.1-.07-.12-.05-.27.05-.36l1.1-1.07-.75.43c-.14.08-.32.03-.4-.11-.06-.1-.05-.22.01-.32l.42-.6c-.16,0-.3-.12-.31-.28,0-.11.05-.21.15-.27l.98-.56c.14-.08.32-.03.4.11.06.1.05.22-.01.32l-.37.53,1.66-.96c.14-.08.32-.04.4.1.07.12.05.27-.05.36l-1.1,1.06,2.19-1.26c.14-.08.32-.03.4.11.07.12.04.28-.07.37l-1.4,1.15,1.48-.86c.14-.08.32-.03.4.11.07.13.04.29-.08.38l-.6.45.29-.17c.14-.08.32-.03.4.11.07.12.04.27-.06.37l-1.6,1.39,1.26-.73c.14-.08.32-.03.4.11.06.11.05.25-.04.34l-.82.9.46-.26c.14-.08.32-.03.4.11.08.14.03.32-.11.4l-2.09,1.21s-.1.04-.15.04h0Z"/>
  <path class="cls-3" d="m10.81,34.8c-.16,0-.29-.13-.29-.29,0-.07.02-.13.06-.18l1-1.28-2.74,1.58c-.14.08-.32.03-.4-.11-.07-.13-.04-.29.08-.38l.07-.05-.2.12c-.14.08-.32.03-.4-.11-.07-.12-.04-.27.06-.36l2.06-1.76-1.89,1.09c-.14.08-.32.03-.4-.11-.07-.12-.04-.28.07-.37l1.95-1.61-1.62.94c-.14.08-.32.03-.4-.11-.07-.13-.04-.29.08-.38l.28-.2c-.15.06-.32-.02-.38-.18-.04-.11,0-.24.08-.32l2.34-2.03-2,1.15c-.14.08-.32.03-.4-.11-.07-.12-.04-.28.07-.37l1.4-1.13-1.07.62c-.14.08-.32.03-.4-.11-.07-.12-.04-.28.06-.37l.94-.81-.6.35c-.14.08-.32.03-.4-.11-.05-.09-.05-.2,0-.29l.57-.96c-.14.08-.32.02-.4-.12-.07-.14-.03-.3.1-.38l.97-.56c.14-.08.32-.03.4.11.05.09.05.2,0,.29l-.57.96,2.36-1.36c.14-.08.32-.03.4.11.07.12.04.28-.06.37l-.94.8,1.61-.93c.14-.08.32-.03.4.11.07.12.04.28-.07.37l-1.4,1.13,1.4-.81c.14-.08.32-.03.4.11.07.12.04.28-.06.37l-2.34,2.03,2-1.15c.14-.08.32-.03.4.11.07.13.04.29-.08.38l-.28.2c.15-.06.32.02.38.17.04.12,0,.25-.09.33l-1.95,1.61,1.62-.93c.14-.08.32-.03.4.11.07.12.04.27-.06.36l-2.06,1.76,1.72-.99c.14-.08.32-.03.4.11.07.13.04.29-.08.38l-.22.16c.1-.01.2.02.26.1.09.11.1.26,0,.37l-1,1.28.62-.36c.14-.08.32-.03.4.11.08.14.03.32-.11.4l-1.93,1.11s-.1.04-.15.04Z"/>
  <path class="cls-3" d="m24.99,34.8c-.16,0-.29-.13-.29-.29,0-.07.02-.14.07-.19l.76-.89-2.27,1.31c-.14.08-.32.03-.4-.11-.07-.12-.04-.28.06-.37l1.4-1.21-1.86,1.08c-.14.08-.32.04-.4-.1-.08-.13-.04-.3.08-.39l.71-.53-.5.29c-.14.08-.32.03-.4-.11-.07-.12-.04-.28.07-.37l1.72-1.39-1.39.8c-.14.08-.32.03-.4-.11-.07-.12-.04-.28.06-.37l2.18-1.85-1.85,1.06c-.14.08-.32.03-.4-.11-.07-.12-.04-.28.07-.37l2.01-1.67-1.67.97c-.14.08-.32.03-.4-.11-.07-.12-.04-.28.07-.37l1.97-1.63-1.64.94c-.14.08-.32.03-.4-.11-.07-.13-.04-.28.07-.37l1.63-1.31-1.3.75c-.14.08-.32.03-.4-.11-.07-.13-.04-.29.08-.38l.81-.61-.49.28c-.14.08-.32.03-.4-.11-.07-.12-.04-.27.06-.37l2.29-1.97-1.95,1.13c-.14.08-.32.03-.4-.11-.07-.12-.04-.28.07-.37l1.37-1.07-1.04.6c-.14.08-.32.03-.4-.11-.07-.13-.04-.29.08-.38l.69-.52-.37.21c-.14.08-.32.03-.4-.11-.07-.13-.04-.29.07-.38l1.7-1.37-1.37.79c-.14.08-.32.03-.4-.11-.07-.13-.04-.29.08-.38l.49-.36-.17.1c-.14.08-.32.03-.4-.11-.07-.13-.04-.29.08-.38l1.03-.78-.7.4c-.14.08-.32.03-.4-.11-.07-.13-.04-.29.08-.38l.35-.26h-.03c-.14.1-.32.06-.4-.08-.07-.12-.05-.28.06-.37l1.56-1.46-1.21.7c-.14.08-.32.03-.4-.11-.05-.09-.05-.2,0-.29l.59-1.01h-.02c-.14.09-.32.03-.4-.11-.07-.14-.03-.3.1-.38l.97-.56c.11-.07.26-.05.35.05.09.09.11.24.05.35l-.59,1.01,2.46-1.42c.14-.08.32-.04.4.1.07.12.05.28-.06.37l-1.56,1.46,2.32-1.34c.14-.08.32-.03.4.11.07.13.04.29-.08.38l-.34.26.17-.1c.14-.08.32-.03.4.11.07.13.04.29-.08.38l-1.03.79.71-.41c.14-.08.32-.03.4.11.07.13.04.29-.08.38l-.49.36.17-.1c.14-.08.32-.03.4.11.07.12.04.28-.07.37l-1.7,1.37,1.37-.79c.14-.08.32-.03.4.11.07.13.04.29-.08.38l-.69.52.37-.21c.14-.08.32-.03.4.11.07.12.04.28-.07.37l-1.37,1.07,1.05-.6c.14-.08.32-.03.4.11.07.12.04.28-.06.37l-2.29,1.97,1.95-1.13c.14-.08.32-.03.4.11.07.13.04.29-.08.38l-.81.61.49-.28c.14-.08.32-.03.4.11.07.13.04.28-.07.37l-1.63,1.31,1.3-.75c.14-.08.32-.03.4.11.07.12.04.28-.07.37l-1.97,1.63,1.64-.95c.14-.08.32-.03.4.11.07.12.04.28-.07.37l-2.01,1.67,1.67-.97c.14-.08.32-.03.4.11.07.12.04.28-.06.37l-2.18,1.85,1.85-1.07c.14-.08.32-.03.4.11.07.12.04.28-.07.37l-1.72,1.39,1.39-.8c.14-.08.32-.03.4.11.07.13.04.29-.08.38l-.71.53.38-.22c.14-.08.32-.03.4.11.07.12.04.28-.06.37l-1.4,1.22,1.06-.61c.14-.08.32-.03.4.11.06.11.05.24-.03.34l-.76.89.38-.22c.14-.09.32-.05.41.09.09.14.05.32-.09.41,0,0-.01,0-.02.01l-1.86,1.07s-.1.04-.15.04h0Z"/>
  <path class="cls-3" d="m31.14,34.8c-.16,0-.29-.13-.29-.29,0-.09.04-.17.11-.23l.18-.15-.97.56c-.14.08-.32.03-.4-.11-.07-.12-.05-.27.05-.36l1.96-1.82-2.38,1.37c-.14.08-.32.03-.4-.11-.07-.12-.04-.28.07-.37l1.86-1.53-1.54.89c-.14.08-.32.03-.4-.11-.07-.13-.04-.28.07-.37l1.28-.99-.95.55c-.14.08-.32.03-.4-.11-.07-.12-.04-.28.06-.37l2.3-1.98-1.96,1.14c-.14.08-.32.03-.4-.11-.07-.12-.04-.28.07-.37l2.07-1.73-1.73,1c-.14.08-.32.04-.4-.1-.07-.13-.04-.29.07-.38l1.51-1.19-1.18.68c-.14.08-.32.03-.4-.11-.07-.12-.04-.28.06-.37l2.16-1.82-1.82,1.05c-.14.08-.32.03-.4-.11-.07-.13-.04-.29.08-.38l1.07-.82-.74.43c-.14.08-.32.03-.4-.11-.07-.13-.04-.29.08-.38l.53-.39-.21.12c-.14.08-.32.03-.4-.11-.07-.13-.04-.29.07-.38l1.33-1.04-1,.58c-.14.08-.32.03-.4-.11-.07-.13-.04-.29.08-.38l.95-.72-.62.36c-.14.08-.32.03-.4-.11-.07-.12-.04-.27.06-.37l2.3-1.98-1.96,1.14c-.14.08-.32.03-.4-.11-.07-.12-.05-.28.06-.37l2.35-2.04-2.01,1.16c-.14.08-.32.03-.4-.11-.07-.13-.04-.3.08-.38l.21-.16c-.11.01-.22-.04-.29-.13-.09-.13-.06-.3.07-.4l1.11-.85-.78.45c-.14.08-.32.03-.4-.11-.07-.12-.04-.28.07-.37l2.01-1.67-1.68.97c-.14.08-.32.03-.4-.11-.07-.13-.04-.29.07-.38l1.14-.87-.81.47c-.14.08-.32.03-.4-.11-.07-.13-.04-.28.07-.37l1.1-.85-.78.45c-.14.08-.32.03-.4-.11-.06-.11-.05-.26.05-.35l1.66-1.64-1.31.75c-.14.08-.32.04-.4-.1-.06-.09-.05-.21,0-.3l.56-.92c-.15.07-.32.01-.4-.13-.07-.14-.02-.31.11-.38l.97-.56c.14-.08.32-.03.4.11.05.09.05.21,0,.3l-.56.92,2.31-1.33c.14-.08.32-.03.4.11.06.11.05.26-.05.35l-1.66,1.64,2.56-1.48c.14-.08.32-.03.4.11.07.13.04.29-.07.38l-1.1.85.9-.52c.14-.08.32-.03.4.11.07.13.04.29-.07.38l-1.14.87.81-.47c.14-.08.32-.03.4.11.07.12.04.28-.07.37l-2.02,1.67,1.68-.97c.14-.08.32-.03.4.11.07.13.04.29-.07.38l-1.11.85.78-.45c.14-.08.32-.03.4.11.07.13.04.29-.08.38l-.21.15c.11-.01.22.03.28.12.09.12.07.29-.05.39l-2.35,2.04,2.01-1.16c.14-.08.32-.03.4.11.07.12.04.28-.06.37l-2.3,1.99,1.96-1.13c.14-.08.32-.03.4.11.07.13.04.29-.08.38l-.95.72.62-.36c.14-.08.32-.03.4.11.07.13.04.29-.07.38l-1.33,1.03,1-.58c.14-.08.32-.03.4.11.07.13.04.29-.08.38l-.54.4.21-.12c.14-.08.32-.03.4.11.07.13.04.29-.08.38l-1.07.82.74-.43c.14-.08.32-.03.4.11.07.12.04.28-.07.37l-2.16,1.82,1.82-1.05c.14-.08.32-.03.4.11.07.13.04.29-.07.38l-1.51,1.19,1.18-.68c.14-.08.32-.03.4.11.07.12.04.28-.07.38l-2.07,1.73,1.73-1c.14-.08.32-.03.4.11.07.12.04.27-.06.37l-2.3,1.98,1.96-1.14c.14-.08.32-.03.4.11.07.13.04.28-.07.37l-1.28.99.95-.55c.14-.08.32-.03.4.11.07.12.04.28-.07.37l-1.86,1.53,1.53-.88c.14-.08.32-.03.4.11.07.12.05.27-.05.36l-1.96,1.81,1.62-.93c.14-.08.32-.03.4.11.07.12.04.28-.07.37l-.25.21c.16-.03.31.07.35.23.02.09,0,.18-.06.24l-.34.42c.11,0,.22.05.27.15.08.14.03.32-.11.4l-1.22.7c-.14.08-.32.03-.4-.11-.06-.11-.05-.24.03-.33l.29-.35-1.37.79s-.1.04-.15.04h0Z"/>
  <path class="cls-3" d="m17,34.8c-.16,0-.29-.13-.29-.29,0-.09.04-.17.1-.22l.27-.23-1.08.62c-.14.08-.32.03-.4-.11-.07-.12-.04-.27.05-.36l1.96-1.79-2.33,1.34c-.14.08-.32.03-.4-.11-.07-.12-.04-.28.07-.37l1.71-1.38-1.39.81c-.14.08-.32.03-.4-.11-.07-.13-.04-.28.07-.37l1.19-.92-.86.5c-.14.08-.32.03-.4-.11-.07-.12-.04-.28.07-.37l1.93-1.59-1.59.92c-.14.08-.32.03-.4-.11-.07-.13-.04-.28.07-.38l1.73-1.4-1.4.81c-.14.08-.32.03-.4-.11-.07-.12-.04-.28.07-.37l1.76-1.42-1.42.82c-.14.08-.32.03-.4-.11-.07-.12-.04-.28.07-.37l1.83-1.49-1.5.86c-.14.08-.32.03-.4-.11-.07-.12-.04-.28.07-.37l2.02-1.67-1.68.97c-.14.09-.32.04-.41-.09-.08-.13-.05-.3.08-.39l1.49-1.19-1.16.67c-.14.08-.32.03-.4-.11-.07-.13-.04-.28.07-.37l.99-.79-.66.38c-.14.08-.32.03-.4-.11-.07-.12-.04-.28.07-.38l.32-.27c-.15.07-.32.01-.39-.14-.05-.09-.04-.21.02-.29l.45-.66c-.12.01-.23-.04-.29-.14-.08-.14-.03-.32.11-.4l.97-.56c.14-.08.32-.03.4.11.06.1.05.22-.01.31l-.42.61,1.8-1.03c.14-.08.32-.03.4.11.07.12.04.28-.07.37l-.31.26,1.08-.62c.14-.08.32-.03.4.11.07.13.04.28-.07.37l-.99.79,1.21-.7c.14-.08.32-.03.4.11.07.13.04.28-.07.37l-1.49,1.19,1.26-.73c.14-.08.32-.03.4.11.07.12.04.28-.07.37l-2.02,1.68,1.68-.97c.14-.08.32-.03.4.11.07.12.04.28-.07.37l-1.83,1.49,1.5-.87c.14-.08.32-.03.4.11.07.13.04.28-.07.38l-1.76,1.42,1.42-.82c.14-.08.32-.03.4.11.07.12.04.28-.07.37l-1.73,1.4,1.4-.81c.14-.08.32-.03.4.11.07.12.04.28-.07.37l-1.92,1.58,1.59-.92c.14-.08.32-.03.4.11.07.13.04.28-.07.37l-1.19.92.87-.5c.14-.08.32-.03.4.11.07.12.04.28-.07.37l-1.71,1.38,1.38-.8c.14-.08.32-.03.4.11.07.12.04.27-.05.36l-1.95,1.79,1.61-.93c.14-.08.32-.03.4.11.07.12.04.28-.06.37l-.29.25c.15-.06.32.02.38.18.04.1.02.2-.05.28l-.36.45c.11,0,.22.05.28.15.08.14.03.32-.11.4l-1.2.69c-.14.08-.32.03-.4-.11-.06-.11-.05-.24.03-.33l.31-.38-1.43.82s-.1.04-.15.04h0Z"/>
  <path class="cls-1" d="m7.49,15.95c-.16,0-.29-.13-.29-.3,0-.09.04-.18.12-.23l3.56-2.6-4.84,2.8c-.14.08-.32.03-.4-.11-.07-.13-.04-.3.09-.39l3.85-2.67-4.7,2.71c-.14.09-.32.04-.41-.09-.09-.14-.04-.32.09-.41l3.83-2.58-4.43,2.56c-.14.09-.32.04-.4-.1s-.04-.32.1-.4l2.77-1.81-3.13,1.81c-.14.08-.32.03-.4-.11-.08-.14-.04-.31.1-.39l.14-.09-.29.17c-.14.08-.32.03-.4-.12-.07-.13-.03-.3.1-.39l.04-.03-.15.09c-.14.08-.32.03-.4-.11-.07-.13-.03-.3.09-.39l4.06-2.67-4.29,2.47c-.14.08-.32.03-.4-.11-.08-.13-.04-.3.09-.39l5.11-3.41-5.3,3.06c-.14.08-.32.03-.4-.11-.07-.13-.04-.3.09-.38l6.09-4.16L.94,10.67c-.14.08-.32.04-.4-.1-.08-.14-.04-.31.09-.4l4.8-3.21L.69,9.7c-.14.08-.32.04-.4-.1-.08-.14-.04-.32.1-.4l2.16-1.4-1.96,1.13c-.14.08-.32.03-.4-.11-.07-.13-.04-.3.09-.38l5.31-3.72L.6,7.59c-.14.08-.32.03-.4-.11-.08-.13-.04-.31.09-.39l2.49-1.67-2.02,1.17c-.14.08-.32.03-.4-.11-.07-.13-.04-.29.08-.38l3.91-2.92-2.98,1.72c-.14.08-.32.03-.4-.11-.07-.12-.05-.28.06-.37l2.1-1.83c-.15.06-.32,0-.39-.15-.06-.14,0-.3.13-.38l2.57-1.48c.14-.08.32-.03.4.11.07.12.05.28-.06.37l-2.09,1.82L8.35.18c.14-.08.32-.03.4.11.07.13.04.29-.08.38l-3.91,2.92L10.13.5c.14-.08.32-.03.4.11.07.13.04.3-.09.39l-2.49,1.67,3.13-1.81c.14-.08.32-.03.4.11.08.13.04.3-.09.39l-5.31,3.72,6.16-3.55c.14-.08.32-.03.4.11.08.14.04.31-.09.39l-2.17,1.4,2.48-1.43c.14-.08.32-.04.4.1.08.14.04.31-.09.4l-4.8,3.21,5.21-3.01c.14-.08.32-.04.4.1.08.14.04.31-.09.4l-6.09,4.16,6.48-3.74c.14-.08.32-.03.4.12.07.13.03.3-.09.38l-5.11,3.41,5.29-3.05c.14-.08.32-.02.4.12.07.13.03.3-.09.38l-4.06,2.67,4.09-2.36c.14-.08.32-.04.4.1.08.14.04.32-.1.4h0l-.1.06c.15-.07.32,0,.39.15.06.13,0,.29-.11.37l-.15.09c.15-.07.32,0,.39.15.06.13.01.29-.11.37l-2.77,1.81,2.57-1.48c.14-.08.32-.03.4.11.08.13.04.3-.09.39l-3.84,2.58,3.52-2.03c.14-.08.32-.03.4.11.07.13.04.3-.09.39l-3.85,2.66,3.34-1.93c.14-.08.32-.03.4.11.07.13.04.29-.08.38l-3.56,2.6,2.69-1.55c.14-.08.32-.04.4.1.08.13.04.31-.09.39l-.75.52c.16.02.28.17.26.33-.01.09-.06.17-.14.22l-5.59,3.23c-.14.08-.32.04-.4-.1-.08-.13-.04-.31.09-.39l.15-.1-1.05.61s-.1.04-.15.04h0Z"/>
  <g>
    <path class="cls-2" d="m3.49,26.17c10.02-5.69,19.72-12.11,28.25-19.89.18,1.47-.77,4.47,1.61,4.27,2.48-.34,1.35-3.4,1.6-5.12-.01-1.93.55-4.49-2.28-4.03-2.14.15-4.42-.32-6.49.21-2.99,2.57,2.05,2.7,3.76,2.49C21.63,11.86,12.03,18.18,2.2,23.8c-3.94,1.44-2.03,4.76,1.29,2.37h0Zm-2.56-1.04C11.26,18.73,21.96,12.38,30.86,3.9c-1.02-.73-5.06.98-4.68-1.59.96-1.28,3.57-.24,5.08-.56,1.02,0,2.72-.33,2.84,1.12-.35,1.19.94,8.15-1.04,7.16-1.33-.66.63-5.48-1.27-4.43C30.34,7.68-.61,31.67.93,25.13h0Z"/>
    <path class="cls-2" d="m.61,33.81c.37,1.21,1.76.98,2.75.99,3.23.66,2.97-2.81,2.65-4.98-.91-1.4-3.72-1.09-5.01-.36-.86,1.2-.36,2.95-.39,4.35h0Zm.81-3.59c.02-.32.29-.71.6-.72,1.12.13,3.39-.58,3.25,1.23-.2,1.06.56,3.03-.59,3.52-3.77.48-3.35-.92-3.25-4.03h0Z"/>
    <path class="cls-2" d="m13.18,26.77c.01-2.08-5.91-1.81-5.56.43.44,2.23-1.04,6.01.91,7.45,6.52,1.31,4.31-3.63,4.65-7.89Zm-1.44,7.55c-1.26-.02-3.48.47-3.26-1.48.35-1.87-.79-5.75.59-6.93,1.38-.03,3.6-.39,3.26,1.67-.34,1.81.77,5.62-.59,6.74Z"/>
    <path class="cls-2" d="m22.32,34.49c7.35,1.73,4.44-3.78,4.98-8.46-.48-2.11,1.24-8.94-1.25-9.31-3.42-.38-4.88.22-4.31,3.95v10.93c0,.86-.28,2.35.58,2.89h0Zm.27-2.31v-13.85c-.2-1.22.8-1.5,1.79-1.29,1.81-.37,2.3,1.04,2.06,2.56-.52,2.13,1.3,15.73-1.21,14.76-1.77.2-2.93-.22-2.64-2.18Z"/>
    <path class="cls-2" d="m34.36,16.17c.01-1.26.43-3.57-1.42-3.6-4.84-.61-4.2,1.55-4.14,5.38v13.26c0,.93-.34,2.79.66,3.33.73.4,1.96.17,2.75.17,2.75.23,2.15-2.74,2.15-4.57v-13.98Zm-.85,17.29c-.1,1.27-1.66.88-2.56.88-1.53,0-1.3-1.47-1.3-2.54.12-6.14-.24-12.37.13-18.47.6-.78,1.85-.22,2.71-.38,1.37.11,1.02,2.12,1.02,3.07,0,5.82,0,11.63,0,17.45h0Z"/>
    <path class="cls-2" d="m15.44,34.59c5.65,1.08,4.84-1.56,4.8-5.95-.44-1.94,1.19-6.81-1.33-7.26-1.98-.24-4.82-.14-4.23,2.62.45,2.8-1.01,8.7.76,10.58h0Zm.09-11.92c.13-1.47,1.87-.73,2.84-.9,1.17.09,1.02,1.32,1.02,2.15-.06,3.16.14,6.35,0,9.5-.1,1.41-1.82.78-2.76.9-2.24-.11-.66-9.5-1.09-11.66h0Z"/>
    <path class="cls-2" d="m9.54,15.84c7.82-1.24,8.87-12.91,1.23-15.3-13.01-3.6-14.79,17.06-1.23,15.3ZM1.82,4.29c3.48-6.43,13.64-3.34,13.45,3.8-.62,12.42-19.04,7-13.45-3.8Z"/>
    <path class="cls-2" d="m7.62,12.4c-.9-.31-1.51-1.16-1.5-2.11-2.13-.6.12,3.01,1.5,2.69-.26.94,1.09.84.86-.03,2.99-.38,3.09-4.86,0-5.12V3.7c.9.31,1.51,1.16,1.5,2.12,2.13.6-.12-3.01-1.5-2.69.26-.94-1.09-.84-.86.03-2.99.38-3.09,4.86,0,5.12v4.12Zm2.1-2.97c.63,1.09.06,2.8-1.24,3.02v-4.03c.53.15.98.52,1.24,1.01h0Zm-3.33-2.77c-.63-1.09-.06-2.8,1.24-3.02v4.03c-.53-.15-.98-.51-1.24-1h0Z"/>
  </g>
</svg>