<?xml version="1.0" encoding="UTF-8"?>
<svg id="Layer_1" data-name="Layer 1" xmlns="http://www.w3.org/2000/svg" viewBox="0 0 35 35">
  <defs>
    <style>
      .cls-1 {
        fill: #f47721;
      }

      .cls-1, .cls-2, .cls-3, .cls-4, .cls-5 {
        stroke-width: 0px;
      }

      .cls-3 {
        fill: #fff;
      }

      .cls-4 {
        fill: #c1dbf0;
      }

      .cls-5 {
        fill: #f2f7fb;
      }
    </style>
  </defs>
  <path class="cls-1" d="m17.41,31.26c-.16,0-.3-.13-.3-.3,0-.09.04-.18.12-.24l3.63-2.75-5.42,3.13c-.14.08-.32.03-.4-.11-.08-.13-.04-.3.09-.39l2.76-1.9-3.78,2.18c-.14.08-.32.03-.4-.11-.07-.13-.04-.3.08-.38l4.21-2.97-5.3,3.06c-.14.08-.32.03-.4-.11-.08-.13-.03-.3.09-.39l.9-.59-1.31.76c-.14.08-.32.03-.4-.11-.08-.13-.04-.31.09-.39l1.68-1.11-2.07,1.19c-.14.08-.32.03-.4-.11-.07-.13-.04-.3.09-.39l3.76-2.62-4.3,2.48c-.14.08-.32.02-.4-.12-.07-.13-.03-.29.09-.38l2.3-1.57-2.64,1.53c-.14.08-.32.03-.4-.11-.07-.13-.04-.29.08-.38l3.2-2.36-2.99,1.73c-.14.08-.32.03-.4-.11-.07-.13-.04-.3.09-.39l.74-.52-.12.07c-.14.08-.32.03-.4-.12-.06-.12-.04-.26.05-.36l1.4-1.27c-.11,0-.22-.05-.28-.15-.08-.14-.03-.32.11-.4l2.18-1.26c.14-.08.32-.03.4.12.06.12.04.26-.05.36l-1.3,1.18,3.5-2.01c.14-.08.32-.03.4.12.07.13.04.29-.08.38l-.74.52,1.76-1.02c.14-.08.32-.03.4.11.07.13.04.29-.08.38l-3.2,2.36,4.94-2.85c.14-.08.32-.02.4.12.07.13.03.29-.09.38l-2.3,1.57,3.44-1.99c.14-.08.32-.04.4.1.08.13.04.31-.09.39l-3.76,2.62,4.86-2.8c.14-.08.32-.02.4.12.07.13.03.3-.09.38l-1.68,1.11,2.2-1.27c.14-.08.32-.03.4.12.07.13.03.3-.09.39l-.9.58,1.23-.71c.14-.08.32-.03.4.11.07.13.04.3-.08.38l-4.21,2.98,4.73-2.74c.14-.08.32-.03.4.11.08.13.04.3-.09.39l-2.76,1.9,2.97-1.71c.14-.08.32-.03.4.11.07.13.04.29-.08.38l-3.63,2.75,3.81-2.2c.14-.08.32-.03.4.11.07.13.04.29-.08.38l-1.82,1.34,1.74-1c.14-.08.32-.03.4.11.07.13.04.29-.08.38l-.37.27.2-.11c.14-.08.32-.02.4.12.07.14.03.3-.1.39l-4.74,2.74c-.14.08-.32.03-.4-.11-.07-.13-.04-.29.08-.38l.37-.28-1.78,1.03c-.14.08-.32.03-.4-.11-.07-.13-.04-.29.08-.38l1.82-1.34-3.31,1.91s-.1.04-.15.04h0Z"/>
  <path class="cls-5" d="m12.44,16.61c-.16,0-.3-.13-.3-.29,0-.1.05-.19.13-.25l1.29-.85-1.78,1.03c-.14.08-.32.03-.4-.11-.08-.13-.03-.3.09-.39l.28-.18c-.15.06-.32,0-.39-.15-.06-.13-.01-.28.1-.36l2.02-1.37-1.71.99c-.14.08-.32.03-.4-.11-.08-.13-.04-.3.09-.39l2.11-1.46-1.77,1.02c-.14.08-.32.03-.4-.11-.07-.13-.04-.29.08-.38l2.69-2.07-2.05,1.18c-.14.08-.32.04-.4-.1-.07-.12-.05-.27.06-.37l1.59-1.48c-.16.04-.32-.06-.35-.22-.03-.13.03-.26.14-.32l2.12-1.22c.14-.08.32-.04.4.1.07.12.05.27-.06.37l-1.55,1.44,3.7-2.14c.14-.08.32-.03.4.11.07.13.04.29-.08.38l-2.69,2.07,4.05-2.34c.14-.08.32-.03.4.11.08.13.04.3-.09.39l-2.11,1.46,2.74-1.58c.14-.08.32-.04.4.1.08.14.04.31-.09.4l-2.01,1.36,2.43-1.4c.14-.08.32-.02.4.12.07.13.03.3-.09.38l-.25.16.43-.25c.14-.08.32-.03.4.12.07.13.03.3-.09.39l-1.3.86,1.46-.84c.14-.08.32-.03.4.12.07.13.03.3-.09.38l-1.45.98,1.55-.89c.14-.08.32-.03.4.11.08.13.04.31-.09.39l-.47.31.44-.26c.14-.08.32-.03.4.11.08.13.04.31-.09.39l-.07.05c.15-.07.32,0,.39.15.05.12.02.27-.09.35l-1.55,1.19,1.42-.82c.14-.08.32-.03.4.11.07.11.05.26-.04.35l-1.52,1.57,1.22-.7c.14-.08.32-.03.4.11.06.11.05.24-.03.34l-.38.45h.02c.14-.09.32-.04.4.1.04.07.05.16.02.24l-.12.35s.07.06.1.1c.08.14.03.32-.11.4l-.3.17c-.14.08-.32.03-.4-.11-.04-.07-.05-.16-.02-.24l.04-.13-.82.47c-.14.08-.32.03-.4-.11-.06-.11-.05-.24.03-.34l.38-.45-1.56.9c-.14.08-.32.03-.4-.11-.07-.11-.05-.26.04-.35l1.52-1.57-3.52,2.03c-.14.08-.32.03-.4-.11-.07-.13-.04-.29.07-.38l1.55-1.19-2.91,1.68c-.14.08-.32.03-.4-.11-.08-.13-.04-.31.09-.39l.06-.04-.93.54c-.14.08-.32.03-.4-.11-.08-.13-.04-.31.09-.39l.47-.32-1.42.82c-.14.08-.32.03-.4-.11-.08-.13-.04-.3.09-.39l1.45-.98-2.57,1.48s-.1.04-.15.04h0Z"/>
  <path class="cls-3" d="m17.04,24.79c-.16,0-.29-.13-.29-.3,0-.07.02-.13.07-.19l1.06-1.29-1.69.97c-.14.08-.32.03-.4-.11-.06-.1-.05-.23.02-.33l.44-.56-.32.19c-.14.08-.32.03-.4-.11-.04-.07-.05-.16-.03-.23l.13-.43s-.09-.06-.11-.11c-.08-.14-.03-.32.11-.4l.3-.17c.14-.08.32-.03.4.11.04.07.05.15.03.23l-.07.24,1.01-.58c.14-.08.32-.03.4.11.06.1.05.24-.02.33l-.44.56,1.75-1.01c.14-.08.32-.03.4.11.06.11.05.24-.03.33l-1.06,1.3.79-.45c.14-.08.32-.02.4.12.07.14.03.3-.1.39l-2.18,1.26s-.09.04-.15.04h0Z"/>
  <path class="cls-3" d="m17.96,22.48c-.16,0-.3-.13-.3-.3,0-.09.04-.18.12-.24l.25-.19-1.13.65c-.14.08-.32.03-.4-.11-.07-.12-.04-.28.07-.37l2.49-2-3.61,2.08c-.14.08-.32.04-.4-.1-.08-.13-.04-.31.09-.4l2-1.38-2.44,1.41c-.14.08-.32.03-.4-.12-.07-.13-.04-.29.08-.38l2.89-2.03-3.23,1.86c-.14.08-.32.03-.4-.11-.07-.13-.04-.29.08-.38l3.83-2.8-4.08,2.35c-.14.08-.32.03-.4-.11-.08-.13-.04-.3.09-.39l2.49-1.72-2.46,1.42c-.14.08-.32.03-.4-.11-.07-.13-.04-.3.09-.39l2.27-1.6-2.13,1.23c-.14.08-.32.03-.4-.11-.07-.13-.04-.29.07-.38l2.96-2.33-3.45,1.99c-.14.08-.32.03-.4-.11-.07-.13-.04-.29.07-.38l2.49-1.93-2.56,1.48c-.14.08-.32.03-.4-.11-.07-.11-.05-.26.04-.35l1.57-1.62s-.09-.06-.12-.11c-.08-.14-.03-.32.11-.4l1.18-.68c.14-.08.32-.03.4.11.06.11.05.26-.04.35l-1.22,1.26,4.52-2.61c.14-.08.32-.03.4.11.07.13.04.29-.07.38l-2.49,1.93,3.22-1.86c.14-.08.32-.04.4.1.08.13.04.29-.07.38l-2.96,2.33,4.31-2.49c.14-.08.32-.03.4.11.07.13.04.3-.09.39l-2.27,1.59,2.9-1.67c.14-.08.32-.03.4.11.08.13.04.3-.09.39l-2.48,1.72,2.64-1.52c.14-.08.32-.03.4.11.07.13.04.29-.08.38l-3.83,2.8,4.32-2.5c.14-.08.32-.03.4.11.07.13.04.3-.09.39l-2.89,2.03,3.02-1.74c.14-.08.32-.04.4.1.08.13.04.31-.09.4l-2,1.38.5-.29c.14-.08.32-.03.4.11.07.13.04.29-.07.38l-2.49,2,1.86-1.07c.14-.08.32-.03.4.11.08.13.04.29-.08.38l-.6.46c.16.02.28.16.26.32,0,.09-.06.18-.15.23l-3.51,2.03s-.1.04-.15.04h0Z"/>
  <g>
    <path class="cls-4" d="m19.05,33.04c-.16,0-.29-.13-.29-.3,0-.1.06-.2.15-.25l10.87-6.28c.14-.08.32-.03.4.11.07.13.04.29-.07.38l-3.39,2.63.19-.11c.14-.09.32-.05.41.09.09.14.05.32-.09.41,0,0-.01,0-.02.01l-3.95,2.28c-.14.08-.32.03-.4-.11-.07-.13-.04-.29.07-.38l3.39-2.63-7.11,4.11s-.1.04-.15.04h0Z"/>
    <path class="cls-4" d="m33.1,18.96c-.16,0-.3-.13-.3-.3,0-.11.06-.2.15-.26l1.45-.84c.14-.09.32-.05.41.09s.05.32-.09.41c0,0-.01,0-.02.01l-1.45.84s-.1.04-.15.04Z"/>
    <path class="cls-4" d="m16.87,6.34c-.16,0-.29-.14-.29-.3,0-.09.04-.18.12-.23l.16-.12-.23.13c-.14.08-.32.04-.4-.1-.07-.12-.05-.27.06-.37l1.52-1.42-1.54.89c-.14.08-.32.03-.4-.11-.06-.11-.05-.26.05-.35l.94-.94-3.69,2.13c-.14.08-.32.02-.4-.12-.07-.14-.03-.3.1-.39l5.68-3.28c.14-.08.32-.03.4.11.06.11.05.26-.05.35l-.94.93,1.79-1.03c.14-.08.32-.04.4.1.07.12.05.27-.06.37l-1.52,1.42,2.72-1.57c.14-.08.32-.03.4.11.07.13.04.29-.08.38l-2.67,1.95c.06.14,0,.29-.13.37l-1.8,1.04s-.1.04-.15.04h0Z"/>
    <path class="cls-4" d="m30.47,16.45c-.16,0-.3-.13-.3-.29,0-.07.03-.15.08-.2l.63-.68-.39.23c-.14.09-.32.04-.41-.1-.08-.12-.05-.28.06-.38l.15-.15c-.16.04-.32-.05-.36-.2-.03-.09,0-.19.05-.26l.8-1.02-.71.41c-.14.08-.32.03-.4-.11-.07-.11-.05-.26.04-.35l.31-.32-.18.1c-.14.08-.32.03-.4-.11-.06-.1-.05-.22.01-.31l.78-1.11-.84.49c-.14.08-.32.03-.4-.11-.06-.1-.05-.23.02-.33l.61-.77-.67.39c-.14.08-.32.03-.4-.11-.05-.09-.05-.21,0-.3l.72-1.12-.94.55c-.12.07-.27.05-.36-.05-.09-.1-.11-.25-.03-.36l.66-1-.94.54c-.14.08-.32.03-.4-.11-.06-.1-.05-.22.01-.31l.6-.86-.9.52c-.14.08-.32.03-.4-.11-.06-.11-.05-.24.03-.33l.47-.58-.72.42c-.14.08-.32.03-.4-.11-.06-.1-.05-.22.01-.32l.55-.79-.97.56c-.14.08-.32.03-.4-.11-.06-.1-.05-.23.02-.32l.51-.67-.93.54c-.14.08-.32.03-.4-.11-.06-.11-.05-.24.03-.33l.45-.56-.89.51c-.14.08-.32.03-.4-.11-.06-.11-.05-.24.03-.34l.42-.5-.91.52c-.14.08-.32.03-.4-.11-.06-.1-.05-.21,0-.31l.6-.95-1.5.86c-.14.08-.32.03-.4-.11-.06-.1-.05-.22.01-.31l.6-.86-1.59.92c-.14.08-.32.03-.4-.11-.06-.11-.05-.25.04-.35l.47-.52-1.38.8c-.14.09-.32.05-.41-.09-.09-.14-.05-.32.09-.41,0,0,.01,0,.02-.01l3.01-1.74c.14-.08.32-.03.4.11.06.11.05.25-.04.35l-.47.52,1.1-.64c.12-.07.27-.05.36.05.09.1.1.25.02.37l-.6.87,1.38-.8c.14-.08.32-.03.4.11.06.1.05.21,0,.31l-.6.95,1.33-.77c.14-.08.32-.03.4.11.06.11.05.24-.03.34l-.42.5.82-.47c.14-.08.32-.03.4.11.06.11.05.24-.03.33l-.45.56.82-.47c.14-.08.32-.03.4.11.06.1.05.23-.02.32l-.51.67.87-.5c.14-.08.32-.03.4.11.06.1.05.22-.01.31l-.56.79.91-.53c.14-.08.32-.03.4.11.06.11.05.24-.02.33l-.47.58.69-.4c.14-.08.32-.03.4.11.06.1.05.22-.01.31l-.6.86.87-.5c.12-.07.27-.05.36.05.09.1.11.25.03.37l-.66,1,.92-.53c.14-.08.32-.03.4.11.05.09.05.21,0,.3l-.72,1.12.94-.54c.14-.08.32-.03.4.11.06.1.05.23-.02.33l-.61.77.67-.39c.14-.08.32-.03.4.11.06.1.05.22-.01.31l-.78,1.12.86-.5c.14-.08.32-.03.4.11.07.11.05.26-.04.36l-.31.32.19-.11c.14-.08.32-.03.4.11.06.1.05.24-.02.33l-.8,1.02.74-.43c.14-.09.32-.04.41.1.08.12.05.28-.06.38l-.14.13c.12-.04.25,0,.33.09.09.11.09.28-.01.38l-.63.67.44-.25c.14-.08.32-.03.4.11.08.14.03.32-.11.4l-2.14,1.23s-.1.04-.15.04h0Z"/>
    <path class="cls-4" d="m25.64,27.96c-.16,0-.3-.13-.3-.29,0-.1.05-.19.13-.24l1.81-1.26s-.06-.05-.09-.09c-.09-.13-.06-.3.07-.4l1.21-.91c-.16-.02-.28-.17-.25-.33,0-.07.05-.14.11-.19l1.13-.93h-.01c-.14.09-.32.04-.4-.1-.07-.12-.04-.28.06-.37l.89-.76-.04.02c-.14.08-.32.03-.4-.11-.07-.11-.05-.26.05-.35l1.43-1.45-.63.37c-.14.08-.32.03-.4-.11-.07-.12-.04-.28.06-.37l1.66-1.41-1.12.65c-.14.08-.32.03-.4-.11-.07-.12-.05-.26.05-.36l1.1-1.08-1.76,1.01c-.14.08-.32.03-.4-.11-.07-.12-.04-.27.06-.36l1.31-1.2-1.57.91c-.14.08-.32.03-.4-.11-.06-.1-.05-.23.02-.33l.3-.38c-.16-.04-.26-.2-.22-.36.02-.08.07-.15.14-.19l.97-.56c.14-.08.32-.03.4.11.06.1.05.23-.02.33l-.16.21,2.58-1.49c.14-.08.32-.03.4.11.07.12.04.27-.06.36l-1.31,1.2,1.44-.83c.14-.08.32-.03.4.11.07.12.05.26-.05.36l-1.1,1.08,1.92-1.11c.14-.08.32-.03.4.11.07.12.04.28-.06.37l-1.79,1.53c.1,0,.19.03.25.11.09.12.08.28-.02.39l-1.43,1.45.89-.51c.14-.08.32-.04.4.1.07.12.05.28-.06.37l-.89.76.31-.18c.14-.08.32-.03.4.11.07.13.04.28-.07.38l-1.13.93.45-.26c.14-.08.32-.03.4.11.07.13.04.29-.08.38l-.82.62.08-.05c.14-.08.32-.03.4.11.08.13.04.3-.09.39l-.64.44c.11,0,.21.06.26.15.08.14.03.32-.11.4l-5.5,3.17s-.09.04-.15.04h0Z"/>
    <path class="cls-4" d="m16.37,30.56c-.16,0-.3-.13-.3-.3,0-.06.02-.13.06-.18l.36-.48c-.16-.02-.27-.17-.25-.33.01-.09.07-.17.14-.22l.97-.56c.14-.08.32-.03.4.11.06.1.05.23-.02.32l-.27.35.73-.42c.14-.09.32-.05.41.09.09.14.05.32-.09.41,0,0-.01,0-.02.01l-1.98,1.14s-.1.04-.15.04h0Z"/>
    <path class="cls-4" d="m4.89,18.96c-.16,0-.3-.13-.3-.3,0-.11.06-.2.15-.26l1.3-.75c.14-.08.32-.02.4.12.07.14.03.3-.1.39l-1.3.75s-.1.04-.15.04Z"/>
    <path class="cls-4" d="m17.47,34.87c-.16,0-.3-.13-.3-.29,0-.07.02-.13.07-.19l.2-.25-.6.34c-.14.08-.32.02-.4-.12-.07-.13-.03-.3.09-.38l4.27-2.76-4.29,2.48c-.14.08-.32.02-.4-.12-.06-.12-.04-.26.05-.35l1.39-1.24-1.7.98c-.14.08-.32.03-.4-.11-.07-.13-.04-.29.07-.38l.19-.16-.85.49c-.14.08-.32.03-.4-.11-.07-.12-.04-.28.06-.37l1.3-1.1-2.23,1.29c-.14.08-.32.03-.4-.11-.06-.1-.05-.23.02-.32l.64-.87-1.53.89c-.14.08-.32.03-.4-.11-.06-.1-.05-.22.02-.32l.59-.81-1.34.77c-.12.07-.27.05-.36-.05-.09-.1-.11-.25-.04-.36l.6-.95-1.33.77c-.14.08-.32.03-.4-.11-.06-.1-.05-.22.01-.32l.57-.83-1.14.66c-.14.08-.32.03-.4-.11-.06-.1-.05-.22.01-.32l.56-.82-1.04.6c-.14.08-.32.03-.4-.11-.07-.11-.05-.25.04-.35l.23-.25-.42.25c-.14.08-.32.03-.4-.11-.06-.11-.05-.24.03-.33l.39-.47-.62.36c-.14.08-.32.03-.4-.11-.05-.09-.05-.21,0-.3l.63-1.06-1.06.61c-.14.08-.32.03-.4-.11-.06-.11-.05-.25.04-.34l.3-.34-.41.24c-.14.08-.32.03-.4-.11-.06-.11-.05-.25.04-.34l.3-.33-.37.21c-.14.08-.32.03-.4-.11-.06-.1-.05-.21,0-.31l.7-1.12-.96.55c-.14.08-.32.03-.4-.11-.07-.11-.05-.26.04-.35l.25-.26-.23.13c-.14.08-.32.03-.4-.11-.06-.11-.04-.26.05-.35l.1-.1-.04.02c-.14.08-.32.03-.4-.11-.06-.1-.05-.23.02-.32l.71-.96-.77.44c-.14.08-.32.03-.4-.11-.06-.11-.05-.24.03-.34l.64-.78-.61.35c-.14.08-.32.03-.4-.11-.06-.11-.05-.24.03-.33l.76-.95-.7.4c-.14.08-.32.03-.4-.11-.06-.1-.05-.23.02-.33l.9-1.14-.79.45c-.14.08-.32.03-.4-.11-.07-.12-.04-.28.07-.37l1-.83-.81.47c-.15.07-.32.02-.4-.13-.06-.12-.04-.26.06-.35l1.29-1.15-1.09.63c-.14.08-.32.03-.4-.11-.07-.12-.04-.28.07-.37l.14-.12-.85.49c-.14.09-.32.04-.41-.1-.08-.13-.05-.29.07-.38l1.06-.91-1.37.79c-.14.08-.32.03-.4-.11-.05-.09-.05-.21,0-.3l.39-.61c-.16.04-.32-.05-.36-.21-.04-.13.02-.27.14-.33l.97-.56c.14-.08.32-.03.4.11.05.09.05.21,0,.3l-.38.59,3.05-1.76c.14-.08.32-.03.4.11.07.12.04.27-.06.37l-1.06.91,1.11-.64c.14-.08.32-.03.4.11.07.12.04.28-.07.37l-.15.12.62-.35c.14-.08.32-.03.4.11.07.12.04.27-.06.37l-1.29,1.15,1.38-.8c.14-.08.32-.03.4.11.07.12.04.28-.07.37l-1.68,1.38s.06.04.08.06c.09.11.1.26,0,.37l-.9,1.14.73-.42c.14-.08.32-.03.4.11.06.11.05.24-.03.33l-.76.95.66-.38c.14-.08.32-.03.4.11.06.11.05.24-.03.34l-.64.78.59-.34c.14-.08.32-.03.4.11.06.1.05.23-.02.32l-.71.96.76-.44c.14-.08.32-.03.4.11.06.11.04.26-.05.35l-.1.1.04-.02c.14-.08.32-.03.4.11.07.11.05.26-.04.35l-.25.26.23-.13c.14-.08.32-.03.4.11.06.1.05.21,0,.31l-.7,1.12.98-.57c.14-.08.32-.03.4.11.06.11.05.25-.04.35l-.3.33.38-.22c.14-.08.32-.03.4.11.06.11.05.25-.04.34l-.3.34.43-.25c.12-.07.26-.05.36.05.09.1.11.24.04.36l-.63,1.06,1.1-.64c.14-.08.32-.03.4.11.06.11.05.24-.03.33l-.39.47.67-.38c.14-.08.32-.03.4.11.07.11.05.25-.04.35l-.23.25.47-.27c.14-.08.32-.03.4.11.06.1.05.22-.01.31l-.56.82,1.13-.65c.14-.08.32-.03.4.11.06.1.05.22-.01.31l-.57.83,1.25-.72c.14-.08.32-.03.4.11.05.1.05.21,0,.31l-.6.95,1.51-.87c.14-.08.32-.03.4.11.06.1.05.22-.02.32l-.59.81,1.54-.89c.14-.08.32-.03.4.12.05.1.05.22-.02.31l-.64.87,3.85-2.22c.14-.08.32-.03.4.11.07.12.04.28-.06.37l-1.3,1.1,1.13-.66c.14-.08.32-.04.4.1.07.13.05.29-.07.38l-.19.16,1.03-.6c.14-.08.32-.02.4.12.06.12.04.26-.05.35l-1.39,1.24,11.97-6.91c.14-.08.32-.03.4.11.08.14.04.31-.09.39l-12,7.76c0,.06-.03.11-.06.16l-.31.39c.16.02.27.18.25.34-.01.09-.07.17-.14.21l-1.06.62s-.1.04-.15.04h0Z"/>
    <path class="cls-4" d="m16.37,2.24c-.16,0-.3-.13-.3-.3,0-.06.02-.13.06-.18l.37-.5c-.16-.02-.28-.16-.26-.32,0-.09.06-.18.15-.23l.97-.56c.14-.08.32-.03.4.11.06.1.05.23-.02.32l-.28.38.75-.43c.14-.08.32-.02.4.12.07.14.03.3-.1.39l-1.99,1.15s-.1.04-.15.04Z"/>
    <path class="cls-4" d="m2.3,16.22c-.16,0-.3-.13-.3-.29,0-.09.04-.17.1-.22l.39-.34c-.15.05-.32-.03-.37-.18-.04-.11,0-.24.09-.32l.65-.55-.13.07c-.14.08-.32.03-.4-.11-.07-.12-.04-.28.06-.37l1.36-1.17-.67.39c-.14.08-.32.03-.4-.11-.07-.13-.04-.29.07-.38l1.1-.86-.36.21c-.14.08-.32.03-.4-.11-.07-.13-.04-.29.08-.38l.94-.68-.12.07c-.14.08-.32.02-.4-.12-.07-.13-.03-.29.09-.38l5.8-3.79-4.49,2.59c-.14.08-.32.03-.4-.11-.07-.13-.04-.3.09-.39l2.17-1.45-.61.35c-.14.08-.32.03-.4-.11-.07-.13-.04-.3.08-.38l2.03-1.43c-.13-.1-.15-.29-.05-.41.02-.03.05-.05.09-.07l3.65-2.11c.14-.08.32-.03.4.11.07.13.04.3-.08.38l-.36.26,2.67-1.55c.14-.08.32-.03.4.12.07.13.03.3-.09.38l-2.17,1.45,5.97-3.45c.14-.08.32-.02.4.12.07.13.03.3-.09.38l-9.36,6.12s.02.02.03.04c.09.13.05.31-.08.4l-1.85,1.33c.06.02.1.06.14.11.09.13.06.3-.06.4l-1.23.97c.11,0,.21.04.27.12.09.12.07.29-.05.39l-1.35,1.17.25-.14c.14-.08.32-.03.4.11.07.12.04.28-.06.37l-.68.58c.16-.05.32.04.37.19.03.11,0,.24-.09.31l-.48.41c.11,0,.22.05.28.15.08.14.03.32-.11.4l-2.57,1.48s-.1.04-.15.04h0Z"/>
  </g>
  <path class="cls-2" d="m1.82,19c.77,7.44,6.65,13.31,14.08,14.08-.33,2.47,3.45,2.36,3.22-.02,7.4-.82,13.25-6.67,14.08-14.07,2.36.2,2.42-3.27.01-3-.77-7.43-6.65-13.31-14.08-14.07.33-2.47-3.45-2.36-3.22.02-7.41.83-13.26,6.67-14.09,14.08-2.4-.05-2.47,3.12-.01,2.99h0Zm.37-2.35C4.58,8.05,7.65,4.17,16.77,2.17c-.38-1.4,1.24-2.12,1.49-.5.05.28-.15.81.29.85,7.38.65,13.23,6.52,13.84,13.91.14.35.65.17.94.21.9.09,1.34,1.45.16,1.71-.35.07-1-.16-1.11.35-.59,7.3-6.36,13.11-13.65,13.76-.93.05-.06,1.49-.87,1.75-.65.21-1.05-.34-1.09-.89-.05-.28.15-.81-.29-.85-7.38-.65-13.23-6.52-13.84-13.91-.42-.53-1.52.13-1.76-.81-.3-.93.64-1.11,1.3-1.11h0Z"/>
  <path class="cls-2" d="m4.42,16.57c1.54-.35,2.07,1.94.33,1.86-.2,0-.62.1-.59.37.35,3.49,2.08,6.7,4.81,8.91,0,.11.09.16.22.17,1.96,1.34,5.16,3.38,7.57,2.51,0-.52-.05-1.73.95-1.32.57.24.55.92.55,1.42,2.58.53,5.76-1.38,7.79-2.9,2.38-2.05,5.22-5.99,4.55-9.16-.8.16-1.73-.47-1.39-1.35.24-.85,1.44-.14,1.66-.87-.67-6.32-5.69-11.29-12.02-11.89-1.19-.13-.02,2.16-1.55,1.62-.89-.2-.13-1.63-.92-1.62-6.09.49-12.5,6.2-11.97,12.25h0Zm13.15,11.9c-.9-.02-1.64.7-1.66,1.6,0,0,0,.02,0,.02-2.22-.33-4.32-1.25-6.06-2.66.43-2.65,2.8-4.54,5.48-4.37.22,2.43,4.02,2.31,4.36,0,2.63.04,5.12,1.78,5.49,4.5-1.75,1.39-3.85,2.27-6.06,2.56-.06-.91-.43-1.71-1.54-1.66h0Zm-4.39-11.13c-1.04-.05-1.72-1.76-.45-1.96.13,0,.48-.12.48-.3.08-2.16,3.06-1.13,4.21-2.48,1.2,1.41,4.25.35,4.38,2.64,0,.11.19.13.26.13.98.07,1.33,1.79.22,1.87-.13,0-.48.12-.48.3.03,1.51-.68,2.95-1.9,3.84-2.97,1.85-6.84-.69-6.69-3.95,0-.04-.02-.07-.04-.11h0Zm-1.16-2.21c-1.15-8.39,11.84-8.3,10.99-.09-.12-.05-.24-.09-.36-.11-.31-2.46-3.42-1.34-4.74-2.91-.89-.29-1.52,1.05-2.49,1.05-1.24.11-2.86.41-3.04,1.92-.13.04-.25.08-.36.14h0Zm6.83,7.18c.41,2.56-2.92,2.55-2.69.07.89.18,1.81.16,2.69-.07Zm-2.94-17.44c-.21,2.21,3.26,2.14,3.2.04,5.71.89,10.13,5.46,10.85,11.19-.78-.1-1.5.46-1.59,1.25-.1.78.46,1.5,1.25,1.59.12.01.24.01.37,0-.35,3.06-1.79,5.9-4.05,7.99-.59-2.85-3.46-4.4-6.21-4.34,0-.2,0-.39,0-.59,1.73-.77,2.86-2.46,2.93-4.35,1.94-.63,1.13-3.38,1.07-4.94-.71-3.64-4.88-4.99-8.13-4.09-3.62.77-4.86,4.49-4.41,7.81.04.65.54,1.19,1.19,1.28.06,1.86,1.13,3.78,2.94,4.42v.45c-2.68.08-5.46,1.5-6.15,4.26-2.26-2.08-3.71-4.9-4.1-7.95,2.17-.05,2.23-2.89-.02-2.82.63-5.79,5.11-10.4,10.88-11.21h0Z"/>
</svg>