<?xml version="1.0" encoding="UTF-8"?>
<svg id="Layer_1" data-name="Layer 1" xmlns="http://www.w3.org/2000/svg" viewBox="0 0 35 35">
  <defs>
    <style>
      .cls-1 {
        fill: #f47721;
      }

      .cls-1, .cls-2, .cls-3 {
        stroke-width: 0px;
      }

      .cls-3 {
        fill: #c1dbf0;
      }
    </style>
  </defs>
  <g id="_029---Online-Video-Editing" data-name="029---Online-Video-Editing">
    <path id="Path" class="cls-1" d="m28.37,19.31c-.11,0-.21-.06-.26-.16s-.04-.21.02-.3l.69-1.01-1.24.72c-.13.07-.29.04-.38-.08-.09-.12-.07-.29.04-.39l.25-.22-.47.27c-.13.07-.29.04-.38-.08-.09-.12-.07-.29.04-.39l.81-.72-1.16.67c-.13.08-.29.04-.38-.08s-.07-.29.04-.39l1.74-1.63-2.37,1.37c-.13.07-.3.04-.38-.09s-.06-.29.06-.39l1.65-1.33-2.1,1.21c-.13.08-.3.04-.39-.08s-.06-.3.06-.39l2.61-2.14-3.26,1.88c-.13.08-.31.04-.39-.1s-.05-.31.08-.39l.79-.55-1.06.61c-.13.08-.3.04-.39-.09s-.05-.3.07-.39l2.75-2.03-3.04,1.76c-.14.08-.31.04-.39-.1s-.05-.31.08-.4l.55-.37-.25.14c-.14.08-.31.03-.39-.1s-.05-.31.08-.39l.28-.19c-.14.07-.31.02-.38-.11s-.04-.3.09-.39l1.71-1.18-1.4.81c-.14.08-.31.03-.39-.1s-.05-.31.08-.39l.51-.34-.2.12c-.14.08-.31.04-.4-.1s-.05-.31.09-.4l.82-.56-.51.3c-.13.08-.3.04-.39-.09-.08-.13-.06-.3.07-.39l5.1-3.84c-.05-.13,0-.29.12-.36l1.53-.88c.13-.08.3-.04.39.09.08.13.06.3-.07.39l-2.93,2.21,3.39-1.96c.14-.07.3-.03.39.1s.05.3-.08.39l-.82.56.54-.31c.14-.08.31-.04.39.1s.05.31-.08.4l-.51.34.2-.12c.13-.07.3-.03.39.1.08.13.05.3-.07.39l-1.71,1.18,1.4-.81c.14-.07.3-.03.39.1s.05.3-.08.39l-.28.19c.14-.06.3-.01.38.12s.03.3-.09.38l-.55.37.24-.14c.13-.08.3-.04.39.09s.05.3-.07.39l-2.75,2.03,2.43-1.4c.13-.08.31-.04.39.1s.05.31-.08.39l-.79.55.48-.28c.13-.07.3-.04.38.09s.06.29-.05.39l-2.61,2.14,2.28-1.32c.13-.07.3-.04.38.09s.06.29-.06.39l-1.64,1.32,1.32-.76c.13-.08.29-.04.38.08s.07.29-.04.39l-1.74,1.63,1.4-.81c.13-.07.29-.04.38.08.09.12.07.29-.04.39l-.81.72.47-.27c.13-.07.29-.04.38.08.09.12.07.29-.04.39l-.28.25c.11-.03.22,0,.3.08.09.1.1.25.03.36l-.69,1.01.3-.17c.14-.07.31-.02.39.11s.04.31-.1.39l-1.41.82s-.09.04-.15.04h0Z"/>
    <path id="Path-2" data-name="Path" class="cls-1" d="m9.46,19.52c-.13,0-.24-.08-.28-.21s.01-.26.12-.33l4.42-2.88-5.85,3.38c-.14.07-.31.03-.39-.1s-.04-.3.08-.39l5.02-3.23-6.29,3.63c-.14.07-.31.03-.39-.1-.08-.13-.04-.31.09-.39l4.88-3.1-5.24,3.02c-.14.08-.31.04-.39-.1-.08-.13-.04-.31.09-.4l8.52-5.57-8.34,4.82c-.14.07-.31.03-.39-.1s-.04-.3.08-.39l8.04-5.22-7.73,4.46c-.14.07-.31.03-.39-.11-.08-.13-.04-.3.08-.39l4.86-3.09-4.56,2.64c-.14.08-.31.04-.39-.1-.08-.13-.04-.31.09-.4l6.95-4.61-6.64,3.84c-.13.07-.3.03-.39-.1-.08-.13-.05-.3.08-.39l6.12-4.17-5.81,3.35c-.14.08-.31.03-.39-.1s-.05-.31.08-.39l3.47-2.32-3.17,1.83c-.13.08-.3.03-.39-.1-.08-.13-.05-.3.07-.39l4-2.88-3.68,2.12c-.13.08-.31.04-.39-.09s-.05-.3.07-.39l2.36-1.71-2.04,1.18c-.13.07-.3.04-.38-.09-.09-.12-.07-.29.05-.39l2.27-1.93-1.93,1.12c-.13.07-.29.03-.38-.08s-.07-.28.03-.38l.97-.87-.63.36c-.12.06-.26.04-.35-.05-.09-.1-.11-.24-.04-.35l.47-.73c-.14.03-.28-.05-.33-.18-.05-.13,0-.28.13-.36l.95-.55c.12-.07.26-.05.36.05s.11.25.03.36l-.46.7,1.94-1.13c.13-.07.29-.03.38.08s.07.28-.03.38l-.97.87,2.33-1.34c.13-.07.3-.04.38.09.09.12.07.29-.05.39l-2.27,1.93,4.17-2.41c.13-.08.31-.04.39.09.08.13.05.3-.07.39l-2.36,1.71,3.8-2.2c.13-.08.3-.03.39.1s.05.3-.07.39l-3.99,2.87,5.83-3.36c.14-.08.31-.04.39.1.08.13.05.31-.08.4l-3.48,2.32,4.88-2.82c.13-.07.3-.03.39.1.08.13.05.3-.08.39l-6.11,4.17,8.07-4.66c.14-.08.31-.03.39.1s.05.31-.08.39l-6.95,4.61,8.61-4.97c.14-.08.31-.03.39.1.08.13.04.31-.09.39l-4.86,3.08,5.11-2.95c.14-.08.31-.03.39.1s.04.31-.09.39l-8.04,5.22,7.84-4.53c.14-.08.31-.04.39.1s.04.31-.09.4l-8.51,5.57,8.21-4.74c.14-.07.31-.03.39.11s.04.3-.08.39l-4.89,3.1,4.59-2.65c.14-.08.31-.03.39.1.08.13.04.31-.09.39l-5.02,3.23,4.72-2.72c.14-.07.31-.03.39.1s.04.31-.08.39l-4.42,2.89,4.11-2.37c.14-.08.31-.03.39.1s.05.3-.08.39l-5.21,3.6,4.9-2.83c.14-.08.32-.04.4.1s.04.32-.1.4l-.47.3.16-.09c.13-.08.31-.03.39.1.08.13.05.3-.08.39l-2.72,1.9,2.4-1.39c.13-.08.3-.04.39.09.08.13.06.3-.06.39l-2.61,1.99,2.29-1.32c.13-.08.31-.04.39.09.08.13.05.3-.07.39l-.32.23c.13-.07.29-.04.38.08.09.12.07.29-.04.39l-1.01.88.67-.39c.13-.07.29-.03.37.08s.07.28-.03.38l-.19.17c.13,0,.24.09.27.22s-.02.26-.14.32l-2.1,1.21c-.13.07-.29.03-.37-.08s-.07-.28.03-.38l.04-.03-.87.5c-.13.07-.29.04-.38-.08-.09-.12-.07-.29.04-.39l1.01-.88-2.34,1.35c-.13.08-.31.04-.39-.09-.08-.13-.05-.3.07-.39l.32-.23-1.24.72c-.13.08-.3.04-.39-.09-.08-.13-.06-.3.06-.39l2.61-2-4.29,2.48c-.13.07-.3.03-.39-.1s-.05-.3.07-.39l2.71-1.9-4.13,2.39c-.14.08-.31.04-.39-.1-.08-.13-.04-.31.09-.4l.47-.3-1.38.8c-.13.07-.3.03-.39-.1s-.05-.3.07-.39l5.21-3.6-7.09,4.09s-.09.04-.15.04h0Z"/>
    <path id="Path-3" data-name="Path" class="cls-3" d="m11.09,34.66c-.13,0-.25-.09-.28-.22s.02-.26.14-.33l.12-.07s.1-.04.16-.04l1.43.06,8.26-4.77c.14-.08.31-.03.39.1s.05.31-.08.39l-.92.63.61-.35c.13-.08.3-.03.39.1.08.13.05.3-.07.39l-.78.56.5-.29c.13-.08.3-.04.38.08.09.12.07.29-.05.39l-1.47,1.27,1.32-.76c.12-.07.27-.04.36.06s.1.26.02.37l-.86,1.16,1.05-.6c.12-.07.27-.04.37.06s.09.26,0,.37l-.07.09.14-.08c.08-.04.17-.05.25-.02.08.03.15.1.17.19l.15.51.25-.14c.08-.05.18-.05.27-.01l.57.27c.14-.07.31-.02.39.12s.03.31-.11.39l-.12.07c-.08.05-.18.05-.27.01l-.57-.27-.44.25c-.08.04-.17.05-.25.02-.08-.03-.15-.1-.17-.19l-.15-.51-1.18.68c-.12.07-.27.04-.37-.06s-.09-.26,0-.37l.07-.08-.9.52c-.12.07-.27.04-.36-.06-.09-.1-.1-.26-.02-.37l.87-1.16-2.76,1.59c-.13.07-.29.04-.38-.08s-.07-.29.05-.39l1.47-1.27-3.02,1.75c-.13.08-.3.03-.39-.1-.08-.13-.05-.3.07-.39l.78-.56-1.81,1.05c-.13.07-.3.03-.39-.1s-.05-.3.08-.39l.92-.64-1.95,1.12s-.1.04-.16.04l-1.43-.06-.04.02s-.09.04-.14.04h0Z"/>
    <path id="Path-4" data-name="Path" class="cls-3" d="m13.14,33.52c-.13,0-.24-.08-.28-.2s0-.25.11-.33l2.42-1.7-1.31.76c-.13.07-.3.04-.38-.09s-.06-.29.05-.39l2.61-2.13-2.13,1.23c-.13.07-.29.04-.37-.07-.09-.11-.08-.28.02-.38l1.47-1.51-1.11.64c-.13.07-.29.04-.37-.08s-.08-.28.02-.38l.23-.23c-.1,0-.19-.03-.25-.11-.06-.08-.08-.17-.05-.27l.14-.45c-.09-.05-.15-.15-.15-.25s.05-.2.15-.26l.29-.17c.1-.06.23-.05.33.02.09.07.13.2.1.31l-.08.26,1.04-.6c.13-.07.29-.04.38.07s.08.28-.02.38l-.15.16,1.06-.61c.13-.07.29-.04.38.07s.08.28-.02.38l-1.47,1.51,3.41-1.97c.13-.07.3-.04.38.09s.06.29-.05.39l-2.61,2.13,4-2.3c.13-.08.31-.03.39.1.08.13.05.3-.08.39l-2.42,1.69,2.11-1.22c.14-.07.31-.02.39.11s.04.31-.1.39l-7.9,4.56s-.1.04-.15.04h0Z"/>
    <path id="Path-5" data-name="Path" class="cls-3" d="m2.5,28.84c-.13,0-.24-.08-.28-.2-.04-.12,0-.25.11-.33l.76-.53-1.35.78c-.14.08-.31.04-.39-.1-.08-.13-.05-.31.08-.4l.56-.39-.77.44c-.13.08-.3.04-.39-.09-.08-.13-.06-.3.07-.39l1.48-1.12-1.48.86c-.13.07-.29.04-.38-.08s-.07-.29.04-.39l1.56-1.45-1.28.74c-.13.07-.29.04-.38-.07-.09-.11-.08-.28.02-.38l.51-.52-.15.09c-.1.06-.23.05-.32-.02s-.14-.19-.11-.3l.16-.63c-.05-.02-.1-.07-.13-.12-.08-.14-.03-.32.11-.4l.29-.17c.1-.06.23-.05.32.02s.14.19.11.3l-.12.47,1.37-.79c.13-.07.29-.04.38.07s.08.28-.02.38l-.51.52,1.69-.98c.13-.07.29-.04.38.08s.07.29-.04.39l-1.56,1.44,3.31-1.91c.13-.08.3-.04.39.09.08.13.06.3-.07.39l-1.48,1.12,2.78-1.6c.14-.08.31-.04.4.09s.05.31-.08.4l-.57.39,1.53-.88c.14-.08.31-.03.39.1s.05.3-.08.39l-.76.53,1.77-1.02c.13-.08.31-.04.39.1s.05.3-.08.39l-1.42,1,2.59-1.49c.13-.08.3-.04.39.09s.06.3-.06.39l-2.68,2.1,4.47-2.58c.13-.08.3-.04.39.09s.05.3-.07.39l-2.16,1.6,3.61-2.09c.13-.08.31-.03.39.1.08.13.05.3-.08.39l-1.15.81,2.25-1.3c.13-.08.3-.03.39.1s.05.3-.07.39l-1.75,1.26,3.03-1.75c.13-.08.3-.04.39.09s.06.3-.06.39l-2.48,1.9,4.13-2.38c.13-.07.3-.03.39.09s.06.3-.07.39l-2.32,1.75,3.87-2.23c.13-.07.3-.03.38.09s.06.29-.06.39l-2.71,2.13,4.53-2.61c.13-.08.3-.04.39.09s.06.3-.06.39l-2.64,2.06,4.41-2.55c.13-.07.3-.03.39.09s.06.3-.07.39l-2.31,1.74,3.85-2.23c.13-.08.3-.03.39.09s.05.3-.07.39l-1.9,1.38,3.24-1.87c.14-.08.31-.03.39.1s.05.31-.08.39l-.61.42,1.58-.92c.13-.08.31-.04.39.09s.05.31-.08.4l-1.17.82,2.27-1.31c.13-.08.3-.04.39.09.08.13.05.3-.07.39l-2.3,1.73,3.23-1.86c.13-.07.3-.03.38.09.09.12.06.29-.05.39l-2.5,2.05,2.17-1.25c.13-.07.29-.04.38.08s.08.28-.03.39l-1.43,1.39,1.08-.62c.13-.07.29-.04.38.08.09.12.08.28-.03.38l-.38.38c.12.02.21.12.23.24.02.12-.04.24-.14.3l-1.59.91c-.13.07-.29.04-.38-.08-.09-.12-.08-.28.03-.38l.19-.18-1.11.64c-.13.07-.29.04-.38-.08s-.08-.28.03-.39l1.43-1.39-3.2,1.85c-.13.07-.3.04-.38-.09s-.06-.29.05-.39l2.5-2.06-4.39,2.53c-.13.08-.3.03-.39-.09-.08-.13-.06-.3.07-.39l2.3-1.73-3.83,2.21c-.13.07-.3.03-.39-.1s-.05-.3.07-.39l1.17-.82-2.27,1.31c-.14.08-.31.03-.39-.1s-.05-.3.08-.39l.62-.42-1.59.92c-.13.07-.3.03-.39-.1s-.05-.3.07-.39l1.89-1.38-3.23,1.86c-.13.07-.3.03-.39-.09s-.06-.3.07-.39l2.32-1.74-3.85,2.23c-.13.08-.3.04-.39-.09s-.06-.3.06-.39l2.64-2.06-4.41,2.54c-.13.07-.3.03-.38-.09s-.06-.29.06-.39l2.71-2.13-4.53,2.61c-.13.08-.3.04-.39-.09s-.06-.3.07-.39l2.32-1.75-3.86,2.23c-.13.08-.3.04-.39-.09-.08-.13-.06-.3.06-.39l2.48-1.9-4.13,2.38c-.13.08-.3.03-.39-.1s-.05-.3.07-.39l1.75-1.26-3.03,1.75c-.13.07-.3.03-.39-.1s-.05-.3.07-.39l1.15-.81-2.24,1.3c-.13.08-.3.04-.39-.09s-.05-.3.07-.39l2.16-1.6-3.61,2.09c-.13.07-.3.04-.38-.09s-.06-.3.06-.39l2.68-2.1-4.48,2.58c-.13.07-.3.03-.39-.1s-.05-.3.07-.39l1.42-1-2.59,1.49s-.09.04-.15.04h0Z"/>
    <g>
      <path id="Shape" class="cls-2" d="m6.34,19.43c2.29.49,5.22,0,7.55,0h7.57s.03,0,.04,0c.02,0,.04,0,.06,0h.01s.07-.01.11-.02c1.78-.48,1.55-1.77,1.55-3.35v-.4s.03.03.05.04l4.72,3.54s.03.01.04.01c0,0,0,0,.01.01,3.29,1.24,2.16-5.02,2.16-6.56s1.22-8.86-2.07-7.31c-1.58.75-3.07,2.29-4.46,3.33-.17.12-.31.23-.43.33,0-.52,0-1.05-.03-1.57-.04-1.5-.2-2.26-1.85-2.38-2.64-.19-5.35,0-7.99,0-2.15,0-4.54-.31-6.67,0-1.47.21-1.72.94-1.79,2.27-.16,2.72,0,5.5,0,8.22,0,1.59-.5,3.44,1.42,3.85h0ZM26.14,7.42c.82-.62,2.58-2.74,3.23-1.12.34.85,0,2.55,0,3.46v5.72c0,.26.29,3.71-.61,3.43-1.6-1.19-5-2.84-5.52-4.65.01-1.54.03-3.08.02-4.62.35-.62,2.19-1.69,2.88-2.21h0Zm-20.38-.87c.43-1.71,2.55-1.09,3.98-1.09h7.54c1.43,0,4.46-.69,5.11,1.09.26,1.03.32,2.1.18,3.16-.23.38-.18.82-.18,1.89,0,1.26-.27,2.32.16,3.21.09,1.79.03,3.9-.87,4.25h-11.57c-1.41,0-3.78.58-4.34-1.18-.47-1.51,0-3.89,0-5.45,0-1.75-.43-4.17,0-5.88h0Z"/>
      <path id="Shape-2" data-name="Shape" class="cls-2" d="m34.87,13.31V4.57c0-1.74.36-3.68-1.82-4.11-.01,0-.02,0-.03,0-.01,0-.03,0-.04,0H5.63C3.59.45.64-.09.26,2.64-.33,6.97.26,11.79.26,16.15v8.08c0,1.1-.34,3.07.52,3.94.74.75,2.05.55,3.01.55h9.86c0,2.05.26,4.76-2.26,5.4h-1.82c-.35,0-.88.53-.31.53h16.3c.35,0,.88-.53.31-.53h-1.64c-2.65-.6-2.75-3.03-2.76-5.4h6c1.95,0,6.52.89,7.32-1.65.4-1.26.08-3.02.08-4.31v-9.46ZM2.19.78c.78-.3,2.26,0,3.08,0h27.11c2.06.43,1.65,2.51,1.65,4.02v18.89H1.11V4.76c0-1.24-.39-3.42,1.09-3.98h0Zm18.52,30.93c.22,1.07.95,1.97,1.95,2.41h-10.47c.23-.08.46-.19.66-.33,1.78-1.21,1.66-3.16,1.64-5.07h6.15c.26.25-.08,2.36.06,2.99Zm11.98-3.31c-1.15.31-2.83,0-4.01,0H6.8c-1.19,0-2.69.25-3.86,0-1.89-.41-1.83-1.6-1.83-3.05v-1.23s32.93,0,32.93,0v1.3c0,1.25.17,2.58-1.34,2.98h0Z"/>
      <path id="Shape-3" data-name="Shape" class="cls-2" d="m13.6,12.73l-1.04,1.16c-.92-.39-2.34.11-2.4,1.32,0,.02,0,.03,0,.04s0,.02,0,.03c.1,1.9,3.18,1.63,3.17-.19,0-.31-.09-.61-.29-.86l.96-1.06,1.08,1.2c-.17.24-.27.53-.27.83-.04,1.96,3.08,1.78,3.18-.07-.07-1.24-1.35-1.63-2.26-1.25l-1.18-1.32,3.36-3.73c.33-.37-.49-.35-.68-.14l-3.08,3.43-3.18-3.53c-.23-.25-1.03.07-.78.35l3.41,3.79Zm-1.9,3.3c-.41-.12-.69-.5-.69-.93.03-.39.25-.85.71-.8.45.09.77.49.76.95,0,.43-.31.89-.78.78Zm5.44-.82c-.02.4-.24.87-.72.82-.43-.08-.75-.45-.76-.89-.04-.4.24-.77.64-.82.47.04.83.43.83.89Z"/>
      <path id="Path-6" data-name="Path" class="cls-2" d="m19.01,26.07h-2.33c-.21,0-.42.05-.6.16-.1.09-.15.16.04.16h2.33c.21,0,.42-.05.6-.16.1-.09.15-.16-.04-.16Z"/>
      <path id="Path-7" data-name="Path" class="cls-2" d="m8.09,8.07v-.58c0-.1-.84,0-.84.23v.58c0,.1.84,0,.84-.23Z"/>
      <path id="Path-8" data-name="Path" class="cls-2" d="m8.1,11.06v-.58c0-.43-.85-.3-.85.07v.58c0,.43.85.3.85-.07Z"/>
      <path id="Path-9" data-name="Path" class="cls-2" d="m8.09,13.89v-.58c0-.19-.84-.05-.84.23v.58c0,.19.84.05.84-.23Z"/>
      <path id="Path-10" data-name="Path" class="cls-2" d="m7.25,16.38v.58c0,.39.85.23.85-.09v-.58c0-.39-.85-.23-.85.09Z"/>
      <path id="Path-11" data-name="Path" class="cls-2" d="m20.9,8.14v-.58c0-.38-.85-.21-.85.09v.58c0,.38.85.21.85-.09Z"/>
      <path id="Path-12" data-name="Path" class="cls-2" d="m20.9,10.46c0-.35-.84-.18-.84.1v.58c0,.35.84.18.84-.1v-.58Z"/>
      <path id="Path-13" data-name="Path" class="cls-2" d="m20.06,13.54v.58c0,.12.84,0,.84-.23v-.58c0-.12-.84,0-.84.23Z"/>
      <path id="Path-14" data-name="Path" class="cls-2" d="m20.9,16.87v-.58c0-.39-.85-.23-.85.09v.58c0,.39.85.23.85-.09Z"/>
    </g>
  </g>
</svg>