<?xml version="1.0" encoding="UTF-8"?>
<svg id="Layer_1" data-name="Layer 1" xmlns="http://www.w3.org/2000/svg" viewBox="0 0 35 35">
  <defs>
    <style>
      .cls-1 {
        fill: #f47721;
      }

      .cls-1, .cls-2, .cls-3, .cls-4, .cls-5 {
        stroke-width: 0px;
      }

      .cls-3 {
        fill: #fff;
      }

      .cls-4 {
        fill: #c1dbf0;
      }

      .cls-5 {
        fill: #dfe8ef;
      }
    </style>
  </defs>
  <path class="cls-4" d="m17.05,34.86c-.16,0-.3-.13-.3-.3,0-.1.05-.19.13-.25l5.13-3.42-6.04,3.49c-.14.08-.32.03-.4-.11-.08-.14-.04-.31.09-.4l3.76-2.45-4.47,2.58c-.14.08-.32.03-.4-.11-.08-.14-.03-.31.1-.39l1.66-1.06-2.19,1.26c-.14.08-.32.04-.41-.1-.08-.14-.04-.32.1-.41h0l1.61-1.03-2.14,1.23c-.14.08-.32.04-.41-.1-.08-.14-.04-.32.1-.4l3.27-2.14-3.96,2.29c-.14.08-.32.03-.4-.12-.07-.13-.03-.3.09-.38l4.32-2.93-5.2,3c-.14.08-.32.03-.4-.11-.08-.13-.04-.3.09-.39l3.58-2.42-4.37,2.52c-.14.08-.32.03-.4-.11-.07-.13-.04-.3.08-.39l4.38-3.13-5.43,3.14c-.14.08-.32.03-.4-.12-.07-.13-.03-.3.09-.39l1.44-.96-2,1.15c-.14.08-.32.03-.4-.11-.07-.13-.04-.3.09-.39l2.59-1.79-3.32,1.91c-.14.08-.32.03-.4-.11-.07-.13-.04-.29.07-.38l3.53-2.67-4.6,2.66c-.14.08-.32.03-.4-.11-.07-.13-.04-.29.07-.38l3.06-2.38-4.11,2.37c-.14.08-.32.03-.4-.12-.07-.13-.04-.29.08-.38l.83-.58-1.35.78c-.14.08-.32.03-.4-.11-.07-.13-.04-.29.07-.38l2.2-1.75-3.11,1.79c-.14.08-.32.03-.4-.11-.07-.12-.05-.28.06-.37l1.07-.95-1.75,1.01c-.14.08-.32.03-.4-.11-.06-.1-.05-.22.01-.32l.12-.18c-.15.06-.32,0-.39-.15-.06-.14,0-.31.13-.38l1.12-.65c.14-.08.32-.03.4.11.06.1.05.22-.01.32l-.12.17,3.15-1.82c.14-.08.32-.03.4.11.07.12.05.28-.06.37l-1.08.95,4.02-2.32c.14-.08.32-.03.4.11.07.13.04.29-.07.38l-2.2,1.75,3.87-2.23c.14-.08.32-.03.4.12.07.13.04.29-.08.38l-.83.58,1.86-1.08c.14-.08.32-.03.4.11.07.13.04.29-.07.38l-3.06,2.38,4.96-2.86c.14-.08.32-.03.4.11.07.13.04.29-.08.38l-3.52,2.67,5.47-3.16c.14-.08.32-.03.4.12.07.13.03.29-.09.38l-2.58,1.79,3.96-2.29c.14-.08.32-.03.4.12.07.13.03.3-.09.39l-1.45.96,2.53-1.46c.14-.08.32-.03.4.11.07.13.04.3-.08.39l-4.39,3.13,6.28-3.62c.14-.08.32-.03.4.12.07.13.03.3-.09.38l-3.57,2.41,5.05-2.91c.14-.08.32-.03.4.11.07.13.04.3-.09.39l-4.32,2.93,5.94-3.43c.14-.08.32-.03.4.12.07.13.03.3-.09.38l-3.27,2.14,4.58-2.64c.14-.08.32-.03.4.11.08.14.03.31-.1.39l-1.61,1.03,2.42-1.4c.14-.08.32-.04.41.1s.04.32-.1.41l-1.65,1.05,2.18-1.26c.14-.09.32-.04.41.1s.04.32-.1.41h0l-3.76,2.45,4.48-2.59c.14-.08.32-.03.4.11.08.13.04.3-.09.39l-5.12,3.42,6.03-3.48c.14-.08.32-.02.4.12.07.13.03.29-.09.38l-3.59,2.41,4.37-2.52c.14-.08.32-.03.4.11.07.13.04.29-.07.38l-2.9,2.29,3.96-2.28c.14-.08.32-.03.4.11.06.11.05.24-.03.33l-.87,1.06,1.6-.92c.14-.08.32-.02.4.12.07.14.03.3-.1.39l-2.98,1.72c-.14.08-.32.03-.4-.11-.06-.11-.05-.24.03-.33l.87-1.06-6.07,3.5c-.14.08-.32.03-.4-.11-.07-.13-.04-.28.07-.37l2.9-2.29-8.49,4.9c-.14.08-.32.03-.4-.11-.07-.13-.04-.3.09-.39l3.59-2.4-6.32,3.65s-.1.04-.15.04h0Z"/>
  <path class="cls-5" d="m16.97,28.92c-.16,0-.3-.13-.3-.3,0-.1.05-.19.13-.25l4.61-3.04-5.44,3.14c-.14.08-.32.03-.4-.12-.07-.13-.03-.3.09-.39l3.6-2.34-4.3,2.48c-.14.08-.32.03-.4-.11-.07-.13-.04-.3.09-.38l6.16-4.22-7.28,4.2c-.14.08-.32.03-.4-.11-.08-.14-.03-.31.1-.39l2.16-1.38-2.73,1.58c-.14.08-.32.03-.4-.11-.07-.13-.04-.3.09-.39l5.08-3.45-6.05,3.49c-.14.08-.32.02-.4-.12-.07-.13-.03-.3.09-.38l3.09-2.04-3.78,2.18c-.14.08-.32.03-.4-.11-.07-.13-.04-.3.09-.39l3.32-2.23-4.07,2.35c-.14.08-.32.02-.4-.12-.07-.13-.03-.29.09-.38l3.29-2.24-4.07,2.35c-.14.08-.32.04-.4-.1-.08-.14-.04-.31.09-.4l2.68-1.82-3.39,1.96c-.14.08-.32.03-.4-.11-.08-.13-.04-.3.08-.39l3.86-2.84-4.91,2.84c-.14.08-.32.04-.41-.1-.08-.14-.04-.31.09-.4l2.08-1.44-2.75,1.59c-.14.08-.32.03-.4-.12-.07-.13-.04-.29.08-.38l2.03-1.43-2.72,1.57c-.14.08-.32.03-.4-.11-.07-.13-.04-.29.08-.38l2.02-1.47-2.75,1.59c-.14.08-.32.03-.4-.11-.08-.13-.04-.3.09-.39l.63-.44-1.12.65c-.14.09-.32.04-.41-.1-.08-.12-.05-.28.06-.38l1.24-1.17-2.04,1.18c-.14.08-.32.03-.4-.11-.06-.1-.05-.23.02-.32l.11-.15c-.13.03-.26-.02-.33-.14-.08-.14-.03-.32.11-.4l1.12-.65c.14-.08.32-.03.4.11.06.1.05.23-.02.32l-.09.13,3.01-1.74c.14-.09.32-.04.41.1.08.12.05.28-.06.38l-1.24,1.17,4.98-2.87c.14-.08.32-.03.4.12.07.13.04.29-.08.38l-.63.44,1.63-.94c.14-.08.32-.03.4.11.07.13.04.29-.08.38l-2.02,1.46,3.4-1.96c.14-.08.32-.03.4.11.07.13.04.3-.08.38l-2.03,1.43,3.34-1.93c.14-.08.32-.03.4.11.07.13.04.3-.09.38l-2.08,1.45,3.37-1.94c.14-.08.32-.03.4.11.08.13.04.3-.08.39l-3.86,2.84,5.76-3.33c.14-.08.32-.03.4.11.07.13.04.3-.09.39l-2.68,1.82,4.02-2.32c.14-.08.32-.02.4.12.07.13.03.29-.09.38l-3.29,2.24,4.75-2.74c.14-.08.32-.03.4.12.07.13.03.3-.09.39l-3.32,2.22,4.72-2.72c.14-.08.32-.02.4.12.07.13.03.3-.09.38l-3.09,2.04,4.4-2.54c.14-.08.32-.02.4.12.07.13.03.29-.09.38l-5.08,3.45,6.85-3.95c.14-.08.32-.03.4.12.07.13.03.3-.09.39l-2.16,1.39,2.9-1.67c.14-.08.32-.03.4.11.07.13.04.3-.09.38l-6.16,4.21,7.28-4.2c.14-.08.32-.03.4.11.08.13.03.3-.09.39l-3.6,2.34,4.3-2.48c.14-.09.32-.04.41.1s.04.32-.1.41l-4.61,3.04,5.44-3.14c.14-.08.32-.03.4.12.07.13.04.3-.09.38l-4.27,2.93,5.18-2.99c.14-.08.32-.03.4.11.07.12.04.28-.07.37l-2.81,2.29,3.91-2.26c.14-.08.32-.04.4.1.07.12.05.27-.05.36l-.83.8,1.43-.83c.14-.09.32-.05.41.09.09.14.05.32-.09.41,0,0-.01,0-.02.01l-3.5,2.03c-.14.08-.32.04-.4-.1-.07-.12-.05-.27.05-.36l.83-.81-5.02,2.9c-.14.08-.32.03-.4-.11-.07-.12-.04-.28.07-.37l2.81-2.29-8.61,4.97c-.14.08-.32.03-.4-.11-.08-.13-.04-.3.09-.39l4.27-2.93-7.34,4.24s-.1.04-.15.04h0Z"/>
  <path class="cls-3" d="m17.25,22.52c-.16,0-.3-.13-.3-.3,0-.1.05-.2.14-.25l.11-.07-.54.31c-.15.07-.32.01-.4-.13-.06-.13-.03-.28.09-.37l2.03-1.3-2.59,1.5c-.14.08-.32.03-.4-.12-.07-.13-.03-.3.09-.38l5.06-3.37-5.96,3.44c-.14.08-.32.04-.4-.11-.08-.14-.04-.31.1-.4l2.13-1.37-2.69,1.56c-.14.08-.32.03-.4-.11-.07-.13-.04-.3.09-.39l5.86-3.98-6.91,3.99c-.14.08-.32.02-.4-.12-.07-.13-.03-.29.09-.38l5.41-3.63-6.37,3.68c-.14.08-.32.03-.4-.11-.08-.13-.04-.3.09-.39l5.71-3.92-6.79,3.92c-.14.08-.32.03-.4-.11-.08-.13-.04-.31.09-.39l4.24-2.85-5.09,2.94c-.14.08-.32.03-.4-.11-.08-.13-.04-.3.09-.39l4.81-3.36-5.85,3.38c-.14.08-.32.03-.4-.11-.08-.13-.03-.3.09-.39l.57-.37-1.03.59c-.14.08-.32.03-.4-.11-.08-.13-.04-.3.08-.39l4.3-3.09-5.36,3.09c-.14.08-.32.03-.4-.11-.08-.13-.04-.3.08-.39l3.87-2.84-4.92,2.84c-.14.08-.32.03-.4-.11-.08-.13-.04-.3.08-.39l2.96-2.13-3.82,2.21c-.14.08-.32.04-.41-.1-.07-.12-.05-.28.06-.37l1.86-1.75-2.95,1.7c-.14.08-.32.04-.41-.1-.05-.09-.06-.2,0-.29l.25-.5-.26.15c-.14.08-.32.03-.4-.11-.08-.14-.03-.32.11-.4l1.12-.65c.14-.08.32-.03.4.11.05.09.05.19,0,.28l-.25.5,4.3-2.48c.14-.08.32-.04.41.1.07.12.05.28-.06.37l-1.86,1.75,6.67-3.85c.14-.08.32-.03.4.11.08.13.04.3-.08.39l-2.96,2.13,4.55-2.63c.14-.08.32-.03.4.11.08.13.04.3-.08.39l-3.87,2.83,5.76-3.33c.14-.08.32-.03.4.11.08.13.04.3-.08.39l-4.3,3.09,6.21-3.59c.14-.09.32-.04.41.1s.04.32-.1.41l-.57.37,1.51-.87c.14-.08.32-.03.4.11.08.13.04.3-.09.39l-4.82,3.36,6.69-3.86c.14-.08.32-.03.4.11.08.13.04.31-.09.39l-4.24,2.85,5.8-3.35c.14-.09.32-.05.41.09.09.14.05.32-.09.41h0l-5.71,3.92,7.39-4.26c.14-.08.32-.03.4.11.07.13.04.3-.09.39l-5.41,3.63,6.37-3.68c.14-.08.32-.04.4.1.08.14.04.31-.09.4l-5.86,3.98,6.91-3.99c.14-.08.32-.04.41.1s.04.32-.1.41h0l-2.13,1.36,2.69-1.56c.14-.08.32-.03.4.11.08.13.04.3-.09.39l-5.06,3.37,5.95-3.44c.14-.08.32-.04.41.1s.04.32-.1.41h0l-2.04,1.3,2.59-1.5c.14-.08.32-.04.41.1.08.14.04.32-.1.41l-.1.06.53-.31c.14-.08.32-.03.4.11.08.13.04.3-.09.39l-3.41,2.31,4.19-2.42c.14-.08.32-.04.4.11.08.13.04.3-.08.39l-2.05,1.47,2.76-1.59c.14-.08.32-.03.4.11.07.12.04.28-.07.38l-1.01.84,1.65-.95c.14-.08.32-.04.4.1.06.1.05.22,0,.31l-.2.32.1-.06c.14-.08.32-.03.4.11.08.14.03.32-.11.4l-1.12.65c-.14.08-.32.03-.4-.11-.06-.1-.05-.21,0-.31l.2-.32-3.66,2.12c-.14.08-.32.03-.4-.11-.07-.12-.04-.28.07-.38l1.01-.84-4.92,2.84c-.14.08-.32.03-.4-.11-.07-.13-.04-.3.08-.38l2.04-1.46-6.12,3.53c-.14.08-.32.03-.4-.11-.08-.13-.04-.3.09-.39l3.41-2.31-6.82,3.94s-.1.04-.15.04h0Z"/>
  <g>
    <path class="cls-1" d="m19.58,16.6c-.16,0-.3-.13-.3-.3,0-.11.06-.2.15-.26l4.27-2.46c.14-.08.32-.03.4.11.05.1.05.21,0,.31l-.65.99.74-.43c.14-.08.32-.03.4.11.08.14.03.32-.11.4l-1.82,1.05c-.14.08-.32.03-.4-.11-.06-.1-.05-.22,0-.31l.65-.99-3.19,1.84s-.1.04-.15.04h0Z"/>
    <path class="cls-1" d="m25.35,10.82c-.16,0-.3-.13-.3-.3,0-.11.06-.2.15-.26l1-.58c.14-.08.32-.03.4.11.08.14.03.32-.11.4l-1,.58s-.1.04-.15.04h0Z"/>
    <path class="cls-1" d="m17.9,18.43c-.16,0-.3-.13-.3-.3,0-.09.04-.17.11-.23l2.71-2.16-3.8,2.19c-.14.08-.32.03-.4-.11-.08-.13-.04-.3.08-.39l3.46-2.53-3.45,2c-.14.08-.32.03-.4-.11-.08-.13-.04-.3.09-.39l5.06-3.59-6.1,3.52c-.14.08-.32.04-.4-.11-.08-.14-.04-.31.1-.4l1.38-.89-1.79,1.03c-.14.09-.32.04-.41-.1s-.04-.32.1-.41l2.06-1.33-3.86,2.23c-.14.08-.32.04-.4-.11-.08-.14-.04-.31.1-.4l2.08-1.33-2.37,1.37c-.14.08-.32.03-.4-.11-.08-.14-.04-.31.1-.39l3.3-2.13-3.54,2.05c-.14.08-.32.04-.41-.1-.08-.14-.04-.32.1-.41l1.9-1.21-1.35.78c-.14.09-.32.04-.41-.1-.09-.14-.04-.32.1-.41h0l5.19-3.47-4.75,2.74c-.14.08-.32.03-.4-.11-.08-.14-.04-.31.09-.39l5.07-3.37-5.2,3c-.14.09-.32.04-.41-.1-.09-.14-.04-.32.1-.41l5.22-3.46-5.2,3c-.14.08-.32.04-.4-.11-.08-.14-.04-.31.1-.4l2.38-1.53-2.65,1.53c-.14.08-.32.03-.4-.11-.08-.14-.04-.31.09-.4l2.35-1.54-3.01,1.74c-.14.08-.32.04-.4-.11-.08-.14-.04-.31.1-.4l1.61-1.04-1.52.88c-.14.08-.32.03-.4-.11-.05-.09-.05-.21,0-.3l.32-.54c-.12.02-.24-.04-.3-.14-.08-.14-.03-.32.11-.4l.85-.49c.14-.08.32-.03.4.11.05.09.05.21,0,.3l-.3.51,10.97-6.34c.14-.08.32-.03.4.12.07.13.03.3-.09.39l-1.61,1.04,2.02-1.17c.14-.08.32-.03.4.11.08.14.04.31-.09.4l-2.35,1.53,4.13-2.39c.14-.08.32-.03.4.11.08.14.03.31-.1.39l-2.38,1.52,2.61-1.5c.14-.08.32-.03.4.11.08.14.04.31-.09.39l-5.22,3.46,5.02-2.9c.14-.08.32-.03.4.12.07.13.03.3-.09.39l-5.07,3.37,4.48-2.59c.14-.08.32-.03.4.11.08.13.04.3-.09.39l-5.19,3.47,5.35-3.09c.14-.08.32-.03.4.11.08.14.04.31-.1.4l-1.91,1.21,1.81-1.04c.14-.09.32-.04.41.1.09.14.04.32-.1.41h0l-3.29,2.13,3.26-1.88c.14-.08.32-.04.4.11.08.14.04.31-.1.4l-2.08,1.33,2.7-1.56c.14-.08.32-.03.4.11.08.13.03.3-.09.39l-2.06,1.33,2.4-1.39c.14-.08.32-.04.4.11.08.14.04.31-.1.4l-1.38.89,1.1-.63c.14-.08.32-.03.4.11.08.13.04.3-.09.39l-5.05,3.59,2.71-1.57c.14-.08.32-.03.4.11.08.13.04.3-.08.39l-3.46,2.53,2.47-1.43c.14-.08.32-.03.4.11.07.13.04.28-.07.38l-5.01,4c0,.11-.06.21-.15.26l-.66.38s-.1.04-.15.04h0Z"/>
    <path class="cls-1" d="m16.22,2.1c-.16,0-.3-.13-.3-.3,0-.06.02-.11.05-.16l.39-.6c-.14-.09-.17-.27-.08-.41.03-.04.06-.07.1-.09l.55-.32c.14-.08.32-.03.4.11.06.1.05.21,0,.31l-.19.29,1.11-.64c.14-.08.32-.04.4.11.08.14.04.32-.11.4,0,0,0,0,0,0l-2.18,1.26s-.1.04-.15.04Z"/>
    <path class="cls-1" d="m10.5,7.69c-.16,0-.3-.13-.3-.3,0-.09.04-.18.12-.24l3.76-2.74-2.77,1.6c-.14.08-.32.03-.4-.11-.06-.11-.05-.25.03-.34l1.06-1.22-.78.45c-.14.08-.32.03-.4-.11-.06-.12-.05-.26.05-.35l.06-.06c-.15.07-.32.01-.4-.13-.06-.11-.04-.24.05-.33l.52-.56s-.04-.04-.05-.06c-.08-.14-.03-.32.11-.4l.84-.49c.14-.08.32-.03.4.11.06.11.05.25-.04.35l-.03.03.28-.16c.14-.08.32-.03.4.11.06.12.05.26-.05.35l-.06.06.33-.19c.14-.08.32-.03.4.11.06.11.05.25-.03.34l-1.06,1.22,6.02-3.48c.14-.08.32-.03.4.11.08.13.04.3-.08.39l-3.76,2.74,4.1-2.37c.14-.08.32-.03.4.11.08.14.03.32-.11.4l-8.88,5.13s-.1.04-.15.04h0Z"/>
  </g>
  <path class="cls-3" d="m17.93,14.26c-.16,0-.3-.13-.3-.3,0-.08.04-.16.1-.22l2.11-1.9-3.71,2.14c-.14.08-.32.03-.4-.11-.08-.13-.04-.3.09-.39l.92-.65-1.4.81c-.14.08-.32.03-.4-.11-.08-.13-.04-.3.09-.39l.71-.49-.96.56c-.14.08-.32.03-.4-.11-.08-.13-.04-.31.09-.39l.95-.64-1.16.67c-.14.08-.32.03-.4-.11-.07-.13-.04-.29.08-.38l3.02-2.2-3.31,1.91c-.14.08-.32.04-.4-.11-.08-.13-.04-.3.08-.39l3.64-2.75-3.77,2.18c-.14.08-.32.03-.4-.11-.07-.13-.04-.29.08-.38l3.11-2.34-2.96,1.71c-.14.09-.32.04-.41-.1-.08-.14-.04-.31.09-.4l.34-.24c-.15.07-.32.01-.4-.14-.06-.13-.03-.28.09-.36l1.6-1.21-1,.58c-.14.08-.32.03-.4-.11-.07-.12-.05-.27.06-.37l1.32-1.22c-.16,0-.29-.14-.29-.3,0-.1.06-.2.15-.25l1.98-1.14c.14-.08.32-.03.4.11.07.12.05.27-.06.37l-1.18,1.1,2.85-1.65c.14-.08.32-.03.4.11.07.13.04.29-.08.38l-1.6,1.21,2.39-1.38c.14-.09.32-.04.41.1.08.14.04.31-.09.4l-.34.23.69-.4c.14-.08.32-.03.4.11.07.13.04.29-.08.38l-3.11,2.34,3.66-2.12c.14-.08.32-.04.4.11.08.13.04.3-.08.39l-3.64,2.75,4.01-2.32c.14-.08.32-.03.4.11.07.13.04.29-.08.38l-3.02,2.2,3.08-1.78c.14-.08.32-.03.4.11.08.13.04.31-.09.39l-.95.65.77-.44c.14-.08.32-.04.4.1.08.13.04.31-.09.4l-.71.49.48-.28c.14-.08.32-.03.4.11.08.13.04.3-.09.39l-.92.65.49-.28c.14-.08.32-.02.4.12.06.12.04.26-.05.35l-2.11,1.9,1.01-.58c.14-.08.32-.03.4.11.08.14.03.32-.11.4l-3.44,1.99s-.1.04-.15.04h0Z"/>
  <path class="cls-3" d="m17.95,11.88c-.16,0-.3-.13-.3-.3,0-.07.03-.15.08-.2l.56-.6-1.56.9c-.14.08-.32.03-.4-.11-.07-.12-.04-.28.06-.37l.84-.73-1.22.7c-.14.08-.32.03-.4-.11-.07-.12-.04-.28.07-.37l1-.85-1.13.65c-.14.08-.32.03-.4-.11-.07-.12-.04-.27.06-.37l1.09-.95-.96.55c-.14.08-.32.03-.4-.11-.06-.11-.05-.24.03-.34l.89-1.09c-.15.06-.32,0-.39-.16-.06-.14,0-.3.12-.37l1.36-.79c.14-.08.32-.03.4.11.06.11.05.24-.03.34l-.89,1.08,2.14-1.24c.14-.08.32-.03.4.11.07.12.05.28-.06.37l-1.09.95,1.43-.83c.14-.08.32-.03.4.11.07.12.04.28-.07.37l-1,.85,1.02-.59c.14-.08.32-.03.4.11.07.12.04.28-.06.37l-.84.73.56-.32c.14-.08.32-.03.4.11.07.11.05.25-.04.35l-.7.75c.16.02.28.17.26.33-.01.09-.07.17-.15.22l-1.36.79s-.1.04-.15.04h0Z"/>
  <path class="cls-2" d="m17.25,14.21s.03,0,.04,0c.02,0,.03,0,.05,0,2.41-.13,4.68-1.48,5.23-3.98.69-3.13-1.77-5.65-4.76-5.82-.01,0-.03,0-.04,0h-.05c-2.41.13-4.68,1.48-5.23,3.98-.69,3.13,1.77,5.65,4.76,5.82h0Zm.03-9.45c5.26.31,6.44,8.72.5,9.11-5.26-.31-6.44-8.72-.5-9.11Z"/>
  <path class="cls-2" d="m20.32,9.19c-.18-3.4-5.57-2.98-5.58.23-.01,3.44,5.41,2.94,5.58-.23Zm-2.22-1.89c.82.39,1.35,1.22,1.36,2.13-.07,1.33-1.19,2.57-2.62,1.84-.77-.4-1.25-1.2-1.26-2.07,0-1.29,1.16-2.5,2.51-1.9h0Z"/>
  <path class="cls-2" d="m3.8,17.75l3.75,1.34-5.63,2.01c-.97.35-2.66.8-1.45,1.97.83.8,3.22,1.15,4.28,1.53l2.11.76c-1.81.63-3.67,1.2-5.43,1.95-.92.39-1.97.63-.93,1.64,1,.97,3.9,1.39,5.19,1.86l7.65,2.73c2.81,1,3.73,1.51,6.46.53,4.58-1.64,9.3-3.09,13.8-4.94.93-.38,2.11-.74.86-1.69-1.5-1.13-4.23-1.59-6.13-2.21,1.87-.65,4-1.14,5.74-2.06,1.17-.62,1.2-1.09.12-1.79-1.82-1.18-4.53-1.69-6.67-2.4l1.63-.58c1.45-.52,4.06-.9,5.27-1.89,1.66-1.34-.75-1.8-1.88-2.21l-7.62-2.73c.07-.22.14-.45.19-.69.32-.1.64-.19.97-.3.67-.21.75-.57.76-1.25,0-.61.07-1.14-.57-1.35-.37-.12-.75-.23-1.12-.34-.2-.88-.55-1.73-1.04-2.49.25-.37.46-.76.62-1.18.18-.64-.44-1.12-.92-1.49-.71-.54-1.41-.05-2.1.35-.73-.43-1.52-.76-2.34-.95l-.31-1.03c-.16-.54-.39-.66-.98-.69-.6-.03-1.59-.15-1.92.49-.13.33-.24.66-.31,1l-.08.26c-.78.2-1.53.5-2.22.91-.31-.17-.63-.34-.95-.5-.64-.31-1.07.02-1.54.47-.44.42-.95.8-.63,1.42.18.36.38.71.57,1.06-.47.75-.82,1.56-1.02,2.42-.32.1-.64.19-.97.3-.67.21-.75.57-.76,1.25,0,.61-.07,1.14.57,1.35.37.12.75.23,1.12.34.06.25.13.5.21.74l-6.46,2.32c-.66.24-3.47.73-3.67,1.69-.25,1.2,3.08,1.8,3.78,2.05h0Zm26.98,12.13c-2.8,1-5.85,1.97-8.64,2.97-1.56.57-3.18.95-4.83,1.12-1.27.03-3.1-.8-4.38-1.25-2.8-1-5.58-1.9-8.38-2.9-.92-.33-4.77-1.37-3.1-2.09.91-.39,2.88-.8,3.75-1.25.75-.34,1.52-.64,2.3-.88,1.9.68,3.53,1.25,5.44,1.94,1.25.45,2.79,1.33,4.12,1.47,1.07.11,2.19-.52,3.16-.87l7.31-2.61c1.86.6,4.38,1.05,5.89,2.12,1.88,1.33-1.5,1.85-2.62,2.25Zm.43-8.89c.61.22,1.92.41,2.4.86.71.67.39.63-.09,1.02-1.14.92-3.61,1.29-4.98,1.78l-6.68,2.39c-1.16.41-2.88,1.44-4.13,1.48-.75.02-2-.65-2.78-.93l-12.27-4.39c-.28-.1-1.31-.28-1.49-.53-.68-.96.84-1.11,1.5-1.35l5.54-1.98,3.95,1.41c1.46.52,3.29,1.58,4.85,1.73,1.18.12,2.49-.64,3.56-1.02l5.95-2.13,4.66,1.66ZM9.23,10.05c-.21-.17-.13-.62-.13-.88.02-.15.03-.31.02-.46-.03-.11-.02-.17-.04-.18.13-.05.27-.09.41-.11l.92-.28c.06-.02.12-.05.18-.09.09-.04.16-.12.18-.22.19-.92.56-1.79,1.07-2.58.06-.1.05-.17-.01-.21l-.42-.8c-.09-.13-.17-.27-.22-.42-.05-.26.18-.43.37-.62.09-.1.27-.2.33-.32.02-.01.05-.03.07-.05.11.06.26.12.3.14l.81.43.06.03c.2.09.43.06.61-.06.74-.48,1.57-.83,2.44-1,.17-.03.3-.15.36-.3.05-.16.1-.32.15-.49.08-.25.15-.5.23-.75,0-.03.02-.08.03-.12.06.01.11.02.17.02.23.02.78-.11.98.08.12.12.17.54.21.7.07.24.14.47.22.71,0,.05.03.1.11.13.04.02.08.04.12.04.89.2,1.74.56,2.51,1.05.16.08.35.08.52,0l.75-.4c.53-.28.47-.31.87.18.45.56.53.64.21,1.23l-.38.71s0,.01-.01.02h0s0,.03,0,.04c0,.02-.02.04-.02.07,0,.05,0,.09.04.13.51.78.87,1.65,1.06,2.56,0,0,0,0,0,.01h0s.02.07.05.09c.05.05.12.08.19.09l.85.26c.15.02.3.07.44.13.21.17.13.62.13.88-.02.15-.03.3-.01.45.03.11.02.17.04.18-.13.05-.27.09-.41.11l-.92.28c-.06.02-.12.05-.18.09-.09.04-.16.12-.18.22-.19.92-.56,1.79-1.07,2.58-.06.1-.05.17.01.21l.42.8c.1.14.18.29.24.44.03.25-.27.48-.45.66-.04.04-.24.2-.34.3-.11-.07-.29-.13-.37-.18l-.8-.42c-.1-.04-.21-.05-.31-.02-.11,0-.21.03-.3.08-.74.49-1.57.83-2.44,1-.2.04-.31.15-.33.25-.01.02-.02.03-.03.05l-.25.82c-.03.18-.09.35-.16.52,0,.01,0,.01-.01.02-.16-.02-.32-.02-.47-.01-.24,0-.56.05-.69-.16-.07-.15-.11-.31-.14-.47l-.27-.87s-.02-.03-.03-.05c0-.02-.02-.04-.03-.05-.05-.04-.11-.06-.17-.07-.89-.19-1.75-.55-2.51-1.05-.05-.03-.12-.04-.18-.04-.12-.02-.24,0-.34.05l-.8.42c-.12.08-.25.15-.38.22,0-.02-.02-.04-.04-.05-.13-.13-.27-.25-.4-.38-.18-.18-.54-.43-.5-.7.05-.14.13-.28.22-.41l.43-.81.03-.06c.04-.07.03-.15-.01-.21-.51-.78-.87-1.66-1.06-2.57h0v-.02s-.02-.06-.05-.08c-.05-.05-.12-.08-.19-.09l-.85-.26c-.15-.02-.3-.07-.44-.13h0Zm-4.71,4.08l5.76-2.06c.19.48.42.94.7,1.38-.19.36-.39.72-.57,1.08-.32.64.28,1.06.73,1.48.34.41.93.5,1.37.21.28-.14.56-.3.85-.45.73.44,1.52.77,2.36.96.12.39.22.78.35,1.16.23.66.9.57,1.51.56.62,0,1.19-.03,1.41-.69.12-.35.22-.72.33-1.08.78-.2,1.53-.5,2.22-.91.3.16.59.32.89.47.62.32,1.04.07,1.52-.38.45-.43,1.02-.84.7-1.48-.18-.36-.38-.71-.57-1.07.24-.38.45-.77.62-1.19,2.41.78,9.81,3.1,9.33,4.09-.3.62-3.58,1.28-4.22,1.51l-7.45,2.66c-1.29.46-3.23,1.62-4.62,1.65-.84.02-2.34-.79-3.21-1.1l-7.04-2.52c-1.72-.61-4.26-1.03-5.78-2.07-1.82-1.24,1.62-1.81,2.81-2.24h0Z"/>
  <path class="cls-2" d="m9.5,23.27c-.27-.1-1.04.3-.68.43l6.61,2.36c.27.1,1.04-.3.68-.43l-6.61-2.36Z"/>
  <path class="cls-2" d="m16.01,31.46l-6.61-2.36c-.38-.13-1,.41-.49.59l6.61,2.36c.38.13,1.01-.41.49-.59h0Z"/>
</svg>