<?xml version="1.0" encoding="UTF-8"?>
<svg id="Layer_1" data-name="Layer 1" xmlns="http://www.w3.org/2000/svg" viewBox="0 0 35 35">
  <defs>
    <style>
      .cls-1 {
        fill: #f47721;
      }

      .cls-1, .cls-2, .cls-3 {
        stroke-width: 0px;
      }

      .cls-3 {
        fill: #c1dbf0;
      }
    </style>
  </defs>
  <g>
    <path class="cls-3" d="m21.02,32.05c-.16,0-.29-.13-.29-.29,0-.1.06-.2.15-.25l9.15-5.29c.14-.08.32-.03.4.11.07.12.04.27-.06.36l-1.88,1.67,1.97-1.14c.14-.08.32-.03.4.11.07.12.04.27-.06.37l-1.22,1.07.37-.21c.14-.07.32-.02.4.12.07.13.03.3-.1.38l-2.91,1.68c-.14.08-.32.03-.4-.11-.07-.12-.04-.27.06-.36l1.22-1.07-1.92,1.11c-.14.08-.32.03-.4-.11-.07-.12-.04-.27.06-.37l1.88-1.67-6.67,3.85s-.09.04-.15.04h0Z"/>
    <path class="cls-3" d="m26.56,26.15c-.16,0-.29-.13-.29-.29,0-.09.04-.18.12-.23l1.56-1.21c-.16.03-.31-.08-.34-.24-.02-.1.02-.21.1-.27l1.21-1.01-.1.06c-.14.08-.32.03-.4-.11-.07-.13-.04-.29.08-.38l1.31-.96-.53.31c-.14.08-.32.04-.4-.1-.07-.13-.04-.29.07-.38l2.4-1.94-1.66.96c-.14.08-.32.03-.4-.11-.07-.13-.04-.29.08-.38l.73-.54-.26.15c-.14.08-.32.04-.4-.1-.07-.12-.05-.28.06-.37l1.98-1.69-1.53.88c-.14.08-.32.03-.4-.11-.07-.12-.04-.26.05-.36l1.24-1.14-.9.52c-.14.08-.32.03-.4-.11-.06-.11-.05-.26.04-.35l.72-.73-.45.26c-.14.08-.32.04-.4-.1-.07-.12-.05-.27.05-.36l.29-.28-.05.03c-.14.08-.32.03-.4-.11-.06-.11-.05-.25.04-.34l.64-.71-.48.28c-.14.08-.32.03-.4-.11-.07-.11-.05-.26.04-.35l.42-.43-.28.16c-.14.08-.32.03-.4-.11-.06-.11-.05-.24.03-.33l.67-.82-.63.37c-.14.08-.32.03-.4-.11-.06-.1-.05-.24.03-.33l.62-.75-.63.37c-.14.08-.32.03-.4-.11-.06-.11-.05-.25.04-.35l.3-.32-.28.16c-.14.08-.32.03-.4-.11-.06-.1-.05-.23.02-.33l1-1.26-1.25.72c-.14.08-.32.04-.4-.1-.07-.12-.05-.27.05-.36l1.44-1.39-1.76,1.02c-.14.08-.32.03-.4-.11-.07-.12-.04-.28.07-.37l.9-.75-1.11.64c-.14.08-.32.03-.4-.11-.07-.13-.04-.29.08-.38l.03-.02-.15.08c-.14.08-.32.03-.4-.11-.07-.12-.04-.28.07-.37l.7-.56-.94.54c-.14.08-.32.04-.4-.1-.07-.12-.05-.27.05-.36l1.62-1.57-2.26,1.31c-.14.08-.32.03-.4-.11-.05-.09-.05-.21,0-.3l.63-.99-1.32.76c-.14.08-.32.03-.4-.11-.05-.09-.05-.21,0-.3l.61-.95-1.41.81c-.14.08-.32.03-.4-.11-.07-.12-.05-.26.05-.36l.15-.14-.58.33c-.14.08-.32.03-.4-.11-.06-.1-.05-.22.01-.31l.64-.92-1.7.98c-.14.08-.32.03-.4-.11-.06-.1-.05-.23.02-.32l.68-.9-1.96,1.13c-.14.08-.32.03-.4-.11-.06-.11-.05-.26.05-.35l.76-.77-2.19,1.27c-.14.08-.32.04-.4-.1-.07-.12-.05-.28.06-.37l1.47-1.29-4.35,2.51c-.14.07-.32.02-.4-.12-.07-.13-.03-.3.1-.38l6.93-4c.14-.08.32-.03.4.11.07.12.04.27-.06.36l-1.48,1.29,1.5-.87c.14-.08.32-.03.4.11.06.11.05.26-.05.35l-.76.77,1.33-.77c.14-.08.32-.03.4.11.06.1.05.23-.02.32l-.68.9,1.58-.91c.14-.08.32-.03.4.11.06.1.05.22-.01.31l-.64.92,1.45-.83c.14-.08.32-.03.4.11.07.12.05.26-.05.36l-.15.15.46-.27c.14-.08.32-.03.4.11.05.1.05.21,0,.3l-.61.95,1.29-.74c.14-.08.32-.03.4.11.05.09.05.21,0,.3l-.62.99,3.29-1.9c.14-.08.32-.04.4.1.07.12.05.27-.05.36l-1.62,1.57,2.13-1.23c.14-.08.32-.03.4.11.07.12.04.28-.07.37l-.7.56.88-.51c.14-.08.32-.03.4.11.07.13.04.28-.07.37l-.03.02.1-.06c.14-.08.32-.04.4.1.07.12.04.28-.07.37l-.9.75.86-.5c.14-.08.32-.04.4.1.07.12.05.27-.05.36l-1.44,1.39.5-.29c.14-.08.32-.03.4.11.06.1.05.23-.02.33l-1,1.26.71-.41c.14-.08.32-.03.4.11.07.11.05.25-.04.35l-.3.32.28-.16c.14-.08.32-.03.4.11.06.11.05.24-.03.33l-.62.75.64-.37c.14-.08.32-.03.4.11.06.11.05.24-.03.33l-.67.82.66-.38c.14-.08.32-.03.4.11.06.11.05.25-.04.35l-.42.44.31-.18c.14-.08.32-.03.4.11.06.11.05.25-.04.34l-.64.71.53-.3c.14-.08.32-.04.4.1.07.12.05.27-.05.36l-.29.28.23-.13c.14-.08.32-.03.4.11.06.11.05.26-.04.35l-.72.73,1.37-.79c.14-.08.32-.03.4.11.07.12.04.26-.05.36l-1.24,1.14,1.93-1.12c.14-.08.32-.04.4.1.07.12.05.28-.06.37l-1.98,1.7,1.97-1.14c.14-.08.32-.03.4.11.07.13.04.29-.08.38l-.73.54.44-.25c.14-.08.32-.03.4.11.07.12.04.28-.07.37l-2.4,1.94,2.03-1.17c.14-.08.32-.03.4.11.07.13.04.29-.08.38l-2.63,1.92s.05.04.07.07c.09.12.06.3-.05.39l-1.22,1.01.56-.32c.14-.08.32-.03.4.11.07.13.04.29-.07.38l-1.46,1.13.66-.38c.14-.08.32-.03.4.11.08.14.03.32-.11.4l-4.41,2.55s-.1.04-.15.04h0Z"/>
    <path class="cls-3" d="m14.79,2.68c-.16,0-.29-.13-.29-.29,0-.07.02-.13.06-.18l.64-.81c-.06-.02-.11-.07-.15-.13-.08-.14-.03-.32.11-.4l.89-.51c.12-.07.27-.05.37.06.09.11.1.26,0,.37l-.46.58,1.84-1.06c.14-.09.32-.05.4.09.09.14.05.32-.09.4,0,0-.01,0-.02.01l-3.16,1.83s-.1.04-.15.04h0Z"/>
    <path class="cls-3" d="m18.16,34.72c-.16,0-.29-.13-.29-.29,0-.1.05-.19.13-.24l5.79-3.98-7.65,4.42c-.14.08-.32.03-.4-.11-.07-.13-.03-.3.09-.39l2.62-1.67-2.98,1.72c-.14.08-.32.03-.4-.11-.07-.13-.04-.28.07-.37l2.73-2.14-2.82,1.63c-.14.08-.32.03-.4-.11-.07-.12-.04-.27.06-.36l1.37-1.21-1.39.8c-.14.08-.32.03-.4-.11-.07-.11-.05-.26.05-.35l.68-.68-1.29.74c-.14.08-.32.03-.4-.11-.07-.12-.05-.26.05-.36l.3-.29-.83.48c-.14.08-.32.03-.4-.11-.06-.11-.05-.25.04-.34l.51-.57-1.11.64c-.14.08-.32.04-.4-.1-.07-.12-.05-.27.05-.36l.03-.02-.33.19c-.14.08-.32.03-.4-.11-.07-.11-.05-.26.04-.35l.27-.28-.63.36c-.14.08-.32.03-.4-.11-.06-.1-.05-.22.02-.32l.58-.81-1.44.83c-.14.08-.32.03-.4-.11-.06-.1-.05-.22.01-.31l.77-1.12-3.19,1.84c-.14.08-.32.04-.4-.1-.07-.12-.05-.27.05-.36l1.6-1.54-2.1,1.21c-.14.08-.32.04-.4-.1-.07-.12-.05-.27.05-.36l1.49-1.39-1.87,1.08c-.14.08-.32.03-.4-.11-.07-.12-.05-.27.05-.36l1.46-1.35-1.53.89c-.14.08-.32.03-.4-.11-.06-.11-.05-.26.04-.35l1.56-1.59-.53.3c-.14.08-.32.03-.4-.11-.06-.1-.05-.23.02-.33l.85-1.06-.69.4c-.14.08-.32.03-.4-.11-.06-.1-.05-.22.01-.31l.77-1.12-.92.53c-.14.08-.32.03-.4-.11-.06-.11-.05-.26.04-.35l.26-.26-.19.11c-.14.08-.32.03-.4-.11-.06-.1-.05-.22.02-.32l.85-1.16-.88.51c-.14.08-.32.03-.4-.11-.06-.11-.05-.24.03-.33l.72-.84-.63.37c-.14.08-.32.03-.4-.11-.06-.11-.05-.24.03-.33l.86-1.01-1,.57c-.14.08-.32.03-.4-.11-.07-.11-.05-.26.04-.35l.96-1-1.73,1c-.14.08-.32.03-.4-.11-.07-.12-.04-.28.07-.37l.62-.5-1.04.6c-.14.08-.32.03-.4-.11-.07-.12-.04-.28.07-.37l1.67-1.39-1.65.96c-.14.08-.32.03-.4-.11-.07-.13-.04-.29.08-.38l.2-.14c-.16.03-.31-.07-.35-.22-.02-.11.02-.23.11-.29l1.52-1.16-1.19.69c-.14.08-.32.04-.4-.1-.08-.13-.04-.3.08-.39l.5-.35-.14.08c-.14.08-.32.03-.4-.11-.07-.13-.04-.29.08-.38l2.66-1.93s-.04-.04-.06-.06c-.09-.13-.06-.3.05-.39l1.37-1.13-.66.38c-.14.08-.32.03-.4-.11-.07-.13-.04-.29.08-.38l1.56-1.18-.73.42c-.14.08-.32.03-.4-.12-.07-.13-.03-.3.09-.38l5.23-3.36-4.15,2.4c-.14.08-.32.03-.4-.11-.08-.13-.03-.31.1-.39l.66-.41-.23.13c-.14.08-.32.03-.4-.11-.07-.13-.04-.3.09-.38l2.29-1.58-2.3,1.32c-.14.08-.32.03-.4-.11-.07-.13-.04-.28.07-.37l1.03-.81-1.01.58c-.14.08-.32.02-.4-.12-.06-.12-.04-.27.07-.36l.93-.76-.61.35c-.14.08-.32.04-.4-.1-.07-.12-.05-.28.06-.37l1.61-1.41h0c-.08-.15-.03-.33.11-.41l1.12-.65c.14-.08.32-.03.4.11.07.12.05.28-.06.37l-.52.46,1.08-.62c.14-.08.32-.03.4.11.07.12.04.28-.07.37l-.93.76,1.5-.86c.14-.08.32-.03.4.11.07.13.04.28-.07.37l-1.03.81,4.97-2.87c.14-.08.32-.03.4.12.07.13.03.29-.08.38l-2.29,1.58L19.29.57c.14-.08.32-.03.4.11.08.13.03.31-.1.39l-.67.42.71-.41c.14-.08.32-.04.4.1.08.14.04.32-.1.4l-10.69,6.87c.06.13.03.28-.08.37l-1.8,1.36c.1,0,.19.04.25.13.09.13.06.3-.05.39l-1.37,1.13.12-.07c.14-.08.32-.03.4.11.07.13.04.29-.08.38l-1.21.88.4-.23c.14-.08.32-.04.4.1.08.13.04.3-.08.39l-.56.4c.15-.05.32.04.36.2.03.12,0,.24-.1.32l-1.51,1.15.93-.53c.14-.08.32-.03.4.11.07.13.04.29-.08.38l-.32.23c.1-.01.21.04.26.12.09.12.06.3-.05.39l-1.67,1.39,1.25-.72c.14-.08.32-.03.4.11.07.12.04.28-.07.37l-.62.5.29-.17c.14-.08.32-.03.4.11.06.11.05.25-.04.35l-.96,1,.67-.39c.14-.08.32-.03.4.11.06.11.05.24-.03.33l-.86,1.01.67-.38c.14-.08.32-.03.4.11.06.11.05.24-.03.34l-.72.84.59-.34c.14-.08.32-.03.4.11.06.1.05.23-.02.32l-.85,1.16.85-.49c.14-.08.32-.03.4.11.07.11.05.26-.05.35l-.26.26.17-.1c.14-.08.32-.03.4.11.06.1.05.22-.01.31l-.77,1.12.91-.53c.14-.08.32-.03.4.11.06.1.05.24-.02.33l-.85,1.06,1.05-.6c.14-.08.32-.03.4.11.07.11.05.26-.04.35l-1.56,1.59,1.93-1.11c.14-.08.32-.03.4.11.07.12.04.27-.05.36l-1.46,1.35,1.83-1.05c.14-.08.32-.04.4.1.07.12.05.27-.05.36l-1.49,1.39,1.96-1.13c.14-.08.32-.04.4.1.07.12.05.27-.05.36l-1.6,1.54,2.22-1.28c.14-.08.32-.03.4.11.06.1.05.22-.01.31l-.77,1.12,1.5-.87c.14-.08.32-.03.4.11.06.1.05.23-.02.32l-.58.81,1.27-.73c.14-.08.32-.03.4.11.06.11.05.25-.04.35l-.27.28.75-.43c.14-.08.32-.04.4.1.07.12.05.27-.05.36l-.03.02.46-.26c.14-.08.32-.03.4.11.06.11.05.25-.03.34l-.51.57,1.35-.78c.14-.08.32-.04.4.1.07.12.05.27-.05.37l-.3.29,1.09-.63c.14-.08.32-.02.4.12.06.11.04.25-.05.34l-.67.68,2.01-1.16c.14-.08.32-.03.4.11.07.12.04.27-.06.36l-1.37,1.21,3.91-2.26c.14-.08.32-.03.4.11.07.13.04.28-.07.37l-2.73,2.13,10.85-6.26c.14-.08.32-.03.4.11.07.13.03.3-.09.39l-2.62,1.67,2.59-1.5c.14-.08.32-.04.4.1.08.13.04.31-.09.39l-10.08,6.93c.01.12-.04.23-.14.29l-1.7.98s-.09.04-.15.04h0Z"/>
  </g>
  <path class="cls-1" d="m15.69,18.36c-.16,0-.29-.13-.29-.29,0-.1.05-.19.13-.24l.58-.38-1.52.88c-.14.08-.32.02-.4-.12-.07-.13-.03-.29.09-.38l2.23-1.53-3.5,2.02c-.14.08-.32.03-.4-.11-.07-.13-.04-.29.08-.38l3.38-2.44-5.05,2.91c-.14.08-.32.03-.4-.11-.07-.13-.04-.29.08-.38l3.75-2.79-4.59,2.65c-.14.08-.32.03-.4-.11-.07-.13-.04-.29.08-.38l2.95-2.2-3.01,1.74c-.14.08-.32.03-.4-.11-.07-.13-.04-.29.08-.38l1.22-.88-.91.53c-.14.08-.32.03-.4-.11-.07-.12-.04-.28.07-.37l1.3-1.05-.97.56c-.14.08-.32.03-.4-.11-.06-.11-.04-.26.05-.35l.81-.81-.46.27c-.14.08-.32.03-.4-.11-.06-.1-.05-.23.03-.33l.31-.38c-.15-.05-.24-.21-.19-.37.02-.07.07-.13.13-.16l.97-.56c.14-.08.32-.03.4.11.06.1.05.23-.03.33l-.14.17,1.05-.61c.14-.08.32-.03.4.11.06.11.04.26-.05.35l-.81.81,2.19-1.27c.14-.08.32-.03.4.11.07.12.04.28-.07.37l-1.3,1.05,2.66-1.53c.14-.08.32-.03.4.11.07.13.04.29-.08.38l-1.22.88,2.38-1.37c.14-.08.32-.03.4.11.07.13.04.29-.08.38l-2.96,2.2,4.66-2.69c.14-.08.32-.03.4.11.07.13.04.29-.08.38l-3.75,2.79,5.68-3.28c.14-.08.32-.03.4.11.07.13.04.29-.08.38l-3.38,2.44,5.07-2.93c.14-.08.32-.02.4.12.07.13.03.29-.09.38l-2.23,1.53,3.5-2.02c.14-.08.32-.03.4.11.07.13.03.3-.09.38l-.58.38,1.03-.59c.14-.08.32-.04.4.1.08.13.04.3-.08.39l-2.82,2.01,2.9-1.68c.14-.08.32-.03.4.11.07.13.04.29-.08.38l-2.49,1.89,2.17-1.25c.14-.08.32-.03.4.11.07.12.04.27-.06.36l-1.75,1.49,1.41-.82c.14-.08.32-.03.4.11.06.11.05.24-.03.34l-.97,1.14.49-.28c.14-.08.32-.03.4.11.08.14.03.32-.11.4l-1.96,1.13c-.14.08-.32.03-.4-.11-.06-.11-.05-.24.03-.33l.97-1.14-2.75,1.59c-.14.08-.32.03-.4-.11-.07-.12-.04-.27.06-.37l1.75-1.49-3.4,1.96c-.14.08-.32.03-.4-.11-.07-.13-.04-.29.08-.38l2.49-1.89-4.12,2.38c-.14.08-.32.03-.4-.11-.07-.13-.04-.29.08-.38l2.82-2.01-4.34,2.5s-.09.04-.15.04h0Z"/>
  <path class="cls-3" d="m17.13,20.7c-.16,0-.29-.13-.29-.29,0-.08.03-.15.08-.2l.64-.66-1.33.77c-.14.08-.32.03-.4-.11-.05-.09-.05-.21,0-.3l.6-.99-.53.31c-.14.08-.32.03-.4-.11-.04-.07-.05-.16-.02-.24l.12-.36s-.07-.06-.1-.1c-.08-.14-.03-.32.11-.4l.29-.17c.14-.08.32-.03.4.11.04.07.05.16.02.24l-.05.14.85-.49c.14-.08.32-.03.4.11.05.09.05.2,0,.3l-.6.99,2.16-1.25c.14-.08.32-.03.4.11.06.11.05.25-.04.35l-.64.66.28-.16c.14-.07.32-.02.4.12.07.13.03.3-.1.38l-2.1,1.21s-.09.04-.15.04h0Z"/>
  <path class="cls-2" d="m21.57,5.58C.93.42-1.34,32.56,19.96,29.77c12.47-2.28,13.83-20.4,1.61-24.19Zm.05,23.28C2.03,34.35-.22,2.72,20.03,5.75c11.28,2.31,12.53,19.33,1.59,23.11Z"/>
  <path class="cls-2" d="m34.48,15.26c-.57-.55-1.68-.54-2.22-1.06-.26-1.74-1.24-3.38-1.98-4.9.93-1.86,1.21-2.84-.68-4.23-1.11-1.44-2.54-.88-3.9-.18-1.46-.93-3.08-1.59-4.78-1.95-.11-.1-.17-.42-.23-.56C20.39.41,18.74,0,17.01.31c-1.75-.24-2.55,1.17-2.9,2.68-1.61.39-3.14,1.02-4.55,1.88-2.19-1.73-4.5,0-5.62,2.04-.29.93.71,1.75.8,2.61-.95,1.5-1.64,3.16-2.03,4.89-1.42.47-2.85,1-2.6,2.8-.44,2.02.76,3.05,2.58,3.48.38,1.75,1.08,3.42,2.07,4.92-.08.8-.96,1.59-.86,2.44.11.79,1.15,1.56,1.7,2.06,1.03,1.32,2.49.64,3.71,0,1.46.93,3.08,1.59,4.77,1.95.11.1.17.42.23.56.31,1.96,1.97,2.36,3.71,2.05,1.74.24,2.53-1.18,2.88-2.68,1.61-.39,3.14-1.02,4.55-1.88,2.19,1.73,4.5,0,5.62-2.04.29-.93-.71-1.75-.8-2.61.95-1.5,1.64-3.16,2.03-4.89,2.83-.44,3.21-3.13,2.18-5.32h0Zm-.43,2.62c.33,1.66-1.01,2.05-2.28,2.49-.69.67-.59,1.98-1.11,2.84-.23.91-1.15,1.74-1.2,2.62.59,1.24,1.27,2.52-.18,3.49-.37.39-1,1.25-1.59,1.09-.8-.16-1.53-1.02-2.38-.72-1.58,1.08-3.45,1.59-5.19,2.21-.62.72-.39,2.33-1.66,2.34-2.53.4-2.91-.26-3.61-2.5-1.31-.31-2.59-.77-3.79-1.37-2.74-2.31-3.03,2.2-5.82-1.7-1.1-.94.02-2.12.32-3.15-.74-1.6-1.78-3.31-2.08-5.14-.77-.51-2.11-.47-2.47-1.45-.33-2.29-.35-3.74,2.21-4.31.88-1.47,1.06-3.51,2.19-4.96.21-2.04-2-2.36.68-4.39,1.07-1.69,2.4.57,3.7-.05,1.56-1.05,3.41-1.46,5.07-2.18.5-.96.55-2.6,2.04-2.3,3.81-.69,1.63,2.63,4.35,2.82,1.52.29,2.78,1.38,4.19,1.82,2.14-1.11,2.84-.88,4.36,1.04.99.96-.18,2.09-.42,3.09.83,1.57,1.77,3.32,2.11,5.12,1.84.65,2.93.94,2.55,3.25h0Z"/>
  <path class="cls-2" d="m26.12,13.47c-.18-2.37-3.11-1.35-4.69-1.56.25-1.63-.28-3.25-2.23-2.89-2.36.07-6.41-.85-5.65,2.87-4.03-.32-5.16.23-4.68,4.47.5,2.29-1.28,6.79,1.26,7.87,15.97-1.04,16.58,4.81,15.99-10.76h0Zm-11.7-3.24c.6-1.39,2.88-.37,4.13-.66,1.84-.36,2.23.74,2.03,2.34-2.06,0-4.12.01-6.17,0,.02-.55-.05-1.12.02-1.67h0Zm-4.7,3.14c.29-1.84,8.48-.41,10.45-.84,3.96.19,5.61-1.31,5.09,3.81-.39,2.43-3.67,1.06-5.37,1.4-2.36-.53-10.05,1.44-10.21-1.61-.04-.92-.02-1.85.05-2.77h0Zm8.63,6.85c-1.19.24-2.55-.26-2.19-1.82h2.67c-.03.63.16,1.45-.47,1.83h0Zm6.2,3.39c-4.8-.23-9.89.46-14.55-.26-.71-1.6-.07-3.67-.29-5.41,1.63.88,3.79.29,5.59.45-.84,3.13,5.02,2.99,4.37,0,1.82-.19,3.96.49,5.58-.47-.33,1.49.81,5.02-.7,5.69h0Z"/>
</svg>