<?xml version="1.0" encoding="UTF-8"?>
<svg id="Layer_1" data-name="Layer 1" xmlns="http://www.w3.org/2000/svg" viewBox="0 0 35 35">
  <defs>
    <style>
      .cls-1 {
        fill: #f47721;
      }

      .cls-1, .cls-2, .cls-3, .cls-4, .cls-5 {
        stroke-width: 0px;
      }

      .cls-3 {
        fill: #fff;
      }

      .cls-4 {
        fill: #fdcfac;
      }

      .cls-5 {
        fill: #c1dbf0;
      }
    </style>
  </defs>
  <path class="cls-5" d="m23.83,33.02c-.16,0-.29-.13-.3-.29,0-.07.02-.13.06-.18l.89-1.15-1.6.92c-.14.08-.32.03-.4-.12-.06-.11-.04-.25.05-.34l.69-.69-.33.19c-.14.08-.32.03-.4-.11-.04-.06-.05-.14-.03-.21l.18-.78c-.06-.02-.11-.07-.15-.13-.08-.14-.03-.32.11-.4l.29-.17c.14-.08.32-.03.4.11.04.06.05.14.03.21l-.15.63,1.67-.96c.14-.08.32-.03.4.12.06.11.04.25-.05.34l-.69.69.98-.56c.14-.08.32-.03.4.11.06.1.05.23-.02.32l-.89,1.15.51-.3c.14-.08.32-.02.4.12.07.13.03.3-.1.38l-1.81,1.04s-.09.04-.14.04Z"/>
  <path class="cls-1" d="m31.54,29.42c-.16,0-.29-.13-.29-.29,0-.08.03-.15.08-.2l1.34-1.38-.98.56c-.14.08-.32.03-.4-.11-.06-.11-.05-.25.04-.34l1.06-1.19-.7.4c-.14.08-.32.03-.4-.11-.06-.1-.05-.22.01-.31l.6-.87-.21.12c-.14.08-.32.03-.4-.11-.04-.07-.05-.16-.02-.24l.13-.39s-.08-.06-.1-.1c-.08-.14-.03-.32.11-.4l.29-.17c.11-.06.24-.05.33.03.09.08.13.2.09.32l-.06.17.67-.38c.14-.08.32-.03.4.11.06.1.05.22-.01.31l-.6.87,1.16-.67c.14-.08.32-.03.4.11.06.11.05.25-.04.34l-1.06,1.19,1.23-.71c.14-.08.32-.03.4.11.07.11.05.26-.04.35l-1.34,1.37.98-.57c.14-.09.32-.05.4.09.09.14.05.32-.09.4,0,0-.01,0-.02.01l-2.81,1.62s-.1.04-.15.04h0Z"/>
  <path class="cls-1" d="m5.35,15.45c-.16,0-.29-.13-.29-.29,0-.1.05-.19.13-.24l4.96-3.36-5.41,3.12c-.14.08-.32.03-.4-.11-.08-.13-.04-.31.09-.39l2.16-1.4-1.86,1.07c-.14.08-.32.02-.4-.12-.07-.13-.03-.29.09-.38l2-1.3-1.69.98c-.14.08-.32.03-.4-.11-.07-.13-.04-.3.09-.38l4.06-2.77-3.75,2.16c-.14.08-.32.03-.4-.11-.08-.13-.04-.3.09-.39l3.9-2.72-3.49,2.01c-.14.08-.32.03-.4-.11-.07-.13-.04-.29.08-.38l2.91-2.06-2.27,1.31c-.14.08-.32.03-.4-.11-.07-.13-.04-.29.08-.38l2.05-1.52-1.02.59c-.14.08-.32.03-.4-.11-.07-.13-.04-.29.07-.38l1.22-.94s-.06-.06-.08-.09c-.08-.14-.03-.32.11-.4l2.47-1.43c.14-.08.32-.03.4.11.07.13.04.29-.07.38l-.19.15,1.69-.97c.14-.08.32-.03.4.11.07.13.04.29-.08.38l-2.05,1.51,3.31-1.91c.14-.08.32-.03.4.11.08.13.04.3-.08.39l-2.91,2.06,3.84-2.22c.14-.08.32-.03.4.11.07.13.04.29-.08.38l-3.9,2.73,4.68-2.7c.14-.08.32-.03.4.11.07.13.04.3-.09.38l-4.06,2.77,4.61-2.66c.14-.08.32-.02.4.12.07.13.03.29-.09.38l-1.99,1.29,2.25-1.3c.14-.08.32-.03.4.11.08.13.04.31-.09.39l-2.16,1.4,2.34-1.35c.14-.08.32-.03.4.11.08.13.04.3-.09.39l-4.97,3.36,5.23-3.02c.14-.08.32-.03.4.12.07.13.03.3-.09.38l-.74.47.73-.42c.14-.08.32-.03.4.11.08.13.04.3-.09.39l-2.32,1.55,2.31-1.33c.14-.08.32-.03.4.11.07.13.04.29-.08.38l-3.67,2.7,3.63-2.1c.14-.08.32-.03.4.11.07.13.04.29-.08.38l-2.15,1.58,1.93-1.11c.14-.08.32-.03.4.11.07.13.04.29-.08.38l-.77.56.46-.26c.14-.08.32-.03.4.11.07.12.04.28-.06.37l-1.05.89.71-.41c.14-.08.32-.03.4.11.06.1.05.22-.01.31l-.64.94.27-.15c.14-.09.32-.05.4.09s.05.32-.09.4c0,0-.01,0-.02.01l-1.39.8c-.14.08-.32.03-.4-.11-.06-.1-.05-.22.01-.31l.65-.94-2.36,1.36c-.14.08-.32.03-.4-.11-.07-.12-.04-.27.06-.36l1.05-.89-2.38,1.37c-.13.08-.31.04-.39-.09-.09-.13-.05-.3.07-.4l.77-.56-1.82,1.05c-.14.08-.32.03-.4-.11-.07-.13-.04-.29.08-.38l2.15-1.58-3.59,2.07c-.14.08-.32.03-.4-.11-.07-.13-.04-.29.08-.38l3.67-2.71-5.54,3.2c-.14.08-.32.03-.4-.11-.08-.13-.04-.3.09-.39l2.31-1.54-3.54,2.04c-.14.08-.32.03-.4-.1-.08-.14-.04-.31.1-.4l.75-.48-1.7.98s-.09.04-.15.04h0Z"/>
  <path class="cls-5" d="m1.74,34.77c-.16,0-.29-.13-.29-.29,0-.1.05-.2.14-.25l.35-.22-.85.49c-.14.08-.32.03-.4-.11-.07-.13-.03-.3.09-.39l6.49-4.16-6.64,3.83c-.14.08-.32.03-.4-.11-.07-.13-.03-.3.09-.39l5.08-3.23-4.79,2.76c-.14.08-.32.02-.4-.12-.07-.13-.03-.29.09-.38l6.23-4.07-5.92,3.42c-.14.08-.32.02-.4-.12-.07-.13-.03-.3.09-.38l2.48-1.58-2.18,1.26c-.14.08-.32.03-.4-.11-.08-.13-.04-.3.09-.39l4.77-3.18-4.4,2.54c-.15.07-.32,0-.39-.14-.06-.13-.02-.27.09-.36l.51-.33-.06.03c-.14.08-.32.03-.4-.11-.07-.13-.04-.29.08-.38l4.3-3.15-3.36,1.94c-.14.08-.32.03-.4-.11-.07-.12-.05-.28.06-.37l2.17-1.89c-.15.07-.32,0-.39-.14-.06-.14-.01-.3.12-.38l2.59-1.5c.14-.08.32-.03.4.11.07.12.04.27-.06.37l-2.17,1.89,5.43-3.13c.14-.08.32-.03.4.11.07.13.04.29-.08.38l-4.3,3.14,6.3-3.63c.14-.08.32-.03.4.12.07.13.03.3-.09.38l-.52.33,1.44-.83c.14-.08.32-.03.4.12.07.13.03.29-.09.38l-4.78,3.18,6.14-3.55c.14-.08.32-.04.4.1.08.14.04.32-.1.4l-2.48,1.58,3.23-1.86c.14-.08.32-.03.4.12.07.13.03.3-.09.38l-6.23,4.07,7.35-4.25c.14-.08.32-.03.4.11.07.13.03.3-.09.39l-5.09,3.24,5.82-3.36c.14-.08.32-.03.4.12.07.13.03.3-.09.38l-6.49,4.16,7.16-4.13c.14-.08.32-.04.4.1s.04.32-.1.4l-.35.22.59-.34c.14-.08.32-.03.4.12.07.13.03.3-.09.39l-3.25,2.05,3.55-2.05c.14-.08.32-.03.4.1.08.14.04.31-.1.4l-4.85,3.11,5.15-2.97c.14-.08.32-.04.4.1.08.14.04.32-.1.4l-.79.49.87-.5c.14-.08.32-.04.4.1s.04.32-.1.4l-3.86,2.5,4-2.31c.14-.08.32-.03.4.11.07.13.03.3-.09.38l-4.88,3.29,5.01-2.89c.14-.08.32-.03.4.11.08.13.04.3-.09.39l-2.36,1.55,2.31-1.34c.14-.08.32-.03.4.11.08.13.04.3-.09.39l-2.37,1.6,2.26-1.31c.14-.08.32-.03.4.11.07.13.04.3-.09.38l-1.6,1.08,1.4-.81c.14-.08.32-.03.4.11.07.13.04.29-.07.38l-2.78,2.14,2.49-1.44c.14-.08.32-.03.4.11.07.12.04.28-.07.37l-1.48,1.18,1.15-.67c.14-.08.32-.02.4.12.06.12.04.26-.05.35l-.87.79.53-.3c.14-.08.32-.03.4.11.06.1.05.22,0,.31l-.46.7c.12-.02.24.04.31.14.08.14.03.32-.11.4l-.97.56c-.12.07-.27.05-.36-.05-.09-.1-.11-.25-.03-.36l.44-.67-1.88,1.08c-.14.08-.32.02-.4-.12-.06-.12-.04-.26.05-.35l.87-.78-2.17,1.25c-.14.08-.32.03-.4-.11-.07-.12-.04-.28.07-.37l1.48-1.18-2.87,1.66c-.14.08-.32.03-.4-.11-.07-.13-.04-.29.07-.38l2.78-2.14-4.55,2.62c-.14.08-.32.03-.4-.11-.07-.13-.04-.3.09-.38l1.6-1.08-2.74,1.58c-.14.08-.32.03-.4-.11-.08-.13-.04-.3.09-.39l2.38-1.6-3.63,2.09c-.14.08-.32.03-.4-.11-.07-.13-.03-.3.09-.39l2.36-1.55-3.56,2.05c-.14.08-.32.03-.4-.11-.07-.13-.03-.3.09-.38l4.88-3.29-6.56,3.79c-.14.08-.32.02-.4-.12-.07-.13-.03-.3.09-.38l3.85-2.5-5.19,3c-.14.08-.32.03-.4-.11-.08-.13-.03-.31.1-.39l.78-.49-1.72.99c-.14.08-.32.03-.4-.12-.07-.13-.03-.3.09-.38l4.85-3.11-6.26,3.61c-.14.08-.32.03-.4-.12-.07-.13-.03-.3.09-.39l3.26-2.05-4.42,2.55s-.09.04-.15.04h0Z"/>
  <path class="cls-4" d="m11.99,24.77c-.16,0-.29-.13-.29-.29,0-.07.02-.13.07-.18l.92-1.12-2.16,1.25c-.14.08-.32.03-.4-.11-.06-.11-.04-.26.05-.35l1.14-1.12-1.51.87c-.14.08-.32.03-.4-.11-.05-.09-.05-.2,0-.29l.61-1.05-.57.33c-.14.08-.32.03-.4-.11-.04-.07-.05-.16-.03-.24l.12-.36c-.14-.08-.18-.26-.1-.4.03-.04.06-.08.11-.1l.29-.17c.11-.06.24-.05.33.03.09.08.13.2.09.32l-.05.14.86-.49c.11-.07.26-.05.35.05.09.09.11.24.05.35l-.61,1.05,2.54-1.47c.14-.08.32-.03.4.11.06.11.04.26-.05.35l-1.13,1.13,1.58-.91c.14-.08.32-.03.4.11.06.1.05.24-.03.33l-.92,1.12h0c.14-.08.32-.02.4.12.07.13.03.3-.1.38l-1.39.8s-.1.04-.15.04Z"/>
  <path class="cls-3" d="m10.61,22.3c-.16,0-.29-.13-.29-.29,0-.09.04-.18.12-.23l2.82-2.12-3.68,2.12c-.14.08-.32.03-.4-.11-.08-.13-.04-.3.09-.39l3.8-2.67-4.46,2.58c-.14.08-.32.03-.4-.11-.08-.13-.04-.3.09-.39l3.74-2.59-4.24,2.45c-.14.08-.32.04-.4-.1-.08-.13-.04-.3.08-.39l4.68-3.34-5.17,2.98c-.14.08-.32.04-.4-.1-.08-.13-.04-.31.09-.39l3.8-2.61-3.94,2.27c-.14.08-.32.03-.4-.11-.07-.13-.04-.3.09-.38l2.8-1.9-2.75,1.59c-.14.08-.32.03-.4-.11-.07-.13-.04-.29.08-.38l3.24-2.3-3.19,1.84c-.14.08-.32.04-.4-.1-.08-.13-.04-.31.09-.39l.86-.58-.9.52c-.14.08-.32.03-.4-.11-.07-.13-.04-.29.08-.38l3.03-2.28-3.56,2.05c-.14.08-.32.03-.4-.11-.08-.13-.04-.3.09-.39l.61-.41-.33.19c-.14.08-.32.04-.4-.1-.07-.12-.05-.27.05-.37l1.63-1.53s-.05-.05-.07-.08c-.08-.14-.03-.32.11-.4l1.25-.72c.14-.08.32-.04.4.1.07.12.05.28-.06.37l-1.04.98,4.91-2.84c.14-.08.32-.03.4.11.08.13.04.3-.09.39l-.61.41.98-.56c.14-.08.32-.03.4.11.07.13.04.29-.08.38l-3.03,2.28,3.85-2.22c.14-.08.32-.04.4.1.08.13.04.31-.09.39l-.86.58,1.41-.81c.14-.08.32-.03.4.11.07.13.04.3-.08.38l-3.24,2.3,4.38-2.53c.14-.08.32-.04.4.1.08.13.04.31-.09.39l-2.81,1.9,3.38-1.95c.14-.08.32-.03.4.11.07.13.04.3-.09.38l-3.8,2.61,4-2.31c.14-.08.32-.04.4.1.08.13.04.3-.08.39l-4.68,3.34,5.26-3.04c.14-.08.32-.03.4.11.07.13.04.3-.09.38l-3.74,2.58,3.88-2.24c.14-.08.32-.03.4.11.08.13.04.3-.09.39l-3.8,2.67,2.17-1.25c.13-.08.31-.04.39.09.09.13.06.3-.07.4l-2.82,2.12,2.08-1.2c.14-.08.32-.03.4.11.07.12.04.27-.06.37l-1.77,1.52h0c.14-.08.32-.03.4.11.08.14.03.32-.11.4l-2.73,1.58c-.14.08-.32.03-.4-.11-.07-.12-.04-.28.06-.37l1.77-1.52-3.53,2.04s-.09.04-.14.04h0Z"/>
  <path class="cls-1" d="m19.51,29.5c-.16,0-.29-.13-.29-.29,0-.03,0-.05.01-.08l.1-.36-1.18.69c-.14.08-.32.03-.4-.11-.06-.11-.05-.24.03-.33l.81-1-1.41.81c-.14.08-.32.04-.4-.1-.07-.12-.05-.27.05-.37l.88-.82-.66.38c-.14.08-.32.04-.4-.1-.07-.12-.05-.27.05-.36l1.36-1.38-1.01.58c-.14.08-.32.03-.4-.11-.05-.09-.05-.21,0-.3l.54-.88c-.15.07-.32,0-.39-.15-.06-.14,0-.3.12-.37l.97-.56c.14-.08.32-.03.4.11.05.09.05.21,0,.3l-.54.88,1.9-1.1c.14-.08.32-.02.4.12.06.11.04.25-.05.34l-1.36,1.38,1.01-.59c.14-.08.32-.04.4.1.07.12.05.27-.05.37l-.88.82.54-.31c.14-.08.32-.03.4.11.06.1.05.24-.03.33l-.81,1,.44-.25c.14-.08.32-.03.4.11.04.07.05.15.03.22l-.15.54c.14.07.2.25.13.39-.03.05-.07.09-.12.12l-.29.17s-.1.04-.15.04h0Z"/>
  <path class="cls-5" d="m22.09,34.77c-.16,0-.29-.13-.29-.29,0-.06.02-.11.05-.16l.54-.82-1.31.76c-.14.08-.32.03-.4-.11-.06-.11-.05-.25.04-.34l1.12-1.23-.92.53c-.14.08-.32.03-.4-.11-.06-.11-.05-.25.04-.35l1.18-1.26-.98.57c-.14.08-.32.03-.4-.11-.04-.06-.05-.13-.03-.2l.16-.8c-.12.01-.23-.04-.29-.14-.08-.14-.03-.32.11-.4,0,0,0,0,0,0l.43-.25c.14-.08.32-.03.4.11.04.06.05.13.03.2l-.15.77,2.15-1.24c.14-.08.32-.03.4.11.06.11.05.25-.04.35l-1.18,1.26.82-.47c.14-.08.32-.03.4.11.06.11.05.25-.04.34l-1.12,1.23.75-.43c.14-.08.32-.03.4.11.06.1.05.21,0,.31l-.54.82.14-.08c.14-.08.32-.02.4.12.07.13.03.3-.1.38l-1.21.7s-.1.04-.15.04h0Z"/>
  <path class="cls-1" d="m21.77,30.67c-.16,0-.29-.13-.29-.29,0-.08.03-.16.09-.21l1.51-1.43-3.07,1.77c-.14.08-.32.04-.4-.1-.07-.13-.04-.29.08-.38l1.73-1.33-1.98,1.14c-.14.08-.32.03-.4-.11-.08-.13-.04-.3.08-.39l.68-.48-.42.24c-.14.08-.32.03-.4-.11-.07-.13-.04-.29.08-.38l.61-.43-.29.17c-.14.08-.32.03-.4-.11-.08-.13-.04-.29.08-.38l1.79-1.33-1.47.85c-.14.08-.32.03-.4-.11-.07-.12-.04-.28.07-.37l1.86-1.55-1.53.88c-.14.08-.32.03-.4-.11-.06-.11-.05-.25.04-.35l1.08-1.17-.72.42c-.14.08-.32.03-.4-.11-.06-.11-.05-.24.03-.33l.29-.36c-.07-.02-.12-.07-.15-.13-.08-.14-.03-.32.11-.4l.97-.56c.14-.08.32-.03.4.11.06.11.05.24-.03.33l-.11.13,1-.57c.14-.08.32-.03.4.11.06.11.05.25-.04.34l-1.08,1.17,2.82-1.63c.14-.08.32-.03.4.11.07.12.04.28-.07.37l-1.86,1.55,2.85-1.65c.14-.08.32-.03.4.11.08.13.04.29-.08.38l-1.79,1.33,1.47-.85c.14-.08.32-.03.4.11.07.13.04.29-.08.38l-.61.43.29-.17c.14-.08.32-.04.4.1.08.13.04.3-.09.39l-.68.48.36-.21c.14-.08.32-.03.4.11.07.13.04.29-.07.38l-1.73,1.33,1.4-.81c.14-.09.32-.04.4.09.07.12.05.28-.05.37l-1.51,1.43,1.16-.67c.14-.08.32-.04.4.1.07.12.05.27-.05.36l-.28.27c.16-.04.32.05.36.21.01.05.01.1,0,.15l-.16.63c.15.07.21.24.15.39-.03.06-.07.1-.12.13l-.29.17c-.14.08-.32.03-.4-.11-.04-.07-.05-.14-.03-.22l.12-.47-1.38.79c-.14.08-.32.04-.4-.1-.07-.12-.05-.27.05-.36l.25-.24-1.22.7s-.1.04-.15.04h0Z"/>
  <path class="cls-3" d="m30.64,33.6c-.16,0-.29-.13-.29-.29,0-.03,0-.05.01-.08l.09-.31-.84.48c-.14.08-.32.03-.4-.11-.06-.11-.05-.25.04-.34l.19-.21-.5.29c-.14.08-.32.03-.4-.11-.06-.11-.05-.24.03-.33l1.05-1.25-1.84,1.06c-.14.08-.32.03-.4-.11-.07-.12-.04-.28.07-.37l.55-.45-.93.54c-.14.08-.32.03-.4-.11-.07-.12-.04-.28.07-.37l1.21-.99-1.73,1c-.15.07-.32.01-.39-.13-.06-.12-.03-.26.06-.34l2.08-1.71-2.79,1.61c-.14.08-.32.03-.4-.11-.07-.13-.04-.29.08-.38l1.6-1.18-1.81,1.05c-.14.08-.32.03-.4-.11-.07-.13-.04-.29.08-.38l1.57-1.13-1.26.73c-.14.08-.32.03-.4-.11-.07-.13-.04-.28.07-.37l2.87-2.2-2.54,1.47c-.14.08-.32.04-.4-.1-.08-.13-.04-.3.09-.39l.89-.62-.57.33c-.14.08-.32.03-.4-.11-.07-.13-.04-.29.08-.38l2.59-1.96-2.27,1.31c-.14.08-.32.03-.4-.11-.07-.12-.04-.28.07-.37l3.21-2.53-2.89,1.67c-.14.08-.32.03-.4-.11-.07-.12-.04-.28.07-.37l2.22-1.76-1.89,1.09c-.14.08-.32.02-.4-.12-.07-.13-.03-.3.1-.38l5.36-3.09c.14-.08.32-.03.4.11.07.12.04.28-.07.37l-2.22,1.76,2.94-1.7c.14-.08.32-.03.4.11.07.12.04.28-.07.37l-3.21,2.53,2.89-1.67c.14-.08.32-.03.4.11.07.13.04.29-.08.38l-2.59,1.95,2.27-1.31c.14-.08.32-.04.4.1.08.13.04.3-.09.39l-.89.62.58-.33c.14-.08.32-.03.4.11.07.13.04.28-.07.37l-2.87,2.2,2.54-1.47c.14-.08.32-.03.4.11.07.13.04.29-.08.38l-1.57,1.13,1.26-.72c.14-.08.32-.03.4.11.07.13.04.29-.08.38l-1.61,1.18,1.29-.74c.14-.08.32-.03.4.11.07.12.04.28-.07.37l-2.08,1.71,1.75-1.01c.14-.08.32-.03.4.11.07.12.04.28-.07.37l-1.21.99.88-.51c.14-.08.32-.03.4.11.07.12.04.28-.07.37l-.55.45.22-.12c.14-.08.32-.03.4.11.06.11.05.24-.03.33l-1.05,1.25.69-.4c.14-.08.32-.03.4.11.06.11.05.25-.04.34l-.25.27c.08,0,.15.01.21.06.09.07.13.2.1.31l-.15.5c.14.07.2.25.13.39-.03.05-.07.09-.11.12l-.29.17s-.1.04-.15.04h0Z"/>
  <path class="cls-1" d="m30.95,34.77c-.16,0-.29-.13-.29-.29,0-.06.02-.11.05-.16l.49-.76-1.09.63c-.14.08-.32.03-.4-.11-.06-.11-.05-.24.03-.34l1.01-1.18-.82.48c-.14.08-.32.03-.4-.11-.07-.12-.05-.26.05-.36l.64-.63-.29.17c-.14.09-.32.04-.4-.1-.08-.12-.05-.28.06-.37l.52-.49-.17.1c-.14.08-.32.03-.4-.11-.06-.11-.04-.25.05-.35l.72-.72-.37.21c-.14.08-.32.03-.4-.11-.07-.11-.05-.26.05-.35l.77-.77-.41.23c-.14.08-.32.04-.4-.1-.07-.12-.05-.27.05-.37l.46-.43-.11.06c-.14.08-.32.03-.4-.11-.07-.11-.05-.26.05-.35l.68-.67-.33.19c-.14.08-.32.03-.4-.11-.07-.12-.04-.27.06-.36l.21-.19c-.16.01-.3-.11-.31-.27,0-.09.03-.17.09-.23l.43-.41-.09.05c-.14.08-.32.03-.4-.11-.06-.11-.05-.25.04-.34l.96-1.02-.6.35c-.14.08-.32.03-.4-.11-.06-.11-.05-.24.03-.34l1.16-1.33-.79.45c-.14.08-.32.03-.4-.11-.06-.11-.05-.25.03-.34l1.13-1.29-.77.45c-.14.08-.32.03-.4-.11-.06-.11-.05-.24.03-.34l.91-1.08-.54.31c-.14.08-.32.03-.4-.11-.06-.1-.05-.23.02-.32l.36-.48c-.16-.02-.27-.17-.25-.33.01-.09.07-.17.14-.21l.97-.56c.14-.08.32-.03.4.11.06.1.05.23-.02.32l-.26.35.73-.42c.14-.08.32-.03.4.11.06.11.05.24-.03.34l-.91,1.08.86-.5c.14-.08.32-.03.4.11.06.11.05.25-.03.34l-1.13,1.29.77-.44c.14-.08.32-.03.4.11.06.11.05.24-.03.34l-1.16,1.33.79-.46c.14-.08.32-.03.4.11.06.11.05.25-.04.35l-.96,1.02.6-.35c.14-.08.32-.04.4.1.07.12.05.27-.05.37l-.44.41.09-.05c.14-.08.32-.03.4.11.07.12.04.27-.06.36l-.21.19c.1,0,.19.04.25.12.09.12.08.28-.03.39l-.68.67.33-.19c.14-.08.32-.04.4.1.07.12.05.27-.05.37l-.46.43.11-.06c.14-.08.32-.03.4.11.07.11.05.26-.05.35l-.77.77.41-.23c.14-.08.32-.03.4.11.06.11.04.25-.05.35l-.72.72.37-.21c.14-.09.32-.04.4.1.08.12.05.28-.06.37l-.52.49.17-.1c.14-.08.32-.03.4.11.07.12.05.26-.05.36l-.64.63.29-.17c.14-.08.32-.03.4.11.06.11.05.24-.03.34l-1.01,1.18.64-.37c.14-.08.32-.03.4.11.05.09.05.21,0,.3l-.5.77c.13-.04.27.02.33.14.08.14.03.32-.11.4l-.97.56s-.1.03-.15.03h0Z"/>
  <g>
    <path class="cls-2" d="m34.88,5.27c-.18-1.55.57-3.61-.89-4.69-3.73-.86-7.83-.09-11.69-.34-5.36-.4-6.28.37-5.86,5.79C9.8.89,2.49,7.79,4.13,15.19c0,.69.52,1.26,1.2,1.35.24,2.18,1.55,4.09,3.5,5.09v.44C3.88,22.37-.44,26.23.04,31.4c0,1.27-.37,3.21,1.43,3.32,6.51.05,13.03-.03,19.54,0,1.38.37,3.18.07,2.74-1.76.94.07,2.44,0,2.34-1.3l3.31,1.83c.02.66.58,1.18,1.25,1.16.04,0,.07,0,.11,0,2.75-.11,1.54-3.45,1.78-5.25,2.98-.34,3.1-4.89,0-5.1-.33-1.61.87-4.35-.96-5.17-.91-.24-1.85.26-2.15,1.15-2.62,1.41-4.98,3.37-8.12,2.83-.67-.01-1.44-.05-1.97.42-1.49-.93-3.27-1.15-4.97-1.5,0-.18,0-.36,0-.54,1.91-1.01,3.21-2.88,3.47-5.02.3-.08.58-.24.81-.46.44.02.87.01,1.31,0-.82,5.85,4.49.95,6.95,0,10.87.99,7.45-2.48,7.97-10.77h0ZM5,11.66c.56-10.37,15.09-7.6,13.21,2.23-.12-.05-.24-.08-.36-.11-.56-2.6-3.75-1.63-5.4-3.09-.75-.4-1.32-.07-1.98.32-1.64,1.13-4.57.39-5.08,2.82-.13.04-.26.08-.39.15,0-.77,0-1.54,0-2.31h0Zm17.89,19.05c-.25,1.49.86,4-1.31,3.48-.64-.88-.39-2.39-.7-3.48h2.02Zm2.14,1.81s0,0,0,0h0Zm-.02.01.23-1.24c-.04.4.13.94-.21,1.23h-1.28v-1.88c.58-.09,1.02.33,1.51.57-.01.02-.02.05-.03.08h0Zm8.79-4.43c.07.96-.56,1.83-1.49,2.08v-4.05c.85.29,1.44,1.07,1.49,1.97h0Zm-2.68-7.12c.91,3.83.06,8.22.34,12.22,0,.47.21,2.23-.51,2.36-2.11-.33-.51-10.25-.98-12.54-.05-.78-.16-3.02,1.15-2.05Zm-2.05,1.29l.05-.03c-.03,3.9.01,7.8,0,11.7l-4.43-2.46v-6.79l4.38-2.43Zm-8.48,2.58h3.25v6.54h-.43c-1.11-.1-2.22-.12-3.33-.05-1.36-1.01-.38-3.38-.66-4.89-.11-.86.1-1.84,1.17-1.61h0Zm-3.11,1.18c.36-.06.72-.08,1.09-.05,0,1.43,0,2.86,0,4.29-2.01.47-1.83-3.32-1.09-4.25h0Zm-2.05-2.02c1.17.21,2.29.65,3.29,1.31-.04.08-.07.16-.1.24-2.26-.37-2.64,1.64-2.4,3.42-.25,1.47,1.2,1.85,2.36,1.69.05.62.55,1.11,1.17,1.17.2,1.22.3,2.47.56,3.68-2.79-.56-20.12,1.35-19.64-1.17C0,27.81,3.19,22.67,8.84,22.47c.21,3.07,5.07,2.92,5.49.03l1.33.27Zm-2.16-.23c-.26,2.68-3.95,1.94-3.82-.5,1.24.53,2.64.49,3.85-.11,0,.2,0,.4-.02.6h0Zm4.02-6.45c-1.09.56-.68,2.93-1.93,3.79-1.45,1.58-3.89,2.8-5.91,1.44-1.98-.97-3.32-2.91-3.52-5.11-.52-.21-1.19-.48-1.17-1.22-.13-.79.82-.62,1.17-1.06.25-1.95,2.4-1.52,3.76-2.16.48-.19,1.37-.92,1.85-.67,1.38,1.24,3.57.72,4.84,1.97.34.3.19,1.09.68,1.16.94.07,1.34,1.78.22,1.87h0Zm16.47-1.69c-.98,2.77-5.34-1.33-12.53,3.94-.96.22-.64-2.14-.64-2.65-.29-.53-1.28-.1-1.83-.24.22-2.91.4-6.28-1.69-8.59.33-1.86-1.18-5.91,1.6-6.08,4.48.01,8.97-.05,13.45,0,3.08-.62,1.25,11.25,1.64,13.62h0Z"/>
    <path class="cls-2" d="m32.26,7.84c-4.03.23-8.43-.45-12.28.25,3.36.91,8.15.01,11.97.32.36.1.9-.47.31-.57h0Z"/>
    <path class="cls-2" d="m27.14,5.96c2.86-.56-7.67-.48-8.26-.19,2.03.58,5.69,0,8.26.19Z"/>
    <path class="cls-2" d="m32.26,5.5c-.49.08-3.72-.32-2.65.56.49-.08,3.72.32,2.65-.56Z"/>
    <path class="cls-2" d="m26.42,12.62c-1.9.16-4.05-.34-5.84.21-.27.38,7.4.34,5.84-.21Z"/>
    <path class="cls-2" d="m20.81,10.73c.48-.1,1.75.3,1.72-.43-.3-.25-2.76-.1-1.72.43Z"/>
    <path class="cls-2" d="m32.28,10.26c-2.68.18-5.63-.37-8.18.22-.22.39,9.91.42,8.18-.22Z"/>
    <path class="cls-2" d="m18.94,3.62c4.47-.15,9.1.29,13.49-.16-3.06-.61-7.75,0-11.35-.21-.43.06-2.61-.21-2.14.37Z"/>
  </g>
</svg>