<?xml version="1.0" encoding="UTF-8"?>
<svg id="Layer_1" data-name="Layer 1" xmlns="http://www.w3.org/2000/svg" viewBox="0 0 35 35">
  <defs>
    <style>
      .cls-1 {
        fill: #f47721;
      }

      .cls-1, .cls-2, .cls-3, .cls-4, .cls-5 {
        stroke-width: 0px;
      }

      .cls-3 {
        fill: #f6883b;
      }

      .cls-4 {
        fill: #fff;
      }

      .cls-5 {
        fill: #c1dbf0;
      }
    </style>
  </defs>
  <path class="cls-5" d="m16.05,34.68c-.16,0-.29-.13-.29-.29,0-.1.05-.19.13-.25l.08-.05-.96.55c-.14.08-.32.03-.4-.11-.08-.13-.04-.3.08-.39l4.65-3.35-6.65,3.84c-.14.08-.32.03-.4-.12-.07-.13-.03-.29.08-.38l5-3.54-6.98,4.03c-.14.08-.32.03-.4-.11-.07-.13-.03-.3.09-.39l2.78-1.83-4.03,2.33c-.14.08-.32.03-.4-.12-.07-.13-.04-.29.08-.38l5.11-3.58-7.06,4.08c-.14.08-.32.03-.4-.11-.07-.13-.04-.29.09-.38l4.86-3.37-5.73,3.31c-.14.08-.32.03-.4-.11-.07-.13-.04-.3.09-.38l3.93-2.71-3.54,2.04c-.14.07-.32.02-.39-.13-.06-.12-.03-.28.08-.36l3.34-2.44-2.44,1.41c-.14.08-.32.03-.4-.11-.07-.12-.04-.27.06-.37l1.59-1.34c-.16-.03-.27-.18-.24-.34.01-.09.07-.16.14-.2l2.43-1.4c.14-.08.32-.03.4.11.07.12.04.27-.06.37l-1.3,1.09,4.32-2.49c.14-.08.32-.03.4.11.07.13.04.29-.08.38l-3.34,2.44,5.07-2.93c.14-.08.32-.03.4.11.07.13.04.3-.09.38l-3.94,2.71,5.55-3.21c.14-.08.32-.03.4.11.08.13.04.3-.09.39l-4.87,3.37,6.7-3.87c.14-.08.32-.03.4.11.07.13.04.3-.08.38l-5.11,3.58,7.06-4.08c.14-.08.32-.03.4.11.08.13.04.3-.09.39l-2.78,1.83,3.71-2.14c.14-.08.32-.03.4.11.07.13.04.29-.08.38l-5,3.53,6.17-3.56c.14-.08.32-.03.4.11.08.13.04.3-.08.39l-4.65,3.35,5.79-3.34c.14-.08.32-.04.4.1s.04.32-.1.4l-.08.05.42-.24c.14-.08.32-.03.4.11.07.13.04.3-.09.38l-2.66,1.84,3.14-1.81c.14-.08.32-.03.4.11.08.13.04.3-.08.39l-2.82,2.03,3.24-1.87c.14-.08.32-.03.4.11.07.13.04.29-.08.38l-2.4,1.79,2.69-1.56c.14-.08.32-.03.4.12.07.13.04.29-.08.38l-.8.57.86-.5c.14-.08.32-.03.4.11.07.12.04.28-.06.37l-1.68,1.44,1.78-1.03c.14-.08.32-.03.4.11.07.12.04.27-.05.36l-.89.82.81-.47c.14-.08.32-.03.4.11.06.11.05.25-.04.34l-.31.33.11-.06c.14-.09.32-.05.4.09.09.14.05.32-.09.4,0,0-.01,0-.02.01l-1.86,1.07c-.14.08-.32.03-.4-.11-.06-.11-.05-.25.04-.35l.31-.33-1.36.78c-.14.08-.32.03-.4-.11-.07-.12-.04-.27.05-.36l.89-.82-2.23,1.28c-.14.08-.32.03-.4-.11-.07-.12-.04-.27.06-.37l1.68-1.44-3.31,1.91c-.14.08-.32.03-.4-.11-.07-.13-.04-.29.08-.38l.8-.57-1.85,1.06c-.14.08-.32.03-.4-.11-.08-.13-.04-.29.08-.38l2.41-1.79-3.95,2.28c-.14.08-.32.03-.4-.11-.08-.13-.04-.3.08-.39l2.82-2.03-4.37,2.52c-.14.08-.32.03-.4-.11-.07-.13-.04-.29.09-.38l2.66-1.84-4.04,2.33s-.1.04-.15.04h0Z"/>
  <path class="cls-1" d="m13.68,34.69c-.16,0-.29-.13-.29-.29,0-.1.05-.19.13-.24l3.2-2.21-4.34,2.51c-.14.08-.32.03-.4-.11-.08-.13-.04-.3.09-.39l3.65-2.47-3.61,2.08c-.14.08-.32.03-.4-.11-.07-.13-.04-.29.08-.38l3.73-2.63-3.62,2.09c-.14.07-.32.02-.39-.13-.06-.12-.03-.27.07-.36l3.09-2.3-2.87,1.66c-.14.08-.32.03-.4-.11-.07-.12-.04-.28.07-.37l2.25-1.81-1.88,1.09c-.14.08-.32.03-.4-.11-.07-.12-.04-.26.05-.36l1.28-1.17-.79.45c-.14.08-.32.03-.4-.11-.05-.09-.05-.2,0-.28l.55-1.02c-.16-.03-.27-.18-.24-.34.01-.09.07-.16.14-.21l.64-.37c.14-.08.32-.03.4.11.05.09.05.2,0,.29l-.49.9,2.25-1.3c.14-.08.32-.03.4.12.06.12.04.26-.05.35l-1.28,1.17,2.84-1.64c.14-.08.32-.03.4.11.07.12.04.28-.07.37l-2.25,1.8,3.96-2.28c.14-.08.32-.03.4.11.07.13.04.29-.08.38l-3.09,2.3,4.82-2.78c.14-.08.32-.03.4.11.07.13.04.29-.08.38l-3.73,2.63,5.14-2.97c.14-.08.32-.03.4.12.07.13.03.29-.09.38l-3.65,2.47,3.6-2.08c.14-.08.32-.03.4.12.07.13.03.29-.09.38l-3.2,2.21,3.08-1.78c.14-.08.32-.03.4.12.07.13.03.29-.09.38l-.73.49.51-.29c.14-.08.32-.03.4.11.07.13.04.29-.08.38l-2.58,1.96,2.33-1.34c.14-.08.32-.03.4.11.07.13.04.28-.07.38l-1.61,1.29,1.24-.71c.14-.08.32-.03.4.11.07.13.04.28-.07.37l-.28.22c.16,0,.29.13.29.29,0,.07-.03.14-.08.2l-.49.54c.12-.02.23.04.29.14.08.14.03.32-.11.4l-1.44.84c-.14.08-.32.03-.4-.11-.06-.11-.05-.25.04-.34l.44-.49-1.62.94c-.14.08-.32.03-.4-.11-.07-.13-.04-.28.07-.37l.07-.06-.94.54c-.14.08-.32.03-.4-.11-.07-.12-.04-.28.07-.37l1.61-1.29-3.08,1.78c-.14.08-.32.03-.4-.11-.07-.13-.04-.29.08-.38l2.58-1.95-4.23,2.44c-.14.08-.32.03-.4-.11-.08-.13-.04-.3.09-.39l.72-.48-1.7.98s-.1.04-.15.04h0Z"/>
  <path class="cls-5" d="m1.47,5.41c-.16,0-.29-.13-.29-.29,0-.09.04-.18.12-.23l2.56-1.97-3.19,1.84c-.14.08-.32.03-.4-.11-.07-.12-.04-.28.07-.37l2.05-1.65-1.72.99c-.14.08-.32.03-.4-.11-.07-.12-.04-.28.07-.37l.49-.39-.15.09c-.14.08-.32.03-.4-.11-.06-.11-.05-.25.04-.34l.74-.8c-.16,0-.29-.14-.28-.3,0-.1.06-.19.15-.25L2.3.23c.14-.08.32-.03.4.11.06.11.05.25-.04.34l-.64.7L4.08.19c.14-.08.32-.03.4.11.07.12.04.28-.07.37l-.49.39,1.51-.87c.14-.08.32-.03.4.11.07.13.04.28-.07.38l-2.05,1.64L7.38.19c.14-.08.32-.03.4.11.07.13.04.28-.07.37l-2.56,1.97L9.4.19c.14-.08.32-.03.4.11.07.13.04.29-.08.38l-2.45,1.86L11.34.19c.14-.08.32-.03.4.11.07.13.04.29-.08.38l-1.87,1.36L12.99.19c.14-.08.32-.03.4.11.08.13.04.29-.08.38l-2.24,1.67L14.81.19c.14-.08.32-.03.4.11.07.13.04.28-.07.37l-2.63,2.04L16.89.19c.14-.08.32-.03.4.11.07.13.04.29-.08.38l-1.45,1.03,2.64-1.52c.14-.08.32-.03.4.11.07.13.04.28-.07.37l-2.71,2.14L20.54.19c.14-.08.32-.03.4.11.07.13.04.29-.08.38l-1.85,1.34,3.18-1.83c.14-.08.32-.03.4.11.07.13.04.29-.08.38l-1.3.92,2.44-1.41c.14-.08.32-.03.4.11.07.13.04.29-.08.38l-1.87,1.36,3.21-1.85c.14-.08.32-.03.4.11.07.13.04.29-.08.38l-2.28,1.71L27.13.19c.14-.08.32-.03.4.12.07.13.03.29-.09.38l-.1.07.98-.56c.14-.08.32-.03.4.11.07.13.04.29-.08.38l-1.91,1.39,3.26-1.88c.14-.08.32-.03.4.11.07.12.04.28-.07.37l-2.79,2.22L32.2.2c.14-.08.32-.03.4.11.07.13.04.28-.07.37l-2.61,2.03,3.5-2.02c.14-.08.32-.03.4.11.07.12.04.28-.07.37l-2.34,1.95,2.69-1.55c.14-.08.32-.03.4.11.07.12.05.27-.05.36l-1.64,1.52,1.5-.86c.14-.08.32-.03.4.11.06.11.05.25-.04.34l-.69.75.34-.19c.14-.08.32-.03.4.11.04.07.05.14.03.22l-.16.64c.15.07.22.24.15.39-.03.06-.07.1-.12.14l-.29.17c-.14.08-.32.03-.4-.11-.04-.07-.05-.14-.03-.22l.12-.49-1.4.81c-.14.08-.32.03-.4-.11-.06-.11-.05-.25.04-.34l.69-.75-2.08,1.21c-.14.08-.32.03-.4-.11-.07-.12-.05-.27.05-.36l1.63-1.52-3.44,1.99c-.14.08-.32.03-.4-.11-.07-.12-.04-.28.07-.37l2.34-1.95-4.2,2.43c-.14.08-.32.03-.4-.11-.07-.13-.04-.28.07-.37l2.61-2.02-4.35,2.51c-.14.08-.32.03-.4-.11-.07-.12-.04-.28.07-.37l2.79-2.22-4.69,2.71c-.14.08-.32.03-.4-.11-.07-.13-.04-.29.08-.38l1.91-1.39-3.27,1.88c-.14.08-.32.04-.4-.1-.08-.13-.04-.31.09-.39l.1-.07-.97.56c-.14.08-.32.03-.4-.11-.07-.13-.04-.29.08-.38l2.29-1.71-3.81,2.2c-.14.08-.32.03-.4-.11-.07-.13-.04-.29.08-.38l1.87-1.36-3.21,1.85c-.14.08-.32.03-.4-.11-.08-.13-.04-.3.09-.39l1.3-.92-2.44,1.41c-.14.08-.32.03-.4-.11-.07-.13-.04-.29.08-.38l1.85-1.34-3.18,1.84c-.14.08-.32.03-.4-.11-.07-.13-.04-.28.07-.37l2.71-2.14-4.54,2.62c-.14.08-.32.03-.4-.11-.08-.13-.04-.3.08-.39l1.46-1.03-2.64,1.52c-.14.08-.32.03-.4-.11-.07-.12-.04-.28.07-.37l2.63-2.04-4.38,2.53c-.14.08-.32.03-.4-.11-.08-.13-.04-.29.08-.38l2.24-1.67-3.74,2.16c-.14.08-.32.03-.4-.11-.07-.13-.04-.29.08-.38l1.87-1.36-3.2,1.85c-.14.08-.32.03-.4-.11-.07-.13-.04-.29.08-.38l2.45-1.86L1.61,5.37s-.09.04-.15.04h0Z"/>
  <path class="cls-4" d="m19.22,30.57c-.16,0-.29-.13-.3-.29,0-.08.03-.16.09-.21l.37-.37-.76.44c-.14.08-.32.03-.4-.11-.07-.12-.04-.26.05-.36l1.36-1.24-3.61,2.08c-.14.08-.32.03-.4-.11-.07-.13-.04-.29.08-.38l.59-.43-1.11.64c-.14.08-.32.03-.4-.11-.07-.13-.04-.28.07-.37l1.46-1.14-1.64.95c-.14.08-.32.03-.4-.11-.07-.13-.04-.29.08-.38l.31-.23-.36.21c-.14.08-.32.03-.4-.11-.06-.11-.05-.25.04-.35l1.04-1.08-1.28.74c-.14.08-.32.03-.4-.11-.02-.04-.03-.08-.04-.12l-.08-.78-.16.09c-.14.08-.32.03-.4-.11-.08-.14-.03-.32.11-.4l.56-.32c.14-.08.32-.03.4.11.02.04.03.08.04.12l.08.79,2.68-1.55c.14-.08.32-.03.4.11.06.11.05.25-.04.35l-1.04,1.08,2.67-1.54c.14-.08.32-.03.4.11.07.13.04.28-.08.37l-.31.23,1.23-.71c.14-.08.32-.03.4.11.07.12.04.28-.07.37l-1.46,1.14,2.23-1.29c.14-.08.32-.03.4.11.07.13.04.29-.08.38l-.59.43,1.14-.66c.14-.08.32-.03.4.11.07.12.04.26-.05.36l-1.36,1.24.35-.2c.14-.08.32-.03.4.12.06.11.04.25-.05.34l-1.04,1.05s.02.02.02.04c.08.14.03.32-.11.4l-.87.5s-.09.04-.14.04h0Z"/>
  <path class="cls-1" d="m16.69,31.76c-.16,0-.29-.13-.29-.29,0-.07.03-.14.07-.19l.39-.45-.54.31c-.14.08-.32.03-.4-.11-.06-.11-.05-.24.03-.34l.46-.53c-.15-.05-.24-.22-.18-.37.02-.07.07-.12.13-.16l1.1-.64c.14-.08.32-.03.4.11.06.11.05.24-.03.34l-.26.29.5-.29c.14-.08.32-.03.4.11.06.11.05.24-.03.34l-.39.45.69-.4c.14-.08.32-.03.4.11.05.08.05.18.02.26l-.3.7s.07.06.09.1c.08.14.03.32-.11.4h0s-.34.2-.34.2c-.14.08-.32.03-.4-.11-.05-.08-.05-.18-.02-.26l.19-.46-1.45.84s-.09.04-.15.05h0Z"/>
  <path class="cls-1" d="m17.26,34.69c-.16,0-.29-.13-.29-.29,0-.06.02-.13.06-.18l.66-.86-1.74,1c-.14.08-.32.02-.4-.12-.06-.12-.04-.26.05-.35l.8-.72-.25.14c-.14.08-.32.03-.4-.11-.04-.08-.05-.17-.02-.25l.4-1.02s-.08-.06-.1-.1c-.08-.14-.03-.32.11-.4l.33-.19c.14-.08.32-.03.4.11.04.08.05.17.02.25l-.31.79,1.92-1.11c.14-.08.32-.02.4.12.06.12.04.26-.05.35l-.8.72.63-.36c.14-.08.32-.03.4.11.06.1.05.23-.02.32l-.66.86.49-.28c.14-.08.32-.03.4.11.04.07.05.16.03.23l-.11.36c.16,0,.29.14.28.31,0,.1-.06.19-.15.24l-.47.27c-.14.08-.32.03-.4-.11-.04-.07-.05-.16-.03-.24l.09-.29-1.11.64s-.09.04-.15.04h0Z"/>
  <path class="cls-3" d="m17.28,29.15c-.16,0-.29-.13-.29-.29,0-.08.03-.16.09-.21l.03-.03-.05.03c-.14.08-.32.03-.4-.12-.06-.12-.04-.26.05-.35l.88-.8-1.06.61c-.14.08-.32.03-.4-.11-.07-.11-.05-.26.04-.35l.84-.87-1.05.61c-.14.08-.32.03-.4-.11-.06-.11-.04-.26.05-.35l.05-.05-.07.04c-.14.08-.32.03-.4-.11-.03-.05-.04-.1-.04-.15v-.7c-.15,0-.28-.14-.28-.3,0-.1.06-.2.15-.25l.29-.17c.14-.08.32-.03.4.11.03.05.04.1.04.15v.66s1.59-.92,1.59-.92c.14-.08.32-.03.4.11.06.11.04.26-.05.35l-.05.05.89-.51c.14-.08.32-.03.4.11.07.11.05.26-.04.35l-.84.87,1.62-.94c.14-.08.32-.03.4.12.06.12.04.26-.05.35l-.98.89c.16-.01.3.11.31.27,0,.09-.03.17-.09.23l-.93.9c.08.14.03.31-.11.39l-.78.45s-.09.04-.15.04h0Z"/>
  <path class="cls-1" d="m11.82,18.88c-.16,0-.29-.13-.29-.29,0-.1.05-.19.13-.24l5.73-3.96-7.35,4.24c-.14.08-.32.02-.4-.12-.07-.13-.03-.3.09-.38l2.09-1.33-1.79,1.03c-.14.08-.32.03-.4-.11-.08-.13-.04-.3.09-.39l6.02-4.12-5.71,3.3c-.14.08-.32.02-.4-.12-.07-.13-.03-.3.09-.38l3.02-1.98-2.71,1.57c-.14.08-.32.03-.4-.11-.07-.13-.03-.3.09-.38l3.77-2.55-3.42,1.97c-.14.08-.32.03-.4-.12-.07-.13-.03-.29.09-.38l2.05-1.36-1.58.91c-.14.08-.32.03-.4-.11-.08-.13-.04-.29.08-.38l3.8-2.82-2.88,1.66c-.14.08-.32.03-.4-.11-.07-.12-.04-.27.06-.37l2.09-1.82c-.15.06-.32-.01-.38-.16-.05-.14,0-.29.13-.36l2.56-1.48c.14-.08.32-.03.4.11.07.12.04.27-.06.37l-2.08,1.81,4.63-2.67c.14-.08.32-.03.4.11.07.13.04.29-.08.38l-3.8,2.82,5.21-3.01c.14-.09.32-.04.41.1.09.14.04.32-.1.41l-2.05,1.36,2.64-1.52c.14-.08.32-.02.4.12.07.13.03.29-.09.38l-3.77,2.54,4.4-2.54c.14-.08.32-.04.4.1.08.14.04.31-.09.4l-3.02,1.98,3.43-1.98c.14-.08.32-.03.4.11.07.13.04.29-.09.38l-6.02,4.12,6.58-3.8c.14-.08.32-.04.4.1s.04.32-.1.4l-2.08,1.33,2.23-1.29c.14-.08.32-.03.4.11.07.13.04.3-.09.38l-5.73,3.96,6.04-3.48c.14-.08.32-.03.4.11.08.13.04.3-.09.39l-1.87,1.22,1.87-1.08c.14-.08.32-.03.4.11.07.13.04.3-.08.38l-3.85,2.7,3.87-2.23c.14-.08.32-.03.4.11.08.13.04.3-.09.39l-2.25,1.57,2.11-1.22c.14-.08.32-.03.4.12.07.13.04.29-.08.37l-2.1,1.54,1.86-1.08c.14-.08.32-.03.4.11.07.12.04.28-.07.37l-1.78,1.46,1.46-.84c.14-.08.32-.03.4.11.06.11.05.25-.04.35l-1.12,1.22.76-.44c.14-.08.32-.03.4.11.04.07.05.16.02.24l-.25.7c.16,0,.28.15.27.31,0,.1-.06.19-.14.24l-.51.29c-.14.08-.32.03-.4-.11-.04-.07-.05-.16-.02-.24l.23-.63-1.71.99c-.14.08-.32.03-.4-.11-.06-.11-.05-.25.04-.34l1.12-1.22-2.9,1.67c-.14.08-.32.03-.4-.11-.07-.12-.04-.28.07-.37l1.78-1.46-3.37,1.94c-.14.08-.32.03-.4-.11-.07-.13-.04-.29.08-.38l2.1-1.54-3.52,2.03c-.14.08-.32.03-.4-.11-.08-.13-.04-.3.09-.39l2.25-1.57-3.57,2.06c-.14.08-.32.03-.4-.11-.07-.13-.04-.3.08-.38l3.85-2.7-5.54,3.2c-.14.08-.32.03-.4-.11-.08-.14-.04-.31.09-.39l1.86-1.21-2.97,1.72s-.09.04-.15.04h0Z"/>
  <path class="cls-4" d="m16.66,26.34c-.16,0-.29-.13-.29-.29,0-.09.04-.18.12-.23l2.66-1.99-3.47,2c-.14.08-.32.03-.4-.11-.08-.13-.04-.3.09-.39l2.15-1.44-2.59,1.49c-.14.08-.32.03-.4-.11-.07-.13-.03-.3.09-.38l3.33-2.25-3.81,2.2c-.14.08-.32.02-.4-.12-.07-.13-.03-.29.09-.38l2.48-1.63-2.8,1.62c-.14.08-.32.03-.4-.11-.07-.13-.04-.29.08-.38l4.73-3.31-5.22,3.02c-.14.08-.32.03-.4-.11-.07-.13-.04-.3.09-.38l3.41-2.29-3.6,2.08c-.14.08-.32.03-.4-.11-.07-.13-.04-.3.08-.38l5.05-3.55-5.08,2.93c-.14.08-.32.03-.4-.11-.08-.13-.04-.3.09-.39l3.43-2.35-3.2,1.85c-.14.08-.32.03-.4-.11-.08-.13-.04-.3.09-.39l1.11-.74-1.59.92c-.14.08-.32.03-.4-.11-.08-.13-.04-.3.09-.39l2.13-1.45-2.45,1.41c-.14.08-.32.03-.4-.11-.08-.13-.04-.3.09-.39l.75-.5-.72.41c-.14.08-.32.03-.4-.11-.07-.13-.04-.29.08-.38l3.46-2.55-2.95,1.7c-.14.08-.32.03-.4-.11-.07-.12-.04-.27.06-.37l1.87-1.63s-.02-.03-.03-.04c-.08-.14-.03-.32.11-.4l1.3-.75c.14-.08.32-.03.4.11.07.12.04.27-.06.36l-.91.79,4.86-2.81c.14-.08.32-.03.4.11.07.13.04.29-.08.38l-3.46,2.55,4.21-2.43c.14-.08.32-.02.4.12.07.13.03.29-.09.38l-.75.5,1.16-.67c.14-.08.32-.03.4.11.08.13.04.3-.09.39l-2.13,1.45,2.81-1.62c.14-.08.32-.03.4.11.07.13.04.3-.09.38l-1.11.74,1.75-1.01c.14-.08.32-.03.4.11.07.13.04.3-.09.38l-3.43,2.35,4.26-2.46c.14-.08.32-.03.4.12.07.13.04.29-.08.38l-5.04,3.55,5.43-3.13c.14-.08.32-.03.4.11.07.13.04.3-.09.38l-3.41,2.29,3.56-2.05c.14-.08.32-.04.4.1.08.13.04.3-.09.39l-4.73,3.31,5.48-3.17c.14-.08.32-.03.4.11.07.13.03.3-.09.39l-2.48,1.63,2.49-1.44c.14-.08.32-.03.4.11.07.13.03.3-.09.38l-3.33,2.25,2.93-1.69c.14-.08.32-.03.4.11.07.13.03.3-.09.38l-2.15,1.44.18-.11c.14-.08.32-.03.4.11.07.13.04.29-.08.38l-2.66,1.99,2-1.16c.14-.08.32-.03.4.11.07.13.04.29-.07.38l-1.82,1.43c.08.02.14.07.18.14.08.14.03.32-.11.4l-2.9,1.68c-.14.08-.32.03-.4-.11-.07-.13-.04-.28.07-.37l1.36-1.07-2.71,1.56s-.1.04-.15.04h0Z"/>
  <g>
    <path class="cls-2" d="m34.9,15.69V3.98c.4-2.6-1.25-4.14-3.84-3.71H6.65C4.43.27.18-.36.07,2.91c-.08,7.34.04,14.69,0,22.03-.08,4.22-.8,8.2,4.97,7.28-.32.94-.56,2.23.73,2.45,4.4.05,8.81,0,13.21.02,2.3-.57,13.06,1.81,11.01-2.45,3.17.43,5.55-.99,4.9-4.39v-12.15ZM2.56.59c8.55-.01,17.11,0,25.66,0,3.35-.26,6.6-.09,5.83,4.24H.92c.09-1.49-.47-3.98,1.64-4.24Zm5.43,33.53c-2.23.4-2.96-.51-1.86-2.53.95-2.34,3.28-3.44,5.58-4.01-.64,2.14-.63,4.42.03,6.55h-3.75Zm7.39-.03v.03h-2.72c-.74-2.18-.77-4.54-.11-6.75.99,1.01,1.56,2.99,3.08,3.2.47,1.16-.08,2.34-.25,3.52h0Zm-.34-4.78l-1.68-2.26,1.53-.48c.71.86,1.39,1.73,2.09,2.6-.65.61-1.43,1.29-1.95.14h0Zm-3.25-9.25c-1.73-.09-2.06-2.85-.2-2.95.16,0,.46-.13.47-.32.09-2.16,2.78-1.6,4.15-2.5.39-.19,1-.75,1.41-.59,1.52,1.51,5.09.66,5.3,3.24,1.72.26,2.64,2.76.47,3.12-.21.03-.48.17-.47.4.19,2.33-1.77,3.74-3.5,4.87-1.19.79-2.74.75-3.88-.1-2.52-1.46-3.12-2.72-3.76-5.17h0Zm-1.49-3.02c-1.47-12.48,15.51-12.21,14.41-.08-.29-.2-.61-.33-.96-.38-.22-2.43-3.22-1.85-4.78-2.9-.5-.27-.92-.71-1.53-.64-1.87,1.44-5.52.98-6.19,3.57-.34.08-.67.23-.95.43h0Zm5.28,9.03v-.03c1.21.61,2.65.58,3.83-.09v.24c-.62.78-1.24,1.55-1.87,2.33l-1.97-2.46Zm2.91,4.33s.03.01.05.02c-.07.3-.15.59-.22.89h-1.58l-.25-1c.33-.22.64-.47.94-.73.33.31.69.58,1.07.83Zm-2.28,3.72c.17-.82.33-1.65.49-2.47h1.55c.16.82.33,1.65.49,2.47h-2.54Zm1.79-5.07c.66-.82,1.32-1.63,1.97-2.46l1.7.54c-1.21,1.23-1.87,4.14-3.67,1.92h0Zm4.38,5.07h-2.73c-.14-1.18-.77-2.39-.35-3.55,1.5-.35,2.07-2.19,3.05-3.23h.01c.71,2.21.72,4.57.01,6.78h0Zm6.53,0c-1.89.02-3.81-.02-5.72,0,.69-2.09.75-4.34.17-6.46,2.28.54,4.52,1.74,5.48,4.01.24.52,1.02,2.26.07,2.46h0Zm5.15-22.5v17.27c.35,2.91-1.77,3.28-4.18,3.02-1.36-4.14-6.03-4.69-9.61-5.91v-.52c1.77-1.17,3.55-2.66,3.51-4.92,4.02-1.43,1.35-11.43-2.52-12.46-4.54-2.24-10.54.43-11.62,5.45-.07,2.18-1.3,6.34,1.58,7.04-.08,2.31,1.71,3.8,3.51,4.98,0,.16,0,.31,0,.48-3.57,1.21-8.09,1.81-9.55,5.85-3.65.62-4.69-1.65-4.24-4.9V5.4h33.13c0,2.07,0,4.15,0,6.22h0Z"/>
    <path class="cls-2" d="m2.59,3.06c.4.02,1.11.18,1.26-.32-.04-.63-2.04-.26-1.26.32Z"/>
    <path class="cls-2" d="m5.52,3.05c.37.08.76.05,1.11-.09.78-.82-2.01-.59-1.11.09Z"/>
    <path class="cls-2" d="m8.45,3.05c.37.08.76.05,1.11-.09.78-.82-2.02-.6-1.11.09Z"/>
    <path class="cls-2" d="m28.45,3.03c.52-.11,4.98.37,3.84-.51-.52.11-4.98-.37-3.84.51Z"/>
  </g>
</svg>