<?xml version="1.0" encoding="UTF-8"?>
<svg id="Layer_1" data-name="Layer 1" xmlns="http://www.w3.org/2000/svg" viewBox="0 0 35 35">
  <defs>
    <style>
      .cls-1 {
        fill: #f47721;
      }

      .cls-1, .cls-2, .cls-3, .cls-4 {
        stroke-width: 0px;
      }

      .cls-3 {
        fill: #fff;
      }

      .cls-4 {
        fill: #c1dbf0;
      }
    </style>
  </defs>
  <path class="cls-4" d="m25.6,27.18c-.16,0-.29-.13-.29-.29,0-.07.03-.14.08-.2l1.16-1.26-1.83,1.06c-.14.08-.32.02-.4-.12-.06-.12-.04-.26.05-.35l1.39-1.24-1.05.6c-.14.08-.32.03-.4-.11-.07-.12-.04-.28.07-.37l.94-.79-.61.35c-.14.08-.32.03-.4-.11-.07-.12-.04-.27.06-.36l1.24-1.09-.9.52c-.14.08-.32.02-.4-.12-.06-.12-.04-.26.05-.35l1.32-1.18-.98.56c-.14.08-.32.03-.4-.1-.07-.12-.05-.26.05-.36l1.07-1.04-.72.42c-.14.08-.32.03-.4-.11-.06-.1-.05-.22.01-.31l.45-.65c-.16.02-.31-.09-.33-.25-.01-.12.04-.23.14-.29l.97-.56c.14-.08.32-.03.4.11.06.1.05.22-.01.31l-.42.61,1.64-.95c.14-.08.32-.03.4.1.07.12.05.26-.05.36l-1.07,1.04,1.39-.8c.14-.08.32-.02.4.12.06.12.04.26-.05.35l-1.32,1.18,1.04-.6c.14-.08.32-.03.4.11.07.12.04.27-.06.37l-1.24,1.09.91-.52c.14-.08.32-.03.4.11.07.12.04.28-.07.37l-.94.79.61-.35c.14-.08.32-.02.4.12.06.12.04.26-.05.35l-1.39,1.24,1.05-.6c.14-.08.32-.03.4.11.06.11.05.25-.04.34l-1.16,1.26.8-.47c.14-.08.32-.03.4.11.05.08.05.18.01.27l-.29.6c.11,0,.22.05.28.14.08.14.03.32-.11.4l-.68.39c-.14.08-.32.03-.4-.11-.05-.08-.05-.18-.01-.27l.27-.56-1.64.95s-.09.04-.15.04h0Z"/>
  <path class="cls-1" d="m19.4,27.18c-.16,0-.29-.13-.29-.29,0-.09.04-.17.1-.22l.3-.26-.64.37c-.14.08-.32.04-.4-.1-.07-.12-.05-.28.06-.37l1.27-1.11-.93.54c-.14.08-.32.03-.4-.11-.07-.12-.04-.27.06-.37l1.2-1.05-.86.5c-.14.08-.32.03-.4-.11-.07-.12-.04-.27.06-.36l1.29-1.14-.95.55c-.14.08-.32.03-.4-.11-.07-.12-.04-.27.06-.36l.87-.77-.53.3c-.14.08-.32.03-.4-.11-.05-.09-.05-.2,0-.29l.59-1.02h-.02c-.14.09-.32.03-.39-.11-.07-.13-.03-.3.1-.38l.97-.56c.14-.08.32-.03.4.11.05.09.05.2,0,.29l-.59,1.02,2.06-1.19c.14-.08.32-.03.4.11.07.12.04.27-.06.36l-.87.77.96-.56c.14-.08.32-.03.4.11.07.12.04.27-.06.36l-1.29,1.14.97-.56c.14-.08.32-.03.4.11.07.12.04.27-.06.36l-1.2,1.05.87-.5c.14-.08.32-.03.4.11.07.12.04.27-.06.37l-1.27,1.11.93-.54c.14-.08.32-.03.4.11.07.12.04.28-.06.37l-.31.26c.15-.07.32,0,.39.14.04.09.04.19-.02.28l-.39.63c.14-.07.32-.02.39.13.07.14.02.3-.11.38l-1,.58c-.14.08-.32.04-.4-.1-.06-.09-.05-.21,0-.31l.39-.63-1.8,1.04s-.09.04-.15.04h0Z"/>
  <path class="cls-4" d="m30.6,27.18c-.16,0-.29-.13-.29-.29,0-.08.03-.16.09-.21l1.37-1.27-1.22.7c-.14.08-.32.04-.4-.1-.07-.12-.05-.27.05-.37l1.63-1.52-1.28.74c-.13.08-.3.04-.39-.09-.09-.13-.06-.3.06-.39l.21-.16c-.16.02-.31-.1-.32-.26-.01-.1.03-.19.1-.26l1.08-.92-.74.43c-.14.08-.32.03-.4-.11-.07-.12-.04-.27.06-.37l1.05-.89-.71.41c-.14.08-.32.03-.4-.11-.07-.12-.04-.26.05-.35l1.49-1.37-1.15.67c-.14.08-.32.03-.4-.11-.07-.12-.04-.27.06-.37l1.16-1-.82.47c-.14.08-.32.03-.4-.11-.07-.12-.05-.27.05-.36l1.56-1.44-1.21.7c-.14.08-.32.03-.4-.11-.07-.12-.04-.28.06-.37l.92-.79-.58.34c-.14.08-.32.03-.4-.11-.07-.12-.05-.26.05-.35l.84-.82-.49.28c-.14.08-.32.03-.4-.11-.06-.1-.05-.23.02-.32l.34-.44c-.16-.03-.26-.19-.23-.34.02-.08.07-.15.14-.19l.97-.56c.14-.08.32-.03.4.11.06.1.05.23-.02.32l-.22.28,1.21-.7c.14-.08.32-.03.4.11.07.12.05.26-.05.35l-.84.82,1.29-.74c.14-.08.32-.03.4.11.07.12.04.27-.06.36l-.92.79.75-.43c.14-.08.32-.03.4.11.07.12.05.27-.05.36l-1.55,1.44,1.21-.7c.14-.08.32-.03.4.11.07.12.04.27-.06.37l-1.16,1,.82-.48c.14-.08.32-.03.4.12.06.12.04.26-.05.35l-1.49,1.37,1.15-.66c.14-.08.32-.03.4.11.07.12.04.28-.06.37l-1.05.89.71-.41c.14-.08.32-.03.4.11.07.12.04.28-.06.37l-1.08.92.74-.43c.14-.08.32-.03.4.11.07.13.04.29-.07.38l-.21.16c.1,0,.2.03.27.12.09.12.07.29-.04.39l-1.63,1.52,1.29-.74c.14-.08.32-.03.4.11.07.12.05.27-.05.36l-1.38,1.27,1.03-.6c.14-.08.32-.04.4.1.07.12.05.27-.05.37l-.24.22c.09-.01.18.02.24.08.09.09.11.24.05.35l-.2.35c.16.03.26.18.23.34-.02.08-.07.16-.14.2l-.67.38c-.14.08-.32.03-.4-.11-.05-.09-.05-.2,0-.29l.13-.23-1.09.63c-.14.08-.32.04-.4-.1-.07-.12-.05-.27.05-.36l.16-.15-1.08.63s-.1.04-.15.04h0Z"/>
  <g>
    <path class="cls-4" d="m19.86,17.51c-.16,0-.29-.13-.29-.29,0-.09.04-.18.11-.23l1.58-1.22-1.71.99c-.14.08-.32.03-.4-.11-.07-.13-.04-.29.08-.38l.89-.66-.52.3c-.14.08-.32.03-.4-.11-.07-.13-.04-.29.08-.38l.74-.55c-.16-.02-.28-.16-.26-.32,0-.08.04-.15.1-.2l1.87-1.59c-.07-.14-.02-.31.12-.39l1.09-.63c.14-.08.32-.03.4.11.07.12.04.27-.06.37l-.56.48,1.06-.61c.14-.08.32-.03.4.11.07.13.04.29-.08.38l-.36.27.51-.3c.14-.08.32-.03.4.11.07.13.04.29-.08.38l-.89.66,1.1-.63c.14-.08.32-.03.4.11.07.13.04.28-.07.37l-3.07,2.36s.02.02.02.04c.08.14.03.32-.11.4l-1.92,1.11s-.09.04-.15.04h0Z"/>
    <path class="cls-4" d="m32.89,13.06c-.16,0-.29-.13-.29-.29,0-.08.03-.15.08-.2l.05-.05-.21.12c-.14.08-.32.03-.4-.12-.06-.12-.04-.26.05-.35l.08-.07c-.15.05-.32-.03-.37-.19-.04-.11,0-.23.09-.31l.18-.16c-.16,0-.29-.13-.29-.29,0-.1.06-.2.15-.25l2.3-1.33c.13-.07.3-.04.38.08.09.12.07.29-.04.39l-.19.17c.16,0,.29.13.29.29,0,.08-.04.16-.1.21l-.19.18c.16,0,.29.13.29.29,0,.08-.03.15-.08.2l-.19.2c.16.01.28.16.26.32,0,.09-.06.18-.14.23l-1.56.9s-.1.04-.15.04h0Z"/>
    <path class="cls-4" d="m25.73,17.24c-.16,0-.29-.13-.29-.29,0-.08.04-.17.1-.22l1.08-.93-1.67.96c-.14.08-.32.03-.4-.11-.07-.13-.04-.29.08-.38l4.7-3.36-5.23,3.02c-.14.08-.32.03-.4-.11-.06-.1-.05-.22,0-.31l.62-.93-1.01.58c-.14.09-.32.05-.4-.09s-.05-.32.09-.4c0,0,.01,0,.02-.01l2.09-1.21c.14-.08.32-.03.4.11.06.1.05.22,0,.31l-.62.93,9.42-5.44c.14-.08.32-.03.4.11.07.13.04.29-.08.38l-5.42,3.87c.16.04.25.2.21.36-.01.06-.05.11-.09.15l-2.26,1.95c.08.14.03.32-.11.4l-1.09.63s-.09.04-.15.04h0Z"/>
    <path class="cls-4" d="m26.7,13.48c-.16,0-.29-.13-.29-.29,0-.1.05-.18.12-.24l2.38-1.66c-.1.01-.2-.04-.26-.13-.09-.13-.06-.3.06-.39l1.87-1.5-.58.34c-.14.08-.32.03-.4-.11-.06-.1-.05-.23.02-.32l.88-1.12-1.57.91c-.14.08-.32.03-.4-.11-.05-.09-.05-.21,0-.3l.41-.67c-.15.06-.32,0-.38-.15-.06-.13,0-.29.12-.37l.97-.56c.12-.07.26-.05.36.05.09.1.11.24.04.36l-.41.67,1.87-1.08c.14-.08.32-.03.4.11.06.1.05.23-.02.32l-.88,1.12,2.56-1.48c.14-.08.32-.03.4.11.07.12.04.28-.07.37l-1.86,1.5,2.22-1.29c.14-.08.32-.04.4.1.08.13.04.3-.09.39l-2.09,1.46,1.84-1.06c.14-.07.32-.02.39.12.07.13.03.3-.1.38l-7.76,4.48s-.09.04-.15.04h0Z"/>
  </g>
  <path class="cls-4" d="m22.1,28.93c-.16,0-.29-.13-.29-.29,0-.08.03-.15.09-.21l.69-.67-1.43.83c-.14.08-.32.03-.4-.11-.07-.12-.04-.26.05-.36l.23-.21c-.09.05-.2.04-.29-.01-.09-.06-.14-.16-.14-.27l.07-.86c-.08-.02-.15-.07-.2-.14-.08-.14-.03-.32.11-.4h0s.27-.15.27-.15c.14-.08.32-.03.4.11.03.05.04.11.04.17l-.06.77,1.81-1.04c.14-.08.32-.03.4.11.07.12.04.26-.05.36l-.23.21,1.17-.68c.14-.08.32-.04.4.1.07.12.05.27-.05.36l-.69.67,1.97-1.13c.14-.08.32-.03.4.11.06.11.05.25-.04.34l-.81.86,2.28-1.32c.14-.08.32-.03.4.1.07.12.05.26-.05.36l-.69.67,1.97-1.13c.14-.08.32-.02.4.12.06.11.04.25-.05.34l-.75.76,2.11-1.22c.14-.08.32-.03.4.11.06.11.05.25-.04.34l-.84.92,2.38-1.37c.14-.08.32-.03.4.11.06.1.05.23-.02.33l-.88,1.1,1.79-1.03c.14-.08.32-.03.4.11.06.11.05.24-.03.34l-.41.47.05-.03c.14-.07.32-.02.39.12.07.13.03.3-.1.38l-1.59.92c-.14.08-.32.03-.4-.11-.06-.11-.05-.24.03-.34l.41-.47-1.58.91c-.14.08-.32.03-.4-.11-.06-.1-.05-.23.02-.33l.88-1.1-2.66,1.54c-.14.08-.32.03-.4-.11-.06-.11-.05-.25.04-.34l.84-.92-2.38,1.38c-.14.08-.32.02-.4-.12-.06-.11-.04-.25.05-.34l.75-.76-2.11,1.22c-.14.08-.32.03-.4-.1-.07-.12-.05-.26.05-.36l.69-.67-1.97,1.14c-.14.08-.32.03-.4-.11-.06-.11-.05-.25.04-.34l.81-.86-2.28,1.32s-.09.04-.15.04Z"/>
  <path class="cls-1" d="m5.27,23.27c-.16,0-.29-.13-.29-.29,0-.1.05-.19.13-.25l4.56-2.95-5.98,3.45c-.14.08-.32.02-.4-.12-.07-.13-.03-.29.09-.38l7.55-4.98-8.74,5.05c-.14.08-.32.02-.4-.12-.07-.13-.03-.3.1-.38l3.7-2.32-4.07,2.35c-.14.08-.32.02-.4-.12-.07-.13-.03-.3.09-.38l6.31-4.01-6.64,3.83c-.14.08-.32.02-.4-.12-.07-.13-.03-.3.1-.38l2.07-1.28-1.88,1.09c-.14.08-.32.02-.39-.12-.07-.13-.03-.29.09-.38l6.72-4.26-5.53,3.19c-.14.08-.32.03-.4-.11-.08-.13-.04-.3.09-.39l7.94-5.14-7.03,4.06c-.14.08-.32.03-.4-.11-.08-.13-.04-.3.09-.39l8.33-5.47-7.63,4.41c-.14.08-.32.03-.4-.11-.08-.13-.04-.3.09-.39l6.35-4.1-5.83,3.36c-.14.08-.32.03-.4-.11-.08-.13-.04-.31.09-.39l6.39-4.16-5.95,3.43c-.14.08-.32.03-.4-.12-.07-.13-.03-.3.09-.38l1.89-1.19-1.54.89c-.14.08-.32.03-.4-.12-.07-.13-.03-.29.09-.38l6.62-4.41-6.28,3.63c-.14.08-.32.03-.4-.11-.08-.14-.03-.31.1-.39l2.28-1.45-1.98,1.14c-.14.08-.32.04-.4-.1-.08-.14-.04-.31.09-.4l4.61-3.04-4.3,2.49c-.14.08-.32.03-.4-.11-.07-.13-.03-.3.09-.38l3.93-2.6-3.62,2.09c-.14.08-.32.03-.4-.11-.07-.13-.04-.3.09-.38l4.52-3.08-4.09,2.36c-.14.08-.32.04-.4-.1-.08-.13-.04-.3.08-.39l4.4-3.14-3.67,2.12c-.14.09-.32.05-.4-.09s-.05-.32.09-.4l2.54-1.83-1.49.86c-.14.08-.32.04-.4-.1-.08-.13-.05-.29.07-.38l1.64-1.3c-.15-.06-.23-.22-.17-.37.02-.06.07-.12.13-.15l2.66-1.53c.14-.08.32-.03.4.11.07.12.04.28-.07.37l-1.09.86,3.1-1.79c.14-.08.32-.03.4.11.08.13.04.3-.08.38l-2.54,1.83L12.25.47c.14-.08.32-.04.4.1.08.13.04.3-.08.39l-4.4,3.15L13.78.87c.14-.08.32-.03.4.11.07.13.04.3-.09.38l-4.52,3.08,5.32-3.07c.14-.08.32-.03.4.11.07.13.03.3-.09.38l-3.93,2.59,4.45-2.57c.14-.08.32-.04.4.1.08.14.04.31-.09.4l-4.61,3.04,5.06-2.92c.14-.08.32-.02.4.12.07.13.03.3-.09.38l-2.28,1.45,2.49-1.44c.14-.08.32-.03.4.12.07.13.03.29-.09.38l-6.62,4.41,7-4.04c.14-.08.32-.04.4.1.08.14.04.32-.1.4h0l-1.89,1.19,1.95-1.13c.14-.08.32-.03.4.11.08.13.04.31-.09.39l-6.39,4.17,6.53-3.77c.14-.08.32-.04.4.1.08.14.04.32-.1.4h0l-6.34,4.1,6.36-3.67c.14-.08.32-.03.4.11.08.13.04.3-.09.39l-8.33,5.47,8.28-4.78c.14-.08.32-.02.4.12.07.13.03.3-.09.38l-7.95,5.14,7.72-4.46c.14-.08.32-.02.39.12.07.13.03.29-.09.38l-6.72,4.26,6.41-3.7c.14-.07.32-.02.39.12.07.13.03.29-.09.38l-2.06,1.28,1.76-1.02c.14-.08.32-.03.4.11.08.14.04.31-.1.39l-6.31,4.01,6.01-3.47c.14-.08.32-.02.4.12.07.13.03.3-.1.38l-3.7,2.32,3.42-1.97c.14-.08.32-.02.4.12.07.13.03.29-.09.38l-7.55,4.98,7.33-4.23c.14-.08.32-.03.4.11.07.13.03.3-.09.39l-4.56,2.95,4.37-2.52c.14-.08.32-.03.4.11.07.13.03.29-.09.38l-5.78,3.96,5.67-3.27c.14-.08.32-.03.4.11.07.13.03.3-.09.38l-2.05,1.34,1.91-1.1c.14-.08.32-.03.4.12.07.13.03.29-.09.38l-1.89,1.26,1.78-1.03c.14-.08.32-.03.4.12.07.13.04.29-.08.37l-2.93,2.1,2.91-1.68c.14-.08.32-.03.4.11.07.13.04.29-.08.38l-1.81,1.3,1.81-1.04c.14-.08.32-.04.4.1.08.13.04.29-.07.38l-1.75,1.37,1.88-1.09c.14-.08.32-.03.4.11.07.12.04.27-.06.37l-1.23,1.05,1.34-.77c.14-.08.32-.03.4.11.07.12.05.26-.05.35l-.78.76.04-.02c.14-.09.32-.05.4.09.09.14.05.32-.09.4,0,0-.01,0-.02.01l-2.04,1.18c-.14.08-.32.03-.4-.11-.07-.12-.05-.26.05-.35l.78-.76-2.12,1.22c-.13.08-.3.04-.38-.08-.09-.12-.07-.29.05-.39l1.23-1.05-2.64,1.53c-.14.08-.32.03-.4-.11-.07-.13-.04-.29.07-.38l1.75-1.38-3.22,1.86c-.14.08-.32.03-.4-.11-.07-.13-.04-.29.08-.38l1.81-1.31-3.11,1.8c-.14.08-.32.03-.4-.12-.07-.13-.04-.29.08-.37l2.92-2.1-4.48,2.59c-.14.08-.32.03-.4-.12-.07-.13-.03-.29.09-.38l1.89-1.26-3.05,1.76c-.14.08-.32.02-.4-.12-.07-.13-.03-.29.09-.38l2.05-1.34-3.19,1.84c-.14.08-.32.03-.4-.11-.07-.13-.03-.29.09-.38l5.77-3.96-7.72,4.45s-.09.04-.14.04h0Z"/>
  <path class="cls-4" d="m3.68,34.76c-.16,0-.29-.13-.29-.29,0-.1.05-.2.14-.25l1.66-1.04-2.66,1.54c-.14.08-.32.03-.4-.11-.07-.13-.03-.3.09-.38l7.94-5.16-9.11,5.26c-.14.08-.32.03-.4-.11-.08-.13-.04-.31.09-.39l8.74-5.7L.76,33.17c-.14.08-.32.02-.4-.12-.07-.13-.03-.3.1-.38l4.27-2.69-3.97,2.29c-.14.08-.32.03-.4-.11-.08-.13-.04-.3.09-.39l7.87-5.17L.76,30.97c-.14.08-.32.02-.4-.12-.07-.13-.03-.3.09-.38l2.54-1.6-2.24,1.29c-.14.08-.32.03-.4-.11-.08-.13-.04-.3.09-.39l3.85-2.49-3.55,2.05c-.14.08-.32.03-.4-.11-.08-.13-.04-.31.09-.39l4.18-2.77-3.84,2.21c-.14.08-.32.02-.4-.12-.07-.13-.03-.29.09-.38l3.58-2.44-3.09,1.78c-.14.08-.32.03-.4-.11-.08-.13-.04-.3.09-.39l1.55-1.05-.93.54c-.14.08-.32.03-.4-.11-.07-.13-.04-.29.07-.38l2.79-2.19-1.52.88c-.14.08-.32.03-.4-.11-.07-.13-.04-.29.08-.38l1.36-1.04s-.06-.05-.08-.09c-.08-.14-.03-.32.1-.4,0,0,0,0,0,0l2.5-1.44c.14-.08.32-.03.4.11.07.13.04.29-.08.37l-.25.19,1.17-.68c.14-.08.32-.03.4.11.07.13.04.29-.07.38l-2.79,2.19,4.63-2.67c.14-.08.32-.03.4.11.08.13.04.3-.09.39l-1.56,1.05,2.67-1.54c.14-.08.32-.03.4.11.07.13.04.3-.09.38l-3.58,2.44,5.07-2.93c.14-.08.32-.03.4.11.08.13.04.31-.09.39l-4.18,2.77,5.66-3.27c.14-.08.32-.03.4.11.08.13.04.3-.09.39l-3.85,2.49,5.17-2.98c.14-.08.32-.04.4.1.08.14.04.32-.1.4h0l-2.55,1.61,3.21-1.85c.14-.08.32-.02.4.12.07.13.03.29-.09.38l-7.87,5.17,8.69-5.02c.14-.08.32-.02.4.12.07.13.03.3-.1.38l-4.26,2.68,4.63-2.67c.14-.08.32-.03.4.11.08.13.04.31-.09.39l-8.75,5.7,9.29-5.36c.14-.08.32-.02.4.12.07.13.03.29-.09.38l-7.94,5.16,8.3-4.79c.14-.08.32-.04.4.1s.04.32-.1.4l-1.66,1.04,1.69-.98c.14-.08.32-.03.4.11.08.13.04.31-.09.39l-6.84,4.53,7-4.04c.14-.08.32-.02.4.12.07.13.03.29-.09.38l-4.31,2.81,4.28-2.47c.14-.08.32-.04.4.1.08.13.04.31-.09.39l-5.01,3.4,4.91-2.84c.14-.08.32-.03.4.12.07.13.03.3-.09.38l-.69.44.44-.26c.14-.09.32-.04.4.09s.04.32-.09.4l-2.11,1.42,1.82-1.05c.14-.08.32-.03.4.11.07.13.04.29-.08.38l-3.11,2.3,2.79-1.61c.14-.08.32-.03.4.11.07.12.04.28-.07.37l-2.18,1.74,1.85-1.07c.14-.08.32-.03.4.11.06.11.04.25-.05.35l-1.42,1.41,1.07-.62c.12-.07.26-.05.36.05.09.1.11.25.03.36l-.48.73c.13-.03.26.03.32.14.08.14.03.32-.11.4l-.97.56c-.12.07-.26.05-.36-.05-.09-.1-.11-.25-.03-.36l.47-.71-1.95,1.13c-.14.08-.32.03-.4-.11-.06-.11-.04-.25.05-.35l1.42-1.41-3.25,1.87c-.14.08-.32.03-.4-.11-.07-.12-.04-.28.07-.37l2.18-1.74-3.86,2.22c-.14.08-.32.03-.4-.11-.07-.13-.04-.29.08-.38l3.1-2.3-4.83,2.79c-.14.08-.32.03-.4-.11-.07-.13-.03-.3.09-.38l2.11-1.42-3.31,1.91c-.14.08-.32.02-.4-.12-.07-.13-.03-.3.09-.38l.69-.45-1.64.95c-.14.08-.32.03-.4-.12-.07-.13-.03-.29.09-.38l5.01-3.4-6.74,3.89c-.14.08-.32.03-.4-.11-.07-.13-.03-.3.09-.38l4.31-2.81-5.72,3.3c-.14.08-.32.03-.4-.11-.07-.13-.03-.3.09-.38l6.84-4.53-8.71,5.03s-.09.04-.15.04h0Z"/>
  <path class="cls-3" d="m8.49,25.7c-.16,0-.29-.13-.29-.29,0-.09.05-.18.12-.24l1.49-1.06-1.85,1.07c-.14.08-.32.03-.4-.11-.07-.13-.04-.3.09-.38l.25-.17-.21.12c-.14.08-.32.04-.4-.1-.07-.13-.05-.29.07-.38l1.97-1.61-2.08,1.2c-.14.08-.32.04-.4-.1-.07-.12-.05-.28.05-.37l1.38-1.29-1.48.86c-.14.08-.32.03-.4-.11-.07-.12-.05-.26.05-.35l.51-.5-.49.29c-.14.08-.32.03-.4-.11-.04-.06-.05-.14-.03-.21l.1-.48-.05.03c-.14.09-.32.05-.4-.09-.09-.14-.05-.32.09-.4,0,0,.01,0,.02-.01l.62-.36c.14-.08.32-.03.4.11.04.06.05.14.03.21l-.1.48,1.92-1.11c.14-.08.32-.03.4.11.07.12.05.26-.05.35l-.51.5,1.66-.96c.14-.08.32-.04.4.1.07.12.05.28-.05.37l-1.38,1.29,3.05-1.76c.14-.08.32-.03.4.11.07.12.04.28-.07.37l-1.97,1.61,3.55-2.05c.14-.08.32-.03.4.11.08.13.04.3-.09.39l-.25.17.89-.52c.14-.08.32-.03.4.11.07.13.04.29-.08.38l-1.49,1.06,2.2-1.27c.14-.08.32-.03.4.11.07.12.04.28-.07.37l-1.33,1.07.6-.35c.14-.08.32-.02.4.12.06.12.04.26-.05.35l-1.01.91c.15-.07.32,0,.39.14.05.1.03.23-.04.31l-.76.93s.08.06.1.11c.08.14.03.32-.11.4l-.82.47c-.14.08-.32.03-.4-.11-.06-.1-.05-.24.03-.33l.5-.61-1,.58c-.14.08-.32.02-.4-.12-.06-.12-.04-.26.05-.35l1.01-.91-1.51.88c-.14.08-.32.03-.4-.11-.07-.13-.04-.28.07-.37l1.33-1.07-4.4,2.54s-.1.04-.15.04h0Z"/>
  <path class="cls-3" d="m11.05,24.13c-.16,0-.29-.13-.29-.29,0-.06.02-.13.06-.18l.1-.12-.07.04c-.14.08-.32.03-.4-.1-.07-.12-.05-.26.05-.36l.69-.67-.8.46c-.14.08-.32.03-.4-.11-.06-.11-.04-.26.05-.35l1.57-1.55-1.84,1.06c-.14.08-.32.03-.4-.11-.07-.12-.04-.27.06-.36l.52-.45-.58.33c-.12.07-.27.05-.37-.06-.09-.11-.1-.26-.01-.37l.5-.63-.55.31c-.14.08-.32.03-.4-.11-.04-.07-.05-.15-.03-.22l.15-.55c-.05-.03-.1-.07-.12-.12-.08-.14-.03-.32.11-.4,0,0,0,0,0,0l.29-.17c.14-.08.32-.03.4.11.04.07.05.15.03.23l-.1.37,1.23-.71c.14-.08.32-.03.4.11.06.1.05.23-.02.33l-.49.63,1.86-1.07c.14-.08.32-.03.4.11.07.12.04.27-.06.36l-.52.45,1.23-.71c.14-.08.32-.03.4.11.06.11.04.26-.05.35l-1.57,1.55.85-.49c.14-.08.32-.03.4.1.07.12.05.26-.05.36l-1.07,1.04s.07.04.09.07c.09.11.1.26,0,.37l-.71.91c.03.13-.02.26-.14.32l-.26.15s-.1.04-.15.04h0Z"/>
  <path class="cls-3" d="m10.23,20.07c-.16,0-.29-.13-.29-.29,0-.1.05-.19.13-.24l.15-.1-.64.37c-.14.08-.32.04-.4-.1-.08-.13-.04-.3.08-.39l4.35-3.09-5.17,2.98c-.14.08-.32.03-.4-.11-.07-.13-.03-.3.09-.38l2.93-1.94-3.29,1.9c-.14.08-.32.03-.4-.11-.08-.13-.04-.31.09-.39l3.35-2.21-3.64,2.1c-.14.08-.32.02-.4-.12-.07-.13-.03-.29.09-.38l2.97-1.95-3.15,1.82c-.14.08-.32.03-.4-.11-.08-.13-.04-.3.09-.39l4.31-2.92-4.53,2.62c-.14.08-.32.03-.4-.11-.08-.13-.04-.3.09-.39l4.97-3.39-5.15,2.98c-.14.08-.32.03-.4-.11-.08-.13-.04-.3.09-.39l4.22-2.83-4.29,2.48c-.14.08-.32.03-.4-.11-.07-.13-.03-.3.09-.38l4.27-2.87-4.3,2.48c-.14.08-.32.04-.4-.1-.08-.13-.04-.31.09-.39l4.11-2.78-4.75,2.74c-.14.08-.32.03-.4-.11-.07-.13-.04-.29.08-.38l2.66-1.85-2.99,1.72c-.14.08-.32.03-.4-.11-.08-.13-.04-.3.09-.39l1.15-.8-1.07.62c-.14.08-.32.04-.4-.1-.07-.13-.04-.29.07-.38l2.1-1.68-1.3.75c-.14.08-.32.03-.4-.11-.07-.12-.04-.27.06-.37l1.7-1.47s-.02-.03-.03-.04c-.08-.14-.03-.32.11-.4l1.33-.77c.14-.08.32-.03.4.11.07.12.04.27-.06.37l-.73.63,1.91-1.1c.14-.08.32-.04.4.1.07.13.04.29-.07.38l-2.1,1.69,3.9-2.25c.14-.08.32-.03.4.11.07.13.04.29-.08.38l-1.14.79,2.81-1.63c.14-.08.32-.04.4.1.08.13.04.3-.09.39l-2.66,1.85,5.94-3.43c.14-.08.32-.03.4.11.08.13.04.3-.09.39l-4.11,2.78,4.56-2.63c.14-.08.32-.03.4.11.08.13.04.3-.09.39l-4.27,2.87,4.51-2.6c.14-.08.32-.03.4.11.07.13.04.3-.09.38l-4.22,2.83,4.25-2.45c.14-.08.32-.03.4.11.08.13.04.3-.09.39l-4.97,3.39,4.82-2.78c.14-.08.32-.03.4.11.08.13.04.3-.09.39l-4.31,2.92,4.99-2.88c.14-.08.32-.03.4.11.08.13.04.3-.09.39l-2.97,1.95,3.21-1.85c.14-.08.32-.02.4.12.07.13.03.29-.09.38l-3.35,2.22,3.26-1.88c.14-.08.32-.02.4.12.07.13.03.29-.09.38l-2.93,1.93,2.15-1.24c.14-.08.32-.03.4.11.07.13.04.29-.08.38l-4.35,3.1,2.04-1.18c.14-.08.32-.03.4.11.07.13.04.3-.09.38l-.67.45c.16,0,.28.15.27.31,0,.08-.04.15-.1.2l-1.86,1.64c.16.01.28.16.26.32,0,.09-.06.18-.14.23l-2.16,1.25c-.14.08-.32.03-.4-.11-.07-.12-.04-.27.06-.37l1.66-1.47-3.54,2.04s-.09.04-.14.04h0Z"/>
  <path class="cls-2" d="m1.42,34.64c6.2.03,12.41,0,18.62,0,3.11.1,1.77-3.81,2.03-5.78h11.3c.74,0,1.52-.16,1.55-1.05.03-.56.17-1.56-.58-1.68-.59-2.41,1.67-11.46-1.79-11.08-4.57-.81-1.91,8.15-2.56,11.04h-1.49c-.5-2.12,1.49-7.09-1.87-7.01-3.94-.44-2.09,4.64-2.48,7.02h-1.48c-.29-1.81.73-4.32-.69-5.7-.54-.82-1-1.7-1.36-2.61l2.44-2.44c3.18,4.8,5.99-1.41,8.7-3.45.07,1.32,1.93,1.69,2.75.76.74-1.48.57-3.74.15-5.32-1.36-1.13-3.62-.49-5.28-.51-1.68.44-1.38,2.93.38,2.84l-3.97,3.96c-2.42-3.19-3.8-1.71-5.91.66C22.33-3.66,1.51-4.21,2.51,11.49c.78,7.09-5.18,9.64-.12,11.67-2.04,1.26-3.68,11.01-.98,11.49h0Zm32.65-6.22c-3.98,0-8.02,0-12.02,0-.03-.64-.12-1.28-.27-1.9h.09c.19.14.45.14.64,0,2.38.36,10.38-.75,11.55.48,0,.4.05,1.05,0,1.42h0Zm-3.25-12.15c0-.54.36-1.03.94-.91,3.28-.72,1.15,8.52,1.72,10.72-.89,0-1.77-.01-2.66,0,0-3.27,0-6.53,0-9.8h0Zm-5.84,4.13c-.04-.46.29-.86.75-.91.1-.01.21,0,.31.03,3.03-.11,1.1,4.64,1.6,6.56h-2.66c0-1.89-.06-3.79,0-5.68h0Zm-3.31,5.68c-.34-1.14-.93-2.19-1.75-3.06.72-.29,1.36-.76,1.85-1.36.04,1.47,0,2.94.02,4.42h-.12Zm-.7-4.5c-.4.45-.89.8-1.45,1.04-.79-.75-1.71-1.33-2.72-1.73-.93-.37-1.92-.57-2.92-.58.02-.34-.01-.68,0-1.02,2.04-1.24,3.3-3.47,4.02-5.69.37-.08.71-.23,1.02-.44.2,2.36.53,4.89,1.87,6.9.37.48.59,1,.18,1.54h0ZM4.52,10.17c1.56-.52-.29-2.6,3.82-2.11,1.84-.03,3.78-.19,5.43-1.08.58-.44,1.25-.88,1.86-.27.99.83,1.54,2.06,1.48,3.35,0,.08.12.11.26.11,1.62.1,2.14,2.97.33,3.07-.16,0-.54.07-.59.28-1.99,8.19-10.02,7.77-12.01-.18-1.69-.06-2.61-2.93-.6-3.17Zm8.51,10.36l-1.86,2.78c-.66-1-1.34-2-2-3,.07.02,0-.38.03-.51,1.25.42,2.6.38,3.83-.1v.83Zm-4.64.11c.74,1.12,1.49,2.23,2.23,3.35-.73.22-1.62,1.47-2.31,1-.69-1.31-1.33-2.66-2-3.98.67-.23,1.37-.35,2.08-.36h0Zm4.3,1.56l1.03-1.54c.76.06,1.5.22,2.21.49-.65,1.29-1.29,2.6-1.94,3.88-.82.19-1.62-.89-2.41-1.17l1.1-1.65Zm9.77-9.57c1.12-.95,2.03,1.15,2.88,1.7,2.12-.39,3.66-3.5,5.52-4.84.25-.25-.1-.41-.31-.41-.83.2-1.82-.45-1.36-1.37.77-.81,2.23-.2,3.25-.38,2.56-.49,1.52,3.38,1.52,4.87-.76,1.12-1.6-.45-1.38-1.22-.85-1.01-3.9,3.47-4.96,4.1-2.04,2.52-2.25,1.42-4.13-.44-1.24-.27-2.1,1.79-3.11,2.43-.17-.65-.31-1.3-.4-1.97.82-.83,1.61-1.7,2.48-2.48ZM5.15,3.68c4.95-6.16,14.85-1.09,13.73,6.43-.28-.18-.6-.29-.93-.34-.54-4.36-2.56-4.43-5.91-2.52-2.49,1.01-7.03-1.03-7.76,2.58-.33.07-.64.21-.92.4-.11-2.33.24-4.7,1.78-6.54h0ZM1.05,20.59c1.4-2.19,2.17-4.72,2.25-7.32.3.2.63.33.99.38.63,2.23,2.01,4.63,4.07,5.79,0,.31,0,.6,0,.91-.77.06-1.52.21-2.26.45-.25-.06-.65.09-.68.26-.92.38-1.76.92-2.5,1.58-.84-.39-2.05-1.07-1.86-2.05h0Zm.34,5.52c.38-1.2,1.04-2.29,1.91-3.2.63-.66,1.38-1.2,2.2-1.6,1.59,2.93,1.74,6.03,5.51,3,3.52,2.95,4.17.06,5.58-2.9,4.57,1.97,4.86,7.19,4.62,11.51.33,2.17-2.2,1.21-3.5,1.4-5.35-.1-10.76.2-16.08-.11-1.32-1.68-.6-5.99-.24-8.11h0Z"/>
</svg>