<?xml version="1.0" encoding="UTF-8"?>
<svg id="Layer_1" data-name="Layer 1" xmlns="http://www.w3.org/2000/svg" viewBox="0 0 35 35">
  <defs>
    <style>
      .cls-1 {
        fill: #f47721;
      }

      .cls-1, .cls-2, .cls-3 {
        stroke-width: 0px;
      }

      .cls-3 {
        fill: #c1dbf0;
      }
    </style>
  </defs>
  <path class="cls-3" d="m.37,5.44c-.16,0-.29-.13-.29-.3,0-.1.05-.19.13-.24l.23-.16c-.12.03-.24-.02-.31-.12-.09-.12-.07-.29.05-.39l2.3-1.99-1.96,1.13c-.14.08-.32.03-.4-.11-.07-.13-.04-.28.07-.37l.24-.19c-.11.02-.21-.02-.29-.1-.09-.11-.1-.27,0-.38l.62-.78c-.16.03-.31-.08-.34-.25-.02-.12.04-.24.14-.3L1.77.21c.14-.08.32-.03.4.11.06.11.05.24-.02.33l-.58.74L3.62.2c.14-.08.32-.03.4.11.07.13.04.28-.07.37l-.16.13,1.07-.62c.14-.08.32-.03.4.11.07.12.04.27-.06.37l-2.3,1.99L7.17.2c.14-.08.32-.03.4.11.07.13.04.3-.09.39l-.09.06.97-.56c.14-.08.32-.03.4.12.07.13.04.29-.08.38l-1.39.98L9.86.2c.14-.08.32-.03.4.12.07.13.04.29-.08.38l-1.23.86L11.3.2c.14-.08.32-.03.4.11.07.13.04.29-.08.38l-1.82,1.32L12.93.2c.14-.08.32-.03.4.11.07.13.04.28-.07.37l-2.83,2.26L15.2.2c.14-.08.32-.03.4.11.07.12.04.28-.07.37l-2.85,2.28L17.48.2c.14-.08.32-.03.4.11.07.12.04.28-.07.37l-2.84,2.28L19.76.2c.14-.08.32-.03.4.11.07.13.04.29-.07.38l-2.74,2.16L21.93.2c.14-.08.32-.03.4.12.07.13.03.29-.09.38l-.59.4,1.56-.9c.14-.08.32-.03.4.11.07.13.04.29-.07.38l-2.71,2.12L25.37.2c.14-.08.32-.03.4.12.07.13.04.29-.08.38l-1.03.71,2.1-1.21c.14-.08.32-.03.4.12.07.13.03.29-.09.38l-.56.39,1.53-.88c.14-.08.32-.03.4.11.07.13.04.29-.08.38l-1.89,1.37,3.22-1.86c.14-.08.32-.03.4.11.07.13.04.29-.08.38l-2.58,1.98L31.74.2c.14-.08.32-.03.4.11.07.13.04.3-.08.39l-1.79,1.29,2.93-1.69c.14-.08.32-.03.4.11.08.13.04.3-.08.39l-1.57,1.13,1.99-1.15c.14-.09.32-.05.41.08s.05.32-.08.41h0l-1.93,1.51,2.02-1.17c.14-.08.32-.03.4.11.07.12.04.27-.06.37l-1.45,1.26,1.16-.67c.14-.08.32-.03.4.11.07.12.05.27-.06.37l-.37.33.03-.02c.14-.08.32-.03.4.11.06.11.05.24-.03.34l-.21.26c.16,0,.29.14.29.3,0,.1-.06.2-.15.25l-1.18.68c-.14.08-.32.03-.4-.11-.06-.11-.05-.24.03-.34l.13-.16-1.05.6c-.14.08-.32.02-.4-.12-.06-.12-.04-.26.05-.35l.37-.34-1.4.81c-.14.08-.32.03-.4-.11-.07-.12-.04-.28.06-.37l1.45-1.26-3.01,1.74c-.14.08-.32.03-.4-.11-.07-.13-.04-.29.07-.38l1.93-1.51-3.46,2c-.14.08-.32.03-.4-.11-.08-.13-.04-.3.08-.39l1.57-1.13-2.82,1.63c-.14.08-.32.03-.4-.11-.07-.13-.04-.3.08-.39l1.79-1.3-3.1,1.79c-.14.08-.32.04-.4-.11-.08-.13-.04-.29.08-.38l2.58-1.98-4.29,2.48c-.14.08-.32.03-.4-.11-.07-.13-.04-.29.08-.38l1.89-1.37-3.23,1.86c-.14.08-.32.04-.4-.1-.08-.13-.04-.31.09-.39l.56-.39-1.53.88c-.14.08-.32.03-.4-.11-.08-.13-.04-.3.09-.39l1.02-.71-2.1,1.21c-.14.08-.32.03-.4-.11-.07-.13-.04-.29.07-.38l2.71-2.12-4.53,2.61c-.14.08-.32.03-.4-.11-.08-.13-.04-.3.09-.39l.59-.4-1.56.9c-.14.08-.32.03-.4-.11-.07-.13-.04-.28.07-.37l2.74-2.16-4.59,2.65c-.14.08-.32.03-.4-.11-.07-.12-.04-.28.07-.37l2.84-2.28-4.79,2.76c-.14.08-.32.03-.4-.11-.07-.13-.04-.29.07-.38l2.85-2.28-4.8,2.77c-.14.08-.32.03-.4-.11-.07-.13-.04-.29.07-.38l2.83-2.26-4.77,2.75c-.14.08-.32.03-.4-.11-.07-.13-.04-.3.08-.39l1.83-1.32-3.14,1.81c-.14.08-.32.03-.4-.11-.07-.13-.04-.3.09-.39l1.23-.86-2.35,1.36c-.14.08-.32.03-.4-.11-.07-.13-.04-.3.08-.38l1.39-.98-2.57,1.48s-.1.04-.15.04h0Z"/>
  <path class="cls-1" d="m17.74,30.78c-.16,0-.29-.13-.29-.29,0-.1.05-.19.13-.25l1.47-.97-2.48,1.43c-.14.08-.32.03-.4-.11-.08-.14-.04-.31.09-.39l1.35-.87-2.11,1.22c-.14.08-.32.03-.4-.11-.08-.13-.04-.31.09-.39l5.13-3.43-6.18,3.57c-.14.08-.32.04-.4-.1-.08-.14-.04-.31.09-.4l6.62-4.43-7.59,4.39c-.14.08-.32.03-.4-.11-.08-.13-.04-.3.09-.39l7.59-5.05-8.43,4.87c-.14.08-.32.03-.4-.11-.08-.14-.04-.31.1-.39l5.08-3.24-5.53,3.19c-.14.08-.32.02-.4-.12-.07-.13-.03-.3.09-.38l7-4.52-7.48,4.32c-.14.08-.32.04-.4-.1s-.04-.32.1-.4l2.36-1.47-2.54,1.47c-.14.08-.32.04-.4-.1s-.04-.32.1-.4l1.07-.66-1.18.68c-.14.08-.32.03-.4-.12-.07-.13-.03-.3.09-.39l7.6-4.9-7.89,4.56c-.14.08-.32.03-.4-.11-.08-.14-.03-.31.1-.39l4.35-2.73-4.44,2.56c-.14.08-.32.03-.4-.11-.07-.13-.03-.3.09-.39l7.71-4.97-7.86,4.54c-.14.08-.32.03-.4-.12-.07-.13-.03-.3.09-.39l8.62-5.64-8.7,5.02c-.14.08-.32.02-.4-.12-.07-.13-.03-.3.09-.38l4.34-2.74-4.23,2.44c-.14.08-.32.03-.4-.11-.08-.13-.04-.31.09-.39l7.89-5.18-7.76,4.48c-.14.08-.32.02-.4-.12-.07-.13-.03-.3.09-.38l4.15-2.64-3.89,2.25c-.14.08-.32.03-.4-.11-.08-.14-.04-.31.09-.39l6.86-4.55-6.48,3.74c-.14.08-.32.02-.4-.12-.07-.13-.03-.3.09-.38l1.09-.69-.66.38c-.14.08-.32.03-.4-.12-.07-.13-.03-.3.09-.38l5.45-3.68-4.74,2.74c-.14.08-.32.03-.4-.11-.08-.13-.03-.31.1-.39l.58-.37c-.16.03-.31-.08-.34-.24-.02-.11.03-.22.11-.29l4.07-3.02-2.5,1.44c-.14.08-.32.03-.4-.11-.07-.13-.04-.29.08-.38l1.68-1.24c-.13-.09-.17-.28-.07-.41.02-.04.06-.07.09-.09l3.01-1.74c.14-.08.32-.03.4.11.07.13.04.29-.08.38l-.46.34,2.44-1.41c.14-.08.32-.03.4.11.07.13.04.29-.08.38l-4.07,3.02,6.16-3.56c.14-.08.32-.03.4.12.07.13.03.3-.09.39l-.25.16.91-.53c.14-.08.32-.03.4.11.08.13.04.3-.09.39l-5.45,3.68,6.58-3.8c.14-.08.32-.03.4.12.07.13.03.3-.1.39l-1.09.69,1.56-.9c.14-.08.32-.03.4.12.07.13.03.3-.09.39l-6.86,4.55,7.72-4.46c.14-.08.32-.04.41.1s.04.32-.1.41l-4.15,2.64,4.6-2.65c.14-.08.32-.03.4.11.07.13.03.3-.09.39l-7.89,5.18,8.53-4.93c.14-.08.32-.02.4.12.07.13.03.3-.09.38l-4.34,2.74,4.63-2.67c.14-.08.32-.02.4.12.07.13.03.29-.09.38l-8.61,5.64,9.08-5.24c.14-.09.32-.04.41.1s.04.32-.1.41l-7.71,4.97,7.99-4.61c.14-.08.32-.03.4.11.08.14.03.31-.1.39l-4.35,2.73,4.43-2.56c.14-.08.32-.02.4.12.07.13.03.29-.09.38l-7.61,4.9,7.73-4.46c.14-.08.32-.04.4.1.08.14.04.32-.1.4l-1.07.66.99-.57c.14-.08.32-.03.4.11.08.14.04.31-.1.4l-2.35,1.46,2.25-1.3c.14-.08.32-.02.4.12.07.13.03.3-.09.38l-7.01,4.53,6.92-3.99c.14-.08.32-.04.41.1s.04.32-.1.41l-5.08,3.24,4.88-2.82c.14-.08.32-.03.4.12.07.13.03.3-.09.38l-7.58,5.04,7.28-4.2c.14-.09.32-.04.41.09s.04.32-.09.41l-6.62,4.43,6.13-3.54c.14-.08.32-.02.4.12.07.13.03.29-.09.38l-5.13,3.44,4.46-2.58c.14-.09.32-.04.41.1s.04.32-.1.41l-1.35.87.65-.37c.14-.09.32-.04.41.1s.04.32-.1.41l-1.47.97.54-.31c.14-.08.32-.03.4.11.07.13.04.29-.08.38l-2.39,1.81.4-.23c.14-.09.32-.05.41.09.09.14.05.32-.09.41,0,0-.01,0-.02.01l-4.48,2.59c-.14.08-.32.03-.4-.11-.07-.13-.04-.29.08-.38l2.39-1.81-4.67,2.7s-.1.04-.15.04h0Z"/>
  <g>
    <path class="cls-2" d="m34.9,11.75c-.13-14.34,2.14-11.27-11.93-11.59H4.76C1.9.16,0,.24,0,3.59v27.76c-.02,1.69.03,3.23,2.09,3.55h29.41c1.25,0,2.63.09,3.25-1.29.46-1.02.16-2.66.16-3.72V11.75ZM.7,2.25C1.25.34,2.92.7,4.36.7h23.6c3.89-.22,6.78-.91,6.24,4.15H.64c-.12-.87-.1-1.74.06-2.6h0Zm30.86,32.12H2.22c-2.06-.44-1.52-3.1-1.52-4.47-.02-8.15.03-16.3-.02-24.45h33.52v21.96c0,2.55,1.03,6.96-2.64,6.96Z"/>
    <path class="cls-2" d="m2.65,3.12h.59c.33,0,.54-.65.13-.65h-.59c-.33,0-.54.65-.13.65Z"/>
    <path class="cls-2" d="m5.58,3.13c.33-.02.85.13.94-.32.03-.14-.02-.36-.2-.36-.33.02-.85-.13-.94.32-.03.14.02.36.2.36Z"/>
    <path class="cls-2" d="m8.57,3.14h.59c.34,0,.45-.69.07-.69h-.59c-.34,0-.45.69-.07.69Z"/>
    <path class="cls-2" d="m28.57,3.09h3.54c.34,0,.61-.6.17-.6h-3.54c-.34,0-.61.6-.17.6Z"/>
    <path class="cls-2" d="m12.81,16.75c.8.05,1.41.72,1.4,1.52.04.4.63.04.6-.29-.11-1.14-1.13-1.97-2.27-1.86-1.14.11-1.97,1.13-1.86,2.27.06.61.39,1.16.9,1.51.6.39,1.35.21,1.93.61.63.42.81,1.28.38,1.91-.27.41-.74.64-1.23.61-.8-.05-1.41-.72-1.4-1.52-.04-.4-.63-.04-.6.29.11,1.14,1.13,1.97,2.27,1.86,1.14-.11,1.97-1.13,1.86-2.27-.06-.61-.39-1.16-.9-1.51-.6-.39-1.35-.21-1.93-.61-.63-.42-.81-1.28-.38-1.91.27-.41.74-.64,1.23-.61Z"/>
    <path class="cls-2" d="m28.39,20.23h1.36c.34,0,.56-.67.19-.67h-1.55c-.29-5.73-4.89-10.29-10.62-10.53v-1.58c0-.44-.61-.2-.61.14v1.44c-5.76.17-10.41,4.77-10.64,10.53h-1.45c-.38,0-.31.7.03.7h1.43c.29,5.72,4.88,10.27,10.6,10.52v1.47c0,.34.69.48.69.1v-1.56c5.83-.15,10.24-4.82,10.59-10.54Zm-21.19.01h1.42c.38,0,.31-.7-.03-.7h-1.39c.2-5.29,4.58-9.84,9.94-9.97v1.54c0,.44.61.2.61-.14v-1.42c5.46.13,9.6,4.6,9.94,10h-1.3c-.34,0-.56.67-.19.67h1.49c-.35,5.28-4.4,9.82-9.89,9.98v-1.43c0-.34-.69-.48-.69-.1v1.53c-5.4-.23-9.72-4.58-9.91-9.98h0Z"/>
    <path class="cls-2" d="m5.08,17.06c1.17-4.67,4.83-8.32,9.51-9.46.34-.09.16-.77-.18-.68-4.88,1.21-8.68,5.03-9.87,9.92-.09.36.42.68.53.23Z"/>
    <path class="cls-2" d="m14.64,32.2c-4.71-1.15-8.39-4.82-9.56-9.52-.11-.43-.63-.02-.54.31,1.19,4.85,4.97,8.65,9.82,9.86.34.09.61-.57.28-.65h0Z"/>
    <path class="cls-2" d="m29.84,22.66c-1.16,4.71-4.83,8.38-9.54,9.54-.34.09-.14.77.2.68,4.85-1.2,8.64-4.99,9.84-9.84.08-.32-.4-.79-.5-.37h0Z"/>
    <path class="cls-2" d="m20.48,6.91c-.34-.09-.49.6-.15.69,4.68,1.15,8.34,4.79,9.5,9.47.11.45.61.1.52-.25-1.19-4.88-5-8.7-9.88-9.91Z"/>
    <path class="cls-2" d="m19.17,23.7c.4,0,.57-.53.11-.53-.69,0-1.85.27-2.06-.52-.11-.81-.11-1.63,0-2.44h1.36c.34,0,.57-.61.13-.61h-1.49c-.02-1.91-.69-3.38,1.97-2.96.4,0,.57-.54.11-.54-.73,0-2.24-.3-2.67.51-.41.77-.09,2.26-.09,3.08-.02,2.52-.89,4.54,2.66,4.03Z"/>
    <path class="cls-2" d="m22.37,23.75c2.14-.17,1.89-2.35,1.88-3.93,0-1.36.34-3.81-1.72-3.79-2.08.03-1.84,2.37-1.84,3.78s-.39,3.93,1.68,3.93Zm-.54-6.53c1.83-1.85,1.8,1.45,1.8,2.46,0,.95.42,3.2-1.1,3.43-1.56-.03-1.23-2.01-1.23-3v-1.59c0-.74-.08-.68.54-1.3h0Z"/>
  </g>
</svg>