<?xml version="1.0" encoding="UTF-8"?>
<svg id="Layer_1" data-name="Layer 1" xmlns="http://www.w3.org/2000/svg" viewBox="0 0 35 35">
  <defs>
    <style>
      .cls-1 {
        fill: #f47721;
      }

      .cls-1, .cls-2, .cls-3, .cls-4 {
        stroke-width: 0px;
      }

      .cls-3 {
        fill: #fff;
      }

      .cls-4 {
        fill: #c1dbf0;
      }
    </style>
  </defs>
  <path class="cls-3" d="m4.8,34.92c-.16,0-.3-.13-.3-.29,0-.1.05-.2.14-.25l1.99-1.19-2.95,1.7c-.14.08-.32.02-.4-.12-.07-.13-.03-.3.1-.38l6.92-4.19-8.12,4.69c-.14.08-.32.04-.4-.1-.08-.14-.04-.32.1-.4l12.39-7.57-13.16,7.6c-.14.08-.32.02-.4-.12-.07-.13-.03-.3.1-.39l16.38-10.11L.58,33.37c-.14.08-.32.03-.4-.11-.08-.14-.03-.31.1-.39l7.85-4.74-7.57,4.37c-.15.07-.32,0-.39-.14-.06-.13-.02-.28.09-.36l1.21-.72-.91.52c-.14.08-.32.04-.4-.11-.08-.14-.04-.32.11-.4l1.59-.95-1.29.74c-.14.08-.32.02-.4-.13-.07-.13-.03-.3.1-.38l12.72-7.75L.56,29.99c-.14.08-.32.02-.4-.12-.07-.13-.03-.3.1-.39l14.13-8.64L.56,28.83c-.14.08-.32.03-.4-.11-.08-.14-.03-.31.1-.4l13.06-7.96L.56,27.73c-.14.08-.32.02-.4-.12-.07-.13-.03-.3.1-.38l9.69-5.86L.56,26.78c-.14.08-.32.02-.4-.12-.07-.13-.03-.3.1-.39l14.41-8.81L.56,25.6c-.14.08-.32.02-.4-.12-.07-.13-.03-.3.1-.38l9.45-5.72L.56,24.66c-.14.08-.32.02-.4-.12-.07-.13-.03-.3.1-.38l14.38-8.85L.56,23.43c-.14.08-.32.02-.4-.12-.07-.13-.03-.3.1-.38l13.86-8.59L.56,22.16c-.14.08-.32.02-.4-.12-.07-.13-.03-.3.1-.38l4.94-3-4.64,2.68c-.14.08-.32.02-.4-.12-.07-.14-.03-.31.1-.39l4.69-2.85-4.39,2.54c-.14.08-.32.02-.4-.12-.07-.13-.03-.3.1-.39l8.94-5.53L.56,19.46c-.14.08-.32.03-.4-.12-.07-.13-.03-.3.1-.39l11.14-7.07L.56,18.15c-.14.08-.32.02-.4-.12-.07-.13-.03-.3.1-.38l7.13-4.46-6.83,3.94c-.14.08-.32.04-.4-.1-.08-.14-.04-.32.1-.4l7.03-4.44-6.72,3.88c-.14.08-.32.02-.4-.12-.07-.13-.03-.3.09-.38l7.44-4.81L.56,14.87c-.14.08-.32.03-.4-.11-.08-.13-.04-.3.09-.39l7.37-4.91L.56,13.54c-.14.08-.32.03-.4-.11-.08-.14-.04-.31.1-.39l2.17-1.38-1.87,1.08c-.15.07-.32.01-.39-.13-.06-.13-.03-.28.08-.36l4.44-2.97L.56,11.64c-.14.08-.32.02-.4-.12-.07-.13-.03-.3.09-.38l.81-.53-.5.29c-.14.08-.32.03-.4-.11-.07-.13-.03-.3.09-.39l.87-.57-.56.32c-.14.08-.32.03-.4-.11-.08-.13-.04-.3.09-.39l.41-.28-.1.06c-.14.08-.32.03-.4-.11-.07-.12-.04-.28.07-.37l2.68-2.14-2.35,1.36c-.14.08-.32.03-.4-.11-.07-.12-.04-.28.07-.37l1.1-.88-.77.44c-.14.08-.32.03-.4-.11-.07-.11-.05-.25.04-.35l.91-.99-.55.32c-.14.08-.32.03-.4-.11-.06-.1-.05-.22.01-.31l.31-.45c-.06-.03-.1-.07-.13-.12-.08-.14-.03-.32.11-.4,0,0,0,0,0,0l.7-.4c.14-.08.32-.03.4.11.06.1.05.22-.01.32l-.15.22,1.11-.64c.14-.08.32-.03.4.11.06.11.05.25-.04.35l-.91.98,2.49-1.44c.14-.08.32-.03.4.11.07.12.04.28-.07.37l-1.1.87,2.36-1.36c.14-.08.32-.03.4.11.07.12.04.28-.07.37l-2.68,2.14,4.54-2.62c.14-.08.32-.03.4.12.07.13.03.3-.09.38l-.41.27,1.34-.77c.14-.08.32-.03.4.11.07.13.03.3-.09.39l-.87.57,1.86-1.07c.14-.08.32-.02.4.12.07.13.03.3-.09.38l-.82.53,1.79-1.03c.14-.08.32-.02.4.12.07.13.03.29-.09.38l-4.43,2.97,6.01-3.47c.14-.08.32-.03.4.11.08.13.03.31-.1.39l-2.17,1.38,3.27-1.88c.14-.08.32-.03.4.12.07.13.03.3-.09.38l-7.37,4.91,9.37-5.41c.14-.08.32-.03.4.11.07.13.03.3-.09.39l-7.45,4.81,9.2-5.31c.14-.08.32-.03.4.11.08.14.04.31-.1.39l-7.02,4.44,8.56-4.94c.14-.08.32-.02.4.12.07.13.03.3-.1.39l-7.13,4.46,8.6-4.96c.14-.08.32-.02.4.12.07.13.03.3-.09.39l-11.14,7.07,13.12-7.57c.14-.08.32-.02.4.12.07.13.03.3-.1.38l-8.94,5.53,10.46-6.04c.14-.08.32-.03.4.11.08.14.03.31-.1.4l-4.7,2.86,5.82-3.36c.14-.08.32-.02.4.12.07.14.03.31-.1.39l-4.95,3,6.07-3.5c.14-.08.32-.03.4.12.07.14.03.31-.1.39l-13.85,8.58,15.73-9.08c.14-.08.32-.02.4.12.07.13.03.3-.1.39l-14.39,8.86,15.75-9.09c.14-.08.32-.02.4.12.07.14.03.31-.1.39l-9.45,5.72,9.45-5.46c.14-.08.32-.02.4.12.07.13.03.3-.1.39l-14.4,8.81,14.1-8.14c.14-.08.32-.02.4.12.07.14.03.31-.1.39l-9.69,5.86,9.39-5.42c.14-.08.32-.02.4.12.07.13.03.3-.1.39l-13.05,7.96,12.75-7.36c.14-.08.32-.03.4.11.08.14.03.31-.1.4l-14.14,8.64,13.83-7.99c.14-.08.32-.02.4.13.07.13.03.3-.1.38l-12.72,7.75,12.42-7.17c.14-.08.32-.02.4.12.07.14.03.3-.1.39l-1.59.95,1.29-.74c.14-.08.32-.02.4.12.07.14.03.3-.1.39l-1.22.73.92-.53c.14-.08.32-.02.4.12.07.13.03.3-.1.38l-7.83,4.73,7.53-4.35c.14-.08.32-.02.4.12.07.13.03.3-.1.39l-16.39,10.11,16.08-9.29c.14-.08.32-.02.4.12.07.13.03.3-.1.39l-12.39,7.57,12.09-6.98c.14-.08.32-.04.4.1.08.14.04.32-.1.4h0l-6.93,4.2,6.63-3.83c.14-.08.32-.03.4.11.08.14.03.31-.1.39l-1.99,1.2,1.69-.98c.14-.08.32-.02.4.12.07.13.03.3-.1.38l-12.4,7.71,12.1-6.98c.14-.08.32-.02.4.12.07.13.03.3-.09.38l-12.25,7.71,11.95-6.9c.14-.08.32-.04.4.1.08.14.04.32-.1.4h0l-10.78,6.82,10.47-6.05c.14-.08.32-.03.4.11.08.13.03.31-.1.39l-9.96,6.37,9.66-5.57c.14-.08.32-.02.4.12.07.13.03.3-.09.38l-7.99,5.11,7.68-4.44c.14-.08.32-.02.4.12.07.13.03.3-.1.38l-3.06,1.91,2.76-1.59c.14-.08.32-.03.4.11.08.13.04.3-.09.39l-7.4,4.92,7.08-4.09c.14-.08.32-.03.4.12.07.13.03.3-.09.38l-6.12,4.15,5.81-3.35c.14-.08.32-.03.4.11.08.14.04.31-.1.39l-.42.27.12-.07c.14-.08.32-.03.4.11.07.13.04.3-.09.38l-3.92,2.72,3.6-2.08c.14-.08.32-.03.4.11.07.13.04.29-.08.37l-3.67,2.8,3.35-1.93c.14-.08.32-.03.4.11.08.13.04.3-.09.39l-.68.48.36-.21c.14-.08.32-.03.4.11.07.13.04.29-.07.38l-1.02.78.69-.4c.14-.08.32-.03.4.11.06.11.05.25-.04.34l-1.1,1.21.68-.39c.14-.09.32-.05.41.09.09.14.05.32-.09.41,0,0-.01,0-.02.01l-2.3,1.33c-.14.08-.32.03-.4-.11-.06-.11-.05-.25.04-.34l1.1-1.21-2.88,1.67c-.14.08-.32.03-.4-.11-.07-.13-.04-.29.07-.38l1.02-.79-2.21,1.27c-.14.08-.32.03-.4-.11-.07-.13-.04-.3.08-.38l.68-.48-1.69.98c-.14.08-.32.03-.4-.11-.07-.13-.04-.29.08-.38l3.67-2.8-5.7,3.29c-.14.08-.32.02-.4-.12-.07-.13-.03-.29.08-.38l3.92-2.72-5.58,3.22c-.14.08-.32.03-.4-.11-.08-.13-.03-.31.1-.39l.42-.27-1.33.77c-.14.08-.32.03-.4-.11-.07-.13-.04-.3.09-.39l6.12-4.14-8.05,4.65c-.14.08-.32.03-.4-.11-.07-.13-.04-.3.09-.39l7.4-4.92-9.39,5.42c-.14.08-.32.02-.4-.12-.07-.13-.03-.3.1-.38l3.07-1.92-4.2,2.42c-.14.08-.32.03-.4-.12-.07-.13-.03-.3.09-.39l7.99-5.11-9.72,5.61c-.14.08-.32.03-.4-.12-.07-.13-.03-.3.09-.39l9.96-6.37-11.91,6.87c-.14.08-.32.03-.4-.12-.07-.13-.03-.3.1-.39l10.78-6.82-12.68,7.32c-.14.08-.32.02-.4-.12-.07-.13-.03-.3.09-.38l12.25-7.71-14.23,8.21c-.14.08-.32.03-.4-.12-.07-.14-.03-.31.1-.39l12.4-7.71-14.23,8.22s-.1.04-.15.04h0Z"/>
  <path class="cls-4" d="m2.13,5.45c-.16,0-.3-.13-.3-.29,0-.09.04-.17.11-.23l2.89-2.33L.56,5.05c-.14.08-.32.02-.4-.12-.06-.12-.03-.28.07-.36l1.95-1.47-1.63.94c-.14.08-.32.03-.4-.11-.07-.12-.05-.28.06-.37l1.53-1.34-1.19.69c-.14.08-.32.03-.4-.11-.06-.1-.05-.22.02-.32l.76-1.06-.03.02c-.14.08-.32.02-.4-.12-.07-.14-.03-.3.1-.39L1.82.21c.14-.08.32-.03.4.11.06.1.05.22-.02.32l-.76,1.06L4.05.19c.14-.08.32-.03.4.11.07.12.05.28-.06.37l-1.53,1.34L6.01.19c.14-.08.32-.03.4.11.07.13.04.29-.08.38l-1.95,1.47L7.79.19c.14-.08.32-.03.4.11.07.13.04.28-.07.38l-2.89,2.33L10.12.19c.14-.08.32-.03.4.11.07.13.04.3-.09.38l-.81.56,1.83-1.05c.14-.08.32-.03.4.11.07.13.04.29-.08.38l-2.14,1.58L13.23.19c.14-.08.32-.03.4.11.07.12.04.28-.07.37l-2.88,2.33L15.56.19c.14-.08.32-.03.4.12.07.13.03.3-.09.38l-.07.05.95-.55c.14-.08.32-.03.4.11.07.13.04.3-.09.39l-.75.52,1.76-1.02c.14-.08.32-.03.4.12.07.13.04.29-.08.38l-1.36.96,2.52-1.45c.14-.08.32-.03.4.11.07.13.04.29-.08.38l-2.2,1.63L21.35.19c.14-.08.32-.03.4.12.07.13.04.29-.08.38l-1.02.71,2.09-1.21c.14-.08.32-.03.4.11.07.13.04.29-.08.38l-2.32,1.74L24.61.19c.14-.08.32-.03.4.11.07.13.04.3-.08.39l-1.51,1.07,2.71-1.57c.14-.08.32-.03.4.11.07.12.04.28-.07.37l-2.88,2.33L28.47.19c.14-.08.32-.03.4.11.07.13.04.29-.08.38l-2.33,1.75L30.35.19c.14-.08.32-.03.4.11.07.13.04.29-.08.38l-2.54,1.95L32.36.19c.14-.08.32-.03.4.11.07.13.04.29-.08.38l-2.36,1.78,3.38-1.95c.14-.08.32-.03.4.11.07.13.04.29-.08.38l-2.15,1.65,2.43-1.4c.14-.08.32-.03.4.11.07.13.04.3-.08.39l-.38.27.2-.11c.14-.08.32-.03.4.11.06.11.04.26-.05.35l-1.38,1.37,1.03-.6c.14-.08.32-.03.4.11.06.1.05.22-.01.32l-.45.64.06-.04c.14-.09.32-.05.41.09.09.14.05.32-.09.41,0,0-.01,0-.02.01l-1.22.7c-.14.08-.32.03-.4-.11-.06-.1-.05-.22.01-.31l.45-.64-1.84,1.06c-.14.08-.32.03-.4-.11-.06-.11-.04-.26.05-.35l1.38-1.36-3.18,1.83c-.14.08-.32.03-.4-.11-.07-.13-.04-.3.08-.39l.38-.28-1.33.77c-.14.08-.32.03-.4-.11-.07-.13-.04-.29.08-.38l2.15-1.65-3.71,2.15c-.14.08-.32.03-.4-.11-.07-.13-.04-.29.08-.38l2.37-1.78-3.94,2.27c-.14.08-.32.03-.4-.11-.07-.13-.04-.29.08-.38l2.54-1.95-4.23,2.44c-.14.08-.32.03-.4-.11-.07-.13-.04-.29.08-.38l2.33-1.75-3.89,2.25c-.14.08-.32.03-.4-.11-.07-.12-.04-.28.07-.37l2.88-2.33-4.89,2.82c-.14.08-.32.03-.4-.11-.07-.13-.04-.3.08-.39l1.51-1.07-2.71,1.57c-.14.08-.32.03-.4-.11-.07-.13-.04-.29.08-.38l2.32-1.74-3.87,2.23c-.14.08-.32.03-.4-.11-.08-.13-.04-.3.09-.39l1.02-.71-2.09,1.21c-.14.08-.32.03-.4-.11-.07-.13-.04-.29.08-.38l2.2-1.63-3.68,2.12c-.14.08-.32.03-.4-.11-.07-.13-.04-.3.08-.38l1.36-.96-2.52,1.45c-.14.08-.32.04-.4-.1-.08-.13-.04-.31.09-.4l.75-.52-1.76,1.02c-.14.08-.32.04-.4-.1-.08-.14-.04-.31.09-.4l.07-.05-.95.55c-.14.08-.32.03-.4-.11-.07-.13-.04-.29.07-.38l2.89-2.33-4.89,2.82c-.14.08-.32.03-.4-.11-.07-.13-.04-.29.08-.38l2.14-1.58-3.59,2.07c-.14.08-.32.03-.4-.11-.07-.13-.04-.3.09-.39l.81-.56-1.83,1.05s-.09.04-.15.04h0Z"/>
  <path class="cls-1" d="m10.46,18.89c-.16,0-.3-.13-.3-.29,0-.06.02-.12.05-.17l.6-.87-1,.58c-.14.08-.32.03-.4-.11-.06-.1-.05-.22,0-.31l.66-1-1.07.61c-.14.08-.32.03-.4-.11-.06-.11-.05-.24.04-.34l.37-.42-.56.32c-.14.08-.32.03-.4-.11-.06-.1-.05-.23.02-.32l.59-.8-.91.52c-.14.08-.32.03-.4-.11-.06-.11-.05-.25.03-.34l.41-.46-.6.35c-.14.08-.32.03-.4-.11-.06-.11-.05-.25.04-.34l.37-.42-.55.32c-.14.08-.32.03-.4-.11-.07-.12-.04-.28.07-.37l.82-.66-1.02.59c-.14.08-.32.03-.4-.12-.07-.13-.04-.29.08-.38l1.75-1.28-1.68.97c-.14.08-.32.03-.4-.11-.07-.13-.04-.29.08-.38l1.51-1.09-.13.08c-.14.08-.32.02-.4-.12-.06-.12-.04-.26.05-.35l3.05-2.74h0c-.08-.15-.03-.33.11-.42l1.04-.6c.14-.08.32-.02.4.12.06.12.04.26-.05.35l-2.04,1.84,2.77-1.6c.14-.08.32-.03.4.11.07.13.04.29-.08.38l-1.51,1.09,1.34-.78c.14-.08.32-.03.4.11.07.13.04.29-.08.38l-1.93,1.41c.16-.02.31.1.33.26.01.1-.03.2-.11.26l-1.78,1.42s.04.03.05.05c.09.11.09.27,0,.38l-.37.42.55-.32c.14-.08.32-.03.4.11.06.11.05.24-.03.34l-.41.47.6-.35c.14-.08.32-.03.4.11.06.1.05.23-.02.32l-.59.8.91-.52c.14-.08.32-.03.4.11.06.11.05.25-.04.34l-.37.42.56-.32c.14-.08.32-.03.4.11.06.1.05.22,0,.31l-.66,1,1.07-.62c.14-.08.32-.03.4.11.06.1.05.22-.01.32l-.6.87.55-.32c.14-.08.32-.02.4.12.07.14.03.3-.1.39l-1.69.98s-.1.04-.15.04h0Z"/>
  <path class="cls-1" d="m23.84,18.95c-.16,0-.29-.13-.29-.3,0-.09.04-.17.11-.23l1.07-.88-1.44.83c-.14.08-.32.04-.4-.1-.08-.13-.04-.3.08-.39l2.5-1.91-2.44,1.41c-.14.08-.32.03-.4-.11-.07-.13-.04-.29.07-.38l2.71-2.13c-.15.06-.32-.02-.38-.17-.04-.11-.02-.22.06-.31l1.33-1.41-.4.23c-.14.08-.32.03-.4-.11-.07-.11-.05-.26.04-.35l.19-.2-.31.18c-.14.08-.32.03-.4-.11-.06-.11-.05-.24.03-.34l.41-.48-.61.35c-.14.08-.32.03-.4-.11-.06-.1-.05-.22.01-.31l.65-.97-1.03.6c-.14.08-.32.03-.4-.11-.06-.1-.05-.23.02-.32l.61-.84-.94.54c-.14.08-.32.03-.4-.11-.06-.11-.05-.24.03-.33l.5-.61-.59.34c-.14.08-.32.03-.4-.11-.06-.11-.05-.25.03-.34l.36-.41c-.15-.06-.22-.24-.16-.39.03-.06.07-.11.12-.14l1.04-.6c.14-.08.32-.03.4.11.06.11.05.24-.03.34l-.12.14.45-.26c.14-.08.32-.03.4.11.06.11.05.24-.03.34l-.5.61.74-.43c.14-.08.32-.03.4.11.06.1.05.23-.02.32l-.61.84.94-.54c.12-.07.27-.05.36.05.09.1.11.25.03.37l-.65.97,1.04-.6c.14-.08.32-.03.4.11.06.11.05.24-.03.34l-.41.48.61-.35c.14-.08.32-.03.4.11.07.11.05.26-.04.35l-.19.2.31-.18c.14-.08.32-.03.4.11.06.11.05.25-.04.35l-1.33,1.41,1.8-1.04c.14-.08.32-.03.4.11.07.13.04.29-.07.38l-2.69,2.11,2.81-1.62c.14-.08.32-.03.4.11.07.13.04.29-.08.38l-2.5,1.91.6-.34c.14-.08.32-.03.4.11.07.12.04.28-.07.37l-2.15,1.76s.03.03.04.05c.08.14.03.32-.11.4l-1.69.97s-.1.04-.15.04h0Z"/>
  <path class="cls-1" d="m16.07,19.46c-.16,0-.29-.13-.29-.3,0-.07.02-.13.07-.19l.89-1.1-1.41.81c-.14.08-.32.03-.4-.11-.07-.11-.05-.26.05-.35l1.59-1.61-.96.55c-.14.08-.32.04-.41-.1-.07-.12-.05-.28.06-.37l1.3-1.22-.67.39c-.14.08-.32.03-.4-.12-.06-.12-.04-.26.05-.36l1.06-.96-.47.27c-.14.08-.32.03-.4-.11-.07-.12-.04-.27.05-.36l1.1-1.01-.5.29c-.14.08-.32.03-.4-.11-.07-.12-.04-.28.06-.37l.64-.55-.09.05c-.14.08-.32.04-.4-.1-.07-.12-.05-.28.06-.37l1.3-1.22-.67.38c-.14.08-.32.03-.4-.11-.07-.12-.05-.28.06-.37l.78-.69-.21.12c-.14.09-.32.04-.41-.1-.07-.12-.05-.28.05-.37l.52-.5c-.15.06-.32-.02-.38-.17-.03-.09-.02-.19.04-.27l.36-.49c-.07-.02-.12-.07-.15-.13-.08-.14-.03-.32.11-.4l.81-.47c.14-.08.32-.03.4.11.06.1.05.23-.02.32l-.21.28.86-.49c.14-.08.32-.04.4.1.07.12.05.27-.05.37l-.51.49.65-.38c.14-.08.32-.03.4.11.07.12.05.28-.06.37l-.78.69.29-.17c.14-.08.32-.04.41.1.07.12.05.28-.06.37l-1.3,1.22.67-.38c.14-.08.32-.03.4.11.07.12.04.28-.06.37l-.64.55.09-.05c.14-.08.32-.03.4.11.07.12.04.27-.05.36l-1.1,1.01.51-.29c.14-.08.32-.03.4.12.06.12.04.26-.05.36l-1.06.96.47-.27c.14-.08.32-.04.41.1.07.12.05.28-.06.37l-1.3,1.22.67-.39c.14-.08.32-.03.4.11.07.11.05.26-.05.35l-1.59,1.61.9-.52c.14-.08.32-.03.4.11.06.11.05.24-.03.33l-.89,1.1.21-.12c.14-.09.32-.05.41.09.09.14.05.32-.09.41,0,0-.01,0-.02.01l-1.59.92s-.1.04-.15.04h0Z"/>
  <g>
    <path class="cls-2" d="m34.87,5.17c.05-.08.05-.19,0-.27-.1-1.38.4-3.09-.62-4.22-.85-.87-2.47-.6-3.56-.6H4.74C.08-.34-.04.89.13,5.13c-.05.08-.05.18,0,.27v26.15c0,1.63.07,3.05,2,3.44,9.82.02,19.66,0,29.49,0,3.62,0,3.25-2.49,3.25-5.4V5.17ZM.66,2.31C1.24.38,2.92.78,4.32.78h23.77c3.8-.17,6.84-.99,6.26,4.05H.59c-.12-.84-.1-1.7.07-2.53Zm31.01,31.99c-9.78.53-19.69-.25-29.49,0-2.12-.44-1.52-3.07-1.52-4.51-.02-8.11.04-16.22-.02-24.33h33.71v22.11c0,2.78.95,6.39-2.67,6.73Z"/>
    <path class="cls-2" d="m11.16,19.03c.9-.25,1.42-1.17,1.18-2.06-.04-.15-.1-.29-.18-.43-.96-1.09-2.07-2.08-3.08-3.14,1.32-1.18,4.27-3.31,3.01-4.98-1.58-2.2-4.54,2.48-5.81,3.49-1.96,2.14.71,3.76,2.23,5.28.62.63,1.6,2.09,2.66,1.85Zm-.99-1.1c-5.45-5.61-5.4-3.63.07-9.17,1.06-.51,1.83.15,1.41,1.18-4.06,4.69-4.59,2.11.05,7.02.72,1.33-.91,1.31-1.53.98Z"/>
    <path class="cls-2" d="m26.48,9.57c-.68-.68-1.55-2.03-2.69-1.7-1.35.39-1.51,1.77-.73,2.69.91,1.02,1.97,1.95,2.93,2.93-.89,1.2-2.34,2.03-3.2,3.22-.54,1.1.23,2.65,1.65,2.24,1.21-.35,2.4-2.17,3.23-3.01,3.67-2.83,1.35-4.06-1.19-6.37h0Zm1.13,5.67c-.98.93-1.89,1.98-2.87,2.88-.72.36-2-.14-1.38-1.3,4.83-5.1,3.82-2.05.14-6.81-.39-.73.02-1.82,1.05-1.4.94.85,1.85,1.83,2.73,2.75,1.77,1.37,2.17,2.38.33,3.87h0Z"/>
    <path class="cls-2" d="m16.46,19.54c1.16.09,1.43-.64,1.64-1.6.46-1.77.77-3.59,1.15-5.38.33-1.54,2.01-5.34-.9-5.3-2.19.03-2.19,4.58-2.51,6.1-.18,1.88-2.52,5.85.62,6.18h0Zm-.02-5.68c.26-1.23.44-5.2,1.56-5.84,2.46-1.17.47,4.15.41,5.17-.19.87-.54,5.57-1.77,5.82-1.97-.54-.52-3.7-.21-5.15h0Z"/>
    <path class="cls-2" d="m2.73,3.14c.32-.02.86.14.88-.34.03-.49-.51-.35-.83-.37-.35,0-.39.66-.04.71Z"/>
    <path class="cls-2" d="m5.66,3.14h.59c.34,0,.47-.69.09-.69h-.59c-.34,0-.47.69-.09.69Z"/>
    <path class="cls-2" d="m8.63,3.05c.3-.05.85.15.97-.23.07-.42-1.28-.42-1.29-.06-.02.17.18.3.33.3Z"/>
    <path class="cls-2" d="m28.71,3.06c.39-.07,5.21.31,3.54-.53-.39.07-5.21-.31-3.54.53Z"/>
    <path class="cls-2" d="m6.2,22.59c.48-.1,1.31.26,1.55-.29.03-.12,0-.37-.17-.37-.48.1-1.31-.26-1.55.29-.03.12,0,.37.17.37Z"/>
    <path class="cls-2" d="m6.18,25.52c.5-.09,1.29.25,1.59-.28.1-.64-.96-.24-1.35-.35-.32-.05-.65.53-.24.62Z"/>
    <path class="cls-2" d="m16.31,24.86h-6.49c-.38,0-.31.7.03.7h6.49c.38,0,.31-.7-.03-.7Z"/>
    <path class="cls-2" d="m19.89,30.75h-10.03c-.35,0-.41.71-.06.71h10.03c.35,0,.41-.71.06-.71h0Z"/>
    <path class="cls-2" d="m7.43,27.81h-1.18c-.38,0-.24.69.09.69h1.18c.38,0,.25-.69-.09-.69Z"/>
    <path class="cls-2" d="m7.5,30.84h-1.18c-.41,0-.51.54-.05.54h1.18c.41,0,.51-.54.05-.54Z"/>
    <path class="cls-2" d="m26.9,21.99H9.79c-.46,0-.31.54.09.54h17.11c.46,0,.31-.54-.09-.54h0Z"/>
    <path class="cls-2" d="m25.13,25.54c.33,0,.49-.66.08-.66h-6.49c-.33,0-.49.66-.08.66h6.49Z"/>
    <path class="cls-2" d="m9.87,27.8c-.35,0-.42.7-.08.7h2.95c.35,0,.42-.7.08-.7h-2.95Z"/>
    <path class="cls-2" d="m26.89,27.81h-11.8c-.34,0-.25.7.11.7h11.8c.34,0,.25-.7-.11-.7h0Z"/>
  </g>
</svg>