<?xml version="1.0" encoding="UTF-8"?>
<svg id="Layer_1" data-name="Layer 1" xmlns="http://www.w3.org/2000/svg" viewBox="0 0 35 35">
  <defs>
    <style>
      .cls-1 {
        fill: #e3e1e1;
      }

      .cls-1, .cls-2, .cls-3, .cls-4, .cls-5, .cls-6, .cls-7 {
        stroke-width: 0px;
      }

      .cls-2 {
        fill: #706d6d;
      }

      .cls-3 {
        fill: #f47721;
      }

      .cls-5 {
        fill: #898686;
      }

      .cls-6 {
        fill: #fff;
      }

      .cls-7 {
        fill: #c1dbf0;
      }
    </style>
  </defs>
  <path class="cls-5" d="m26.45,13.05c-.16,0-.29-.13-.29-.29,0-.06.02-.12.05-.17l.27-.37-1.01.58c-.14.08-.32.03-.4-.11-.06-.11-.05-.25.04-.35l.8-.85-.58.34c-.14.08-.32.03-.4-.11-.07-.11-.05-.26.04-.35l.8-.84-.44.26c-.14.08-.32.03-.4-.11-.04-.06-.05-.14-.03-.21l.18-.75c-.06-.02-.11-.07-.15-.13-.08-.14-.03-.32.11-.4l.3-.17c.14-.08.32-.03.4.11.04.06.05.14.03.21l-.14.6,1.63-.94c.14-.08.32-.03.4.11.07.11.05.26-.04.35l-.81.84.55-.32c.14-.08.32-.03.4.11.07.11.05.25-.04.35l-.8.85.44-.26c.14-.08.32-.03.4.11.06.1.05.22-.01.32l-.29.41c.12-.02.24.04.3.14.08.14.03.32-.11.4l-1.04.6s-.09.04-.15.04h0Z"/>
  <path class="cls-2" d="m30.11,29.43c-.16,0-.29-.13-.29-.29,0-.07.03-.14.08-.2l.25-.28-.5.29c-.14.08-.32.04-.4-.1-.07-.12-.05-.27.05-.37l.39-.37-.24.13c-.14.08-.32.02-.4-.12-.06-.11-.04-.25.05-.34l.21-.21c-.07,0-.13-.02-.19-.06-.09-.08-.13-.2-.1-.32l.14-.44c-.14-.08-.19-.26-.11-.4.03-.05.06-.09.11-.11l.3-.17c.14-.08.32-.03.4.11.04.07.05.16.03.24l-.07.24,1.03-.59c.14-.08.32-.02.4.12.06.11.04.25-.05.34l-.11.11.4-.23c.14-.08.32-.04.4.1.07.12.05.27-.05.37l-.38.37.03-.02c.14-.08.32-.03.4.11.06.11.05.25-.04.34l-.31.34c.11,0,.22.05.28.15.08.14.03.32-.11.4l-1.44.83s-.09.04-.14.04h0Z"/>
  <path class="cls-7" d="m7.68,34.81c-.16,0-.29-.13-.29-.29,0-.1.05-.2.14-.25l.09-.06-.97.56c-.14.08-.32.03-.4-.11-.07-.13-.04-.3.09-.38l5.83-4.03-7.85,4.53c-.14.08-.32.03-.4-.12-.07-.13-.03-.29.09-.38l5.8-3.99-7.77,4.49c-.14.08-.32.03-.4-.11-.07-.13-.03-.3.09-.39l2.95-1.91-3.63,2.1c-.14.08-.32.03-.4-.11-.07-.13-.04-.3.09-.38l5.18-3.55-5.29,3.05c-.14.08-.32.03-.4-.11-.07-.13-.04-.3.09-.39l3.5-2.38-3.13,1.81c-.14.08-.32.03-.4-.12-.07-.13-.04-.29.08-.38l3.24-2.32-2.69,1.56c-.14.08-.32.03-.4-.11-.07-.13-.04-.29.08-.38l1.98-1.46-1.1.64c-.14.08-.32.03-.4-.11-.07-.12-.04-.28.07-.37l1.35-1.12c-.05-.03-.1-.07-.13-.12-.08-.14-.03-.32.11-.4h0s2.19-1.27,2.19-1.27c.14-.08.32-.03.4.11.07.12.04.28-.07.37l-.76.62,2.56-1.48c.14-.08.32-.03.4.11.07.13.04.29-.08.38l-1.98,1.47,3.38-1.95c.14-.08.32-.03.4.11.07.13.04.29-.08.38l-3.24,2.32,4.87-2.81c.14-.08.32-.03.4.11.07.13.04.3-.09.38l-3.51,2.38,4.99-2.88c.14-.08.32-.03.4.11.07.13.04.3-.09.38l-5.18,3.55,7-4.04c.14-.08.32-.03.4.11.07.13.03.3-.09.39l-2.95,1.91,4.18-2.41c.14-.08.32-.03.4.12.07.13.03.29-.09.38l-5.8,3.99,7.65-4.41c.14-.08.32-.03.4.11.07.13.04.3-.09.38l-5.83,4.03,7.17-4.14c.14-.08.32-.03.4.12.07.13.03.3-.1.39l-.08.05.46-.27c.14-.08.32-.03.4.11.08.13.04.3-.09.39l-3.62,2.42,4.14-2.39c.14-.08.32-.03.4.11.08.13.04.3-.08.39l-4.59,3.25,5.13-2.96c.14-.08.32-.03.4.11.08.13.04.3-.08.39l-3.5,2.48,3.79-2.19c.14-.09.32-.04.4.09s.04.32-.09.4l-.17.11.18-.11c.14-.08.32-.03.4.11.07.13.04.3-.09.38l-1.16.8,1.13-.65c.14-.08.32-.03.4.11.08.13.04.3-.08.39l-.77.55.68-.39c.14-.08.32-.03.4.11.07.13.04.29-.08.38l-.77.58.59-.34c.14-.08.32-.03.4.11.07.12.05.26-.05.36l-1.22,1.19.98-.56c.14-.08.32-.03.4.11.06.1.05.21,0,.31l-.47.73c.16-.03.31.08.34.24.02.12-.04.24-.14.31l-.95.55c-.14.08-.32.03-.4-.11-.06-.1-.05-.21,0-.31l.45-.69-1.93,1.12c-.14.08-.32.03-.4-.11-.07-.12-.05-.26.05-.36l1.22-1.19-2.87,1.66c-.14.08-.32.03-.4-.11-.07-.13-.04-.29.08-.38l.76-.57-1.84,1.06c-.14.08-.32.03-.4-.11-.07-.13-.04-.3.08-.38l.77-.55-1.8,1.04c-.14.08-.32.03-.4-.11-.08-.13-.04-.3.09-.39l1.16-.8-2.25,1.29c-.14.08-.32.03-.4-.12-.07-.13-.03-.3.09-.38l.18-.12-1.07.62c-.14.08-.32.03-.4-.11-.07-.13-.04-.29.08-.38l3.5-2.48-5.15,2.97c-.14.08-.32.03-.4-.11-.07-.13-.04-.29.08-.38l4.59-3.25-6.49,3.74c-.14.08-.32.03-.4-.12-.07-.13-.03-.3.09-.38l3.63-2.42-5.06,2.92s-.09.04-.15.04h0Z"/>
  <path class="cls-6" d="m10.36,27.18c-.16,0-.3-.13-.3-.29,0-.09.04-.18.12-.24l1.38-1.07-2.11,1.22c-.14.08-.32.04-.4-.1-.08-.13-.04-.3.08-.39l.29-.21c-.15.07-.32,0-.39-.14-.06-.13-.02-.28.09-.36l.25-.19c-.16.04-.32-.06-.36-.21-.02-.09,0-.18.05-.25l.89-1.2-.5.29c-.14.08-.32.03-.4-.11-.04-.07-.05-.15-.03-.23l.14-.48s-.09-.06-.12-.11c-.08-.14-.03-.32.11-.4l.29-.17c.1-.06.23-.05.33.02.09.07.13.2.1.31l-.08.28,1.09-.62c.14-.08.32-.03.4.11.06.1.05.23-.02.32l-.89,1.2,2.83-1.63c.14-.08.32-.03.4.11.07.13.04.29-.08.38l-.17.13,1.08-.62c.14-.08.31-.04.39.1.09.13.05.31-.08.4l-.29.21.54-.31c.14-.08.32-.03.4.11.07.13.04.29-.07.38l-1.38,1.07,1.05-.61c.14-.08.32-.02.4.12.06.12.04.26-.05.35l-.99.89.65-.38c.14-.08.32-.04.4.1.05.09.06.2,0,.29l-.45.88.05-.03c.14-.08.32-.03.4.11.08.14.03.32-.11.4l-.91.52c-.14.08-.32.04-.4-.1-.05-.09-.06-.2,0-.29l.45-.88-2.21,1.28c-.14.08-.32.02-.4-.12-.06-.12-.04-.26.05-.35l.99-.89-2.37,1.37s-.1.04-.15.04h0Z"/>
  <path class="cls-3" d="m6.67,15.41c-.16,0-.29-.13-.29-.29,0-.1.05-.19.13-.24l4.7-3.15-5.5,3.18c-.14.08-.32.03-.4-.11-.08-.13-.04-.31.09-.39l4.56-3.03-5.16,2.98c-.14.08-.32.02-.4-.12-.07-.13-.03-.3.09-.38l1.48-.95-1.82,1.05c-.14.08-.32.03-.4-.11-.07-.13-.03-.3.09-.39l4.34-2.86-4.03,2.33c-.14.08-.32.03-.4-.12-.07-.13-.03-.3.09-.39l1.22-.78-.88.51c-.14.08-.32.04-.4-.1-.08-.13-.04-.31.09-.39l4.75-3.28-4.31,2.49c-.14.08-.32.03-.4-.12-.07-.13-.03-.29.09-.38l3.31-2.28-2.61,1.51c-.14.08-.32.03-.4-.11-.07-.13-.04-.3.08-.38l2.44-1.73-1.44.83c-.14.08-.32.03-.4-.11-.07-.12-.04-.28.07-.37l1.83-1.49c-.16-.04-.25-.21-.21-.36.02-.07.07-.14.14-.18l2.54-1.47c.14-.08.32-.03.4.11.07.13.04.29-.07.38l-1.4,1.14,3.65-2.11c.14-.08.32-.03.4.11.07.13.04.3-.08.38l-2.44,1.73,3.64-2.1c.14-.08.32-.03.4.11.08.13.04.3-.09.39l-3.31,2.28,4.23-2.44c.14-.08.32-.03.4.11.07.13.04.3-.09.38l-4.75,3.28,5.64-3.25c.14-.08.32-.03.4.11.08.13.03.3-.09.39l-1.21.78,1.58-.91c.14-.08.32-.04.4.1.08.14.04.31-.09.4l-4.34,2.86,4.79-2.76c.14-.08.32-.04.4.1.08.14.04.32-.1.4l-1.48.94,1.72-.99c.14-.08.32-.03.4.11.08.13.04.3-.09.39l-4.56,3.03,4.85-2.8c.14-.08.32-.03.4.11.08.13.04.31-.09.39l-4.7,3.15,4.96-2.86c.14-.08.32-.02.4.12.07.13.03.3-.09.38l-2.39,1.57,2.44-1.41c.14-.08.32-.03.4.11.08.13.04.3-.08.39l-4.1,2.9,4.19-2.42c.14-.08.32-.03.4.11.07.13.04.29-.08.38l-3.41,2.53,3.41-1.97c.14-.08.32-.03.4.11.08.13.04.3-.09.39l-.68.47.43-.25c.14-.08.32-.03.4.11.07.13.04.3-.09.38l-.17.12c.16-.03.32.07.35.22.02.1,0,.2-.08.27l-1.58,1.57,1.26-.73c.14-.09.32-.05.41.09s.05.32-.09.41c0,0-.01,0-.02.01l-3.25,1.87c-.14.08-.32.03-.4-.11-.06-.11-.05-.26.05-.35l1.58-1.56-3.51,2.02c-.14.08-.32.03-.4-.12-.07-.13-.04-.29.08-.38l.04-.03-.91.52c-.14.08-.32.03-.4-.12-.07-.13-.03-.29.08-.38l.68-.47-1.67.97c-.14.08-.32.03-.4-.11-.07-.13-.04-.29.08-.38l3.41-2.53-5.23,3.02c-.14.08-.32.03-.4-.11-.08-.13-.04-.3.08-.39l4.1-2.9-5.88,3.4c-.14.08-.32.03-.4-.11-.07-.13-.03-.3.09-.39l2.39-1.57-3.58,2.07s-.1.04-.15.04h0Z"/>
  <path class="cls-1" d="m9.06,29.31c-.16,0-.29-.13-.29-.29,0-.08.03-.16.09-.21l.71-.7-1.17.68c-.13.1-.31.07-.41-.06-.1-.13-.07-.31.06-.41l.51-.49-.75.43c-.14.08-.32.03-.4-.11-.06-.11-.05-.24.03-.34l.85-.98-1.03.59c-.14.08-.32.03-.4-.11-.06-.1-.05-.23.02-.32l.56-.75-.18.11c-.14.09-.32.05-.41-.09-.09-.14-.05-.32.09-.41,0,0,.01,0,.02-.01l1.42-.82c.14-.08.32-.03.4.11.06.1.05.23-.02.32l-.56.75,1.29-.75c.14-.08.32-.03.4.11.06.11.05.24-.03.34l-.85.98,1.38-.8c.14-.09.32-.04.4.1.08.12.05.28-.06.38l-.51.48,1.05-.6c.14-.08.32-.03.4.11.07.12.05.26-.05.36l-1.57,1.54c.08.14.03.32-.11.4l-.75.43s-.09.04-.14.04h0Z"/>
  <path class="cls-1" d="m14.84,29.39c-.16,0-.29-.13-.29-.29,0-.08.03-.15.08-.2l1.23-1.28-1.35.78c-.14.08-.32.04-.4-.1-.07-.12-.05-.27.05-.36l.81-.78-1.08.62c-.11.06-.25.05-.34-.04l-.71-.64-.17.1c-.14.09-.32.05-.41-.09-.09-.14-.05-.32.09-.41,0,0,.01,0,.02-.01l.35-.21c.11-.06.25-.05.34.04l.71.64,2.97-1.71c.14-.08.32-.04.4.1.07.12.05.27-.05.36l-.81.78,1.06-.61c.14-.08.32-.03.4.11.07.11.05.26-.04.35l-1.23,1.28.24-.14c.14-.09.32-.05.41.09.09.14.05.32-.09.41,0,0-.01,0-.02.01l-2.02,1.17s-.09.04-.14.04h0Z"/>
  <path class="cls-1" d="m15.06,25.68c-.16,0-.3-.13-.3-.29,0-.11.06-.21.15-.26l.36-.21c.14-.08.32-.03.4.11.08.14.03.32-.11.4l-.36.21s-.1.04-.15.04Z"/>
  <path class="cls-6" d="m18.16,14.64c-.16,0-.29-.13-.29-.29,0-.07.03-.14.07-.19l.54-.62s-.07-.06-.1-.1c-.08-.14-.03-.32.11-.4l.9-.52c.14-.08.32-.03.4.11.06.11.05.24-.03.34l-.23.26.56-.32c.14-.09.32-.05.41.09s.05.32-.09.41c0,0-.01,0-.02.01l-2.09,1.21s-.09.04-.15.04h0Z"/>
  <path class="cls-6" d="m13.12,24.13c-.16,0-.29-.13-.29-.29,0-.09.04-.17.11-.23l2.14-1.75-3.84,2.22c-.14.08-.32.03-.4-.11-.08-.13-.04-.3.09-.39l1.13-.78-1.75,1.01c-.14.08-.32.04-.4-.1-.08-.13-.04-.3.08-.39l4.9-3.5-5.86,3.38c-.14.08-.32.03-.4-.12-.07-.13-.03-.3.09-.39l1.46-.94-1.74,1c-.14.08-.32.04-.4-.1-.08-.14-.04-.32.1-.4l2.59-1.68-2.87,1.66c-.14.08-.32.03-.4-.11-.08-.13-.04-.31.09-.39l5.62-3.78-5.96,3.45c-.14.08-.32.03-.4-.12-.07-.13-.03-.29.09-.38l4.82-3.31-5,2.88c-.14.08-.32.03-.4-.11-.07-.13-.04-.3.09-.38l5.47-3.78-5.54,3.2c-.14.08-.32.03-.4-.11-.08-.14-.04-.31.09-.39l2.57-1.67-2.41,1.39c-.14.08-.32.03-.4-.11-.08-.13-.04-.3.09-.39l2.98-1.96-2.98,1.72c-.14.08-.32.04-.4-.1-.08-.13-.04-.31.09-.39l5.51-3.84-6.23,3.6c-.14.08-.32.04-.4-.1-.08-.14-.04-.31.09-.4l3.85-2.56-3.93,2.27c-.13.07-.29.04-.38-.08-.09-.12-.08-.28.03-.39l.34-.33-.17.1c-.14.08-.32.03-.4-.11-.07-.11-.05-.26.05-.35l.3-.3-.03.02c-.14.08-.32.04-.4-.11-.05-.09-.05-.19,0-.28l.49-.99c-.13.05-.28,0-.35-.13-.08-.14-.03-.32.11-.4l.79-.45c.14-.08.32-.03.4.11.05.09.05.19,0,.28l-.49.98,1.11-.64c.14-.08.32-.02.4.12.06.11.04.25-.05.34l-.3.3.21-.12c.14-.08.32-.03.4.11.06.11.05.26-.05.35l-.34.33,9.94-5.74c.14-.08.32-.03.4.12.07.13.03.3-.09.38l-3.85,2.57,4.23-2.44c.14-.08.32-.03.4.11.08.13.04.3-.09.39l-5.51,3.84,5.86-3.39c.14-.08.32-.03.4.11.08.13.04.3-.09.39l-2.98,1.96,2.96-1.71c.14-.08.32-.03.4.12.07.13.03.3-.09.38l-2.57,1.68,2.43-1.4c.14-.08.32-.03.4.11.08.13.04.3-.09.39l-5.47,3.78,5.24-3.03c.14-.08.32-.03.4.11.08.13.04.3-.09.39l-4.81,3.3,6.79-3.92c.14-.08.32-.03.4.11.08.13.04.31-.09.39l-5.61,3.78,5.35-3.09c.14-.08.32-.04.4.1s.04.32-.1.4h0l-2.59,1.68,2.18-1.25c.14-.08.32-.02.4.12.07.13.03.3-.09.38l-1.47.95.84-.49c.14-.08.32-.03.4.11.07.13.04.29-.08.38l-4.89,3.5,2.92-1.69c.14-.08.32-.03.4.12.07.13.03.29-.09.38l-1.13.78.56-.32c.14-.08.32-.03.4.11.07.12.04.28-.07.37l-2.14,1.75.86-.49c.14-.09.32-.05.41.09.09.14.05.32-.09.41,0,0-.01,0-.02.01l-4.01,2.32s-.1.04-.15.04h0Z"/>
  <path class="cls-6" d="m6.36,14.62c-.16,0-.29-.13-.29-.29,0-.1.05-.19.13-.24l1.26-.85-.95.55c-.14.08-.32.03-.4-.11-.07-.13-.04-.29.08-.38l.4-.3-.08.04c-.14.08-.32.03-.4-.11-.05-.09-.05-.2,0-.29l.47-.82c-.15.05-.32-.03-.38-.18-.05-.13,0-.28.13-.35l.9-.52c.14-.08.32-.03.4.11.05.09.05.2,0,.29l-.47.82,3.18-1.83c.14-.08.32-.03.4.11.07.13.04.29-.08.38l-.4.3,4.47-2.58c.14-.08.32-.03.4.11.07.13.04.3-.09.39l-1.26.84,1.8-1.04c.14-.09.32-.05.41.09.09.14.05.32-.09.41,0,0-.01,0-.02.01l-9.38,5.41s-.09.04-.15.04Z"/>
  <path class="cls-7" d="m18.88,2.95c-.16,0-.29-.13-.29-.29,0-.07.02-.13.07-.19l.32-.38-.56.32c-.14.08-.32.03-.4-.11-.05-.09-.05-.2,0-.29l.43-.75h0c-.14.09-.32.05-.41-.09s-.05-.32.09-.41c0,0,.01,0,.02-.01l.96-.56c.11-.07.26-.05.35.05.09.09.11.24.05.35l-.43.75,1.04-.6c.14-.08.32-.03.4.11.06.11.05.24-.03.33l-.32.38.08-.04c.14-.08.32-.02.4.12.07.14.03.3-.1.38l-1.51.88s-.1.04-.15.04h0Z"/>
  <path class="cls-7" d="m33.06,2.96c-.16,0-.29-.13-.29-.29,0-.06.02-.13.06-.18l.43-.58-.75.43c-.14.08-.32.03-.4-.11-.05-.09-.05-.21,0-.3l.4-.66c-.15.06-.32-.01-.38-.16-.05-.14,0-.29.12-.36l.97-.56c.12-.07.26-.05.36.05.09.1.11.24.04.36l-.4.65.96-.56c.14-.08.32-.03.4.11.06.1.05.23-.02.32l-.43.58.2-.12c.14-.09.32-.05.41.09s.05.32-.09.41c0,0-.01,0-.02.01l-1.42.82s-.1.04-.15.04h0Z"/>
  <path class="cls-7" d="m26.57,3.05c-.16,0-.29-.13-.29-.29,0-.06.02-.11.05-.16l.29-.47-1.15.66c-.14.08-.32.03-.4-.11-.06-.11-.05-.25.04-.34l.52-.55-.31.18c-.14.08-.32.03-.4-.11-.05-.09-.05-.2,0-.29l.25-.45c-.16-.03-.27-.18-.24-.34.02-.09.07-.16.14-.2l.66-.38c.14-.08.32-.03.4.11.05.09.05.2,0,.29l-.19.34,1.12-.65c.14-.08.32-.03.4.11.06.11.05.25-.04.34l-.52.55.43-.25c.14-.08.32-.03.4.11.06.1.05.21,0,.31l-.31.5c.16-.03.31.08.34.24.02.12-.04.24-.14.3l-.91.52s-.1.04-.15.04h0Z"/>
  <path class="cls-3" d="m26.19,10.11c-.16,0-.29-.13-.29-.29,0-.09.04-.17.11-.22l.41-.34-1.21.7c-.14.08-.32.03-.4-.11-.07-.13-.04-.29.08-.38l.04-.03-.13.07c-.14.08-.32.03-.4-.11-.07-.12-.04-.28.07-.37l.91-.73-1.11.64c-.14.08-.32.03-.4-.11-.07-.13-.04-.29.07-.38l.63-.49-.79.46c-.14.08-.32.03-.4-.11-.07-.13-.04-.29.07-.38l.91-.72-.69.4c-.14.08-.32.03-.4-.11-.07-.13-.04-.29.08-.38l.75-.57c-.16-.04-.25-.2-.21-.36.02-.06.05-.11.1-.15l.74-.6s-.06-.04-.08-.06c-.09-.1-.1-.25-.02-.37l1.29-1.83c-.05-.13.01-.28.13-.35l.25-.14c.14-.08.32-.03.4.11.06.1.05.22-.01.32l-.81,1.15,1.04-.6c.14-.08.32-.03.4.11.07.13.04.29-.07.38l-.07.05.05-.03c.14-.08.32-.03.4.11.07.13.04.29-.08.38l-.2.15.21-.12c.14-.08.32-.03.4.11.07.13.04.29-.07.38l-.9.71.98-.56c.14-.08.32-.03.4.11.07.13.04.29-.07.38l-.63.49.68-.39c.14-.08.32-.04.4.1.07.13.04.29-.07.38l-.91.73.99-.57c.14-.08.32-.03.4.11.07.13.04.29-.08.38l-.04.03h0c.14-.08.32-.03.4.11.07.12.04.28-.06.37l-.42.35c.15-.06.32,0,.39.15.06.14,0,.3-.13.38l-2.85,1.65s-.1.04-.15.04h0Z"/>
  <path class="cls-5" d="m30.21,27.17c-.16,0-.29-.13-.29-.29,0-.07.03-.14.07-.19l.89-1.04-1.96,1.13c-.14.08-.32.03-.4-.11-.07-.12-.05-.26.05-.36l.72-.71-.42.24c-.14.08-.32.03-.4-.11-.05-.09-.05-.19,0-.28l.24-.45c-.16,0-.29-.15-.28-.31,0-.1.06-.19.15-.24l.69-.4c.14-.08.32-.03.4.11.05.09.05.2,0,.28l-.2.37,1.54-.89c.14-.08.32-.03.4.11.07.12.05.26-.05.36l-.72.71,1.43-.82c.14-.08.32-.03.4.11.06.11.05.24-.03.34l-.89,1.04.51-.29c.14-.08.32-.04.4.1.06.1.05.21,0,.31l-.21.33c.15.05.24.22.19.37-.02.07-.07.13-.13.16l-.66.38c-.14.08-.32.04-.4-.1-.06-.1-.05-.21,0-.31l.1-.15-.98.56s-.09.04-.15.04h0Z"/>
  <path class="cls-3" d="m30.25,24.82c-.16,0-.29-.13-.29-.29,0-.09.04-.17.1-.22l1.13-.95-2.36,1.36c-.14.08-.32.03-.4-.11-.07-.13-.04-.29.08-.38l1.74-1.3-1.61.93c-.14.07-.32.02-.4-.13-.06-.12-.03-.28.08-.36l1.55-1.13-1.57.91c-.14.08-.32.03-.4-.11-.07-.13-.04-.3.08-.38l1.28-.91-1.43.82c-.14.08-.32.03-.4-.11-.07-.13-.04-.29.08-.38l2.3-1.7-2.54,1.47c-.14.08-.32.03-.4-.12-.07-.13-.04-.29.08-.38l1.68-1.21-1.75,1.01c-.14.08-.32.03-.4-.11-.07-.13-.04-.3.09-.38l.55-.38-.47.27c-.14.08-.32.03-.4-.11-.07-.13-.04-.29.08-.38l1.96-1.45-1.76,1.02c-.14.08-.32.03-.4-.11-.07-.12-.04-.28.07-.37l2.2-1.81-1.7.98c-.14.08-.32.04-.4-.1-.07-.12-.05-.27.05-.36l1.23-1.19c-.16.01-.3-.11-.31-.27,0-.11.05-.22.15-.27l1.86-1.07c.14-.08.32-.04.4.1.07.12.05.27-.05.36l-1.14,1.11,2.73-1.58c.14-.08.32-.03.4.11.07.12.04.28-.07.37l-2.21,1.8,3.1-1.79c.14-.08.32-.03.4.11.07.13.04.29-.08.38l-1.96,1.45,2.37-1.37c.14-.08.32-.03.4.11.07.13.04.3-.09.38l-.55.38.64-.37c.14-.08.32-.03.4.11.08.13.04.3-.08.39l-1.69,1.21,1.78-1.02c.14-.08.32-.03.4.11.07.13.04.29-.08.38l-2.3,1.7,2.28-1.32c.14-.08.32-.03.4.11.07.13.04.3-.08.38l-1.28.91,1.07-.62c.14-.08.32-.03.4.11.07.13.04.29-.08.38l-1.55,1.13,1.13-.65c.14-.08.32-.03.4.11.07.13.04.29-.08.38l-1.74,1.3.85-.49c.14-.08.32-.04.4.1.07.12.05.28-.07.38l-1.38,1.17c.06,0,.12.04.17.08.09.09.12.23.06.35l-.44.85s.04.04.05.06c.08.14.03.32-.11.4l-.33.19c-.14.08-.32.03-.4-.11-.05-.09-.05-.19,0-.28l.25-.49-1.54.89s-.1.04-.15.04h0Z"/>
  <g>
    <path class="cls-4" d="m.48,34.43c.56.53,1.45.41,2.16.41h14.24c1.95,0,3.94.11,5.88,0,2.55-.15,1.65-3.81.92-5.23-1.15-2.18-3.4-3.56-5.86-3.6-.07-.1-.14-.2-.23-.28-.24-.21-.52-.38-.82-.5-.38-.15-.78-.24-1.19-.28v-1.73c1.69-.94,2.87-2.57,3.24-4.47.05-.28,0-.83.21-1.04.14-.14.51-.22.68-.34,1.17-.84,1.16-2.5,1.16-3.79,0-1.78-.04-3.48-.85-5.12-.94-1.9-2.55-3.37-4.53-4.13-4.02-1.45-8.5.1-10.76,3.72-1.08,1.81-1.18,3.72-1.18,5.76-.09,1.14.03,2.79.99,3.58.18.12.37.23.57.32.4.25.39.55.46,1,.31,1.97,1.52,3.68,3.28,4.62v1.72c-.22.04-.43.1-.64.16-.53.14-1.02.42-1.42.8-2.21.05-4.26,1.13-5.56,2.92-.66.94-1.06,2.02-1.18,3.16-.07.75-.18,1.78.42,2.34h0Zm16.05-8.61c.2.13.52.37.56.62,0,.3-.05.6-.19.87-.11.25-.25.47-.43.67-.3.34-.66.62-1.07.82-.08.04-.13.07-.18.09-.34-.98-1.11-1.74-2.09-2.07.68-.18,1.31-.51,1.85-.96.16-.14.3-.3.43-.47.13.03.25.06.38.09.26.07.5.18.73.32ZM4.98,9.12c.74-1.9,2.17-3.46,4.01-4.35,3.84-1.8,8.47.29,10.23,4,.53,1.19.8,2.48.79,3.78-.53-.14-1.09,0-1.49.37,0-.75-.17-1.49-.49-2.17-.52-1.14-1.5-2-2.7-2.37-.78-.17-1.34.27-1.98.63-.93.49-1.9.89-2.91,1.18-.86.27-1.75.46-2.65.56-.64.06-1.32.12-1.7.73-.18.4-.24.85-.18,1.28-.11-.09-.24-.16-.38-.21-.37-.11-.76-.09-1.11.07-.03-1.19.16-2.38.56-3.51h0Zm1.62,10.15c-.06-.53-.16-1.06-.29-1.58-.17-.35-.6-.36-.89-.57-.97-.67-1.02-2.23-1-3.29,0-.07,0-.16,0-.25h0v-.04c0-.07.01-.14.04-.21.2-.22.52-.28.79-.15.17.15.3.34.38.55.14.27.24.57.29.87.03.27.85.06.85-.23v-1.54c0-.59-.18-1.44.58-1.62.88-.21,1.79-.25,2.67-.49.99-.26,1.96-.6,2.9-1.02.44-.2.88-.42,1.29-.67.29-.23.69-.25,1-.05.68.35,1.25.86,1.67,1.5.86,1.27.79,2.71.79,4.17,0,.24.82.07.85-.17.04-.28.13-.56.25-.82.13-.29.24-.53.55-.6.47-.11.66.33.7.75,0,1.03.04,2.38-.71,3.21-.29.32-.75.32-1.04.63-.29.32-.23.81-.3,1.21-.36,1.94-1.63,3.58-3.43,4.41-2.13.87-4.57.4-6.23-1.19-.81-.77-1.41-1.73-1.72-2.81h0Zm8.13,4.34v1.58c-.07.22-.21.42-.38.57-.57.48-1.26.8-1.99.91-.81-.14-1.57-.49-2.2-1.01-.21-.17-.36-.4-.45-.65v-1.31c1.63.58,3.42.55,5.03-.09Zm-7.19,2.31c.18-.19.39-.34.63-.43.2-.08.41-.14.63-.17h.06s.01,0,.01,0c.11.25.27.46.47.64.6.5,1.33.85,2.1,1-.94.31-1.7.99-2.13,1.87-.38-.19-.74-.42-1.06-.71-.42-.36-.71-.84-.85-1.37-.11-.28-.06-.59.13-.82h0Zm-6.3,4.62c.81-2.24,2.88-3.78,5.26-3.91.02.2.07.4.14.59.1.28.25.55.45.78.35.42.78.76,1.26,1.02.28.15.57.28.87.38.15.05.72-.05.77-.24.18-.78.68-1.45,1.37-1.86.05-.03.1-.05.15-.08.03-.01.18-.08.14-.06.06-.02.12-.04.18-.06h0l.08-.02h.01s.03,0,.04,0c.09,0,.19.03.28.06.26.07.51.17.75.29.74.4,1.27,1.1,1.47,1.92.04.15.39.08.47.06.81-.25,1.55-.68,2.16-1.27.42-.4.71-.93.81-1.5,2.07.15,3.93,1.35,4.92,3.17.43.79,1.57,4.24-.02,4.42-.59.03-1.18.03-1.77,0h-3.6c-5.15,0-10.32.14-15.47,0-.51.06-.97-.3-1.05-.8-.12-.97,0-1.96.34-2.88h0Z"/>
    <path class="cls-4" d="m27.94.97c0-.22-.08-.44-.25-.59-.28-.19-.62-.27-.95-.23h-.81c-.52,0-1.18.3-1.19.9v.32h-3.86c-.07-.54-.44-1-.95-1.18-.67-.23-1.42-.03-1.89.51-.41.47-.47,1.15-.15,1.69.37.55,1.04.82,1.69.66.64-.12,1.14-.6,1.29-1.23h3.87c-.04.29,0,.6.13.86.21.26.53.39.86.36l-1.62,2.55c-.3.47-.6.94-.89,1.41-.17.23-.26.52-.24.81.05.28.2.54.41.73l1.35,1.44v1.76c-.01.21-.01.43,0,.64.06.3.29.54.59.6.14.03.29.04.43.03h1c.05,0,.11,0,.16-.01.45-.06.97-.31,1.02-.8,0-.14,0-.28,0-.42v-1.87l1.15-1.23c.18-.16.33-.35.47-.55.2-.34.19-.77-.03-1.11-.64-1.09-1.35-2.14-2.03-3.2l-.5-.78c.49-.04.89-.43.94-.92v-.24h3.88c.02.18.08.36.18.52.39.52,1.06.75,1.69.56.38-.08.73-.28.98-.57.21-.25.33-.57.32-.89-.02-.57-.4-1.06-.95-1.22-.7-.2-1.46.02-1.94.57-.12.14-.2.31-.25.49h-3.91v-.08c0-.09,0-.19,0-.28h0Zm-8.91-.21h-.03s.02,0,.03,0Zm.98,1.03s-.01.06-.02.09v.02s-.04.09-.06.13c-.01.03-.03.05-.04.08,0,.01,0,.01,0,.01,0,0,0,0,0,.01-.03.04-.06.08-.1.12l-.02.02s-.04.03-.04.04l-.05.04-.03.02h0s-.03.02-.03.02c0,0-.06.03-.08.03h-.02s-.05.02-.07.02c-.03,0-.05,0-.08,0-.01,0-.03,0-.04,0h-.05s-.05-.01-.08-.02c0,0,0,0,0,0h-.01s-.1-.04-.15-.06c0,0,0,0-.01,0,0,0,0,0-.01,0-.02-.01-.03-.02-.05-.03-.04-.03-.08-.06-.12-.09h0s0,0,0-.01c-.02-.03-.05-.05-.07-.08-.12-.15-.19-.33-.21-.51,0-.09,0-.19.02-.28,0,0,.01-.05.01-.06s0-.03.01-.04c.02-.06.05-.11.08-.17h0s.03-.05.05-.07c.03-.03.05-.06.08-.09,0,0,.07-.06.09-.07.01-.01.03-.02.04-.03.02,0,.04-.02.05-.02h.02s.05-.02.05-.02h.06s.05-.02.08-.02h.09s.06,0,.09.01c0,0,0,0,.01,0,0,0,0,0,.01,0,.03.01.06.02.09.03s.04.02.06.03.03.02.05.03c.05.03.1.07.15.11h.01s.04.05.05.07c.04.05.07.1.11.15,0,0,.02.04.03.05.01.02.02.05.03.07.02.06.04.12.05.18,0,.02,0,.04.01.06,0,.04,0,.04,0,.01v.07c0,.05,0,.11,0,.16h0Zm13.13-1.13h-.02s.01,0,.02,0h0Zm-.36.34s.06-.09.09-.13c.02-.02.03-.04.05-.06,0,0,0,0,0,0h.02s.06-.06.06-.06c0,0,.02-.02.03-.02l.03-.02s.03-.01.04-.02h0s.01,0,.02,0c.02,0,.03,0,.05-.01h0s.04,0,.05,0h.11s.06.02.09.03c.02,0,.02,0,.02,0s0,0,.02,0c.03.01.06.02.09.04.04.02.09.05.13.07.09.06.17.14.24.23.15.2.23.43.22.68,0,.2-.07.4-.19.56-.03.04-.06.08-.09.11l-.02.02s-.05.04-.07.06h0s-.05.03-.07.05l-.04.02h-.04s-.04.02-.04.02h-.14s-.08-.02-.12-.04c-.19-.07-.36-.2-.48-.36-.24-.34-.27-.78-.07-1.14h0Zm-7.14-.31h.02-.02Zm.06-.02s0,0,.01,0h-.01s0,0,0,0Zm-.11,1.33V.97c0-.08.02-.16.05-.23,0,0,.01-.02.02-.03l.02-.02h.43c.22,0,.44,0,.66,0,.02,0,.11.02.03,0h.04s.03.02.04.03c.07.04.13.1.16.17.04.08.05.16.05.25v.89c0,.09,0,.18,0,.27,0,.02,0,.04,0,.06,0,0-.03.09-.01.05-.01.02-.02.05-.04.07v.02s-.03.01-.03.01h-.38c-.15-.07-.33-.07-.48,0h-.2s-.14-.02-.06,0h-.05s-.01-.02-.02-.02c-.03-.02-.06-.04-.09-.06-.07-.06-.11-.14-.13-.23-.01-.06-.01-.13-.01-.19h0Zm.33,10.53s-.01,0-.02,0c-.04-.01-.08-.03-.11-.05-.1-.08-.17-.19-.19-.32-.02-.21-.02-.41,0-.62v-1.48h1.5v2.21s0,0,0,0v.02c0,.09-.04.17-.09.24h-1.08,0Zm1.08,0,.72-6.79c.31.49.63.99.94,1.48.09.11.15.24.19.38.04.3-.19.48-.37.67l-1.23,1.31h-1.73c-.37-.4-.74-.8-1.12-1.2-.31-.33-.73-.65-.46-1.13.6-1.06,1.31-2.08,1.97-3.11v2.76c0,.45.86.33.86-.06v-2.6l.94,1.49Z"/>
    <path class="cls-4" d="m34.35,21.46c.44-.72.66-1.54.65-2.38,0-.02,0-.03-.01-.04,0-.01,0-.02,0-.03-.22-2.5-2.42-4.35-4.91-4.13-2.5.22-4.35,2.42-4.13,4.91.02.23.06.45.11.68.42,1.51,1.92,2.33,2.16,3.91.04.39.06.78.04,1.16-.05.39-.03.79.08,1.17.11.2.29.34.51.4v.85c0,.14,0,.28.02.42.05.28.2.54.41.73.28.23.64.35,1,.34.75.03,1.44-.42,1.73-1.11.04-.17.06-.35.05-.52v-.76c.21-.08.38-.23.49-.42.14-.41.17-.85.11-1.29-.04-.6.04-1.2.22-1.78.32-.84,1.02-1.37,1.48-2.11Zm-6.4.53c-1.65-1.78-1.59-4.75.62-6.08,2.48-1.5,5.4.61,5.57,3.28.01.65-.13,1.3-.41,1.88-.35.54-.74,1.05-1.17,1.53-.37.51-.6,1.1-.69,1.73h-2.79c-.12-.88-.51-1.7-1.13-2.33h0Zm3.84,3.32c0,.32,0,.64,0,.95,0,.41-.04.33-.39.33h-1.07c-.28.03-.56.03-.83,0-.61-.16-.37-1.27-.37-1.75,0-.03,0-.07,0-.1h2.7c-.02.19-.02.38-.02.57h0Zm-.73,3.39c-.04.07-.09.13-.15.19l-.02.02-.04.03s-.06.04-.07.05c-.04.02-.1.05-.02.01l-.05.02h-.03s-.06,0-.06,0h0s-.06,0-.09-.01c-.02,0-.03,0-.05-.01-.04-.01-.08-.02-.12-.04-.11-.04-.21-.11-.3-.19-.19-.17-.32-.41-.35-.67-.03-.3-.03-.61-.01-.91.28,0,.56-.03.76-.03.22,0,.48.02.73.02v.91c0,.21-.04.42-.14.61h0Z"/>
    <path class="cls-4" d="m29.12,19.21c0-.11.01-.23.03-.34,0-.05.02-.09.03-.14,0-.01.01-.04.01-.05,0-.03.02-.05.03-.08.02-.05.04-.1.07-.15.01-.02.06-.14.08-.14l-.03.04.03-.04s.03-.04.05-.06c.03-.04.07-.08.11-.12.01-.01.03-.03.05-.05h0s.08-.07.13-.1l.07-.04s.09-.05.14-.07l.05-.02h.01s.1-.03.15-.04h-.01.02s.02,0,.03,0h.04c.06-.01.11-.01.17-.01.12,0,.23-.05.32-.12.08-.05.13-.13.15-.22.01-.22-.22-.27-.39-.27-1.18,0-2.16.92-2.23,2.1,0,.2.21.29.39.27.12,0,.23-.05.32-.12.06-.05.15-.13.15-.22h0Z"/>
    <path class="cls-4" d="m30.16,17.8c.07,0,.07,0,.04,0-.01,0-.02,0-.03,0h0Z"/>
  </g>
</svg>