<?xml version="1.0" encoding="UTF-8"?>
<svg id="Layer_1" data-name="Layer 1" xmlns="http://www.w3.org/2000/svg" viewBox="0 0 35 35">
  <defs>
    <style>
      .cls-1 {
        fill: #f47721;
      }

      .cls-1, .cls-2, .cls-3 {
        stroke-width: 0px;
      }

      .cls-3 {
        fill: #c1dbf0;
      }
    </style>
  </defs>
  <path class="cls-3" d="m21.83,34.1c-.1,0-.19-.05-.25-.13-.09-.13-.05-.31.07-.4l3.64-2.65-5.16,2.98c-.13.07-.29.04-.38-.08-.09-.12-.08-.28.03-.39l.67-.66-.33.19c-.1.06-.23.05-.32-.02-.09-.07-.14-.19-.11-.31l.16-.61c-.05-.02-.1-.07-.13-.12-.08-.14-.03-.32.11-.4l.29-.17c.1-.06.23-.05.32.02.09.07.14.19.11.31l-.11.45,1.73-1c.13-.07.29-.04.38.08.09.12.08.28-.03.39l-.67.66,7.95-4.59c.13-.08.31-.04.39.09s.05.31-.07.4l-3.64,2.65,2.14-1.24c.13-.08.31-.04.39.09.09.13.05.31-.07.4l-1.67,1.23s.06.06.09.09c.08.14.03.32-.11.4l-2.99,1.73c-.13.08-.31.04-.39-.09-.09-.13-.05-.31.07-.4l.46-.34-2.42,1.4s-.1.04-.15.04h0Z"/>
  <path class="cls-3" d="m26.97,28.63c-.09,0-.18-.04-.24-.12-.09-.12-.07-.29.04-.39l1.92-1.75-.47.27c-.13.07-.29.04-.38-.07-.09-.12-.08-.28.02-.38l1.38-1.41-.58.34c-.13.08-.3.04-.38-.08-.09-.12-.07-.29.04-.39l.38-.34c-.11.03-.23,0-.3-.1-.09-.11-.08-.28.02-.38l.92-.96-.53.31c-.12.07-.28.04-.38-.07-.09-.11-.09-.28.01-.38l.44-.48-.08.04c-.1.06-.23.05-.33-.02-.09-.07-.13-.2-.1-.31l.14-.47s-.09-.06-.11-.11c-.08-.14-.03-.32.11-.4l.3-.17c.11-.06.24-.05.33.02.09.08.13.2.1.31l-.08.27,1.08-.62c.12-.07.28-.04.38.07.09.11.09.28-.01.38l-.44.48.67-.38c.13-.07.29-.04.38.07.09.11.08.28-.02.38l-.92.96.56-.32c.13-.08.3-.04.38.08.09.12.07.29-.04.39l-.34.31c.13-.07.29-.04.38.08.09.12.08.28-.02.38l-1.38,1.41.93-.54c.13-.08.29-.04.38.08.09.12.07.29-.04.39l-1.92,1.75,1.26-.73c.14-.08.32-.03.4.11.08.14.03.32-.11.4l-3.59,2.07s-.1.04-.15.04h0Z"/>
  <path class="cls-3" d="m30.05,14.26c-.07,0-.14-.03-.2-.08-.09-.09-.12-.23-.06-.34l.39-.79-1.39.8c-.12.07-.28.04-.37-.07-.09-.11-.09-.27,0-.38l.91-1.05-.63.36c-.13.08-.29.04-.38-.08-.09-.12-.07-.29.04-.39l.14-.13c-.1.01-.2-.02-.26-.09-.09-.1-.1-.26-.02-.37l.91-1.23-.82.47c-.12.07-.28.04-.37-.07-.09-.11-.09-.27,0-.38l.61-.71-.54.31c-.12.07-.27.05-.36-.06-.09-.1-.1-.25-.03-.36l.78-1.13-.88.51c-.12.07-.27.05-.36-.06-.09-.1-.1-.25-.02-.37l.69-.98-.84.49c-.12.07-.27.05-.36-.06-.09-.1-.1-.25-.03-.37l.65-.94-.89.51c-.12.07-.28.04-.37-.07-.09-.11-.09-.27,0-.38l.44-.52-.6.35c-.12.07-.28.04-.37-.06s-.1-.26,0-.37l.49-.62-.74.43c-.12.07-.28.04-.37-.06-.09-.11-.09-.27,0-.37l.46-.57-.76.44c-.12.07-.28.04-.37-.07-.09-.11-.09-.27,0-.38l.33-.37-.61.35c-.11.07-.26.05-.35-.05s-.11-.24-.05-.35l.61-1.07-1.36.79c-.12.07-.28.04-.38-.07-.09-.11-.08-.28.01-.38l.29-.32-.71.41c-.12.07-.27.05-.37-.06-.09-.1-.1-.26-.02-.37l.56-.75-1.33.77c-.12.07-.27.05-.36-.06-.09-.1-.1-.25-.02-.37l.63-.89-1.71.99c-.12.07-.29.04-.38-.07s-.08-.28.02-.38l.49-.52-1.48.86c-.12.07-.28.04-.38-.07-.09-.11-.09-.28.01-.38l.66-.73-2.24,1.29c-.13.08-.3.04-.39-.09-.09-.12-.07-.3.05-.39l.27-.23-2.27,1.31c-.14.08-.32.03-.4-.11-.08-.14-.03-.32.11-.4L18.56.3c.13-.08.3-.04.39.09s.07.3-.05.39l-.27.23.99-.57c.12-.07.28-.04.38.07.09.11.09.28-.01.38l-.66.73,1.56-.9c.12-.07.29-.04.38.07s.08.28-.02.38l-.49.52,1.14-.66c.12-.07.27-.05.36.06.09.1.1.25.02.37l-.63.89,1.42-.82c.12-.07.27-.04.37.06.09.1.1.26.02.37l-.56.75,1.16-.67c.12-.07.28-.04.38.07.09.11.08.28-.01.38l-.29.32.61-.35c.11-.07.26-.05.35.05s.11.24.05.35l-.61,1.07,1.24-.72c.12-.07.28-.04.37.07.09.11.09.27,0,.38l-.33.37.56-.32c.12-.07.28-.04.37.06.09.11.09.27,0,.38l-.46.57.71-.41c.12-.07.28-.04.37.06.09.11.1.26,0,.37l-.49.62.7-.41c.12-.07.28-.04.37.07s.09.27,0,.38l-.44.52.58-.33c.12-.07.27-.05.36.06.09.1.1.25.03.37l-.65.94.87-.5c.12-.07.27-.05.36.06.09.1.1.25.02.37l-.69.97.84-.49c.12-.07.27-.05.36.06.09.1.1.25.03.36l-.78,1.13.89-.52c.12-.07.28-.04.37.07.09.11.09.27,0,.38l-.61.71.57-.33c.12-.07.27-.05.37.06.09.1.1.26.02.37l-.91,1.23.87-.5c.13-.07.29-.04.38.08s.07.29-.04.39l-.12.11c.1-.02.22.01.29.1.09.11.09.27,0,.38l-.91,1.05.72-.41c.11-.06.25-.05.35.04.09.09.12.23.06.34l-.39.79.07-.04c.14-.08.32-.03.4.11.08.14.03.32-.11.4l-.9.52s-.1.04-.15.04h0Z"/>
  <path class="cls-3" d="m5.27,14.26c-.08,0-.15-.03-.21-.09-.09-.1-.11-.24-.04-.36l.64-1.04-1.47.85c-.13.08-.3.04-.39-.09-.09-.12-.07-.3.05-.39l.24-.2c-.09-.01-.19-.04-.24-.12-.09-.12-.08-.29.03-.39l1.36-1.31-.83.48c-.13.08-.3.04-.39-.09-.09-.13-.06-.3.06-.4l.36-.29c-.09,0-.18-.05-.24-.13-.09-.13-.06-.3.07-.4l.47-.36c-.11,0-.21-.04-.27-.13-.09-.13-.05-.31.07-.4l.51-.37c-.1,0-.19-.05-.25-.14-.08-.14-.04-.31.09-.4l1.51-.96-.71.41c-.14.08-.31.04-.4-.1s-.05-.31.09-.4l3.14-2.09-1.93,1.11c-.13.08-.3.04-.39-.09s-.06-.3.06-.39l2.93-2.3c-.12.03-.26-.02-.33-.14-.08-.14-.03-.32.11-.4l3.41-1.97c.13-.08.3-.04.39.09.09.13.06.3-.06.39l-2.87,2.26L16.14.3c.14-.08.31-.04.4.1.08.13.05.31-.09.4l-3.14,2.1L17.88.26c.14-.08.32-.03.4.1.08.14.04.31-.09.4l-8.42,5.36c.04.12,0,.25-.11.33l-1.17.85s.09.06.12.1c.09.13.06.3-.07.4l-.8.61c.07.02.13.06.17.12.09.13.06.3-.06.4l-.58.45c.06.02.12.05.17.11.09.12.08.29-.03.39l-1.36,1.31.52-.3c.13-.08.3-.04.39.09.09.12.07.3-.05.39l-.34.28c.07,0,.13.04.18.09.09.1.11.24.04.36l-.64,1.04.1-.05c.14-.08.32-.03.4.11.08.14.03.32-.11.4l-1.1.64s-.1.04-.15.04h0Z"/>
  <path class="cls-1" d="m3.52,21.29c-.07,0-.13-.02-.19-.07-.09-.08-.13-.21-.09-.32l.21-.58-1.27.73c-.13.07-.29.04-.38-.07-.09-.11-.08-.28.02-.38l.54-.56-1.2.69c-.13.07-.29.04-.38-.07-.09-.12-.08-.28.02-.38l1.47-1.49-1.63.94c-.13.08-.3.04-.39-.09-.09-.12-.06-.3.05-.39l.91-.76-.58.33c-.13.08-.3.04-.38-.08-.09-.12-.07-.29.04-.39l1.42-1.28-1.08.62c-.13.08-.3.04-.39-.09-.09-.13-.06-.3.06-.39l.4-.32-.07.04c-.13.08-.3.04-.39-.09s-.06-.3.06-.39l.49-.4-.15.09c-.12.07-.28.04-.37-.06s-.1-.26-.01-.37l.39-.51c-.1,0-.2-.05-.25-.15-.08-.14-.03-.32.11-.4l1.07-.62c.12-.07.28-.04.37.06.09.11.1.26.01.37l-.33.42,1.98-1.14c.13-.08.3-.04.39.09s.06.3-.06.39l-.49.4.37-.21c.13-.08.3-.04.39.09.09.13.06.3-.06.39l-.4.32.07-.04c.13-.08.3-.04.38.08.09.12.07.29-.04.39l-1.42,1.28,1.08-.62c.13-.08.3-.04.39.09.09.12.06.3-.05.39l-.91.76.58-.33c.13-.07.29-.04.38.07.09.12.08.28-.02.38l-1.47,1.49,1.12-.64c.13-.07.29-.04.38.07.09.11.08.28-.02.38l-.54.56.18-.1c.11-.06.24-.05.33.03.09.08.13.21.09.32l-.24.67c.09.01.17.06.22.14.08.14.03.32-.11.4l-.48.28s-.1.04-.15.04h0Z"/>
  <path class="cls-1" d="m5.07,22.46c-.09,0-.17-.04-.23-.11-.09-.11-.09-.28.01-.38l1.14-1.23-2.53,1.46c-.13.08-.3.04-.38-.08-.09-.12-.07-.29.04-.39l2.1-1.88-2.22,1.28c-.13.08-.3.04-.39-.08s-.07-.29.05-.39l2.26-1.94-1.92,1.11c-.13.08-.31.04-.39-.09-.09-.13-.05-.3.07-.4l.42-.31-.1.06c-.13.08-.31.04-.39-.09-.09-.13-.05-.3.07-.4l.42-.31-.1.06c-.13.08-.3.04-.39-.09s-.07-.29.05-.39l2.13-1.8-1.8,1.04c-.13.08-.3.04-.38-.08-.09-.12-.07-.29.04-.39l2.05-1.81-1.71.99c-.13.08-.3.04-.39-.08s-.07-.29.05-.39l.78-.67-.44.25c-.12.07-.26.05-.36-.05-.09-.1-.11-.24-.04-.36l.53-.85c-.13.05-.29,0-.36-.13-.08-.14-.03-.32.11-.4l.97-.56c.12-.07.26-.05.36.05.09.1.11.24.04.36l-.52.84,2.17-1.25c.13-.08.3-.04.39.08.09.12.07.29-.05.39l-.78.66,1.5-.87c.13-.08.3-.04.38.08.09.12.07.29-.04.39l-2.05,1.81,2.12-1.22c.13-.08.3-.04.39.09s.07.29-.05.39l-2.13,1.8,1.8-1.04c.13-.08.31-.04.39.09.09.13.05.3-.07.4l-.42.31.1-.06c.13-.08.31-.04.39.09.09.13.05.3-.07.4l-.42.31.1-.06c.13-.08.3-.04.39.08.09.12.07.29-.05.39l-2.26,1.94,1.92-1.11c.13-.08.3-.04.38.08.09.12.07.29-.04.39l-2.1,1.88,1.75-1.01c.12-.07.29-.04.38.07s.09.28-.01.38l-1.14,1.23.77-.45c.12-.07.28-.04.37.06.09.11.09.27,0,.38l-.31.38c.07.02.13.07.17.13.08.14.03.32-.11.4l-.97.56c-.12.07-.28.04-.37-.06-.09-.11-.09-.27,0-.38l.14-.18-1.07.62s-.1.04-.15.04h0Z"/>
  <path class="cls-1" d="m31.03,21.31c-.09,0-.18-.04-.24-.12-.09-.12-.07-.29.04-.39l1.47-1.34-1.15.66c-.13.08-.3.04-.39-.09s-.06-.3.06-.39l.7-.57-.36.21c-.13.08-.3.04-.38-.08-.09-.12-.07-.29.05-.39l1.22-1.07-.88.51c-.13.08-.29.04-.38-.08-.09-.12-.07-.29.04-.39l1.41-1.31-1.07.62c-.12.07-.28.04-.37-.06-.09-.11-.09-.27,0-.38l1.1-1.33-.73.42c-.1.06-.22.05-.32-.02-.09-.07-.14-.18-.12-.3l.19-.98c-.07-.02-.12-.07-.16-.13-.08-.14-.03-.32.11-.4l.29-.17c.1-.06.22-.05.32.02.09.07.14.18.12.3l-.17.85,1.59-.92c.12-.07.28-.04.37.06.09.11.09.27,0,.38l-1.1,1.33,1.92-1.11c.13-.08.29-.04.38.08s.07.29-.04.39l-1.41,1.31,1.22-.7c.13-.08.3-.04.38.08.09.12.07.29-.05.39l-1.22,1.07.88-.51c.13-.08.3-.04.39.09s.06.3-.06.39l-.69.57.36-.21c.13-.07.3-.04.38.08.09.12.07.29-.04.39l-1.47,1.34,1.12-.65c.13-.08.29-.04.38.08.09.12.08.28-.03.39l-.3.3c.12-.02.25.03.31.14.08.14.03.32-.11.4l-1.88,1.08c-.13.07-.29.04-.38-.08-.09-.12-.08-.28.03-.39l.26-.25-1.45.83s-.1.04-.15.04Z"/>
  <path class="cls-1" d="m30.05,22.46c-.09,0-.17-.04-.23-.11-.09-.11-.09-.28.01-.38l.78-.84-2.16,1.25c-.13.08-.3.04-.38-.08-.09-.12-.07-.29.04-.39l1.64-1.45-2.06,1.19c-.13.08-.3.04-.39-.09-.09-.12-.07-.29.05-.39l2.11-1.79-1.83,1.06c-.13.08-.3.04-.39-.09-.09-.13-.06-.3.06-.39l1.61-1.28-1.28.74c-.13.08-.3.04-.39-.08s-.07-.29.05-.39l2.25-1.93-1.92,1.11c-.13.08-.3.04-.39-.09-.09-.12-.06-.3.05-.39l1.99-1.65-1.65.95c-.13.08-.31.04-.39-.09s-.05-.31.07-.4l.21-.15c-.1.01-.22-.03-.28-.13-.09-.13-.06-.3.07-.4l.27-.21c-.12.04-.26,0-.33-.1-.09-.12-.07-.29.04-.39l.65-.58-.31.18c-.12.07-.27.05-.36-.06-.09-.1-.1-.26-.02-.37l.4-.55c-.1,0-.19-.05-.25-.15-.08-.14-.03-.32.11-.4l.97-.56c.12-.07.27-.05.36.06.09.1.1.26.02.37l-.34.47,1.55-.89c.13-.08.3-.04.38.08.09.12.07.29-.04.39l-.65.58,1.6-.92c.13-.08.31-.04.39.09.09.13.06.3-.07.4l-.24.18.39-.22c.13-.08.31-.04.39.09s.05.31-.07.4l-.1.07c.12-.03.25,0,.32.11.09.12.06.3-.05.39l-1.99,1.65,1.65-.95c.13-.08.3-.04.39.08.09.12.07.29-.05.39l-2.25,1.93,1.92-1.11c.13-.08.3-.04.39.09.09.13.06.3-.06.39l-1.61,1.28,1.28-.74c.13-.08.3-.04.39.09.09.12.07.29-.05.39l-2.11,1.79,1.77-1.02c.13-.08.3-.04.38.08.09.12.07.29-.04.39l-1.64,1.45,1.3-.75c.12-.07.29-.04.38.07.09.11.09.28-.01.38l-.78.84.42-.24c.14-.08.32-.03.4.11.08.14.03.32-.11.4l-2.1,1.21s-.1.04-.15.04h0Z"/>
  <path class="cls-1" d="m16.12,34.78c-.09,0-.19-.05-.24-.13-.09-.13-.06-.3.06-.39l.71-.56-1.52.87c-.13.08-.31.04-.39-.09-.09-.13-.06-.3.07-.4l.56-.42-.81.47c-.13.08-.3.04-.38-.08-.09-.12-.07-.29.04-.39l1.04-.92-1.08.62c-.12.07-.27.05-.36-.06-.09-.1-.1-.26-.02-.37l.7-.97h-.02c-.14.09-.32.04-.4-.1-.08-.14-.03-.32.11-.4l1.2-.69c.12-.07.27-.05.36.06.09.1.1.26.02.37l-.7.97,2.45-1.41c.13-.08.3-.04.38.08.09.12.07.29-.04.39l-1.04.92,2.25-1.3c.13-.08.31-.04.39.09.09.13.06.3-.07.4l-.55.42.89-.51c.13-.08.3-.04.39.09.09.13.06.3-.06.39l-.71.57.79-.45c.12-.07.28-.04.37.06.09.11.09.27,0,.38l-.95,1.15.6-.34c.14-.08.32-.03.4.11.08.14.03.32-.11.4l-2,1.15c-.12.07-.28.04-.37-.06-.09-.11-.09-.27,0-.38l.95-1.15-2.76,1.59s-.1.04-.15.04h0Z"/>
  <g>
    <path class="cls-3" d="m22.49,25.69c-.09,0-.18-.04-.24-.12-.09-.12-.07-.29.05-.39l.68-.59-1.03.59c-.13.08-.3.04-.39-.09-.09-.12-.06-.3.05-.39l.77-.64-1.47.85c-.14.08-.32.03-.4-.11-.08-.14-.03-.32.11-.4l4.38-2.53c.13-.08.3-.04.39.09s.06.3-.05.39l-.77.64.78-.45c.13-.08.3-.04.39.08.09.12.07.29-.05.39l-.75.65c.12-.02.25.03.31.14.08.14.03.32-.11.4l-2.5,1.44s-.1.04-.15.04h0Z"/>
    <path class="cls-3" d="m25.44,20.06c-.1,0-.2-.05-.25-.15-.08-.14-.03-.32.11-.4l1.81-1.05c.14-.08.32-.03.4.11.08.14.03.32-.11.4l-1.81,1.05s-.1.04-.15.04Z"/>
    <path class="cls-3" d="m20.59,20.53c-.1,0-.19-.05-.25-.13-.09-.13-.05-.31.08-.4l1.65-1.19-.52.3c-.13.08-.3.04-.39-.09-.09-.13-.06-.3.06-.39l1.49-1.2-.93.54c-.13.08-.3.04-.39-.09s-.06-.3.06-.39l.47-.38-.17.1c-.13.08-.3.04-.38-.08-.09-.12-.07-.29.04-.39l.9-.8-.76.44c-.13.08-.3.04-.38-.08-.09-.12-.07-.29.04-.39l1.9-1.71-2.07,1.19c-.13.08-.3.04-.39-.09-.09-.12-.07-.3.05-.39l1.82-1.54-2.17,1.25c-.13.08-.3.04-.39-.09-.09-.13-.06-.3.06-.39l1.43-1.14-1.88,1.09c-.13.08-.31.04-.39-.09-.09-.13-.05-.3.07-.4l.62-.45-1.08.63c-.13.08-.3.04-.39-.09-.09-.12-.07-.29.05-.39l2.15-1.83-3.91,2.26c-.14.08-.32.03-.4-.11-.08-.14-.03-.32.11-.4l6.69-3.87c.13-.08.3-.04.39.09.09.12.07.29-.05.39l-2.15,1.83,2.87-1.66c.13-.08.31-.04.39.09.09.13.05.3-.07.4l-.62.46.78-.45c.13-.08.3-.04.39.09.09.13.06.3-.06.39l-1.43,1.13,1.58-.91c.13-.08.3-.04.39.09.09.12.07.3-.05.39l-1.82,1.54,1.62-.94c.13-.08.3-.04.38.08.09.12.07.29-.04.39l-1.9,1.71.84-.48c.13-.08.3-.04.38.08.09.12.07.29-.04.39l-.9.8.87-.5c.13-.08.3-.04.39.09.09.13.06.3-.06.39l-.47.38.98-.56c.13-.08.3-.04.39.09s.06.3-.06.39l-1.49,1.2,2.31-1.33c.13-.08.31-.04.39.09.09.13.05.31-.08.4l-1.64,1.19,1.65-.95c.14-.08.32-.03.4.11.08.14.03.32-.11.4l-6.69,3.86s-.1.04-.15.04h0Z"/>
    <path class="cls-3" d="m17.92,27.7c-.09,0-.17-.04-.23-.11-.09-.11-.08-.28.02-.38l.43-.46-1.43.83c-.13.08-.31.04-.39-.09-.09-.13-.05-.31.07-.4l3.61-2.62-4.37,2.52c-.13.08-.31.04-.39-.1-.08-.13-.05-.31.08-.4l4.52-3.22-4.43,2.55c-.14.08-.31.04-.4-.1-.08-.14-.04-.31.09-.4l.59-.38-.49.28c-.14.08-.31.04-.4-.1-.08-.13-.05-.31.08-.4l5.44-3.68-8.1,4.68c-.13.08-.31.04-.39-.09-.09-.13-.05-.3.07-.4l1.08-.8-1.61.93c-.13.08-.3.04-.39-.09-.09-.13-.06-.3.06-.39l1.75-1.4-2.19,1.26c-.13.08-.31.04-.39-.09-.09-.13-.05-.31.07-.4l.36-.26-.46.26c-.13.08-.31.04-.39-.09s-.06-.3.07-.4l.75-.57-.79.45c-.13.08-.3.04-.39-.08-.09-.12-.07-.29.05-.39l2-1.74-1.42.82c-.13.08-.3.04-.39-.09s-.06-.3.06-.39l.84-.69-.05.03c-.13.07-.29.04-.38-.07-.09-.12-.08-.28.02-.39l1.46-1.48-1.54.89c-.13.08-.3.04-.39-.09-.09-.13-.06-.3.06-.39l.69-.57-1.49.86c-.13.08-.3.04-.39-.09-.09-.13-.06-.3.07-.4l1.36-1.04-1.9,1.1c-.14.08-.31.04-.39-.1s-.05-.31.08-.4l.1-.07h0c-.14.09-.31.04-.4-.1-.08-.14-.04-.31.09-.4l2.61-1.68-2.45,1.41c-.14.08-.31.04-.4-.1-.08-.14-.04-.31.09-.4l.83-.53-.53.31c-.12.07-.27.05-.36-.05-.09-.1-.11-.25-.03-.36l.56-.87c-.09-.01-.17-.06-.22-.14-.08-.14-.03-.32.11-.4l.8-.46c.12-.07.27-.05.36.05.09.1.11.25.03.36l-.49.76,11.32-6.53c.14-.08.32-.03.4.1s.04.31-.09.4l-.83.53,1.29-.74c.14-.08.31-.03.4.1.08.14.04.31-.09.4l-6.33,4.07s.03.04.05.06c.08.13.05.31-.08.4l-.77.53c.08.01.15.06.2.13.09.13.06.3-.07.4l-1.36,1.04.74-.43c.13-.08.3-.04.39.09.09.13.06.3-.06.39l-.69.57.34-.2c.13-.07.29-.04.38.07s.08.28-.02.39l-1.46,1.48,1.37-.79c.13-.08.3-.04.39.09.09.13.06.3-.06.39l-.84.69.85-.49c.13-.08.3-.04.39.08.09.12.07.29-.05.39l-2.01,1.75,2.37-1.37c.13-.08.31-.04.39.09.09.13.06.3-.07.4l-.75.57,1.03-.59c.13-.08.31-.04.39.09s.05.31-.07.4l-.36.26.71-.41c.13-.08.3-.04.39.09.09.13.06.3-.06.39l-1.75,1.41,2.75-1.59c.13-.08.31-.04.39.09.09.13.05.3-.07.4l-1.08.8,10.84-6.26c.14-.08.31-.04.4.1.08.13.05.31-.08.4l-5.44,3.68,5.2-3c.14-.08.32-.04.4.1.08.14.04.31-.09.4l-2.51,1.6c.06.02.12.06.16.12.08.13.05.31-.08.4l-4.52,3.22,3.88-2.24c.13-.08.31-.04.39.09.09.13.05.31-.07.4l-4.91,3.58s.04.04.06.06c.09.11.08.28-.02.38l-.45.48c.12-.04.27.01.34.13.08.14.03.32-.11.4l-1.67.97s-.1.04-.15.04h0Z"/>
    <path class="cls-3" d="m15.27,9.68c-.08,0-.16-.03-.22-.1-.09-.1-.1-.26-.01-.37l.46-.61c-.12.02-.24-.04-.3-.14-.08-.14-.03-.32.11-.4l1.12-.65c.12-.07.27-.05.37.06.09.1.1.26.01.37l-.43.57,1.78-1.03c.14-.08.32-.03.4.11.08.14.03.32-.11.4l-3.03,1.75s-.1.04-.15.04Z"/>
    <path class="cls-3" d="m10.05,15.23c-.1,0-.19-.05-.25-.14-.08-.13-.05-.31.09-.4l1.74-1.16-.99.57c-.13.08-.3.04-.39-.08-.09-.12-.07-.29.05-.39l2.04-1.77-2.31,1.33c-.13.07-.29.04-.38-.07-.09-.12-.08-.28.02-.39l1.49-1.5-1.45.84c-.13.08-.3.04-.38-.08-.09-.12-.07-.29.04-.39l.95-.85c-.05-.02-.1-.06-.13-.12-.08-.14-.03-.32.11-.4l1.7-.98c.13-.08.3-.04.38.08.09.12.07.29-.04.39l-.5.45.92-.53c.13-.07.29-.04.38.07.09.12.08.28-.02.39l-1.49,1.5,3.09-1.78c.13-.08.3-.04.39.08.09.12.07.29-.05.39l-2.04,1.77,6.42-3.71c.14-.08.31-.04.4.1.08.13.05.31-.09.4l-1.75,1.16,1.57-.91c.14-.08.32-.03.4.11.08.14.03.32-.11.4l-9.68,5.59s-.1.04-.15.04h0Z"/>
  </g>
  <path class="cls-2" d="m33.56,14.07c-.33-.08-.67-.17-1-.25-.03-.61-.5-1.18-1.21-1.23-1.77-16.36-25.85-16.15-27.69.03-.61.15-1.18.61-1.24,1.27C-.48,14.01.05,16.45.06,18.56c-.32,1.89.74,2.36,2.38,2.62.15,1.76,2.41,1.16,3.64,1.25,1.62.06,2.05-1.38,1.87-2.73.5.19,1.09.18,1.6.3.37.78.78,1.31.03,1.92-1.29,1.25.34,2.93,1.53,3.53,1.06.51,1.84-.05,2.65-.66.31.16.64.27.97.38.06,1.43.49,2.48,2.12,2.45,1.7.21,3.64-.48,3.41-2.53.24-.08.48-.19.7-.3,1.14,1.41,2.91.92,3.98-.27.62-.62,1.34-1.57.76-2.4-.83-.84-.86-1.13-.25-2.18.54-.09,1.12-.12,1.61-.38.04,1.06-.29,2.63,1.17,2.82.51,4.56-3.07,9.27-7.86,9.03-1.46-1.13-3.94-.73-5.64-.35-1.91.86-1.24,3.76.85,3.68,1.49-.13,3.22.39,4.51-.54,6.4.22,11.93-5.48,11.34-11.89.58-.18,1.02-.6,1.14-1.23,1.24-.17,2.66-.72,2.38-2.22-.25-1.57.88-4.45-1.37-4.77h0ZM12.17,1.82c7.84-3.66,17.57,2.22,18.29,10.76-.49.01-.98,0-1.48,0-1.65-13.24-21.13-13.09-22.95-.03-.51,0-1.02,0-1.53,0,.5-4.63,3.37-8.82,7.67-10.73h0Zm14.93,11.85c-.13.51-.04,1.06-.06,1.59-.5-.19-1.12-.16-1.6-.26-.63-1.49-.65-1.25.37-2.49.67-1.24-1.44-2.97-2.49-3.19-.78-.16-1.48.39-2.1.87-.31-.16-.63-.26-.97-.37-.06-1.43-.49-2.48-2.12-2.45-1.7-.21-3.64.48-3.41,2.53-.24.08-.48.19-.7.3-1.14-1.41-2.91-.92-3.98.27-.62.62-1.34,1.57-.76,2.4.82.84.86,1.13.26,2.17-.55.06-1.15.13-1.61.4,0-1.04.25-2.57-1.09-2.84C8.47-.08,26.54.2,28.12,12.72c-.46.16-.86.46-1.02.94ZM.91,18.74c.23-1.57-.89-4.39,1.49-4.49,0,2.14,0,4.27,0,6.41-1.11-.08-1.66-.87-1.5-1.92Zm5.6,3.2c-1.28-.02-3.54.47-3.25-1.51.31-1.72-.72-6.52.58-7.38,1.52.04,3.61-.55,3.27,1.73-.29,1.51.68,6.64-.59,7.16h0Zm20.29-2.94c-.23,1.05-1.67.29-2.17.96,0,.4-.41.97-.55,1.32.6.8,1.45,1.66.62,2.64-.43.58-1.27,1.74-2.06,1.2-.86-.64-1.28-1.1-2.3-.4-.12.05-.63.15-.2.15-1.78.09.38,3.05-3.1,2.35-1.64-.12-1.03-1.57-1.61-2.35-.33,0-.89-.36-1.2-.52-1.95.13-1.4,2.24-3.72-.34-1.07-1.03-.31-2.04.41-2.96-.73-1.44-.33-1.37-2.02-1.59-1.3-.5-1.2-3.1-.43-3.94,2.08-.51,1.48.3,2.44-1.81-.6-.8-1.45-1.66-.62-2.64.43-.58,1.27-1.74,2.06-1.2.86.64,1.28,1.1,2.3.4.12-.05.63-.15.2-.15,1.24.1.51-1.5,1.15-2.09.45-.44,1.38-.37,1.94-.26,1.3.08,1.33,1.29,1.46,2.29,1.9.69,1.38.96,3.13-.32,1.09-.08,3.04,1.91,2.32,3.06-1.04,1.15-.65,1.19-.25,2.46,2.41.02,2.81,1.67,2.17,3.74Zm-8.31,15.28c-1.39-.12-3.64.58-4.05-1.3-.13-.64.14-1.44.78-1.71,1.47.03,3.93-.73,4.68.98.38.96-.31,2.21-1.41,2.03h0Zm9.73-4.29c-1.93,2.34-4.66,3.52-7.64,3.63.35-.56.38-1.35.01-1.92,4.83-.1,8.95-4.41,8.48-9.3.5,0,1,0,1.49,0,.13,2.71-.56,5.49-2.34,7.59h0Zm3.01-8.07c-3.61.36-3.44-.27-3.34-3.58.24-1.52-.56-4.14.42-5.3.75-.05,1.53-.06,2.29-.04.86-.01,1.17.72,1.13,1.5-.31,1.89.68,6.21-.51,7.41h0Zm2.76-1.87c-.26.59-.88.53-1.4.7,0-2.15,0-4.3,0-6.45,1.1.09,1.65.89,1.49,1.94-.09,1.25.18,2.59-.1,3.81h0Z"/>
  <path class="cls-2" d="m19.01,13.38c-7.27-1.78-8.3,9.48-.63,8.27,4.31-.68,4.96-7.08.63-8.27Zm-.29,7.88c-5.93,1.57-6.66-8.77-.46-7.55,3.53.87,3.94,6.33.46,7.55Z"/>
</svg>