<?xml version="1.0" encoding="UTF-8"?>
<svg id="Layer_1" data-name="Layer 1" xmlns="http://www.w3.org/2000/svg" viewBox="0 0 35 35">
  <defs>
    <style>
      .cls-1 {
        fill: #f47721;
      }

      .cls-1, .cls-2, .cls-3, .cls-4 {
        stroke-width: 0px;
      }

      .cls-3 {
        fill: #fff;
      }

      .cls-4 {
        fill: #c1dbf0;
      }
    </style>
  </defs>
  <path class="cls-4" d="m6.39,31.28c-.1,0-.19-.05-.25-.14-.08-.13-.04-.31.09-.4l5.56-3.67-5.98,3.45c-.14.08-.31.04-.4-.1s-.04-.31.09-.4l4.15-2.66-4.44,2.56c-.14.08-.31.04-.4-.1-.08-.14-.04-.31.09-.4l7.3-4.78-7.79,4.49c-.14.08-.32.04-.4-.1-.08-.14-.04-.31.09-.4l5.74-3.65-6.08,3.51c-.14.08-.31.04-.4-.1-.08-.14-.04-.31.09-.4l7.94-5.1-8.39,4.85c-.14.08-.31.04-.4-.1-.08-.14-.04-.31.09-.4l8.67-5.53-9.13,5.27c-.14.08-.31.04-.4-.1-.08-.14-.04-.31.09-.4l8.6-5.44L1.53,26.24c-.14.08-.32.03-.4-.1-.08-.14-.04-.32.1-.4l2.25-1.37-2.42,1.4c-.14.08-.32.03-.4-.1-.08-.14-.04-.32.1-.4l6.36-3.93-6.45,3.72c-.14.08-.32.03-.4-.1-.08-.14-.04-.32.1-.4l5.45-3.35-5.15,2.97c-.14.08-.31.04-.4-.1-.08-.14-.04-.31.09-.4l11.41-7.23L.66,22.85c-.14.08-.32.03-.4-.1s-.04-.32.1-.4l.56-.34-.26.15c-.14.08-.32.03-.4-.1-.08-.14-.04-.32.1-.4l8.44-5.25L.66,21.1c-.14.08-.32.03-.4-.1s-.04-.32.1-.4l3.98-2.44-3.68,2.13c-.14.08-.32.03-.4-.1-.08-.14-.04-.32.1-.4l5.6-3.45-5.3,3.06c-.14.08-.32.03-.4-.1-.08-.14-.04-.32.1-.4l2.64-1.61-2.34,1.35c-.14.08-.32.03-.4-.1s-.04-.32.1-.4l4.9-3.01-4.6,2.65c-.14.08-.32.03-.4-.1-.08-.14-.04-.32.1-.4l8.53-5.32L.66,16.7c-.14.08-.32.03-.4-.1-.08-.14-.04-.32.1-.4l8.62-5.37L.66,15.63c-.14.08-.32.03-.4-.1-.08-.14-.04-.32.1-.4l2.69-1.64-2.39,1.38c-.14.08-.32.03-.4-.1-.08-.14-.04-.32.1-.4l8.17-5.1L.66,13.8c-.14.08-.32.03-.4-.1-.08-.14-.04-.32.1-.4l5.5-3.42L.66,12.88c-.14.08-.32.03-.4-.1-.08-.14-.04-.32.1-.4l4.07-2.53-3.76,2.17c-.14.08-.31.04-.4-.1-.08-.14-.04-.31.09-.4l5.63-3.56L.66,11.04c-.14.08-.32.04-.4-.1-.08-.14-.04-.31.1-.4l3-1.88-2.7,1.56c-.14.08-.31.04-.4-.1-.08-.14-.04-.31.09-.4l6.38-4.23L.66,8.98c-.14.08-.31.04-.4-.1-.08-.14-.04-.31.09-.4l3.75-2.45-3.44,1.98c-.14.08-.31.04-.4-.1-.08-.14-.04-.31.09-.4l.95-.61-.64.37c-.14.08-.31.04-.4-.1-.08-.13-.05-.31.08-.4l3.3-2.26-2.98,1.72c-.14.08-.31.04-.4-.1-.08-.13-.05-.31.08-.4l1.72-1.18-1.41.81c-.14.08-.31.04-.39-.1-.09-.13-.05-.31.08-.4l1.43-1.02-1.12.64c-.14.08-.31.04-.39-.1-.09-.13-.05-.31.08-.4l.26-.18c-.12.04-.25,0-.32-.11-.09-.12-.08-.29.03-.39l1.46-1.39-1.12.64c-.12.07-.26.05-.36-.05-.09-.1-.11-.24-.04-.36l.55-.9c-.14.07-.31.02-.38-.12-.08-.14-.03-.32.11-.4L1.51.22c.12-.07.26-.05.36.05.09.1.11.24.04.36l-.55.9L3.63.22c.13-.07.29-.04.38.08.09.12.08.29-.03.39l-1.46,1.39L5.73.22c.14-.08.31-.04.39.1.09.13.05.31-.08.4l-.19.14,1.09-.63c.14-.08.31-.04.39.1.09.13.05.31-.08.4l-1.43,1.02L8.45.22c.14-.08.31-.04.4.1.08.13.05.31-.08.4l-1.72,1.17L9.94.22c.14-.08.31-.04.4.1.08.13.05.31-.08.4l-3.3,2.26L11.73.22c.14-.08.31-.04.4.1.08.14.04.31-.09.4l-.95.61,1.92-1.11c.14-.08.31-.04.4.1.08.14.04.31-.09.4l-3.74,2.45L14.68.22c.14-.08.31-.04.4.1s.04.31-.09.4l-6.38,4.23L16.79.22c.14-.08.32-.04.4.1.08.14.04.31-.1.4l-2.99,1.88L18.23.22c.14-.08.32-.03.4.1.08.14.04.31-.09.4l-5.63,3.56L19.95.22c.14-.08.32-.04.4.1.08.14.04.32-.1.4l-4.07,2.52L21.43.22c.14-.08.32-.04.4.1.08.14.04.32-.1.4l-5.5,3.41L22.95.25c.14-.08.32-.03.4.1.08.14.04.32-.1.4l-8.18,5.1L23.71.88c.14-.08.32-.03.4.1.08.14.04.32-.1.4l-2.68,1.63,2.49-1.44c.14-.08.32-.03.4.1.08.14.04.32-.1.4l-8.62,5.37,8.32-4.8c.14-.08.32-.03.4.1.08.14.04.32-.1.4l-8.54,5.32,8.24-4.76c.14-.08.32-.04.4.1.08.14.04.32-.1.4l-4.9,3.01,4.6-2.65c.14-.08.32-.03.4.1.08.14.04.32-.1.4l-2.64,1.61,2.34-1.35c.14-.08.32-.04.4.1.08.14.04.32-.1.4l-5.59,3.44,5.29-3.05c.14-.08.32-.04.4.1.08.14.04.32-.1.4l-4,2.45,3.7-2.13c.14-.08.32-.04.4.1.08.14.04.32-.1.4l-8.44,5.26,8.14-4.7c.14-.08.32-.03.4.1.08.14.04.32-.1.4l-.56.34.26-.15c.14-.08.32-.04.4.1.08.14.04.31-.09.4l-11.41,7.23,11.11-6.41c.14-.08.32-.04.4.1.08.14.04.32-.1.4l-5.43,3.34,5.03-2.9c.14-.08.32-.04.4.1.08.14.04.32-.1.4l-6.37,3.94,5.65-3.26c.14-.08.32-.04.4.1.08.14.04.32-.1.4l-2.24,1.37,1.61-.93c.14-.08.32-.03.4.1s.04.31-.09.4l-8.6,5.44,7.79-4.5c.14-.08.31-.03.4.1.08.14.04.31-.09.4l-8.67,5.53,7.83-4.52c.14-.08.31-.03.4.1.08.14.04.31-.09.4l-7.95,5.1,7.11-4.11c.14-.08.32-.04.4.1.08.14.04.31-.09.4l-5.74,3.65,4.99-2.88c.14-.08.31-.04.4.1.08.14.04.31-.09.4l-7.31,4.79,6.45-3.72c.14-.08.31-.03.4.1.08.14.04.31-.09.4l-4.14,2.65,3.42-1.98c.14-.08.31-.04.4.1.08.13.04.31-.09.4l-5.57,3.67,4.75-2.74c.14-.08.31-.04.39.1.08.13.05.31-.08.4l-5.26,3.66,4.37-2.52c.14-.08.31-.04.4.1.08.13.05.31-.09.4l-1.25.83.59-.34c.13-.08.31-.04.39.09s.05.31-.07.4l-2.47,1.8,1.68-.97c.13-.08.31-.04.39.09.09.13.05.31-.07.4l-.56.41c.11-.03.23.02.3.11.09.12.07.29-.04.39l-1.08,1.01.27-.16c.11-.07.26-.05.35.04.09.09.11.24.05.35l-.49.88s.04.04.05.07c.08.14.03.32-.11.4l-.37.21c-.11.07-.26.05-.35-.04-.09-.09-.11-.24-.05-.35l.29-.53-1.6.92c-.13.08-.29.04-.38-.08-.09-.12-.07-.29.04-.39l1.08-1.01-2.56,1.48c-.13.08-.31.04-.39-.09-.09-.13-.05-.31.07-.4l.45-.33-1.42.82c-.13.08-.31.04-.39-.09-.09-.13-.05-.31.07-.4l2.47-1.8-3.97,2.29c-.14.08-.31.04-.4-.1s-.05-.31.09-.4l1.26-.83-2.31,1.33c-.14.08-.31.04-.39-.1-.08-.13-.05-.31.08-.4l5.26-3.66-7.19,4.15s-.1.04-.15.04h0Z"/>
  <path class="cls-4" d="m6.05,30.94c-.07,0-.13-.02-.18-.07-.09-.08-.13-.2-.09-.32l.07-.21-.12.07c-.11.07-.26.05-.35-.04s-.12-.24-.05-.35l.28-.51-.5.29c-.12.07-.28.04-.37-.06-.09-.11-.1-.26,0-.37l.44-.55-.67.38c-.12.07-.28.04-.37-.07s-.09-.27,0-.38l.79-.89-1.12.64c-.13.08-.3.04-.39-.08-.09-.12-.07-.29.04-.39l.44-.38-.6.35c-.12.07-.28.04-.37-.06-.09-.11-.09-.27,0-.38l1.11-1.33-1.59.92c-.11.06-.25.05-.34-.03-.09-.08-.13-.22-.08-.33l.39-.95-.81.47c-.13.08-.3.04-.39-.09l-.46-.68c-.13.04-.28,0-.35-.13-.08-.14-.03-.32.11-.4l.19-.11c.13-.08.3-.04.39.09l.45.67,1.32-.76c.11-.06.25-.05.34.03.09.08.13.22.08.33l-.39.95,2.26-1.3c.12-.07.28-.05.37.06.09.11.09.27,0,.38l-1.11,1.33,1.73-1c.13-.08.3-.04.39.08.09.12.07.29-.04.39l-.44.38.16-.09c.12-.07.28-.04.37.07.09.11.09.27,0,.38l-.79.89.43-.24c.12-.07.28-.04.37.06s.1.26,0,.37l-.44.55.06-.04c.11-.07.26-.05.35.04s.12.24.05.35l-.3.55c.08-.01.16.01.23.06.09.08.13.2.09.32l-.13.41s.08.06.11.11c.08.14.03.32-.11.4l-.31.18s-.1.04-.15.04h0Z"/>
  <path class="cls-1" d="m19.85,34.8c-.1,0-.2-.05-.25-.14-.08-.14-.04-.31.09-.4l2.75-1.75-3.86,2.23c-.14.08-.32.04-.4-.1-.08-.14-.04-.31.09-.4l4.53-2.88-5.12,2.96c-.14.08-.32.04-.4-.1-.08-.14-.04-.31.1-.4l3.56-2.23-3.69,2.13c-.14.08-.32.03-.4-.1-.08-.14-.04-.32.1-.4l1.32-.82-1.16.67c-.14.08-.32.04-.4-.1-.08-.14-.04-.32.1-.4l3.72-2.33-3.42,1.97c-.14.08-.31.04-.4-.1-.08-.14-.04-.31.09-.4l4.76-3-4.45,2.57c-.14.08-.32.03-.4-.1s-.04-.32.1-.4l2.32-1.44-2.02,1.17c-.14.08-.32.03-.4-.1-.08-.14-.04-.32.1-.4l1.29-.8-.99.57c-.14.08-.31.04-.4-.1-.08-.14-.04-.31.09-.4l8.09-5.25-7.79,4.5c-.14.08-.32.03-.4-.1-.08-.14-.04-.32.1-.4l.99-.62-.69.4c-.14.08-.32.03-.4-.1-.08-.14-.04-.32.1-.4l3.54-2.22-3.24,1.87c-.14.08-.31.04-.4-.1-.08-.14-.04-.31.09-.4l6.41-4.09-6.1,3.52c-.14.08-.32.03-.4-.1-.08-.14-.04-.32.1-.4l.29-.18c-.13.07-.3.02-.38-.11-.08-.14-.04-.31.09-.4l8.6-5.61-8.29,4.79c-.14.08-.31.04-.4-.1-.08-.14-.04-.31.09-.4l7.41-4.78-7.1,4.1c-.14.08-.31.04-.4-.1-.08-.14-.04-.31.09-.4l6.59-4.23-6.28,3.63c-.14.08-.32.03-.4-.1-.08-.14-.04-.32.1-.4l.38-.23-.08.04c-.14.08-.32.03-.4-.1-.08-.14-.04-.31.1-.4l1.7-1.07-1.4.81c-.14.08-.31.04-.4-.1-.08-.14-.04-.31.09-.4l4.43-2.89-4.13,2.38c-.14.08-.31.04-.39-.1s-.05-.31.08-.4l5.53-3.85-5.21,3.01c-.13.08-.31.04-.39-.09-.09-.13-.05-.31.07-.4l4.28-3.08-3.96,2.28c-.13.08-.31.04-.39-.09-.09-.13-.05-.31.07-.4l2.54-1.84-2.22,1.28c-.13.08-.31.04-.39-.09-.09-.13-.06-.3.07-.4l1.68-1.26-1.35.78c-.13.08-.3.04-.39-.09-.09-.13-.06-.3.06-.39l1.06-.87-.73.42c-.12.07-.27.05-.36-.06-.09-.1-.1-.25-.02-.37l.79-1.13-.06.03c-.14.08-.32.03-.4-.11-.08-.14-.03-.32.11-.4l1.2-.7c.12-.07.27-.05.36.06.09.1.1.25.02.37l-.79,1.13,2.71-1.57c.13-.08.3-.04.39.09.09.13.06.3-.06.39l-1.06.87,2.34-1.35c.13-.08.31-.04.39.09.09.13.06.3-.07.4l-1.68,1.26,3.04-1.75c.13-.08.31-.04.39.09.09.13.05.31-.07.4l-2.54,1.84,4.04-2.33c.13-.08.31-.04.39.09.09.13.05.31-.07.4l-4.28,3.08,6.2-3.58c.14-.08.31-.04.39.1s.05.31-.08.4l-5.53,3.85,7.53-4.34c.14-.08.31-.04.4.1.08.14.04.31-.09.4l-4.43,2.89,5.87-3.39c.14-.08.32-.03.4.1s.04.31-.1.4l-1.7,1.07,2.54-1.47c.14-.08.32-.03.4.1.08.14.04.32-.1.4l-.36.22.65-.38c.14-.08.31-.03.4.1s.04.31-.09.4l-6.59,4.24,6.8-3.92c.14-.08.31-.04.4.1.08.14.04.31-.09.4l-7.41,4.78,7.17-4.14c.14-.08.31-.04.4.1.08.14.04.31-.09.4l-8.59,5.61,8.28-4.78c.14-.08.32-.04.4.1.08.14.04.32-.1.4l-.29.18c.14-.07.3-.02.38.11.08.14.04.31-.09.4l-6.41,4.09,6.11-3.53c.14-.08.32-.03.4.1s.04.32-.1.4l-3.53,2.21,3.23-1.86c.14-.08.32-.04.4.1.08.14.04.32-.1.4l-.99.62.69-.4c.14-.08.31-.04.4.1.08.14.04.31-.09.4l-8.1,5.25,7.79-4.5c.14-.08.32-.03.4.1.08.14.04.32-.1.4l-1.28.79.98-.57c.14-.08.32-.03.4.1s.04.32-.1.4l-2.33,1.45,2.03-1.17c.14-.08.32-.04.4.1.08.14.04.31-.09.4l-4.76,3,4.45-2.57c.14-.08.32-.03.4.1s.04.32-.1.4l-3.71,2.32,3.41-1.97c.14-.08.32-.04.4.1.08.14.04.32-.1.4l-1.32.82,1.02-.59c.14-.08.32-.04.4.1.08.14.04.31-.1.4l-3.56,2.23,3.26-1.88c.14-.08.32-.03.4.1.08.14.04.31-.09.4l-4.53,2.88,4.22-2.44c.14-.08.32-.04.4.1.08.14.04.31-.09.4l-2.76,1.75,2.45-1.42c.14-.08.31-.04.4.1.08.13.05.31-.08.4l-6.05,4.14,5.74-3.31c.14-.08.31-.04.4.1.08.13.05.31-.09.4l-3.15,2.1,2.84-1.64c.14-.08.31-.04.4.1.08.13.05.31-.09.4l-2.1,1.42,1.79-1.04c.14-.08.31-.04.4.1.08.13.04.31-.09.4l-.23.15c.12-.03.24.02.31.12.09.13.06.3-.06.4l-2.59,2.01,2.26-1.31c.13-.08.3-.04.39.08.09.12.07.29-.05.39l-1.65,1.42,1.31-.75c.13-.07.29-.04.38.07.09.12.08.28-.02.39l-.76.77.34-.19c.14-.08.32-.03.4.11.08.14.03.32-.11.4l-2.21,1.28c-.13.07-.29.04-.38-.07-.09-.12-.08-.28.02-.39l.76-.77-2.13,1.23c-.13.08-.3.04-.39-.08-.09-.12-.07-.29.05-.39l1.65-1.42-3.28,1.9c-.13.08-.3.04-.39-.09-.09-.13-.06-.3.06-.4l2.59-2.01-4.33,2.5c-.14.08-.31.04-.4-.1-.08-.13-.04-.31.09-.4l.06-.04-.93.54c-.14.08-.31.04-.4-.1-.08-.13-.05-.31.09-.4l2.11-1.42-3.32,1.91c-.14.08-.31.04-.4-.1s-.05-.31.09-.4l3.15-2.1-4.5,2.6c-.14.08-.31.04-.4-.1s-.05-.31.08-.4l6.05-4.13-8.02,4.63s-.1.04-.15.04h0Z"/>
  <path class="cls-3" d="m22.57,18.35c-.1,0-.19-.05-.25-.13-.08-.13-.05-.31.08-.4l1.53-1.09-2.74,1.58c-.13.08-.3.04-.39-.09s-.06-.3.06-.4l2.57-1.99-3.87,2.23c-.14.08-.31.04-.39-.09s-.05-.31.07-.4l1.46-1.05-1.25.72c-.13.08-.3.04-.39-.09-.09-.13-.06-.3.06-.39l1.52-1.23-1.19.69c-.13.07-.29.04-.38-.07-.09-.11-.08-.28.02-.38l1.06-1.13-.7.4c-.11.06-.25.05-.35-.04-.09-.09-.12-.23-.06-.35l.29-.57c-.1,0-.2-.05-.25-.15-.08-.14-.03-.32.11-.4l.68-.39c.11-.07.25-.05.35.04.09.09.12.23.06.35l-.26.5,1.55-.89c.13-.07.29-.04.38.07.09.11.08.28-.02.38l-1.06,1.13,2.74-1.58c.13-.08.3-.04.39.09.09.13.06.3-.06.39l-1.52,1.23,2.97-1.71c.13-.08.31-.04.39.09.09.13.05.31-.07.4l-1.46,1.05,2.68-1.55c.13-.08.3-.04.39.09s.06.3-.06.4l-2.57,1.99,4.28-2.47c.13-.08.31-.04.39.1.08.13.05.31-.08.4l-1.53,1.09,2.74-1.58c.14-.08.31-.04.39.1.09.13.05.31-.08.4l-1.29.91,2.26-1.31c.13-.08.3-.04.39.09.09.13.06.3-.06.39l-2.66,2.12,2.59-1.49c.13-.08.3-.04.39.09.09.13.06.3-.06.4l-1.25.99.92-.53c.12-.07.28-.04.37.07.09.11.09.27,0,.38l-1.03,1.16.66-.38c.12-.07.26-.05.35.05.09.09.11.24.04.36l-.25.42c.09,0,.18.06.23.15.08.14.03.32-.11.4l-.74.43c-.12.07-.26.05-.36-.05-.09-.1-.11-.24-.04-.36l.19-.33-1.27.73c-.12.07-.28.04-.37-.07-.09-.11-.09-.27,0-.38l1.03-1.16-2.79,1.61c-.13.08-.3.04-.39-.09-.09-.13-.06-.3.06-.4l1.25-.99-2.55,1.47c-.13.08-.3.04-.39-.09-.09-.13-.06-.3.06-.39l2.66-2.12-4.51,2.6c-.14.08-.31.04-.39-.1-.09-.13-.05-.31.08-.4l1.29-.91-2.43,1.4s-.1.04-.15.04h0Z"/>
  <g>
    <path class="cls-1" d="m21.37,23.05c-.07,0-.15-.03-.2-.08-.09-.09-.12-.23-.06-.35l.38-.73-1.38.8c-.13.07-.29.04-.38-.07s-.08-.28.02-.39l.39-.39-.09.05c-.12.07-.26.05-.36-.05-.09-.1-.11-.24-.04-.36l.22-.36c-.08-.02-.15-.07-.19-.14-.08-.14-.03-.32.11-.4l.68-.39c.12-.07.26-.05.36.05.09.1.11.24.04.36l-.13.22,1-.58c.13-.07.29-.04.38.07.09.12.08.28-.02.39l-.39.39.37-.21c.11-.06.26-.05.35.04.09.09.12.23.06.35l-.38.73c.13-.05.29,0,.37.12.08.14.03.32-.11.4l-.84.48s-.1.04-.15.04Z"/>
    <path class="cls-1" d="m25.32,23.05c-.08,0-.16-.03-.21-.09-.09-.1-.11-.25-.03-.36l.73-1.09-1.06.61c-.11.06-.25.05-.35-.04-.09-.09-.12-.23-.06-.35l.3-.6c-.09,0-.21-.05-.26-.15-.08-.14-.03-.32.11-.4l.68-.39c.11-.07.25-.05.35.04.09.09.12.23.06.35l-.27.54,1.3-.75c.12-.07.27-.05.36.05.09.1.11.25.03.36l-.73,1.09.5-.29c.14-.08.32-.03.4.11.08.14.03.32-.11.4l-1.59.92s-.1.04-.15.04Z"/>
    <path class="cls-1" d="m21.5,27.75c-.07,0-.14-.03-.2-.08-.09-.09-.12-.23-.06-.34l.29-.58-1.34.77c-.13.07-.29.04-.38-.07-.09-.12-.08-.28.02-.39l.44-.45-.23.13c-.11.07-.26.05-.35-.04-.09-.09-.12-.23-.06-.35l.27-.51c-.1,0-.19-.06-.24-.15-.08-.14-.03-.32.11-.4l.68-.39c.11-.07.26-.05.35.04.09.09.12.23.06.35l-.23.43,1.21-.7c.13-.07.29-.04.38.07.09.12.08.28-.02.39l-.44.45.3-.17c.11-.06.25-.05.35.04.09.09.12.23.06.34l-.31.63c.11-.01.21.05.27.15.08.14.03.32-.11.4l-.68.39s-.1.04-.15.04h0Z"/>
    <path class="cls-1" d="m25.63,27.75c-.08,0-.17-.04-.22-.1-.09-.11-.09-.27,0-.38l.25-.3-.82.47c-.13.07-.29.04-.38-.08-.09-.12-.08-.28.03-.39l.29-.28-.03.02c-.11.07-.26.05-.35-.04-.09-.09-.12-.23-.05-.35l.26-.49c-.09,0-.18-.06-.23-.15-.08-.14-.03-.32.11-.4l.68-.39c.11-.07.26-.05.35.04.09.09.12.23.05.35l-.22.4,1.18-.68c.13-.08.29-.04.38.08.09.12.08.28-.03.39l-.29.28.17-.1c.12-.07.28-.04.37.06.09.11.09.27,0,.38l-.28.34c.12-.02.24.03.31.14.08.14.03.32-.11.4l-1.28.74s-.1.04-.15.04h0Z"/>
    <path class="cls-1" d="m21.49,32.45c-.08,0-.15-.03-.21-.09-.09-.1-.11-.25-.04-.36l.1-.15-.91.53c-.13.07-.29.04-.38-.08-.09-.12-.08-.28.03-.39l.23-.22-.26.15c-.11.06-.25.05-.34-.03-.09-.08-.13-.22-.08-.33l.39-.95c-.13.04-.27-.01-.34-.13-.08-.14-.03-.32.11-.4l.68-.39c.11-.06.24-.05.34.03.09.08.13.22.08.33l-.39.94,1.55-.89c.13-.08.29-.04.38.08.09.12.08.28-.03.39l-.26.25c.1-.03.21,0,.29.08.09.1.11.25.04.36l-.2.31c.07.02.13.07.17.14.08.14.03.32-.11.4l-.69.4s-.1.04-.15.04h0Z"/>
    <path class="cls-1" d="m25.93,32.45c-.08,0-.16-.03-.22-.1-.09-.11-.1-.26-.01-.37l.08-.11-.77.45c-.12.07-.28.05-.37-.06s-.1-.26,0-.37l.76-.97-.65.38c-.12.07-.26.05-.36-.05-.09-.1-.11-.24-.04-.36l.22-.36c-.08-.02-.15-.07-.19-.14-.08-.14-.03-.32.11-.4l.68-.39c.12-.07.26-.05.36.05.09.1.11.24.04.36l-.13.22,1-.58c.12-.07.28-.05.37.06.09.11.1.26,0,.37l-.76.97.72-.42c.12-.07.27-.05.37.06.09.11.1.26.01.37l-.19.24c.08.01.16.06.21.14.08.14.03.32-.11.4l-.98.56s-.1.04-.15.04h0Z"/>
    <path class="cls-1" d="m30.9,23.05c-.08,0-.16-.03-.21-.09-.09-.1-.11-.25-.03-.36l.04-.06-.8.46c-.12.07-.27.05-.36-.06-.09-.1-.1-.26-.02-.37l.8-1.13-.86.5c-.12.07-.26.05-.35-.05s-.11-.24-.05-.35l.24-.42c-.08-.01-.16-.06-.21-.14-.08-.14-.03-.32.11-.4l.68-.39c.11-.07.26-.05.35.05s.11.24.05.35l-.17.3,1.08-.62c.12-.07.27-.05.36.06.09.1.1.26.02.37l-.8,1.13.7-.41c.12-.07.27-.05.36.05.09.1.11.25.03.36l-.17.26c.06.02.11.07.15.13.08.14.03.32-.11.4l-.68.39s-.1.04-.15.04h0Z"/>
  </g>
  <path class="cls-3" d="m30.01,32.45c-.09,0-.17-.04-.23-.11-.09-.11-.08-.28.02-.38l.25-.26-.57.33c-.13.07-.29.04-.38-.07-.09-.12-.08-.28.02-.39l.76-.78-.44.25c-.12.07-.28.04-.37-.07-.09-.11-.09-.27,0-.38l1.11-1.24-.74.43c-.13.08-.3.04-.39-.08-.09-.12-.07-.29.05-.39l.2-.18c-.09,0-.18-.04-.24-.11-.09-.11-.08-.28.02-.38l.93-.98-.57.33c-.13.07-.29.04-.38-.08-.09-.12-.08-.28.03-.39l.52-.5-.17.1c-.11.06-.25.05-.34-.03-.09-.08-.13-.22-.08-.33l.38-.91c-.13.04-.27-.02-.34-.14-.08-.14-.03-.32.11-.4l.68-.39c.11-.06.25-.05.34.03.09.08.13.22.08.33l-.38.9,1.53-.88c.13-.07.29-.04.38.08.09.12.08.28-.03.39l-.52.5.21-.12c.13-.07.29-.04.38.07.09.11.08.28-.02.38l-.93.99.57-.33c.13-.08.3-.04.39.08.09.12.07.29-.05.39l-.2.17c.07,0,.17.04.23.11.09.11.09.27,0,.38l-1.11,1.25.74-.43c.13-.07.29-.04.38.07.09.12.08.28-.02.39l-.76.78.41-.23c.13-.07.29-.04.38.07s.08.28-.02.38l-.28.3c.12-.03.25.02.32.14.08.14.03.32-.11.4l-1.6.93s-.1.04-.15.04h0Z"/>
  <g id="Lines">
    <path class="cls-2" d="m.07,22.62c.02.83-.1,1.7.03,2.53-.04.08,0,.13.06.16,7.69,8.37,5.54,5.56,16.35,5.99-.77,3.9,3.02,3.5,5.71,3.4,3.06-.66,12.7,1.92,12.77-2.36-.02-6.62.03-13.25-.01-19.86-.77-3.14-7.92-1.06-10.56-1.64-.57-2.41,1.51-10.51-1.58-10.69-6.84,0-13.68,0-20.52,0C.38-.09-.21,1.56.07,3.24v19.38Zm1.8,3.3c-.16-.16-.33-.38-.52-.57,4.92-.22,4.78-.21,4.6,4.65-1.36-1.36-2.72-2.72-4.08-4.08h0Zm30.51-14.71c2.45.12,1.64,3.06,1.77,4.71-.54,3.1,1.41,17.95-1.14,18.43-4.67-.06-9.35.12-14.02,0-1.41-.07-1.61-1.3-1.61-2.4.03-6.42-.06-12.85,0-19.26.35-2.69,4.36-1.05,6.23-1.48.13.19.51.16.7,0,2.69,0,5.38-.06,8.06,0h0ZM.93,1.71c-.04-.65.46-1.07,1.12-.95,6.87,0,13.74,0,20.6,0,1.96.36.48,8.09.92,10.08-2.29.29-6.85-1.15-7.05,2.3-6.06-.22-6.07.73,0,.48,0,.83.01,1.65,0,2.47-15.91-.23-15.83.69,0,.45,0,.84,0,1.68,0,2.51-15.83-.2-15.77.6,0,.39,0,.85,0,1.7-.01,2.55-15.82-.2-15.76.59,0,.39-.02,2.77-.02,5.54,0,8.31H6.8c.22-6.3.35-5.97-5.87-5.8.01-7.72-.03-15.46,0-23.19h0Z"/>
    <path class="cls-2" d="m25.13,23.07c.81,0,2.16.18,2.23-.96.1-.99.01-2.23-1.32-1.98-.73-.05-1.83-.03-1.89.92-.01.8-.19,2.09.98,2.02Zm-.12-.95c.01-.43-.03-.87.02-1.3.05-.09.85-.11,1.24-.11-.06,0-.05,0,0,0,.14.02.23.23.24.32-.01.44.02.88-.02,1.32-.02.03-1.07.19-1.35.04-.09-.09-.12-.16-.13-.29h0Z"/>
    <path class="cls-2" d="m29.76,23.07c.81,0,2.16.18,2.23-.96.1-.99.01-2.23-1.32-1.98-.73-.05-1.83-.03-1.89.92-.01.8-.19,2.09.98,2.02Zm-.12-.95c.01-.43-.03-.87.02-1.3.05-.09.85-.11,1.24-.11-.06,0-.05,0,0,0,.14.02.23.23.24.32-.01.44.02.88-.02,1.32-.02.03-1.07.19-1.35.04-.09-.09-.12-.16-.13-.29h0Z"/>
    <path class="cls-2" d="m20.42,23.07c.81,0,2.16.18,2.23-.96.1-.99.01-2.23-1.32-1.98-.73-.05-1.83-.03-1.89.92-.01.8-.19,2.09.98,2.02Zm-.12-.95c.01-.43-.03-.87.02-1.3.05-.09.85-.11,1.24-.11-.06,0-.05,0,0,0,.14.02.23.23.24.32-.01.44.02.88-.02,1.32-.02.03-1.07.19-1.35.04-.09-.09-.12-.16-.13-.29h0Z"/>
    <path class="cls-2" d="m25.13,27.78c.81,0,2.16.18,2.23-.96.1-.99.01-2.23-1.32-1.98-.73-.05-1.83-.03-1.89.92-.01.8-.19,2.09.98,2.02Zm-.12-.95c.01-.43-.03-.87.02-1.3.05-.09.85-.11,1.24-.11-.06,0-.05,0,0,0,.14.02.23.23.24.32-.01.44.02.88-.02,1.32-.02.03-1.07.19-1.35.04-.09-.09-.12-.16-.13-.29h0Z"/>
    <path class="cls-2" d="m20.42,27.78c.81,0,2.16.18,2.23-.96.1-.99.01-2.23-1.32-1.98-.73-.05-1.83-.03-1.89.92-.01.8-.19,2.09.98,2.02Zm-.12-.95c.01-.43-.03-.87.02-1.3.05-.09.85-.11,1.24-.11-.06,0-.05,0,0,0,.14.02.23.23.24.32-.01.44.02.88-.02,1.32-.02.03-1.07.19-1.35.04-.09-.09-.12-.16-.13-.29h0Z"/>
    <path class="cls-2" d="m25.13,32.49c.81,0,2.16.18,2.23-.96.1-.99.01-2.23-1.32-1.98-.73-.05-1.83-.03-1.89.92-.01.8-.19,2.09.98,2.02Zm-.12-.95c.01-.43-.03-.87.02-1.3.05-.09.85-.11,1.24-.11-.06,0-.05,0,0,0,.14.02.23.23.24.32-.01.44.02.88-.02,1.32-.02.03-1.07.19-1.35.04-.09-.09-.12-.16-.13-.29h0Z"/>
    <path class="cls-2" d="m20.42,32.49c.81,0,2.16.18,2.23-.96.1-.99.01-2.23-1.32-1.98-.73-.05-1.83-.03-1.89.92-.01.8-.19,2.09.98,2.02Zm-.12-.95c.01-.43-.03-.87.02-1.3.05-.09.85-.11,1.24-.11-.06,0-.05,0,0,0,.14.02.23.23.24.32-.01.44.02.88-.02,1.32-.02.03-1.07.19-1.35.04-.09-.09-.12-.16-.13-.29h0Z"/>
    <path class="cls-2" d="m30.15,24.94c-2.47.01-.88,5.03-1.3,6.76.14,1.13,3.15.92,3.2-.22,0-1.96.01-3.92,0-5.87-.06-.87-1.3-.67-1.91-.66Zm-.44,6.53c.09-2.03-.19-4.18.11-6.16,1.04-.14,1.61.1,1.39,1.26-.11,1.77.22,3.74-.13,5.43-.53.03-1.32.15-1.37-.52h0Z"/>
    <path class="cls-2" d="m28.25,13.08c-.13-.01-.27.02-.38.09-2.18.46-8.06-1.09-9.01.91-.65,6.08,1.42,3.8,5.95,4.2.17.14.41.11.58,0h2.35c.14.15.47.17.65,0,1.31-.24,4.11.79,4.24-1.18-.26-1.26.87-4.19-1.25-3.93-.14-.15-.47-.17-.65,0h-2.29c-.06-.05-.13-.08-.2-.09Zm-3.13,4.37c-.09.14-.17.28-.26.42h-1.55c.89-1.43,1.79-2.86,2.68-4.28h1.55c-.81,1.29-1.61,2.58-2.42,3.87Zm-5.41-.1c.22-4.02-1.24-3.88,3.18-3.77-.89,1.43-1.78,2.85-2.68,4.28-.26-.07-.46-.21-.5-.52Zm1.24.55c.9-1.44,1.8-2.88,2.7-4.32h1.6c-.89,1.43-1.79,2.86-2.68,4.28-.56,0-1.04-.02-1.62.04Zm10.83-3.8c.04,3.6.92,4.03-3.11,3.77.89-1.42,1.78-2.85,2.67-4.27.23.03.38.13.44.51Zm-1.33-.52c-.89,1.43-1.79,2.86-2.68,4.28h-2.06c.89-1.43,1.79-2.86,2.68-4.28h2.06Z"/>
    <path class="cls-2" d="m4.45,10.96c-.16-.41-1-.17-.85.23.47,1.23,1.68,1.83,2.94,1.92v.97c.64.37.99-.33.85-.99,3.72-.24,3.92-4.59,0-4.7v-3.46c.89.12,1.75.58,2.09,1.46.16.41,1,.17.85-.23-.47-1.23-1.68-1.83-2.94-1.92v-.97c-.64-.37-.99.33-.85.99-3.72.24-3.92,4.59,0,4.7v3.46c-.89-.12-1.75-.58-2.09-1.46Zm5.01-.07c-.1.99-1.18,1.44-2.07,1.54v-3.32c.98.19,2.19.55,2.07,1.79Zm-4.99-4.44c.1-.99,1.18-1.44,2.07-1.54v3.32c-.98-.19-2.19-.55-2.07-1.79Z"/>
  </g>
</svg>