<?xml version="1.0" encoding="UTF-8"?>
<svg id="Layer_1" data-name="Layer 1" xmlns="http://www.w3.org/2000/svg" viewBox="0 0 35 35">
  <defs>
    <style>
      .cls-1 {
        fill: #f47721;
      }

      .cls-1, .cls-2, .cls-3, .cls-4, .cls-5 {
        stroke-width: 0px;
      }

      .cls-3 {
        fill: #fff;
      }

      .cls-4 {
        fill: #c1dbf0;
      }

      .cls-5 {
        fill: #f2f7fb;
      }
    </style>
  </defs>
  <path class="cls-5" d="m7.89,19.61c-.16,0-.29-.13-.29-.29,0-.1.05-.2.14-.25l1.19-.73-1.86,1.07c-.14.08-.32.02-.4-.12-.07-.13-.03-.3.09-.38l8.31-5.24-8.01,4.63c-.14.08-.32.04-.4-.1-.08-.14-.04-.32.1-.4l6.59-4.11-6.28,3.63c-.14.08-.32.03-.4-.11-.08-.14-.03-.31.1-.39l5.02-3.11-4.71,2.72c-.14.08-.32.03-.4-.11-.08-.14-.03-.31.1-.39l7.25-4.57-6.95,4.01c-.14.08-.32.04-.4-.11-.08-.14-.04-.31.1-.4l9.05-5.83-8.74,5.05c-.14.08-.32.03-.4-.12-.07-.13-.03-.3.1-.39l4.17-2.6-3.87,2.23c-.14.08-.32.03-.4-.11-.08-.14-.04-.31.09-.39l8.09-5.23-7.78,4.49c-.14.08-.32.04-.4-.1s-.04-.32.1-.4l5.12-3.24-4.81,2.78c-.14.08-.32.04-.4-.1s-.04-.32.1-.4l3.84-2.43-3.54,2.04c-.14.08-.32.04-.4-.1-.08-.14-.04-.32.1-.4l4.98-3.23-4.68,2.7c-.14.08-.32.04-.4-.1s-.04-.32.1-.4l3.28-2.13-2.97,1.72c-.14.08-.32.03-.4-.11-.08-.13-.04-.3.09-.39l4.54-3.12-4.23,2.44c-.14.08-.32.03-.4-.12-.07-.13-.03-.3.09-.38l.61-.41-.31.18c-.14.08-.32.03-.4-.11-.07-.13-.04-.3.09-.39l1.46-1-1.15.67c-.14.08-.32.03-.4-.11-.07-.13-.04-.3.08-.38l1.75-1.27-1.43.83c-.14.08-.32.03-.4-.11-.07-.12-.04-.28.07-.37l1.79-1.49-1.46.84c-.14.08-.32.03-.4-.11-.07-.11-.05-.26.04-.35l1.04-1.07-.68.39c-.14.08-.32.04-.4-.11-.05-.09-.05-.19,0-.28l.31-.63c-.16,0-.29-.13-.29-.29,0-.11.06-.2.15-.25l.67-.38c.14-.08.32-.03.4.11.05.09.05.19,0,.28l-.28.57,1.65-.96c.14-.08.32-.03.4.11.07.11.05.26-.04.35l-1.04,1.07,2.66-1.53c.14-.08.32-.03.4.11.07.12.04.28-.07.37l-1.79,1.48,3.41-1.96c.14-.08.32-.03.4.11.07.13.04.3-.08.38l-1.75,1.27,3.05-1.76c.14-.08.32-.03.4.11.08.13.04.3-.09.39l-1.46,1,2.59-1.49c.14-.08.32-.03.4.12.07.13.03.3-.09.38l-.61.4,1.56-.9c.14-.08.32-.04.4.1.08.13.04.31-.09.39l-4.54,3.12L19.54.26c.14-.08.32-.03.4.11.08.14.04.31-.09.39l-3.28,2.13L21.12.26c.14-.08.32-.04.4.1s.04.32-.1.4h0l-4.98,3.24L22.92.26c.14-.08.32-.04.4.1s.04.32-.1.4h0l-3.85,2.43,4.64-2.68c.14-.08.32-.04.4.1s.04.32-.1.4l-5.12,3.24,5.46-3.15c.14-.08.32-.04.4.1.08.14.04.32-.1.4l-8.09,5.23L25.44,1.89c.14-.08.32-.03.4.11.08.14.04.31-.1.4l-4.17,2.6,4.42-2.55c.14-.08.32-.04.4.11.08.14.04.31-.1.4l-9.05,5.83,9.56-5.52c.14-.08.32-.02.4.12.07.13.03.3-.09.38l-7.25,4.57,7.62-4.4c.14-.08.32-.04.4.1s.04.32-.1.4l-5.02,3.12,5.1-2.94c.14-.08.32-.04.4.1s.04.32-.1.4l-6.59,4.11,6.33-3.66c.14-.08.32-.03.4.11.08.14.03.31-.1.39l-8.31,5.24,8.01-4.62c.14-.08.32-.03.4.12.08.14.03.31-.1.39l-1.19.73.9-.52c.14-.08.32-.04.4.1s.04.32-.1.4l-3.83,2.39,3.53-2.04c.14-.08.32-.03.4.11.08.14.03.31-.1.39l-1.72,1.07,1.42-.82c.14-.08.32-.04.4.1.08.14.04.32-.1.4l-1.43.89,1.13-.65c.14-.08.32-.03.4.11.08.14.04.31-.1.4l-.66.41.36-.21c.14-.09.32-.04.4.1.09.14.04.32-.1.4l-4.02,2.62,3.72-2.15c.14-.09.32-.04.41.09.09.14.04.32-.09.41l-4.56,3.1,4.25-2.45c.14-.08.32-.03.4.11.08.13.04.3-.09.39l-2.88,1.96,2.57-1.49c.14-.08.32-.04.4.1.08.14.04.31-.09.4l-1.66,1.13,1.34-.78c.14-.08.32-.03.4.11.07.13.04.28-.07.38l-2.84,2.32,2.51-1.45c.14-.08.32-.03.4.11.07.13.04.29-.07.38l-.81.63.48-.28c.14-.08.32-.03.4.11.07.12.04.27-.06.37l-.53.47.19-.11c.14-.08.32-.03.4.11.06.11.05.25-.03.34l-.26.3c.16-.02.31.09.33.25.02.12-.04.24-.14.3l-1.41.81c-.14.08-.32.03-.4-.11-.06-.11-.05-.25.03-.34l.22-.25-1.22.71c-.14.08-.32.03-.4-.11-.07-.12-.04-.27.06-.37l.53-.47-1.63.94c-.14.08-.32.03-.4-.11-.07-.13-.04-.29.07-.38l.81-.63-1.94,1.12c-.14.08-.32.03-.4-.11-.07-.12-.04-.28.07-.37l2.84-2.32-4.86,2.81c-.14.08-.32.03-.4-.11-.08-.13-.04-.3.09-.39l1.65-1.13-2.82,1.63c-.14.08-.32.03-.4-.11-.08-.13-.04-.3.09-.39l2.88-1.96-4.26,2.46c-.14.08-.32.03-.4-.11-.08-.13-.04-.3.09-.39l4.56-3.1-6.23,3.6c-.14.09-.32.04-.4-.1-.09-.14-.04-.32.1-.4l4.02-2.62-5.41,3.12c-.14.08-.32.03-.4-.11-.08-.14-.04-.31.1-.4l.65-.41-1.58.91c-.14.08-.32.03-.4-.12-.07-.13-.03-.3.1-.39l1.43-.89-2.42,1.39c-.14.08-.32.04-.4-.1s-.04-.32.1-.4l1.74-1.08-2.75,1.59c-.14.08-.32.04-.4-.1s-.04-.32.1-.4l3.82-2.38-5,2.89s-.1.04-.15.04h0Z"/>
  <path class="cls-1" d="m23.27,33.1c-.16,0-.29-.13-.29-.29,0-.06.02-.13.06-.18l.41-.55-1.12.65c-.14.09-.32.05-.41-.09-.09-.14-.05-.32.09-.41,0,0,.01,0,.02-.01l2.38-1.37c.14-.08.32-.03.4.11.06.1.05.23-.02.32l-.47.62c.11,0,.2.06.26.15.08.14.03.32-.11.4l-1.06.61s-.09.04-.14.04h0Z"/>
  <path class="cls-1" d="m24.98,31.05c-.16,0-.29-.13-.29-.29,0-.07.03-.14.07-.19l.54-.62-1.01.58c-.14.09-.32.05-.41-.09-.09-.14-.05-.32.09-.41,0,0,.01,0,.02-.01l2.52-1.46c.14-.08.32-.03.4.11.06.11.05.24-.03.33l-.54.62.23-.13c.14-.09.32-.05.41.09.09.14.05.32-.09.41,0,0-.01,0-.02.01l-1.75,1.01s-.1.04-.15.04h0Z"/>
  <path class="cls-1" d="m26.75,28.35c-.16,0-.29-.13-.29-.29,0-.07.03-.14.07-.19l.13-.15-.65.38c-.14.08-.32.04-.4-.11-.08-.14-.04-.32.11-.4,0,0,0,0,0,0l2.19-1.26c.14-.08.32-.03.4.11.06.11.05.25-.03.34l-.36.41c.06.02.11.07.14.12.08.14.03.32-.11.4l-1.04.6s-.1.04-.15.04h0Z"/>
  <path class="cls-1" d="m20.79,34.64c-.16,0-.29-.13-.29-.29,0-.06.02-.11.05-.16l.57-.87-1.1.64c-.14.08-.32.03-.4-.11-.07-.13-.04-.29.08-.38l.78-.6-1.09.63c-.14.08-.32.03-.4-.11-.07-.13-.04-.29.08-.38l3.06-2.32-3.69,2.13c-.14.08-.32.03-.4-.11-.07-.13-.04-.3.09-.39l3.11-2.12-3.7,2.13c-.14.08-.32.03-.4-.11-.08-.13-.04-.3.09-.39l4.37-3.07-5.16,2.98c-.14.08-.32.03-.4-.11-.07-.13-.03-.3.09-.39l1.03-.67-1.4.81c-.14.08-.32.03-.4-.12-.07-.13-.03-.3.09-.38l2.48-1.65-2.98,1.72c-.14.08-.32.03-.4-.11-.07-.13-.04-.3.09-.38l4.83-3.39-5.67,3.27c-.14.07-.32.02-.4-.13-.07-.13-.03-.28.09-.37l2.82-1.87-3.33,1.92c-.14.08-.32.02-.4-.12-.07-.13-.03-.29.09-.38l3.85-2.6-4.48,2.59c-.14.08-.32.03-.4-.11-.07-.13-.04-.3.09-.39l4.43-3.02-5.14,2.96c-.14.08-.32.03-.4-.12-.07-.13-.03-.3.09-.38l3.45-2.29-4.02,2.32c-.14.08-.32.03-.4-.11-.07-.13-.03-.3.09-.38l4.33-2.92-5.01,2.89c-.14.08-.32.03-.4-.11-.07-.13-.04-.3.09-.39l4.93-3.35-5.59,3.23c-.14.08-.32.04-.4-.1-.08-.14-.04-.32.1-.4l.74-.47-1,.58c-.14.08-.32.04-.4-.1-.08-.14-.04-.31.09-.4l3.41-2.24-3.99,2.3c-.14.08-.32.04-.4-.1-.08-.14-.04-.32.1-.4l1.03-.66-1.49.86c-.14.08-.32.04-.4-.1-.08-.14-.04-.31.09-.4l4.78-3.2-5.73,3.31c-.14.08-.32.04-.4-.1-.08-.14-.04-.32.1-.4h0l2.85-1.84-3.65,2.11c-.14.08-.32.03-.4-.12-.07-.13-.03-.3.09-.38l5.26-3.5-5.1,2.95c-.14.08-.32.03-.4-.12-.07-.13-.03-.3.09-.38l4.11-2.75-3.89,2.25c-.14.08-.32.02-.4-.12-.07-.13-.03-.3.09-.38l1.46-.96-1.22.71c-.14.08-.32.03-.4-.11-.07-.12-.05-.28.06-.37l1.87-1.6-1.63.94c-.14.08-.32.04-.4-.1-.07-.12-.05-.27.06-.37l.81-.76-.54.31c-.14.08-.32.03-.4-.11-.06-.1-.05-.24.03-.33l.29-.35c-.15.07-.32.01-.39-.13-.03-.06-.04-.14-.02-.21l.08-.31s-.09-.06-.11-.11c-.08-.14-.03-.32.11-.4l.28-.16c.1-.06.23-.05.33.02.09.07.14.2.1.31l-.03.12.78-.45c.12-.07.28-.04.37.06.09.11.09.27,0,.38l-.28.34,1.36-.79c.14-.08.32-.04.4.1.07.12.05.27-.06.37l-.81.75,2.12-1.22c.14-.08.32-.03.4.11.07.12.04.27-.06.37l-1.87,1.6,7.58-4.38c.14-.08.32-.03.4.11.08.13.04.3-.09.39l-1.46.96,2.59-1.49c.14-.08.32-.03.4.11.08.13.04.3-.09.39l-4.11,2.75,5.37-3.1c.14-.09.32-.04.4.09.09.14.04.32-.09.4l-5.26,3.5,5.89-3.4c.14-.08.32-.04.4.1s.04.32-.1.4l-2.85,1.84,3.17-1.83c.14-.08.32-.04.4.1.08.14.04.31-.09.4l-4.78,3.2,5.27-3.04c.14-.08.32-.04.4.1s.04.32-.1.4l-1.03.66,1.26-.72c.14-.08.32-.02.4.12.07.13.03.3-.09.38l-3.41,2.24,3.78-2.18c.14-.08.32-.04.4.1s.04.32-.1.4l-.75.48.96-.55c.14-.08.32-.02.4.12.07.13.03.29-.09.38l-4.93,3.35,5.46-3.16c.14-.09.32-.04.41.09s.04.32-.09.41l-4.33,2.92,4.81-2.77c.14-.08.31-.04.4.1.08.14.05.31-.09.4l-3.46,2.29,3.84-2.22c.14-.08.32-.02.4.12.07.13.03.29-.09.38l-4.43,3.02,4.93-2.84c.14-.08.32-.03.4.11.07.13.03.3-.09.38l-3.85,2.6,4.29-2.48c.14-.09.32-.04.4.09s.04.32-.09.4l-2.82,1.87,3.17-1.83c.14-.08.32-.03.4.11.07.13.04.3-.09.38l-4.83,3.39,5.43-3.13c.14-.09.32-.04.4.09s.04.32-.09.4l-2.49,1.65,2.81-1.62c.14-.08.32-.03.4.12.07.13.03.3-.09.38l-1.04.67,1.27-.73c.14-.08.32-.03.4.11.07.13.04.3-.09.38l-4.37,3.07,4.81-2.78c.14-.08.32-.03.4.11.07.13.04.3-.09.39l-3.11,2.12.94-.54c.14-.08.32-.03.4.11.07.13.04.29-.08.38l-3.07,2.32.85-.49c.14-.08.32-.03.4.11.07.13.04.29-.07.38l-2.09,1.61h0c.09.11.11.26.03.37l-.57.87.61-.35c.14-.08.32-.03.4.11.08.14.03.32-.11.4l-1.68.97s-.1.04-.15.04h0Z"/>
  <path class="cls-3" d="m25.42,4.89c-.16,0-.29-.13-.29-.29,0-.06.02-.13.06-.18l.24-.31-1.06.61c-.14.08-.32.03-.4-.11-.07-.12-.05-.26.05-.36l.29-.29-.17.1c-.14.08-.32.03-.4-.11-.06-.1-.05-.22,0-.31l.61-.93-.22.13c-.14.08-.32.04-.4-.1-.05-.09-.06-.2,0-.29l.27-.53c-.06,0-.12-.01-.18-.05-.09-.06-.14-.17-.13-.29l.09-.58s-.04-.04-.05-.06c-.08-.14-.03-.32.11-.4l.13-.08c.14-.08.32-.03.4.11.03.06.05.12.04.19l-.05.31.17-.1c.14-.08.32-.03.4.11.05.09.05.19,0,.28l-.24.48.45-.26c.14-.08.32-.03.4.11.06.1.05.22,0,.31l-.61.93.99-.57c.14-.08.32-.03.4.12.06.11.04.25-.05.35l-.29.29.43-.25c.14-.08.32-.03.4.11.06.1.05.23-.02.33l-.24.31.38-.22c.14-.08.32-.03.4.11.05.08.05.17.02.26l-.07.16.11-.06c.14-.08.32-.03.4.11.08.14.03.32-.11.4l-.86.49c-.14.08-.32.03-.4-.11-.05-.08-.05-.17-.02-.26l.06-.16-.91.53s-.1.04-.15.04h0Z"/>
  <g>
    <path class="cls-4" d="m15.87,34.62c-.16,0-.29-.13-.29-.29,0-.08.03-.16.09-.21l1.16-1.11-1.27.73c-.14.08-.32.02-.4-.12-.06-.12-.04-.26.05-.35l.94-.84-.06.04c-.14.08-.32.03-.4-.11-.07-.11-.05-.26.04-.35l.74-.77s-.04-.05-.06-.07c-.08-.14-.03-.32.11-.4l.96-.56c.14-.08.32-.03.4.11.07.11.05.26-.04.35l-.24.25.68-.39c.14-.08.32-.02.4.12.06.12.04.26-.05.35l-.94.85.98-.56c.14-.08.32-.03.4.11.07.12.05.26-.05.36l-1.16,1.11.18-.1c.14-.09.32-.05.41.09.09.14.05.32-.09.41,0,0-.01,0-.02.01l-2.3,1.33s-.1.04-.15.04h0Z"/>
    <path class="cls-4" d="m14.47,33.52c-.16,0-.29-.13-.29-.29,0-.08.03-.15.08-.21l.59-.6-1.21.7c-.14.08-.32.04-.4-.1-.07-.12-.05-.27.05-.36l1.69-1.62-1.81,1.05c-.14.08-.32.03-.4-.11-.07-.12-.04-.28.07-.37l.62-.5c-.15.07-.32,0-.39-.14-.05-.11-.03-.24.05-.33l1.11-1.22c-.14-.08-.2-.26-.12-.4.03-.05.06-.09.11-.12l1.05-.61c.14-.08.32-.03.4.11.06.11.05.25-.04.34l-.8.88,1.58-.91c.14-.08.32-.03.4.11.07.13.04.28-.07.38l-.61.49.65-.38c.14-.08.32-.03.4.11.07.12.04.26-.05.35l-1.69,1.62.97-.56c.14-.08.32-.03.4.11.07.11.05.26-.04.35l-.93.96c.14.07.2.25.13.4-.03.05-.07.09-.12.12l-1.24.72s-.1.04-.15.04h0Z"/>
    <path class="cls-4" d="m12.06,31.99c-.16,0-.29-.13-.29-.29,0-.08.03-.15.09-.21l.08-.08-.62.36c-.14.08-.32.04-.4-.1-.07-.13-.04-.29.07-.38l.41-.33-.54.31c-.14.08-.32.03-.4-.11-.07-.12-.04-.28.07-.37l1.12-.9-.99.57c-.14.08-.32.03-.4-.11-.07-.12-.04-.28.07-.37l1.13-.93-.25.15c-.14.08-.32.03-.4-.11-.06-.11-.05-.25.04-.34l1.21-1.35c-.05-.03-.1-.07-.13-.12-.08-.14-.03-.32.11-.4l1.05-.61c.14-.08.32-.03.4.11.06.11.05.25-.04.34l-.93,1.04,1.77-1.02c.14-.08.32-.03.4.11.07.12.04.28-.07.37l-1.13.93,1.14-.66c.14-.08.32-.04.4.1.07.13.04.29-.07.38l-1.12.91.54-.31c.14-.08.32-.03.4.11.07.13.04.28-.07.38l-.82.67c.16.04.25.2.21.36-.01.05-.04.1-.08.14l-.69.67s.04.04.05.07c.08.14.03.32-.11.4l-1.05.61s-.09.04-.14.04h0Z"/>
    <path class="cls-4" d="m8.84,30.36c-.16,0-.29-.13-.29-.29,0-.08.04-.17.1-.22l.76-.67-1.06.61c-.14.08-.32.03-.4-.11-.07-.12-.04-.28.06-.37l1.24-1.06-1.13.65c-.14.08-.32.03-.4-.11-.07-.12-.04-.28.06-.37l1.04-.91-.1.06c-.14.08-.32.02-.4-.12-.06-.11-.04-.25.05-.34l.76-.77c-.12-.1-.14-.29-.03-.41.02-.03.05-.05.08-.06l1.05-.61c.14-.08.32-.02.4.12.06.11.04.25-.05.34l-.25.25.83-.48c.14-.08.32-.03.4.11.07.12.05.28-.06.37l-1.04.91,1.23-.71c.14-.08.32-.03.4.11.07.12.04.27-.06.37l-1.24,1.06.91-.52c.14-.08.32-.03.4.11.07.12.04.27-.06.37l-.93.81c.16,0,.29.14.29.3,0,.1-.06.19-.15.25l-2.27,1.31s-.1.04-.15.04h0Z"/>
    <path class="cls-4" d="m27.51,25.75c-.16,0-.29-.13-.29-.29,0-.09.04-.18.12-.24l.98-.73-1.31.76c-.14.08-.32.04-.4-.1-.08-.13-.04-.29.08-.38l2.2-1.69-2.73,1.58c-.14.08-.32.03-.4-.11-.08-.13-.04-.3.09-.39l.69-.48-.97.56c-.14.08-.32.03-.4-.11-.07-.13-.04-.29.08-.38l2.27-1.67-2.76,1.59c-.14.08-.32.03-.4-.12-.07-.13-.04-.29.08-.38l2.66-1.95-3.19,1.84c-.14.08-.32.02-.4-.12-.07-.13-.03-.29.09-.38l.54-.37-.81.47c-.14.08-.32.03-.4-.11-.07-.13-.04-.29.07-.38l2.06-1.59-2.58,1.49c-.14.08-.32.02-.4-.12-.06-.12-.04-.26.05-.35l2.01-1.82-2.71,1.56c-.14.08-.32.04-.4-.1-.07-.12-.05-.27.06-.37l1.28-1.19-1.81,1.05c-.14.08-.32.03-.4-.11-.07-.12-.04-.27.06-.37l.57-.48-.88.51c-.14.08-.32.03-.4-.11-.07-.12-.05-.27.05-.36l1.02-.99-1.59.92c-.14.09-.32.05-.41-.09-.09-.14-.05-.32.09-.41,0,0,.01,0,.02-.01l3.63-2.09c.14-.08.32-.03.4.11.07.12.05.27-.05.36l-1.02.99,1.66-.96c.14-.08.32-.03.4.11.07.12.04.28-.06.37l-.57.48,1.24-.71c.14-.08.32-.04.4.1.07.12.05.27-.06.37l-1.28,1.19,2.88-1.67c.14-.08.32-.02.4.12.06.12.04.26-.05.35l-2.01,1.82,3.97-2.29c.14-.08.32-.03.4.11.07.13.04.29-.08.38l-2.06,1.59,3.6-2.08c.14-.08.32-.03.4.11.07.13.04.3-.09.38l-.54.37,1.3-.75c.14-.08.32-.03.4.11.07.13.04.29-.08.38l-2.66,1.94,2.69-1.55c.14-.08.32-.03.4.11.08.13.04.3-.08.38l-2.27,1.67,2.29-1.32c.14-.08.32-.03.4.11.08.13.04.3-.09.39l-.69.48.62-.36c.14-.08.32-.03.4.11.07.13.04.29-.08.38l-2.2,1.69,1.85-1.07c.14-.08.32-.03.4.11.08.13.04.3-.08.38l-.98.72.31-.18c.14-.08.32-.03.4.11.06.11.05.25-.03.34l-.59.68c.16,0,.29.14.28.3,0,.1-.06.19-.15.24l-1.29.75c-.14.08-.32.03-.4-.11-.06-.11-.05-.25.03-.34l.5-.57-3.16,1.82s-.1.04-.15.04h0Z"/>
    <path class="cls-4" d="m13.71,22.98c-.16,0-.29-.13-.29-.29,0-.1.05-.19.13-.24l.57-.38-.79.46c-.14.08-.32.03-.4-.11-.08-.13-.04-.3.09-.39l1.66-1.14-1.67.96c-.14.08-.32.03-.4-.11-.07-.13-.04-.3.08-.38l2.34-1.67-1.77,1.02c-.14.08-.32.04-.4-.1-.08-.13-.04-.31.09-.39l1.65-1.15c-.16-.04-.25-.2-.21-.36.02-.06.05-.11.09-.15l1.92-1.63s-.03-.03-.04-.05c-.08-.14-.03-.32.11-.4l1.47-.85c.14-.08.32-.04.4.1.07.12.05.28-.07.38l-.94.8,2.03-1.18c.14-.08.32-.03.4.11.08.13.04.3-.09.39l-.83.58,1.28-.74c.14-.08.32-.04.4.1.08.13.04.3-.09.39l-2.34,1.66,2.94-1.7c.14-.08.32-.03.4.11.07.13.04.3-.09.38l-1.66,1.14,2.14-1.24c.14-.09.32-.04.41.09.09.14.04.32-.09.41h0l-4.74,3.15c.07.14.01.3-.12.38l-3.43,1.98s-.09.04-.14.04h0Z"/>
  </g>
  <path class="cls-1" d="m1.57,26.65c-.16,0-.29-.13-.29-.29,0-.08.03-.15.09-.21l.25-.25-.86.5c-.14.08-.32.02-.4-.12-.06-.11-.04-.25.05-.34l1.23-1.24-1.02.59c-.14.08-.32.04-.4-.1-.07-.12-.05-.28.06-.37l1.06-1.01-.72.41c-.14.08-.32.04-.4-.1-.07-.12-.05-.28.06-.37l1.08-1.02-.73.42c-.15.07-.32.01-.39-.13-.06-.11-.03-.25.05-.34l.62-.54-.28.16c-.14.08-.32.03-.4-.12-.07-.12-.04-.27.06-.36l.27-.22c-.16.05-.32-.04-.36-.2-.03-.11,0-.23.09-.31l.41-.35-.07.04c-.14.08-.32.02-.4-.12-.06-.12-.04-.26.05-.35l.76-.69-.42.25c-.14.08-.32.03-.4-.11-.06-.11-.04-.26.05-.35l.47-.47-.11.06c-.14.08-.32.04-.4-.1-.06-.09-.06-.21,0-.31l.22-.36c-.07-.02-.13-.07-.17-.13-.08-.14-.03-.32.11-.4l.66-.38c.14-.08.32-.03.4.11.05.09.05.21,0,.3l-.12.2,1.05-.61c.14-.08.32-.03.4.11.06.11.04.26-.05.35l-.47.47.92-.53c.14-.08.32-.02.4.12.06.12.04.26-.05.35l-.77.69.47-.27c.14-.08.32-.03.4.11.07.12.04.28-.06.37l-.41.35.07-.04c.14-.08.32-.03.4.11.07.12.04.28-.07.37l-.27.22c.16-.05.32.04.36.2.03.11,0,.23-.09.3l-.62.54.28-.16c.14-.08.32-.04.4.1.07.12.05.28-.06.37l-1.08,1.02.73-.42c.14-.08.32-.04.4.1.07.12.05.28-.06.37l-1.06,1,.72-.41c.14-.08.32-.02.4.12.06.11.04.25-.05.34l-1.23,1.24.87-.5c.14-.08.32-.02.4.12.06.11.04.25-.05.34l-.28.28c.16-.04.32.06.35.22.03.13-.03.26-.14.32l-1.79,1.03s-.1.04-.15.04h0Z"/>
  <path class="cls-1" d="m32.41,26.06c-.16,0-.29-.13-.29-.29,0-.08.03-.15.08-.21l.63-.65-1.04.6c-.14.08-.32.03-.4-.11-.07-.11-.05-.26.04-.35l1.42-1.46-1.08.62c-.14.08-.32.03-.4-.11-.06-.11-.04-.26.05-.35l1.28-1.27-.93.54c-.14.08-.32.04-.4-.1-.07-.12-.05-.27.05-.36l1.19-1.16-.84.49c-.14.08-.32.04-.4-.1-.07-.12-.05-.28.06-.37l1.05-.99-.71.41c-.14.08-.32.03-.4-.11-.07-.12-.05-.26.05-.35l1.26-1.24-.91.53c-.14.08-.32.03-.4-.11-.07-.12-.04-.27.06-.36l.44-.39-.1.06c-.14.08-.32.03-.4-.11-.05-.08-.05-.18-.01-.27l.36-.81c-.16.02-.31-.09-.33-.25-.02-.12.04-.24.14-.3l.66-.38c.14-.08.32-.03.4.11.05.08.05.18.01.27l-.35.78,1.85-1.07c.14-.08.32-.03.4.11.07.12.04.27-.06.36l-.44.39.37-.22c.14-.08.32-.03.4.11.07.12.05.26-.05.35l-1.26,1.24.91-.53c.14-.08.32-.04.4.1.07.12.05.28-.06.37l-1.06.99.71-.41c.14-.08.32-.04.4.1.07.12.05.27-.05.36l-1.19,1.16.84-.49c.14-.08.32-.03.4.11.06.11.04.26-.05.35l-1.28,1.27.93-.54c.14-.08.32-.03.4.11.06.11.05.26-.04.35l-1.42,1.47,1.06-.61c.14-.08.32-.03.4.11.06.11.05.26-.04.35l-.63.65.27-.16c.14-.08.32-.03.4.11.05.09.05.2,0,.29l-.24.41c.16.04.26.2.22.35-.02.08-.07.15-.14.19l-.66.38c-.14.08-.32.03-.4-.11-.05-.09-.05-.2,0-.3l.16-.27-1.17.67s-.1.04-.15.04h0Z"/>
  <path class="cls-2" d="m0,21.57v3.3c0,.29,0,.58,0,.88-.02.42.29.79.71.85.05.02.1.03.15.03h1.18c.42.05.85,0,1.25-.16.32-.17.51-.5.52-.85,1.56.25,3.03.9,4.27,1.87l-.22.36c-.25.36-.36.8-.32,1.24.18,1.24,1.48,1.58,2.51,1.22-.02.43.13.85.42,1.16.56.53,1.37.69,2.09.4,0,.35.1.7.31.99.41.53,1.06.8,1.72.71.13-.02.25-.05.37-.09-.01.35.11.69.35.95.48.47,1.19.61,1.8.35.69-.26,1.04-.97,1.39-1.58l1.18.86c.21.15.41.31.62.45.74.44,1.67.3,2.26-.32.26-.28.39-.65.36-1.03.97.08,1.85-.56,2.08-1.51.04-.19.04-.38,0-.57.74.07,1.46-.24,1.92-.83.4-.56.41-1.31.01-1.88.52-.09.99-.39,1.28-.83.47-.6.41-1.45-.14-1.98.08-.04.15-.08.23-.11.05-.02.11-.05.17-.07l.1-.04h.01s.01,0,.01,0c.14-.04.27-.09.41-.12.33-.09.66-.15.99-.19.39-.05.78-.08,1.18-.1,0,.52.12.99.73,1.12.04.02.09.03.14.03h1.18c.42.05.86,0,1.25-.16.64-.36.51-1.03.51-1.65v-5.79c0-.53.15-1.33-.4-1.63-.39-.14-.8-.18-1.21-.12-.37,0-.75-.02-1.12,0-.54,0-1,.4-1.07.93,0,.06,0,.13,0,.2h-2.66V6.35c0-.45.03-.92,0-1.37-.02-.16-.06-.31-.12-.45.01-.04,0-.08-.04-.09-.44-.67-.99-1.27-1.62-1.78-.67-.67-1.32-1.37-2.01-2.01-.49-.4-1.12-.57-1.74-.49h-13.27c-.92,0-3.11-.39-3.23.98-.12,1.43,0,2.92,0,4.35,0,4.33-.03,8.65,0,12.98v.02c-.23,0-.46-.01-.68-.01h-1.97c0-.42-.04-.86-.42-1.07-.39-.13-.8-.17-1.21-.12-.39-.02-.78-.01-1.18,0-.52.02-.95.41-1.01.92-.01.2,0,.41,0,.62v2.74Zm9.2,8.35c-.49-.21-.82-.68-.84-1.21,0-.32.1-.64.29-.9l.16-.27c.07-.05.12-.13.13-.22l.27-.45c.31-.51.63-1.32,1.33-1.17.5.13.88.53.98,1.04.06.31,0,.63-.14.9l-1.12,1.85s-.02.04-.03.07c-.2.37-.65.52-1.03.35h0Zm2.29,1.4c-.6-.39-.79-1.18-.44-1.8.35-.58.7-1.16,1.05-1.74.12-.21.25-.42.38-.62.24-.42.77-.56,1.18-.32.03.02.06.04.08.06.53.34.75,1,.53,1.59-.07.16-.15.32-.25.46-.06.07-.12.14-.17.22-.38.6-.74,1.22-1.11,1.83-.02.03-.03.07-.05.1-.26.4-.79.51-1.19.25-.01,0-.02-.02-.04-.02h0Zm2.3,1.34c-.43-.42-.52-1.07-.21-1.59l.94-1.56c.11-.24.29-.45.51-.61.38-.19.85-.11,1.15.19.38.36.5.92.31,1.4-.11.23-.24.45-.38.66l-.59.97c-.05.08-.09.16-.14.24l-.06.1c-.07.11-.15.21-.24.29-.39.3-.94.25-1.28-.11h0Zm3.35,1.33c-.04.07-.09.13-.15.18-.04.03-.08.06-.13.09.03-.02-.13.04-.07.03-.09.03-.18.03-.27.01-.09-.02-.18-.05-.26-.11-.46-.29-.6-.89-.32-1.35l.15-.24s.02-.02.02-.03c.19-.3.37-.61.55-.91.14-.24.29-.47.43-.71.05-.07.11-.12.17-.17.03-.02.07-.04.1-.06h.04s.04-.02.04-.02c.17-.02.35.01.49.1.4.25.57.74.41,1.18-.09.19-.19.37-.31.54-.29.49-.57.98-.87,1.45h0Zm6.04-1.45,4.47-7.4c-.31-.27-.67-.5-.98-.72l-4.45-3.1c-.93-.65-1.86-1.43-2.85-1.98-.73-.41-1.26.02-1.77.5l-1.96,1.82c-.19.18-.37.37-.57.53-.44.41-1.13.4-1.54-.04-.14-.15-.24-.34-.28-.54-.23-.87.56-1.46,1.08-2.01l1.91-2.01c.52-.55,1.04-1.25,1.82-1.44.93-.23,1.75.32,2.54.72l2.35,1.18c1.16.59,2.48.39,3.76.39h1.18c.08.02.16.02.24,0h3.04v5.9c-1.21.03-2.4.3-3.51.79Zm4.4-7.91s.02,0,.02,0c0,0,0,0,0,0s-.06.02-.01,0h0Zm-.04.29s0-.05,0-.08c.03-.07.06-.15.08-.22.14,0,.29,0,.43,0,.39-.02.78-.02,1.18,0,.53.07.4.71.4,1.1v5.18c.03.57.03,1.14,0,1.71,0,.06.02.03-.01.14,0,.03-.08.13-.07.16-.18.02-.37.01-.55,0h-1.14c-.32-.03-.35-.5-.34-.9,0-.02.02-.03.02-.05,0-.03,0-.06-.02-.09,0-.14.02-.26.02-.33v-5.21c-.02-.47-.02-.95,0-1.42h0ZM24.88,2c.76.76,1.55,1.52,2.3,2.3.04.04.07.08.1.12h-2.51s-.03,0-.05,0c-.03,0,.03,0,.03,0-.05,0-.09-.03-.14-.05-.19-.14-.28-.37-.24-.6V1.46c.18.18.34.38.5.53ZM7.46.82c.19-.12.86,0,1.08,0h13.13c.55,0,1.12-.04,1.67,0,.07,0,.14.02.21.04v3.05c-.03.2.02.41.12.58.2.24.51.35.81.31h3.06c.1.3.14.61.12.93v12.09h-2.55c-.39.04-.79,0-1.17-.1-1.3-.52-2.52-1.29-3.78-1.9-1.1-.55-2.41-.43-3.4.3-.07.05-.13.11-.19.16-1.52-.29-3.08-.23-4.57.18-.74.24-1.45.57-2.1.99-.52.33-1.1.96-1.73,1.02-.27.03-.54.03-.82.03V1.94c0-.22-.13-.96.12-1.12h0Zm-.87,18.16c.17.09.37.09.54,0,.23,0,.45,0,.68,0,1.29-.03,2.1-1.01,3.18-1.58,1.58-.75,3.36-.97,5.07-.63-.19.21-.38.42-.57.62l-1.91,2.01c-.48.4-.88.9-1.15,1.47-.28.95.27,1.94,1.21,2.21.16.05.33.07.5.07.74-.04,1.43-.38,1.9-.95l1.96-1.82c.29-.27.48-.64.85-.45.47.28.91.59,1.34.93l2.19,1.53c1.48,1.03,2.96,2.06,4.45,3.1.1.07.21.13.3.21.86.71.43,2.52-.85,2-.72-.4-1.4-.87-2.01-1.42-.31-.22-1.05.2-.66.49.57.41,1.12.86,1.71,1.25.14.09.28.16.44.22,0,.04.01.08.04.1.56.4.73,1.16.39,1.76-.24.43-.78.59-1.21.35-.05-.03-.1-.06-.15-.11-.11-.07-.21-.15-.32-.23-.06-.06-.12-.12-.19-.17-.03-.02-.07-.04-.1-.04-.39-.28-.77-.57-1.16-.85l-.74-.54c-.24-.17-1.02.18-.67.43l1.97,1.44s.03.04.05.06c.35.27.54.7.49,1.14-.02.2-.09.38-.2.55-.11.16-.26.29-.44.36h0s0,0,0,0c-.03,0-.06.02-.08.02-.02,0-.04,0-.06.01h-.02c-.06.01-.11.01-.17.01h-.02s-.07-.01-.11-.02c-.09-.02-.18-.04-.26-.08-.07-.03-.14-.08-.2-.12-.2-.14-.4-.29-.59-.43l-.65-.47c-.2-.11-.44-.08-.61.05-.15.11-.22.31-.05.43l.66.48c.15.11.29.22.45.33.33.36.37.89.1,1.29-.25.36-.57.33-.91.09-.54-.39-1.08-.79-1.62-1.18l-.5-.36c.06-.1.12-.2.18-.29.28-.46.27-1.04-.03-1.48-.37-.5-1.01-.74-1.62-.6.06-.35.01-.7-.14-1.02-.4-.75-1.28-1.12-2.09-.88.12-.45.05-.93-.21-1.31-.45-.61-1.24-.88-1.97-.68-.22.05-.42.13-.61.25,0-.06-.02-.12-.03-.18-.21-.6-.74-1.03-1.38-1.11-.73-.1-1.47.17-1.96.72-.19.25-.36.52-.51.8l-.02.03c-1.39-.99-2.99-1.62-4.68-1.86v-5.95c.93,0,1.86,0,2.79,0h0Zm-5.73-.88c0-.07.09-.34.02-.3.09-.05.35,0,.45,0,.4-.02.81-.02,1.21,0,.54.06.4.74.4,1.13v5.15c0,.34.02.7.02,1.05-.03.06-.03.13,0,.19,0,.16,0,.32-.02.48,0,.03,0,.05,0,.08,0,.07-.02.15-.04.22-.18.03-.36.03-.54,0h-1.18c-.49-.05-.32-1.1-.32-1.4v-5.21c0-.46-.05-.94,0-1.4h0Z"/>
  <path class="cls-2" d="m11.18,12.48s-.04,0-.06-.02c-.85-.31-1.42-1.12-1.44-2.02-.01-.39-.87-.23-.86.09.02,1.32,1.03,2.42,2.35,2.55v.46c0,.12.85,0,.85-.23v-.26c1.21-.19,2.16-1.14,2.34-2.35.13-1.42-.91-2.68-2.34-2.82,0,0,0,0,0,0V3.79s.04,0,.06.02c.85.31,1.42,1.12,1.44,2.02.01.39.87.23.86-.09-.02-1.32-1.03-2.42-2.35-2.55v-.46c0-.12-.85,0-.85.23v.26c-1.21.19-2.16,1.14-2.34,2.35-.13,1.42.91,2.68,2.34,2.82,0,0,0,0,0,0v4.09h0Zm1.17-3.86c.34.17.62.43.83.75.42.65.46,1.48.12,2.17-.25.5-.71.87-1.26.98v-4.03c.11.03.22.07.32.12Zm-1.49-.97c-.34-.17-.62-.43-.83-.75-.42-.65-.46-1.48-.12-2.17.25-.5.71-.87,1.26-.98v4.03c-.11-.03-.22-.07-.32-.12Z"/>
  <path class="cls-2" d="m16.15,3.68h5.29c.21.02.42-.07.56-.24.1-.17-.08-.26-.24-.26h-5.29c-.21-.02-.42.07-.56.24-.09.17.08.26.24.26Z"/>
  <path class="cls-2" d="m16.16,6.65h5.88c.22.02.43-.07.56-.25.09-.18-.08-.3-.25-.3h-5.88c-.22-.02-.43.07-.56.25-.09.17.08.3.25.3h0Z"/>
  <path class="cls-2" d="m16.47,9.06c-.18,0-.48.06-.56.24-.08.18.07.28.24.28h8.82c.18,0,.48-.06.56-.24.08-.17-.07-.28-.24-.28h-8.82,0Z"/>
  <path class="cls-2" d="m25.3,12.02h-8.82c-.17,0-.48.06-.56.23s.07.24.23.24h8.82c.17,0,.48-.06.56-.23s-.07-.24-.23-.24Z"/>
</svg>