<?xml version="1.0" encoding="UTF-8"?>
<svg id="Layer_1" data-name="Layer 1" xmlns="http://www.w3.org/2000/svg" viewBox="0 0 35 35">
  <defs>
    <style>
      .cls-1 {
        fill: #f47721;
      }

      .cls-1, .cls-2, .cls-3, .cls-4 {
        stroke-width: 0px;
      }

      .cls-3 {
        fill: #fff;
      }

      .cls-4 {
        fill: #c1dbf0;
      }
    </style>
  </defs>
  <g>
    <path class="cls-4" d="m21.07,32c-.16,0-.29-.13-.29-.29,0-.1.06-.2.15-.25l9.12-5.26c.14-.08.32-.03.4.11.07.13.04.29-.07.38l-1.19.94,1.18-.68c.14-.08.32-.03.4.11.07.12.04.28-.07.37l-1.02.83.88-.51c.14-.08.32-.03.4.11.07.12.04.27-.06.37l-1.31,1.12s.08.06.11.11c.08.14.03.32-.11.4l-1.86,1.07c-.14.08-.32.03-.4-.11-.07-.12-.04-.28.06-.37l.71-.61-1.25.72c-.14.08-.32.03-.4-.11-.07-.12-.04-.28.07-.37l1.02-.83-1.61.93c-.14.08-.32.03-.4-.11-.07-.13-.04-.28.07-.37l1.19-.94-5.55,3.21s-.1.04-.15.04h0Z"/>
    <path class="cls-4" d="m32.82,20.45c-.16,0-.29-.13-.29-.29,0-.1.06-.2.15-.25l1.51-.87c.14-.09.32-.05.41.09.09.14.05.32-.09.41,0,0-.01,0-.02.01l-1.51.87s-.1.04-.15.04h0Z"/>
    <path class="cls-4" d="m26.25,26.52c-.16,0-.29-.13-.29-.29,0-.09.04-.17.11-.23l1.97-1.57c-.14.08-.32.04-.4-.1-.07-.13-.05-.29.07-.38l1.32-1.12-.16.09c-.14.08-.32.03-.4-.11-.07-.13-.04-.29.08-.38l2.07-1.58-1.21.7c-.14.08-.32.03-.4-.11-.07-.12-.04-.28.07-.37l2.49-2.05-1.77,1.02c-.14.08-.32.03-.4-.11-.07-.12-.04-.28.07-.37l2.12-1.77-1.61.93c-.14.08-.32.03-.4-.11-.07-.13-.04-.29.08-.37l.28-.21c-.16.04-.32-.06-.36-.21-.02-.1,0-.2.07-.27l1.4-1.45-1.08.62c-.14.08-.32.04-.4-.1-.07-.11-.05-.25.03-.35l.75-.84-.51.29c-.14.08-.32.03-.4-.11-.06-.1-.05-.23.02-.33l.84-1.06-.7.4c-.14.08-.32.03-.4-.11-.06-.11-.05-.24.03-.34l.63-.74-.53.3c-.12.07-.28.04-.37-.06-.09-.11-.1-.26-.01-.37l.69-.88-.67.39c-.13.07-.29.04-.38-.07-.09-.11-.08-.28.02-.38l.32-.34-.26.15c-.14.08-.32.03-.4-.11-.06-.11-.05-.25.03-.34l.4-.45-.4.23c-.14.08-.32.03-.4-.11-.06-.11-.05-.25.04-.34l.4-.44-.44.25c-.14.08-.32.04-.4-.1-.07-.12-.05-.27.06-.37l.75-.71-.88.51c-.14.08-.32.03-.4-.11-.07-.12-.04-.27.05-.36l1.4-1.29-1.7.98c-.14.08-.32.03-.4-.11-.07-.12-.05-.26.05-.36l1.64-1.61-2.13,1.23c-.14.08-.32.03-.4-.11-.07-.12-.04-.27.06-.37l1.25-1.1-1.66.96c-.14.08-.32.03-.4-.11-.07-.12-.04-.28.07-.37l.8-.65-1.13.65c-.14.08-.32.03-.4-.11-.07-.13-.04-.29.08-.38l.08-.06-.33.19c-.14.08-.32.03-.4-.11-.06-.11-.05-.24.03-.33l.42-.5-.86.5c-.14.08-.32.03-.4-.11-.06-.11-.05-.25.04-.34l.28-.31-.7.41c-.14.08-.32.03-.4-.11-.06-.11-.05-.25.04-.34l.32-.35-.84.48c-.14.08-.32.03-.4-.11-.06-.1-.05-.22.01-.31l.59-.84-1.57.9c-.14.08-.32.03-.4-.11-.05-.09-.05-.21,0-.3l.65-1.02-2.07,1.19c-.14.08-.32.04-.4-.1-.07-.12-.05-.27.05-.37l.43-.4-1.52.88c-.14.08-.32.03-.4-.11-.07-.12-.05-.27.05-.36l1.63-1.59-4.91,2.83c-.14.09-.32.05-.41-.09-.09-.14-.05-.32.09-.41,0,0,.01,0,.02-.01l6.94-4.01c.13-.07.29-.04.38.08.09.12.08.28-.03.39l-1.63,1.59,1.71-.99c.14-.08.32-.04.4.1.07.12.05.27-.05.37l-.43.4.89-.51c.12-.07.27-.05.36.05.09.1.11.25.03.36l-.66,1.02,1.68-.97c.14-.08.32-.03.4.11.06.1.05.22-.01.31l-.59.84,1.34-.77c.14-.08.32-.03.4.11.06.11.05.25-.04.34l-.32.35.72-.41c.14-.08.32-.03.4.11.06.11.05.25-.04.34l-.28.31.62-.36c.14-.08.32-.03.4.11.06.11.05.24-.03.33l-.42.5,2.93-1.7c.14-.08.32-.03.4.11.07.13.04.29-.08.38l-.09.06.29-.17c.14-.08.32-.03.4.11.07.12.04.28-.07.37l-.8.65,1.04-.6c.14-.08.32-.03.4.11.07.12.05.28-.06.37l-1.25,1.1,1.57-.91c.14-.08.32-.03.4.11.07.12.05.26-.05.36l-1.64,1.61,2.01-1.16c.14-.08.32-.03.4.11.07.12.04.27-.05.36l-1.39,1.28.76-.44c.14-.08.32-.04.4.1.07.12.05.27-.06.37l-.79.74c.16-.04.32.06.36.21.02.1,0,.2-.07.27l-.4.44.32-.19c.14-.08.32-.03.4.11.06.11.05.25-.03.34l-.4.45.41-.23c.14-.08.32-.03.4.11.06.11.05.25-.04.35l-.32.34.27-.15c.14-.08.32-.03.4.11.06.1.05.23-.02.33l-.69.88.7-.4c.14-.08.32-.03.4.11.06.11.05.24-.03.34l-.63.74.55-.32c.14-.08.32-.03.4.11.06.1.05.23-.02.33l-.84,1.06.76-.44c.14-.08.32-.03.4.11.06.11.05.25-.04.34l-.75.84,1.29-.74c.14-.08.32-.03.4.11.06.11.05.25-.04.35l-1.4,1.46,2.36-1.36c.14-.08.32-.03.4.11.07.13.04.29-.08.38l-.21.16.26-.15c.14-.08.32-.03.4.11.07.12.04.28-.07.37l-2.12,1.77,1.88-1.09c.14-.08.32-.03.4.11.07.12.04.28-.07.37l-2.49,2.05,2.14-1.24c.14-.08.32-.03.4.11.07.13.04.29-.08.38l-2.8,2.14c.05.02.09.06.13.1.09.12.07.3-.05.39l-1.32,1.12.63-.36c.14-.08.32-.03.4.11.07.13.04.29-.07.38l-1.97,1.56,1.08-.62c.14-.09.32-.05.41.09.09.14.05.32-.09.41,0,0-.01,0-.02.01l-4.54,2.62s-.1.04-.15.04h0Z"/>
    <path class="cls-4" d="m17.66,34.79c-.16,0-.29-.13-.29-.29,0-.08.03-.16.09-.22l.9-.82-2.14,1.23c-.14.08-.32.04-.4-.1-.08-.14-.04-.32.1-.4h0l2.66-1.7-3.08,1.78c-.14.08-.32.04-.4-.1-.08-.14-.04-.32.1-.4l3.19-2.02-3.19,1.84c-.14.08-.32.03-.4-.11-.07-.12-.05-.27.06-.37l1.86-1.66-1.94,1.12c-.14.08-.32.04-.4-.1-.07-.12-.05-.27.05-.37l.74-.69-1,.57c-.14.08-.32.03-.4-.11-.07-.12-.05-.27.05-.36l.18-.17-.69.4c-.14.08-.32.03-.4-.11-.06-.11-.04-.26.05-.35l.26-.26-.75.43c-.14.08-.32.03-.4-.11-.06-.1-.05-.23.02-.33l.55-.71-1.22.7c-.14.08-.32.03-.4-.11-.06-.09-.05-.21,0-.31l.59-.94-1.32.76c-.14.08-.32.03-.4-.11-.05-.09-.05-.21,0-.3l.58-.93-3.23,1.88c-.14.08-.32.04-.4-.1-.07-.12-.05-.28.06-.37l1.44-1.36-2.1,1.21c-.14.08-.32.03-.4-.11-.07-.12-.04-.28.07-.37l.94-.78-1.2.7c-.14.08-.32.04-.4-.1-.07-.12-.05-.27.05-.37l1.5-1.4-1.88,1.09c-.14.09-.32.04-.4-.1-.08-.12-.05-.28.06-.37l1.56-1.48-1.69.97c-.14.08-.32.03-.4-.11-.07-.12-.04-.28.07-.37l.77-.65h-.02c-.14.09-.32.05-.4-.09-.06-.11-.05-.25.04-.35l1.01-1.07-.25.15c-.14.08-.32.03-.4-.11-.06-.11-.05-.25.03-.34l.38-.43-.4.23c-.14.08-.32.03-.4-.11-.07-.12-.05-.26.05-.36l.04-.03c-.12.05-.25.01-.33-.08-.09-.11-.1-.26,0-.37l.63-.79-.65.37c-.14.08-.32.03-.4-.11-.06-.1-.05-.23.02-.32l.75-.99-.75.43c-.14.08-.32.03-.4-.11-.06-.1-.05-.23.02-.33l.81-1.04-.75.43c-.14.08-.32.03-.4-.11-.07-.12-.05-.27.05-.36l.24-.23-.06.04c-.14.08-.32.03-.4-.11-.07-.12-.04-.27.05-.36l.08-.08-.43.25c-.14.08-.32.03-.4-.11-.07-.12-.05-.26.05-.36l1.13-1.15-1.96,1.13c-.14.08-.32.03-.4-.11-.07-.12-.05-.27.05-.36l1.98-1.82-2.36,1.36c-.14.08-.32.03-.4-.11-.07-.12-.04-.28.07-.37l2-1.63-1.72.99c-.14.08-.32.03-.4-.11-.08-.13-.04-.3.08-.39l.66-.48-.33.19c-.14.08-.32.03-.4-.11-.06-.1-.05-.23.02-.33l.7-.93-.17.1c-.14.09-.32.05-.41-.09-.09-.14-.05-.32.09-.41,0,0,.01,0,.02-.01l1.44-.83c.14-.08.32-.03.4.11.06.1.05.23-.02.33l-.71.92,3.85-2.22c.14-.08.32-.03.4.11.07.13.04.29-.08.38l-.66.48.11-.07c.14-.08.32-.03.4.11.07.12.04.28-.07.37l-2,1.63,1.46-.85c.14-.08.32-.03.4.11.07.12.05.27-.05.36l-1.98,1.83,1.56-.9c.14-.08.32-.03.4.11.07.12.05.26-.05.36l-1.13,1.15.84-.48c.14-.08.32-.03.4.11.07.12.05.27-.05.36l-.16.15c.16-.02.31.09.33.25.01.09-.02.19-.09.25l-.24.23h.01c.12-.08.28-.05.37.05.09.11.1.26,0,.37l-.82,1.04.7-.41c.14-.08.32-.03.4.11.06.1.05.23-.02.32l-.75.99.73-.42c.14-.08.32-.03.4.11.06.1.05.23-.02.33l-.63.79.63-.36c.14-.08.32-.03.4.11.07.12.05.26-.05.36l-.04.04c.15-.06.32.02.38.17.04.1.02.22-.06.3l-.38.43.4-.23c.14-.08.32-.03.4.11.06.11.05.25-.04.35l-1.01,1.07,1.22-.7c.14-.08.32-.03.4.11.07.12.04.28-.07.37l-.77.65.92-.53c.14-.09.32-.04.4.1.08.12.05.28-.06.37l-1.56,1.48,1.97-1.14c.14-.08.32-.04.4.1.07.12.05.27-.05.37l-1.5,1.4,1.97-1.14c.14-.08.32-.03.4.11.07.12.04.28-.07.37l-.94.78,1.29-.74c.14-.08.32-.04.4.1.07.12.05.28-.06.37l-1.45,1.35,2.08-1.2c.14-.08.32-.03.4.11.06.09.05.21,0,.31l-.58.93,1.32-.76c.14-.08.32-.03.4.11.06.09.05.21,0,.31l-.59.94,1.5-.86c.14-.08.32-.03.4.11.06.1.05.23-.02.33l-.55.71,1.43-.82c.14-.08.32-.03.4.11.06.11.04.26-.05.35l-.26.26.96-.55c.14-.08.32-.04.4.1.07.12.05.27-.05.37l-.18.16.98-.56c.14-.08.32-.04.4.1.07.12.05.27-.05.37l-.74.69,2.16-1.25c.14-.08.32-.03.4.11.07.12.05.27-.06.37l-1.86,1.66,12.85-7.42c.14-.08.32-.02.4.12.07.13.03.3-.09.38l-3.17,2.02,2.36-1.36c.14-.08.32-.03.4.11.08.13.03.3-.09.39l-9.21,5.88c.04.11,0,.24-.08.32l-.9.82.04-.02c.14-.08.32-.03.4.11.08.14.03.32-.11.4l-2.35,1.36s-.1.04-.15.04h0Z"/>
    <path class="cls-4" d="m14.75,2.71c-.16,0-.29-.13-.29-.29,0-.07.02-.13.06-.18l.68-.88c-.15-.05-.23-.22-.18-.38.02-.06.07-.12.13-.15l.89-.52c.14-.08.32-.03.4.11.06.1.05.23-.02.33l-.52.67,1.99-1.15c.14-.08.32-.02.4.12.07.14.03.3-.1.38l-3.29,1.9s-.1.04-.15.04Z"/>
    <path class="cls-4" d="m3.21,14.53c-.16,0-.29-.13-.29-.29,0-.09.04-.18.11-.23l.38-.29c-.16,0-.29-.15-.28-.31,0-.08.04-.16.11-.21l1.79-1.49-.96.56c-.14.08-.32.03-.4-.11-.08-.14-.04-.31.09-.39l6.67-4.34-5.6,3.23c-.14.08-.32.03-.4-.11-.08-.13-.04-.3.09-.39l5.99-3.92-5.35,3.09c-.14.08-.32.03-.4-.11-.07-.13-.04-.29.08-.38l2.71-1.98-2.76,1.59c-.14.08-.32.03-.4-.11-.07-.12-.04-.28.07-.37l.97-.76-.94.54c-.14.08-.32.03-.4-.11-.07-.13-.04-.29.08-.38l.2-.16c-.16.01-.3-.11-.32-.27,0-.09.03-.18.1-.25l1.66-1.47s-.01-.02-.02-.02c-.08-.14-.03-.32.11-.4l1.14-.65c.14-.08.32-.03.4.11.07.12.05.27-.06.37l-.68.6,1.28-.74c.14-.08.32-.03.4.11.07.13.04.29-.08.38l-.03.02.39-.22c.14-.08.32-.03.4.11.07.13.04.29-.07.38l-.97.76,3.96-2.28c.14-.08.32-.03.4.11.07.13.04.29-.08.38l-2.71,1.98L19.27.5c.14-.08.32-.02.4.12.07.13.03.3-.09.38l-5.99,3.93,6.19-3.57c.14-.08.32-.02.4.12.07.13.03.29-.09.38l-11.94,7.76c.05.12.02.26-.08.34l-1.79,1.49.22-.13c.14-.08.32-.03.4.11.07.13.04.29-.07.38l-.58.46c.16.04.25.2.21.36-.02.08-.07.14-.14.18l-2.95,1.7s-.1.04-.15.04h0Z"/>
  </g>
  <path class="cls-1" d="m12.79,23.65c-.16,0-.29-.13-.29-.29,0-.1.05-.18.12-.24l2.02-1.43-3.24,1.87c-.14.08-.32.03-.4-.11-.07-.13-.04-.3.09-.38l1.39-.96-1.7.98c-.14.08-.32.03-.4-.12-.07-.13-.03-.29.09-.38l.47-.32-.34.2c-.14.08-.32.03-.4-.11-.07-.13-.04-.29.07-.38l1.79-1.4-1.46.84c-.14.08-.32.03-.4-.11-.07-.12-.04-.26.05-.36l1.2-1.09-.85.49c-.14.08-.32.03-.4-.11-.06-.11-.05-.25.04-.35l.38-.41h-.02c-.14.09-.32.04-.4-.1-.04-.07-.05-.15-.03-.23l.14-.48c-.14-.08-.2-.25-.12-.4.03-.05.06-.09.11-.12l.29-.17c.14-.08.32-.03.4.11.04.07.05.15.03.23l-.09.29,1.08-.63c.14-.08.32-.03.4.11.06.11.05.25-.04.35l-.38.41,1.49-.86c.14-.08.32-.03.4.11.07.12.04.26-.05.36l-1.2,1.09,2.71-1.57c.14-.08.32-.04.4.1.08.13.04.29-.07.38l-1.79,1.4,3.27-1.89c.14-.08.32-.02.4.12.07.13.03.29-.09.38l-.47.32,1.42-.82c.14-.08.32-.03.4.12.07.13.03.29-.08.38l-1.39.97,2.53-1.46c.14-.08.32-.03.4.11.07.13.04.29-.08.38l-2.03,1.43,3.34-1.93c.14-.08.32-.03.4.11.07.13.04.3-.08.38l-2.16,1.53,3.52-2.03c.14-.08.32-.03.4.11.07.13.04.29-.08.38l-2.9,2.17,3.74-2.16c.14-.08.32-.03.4.11.07.12.04.28-.07.37l-2.73,2.16,2.4-1.38c.14-.08.32-.03.4.11.07.12.04.28-.07.37l-1.27,1.03.94-.54c.14-.08.32-.03.4.11.06.1.05.23-.02.33l-.95,1.21.56-.32c.14-.09.32-.05.41.09.09.14.05.32-.09.41,0,0-.01,0-.02.01l-1.88,1.09c-.14.08-.32.03-.4-.11-.06-.1-.05-.23.02-.33l.95-1.21-2.84,1.64c-.14.08-.32.03-.4-.11-.07-.12-.04-.28.07-.37l1.27-1.03-2.62,1.5c-.14.08-.32.03-.4-.11-.07-.12-.04-.28.07-.37l2.73-2.16-4.59,2.65c-.14.08-.32.03-.4-.11-.07-.13-.04-.29.08-.38l2.9-2.17-4.6,2.66c-.14.08-.32.03-.4-.11-.07-.13-.04-.29.08-.38l2.16-1.54-3.52,2.03s-.09.04-.14.04h0Z"/>
  <path class="cls-1" d="m15.77,18.95c-.16,0-.29-.13-.29-.29,0-.1.05-.19.13-.25l.84-.56-1.83,1.06c-.14.08-.32.03-.4-.11-.08-.13-.04-.3.08-.39l3.35-2.41-5.02,2.9c-.14.08-.32.03-.4-.11-.07-.13-.04-.29.08-.38l2.74-1.91-3.94,2.27c-.14.08-.32.03-.4-.11-.08-.13-.04-.3.09-.39l2.56-1.78-2.97,1.72c-.14.08-.32.03-.4-.11-.07-.13-.04-.29.08-.38l2.82-2.09-2.85,1.64c-.14.08-.32.03-.4-.11-.07-.13-.04-.3.08-.38l.56-.4-.26.15c-.14.08-.32.03-.4-.11-.07-.13-.04-.29.08-.38l.74-.55-.41.24c-.14.08-.32.03-.4-.11-.06-.11-.05-.25.03-.34l1.16-1.29-.79.46c-.14.08-.32.03-.4-.11-.06-.11-.05-.24.03-.33l.29-.35c-.06-.02-.12-.07-.15-.13-.08-.14-.03-.32.11-.4l.97-.56c.12-.07.28-.04.37.06.09.11.09.27,0,.38l-.09.11.95-.55c.14-.08.32-.03.4.11.06.11.05.24-.03.34l-1.15,1.29,3.01-1.74c.14-.08.32-.03.4.11.07.13.04.29-.08.38l-.74.55,1.81-1.04c.14-.08.32-.03.4.12.07.13.04.29-.08.38l-.56.4,1.54-.89c.14-.08.32-.03.4.11.07.13.04.29-.08.38l-2.83,2.09,4.47-2.58c.14-.08.32-.03.4.11.07.13.04.29-.08.38l-2.56,1.78,3.95-2.28c.14-.08.32-.03.4.11.07.13.04.3-.08.38l-2.74,1.91,4.16-2.4c.14-.08.32-.03.4.11.08.13.04.3-.08.39l-3.35,2.41,4.85-2.8c.14-.08.32-.03.4.11.08.13.04.3-.09.39l-.84.55,1.05-.6c.14-.08.32-.03.4.11.08.13.04.29-.08.38l-3.05,2.27,2.9-1.68c.14-.08.32-.03.4.11.07.12.04.28-.07.37l-2.4,1.99,2.07-1.19c.14-.08.32-.04.4.1.07.12.05.28-.06.37l-1.28,1.22.93-.54c.14-.08.32-.03.4.11.06.11.05.24-.03.34l-.52.59c.16.03.27.18.24.34-.01.09-.07.16-.14.21l-1.2.69c-.14.08-.32.03-.4-.11-.06-.11-.05-.24.03-.34l.39-.44-1.57.9c-.14.09-.32.04-.4-.1-.08-.12-.05-.28.06-.37l1.28-1.22-2.92,1.69c-.14.08-.32.03-.4-.11-.07-.12-.04-.28.07-.37l2.4-1.99-4.28,2.47c-.14.08-.32.03-.4-.11-.08-.13-.04-.29.08-.38l3.05-2.27-4.78,2.76s-.09.04-.15.04h0Z"/>
  <path class="cls-3" d="m15,20.12c-.16,0-.29-.13-.29-.29,0-.04,0-.09.03-.12l.32-.67-1.74,1.01c-.14.08-.32.03-.4-.11-.06-.1-.05-.23.02-.33l.84-1.08-.81.47c-.14.08-.32.03-.4-.11-.05-.09-.05-.2,0-.29l.23-.39c-.16-.03-.26-.18-.23-.34.02-.08.07-.16.14-.2l.69-.39c.14-.08.32-.03.4.11.05.09.05.2,0,.29l-.16.27,1.16-.67c.14-.08.32-.03.4.11.06.1.05.23-.02.33l-.84,1.08,1.25-.72c.14-.08.32-.03.4.11.05.08.05.18.01.27l-.33.71c.16-.02.31.1.33.26.01.12-.04.23-.14.29l-.68.39s-.1.04-.15.04h0Z"/>
  <path class="cls-3" d="m20.21,20.12c-.16,0-.29-.13-.29-.29,0-.06.02-.12.05-.17l.83-1.18-1.38.8c-.14.08-.32.03-.4-.11-.05-.08-.05-.18-.01-.27l.33-.7c-.16.02-.31-.1-.33-.26-.01-.12.04-.23.14-.29l.68-.39c.14-.08.32-.03.4.11.05.08.05.18.01.27l-.31.66,1.73-1c.14-.08.32-.03.4.11.06.1.05.22-.01.32l-.83,1.18.8-.46c.14-.08.32-.03.4.11.05.09.05.21,0,.3l-.19.3c.15.05.24.21.19.37-.02.07-.07.13-.13.17l-.68.39c-.14.08-.32.03-.4-.11-.05-.09-.05-.21,0-.3l.08-.13-.93.54s-.1.04-.15.04h0Z"/>
  <path class="cls-2" d="m20.15,29.74c12.36-2.43,13.58-20.44,1.43-24.19C.73.4-1.32,32.86,20.15,29.74ZM7.33,11.11C13.44.71,29.57,5.82,29.39,17.61c-1.59,20.67-31.34,11.55-22.06-6.51Z"/>
  <path class="cls-2" d="m.45,19.75c.62.55,1.64.61,2.33,1.02.12,1.74,1.29,3.37,1.9,4.9-.86,1.93-1.34,2.84.65,4.31,1.14,1.48,2.61.86,4.01.15,1.4.99,3.19,1.44,4.71,2.02.76,2.58,1.53,2.92,4.19,2.59,1.69.18,2.29-1.38,2.67-2.76,1.57-.38,3.07-1,4.46-1.84,2.3,1.72,4.39.18,5.68-1.91.4-.98-.68-1.85-.78-2.76.88-1.5,1.54-3.12,1.96-4.82,1-.47,2.6-.62,2.66-2,.3-2,.07-3.86-2.24-4.23-.44-.18-.42-.13-.51-.61-.27-1.25-.75-2.44-1.4-3.54-.58-.76-.53-1.05-.07-1.85.8-1.13.39-2.26-.67-3.02-1.09-1.67-2.79-1.58-4.39-.53-1.4-.99-3.18-1.43-4.71-2.01C20.15.28,19.38-.06,16.72.27c-1.69-.18-2.29,1.38-2.67,2.76-1.57.38-3.07,1-4.46,1.84-2.3-1.72-4.39-.18-5.68,1.91-.4.98.68,1.85.78,2.76-.88,1.5-1.54,3.12-1.96,4.82-1,.36-2.52.71-2.65,1.87,0,1.13-.37,2.57.36,3.52h0Zm.47-3.38c.03-.53.13-.84.61-1.07.57-.27,1.19-.44,1.75-.7.85-1.53,1.15-3.58,2.28-5.07.03-.75-.73-1.56-.87-2.29-.03-.97,1.77-2.76,2.73-2.61,2.38,1.72,4.33-.93,6.8-1.23,1.47-.5.8-3.26,2.98-2.7,2.74-.45,1.92,1.46,3.23,2.69,1.86.26,3.48,1.63,5.21,1.95,2.17-1.36,3.08-.46,4.49,1.36.54,1-.55,1.96-.73,2.91,1.01,1.51,1.56,3.35,2.13,5.02.79.5,2.24.44,2.51,1.52.63,6.24-2.17,1.17-3.56,7.39-2.72,3.63,1.94,3.35-1.57,6.21-.92,1.24-2.02.23-3.09-.13-1.7.37-3.21,1.75-5.06,1.97-1.54.45-.69,3.26-2.98,2.7-2.42.4-2.15-1.18-3.1-2.67-1.9-.22-3.58-1.65-5.34-1.97-1.02.36-2.13,1.35-3.02.18-3.88-3.06.85-2.85-1.71-6.23-.59-.96-.65-2.29-1.15-3.23-2.47-.74-2.9-1.39-2.54-4h0Z"/>
  <path class="cls-2" d="m2.83,21.21s0-.01,0-.02c0,.02,0,.03,0,.02Z"/>
  <path class="cls-2" d="m9.43,17.02c.02.5.23.98.59,1.33.13,1.48-.3,3.15.17,4.56,2.09,1.75,7.24.29,10.06.74,5.2.5,4.87-.92,4.72-5.45.95-.89.58-2.6.58-3.76.34-2.19-2.08-1.91-3.55-1.87-.21-1.74-.57-3.35-2.72-2.96-2.72.13-6.33-1-6.28,2.96-3.82-.45-3.77,1.26-3.58,4.45h0Zm14.68,5.23c-.31,1.85-7.28.44-9.12.86-4.44.35-4.29-.06-4.12-4.28.49.1.99.13,1.49.09-.47,1.88,4.24,1.78,3.8-.07h2.67c-.61,1.86,4.12,1.74,3.79.06.51.01,1.01-.06,1.5-.2.06,1.18.06,2.36-.01,3.53h0Zm-10.77-4.44h1.76-.03c.43.33.25,1.27.15,1.74-.58,0-1.27.03-1.8-.02-.4-.38-.07-1.72-.07-1.72Zm.11,1.74h.01s0,0-.01,0Zm8.31-1.37c-.05.47.12,1.01-.09,1.44-.57,0-1.14,0-1.71,0-.49-.31-.32-1.35-.2-1.86.6.14,1.83-.39,2,.42,0-.04,0,0,0,0h0Zm-7.56-7.4c.75-1.38,3.13-.33,4.49-.64,1.92-.41,2.24.86,2.41,2.45h-7.26c.12-.6.21-1.21.36-1.8h0Zm-3.92,3.36c-.35-2.27,10.52-.61,12.54-1.09,1.18-.24,2.13.43,1.87,1.69-.11,1.15.37,2.65-.57,3.49-.47.24-1,.32-1.51.23.5-1.82-4.19-1.69-3.79.06h-2.66c.54-1.92-4.16-1.87-3.8-.05-2.56.3-2.1-2.65-2.08-4.33h0Z"/>
</svg>