<?xml version="1.0" encoding="UTF-8"?>
<svg id="Layer_1" data-name="Layer 1" xmlns="http://www.w3.org/2000/svg" viewBox="0 0 35 35">
  <defs>
    <style>
      .cls-1 {
        fill: #f47721;
      }

      .cls-1, .cls-2, .cls-3, .cls-4, .cls-5 {
        stroke-width: 0px;
      }

      .cls-3 {
        fill: #fff;
      }

      .cls-4 {
        fill: #f68c41;
      }

      .cls-5 {
        fill: #c1dbf0;
      }
    </style>
  </defs>
  <g>
    <path class="cls-5" d="m14.08,20.14c-.08,0-.15-.03-.2-.08l-.35-.33-.63.36c-.14.08-.32.03-.4-.11-.02-.03-.03-.06-.04-.1l-.14-.79-.38.22c-.14.08-.32.03-.4-.11-.03-.06-.05-.13-.04-.2l.06-.34-.24.14c-.14.08-.32.03-.4-.11-.03-.05-.04-.1-.04-.16l.03-.79-.53.31c-.14.08-.32.03-.4-.11-.04-.07-.05-.17-.02-.25l.23-.65-.62.36c-.14.08-.32.03-.4-.11-.06-.1-.05-.23.02-.32l.16-.21-.33.19c-.14.08-.32.03-.4-.11-.06-.1-.05-.21,0-.31l.58-.93-1.08.62c-.14.08-.32.03-.4-.11-.07-.12-.05-.26.05-.36l.3-.29-.28.16c-.14.08-.32.03-.4-.11-.06-.11-.05-.24.03-.34l1.1-1.32-1.93,1.11c-.14.08-.32.03-.4-.11-.07-.13-.04-.29.07-.38l.08-.06-.47.27c-.14.08-.32.03-.4-.11-.07-.13-.04-.28.07-.38l1.26-1.01-1.5.87c-.14.08-.32.03-.4-.12-.07-.13-.04-.29.08-.38l1.52-1.16-1.24.71c-.14.08-.32.03-.4-.11-.06-.1-.05-.22.01-.31l.75-1.11-.24.13c-.14.08-.32.02-.4-.13-.07-.14-.03-.3.1-.39l1.35-.78c.14-.08.32-.03.4.11.06.1.05.22-.01.31l-.75,1.11,4.16-2.41c.14-.08.32-.03.4.11.07.13.04.29-.08.38l-1.53,1.16.84-.48c.14-.08.32-.03.4.11.07.13.04.29-.07.38l-1.26,1.01.78-.45c.14-.08.32-.03.4.11.07.13.04.29-.07.38l-.27.21c.09,0,.18.03.24.1.09.11.09.27,0,.38l-1.09,1.32.85-.49c.14-.08.32-.03.4.11.07.12.05.26-.05.36l-.3.29.1-.06c.14-.08.32-.03.4.11.06.1.05.21,0,.31l-.58.93.52-.3c.14-.08.32-.03.4.11.06.1.05.23-.02.32l-.16.21.09-.05c.11-.06.24-.05.34.03.1.08.13.21.09.33l-.23.65.3-.17c.09-.05.21-.05.3,0,.09.06.15.16.14.27l-.03.79.32-.18c.14-.08.32-.03.4.11.03.06.05.13.04.2l-.06.34.21-.12c.14-.08.32-.03.4.11.02.03.03.06.04.1l.14.79.45-.26c.11-.07.26-.05.35.04l.35.33c.14-.08.32-.03.4.11.08.14.03.32-.11.4h0l-.18.11s-.09.04-.15.04h0Z"/>
    <path class="cls-5" d="m28.39,15.1c-.16,0-.3-.13-.3-.3,0-.11.06-.2.15-.26l1.4-.81c.14-.08.32-.02.4.13.07.14.03.3-.1.39l-1.4.81s-.1.04-.15.04Z"/>
    <path class="cls-5" d="m21.78,20.13c-.16,0-.3-.13-.3-.3,0-.09.04-.18.12-.24l.9-.66c-.15.05-.32-.03-.38-.18-.04-.12,0-.26.11-.34l2.35-1.67-.34.19c-.14.08-.32.03-.4-.12-.07-.13-.04-.29.08-.38l2.11-1.61-1.12.64c-.14.08-.32.03-.4-.11-.07-.13-.04-.3.08-.38l.79-.58-.17.1c-.14.08-.32.03-.4-.12-.07-.13-.04-.29.08-.38l.52-.4-.11.06c-.14.08-.32.03-.4-.11-.06-.11-.04-.26.05-.35l1.28-1.27-.91.53c-.14.08-.32.03-.4-.11-.07-.12-.05-.27.06-.37l.3-.28-.03.02c-.14.08-.32.03-.4-.11-.07-.12-.05-.26.04-.36l.56-.58-.39.23c-.12.07-.28.05-.37-.06-.09-.1-.1-.26-.02-.37l.91-1.24-.93.54c-.12.07-.28.04-.37-.07-.09-.11-.09-.27,0-.38l.76-.92-.86.5c-.14.08-.32.04-.41-.1-.07-.12-.05-.27.05-.37l1.25-1.22-1.5.87c-.14.08-.32.04-.41-.11-.07-.13-.05-.29.07-.38l.95-.79-1.14.66c-.14.08-.32.03-.4-.11-.07-.12-.05-.27.05-.36l1.59-1.5-2.14,1.23c-.14.08-.32.04-.41-.1-.07-.12-.05-.27.05-.37l1.67-1.62-2.46,1.42c-.14.08-.32.03-.4-.11-.06-.1-.05-.23.02-.33l.64-.83-1.43.83c-.14.08-.32.03-.4-.12-.06-.12-.04-.26.06-.36l.05-.04-.53.31c-.14.08-.32.02-.4-.12-.06-.11-.04-.25.05-.35l.45-.46-1.38.79c-.14.08-.32.03-.4-.11-.07-.11-.05-.26.04-.35l.82-.84-3.04,1.76c-.14.08-.32.03-.4-.11-.08-.14-.03-.32.11-.4l4.91-2.84c.14-.08.32-.03.4.11.07.11.05.26-.04.35l-.82.84,1.43-.83c.14-.08.32-.02.4.12.06.11.04.25-.05.35l-.45.45.99-.57c.14-.08.32-.03.4.12.06.12.04.26-.06.36l-.05.04.34-.19c.14-.08.32-.03.4.11.06.1.05.23-.02.33l-.64.83,3.24-1.87c.14-.08.32-.04.41.1.07.12.05.27-.05.37l-1.67,1.62,2.25-1.3c.14-.09.32-.04.41.1.08.12.05.28-.06.38l-1.59,1.5,1.97-1.14c.14-.08.32-.03.4.11.07.12.04.28-.07.38l-.95.79.55-.32c.14-.08.32-.03.4.11.07.12.05.27-.05.36l-1.25,1.22.24-.14c.14-.08.32-.03.4.11.06.11.05.24-.03.34l-.76.92.73-.42c.14-.08.32-.03.4.11.06.1.05.23-.02.32l-.91,1.24.99-.57c.14-.08.32-.03.4.11.07.12.05.26-.04.36l-.56.58.46-.26c.14-.08.32-.04.41.1.07.12.05.27-.06.37l-.3.28.62-.36c.14-.08.32-.03.4.11.06.11.04.26-.05.35l-1.28,1.27,2.16-1.25c.14-.08.32-.03.4.12.07.13.04.29-.08.38l-.52.4.72-.41c.14-.08.32-.03.4.11.07.13.04.3-.08.38l-.79.58.56-.32c.14-.08.32-.03.4.12.07.13.04.29-.08.38l-2.11,1.61,1.78-1.03c.14-.08.32-.03.4.11.08.13.04.3-.08.39l-3.06,2.18c.16.04.26.2.22.36-.02.07-.06.13-.11.17l-3.44,2.54c.04.13-.01.28-.13.35l-1.6.92s-.1.04-.15.04h0Z"/>
    <path class="cls-5" d="m15.39,2.28c-.16,0-.3-.13-.3-.3,0-.07.02-.13.06-.18l.56-.72c-.14-.08-.2-.26-.12-.4.03-.05.06-.09.11-.11l.78-.45c.14-.08.32-.03.4.11.06.1.05.23-.02.33l-.32.42,1.5-.86c.14-.08.32-.03.4.11.08.14.03.32-.11.4l-2.8,1.62s-.1.04-.15.04Z"/>
    <path class="cls-5" d="m7.65,10.37c-.16,0-.3-.13-.3-.3,0-.1.05-.19.14-.25l1.72-1.11-1.09.63c-.14.08-.32.03-.4-.11-.08-.13-.04-.3.09-.39l5.43-3.77-4.39,2.53c-.14.08-.32.03-.4-.11-.07-.13-.03-.3.09-.39l2.05-1.36-2.04,1.18c-.14.08-.32.03-.4-.11-.07-.12-.05-.27.06-.37l1.24-1.14-1.27.73c-.14.08-.32.04-.41-.1-.07-.12-.05-.28.06-.38l.33-.28-.17.1c-.14.08-.32.03-.4-.11-.07-.12-.05-.27.06-.36l1.1-1.01s-.01-.02-.02-.03c-.08-.14-.03-.32.11-.4l1.03-.6c.14-.08.32-.03.4.11.07.12.05.27-.06.36l-.2.19.66-.38c.14-.08.32-.04.41.1.07.12.05.28-.06.38l-.33.28.76-.44c.14-.08.32-.03.4.11.07.12.05.27-.06.37l-1.24,1.14L18.81.33c.14-.08.32-.03.4.11.07.13.03.3-.09.39l-2.05,1.36,2.09-1.21c.14-.08.32-.04.41.1.08.14.04.31-.09.4l-5.43,3.77,5.55-3.2c.14-.08.32-.03.4.11.08.14.04.31-.1.39l-7.97,5.12c.04.13-.01.28-.13.35l-4,2.31s-.1.04-.15.04h0Z"/>
  </g>
  <path class="cls-5" d="m21.83,34.95c-.16,0-.3-.13-.3-.3,0-.09.04-.18.12-.24l3.22-2.46-2.98,1.72c-.14.08-.32.03-.4-.12-.07-.13-.04-.29.08-.38l.79-.57-.41.24c-.14.08-.32.04-.41-.11-.07-.13-.05-.29.07-.38l1.24-1.03-.83.48c-.14.08-.32.03-.4-.11-.06-.11-.05-.24.03-.33l.69-.84-.23.13c-.14.09-.32.05-.41-.09-.09-.14-.05-.32.09-.41,0,0,.01,0,.02-.01l1.62-.94c.14-.08.32-.03.4.11.06.11.05.24-.03.33l-.69.84,2.47-1.42c.14-.08.32-.03.4.11.07.12.04.28-.07.37l-1.24,1.03,2.62-1.51c.14-.08.32-.03.4.11.07.13.04.3-.08.38l-.79.56,1.72-.99c.14-.08.32-.03.4.11.07.13.04.29-.08.38l-3.22,2.46,4.34-2.5c.14-.08.32-.02.4.12.07.13.03.29-.09.38l-.37.26.62-.36c.14-.08.32-.03.4.11.07.13.04.29-.08.38l-1.77,1.31,2.07-1.19c.14-.08.32-.03.4.11.07.13.04.28-.07.37l-1.7,1.36,1.87-1.08c.14-.08.32-.03.4.11.07.12.04.28-.06.37l-1.04.88,1.01-.59c.14-.08.32-.03.4.11.06.11.04.26-.05.35l-.63.62.38-.22c.14-.08.32-.04.41.1.05.09.06.2,0,.29l-.27.53c.16,0,.29.15.28.31,0,.1-.06.19-.15.24l-.66.38c-.14.08-.32.04-.41-.1-.05-.09-.06-.2,0-.29l.23-.46-1.47.85c-.14.08-.32.03-.4-.11-.06-.11-.04-.26.05-.35l.62-.62-1.89,1.09c-.14.08-.32.03-.4-.11-.07-.12-.04-.28.06-.37l1.04-.88-2.37,1.37c-.14.08-.32.02-.4-.12-.07-.12-.04-.27.07-.36l1.7-1.36-3.21,1.85c-.14.08-.32.03-.4-.11-.07-.13-.04-.29.08-.38l1.76-1.31-3.13,1.8c-.14.08-.32.03-.4-.11-.07-.13-.04-.3.09-.39l.37-.25-1.31.76s-.1.04-.15.04Z"/>
  <path class="cls-5" d="m5.68,34.94c-.16,0-.3-.13-.3-.3,0-.1.05-.19.12-.24l1.85-1.33-3.16,1.82c-.14.08-.32.03-.4-.11-.07-.13-.04-.29.08-.38l2.13-1.51-3.04,1.76c-.14.08-.32.03-.4-.11-.08-.13-.04-.3.08-.39l2.01-1.43-1.8,1.04c-.14.08-.32.03-.4-.11-.07-.12-.04-.28.07-.38l2.31-1.92-1.7.98c-.14.08-.32.03-.4-.11-.07-.12-.05-.27.06-.37l1.07-.99c-.16-.03-.27-.18-.24-.34.01-.09.07-.16.14-.21l1.87-1.08c.14-.08.32-.03.4.11.07.12.05.27-.06.37l-.85.79,2.43-1.4c.14-.08.32-.03.4.11.07.12.04.28-.07.37l-2.31,1.92,4.16-2.4c.14-.08.32-.03.4.11.08.13.04.3-.08.39l-2.01,1.43,3.14-1.81c.14-.08.32-.03.4.11.08.13.04.3-.09.39l-2.13,1.51,2.81-1.62c.14-.08.32-.03.4.11.08.13.04.3-.08.39l-1.85,1.33,2.23-1.29c.14-.08.32-.03.4.11.07.12.04.28-.07.38l-2.49,2.1,2.25-1.3c.14-.08.32-.03.4.11.07.13.04.28-.07.37l-.6.47.32-.18c.14-.08.32-.03.4.11.06.11.05.25-.04.34l-.72.8.43-.25c.14-.08.32-.03.4.11.05.08.05.18.01.27l-.19.41c.16.01.29.15.27.32,0,.1-.06.19-.15.23l-.6.35c-.14.08-.32.03-.4-.11-.05-.08-.05-.18-.01-.27l.15-.33-1.23.71c-.14.08-.32.03-.4-.11-.06-.11-.05-.25.04-.34l.72-.8-2.18,1.25c-.14.08-.32.03-.4-.11-.07-.13-.04-.29.07-.38l.6-.47-1.67.96c-.14.08-.32.03-.4-.11-.07-.12-.04-.28.06-.37l2.49-2.1-4.48,2.58s-.1.04-.15.04h0Z"/>
  <path class="cls-1" d="m12.82,34.94c-.16,0-.3-.13-.3-.3,0-.1.05-.19.13-.24l1.3-.89-2.05,1.18c-.14.08-.32.03-.4-.11-.08-.13-.04-.3.09-.39l1.49-1.04-1.33.77c-.14.08-.32.03-.4-.11-.07-.13-.04-.29.07-.38l2.28-1.8-1.8,1.04c-.14.08-.32.03-.4-.12-.06-.11-.04-.26.05-.35l1.36-1.36c-.16.05-.32-.04-.37-.2-.04-.13.02-.27.13-.34l1.87-1.08c.14-.08.32-.03.4.12.06.11.04.26-.05.35l-1.34,1.34,3.37-1.94c.13-.08.31-.04.39.09.09.13.06.3-.06.4l-2.28,1.8,3.97-2.29c.14-.08.32-.03.4.11.07.13.04.3-.09.39l-1.49,1.04,2.42-1.4c.14-.08.32-.03.4.11.08.13.04.3-.09.39l-1.3.9,1.83-1.06c.14-.08.32-.03.4.11.07.13.04.29-.07.38l-2.74,2.12,3.36-1.94c.14-.08.32-.03.4.11.08.13.04.3-.08.39l-.96.68,1.09-.63c.14-.08.32-.03.4.11.07.12.04.28-.06.37l-1.78,1.52,1.93-1.11c.14-.08.32-.03.4.11.06.11.05.25-.04.35l-1.18,1.29,1.09-.63c.14-.08.32-.03.4.11.05.08.05.18.02.26l-.33.81c.16-.04.32.06.36.22.03.13-.03.26-.14.32l-.66.38c-.14.08-.32.03-.4-.11-.05-.08-.05-.18-.02-.26l.33-.79-2,1.15c-.14.08-.32.03-.4-.11-.06-.11-.05-.25.04-.35l1.18-1.29-3.03,1.75c-.14.08-.32.03-.4-.11-.07-.12-.04-.28.06-.37l1.78-1.52-3.47,2c-.14.08-.32.03-.4-.11-.08-.13-.04-.3.08-.39l.96-.69-2.05,1.18c-.14.08-.32.03-.4-.11-.07-.13-.04-.29.07-.38l2.74-2.11-4.51,2.61s-.1.04-.15.04h0Z"/>
  <path class="cls-3" d="m8.13,31.29c-.16,0-.3-.13-.3-.3,0-.08.04-.16.1-.22l.14-.13-.45.26c-.14.08-.32.04-.41-.1-.07-.12-.05-.27.05-.37l1.15-1.11-1.32.76c-.14.08-.32.04-.41-.1-.07-.12-.05-.27.06-.37l1.17-1.09-.92.53c-.14.08-.32.03-.4-.11-.07-.12-.05-.26.05-.36l.25-.25c-.08.01-.16,0-.23-.06-.1-.07-.14-.2-.1-.31l.15-.55c-.05-.03-.1-.07-.12-.12-.08-.14-.03-.32.11-.4l.3-.17c.14-.08.32-.03.4.11.04.07.05.15.03.23l-.1.36,1.23-.71c.14-.08.32-.03.4.11.07.12.05.26-.05.36l-.2.2,1.16-.67c.14-.08.32-.03.4.11.07.12.05.27-.06.37l-1.17,1.1,1.17-.67c.14-.08.32-.04.41.1.07.12.05.27-.05.37l-1.15,1.11.8-.46c.14-.08.32-.02.4.12.06.12.04.26-.06.35l-.28.25c.16,0,.3.13.3.3,0,.11-.06.2-.15.26l-2.16,1.24s-.09.05-.14.05h0Z"/>
  <path class="cls-3" d="m25.93,31.29c-.16,0-.3-.13-.3-.3,0-.08.03-.15.09-.21l.66-.67-1.13.65c-.14.08-.32.03-.4-.11-.07-.13-.04-.28.07-.38l.11-.09-.12.07c-.14.08-.32.03-.4-.11-.07-.13-.04-.28.07-.38l.3-.24-.1.06c-.14.08-.32.03-.4-.11-.06-.11-.05-.24.03-.34l.91-1.09-.54.31c-.14.08-.32.03-.4-.11-.04-.07-.05-.15-.03-.22l.16-.62c-.06-.03-.1-.07-.13-.12-.08-.14-.03-.32.11-.4l.3-.17c.14-.08.32-.03.4.11.04.07.05.15.03.22l-.12.46,1.38-.8c.14-.08.32-.03.4.11.06.11.05.24-.03.34l-.91,1.09,2.06-1.19c.14-.08.32-.03.4.11.07.13.04.28-.07.37l-.31.25c.15-.07.32,0,.39.14.06.12.02.27-.08.36l-.22.18c.16-.02.31.09.33.26.01.09-.02.18-.08.25l-.66.67.21-.12c.14-.08.32-.03.4.11.08.14.03.32-.11.4l-2.12,1.22s-.1.04-.15.04h0Z"/>
  <path class="cls-3" d="m8.05,28.35c-.16,0-.3-.13-.3-.3,0-.09.04-.18.11-.23l1.27-.99-2.02,1.17c-.14.08-.32.03-.4-.11-.07-.13-.04-.29.08-.38l2.18-1.64-2.71,1.56c-.14.08-.32.03-.4-.11-.08-.13-.04-.3.09-.39l.78-.54-.93.54c-.14.08-.32.03-.4-.11-.07-.13-.04-.29.08-.38l3.47-2.61-3.75,2.16c-.14.08-.32.03-.4-.12-.07-.13-.04-.29.08-.38l3.35-2.43-3.4,1.96c-.14.08-.32.03-.4-.11-.07-.13-.04-.29.08-.38l3.87-2.83-4.38,2.53c-.14.08-.32.03-.4-.11-.07-.13-.04-.3.09-.39l2.39-1.64-2.93,1.69c-.14.09-.32.04-.41-.1-.09-.14-.04-.32.1-.41l.86-.57-.81.47c-.14.08-.32.03-.4-.11-.05-.08-.05-.19-.01-.27l.48-.99c-.14.08-.32.03-.4-.12-.08-.14-.03-.32.12-.4h0l.82-.47c.14-.08.32-.03.4.11.05.08.05.19.01.28l-.48,1,8.64-4.99c.14-.08.32-.03.4.11.07.13.03.3-.09.39l-.86.56.94-.54c.14-.08.32-.02.4.12.07.13.03.29-.09.38l-2.4,1.64,2.46-1.42c.14-.08.32-.03.4.11.07.13.04.29-.08.38l-3.87,2.83,3.6-2.08c.14-.08.32-.03.4.11.08.13.04.3-.08.39l-3.35,2.43,3.03-1.75c.14-.08.32-.03.4.11.07.13.04.29-.08.38l-3.47,2.61,3.15-1.82c.14-.08.32-.03.4.11.08.13.04.3-.09.39l-.78.53.46-.27c.14-.08.32-.03.4.11.07.13.04.29-.08.38l-2.18,1.64,1.48-.85c.14-.08.32-.03.4.11.07.13.04.29-.07.38l-1.28.99.47-.27c.14-.08.32-.03.4.11.07.12.05.28-.06.37l-1,.88s.09.07.12.11c.08.14.03.32-.11.4l-1.72.99c-.14.08-.32.03-.4-.11-.07-.12-.05-.28.06-.37l.49-.43-1.63.94s-.1.04-.15.04h0Z"/>
  <path class="cls-3" d="m3.9,20.9c-.16,0-.3-.13-.3-.3,0-.1.05-.19.13-.24l.98-.69-.57.33c-.14.08-.32.03-.4-.11-.07-.13-.04-.29.08-.38l.39-.28c-.11.01-.21-.03-.27-.12-.09-.12-.08-.29.03-.39l1.44-1.37c-.16.03-.31-.08-.34-.24-.02-.12.04-.25.14-.31l1.98-1.14c.14-.09.32-.04.41.1.07.12.05.28-.05.37l-1.38,1.32,3.21-1.85c.14-.08.32-.03.4.11.07.13.04.3-.08.38l-.18.13.66-.38c.14-.08.32-.03.4.11.07.13.04.3-.09.39l-.98.69,1.42-.82c.14-.08.32-.04.41.11.08.14.04.32-.11.41,0,0,0,0,0,0l-7.18,4.14s-.1.04-.15.04Z"/>
  <path class="cls-3" d="m25.75,28.34c-.16,0-.3-.13-.3-.3,0-.09.04-.18.12-.24l.53-.39-1.1.63c-.14.09-.32.05-.41-.09-.09-.14-.05-.32.09-.41l2.97-2.17-3.59,2.07c-.15.07-.32,0-.39-.14-.06-.12-.03-.27.08-.35l2.96-2.09-3.28,1.89c-.14.08-.32.04-.41-.1-.08-.13-.04-.3.08-.39l3.21-2.33-3.4,1.96c-.14.08-.32.03-.4-.12-.07-.13-.04-.29.08-.38l2.69-1.88-2.69,1.55c-.14.08-.32.03-.4-.11-.07-.13-.04-.29.08-.38l4.1-3.04-4.28,2.47c-.14.08-.32.03-.4-.11-.07-.13-.04-.29.08-.38l4.03-2.99-3.71,2.14c-.14.08-.32.03-.4-.12-.07-.13-.04-.29.08-.38l2.66-1.91-2.34,1.35c-.14.08-.32.03-.4-.12-.07-.13-.03-.3.09-.39l.22-.15c-.16.03-.32-.07-.35-.23-.02-.12.02-.23.12-.3l.51-.36-.2.11c-.14.08-.32.03-.4-.11-.07-.13-.04-.29.07-.38l1.8-1.39-1.47.84c-.14.09-.32.04-.41-.1-.08-.12-.05-.28.06-.38l1.4-1.33c-.16.01-.31-.11-.32-.27,0-.11.05-.22.15-.28l1.94-1.12c.14-.09.32-.05.41.09.08.12.05.29-.06.38l-1.31,1.24,3.13-1.8c.14-.08.32-.03.4.11.07.13.04.29-.07.38l-1.8,1.39,2.62-1.51c.14-.08.32-.03.4.11.08.13.04.3-.09.39l-.51.35.84-.48c.14-.08.32-.03.4.12.07.13.03.3-.09.39l-.05.03.25-.14c.14-.08.32-.03.4.11.07.13.04.3-.08.38l-2.66,1.91,2.95-1.71c.14-.08.32-.03.4.11.07.13.04.29-.08.38l-4.03,2.99,4.27-2.47c.14-.08.32-.03.4.11.07.13.04.29-.08.38l-4.1,3.04,4.08-2.36c.14-.08.32-.03.4.11.07.13.04.3-.09.39l-2.69,1.88,2.46-1.42c.14-.08.32-.04.41.1.08.13.04.3-.08.39l-3.21,2.33,3.88-2.23c.14-.08.32-.04.41.1.08.13.04.31-.09.4l-2.96,2.09,2.83-1.63c.14-.08.32-.03.4.11.07.13.04.29-.08.38l-2.97,2.17.73-.42c.14-.08.32-.03.4.11.07.13.04.29-.08.38l-.62.46c.16-.04.32.06.36.22.02.1-.01.21-.09.29l-1.04.94c.06.03.1.07.13.12.08.14.03.32-.11.4l-1.72.99c-.14.08-.32.02-.4-.12-.06-.12-.04-.26.06-.35l.6-.54-1.81,1.04s-.1.04-.15.04Z"/>
  <path class="cls-4" d="m16.78,31.22c-.16,0-.3-.13-.3-.3,0-.08.03-.16.09-.21l.78-.76-1.11.64c-.14.08-.32.03-.4-.11-.07-.12-.04-.27.06-.36l1.03-.94-1.01.58c-.14.08-.32.03-.4-.11-.07-.12-.04-.26.05-.36l.26-.25c-.16.05-.32-.04-.37-.19-.02-.05-.02-.11,0-.16l.17-.68c-.06-.03-.11-.07-.14-.12-.08-.14-.03-.32.11-.4l.3-.17c.14-.08.32-.03.4.11.04.07.05.15.03.22l-.13.52,1.48-.85c.14-.09.32-.04.41.1.08.12.05.28-.06.38l-.24.23,1.22-.7c.14-.08.32-.03.4.11.07.12.04.27-.06.36l-1.03.94.78-.45c.14-.08.32-.03.4.11.07.12.05.27-.05.36l-.78.76.39-.22c.14-.09.32-.05.41.09.09.14.05.32-.09.41,0,0-.01,0-.02.01l-2.44,1.41s-.1.04-.15.04h0Z"/>
  <path class="cls-5" d="m13.73,21.91c-.16,0-.3-.13-.3-.3,0-.1.05-.19.13-.25l.31-.21-.7.4c-.14.08-.32.03-.4-.11-.08-.13-.04-.3.09-.39l1.54-1.09-1.47.85c-.14.08-.32.03-.4-.11-.07-.13-.04-.3.09-.39l.3-.2c-.16.03-.31-.08-.34-.25-.02-.11.03-.22.11-.28l1.56-1.19-.94.54c-.14.08-.32.03-.4-.11-.07-.12-.04-.27.06-.36l1.25-1.14c-.16-.02-.28-.17-.26-.33.01-.09.07-.17.15-.22l1.98-1.14c.14-.08.32-.03.4.11.07.12.04.27-.06.36l-1.04.95,2.63-1.52c.14-.08.32-.03.4.11.07.13.04.29-.08.38l-1.56,1.19,2.38-1.37c.14-.08.32-.03.4.11.08.13.04.3-.09.39l-.08.06.43-.25c.14-.08.32-.03.4.11.08.13.04.3-.09.39l-1.54,1.09,1.87-1.08c.14-.08.32-.03.4.11.07.13.04.3-.09.39l-.3.21.44-.25c.14-.08.32-.03.4.11.08.13.04.3-.08.39l-1.32.97,1.47-.85c.14-.08.32-.03.4.11.07.12.04.28-.06.37l-1.81,1.56,1.89-1.09c.14-.08.32-.03.4.11.07.12.05.28-.06.37l-.84.74.67-.39c.14-.08.32-.03.4.11.07.12.05.26-.04.36l-.27.27c.14-.08.32-.03.4.11.08.14.03.32-.11.4l-1.89,1.09c-.14.08-.32.03-.4-.11-.07-.11-.05-.26.04-.35l.27-.27-1.28.74c-.14.08-.32.02-.4-.12-.06-.12-.04-.26.06-.35l.84-.75-2.12,1.22c-.14.08-.32.03-.4-.11-.07-.12-.04-.28.06-.37l1.81-1.56-3.54,2.04c-.14.08-.32.03-.4-.11-.08-.13-.04-.3.08-.39l1.32-.97-2.53,1.46s-.1.04-.15.04h0Z"/>
  <path class="cls-5" d="m17.51,28.42c-.16,0-.3-.13-.3-.29,0-.09.04-.18.12-.24l.32-.25-1.04.6c-.14.08-.32.03-.4-.11-.07-.13-.04-.3.09-.39l.14-.09-.52.3c-.14.08-.32.03-.4-.11-.07-.13-.04-.3.08-.38l3.42-2.53-4.04,2.34c-.14.09-.32.04-.41-.1s-.04-.32.1-.41l.37-.24-.45.26c-.14.08-.32.03-.4-.12-.07-.13-.04-.29.08-.38l2.55-1.82-2.69,1.55c-.14.08-.32.03-.4-.11-.07-.13-.04-.29.07-.38l2.69-2.1-2.75,1.59c-.14.08-.32.04-.41-.1-.08-.13-.05-.29.07-.38l2.28-1.85-2.72,1.57c-.14.08-.32.03-.4-.11-.07-.13-.04-.28.07-.38l1.95-1.54-2.6,1.5c-.14.08-.32.03-.4-.11-.08-.13-.04-.3.08-.39l.98-.71-.88.51c-.14.08-.32.03-.4-.11-.05-.09-.05-.2,0-.29l.43-.79c-.16.04-.32-.06-.35-.22-.03-.13.03-.26.14-.32l.82-.47c.14-.08.32-.03.4.11.05.09.05.2,0,.29l-.42.77,5.11-2.95c.14-.08.32-.03.4.11.08.13.04.3-.08.39l-.98.71.99-.57c.14-.08.32-.03.4.11.07.13.04.29-.07.38l-1.95,1.54,2.37-1.36c.14-.08.32-.03.4.11.07.13.04.28-.07.38l-2.28,1.85,3.22-1.86c.14-.08.32-.03.4.12.07.13.04.28-.07.37l-2.69,2.1,4.38-2.53c.14-.08.32-.03.4.11.08.13.04.3-.08.39l-2.55,1.82,3.47-2c.14-.08.32-.03.4.11.08.14.04.31-.09.4l-.36.24.22-.13c.14-.08.32-.03.4.11.07.13.04.3-.08.38l-3.42,2.53,2.93-1.69c.14-.08.32-.03.4.11.07.13.04.3-.09.39l-1.95,1.33s.06.05.08.08c.09.13.06.3-.06.4l-.68.53c.09.01.17.07.22.15.08.14.03.32-.11.4l-3.24,1.87s-.1.04-.15.04h0Z"/>
  <path class="cls-1" d="m13.42,20.38c-.16,0-.3-.13-.3-.3,0-.11.06-.2.15-.26l1.88-1.08c.14-.09.32-.05.41.09.09.14.05.32-.09.41,0,0-.01,0-.02.01l-1.88,1.08s-.1.04-.15.04h0Z"/>
  <path class="cls-5" d="m17.96,15.93c-.16,0-.3-.13-.3-.3,0-.07.02-.14.07-.19l.09-.11-.89.52c-.14.08-.32.04-.4-.11-.07-.11-.05-.26.04-.35l.43-.45-.81.47c-.14.08-.32.03-.4-.11-.05-.09-.05-.21,0-.3l.44-.77-.21.12c-.14.09-.32.05-.41-.09-.09-.14-.05-.32.09-.41,0,0,.01,0,.02-.01l1.17-.67c.12-.07.26-.05.36.05.09.09.11.24.05.36l-.44.77,1.63-.94c.14-.08.32-.03.4.11.06.11.05.26-.04.35l-.43.45.6-.35c.14-.08.32-.03.4.11.06.11.05.24-.03.34l-.22.25c.16.02.27.18.25.34-.01.09-.07.17-.14.21l-1.17.68s-.1.04-.15.04h0Z"/>
  <path class="cls-2" d="m28.58,29.11v-1.41c.66-.4,1.2-.96,1.58-1.62.18-.31.33-.64.46-.97.16-.44.18-.76.67-.93.61-.22,1.22-.43,1.39-1.14.11-.48.11-.98,0-1.46-.15-.49-.64-.8-1.15-.73.06-1.06-.2-2.12-.73-3.04-.68-1.08-1.75-1.85-2.99-2.15-.03,0-.07-.01-.1-.02.03-.1.06-.2.08-.3l1.26-.5c.47-.19,1.01-.35,1.2-.88.13-.59.16-1.19.08-1.79.06-.42-.07-.85-.36-1.17-.43-.27-.89-.47-1.38-.61-.28-.07-.54-.18-.79-.32-.2-.16.04,0-.03-.16-.13-.31-.2-.66-.32-.97-.19-.49-.5-.95-.69-1.43-.06-.15-.08.08-.06-.15.04-.14.1-.27.17-.4.2-.47.46-.95.62-1.45.31-.96-.76-1.72-1.41-2.28-.96-.83-2.19-.08-3.22.41-.61-.35-1.26-.64-1.93-.87-.29-.09-.5-.05-.62-.21-.09-.17-.16-.34-.21-.53-.28-.7-.46-1.74-1.3-1.93-.77-.14-1.57-.14-2.34-.01-.45.05-.85.31-1.06.71-.3.58-.5,1.23-.74,1.85-.83.24-1.64.57-2.4.99-.56-.24-1.12-.5-1.69-.72-1.21-.46-2.32.84-2.97,1.72-.52.71.06,1.52.36,2.22.1.17.18.36.24.55.04.26-.05.28-.21.58-.35.69-.63,1.41-.83,2.16-.53.21-1.06.41-1.58.63-1.02.43-.99,1.24-.97,2.27,0,.51-.04,1.11.39,1.46.2.13.42.23.65.3l1.16.46c.13.03.26.08.38.15.03.06.05.13.04.19-.1.03-.19.05-.29.08-1.17.4-2.16,1.19-2.81,2.25-.49.86-.73,1.83-.71,2.82-.38.04-.72.24-.95.54-.24.42-.32.91-.24,1.39-.04.53.2,1.04.63,1.35.26.14.55.23.84.27.41.12.44.42.56.77.31,1.04.94,1.96,1.8,2.63.11.07.21.14.33.2v1.14c-1.67.17-3.12,1.22-3.8,2.76-.27.7-.39,1.44-.35,2.19-.02.52.38.96.9.98.04,0,.08,0,.12,0,2.12.05,4.25,0,6.38,0h2.47s.05,0,.08-.01c.05,0,.09,0,.14,0h9.89c.29.02.59,0,.87-.07h5.51c.92,0,1.85,0,2.77,0,.46.05.91-.14,1.2-.5.3-.46.14-1.45.03-1.94-.46-1.89-2.1-3.25-4.05-3.35h0Zm-.87.48c-.04.37-.2.72-.46.99-.1.1-.22.18-.35.25-.05.02-.09.04-.14.05.02,0,.07-.01-.03,0-.04,0-.09.01-.14.01-.35,0-.69-.12-.96-.36-.43-.38-.66-.95-.61-1.52v-.82c.89.24,1.83.21,2.69-.09v.99c0,.17,0,.33,0,.5h0Zm-3.54-.38c-.73.09-1.44.34-2.07.73-.7-.51-1.54-.82-2.4-.89v-1.23s.07-.03.1-.06c.69-.47,1.25-1.1,1.62-1.85.16-.31.29-.63.4-.95.03-.1.06-.21.09-.31.17.34.26.79.39,1.08.21.47.49.91.83,1.3.3.34.65.62,1.04.83v1.36Zm-5.34.39c-.04.37-.2.72-.46.99-.1.1-.22.19-.35.25-.05.02-.09.04-.14.05.02,0,.07-.01-.03,0-.04,0-.09.01-.14.01-.35,0-.69-.13-.96-.36-.43-.39-.66-.95-.61-1.52v-.77c.88.26,1.82.24,2.69-.05v.89c0,.17,0,.33,0,.5h0Zm-3.54-.55c-.8.09-1.56.38-2.22.83-.67-.45-1.45-.7-2.25-.74v-1.32c.5-.31.93-.71,1.27-1.18.26-.37.49-.76.66-1.18.08-.19.15-.57.27-.85.13.26.19.62.28.86.28.74.73,1.41,1.3,1.95.21.18.43.34.68.48v1.16Zm-4.3-13.08c-1.69-3.66-.34-8.23,3.36-10.04,3.56-1.74,7.91.08,9.62,3.54,1.02,2.1,1.03,4.55.04,6.66-.83.42-1.53,1.05-2.03,1.83-.69-1.2-1.84-2.06-3.19-2.39.5-.18.85-.62.91-1.15-.02-.71-.8-1.09-1.4-1.21-.88-.18-1.79.02-2.52.55-.25.18-.43.46-.48.76-.03.3.08.59.3.8.13.13.28.24.45.33-1.09.32-2.05.98-2.73,1.89-.09.12-.16.23-.24.35-.5-.83-1.22-1.49-2.09-1.92h0Zm7.03,3.1c-.15-.46-.61-.75-1.09-.67-.63.03-1.26.14-1.87.34-.66.21-1.27.55-1.79,1,.04-.3.1-.59.2-.88.01-.02.02-.05.03-.07.08-.22.17-.42.28-.62.63-1.12,1.73-1.9,2.99-2.11,2.66-.41,4.98,1.82,5.03,4.43v.36c-1.52.09-3.21-.18-3.78-1.77h0Zm.3-3.68s-.09.04-.14.06c-.34-.04-.69-.04-1.03-.02-.25-.07-.49-.19-.68-.36-.35-.28-.41-.79-.13-1.15,0-.01.02-.02.03-.03.34-.34.83-.46,1.29-.33.54.1,1.17.45,1.19,1.07-.01.22-.11.43-.27.57-.08.07-.16.13-.25.18h0Zm-5.8,5.97c.2.05.68-.02.68-.31h0c.01-.07.03-.12.06-.17.08-.17.18-.34.29-.49.47-.57,1.11-.98,1.82-1.17.39-.12,1.49-.47,1.73-.05.11.2.16.44.27.65.3.52.76.93,1.31,1.18,1.09.43,2.27.57,3.42.39.07,0,.13,0,.2-.02.79-.21.71,1.02.68,1.47.03.43-.28.81-.71.87-.29.02-.57.13-.81.3-.4.33-.45.9-.64,1.35-.23.57-.55,1.09-.97,1.54-1.1,1.09-2.82,1.26-4.11.4-1.01-.68-1.45-1.74-1.84-2.84-.09-.33-.34-.59-.66-.7-.43-.14-.82-.05-1.09-.51-.2-.34-.35-2.08.35-1.89h0Zm15.7-4.94c.96.51,1.71,1.33,2.12,2.33.28.79.4,1.62.36,2.45,0,.16.42.08.47.06.78-.22.71,1.03.71,1.45,0,.44-.06.92-.58,1.07-.31.04-.6.13-.88.27-.52.35-.56,1.05-.8,1.59-.33.81-.9,1.49-1.65,1.95-.02.01-.04.02-.06.03-1.44.65-3.15.21-4.09-1.07-.34-.43-.6-.91-.79-1.42-.09-.31-.21-.62-.36-.91.98-.28,1.2-1.1,1.2-2.01.05-.39-.06-.79-.3-1.1-.23-.24-.55-.37-.88-.36v-.35c0-.57-.11-1.13-.31-1.66,0,0,0,0,0,0,.67-1.87,2.55-3.01,4.51-2.75.08.05.18.07.27.06.37.08.72.2,1.06.38h0Zm-20.43-1.5c-.31-.16-.62-.28-.95-.38-.31-.1-.61-.22-.9-.36-.62-.35-.45-1.4-.42-2.02.02-.56.12-.83.61-1.02l1.1-.44c.22-.06.44-.15.64-.27.17-.13.16-.24.22-.45.12-.43.27-.85.44-1.25.16-.38.67-.99.66-1.38-.07-.25-.17-.49-.31-.72-.14-.33-.29-.66-.43-1-.03-.08-.08-.17-.11-.25-.14-.48.24-.81.55-1.14.32-.33.73-.91,1.2-.81.38.12.74.28,1.09.46.23.12.47.22.71.3.47.13.77-.16,1.19-.38.66-.34,1.37-.48,2.04-.76.21-.07.37-.23.42-.44.17-.61.41-1.21.71-1.77.34-.44,2.12-.42,2.47.03.14.24.25.51.32.78.23.57.3,1.3.93,1.48.71.2,1.39.47,2.04.82.4.21.57.36,1,.22.59-.19,1.19-.68,1.8-.77.48-.07,1.05.67,1.37,1.01.41.45.64.78.4,1.35l-.43,1.01c-.12.21-.22.43-.28.66-.02.3.2.53.34.8.17.34.32.69.46,1.05.16.43.18,1.02.56,1.27.57.37,1.4.38,1.94.78.4.29.33.88.34,1.32.04.4.03.8-.05,1.2-.16.45-.67.53-1.07.69-.34.14-.71.25-1.03.41-.23.1-.39.32-.43.56-.66-.04-1.32.03-1.95.22,1.68-4-.2-8.61-4.2-10.29-.02,0-.04-.02-.06-.03-3.78-1.44-8.05-.02-10.21,3.4-1.21,2.04-1.44,4.51-.61,6.74-.58-.14-1.18-.17-1.78-.11-.03-.21-.15-.4-.33-.52h0Zm-2.49,10.31c-.17-.41-.22-.96-.57-1.27-.27-.24-.52-.2-.85-.28-.4-.09-.69-.43-.74-.83-.06-.35-.12-1.66.49-1.49.2.06.68-.02.68-.32-.05-.83.07-1.67.36-2.45.43-1.01,1.23-1.82,2.24-2.27,2.26-.88,4.8.25,5.68,2.51,0,.02.01.04.02.06-.18.61-.28,1.24-.29,1.87-.64.06-1.14.57-1.19,1.21-.05.65-.06,1.43.45,1.91.17.16.38.28.61.34.06.02.13.03.19.03-.19.38-.36.78-.49,1.18-.32.83-.9,1.53-1.65,2.01-1.4.73-3.12.39-4.13-.83-.35-.42-.63-.89-.83-1.4h0Zm4.67,2.99v.88c.06.53-.11,1.05-.45,1.45-.1.09-.2.17-.32.24-.06.04-.13.06-.2.07h-.04s-.08.02-.12.02c-.35,0-.69-.12-.96-.35-.43-.38-.65-.95-.61-1.52v-.75c.88.25,1.82.24,2.69-.05h0Zm-2.91,6.11h-3.02c-.23.03-.45.03-.68,0-.36-.12-.24-.85-.22-1.15.1-1.81,1.49-3.29,3.3-3.5,0,.08.02.17.04.25.11.39.34.73.66.98.8.55,1.85.57,2.67.05.38-.22.68-.56.86-.96.06-.13.1-.26.12-.39.63.11,1.22.36,1.72.75-.08.08-.16.15-.23.23-.8.93-1.21,2.14-1.13,3.37,0,.13.03.26.07.38h-4.15Zm15.11,0h-8.82c-.36.05-.73.05-1.09,0-.66-.21-.08-2.17.09-2.54.54-1.18,1.66-1.99,2.96-2.12,0,.08.02.17.04.25.11.38.34.72.66.97.8.54,1.85.56,2.67.04.47-.27.82-.73.95-1.26,1.11.15,2.1.78,2.72,1.72.3.46.5.99.59,1.54.04.26.17,1.04-.01,1.29-.16.21-.48.12-.76.12h0Zm9.6.07c-.11.01-.22.01-.34,0h-7.7c.15-.43.19-.89.11-1.34-.06-.73-.3-1.44-.7-2.05-.2-.3-.43-.57-.7-.81.12-.1.25-.19.38-.27.15-.09.31-.17.47-.23.05-.02.11-.04.16-.06-.08.03.05-.01.05-.01.06-.02.11-.03.17-.04-.08.02.08-.02.1-.02.14-.02.28-.04.41-.05,0,.14.02.28.06.41.11.39.34.73.66.97.8.55,1.85.57,2.67.04.49-.29.84-.76.96-1.32,1.52.24,2.76,1.34,3.19,2.82.1.36.15.74.16,1.12,0,.22.07.63-.07.82-.03.04.13-.01-.03.03h0Z"/>
</svg>