<?xml version="1.0" encoding="UTF-8"?>
<svg id="Layer_1" data-name="Layer 1" xmlns="http://www.w3.org/2000/svg" viewBox="0 0 35 35">
  <defs>
    <style>
      .cls-1 {
        fill: #f47721;
      }

      .cls-1, .cls-2, .cls-3, .cls-4 {
        stroke-width: 0px;
      }

      .cls-3 {
        fill: #fff;
      }

      .cls-4 {
        fill: #c1dbf0;
      }
    </style>
  </defs>
  <g>
    <path class="cls-4" d="m19.46,16.01c-.09,0-.17-.04-.23-.11-.09-.11-.09-.27,0-.38l.31-.35-1.01.58c-.12.07-.29.04-.38-.07-.09-.11-.08-.28.02-.38l.94-.99-1.26.73c-.13.07-.29.04-.38-.07-.09-.11-.08-.28.02-.38l.84-.88-.67.39c-.13.07-.29.04-.38-.07-.09-.11-.08-.28.02-.38l.41-.42s-.09-.06-.12-.11c-.08-.14-.03-.32.11-.4l1.2-.69c.13-.07.29-.04.38.07.09.11.08.28-.02.38l-.06.06.63-.36c.13-.07.29-.04.38.07.09.11.08.28-.02.38l-.84.88,1.21-.7c.13-.07.29-.04.38.07.09.11.08.28-.02.38l-.94.99.86-.5c.12-.07.28-.04.37.07.09.11.09.27,0,.38l-.49.55c.08.02.14.07.18.14.08.14.03.32-.11.4l-1.2.69s-.1.04-.15.04h0Z"/>
    <path class="cls-4" d="m11.9,15.99c-.09,0-.17-.04-.23-.11-.09-.11-.09-.28.01-.38l.69-.74-1.23.71c-.12.07-.28.04-.38-.07-.09-.11-.09-.27.01-.38l1.07-1.18-1.19.69c-.12.07-.27.04-.37-.06s-.1-.26-.01-.37l.65-.87c-.13.05-.28,0-.36-.13-.08-.14-.03-.32.11-.4l1.2-.69c.12-.07.27-.05.37.06.09.1.1.26.01.37l-.65.86,1.57-.9c.12-.07.28-.04.38.07.09.11.09.27-.01.38l-1.07,1.18,1.29-.74c.12-.07.28-.04.38.07.09.11.09.28-.01.38l-.69.74.28-.16c.14-.08.32-.03.4.11.08.14.03.32-.11.4l-1.96,1.13s-.1.04-.15.04h0Z"/>
    <path class="cls-4" d="m25.88,15.97c-.09,0-.17-.04-.23-.11-.09-.11-.09-.27,0-.38l.89-1.03-1.48.86c-.13.07-.29.04-.38-.08-.09-.12-.08-.28.03-.39l.81-.79-.8.46c-.12.07-.27.04-.37-.06-.09-.1-.1-.26-.01-.37l.65-.86c-.13.05-.28,0-.35-.13-.08-.14-.03-.32.11-.4l1.2-.69c.12-.07.27-.05.37.06.09.1.1.26.01.37l-.64.85,1.56-.9c.13-.08.29-.04.38.08.09.12.08.28-.03.39l-.81.79.97-.56c.12-.07.28-.04.37.07.09.11.09.27,0,.38l-.89,1.03.58-.34c.14-.08.32-.03.4.11.08.14.03.32-.11.4l-2.09,1.2s-.1.04-.15.04h0Z"/>
    <path class="cls-4" d="m25.86,21.83c-.09,0-.17-.04-.23-.11-.09-.12-.08-.28.02-.38l.62-.64-1.08.62c-.13.07-.29.04-.38-.08-.09-.12-.08-.28.03-.39l.8-.78-.88.51c-.12.07-.27.05-.36-.05-.09-.1-.11-.25-.03-.36l.77-1.15-.11.06c-.14.08-.32.03-.4-.11-.08-.14-.03-.32.11-.4l1.2-.69c.12-.07.27-.05.36.05.09.1.11.25.03.36l-.77,1.15,1.83-1.06c.13-.08.29-.04.38.08.09.12.08.28-.03.39l-.8.78.88-.51c.13-.07.29-.04.38.07.09.12.08.28-.02.38l-.62.64.27-.16c.14-.08.32-.03.4.11.08.14.03.32-.11.4l-2.11,1.22s-.1.04-.15.04h0Z"/>
    <path class="cls-4" d="m5.01,21.87c-.09,0-.17-.04-.23-.11-.09-.11-.08-.28.02-.38l.55-.59-1.13.65c-.12.07-.28.04-.38-.07-.09-.11-.09-.27.01-.38l1.06-1.16-1.27.73c-.12.07-.27.05-.36-.05-.09-.1-.1-.25-.03-.36l.77-1.13-.09.05c-.14.08-.32.03-.4-.11-.08-.14-.03-.32.11-.4l1.2-.69c.12-.07.27-.05.36.05.09.1.1.25.03.36l-.77,1.13,1.81-1.04c.12-.07.28-.04.38.07.09.11.09.27-.01.38l-1.06,1.16,1.17-.68c.12-.07.28-.04.38.07.09.11.08.28-.02.38l-.55.59.06-.04c.14-.08.32-.03.4.11.08.14.03.32-.11.4l-1.76,1.02s-.1.04-.15.04h0Z"/>
    <path class="cls-4" d="m11.64,21.78c-.09,0-.17-.04-.23-.11-.09-.11-.09-.27,0-.38l.92-1.03-1.41.82c-.12.07-.28.04-.38-.07-.09-.11-.09-.27.01-.38l1-1.1-.94.54c-.12.07-.28.04-.38-.07-.09-.11-.09-.27.01-.38l.47-.51c-.07-.02-.13-.07-.17-.13-.08-.14-.03-.32.11-.4l1.2-.69c.12-.07.28-.04.38.07.09.11.09.27-.01.38l-.26.28.93-.53c.12-.07.28-.04.38.07.09.11.09.27-.01.38l-1.01,1.1,1.37-.79c.12-.07.28-.04.37.07.09.11.09.27,0,.38l-.92,1.03.71-.41c.14-.08.32-.03.4.11.08.14.03.32-.11.4l-2.3,1.33s-.1.04-.15.04h0Z"/>
    <path class="cls-4" d="m19.02,21.87c-.09,0-.17-.04-.23-.11-.09-.11-.09-.27,0-.38l.8-.94-1.47.85c-.12.07-.28.04-.37-.07-.09-.11-.09-.27,0-.38l1.13-1.33-1.22.71c-.12.07-.28.04-.37-.06-.09-.11-.09-.27,0-.38l.56-.67c-.1,0-.2-.05-.25-.15-.08-.14-.03-.32.11-.4l1.2-.69c.12-.07.28-.04.37.06.09.11.09.27,0,.38l-.49.59,1.28-.74c.12-.07.28-.04.37.07.09.11.09.27,0,.38l-1.13,1.32,1.45-.84c.12-.07.28-.04.37.07.09.11.09.27,0,.38l-.8.94.38-.22c.14-.08.32-.03.4.11.08.14.03.32-.11.4l-1.85,1.07s-.1.04-.15.04h0Z"/>
    <path class="cls-4" d="m18.72,27.66c-.08,0-.17-.04-.22-.1-.09-.11-.09-.27,0-.38l1.01-1.21-1.58.91c-.13.08-.3.04-.38-.08s-.07-.29.04-.39l.46-.41-.36.21c-.12.07-.27.04-.37-.06-.09-.11-.1-.26-.01-.37l.63-.81c-.12.03-.26-.02-.33-.14-.08-.14-.03-.32.11-.4l1.2-.69c.12-.07.28-.04.37.06.09.11.1.26.01.37l-.61.79,1.5-.87c.13-.08.3-.04.38.08.09.12.07.29-.04.39l-.46.41.58-.33c.12-.07.28-.04.37.07s.09.27,0,.38l-1.01,1.21.8-.46c.14-.08.32-.03.4.11.08.14.03.32-.11.4l-2.24,1.29s-.1.04-.15.04h0Z"/>
    <path class="cls-4" d="m5.39,27.74c-.08,0-.17-.04-.22-.1-.09-.11-.09-.27,0-.38l.5-.61-1.31.75c-.13.08-.3.04-.38-.08-.09-.12-.07-.29.04-.39l.33-.29-.46.27c-.13.07-.29.04-.38-.08-.09-.12-.08-.28.03-.39l.72-.69-.64.37c-.12.07-.28.04-.37-.06s-.09-.27,0-.38l.58-.71c-.1,0-.22-.05-.27-.15-.08-.14-.03-.32.11-.4l1.2-.69c.12-.07.28-.04.37.06.09.11.09.27,0,.38l-.53.65,1.35-.78c.13-.08.29-.04.38.08.09.12.08.28-.03.39l-.72.69.92-.53c.13-.08.3-.04.38.08.09.12.07.29-.04.39l-.33.29.17-.1c.12-.07.28-.04.37.06.09.11.09.27,0,.38l-.57.69c.08-.01.21.05.26.15.08.14.03.32-.11.4l-1.2.69s-.1.04-.15.04h0Z"/>
    <path class="cls-4" d="m12.42,27.74c-.08,0-.16-.03-.22-.1-.09-.1-.1-.26-.02-.37l.66-.88-1.59.92c-.13.08-.29.04-.38-.08-.09-.12-.07-.29.04-.39l.64-.6-.77.44c-.13.08-.29.04-.38-.08-.09-.12-.07-.29.04-.39l.52-.49-.33.19c-.12.07-.28.04-.38-.07-.09-.11-.09-.27.01-.38l.46-.5c-.07-.02-.13-.07-.16-.13-.08-.14-.03-.32.11-.4l1.2-.69c.12-.07.28-.04.38.07.09.11.09.27-.01.38l-.24.27.9-.52c.13-.07.29-.04.38.08.09.12.07.29-.04.39l-.52.49.76-.44c.13-.08.29-.04.38.08.09.12.07.29-.04.39l-.64.6.6-.34c.12-.07.27-.05.37.06.09.1.1.26.02.37l-.66.88c.13-.06.29,0,.37.12.08.14.03.32-.11.4l-1.2.69s-.1.04-.15.04h0Z"/>
  </g>
  <path class="cls-4" d="m2.58,9.59c-.1,0-.19-.05-.25-.13-.09-.13-.05-.3.07-.4l3.79-2.81L.66,9.44c-.13.08-.31.04-.39-.1-.08-.13-.05-.31.08-.4l2.77-1.95-2.46,1.42c-.14.08-.31.04-.39-.1-.08-.13-.05-.31.08-.4l.52-.35-.21.12c-.13.08-.31.04-.39-.09-.09-.13-.05-.3.07-.4l1.13-.83-.81.47c-.13.08-.29.04-.38-.08-.09-.12-.07-.29.04-.39l1.45-1.33-1.06.61c-.13.07-.29.04-.38-.08-.09-.12-.08-.28.02-.39l.61-.61c-.06-.02-.12-.07-.16-.13-.08-.14-.03-.32.11-.4l1.39-.8c.13-.07.29-.04.38.08.09.12.08.28-.02.39l-.33.33,1.44-.83c.13-.08.29-.04.38.08.09.12.07.29-.04.39l-1.45,1.33,3.12-1.8c.13-.08.31-.04.39.09.09.13.05.3-.07.4l-1.13.83,2.28-1.32c.14-.08.31-.04.39.1.08.13.05.31-.08.4l-.52.35,1.47-.85c.14-.08.31-.04.39.1.08.13.05.31-.08.4l-2.77,1.95,4.23-2.44c.13-.08.31-.04.39.09s.05.3-.07.4l-3.79,2.81,5.72-3.3c.13-.08.31-.04.39.09.09.13.05.31-.07.4l-3.46,2.5,5.19-2.99c.13-.08.31-.04.39.1.09.13.05.31-.08.4l-3.11,2.2,4.67-2.7c.13-.08.31-.04.39.09.09.13.05.3-.07.4l-3.69,2.72,5.55-3.2c.14-.08.31-.04.4.1.08.13.05.31-.08.4l-2.06,1.4,3.29-1.9c.13-.08.31-.04.39.09.09.13.05.31-.07.4l-3.51,2.55,5.27-3.04c.14-.08.31-.04.4.1.08.13.05.31-.09.4l-1.19.79,2.24-1.29c.13-.08.31-.04.39.09.09.13.05.3-.07.4l-3.79,2.82,5.73-3.31c.14-.08.31-.04.4.1.08.13.04.31-.09.4l-.7.46,1.66-.96c.14-.08.31-.04.39.1s.05.31-.08.4l-2.75,1.92,4.13-2.38c.13-.08.31-.04.39.09.09.13.05.31-.08.4l-3.28,2.35,4.07-2.35c.13-.08.31-.04.39.09.09.13.05.31-.08.4l-2.61,1.88,2.87-1.66c.13-.08.3-.04.39.09.09.13.06.3-.06.39l-2.78,2.26,2.73-1.58c.13-.08.3-.04.39.09.09.13.06.3-.07.4l-.86.66.54-.31c.13-.08.3-.04.39.09.09.13.06.3-.06.39l-.24.19c.1-.02.21.01.28.09.09.1.1.26.02.37l-.56.75.18-.1c.14-.08.32-.03.4.11.08.14.03.32-.11.4l-1.42.82c-.12.07-.27.05-.37-.06-.09-.1-.1-.26-.02-.37l.56-.75-2.04,1.18c-.13.08-.3.04-.39-.09-.09-.13-.06-.3.06-.39l.16-.13-1.06.61c-.13.08-.31.04-.39-.09-.09-.13-.06-.3.07-.4l.86-.66-1.98,1.15c-.13.08-.3.04-.39-.09-.09-.13-.06-.3.06-.39l2.78-2.26-4.75,2.74c-.13.08-.31.04-.39-.09s-.05-.31.08-.4l2.61-1.88-4.11,2.37c-.13.08-.31.04-.39-.09-.09-.13-.05-.31.08-.4l3.28-2.35-4.93,2.85c-.14.08-.31.04-.39-.1-.08-.13-.05-.31.08-.4l2.75-1.92-4.18,2.41c-.14.08-.31.04-.4-.1-.08-.13-.04-.31.09-.4l.7-.46-1.67.96c-.13.08-.31.04-.39-.09-.09-.13-.05-.3.07-.4l3.79-2.82-5.74,3.31c-.14.08-.31.04-.4-.1-.08-.13-.05-.31.09-.4l1.19-.79-2.24,1.29c-.13.08-.31.04-.39-.09-.09-.13-.05-.31.07-.4l3.51-2.55-5.27,3.04c-.14.08-.31.04-.4-.1-.08-.13-.05-.31.08-.4l2.06-1.4-3.29,1.9c-.13.08-.31.04-.39-.09-.09-.13-.05-.3.07-.4l3.69-2.72-5.56,3.21c-.13.08-.31.04-.39-.1-.09-.13-.05-.31.08-.4l3.1-2.2-4.67,2.69c-.13.08-.31.04-.39-.09-.09-.13-.05-.31.07-.4l3.46-2.5-5.19,3s-.1.04-.15.04h0Z"/>
  <path class="cls-3" d="m4.48,6.4c-.09,0-.18-.04-.23-.12-.09-.12-.08-.28.03-.39l.13-.13-.16.09c-.12.07-.28.04-.38-.07-.09-.11-.09-.28.01-.38l.91-.98-.62.36c-.12.07-.28.04-.37-.07-.09-.11-.09-.27,0-.38l1.18-1.36-.81.47c-.13.07-.29.04-.38-.08-.09-.12-.08-.28.03-.39l.44-.42-.09.05c-.12.07-.26.05-.36-.05-.09-.1-.11-.25-.04-.36l.52-.83c-.13.05-.29,0-.36-.13-.08-.14-.03-.32.11-.4l.97-.56c.12-.07.26-.05.36.05s.11.25.04.36l-.52.83,1.14-.66c.13-.08.29-.04.38.08.09.12.08.28-.03.39l-.44.42.24-.14c.12-.07.28-.04.37.07.09.11.09.27,0,.38l-1.17,1.36.81-.47c.12-.07.28-.04.38.07.09.11.09.28-.01.38l-.91.98.55-.32c.13-.08.29-.04.38.08.09.12.08.28-.03.39l-.22.21c.11,0,.22.05.27.15.08.14.03.32-.11.4l-1.86,1.08s-.1.04-.15.04h0Z"/>
  <path class="cls-3" d="m11.62,6.47c-.08,0-.16-.04-.22-.1-.09-.11-.09-.26,0-.37l.81-1.02-.97.56c-.13.08-.29.04-.38-.08-.09-.12-.07-.29.04-.39l.35-.32h-.01c-.13.08-.29.05-.38-.07-.09-.12-.08-.28.02-.38l.81-.82-.45.26c-.12.07-.29.04-.38-.07-.09-.11-.08-.28.02-.38l.75-.78-.4.23c-.12.07-.26.05-.35-.05-.09-.09-.11-.24-.05-.35l.58-.99h-.01c-.14.09-.32.04-.4-.1-.08-.14-.03-.32.11-.4l.97-.56c.11-.07.26-.05.35.05.09.09.11.24.05.35l-.58.99,1.24-.72c.13-.07.29-.04.38.07.09.11.08.28-.02.38l-.75.78.5-.29c.13-.07.29-.04.38.07.09.12.08.28-.02.38l-.81.82.45-.26c.13-.07.29-.04.38.08.09.12.07.29-.04.39l-.35.32h0c.12-.07.28-.05.37.06.09.11.09.26,0,.37l-.81,1.02.43-.25c.14-.08.32-.03.4.11.08.14.03.32-.11.4l-1.76,1.02s-.1.04-.15.04h0Z"/>
  <path class="cls-3" d="m19.2,6.64c-.08,0-.16-.03-.22-.1-.09-.1-.1-.26-.02-.37l.43-.6-.93.53c-.13.07-.29.04-.38-.08s-.08-.28.03-.39l.53-.53-.38.22c-.13.07-.29.04-.38-.08-.09-.12-.08-.28.03-.39l.71-.7-.36.21c-.12.07-.28.04-.38-.07-.09-.11-.08-.28.01-.38l.97-1.04-.61.35c-.12.07-.29.04-.38-.07-.09-.11-.08-.28.02-.38l.64-.68-.28.16c-.12.07-.27.05-.37-.06s-.1-.26-.01-.37l.35-.46c-.08-.01-.16-.06-.21-.14-.08-.14-.03-.32.11-.4l.97-.56c.12-.07.27-.05.37.06.09.11.1.26.01.37l-.25.32.71-.41c.12-.07.28-.04.38.07.09.11.08.28-.02.38l-.64.68.61-.35c.12-.07.28-.04.38.07.09.11.08.28-.01.38l-.97,1.04.61-.35c.13-.08.29-.04.38.08.09.12.08.28-.03.39l-.71.71.36-.21c.13-.07.29-.04.38.08.09.12.08.28-.03.39l-.53.53.17-.1c.12-.07.27-.05.36.06.09.1.1.26.02.37l-.44.62c.12-.03.26.02.33.14.08.14.03.32-.11.4l-1.09.63s-.1.04-.15.04h0Z"/>
  <path class="cls-3" d="m26.31,6.64c-.08,0-.16-.03-.21-.09-.09-.1-.11-.25-.03-.36l.48-.73-1.07.62c-.12.07-.29.04-.38-.07s-.08-.28.02-.38l.73-.77-.56.32c-.13.07-.29.04-.38-.08-.09-.12-.08-.28.03-.39l.65-.64-.3.18c-.13.08-.3.04-.38-.08-.09-.12-.07-.29.05-.39l.2-.17c-.09,0-.18-.04-.24-.11-.09-.12-.08-.28.03-.39l.58-.58-.23.13c-.12.07-.26.05-.36-.05s-.11-.24-.04-.36l.54-.89c-.14.06-.3.01-.38-.12-.08-.14-.03-.32.11-.4l.97-.56c.12-.07.26-.05.36.05.09.1.11.24.04.36l-.54.88,1.18-.68c.13-.07.29-.04.38.08.09.12.08.28-.03.39l-.58.58.37-.21c.13-.08.3-.04.38.08.09.12.07.29-.05.39l-.2.17c.09,0,.18.04.24.12.09.12.08.28-.03.39l-.66.64.3-.18c.12-.07.29-.04.38.07s.08.28-.02.38l-.73.77.37-.21c.12-.07.27-.05.36.05.09.1.11.25.03.36l-.49.75c.13-.03.26.02.33.14.08.14.03.32-.11.4l-.97.56s-.1.04-.15.04h0Z"/>
  <path class="cls-1" d="m26.96,34.77c-.1,0-.19-.05-.25-.13-.09-.13-.05-.31.08-.4l2.61-1.88-3.69,2.13c-.14.08-.31.04-.4-.1-.08-.13-.04-.31.09-.4l.8-.53-1.3.75c-.14.08-.31.04-.39-.1-.08-.13-.05-.31.08-.4l3.53-2.43-4.2,2.42c-.14.08-.31.04-.4-.1-.08-.13-.05-.31.08-.4l3.84-2.6-4.35,2.51c-.13.08-.31.04-.39-.1s-.05-.31.08-.4l5.5-3.84-6.04,3.49c-.14.08-.31.04-.4-.1-.08-.13-.05-.31.08-.4l4.7-3.17-4.97,2.87c-.14.08-.31.04-.39-.1s-.05-.31.08-.4l5.21-3.56-5.4,3.12c-.14.08-.31.04-.4-.1-.08-.13-.04-.31.09-.4l2.51-1.63-2.46,1.42c-.14.08-.31.04-.4-.1-.08-.13-.05-.31.09-.4l4.07-2.74-3.98,2.3c-.14.08-.31.04-.39-.1-.08-.13-.05-.31.08-.4l4.93-3.46-4.71,2.72c-.14.08-.31.04-.4-.1s-.05-.31.09-.4l2.55-1.72-2.16,1.25c-.14.08-.31.04-.39-.1-.08-.13-.05-.31.08-.4l2.5-1.73-1.92,1.11c-.13.08-.31.04-.39-.1s-.05-.31.08-.4l1.73-1.23-.89.51c-.13.08-.3.04-.39-.09s-.06-.3.05-.39l1.62-1.35c-.08-.01-.16-.06-.2-.14-.08-.14-.03-.32.11-.4l2.47-1.43c.13-.08.3-.04.39.09.09.12.06.3-.05.39l-1.32,1.09,3.33-1.92c.14-.08.31-.04.39.1s.05.31-.08.4l-1.72,1.22,2.72-1.57c.14-.08.31-.04.39.1.08.13.05.31-.08.4l-2.5,1.73,3.28-1.9c.14-.08.31-.04.4.1.08.13.05.31-.09.4l-2.55,1.72,3.11-1.8c.13-.08.31-.04.39.1.08.13.05.31-.08.4l-4.93,3.46,5.64-3.26c.14-.08.31-.04.4.1.08.13.05.31-.09.4l-4.07,2.74,4.46-2.58c.14-.08.31-.04.4.1.08.14.04.31-.09.4l-2.5,1.63,2.68-1.55c.14-.08.31-.04.39.1.08.13.05.31-.08.4l-5.22,3.57,5.47-3.16c.14-.08.31-.04.4.1.08.13.05.31-.08.4l-4.7,3.17,4.78-2.76c.14-.08.31-.04.39.1.08.13.05.31-.08.4l-5.5,3.84,5.49-3.17c.14-.08.31-.04.4.1.08.13.05.31-.08.4l-3.84,2.6,3.63-2.1c.14-.08.31-.04.39.1.08.13.05.31-.08.4l-3.53,2.43,3.17-1.83c.14-.08.31-.04.4.1.08.13.04.31-.09.4l-.8.53.34-.19c.13-.08.31-.04.39.09.09.13.05.31-.08.4l-2.61,1.88,1.8-1.04c.13-.08.3-.04.39.09s.06.3-.06.39l-1.78,1.46.12-.07c.14-.08.32-.03.4.11.08.14.03.32-.11.4l-3.22,1.86c-.13.08-.3.04-.39-.09s-.06-.3.06-.39l1.78-1.46-3.72,2.15s-.1.04-.15.04h0Z"/>
  <path class="cls-2" d="m31.42,21.24c0-5.13.08-10.27,0-15.41.08-1.92-1.8-2.91-3.51-2.68.72-4.06-3.95-3.81-3.21.09h-3.84c.79-4.08-3.93-3.9-3.2.03h-3.83c.84-3.99-3.86-3.97-3.2-.1h-3.84c.8-3.94-3.9-3.68-3.19.04C.01,2.8-.18,6.4.08,9.05v17.78c-.48,2.95,1.65,4.23,4.37,3.8h16.27c6.07,10.85,21.14-2.11,10.7-9.39h0Zm-5.86-17.03c.2-1.05-.5-2.73.5-3.39.47-.13.96.38.98.9-.26,1.28.72,3.76-.7,4.35-.86-.11-.82-1.18-.79-1.86Zm-7.04.04c.19-1.08-.47-2.7.46-3.46.55-.21,1.01.49,1.03.94-.24,1.31.64,3.6-.58,4.38-1.01,0-.91-1.18-.91-1.86h0Zm-7.04-.01c.19-1.09-.47-2.7.45-3.48.58-.14,1.05.51,1.04,1.04-.25,1.3.64,3.56-.58,4.35-.97-.05-.96-1.18-.92-1.9h0Zm-7.04.05c.22-1.06-.58-3.15.63-3.6.51.1.86.59.86,1.1-.17,1.39.43,3.13-.36,4.32-.99.36-1.25-1.1-1.14-1.82Zm-3.52,1.39c0-1.45,1.3-2.29,2.67-2.02-.83,3.93,3.86,3.77,3.19.05h3.84c-.77,4.04,3.93,3.71,3.2-.1h3.84c-.81,4.08,3.9,3.97,3.2.03h3.84c-.79,4.01,3.87,4.03,3.21.08,3.18-.36,2.68,3.22,2.66,5.33H.92c0-1.12,0-2.25,0-3.37Zm2.24,24.51c-3.23-.24-2.01-4.22-2.24-6.4v-14.23h29.63v11.25c-.68-.3-1.41-.48-2.15-.55.71-3.78-5.81-2.71-4.01.65-1.5.67-2.83,1.86-3.57,3.34-3.74-2.82-5.54,4.62-.8,3.36,0,.88.17,1.75.49,2.58-5.78,0-11.57.13-17.35,0h0Zm22.05-9.58c-1.22-2.51,2.69-3.08,2.37-.39-.81,0-1.61.14-2.37.39Zm-5.15,6.31c-3.44,1.45-2.03-5.05.39-1.79-.21.58-.34,1.18-.39,1.79Zm9.56,7.04c-9.79,2.83-12.22-13.26-2.01-13.27,7.11.11,8.9,11.03,2.01,13.27Z"/>
  <path class="cls-2" d="m19.61,15.98c2.04-.26,2.54-3.24.49-3.9-3.37-1.15-4.19,4.51-.49,3.9Zm-1.48-2.82c1.38-2.1,3.73,1.37,1.62,2.25-1.23.41-2.27-1.21-1.62-2.25h0Z"/>
  <path class="cls-2" d="m12.57,15.98c2.04-.26,2.54-3.24.49-3.9-3.37-1.15-4.19,4.51-.49,3.9Zm-1.48-2.82c1.38-2.1,3.73,1.37,1.62,2.25-1.23.41-2.27-1.21-1.62-2.25h0Z"/>
  <path class="cls-2" d="m26.62,15.98c2.04-.26,2.54-3.24.49-3.9-3.37-1.15-4.19,4.51-.49,3.9Zm-1.48-2.82c1.38-2.1,3.73,1.37,1.62,2.25-1.23.41-2.27-1.21-1.62-2.25Z"/>
  <path class="cls-2" d="m6.03,17.99c-3.4-.95-4.26,4.37-.48,3.74,1.99-.25,2.53-3.14.48-3.74h0Zm.2,2.91c-.16.23-.41.45-.65.51-1.63.27-2.47-2.5-.78-3.11,1.28-.18,2.23,1.55,1.43,2.6h0Z"/>
  <path class="cls-2" d="m13.06,17.91c-3.43-1.17-4.14,4.61-.44,3.97,2.03-.29,2.46-3.3.44-3.97Zm.25,2.84c-1.5,1.93-3.65-1.56-1.48-2.29,1.23-.35,2.2,1.29,1.48,2.29Z"/>
  <path class="cls-2" d="m19.65,21.85c2.03-.28,2.48-3.27.45-3.93-3.41-1.16-4.16,4.58-.45,3.93Zm-1.52-2.82c1.37-2.08,3.73,1.34,1.61,2.22-1.22.42-2.26-1.18-1.61-2.22Z"/>
  <path class="cls-2" d="m6.01,23.82c-3.44-.97-4.19,4.45-.43,3.82,2-.28,2.48-3.22.43-3.82Zm-.38,3.38c.07-.02-.16.04-.09.02-1.51.22-2.3-2.01-1.07-2.85,0,0,.18-.1.14-.09,1.73-.65,2.67,2.31,1.02,2.92h0Z"/>
  <path class="cls-2" d="m13.07,23.81c-3.36-1.14-4.19,4.5-.5,3.89,2.03-.25,2.55-3.22.5-3.89Zm.22,2.86c-.16.23-.38.42-.65.5.02,0-.14.03-.08.02-1.58.26-2.3-2.19-.89-2.87,1.31-.54,2.43,1.29,1.63,2.35Z"/>
  <path class="cls-2" d="m30.43,27.15h-2.54v-2.72c-1.43-.41-.67,1.88-.85,2.72-3.82-.28-3.83.95,0,.65v2.72c1.43.41.67-1.88.85-2.72.5-.02,4.03.25,2.54-.65Z"/>
</svg>