<?xml version="1.0" encoding="UTF-8"?>
<svg id="Layer_1" data-name="Layer 1" xmlns="http://www.w3.org/2000/svg" viewBox="0 0 35 35">
  <defs>
    <style>
      .cls-1 {
        fill: #f47721;
      }

      .cls-1, .cls-2, .cls-3, .cls-4 {
        stroke-width: 0px;
      }

      .cls-3 {
        fill: #fff;
      }

      .cls-4 {
        fill: #c1dbf0;
      }
    </style>
  </defs>
  <g id="websites_colour" data-name="websites colour">
    <path class="cls-1" d="m1.52,5.48c-.16,0-.29-.14-.29-.3,0-.09.04-.18.12-.23l1.93-1.4-2.69,1.55c-.14.08-.32.03-.4-.11-.07-.12-.04-.28.07-.37l2.51-2.05L.59,3.82c-.14.08-.32.03-.4-.11-.07-.12-.04-.28.06-.37l1.17-1-.83.48c-.14.08-.32.03-.4-.11-.06-.1-.05-.23.02-.32l.69-.91c-.15.06-.32,0-.39-.15-.06-.14,0-.3.13-.38L1.84.25c.14-.08.32-.03.4.11.06.1.05.23-.02.33l-.68.91L3.89.24c.14-.08.32-.03.4.11.07.12.04.28-.06.37l-1.17,1L5.62.24c.14-.08.32-.03.4.11.07.12.04.28-.07.37l-2.51,2.05L7.83.24c.14-.08.32-.03.4.11.07.13.04.29-.08.38l-1.93,1.4L9.51.24c.14-.08.32-.03.4.11.07.13.04.29-.07.38l-2.65,2.06L11.6.24c.14-.08.32-.03.4.12.07.13.03.29-.09.38l-.62.43,1.6-.93c.14-.08.32-.03.4.11.07.13.04.3-.08.38l-1.81,1.31L14.52.24c.14-.08.32-.03.4.11.07.13.04.3-.09.38l-.51.35,1.47-.85c.13-.08.31-.04.39.09.09.13.06.3-.07.4l-2.33,1.75L17.67.24c.14-.08.32-.03.4.11.07.13.04.28-.07.37l-2.87,2.32L19.98.24c.14-.08.32-.03.4.12.07.13.04.29-.08.38l-1.15.81,2.26-1.3c.14-.08.32-.02.4.12.07.13.03.29-.09.38l-.31.21,1.23-.71c.14-.08.32-.03.4.11.07.13.04.29-.08.38l-2.52,1.93L24.63.24c.14-.08.32-.03.4.12.07.13.03.29-.09.38l-.75.52,1.76-1.02c.14-.08.32-.03.4.11.08.13.04.3-.08.38l-2.25,1.67L27.78.24c.14-.08.32-.03.4.12.07.12.04.28-.07.37l-2.82,2.25L30.04.24c.14-.08.32-.03.4.11.07.13.04.29-.07.38l-2.71,2.13L32.19.24c.14-.08.32-.03.4.11.08.13.04.3-.08.38l-2.22,1.65,3.28-1.89c.14-.08.32-.03.4.12.07.13.04.29-.08.38l-1.33.96,1.58-.91c.14-.08.32-.03.4.11.07.13.04.29-.08.38l-1.06.78,1.01-.58c.14-.08.32-.03.4.11.07.12.04.28-.06.37l-1.32,1.13,1.01-.58c.14-.08.32-.03.4.11.06.1.05.23-.02.32l-.76,1.03.38-.22c.14-.08.32-.03.4.11.04.08.05.17.02.26l-.13.34c.05.03.09.07.12.12.08.14.03.32-.11.4l-.38.22c-.14.08-.32.03-.4-.11-.04-.08-.05-.17-.02-.26l.05-.14-.87.5c-.14.08-.32.03-.4-.11-.06-.1-.05-.23.02-.32l.76-1.03-2.53,1.46c-.14.08-.32.03-.4-.11-.07-.12-.04-.28.06-.37l1.32-1.13-2.79,1.61c-.14.08-.32.03-.4-.11-.07-.13-.04-.29.08-.38l1.06-.78-2.21,1.28c-.14.08-.32.03-.4-.11-.07-.13-.04-.29.08-.38l1.34-.96-2.52,1.46c-.14.08-.32.03-.4-.11-.08-.13-.04-.3.08-.38l2.22-1.65-3.71,2.14c-.14.08-.32.03-.4-.11-.07-.13-.04-.28.07-.38l2.71-2.13-4.54,2.62c-.14.08-.32.03-.4-.11-.07-.13-.04-.29.07-.38l2.82-2.25-4.75,2.74c-.14.08-.32.03-.4-.11-.08-.13-.04-.3.08-.38l2.25-1.67-3.75,2.17c-.14.08-.32.03-.4-.11-.08-.13-.04-.3.09-.39l.75-.52-1.76,1.02c-.14.08-.32.03-.4-.11-.07-.13-.04-.29.08-.38l2.52-1.93-4.19,2.42c-.14.08-.32.03-.4-.11-.07-.13-.04-.3.09-.39l.31-.21-1.23.71c-.14.08-.32.04-.4-.1-.08-.13-.04-.31.09-.39l1.15-.8-2.26,1.3c-.14.08-.32.03-.4-.11-.07-.12-.04-.28.07-.37l2.87-2.32-4.86,2.8c-.14.08-.32.03-.4-.11-.07-.13-.04-.29.08-.38l2.33-1.75-3.88,2.24c-.14.08-.32.03-.4-.11-.08-.13-.04-.3.09-.39l.51-.35-1.47.85c-.14.08-.32.03-.4-.11-.07-.13-.04-.3.08-.38l1.81-1.31-3.13,1.81c-.14.08-.32.03-.4-.11-.08-.13-.04-.3.09-.39l.62-.43-1.61.93c-.14.09-.32.05-.41-.09-.08-.13-.05-.31.08-.4l2.65-2.06L1.67,5.44s-.09.04-.15.04h0Z"/>
  </g>
  <g id="Colour">
    <path class="cls-4" d="m6.24,16.66c-.16,0-.29-.13-.29-.29,0-.1.05-.2.14-.25l.44-.28-1.35.78c-.14.08-.32.02-.4-.12-.07-.13-.03-.3.09-.38l2.67-1.72-3.85,2.22c-.14.08-.32.02-.4-.12-.07-.13-.03-.29.08-.37l5.51-3.75-5.93,3.42c-.14.08-.32.04-.4-.11-.08-.14-.04-.31.1-.4l1.19-.77-.89.51c-.14.08-.32.03-.4-.11-.07-.13-.04-.3.09-.39l3.21-2.19-2.9,1.67c-.14.08-.32.03-.4-.11-.07-.13-.04-.3.08-.38l2.86-2.03-2.54,1.47c-.14.08-.32.03-.4-.11-.07-.13-.04-.3.08-.38l1.16-.82-.84.49c-.14.08-.32.03-.4-.11-.07-.13-.04-.29.07-.38l1.29-.99-.97.56c-.14.08-.32.03-.4-.11-.06-.11-.05-.25.04-.35l1.26-1.35-.9.52c-.14.08-.32.03-.4-.11-.05-.08-.05-.18-.01-.27l.33-.7c-.12.01-.23-.05-.29-.15-.08-.14-.03-.32.11-.4l.68-.39c.14-.08.32-.03.4.11.05.08.05.18.01.27l-.31.66,1.8-1.03c.14-.08.32-.03.4.11.06.11.05.25-.04.34l-1.26,1.35,3.14-1.81c.14-.08.32-.03.4.11.07.13.04.29-.07.38l-1.29.99,2.56-1.48c.14-.08.32-.03.4.12.07.13.03.29-.08.38l-1.16.82,2.28-1.32c.14-.08.32-.03.4.11.07.13.04.3-.08.38l-2.85,2.03,4.38-2.53c.14-.08.32-.02.4.12.07.13.03.29-.09.38l-3.21,2.19,4.65-2.69c.14-.08.32-.03.4.12.07.13.03.3-.09.39l-1.19.77,2.2-1.27c.14-.08.32-.02.4.12.07.13.03.29-.09.38l-5.51,3.75,7.36-4.25c.14-.08.32-.02.4.12.07.13.03.29-.09.38l-2.67,1.72,3.85-2.22c.14-.08.32-.03.4.12.07.13.03.3-.1.39l-.44.28,1.35-.78c.14-.08.32-.03.4.11.07.13.04.3-.09.39l-4.61,3.06,6.18-3.56c.14-.08.32-.03.4.11.07.13.04.3-.09.38l-5.64,3.86,7.54-4.36c.14-.08.32-.03.4.11.08.13.04.31-.09.39l-3.55,2.32,4.89-2.82c.14-.08.32-.02.4.12.07.13.03.29-.09.38l-5.51,3.75,7.37-4.25c.14-.08.32-.02.4.12.07.13.03.3-.09.38l-3.75,2.46,5.13-2.96c.14-.08.32-.02.4.12.07.13.03.29-.09.38l-4.21,2.78,5.64-3.26c.14-.08.32-.03.4.12.07.13.03.3-.1.39l-.39.25.5-.29c.14-.08.32-.02.4.12.07.13.03.3-.09.38l-1.92,1.24,1.62-.94c.14-.08.32-.03.4.11.07.13.04.3-.09.39l-3.04,2.04,2.73-1.58c.14-.08.32-.03.4.11.08.13.04.3-.08.39l-3.71,2.7,3.39-1.95c.14-.08.32-.03.4.11.07.13.04.29-.07.38l-2.78,2.2,2.46-1.42c.13-.08.31-.04.39.09.09.13.06.3-.07.4l-.71.54.39-.23c.14-.08.32-.03.4.11.06.11.05.25-.03.34l-1.15,1.32.78-.45c.14-.08.32-.03.4.11.05.09.05.2,0,.29l-.27.5c.16.01.28.15.27.32,0,.1-.06.18-.15.23l-.68.39c-.14.08-.32.03-.4-.11-.05-.09-.05-.2,0-.29l.22-.42-1.41.81c-.14.08-.32.03-.4-.11-.06-.11-.05-.24.03-.34l1.15-1.32-3.07,1.77c-.14.08-.32.03-.4-.11-.07-.13-.04-.29.08-.38l.72-.54-1.78,1.03c-.14.08-.32.03-.4-.11-.07-.13-.04-.28.07-.37l2.78-2.2-4.65,2.68c-.14.08-.32.03-.4-.11-.08-.13-.04-.3.08-.39l3.71-2.7-5.54,3.2c-.14.08-.32.02-.4-.12-.07-.13-.03-.29.09-.38l3.04-2.04-4.39,2.54c-.14.08-.32.02-.4-.12-.07-.13-.03-.29.09-.38l1.93-1.24-3.02,1.74c-.14.08-.32.02-.4-.12-.07-.13-.03-.3.09-.38l.38-.24-1.29.74c-.14.08-.32.03-.4-.12-.07-.13-.03-.3.09-.38l4.21-2.78-5.68,3.28c-.14.08-.32.02-.4-.12-.07-.13-.03-.29.09-.38l3.75-2.46-5.13,2.96c-.14.08-.32.02-.4-.12-.07-.13-.03-.29.09-.38l5.51-3.75-7.36,4.25c-.14.08-.32.03-.4-.12-.07-.13-.03-.3.09-.39l3.55-2.32-4.88,2.82c-.14.08-.32.03-.4-.11-.07-.13-.04-.3.09-.38l5.64-3.86-7.55,4.36c-.14.08-.32.03-.4-.12-.07-.13-.03-.3.09-.38l4.61-3.06-6.18,3.56s-.1.04-.15.04h0Z"/>
    <path class="cls-4" d="m3.45,27.26c-.16,0-.29-.13-.3-.29,0-.1.05-.19.13-.25l.38-.25-.68.39c-.14.08-.32.04-.4-.1-.08-.13-.04-.31.09-.4l2.82-1.99-2.55,1.47c-.14.08-.32.03-.4-.11-.07-.13-.03-.3.09-.38l1.14-.77-.82.48c-.14.08-.32.03-.4-.12-.07-.13-.04-.29.08-.38l3.65-2.67-3.33,1.92c-.14.08-.32.03-.4-.11-.08-.13-.04-.3.08-.39l1.91-1.38-1.59.92c-.14.08-.32.03-.4-.11-.07-.13-.04-.29.08-.38l1.37-1.04-1.04.6c-.14.08-.32.03-.4-.11-.07-.12-.04-.28.07-.37l.8-.66-.47.27c-.13.08-.3.04-.38-.08-.09-.12-.07-.29.04-.39l.28-.26c-.16.05-.32-.04-.37-.2-.02-.08-.01-.16.02-.22l.26-.47c-.16-.02-.28-.16-.26-.32,0-.09.06-.18.14-.22l.68-.39c.14-.08.32-.03.4.11.05.09.05.2,0,.29l-.2.37,1.33-.77c.14-.08.32-.03.4.11.07.12.04.27-.05.36l-.25.23,1.22-.7c.14-.08.32-.03.4.11.07.12.04.28-.07.37l-.8.66,1.98-1.14c.14-.08.32-.03.4.11.07.13.04.29-.08.38l-1.37,1.04,2.65-1.53c.14-.08.32-.03.4.11.08.13.04.3-.08.39l-1.91,1.38,2.96-1.71c.14-.08.32-.03.4.11.07.13.04.29-.08.38l-3.65,2.67,3.5-2.02c.14-.08.32-.03.4.11.08.13.04.31-.09.39l-1.13.76.82-.47c.14-.08.32-.03.4.11.08.13.04.3-.09.39l-2.83,1.99,2.51-1.45c.14-.08.32-.03.4.11.08.13.04.31-.09.39l-.38.25.07-.04c.14-.08.32-.03.4.11.08.13.04.3-.08.39l-1.51,1.1,1.19-.69c.14-.08.32-.03.4.11.07.12.04.27-.05.36l-1.79,1.64,1.45-.83c.14-.08.32-.03.4.11.06.11.05.24-.03.34l-.75.88.37-.22c.14-.08.32-.02.4.12.07.14.03.3-.1.39l-1.85,1.07c-.14.08-.32.03-.4-.11-.06-.11-.05-.24.03-.34l.75-.88-2.29,1.32c-.14.08-.32.03-.4-.11-.07-.12-.04-.27.05-.36l1.79-1.64-3.67,2.12c-.14.08-.32.03-.4-.11-.08-.13-.04-.3.08-.39l1.51-1.1-2.76,1.59s-.1.04-.15.04h0Z"/>
    <path class="cls-4" d="m15.2,27.26c-.16,0-.29-.13-.29-.29,0-.09.04-.18.11-.23l3.03-2.36-4.42,2.55c-.14.08-.32.03-.4-.11-.07-.13-.04-.29.08-.38l3.28-2.35-3.04,1.75c-.14.08-.32.03-.4-.11-.08-.13-.04-.3.09-.39l.65-.43-.34.2c-.14.08-.32.03-.4-.11-.08-.14-.04-.31.09-.39l.35-.24-.04.02c-.14.08-.32.03-.4-.11-.07-.13-.04-.3.09-.39l.63-.42-.32.18c-.14.08-.32.03-.4-.11-.07-.13-.04-.29.08-.38l2.34-1.77-2.02,1.17c-.14.08-.32.03-.4-.11-.07-.13-.04-.29.08-.37l.97-.74-.64.37c-.14.08-.32.03-.4-.11-.06-.11-.05-.24.03-.34l1.18-1.32-.81.47c-.14.08-.32.03-.4-.11-.05-.09-.05-.19,0-.28l.29-.56c-.16,0-.29-.14-.29-.3,0-.1.06-.2.15-.25l.68-.39c.11-.07.26-.05.35.04.09.09.12.23.06.35l-.25.49,1.52-.88c.14-.08.32-.03.4.11.06.11.05.24-.03.34l-1.18,1.33,3.07-1.78c.14-.08.32-.03.4.11.07.13.04.29-.08.38l-.97.74,2.12-1.22c.14-.08.32-.03.4.11.07.13.04.29-.08.38l-2.34,1.77,3.79-2.19c.14-.08.32-.02.4.12.07.13.03.29-.09.38l-.63.43.62-.36c.14-.08.32-.03.4.12.07.13.03.3-.09.38l-.34.23.03-.02c.14-.08.32-.03.4.12.07.13.03.3-.09.38l-.66.44.35-.2c.14-.08.32-.03.4.11.07.13.04.29-.08.38l-3.28,2.35,2.96-1.71c.14-.08.32-.03.4.11.07.13.04.28-.07.37l-3.03,2.36,2.7-1.56c.14-.08.32-.03.4.11.07.12.04.28-.07.37l-1.8,1.5,1.47-.85c.14-.08.32-.03.4.11.06.11.05.24-.03.34l-1.08,1.28.71-.41c.14-.08.32-.03.4.11.05.09.05.2,0,.29l-.24.43c.16.03.27.18.25.34-.01.09-.07.16-.14.21l-.68.39c-.14.08-.32.03-.4-.11-.05-.09-.05-.2,0-.29l.18-.32-1.24.72c-.14.08-.32.03-.4-.11-.06-.11-.05-.24.03-.34l1.08-1.28-2.98,1.72c-.14.08-.32.03-.4-.11-.07-.12-.04-.28.07-.37l1.8-1.5-3.43,1.98s-.1.04-.15.04Z"/>
    <path class="cls-4" d="m25.33,27.26c-.16,0-.29-.13-.29-.29,0-.09.04-.18.12-.24l3.32-2.54-4.31,2.49c-.14.08-.32.03-.4-.11-.08-.13-.04-.3.09-.39l.47-.31-.16.09c-.14.08-.32.03-.4-.11-.07-.13-.04-.29.08-.38l3.79-2.77-3.47,2c-.14.08-.32.03-.4-.11-.07-.13-.04-.3.09-.39l1.43-.97-1.11.64c-.14.08-.32.04-.4-.1-.08-.13-.04-.3.08-.39l2.41-1.78-2.09,1.2c-.14.07-.32.02-.4-.13-.06-.11-.04-.25.05-.34l2.11-1.88-1.77,1.02c-.14.08-.32.04-.4-.1-.07-.12-.05-.27.05-.37l.82-.79-.47.27c-.14.08-.32.03-.4-.11-.05-.08-.05-.19-.01-.28l.32-.66c-.11.01-.22-.04-.28-.15-.08-.14-.03-.32.11-.4l.68-.39c.14-.08.32-.03.4.11.05.08.05.19.01.27l-.3.61,1.73-1c.13-.07.29-.04.38.08.09.12.08.29-.03.39l-.82.79,2.18-1.26c.14-.08.32-.03.4.11.07.12.04.27-.06.36l-2.11,1.88,4.07-2.35c.14-.08.32-.03.4.11.07.13.04.29-.08.38l-2.4,1.78,3.58-2.07c.14-.08.32-.03.4.11.08.13.04.3-.09.39l-1.43.97,1.25-.72c.14-.08.32-.03.4.11.07.13.04.29-.08.38l-3.79,2.77,3.47-2c.14-.08.32-.03.4.12.07.13.03.3-.09.38l-.47.31.16-.09c.14-.08.32-.03.4.11.07.13.04.29-.08.38l-3.32,2.54,2.99-1.73c.14-.08.32-.03.4.11.07.13.04.28-.07.37l-1.85,1.46,1.52-.88c.14-.08.32-.03.4.11.06.11.05.26-.04.35l-1.35,1.4.99-.57c.14-.08.32-.03.4.11.05.08.05.18.01.27l-.36.82c.16-.03.32.07.35.23.03.12-.03.25-.14.31l-.68.39c-.14.08-.32.03-.4-.11-.05-.08-.05-.18-.01-.26l.35-.8-2.04,1.18c-.14.08-.32.03-.4-.11-.07-.11-.05-.26.04-.35l1.35-1.4-3.21,1.85c-.14.08-.32.03-.4-.11-.07-.13-.04-.29.07-.38l1.85-1.46-3.38,1.94s-.1.04-.15.04h0Z"/>
    <path class="cls-1" d="m18.14,13.65c-.16,0-.29-.13-.29-.3,0-.1.06-.2.15-.25l.69-.4c.14-.09.32-.05.41.09s.05.32-.09.41c0,0-.01,0-.02.01l-.69.4s-.1.04-.15.04Z"/>
    <path class="cls-1" d="m14.01,11.84c-.16,0-.29-.13-.29-.29,0-.11.06-.2.15-.26l.69-.4c.14-.09.32-.05.41.09.09.14.05.32-.09.41,0,0-.01,0-.02.01l-.69.4s-.1.04-.15.04h0Z"/>
    <path class="cls-1" d="m11.12,16.66c-.16,0-.29-.13-.29-.29,0-.09.04-.18.12-.24l1.31-1-2.58,1.49c-.14.08-.32.03-.4-.11-.07-.13-.04-.29.08-.38l2.16-1.63-3.68,2.12c-.14.08-.32.03-.4-.11-.07-.13-.04-.29.07-.38l1-.79-.35.21c-.14.08-.32.03-.4-.11-.07-.12-.05-.27.06-.36l2.41-2.23c-.05-.13,0-.28.13-.35l.7-.4c.14-.08.32-.03.4.11.07.12.05.27-.06.36l-1.26,1.17,1.61-.93c.14-.08.32-.03.4.11.07.13.04.29-.07.38l-1,.79,4.23-2.44c.14-.08.32-.03.4.11.07.13.04.29-.08.38l-2.16,1.63,2.5-1.44c.14-.08.32-.03.4.11.07.13.04.29-.08.38l-1.31,1,1.56-.9c.14-.08.32-.03.4.11.07.12.04.28-.07.37l-1.1.9,1.35-.78c.14-.08.32-.03.4.11.06.11.05.25-.04.34l-1.09,1.16,2.98-1.72c.14-.08.32-.03.4.11.06.11.05.25-.04.34l-1.2,1.3,1.63-.94c.12-.07.27-.05.36.05.09.1.1.25.03.37l-.57.84.9-.52c.14-.08.32-.03.4.11.03.05.04.1.04.15v.64s.28-.17.28-.17c.14-.08.32-.03.4.11.08.14.03.32-.11.4l-.74.43c-.14.08-.32.03-.4-.11-.03-.05-.04-.1-.04-.15v-.64s-1.55.9-1.55.9c-.14.08-.32.03-.4-.11-.06-.1-.05-.22.01-.31l.57-.84-2.18,1.26c-.14.08-.32.03-.4-.11-.06-.11-.05-.25.04-.35l1.2-1.3-3.05,1.76c-.14.08-.32.03-.4-.11-.06-.11-.05-.25.04-.35l1.09-1.16-2.8,1.62c-.14.08-.32.03-.4-.11-.07-.12-.04-.28.07-.37l1.1-.9-2.39,1.38s-.1.04-.15.04h0Z"/>
    <path class="cls-3" d="m24.49,12.91c-.16,0-.29-.13-.3-.29,0-.07.02-.13.07-.19l.46-.57-.54.31c-.14.08-.32.03-.4-.11-.06-.1-.05-.24.03-.33l.29-.37c-.16-.04-.25-.2-.21-.36.02-.07.07-.14.14-.18l.98-.56c.14-.08.32-.03.4.11.06.1.05.24-.03.33l-.14.18.55-.32c.14-.08.32-.03.4.11.06.11.05.24-.03.33l-.46.57.46-.27c.14-.09.32-.05.41.09s.05.32-.09.41c0,0-.01,0-.02.01l-1.83,1.06s-.1.04-.15.04h0Z"/>
    <g>
      <path class="cls-1" d="m8.34,22.35c-.16,0-.29-.13-.29-.29,0-.11.06-.2.15-.26l.66-.38c.14-.08.32-.02.4.12.07.14.03.3-.1.39l-.66.38s-.1.04-.15.04h0Z"/>
      <path class="cls-1" d="m4.75,27.26c-.16,0-.29-.13-.29-.29,0-.09.04-.17.11-.23l2.6-2.19-4.14,2.39c-.14.08-.32.03-.4-.11-.07-.13-.04-.3.09-.38l.27-.18-.04.02c-.14.08-.32.03-.4-.11-.07-.13-.04-.29.08-.38l1.11-.84c-.14-.08-.18-.27-.1-.41.02-.02.03-.05.06-.07l1.56-1.4c-.03-.13.03-.26.14-.33l.66-.38c.14-.08.32-.02.4.12.06.12.04.26-.05.35l-.21.19.33-.19c.14-.08.32-.03.4.11.07.13.04.29-.08.38l-.13.1,2.63-1.52c.14-.08.32-.02.4.12.07.13.03.29-.09.38l-.26.18.39-.23c.14-.08.32-.03.4.11.07.12.04.28-.07.37l-2.6,2.19,3.12-1.8c.14-.08.32-.03.4.11.07.12.04.28-.07.37l-1.54,1.29,1.44-.83c.14-.08.32-.03.4.11.07.12.04.26-.05.36l-.78.71.43-.25c.14-.08.32-.03.4.11.06.11.05.24-.03.34l-.28.32c.12-.02.25.03.31.14.08.14.03.32-.11.4l-1.4.81c-.14.08-.32.03-.4-.11-.06-.11-.05-.24.03-.34l.25-.28-1.27.73c-.14.08-.32.03-.4-.11-.07-.12-.04-.26.05-.36l.78-.71-2.05,1.18c-.14.08-.32.03-.4-.11-.07-.12-.04-.28.07-.37l1.54-1.29-3.06,1.77s-.1.04-.15.04h0Z"/>
      <path class="cls-1" d="m18.94,22.35c-.16,0-.29-.13-.29-.29,0-.11.06-.2.15-.26l.66-.38c.14-.08.32-.02.4.12.07.14.03.3-.1.39l-.66.38s-.1.04-.15.04h0Z"/>
      <path class="cls-1" d="m14.52,27.26c-.16,0-.29-.13-.3-.29,0-.09.04-.18.11-.23l2.71-2.16-3.49,2.01c-.14.08-.32.03-.4-.11-.07-.13-.04-.29.08-.38l.58-.44c-.16-.02-.28-.16-.26-.32,0-.07.04-.14.09-.19l2.22-2.05c-.04-.13.02-.27.13-.34l.66-.38c.14-.08.32-.03.4.11.07.12.05.27-.06.36l-1.03.95,1.33-.77c.14-.08.32-.03.4.11.07.13.04.29-.08.38l-.22.16,2.72-1.57c.14-.08.32-.03.4.11.07.13.04.29-.07.38l-2.71,2.16,3.18-1.84c.14-.08.32-.04.4.11.07.12.05.28-.06.37l-2.11,1.88,2.3-1.33c.14-.08.32-.03.4.11.06.11.05.25-.04.35l-1.23,1.3.87-.5c.14-.08.32-.03.4.11.06.1.05.22-.02.32l-.31.43c.16-.04.32.06.36.22.03.13-.03.26-.14.32l-1.08.62c-.14.08-.32.03-.4-.11-.06-.1-.05-.22.02-.32l.29-.41-1.44.83c-.14.08-.32.03-.4-.11-.06-.11-.05-.25.04-.35l1.23-1.3-3.04,1.75c-.14.08-.32.02-.4-.12-.06-.12-.04-.26.05-.35l2.1-1.88-4.07,2.35s-.1.04-.15.04h0Z"/>
      <path class="cls-1" d="m29.55,22.35c-.16,0-.29-.13-.29-.29,0-.11.06-.2.15-.26l.66-.38c.14-.08.32-.02.4.12.07.14.03.3-.1.39l-.66.38s-.1.04-.15.04h0Z"/>
      <path class="cls-1" d="m25.43,27.26c-.16,0-.3-.13-.3-.29,0-.1.04-.19.12-.24l1.35-.99-2.29,1.32c-.14.08-.32.03-.4-.11-.07-.13-.04-.29.08-.38l2.19-1.62-2.05,1.19c-.14.08-.32.03-.4-.11-.07-.12-.05-.26.05-.36l2.67-2.55c-.05-.14,0-.29.13-.36l.66-.38c.14-.08.32-.04.41.1.07.12.05.27-.05.37l-1.63,1.56,4.47-2.58c.14-.08.32-.03.4.11.07.13.04.29-.08.38l-2.19,1.62,2.52-1.45c.14-.08.32-.03.4.11.08.13.04.3-.08.39l-1.35.99,1.59-.92c.14-.08.32-.03.4.11.07.12.04.26-.05.36l-2.02,1.84,2.09-1.21c.14-.08.32-.03.4.11.06.11.05.25-.04.35l-1.03,1.07.67-.39c.14-.08.32-.03.4.11.06.1.05.22-.01.31l-.28.4c.16-.02.31.1.32.26.01.12-.04.23-.14.29l-.98.57c-.14.08-.32.03-.4-.11-.06-.1-.05-.22.01-.31l.24-.35-1.35.77c-.14.08-.32.03-.4-.11-.06-.11-.05-.25.04-.35l1.03-1.07-2.64,1.53c-.14.08-.32.03-.4-.11-.07-.12-.04-.26.05-.36l2.02-1.84-4.01,2.31s-.09.04-.14.04h0Z"/>
    </g>
  </g>
  <g id="Lines">
    <path class="cls-2" d="m34.25.73c-.87-.87-2.45-.61-3.55-.61H4.77C.23-.51-.09,1.33.16,5.33v26.05c0,1.66-.04,3.2,1.98,3.61,9.81.02,19.64,0,29.45,0,3.46,0,3.26-2.27,3.26-5.1V5.05c-.1-1.39.42-3.18-.61-4.32h0ZM.69,2.28C1.27.4,3.1.83,4.48.83h15.69c4.09.18,8.34-.3,12.38,0,2.25.63,1.71,2.3,1.78,4.01H.62c-.13-.85-.1-1.72.06-2.56h0Zm30.86,32.01H2.21c-2.07-.44-1.52-2.99-1.52-4.4-.01-8.12.02-16.24-.01-24.36h33.65v21.89c0,2.68,1.01,6.86-2.78,6.86Z"/>
    <path class="cls-2" d="m2.75,3.1c.31-.05.85.15.97-.23-.05-.69-2.06-.18-.97.23Z"/>
    <path class="cls-2" d="m5.64,3.17c.45.14,1.4-.24.77-.67-.45-.14-1.4.23-.77.67Z"/>
    <path class="cls-2" d="m8.59,3.11c.39.13,1.54-.2.76-.56-.39-.13-1.54.2-.76.56Z"/>
    <path class="cls-2" d="m28.68,3.1c.52-.12,4.92.39,3.59-.54-.52.12-4.92-.39-3.59.54Z"/>
    <path class="cls-2" d="m30.69,7.78c-6.89-.29-13.85,0-20.75,0-5.1-.26-8.7-1.64-7.43,5.34,0,1.66-.52,3.18,1.23,3.62,9.24.34,18.73-.17,28.01-.03,1.68-1.56.56-4.92.75-7.07-.08-1.54-.32-1.78-1.81-1.85Zm-21.97,8.25c-.28,0-.69.04-1.16.08,1.13-1.04,2.1-2.35,3.26-3.33.34-.28.71.38.96.63,1.11.65,1.85-1.78,2.77-1.95.98.56,1.73,2.06,2.71,2.66.69.23.72-.6,1.28-.79,1.08.44,1.91,1.93,2.87,2.71h-12.68Zm22.89,0h-9.26c-1.23-1.09-2.21-2.61-3.57-3.48-.55-.05-.9,1.01-1.32.88-.88-.78-1.59-1.88-2.53-2.57-1.13-.44-1.79,1.9-2.77,1.97-.38-.4-.81-1.1-1.42-.75-1.37,1.3-2.68,2.76-4.02,4.12-1.23.11-2.58.18-3.19-.17-.95-.54-.87-5.62-.48-6.77.44-1.3,2.34-.77,3.68-.77,8.24.04,16.57-.06,24.77,0,.81.46,1.05,7.09.12,7.54h0Z"/>
    <path class="cls-2" d="m10.56,18.47c-7.22.37-8.69-2.57-8.12,6.11,0,.65-.28,2.08.38,2.53,2.36.62,5.12-.09,7.56.15,1.08-.14,1.04-1.13,1-2.05-.37-1.71.9-6.04-.82-6.74Zm-7.43.96c1.13-1.08,4.34-.12,5.99-.42,2.36-.51,1.52,2.34,1.58,3.79-2.17-2.9-2.01-.79-3.71.12-.56-.08-.35-.8-1.1-.61-1.01.81-1.84,1.91-2.8,2.8.16-1.84-.23-3.9.04-5.68Zm7.27,7.29c-1.51-.37-7.26.93-7.27-.88.97-.92,1.93-2.09,2.89-2.96.45.03.4.82,1.06.7s1.16-1.65,1.73-1.64c.4,0,1.44,1.41,1.89,1.94.07.84.22,2.63-.3,2.84h0Z"/>
    <path class="cls-2" d="m21.45,18.49c-.78-.42-2.44-.08-3.27-.08-1.55.18-4.97-1.04-5.09,1.33.21,2.32-.6,5.35.35,7.43,2.3.63,5.04-.09,7.44.15.92-.07,1.08-.93,1.04-1.76-.33-2.19.71-5.24-.47-7.07h0Zm-7.78.79c1.7-.65,4.04,0,5.91-.21,2.53-.58,1.81,2.29,1.78,3.91-2.39-2.96-1.83-1.39-3.8-.07-.45.03-.49-.74-1.1-.63-1.04.75-1.85,1.91-2.82,2.78.16-1.8-.29-4.05.02-5.79h0Zm7.41,7.37c-1.71-.37-6.73.85-7.37-.71.99-.93,1.94-2.11,2.93-2.99.35,0,.47.56.82.64.95.21,1.22-1.49,1.97-1.58.42-.05,1.45,1.29,1.93,1.83.05.76.25,2.68-.27,2.82h0Z"/>
    <path class="cls-2" d="m31.79,18.47c-.98-.27-2.4,0-3.42,0-1.49,0-4.63-.77-4.73,1.34.23,2.31-.61,5.22.36,7.3,2.33.65,5.12-.09,7.54.16,1.1-.1,1.07-1.07,1.03-1.94-.36-1.76.89-6.05-.79-6.84h0Zm-7.45.93c1.12-1.03,4.29-.1,5.92-.4,2.39-.51,1.63,2.29,1.65,3.79-2.19-2.87-2-.85-3.7.15-.53-.07-.37-.79-1.05-.65-1.08.75-1.9,1.92-2.88,2.82.16-1.85-.22-3.91.05-5.71Zm7.27,7.31c-1.6-.38-7.05.95-7.27-.88.95-.86,1.92-2.19,2.93-2.87.35.05.41.61.86.61.82,0,1.25-1.66,1.89-1.64.37.01,1.47,1.48,1.89,1.95.06.83.23,2.59-.31,2.83h0Z"/>
    <path class="cls-2" d="m26.65,11.54c-.1-1.96-3.02-1.62-2.97.23.04,2.01,3.06,1.65,2.97-.23Zm-2.35.04c.05-1.16,1.76-.86,1.73.19-.1,1.13-1.74.88-1.73-.19Z"/>
    <path class="cls-2" d="m9.92,29.04c-.76.21-7.31-.57-6.04.61.76-.21,7.3.57,6.04-.61Z"/>
    <path class="cls-2" d="m8.69,31.43c-.52.12-4.93-.39-3.57.54.52-.12,4.93.39,3.57-.54Z"/>
    <path class="cls-2" d="m20.51,29.01c-.84.25-7.2-.65-6.01.66.84-.25,7.2.65,6.01-.66Z"/>
    <path class="cls-2" d="m19.18,31.42h-3.53c-1.73.78,5.87.86,3.53,0Z"/>
    <path class="cls-2" d="m31.14,29.02c-.81.23-7.22-.62-6.06.64.81-.23,7.22.62,6.06-.64Z"/>
    <path class="cls-2" d="m29.88,31.43c-.51.11-4.97-.38-3.53.53.5-.11,4.97.38,3.53-.53Z"/>
  </g>
</svg>