<?xml version="1.0" encoding="UTF-8"?>
<svg id="Layer_1" data-name="Layer 1" xmlns="http://www.w3.org/2000/svg" viewBox="0 0 35 35">
  <defs>
    <style>
      .cls-1 {
        fill: #f47721;
      }

      .cls-1, .cls-2, .cls-3, .cls-4, .cls-5 {
        stroke-width: 0px;
      }

      .cls-2 {
        fill: #f58534;
      }

      .cls-4 {
        fill: #fff;
      }

      .cls-5 {
        fill: #c1dbf0;
      }
    </style>
  </defs>
  <g id="_014---Developer-Management" data-name="014---Developer-Management">
    <path id="Path" class="cls-1" d="m17.51,30.26c-.13,0-.24-.08-.28-.2s0-.25.1-.33l2.89-2.2-4.41,2.55c-.14.08-.32.04-.4-.1s-.04-.31.09-.4l.1-.06-.72.41c-.14.08-.31.04-.4-.1s-.05-.31.08-.4l3.03-2.08-3.84,2.22c-.14.08-.32.03-.4-.1-.08-.14-.04-.31.09-.4l.44-.28-.92.53c-.09.06-.2.06-.3,0-.09-.05-.15-.15-.15-.25,0-.11.05-.21.14-.26l.69-.44-1.05.61c-.14.08-.31.03-.4-.1s-.05-.31.08-.4l5.88-4.07-6.66,3.84c-.14.08-.32.03-.4-.1s-.04-.31.09-.4l2.94-1.9-2.63,1.52c-.14.08-.32.04-.4-.1s-.04-.31.09-.4l4.47-2.96-4.16,2.4c-.14.08-.31.03-.4-.1s-.05-.31.09-.4l4.28-2.85-3.97,2.29c-.14.08-.31.04-.4-.1s-.05-.31.08-.4l5.34-3.72-5.02,2.9c-.14.08-.32.04-.4-.1s-.04-.31.09-.4l2.24-1.48-1.93,1.11c-.14.08-.31.04-.4-.1s-.05-.31.08-.4l3.89-2.77-3.57,2.06c-.14.08-.31.04-.39-.09s-.06-.31.07-.4l2.96-2.2-2.54,1.47c-.13.08-.31.04-.4-.09s-.06-.3.06-.4l1.99-1.59-1.24.72c-.13.08-.3.04-.39-.09-.09-.13-.07-.3.05-.4l1.01-.85s-.09-.07-.12-.11c-.08-.14-.03-.32.11-.4l1.98-1.14c.13-.08.3-.04.39.09.09.13.07.3-.05.4l-.42.36,1.76-1.02c.13-.08.3-.04.39.09.09.13.06.3-.06.4l-1.99,1.59,3.6-2.08c.14-.08.31-.04.39.09s.06.31-.07.4l-2.96,2.2,4.51-2.61c.14-.08.31-.04.4.1s.05.31-.08.4l-3.89,2.77,4.94-2.85c.14-.08.32-.04.4.1s.04.31-.09.4l-2.24,1.48,2.67-1.54c.14-.08.31-.04.4.1s.05.31-.08.4l-5.34,3.72,5.88-3.39c.14-.08.31-.03.4.1s.05.31-.08.4l-4.28,2.86,4.49-2.59c.14-.08.31-.03.4.1.08.14.05.31-.09.4l-4.47,2.96,4.52-2.61c.14-.08.32-.03.4.1.08.14.04.31-.09.4l-2.94,1.9,2.76-1.59c.14-.08.31-.04.4.1.09.13.05.31-.08.4l-5.88,4.07,5.64-3.25c.14-.08.31-.03.4.11.08.14.04.31-.09.4l-.69.44.38-.22c.14-.08.32-.03.4.1.08.14.04.31-.09.4l-.43.28.12-.07c.14-.08.31-.04.4.1s.05.31-.08.4l-3.03,2.08,2.72-1.57c.14-.08.31-.03.4.1s.05.31-.09.4l-.24.16c.12-.03.25.02.32.12.09.13.06.3-.07.4l-2.89,2.21,2.56-1.48c.14-.08.31-.04.39.1s.05.31-.07.4l-.56.41.24-.14c.13-.07.29-.04.38.07s.08.28-.02.39l-.67.71.31-.18c.09-.06.21-.06.3,0s.15.15.15.26-.06.21-.16.26l-2.1,1.21c-.13.07-.29.04-.38-.07-.09-.12-.08-.28.02-.39l.68-.71-3.32,1.92c-.14.08-.31.04-.39-.1s-.05-.31.07-.4l.56-.41-1.69.98s-.1.04-.15.04h0Z"/>
    <path id="Path-2" data-name="Path" class="cls-2" d="m17.58,17.73c-.11,0-.21-.06-.26-.16s-.04-.22.02-.31l.34-.47-.84.48c-.12.07-.28.04-.37-.06s-.1-.27,0-.38l1.02-1.26-.95.55c-.1.06-.23.05-.32-.02-.09-.07-.14-.18-.12-.3l.2-1.01c-.11-.04-.19-.13-.2-.25s.04-.23.15-.29l.3-.17c.1-.06.23-.05.32.02s.14.18.12.3l-.17.88,1.77-1.02c.12-.07.28-.04.37.06s.09.27,0,.38l-1.02,1.25.64-.37c.12-.07.27-.05.37.06s.1.26.02.37l-.41.57c.13,0,.24.1.28.22s-.03.26-.14.33l-.97.56s-.1.04-.15.04h0Z"/>
    <g>
      <path id="Path-3" data-name="Path" class="cls-5" d="m24.04,33.27c-.11,0-.21-.06-.26-.16s-.04-.22.03-.31l.59-.8-.97.56c-.13.07-.29.04-.38-.08s-.08-.28.02-.38l.54-.57-.75.43c-.13.07-.29.04-.38-.07-.09-.12-.08-.28.02-.39l.87-.92-1.18.68c-.13.08-.31.04-.39-.09s-.06-.3.06-.4l.83-.66-2.34,1.35c-.09.06-.21.06-.3,0s-.15-.15-.15-.26.06-.21.16-.26l5.89-3.4c.13-.08.31-.04.39.09s.06.3-.06.4l-1.22.97c.11.02.19.1.23.2s0,.22-.07.3l-.87.91.78-.45c.13-.07.29-.04.38.07.09.12.08.28-.02.39l-.54.57.41-.24c.12-.07.27-.04.37.06s.1.26.02.37l-.59.8.41-.24c.09-.06.21-.06.3,0s.15.15.15.26-.06.21-.16.26l-1.66.95s-.1.04-.15.04h0Z"/>
      <path id="Path-4" data-name="Path" class="cls-5" d="m29.04,28.14c-.09,0-.17-.04-.23-.1-.09-.11-.1-.26-.01-.38l.52-.68-1.34.77c-.13.07-.29.04-.38-.08s-.07-.29.03-.39l.11-.1-.58.34c-.09.06-.21.06-.3,0s-.15-.15-.15-.26.06-.21.16-.26l2.99-1.73c.13-.07.29-.04.38.08s.07.29-.03.39l-.11.1.22-.13c.12-.07.28-.04.37.06s.1.26.01.37l-.52.68.13-.07c.09-.06.21-.06.3,0s.15.15.15.26-.06.21-.16.26l-1.42.82s-.1.04-.15.04Z"/>
      <path id="Path-5" data-name="Path" class="cls-5" d="m29.98,21.71c-.13,0-.25-.09-.29-.22-.03-.13.02-.27.14-.33l2.35-1.35c.14-.07.31-.02.39.11s.04.31-.1.4l-2.35,1.35s-.1.04-.15.04Z"/>
      <path id="Path-6" data-name="Path" class="cls-5" d="m23.59,26.66c-.13,0-.24-.08-.28-.2s0-.25.09-.33l2.63-2.13-.5.29c-.14.08-.31.04-.4-.09s-.06-.31.07-.4l2.49-1.82-1.55.89c-.13.08-.3.04-.39-.09s-.06-.3.06-.4l2.25-1.85-1.56.9c-.13.07-.29.04-.38-.08s-.08-.28.02-.39l1.53-1.55-1.04.6c-.13.07-.29.04-.38-.07-.09-.12-.08-.28.02-.39l1.05-1.11-.8.46c-.13.08-.3.04-.39-.08s-.07-.29.04-.39l.21-.19c-.13.04-.27,0-.35-.12s-.06-.27.03-.36l1.25-1.32-1.23.71c-.13.08-.3.04-.39-.09s-.07-.3.05-.4l2.18-1.85-2.27,1.31c-.14.08-.31.04-.4-.09s-.05-.31.07-.4l.5-.37-.49.28c-.13.08-.31.04-.4-.09s-.06-.3.06-.4l1.57-1.28-1.73,1c-.13.07-.28.04-.38-.07-.09-.11-.09-.27,0-.38l.76-.87-1,.58c-.13.07-.28.04-.38-.07s-.09-.27,0-.38l.69-.8-1.01.59c-.12.07-.28.04-.37-.06s-.1-.26-.01-.37l.83-1.07-1.35.78c-.13.08-.3.04-.39-.08s-.07-.29.04-.39l.75-.7-1.24.72c-.13.07-.29.03-.38-.09-.09-.12-.07-.29.03-.39l1.86-1.68-2.8,1.61c-.13.08-.3.04-.39-.09s-.06-.3.06-.4l2.18-1.78-3.31,1.91c-.14.08-.31.04-.4-.09-.09-.13-.06-.31.07-.4l1.55-1.15-2.64,1.52c-.14.08-.31.04-.39-.09s-.06-.3.07-.4l2.32-1.76-4.79,2.77c-.09.06-.21.06-.3,0-.1-.05-.15-.15-.15-.26s.06-.21.16-.26l8.86-5.12c.14-.08.31-.04.4.09s.06.31-.07.4l-2.32,1.76,2.99-1.73c.14-.08.31-.04.39.09s.06.31-.07.4l-1.55,1.15,2.07-1.19c.13-.08.3-.04.39.09.09.13.06.3-.06.4l-2.18,1.78,2.04-1.18c.13-.07.29-.03.38.09.09.12.07.29-.03.39l-1.86,1.68,1.07-.62c.13-.08.3-.04.39.08s.07.29-.04.39l-.75.7.4-.23c.12-.07.28-.04.37.06s.1.26.01.38l-.83,1.07,1.22-.71c.13-.07.28-.04.38.07s.09.27,0,.38l-.69.8,1.02-.59c.13-.07.28-.04.38.07s.09.27,0,.38l-.76.87,3.39-1.95c.13-.08.31-.04.39.09s.06.3-.06.4l-1.57,1.28,1.92-1.11c.14-.08.31-.04.4.09s.05.31-.07.4l-.5.37.5-.29c.13-.08.3-.04.39.09s.07.3-.05.4l-2.18,1.85.14-.08c.13-.07.29-.04.38.07s.08.28-.02.39l-1.25,1.32.73-.42c.13-.08.3-.04.39.08s.07.29-.04.4l-.19.17h.02c.13-.08.29-.05.38.06.09.12.08.28-.02.39l-1.05,1.11,1.14-.66c.13-.07.29-.04.38.08s.08.28-.02.39l-1.53,1.55,2.76-1.59c.13-.08.3-.04.39.09.09.13.06.3-.06.4l-2.25,1.85,3.18-1.83c.14-.08.31-.03.39.1s.05.31-.07.4l-3.22,2.36c.06.02.12.06.15.11.09.13.06.3-.06.4l-2.63,2.13,1.86-1.07c.09-.06.21-.06.3,0s.15.15.15.26-.06.21-.16.26l-5.1,2.94s-.09.04-.15.04h0Z"/>
      <path id="Path-7" data-name="Path" class="cls-5" d="m17.78,34.9c-.11,0-.21-.06-.26-.16s-.05-.21.02-.3l.53-.8-1.46.84c-.14.08-.31.03-.39-.1s-.05-.31.08-.4l6.17-4.15-6.13,3.54c-.14.08-.32.04-.4-.1-.08-.14-.04-.32.09-.4l2.01-1.29-1.88,1.09c-.14.08-.31.03-.4-.1s-.05-.31.09-.4l4.53-3-4.52,2.61c-.13.08-.3.04-.39-.09-.09-.13-.06-.3.05-.4l.84-.7-1.45.84c-.13.08-.3.05-.4-.07s-.07-.3.04-.4l.76-.73-1.55.9c-.09.06-.21.06-.3,0s-.15-.15-.15-.26.06-.21.16-.26l3.71-2.14c.13-.07.29-.04.38.08s.08.29-.03.39l-.76.72,2.32-1.34c.13-.08.3-.04.39.09.09.13.06.3-.05.4l-.84.7,9.87-5.7c.14-.08.31-.03.39.1.08.13.05.31-.08.4l-4.53,3,4.84-2.79c.14-.07.31-.03.39.11s.04.31-.09.4l-2.01,1.28,2.22-1.28c.14-.08.31-.03.4.1s.05.31-.08.4l-10.61,7.14c.02.08,0,.17-.04.24l-.58.87h0c.13,0,.25.09.29.22s-.02.27-.14.33l-.9.52s-.1.04-.15.04h0Z"/>
      <path id="Path-8" data-name="Path" class="cls-5" d="m10.82,33.25c-.13,0-.24-.08-.28-.21s0-.26.11-.33l.76-.54-1.15.67c-.14.08-.31.04-.4-.09-.09-.13-.06-.31.07-.4l1.47-1.1-1.82,1.05c-.13.08-.3.04-.39-.09-.09-.12-.07-.3.05-.4l2.22-1.9-1.55.9c-.13.07-.29.04-.38-.08s-.08-.28.02-.39l1.55-1.55-.84.48c-.13.07-.29.03-.38-.09-.09-.12-.07-.29.03-.39l.13-.12-.15.09c-.12.07-.28.04-.37-.06-.09-.11-.1-.27,0-.38l.77-.96-1.14.66c-.12.07-.28.04-.37-.06s-.09-.27,0-.38l.78-.96-1.77,1.02c-.13.08-.3.04-.39-.09s-.07-.3.05-.4l.18-.15-2.09,1.21c-.13.08-.3.04-.39-.08s-.07-.29.04-.39l2.16-1.9-2.52,1.45c-.14.08-.31.03-.39-.09s-.06-.3.07-.4l.83-.63-.78.45c-.13.08-.3.04-.39-.09s-.06-.3.06-.4l2.2-1.77c-.1-.03-.18-.11-.2-.22-.02-.1.01-.21.09-.29l.38-.35-.12.07c-.13.07-.29.03-.38-.09-.09-.12-.07-.28.03-.39l.23-.21-.06.03c-.13.07-.29.04-.38-.08s-.08-.28.02-.39l.85-.85-.76.44c-.13.07-.3.04-.38-.08s-.07-.29.04-.39l.73-.67-1.26.72c-.13.08-.3.04-.39-.09s-.07-.3.05-.39l1.24-1.06-2.13,1.23c-.14.08-.31.04-.39-.09s-.06-.31.07-.4l1.41-1.06-2.05,1.18c-.14.08-.31.03-.39-.1s-.05-.31.08-.4l1.26-.89-1.05.6c-.12.07-.27.05-.36-.05s-.11-.25-.03-.37l.25-.37c-.13-.01-.23-.11-.26-.23-.03-.13.03-.25.14-.32l.86-.49c.12-.07.27-.05.36.05.09.1.11.25.03.37l-.18.27,5.61-3.24c.14-.08.31-.03.39.1s.05.31-.08.4l-1.26.89.54-.31c.14-.08.31-.04.4.09s.06.31-.07.4l-1.41,1.06.78-.45c.13-.08.3-.04.39.09s.07.3-.05.4l-1.24,1.06.79-.46c.13-.07.3-.04.38.08s.07.29-.04.39l-.73.67.38-.22c.13-.07.29-.04.38.08s.08.28-.02.39l-.85.85.59-.34c.13-.07.29-.03.38.09.09.12.07.28-.03.39l-.23.2h0c.13-.08.29-.04.38.08s.07.29-.04.39l-.38.35.25-.14c.13-.08.3-.04.39.09s.06.3-.06.4l-1.73,1.39,1.71-.99c.14-.08.31-.03.39.09s.06.3-.07.4l-.83.63.85-.49c.13-.08.3-.04.39.08s.07.29-.04.39l-2.16,1.9,2.42-1.4c.13-.08.3-.04.39.09.09.13.07.3-.05.4l-.18.15.25-.14c.12-.07.28-.04.37.06s.09.27,0,.38l-.78.96,1.11-.64c.12-.07.28-.04.37.06s.1.27,0,.38l-.77.96,1.23-.71c.13-.07.29-.03.38.09.09.12.07.29-.03.39l-.13.12.36-.21c.13-.07.29-.04.38.08s.08.28-.02.39l-1.56,1.55,2.39-1.38c.13-.08.3-.04.39.09s.07.3-.05.39l-2.22,1.9,3.34-1.93c.14-.08.31-.04.4.09s.06.31-.07.4l-1.47,1.1,2.45-1.41c.14-.08.31-.03.39.1.08.13.05.31-.08.4l-5.07,3.58c-.01.09-.07.17-.14.21l-.86.5s-.1.04-.15.04h0Z"/>
      <path id="Path-9" data-name="Path" class="cls-5" d="m6.01,18.03c-.13,0-.24-.08-.28-.2s0-.25.1-.33l.88-.67-.28.16c-.14.08-.31.03-.4-.1-.08-.14-.04-.31.09-.4l7.29-4.78-6.86,3.96c-.14.08-.31.03-.4-.1s-.05-.31.09-.4l6.08-4.06-6.55,3.78c-.13.07-.29.03-.38-.09s-.07-.28.03-.39l.38-.34-.55.32c-.13.08-.3.05-.39-.07-.09-.12-.08-.29.04-.4l.32-.3-.48.28c-.11.07-.26.05-.35-.04s-.12-.23-.06-.35l.61-1.15c-.12-.02-.22-.11-.25-.24s.03-.25.14-.31l.64-.37c.11-.07.26-.05.35.04s.12.23.06.35l-.55,1.04,1.71-.98c.13-.07.29-.04.38.08s.08.29-.03.39l-.32.3.89-.51c.13-.07.29-.03.38.09s.07.28-.03.39l-.38.34,12.03-6.94c.14-.08.31-.03.4.1.08.13.05.31-.08.4l-6.08,4.06,7.9-4.56c.14-.08.31-.03.39.1.08.13.05.31-.08.4l-11.47,7.52c.08.13.05.3-.07.39l-1.12.84c.11,0,.21.06.26.15.08.14.03.32-.11.4l-3.75,2.16s-.1.04-.15.04h0Z"/>
      <path id="Path-10" data-name="Path" class="cls-5" d="m10.12,10.84c-.12,0-.24-.08-.28-.19s0-.25.09-.33l2.52-2.12-2.47,1.42c-.14.08-.31.04-.39-.09-.09-.13-.06-.3.06-.4l.36-.27-.22.13c-.13.07-.28.04-.38-.07-.09-.11-.09-.27,0-.38l.97-1.1-.83.48c-.09.06-.21.06-.3,0s-.15-.15-.15-.26.06-.21.16-.26l2.4-1.38c.13-.07.28-.04.38.07s.09.27,0,.38l-.97,1.1,2.69-1.55c.14-.08.31-.04.39.09.09.13.06.3-.06.4l-.36.27,1.33-.77c.13-.08.3-.04.39.09s.07.3-.05.4l-2.52,2.12,4.51-2.61c.09-.06.21-.06.3,0s.15.15.15.26-.06.21-.16.26l-7.41,4.28s-.1.04-.15.04h0Z"/>
    </g>
    <path id="Path-11" data-name="Path" class="cls-5" d="m13.69,8.54c-.13,0-.24-.08-.28-.21-.04-.12,0-.26.11-.33l3.7-2.67-4.98,2.88c-.14.08-.31.03-.4-.1s-.04-.31.09-.4l.22-.14-.14.08c-.14.08-.31.04-.4-.1s-.05-.31.08-.4l3.23-2.24-3.08,1.78c-.14.08-.31.04-.4-.1s-.05-.31.08-.4l2.59-1.81-2.3,1.33c-.14.08-.31.03-.4-.1-.08-.13-.05-.31.08-.4l.79-.54-.38.22c-.14.08-.31.03-.39-.1s-.05-.31.07-.4l1.1-.78-.49.28c-.13.07-.3.04-.38-.08s-.07-.29.04-.39l1.5-1.38c-.13,0-.25-.09-.29-.22-.03-.13.02-.27.14-.33l2.05-1.18c.13-.07.3-.04.38.08s.07.29-.04.39l-1.36,1.25L17.67.04c.14-.08.31-.04.4.1.09.13.05.31-.08.4l-1.09.78,2.03-1.17c.14-.08.31-.03.4.1s.05.31-.08.4l-.8.54,1.38-.8c.14-.08.31-.04.4.1s.05.31-.08.4l-2.59,1.81,3.21-1.86c.14-.08.31-.04.4.1s.05.31-.08.4l-3.23,2.24,3.72-2.15c.14-.08.32-.04.4.1.08.14.04.32-.09.4l-.21.14.36-.2c.14-.08.31-.03.39.1.08.13.05.31-.07.4l-3.7,2.67,3.98-2.3c.14-.09.32-.05.41.09s.05.32-.09.41l-2.17,1.53,2.19-1.26c.13-.08.3-.04.39.09s.06.3-.06.4l-2.53,2.02,2.46-1.42c.14-.08.31-.04.4.09s.05.31-.07.4l-.2.14c.13-.05.28,0,.35.13s.05.28-.06.37l-.9.8.51-.3c.12-.07.27-.05.37.06.09.1.11.25.03.37l-.51.75c.13,0,.24.1.27.23.03.13-.03.26-.14.33l-.91.52c-.12.07-.27.05-.37-.06-.09-.1-.11-.25-.03-.37l.45-.66-1.88,1.08c-.13.07-.29.03-.38-.09s-.07-.28.03-.39l.9-.8-2.22,1.28c-.14.08-.31.04-.4-.09s-.05-.31.07-.4l.16-.12-1.06.61c-.13.08-.31.04-.39-.09s-.06-.3.06-.4l2.53-2.02-4.35,2.51c-.14.08-.31.04-.4-.1s-.05-.31.08-.4l2.17-1.53-3.52,2.03s-.1.04-.15.04h0Z"/>
    <path id="Path-12" data-name="Path" class="cls-4" d="m17.05,14.7c-.13,0-.24-.08-.28-.2-.04-.12,0-.25.09-.33l2.06-1.69-3.07,1.78c-.14.08-.31.04-.39-.1s-.05-.31.07-.4l2.58-1.88-3.11,1.8c-.14.08-.31.04-.39-.09-.09-.13-.06-.3.07-.4l3.65-2.73-4.07,2.35c-.14.08-.31.04-.4-.1s-.05-.31.08-.4l2.56-1.83-2.63,1.52c-.14.08-.31.03-.39-.1s-.05-.31.08-.4l2.67-1.89-2.63,1.52c-.14.08-.31.04-.39-.09s-.06-.31.07-.4l3.78-2.8-4.1,2.36c-.14.08-.31.04-.4-.09s-.05-.31.07-.4l3.52-2.59-3.67,2.12c-.14.08-.31.04-.4-.09-.09-.13-.06-.31.07-.4l2.92-2.2-1.48.86c-.13.07-.3.04-.39-.09s-.07-.3.05-.4l1.29-1.08-.94.54c-.13.07-.28.04-.38-.07s-.09-.27,0-.38l.8-.91c-.12,0-.23-.05-.28-.15-.08-.14-.03-.32.11-.4l1.37-.79c.13-.07.29-.04.38.07s.09.27,0,.38l-.74.85,2.37-1.37c.13-.07.3-.04.39.09.09.13.07.3-.05.4l-1.29,1.07,2.7-1.56c.14-.08.31-.04.39.09s.06.31-.07.4l-2.92,2.2,4.04-2.33c.14-.08.31-.04.4.09.09.13.05.31-.07.4l-3.51,2.59,3.97-2.29c.14-.08.31-.04.39.09.09.13.06.31-.07.4l-3.77,2.81,3.79-2.19c.14-.08.31-.03.39.1.08.13.05.31-.08.4l-2.67,1.89,2.38-1.37c.14-.08.31-.04.4.1s.05.31-.08.4l-2.56,1.82,2.99-1.73c.14-.08.31-.04.39.09.09.13.06.3-.07.4l-3.65,2.73,3.69-2.13c.14-.08.31-.04.39.1.09.13.05.31-.07.4l-2.58,1.88,1.33-.77c.13-.08.31-.04.39.09s.06.3-.06.4l-2.06,1.7,1.18-.68c.13-.08.3-.04.39.08.09.12.07.3-.05.4l-1.01.89s.09.07.12.11c.08.14.03.32-.11.4l-1.77,1.02c-.13.08-.3.04-.39-.08s-.07-.29.04-.4l.49-.43-1.72.99s-.1.04-.15.04h0Z"/>
    <path id="Shape" class="cls-3" d="m30.81,18.14c-1.03-.42-2.12-1.41-1.55-2.87.37-.94,1.89-1.15,1.87-2.33-.03-2.54-2.65-.83-3.68-.9-1.14-.08-1.86-1.39-1.79-2.45.03-.53.54-1.15.48-1.67-.12-1.08-1.3-1.36-2.2-1.81.07-1.25-.25-2.5-.9-3.57C21.72.51,19.49-.06,17.21.04c-1.94-.01-3.78.88-4.96,2.42-.76,1.11-1.14,2.44-1.08,3.78-.63.28-1.73.63-2,1.16-.52,1,.46,1.76.41,2.77-.16,3.11-2.55.96-4.09,1.33-.63.12-1.14.59-1.3,1.22-.34,1.08.2,1.14.86,1.93.69.82,1.06.93.75,2.2-.36,1.47-.4.99-1.44,1.37-.44.16-1.45.16-1.8.61-1.26,1.62.41,2.23,1.51,2.63,1.84.67,2.33,2.19,1,3.73-.67.78-1.21.89-.87,1.94.75,2.3,2.48.09,3.84.41.79.18,1.51,1.7,1.5,2.31,0,.56-.47,1.11-.48,1.66-.1.68.34,1.32,1,1.48,1.8.72,1.74-.98,3.11-1.59,2.64-1.18,1.98,2.75,3.45,3.45.93.39,2.01.06,2.55-.79.67-1.07.17-3.58,2.57-2.75.72.25,1.05,1.5,1.77,1.78,1.01.38,2.51-.37,2.69-1.44.25-1.55-1.52-1.93.03-3.45,1.09-1.06,1.54-.05,2.86,0,.87.03,2.07-.58,2.07-1.64s-1.14-1.27-1.61-2.07c-.41-.7-.37-2.26.32-2.8.41-.33,1.38-.26,1.86-.46,1.12-.46,1.74-1.69.64-2.69-.29-.27-1.19-.25-1.54-.39h0ZM12.38,3.69c.86-2.32,3.16-3.3,5.53-3.18,2.71.14,5.52,2.85,5.33,5.62-.17.09-.27.2-.12.28l.08.04c-.06.38-.17.74-.34,1.08-.22-.16-.46-.28-.73-.34,0-1.32-.02-2.67-1.41-3.33-1.08-.52-2.64-.27-3.78-.27-2.66,0-3.9,1.07-3.95,3.7-.21.07-.41.18-.59.31-.2-.44-.31-.92-.35-1.4.03-.04.03-.07,0-.1-.05-.83.06-1.65.34-2.43h0Zm8.99,6.94c-.24.45-.24,1.01-.46,1.48-.38.89-1.13,1.58-2.05,1.9-.15-.01-.3.02-.43.11-.47.09-.95.1-1.42.01-1.81-.34-2.41-1.42-3.07-2.96-.31-.71-2.23-3.25-.61-3.57.16-.03.49-.11.49-.33,0-1.45-.05-2.83,1.83-3.22.71-.07,1.42-.07,2.12,0,1.05,0,2.24-.12,2.99.83.61.77.49,1.72.49,2.62,0,.07.07.1.18.1.61.13.89.36.98.66-.04.07-.03.12.03.15.06.7-.79,1.65-1.1,2.21h0Zm-6.71,3.2c.38.29.82.51,1.27.66,0,.54-.01,1.08,0,1.62-2.31.17-4.48,1.3-5.15,3.72-.4,1.46-.29,3.16-.22,4.76-2.55-4.24-1.28-9.74,2.88-12.42.24.65.66,1.23,1.21,1.66h0Zm3.65.79c.05.84.2,2.62-.77,2.52-.93-.1-.81-1.59-.75-2.46.2.03.39.04.59.05.31,0,.63-.04.93-.1h0Zm-2.35,1.86c.1.77.78,1.34,1.55,1.3.73,0,1.36-.48,1.58-1.18,2.8.16,4.45,2.06,4.54,4.89.05,1.47,0,2.94,0,4.41h0c-1.94,2.15-4.89,3.08-7.71,2.43-1.72-.37-3.28-1.26-4.47-2.56,0,0,0-.01,0-.02,0-3.7-.82-9.12,4.5-9.27h0Zm8.47,3.66c-.46-2.72-2.74-4.03-5.26-4.16.02-.53,0-1.07,0-1.61,1.02-.38,1.88-1.11,2.42-2.07,2.71,1.59,4.39,4.49,4.42,7.64,0,1.72-.53,3.4-1.49,4.82.12-1.54.09-3.1-.1-4.63h0Zm7.5.08c-.39,1.31-2.43.64-3.26,1.83-.53.79-.57,1.81-.09,2.63.43.71,2.89,2.34.92,3.06-1.05.38-2.05-.97-3.32-.34-3.12,1.55-.12,2.78-1.09,4.68-.81,1.6-2.28-1.29-3.56-1.37-2.2-.15-2.51,1.07-3.04,2.63-.35,1.02-.98,1.58-1.72.49-.47-.69-.15-1.79-.77-2.4-.94-.81-2.28-.94-3.35-.32-.72.46-1.12,1.7-1.93,1.5-1.8-.43-.16-2.4-.24-3.31-.13-1.54-1.62-2.25-2.93-2.03-.97.16-2.12,1.07-2.54-.37-.43-1.48,1.25-1.55,1.72-2.61.25-.92.05-1.91-.53-2.66-.6-.64-1.72-.32-2.41-.77-.54-.23-.81-.84-.63-1.4.23-.81.51-.62,1.26-.87.49-.16,1.18-.14,1.59-.5.77-.76,1.03-1.89.68-2.91-.2-.4-.8-.67-1.07-1.03-.36-.47-1.2-1.79-.21-2.26.94-.45,2.29,1.03,3.57.33,1.37-.75,1.47-1.32,1.38-2.44-.04-.55-.64-1.32-.53-1.84.14-.64.75-.98,1.36-1.26.07.63.31,1.23.67,1.75.02.02.04.04.07.05.01.69.25,1.36.67,1.91.29.47.52.97.71,1.48-2.43,1.31-4.14,3.65-4.67,6.36-.53,2.71.19,5.51,1.95,7.64v.13s.07.07.17.08c1.86,2.08,4.62,3.12,7.39,2.79,2.2-.16,4.26-1.11,5.82-2.68.24,0,.52-.13.52-.34,0-.08,0-.15,0-.23,3.37-4.05,3.02-10.77-2.62-13.88.29-.64.58-1.21.93-1.83.29-.4.47-.88.5-1.38,0-.1-.02-.2-.04-.3.29-.42.49-.9.58-1.4,1.01.54,1.42.91,1.1,2.39-.16.76-.48,1.13-.16,1.86.44.79,1.21,1.35,2.1,1.51.73.08,1.62-.79,2.32-.65,1.72.35.56,2.03-.12,2.76-.7.75-.83.76-.75,1.78.09,1.16.43,1.52,1.29,1.94.91.45,2.78.19,2.31,1.81h0Z"/>
    <path id="Path-13" data-name="Path" class="cls-3" d="m14.2,24.16c.27.27,1.08-.08.79-.37l-1.05-1.05,1.01-1.01c.06-.06.09-.15.07-.23-.02-.08-.09-.15-.17-.17-.22-.06-.45,0-.6.16l-1.18,1.18c-.09.08-.1.21-.04.31l1.18,1.18Z"/>
    <path id="Path-14" data-name="Path" class="cls-3" d="m20.34,24.18c.21,0,.42-.08.57-.22l1.18-1.18s.03-.04.04-.07,0-.05-.03-.07l-1.18-1.18c-.18-.18-.98.13-.8.31l1.12,1.12-1.11,1.11c-.15.15.13.19.22.19h0Z"/>
    <path id="Path-15" data-name="Path" class="cls-3" d="m17.39,24.52c.39-1.18.79-2.37,1.18-3.55.1-.31-.76-.2-.86.1-.39,1.18-.79,2.37-1.18,3.55-.1.31.76.2.86-.1Z"/>
  </g>
</svg>