<?xml version="1.0" encoding="UTF-8"?>
<svg id="Layer_1" data-name="Layer 1" xmlns="http://www.w3.org/2000/svg" viewBox="0 0 35 35">
  <defs>
    <style>
      .cls-1 {
        fill: #f47721;
      }

      .cls-1, .cls-2, .cls-3 {
        stroke-width: 0px;
      }

      .cls-3 {
        fill: #c1dbf0;
      }
    </style>
  </defs>
  <path class="cls-3" d="m1.27,5.58c-.16,0-.29-.13-.29-.29,0-.09.04-.18.12-.24l1.81-1.3-2.1,1.21c-.14.08-.32.04-.4-.1-.07-.13-.04-.29.07-.38l1.98-1.57-1.66.96c-.14.08-.32.03-.4-.11-.07-.13-.04-.28.07-.37l.42-.33-.1.06c-.14.08-.32.03-.4-.11-.06-.1-.05-.22.01-.31l.79-1.14-.07.04c-.14.09-.32.05-.4-.09s-.05-.32.09-.4c0,0,.01,0,.02-.01l1.19-.69c.14-.08.32-.03.4.11.06.1.05.22-.01.31l-.79,1.14L4.36.39c.14-.08.32-.03.4.11.07.13.04.28-.07.37l-.42.33,1.4-.81c.14-.08.32-.03.4.11.07.12.04.28-.07.37l-1.99,1.57L7.55.39c.14-.08.32-.03.4.11.07.13.04.29-.08.38l-1.81,1.3,3.11-1.79c.14-.08.32-.03.4.12.07.13.03.29-.08.38l-1.21.85,2.32-1.34c.14-.08.32-.03.4.11.07.13.04.29-.07.38l-2.53,1.95L12.59.39c.14-.08.32-.02.4.12.07.13.03.29-.09.38l-.33.23,1.25-.72c.14-.08.32-.03.4.11.07.13.04.29-.08.38l-1.92,1.4,3.27-1.89c.14-.08.32-.03.4.11.07.13.04.29-.08.38l-2.41,1.83L17.4.39c.14-.08.32-.03.4.11.08.13.04.3-.08.38l-1.7,1.22,2.96-1.71c.14-.08.32-.03.4.11.07.13.04.28-.07.37l-2.59,2L21.02.39c.14-.08.32-.03.4.11.07.12.04.28-.07.37l-2.77,2.21L23.24.39c.14-.08.32-.03.4.1.08.13.04.3-.08.38l-1.95,1.42,3.31-1.91c.14-.08.32-.03.4.11.07.13.04.3-.09.38l-.73.5,1.72-.99c.14-.08.32-.03.4.11.07.13.04.29-.08.37l-2.31,1.73,3.84-2.21c.14-.08.32-.03.4.11.07.12.04.28-.07.37l-2.83,2.28L30.35.39c.14-.08.32-.03.4.11.07.13.04.28-.08.37l-2.23,1.66,3.72-2.14c.14-.08.32-.03.4.12.07.13.03.29-.08.38l-.8.56,1.57-.91c.13-.08.3-.04.39.09.09.13.06.3-.06.39l-2.55,2.02,3.05-1.76c.14-.08.32-.03.4.11.07.13.04.29-.08.38l-1.22.92,1.11-.64c.14-.08.32-.03.4.11.07.12.04.27-.06.36l-1.16,1.01.83-.48c.14-.08.32-.03.4.1.06.11.05.25-.03.34l-.55.62.2-.12c.14-.08.32-.03.4.11.04.07.05.15.03.22l-.14.52c.14.07.2.25.13.39-.03.05-.07.09-.11.12l-.29.17c-.14.08-.32.03-.4-.11-.04-.07-.05-.15-.03-.22l.09-.34-1.15.67c-.14.08-.32.03-.4-.11-.06-.11-.05-.24.03-.34l.55-.62-1.85,1.07c-.14.08-.32.03-.4-.11-.07-.12-.04-.27.06-.37l1.16-1.01-2.56,1.48c-.14.08-.32.03-.4-.11-.07-.13-.04-.29.08-.38l1.22-.92-2.44,1.41c-.14.08-.32.03-.4-.11-.07-.12-.04-.28.07-.37l2.55-2.02-4.34,2.51c-.14.08-.32.03-.4-.11-.07-.13-.04-.3.09-.38l.8-.55-1.81,1.05c-.14.08-.32.03-.4-.11-.07-.13-.04-.28.08-.37l2.23-1.67-3.72,2.15c-.14.08-.32.03-.4-.11-.07-.12-.04-.28.07-.37l2.82-2.28-4.78,2.76c-.14.08-.32.03-.4-.11-.07-.13-.04-.29.08-.37l2.31-1.73-3.85,2.22c-.14.08-.31.04-.39-.1-.08-.13-.05-.31.08-.4l.73-.5-1.72.99c-.14.08-.32.03-.4-.1-.08-.13-.04-.3.08-.38l1.95-1.42-3.31,1.91c-.14.08-.32.03-.4-.11-.07-.12-.04-.28.07-.37l2.77-2.21-4.66,2.69c-.14.08-.32.03-.4-.11-.07-.13-.04-.28.07-.37l2.59-2.01-4.31,2.49c-.14.08-.32.03-.4-.11-.08-.13-.04-.3.08-.38l1.7-1.22-2.96,1.71c-.14.08-.32.03-.4-.11-.07-.13-.04-.29.08-.38l2.41-1.83-4,2.31c-.14.08-.32.03-.4-.11-.07-.13-.04-.29.08-.38l1.92-1.4-3.28,1.89c-.14.08-.32.03-.4-.11-.07-.13-.04-.3.09-.38l.33-.23-1.25.72c-.14.08-.32.03-.4-.11-.07-.13-.04-.29.07-.38l2.53-1.95-4.21,2.43c-.14.08-.32.03-.4-.11-.07-.13-.04-.29.08-.38l1.21-.85-2.32,1.34s-.09.04-.15.04h0Z"/>
  <path class="cls-3" d="m10.65,21.84c-.16,0-.29-.13-.29-.29,0-.07.03-.14.08-.2l.61-.67-1.89,1.09c-.14.08-.32.03-.4-.11-.07-.12-.04-.27.06-.36l.97-.83-1.8,1.04c-.14.08-.32.03-.4-.11-.07-.13-.04-.29.08-.37l.29-.22-.72.41c-.14.08-.32.03-.4-.1-.08-.13-.04-.3.08-.38l.2-.14-.52.3c-.14.08-.32.03-.4-.1-.07-.12-.04-.28.07-.37l1.99-1.67-2.59,1.49c-.14.08-.32.03-.4-.11-.07-.13-.04-.29.08-.37l.2-.15-.35.2c-.14.08-.32.03-.4-.11-.07-.12-.04-.27.06-.36l1.16-.99-.41.24c-.14.08-.32.03-.4-.11-.06-.1-.05-.21.01-.31l.5-.74c-.05-.03-.09-.07-.12-.12-.08-.14-.03-.32.11-.4l.64-.37c.14-.08.32-.03.4.11.05.1.05.21,0,.31l-.33.49,2.06-1.19c.13-.08.3-.04.38.08.09.12.07.29-.05.39l-1.16.99,1.82-1.05c.14-.08.32-.03.4.11.07.13.04.29-.08.37l-.2.15,1.25-.72c.14-.08.32-.03.4.11.07.12.04.28-.06.37l-1.98,1.67,2.43-1.4c.14-.08.32-.03.4.1.08.13.04.3-.08.38l-.2.15.34-.2c.14-.08.32-.03.4.11.07.13.04.29-.08.38l-.29.22.14-.08c.14-.08.32-.03.4.11.07.12.04.28-.06.37l-.97.83.77-.44c.14-.08.32-.03.4.11.06.11.05.24-.04.34l-.61.67.38-.22c.14-.09.32-.05.4.09.09.14.05.32-.09.4,0,0-.01,0-.02.01l-1.98,1.14s-.09.04-.14.04h0Z"/>
  <path class="cls-3" d="m21.36,21.88c-.16,0-.29-.13-.29-.29,0-.05.01-.1.04-.14l.33-.59-1.29.74c-.14.08-.32.03-.4-.11-.06-.12-.04-.26.05-.35l.2-.18c-.15.06-.32,0-.38-.16-.04-.1-.02-.22.05-.31l1.09-1.22-.72.42c-.14.08-.32.03-.4-.11-.06-.11-.04-.26.05-.35l.68-.67-.33.19c-.14.08-.32.03-.4-.11-.07-.12-.04-.27.05-.36l.38-.35-.04.02c-.14.08-.32.04-.4-.1-.07-.12-.05-.27.05-.37l.23-.21c-.09,0-.17-.02-.23-.09-.09-.09-.11-.24-.04-.35l.21-.36c-.16-.04-.25-.19-.22-.35.02-.08.07-.15.14-.19l.68-.39c.14-.08.32-.03.4.11.05.09.05.2,0,.29l-.13.22.99-.57c.14-.08.32-.04.4.1.07.12.05.27-.05.37l-.14.14.13-.08c.14-.08.32-.03.4.11.07.12.04.27-.05.36l-.38.35.04-.02c.14-.08.32-.03.4.11.06.11.04.26-.05.35l-.68.67.33-.19c.14-.08.32-.03.4.11.06.11.05.25-.03.34l-1.09,1.22.72-.42c.14-.08.32-.03.4.11.06.12.04.26-.05.35l-.25.23c.16-.03.31.08.34.23.01.07,0,.13-.03.19l-.34.61c.16-.04.31.06.35.21.03.13-.02.26-.14.32l-.82.47s-.1.04-.15.04Z"/>
  <path class="cls-3" d="m22.7,21.87c-.16,0-.29-.13-.29-.29,0-.06.02-.13.06-.18l.91-1.17-1.01.58c-.14.08-.32.04-.4-.1-.07-.12-.05-.27.05-.36l.61-.59-.26.15c-.14.08-.32.03-.4-.11-.06-.11-.05-.25.04-.34l.98-1.06-.62.36c-.14.08-.32.03-.4-.11-.06-.11-.05-.24.03-.34l1.17-1.36-.81.47c-.14.08-.32.03-.4-.11-.06-.11-.05-.24.03-.34l1.18-1.37-.81.47c-.14.08-.32.03-.4-.11-.06-.11-.05-.24.03-.34l1.14-1.31-.78.45c-.14.08-.32.03-.4-.11-.06-.11-.05-.25.04-.35l.83-.86-.48.28c-.14.08-.32.02-.4-.12-.06-.12-.04-.26.05-.35l.28-.25c-.11.03-.24,0-.31-.1-.09-.11-.08-.27.01-.38l.93-1.01-.58.33c-.14.08-.32.03-.4-.11-.05-.08-.05-.18-.02-.26l.37-.87c-.13.03-.26-.02-.32-.14-.08-.14-.03-.32.11-.4l.68-.39c.14-.08.32-.03.4.11.05.08.05.18.02.26l-.36.85,1.49-.86c.14-.08.32-.03.4.11.06.11.05.25-.04.34l-.93,1.01.62-.36c.14-.08.32-.02.4.12.06.12.04.26-.05.35l-.28.25c.11-.03.24,0,.31.1.09.11.08.28-.02.38l-.83.86.48-.28c.14-.08.32-.03.4.11.06.11.05.24-.03.34l-1.14,1.31.78-.45c.14-.08.32-.03.4.11.06.11.05.24-.03.33l-1.18,1.37.81-.47c.14-.08.32-.03.4.11.06.11.05.24-.03.34l-1.17,1.36.8-.47c.14-.08.32-.03.4.11.06.11.05.25-.04.34l-.98,1.06.62-.36c.14-.08.32-.04.4.1.07.12.05.27-.05.36l-.61.59.26-.15c.14-.08.32-.03.4.11.06.1.05.23-.02.32l-.91,1.17.53-.31c.14-.07.32-.02.39.12.07.13.03.3-.1.38l-1.82,1.05s-.1.04-.15.03h0Z"/>
  <path class="cls-1" d="m26.14,21.88c-.16,0-.29-.13-.29-.29,0-.05.01-.1.04-.14l.18-.31-1.09.63c-.14.08-.32.03-.4-.11-.06-.11-.05-.25.04-.35l.63-.66-.55.32c-.14.08-.32.03-.4-.11-.06-.11-.05-.25.03-.34l1.09-1.21-.72.42c-.14.08-.32.03-.4-.11-.06-.11-.05-.24.03-.33l1.13-1.28-.76.44c-.14.08-.32.03-.4-.11-.06-.11-.05-.25.04-.35l.89-.93-.53.31c-.14.08-.32.03-.4-.11-.06-.11-.05-.25.04-.34l.92-.98-.57.33c-.14.08-.32.03-.4-.11-.07-.12-.04-.27.05-.36l.37-.34h-.03c-.14.09-.32.04-.4-.1-.06-.11-.04-.25.05-.35l.57-.57-.22.12c-.14.08-.32.03-.4-.1-.05-.09-.05-.19,0-.28l.3-.61c-.11,0-.21-.05-.27-.15-.08-.14-.03-.32.11-.4l.68-.39c.11-.07.25-.05.35.04.09.09.12.23.06.34l-.28.56,1.31-.76c.14-.08.32-.03.4.11.06.11.04.25-.05.35l-.57.57.37-.21c.14-.08.32-.03.4.11.07.12.04.27-.05.36l-.37.34h.03c.14-.09.32-.05.4.09.06.11.05.25-.04.34l-.92.98.57-.33c.14-.08.32-.03.4.11.06.11.05.25-.04.35l-.89.93.53-.31c.14-.08.32-.03.4.11.06.11.05.24-.03.34l-1.13,1.28.76-.44c.14-.08.32-.03.4.11.06.11.05.25-.03.34l-1.09,1.21.72-.42c.14-.08.32-.03.4.11.06.11.05.25-.04.34l-.63.66.27-.16c.14-.08.32-.03.4.11.05.09.05.2,0,.29l-.24.42c.16.02.27.17.24.33-.01.09-.07.16-.14.21l-.68.39s-.09.04-.15.04Z"/>
  <path class="cls-1" d="m27.44,21.88c-.16,0-.29-.13-.29-.29,0-.07.03-.14.08-.2l.48-.53-.68.39c-.14.08-.32.04-.4-.1-.07-.12-.05-.27.05-.36l.42-.4-.08.05c-.14.08-.32.03-.4-.11-.06-.11-.05-.25.04-.34l.91-.95-.55.32c-.14.08-.32.03-.4-.11-.06-.11-.05-.25.04-.34l1.01-1.11-.65.38c-.14.08-.32.02-.39-.12-.06-.11-.04-.26.05-.35l.26-.23c-.16.03-.31-.06-.35-.22-.02-.09,0-.18.06-.25l1.15-1.32-.78.45c-.14.08-.32.03-.4-.11-.06-.11-.05-.24.03-.34l1.17-1.35-.8.46c-.14.08-.32.03-.4-.11-.06-.12-.04-.26.05-.35l.51-.48-.16.09c-.14.08-.32.03-.4-.11-.07-.12-.05-.26.05-.35l.55-.53-.2.12c-.14.08-.32.03-.4-.11-.07-.12-.05-.26.05-.35l.63-.62-.28.16c-.14.08-.32.03-.4-.11-.06-.11-.05-.25.04-.34l.94-1-.58.34c-.14.08-.32.03-.4-.11-.07-.12-.04-.27.06-.36l.24-.21c-.16.03-.31-.08-.33-.24-.01-.08.01-.17.06-.23l.93-1.13-.56.33c-.14.08-.32.03-.4-.11-.05-.09-.05-.2,0-.29l.22-.37c-.16-.03-.26-.19-.22-.35.02-.08.07-.15.14-.19l.68-.39c.14-.08.32-.03.4.11.05.09.05.2,0,.29l-.14.24,1.01-.58c.14-.08.32-.03.4.11.06.11.05.24-.03.33l-.93,1.13.89-.51c.14-.08.32-.03.4.11.07.12.04.27-.06.36l-.24.21c.1-.01.21.03.27.11.09.11.08.28-.02.38l-.94,1,.58-.34c.14-.08.32-.03.4.1.07.12.05.26-.05.36l-.63.62.28-.16c.14-.08.32-.03.4.11.07.12.05.26-.05.35l-.55.53.2-.12c.14-.08.32-.03.4.11.06.12.04.26-.05.35l-.51.48.16-.09c.14-.08.32-.03.4.11.06.11.05.24-.03.34l-1.17,1.35.8-.47c.14-.08.32-.03.4.11.06.11.05.24-.03.34l-1.15,1.32.78-.45c.14-.08.32-.02.39.12.06.11.04.26-.05.35l-.26.23c.16-.03.31.06.35.22.02.09,0,.19-.07.26l-1.01,1.11.66-.38c.14-.08.32-.03.4.11.06.11.05.25-.04.35l-.91.95.55-.32c.14-.08.32-.04.4.1.07.12.05.27-.05.36l-.42.39.08-.04c.14-.08.32-.03.4.11.06.11.05.25-.04.34l-.48.53.12-.07c.14-.08.32-.03.4.11.08.14.03.31-.11.4l-1.74,1s-.09.04-.15.04h0Z"/>
  <path class="cls-3" d="m30.57,21.88c-.16,0-.29-.13-.29-.29,0-.06.02-.12.06-.17l.15-.21-.89.52c-.14.08-.32.03-.4-.11-.06-.11-.05-.24.03-.33l.98-1.16-.84.48c-.14.08-.32.03-.4-.11-.06-.11-.05-.24.03-.34l1.16-1.34-.8.46c-.14.08-.32.03-.4-.11-.06-.11-.05-.25.03-.34l1.1-1.24-.74.42c-.14.08-.32.03-.4-.11-.06-.11-.05-.25.04-.34l1.03-1.13-.67.39c-.14.08-.32.03-.4-.11-.06-.11-.05-.24.03-.33l1.15-1.33-.79.46c-.14.08-.32.03-.4-.11-.07-.12-.04-.27.06-.36l.22-.19c-.1,0-.19-.03-.25-.11-.09-.11-.09-.27,0-.38l1.12-1.27-.76.44c-.14.08-.32.03-.4-.11-.06-.11-.05-.25.04-.35l.58-.6-.22.13c-.14.08-.32.03-.4-.11-.05-.09-.05-.2,0-.29l.23-.41c-.16-.03-.26-.18-.24-.34.01-.08.07-.16.14-.2l.68-.39c.11-.07.26-.05.35.05.09.09.11.24.05.35l-.17.29,1.06-.61c.14-.08.32-.03.4.11.06.11.05.25-.04.35l-.58.6.51-.3c.14-.08.32-.03.4.11.06.11.05.25-.03.34l-1.12,1.27.76-.44c.14-.08.32-.03.4.11.07.12.04.27-.06.36l-.22.19c.16-.01.3.1.32.27,0,.08-.02.16-.07.22l-1.15,1.33.79-.45c.14-.08.32-.03.4.11.06.11.05.25-.04.34l-1.03,1.13.67-.39c.14-.08.32-.03.4.11.06.11.05.24-.03.34l-1.1,1.24.74-.42c.14-.08.32-.03.4.11.06.11.05.24-.03.34l-1.16,1.34.8-.46c.14-.08.32-.03.4.11.06.11.05.24-.03.33l-.98,1.16.61-.36c.14-.08.32-.03.4.11.06.1.05.22-.02.32l-.22.31c.16,0,.28.15.27.31,0,.1-.06.19-.15.23l-.95.55s-.1.04-.15.04h0Z"/>
  <path class="cls-1" d="m9.56,12.59c-.16,0-.29-.13-.29-.29,0-.1.06-.2.15-.25l.46-.27c.14-.08.32-.03.4.1.08.14.03.32-.1.4,0,0,0,0,0,0l-.46.27s-.09.04-.15.04h0Z"/>
  <path class="cls-1" d="m4.93,19.73c-.16,0-.29-.13-.29-.29,0-.08.03-.16.09-.21l.64-.6-.81.47c-.14.08-.32.03-.4-.11-.07-.12-.04-.27.06-.36l1.25-1.09-1.41.82c-.14.08-.32.02-.39-.12-.06-.12-.04-.26.06-.35l1.42-1.23-1.49.86c-.14.08-.32.03-.4-.11-.07-.13-.04-.29.08-.38l.47-.36-.37.21c-.14.08-.32.03-.4-.11-.08-.13-.04-.3.08-.38l1.55-1.1-1.42.82c-.14.08-.32.03-.4-.11-.07-.13-.04-.29.08-.38l3.52-2.65-3.31,1.91c-.14.08-.32.03-.4-.11-.07-.13-.04-.3.09-.38l.29-.19c-.15.05-.32-.03-.37-.19-.04-.12,0-.25.11-.33l2.16-1.53-1.66.96c-.14.08-.32.03-.4-.11-.07-.13-.04-.29.08-.38l1.8-1.28-1.07.62c-.14.08-.32.03-.4-.11-.07-.12-.04-.27.06-.36l2.06-1.85h-.02c-.14.1-.32.06-.4-.08s-.05-.32.09-.4c0,0,.01,0,.02-.01l2.46-1.42c.14-.08.32-.02.39.12.06.11.04.26-.05.35l-2.06,1.85,3.98-2.3c.14-.08.32-.02.4.12.07.13.03.28-.08.37l-1.8,1.28,1.68-.97c.14-.08.32-.03.4.11.07.13.04.29-.08.38l-2.16,1.53,2.05-1.19c.14-.08.32-.03.4.11.07.13.04.3-.09.38l-.28.18c.15-.05.32.03.37.18.04.12,0,.25-.1.33l-3.52,2.65,2.83-1.63c.14-.08.32-.02.4.12.07.13.03.29-.08.37l-2.46,1.74c.06.02.11.06.15.12.09.13.06.3-.07.39l-.47.36.11-.06c.14-.08.32-.03.4.11.07.12.04.27-.06.36l-1.42,1.23,1.38-.8c.14-.08.32-.03.4.11.07.12.04.27-.06.36l-1.25,1.09.47-.27c.14-.08.32-.03.4.11.07.12.04.27-.05.36l-1.98,1.83c.02.12-.04.23-.14.29l-.49.28s-.1.04-.15.04h0Z"/>
  <path class="cls-3" d="m13.43,15.26c-.16,0-.29-.13-.29-.29,0-.09.04-.17.11-.23l.4-.33-.91.52c-.14.08-.32.03-.4-.11-.07-.12-.04-.27.06-.36l1.08-.9-1.11.64c-.14.08-.32.03-.4-.11-.07-.12-.04-.28.07-.37l.94-.77-.95.55c-.14.08-.32.03-.4-.11-.07-.12-.04-.28.07-.37l.68-.55-.87.5c-.14.08-.32.03-.4-.11-.07-.12-.04-.28.07-.37l.83-.67-1.31.76c-.14.08-.32.02-.39-.12-.06-.11-.04-.26.05-.35l1.58-1.43-1.81,1.04c-.14.08-.32.03-.4-.11-.07-.12-.04-.27.05-.36l1.35-1.25-1.01.58c-.13.08-.29.04-.38-.08-.09-.12-.08-.28.03-.38l.73-.73-.38.22c-.14.08-.32.03-.4-.11-.06-.1-.05-.23.02-.33l.36-.46c-.1.05-.22.03-.31-.04-.09-.08-.13-.2-.09-.32l.12-.35c-.13-.09-.17-.27-.08-.4.02-.04.06-.07.1-.09l.28-.16c.1-.06.23-.05.33.03.09.08.13.2.09.32l-.04.12.61-.35c.14-.08.32-.03.4.11.06.1.05.23-.02.32l-.36.46,1.04-.6c.14-.08.32-.03.4.11.06.11.04.26-.05.35l-.73.73,1.33-.77c.14-.08.32-.03.4.11.07.12.04.27-.05.36l-1.35,1.25,1.94-1.12c.14-.08.32-.02.4.12.06.12.04.26-.05.35l-1.58,1.43,2.05-1.18c.14-.08.32-.03.4.11.07.12.04.28-.07.37l-.82.67.99-.57c.13-.08.3-.04.39.09.09.13.06.3-.06.39l-.68.55.77-.44c.14-.08.32-.03.4.11.07.12.04.28-.07.37l-.94.78.98-.57c.14-.08.32-.03.4.11.07.12.04.28-.07.37l-1.08.9,1.06-.61c.14-.08.32-.03.4.11.07.12.04.28-.07.37l-.4.33.25-.14c.14-.08.32-.03.4.11.05.08.05.18.01.27l-.43.91.19-.11c.14-.08.32-.03.4.11.08.14.03.31-.11.4l-1,.58c-.14.08-.32.03-.4-.11-.05-.08-.05-.18-.01-.27l.43-.91-2.53,1.46s-.09.04-.14.04h0Z"/>
  <path class="cls-1" d="m12.67,21.17c-.16,0-.29-.13-.29-.29,0-.08.03-.16.09-.21l1.86-1.75-1.98,1.14c-.14.08-.32.03-.4-.11-.07-.13-.04-.28.07-.37l.88-.67-.84.49c-.14.08-.32.03-.4-.11-.07-.13-.04-.29.08-.38l1.06-.8-1.04.6c-.14.08-.32.03-.4-.11-.07-.12-.04-.27.06-.36l2.05-1.73-2.14,1.23c-.14.08-.32.04-.4-.1-.07-.12-.05-.27.05-.36l1.25-1.2-.2.12c-.14.08-.32.03-.4-.11-.05-.09-.05-.2,0-.28l.44-.81s-.02-.03-.03-.04c-.08-.14-.03-.32.11-.4l.3-.17c.14-.08.32-.03.4.11.05.09.05.2,0,.28l-.22.41,1.39-.8c.14-.08.32-.04.4.1.07.12.05.27-.05.36l-1.25,1.2,2.9-1.67c.14-.08.32-.03.4.11.07.12.04.28-.06.37l-2.05,1.73,2.43-1.4c.14-.08.32-.03.4.11.07.13.04.29-.08.38l-1.06.8.57-.33c.14-.08.32-.03.4.11.07.13.04.28-.07.37l-.88.67.2-.11c.14-.08.32-.04.4.1.07.12.05.27-.05.37l-1.86,1.76c.15-.06.32.02.38.17.05.13,0,.28-.13.35l-2.12,1.22s-.1.04-.15.04h0Z"/>
  <g>
    <path class="cls-2" d="m34.87,13.16C34.3.16,38.45-.16,23.67.35H6.24C3.58.24-.54-.15.22,3.78v15.82c.68,3.17-1.92,14.95,2.02,15.09h28.06c3.74.46,5.12-.87,4.57-4.64,0-5.63,0-11.26,0-16.89h0ZM1.07,2.39c.06-1.81,1.7-1.5,2.95-1.5h15.62c4.23,0,8.47-.04,12.7,0,2.31.08,1.54,2.62,1.68,4.14H1.06c0-.88-.02-1.76.01-2.64Zm32.95,24.63c-.49,2.17,1.51,7.38-2.01,7.13H2.55c-1.9-.1-1.48-2.56-1.48-3.85,0-8.26.01-16.51,0-24.77h32.96v21.48Z"/>
    <path class="cls-2" d="m12.54,7.73C.69,4.13-1.12,23.47,11.29,21.78c7.18-1.08,8.23-11.79,1.25-14.05Zm3.97,6.64h-3.81c-.09-1.24-1.08-2.23-2.32-2.33v-4.09c3.36.31,5.98,3.05,6.13,6.42h0Zm-5.67,2.11c-2.03,1-3.78-2.08-2.12-3.49,2.2-1.81,4.51,2.23,2.12,3.49h0Zm-6.58-5.25c1.09-1.92,3.07-3.15,5.27-3.29v4.13c-1.96.23-3.13,2.79-1.69,4.26l-2.73,2.73c-1.92-2.16-2.26-5.3-.86-7.83h0Zm1.24,8.22l2.76-2.76c.66.47,1.51.62,2.29.41.54,1.27,1.09,2.54,1.64,3.81-2.33.8-4.91.24-6.69-1.46h0Zm7.48,1.11c-.54-1.26-1.08-2.52-1.62-3.78.73-.39,1.22-1.12,1.32-1.94h3.83c-.07,2.4-1.42,4.58-3.53,5.72h0Z"/>
    <path class="cls-2" d="m31.95,11.76c-.05-1.17-1.52-.8-2.33-.76-.12-1.5.7-4.15-1.73-3.59-2.56,0-1.07,3.63-1.44,5.27-.5-.03-.99-.01-1.49.06-.04-1.52.51-3.49-1.79-2.98-.57,0-1.3.17-1.38.84-.02,1.64,0,3.29,0,4.94-3.16-.69-2.22,2.61-2.33,4.6-.47,1.88,1.34,1.98,2.67,1.55.75.23,1.56.2,2.3-.06.74.25,1.55.26,2.29,0,.77.31,1.63.3,2.39-.02.78.3,2.65.44,2.85-.71-.01-3.04.03-6.09,0-9.14h0Zm-11.62,4.26.16,5.3c-.47-1.56-.17-3.61-.13-5.27,0,.01,0,0,.02-.03,1.91-.41,1.33,1.12,1.4,2.4-.19,1.24.74,3.53-1.28,2.9Zm2.27-.03c-.4-3.52-.01-7.26-.15-10.85-.1-.54.68-.27.98-.3.38.04.49.32.5.66.04,3.42-.03,6.84,0,10.26.14.66-1.09.43-1.34.23h0Zm2.19-.42c.04-2.57-.08-5.16.04-7.72.03-.03.06-.07.08-.1.5.05,1.29-.21,1.36.52-.04,2.58.07,5.18-.04,7.75-.04.03-.06.07-.08.12-.56.03-1.32.11-1.36-.57h0Zm2.33.04c.02-4.27,0-8.53,0-12.8-.08-.52.8-.28,1.11-.28.43.13.38.47.38.79,0,3.18,0,6.37,0,9.55-.07,1.04.15,2.28-.08,3.24-.54.02-1.26.16-1.41-.5h0Zm2.79.52c-.38-.06-.45-.34-.46-.66v-9.19c.1-.13.1-.21,0-.25v-.05c.53,0,1.45-.2,1.49.57.13,3.15-.11,6.5.02,9.57-.35.03-.7.03-1.05,0h0Z"/>
    <path class="cls-2" d="m2.82,3.22c.35-.02,1.26.12,1.13-.44-.32-.33-2.02.06-1.13.44Z"/>
    <path class="cls-2" d="m5.72,3.17c.34-.02,1.18.11,1.15-.37-.29-.23-1.96.08-1.15.37Z"/>
    <path class="cls-2" d="m9.03,3.11c.18.05,1.06-.22.63-.32-.58-.14-2.05.36-.63.32Z"/>
    <path class="cls-2" d="m28.46,3.24c1.29-.17,2.92.36,4.05-.25.41-.62-5.67-.49-4.05.25Z"/>
    <path class="cls-2" d="m29.91,24.72c6.83-.52-8.49-.42-9.86-.4-2.38.84,8.91.22,9.86.4Z"/>
    <path class="cls-2" d="m31.69,26.59c-4.01.22-8.36-.43-12.21.24,3.4.8,8.08,0,11.89.28.33.09.92-.43.32-.52Z"/>
    <path class="cls-2" d="m29.92,29.4c6.88-.57-8.51-.47-9.87-.44-2.41.92,8.91.25,9.87.44h0Z"/>
    <path class="cls-2" d="m21.48,31.27c-6.95.61,8.51.5,9.88.47,2.52-.98-8.96-.27-9.88-.47Z"/>
    <path class="cls-2" d="m15.95,24.23c-4,.23-8.38-.44-12.21.25,3.34.91,8.1.01,11.9.32.36.1.9-.47.31-.57Z"/>
    <path class="cls-2" d="m14.31,27.15c6.87-.76-8.87-.65-10.13-.6-2.12,1.26,9.09.34,10.13.6Z"/>
    <path class="cls-2" d="m3.97,29.4h11.66c.3,0,.9-.45.34-.45H5.75c-.38-.07-2.68.03-1.78.45Z"/>
    <path class="cls-2" d="m15.95,31.25c-4.01.22-8.36-.42-12.21.24,3.41.79,8.08,0,11.89.28.32.09.92-.43.32-.51h0Z"/>
  </g>
</svg>