<?xml version="1.0" encoding="UTF-8"?>
<svg id="Layer_1" data-name="Layer 1" xmlns="http://www.w3.org/2000/svg" viewBox="0 0 35 35">
  <defs>
    <style>
      .cls-1 {
        fill: #f47721;
      }

      .cls-1, .cls-2, .cls-3, .cls-4 {
        stroke-width: 0px;
      }

      .cls-3 {
        fill: #fff;
      }

      .cls-4 {
        fill: #c1dbf0;
      }
    </style>
  </defs>
  <path class="cls-1" d="m26.87,22.52c-.16,0-.3-.13-.3-.3,0-.04,0-.08.02-.11l.3-.73-1.58.91c-.14.08-.32.03-.4-.11-.06-.11-.05-.25.04-.35l.97-1.03-.61.35c-.14.08-.32.03-.4-.11-.07-.12-.05-.26.05-.36l.65-.63-.3.17c-.14.08-.32.03-.4-.11-.06-.11-.05-.24.03-.33l.94-1.16-1.55.89c-.14.08-.32.03-.4-.11-.07-.12-.04-.27.06-.36l.18-.16-1.11.64c-.14.08-.32.03-.4-.11-.06-.1-.05-.23.02-.33l.89-1.12-2.71,1.56c-.14.08-.32.04-.4-.11-.08-.14-.04-.32.11-.4,0,0,0,0,0,0l4.07-2.35c.14-.08.32-.03.4.11.06.11.05.24-.03.33l-.89,1.12,2.32-1.34c.14-.08.32-.03.4.11.07.12.04.27-.06.37l-.18.16.35-.21c.14-.08.32-.03.4.11.06.11.05.24-.03.33l-.95,1.17.96-.55c.14-.08.32-.03.4.11.07.12.05.26-.05.36l-.65.63.3-.18c.14-.08.32-.03.4.11.06.11.05.25-.04.35l-.97,1.03.61-.35c.14-.08.32-.03.4.11.05.08.05.18.02.26l-.31.75c.12-.02.24.04.3.14.08.14.03.32-.11.4l-.64.37s-.09.04-.14.04h0Z"/>
  <path class="cls-1" d="m18.75,22.53c-.09,0-.17-.04-.22-.1-.09-.11-.1-.27,0-.38l.7-.89-1,.57c-.14.08-.32.03-.4-.11-.07-.13-.04-.29.07-.38l2.4-1.85-2.07,1.2c-.14.08-.32.03-.4-.11-.07-.12-.05-.26.05-.36l1.72-1.69-1.37.79c-.14.08-.32.03-.4-.11-.06-.1-.05-.22.01-.31l.59-.85c-.11,0-.21-.05-.26-.15-.08-.14-.03-.32.11-.4l.95-.55c.14-.08.32-.03.4.11.06.1.05.22-.01.32l-.54.78,2.25-1.3c.14-.08.32-.03.4.11.07.12.05.26-.05.36l-1.72,1.69,3.86-2.22c.14-.08.32-.03.4.11.07.13.04.29-.07.38l-3.55,2.74s.02.02.03.03c.09.11.1.27,0,.38l-.7.89.33-.19c.14-.08.32-.03.4.11.04.07.05.16.03.23l-.13.43s.09.06.11.11c.08.14.03.32-.11.4h0s-.3.17-.3.17c-.14.08-.32.03-.4-.11-.04-.07-.05-.16-.03-.23l.07-.23-1.02.59s-.1.04-.15.04h0Z"/>
  <g>
    <path class="cls-4" d="m12.45,34.93c-.16,0-.3-.13-.3-.3,0-.07.03-.15.08-.2l.69-.74-1.48.85c-.14.08-.32.03-.4-.11-.07-.13-.04-.28.07-.38l.34-.27-.5.29c-.14.08-.32.04-.4-.1-.07-.12-.05-.27.06-.37l1.81-1.69-1.86,1.08c-.14.09-.32.05-.41-.09-.09-.14-.05-.32.09-.41,0,0,.01,0,.02-.01l4.09-2.36c.14-.08.32-.04.41.1.07.12.05.28-.06.37l-1.81,1.69,1.46-.84c.14-.08.32-.03.4.11.07.12.04.28-.07.37l-.34.27c.14-.08.32-.03.4.11.06.11.05.25-.04.35l-.69.74c.15-.07.32-.02.4.13.07.14.02.31-.11.39l-1.7.99s-.1.04-.15.04h0Z"/>
    <path class="cls-4" d="m8.6,34.91c-.16,0-.3-.13-.3-.3,0-.07.03-.15.08-.2l.44-.47-1.27.73c-.14.08-.32.03-.4-.11-.07-.13-.04-.29.08-.38l2.66-1.95-3.07,1.78c-.14.08-.32.03-.4-.11-.07-.13-.04-.3.09-.38l1.36-.93-1.35.78c-.14.08-.32.03-.4-.12-.07-.13-.04-.29.08-.38l3.38-2.43-3.16,1.82c-.14.08-.32.03-.4-.12-.07-.13-.04-.29.08-.38l2.91-2.05-2.59,1.5c-.14.08-.32.03-.4-.11-.08-.13-.04-.3.09-.39l2.83-1.99-2.51,1.45c-.14.08-.31.04-.4-.09-.09-.13-.05-.31.07-.4l3.86-2.83-3.54,2.04c-.14.08-.32.03-.4-.11-.07-.13-.04-.29.08-.38l3.81-2.79-3.49,2.02c-.14.08-.32.03-.4-.11-.08-.13-.04-.3.09-.39l1.43-.97-1.12.64c-.14.08-.32.03-.4-.11-.07-.13-.04-.3.08-.39l3.24-2.31-2.92,1.68c-.14.08-.32.03-.4-.11-.08-.13-.04-.3.09-.39l2.54-1.77-2.22,1.28c-.14.08-.32.03-.4-.11-.07-.13-.04-.3.09-.39l.85-.57-.54.31c-.14.08-.32.03-.4-.11-.08-.13-.04-.31.09-.39l1.82-1.25-1.51.87c-.14.08-.32.03-.4-.11-.08-.14-.04-.31.09-.4l.32-.21h0c-.14.08-.32.03-.4-.11-.07-.13-.04-.29.08-.38l3.47-2.5-3.15,1.82c-.14.08-.32.03-.4-.11-.08-.14-.03-.32.11-.4l8.24-4.76c.14-.08.32-.03.4.11.08.13.04.3-.08.39l-3.47,2.5,3.15-1.82c.14-.08.32-.03.4.11.08.14.04.31-.09.4l-.33.22h.02c.14-.1.32-.05.41.08.09.14.05.32-.09.41l-1.82,1.25,1.51-.87c.14-.08.32-.03.4.11.07.13.04.3-.09.39l-.85.57.54-.31c.14-.08.32-.03.4.12.07.13.04.29-.08.38l-2.54,1.77,2.22-1.28c.14-.08.32-.03.4.12.07.13.04.29-.08.38l-3.24,2.31,2.92-1.68c.14-.08.32-.03.4.11.08.13.04.3-.09.39l-1.43.97,1.11-.64c.14-.08.32-.03.4.11.07.13.04.29-.08.38l-3.82,2.79,3.49-2.02c.14-.08.32-.03.4.11.08.13.04.3-.08.39l-3.86,2.83,3.54-2.04c.14-.08.32-.03.4.11.08.13.04.3-.09.39l-2.83,1.99,2.51-1.45c.14-.08.32-.03.4.11.07.13.04.3-.08.38l-2.91,2.05,2.59-1.5c.14-.08.32-.03.4.11.07.13.04.29-.08.38l-3.38,2.43,3.06-1.76c.14-.08.32-.03.4.11.08.13.04.31-.09.39l-1.36.93,1.04-.6c.14-.08.32-.03.4.11.07.13.04.29-.08.38l-4.13,3.02s.03.03.04.04c.09.11.09.28-.01.39l-.6.65c.16.03.27.18.24.34-.02.09-.07.16-.14.2l-1.31.76s-.1.04-.15.04h0Z"/>
    <path class="cls-4" d="m21.42,18.96c-.16,0-.3-.13-.3-.3,0-.07.02-.13.07-.19l.34-.42-.96.56c-.14.08-.32.03-.4-.11-.06-.11-.05-.24.03-.34l.77-.9-1.14.66c-.14.08-.32.03-.4-.11-.06-.1-.05-.23.02-.32l.9-1.22-1.4.81c-.14.08-.32.03-.4-.11-.06-.11-.05-.25.04-.35l.68-.74-.97.56c-.14.08-.32.03-.4-.11-.06-.1-.05-.23.02-.33l.89-1.18-1.37.79c-.14.08-.32.03-.4-.11-.07-.11-.05-.26.04-.35l.62-.66-.89.52c-.14.08-.32.03-.4-.11-.07-.12-.05-.27.06-.36l.19-.18-.33.19c-.14.08-.32.03-.4-.11-.06-.1-.05-.23.02-.33l.91-1.21-1.4.81c-.14.08-.32.03-.4-.11-.06-.11-.05-.25.04-.35l.7-.77-1.01.58c-.14.08-.32.03-.4-.11-.08-.14-.03-.32.11-.4l2.65-1.53c.14-.08.32-.03.4.11.06.11.05.25-.04.35l-.7.77,1.01-.58c.14-.08.32-.03.4.11.06.1.05.23-.02.32l-.91,1.21,1.39-.81c.14-.08.32-.03.4.11.07.12.05.27-.06.36l-.19.18.33-.19c.14-.08.32-.03.4.11.07.11.05.26-.04.35l-.62.66.89-.52c.14-.08.32-.03.4.11.06.1.05.23-.02.33l-.89,1.17,1.37-.79c.14-.08.32-.03.4.11.06.11.05.25-.04.35l-.67.74.97-.56c.14-.08.32-.03.4.11.06.1.05.23-.02.33l-.9,1.22,1.4-.81c.14-.08.32-.03.4.11.06.11.05.24-.03.34l-.77.9.85-.49c.14-.08.32-.03.4.11.06.11.05.24-.03.33l-.43.54c.16.02.28.16.27.32,0,.09-.06.18-.15.23l-1.1.64s-.1.04-.15.04h0Z"/>
    <path class="cls-4" d="m4.86,22.51c-.16,0-.3-.13-.3-.3,0-.1.05-.19.13-.25l2.79-1.89-3.51,2.02c-.14.08-.32.03-.4-.11-.07-.13-.04-.3.09-.38l4.07-2.77-4.25,2.45c-.14.08-.32.03-.4-.11-.08-.13-.04-.3.09-.39l5.29-3.67-5.03,2.9c-.14.08-.32.02-.4-.12-.07-.13-.03-.3.09-.38l4.07-2.65-3.77,2.17c-.14.08-.32.03-.4-.11-.07-.13-.04-.3.09-.39l5.48-3.68-5.17,2.99c-.14.08-.32.03-.4-.11-.08-.14-.04-.31.09-.4l2.99-1.95-2.68,1.55c-.14.08-.32.03-.4-.11-.08-.14-.04-.31.09-.4l3.34-2.21-3.03,1.75c-.14.08-.32.03-.4-.11-.08-.13-.04-.3.09-.39l4.23-2.94-3.91,2.26c-.14.08-.32.03-.4-.11-.07-.13-.04-.29.08-.38l3.75-2.77-3.37,1.95c-.14.08-.32.03-.4-.11-.07-.13-.04-.29.07-.38l2.7-2.18-1.88,1.09c-.13.09-.32.06-.41-.07-.09-.13-.06-.32.07-.41l1.22-1.03c-.15-.06-.23-.23-.17-.38.02-.06.07-.12.13-.15l2.12-1.23c.14-.08.32-.03.4.11.07.12.04.28-.06.37l-.77.65,2.35-1.35c.14-.08.32-.03.4.11.07.13.04.29-.07.38l-2.7,2.17,4.61-2.66c.14-.08.32-.03.4.11.07.13.04.29-.08.38l-3.75,2.77,5.49-3.17c.14-.08.32-.03.4.11.08.13.04.3-.09.39l-4.23,2.94,5.23-3.02c.14-.09.32-.04.41.1.09.14.04.32-.1.41h0l-3.34,2.21,3.87-2.23c.14-.08.32-.03.4.11.08.14.04.31-.09.4l-2.99,1.95,3.32-1.92c.14-.09.32-.04.41.09s.04.32-.09.41l-5.48,3.68,5.95-3.43c.14-.09.32-.04.41.1s.04.32-.1.41h0l-4.07,2.64,1.38-.8c.14-.08.32-.03.4.11.08.13.04.3-.09.39l-5.3,3.68,4.98-2.88c.14-.08.32-.03.4.11.07.13.04.3-.09.39l-4.07,2.77,3.76-2.17c.14-.08.32-.03.4.11.08.13.04.3-.09.39l-8.41,5.69c-.02.09-.07.16-.14.21l-1.1.64s-.1.04-.15.04h0Z"/>
    <path class="cls-4" d="m10.37,8.92c-.16,0-.3-.13-.3-.29,0-.08.03-.16.09-.22l1.7-1.61-2.94,1.7c-.14.08-.32.03-.4-.11-.07-.13-.04-.3.08-.38l.19-.13-.45.26c-.14.08-.32.03-.4-.11-.07-.13-.04-.29.07-.38l2.33-1.82-2.71,1.56c-.14.08-.32.04-.4-.1-.08-.13-.04-.29.07-.39l2.76-2.16-2.92,1.68c-.14.08-.32.03-.4-.11-.08-.13-.04-.3.09-.39l.5-.35-.32.19c-.14.08-.32.03-.4-.11-.07-.13-.04-.29.08-.38l2.01-1.54-1.71.99c-.14.08-.32.03-.4-.11-.07-.13-.04-.29.07-.38l1.92-1.57-1.53.88c-.14.08-.32.03-.4-.11-.07-.11-.05-.26.04-.35l1.26-1.33c-.14.08-.32.02-.4-.12-.08-.14-.02-.32.12-.4l1.74-1c.14-.08.32-.03.4.11.07.11.05.26-.04.35l-1.25,1.32,2.9-1.67c.14-.08.32-.03.4.11.07.13.04.29-.07.38l-1.92,1.58,2.6-1.5c.14-.08.32-.03.4.11.08.13.04.29-.08.38l-2.02,1.54,2.34-1.35c.14-.08.32-.04.41.1.08.13.04.31-.09.4l-.5.35.51-.3c.14-.08.32-.04.4.1.08.13.04.29-.07.39l-2.76,2.17,2.75-1.59c.14-.08.32-.03.4.11.07.13.04.29-.07.38l-2.33,1.82,2.03-1.17c.14-.08.32-.04.4.11.08.13.04.3-.08.39l-.26.19c.16-.04.32.05.37.2.03.11,0,.22-.08.3l-1.7,1.61.88-.51c.14-.08.32-.04.4.11.08.14.04.32-.11.4,0,0,0,0,0,0l-3.06,1.76s-.09.04-.15.04h0Z"/>
  </g>
  <path class="cls-1" d="m9.93,17.02c-.16,0-.3-.13-.3-.3,0-.08.03-.15.08-.2l.61-.63-1.02.59c-.14.08-.32.03-.4-.11-.07-.12-.04-.27.06-.36l.72-.66-.92.53c-.14.08-.32.03-.4-.11-.07-.12-.05-.27.06-.37l1.21-1.12-.72.42c-.14.08-.32.04-.41-.1-.07-.12-.05-.27.05-.36l1.15-1.12-.64.37c-.14.08-.32.03-.4-.11-.06-.11-.05-.25.03-.34l.76-.87-.23.13c-.14.08-.32.03-.4-.11-.05-.08-.05-.18-.02-.26l.2-.47s-.06-.05-.08-.09c-.08-.14-.03-.32.11-.4l.32-.19c.14-.08.32-.03.4.11.05.08.05.18.02.26l-.08.2,1-.58c.14-.08.32-.03.4.11.06.11.05.25-.03.34l-.76.87,1.17-.68c.14-.08.32-.04.41.1.07.12.05.27-.05.36l-1.15,1.12.94-.54c.14-.08.32-.03.4.11.07.12.05.27-.06.36l-1.21,1.12.99-.57c.14-.08.32-.03.4.11.07.12.04.27-.06.36l-.72.66.49-.28c.14-.08.32-.03.4.11.07.11.05.26-.04.35l-.61.64.37-.21c.14-.08.32-.04.4.11.08.14.04.32-.11.4,0,0,0,0,0,0l-2.19,1.27s-.1.04-.15.04h0Z"/>
  <path class="cls-1" d="m9.47,11.29c-.16,0-.3-.13-.29-.3,0-.07.02-.13.06-.18l.91-1.17-1.04.6c-.14.08-.32.03-.4-.11-.02-.04-.04-.09-.04-.14l-.02-.9c-.16-.01-.28-.15-.27-.32,0-.1.06-.18.15-.23l.26-.15c.14-.08.32-.03.4.11.02.04.04.09.04.14l.02.84,1.92-1.11c.14-.08.32-.03.4.11.06.1.05.23-.02.33l-.91,1.17,1.11-.64c.14-.08.32-.03.4.11.05.08.05.18.01.27l-.38.83c.13.1.16.28.06.41-.02.03-.05.06-.09.08l-.35.2c-.14.08-.32.03-.4-.11-.05-.08-.05-.18-.01-.27l.25-.54-1.62.93s-.1.04-.15.04h0Z"/>
  <path class="cls-1" d="m16.85,34.93c-.16,0-.3-.13-.3-.29,0-.1.05-.2.14-.25l2.69-1.72-3.81,2.2c-.14.08-.32.03-.4-.12-.07-.13-.03-.3.09-.39l6.02-4.06-6.8,3.93c-.14.08-.32.04-.4-.11-.08-.14-.04-.31.1-.4l2.21-1.42-2.23,1.29c-.14.08-.32.03-.4-.11-.08-.13-.04-.3.09-.39l4.19-2.83-3.94,2.27c-.14.08-.32.03-.4-.12-.07-.13-.03-.3.09-.39l.8-.52-.49.28c-.14.08-.32.04-.4-.11-.08-.13-.04-.3.08-.39l3.09-2.21-2.77,1.6c-.14.08-.32.03-.4-.11-.07-.13-.04-.29.08-.38l2.38-1.81-2.06,1.19c-.14.08-.32.03-.4-.11-.07-.13-.04-.29.07-.38l1.45-1.17-1.12.64c-.14.08-.32.03-.4-.11-.07-.12-.04-.28.07-.37l.23-.18c-.11.01-.21-.03-.28-.12-.09-.12-.07-.29.03-.39l.2-.19c-.16,0-.29-.14-.29-.3,0-.02,0-.05,0-.07l.16-.6c-.15-.07-.21-.25-.14-.39.03-.05.07-.1.12-.13l.3-.17c.14-.08.32-.03.4.11.04.07.05.15.03.22l-.11.43,1.31-.76c.14-.08.32-.04.41.1.07.12.05.28-.06.37l-.07.06.93-.53c.14-.08.32-.03.4.11.07.12.04.28-.07.37l-.12.09,1.01-.58c.14-.08.32-.03.4.11.07.13.04.28-.07.38l-1.45,1.18,2.88-1.66c.14-.08.32-.03.4.11.07.13.04.29-.08.38l-2.39,1.81,3.99-2.31c.14-.08.32-.04.4.11.08.13.04.3-.08.39l-3.09,2.21,4.69-2.71c.14-.09.32-.04.41.1s.04.32-.1.41l-.8.52,1.77-1.03c.14-.08.32-.03.4.12.07.13.03.3-.09.39l-4.19,2.83,5.77-3.33c.14-.09.32-.04.41.1s.04.32-.1.41l-2.21,1.42,3.33-1.92c.14-.09.32-.04.41.09s.04.32-.09.41l-6.02,4.06,7.9-4.56c.14-.08.32-.04.41.1s.04.32-.1.41l-2.7,1.72,3.32-1.91c.14-.08.32-.03.4.12.07.13.03.3-.09.39l-2.74,1.76,2.44-1.41c.14-.08.32-.03.4.11.08.13.04.3-.09.39l-5.36,3.74,5.04-2.91c.14-.08.32-.02.4.12.07.13.03.3-.09.38l-1.48.98,1.17-.67c.14-.08.32-.03.4.11.08.13.04.3-.08.39l-2.98,2.15,2.66-1.53c.14-.08.32-.04.4.11.08.13.04.3-.08.39l-1.8,1.33,1.48-.85c.14-.08.32-.03.4.11.08.13.04.3-.08.39l-.38.28.06-.03c.14-.08.32-.02.4.12.06.12.04.26-.05.35l-.91.82.57-.33c.14-.08.32-.03.4.11.06.11.05.26-.04.35l-.41.42c.16.04.26.19.23.35-.02.08-.07.15-.14.19l-1.44.84c-.14.08-.32.03-.4-.11-.07-.11-.05-.26.04-.35l.21-.22-1.19.68c-.14.08-.32.02-.4-.12-.06-.12-.04-.26.05-.35l.91-.81-2.23,1.29c-.14.08-.32.03-.4-.11-.08-.13-.04-.3.08-.39l.38-.28-1.34.77c-.14.08-.32.04-.4-.11-.08-.13-.04-.3.08-.39l1.8-1.33-3.16,1.83c-.14.08-.32.03-.4-.11-.08-.13-.04-.3.08-.39l2.97-2.15-4.58,2.64c-.14.08-.32.02-.4-.12-.07-.13-.03-.3.09-.38l1.48-.98-2.56,1.48c-.14.08-.32.03-.4-.12-.07-.13-.04-.29.08-.38l5.36-3.74-7.35,4.24c-.14.08-.32.03-.4-.11-.08-.14-.04-.31.1-.39l2.74-1.76-3.93,2.27s-.1.04-.15.04h0Z"/>
  <path class="cls-3" d="m21.94,30.79c-.16,0-.3-.13-.3-.3,0-.08.03-.15.09-.21l1.58-1.58-2.56,1.48c-.14.08-.32.03-.4-.11-.07-.13-.04-.28.07-.38l.55-.44-.39.23c-.14.08-.32.03-.4-.11-.06-.1-.05-.22.01-.32l.81-1.15-.43.25c-.14.08-.32.03-.4-.11-.04-.07-.05-.16-.03-.24l.13-.4c-.14-.08-.19-.26-.1-.41.03-.04.06-.08.11-.11l.3-.17c.11-.06.24-.05.33.03.1.08.13.2.1.32l-.06.18.93-.54c.14-.08.32-.03.4.11.06.1.05.23-.01.32l-.82,1.15,2.75-1.59c.14-.08.32-.03.4.11.07.13.04.29-.07.38l-.56.44,1-.58c.14-.08.32-.03.4.11.06.11.04.26-.05.35l-1.58,1.57,1.23-.71c.14-.08.32-.04.4.1.06.1.05.22,0,.31l-.53.85c.15-.06.32.02.38.17.05.14,0,.29-.13.37l-.98.57c-.14.08-.32.04-.4-.1-.06-.1-.05-.22,0-.31l.52-.84-2.17,1.25s-.1.04-.15.04h0Z"/>
  <path class="cls-1" d="m23.12,27.84c-.16,0-.3-.13-.3-.3,0-.1.05-.19.13-.25l.36-.24-1.29.74c-.14.08-.32.03-.4-.11-.07-.13-.04-.3.08-.38l3.27-2.34-4.91,2.84c-.14.08-.32.03-.4-.12-.07-.13-.03-.29.09-.38l2.53-1.75-3.9,2.25c-.14.08-.32.03-.4-.11-.07-.13-.04-.29.08-.38l3.13-2.22-4.7,2.71c-.14.08-.32.03-.4-.11-.07-.13-.04-.3.08-.38l2.98-2.1-4.14,2.39c-.14.08-.32.03-.4-.11-.07-.13-.04-.29.08-.38l3.5-2.59-3.94,2.27c-.14.08-.32.03-.4-.11-.07-.13-.04-.29.08-.38l2.51-1.87-2.34,1.35c-.14.08-.32.03-.4-.11-.07-.12-.04-.28.07-.37l1.91-1.58-1.58.91c-.14.08-.32.03-.4-.11-.07-.12-.04-.26.05-.36l1.03-.99-.68.39c-.14.08-.32.03-.4-.11-.07-.11-.05-.26.04-.35l.43-.45c-.15-.07-.21-.24-.14-.39.03-.06.07-.1.12-.13l1.21-.7c.14-.08.32-.03.4.11.06.11.05.26-.04.35l-.12.12,1.03-.59c.14-.09.32-.05.41.09.08.12.05.28-.06.38l-1.03.98,2.52-1.45c.14-.08.32-.03.4.11.07.12.04.28-.07.37l-1.91,1.58,3.57-2.06c.14-.08.32-.03.4.11.07.13.04.29-.08.38l-2.51,1.87,4.1-2.36c.14-.08.32-.03.4.11.07.13.04.29-.08.38l-3.5,2.59,5.34-3.09c.14-.08.32-.03.4.11.07.13.04.3-.08.38l-2.98,2.1,4.5-2.6c.14-.08.32-.03.4.11.07.13.04.29-.08.38l-3.13,2.22,4.7-2.71c.14-.08.32-.03.4.11.07.13.04.3-.09.38l-2.53,1.75,3.87-2.24c.14-.08.32-.03.4.11.07.13.04.3-.08.38l-3.27,2.34,4.01-2.32c.14-.08.32-.03.4.11.08.13.04.3-.09.39l-.36.24.4-.23c.14-.08.32-.03.4.11.07.13.04.3-.08.39l-1.7,1.21,1.53-.89c.14-.08.32-.03.4.11.07.12.04.28-.07.37l-2.15,1.79,1.82-1.05c.14-.08.32-.03.4.11.07.12.05.26-.05.36l-1.18,1.16.82-.47c.14-.08.32-.03.4.11.06.11.05.25-.04.35l-.42.44c.05.03.1.07.13.12.08.14.03.32-.11.4l-1.21.7c-.14.08-.32.03-.4-.11-.06-.11-.05-.25.04-.35l.11-.11-1.01.59c-.14.08-.32.03-.4-.11-.07-.12-.05-.26.05-.36l1.18-1.16-2.83,1.63c-.14.08-.32.03-.4-.11-.07-.12-.04-.28.07-.37l2.15-1.79-3.94,2.27c-.14.08-.32.03-.4-.12-.07-.13-.04-.29.08-.38l1.7-1.21-2.96,1.71s-.1.04-.15.04h0Z"/>
  <path class="cls-2" d="m3.93,22.34c.63.22,1.32.13,1.87-.25.51,3.22-2.19,16.8,4.5,11.71.85,1.15,2.47,1.39,3.63.54.03-.02.05-.04.08-.06.57.7,1.56.74,2.4.71h13.09c1.27.15,2.42-.75,2.58-2.02,0-.08.01-.15.02-.23-.72-3.91,2.57-12.63-4.14-11.4.38-3.97-.51-5.08-4.55-4.66-3.56-2.82-6.22-8-11.13-8.25,4.61-2.46,1.16-10.7-3.87-7.8-2.79,1.5-2.76,6.42.02,7.86-5.62.18-5.98,6.14-5.57,10.48,0,1.18-.3,2.86,1.09,3.39h0Zm11-8.62l3.57,3.42c-1.36.92-.75,2.78-.88,4.17-.89.04-1.84-.11-2.69.2v-7.79Zm9.78,7.61c-1.29,0-2.57,0-3.86,0v-1.73h3.86v1.73Zm-4.73-2.01v2c-.5,0-1,0-1.5-.01.13-1.22-.36-2.76.43-3.78.51.48,1.01.99,1.53,1.45-.17.01-.46.15-.46.34h0Zm11.23,13.56c.27,2.96-12.3.87-14.88,1.46-3.42.09-1.53-4.76-1.98-6.91,1.66.84,3.82.28,5.64.43-.49,2.79,1.24,3.2,3.6,2.95,1.78.21,2.21-1.52,2-2.95,1.83-.19,4.01.5,5.63-.5,0,1.83.07,3.68,0,5.51h0Zm-7.12-2.65c-2.1.05-3.7.39-3.25-2.36h3.87c-.11.75.37,2.1-.62,2.36Zm4.65-8.25c1.59-.32,2.73.66,2.47,2.26.18,1.79-.11,3.32-2.23,3.02h-11.95c-1.74.26-3.06-.6-2.69-2.55-.24-1.44.24-3.05,1.98-2.74h12.42Zm-3.14-4.8c2.06.2,1.37,2.73,1.48,4.15h-1.5c.13-2.56.12-2.45-2.39-2.35.55-.42.75-1.16.49-1.8.64,0,1.29-.01,1.93,0h0Zm-15.12-.5c-2.48-.85-.91-3.5-.91-5.44h1.56c-.09,1.83,1.63,4.58-.65,5.44h0Zm.71-5.9h-1.61c-.16-.64-.32-1.28-.48-1.93.86.07,1.72.08,2.57,0-.16.64-.32,1.28-.48,1.92h0Zm-3.94-5.72c-.91-4.58,5.33-6.22,6.21-1.48,1.15,5.07-5.56,6.82-6.21,1.48Zm-3.32,7.27c.55-1.93,2.26-3.31,4.26-3.44,1.65,2.96-1.88,6.98,1.73,8.22,4.84-.38.98-5.29,2.57-8.22,3.56.49,5.57,4.14,8.21,6.26,1.16.75,3.67,3.65,1.04,3.84-8.94-7.67-7.62-10.03-7.66,3.09-.85.8-.58,2.15-.6,3.22.15,2.81-.33,5.78.24,8.53-5.35,4.12-1.25-12.94-3.78-10.27v9.05c-.03,2.65-3.33,2.18-3.28-.25,0-5.87,0-11.75,0-17.63v-.86c-1.96-.84-.13,6.64-1.11,7.8-3.03,2.07-1.74-7.83-1.62-9.31h0Z"/>
</svg>