<?xml version="1.0" encoding="UTF-8"?>
<svg id="Layer_1" data-name="Layer 1" xmlns="http://www.w3.org/2000/svg" viewBox="0 0 35 35">
  <defs>
    <style>
      .cls-1 {
        fill: #f47721;
      }

      .cls-1, .cls-2, .cls-3, .cls-4, .cls-5 {
        stroke-width: 0px;
      }

      .cls-3 {
        fill: #f6883b;
      }

      .cls-4 {
        fill: #fff;
      }

      .cls-5 {
        fill: #c1dbf0;
      }
    </style>
  </defs>
  <path class="cls-5" d="m18.08,15.99c-.16,0-.29-.13-.29-.29,0-.1.05-.2.14-.25l1.78-1.11-2.69,1.55c-.14.08-.32.02-.4-.12-.07-.13-.03-.3.09-.38l5.94-3.78-5.64,3.25c-.14.08-.32.02-.4-.12-.07-.13-.03-.3.1-.38l1.92-1.19-1.62.93c-.14.08-.32.03-.4-.12-.07-.13-.03-.3.1-.39l2.69-1.68-2.39,1.38c-.14.08-.32.03-.4-.11-.08-.13-.04-.31.09-.39l7.67-4.95-7.37,4.25c-.14.08-.32.02-.4-.12-.07-.13-.03-.3.09-.38l4.85-3.07-4.55,2.63c-.14.08-.32.03-.4-.11-.07-.13-.03-.3.09-.39l7.67-5.06-7.36,4.25c-.14.08-.32.02-.4-.12-.07-.13-.03-.29.09-.38l4-2.58-3.7,2.13c-.14.08-.32.03-.4-.11-.08-.13-.04-.3.09-.39l5.6-3.83-5.29,3.05c-.14.08-.32.04-.4-.1-.08-.14-.04-.31.1-.4l.45-.29-.14.08c-.14.08-.32.04-.4-.1-.08-.14-.04-.31.09-.4l1.13-.74-.82.47c-.14.08-.32.03-.4-.11-.07-.13-.04-.3.08-.38l2.64-1.88-2.32,1.34c-.14.08-.32.03-.4-.11-.07-.12-.04-.28.07-.37l2.58-2.1-2.25,1.3c-.14.08-.32.03-.4-.11-.07-.12-.04-.28.06-.37l1.16-.98-.83.48c-.14.08-.32.02-.4-.12-.06-.12-.04-.26.05-.35l.32-.29c-.15.07-.32,0-.39-.14-.05-.1-.03-.22.04-.31l.29-.35c-.06-.02-.12-.07-.15-.13-.08-.14-.03-.32.11-.4l.97-.56c.14-.08.32-.03.4.11.06.11.05.24-.03.33l-.09.11.96-.55c.14-.08.32-.02.4.12.06.12.04.26-.05.35l-.32.29,1.32-.76c.14-.08.32-.03.4.11.07.12.04.28-.06.37l-1.16.98,2.52-1.45c.14-.08.32-.03.4.11.07.12.04.28-.07.37l-2.58,2.1L24.36.21c.14-.08.32-.03.4.11.07.13.04.3-.08.38l-2.64,1.88L26.15.21c.14-.08.32-.03.4.11.08.13.04.31-.09.39l-1.12.74,2.15-1.24c.14-.08.32-.03.4.12.07.13.03.3-.09.38l-.45.29,1.37-.79c.14-.08.32-.03.4.11.07.13.04.3-.09.38l-5.6,3.83L30.91.21c.14-.08.32-.02.4.12.07.13.03.29-.09.38l-4.01,2.58L32.54.21c.14-.08.32-.02.4.12.07.13.03.29-.09.38l-7.66,5.06L34.04.66c.14-.08.32-.03.4.11.08.14.03.31-.1.39l-4.86,3.07,4.8-2.77c.14-.08.32-.02.4.12.07.13.03.3-.09.38l-7.67,4.95,7.37-4.25c.14-.08.32-.04.4.1s.04.32-.1.4l-2.68,1.67,2.38-1.37c.14-.08.32-.02.4.12.07.13.03.3-.1.38l-1.92,1.19,1.62-.93c.14-.08.32-.02.4.12.07.13.03.3-.09.38l-5.94,3.78,5.64-3.25c.14-.08.32-.02.4.12.07.13.03.3-.09.38l-1.79,1.11,1.48-.86c.14-.08.32-.02.4.12.07.13.03.29-.09.38l-4.54,2.93,4.24-2.45c.14-.08.32-.03.4.11.07.13.03.3-.09.39l-3.51,2.27,3.2-1.85c.14-.08.32-.03.4.11.07.13.04.29-.08.38l-5.21,3.64,4.89-2.82c.14-.08.32-.03.4.11.07.13.03.3-.09.39l-.39.25.08-.05c.14-.08.32-.03.4.11.07.13.04.29-.08.38l-3.42,2.57,3.1-1.79c.14-.08.32-.03.4.11.07.12.04.28-.07.37l-2.39,1.96,2.06-1.19c.14-.08.32-.03.4.11.07.13.04.29-.08.38l-.23.18c.16-.03.31.07.35.23.02.1-.01.2-.08.27l-.68.67.33-.19c.14-.08.32-.03.4.11.06.11.05.24-.03.33l-.28.33c.06.02.11.07.14.12.08.14.03.32-.11.4l-.97.56c-.14.08-.32.03-.4-.11-.06-.11-.05-.24.03-.33l.06-.07-.89.51c-.14.08-.32.03-.4-.11-.07-.12-.05-.26.05-.36l.68-.67-1.97,1.13c-.14.08-.32.03-.4-.11-.07-.13-.04-.29.08-.38l.14-.1-1.02.59c-.14.08-.32.03-.4-.11-.07-.12-.04-.28.07-.37l2.39-1.96-4.23,2.44c-.14.08-.32.03-.4-.11-.07-.13-.04-.29.08-.38l3.42-2.56-5.29,3.06c-.14.08-.32.03-.4-.11-.07-.13-.03-.3.09-.39l.39-.26-1.31.76c-.14.08-.32.03-.4-.11-.08-.13-.04-.3.09-.39l5.21-3.64-7.16,4.13c-.14.08-.32.04-.4-.1s-.04-.32.1-.4l3.51-2.27-4.81,2.77c-.14.08-.32.03-.4-.12-.07-.13-.03-.3.09-.38l4.55-2.93-5.94,3.43s-.1.04-.15.04h0Z"/>
  <path class="cls-5" d="m3.43,34.74c-.16,0-.29-.13-.29-.29,0-.1.05-.19.14-.25l.83-.53-1.78,1.03c-.14.08-.32.03-.4-.11-.08-.13-.03-.3.09-.39l.43-.28-1.25.72c-.14.08-.32.04-.4-.1-.08-.14-.04-.31.1-.4l.64-.41-.83.48c-.14.08-.32.03-.4-.11-.07-.13-.04-.3.09-.38l3.78-2.59-3.47,2c-.14.07-.32.02-.4-.13-.06-.12-.03-.27.08-.36l3.62-2.65-2.73,1.57c-.14.08-.32.03-.4-.11-.07-.12-.04-.27.06-.37l1.7-1.45c-.16,0-.29-.14-.29-.3,0-.1.06-.2.15-.25l2.43-1.4c.14-.08.32-.03.4.11.07.12.04.28-.06.37l-1.53,1.3,4.69-2.71c.14-.08.32-.03.4.11.07.13.04.29-.08.38l-3.62,2.65,5.43-3.14c.14-.08.32-.04.4.1.08.14.04.31-.09.4l-3.78,2.58,5.34-3.08c.14-.08.32-.03.4.12.07.13.03.3-.09.38l-.65.41,1.58-.91c.14-.08.32-.03.4.11.07.13.03.3-.09.39l-.43.28,1.35-.78c.14-.08.32-.03.4.12.07.13.03.3-.09.38l-.82.53,1.78-1.03c.14-.08.32-.03.4.11.08.13.04.3-.09.39l-2.81,1.85,3.92-2.27c.14-.08.32-.03.4.11.07.13.03.3-.09.39l-1.54.99,2.11-1.22c.14-.08.32-.03.4.11.08.13.04.3-.09.39l-3.37,2.27,4.18-2.41c.14-.08.32-.04.4.1.08.14.04.31-.09.4l-2.65,1.77,3.36-1.94c.14-.08.32-.04.4.1.08.13.04.31-.09.39l-3.21,2.21,3.88-2.24c.14-.08.32-.03.4.11.08.13.04.3-.09.39l-.53.35.81-.47c.14-.08.32-.03.4.11.07.13.04.29-.08.38l-3.25,2.39,3.76-2.17c.14-.08.32-.03.4.11.07.13.04.29-.07.38l-2.8,2.16,3.16-1.83c.14-.08.32-.03.4.11.07.13.04.3-.08.38l-.26.18.28-.16c.14-.08.32-.03.4.11.07.12.04.28-.07.37l-1.53,1.27,1.61-.93c.14-.08.32-.04.4.1.07.12.05.27-.05.37l-1,.93.94-.54c.14-.08.32-.03.4.11.06.1.05.22-.02.32l-.52.74.32-.18c.14-.09.32-.05.4.09.09.14.05.32-.09.4,0,0-.01,0-.02.01l-1.48.85c-.14.08-.32.03-.4-.11-.06-.1-.05-.22.01-.32l.52-.73-2.01,1.16c-.14.08-.32.04-.4-.1-.07-.12-.05-.27.05-.37l1-.93-2.42,1.4c-.14.08-.32.03-.4-.11-.07-.12-.04-.28.07-.37l1.53-1.27-3.02,1.75c-.14.08-.32.03-.4-.12-.07-.13-.04-.29.08-.38l.26-.18-1.17.68c-.14.08-.32.03-.4-.11-.07-.13-.04-.28.07-.37l2.8-2.15-4.58,2.64c-.14.08-.32.03-.4-.11-.07-.13-.04-.29.08-.38l3.25-2.38-4.99,2.88c-.14.08-.32.03-.4-.11-.07-.13-.03-.3.09-.39l.53-.35-1.47.85c-.14.08-.32.03-.4-.12-.07-.13-.03-.29.09-.38l3.21-2.21-4.69,2.71c-.14.08-.32.03-.4-.11-.07-.13-.04-.3.09-.39l2.65-1.77-3.94,2.27c-.14.08-.32.03-.4-.11-.07-.13-.03-.3.09-.38l3.37-2.26-4.78,2.76c-.14.08-.32.03-.4-.11-.07-.13-.03-.3.09-.39l1.53-.99-2.58,1.49c-.14.08-.32.02-.4-.12-.07-.13-.03-.3.09-.38l2.81-1.84-4.06,2.34s-.1.04-.15.04h0Z"/>
  <path class="cls-5" d="m9.4,34.75c-.16,0-.29-.13-.29-.29,0-.1.05-.19.12-.24l3.55-2.5-5.1,2.94c-.14.08-.32.03-.4-.11-.07-.13-.04-.3.09-.39l3.17-2.12-3.12,1.8c-.14.08-.32.02-.4-.12-.07-.13-.03-.3.09-.38l1.3-.85-1.16.67c-.14.08-.32.03-.4-.11-.07-.13-.04-.3.08-.38l2.95-2.07-2.78,1.61c-.14.08-.32.03-.4-.11-.07-.13-.04-.29.08-.38l2.81-2.13-2.53,1.46c-.14.08-.32.03-.4-.11-.07-.12-.05-.28.06-.37l2.04-1.77-1.61.93c-.14.08-.32.03-.4-.12-.06-.11-.04-.25.05-.35l.89-.9-.34.19c-.14.08-.32.03-.4-.11-.06-.1-.05-.22.01-.31l.34-.5s-.09-.06-.12-.11c-.08-.14-.03-.32.11-.4l.64-.37c.14-.08.32-.03.4.11.06.1.05.22-.01.31l-.16.24,1.14-.66c.14-.08.32-.03.4.11.07.11.05.26-.05.35l-.89.89,2.35-1.36c.14-.08.32-.03.4.11.07.12.05.28-.06.37l-2.04,1.77,3.89-2.24c.14-.08.32-.03.4.11.07.13.04.29-.08.38l-2.81,2.13,4.54-2.62c.14-.08.32-.03.4.11.07.13.04.3-.08.38l-2.95,2.07,4.44-2.56c.14-.08.32-.03.4.11.08.13.04.3-.09.39l-1.3.85,1.74-1c.14-.08.32-.02.4.12.07.13.03.29-.09.38l-3.16,2.12,3.07-1.78c.14-.08.32-.03.4.11.08.13.04.3-.09.39l-3.55,2.5,3.43-1.98c.14-.08.32-.03.4.11.07.13.04.29-.08.38l-2.67,1.94,2.46-1.42c.14-.08.32-.03.4.11.07.13.04.3-.08.38l-1.23.89.94-.54c.14-.08.32-.03.4.11.08.13.04.3-.08.39l-.28.2c.12-.03.24.02.3.12.09.12.07.29-.05.39l-.75.65.27-.15c.14-.08.32-.03.4.11.06.1.05.22-.01.31l-.5.72c.16.02.27.17.25.33-.01.09-.07.16-.14.21l-.86.5c-.14.08-.32.03-.4-.11-.06-.1-.05-.22.01-.31l.41-.59-1.75,1.01c-.14.08-.32.03-.4-.12-.06-.12-.04-.26.06-.35l.74-.65-1.95,1.12c-.14.08-.32.03-.4-.11-.08-.13-.04-.3.08-.39l.18-.13-1.08.62c-.14.08-.32.03-.4-.11-.07-.13-.04-.3.08-.38l1.23-.89-2.4,1.38c-.14.08-.32.03-.4-.11-.07-.13-.04-.29.08-.38l2.67-1.94-4.22,2.44s-.1.04-.15.04h0Z"/>
  <path class="cls-5" d="m14.48,30.63c-.16,0-.29-.13-.29-.29,0-.08.03-.15.08-.21l.6-.61-1.08.62c-.14.08-.32.03-.4-.11-.07-.12-.04-.28.07-.37l.67-.54-.95.55c-.14.08-.32.04-.4-.1-.07-.12-.05-.28.06-.38l.89-.77-3.28,1.89c-.14.08-.32.03-.4-.11-.07-.12-.04-.28.07-.37l1.74-1.4-1.98,1.14c-.14.08-.32.04-.4-.1-.08-.13-.05-.29.07-.38l.73-.58-.83.48c-.14.08-.32.03-.4-.11-.06-.11-.05-.25.04-.34l.97-1.08-1.22.7c-.14.08-.32.03-.4-.11-.03-.04-.04-.09-.04-.14v-.59s-.13.07-.13.07c-.14.08-.32.03-.4-.11-.08-.14-.03-.32.11-.4l.56-.32c.14-.08.32-.03.4.11.03.04.04.09.04.14v.59s2.39-1.38,2.39-1.38c.14-.08.32-.03.4.11.06.11.05.25-.04.34l-.97,1.08,2.65-1.53c.14-.08.32-.03.4.11.07.13.04.29-.07.38l-.73.58,1.84-1.06c.14-.08.32-.03.4.11.07.12.04.28-.07.37l-1.75,1.4,2.66-1.53c.14-.08.32-.03.4.11.07.12.04.28-.06.37l-.89.77,1.61-.93c.14-.08.32-.03.4.11.07.12.04.28-.07.37l-.91.73c.16,0,.29.14.28.31,0,.07-.03.14-.08.19l-1.2,1.23s.03.03.03.05c.08.14.03.32-.11.4l-.87.5s-.1.04-.15.04h0Z"/>
  <path class="cls-1" d="m11.75,31.82c-.16,0-.29-.13-.29-.29,0-.08.03-.15.09-.21l.12-.11-.07.04c-.14.08-.32.03-.4-.11-.06-.11-.05-.24.03-.33l.48-.57c-.16-.03-.26-.19-.22-.35.02-.08.07-.15.14-.19l1.1-.64c.14-.08.32-.03.4.11.06.11.05.24-.03.33l-.34.4.63-.36c.14-.08.32-.03.4.11.07.12.05.26-.05.36l-.12.11.3-.18c.14-.08.32-.03.4.11.06.11.05.24-.03.33l-.18.22c.16.02.27.17.25.33-.01.09-.07.17-.14.21l-1.09.63c-.14.08-.32.03-.4-.11-.06-.11-.05-.24.03-.33l.07-.09-.92.53s-.1.04-.15.04h0Z"/>
  <path class="cls-1" d="m11.51,34.76c-.16,0-.29-.13-.29-.29,0-.09.04-.17.1-.22l.14-.12-.21.12c-.14.08-.32.03-.4-.11-.06-.11-.05-.25.04-.35l.92-.95-.32.18c-.14.08-.32.03-.4-.11-.05-.08-.05-.18-.01-.26l.3-.67s-.06-.05-.08-.09c-.08-.14-.03-.32.11-.4l.33-.19c.14-.08.32-.03.4.11.05.08.05.18.01.26l-.18.4,1.35-.78c.14-.08.32-.03.4.11.07.11.05.26-.04.35l-.92.95,1.14-.66c.14-.08.32-.03.4.11.07.12.04.28-.06.37l-.16.13c.15-.05.32.03.37.18.03.1.01.21-.06.29l-.19.22c.15-.06.32,0,.38.16.02.05.03.1.02.15l-.05.37c.15.05.24.22.18.37-.02.07-.07.12-.13.16l-.26.15c-.14.08-.32.03-.4-.11-.03-.06-.05-.12-.04-.19l.04-.25-.96.55c-.14.08-.32.03-.4-.11-.06-.11-.05-.24.03-.34l.19-.22-1.16.67s-.1.04-.15.04h0Z"/>
  <path class="cls-3" d="m12.66,29.36c-.16,0-.29-.13-.29-.29,0-.07.03-.14.07-.19l.9-1.04-1.18.68c-.14.08-.32.03-.4-.11-.07-.12-.04-.26.05-.36l1.05-.95-1.26.73c-.14.08-.32.03-.4-.11-.05-.09-.05-.21,0-.3l.72-1.11-1.06.61c-.14.08-.32.03-.4-.11-.03-.04-.04-.09-.04-.14v-.75c-.12,0-.22-.05-.27-.15-.08-.14-.03-.32.11-.4l.29-.17c.14-.08.32-.03.4.11.03.04.04.09.04.14v.71s1.69-.97,1.69-.97c.14-.08.32-.03.4.11.05.09.05.21,0,.3l-.72,1.11,2.56-1.48c.14-.08.32-.03.4.11.07.12.04.26-.05.36l-1.05.95.34-.2c.14-.08.32-.03.4.11.06.11.05.25-.03.34l-1.65,1.9c.03.13-.02.26-.14.33l-.34.2s-.09.04-.14.04h0Z"/>
  <path class="cls-1" d="m6.91,18.92c-.16,0-.29-.13-.29-.29,0-.1.05-.19.13-.24l4.69-3.14-6.15,3.55c-.14.08-.32.03-.4-.12-.07-.13-.03-.3.09-.38l5.29-3.51-4.98,2.87c-.14.08-.32.03-.4-.11-.07-.13-.04-.3.09-.39l5.09-3.41-4.78,2.76c-.14.08-.32.03-.4-.11-.08-.13-.04-.31.09-.39l1.99-1.29-1.68.97c-.14.08-.32.03-.4-.11-.08-.13-.04-.3.09-.39l5.12-3.61-4.74,2.74c-.14.08-.32.03-.4-.11-.08-.14-.04-.31.09-.39l.66-.43-.19.11c-.14.08-.32.03-.4-.11-.08-.13-.04-.3.09-.39l1.63-1.1-.98.56c-.14.08-.32.03-.4-.11-.08-.13-.04-.3.09-.39l1.09-.76-.18.11c-.14.08-.32.03-.4-.11-.07-.13-.04-.28.07-.37l1.5-1.18c-.15-.07-.22-.24-.15-.39.03-.06.07-.1.12-.14l2.57-1.48c.14-.08.32-.03.4.11.07.13.04.28-.07.37l-.85.68,2.69-1.55c.14-.08.32-.04.4.1.08.13.04.3-.09.39l-1.1.76,2.08-1.2c.14-.08.32-.04.4.1.08.13.04.31-.09.39l-1.63,1.1,2.38-1.38c.14-.08.32-.03.4.12.07.13.03.3-.09.38l-.66.43,1.14-.66c.14-.08.32-.03.4.11.07.13.04.29-.08.38l-5.12,3.6,6.01-3.47c.14-.08.32-.04.4.1.08.14.04.32-.1.4l-1.99,1.29,2.32-1.34c.14-.08.32-.03.4.11.07.13.03.3-.09.38l-5.09,3.41,5.55-3.2c.14-.08.32-.03.4.12.07.13.03.3-.09.38l-5.29,3.51,5.63-3.25c.14-.08.32-.03.4.11.07.13.03.3-.09.38l-4.69,3.14,4.9-2.83c.14-.08.32-.03.4.11.08.13.03.3-.09.39l-.69.44.67-.39c.14-.08.32-.04.4.1.08.14.04.32-.1.4h0l-1.2.78,1.15-.66c.14-.08.32-.03.4.11.08.13.04.3-.09.39l-.48.31.35-.2c.14-.08.32-.03.4.11.07.13.04.29-.08.38l-3,2.19,2.87-1.66c.14-.08.32-.03.4.11.07.13.04.29-.07.38l-2.15,1.65,1.88-1.09c.14-.08.32-.03.4.11.07.13.04.29-.08.38l-.46.34.14-.08c.14-.08.32-.03.4.11.06.11.05.24-.03.33l-1.09,1.29.73-.42c.14-.08.32-.03.4.11.04.06.05.14.03.21l-.17.75c.15.06.23.23.17.38-.02.06-.07.11-.13.15l-.29.17c-.14.08-.32.03-.4-.11-.04-.06-.05-.14-.03-.21l.14-.6-1.6.92c-.14.08-.32.03-.4-.11-.06-.11-.05-.24.03-.33l1.09-1.29-3.01,1.74c-.14.08-.32.03-.4-.11-.07-.13-.04-.29.08-.38l.46-.34-1.45.84c-.14.08-.32.03-.4-.11-.07-.13-.04-.29.07-.38l2.15-1.65-3.7,2.14c-.14.08-.32.03-.4-.11-.07-.13-.04-.29.08-.38l3-2.19-4.65,2.69c-.14.08-.32.03-.4-.11-.08-.13-.04-.3.09-.39l.49-.32-1.42.82c-.14.08-.32.04-.4-.1-.08-.14-.04-.32.1-.4l1.2-.78-2.22,1.28c-.14.08-.32.03-.4-.11-.08-.13-.03-.3.09-.39l.7-.45-1.64.95s-.1.04-.15.04h0Z"/>
  <path class="cls-4" d="m13.08,26.5c-.16,0-.29-.13-.29-.29,0-.09.04-.18.12-.23l.79-.57-1.64.95c-.14.08-.32.03-.4-.11-.07-.13-.04-.29.08-.38l1.24-.87-1.77,1.02c-.14.08-.32.03-.4-.12-.07-.13-.03-.29.09-.38l2.05-1.38-2.52,1.45c-.14.09-.32.05-.41-.09-.09-.14-.05-.32.09-.41l5.02-3.57-5.77,3.33c-.14.08-.32.03-.4-.11-.08-.13-.04-.3.09-.39l3.69-2.49-4.11,2.37c-.14.08-.32.03-.4-.11-.08-.13-.04-.3.09-.39l4.52-3.15-4.96,2.86c-.14.08-.32.04-.4-.1-.08-.14-.04-.31.09-.4l3.16-2.11-3.29,1.9c-.14.08-.32.04-.4-.1-.08-.14-.04-.31.09-.4l3.1-2.07-3.05,1.76c-.14.08-.32.03-.4-.11-.08-.14-.04-.31.09-.39l1.29-.85-1.1.64c-.14.08-.32.03-.4-.11-.08-.13-.04-.31.09-.39l1.14-.75-1.1.64c-.14.08-.32.03-.4-.11-.07-.13-.04-.29.08-.38l3.93-2.91-4.75,2.74c-.14.08-.32.03-.4-.11-.08-.13-.04-.31.09-.39l.7-.46-.68.39c-.14.08-.32.03-.4-.11-.07-.13-.04-.29.08-.38l3.7-2.76-3.2,1.85c-.14.08-.32.03-.4-.11-.07-.12-.04-.27.06-.37l1.88-1.63s-.02-.03-.03-.04c-.08-.14-.03-.32.11-.4l1.3-.75c.14-.08.32-.03.4.11.07.12.04.27-.06.36l-.91.79,4.87-2.81c.14-.08.32-.03.4.11.07.13.04.29-.08.38l-3.7,2.76,4.52-2.61c.14-.09.32-.04.4.09.09.14.04.32-.09.4l-.7.47,1.11-.65c.14-.08.32-.03.4.11.07.13.04.29-.08.38l-3.94,2.91,5.11-2.95c.14-.08.32-.02.4.12.07.13.03.29-.09.38l-1.14.75,1.81-1.05c.14-.08.32-.03.4.11.08.14.04.31-.09.39l-1.29.85,1.67-.97c.14-.08.32-.03.4.12.07.13.03.29-.09.38l-3.1,2.07,3.3-1.9c.14-.08.32-.03.4.12.07.13.03.29-.09.38l-3.16,2.11,3.07-1.77c.14-.08.32-.03.4.11.07.13.04.29-.08.38l-4.52,3.15,5.41-3.13c.14-.08.32-.03.4.11.08.13.04.3-.09.39l-3.69,2.49,3.82-2.2c.14-.08.32-.03.4.11.07.13.04.29-.08.38l-5.02,3.57,4.36-2.52c.14-.08.32-.03.4.11.08.13.04.3-.09.39l-2.04,1.38.29-.17c.14-.08.32-.03.4.11.08.13.04.3-.09.39l-1.24.87.63-.37c.14-.08.32-.03.4.11.07.13.04.29-.08.38l-1.24.91c.16.02.27.17.25.33-.01.09-.07.17-.14.21l-4.03,2.33s-.09.04-.15.04h0Z"/>
  <path class="cls-4" d="m24.41,34.74c-.16,0-.29-.13-.3-.29,0-.09.04-.18.12-.24l3.04-2.35-4.79,2.77c-.14.08-.32.03-.4-.11-.07-.13-.04-.29.08-.38l3.69-2.64-4.1,2.36c-.14.08-.32.02-.4-.12-.07-.13-.03-.29.08-.38l3.56-2.48-3.3,1.9c-.14.08-.32.02-.4-.12-.07-.13-.03-.29.09-.38l1.61-1.07-1.3.75c-.14.08-.32.03-.4-.11-.07-.13-.04-.29.08-.38l4.64-3.34-4.32,2.49c-.14.08-.32.03-.4-.11-.08-.14-.04-.31.09-.39l.41-.27-.11.06c-.14.08-.32.03-.4-.11-.07-.13-.04-.29.09-.38l3.61-2.51-3.3,1.9c-.14.08-.32.03-.4-.11-.07-.13-.03-.3.09-.39l.24-.16c-.16.04-.32-.04-.36-.2-.03-.12,0-.24.11-.32l4.51-3.28-4.19,2.42c-.14.08-.32.03-.4-.11-.07-.13-.04-.29.08-.38l3.47-2.59-3.14,1.82c-.14.08-.32.03-.4-.11-.08-.13-.04-.3.08-.39l1.44-1.05-1.11.65c-.14.08-.32.03-.4-.11-.07-.13-.04-.3.08-.38l.22-.16c-.16.03-.31-.08-.34-.24-.02-.09.01-.18.08-.25l1.17-1.24-.81.47c-.14.08-.32.03-.4-.11-.06-.1-.05-.23.02-.33l.34-.44c-.16-.03-.26-.19-.23-.34.02-.08.07-.15.14-.2l.97-.56c.14-.08.32-.03.4.11.06.1.05.23-.02.32l-.23.29,1.26-.73c.14-.08.32-.03.4.11.06.11.05.25-.04.35l-1.17,1.24,2.93-1.69c.14-.08.32-.03.4.11.07.13.04.3-.08.38l-.08.06.95-.55c.14-.08.32-.03.4.11.08.13.04.3-.08.39l-1.44,1.04,2.66-1.54c.14-.08.32-.03.4.11.07.13.04.29-.08.38l-3.47,2.59,4.75-2.74c.14-.08.32-.03.4.11.07.13.04.29-.08.38l-4.51,3.28,4.53-2.61c.14-.08.32-.03.4.11.07.13.03.3-.09.39l-.24.16c.16-.04.32.05.36.2.03.12-.01.25-.11.32l-3.61,2.51,3.3-1.9c.14-.08.32-.03.4.11.08.14.04.31-.09.39l-.42.27.11-.07c.14-.08.32-.03.4.11.07.13.04.29-.08.38l-4.64,3.34,4.32-2.49c.14-.08.32-.03.4.12.07.13.03.3-.09.38l-1.6,1.07,1.3-.75c.14-.08.32-.03.4.11.07.13.04.29-.09.38l-3.57,2.48,3.25-1.88c.14-.08.32-.03.4.11.07.13.04.29-.08.38l-3.69,2.64,3.37-1.95c.14-.08.32-.03.4.11.07.13.04.29-.07.38l-3.04,2.35,2.72-1.57c.14-.08.32-.03.4.11.07.12.04.28-.07.37l-1.74,1.41,1.41-.81c.14-.08.32-.03.4.11.07.13.04.29-.07.38l-.36.29.03-.02c.14-.08.32-.03.4.11.06.1.05.22-.02.32l-.58.8.13-.07c.14-.08.32-.02.4.12.07.14.03.3-.1.38l-1.33.76c-.14.08-.32.03-.4-.11-.06-.1-.05-.22.02-.32l.58-.8-2.12,1.22c-.14.08-.32.03-.4-.11-.07-.12-.04-.28.07-.37l.36-.29-1.34.77c-.14.08-.32.03-.4-.11-.07-.12-.04-.28.07-.37l1.74-1.41-3.28,1.89s-.1.04-.15.04h0Z"/>
  <path class="cls-1" d="m25.28,26.53c-.16,0-.29-.13-.29-.29,0-.08.03-.16.09-.21l1.21-1.16-2.19,1.27c-.14.08-.32.03-.4-.11-.06-.11-.04-.26.05-.35l.95-.94-.64.37c-.14.08-.32.03-.4-.11-.05-.08-.05-.18-.01-.27l.33-.69c-.12.01-.23-.04-.29-.14-.08-.14-.03-.32.11-.4l.68-.39c.14-.08.32-.03.4.11.05.08.05.18.01.27l-.31.65,1.79-1.03c.14-.08.32-.03.4.11.06.11.04.26-.05.35l-.94.94,2.32-1.34c.14-.08.32-.04.4.1.07.12.05.27-.05.37l-1.21,1.16,1.18-.69c.14-.08.32-.03.4.11.06.11.05.25-.04.34l-.44.48.08-.05c.14-.08.32-.02.4.12.07.14.03.3-.1.38l-1.76,1.01c-.14.08-.32.03-.4-.11-.06-.11-.05-.25.04-.35l.44-.48-1.61.93s-.09.04-.15.04h0Z"/>
  <g>
    <path class="cls-2" d="m34.88,2.1c.22-1.41-.96-2.19-2.28-1.95h-13.1c-4.71-.79-2.7,5.04-3.08,7.87-4.08-1.97-8.99-.26-10.97,3.82-.23.48-.42.98-.55,1.49-.1,2.21-1.39,6.56,1.55,7.25-.12,2.34,1.7,3.83,3.52,5.01,0,.2,0,.38,0,.59-4.01,1.18-9.67,2.39-9.96,7.5.08.92.94.99,1.66.99,6.87,0,13.75,0,20.63,0,13.25,1.12,8.13-1.52,9.08-12.56-.29-2.71-6.43-1.04-8.49-1.46-3.16.41-1.28,4.98-1.78,7.18-1.84-.65-3.72-1.17-5.57-1.78v-.61c1.77-1.16,3.58-2.66,3.52-4.94,2.21-.4,1.75-2.85,1.79-4.54,16.84-.25,13.93,3.09,14.05-13.89h0ZM3.36,34.25c-4.02.81-2.19-2.81-.73-4.53,1.21-1.26,2.75-1.68,4.34-2.18-.67,2.19-.65,4.53.04,6.72h-3.65Zm7.28-.08l-.02.08h-2.69c-.76-2.21-.8-4.6-.11-6.83.96.94,1.58,3.08,3.05,3.12.5,1.2-.04,2.41-.23,3.63h0Zm-.34-4.78l-1.75-2.35,1.54-.49c.74.9,1.45,1.81,2.18,2.72-.73.64-1.36,1.36-1.98.12h0Zm.53-3.27v-.06c1.22.59,2.65.55,3.84-.12v.31c-.62.78-1.25,1.56-1.87,2.33l-1.97-2.46Zm2.85,4.26s.08.04.12.05c-.08.3-.15.6-.23.9h-1.59c-.09-.36-.18-.73-.28-1.09.33-.2.64-.42.93-.67.32.3.67.56,1.04.8h0Zm-2.24,3.86l.5-2.52h1.57c.17.84.34,1.68.5,2.52h-2.58Zm10.54-12.14c.36-1.58,2.64-.55,3.82-.83,1.3.03,2.62-.05,3.92,0,1.8.8.34,9.05.79,11.34.42,2.57-3.04,1.23-4.56,1.54-1.23-.25-3.2.64-3.92-.64-.1-3.78-.05-7.62-.04-11.4h0Zm-3.37,5.56c.85.23,1.68.53,2.48.89.18,1.8-.44,4.07.39,5.68h-3.06c.72-2.12.78-4.41.18-6.57Zm-1-.31c.73,2.24.73,4.65,0,6.89h-2.7c-.15-1.24-.8-2.49-.33-3.71,1.5-.37,2.04-2.13,3.01-3.18h.02Zm-.63-.2c-1.3,1.28-1.83,4.24-3.74,1.95.67-.83,1.34-1.66,1.99-2.5l1.75.55Zm1.83-7.01c-1.28.16.15,2.86-3.62,4.98-.24,0-.52.13-.52.33-1.3.83-2.61.63-3.86-.15-.05-.11-.16-.19-.29-.18-2.35-1.41-2.88-2.75-3.47-4.98-1.64-.09-2.15-2.96-.33-3.05.14,0,.58-.08.59-.29.06-2.18,2.76-1.66,4.14-2.54,1-.9,1.87-.35,2.85.22.94.46,2.06.45,2.99.87.55.35.89.96.89,1.61,0,.1.19.12.26.12,1.63.09,2.14,2.92.36,3.05h0Zm1.16-3.13c-.29-.19-.61-.31-.95-.35-.18-2.46-3.23-1.85-4.79-2.93-.52-.28-.9-.69-1.53-.61-1.88,1.47-5.62.99-6.22,3.59-.34.08-.65.21-.94.4-1.5-12.25,15.64-12.18,14.42-.11h0Zm14.04-2.27c-.16.76-.89.66-1.48.65v-2.17c-1.25-.52-.77,1.44-.85,2.17h-1.49c.33-2.43-1.15-2.35-.86,0h-1.49c-.12-.68.25-1.78-.16-2.26-1.19-.09-.54,1.52-.69,2.26h-1.5c.39-4.68-1.19-4.6-.85,0h-1.5c.41-6.99-1.22-6.91-.85,0h-1.47c.04-1.71-.47-3.4-1.44-4.81l3.24-3.24c1.57.94,3.62,5.48,5.28,2.93.89.54,1.69,2.62,2.83,1.87,2.41-2.04,1.95-2.82-.29-.44-1.11-.97-2.25-3.17-3.52-1.17-4.39-4.22-3.3-5.27-7.84-.38-.51-.64-1.12-1.2-1.8-1.65-.34-11.51-.79-6.89,13.89-7.78,1.04,0,2.82-.39,2.85,1.13,0,4.29.03,8.61-.02,12.89h0Z"/>
    <path class="cls-2" d="m23.46,25.71c.48,1.65,3.16.52,4.49.84,1.49-.08,1.06-1.98,1-2.99-.62-.97-2.08-.35-3.05-.52-2.26-.29-2.67.57-2.44,2.67h0Zm.88-2.1h0s-.03,0,0,0h0Zm.03.04s.01-.03.02-.04c2.37.25,4.45-1.13,3.69,2.36-2.39-.29-4.38,1.19-3.7-2.32h0Z"/>
    <path class="cls-2" d="m24.16,28.41c-.61-.15-.98.71-.54.98.61.16.98-.71.54-.98Z"/>
    <path class="cls-2" d="m26.02,29.43c.61.13.82-.65.55-1.04-.66-.33-1.12.81-.55,1.04Z"/>
    <path class="cls-2" d="m28.62,29.32c.48-.04.4-.46.39-.83-.2-.15-.54,0-.75.11-.23.28-.18,1,.36.72Z"/>
    <path class="cls-2" d="m24.16,31.35c-.67-.13-.96.74-.55.95.67.13.96-.74.55-.95Z"/>
    <path class="cls-2" d="m26.57,31.32c-.65-.27-1,.56-.67,1.01.65.27.99-.56.67-1.01Z"/>
    <path class="cls-2" d="m28.92,31.32c-.65-.28-.99.57-.67,1.02.65.28.99-.57.67-1.02Z"/>
    <path class="cls-2" d="m30.62,5.43c-.98.12-1.45-1.4-.48-1.74.35-.04.68.15.83.46,1.3.5.76-.99-.2-1.03.25-.84-1.03-.67-.85.05-1.56.33-1.53,2.72.15,2.85.52-.04.98.36,1.01.88,0,.09,0,.17-.02.26-.06.38-.41.65-.79.59-.25-.04-.47-.21-.56-.45-.19-.31-1.01,0-.78.37.22.35.57.59.98.66-.26.79,1,.6.85-.05,1.56-.33,1.53-2.72-.14-2.85h0Z"/>
  </g>
</svg>