<?xml version="1.0" encoding="UTF-8"?>
<svg id="Layer_1" data-name="Layer 1" xmlns="http://www.w3.org/2000/svg" viewBox="0 0 35 35">
  <defs>
    <style>
      .cls-1 {
        fill: #f47721;
      }

      .cls-1, .cls-2, .cls-3, .cls-4, .cls-5, .cls-6 {
        stroke-width: 0px;
      }

      .cls-3 {
        fill: #f6883b;
      }

      .cls-4 {
        fill: #f6fafd;
      }

      .cls-5 {
        fill: #fff;
      }

      .cls-6 {
        fill: #c1dbf0;
      }
    </style>
  </defs>
  <path class="cls-1" d="m16.99,30.01c-.16,0-.29-.13-.29-.29,0-.1.05-.19.13-.24l.14-.1-.87.5c-.14.08-.32.03-.4-.12-.07-.13-.03-.29.09-.38l2.54-1.75-3.49,2.01c-.14.08-.32.04-.4-.1-.08-.13-.04-.3.08-.39l4.02-2.87-5.1,2.94c-.14.08-.32.03-.4-.11-.07-.13-.04-.3.08-.38l3.69-2.58-4.51,2.6c-.14.08-.32.04-.4-.1-.08-.13-.04-.31.09-.39l2.93-2.02-3.53,2.04c-.14.08-.32.03-.4-.11-.08-.13-.04-.3.08-.39l2.88-2.04-3.42,1.98c-.14.08-.32.03-.4-.11-.07-.13-.04-.3.09-.38l.76-.51-1.01.59c-.14.08-.32.03-.4-.11-.08-.13-.04-.3.09-.39l1-.69-1.24.72c-.14.08-.32.03-.4-.11-.07-.13-.04-.29.08-.38l1.33-.97-1.15.66c-.14.08-.32.03-.4-.11-.07-.12-.05-.26.05-.35l1.52-1.5h0c-.14.09-.32.05-.4-.08-.09-.14-.05-.32.09-.4,0,0,.01,0,.02-.01l2-1.15c.14-.08.32-.03.4.11.07.12.05.26-.05.35l-1.52,1.5,4-2.31c.14-.08.32-.03.4.11.07.13.04.29-.08.38l-1.33.97,2.53-1.46c.14-.08.32-.03.4.11.08.13.04.3-.09.39l-1,.7,2.06-1.19c.14-.08.32-.03.4.11.08.13.04.3-.09.39l-.76.51,1.75-1.01c.14-.08.32-.03.4.11.08.13.04.3-.08.39l-2.87,2.03,4.38-2.53c.14-.08.32-.04.4.1.08.13.04.31-.09.39l-2.94,2.02,3.94-2.28c.14-.08.32-.03.4.11.07.13.04.3-.08.38l-3.69,2.58,4.57-2.64c.14-.08.32-.04.4.1.08.13.04.3-.08.39l-4.01,2.87,4.67-2.69c.14-.08.32-.03.4.11.08.13.04.3-.09.39l-2.54,1.75,2.8-1.62c.14-.08.32-.03.4.11.07.13.03.3-.09.39l-.15.1.18-.1c.14-.08.32-.03.4.11.07.13.04.29-.08.38l-2.34,1.72,2.38-1.38c.14-.08.32-.03.4.11.07.13.04.29-.08.38l-.45.32.34-.2c.14-.09.32-.05.4.09.09.14.05.32-.09.4,0,0-.01,0-.02.01l-5.31,3.06c-.14.08-.32.03-.4-.11-.07-.13-.04-.29.08-.38l.45-.32-2.03,1.17c-.14.08-.32.03-.4-.11-.07-.13-.04-.29.08-.38l2.34-1.72-3.93,2.27s-.09.04-.15.04h0Z"/>
  <g>
    <path class="cls-6" d="m21.11,31.98c-.16,0-.29-.13-.29-.29,0-.1.06-.2.15-.25l9.1-5.26c.14-.08.32-.03.4.11.07.13.04.29-.07.38l-1.01.78.98-.57c.14-.08.32-.03.4.11.07.12.05.27-.05.36l-1.62,1.51,1.36-.78c.14-.08.32-.03.4.11.07.12.04.27-.06.36l-1.57,1.35c.08.14.03.32-.11.4l-1.12.65c-.14.08-.32.03-.4-.1-.07-.12-.05-.28.06-.37l.38-.33-.9.52c-.14.08-.32.03-.4-.11-.07-.12-.05-.27.05-.36l1.62-1.51-2.52,1.46c-.14.08-.32.03-.4-.11-.07-.13-.04-.28.07-.37l1.01-.78-5.32,3.07s-.1.04-.15.04h0Z"/>
    <path class="cls-6" d="m32.84,20.44c-.16,0-.29-.13-.29-.29,0-.1.06-.2.15-.25l1.51-.87c.14-.09.32-.05.4.09.09.14.05.32-.09.4,0,0-.01,0-.02.01l-1.5.87s-.1.04-.15.04h0Z"/>
    <path class="cls-6" d="m26.25,26.55c-.16,0-.29-.13-.29-.29,0-.09.04-.18.11-.23l2.07-1.65-.04.02c-.14.08-.32.03-.4-.11-.07-.12-.04-.28.07-.37l1.07-.88c-.15.07-.32.01-.39-.13-.06-.13-.02-.28.09-.37l1.49-1.09-.67.39c-.14.08-.32.03-.4-.11-.07-.13-.04-.29.08-.38l1.1-.81-.47.27c-.14.08-.32.03-.4-.11-.07-.12-.04-.28.07-.37l2.31-1.92-1.7.98c-.14.08-.32.03-.4-.11-.07-.13-.04-.29.08-.38l.62-.47-.22.12c-.14.08-.32.03-.4-.11-.07-.12-.04-.26.05-.36l1.54-1.4-1.18.68c-.14.08-.32.03-.4-.11-.06-.11-.05-.25.04-.35l.96-1-.68.39c-.14.08-.32.03-.4-.11-.06-.1-.05-.24.03-.33l.87-1.08-.69.4c-.14.08-.32.03-.4-.11-.06-.11-.05-.25.03-.34l.6-.68-.45.26c-.14.08-.32.03-.4-.11-.06-.1-.05-.23.03-.33l.69-.86-.63.37c-.14.08-.32.03-.4-.11-.07-.11-.05-.26.05-.35l.21-.21-.1.06c-.14.08-.32.03-.4-.11-.06-.11-.05-.25.03-.34l.47-.54-.45.26c-.14.08-.32.03-.4-.11-.06-.1-.05-.22.01-.31l.7-1.02-.85.49c-.14.08-.32.03-.4-.11-.06-.11-.05-.25.04-.35l1.01-1.07-1.22.7c-.14.08-.32.02-.4-.12-.06-.12-.04-.26.05-.35l1.26-1.13-1.51.87c-.14.08-.32.03-.4-.11-.07-.13-.04-.29.07-.38l.24-.19-.35.2c-.14.08-.32.03-.4-.11-.07-.12-.05-.26.05-.36l1.61-1.57-2.14,1.23c-.14.08-.32.03-.4-.11-.07-.12-.04-.27.06-.36l1.32-1.17-1.77,1.03c-.14.08-.32.03-.4-.11-.07-.12-.04-.28.06-.37l1.11-.94-1.57.9c-.14.08-.32.03-.4-.11-.06-.11-.05-.24.03-.33l.4-.47-.82.48c-.14.08-.32.03-.4-.11-.06-.11-.04-.25.05-.35l.09-.09-.41.23c-.14.08-.32.03-.4-.11-.06-.11-.05-.24.03-.33l.47-.58-1.11.64c-.14.08-.32.03-.4-.11-.05-.09-.05-.2,0-.29l.61-1.06-1.81,1.05c-.14.08-.32.03-.4-.11-.07-.11-.05-.26.04-.35l.36-.37-1.17.67c-.14.08-.32.03-.4-.11-.06-.11-.05-.24.03-.33l.8-.95-2.38,1.37c-.14.08-.32.04-.4-.1-.07-.12-.05-.28.06-.37l1.6-1.52-4.78,2.76c-.14.08-.32.02-.4-.12-.07-.14-.03-.3.1-.38l6.93-4c.14-.08.32-.04.4.1.07.12.05.28-.06.37l-1.6,1.52,1.67-.97c.14-.08.32-.03.4.11.06.11.05.24-.03.33l-.8.95,1.56-.9c.14-.08.32-.03.4.11.07.11.05.26-.04.35l-.36.37.92-.53c.14-.08.32-.03.4.11.05.09.05.2,0,.29l-.61,1.06,1.54-.89c.14-.08.32-.03.4.11.06.11.05.24-.03.33l-.47.58.97-.56c.14-.08.32-.03.4.11.06.11.04.25-.05.35l-.09.09.34-.2c.14-.08.32-.03.4.11.06.11.05.24-.03.33l-.4.47,2.9-1.67c.14-.08.32-.03.4.11.07.12.04.28-.06.37l-1.11.94,1.49-.86c.14-.08.32-.03.4.11.07.12.05.27-.06.37l-1.32,1.17,1.67-.97c.14-.08.32-.03.4.11.07.12.05.26-.05.36l-1.62,1.57,2.05-1.18c.14-.08.32-.03.4.11.07.13.04.29-.07.38l-.24.19.21-.12c.14-.08.32-.03.4.11.07.12.04.27-.06.36l-1.26,1.13.53-.3c.14-.08.32-.03.4.1.07.11.05.26-.04.35l-1.02,1.06.23-.13c.14-.08.32-.03.4.11.06.1.05.22-.01.32l-.7,1.02.86-.49c.14-.08.32-.03.4.11.06.11.05.24-.03.34l-.47.54.46-.27c.14-.08.32-.03.4.11.06.11.05.26-.04.35l-.21.21.11-.06c.14-.08.32-.03.4.11.06.1.05.24-.03.33l-.69.86.66-.38c.14-.08.32-.03.4.11.06.11.05.25-.03.34l-.6.68.49-.28c.14-.08.32-.03.4.11.06.1.05.24-.03.33l-.87,1.08,1.09-.63c.14-.08.32-.03.4.11.06.11.05.25-.04.35l-.96,1,1.74-1.01c.14-.08.32-.03.4.11.07.12.04.26-.05.36l-1.54,1.4,2.14-1.23c.14-.08.32-.03.4.11.07.13.04.29-.08.38l-.62.47.43-.25c.14-.08.32-.03.4.11.07.12.04.28-.07.37l-2.31,1.92,2.01-1.16c.14-.08.32-.03.4.11.07.13.04.29-.08.38l-1.1.81.75-.43c.14-.08.32-.03.4.11.07.13.04.29-.08.38l-2.75,2.02s.05.04.07.07c.09.13.06.3-.05.39l-1.06.87.4-.23c.14-.08.32-.03.4.11.07.13.04.28-.07.37l-2.08,1.65,1.17-.67c.14-.08.32-.02.4.12.07.14.03.3-.1.38l-4.57,2.64s-.1.04-.15.04h0Z"/>
    <path class="cls-6" d="m16.95,34.75c-.16,0-.29-.13-.29-.29,0-.1.05-.19.13-.24l5.57-3.73-6.72,3.88c-.14.08-.32.04-.4-.1-.08-.14-.04-.32.1-.4l3.26-2.07-3.3,1.91c-.14.08-.32.03-.4-.11-.07-.13-.04-.3.08-.38l.68-.48-.61.35c-.14.08-.32.03-.4-.11-.07-.12-.05-.27.05-.36l1.3-1.19-1.32.76c-.14.08-.32.03-.4-.11-.06-.1-.05-.23.02-.33l.75-.95-1.64.95c-.14.08-.32.03-.4-.11-.07-.12-.05-.26.05-.35l.26-.25-.74.43c-.14.08-.32.03-.4-.11-.06-.11-.05-.25.04-.35l.37-.39-.86.5c-.14.08-.32.03-.4-.11-.06-.11-.05-.24.03-.34l.43-.5-.92.53c-.11.07-.26.05-.36-.04-.09-.1-.11-.24-.04-.36l.59-.99-1.31.75c-.14.08-.32.03-.4-.11-.05-.09-.05-.21,0-.3l.59-.93-3.31,1.91c-.14.08-.32.03-.4-.11-.07-.12-.04-.26.05-.36l1.44-1.31-1.87,1.08c-.14.08-.32.03-.4-.11-.07-.12-.04-.28.07-.37l.87-.72-1.1.63c-.14.08-.32.03-.4-.11-.07-.12-.04-.26.05-.36l1.41-1.28-1.73.99c-.14.08-.32.04-.4-.1-.07-.12-.05-.27.05-.36l1.61-1.56-1.12.65c-.14.08-.32.03-.4-.11-.06-.11-.05-.25.04-.34l1.22-1.31-.28.16c-.14.08-.32.03-.4-.11-.06-.11-.04-.26.05-.35l.05-.05h0c-.14.08-.32.04-.4-.1-.06-.11-.05-.25.04-.35l.28-.3-.26.15c-.14.08-.32.03-.4-.11-.06-.11-.05-.26.04-.35l.19-.2-.12.07c-.14.08-.32.03-.4-.11-.06-.1-.05-.22.01-.31l.8-1.15-.86.5c-.14.08-.32.03-.4-.11-.06-.11-.04-.25.05-.35l.2-.2-.07.04c-.14.08-.32.03-.4-.11-.06-.11-.05-.25.04-.35l.37-.38-.22.13c-.14.08-.32.04-.4-.1-.07-.12-.05-.27.05-.37l.19-.18h-.01c-.14.09-.32.04-.4-.1-.06-.11-.05-.24.03-.33l.96-1.17-1.83,1.06c-.14.08-.32.03-.4-.11-.07-.12-.05-.26.05-.36l1.55-1.52-2.37,1.37c-.14.08-.32.03-.4-.11-.07-.13-.04-.29.07-.38l.99-.77-.88.51c-.14.08-.32.03-.4-.11-.07-.13-.04-.29.08-.38l.21-.15c-.16.04-.32-.06-.36-.21-.03-.11.01-.23.1-.3l1.98-1.56-1.65.95c-.14.08-.32.03-.4-.11-.06-.1-.05-.23.02-.33l.66-.85-.13.07c-.14.09-.32.05-.4-.09-.09-.14-.05-.32.09-.4,0,0,.01,0,.02-.01l1.44-.83c.14-.08.32-.03.4.11.06.1.05.23-.02.33l-.66.85,3.82-2.2c.14-.08.32-.03.4.11.07.13.04.29-.07.38l-1.98,1.56,1.34-.78c.14-.08.32-.03.4.11.07.13.04.29-.08.38l-.32.23c.11-.01.21.04.28.13.09.13.06.3-.06.4l-.99.76.59-.34c.14-.08.32-.03.4.11.07.12.05.26-.05.36l-1.55,1.52,1.2-.7c.14-.08.32-.03.4.11.06.1.05.24-.03.33l-.96,1.17.71-.41c.14-.08.32-.04.4.1.07.12.05.27-.05.37l-.2.19c.15-.06.32,0,.39.15.05.11.02.24-.06.32l-.37.38.19-.11c.14-.08.32-.03.4.11.06.11.04.25-.05.35l-.2.2.04-.02c.14-.08.32-.03.4.11.06.1.05.22-.01.31l-.8,1.15.84-.48c.14-.08.32-.03.4.11.07.11.05.26-.04.35l-.19.2.12-.07c.14-.08.32-.03.4.1.07.11.05.25-.04.35l-.28.3.26-.15c.14-.08.32-.03.4.11.06.11.04.26-.05.35l-.05.05h0c.14-.08.32-.03.4.11.06.11.05.25-.04.34l-1.21,1.31,1.5-.86c.14-.08.32-.04.4.1.07.12.05.27-.05.36l-1.61,1.56,2.01-1.16c.14-.08.32-.03.4.11.07.12.04.26-.05.36l-1.41,1.28,1.79-1.03c.14-.08.32-.03.4.11.07.12.04.28-.07.37l-.87.73,1.17-.67c.14-.08.32-.03.4.11.07.12.04.26-.05.36l-1.44,1.31,1.99-1.15c.14-.08.32-.03.4.11.05.09.05.21,0,.3l-.59.93,1.25-.72c.14-.08.32-.03.4.11.05.09.05.2,0,.3l-.59.99,1.44-.83c.14-.08.32-.03.4.11.06.11.05.24-.03.34l-.44.5,1.06-.61c.14-.08.32-.03.4.11.06.11.05.25-.04.34l-.37.39,1.04-.6c.14-.08.32-.03.4.11.07.12.05.26-.05.35l-.26.25.96-.55c.14-.08.32-.03.4.11.06.1.05.23-.02.33l-.75.95,2.31-1.33c.14-.08.32-.03.4.11.07.12.05.27-.05.36l-1.3,1.19,3.62-2.09c.14-.08.32-.03.4.11.07.13.04.3-.08.38l-.68.49,9.79-5.65c.14-.08.32-.04.4.1s.04.32-.1.4l-3.25,2.07,2.64-1.52c.14-.08.32-.03.4.11.07.13.04.3-.09.38l-9.55,6.38c.05.1.04.22-.03.31l-.7.92c.07.02.13.07.16.13.08.14.03.32-.11.4l-.89.51c-.14.08-.32.03-.4-.11-.06-.1-.05-.23.02-.32l.55-.72-2.06,1.19s-.1.04-.15.04h0Z"/>
    <path class="cls-6" d="m14.83,2.66c-.16,0-.29-.13-.29-.29,0-.07.02-.13.06-.18l.65-.82c-.15-.06-.23-.23-.17-.38.02-.06.07-.12.13-.15l.89-.51c.14-.08.32-.03.4.11.06.1.05.23-.02.33l-.46.59,1.85-1.07c.14-.09.32-.05.4.09.09.14.05.32-.09.4,0,0-.01,0-.02.01l-3.17,1.83s-.1.04-.15.04Z"/>
    <path class="cls-6" d="m3.28,14.54c-.16,0-.29-.13-.29-.29,0-.08.04-.17.1-.22l1.48-1.28-.78.45c-.14.08-.32.03-.4-.11-.07-.12-.04-.28.07-.37l1.78-1.41-.92.53c-.14.08-.32.03-.4-.11-.07-.13-.03-.3.09-.39l7.32-4.82-6.04,3.49c-.14.08-.32.03-.4-.11-.07-.13-.04-.29.08-.38l4.25-3.06-4.19,2.42c-.14.08-.32.03-.4-.11-.07-.12-.04-.28.07-.37l1.67-1.39-1.71.99c-.14.08-.32.04-.4-.1-.07-.12-.05-.28.06-.37l1.2-1.02-.92.53c-.14.08-.32.03-.4-.11-.07-.12-.04-.27.06-.37l1.62-1.41h0c-.08-.15-.03-.33.11-.41l1.13-.65c.14-.08.32-.03.4.11.07.12.05.28-.06.37l-.53.47,1.09-.63c.14-.08.32-.03.4.11.07.12.04.28-.06.37l-1.2,1.02,1.87-1.08c.14-.08.32-.03.4.1.07.12.04.28-.07.37l-1.67,1.39,6.29-3.63c.14-.08.32-.03.4.11.07.13.04.29-.08.38l-4.25,3.06L19.67,1.01c.14-.08.32-.03.4.11.07.13.03.3-.09.39l-11.19,7.37c.09.13.06.3-.06.39l-1.78,1.42c.15-.07.32,0,.39.14.06.12.03.26-.07.35l-1.48,1.28.3-.18c.14-.09.32-.05.4.09s.05.32-.09.4c0,0-.01,0-.02.01l-2.94,1.7s-.1.04-.15.04h0Z"/>
  </g>
  <path class="cls-3" d="m16.51,29.99c-.16,0-.29-.13-.29-.29,0-.08.03-.15.08-.21l.83-.85-.98.57c-.14.08-.32.04-.4-.1-.07-.12-.05-.27.05-.37l.94-.9-.43.25c-.14.08-.32.03-.4-.11-.06-.1-.05-.22.01-.31l.7-1-.12.07c-.14.08-.32.03-.4-.11-.08-.14-.03-.32.11-.4l1.26-.73c.14-.08.32-.03.4.11.06.1.05.22-.01.31l-.7,1,1.41-.81c.14-.08.32-.04.4.1.07.12.05.27-.05.37l-.94.9.73-.42c.14-.08.32-.03.4.11.07.11.05.26-.04.35l-.84.85.62-.36c.14-.08.32-.03.4.11.06.1.05.23-.02.32l-.22.3c.15-.05.32.03.37.19.04.13,0,.27-.12.34l-1.16.67c-.14.08-.32.03-.4-.11-.06-.1-.05-.23.02-.32l.22-.29-1.27.73s-.1.04-.15.04h0Z"/>
  <path class="cls-1" d="m17.29,26.58c-.16,0-.29-.13-.29-.29,0-.07.03-.14.07-.19l.37-.43-.98.57c-.14.08-.32.03-.4-.11-.07-.11-.05-.26.04-.35l.42-.42-.25.14c-.14.08-.32.03-.4-.11-.06-.11-.05-.24.03-.34l.94-1.07h0c-.08-.15-.03-.33.11-.41l.57-.33c.14-.08.32-.03.4.11.06.11.05.24-.03.34l-.36.4.56-.32c.14-.08.32-.03.4.11.07.11.05.26-.04.35l-.42.42.62-.36c.14-.08.32-.03.4.11.06.11.05.24-.03.34l-.37.43.17-.1c.14-.08.32-.02.4.12.07.14.03.3-.1.38l-1.66.96s-.09.04-.14.04h0Z"/>
  <path class="cls-4" d="m18.8,24.89c-.16,0-.29-.13-.29-.29,0-.09.04-.17.11-.23l.13-.11-.25.14c-.14.08-.32.02-.4-.12-.05-.1-.04-.23.03-.32l.79-.9-1.13.65c-.14.09-.32.05-.4-.09-.09-.14-.05-.32.09-.4,0,0,.01,0,.02-.01l2.66-1.54c.14-.08.32-.03.4.11.06.11.05.24-.03.34l-.79.9,1.68-.97c.14-.08.32-.03.4.11.07.12.04.28-.07.37l-.99.83s.05.05.07.08c.08.14.03.32-.11.4l-1.77,1.02s-.1.04-.15.04Z"/>
  <path class="cls-4" d="m15.25,24.76c-.16,0-.29-.13-.3-.29,0-.09.04-.18.12-.24l.2-.16-.28.16c-.14.08-.32.03-.4-.11-.06-.1-.05-.23.02-.32l.91-1.21-1.28.74c-.14.08-.32.03-.4-.11-.02-.04-.04-.09-.04-.14v-.45s-.1.05-.1.05c-.14.09-.32.05-.4-.09-.09-.14-.05-.32.09-.4,0,0,.01,0,.02-.01l.52-.3c.14-.08.32-.03.4.11.02.04.04.09.04.14v.45s2.11-1.21,2.11-1.21c.14-.08.32-.03.4.11.06.1.05.23-.02.32l-.91,1.21,2.84-1.64c.14-.08.32-.03.4.11.07.13.04.29-.07.38l-.2.16.81-.47c.14-.09.32-.05.4.09.09.14.05.32-.09.4,0,0-.01,0-.02.01l-4.62,2.67s-.1.04-.15.04h0Z"/>
  <path class="cls-6" d="m12.97,15.45c-.16,0-.29-.13-.29-.29,0-.1.05-.19.13-.24l1.4-.95-1.78,1.02c-.14.08-.32.03-.4-.11-.08-.13-.04-.3.08-.39l2.95-2.09-2.63,1.52c-.14.08-.32.03-.4-.11-.07-.13-.04-.29.08-.38l2.89-2.14-2.49,1.44c-.14.08-.32.03-.4-.11-.07-.13-.04-.29.08-.38l1.6-1.18-.95.55c-.14.08-.32.02-.4-.12-.06-.12-.04-.26.05-.35l1.43-1.28c-.16,0-.29-.15-.28-.31,0-.1.06-.19.15-.24l2.11-1.22c.14-.08.32-.02.4.12.06.12.04.26-.05.35l-1.26,1.13,3.09-1.78c.14-.08.32-.03.4.11.07.13.04.29-.08.38l-1.6,1.18,2.41-1.39c.14-.08.32-.03.4.11.07.13.04.29-.08.38l-2.89,2.14,3.64-2.1c.14-.08.32-.03.4.11.08.13.04.3-.08.39l-2.94,2.08,3.4-1.96c.14-.08.32-.03.4.12.07.13.03.29-.09.38l-1.4.95,1.58-.91c.14-.08.32-.03.4.11.07.13.04.28-.07.37l-3.08,2.39,3.35-1.94c.14-.08.32-.03.4.11.07.12.04.28-.07.37l-2.27,1.89,2.31-1.33c.14-.08.32-.03.4.11.07.12.04.27-.06.36l-1.17,1.02.98-.56c.14-.08.32-.03.4.11.06.11.05.24-.03.34l-.69.81.34-.2c.14-.08.32-.03.4.11.04.07.05.15.03.22l-.14.53c.15.07.2.25.13.39-.03.05-.07.09-.12.12l-.29.17c-.14.08-.32.03-.4-.11-.04-.07-.05-.15-.03-.22l.1-.35-1.19.68c-.14.08-.32.03-.4-.11-.06-.11-.05-.24.03-.34l.69-.81-2.18,1.26c-.14.08-.32.03-.4-.11-.07-.12-.04-.27.06-.36l1.17-1.02-2.59,1.49c-.14.08-.32.03-.4-.11-.07-.12-.04-.28.07-.37l2.27-1.89-4.12,2.38c-.14.08-.32.03-.4-.11-.07-.13-.04-.28.07-.37l3.08-2.39-4.99,2.88s-.1.04-.15.04h0Z"/>
  <path class="cls-5" d="m17.44,23.54c-.16,0-.29-.13-.29-.29,0-.07.03-.15.08-.2l.5-.53-.71.41c-.14.08-.32.04-.4-.1-.07-.12-.05-.28.06-.37l.59-.55-.8.46c-.14.08-.32.03-.4-.11-.06-.1-.05-.23.02-.33l.41-.51-.54.31c-.14.08-.32.03-.4-.11-.04-.07-.05-.15-.03-.22l.16-.57c-.05-.03-.1-.07-.13-.12-.08-.14-.03-.32.11-.4l.29-.17c.14-.08.32-.03.4.11.04.07.05.15.03.22l-.11.4,1.28-.74c.14-.08.32-.03.4.11.06.1.05.24-.03.33l-.41.51,1.63-.94c.14-.08.32-.04.4.1.07.12.05.27-.06.37l-.59.55.24-.14c.14-.08.32-.03.4.11.06.11.05.25-.04.34l-1.29,1.38c.05.13,0,.29-.13.36l-.49.29s-.09.04-.14.04h0Z"/>
  <path class="cls-5" d="m17.09,21.23c-.16,0-.29-.13-.29-.29,0-.09.04-.17.11-.23l1.52-1.23-2.22,1.28c-.14.08-.32.03-.4-.11-.07-.13-.04-.29.08-.38l2.32-1.7-2.85,1.65c-.14.08-.32.03-.4-.11-.07-.13-.04-.3.08-.38l2-1.4-2.33,1.34c-.14.08-.32.03-.4-.11-.08-.13-.04-.29.08-.38l3.24-2.41-3.57,2.06c-.14.08-.32.03-.4-.12-.07-.13-.03-.29.09-.38l.73-.49-.64.37c-.14.08-.32.03-.4-.11-.08-.13-.04-.3.09-.39l1.7-1.19-1.55.89c-.14.08-.32.03-.4-.11-.08-.13-.04-.3.09-.39l.79-.55-.55.31c-.14.08-.32.03-.4-.11-.07-.12-.04-.28.06-.37l2.5-2.1-3.2,1.85c-.14.08-.32.03-.4-.11-.07-.13-.04-.29.08-.38l1.31-.98-1.09.63c-.14.08-.32.03-.4-.12-.06-.12-.04-.26.05-.35l1.27-1.15v-.02c-.09-.14-.04-.32.1-.4l1.04-.6c.14-.08.32-.03.4.12.06.12.04.26-.05.35l-.31.28,3.02-1.75c.14-.08.32-.03.4.11.07.13.04.29-.08.38l-1.31.98,1.75-1.01c.14-.08.32-.03.4.11.07.12.04.28-.07.37l-2.5,2.1,3.66-2.12c.14-.08.32-.03.4.11.08.13.04.3-.09.39l-.79.55,1.44-.83c.14-.08.32-.03.4.11.07.13.04.29-.08.38l-1.7,1.19,1.94-1.12c.14-.08.32-.03.4.11.08.13.04.3-.09.39l-.73.49.73-.42c.14-.08.32-.03.4.11.08.13.04.29-.08.38l-3.24,2.41,3.81-2.2c.14-.08.32-.03.4.11.08.13.04.3-.09.39l-2,1.4,1.66-.96c.14-.08.32-.03.4.11.07.13.04.29-.08.38l-2.32,1.7.84-.48c.14-.08.32-.03.4.11.07.12.04.28-.07.37l-1.52,1.23.83-.48c.14-.08.32-.02.4.12.07.14.03.3-.1.38l-4.07,2.35s-.1.04-.15.04h0Z"/>
  <path class="cls-2" d="m21.63,5.6C9.41,1.49-1.03,17.22,8.5,26.4c1.9,1.85,4.34,3.05,6.97,3.43,1.11.17,2.23.19,3.34.05.12.15.55.08.73-.1,2.66-.44,5.11-1.71,7.02-3.61,6.61-6.05,3.76-18.09-4.93-20.57Zm-12.24,20.6c.42-1.85,1.93-3.26,3.81-3.55.77.77,1.32,2.16,2.42,2.43.56,1.41.05,2.86-.1,4.31-2.3-.46-4.43-1.57-6.12-3.2h0Zm3.33-10.88c-.17-1.33.52-.93,1.14-1.46.15-1.67,2.57-.93,3.53-1.98,1.03,1.18,3.67.34,3.83,2.2,1.04-.02,1.71,1.64.61,2.07-1.24.12-.19,2.85-2.4,3.91-.2-.03-.57.11-.56.36-.85.65-1.82.37-2.68-.16-.05-.14-.18-.22-.33-.21-1.6-.79-1.83-2.58-2.15-3.91-.48-.03-.88-.37-.99-.83h0Zm-.05-1.27c-.65-7.34,10.06-7.35,9.72-.14-.11-.04-.22-.07-.34-.09,0-1.03-1.06-1.31-1.9-1.38-1-.05-1.72-.96-2.66-.95-1.3,1.14-3.95.57-4.48,2.42-.12.04-.24.08-.35.14h0Zm5.68,12.05h-1.58c-.11-.44-.22-.88-.33-1.32.38-.28.72-.59,1.03-.94.36.4.75.77,1.19,1.08l-.3,1.18Zm1.09-1.62c-.04.06-.08.11-.13.16-.39-.47-.81-.91-1.27-1.32l1.4-1.4,1.71.51-1.71,2.05Zm-1.91-3.32c.46-.06.9-.18,1.33-.37v.76l-1.28,1.27-1.38-1.38v-.5c.42.17.88.25,1.33.21h0Zm-1.99.79c.51.5,1.01,1,1.51,1.5-.38.39-.77.76-1.15,1.15-.68-.73-1.22-1.46-1.87-2.2.5-.15,1.01-.3,1.51-.45h0Zm.76,7.58c.15-1.02.29-2.04.44-3.06h1.54l.45,3.13c-.81.06-1.62.04-2.42-.07h0Zm3.29-.04c-.13-1.5-.73-3.02-.18-4.48,1.04-.41,1.58-1.62,2.34-2.4,1.95.34,3.51,1.83,3.93,3.76-1.66,1.65-3.79,2.74-6.09,3.12h0Zm6.77-3.85c-.78-3.02-4.13-3.4-6.66-4.2,0-.37,0-.75,0-1.12,1.45-.78,2.35-2.31,2.33-3.96,2.83-1.44.7-6.98-1.85-7.95-4.52-2.25-9.28,2-8.37,6.76,0,.67.51,1.22,1.18,1.28-.06,1.69.85,3.26,2.34,4.06,0,.31,0,.6,0,.92-2.5.77-5.72,1.23-6.57,4.13C.96,17.46,9.04,2.65,20.18,5.71c8.66,1.94,12.21,13.47,6.21,19.94h0Z"/>
  <path class="cls-2" d="m33.62,14.74c-.32-.21-1.52-.42-1.38-.67-.44-1.62-1.08-3.19-1.92-4.64.72-1.51,1.44-2.88-.28-4.04-1.12-1.67-2.82-1.66-4.45-.58-1.43-.88-2.98-1.52-4.61-1.9-.47-1.76-1.35-3.11-3.39-2.73-2.02-.36-3.01.98-3.45,2.76-1.6.39-3.12,1.02-4.52,1.88-2.58-1.78-4.4-.17-5.7,2.16-.17.94.78,1.77.88,2.64-.94,1.41-1.61,2.98-1.96,4.63-2.93.45-3.39,3.29-2.27,5.57.63.57,1.68.64,2.39,1.06-.15-.22,0,.72-.05.32.42,1.54,1.04,3.02,1.86,4.39-.82,1.79-1.35,2.91.53,4.29,1.17,1.6,2.7,1.14,4.2.33,1.43.88,2.99,1.52,4.62,1.91.47,1.76,1.35,3.11,3.38,2.73,2.02.36,3.01-.97,3.45-2.76,1.6-.39,3.12-1.02,4.52-1.88,2.58,1.78,4.4.17,5.7-2.16.17-.94-.78-1.77-.88-2.64.94-1.41,1.61-2.98,1.96-4.63,1.05-.45,2.64-.67,2.68-2.09.02-1.41.49-3.52-1.31-3.95h0Zm.46,3.74c0,.49-.1.99-.64,1.12-.6.2-1.18.43-1.75.7-.78,1.58-1.12,3.58-2.23,5.07-.03.78.74,1.5.83,2.28.08.94-1.81,2.87-2.75,2.62-.87-.24-1.78-1.23-2.65-.47-1.38,1.08-3.39,1.15-4.73,2.08-.49,1.14-.68,2.66-2.33,2.3-.65,0-1.77.18-2.14-.49-.42-.65-.45-1.59-.97-2.15-1.46-.32-2.87-.86-4.17-1.59-.94-.93-1.89,0-2.86.32-1.23.18-2.27-1.43-2.91-2.31-.14-.59.49-1.51.7-2.01.33-.42.13-.84-.18-1.2-.96-1.32-1.14-3.11-1.85-4.47-.69-.59-2.14-.38-2.42-1.42-.31-2.47-.23-3.47,2.36-4.14.73-1.18.79-2.82,1.62-4.03,1.96-2.22-2.1-3.06,1.18-5.35.41-.38.74-.76,1.32-.61.61.18,1.17.57,1.78.76,1.67-.38,3.2-1.69,5.02-1.95,1.51-.65.66-3.23,3.08-2.71,3.75-.37.75,2.72,5.07,3.25,1.89.72,2.91,2.08,4.9.68,1.17-.29,2.44,1.4,2.96,2.29.1.88-.93,1.73-.9,2.6,1.1,1.49,1.49,3.46,2.21,5.08,2.39.7,2.71,1.24,2.45,3.74h0Z"/>
</svg>