<?xml version="1.0" encoding="UTF-8"?>
<svg id="Layer_1" data-name="Layer 1" xmlns="http://www.w3.org/2000/svg" viewBox="0 0 35 35">
  <defs>
    <style>
      .cls-1 {
        fill: #f47721;
      }

      .cls-1, .cls-2, .cls-3, .cls-4, .cls-5 {
        stroke-width: 0px;
      }

      .cls-3 {
        fill: #f6883b;
      }

      .cls-4 {
        fill: #fff;
      }

      .cls-5 {
        fill: #c1dbf0;
      }
    </style>
  </defs>
  <path class="cls-1" d="m5.81,34.69c-.16,0-.29-.13-.29-.29,0-.1.05-.2.14-.25l2.49-1.57-3.59,2.07c-.14.08-.32.03-.4-.12-.07-.13-.03-.3.09-.38l6.66-4.33-8.37,4.83c-.14.08-.32.02-.4-.12-.07-.13-.03-.3.09-.38l5.94-3.78-7.02,4.05c-.14.08-.32.03-.4-.11-.08-.14-.04-.31.09-.39l8.39-5.47L.68,33.39c-.14.08-.32.04-.4-.1s-.04-.32.1-.4l5.66-3.62-5.35,3.09c-.14.08-.32.03-.4-.11-.07-.13-.04-.3.09-.38l6.89-4.62-6.58,3.8c-.14.08-.32.02-.4-.12-.07-.13-.03-.29.09-.38l.9-.57-.56.32c-.14.08-.32.03-.4-.11-.07-.13-.03-.3.09-.39l2.1-1.37-1.66.96c-.14.08-.32.03-.4-.11-.08-.14-.04-.31.09-.39l.81-.53-.28.16c-.14.08-.32.03-.4-.12-.07-.13-.04-.29.08-.38l3.02-2.16-2.1,1.21c-.14.08-.32.03-.4-.11-.07-.13-.04-.29.08-.38l.85-.59c-.16-.01-.28-.15-.27-.31,0-.09.05-.16.12-.22l1.39-1.03s-.05-.05-.07-.08c-.08-.14-.03-.32.11-.4l2.76-1.59c.14-.08.32-.03.4.11.07.13.04.29-.08.38l-.07.05.95-.55c.14-.08.32-.03.4.11.08.13.04.3-.09.39l-.37.26,1.3-.75c.14-.08.32-.03.4.11.07.13.04.29-.08.38l-3.02,2.16,4.59-2.65c.14-.08.32-.02.4.12.07.13.03.29-.09.38l-.81.53,1.78-1.03c.14-.08.32-.02.4.12.07.13.03.29-.09.38l-2.1,1.37,3.23-1.86c.14-.08.32-.02.4.12.07.13.03.29-.09.38l-.9.57,1.86-1.07c.14-.08.32-.03.4.11.07.13.03.3-.09.38l-6.89,4.62,8.86-5.11c.14-.08.32-.03.4.12.07.13.03.3-.09.38l-5.66,3.62,6.86-3.96c.14-.08.32-.04.4.1.08.14.04.32-.1.4h0l-8.38,5.47,9.29-5.36c.14-.08.32-.03.4.11.08.14.04.31-.1.39l-5.95,3.79,6.22-3.59c.14-.08.32-.03.4.12.07.13.03.3-.09.38l-6.66,4.33,6.75-3.9c.14-.08.32-.03.4.12.07.13.03.3-.1.39l-2.48,1.57,2.46-1.42c.14-.09.32-.04.4.09s.04.32-.09.4l-5.34,3.55,5.43-3.14c.14-.08.32-.03.4.12.07.13.03.3-.09.38l-1.53.98,1.5-.87c.14-.08.32-.03.4.11.07.13.04.3-.08.38l-4.83,3.39,4.96-2.86c.14-.08.32-.03.4.11.07.13.03.3-.09.38l-1.51,1,1.48-.85c.14-.08.32-.03.4.11.08.13.04.3-.08.39l-2.92,2.1,2.98-1.72c.14-.08.32-.03.4.12.07.13.03.29-.09.38l-.12.08.05-.03c.14-.08.32-.03.4.11.07.13.04.29-.08.38l-1.27.93,1.26-.72c.14-.08.32-.02.4.12.06.12.04.26-.05.35l-1.73,1.56,1.82-1.05c.14-.08.32-.03.4.11.07.12.05.26-.05.36l-.85.83.76-.44c.14-.08.32-.03.4.11.06.1.05.22-.02.32l-.41.58c.11,0,.2.06.26.15.08.14.03.32-.11.4l-.97.56c-.14.08-.32.03-.4-.11-.06-.1-.05-.22.01-.31l.36-.51-1.62.93c-.14.08-.32.03-.4-.11-.07-.12-.05-.26.05-.36l.85-.83-2.24,1.29c-.14.08-.32.02-.4-.12-.06-.12-.04-.26.05-.35l1.73-1.55-3.5,2.02c-.14.08-.32.03-.4-.11-.07-.13-.04-.29.08-.38l1.27-.93-2.46,1.42c-.14.08-.32.03-.4-.12-.07-.13-.03-.29.09-.38l.12-.08-1,.57c-.14.08-.32.03-.4-.11-.08-.13-.04-.3.08-.39l2.92-2.1-4.49,2.59c-.14.08-.32.03-.4-.11-.07-.13-.03-.3.09-.38l1.51-1-2.6,1.5c-.14.08-.32.03-.4-.12-.07-.13-.04-.29.08-.38l4.83-3.39-6.72,3.88c-.14.08-.32.02-.4-.12-.07-.13-.03-.3.09-.38l1.54-.98-2.57,1.48c-.14.08-.32.03-.4-.11-.07-.13-.03-.3.09-.38l5.34-3.55-7,4.04s-.09.04-.15.04h0Z"/>
  <path class="cls-3" d="m10.26,34.7c-.16,0-.29-.13-.29-.29,0-.08.03-.16.09-.21l1.83-1.74-1.58.91c-.14.08-.32.03-.4-.11-.07-.12-.05-.27.05-.36l1.58-1.47-.96.55c-.14.08-.32.03-.4-.11-.07-.12-.04-.27.05-.36l1.06-.96-.48.27c-.14.08-.32.03-.4-.11-.07-.12-.04-.28.06-.37l.31-.27c-.16-.02-.28-.17-.26-.33,0-.06.03-.11.07-.15l.47-.57c-.12.02-.23-.04-.29-.14-.08-.14-.03-.32.11-.4l1.27-.73c.14-.08.32-.03.4.11.06.11.05.24-.03.33l-.43.52.93-.53c.14-.08.32-.03.4.11.07.12.04.28-.06.37l-.07.06.03-.02c.14-.08.32-.03.4.11.07.12.04.27-.05.36l-1.06.96.89-.52c.14-.08.32-.03.4.11.07.12.05.27-.05.36l-1.58,1.47,1.46-.84c.14-.09.32-.04.4.1.08.12.05.28-.06.37l-1.83,1.74,1.72-1c.14-.08.32-.03.4.11.06.11.05.26-.04.35l-.67.68.49-.28c.11-.07.26-.05.35.04.1.09.12.23.06.35l-.24.46h0c.14-.08.32-.02.4.12.07.13.03.3-.1.38l-.89.51c-.14.08-.32.03-.4-.11-.05-.09-.05-.19,0-.28l.24-.46-1.48.86c-.14.08-.32.03-.4-.11-.06-.11-.05-.26.04-.35l.67-.68-1.99,1.15s-.1.04-.15.04h0Z"/>
  <path class="cls-1" d="m12.94,28.83c-.16,0-.29-.13-.29-.29,0-.04,0-.08.02-.12l.43-.95-1.92,1.11c-.14.08-.32.04-.4-.1-.07-.12-.05-.28.06-.37l.31-.29-.12.07c-.14.08-.32.03-.4-.11-.06-.1-.05-.23.02-.33l.61-.77c-.16,0-.29-.13-.29-.29,0-.1.06-.2.15-.25l1.11-.64c.14-.08.32-.03.4.11.06.1.05.23-.02.33l-.55.69.95-.55c.14-.09.32-.04.4.1.08.12.05.28-.06.37l-.31.29.55-.32c.14-.08.32-.03.4.11.05.08.05.18.01.27l-.48,1.06c.16.03.27.18.24.34-.02.08-.07.16-.14.2l-.54.31s-.09.04-.15.04h0Z"/>
  <path class="cls-1" d="m9.69,27.29c-.16,0-.29-.13-.29-.29,0-.09.04-.18.12-.23l2.73-2.08-3.05,1.76c-.14.08-.32.03-.4-.11-.08-.13-.04-.3.09-.39l.46-.32-.52.3c-.14.08-.32.03-.4-.11-.07-.13-.04-.29.07-.38l1.1-.85-1.23.71c-.14.08-.32.04-.4-.1-.07-.12-.05-.27.05-.37l1.3-1.25-1.55.89c-.14.08-.32.03-.4-.11-.07-.11-.05-.26.04-.35l.59-.61-.71.41c-.14.08-.32.03-.4-.11-.02-.04-.04-.08-.04-.13l-.05-.69-.12.07c-.14.09-.32.05-.4-.09-.09-.14-.05-.32.09-.4,0,0,.01,0,.02-.01l.53-.31c.14-.08.32-.03.4.11.02.04.04.08.04.13l.05.69,2.1-1.21c.14-.08.32-.03.4.11.06.11.05.25-.04.35l-.59.61,1.85-1.07c.14-.08.32-.04.4.1.07.12.05.27-.05.37l-1.3,1.25,2.97-1.71c.14-.08.32-.03.4.11.07.13.04.29-.07.38l-1.1.85,2.31-1.33c.14-.08.32-.03.4.11.07.13.04.29-.08.38l-.46.32,1.34-.77c.14-.08.32-.03.4.11.07.13.04.29-.08.38l-2.73,2.09,3.96-2.29c.14-.08.32-.03.4.11.07.12.04.28-.07.37l-1.77,1.45,1.05-.6c.14-.08.32-.02.4.12.06.12.04.26-.05.35l-1.5,1.35c.16.02.27.17.25.33-.01.09-.07.17-.14.21l-2.01,1.16c-.14.08-.32.02-.4-.12-.06-.12-.04-.26.05-.35l1.27-1.15-1.75,1.01c-.14.08-.32.03-.4-.11-.07-.12-.04-.28.07-.37l1.77-1.45-4.75,2.74s-.1.04-.15.04h0Z"/>
  <path class="cls-4" d="m12.16,25.78c-.16,0-.29-.13-.29-.29,0-.07.03-.15.08-.2l.15-.15-.2.12c-.14.08-.32.04-.4-.1-.07-.12-.05-.27.05-.37l1.53-1.43-1.87,1.08c-.14.08-.32.03-.4-.11-.07-.12-.04-.28.06-.37l1.17-1.01-1.4.81c-.13.09-.32.06-.41-.08-.09-.13-.06-.32.08-.41h0l.16-.13-.23.13c-.14.08-.32.03-.4-.11-.05-.09-.05-.19,0-.28l.51-.97-.84.48c-.14.08-.32.03-.4-.11-.04-.07-.05-.15-.03-.22l.12-.48c-.05-.02-.1-.07-.13-.12-.08-.14-.03-.32.11-.4l.29-.17c.1-.06.23-.05.32.02.09.07.14.19.11.31l-.08.31,1.11-.64c.14-.08.32-.03.4.11.05.09.05.19,0,.28l-.51.97,2.37-1.37c.13-.08.3-.04.39.09.09.13.06.3-.05.39l-.16.13,1.06-.61c.14-.08.32-.03.4.11.07.12.04.28-.06.37l-1.17,1.01,1.41-.81c.14-.08.32-.03.4.11.07.12.05.27-.05.36l-1.67,1.56c.16,0,.29.14.28.3,0,.07-.03.14-.08.19l-1.08,1.15c.02.12-.03.24-.14.31l-.36.21s-.1.04-.15.04h0Z"/>
  <path class="cls-5" d="m4.81,13.6c-.16,0-.29-.13-.29-.29,0-.1.05-.19.13-.24l6.6-4.39-7.64,4.41c-.14.08-.32.03-.4-.11-.07-.13-.03-.3.09-.39l6.85-4.53-6.55,3.78c-.14.08-.32.03-.4-.11-.08-.14-.04-.31.1-.39l.43-.27-.12.07c-.14.08-.32.04-.4-.1s-.04-.32.1-.4l1.89-1.2-1.59.92c-.14.09-.32.04-.4-.09-.09-.14-.04-.32.09-.4l6-4.06-5.68,3.28c-.14.08-.32.03-.4-.11-.07-.13-.04-.3.09-.38l5.55-3.83-5.07,2.93c-.14.08-.32.03-.4-.11-.08-.13-.04-.3.09-.39l2.97-1.99-2.34,1.35c-.14.09-.32.05-.4-.09-.09-.14-.05-.32.09-.4h0l2.32-1.6-1.45.84c-.14.08-.32.03-.4-.11-.07-.12-.04-.28.06-.37l2.37-2.03c-.14.08-.32.03-.4-.11-.08-.14-.03-.32.11-.4l2.74-1.58c.14-.08.32-.03.4.11.07.12.04.28-.06.37l-2.37,2.03L12.33.18c.14-.09.32-.05.4.09.09.14.05.32-.09.4l-2.32,1.6,3.38-1.95c.14-.08.32-.03.4.11.08.13.04.3-.09.39l-2.97,1.99,3.8-2.2c.14-.08.32-.03.4.11.07.13.04.3-.09.38l-5.55,3.83,6.54-3.78c.14-.08.32-.03.4.11.08.13.04.3-.09.39l-6,4.06,6.76-3.9c.14-.08.32-.03.4.12.07.13.03.3-.1.39l-1.89,1.2,2.17-1.25c.14-.08.32-.04.4.1.08.14.04.32-.1.4h0l-.43.27.6-.34c.14-.08.32-.03.4.11.07.13.03.3-.09.39l-6.85,4.53,7.28-4.21c.14-.08.32-.03.4.11.08.13.04.31-.09.39l-6.61,4.39,6.92-3.99c.14-.09.32-.04.4.09.09.14.04.32-.09.4l-5.69,3.83,5.87-3.39c.14-.08.32-.03.4.11.08.14.04.31-.09.39l-2.58,1.68,2.55-1.47c.14-.08.32-.03.4.11.07.13.03.3-.09.39l-2.44,1.62,2.36-1.36c.14-.08.32-.03.4.11.07.13.04.29-.08.38l-4.18,3.07,4.08-2.35c.14-.08.32-.03.4.11.08.13.04.3-.09.39l-1.23.85.96-.56c.14-.08.32-.04.4.1.08.13.04.3-.08.39l-1.53,1.13,1.22-.7c.14-.08.32-.03.4.11.07.12.05.28-.06.37l-1.56,1.37,1.23-.71c.14-.08.32-.03.4.11.06.11.05.25-.04.35l-.71.77.35-.2c.14-.08.32-.03.4.11.04.07.05.16.03.24l-.19.57c.15.05.24.21.19.37-.02.07-.07.13-.13.17l-.39.22c-.14.08-.32.03-.4-.11-.04-.07-.05-.16-.02-.24l.14-.44-1.36.79c-.14.08-.32.03-.4-.11-.06-.11-.05-.25.04-.35l.71-.77-2.11,1.22c-.14.08-.32.04-.4-.1-.07-.12-.05-.28.06-.37l1.56-1.37-3.2,1.85c-.14.08-.32.03-.4-.11-.07-.13-.04-.29.08-.38l1.53-1.13-2.8,1.62c-.14.08-.32.03-.4-.11-.08-.13-.04-.3.09-.39l1.23-.85-2.33,1.34c-.14.08-.32.03-.4-.11-.07-.13-.04-.29.08-.38l4.18-3.07-6.17,3.56c-.14.08-.32.03-.4-.11-.07-.13-.03-.3.09-.39l2.44-1.61-3.66,2.11c-.14.08-.32.03-.4-.11-.07-.13-.03-.3.09-.39l2.58-1.68-3.78,2.18c-.14.08-.32.03-.4-.11-.08-.13-.04-.3.09-.39l5.69-3.83-7.49,4.32s-.1.04-.15.04h0Z"/>
  <g>
    <path class="cls-5" d="m28.59,32.81c-.16,0-.29-.13-.29-.29,0-.1.06-.2.15-.25l3.75-2.17c.14-.08.32-.03.4.11.06.11.05.24-.03.33l-.59.69.53-.31c.14-.09.32-.05.4.09.09.14.05.32-.09.4,0,0-.01,0-.02.01l-1.99,1.15c-.14.08-.32.03-.4-.11-.06-.11-.05-.24.03-.34l.59-.69-2.3,1.32s-.09.04-.15.04Z"/>
    <path class="cls-5" d="m29.52,29.1c-.16,0-.29-.13-.29-.29,0-.09.04-.17.11-.23l1.53-1.22-.44.26c-.14.08-.32.04-.4-.1-.07-.12-.05-.27.05-.37l1.04-1-.53.3c-.14.08-.32.03-.4-.11-.07-.11-.05-.26.04-.35l.72-.75-.47.27c-.14.08-.32.03-.4-.11-.07-.11-.05-.26.04-.35l.56-.59-.46.27c-.14.08-.32.03-.4-.11-.06-.11-.05-.25.04-.34l1.08-1.19-1.27.73c-.14.08-.32.03-.4-.12-.06-.12-.04-.26.05-.35l.95-.86-1.24.71c-.14.08-.32.03-.4-.11-.07-.12-.04-.28.07-.37l.48-.4-.79.45c-.14.08-.32.03-.4-.11-.06-.1-.05-.23.02-.33l.77-.96-1.68.97c-.14.08-.32.03-.4-.12-.06-.11-.04-.25.05-.35l.48-.48-1.74,1c-.14.08-.32.02-.4-.12-.07-.13-.03-.3.1-.38l3.67-2.12c.14-.08.32-.03.4.12.06.11.04.25-.05.35l-.48.48,1.09-.63c.14-.08.32-.03.4.11.06.1.05.23-.02.33l-.77.96,2.43-1.4c.14-.08.32-.03.4.11.07.12.04.28-.07.37l-.47.39.62-.36c.14-.08.32-.03.4.12.06.12.04.26-.05.35l-.95.86.5-.29c.14-.08.32-.03.4.11.06.11.05.25-.04.34l-1.07,1.19.63-.36c.14-.08.32-.03.4.11.07.11.05.26-.04.35l-.56.59.52-.3c.14-.08.32-.03.4.11.07.11.05.26-.04.35l-.72.75.79-.46c.14-.08.32-.04.4.1.07.12.05.27-.05.37l-1.05,1.01,1.79-1.03c.14-.08.32-.03.4.11.07.13.04.28-.07.37l-1.53,1.22,1.53-.88c.14-.08.32-.02.4.12.07.13.03.3-.1.38l-4.96,2.86s-.1.04-.15.04h0Z"/>
    <path class="cls-5" d="m24.84,19.65c-.16,0-.29-.13-.29-.29,0-.07.02-.13.06-.18l.42-.54s-.05-.05-.06-.08c-.08-.14-.03-.32.11-.4l.64-.37c.14-.08.32-.03.4.11.06.1.05.23-.02.33l-.1.13.93-.54c.14-.09.32-.05.4.09s.05.32-.09.4c0,0-.01,0-.02.01l-2.23,1.29s-.1.04-.15.04Z"/>
    <path class="cls-5" d="m26.76,34.65c-.16,0-.29-.13-.29-.29,0-.09.04-.17.11-.23l2.5-2.02-3.71,2.14c-.14.08-.32.03-.4-.11-.07-.13-.04-.29.08-.38l3.41-2.54-3.5,2.02c-.14.08-.32.04-.4-.1-.08-.13-.04-.31.09-.39l2.99-2.03-3.51,2.03c-.14.08-.32.03-.4-.11-.06-.11-.04-.26.05-.35l.57-.56-1.09.63c-.14.08-.32.04-.4-.1-.07-.12-.05-.27.05-.36l.3-.29-1.96,1.13c-.14.08-.32.03-.4-.11-.07-.11-.05-.25.04-.35l1.4-1.47-1.9,1.1c-.14.08-.32.04-.4-.1-.07-.12-.05-.27.05-.36l1.2-1.15-.86.49c-.14.08-.32.03-.4-.11-.06-.11-.05-.25.04-.34l1.11-1.23-.64.37c-.14.08-.32.03-.4-.11-.06-.11-.05-.25.04-.34l.69-.76-.68.39c-.14.08-.32.03-.4-.11-.07-.12-.05-.27.05-.36l.31-.29-.24.14c-.14.08-.32.03-.4-.11-.07-.12-.04-.28.06-.37l.03-.02-.39.22c-.14.08-.32.03-.4-.11-.07-.13-.04-.29.07-.38l.19-.15-.55.32c-.14.08-.32.03-.4-.11-.08-.13-.04-.3.09-.39l4.61-3.2-4.46,2.58c-.14.08-.32.03-.4-.11-.07-.13-.03-.3.09-.39l.6-.39-.12.07c-.14.08-.32.04-.4-.1-.08-.13-.04-.3.09-.39l4.04-2.86-1.49.86c-.14.08-.32.03-.4-.11-.06-.11-.05-.25.04-.35l.84-.9-.83.48c-.14.08-.32.03-.4-.11-.05-.09-.05-.21,0-.3l.66-1.03c-.11,0-.22-.05-.27-.15-.08-.14-.03-.32.11-.4l.87-.5c.14-.08.32-.03.4.11.05.09.05.21,0,.3l-.62.98,1.5-.87c.14-.08.32-.03.4.11.06.11.05.25-.04.35l-.84.9,5.28-3.05c.14-.08.32-.03.4.11.08.13.04.3-.08.39l-4.04,2.86,4.12-2.38c.14-.08.32-.03.4.11.07.13.03.3-.09.39l-.6.39,1.09-.63c.14-.08.32-.03.4.11.08.13.04.3-.09.39l-6.3,4.37s.05.05.07.08c.09.13.06.3-.06.4l-.39.31c.1,0,.19.05.25.12.09.12.07.29-.05.39l-.22.18c.16,0,.29.14.28.3,0,.08-.04.15-.09.2l-.31.29.05-.03c.14-.08.32-.03.4.11.06.11.05.25-.04.34l-.69.76.61-.35c.14-.08.32-.03.4.11.06.11.05.25-.04.34l-1.1,1.23,1.31-.76c.14-.08.32-.04.4.1.07.12.05.27-.05.36l-1.19,1.15,1.59-.92c.14-.08.32-.03.4.11.06.11.05.25-.04.35l-1.4,1.48,2.27-1.31c.14-.08.32-.04.4.1.07.12.05.27-.05.36l-.3.29,1.01-.58c.14-.08.32-.03.4.11.06.11.04.26-.05.35l-.57.56,8.54-4.93c.14-.08.32-.03.4.11.08.13.04.3-.09.39l-2.98,2.03.82-.47c.14-.08.32-.03.4.11.07.13.04.29-.08.38l-3.41,2.55,2.64-1.52c.14-.08.32-.03.4.11.07.12.04.28-.07.37l-4.67,3.77c0,.11-.05.21-.15.26l-.64.37s-.09.04-.14.04h0Z"/>
  </g>
  <path class="cls-4" d="m12.13,22.37c-.16,0-.29-.13-.29-.29,0-.09.05-.18.12-.24l1.83-1.31-2.75,1.58c-.14.08-.32.03-.4-.11-.07-.13-.04-.29.08-.38l3.11-2.21-3.89,2.24c-.14.08-.32.03-.4-.11-.07-.13-.03-.3.09-.38l4.1-2.77-4.72,2.72c-.14.08-.32.03-.4-.11-.07-.13-.03-.3.09-.38l4.15-2.75-4.66,2.69c-.14.08-.32.03-.4-.11-.08-.13-.04-.3.09-.39l5.65-3.84-6.31,3.65c-.14.08-.32.03-.4-.11-.07-.13-.03-.3.09-.38l5.23-3.53-5.66,3.27c-.14.09-.32.04-.4-.09-.09-.14-.04-.32.09-.4l5.56-3.74-5.78,3.33c-.14.08-.32.02-.4-.12-.07-.13-.03-.3.09-.38l3.06-1.98-3,1.73c-.14.08-.32.03-.4-.11-.08-.13-.04-.3.09-.39l5.42-3.72-5.32,3.07c-.14.08-.32.04-.4-.1s-.04-.32.1-.4h0l1.8-1.18-1.63.94c-.14.07-.32.02-.4-.13-.07-.13-.03-.29.09-.37l1.25-.82-1.62.94c-.14.08-.32.04-.4-.1-.08-.13-.04-.3.09-.39l3.99-2.79-4.51,2.6c-.14.08-.32.04-.4-.1-.08-.13-.04-.3.08-.39l4.53-3.28-4.47,2.58c-.14.08-.32.04-.4-.1-.08-.13-.04-.31.09-.39l1.82-1.26c-.15-.05-.23-.22-.18-.37.01-.04.03-.07.06-.1l.71-.83c-.16-.01-.28-.15-.27-.31,0-.1.06-.18.15-.23l1.22-.7c.14-.08.32-.03.4.11.06.11.05.24-.03.34l-.61.71,3.57-2.06c.14-.08.32-.04.4.1.08.13.04.31-.09.39l-.76.53,2.98-1.72c.14-.08.32-.04.4.1.08.13.04.3-.08.39l-4.53,3.29,5.44-3.14c.14-.08.32-.03.4.11.07.13.04.3-.08.38l-3.99,2.79,4.9-2.82c.14-.08.32-.03.4.12.07.13.03.3-.09.38l-1.25.82,1.86-1.07c.14-.08.32-.03.4.11.08.14.04.31-.09.39l-1.8,1.18,2.53-1.47c.14-.08.32-.03.4.11.08.13.04.3-.09.39l-5.42,3.72,6.41-3.7c.14-.08.32-.03.4.11.08.13.04.31-.09.39l-3.06,1.99,3.21-1.86c.14-.08.32-.03.4.11.08.13.04.3-.09.39l-5.56,3.74,5.53-3.19c.14-.08.32-.03.4.11.08.13.04.3-.09.39l-5.23,3.53,6.03-3.48c.14-.09.32-.04.4.09.09.14.04.32-.09.4h0l-5.66,3.84,5.93-3.43c.14-.08.32-.03.4.11.08.13.04.31-.09.39l-4.15,2.75,3.78-2.18c.14-.08.32-.03.4.11.08.13.04.3-.09.39l-4.11,2.77,1.99-1.15c.14-.08.32-.04.4.1.08.13.04.3-.09.39l-3.11,2.21,2.58-1.49c.14-.08.32-.04.4.1.08.13.04.3-.08.39l-1.83,1.31,1.01-.58c.14-.09.32-.05.4.09.09.14.05.32-.09.4,0,0-.01,0-.02.01l-6.23,3.6s-.1.04-.15.04h0Z"/>
  <path class="cls-2" d="m2.19,34.68c3.15-.62,23.01,1.6,22.17-1.56.32.72.36,1.46,1.32,1.47,1.08.33,2.22-.29,2.55-1.37.04-.13.07-.27.08-.41.47-.14.93-.33,1.37-.55,1.35,1.19,4.05-.23,3.15-1.98-.71-.81.33-1.55.43-2.42,1.63-.12,2.55-2.5.81-3.14-.82-.08-.99-.73-1.19-1.47-.54-.56-.19-1.1.11-1.69.38-1.64-1.84-2.4-3.02-1.43-.63-.39-1.66-.37-1.83-1.2-.5-2.04-3.72-1.33-3.81.64-.47.14-.93.33-1.37.55-1.35-1.19-4.05.23-3.15,1.98.13.3.45.64.19.98-1.34-.78-2.84-1.23-4.39-1.29,0-.21,0-.41,0-.62,2.34-1.22,4.02-3.19,4.07-5.93,2.94-.78,1.58-4.83,1.75-7.09-.33-3.04-2.2-5.7-4.96-7.05C11.22-1.42,4.41,1.68,3.21,7.47c-.02,2.36-1.48,7.02,1.59,7.83.06,2.64,1.66,5,4.09,6.03,0,.18,0,.36,0,.53-4.25.24-7.8,3.31-8.65,7.48-.08,1.89-1.11,5.76,1.96,5.35h0Zm8.17-.55c.35-1.79.74-3.58,1.09-5.37h1.56c.36,1.79.71,3.58,1.09,5.37h-3.73Zm-.02-7.42c-.07.05-.14.1-.2.16-1.19-1.21-2.06-2.83-3.14-4.18.65-.19,1.33-.29,2.01-.31.92,1.09,1.83,2.19,2.74,3.28-.47.35-.93.71-1.42,1.05h0Zm-.2.16,4.85-4.15c.09-.1.19-.21.29-.32.75.02,1.48.14,2.2.36-.98,1.33-1.93,2.71-2.92,4.03-.65-.23-1.24-.93-1.86-1.31l2.29-2.75Zm-1.95,5.6h-1.58l-.35-1.56c.33-.25.67-.5,1-.75.41.31.83.62,1.24.93l-.31,1.38Zm9.86,5.81c-2.64,0-5.29,0-7.93,0-.22-2.25-1.44-4.54-.9-6.77,2.08-.04,2.75-3.06,4.11-4.36.5.2.98.45,1.43.74-.1.25-.19.51-.26.78-.36.14-.73.27-1.08.44-.89.41-.96,2.36.09,2.63.53.16,1.19.26,1.14.95.45.85.74,1.53.09,2.37-.21,1.62,1.85,2.34,3.07,1.34.28.14.57.25.86.37,0,.56.09,1.37-.62,1.51Zm-1.85-13.91c.32-.21-.03-.15.34-.08.87.48,1.63.6,2.47-.04.87-.06,1.58-.73,1.66-1.6.13-.53,1.17-.36,1.45-.04.18.34.33.7.43,1.07.2.47.67.43,1.14.62.53.22.84.58,1.41.39.36-.09,1.08-.56,1.23-.46.67.41,1.37,1.21.78,1.98-.59.91.28,1.83.56,2.7.39.34,1.16.26,1.46.72.81,2.86-1.69,1.08-1.97,3.6-1.08,1.49,1.31,1.72-.58,3.28-1.9-1-1.89-.29-3.71.28-.59.31-.34,1.43-1.01,1.56-1.6.36-1-1.76-2.37-1.85-1.14-.66-1.71-.65-2.85,0-2.5-1.58.32-2-1-3.68-.14-1.44-1.35-1-1.94-1.89-.61-2.64,1.64-1.08,1.93-3.2.14-.51.7-.95.26-1.45-.46-.5-.44-1.28.06-1.74.08-.07.16-.13.25-.18h0Zm-6.32,1.59v.37c-.78.97-1.63,1.93-2.42,2.91-.79-1.13-2.07-2.11-2.59-3.34,1.59.78,3.46.75,5.02-.09v.15ZM3.87,9.09C4.73-3.94,22.5-.71,20.63,11.68c-.28-.19-.61-.32-.95-.37-.04-2.77-3.25-2.26-5.06-3.16-.75-.31-1.55-1.04-2.39-.98-.86.06-1.67.78-2.46,1.08-1.82.77-4.84.46-4.99,3.09-.33.08-.65.22-.93.43,0-.9,0-1.79,0-2.69h0Zm2.8,9.5c-.97-1-.51-2.94-1.3-3.79-1.73-.09-2.07-2.88-.21-2.98.17-.03.53-.14.47-.34-.1-2.6,3-1.96,4.62-2.84,1.5-1.13,2.79-.64,4.25.18,1.51.72,4.1.23,4.33,2.43,0,0,.03.56.03.36,0,.15.13.22.27.22,1.73.09,2.07,2.88.21,2.98-.16,0-.45.12-.48.31.04,3.62-3.31,6.54-6.79,6.71-2.1-.47-3.98-1.6-5.39-3.23h0ZM.94,31.27c-.12-3.52,1.9-7.04,5.25-8.3,1.36,1.22,2.08,4.5,4.14,4.27.66,2.27-.55,4.6-.81,6.9-2.52-.02-5.05.02-7.58,0-1.36-.1-1-1.91-1-2.86h0Z"/>
  <path class="cls-2" d="m27.2,30.41c4.31-.7,4.93-7.13.61-8.33-7.23-1.91-8.21,9.62-.61,8.33Zm-4.02-6.31c1.87-3.38,6.96-1.39,6.81,2.22-.4,6.65-9.81,3.29-6.81-2.22Z"/>
</svg>