<?xml version="1.0" encoding="UTF-8"?>
<svg id="Layer_1" data-name="Layer 1" xmlns="http://www.w3.org/2000/svg" viewBox="0 0 35 35">
  <defs>
    <style>
      .cls-1 {
        fill: #f47721;
      }

      .cls-1, .cls-2, .cls-3 {
        stroke-width: 0px;
      }

      .cls-3 {
        fill: #c1dbf0;
      }
    </style>
  </defs>
  <g id="_004---Social-Ad-Reach" data-name="004---Social-Ad-Reach">
    <path id="Path" class="cls-3" d="m29.93,10.09c-.13,0-.24-.08-.28-.2-.04-.12,0-.25.1-.33l.54-.41-1.33.77c-.13.08-.3.04-.39-.09s-.06-.3.06-.4l2.69-2.15-3.69,2.13c-.09.06-.2.06-.29.01s-.15-.14-.16-.25.05-.2.14-.26l1.1-.76-1.38.8c-.13.08-.31.04-.39-.09s-.06-.3.07-.4l3.48-2.64-3.95,2.28c-.14.08-.31.04-.39-.1-.08-.13-.05-.3.07-.4l3.07-2.24-3.25,1.88c-.14.08-.31.04-.4-.09-.09-.13-.05-.31.08-.4l2.51-1.79-2.48,1.43c-.13.08-.31.04-.39-.09s-.06-.31.07-.4l3.03-2.3-2.83,1.63c-.13.08-.3.04-.39-.09-.09-.13-.06-.3.06-.4l2.45-1.94-1.87,1.08c-.13.08-.3.05-.39-.07s-.08-.29.03-.39l1.46-1.41c-.14.03-.29-.04-.34-.18s0-.29.13-.36l1.97-1.14c.13-.08.3-.05.39.07s.08.29-.03.39l-1.42,1.37,3.28-1.89c.13-.08.3-.04.39.09.09.13.06.3-.06.4l-2.45,1.94,3.42-1.97c.13-.08.31-.04.39.09s.06.3-.07.4l-3.04,2.3,3.65-2.11c.14-.08.31-.04.4.09.09.13.05.31-.08.4l-2.51,1.79,2.78-1.6c.14-.08.31-.04.4.09.09.13.05.31-.07.4l-3.08,2.24,3.25-1.88c.13-.08.31-.04.39.09.09.13.06.3-.07.4l-3.48,2.64,3.49-2.01c.14-.09.32-.05.41.09s.05.32-.09.41l-1.1.77.89-.51c.13-.08.3-.04.39.09.09.13.06.3-.06.39l-2.69,2.15,2.14-1.24c.13-.08.3-.03.39.09s.06.3-.07.4l-.67.5c.12-.02.24.04.3.14.08.14.03.32-.11.4l-3.96,2.28s-.1.04-.15.04h0Z"/>
    <path id="Path-2" data-name="Path" class="cls-3" d="m29.07,22.36c-.13,0-.24-.08-.28-.2s0-.25.1-.33l1.45-1.08-2.18,1.26c-.13.08-.31.04-.39-.09s-.06-.3.07-.4l2.89-2.22-3.61,2.09c-.14.08-.31.04-.39-.1s-.05-.31.08-.4l1.76-1.23-2.04,1.18c-.14.08-.31.03-.39-.1-.08-.13-.05-.31.08-.4l2.2-1.55-2.4,1.38c-.14.08-.31.03-.39-.1s-.05-.31.08-.4l1.61-1.11-1.6.92c-.14.08-.31.04-.39-.1s-.05-.31.08-.4l2.18-1.54-2.12,1.22c-.13.08-.31.04-.39-.09-.09-.13-.06-.3.07-.4l2.88-2.16-2.65,1.53c-.14.08-.31.03-.39-.1s-.05-.31.08-.4l.37-.26c-.14.05-.29,0-.36-.14s-.03-.29.09-.38l.57-.41c-.13.04-.28-.02-.34-.14-.07-.12-.04-.27.06-.37l1.12-.99c-.11-.04-.19-.13-.2-.25s.04-.23.15-.29l1.96-1.14c.13-.08.3-.04.39.08s.07.29-.05.39l-.77.67,2.18-1.26c.14-.08.31-.04.39.1s.05.3-.07.4l-.51.37,1.17-.67c.14-.08.31-.04.39.1s.05.31-.08.4l-.33.23.73-.42c.14-.08.31-.04.4.09.09.13.06.31-.07.4l-2.88,2.16,3.47-2.01c.14-.08.31-.04.4.09s.05.31-.08.4l-2.18,1.54,2.45-1.41c.14-.08.31-.03.39.1s.05.31-.08.4l-1.61,1.11,1.72-.99c.14-.08.31-.04.4.1s.05.31-.08.4l-2.2,1.55,2.21-1.28c.14-.08.31-.04.4.09.09.13.05.31-.08.4l-1.75,1.23,1.61-.93c.13-.08.31-.04.39.09s.06.31-.07.4l-2.89,2.22,2.59-1.49c.13-.08.31-.03.39.09.09.13.06.3-.07.4l-1.45,1.08.88-.51c.13-.08.3-.04.39.08s.07.29-.04.39l-1.35,1.27c.11,0,.21.05.27.15.08.14.03.32-.11.4l-1.97,1.13c-.13.08-.3.04-.39-.08-.09-.12-.07-.29.04-.39l1.25-1.17-2.97,1.72s-.1.04-.15.04h0Z"/>
    <path id="Path-3" data-name="Path" class="cls-3" d="m29.27,34.75c-.13,0-.24-.08-.28-.2-.04-.12,0-.25.1-.33l2.14-1.7-3.14,1.81c-.13.08-.3.04-.39-.09s-.06-.3.06-.4l3.04-2.35-3.77,2.18c-.14.08-.31.03-.4-.1s-.05-.31.08-.4l.48-.33-.65.38c-.13.08-.31.04-.39-.09s-.06-.3.07-.4l3.35-2.48-3.65,2.11c-.14.08-.31.03-.39-.1-.08-.13-.05-.31.08-.4l2.3-1.62-2.31,1.33c-.14.08-.31.03-.39-.1-.08-.13-.05-.31.07-.4l2.38-1.7-2.25,1.3c-.13.08-.31.04-.39-.09s-.06-.3.06-.4l3.07-2.43-2.72,1.57c-.14.07-.3.03-.39-.1s-.05-.3.07-.39l.44-.31c-.11.02-.22-.02-.29-.11-.09-.12-.07-.29.03-.39l1.36-1.28c-.11,0-.22-.05-.27-.15-.08-.14-.03-.32.11-.4l1.97-1.13c.13-.08.3-.05.39.08s.07.29-.04.39l-1.26,1.18,2.98-1.72c.14-.08.31-.03.39.1s.05.3-.07.4l-.29.21.82-.47c.13-.08.3-.04.39.09s.06.3-.06.39l-3.07,2.43,3.91-2.26c.14-.08.31-.03.39.1.08.13.05.31-.07.4l-2.38,1.7,2.74-1.58c.14-.08.31-.04.39.1s.05.31-.08.4l-2.3,1.62,2.5-1.44c.13-.08.31-.04.39.09s.06.3-.07.4l-3.34,2.48,3.45-1.99c.14-.08.31-.03.39.1s.05.31-.08.4l-.48.33.31-.18c.13-.08.3-.04.39.09s.06.3-.06.4l-3.04,2.35,2.76-1.59c.13-.08.3-.04.39.09s.06.3-.06.4l-2.14,1.7,1.47-.85c.13-.07.29-.03.38.08.09.12.07.28-.03.39l-1.2,1.08c.08.02.16.07.2.14.08.14.03.32-.11.4l-1.97,1.13c-.13.07-.29.03-.38-.08-.09-.12-.07-.28.03-.39l.95-.85-2.47,1.43s-.09.04-.14.04h0Z"/>
    <path id="Path-4" data-name="Path" class="cls-1" d="m5,21.88c-.12,0-.23-.08-.28-.19s0-.25.09-.33l1.16-.99-2.3,1.33c-.13.08-.3.04-.39-.09s-.06-.3.06-.39l2.21-1.79-3.04,1.76c-.14.08-.31.03-.39-.1s-.05-.31.08-.4l.92-.65-1.19.69c-.14.08-.31.04-.39-.1s-.05-.31.08-.4l1.88-1.34-2.1,1.22c-.14.08-.31.03-.39-.1s-.05-.31.08-.4l1.98-1.39-2.06,1.19c-.14.08-.31.03-.39-.1s-.05-.3.07-.4l3.54-2.6-3.53,2.04c-.14.08-.31.03-.39-.1s-.05-.3.08-.4l1.16-.81-.91.52c-.13.08-.3.04-.39-.09s-.06-.3.06-.4l1.97-1.6-1.36.79c-.13.07-.29.04-.38-.08s-.07-.29.04-.39l1.02-.92c-.12-.03-.2-.13-.22-.24-.02-.12.04-.24.14-.3l1.86-1.08c.13-.07.29-.04.38.08s.07.29-.04.39l-.73.66,2.22-1.28c.13-.08.31-.04.39.09.09.13.06.3-.06.4l-1.97,1.6,3.62-2.09c.14-.08.31-.04.39.1s.05.31-.08.4l-1.16.81,2.18-1.26c.14-.08.31-.04.39.09s.05.31-.07.4l-3.54,2.6,3.22-1.86c.14-.08.31-.03.39.1s.05.31-.08.4l-1.98,1.39,1.67-.96c.14-.08.31-.04.39.1s.05.31-.08.4l-1.88,1.34,1.57-.91c.14-.08.31-.04.39.1.08.13.05.31-.08.4l-.92.65.61-.35c.13-.08.3-.04.39.09.09.13.06.3-.06.4l-2.21,1.78,1.88-1.08c.13-.08.3-.04.39.09s.07.3-.05.39l-1.16.99.83-.48c.13-.07.29-.04.38.07s.08.28-.02.39l-.57.59.22-.13c.11-.06.24-.05.33.03.09.08.13.21.09.32l-.2.55c.12.03.2.13.22.25s-.04.23-.14.29l-.44.25c-.11.06-.24.05-.33-.03-.09-.08-.13-.21-.09-.32l.16-.43-1.36.79c-.13.07-.29.04-.38-.07s-.08-.28.02-.38l.57-.59-1.82,1.05s-.1.04-.15.04h0Z"/>
    <path id="Path-5" data-name="Path" class="cls-3" d="m5.62,27.62c-.12,0-.22-.07-.27-.18-.05-.11-.03-.23.05-.32l1.15-1.26-1.62.93c-.13.08-.3.05-.39-.07s-.07-.29.04-.4l1.45-1.37-1.33.77c-.13.08-.3.04-.39-.09s-.07-.3.05-.39l.91-.76-.57.33c-.13.08-.3.04-.39-.09s-.06-.3.06-.39l.46-.37-.12.07c-.12.07-.28.04-.37-.07s-.09-.27,0-.38l.73-.84-.37.21c-.1.06-.23.05-.33-.02s-.14-.19-.1-.31l.16-.58c-.1-.05-.16-.15-.17-.25,0-.11.05-.21.15-.27l.29-.17c.1-.06.23-.05.33.02.09.07.14.2.1.31l-.11.41,1.29-.74c.12-.07.28-.04.37.07s.09.27,0,.38l-.73.84,1.96-1.13c.13-.08.3-.04.39.09s.06.3-.06.39l-.46.37.13-.07c.13-.07.3-.04.39.09s.07.29-.05.39l-.91.76.57-.33c.13-.08.3-.05.39.08s.07.29-.04.39l-1.45,1.37,1.1-.64c.13-.07.28-.04.37.07.09.11.09.27-.01.38l-1.15,1.26.74-.43c.14-.07.31-.02.39.11.08.14.04.31-.1.4l-2.39,1.38s-.09.04-.14.03h0Z"/>
    <path id="Path-6" data-name="Path" class="cls-3" d="m15.93,24.82c-.09,0-.18-.04-.23-.11s-.08-.16-.06-.25l.22-.91-1.48.86c-.12.07-.28.04-.37-.07s-.09-.27,0-.38l.96-1.13-1.84,1.06c-.13.08-.3.04-.39-.09s-.06-.3.06-.39l.52-.42-.99.57c-.14.08-.31.04-.39-.09s-.05-.31.07-.4l.09-.06-.46.26c-.13.07-.3.04-.39-.09-.09-.12-.07-.29.05-.39l2.43-2.09-3.46,1.99c-.13.08-.3.03-.39-.09-.09-.13-.06-.3.06-.4l2.62-2.01-3.47,2c-.13.08-.31.04-.39-.09s-.06-.3.07-.4l3.52-2.65-4.04,2.34c-.14.08-.31.03-.39-.1s-.05-.31.09-.4l.24-.16c-.14.04-.28-.03-.34-.16-.06-.13-.02-.28.09-.37l3.34-2.39-3.02,1.74c-.14.08-.31.03-.39-.1s-.05-.31.08-.4l1.67-1.14-1.36.78c-.14.07-.31.03-.39-.1s-.05-.31.08-.4l.24-.16c-.14.03-.28-.04-.34-.17s-.01-.28.1-.36l.38-.25-.07.04c-.14.08-.31.04-.4-.1s-.04-.31.09-.4l.32-.21h0c-.14.08-.31.04-.4-.09-.08-.13-.05-.31.08-.4l2.48-1.72-2.16,1.25c-.13.08-.31.04-.39-.09-.09-.13-.06-.3.07-.4l2.17-1.65-1.85,1.07c-.12.07-.28.04-.37-.06-.09-.11-.1-.26-.01-.37l.23-.3c-.13,0-.25-.09-.28-.22s.02-.26.14-.33l1.06-.61c.12-.07.28-.05.37.06s.1.26.01.37l-.17.22,4.61-2.66c.13-.08.31-.04.39.09s.06.3-.07.4l-2.17,1.65,4.17-2.41c.14-.08.31-.04.4.1.08.13.05.31-.08.4l-2.48,1.72,2.16-1.25c.14-.08.31-.03.39.1s.05.31-.08.4l-.32.21h0c.14-.08.31-.04.4.1s.04.31-.09.4l-.38.25.07-.04c.14-.08.32-.04.4.1.08.14.04.32-.09.4l-.24.15c.14-.03.28.04.34.17s.01.28-.1.36l-1.67,1.14,1.36-.79c.14-.08.31-.04.4.09s.05.31-.08.4l-3.34,2.39,3.02-1.74c.14-.08.31-.04.4.1s.04.31-.09.4l-.24.16c.14-.04.28.03.34.15s.03.28-.09.37l-3.52,2.65,3.19-1.84c.13-.08.31-.04.39.09s.06.31-.07.4l-2.62,2.01,2.29-1.32c.13-.07.3-.04.39.09.09.12.07.29-.05.39l-2.43,2.09,2.09-1.21c.14-.08.31-.04.39.09s.05.31-.07.4l-.22.16c.13-.02.26.05.31.17s.02.26-.08.35l-.51.42.18-.1c.12-.07.28-.04.37.07s.09.27,0,.38l-.96,1.13.6-.34c.1-.06.23-.05.32.02s.14.19.11.3l-.24.99c.12.02.22.11.24.24s-.03.25-.14.31l-.38.22s-.09.04-.15.04h0Z"/>
    <path id="Path-7" data-name="Path" class="cls-1" d="m16.81,27.74c-.12,0-.23-.07-.27-.18-.05-.11-.02-.24.07-.32l.16-.15-.61.35c-.13.07-.29.04-.38-.08-.09-.12-.08-.28.03-.39l1.04-1.03-1.35.78c-.13.08-.3.04-.38-.08-.09-.12-.07-.29.04-.39l1.33-1.22-1.17.67c-.13.08-.3.05-.39-.08s-.07-.29.04-.39l1.68-1.59-1.33.77c-.13.07-.29.04-.38-.08-.09-.12-.08-.28.03-.39l1.71-1.63-1.35.78c-.13.07-.29.04-.38-.08s-.07-.29.03-.39l1.47-1.33-1.12.65c-.13.08-.3.04-.39-.09s-.06-.3.06-.39l.27-.21c-.13.04-.28-.02-.35-.14-.07-.12-.04-.28.07-.37l.78-.64-.44.26c-.13.07-.3.04-.39-.09s-.07-.29.05-.39l.86-.72-.53.3c-.13.08-.3.04-.39-.08-.09-.12-.07-.29.04-.39l1.41-1.28-1.07.62c-.13.07-.3.04-.38-.08-.09-.12-.07-.29.04-.39l1.34-1.19-1,.58c-.13.08-.3.04-.39-.09s-.06-.3.05-.39l.81-.67-.47.27c-.13.08-.3.04-.39-.09s-.06-.3.06-.4l.73-.6-.4.23c-.13.08-.3.04-.39-.09s-.06-.3.06-.4l.52-.42-.19.11c-.13.08-.3.04-.39-.09-.09-.13-.06-.3.05-.39l.89-.74-.55.32c-.13.08-.3.04-.39-.09s-.06-.3.05-.4l.89-.75-.56.32c-.13.08-.3.04-.39-.09-.09-.13-.06-.3.05-.39l.88-.73-.54.31c-.13.08-.3.04-.39-.08s-.07-.29.04-.39l1.2-1.06-.86.49c-.13.08-.3.04-.39-.09s-.06-.3.06-.4l.29-.24c-.13.05-.28,0-.35-.12s-.05-.28.05-.37l.52-.47-.14.08c-.13.07-.29.04-.38-.07-.09-.11-.08-.28.02-.38l.43-.45s-.09-.06-.11-.11c-.08-.14-.03-.32.11-.4l1.14-.66c.13-.07.29-.04.38.07.09.12.08.28-.02.39l-.08.08.7-.4c.13-.07.29-.04.38.08.09.12.07.29-.04.39l-.52.47.77-.45c.13-.08.3-.04.39.09s.06.3-.06.4l-.27.22.24-.13c.13-.07.3-.04.38.08.09.12.07.29-.04.39l-1.2,1.06.95-.55c.13-.08.3-.04.39.09s.06.3-.05.39l-.88.73.54-.31c.13-.08.3-.04.39.09s.06.3-.05.4l-.89.75.56-.32c.13-.08.3-.04.39.09s.06.3-.05.39l-.89.74.55-.32c.13-.08.3-.04.39.09s.06.3-.06.4l-.52.42.19-.11c.13-.08.3-.04.39.09s.06.3-.05.39l-.73.6.4-.23c.13-.08.3-.04.39.09s.06.3-.05.39l-.81.67.48-.27c.13-.08.3-.04.39.08.09.12.07.29-.04.39l-1.34,1.19,1-.57c.13-.07.29-.03.38.08.09.12.07.28-.03.39l-1.42,1.28,1.07-.62c.13-.08.3-.04.39.09s.06.3-.05.39l-.86.72.53-.3c.13-.08.3-.04.39.09.09.13.06.3-.06.4l-.78.64.44-.25c.13-.08.3-.04.39.09.09.13.06.3-.06.39l-.27.21c.13-.04.28.01.34.13.07.12.05.27-.06.36l-1.47,1.33,1.12-.65c.13-.08.3-.05.39.07s.07.29-.04.4l-1.71,1.63,1.36-.78c.13-.08.3-.05.39.08s.07.29-.04.39l-1.68,1.59,1.33-.77c.13-.07.29-.04.38.08s.07.29-.04.39l-1.33,1.22.99-.57c.13-.07.29-.04.38.08.09.12.08.28-.03.39l-1.04,1.03.68-.39c.13-.08.29-.04.38.08s.08.29-.03.39l-.36.35c.09.02.16.07.2.14.08.14.03.32-.11.4l-1.64.95s-.1.04-.15.04h0Z"/>
    <g>
      <path id="Path-8" data-name="Path" class="cls-3" d="m29.19,5.14c-.11,0-.22-.07-.27-.17s-.03-.23.04-.31l.37-.43-.41.24c-.12.07-.27.04-.37-.06s-.1-.26-.02-.37l.3-.4c-.13-.02-.23-.11-.25-.23s.03-.25.14-.31l.96-.56c.12-.07.27-.05.37.06.09.1.1.26.02.37l-.21.28.63-.36c.12-.07.28-.04.37.07s.09.27,0,.38l-.37.43.34-.2c.14-.08.32-.03.4.11s.03.32-.11.4l-1.8,1.04s-.1.04-.15.04h0Z"/>
      <path id="Path-9" data-name="Path" class="cls-3" d="m29.47,17.65c-.11,0-.2-.06-.26-.15s-.05-.21,0-.3l.55-.9-.85.49c-.12.07-.28.04-.37-.06s-.1-.26-.01-.37l.29-.37c-.12-.02-.21-.12-.23-.24-.02-.12.04-.24.14-.3l.96-.56c.12-.07.28-.04.37.06s.1.26.01.37l-.17.22.57-.33c.12-.07.26-.05.36.05s.11.24.04.36l-.55.9.5-.29c.14-.08.32-.03.4.11s.03.32-.11.4l-1.5.87s-.1.04-.15.04h0Z"/>
      <path id="Path-10" data-name="Path" class="cls-3" d="m29.4,30c-.12,0-.22-.07-.27-.18s-.03-.23.05-.32l.14-.15-.3.18c-.11.07-.26.05-.35-.04s-.12-.24-.05-.35l.46-.84-.05.03c-.14.07-.31.02-.39-.11s-.04-.31.1-.4l.96-.56c.11-.07.26-.05.35.04s.12.24.05.35l-.46.84,1.09-.63c.13-.07.29-.04.38.07s.08.28-.01.38l-.17.18c.14-.04.29.04.34.18.05.14,0,.29-.13.37l-1.59.92s-.1.04-.15.04h0Z"/>
      <path id="Path-11" data-name="Path" class="cls-3" d="m29.29,10.03c-.11,0-.21-.06-.26-.16s-.04-.21.02-.3l.68-.99-1.73,1c-.13.07-.29.04-.38-.07-.09-.11-.09-.28.01-.38l.44-.49c-.13,0-.24-.1-.27-.22s.02-.26.14-.33l1.37-.79c.13-.07.29-.04.38.07.09.11.09.28-.01.38l-.34.38,1.24-.72c.12-.07.27-.05.36.06s.1.25.02.37l-.68.98,1.23-.71c.12-.07.27-.05.36.06.09.1.1.26.02.37l-.17.24.13-.07c.09-.05.2-.05.29,0s.15.15.15.26-.06.2-.15.26l-1.29.74c-.12.07-.27.05-.36-.06s-.1-.26-.02-.37l.17-.24-1.21.7s-.1.04-.15.04h0Z"/>
      <path id="Path-12" data-name="Path" class="cls-3" d="m29.39,22.41c-.11,0-.21-.06-.26-.16s-.04-.22.02-.31l.65-.91-1.68.97c-.12.07-.28.04-.37-.06s-.09-.27,0-.38l.48-.59c-.14.07-.31.02-.39-.11s-.04-.31.1-.4l1.37-.79c.12-.07.28-.04.37.06s.09.27,0,.38l-.48.59,1.48-.86c.12-.07.27-.04.36.06s.1.26.02.37l-.65.91,1.13-.65c.11-.06.25-.05.34.04.09.09.12.22.07.34l-.17.36.12-.07c.09-.06.21-.06.3,0s.15.15.15.26-.06.21-.16.26l-.92.53c-.11.06-.25.05-.34-.04-.09-.09-.12-.22-.07-.34l.17-.36-1.5.87s-.1.04-.15.04Z"/>
      <path id="Path-13" data-name="Path" class="cls-3" d="m30.66,34.73c-.11,0-.2-.06-.25-.15s-.05-.2,0-.29l.31-.52-1.59.92c-.13.07-.29.04-.37-.08-.09-.12-.08-.28.02-.38l.36-.37-.93.54c-.12.07-.28.05-.37-.06s-.1-.26-.01-.37l.52-.69-.11.06c-.14.07-.31.02-.39-.11s-.04-.31.1-.4l1.37-.79c.12-.07.28-.05.37.06s.1.26.01.37l-.52.69,1.58-.91c.13-.07.29-.04.38.08s.08.28-.02.38l-.36.36.63-.36c.12-.07.26-.05.36.05s.11.24.05.36l-.31.52.38-.22c.09-.06.21-.06.3,0s.15.15.15.26-.06.21-.16.26l-1.33.77s-.09.04-.15.04h0Z"/>
    </g>
    <path id="Shape" class="cls-2" d="m31.47,3.91c0-.41-.18-.79-.48-1.07-.3-.28-.69-.42-1.1-.41-.87,0-1.58.67-1.64,1.53-.03,2,3.12,1.85,3.22-.06Zm-1.7-.82c.47.02.83.41.83.87-.02.41-.26.85-.73.82-.43-.07-.75-.44-.76-.88-.03-.4.25-.76.66-.82Z"/>
    <path id="Shape-2" data-name="Shape" class="cls-2" d="m31.46,16.19c-.1-1.87-3.23-1.5-3.21.23.02,1.89,3.12,1.48,3.21-.23Zm-1.49-.79c.39.19.64.58.64,1.02-.03.51-.38,1.06-.95.75-.35-.2-.56-.58-.56-.98,0-.47.35-1.02.86-.79h0Z"/>
    <path id="Shape-3" data-name="Shape" class="cls-2" d="m31.46,28.55c-.1-1.91-3.21-1.62-3.21.19,0,1.93,3.11,1.67,3.21-.12,0-.02,0-.02,0-.04s0-.02,0-.03Zm-1.6,1.01c-.45-.11-.76-.52-.75-.98,0-.43.31-.93.8-.8.41.14.69.52.69.96-.03.4-.26.9-.74.82h0Z"/>
    <path id="Shape-4" data-name="Shape" class="cls-2" d="m35,29.73c-.34-6.36-9.91-6.24-10.26-.14-1.11.03-2.3.02-2.69-1.21-.2-.63,0-1.66,0-2.31v-8.31h2.69c-.03,1.7.92,3.26,2.45,4.01.03.03.08.05.13.06,1.46.63,3.1.63,4.56.02.27.08.77-.11.7-.35,1.46-.84,2.38-2.38,2.43-4.06,0-.01,0-.02,0-.03s0-.02,0-.03c-.34-6.33-9.86-6.18-10.26-.16h-2.7v-8.59c0-.61-.19-1.6,0-2.19.41-1.3,1.57-1.09,2.69-1.05-.03,1.7.91,3.27,2.44,4.03.05.06.12.09.19.09,1.44.61,3.07.61,4.51,0,.26.09.73-.09.69-.35,1.46-.85,2.38-2.39,2.43-4.08,0-.02,0-.03-.01-.04,0,0,0-.02,0-.03-.34-6.34-9.89-6.21-10.26-.16-1.86-.03-3.41-.1-3.55,2.19-.2,3.27,0,6.63,0,9.91v.27h-2.08c0-2.32.06-4.65,0-6.97-.04-1.59-.26-2.72-2.06-3.08-.03,0-.06,0-.09,0h-.04s-.03,0-.05,0c-1.59.04-2.1,1.39-2.17,2.73,0,.17,0,.34-.01.51-2.29.98-5.44,2.64-7.21,2.75-3.03.19-7.08-.16-7.46,4.03-.29,3.18,1.8,4.1,4.14,4.43-.03.03-.05.07-.05.12,0,1.89-.81,6.27,2.28,5.96,2.64-.27,2.22-3.48,2.12-5.59,2.09.55,4.24,1.78,6.18,2.6,0,.1,0,.21,0,.31.05,1.4.45,2.81,2.17,2.81.04,0,.08,0,.12-.02.03,0,.05-.01.07-.02,1.67-.37,1.98-1.41,2.04-2.96.09-2.35,0-4.72,0-7.07h2.08v9.76c0,2.57,1.24,2.6,3.54,2.6.12,4.15,4.31,5.43,7.31,4.07.23-.03.5-.15.52-.28,1.47-.85,2.39-2.4,2.44-4.1,0-.02,0-.03-.01-.05,0-.01,0-.02,0-.03h0Zm-5.89-7.88c-.37-.08-.73-.21-1.07-.38.66-1.9,2.94-1.61,3.61.09-.79.38-1.68.48-2.54.29h0Zm1.93-8.59c1.84.64,3.08,2.36,3.1,4.31-.07,1.36-.7,2.64-1.74,3.51-.98-2.02-3.91-1.86-4.98-.01-1.14-.88-1.81-2.23-1.81-3.67-.04-1.35.58-2.64,1.66-3.46,1.08-.82,2.48-1.07,3.78-.68Zm-1.53-3.73c-.51-.06-1-.21-1.45-.44.67-1.83,2.92-1.56,3.59.09-.67.32-1.41.44-2.14.35Zm1.15-8.72c2.02.5,3.46,2.3,3.48,4.38-.06,1.36-.7,2.64-1.74,3.52-.99-2.04-3.89-1.88-4.97-.02-1.14-.87-1.81-2.21-1.82-3.64,0-2.63,2.36-4.86,5.05-4.23ZM.88,17.73c-.3-3.21,2.86-4.16,5.52-4.16.43,0,.84.01,1.25-.02v7.78c-2.84-.29-6.38.49-6.77-3.6Zm6.77,7.86c-.03,1.05-.92,2.29-2.08,1.32-.8-.66-.6-1.88-.6-2.8v-2.42c.66.06,1.32.09,1.93.13.25.02.5.05.75.09v2.44c0,.42.01.83,0,1.25h0Zm.97-4.1s-.08-.02-.12-.02v-8.05c2.08-.55,4.17-1.69,6.18-2.58-.06,2.22.03,4.46.03,6.67s-.06,4.33-.02,6.5c-1.97-.89-4.03-2.03-6.07-2.51h0Zm8.29,5.67c-.83-.03-1.24-1.14-1.42-2.61.08-.07.11-.14,0-.19h-.02c-.29-2.7.11-6.45.11-7.19,0-.67-.39-4.16-.12-6.68.12-.09.11-.16.03-.21.17-1.37.55-2.4,1.33-2.46,1.92.43,1.44,2.85,1.44,4.14v5.85c0,1.62,1.17,8.7-1.34,9.36h0Zm12.59,7.08c-.51-.06-1-.21-1.45-.44.67-1.89,2.91-1.59,3.59.09-.67.32-1.41.44-2.14.35h0Zm2.89-.82c-.98-1.94-3.87-1.77-4.95,0-1.15-.86-1.83-2.21-1.84-3.65,0-2.63,2.37-4.84,5.05-4.22,2.02.49,3.45,2.28,3.48,4.36-.06,1.36-.7,2.64-1.75,3.51h0Z"/>
  </g>
</svg>