<?xml version="1.0" encoding="UTF-8"?>
<svg id="Layer_1" data-name="Layer 1" xmlns="http://www.w3.org/2000/svg" viewBox="0 0 35 35">
  <defs>
    <style>
      .cls-1 {
        fill: #fcc8a0;
      }

      .cls-1, .cls-2, .cls-3, .cls-4, .cls-5, .cls-6, .cls-7 {
        stroke-width: 0px;
      }

      .cls-2 {
        fill: #f47721;
      }

      .cls-3 {
        fill: #f7fafd;
      }

      .cls-5 {
        fill: #fff;
      }

      .cls-6 {
        fill: #c1dbf0;
      }

      .cls-7 {
        fill: #fedabe;
      }
    </style>
  </defs>
  <path class="cls-6" d="m11.2,34.88c-.16,0-.29-.13-.29-.29,0-.1.05-.19.13-.24l4.24-2.86-5.07,2.93c-.14.08-.32.03-.4-.11-.08-.13-.04-.3.08-.39l4.97-3.52-4.91,2.83c-.14.08-.32.03-.4-.11-.07-.13-.03-.3.09-.38l1.76-1.18-1.45.83c-.14.08-.32.03-.4-.11-.07-.13-.04-.3.09-.39l.95-.64-.63.37c-.14.08-.32.03-.4-.12-.07-.13-.03-.29.09-.38l.25-.17c-.16.04-.32-.05-.36-.2-.03-.11,0-.23.09-.3l1.96-1.71-1.39.8c-.14.08-.32.03-.4-.11-.07-.12-.04-.27.06-.36l.81-.72s-.09-.07-.12-.11c-.08-.14-.03-.32.11-.4l1.73-1c.14-.08.32-.03.4.11.07.12.04.27-.06.36l-.31.27,1.46-.84c.14-.08.32-.03.4.11.07.12.04.27-.06.36l-1.96,1.72,3.8-2.19c.14-.08.32-.02.4.12.07.13.03.29-.09.38l-.15.1,1.04-.6c.14-.08.32-.02.4.12.07.13.03.29-.09.38l-.95.65,1.98-1.15c.14-.08.32-.03.4.11.08.13.04.3-.09.39l-1.76,1.18,2.91-1.68c.14-.08.32-.03.4.11.07.13.04.29-.08.38l-4.97,3.52,6.8-3.93c.14-.08.32-.03.4.11.08.13.04.3-.09.39l-4.24,2.86,5.03-2.9c.14-.08.32-.04.4.11.08.14.04.31-.1.4l-.29.18.5-.29c.14-.08.32-.03.4.11.07.13.04.3-.09.39l-4.09,2.88,4.42-2.56c.14-.08.32-.03.4.11.07.13.04.3-.08.38l-2.96,2.08,2.99-1.73c.14-.08.32-.03.4.11.07.13.04.29-.08.37l-2.89,2.2,2.68-1.55c.14-.08.32-.03.4.11.07.13.04.29-.07.38l-1.9,1.56,1.57-.91c.14-.08.32-.03.4.11.07.12.05.27-.06.37l-.93.82.58-.34c.14-.08.32-.03.4.11.06.1.05.23-.02.33l-.45.58c.14-.08.32-.03.4.12.08.14.03.32-.12.4l-1.29.74c-.14.08-.32.03-.4-.11-.06-.1-.05-.23.02-.33l.45-.57-1.75,1.01c-.14.08-.32.02-.4-.12-.06-.12-.04-.26.05-.35l.92-.82-2.25,1.3c-.14.08-.32.03-.4-.11-.07-.12-.04-.28.07-.37l1.9-1.56-3.53,2.04c-.14.08-.32.03-.4-.11-.07-.13-.04-.29.08-.38l2.89-2.2-4.65,2.69c-.14.08-.32.03-.4-.11-.07-.13-.04-.3.08-.38l2.96-2.09-4.47,2.58c-.14.08-.32.03-.4-.12-.07-.13-.04-.29.08-.38l4.09-2.88-5.84,3.37c-.14.08-.32.02-.4-.12-.07-.13-.03-.3.09-.38l.29-.19-1.19.69s-.1.04-.15.04h0Z"/>
  <path class="cls-1" d="m16.79,28.3c-.16,0-.29-.13-.3-.29,0-.08.03-.15.09-.21l1.3-1.29-1.58.91c-.14.08-.32.03-.4-.11-.07-.11-.05-.26.05-.35l1.46-1.48-1.79,1.03c-.14.08-.32.03-.4-.11-.07-.12-.05-.26.05-.35l.51-.51-.48.28c-.14.08-.32.03-.4-.11-.04-.08-.05-.17-.02-.25l.34-.87c-.14-.09-.18-.27-.09-.41.03-.04.06-.07.1-.1l.33-.19c.14-.08.32-.03.4.11.04.08.05.17.02.25l-.25.64,1.75-1.01c.14-.08.32-.03.4.11.07.12.05.26-.05.35l-.51.51,1.69-.98c.14-.08.32-.03.4.11.07.12.05.26-.05.36l-1.46,1.48,1.62-.94c.14-.08.32-.03.4.11.06.11.04.26-.05.35l-1.3,1.29.38-.22c.14-.09.32-.05.41.09.09.14.05.32-.09.41,0,0-.01,0-.02.01l-2.32,1.34s-.09.04-.14.04Z"/>
  <path class="cls-6" d="m8.89,13.08c-.16,0-.29-.13-.29-.29,0-.11.06-.2.15-.26l6.18-3.57c.14-.08.32-.03.4.11.07.13.04.29-.07.38l-1.24.97.91-.53c.14-.08.32-.03.4.11.07.13.04.29-.07.38l-.4.33.07-.04c.14-.08.32-.03.4.11.06.11.05.24-.03.34l-.56.67c.16,0,.29.14.29.3,0,.1-.06.2-.15.25l-1.21.7c-.14.08-.32.03-.4-.11-.06-.11-.05-.24.03-.34l.48-.57-1.78,1.03c-.14.08-.32.03-.4-.11-.07-.13-.04-.29.07-.38l.4-.33-1.41.81c-.14.08-.32.03-.4-.11-.07-.13-.04-.29.07-.38l1.24-.97-2.52,1.46s-.09.04-.14.04h0Z"/>
  <path class="cls-6" d="m3.5,15.79c-.16,0-.29-.13-.29-.29,0-.1.05-.19.13-.24l5.36-3.68-5.23,3.02c-.14.08-.32.04-.4-.1-.08-.13-.04-.31.09-.39l5.56-3.82-5.25,3.03c-.14.08-.32.03-.4-.11-.08-.13-.04-.3.09-.39l4.34-2.9-5.41,3.12c-.14.08-.32.03-.4-.11-.08-.13-.04-.31.09-.39l4.38-2.87-5.06,2.92c-.14.08-.32.04-.4-.1s-.04-.32.1-.4l3.18-2.04-3.31,1.91c-.15.07-.32.01-.39-.13-.06-.13-.03-.28.09-.37l3.47-2.22-3.3,1.9c-.14.08-.32.03-.4-.11-.08-.14-.03-.31.1-.39l1.22-.77-.92.53c-.14.08-.32.03-.4-.11-.08-.14-.04-.31.09-.39l5.88-3.89L.52,9.22c-.14.08-.32.04-.4-.11-.08-.14-.04-.31.1-.4l2.41-1.54-2.1,1.22c-.14.08-.32.03-.4-.11-.08-.14-.04-.31.09-.39l3.38-2.23-3.07,1.77c-.14.08-.32.03-.4-.11-.08-.13-.04-.3.09-.39l3.8-2.63L.52,6.32c-.14.08-.32.04-.4-.1-.08-.13-.04-.3.08-.39l2.93-2.09-2.61,1.5c-.14.08-.32.04-.4-.1-.08-.13-.04-.3.08-.39l1.87-1.37-1.54.89c-.14.08-.32.03-.4-.11-.07-.12-.04-.28.06-.37l1.71-1.45-1.37.79c-.14.08-.32.03-.4-.11-.07-.12-.04-.28.07-.37l.26-.21c-.16.04-.32-.06-.35-.22-.02-.09,0-.19.07-.26l.46-.5c-.15-.05-.24-.22-.19-.37.02-.07.07-.13.13-.16L1.78.21c.14-.08.32-.03.4.11.06.11.05.25-.04.35l-.24.26L3.16.2c.14-.08.32-.03.4.11.07.12.04.28-.07.38l-.19.16,1.11-.64c.14-.08.32-.03.4.11.07.12.04.28-.06.37l-1.71,1.45L6.39.2c.14-.08.32-.03.4.11.08.13.04.3-.08.38l-1.87,1.37L8.08.2c.14-.08.32-.04.4.1.08.13.04.3-.08.39l-2.93,2.09L9.95.2c.14-.08.32-.03.4.11.07.13.04.3-.09.39l-3.8,2.63L11.88.2c.14-.08.32-.03.4.11.07.13.03.3-.09.39l-3.38,2.23L13.49.23c.14-.08.32-.04.4.11.08.14.04.31-.1.4l-2.41,1.54,2.9-1.67c.14-.08.32-.03.4.11.08.14.04.31-.09.39l-5.88,3.89,6.14-3.54c.14-.08.32-.04.4.1s.04.32-.1.4l-1.23.77,1-.57c.14-.08.32-.03.4.11.08.13.03.3-.1.39l-3.47,2.21,3.16-1.83c.14-.08.32-.04.4.11.08.14.04.31-.1.4l-3.19,2.04,2.88-1.66c.14-.08.32-.03.4.11.08.13.04.31-.09.39l-4.39,2.87,4.08-2.36c.14-.08.32-.04.4.1.08.14.04.31-.09.4l-4.34,2.9,4.03-2.33c.14-.08.32-.03.4.11.08.13.04.3-.09.39l-5.56,3.82,5.24-3.03c.14-.08.32-.03.4.11.08.13.04.3-.09.39l-5.36,3.68,5.04-2.91c.14-.08.32-.04.4.11.08.14.04.32-.11.4,0,0,0,0,0,0L3.64,15.75s-.1.04-.15.04h0Z"/>
  <path class="cls-2" d="m31.87,13.09c-.16,0-.29-.13-.29-.29,0-.11.06-.2.15-.26l2.63-1.52c.14-.08.32-.03.4.11.08.14.03.32-.11.4h0l-2.63,1.52s-.1.04-.15.04Z"/>
  <path class="cls-2" d="m30.35,15.81c-.16,0-.29-.13-.29-.29,0-.06.02-.11.05-.16l.59-.94-1.18.68c-.14.08-.32.04-.4-.1-.07-.13-.05-.29.07-.38l2.45-2.03-3.15,1.82c-.14.08-.32.04-.4-.1-.08-.13-.04-.3.08-.39l1.63-1.19-2.05,1.19c-.14.08-.32.04-.4-.1-.08-.13-.04-.31.09-.39l.85-.59-1.16.67c-.14.08-.32.03-.4-.11-.08-.13-.04-.3.09-.39l1.43-.99-1.79,1.03c-.14.08-.32.03-.4-.11-.08-.14-.04-.31.09-.39l.06-.04-.93.53c-.14.08-.32.03-.4-.11-.08-.14-.04-.31.09-.39l1.41-.94-2.49,1.44c-.14.08-.32.03-.4-.11-.08-.13-.04-.31.09-.39l3.5-2.35-4.93,2.85c-.14.08-.32.04-.4-.1s-.04-.32.1-.4l.92-.58-1.67.97c-.14.08-.32.03-.4-.12-.07-.13-.03-.3.09-.38l5.77-3.84-6.3,3.64c-.14.08-.32.03-.4-.11-.08-.14-.04-.31.09-.39l4.67-3.02-4.63,2.67c-.14.08-.32.03-.4-.11-.07-.13-.04-.3.09-.39l7.23-4.85-6.93,4c-.14.08-.32.03-.4-.11-.08-.13-.04-.31.09-.39l6.61-4.46-6.3,3.64c-.14.08-.32.03-.4-.11-.07-.13-.04-.3.09-.39l4.66-3.13-4.35,2.51c-.14.08-.32.04-.4-.1-.08-.13-.04-.31.09-.39l3.97-2.74-3.66,2.11c-.14.08-.32.03-.4-.11-.08-.13-.04-.3.09-.39l2.64-1.84-2.32,1.34c-.14.08-.32.04-.4-.1-.08-.13-.04-.3.08-.39l1.73-1.24-1.41.82c-.14.08-.32.03-.4-.11-.07-.13-.04-.29.08-.38l1.38-1.06-1.06.61c-.14.08-.32.03-.4-.11-.07-.13-.04-.29.07-.38l.51-.4-.18.1c-.14.08-.32.03-.4-.11-.06-.1-.05-.23.02-.32l.71-.95c-.14.08-.32.02-.4-.12-.08-.14-.02-.32.12-.4l1.21-.7c.14-.08.32-.03.4.11.06.1.05.23-.02.32l-.71.95,2.42-1.4c.14-.08.32-.03.4.11.07.12.04.28-.07.37l-.51.4,1.54-.89c.14-.08.32-.03.4.11.07.13.04.29-.08.38l-1.38,1.06,2.68-1.54c.14-.08.32-.04.4.1.08.13.04.3-.08.39l-1.73,1.24,3.01-1.73c.14-.08.32-.03.4.12.07.13.04.29-.08.38l-2.64,1.84L29.62.2c.14-.08.32-.03.4.11.07.13.04.3-.09.39l-3.97,2.74L31.58.2c.14-.08.32-.03.4.11.07.13.04.3-.09.39l-4.66,3.13,6.05-3.49c.14-.08.32-.03.4.11.07.13.03.3-.09.38l-6.61,4.46,7.18-4.14c.14-.08.32-.03.4.11.07.13.04.3-.09.39l-7.23,4.85,7.12-4.11c.14-.08.32-.03.4.11.08.14.04.31-.09.39l-4.67,3.02,4.36-2.52c.14-.08.32-.03.4.11.08.14.04.31-.09.39l-5.77,3.84,5.46-3.15c.14-.08.32-.03.4.11.08.14.04.31-.1.39l-.92.58.61-.35c.14-.08.32-.03.4.11.07.13.04.3-.09.39l-3.5,2.35,3.19-1.84c.14-.08.32-.03.4.11.08.14.04.31-.09.39l-1.41.94,1.11-.64c.14-.08.32-.03.4.11.07.13.03.3-.09.39l-.23.15c.16-.04.32.06.36.21.03.12-.02.25-.12.32l-1.43.98,1.12-.64c.14-.08.32-.04.4.1.08.13.04.31-.09.39l-.85.59.54-.31c.14-.08.32-.04.4.1.08.13.04.3-.08.39l-1.64,1.19,1.31-.76c.14-.08.32-.03.4.11.07.12.04.28-.07.37l-3.01,2.49s.07.04.09.06c.09.1.11.25.04.36l-.59.93.19-.11c.14-.08.32-.03.4.11.08.14.03.32-.11.4l-1.22.71s-.09.04-.14.04h0Z"/>
  <path class="cls-5" d="m9.3,10.72c-.16,0-.29-.13-.29-.29,0-.08.04-.16.1-.22l.74-.66-1.95,1.13c-.14.08-.32.03-.4-.11-.07-.12-.04-.28.07-.38l1.6-1.33-2.71,1.56c-.14.08-.32.04-.4-.1-.08-.13-.04-.3.08-.39l.99-.74-1.57.91c-.14.08-.32.03-.4-.11-.07-.13-.04-.29.07-.38l1.21-.95-1.18.68c-.14.08-.32.03-.4-.11-.07-.12-.04-.28.07-.38l2.24-1.85-1.91,1.1c-.14.08-.32.03-.4-.11-.04-.06-.05-.13-.03-.2l.19-1.02c-.07-.02-.13-.07-.16-.13-.08-.14-.03-.32.11-.4l.29-.17c.14-.08.32-.03.4.11.03.06.05.13.03.2l-.17.89,4.41-2.55c.14-.08.32-.03.4.11.07.12.04.28-.07.38l-2.24,1.85,1.71-.99c.14-.08.32-.03.4.11.07.13.04.29-.07.38l-1.21.95,2.38-1.37c.14-.08.32-.03.4.11.07.13.04.29-.08.38l-.99.74,1.28-.74c.14-.08.32-.03.4.11.07.12.04.28-.07.38l-1.6,1.33,1.43-.82c.14-.08.32-.02.4.12.06.12.04.26-.05.35l-.74.66.39-.23c.14-.08.32-.03.4.11.06.1.05.22-.01.32l-.42.6c.16,0,.3.12.31.28,0,.11-.05.21-.15.27l-.98.56c-.14.08-.32.03-.4-.11-.06-.1-.05-.22.01-.32l.38-.54-1.67.96s-.09.04-.15.04h0Z"/>
  <path class="cls-5" d="m7.54,5.26c-.16,0-.29-.13-.29-.29,0-.06.02-.13.06-.18l.85-1.12c-.16-.02-.27-.17-.25-.33.01-.09.07-.17.14-.21l.98-.56c.14-.08.32-.03.4.11.06.1.05.23-.02.33l-.75.99,1.41-.82c.14-.08.32-.04.4.11.08.14.04.32-.11.4,0,0,0,0,0,0l-2.68,1.55s-.1.04-.15.04Z"/>
  <path class="cls-5" d="m27.08,10.1c-.16,0-.29-.13-.29-.3,0-.09.04-.18.11-.23l.15-.12-.5.29c-.14.08-.32.03-.4-.11-.07-.12-.05-.28.06-.37l2.28-1.99-3.05,1.76c-.14.08-.32.03-.4-.11-.07-.13-.04-.29.08-.38l1.51-1.13-1.84,1.06c-.14.08-.32.04-.4-.1-.08-.13-.04-.3.08-.39l2.05-1.58-2.35,1.35c-.14.08-.32.03-.4-.11-.07-.13-.04-.29.08-.38l1.61-1.22-1.7.98c-.14.08-.32.04-.4-.1-.07-.13-.04-.29.07-.38l.63-.52-.5.29c-.14.08-.32.03-.4-.11-.07-.12-.04-.27.05-.36l.8-.74-.45.26c-.14.08-.32.03-.4-.11-.07-.12-.05-.26.05-.36l.5-.49s-.08-.06-.11-.11c-.08-.14-.03-.32.11-.4l1.3-.75c.14-.08.32-.03.4.11.07.12.05.26-.05.36l-.09.08.73-.42c.14-.08.32-.03.4.11.07.12.05.27-.05.36l-.8.74,1.19-.69c.14-.08.32-.03.4.11.07.12.04.28-.07.37l-.63.52,2.79-1.61c.14-.08.32-.03.4.11.07.13.04.29-.08.38l-1.61,1.22,2.16-1.25c.14-.08.32-.03.4.11.07.13.04.29-.08.38l-2.06,1.58,2.27-1.31c.14-.08.32-.03.4.11.07.13.04.29-.08.38l-1.51,1.13,1.36-.79c.14-.08.32-.03.4.11.07.12.05.28-.06.37l-2.28,1.99,1.55-.9c.14-.08.32-.03.4.11.07.13.04.29-.07.38l-1.11.87c.13.09.17.28.08.41-.02.04-.06.07-.1.09l-2.41,1.39s-.1.04-.15.04h0Z"/>
  <path class="cls-6" d="m12,18.99c-.16,0-.29-.13-.3-.29,0-.1.05-.19.12-.24l4.27-3.03-4.39,2.53c-.14.08-.32.03-.4-.11-.07-.13-.04-.29.08-.38l4.19-3.05-3.87,2.23c-.14.08-.32.04-.4-.1-.08-.13-.04-.3.08-.39l2.89-2.12-2.54,1.47c-.14.08-.32.04-.4-.11-.08-.13-.04-.29.08-.38l1.97-1.52-1.34.77c-.14.08-.32.02-.4-.12-.06-.12-.04-.26.05-.35l1.24-1.12c-.16-.02-.27-.17-.25-.33.01-.09.07-.17.14-.21l2.01-1.17c.14-.08.32-.02.4.12.06.12.04.26-.05.35l-1.02.92,2.72-1.56c.14-.08.32-.03.4.11.07.13.04.29-.07.38l-1.97,1.52,3.46-2c.14-.08.32-.03.4.11.07.13.04.29-.08.38l-2.89,2.12,4.01-2.31c.14-.08.32-.04.4.1.08.13.04.3-.08.39l-4.19,3.05,5.02-2.9c.14-.08.32-.03.4.11.07.13.04.29-.08.38l-4.27,3.03,4.76-2.75c.14-.08.32-.03.4.11.07.13.04.3-.09.39l-2.13,1.45,2.26-1.3c.14-.08.32-.03.4.11.08.13.04.3-.09.39l-.24.16.19-.11c.14-.08.32-.04.4.1.08.13.04.3-.08.39l-2.61,2.01,2.57-1.48c.14-.08.32-.04.4.1.08.13.04.3-.08.39l-.29.21.03-.02c.14-.08.32-.03.4.11.07.12.04.28-.07.37l-.69.55.37-.21c.14-.08.32-.03.4.11.06.1.05.24-.02.33l-.78.98.41-.24c.14-.08.32-.03.4.11.04.07.05.15.03.23l-.14.5c.14.07.2.25.13.4-.03.05-.07.09-.11.12l-.29.17c-.14.08-.32.03-.4-.11-.04-.07-.05-.15-.03-.23l.09-.31-1.12.65c-.14.08-.32.03-.4-.11-.06-.1-.05-.24.02-.33l.78-.98-2.47,1.43c-.14.08-.32.03-.4-.11-.07-.13-.04-.28.07-.38l.69-.55-1.79,1.03c-.14.08-.32.03-.4-.11-.07-.13-.04-.29.08-.38l.29-.21-1.22.71c-.14.08-.32.03-.4-.11-.07-.13-.04-.29.08-.38l2.61-2-4.33,2.5c-.14.08-.32.04-.4-.1-.08-.14-.04-.31.09-.4l.24-.16-1.15.66c-.14.08-.32.03-.4-.11-.07-.13-.04-.3.09-.39l2.13-1.45-3.37,1.95s-.1.04-.15.04h0Z"/>
  <path class="cls-2" d="m16.31,31.36c-.16,0-.29-.13-.29-.29,0-.08.03-.15.09-.21l.46-.45-.32.18c-.14.08-.32.03-.4-.11-.06-.1-.05-.22.01-.32l.95-1.35s-.05-.05-.07-.08c-.08-.14-.03-.32.11-.4l.57-.33c.14-.08.32-.03.4.11.06.1.05.22-.01.32l-.69.99,1.12-.65c.14-.08.32-.03.4.11.06.11.04.26-.05.35l-.45.45.67-.38c.11-.07.26-.05.35.05.09.09.11.24.05.35l-.41.72c.16.04.25.21.2.36-.02.07-.07.14-.14.17l-.62.36c-.14.08-.32.03-.4-.11-.05-.09-.05-.2,0-.29l.32-.56-1.69.97s-.09.04-.14.04h0Z"/>
  <path class="cls-2" d="m16.09,34.9c-.16,0-.29-.13-.3-.29,0-.08.03-.15.09-.21l1.03-1.02-.92.53c-.14.08-.32.03-.4-.11-.06-.11-.04-.26.05-.35l.99-.98-.43.25c-.14.08-.32.03-.4-.11-.04-.08-.05-.17-.02-.25l.32-.82s-.08-.06-.1-.1c-.08-.14-.03-.32.11-.4l.33-.19c.14-.08.32-.03.4.11.04.08.05.17.02.25l-.23.6,1.68-.97c.14-.08.32-.03.4.11.06.11.04.26-.05.35l-.99.98.94-.54c.14-.08.32-.03.4.11.07.12.05.26-.05.35l-1.03,1.02.85-.49c.14-.08.32-.03.4.11.06.11.05.25-.03.34l-.26.3h.02c.14-.09.32-.04.4.1.03.06.05.13.04.19l-.07.4c.15.06.23.22.18.38-.02.06-.07.12-.13.15l-.27.16c-.14.08-.32.03-.4-.12-.03-.06-.04-.12-.03-.19l.04-.27-1.01.58c-.14.08-.32.03-.4-.11-.06-.11-.05-.25.03-.34l.26-.3-1.31.76s-.09.04-.15.04h0Z"/>
  <path class="cls-7" d="m17.37,24.86c-.16,0-.29-.13-.29-.29,0-.09.04-.18.12-.24l.49-.37-1.24.72c-.14.08-.32.03-.4-.11-.07-.13-.04-.29.08-.38l3.01-2.27-3.91,2.26c-.14.08-.32.03-.4-.11-.08-.14-.04-.31.09-.39l.26-.17-.5.29c-.14.08-.32.03-.4-.12-.07-.13-.03-.3.09-.38l.47-.31-.64.37c-.14.08-.32.03-.4-.11-.08-.13-.04-.3.09-.39l2.24-1.55-2.44,1.41c-.14.08-.32.03-.4-.12-.07-.13-.03-.3.09-.38l.63-.42-.64.37c-.14.08-.32.03-.4-.11-.08-.13-.04-.3.09-.39l2.67-1.88-2.66,1.53c-.15.07-.32.02-.4-.13-.06-.12-.03-.27.08-.36l2.34-1.69-2.17,1.25c-.14.08-.32.03-.4-.11-.07-.13-.04-.29.07-.38l2.38-1.85-2.92,1.69c-.14.08-.32.03-.4-.11-.07-.13-.04-.29.08-.38l1.91-1.44-1.89,1.09c-.14.08-.32.03-.4-.11-.07-.11-.05-.26.05-.35l1.4-1.42s-.05-.05-.06-.08c-.08-.14-.03-.32.11-.4,0,0,0,0,0,0l1.02-.59c.14-.08.32-.03.4.11.07.11.05.26-.05.35l-.88.89,4.1-2.37c.14-.08.32-.03.4.11.07.13.04.29-.08.38l-1.9,1.44,2.6-1.5c.14-.08.32-.04.4.11.08.13.04.29-.08.38l-2.38,1.84,3.36-1.94c.14-.08.32-.04.4.1.08.13.04.3-.08.39l-2.34,1.69,3.37-1.94c.14-.08.32-.03.4.11.08.13.04.3-.09.39l-2.66,1.88,3.08-1.78c.14-.08.32-.03.4.12.07.13.03.3-.09.38l-.64.42.51-.29c.14-.09.32-.05.41.09.09.14.05.32-.09.41h0l-2.24,1.55,2.8-1.61c.14-.08.32-.03.4.11.08.14.04.31-.09.39l-.47.31.44-.26c.14-.08.32-.03.4.11.08.14.04.31-.09.39l-.37.24c.12-.04.26.01.33.12.09.13.06.3-.07.4l-3.01,2.27,1.47-.85c.14-.08.32-.03.4.11.07.13.04.29-.08.38l-.63.47c.12-.02.24.04.3.14.08.14.03.32-.11.4l-4.18,2.42s-.09.04-.14.04h0Z"/>
  <path class="cls-3" d="m15.59,29.88c-.16,0-.29-.13-.3-.29,0-.07.03-.14.07-.19l.4-.46-.61.35c-.14.08-.32.03-.4-.11-.06-.11-.05-.24.03-.34l.41-.47-.53.31c-.14.08-.32.03-.4-.11-.06-.11-.05-.25.04-.34l.23-.25-.29.17c-.14.08-.32.03-.4-.11-.05-.09-.05-.2,0-.29l.59-1.07-.94.54c-.14.08-.32.04-.4-.11-.08-.14-.04-.32.11-.4,0,0,0,0,0,0l1.86-1.07c.14-.08.32-.03.4.11.05.09.05.2,0,.29l-.59,1.07,1.05-.61c.14-.08.32-.03.4.11.06.11.05.25-.04.35l-.23.25.36-.21c.14-.08.32-.03.4.11.06.11.05.24-.03.34l-.41.47.61-.35c.14-.08.32-.03.4.11.06.11.05.25-.03.34l-.74.86c.13.09.16.28.07.41-.02.03-.06.06-.09.08l-.85.49s-.09.04-.15.04h0Z"/>
  <path class="cls-3" d="m18.66,29.61c-.16,0-.29-.13-.29-.3,0-.09.04-.17.11-.23l.22-.18-.35.2c-.14.08-.32.03-.4-.11-.06-.11-.05-.25.04-.35l1.07-1.16-1.28.74c-.14.08-.32.02-.4-.12-.06-.12-.04-.26.05-.35l1.69-1.52c-.02-.12.04-.23.14-.29l.54-.31c.14-.08.32-.02.4.12.06.12.04.26-.05.35l-.25.23.52-.3c.14-.08.32-.03.4.11.06.11.05.25-.04.35l-1.07,1.17,1.69-.98c.14-.08.32-.04.4.1.07.13.04.29-.07.38l-1.05.87c.13.1.15.28.05.41-.02.03-.05.06-.09.07l-1.84,1.06s-.1.04-.15.04h0Z"/>
  <g>
    <path class="cls-4" d="m12.57,7.39c-.07-1.36-1.56-1.29-2.57-1.25,1.21-1.91.94-4.6-1.84-3.13-.99.78-.74,2.72-2.09,3.1-.35-1.12-3.18-.99-3.19.35.04,2.54-.75,5.62,3,3.89,2.8.42,7.56,1.47,6.69-2.96h0Zm-8.75-1.36.22,4.12c-.63-.38-.27-3.31-.22-4.12.41.05.88-.1,1.27.05.31,1.23.15,2.79.06,4.07-.37-.03-.75,0-1.11,0Zm7.46-.14c-1.44.49-3.99.45-5.41-.28v-3.29c1.91-.22,1.81-2.39,2.84-3.46,2.41.29-.42,3.29.42,3.53,2.56-.52,2.77,1.59,2.16,3.5h0Z"/>
    <path class="cls-4" d="m34.95,2.82c.24-4.63-7.17-1.98-10.05-2.6-8.27-1.16-4.88,5.1-5.55,10.53-1.28-.1-2.56-.09-3.84.03C16.06-4.01,15.15,1.01,2.49.18-.84.1-.01,3.85-.07,6.08c.24,2.55-1.23,7.57,2.95,6.98-.73,5.83,3.52,1.24,5.88,0,1.06-.01,2.12,0,3.19,0-.92,1.4-1.82,6.51.36,6.99.05,1.77,1.07,3.38,2.65,4.18-.1.52-.19,1.05-.29,1.57-4.71,2.17-6.03,2.51-5.17,8.32,2.56,1.79,8.06.26,11.34.74,4.23.45,5.19-.42,4.68-4.68-.09-3.13-3.43-3.06-5.31-4.6-.09-.5-.18-.99-.27-1.49,1.53-.83,2.52-2.38,2.63-4.12,2.17-.74,1.3-5.38.4-6.95,1.17.13,2.55-.35,3.53.36,2.26,1.47,6.1,5.01,5.51-.35,5.08.1,2.27-7.02,2.95-10.2h0Zm-17.78,8.54c3.69-.64,6.35,2.51,5.75,6.07-.11-.05-.23-.08-.35-.1-.03-1.02-1.01-1.4-1.9-1.43-1.19-.06-2.18-.95-3.34-.92-1.47,1.04-4.48.38-4.98,2.4-.13.04-.26.09-.38.15-.54-3.31,1.51-6.74,5.19-6.18h0Zm-7.7,1.18c-1.62-.64-4.98,3.87-5.72,2.55.05-4.08.05-1.61-2.48-2.99-1.18-2.81-.16-6.34-.49-9.39C.79,1.71,1.04.69,2.26.68c3.61,0,7.23-.02,10.84,0,2.92.17,1.1,8.03,1.57,10.31-.9.3-1.7.84-2.32,1.56h-2.86Zm10.34,13.69l1.21.8c-.6.75-1.19,1.5-1.79,2.24.01,0,.02.01.03.02-.45-.39-.87-.8-1.28-1.23.61-.61,1.22-1.22,1.83-1.83h0Zm-3.2,5.2v-.05h1.62c.16.99.33,1.98.49,2.96h-2.59c.16-.97.32-1.94.48-2.91h0Zm1.28-2.29c.19.22.4.41.63.59-.08.33-.17.66-.25.99h-1.64c-.1-.4-.2-.79-.3-1.19.35-.3.68-.62,1-.96l.56.56Zm-1.6-.26c-.18.16-.3.38-.55.41-.67-.79-1.29-1.63-1.95-2.43l1.12-.74,2.07,2.07-.69.68Zm-4.36,5.46c-1.49.26-1.94-.78-1.72-2.11-.18-2.06.23-4.89,2.79-5.05.85.78,1.34,2.32,2.49,2.62.6,1.5,0,3.02-.19,4.55h-3.37Zm12.74-3.97c.5,5.35-.82,3.75-5.05,3.97-.15-1.49-.82-3-.28-4.45,1.1-.51,1.64-1.83,2.47-2.69,1.58.25,2.77,1.58,2.86,3.17Zm-5.33-4.72v.06s-1.86,1.87-1.86,1.87l-1.95-1.95.2-1.11c1.11.35,2.3.32,3.39-.09.07.4.15.81.22,1.22Zm3-5.99c-1.09,0-.46,3.1-2.76,4.16-2.83,1.72-6.48-.88-6.41-4.08-1.05-.08-1.74-1.58-.61-2.05.87.07.5-.89,1.05-1.25,4.74-1.24,2.82-1.11,7.51.06.39.25.63.67.63,1.13,1.03-.01,1.71,1.62.59,2.02h0Zm3.61-6.69,8.14-1.61c-.6,2.53-3.54-.42-2.92,3.14.55,2.55-3.59-1.69-4.47-1.88-1.31-.17-2.7,0-4.04-.06-.63-.77-1.47-1.34-2.41-1.64.36-2.95-.87-7.77.62-10.14.81-.37,1.76-.09,2.63-.17,12.49-.06,10.66-1.68,10.59,10.74h0Z"/>
    <path class="cls-4" d="m29.68,3.19c-.87-.22-1.8.03-2.45.65-5.12-2.87-5.99,4.52-.45,6.23,3-.02,6.95-5.29,2.9-6.87h0Zm-2.42,6.35c-5.14-1.75-3.82-8.24-.5-4.95.15.25.68.04.8-.15,3.11-2.94,4.68,3.43-.3,5.1h0Z"/>
  </g>
</svg>