<?xml version="1.0" encoding="UTF-8"?>
<svg id="Layer_1" data-name="Layer 1" xmlns="http://www.w3.org/2000/svg" viewBox="0 0 35 35">
  <defs>
    <style>
      .cls-1 {
        fill: #f47721;
      }

      .cls-1, .cls-2, .cls-3 {
        stroke-width: 0px;
      }

      .cls-3 {
        fill: #c1dbf0;
      }
    </style>
  </defs>
  <path class="cls-3" d="m16.51,28.86c-.1,0-.19-.05-.25-.14-.08-.13-.05-.31.08-.4l5.77-3.98-7.23,4.17c-.14.08-.31.04-.4-.1s-.04-.31.09-.4l2.99-1.91-3.66,2.11c-.14.08-.31.04-.4-.1-.08-.14-.04-.31.09-.4l3.55-2.26-4.14,2.39c-.14.08-.31.04-.4-.1s-.04-.31.09-.4l5.53-3.56-6.17,3.56c-.14.08-.31.04-.4-.1-.08-.14-.04-.31.09-.4l4.92-3.12-5.4,3.12c-.14.08-.32.03-.4-.1s-.04-.32.1-.4l.64-.39-.87.5c-.14.08-.31.04-.4-.1-.08-.13-.04-.31.09-.4l8.14-5.28-8.69,5.02c-.14.08-.32.03-.4-.1-.08-.14-.04-.31.1-.4l3.42-2.13-3.63,2.1c-.14.08-.31.04-.4-.1-.08-.14-.04-.31.09-.4l7.82-5.01-8.17,4.71c-.14.08-.31.04-.4-.1-.08-.14-.04-.31.09-.4l6.92-4.39-7.14,4.12c-.14.08-.32.03-.4-.1-.08-.14-.04-.32.1-.4l1.42-.87-1.43.83c-.14.08-.31.04-.4-.1s-.04-.31.09-.4l6.31-3.99-6.4,3.69c-.14.08-.31.04-.4-.1-.08-.14-.04-.31.1-.4l5.24-3.29-5.25,3.03c-.14.08-.31.04-.4-.1-.08-.14-.04-.31.09-.4l6.91-4.4-6.89,3.98c-.14.08-.32.03-.4-.1-.08-.14-.04-.31.1-.4l2.53-1.57-2.38,1.38c-.14.08-.31.04-.4-.1-.08-.14-.04-.31.09-.4l5.64-3.58-5.47,3.16c-.14.08-.31.04-.4-.1-.08-.13-.04-.31.09-.4l7.95-5.22-7.71,4.45c-.14.08-.31.04-.4-.1-.08-.13-.05-.31.09-.4l7.56-5.02-7.15,4.13c-.14.08-.31.04-.4-.1-.08-.14-.04-.31.09-.4l2.64-1.67-2.17,1.25c-.14.08-.31.04-.4-.1-.08-.13-.04-.31.09-.4l4.87-3.22-4.2,2.42c-.14.08-.31.04-.4-.1-.08-.13-.05-.31.09-.4l3.34-2.21-2.49,1.44c-.14.08-.31.04-.39-.1-.08-.13-.05-.31.08-.4l2.89-2-1.64.94c-.13.08-.31.04-.39-.09-.09-.13-.06-.3.07-.4l2.08-1.59c-.07-.02-.13-.07-.17-.13-.08-.14-.03-.32.11-.4l3.09-1.78c.13-.08.3-.04.39.09s.06.3-.07.4l-1.5,1.15,3.98-2.3c.14-.08.31-.04.39.1.08.13.05.31-.08.4l-2.89,2,4.39-2.53c.14-.08.31-.04.4.1.08.13.05.31-.09.4l-3.33,2.21,4.4-2.54c.14-.08.31-.04.4.1.08.13.04.31-.09.4l-4.87,3.22,5.87-3.39c.14-.08.31-.03.4.1s.04.31-.09.4l-2.64,1.68,3.22-1.86c.14-.08.31-.04.4.1.08.13.05.31-.09.4l-7.56,5.02,8.5-4.91c.14-.08.31-.04.4.1.08.13.04.31-.09.4l-7.95,5.22,8.71-5.03c.14-.08.31-.03.4.1s.04.31-.09.4l-5.64,3.58,6.07-3.5c.14-.08.32-.04.4.1.08.14.04.31-.1.4l-2.52,1.57,2.75-1.59c.14-.08.32-.04.4.1.08.14.04.31-.09.4l-6.91,4.4,7.26-4.19c.14-.08.32-.04.4.1.08.14.04.31-.1.4l-5.25,3.29,5.46-3.15c.14-.08.31-.04.4.1s.04.31-.09.4l-6.31,3.98,6.5-3.75c.14-.08.32-.04.4.1.08.14.04.32-.1.4l-1.42.87,1.43-.83c.14-.08.32-.03.4.1.08.14.04.31-.09.4l-6.93,4.4,7.03-4.06c.14-.08.31-.03.4.1.08.14.04.31-.09.4l-7.82,5.01,7.88-4.55c.14-.08.31-.04.4.1.08.14.04.31-.1.4l-3.41,2.12,3.32-1.92c.14-.08.31-.04.4.1.08.13.04.31-.09.4l-8.15,5.28,8.07-4.66c.14-.08.32-.04.4.1.08.14.04.32-.1.4l-.63.39.41-.24c.14-.08.31-.04.4.1.08.14.04.31-.09.4l-4.92,3.12,4.66-2.69c.14-.08.31-.04.4.1s.04.31-.09.4l-5.54,3.56,5.18-2.99c.14-.08.31-.04.4.1.08.14.04.31-.09.4l-3.55,2.26,3.12-1.8c.14-.08.31-.03.4.1.08.14.04.31-.09.4l-2.99,1.91,2.45-1.42c.14-.08.31-.04.39.1.08.13.05.31-.08.4l-5.76,3.98,4.83-2.79c.13-.08.31-.04.39.09.08.13.05.31-.08.4l-4.05,2.9,2.64-1.53c.13-.08.3-.04.39.09s.06.3-.07.4l-2.07,1.58c.07.02.13.07.16.13.08.14.03.32-.11.4l-3.09,1.78c-.13.08-.3.04-.39-.09s-.06-.3.07-.4l1.48-1.13-3.95,2.28c-.13.08-.31.04-.39-.09-.08-.13-.05-.31.08-.4l4.05-2.9-5.89,3.4s-.1.04-.15.04h0Z"/>
  <g>
    <path class="cls-1" d="m20.51,31.51c-.1,0-.2-.05-.25-.15-.08-.14-.03-.32.11-.4l8.95-5.17c.13-.08.3-.04.39.09.09.13.06.3-.06.39l-1.05.86,1.2-.69c.13-.08.3-.04.39.09s.06.3-.05.39l-.93.78,1.07-.62c.13-.08.29-.04.38.08.09.12.08.28-.03.39l-1.42,1.38,1.06-.61c.14-.08.32-.03.4.11.08.14.03.32-.11.4l-3.11,1.79c-.13.07-.29.04-.38-.08-.09-.12-.08-.28.03-.39l1.42-1.38-2.01,1.16c-.13.08-.3.04-.39-.09-.09-.13-.06-.3.05-.39l.94-.78-1.29.75c-.13.08-.3.04-.39-.09-.09-.13-.06-.3.06-.39l1.05-.86-5.87,3.39s-.1.04-.15.04Z"/>
    <path class="cls-1" d="m31.72,20.25c-.1,0-.2-.05-.25-.15-.08-.14-.03-.32.11-.4l2.76-1.6c.12-.07.28-.04.37.07.09.11.09.27,0,.38l-.27.32c.06.02.1.07.14.12.08.14.03.32-.11.4l-1,.58c-.12.07-.28.04-.37-.07-.09-.11-.09-.27,0-.38l.04-.04-1.26.73s-.1.04-.15.04h0Z"/>
    <path class="cls-1" d="m26.13,24.9c-.1,0-.19-.05-.25-.13-.09-.13-.05-.3.07-.4l1.2-.9c-.1,0-.21-.04-.27-.13-.08-.13-.05-.31.08-.4l2-1.41-1.01.58c-.13.08-.3.04-.39-.09-.09-.13-.06-.3.06-.4l3.21-2.48-2.34,1.35c-.13.08-.3.04-.39-.09-.09-.13-.06-.3.06-.4l2.59-2.04-2.01,1.16c-.13.08-.3.04-.39-.09-.09-.13-.06-.3.06-.4l1.38-1.08-.98.56c-.13.08-.3.04-.39-.09s-.06-.3.05-.39l.74-.62-.41.24c-.13.07-.29.04-.38-.08-.09-.12-.08-.28.03-.39l.9-.88-.63.36c-.12.07-.28.04-.38-.07-.09-.11-.09-.27.01-.38l1.08-1.18-.91.53c-.13.08-.29.04-.38-.08-.09-.12-.08-.29.03-.39l.53-.5-.38.22c-.12.07-.28.04-.38-.07-.09-.11-.08-.28.01-.38l.84-.9-.8.46c-.13.07-.29.04-.38-.07s-.08-.28.02-.39l.64-.65-.62.36c-.13.08-.29.04-.38-.08-.09-.12-.07-.29.04-.39l.23-.22-.19.11c-.12.07-.29.04-.38-.07-.09-.11-.08-.28.02-.38l.65-.68-.73.42c-.13.07-.29.04-.38-.08s-.07-.29.04-.39l1.26-1.18-1.49.86c-.13.08-.3.04-.39-.09-.09-.12-.06-.3.05-.39l1.77-1.49-2.11,1.22c-.13.08-.31.04-.39-.09-.09-.13-.06-.3.07-.4l.98-.75-1.21.7c-.13.08-.3.04-.39-.09s-.06-.3.05-.39l1.85-1.55-2.34,1.35c-.13.08-.3.04-.39-.08-.09-.12-.07-.29.05-.39l2.04-1.73-2.69,1.55c-.12.07-.28.04-.37-.06-.09-.11-.09-.27,0-.38l.8-.97-1.48.86c-.12.07-.27.05-.37-.06-.09-.1-.1-.26-.01-.37l.88-1.15-1.85,1.07c-.13.07-.29.04-.38-.08-.09-.12-.07-.29.04-.39l.46-.43-1.11.64c-.13.07-.29.04-.38-.08s-.08-.28.03-.39l.72-.7-1.69.98c-.13.08-.3.04-.39-.08-.09-.12-.07-.29.05-.39l.48-.42-1.5.86c-.13.07-.29.04-.38-.07s-.08-.28.02-.38l1.43-1.48-4.55,2.62c-.14.08-.32.03-.4-.11-.08-.14-.03-.32.11-.4l6.35-3.67c.13-.07.29-.04.38.07.09.11.08.28-.02.38l-1.43,1.48,2.3-1.33c.13-.08.3-.04.39.08.09.12.07.29-.05.39l-.48.42,1.06-.61c.13-.07.29-.04.38.08.09.12.08.28-.03.39l-.72.7,1.35-.78c.13-.08.29-.04.38.08.09.12.07.29-.04.39l-.46.43.9-.52c.12-.07.27-.05.37.06.09.1.1.26.01.37l-.88,1.15,1.63-.94c.12-.07.28-.04.37.06s.09.27,0,.38l-.8.97,4.09-2.36c.13-.08.3-.04.39.08.09.12.07.29-.05.39l-2.04,1.73,2.49-1.44c.13-.08.3-.04.39.09s.06.3-.05.39l-1.85,1.54,2.25-1.3c.13-.08.3-.04.39.09s.06.3-.07.4l-.98.75,1.02-.59c.13-.08.3-.04.39.09.09.12.06.3-.05.39l-1.77,1.49.8-.46c.13-.08.29-.04.38.08.09.12.07.29-.04.39l-1.26,1.18.26-.15c.12-.07.29-.04.38.07s.08.28-.02.38l-.65.68.73-.42c.13-.07.29-.04.38.08.09.12.07.29-.04.39l-.23.22.2-.11c.13-.07.29-.04.38.07s.08.28-.02.39l-.64.65.64-.37c.12-.07.28-.04.38.07.09.11.08.28-.01.38l-.84.9.83-.48c.13-.08.29-.04.38.08.09.12.08.29-.03.39l-.53.5.42-.24c.12-.07.28-.04.38.07.09.11.09.27-.01.38l-1.08,1.18.99-.57c.13-.08.29-.04.38.08.09.12.08.28-.03.39l-.9.88,1.33-.77c.13-.08.3-.04.39.09s.06.3-.05.39l-.74.62,1.61-.93c.13-.08.3-.04.39.09.09.13.06.3-.06.4l-1.38,1.08,2.01-1.16c.13-.08.3-.04.39.09.09.13.06.3-.06.4l-2.59,2.03,2.56-1.48c.13-.08.3-.04.39.09s.06.3-.06.4l-3.21,2.48,2.89-1.67c.13-.08.31-.04.39.1.08.13.05.31-.08.4l-3.36,2.37s.07.05.1.09c.09.13.05.3-.07.4l-1.01.75.39-.23c.14-.08.32-.03.4.11.08.14.03.32-.11.4l-4.71,2.72s-.1.04-.15.04h0Z"/>
    <path class="cls-1" d="m17.3,34.76c-.09,0-.18-.04-.23-.12-.09-.12-.08-.28.03-.39l.93-.9-2.04,1.18c-.14.08-.31.04-.4-.1-.08-.14-.04-.31.09-.4l3.31-2.13-3.48,2.01c-.14.08-.31.04-.4-.1-.08-.14-.04-.31.09-.4l5.26-3.42-5.11,2.95c-.13.08-.31.04-.39-.09-.09-.13-.05-.3.07-.4l2.42-1.81-2.25,1.3c-.13.08-.29.04-.38-.08-.09-.12-.07-.29.04-.39l1.39-1.3-2.05,1.18c-.13.07-.29.04-.38-.07-.09-.11-.08-.28.02-.38l.96-1.01-1.87,1.08c-.13.08-.3.04-.39-.09s-.06-.3.05-.39l.05-.04-.42.24c-.13.07-.29.04-.38-.08-.09-.12-.08-.28.03-.39l.65-.65-1.2.69c-.12.07-.28.04-.37-.07s-.09-.27,0-.38l.81-.94-1.43.83c-.13.07-.29.04-.38-.08-.09-.12-.08-.28.03-.39l.48-.48-3.5,2.02c-.13.08-.3.04-.39-.09-.09-.12-.07-.29.05-.39l1.94-1.63-2.51,1.45c-.13.08-.3.04-.39-.09-.09-.13-.06-.3.06-.4l1.47-1.16-1.77,1.02c-.13.08-.3.04-.39-.08-.09-.12-.07-.29.05-.39l2.03-1.75-2.42,1.4c-.13.08-.31.04-.39-.09s-.05-.3.07-.4l.57-.42-.33.19c-.13.08-.3.04-.39-.09-.09-.13-.06-.3.06-.39l1.26-1.02c-.12.04-.25,0-.33-.1-.09-.12-.07-.29.04-.39l.84-.78-.25.14c-.13.08-.3.04-.38-.08-.09-.12-.07-.29.04-.39l.1-.09-.07.04c-.12.07-.28.04-.37-.07-.09-.11-.09-.27,0-.38l.86-.99-.96.56c-.12.07-.28.04-.37-.07-.09-.11-.09-.27,0-.38l.91-1.03-.96.55c-.12.07-.28.04-.37-.07-.09-.11-.09-.27,0-.38l.99-1.11-.98.57c-.13.07-.29.04-.38-.08s-.08-.28.03-.39l.79-.79-.68.39c-.13.07-.29.04-.38-.08-.09-.12-.08-.28.02-.39l.93-.94-.86.49c-.13.07-.29.04-.38-.08-.09-.12-.08-.28.03-.39l1-.96-2.11,1.22c-.13.08-.3.04-.39-.09-.09-.13-.06-.3.06-.39l1.23-.98-2.03,1.17c-.13.08-.31.04-.39-.09-.09-.13-.06-.3.07-.4l1.95-1.49-2.09,1.2c-.13.08-.31.04-.39-.1-.08-.13-.05-.31.08-.4l1.13-.8-.83.48c-.14.08-.31.04-.39-.1s-.05-.31.08-.4l.77-.54-.46.27c-.12.07-.26.05-.36-.05s-.11-.25-.04-.36l.54-.85c-.13.06-.3.01-.37-.12-.08-.14-.03-.32.11-.4l1-.58c.12-.07.26-.05.36.05.09.1.11.25.04.36l-.53.84,5.58-3.22c.14-.08.31-.04.39.1.08.13.05.31-.08.4l-.78.54.12-.07c.13-.08.31-.04.39.1.08.13.05.31-.08.4l-1.13.8.57-.33c.13-.08.3-.04.39.09.09.13.06.3-.07.4l-1.95,1.49,1.45-.84c.13-.08.3-.04.39.09.09.13.06.3-.06.39l-1.23.98.84-.49c.13-.08.29-.04.38.08.09.12.08.28-.03.39l-1,.96.68-.39c.13-.07.29-.04.38.08.09.12.08.28-.02.39l-.94.94.7-.41c.13-.07.29-.04.38.08s.08.28-.03.39l-.79.79.63-.36c.12-.07.28-.04.37.07.09.11.09.27,0,.38l-.99,1.11.94-.54c.12-.07.28-.04.37.07.09.11.09.27,0,.38l-.91,1.03.94-.54c.12-.07.28-.04.37.07.09.11.09.27,0,.38l-.86.99.95-.55c.13-.08.29-.04.38.08.09.12.07.29-.04.39l-.1.09.08-.04c.13-.07.29-.04.38.08.09.12.07.29-.04.39l-.84.78.98-.57c.13-.08.3-.04.39.09.09.13.06.3-.06.39l-1.23.99,1.44-.83c.13-.08.31-.04.39.09.09.13.05.3-.07.4l-.57.42.72-.42c.13-.08.3-.04.39.08.09.12.07.29-.05.39l-2.03,1.75,2.54-1.47c.13-.08.3-.04.39.09.09.13.06.3-.06.4l-1.47,1.16,1.9-1.1c.13-.08.3-.04.39.09.09.12.07.29-.05.39l-1.94,1.63,2.61-1.51c.13-.07.29-.04.38.08.09.12.08.28-.03.39l-.48.48.94-.55c.12-.07.28-.04.37.07s.09.27,0,.38l-.81.94,1.64-.94c.13-.07.29-.04.38.08s.08.28-.03.39l-.66.65,1.45-.84c.13-.08.3-.04.39.09s.06.3-.05.39l-.04.04.66-.38c.12-.07.29-.04.38.07s.08.28-.02.38l-.96,1.01,2.49-1.44c.13-.08.29-.04.38.08.09.12.07.29-.04.39l-1.39,1.3,4.37-2.52c.13-.08.31-.04.39.09.09.13.05.3-.07.4l-2.42,1.81,10.31-5.95c.14-.08.31-.04.4.1.08.14.04.31-.09.4l-5.26,3.42,4.3-2.48c.14-.08.31-.04.4.1.08.14.04.31-.09.4l-9.13,5.89c.04.11.02.23-.07.31l-.93.9.42-.24c.12-.07.28-.04.37.07.09.11.09.27,0,.38l-.34.4c.06.02.11.07.15.13.08.14.03.32-.11.4l-.98.57c-.12.07-.28.04-.37-.07-.09-.11-.09-.27,0-.38l.13-.16-1.04.6s-.1.04-.15.04h0Z"/>
    <path class="cls-1" d="m15.11,3.35c-.09,0-.19-.04-.24-.13-.09-.13-.06-.3.06-.39l.32-.26c-.09,0-.18-.02-.25-.09-.09-.1-.1-.25-.02-.37l.51-.72c-.1,0-.21-.05-.26-.15-.08-.14-.03-.32.11-.4l.97-.56c.12-.07.27-.05.36.06.09.1.1.25.02.37l-.46.65,1.86-1.08c.13-.08.3-.04.39.09.09.13.06.3-.06.39l-.2.16.8-.46c.14-.08.32-.03.4.11.08.14.03.32-.11.4l-4.06,2.35s-.1.04-.15.04Z"/>
    <path class="cls-1" d="m3.75,15.08c-.09,0-.19-.05-.24-.13-.09-.13-.06-.3.06-.4l1.39-1.1-.79.46c-.13.08-.31.04-.39-.09-.08-.13-.05-.31.08-.4l.48-.34c-.11.01-.22-.04-.28-.14-.08-.14-.04-.31.1-.4l1.63-1.02-.93.53c-.14.08-.31.04-.4-.1-.08-.14-.04-.31.09-.4l2.89-1.83-2,1.15c-.14.08-.31.04-.4-.1-.08-.14-.04-.31.09-.4l3.92-2.52-3.02,1.74c-.14.08-.31.04-.4-.1s-.05-.31.08-.4l1.05-.71-1.15.66c-.13.08-.29.04-.38-.08-.09-.12-.07-.29.04-.39l1.61-1.5-1.91,1.1c-.13.07-.29.04-.38-.08-.09-.12-.08-.28.02-.39l1.59-1.6-1.58.91c-.13.08-.29.04-.38-.08-.09-.12-.07-.29.04-.39l1.46-1.34s-.02-.03-.03-.04c-.08-.14-.03-.32.11-.4l1.11-.64c.13-.08.29-.04.38.08s.07.29-.04.39l-.64.58,1.19-.69c.13-.07.29-.04.38.08.09.12.08.28-.02.39l-1.59,1.6,2.26-1.31c.13-.08.29-.04.38.08s.07.29-.04.39l-1.61,1.5,6.19-3.58c.14-.08.31-.04.4.1.08.13.05.31-.08.4l-1.05.71,6.5-3.75c.14-.08.31-.04.4.1.08.14.04.31-.09.4l-3.92,2.52,3.76-2.17c.14-.08.31-.04.4.1s.04.31-.09.4l-2.89,1.83,2.71-1.56c.14-.08.32-.03.4.1s.04.31-.1.4l-10.44,6.53c.03.12-.01.24-.11.31l-1.14.81c.06.02.11.06.15.11.09.13.06.3-.06.4l-1.39,1.1.21-.12c.14-.08.32-.03.4.11.08.14.03.32-.11.4l-3.7,2.14s-.1.04-.15.04h0Z"/>
  </g>
  <path class="cls-2" d="m21.2,6.7C2.14,2.38.42,31.22,19.95,28.52c11.24-2.35,12.32-18.33,1.26-21.82Zm-.04,21.17c-4.3,1.55-9.22-.09-12.01-3.63-6.29-7.65.96-20,10.78-17.35,10.17,2.43,11.14,17.47,1.22,20.99h0Z"/>
  <path class="cls-2" d="m33.76,15.06c-.66-.13-1.42-.14-2.06-.29-.14-1.86-1.15-3.81-2.17-5.33.61-1.05,2.26-2.16,1.09-3.44-1.56-2.14-3.1-2.38-5.04-.45-1.38-.9-2.91-1.58-4.52-1.95-.49-.12-.57.04-.64-.42-.17-1.22-.09-2.8-1.69-2.91-2.78-.35-4.19.2-4.15,3.27-1.75.39-3.4,1.06-4.92,2.01-2.02-2.11-3.65-1.52-5.26.62-.99,1.12.17,2.18.86,3.09.27.36.3.29.02.64-.99,1.46-1.61,3.18-1.97,4.9-3.11.04-3.64,1.44-3.15,4.23.49,1.32,2.2.82,3.23,1.2-.15-.13-.02.54-.03.4.38,1.7,1.09,3.53,2.18,4.88-.45.74-1.52,1.54-1.55,2.49,0,.83.92,1.47,1.45,2,1.23,1.5,2.85.48,4.01-.58,1.38.9,2.92,1.58,4.53,1.95.49.12.57-.04.64.42.17,1.22.09,2.8,1.69,2.91,2.78.35,4.19-.2,4.15-3.27,1.75-.39,3.4-1.06,4.92-2.01,2.02,2.11,3.65,1.52,5.26-.62.99-1.12-.17-2.18-.86-3.09-.27-.36-.3-.29-.02-.64.99-1.46,1.61-3.17,1.97-4.89,1.16-.11,2.87-.19,3.17-1.42.06-1.25.5-3.35-1.15-3.71h0Zm.34,3.56c-.1,1.21-1.76,1.06-2.67,1.19-.13.02-.46.1-.49.27-.37,1.95-1.12,3.77-2.23,5.41.54,1.3,2.47,2.38.69,3.78-1.26,1.84-2.16.64-3.48-.37-.2-.15-.55-.01-.73.11-1.53,1.04-3.24,1.76-5.07,2.11-.91.16-.49,1.54-.77,2.23-.17,1.09-.95.92-1.8.92-2.06.33-1.92-1.57-2.13-3.06-1.9-.53-3.85-1.11-5.49-2.31-.21-.14-.55-.03-.73.11-1.43,1.15-2.1,2.02-3.49.14-1.85-1.42.02-2.47.65-3.83-1.27-1.61-1.69-3.78-2.39-5.52-1.47-.17-3.34-.13-3-2.15-.32-2.34.72-2.34,2.67-2.49.13-.02.46-.1.49-.27.3-2.02,1.32-3.84,2.24-5.56-.86-1.1-2.27-2.48-.7-3.63.51-.5,1.11-1.46,1.9-.83.75.32,1.45,1.66,2.32,1.08,1.62-1.3,3.77-1.62,5.55-2.37.26-1.48-.03-3.29,2.08-2.88,2.06-.33,1.92,1.57,2.13,3.06,1.9.53,3.85,1.11,5.49,2.31,1.9.1,2.11-3.01,4.22-.25,1.66,1.22.28,2.49-.64,3.67.89,1.73,1.94,3.55,2.23,5.57,2.95.64,3.36-.02,3.16,3.54h0Z"/>
  <path class="cls-2" d="m23.81,23.04v-6.83c0-.18-.85-.05-.85.23v6.6h-2.08v-4.42c-1.44-1.35-.67,3.7-.85,4.42h-2.08v-3.31c-1.47-.73-.65,2.52-.85,3.31h-2.08c-.16-.56.39-2.3-.37-2.27-.93.17-.31,1.58-.48,2.27h-2.07v-12.61c-1.68-2.73-.56,11.66-.86,12.61-1.5-.18-1.55.85,0,.64v.88c0,.46.86.35.86-.06v-.83c.56-.05,17.34.32,11.72-.64Z"/>
  <path class="cls-2" d="m14.34,16.98l2.51-2.51c.67.43,1.28,1.97,2.18,1.34,1.11-1.11,2.22-2.23,3.34-3.34.14.52-.37,1.77.38,1.79.14-.02.48-.12.48-.32-.17-.72.37-2.2-.27-2.58-.92.14-2.14-.31-2.9.25-.02.64,1.61.17,2.1.31-1.17,1.07-2.25,2.24-3.38,3.35-.67-.43-1.28-1.97-2.18-1.34-.3.48-4.52,3.92-2.25,3.06h0Z"/>
</svg>