<?xml version="1.0" encoding="UTF-8"?>
<svg id="Layer_1" data-name="Layer 1" xmlns="http://www.w3.org/2000/svg" viewBox="0 0 35 35">
  <defs>
    <style>
      .cls-1 {
        fill: #f47822;
      }

      .cls-1, .cls-2, .cls-3, .cls-4, .cls-5 {
        stroke-width: 0px;
      }

      .cls-2 {
        fill: #f47721;
      }

      .cls-4 {
        fill: #fff;
      }

      .cls-5 {
        fill: #c1dbf0;
      }
    </style>
  </defs>
  <path class="cls-2" d="m11.31,34.91c-.1,0-.2-.05-.25-.14-.08-.14-.04-.32.1-.4l2.02-1.28-3.1,1.79c-.14.08-.32.04-.4-.1-.08-.14-.04-.32.09-.4l5.67-3.69-7.27,4.2c-.14.08-.32.04-.4-.1-.08-.14-.05-.31.09-.4l7.63-5.08-9.37,5.41c-.14.08-.32.04-.4-.1-.08-.14-.04-.32.1-.4l3.73-2.36-4.05,2.34c-.14.08-.32.04-.4-.1-.08-.14-.05-.32.09-.4l6.63-4.37-6.61,3.82c-.14.08-.32.04-.4-.1-.08-.14-.04-.32.09-.4l3.23-2.08-2.87,1.66c-.14.08-.32.04-.4-.1-.08-.14-.05-.31.09-.4l4.3-2.86-3.78,2.18c-.14.08-.32.04-.4-.1-.08-.14-.04-.32.09-.4l.45-.29c-.11.02-.22-.03-.29-.13-.09-.13-.05-.31.07-.4l3.57-2.62-2.38,1.37c-.14.08-.31.04-.4-.09-.09-.13-.06-.31.07-.4l1.65-1.27c-.06-.02-.11-.07-.14-.13-.08-.14-.03-.32.11-.41l2.93-1.69c.14-.08.31-.04.4.09s.06.31-.07.4l-.95.73,3.21-1.85c.14-.08.31-.04.4.09.09.13.05.31-.07.4l-3.57,2.62,5.57-3.22c.14-.08.32-.04.4.1.08.14.04.32-.09.4l-.05.03.93-.54c.14-.08.32-.04.4.1.08.14.05.31-.09.4l-4.29,2.86,5.83-3.37c.14-.08.32-.04.4.1.08.14.04.32-.09.4l-3.24,2.08,4.45-2.57c.14-.08.32-.04.4.1.08.14.04.32-.09.4l-6.63,4.37,8.13-4.69c.14-.08.32-.04.4.1s.04.32-.1.4l-3.73,2.36,4.55-2.63c.14-.08.32-.04.4.1.08.14.05.31-.09.4l-7.63,5.08,8.79-5.07c.14-.08.32-.04.4.1s.04.32-.09.4l-5.67,3.7,6.39-3.69c.14-.08.32-.04.4.1s.04.32-.1.4l-2.02,1.28,2.36-1.36c.14-.08.32-.04.4.1.08.14.04.32-.09.4l-3.46,2.23,3.82-2.21c.14-.08.32-.04.4.1.08.14.04.32-.09.4l-2.75,1.77,3-1.73c.14-.08.32-.04.4.1.08.14.04.32-.09.4l-2.52,1.64,2.71-1.56c.14-.08.31-.04.4.1.09.13.05.31-.08.4l-4.12,2.83,4.35-2.51c.14-.08.31-.04.4.1.09.13.05.31-.07.4l-4.07,2.96,4.24-2.45c.14-.08.31-.04.4.1.09.14.05.31-.08.4l-1.35.92,1.28-.74c.13-.08.31-.04.39.09.09.13.06.3-.06.4l-2.73,2.2,2.67-1.54c.13-.08.3-.04.39.08.09.12.07.29-.04.39l-1.76,1.61,1.55-.89c.13-.08.3-.04.39.08.09.13.07.3-.05.4l-.27.23c.13-.04.27.01.34.14.08.14.03.32-.11.41l-2.62,1.51c-.13.08-.3.04-.39-.08-.09-.13-.07-.3.05-.4l.23-.2-1.18.68c-.13.08-.3.04-.39-.08-.09-.12-.07-.29.04-.39l1.76-1.61-3.62,2.09c-.13.08-.31.04-.39-.09-.09-.13-.06-.3.06-.4l2.73-2.2-4.66,2.69c-.14.08-.31.04-.4-.1s-.05-.31.08-.4l1.35-.92-2.47,1.42c-.14.08-.31.04-.4-.1-.09-.13-.05-.31.07-.4l4.07-2.96-5.98,3.45c-.14.08-.31.04-.4-.1-.08-.13-.05-.31.08-.4l4.12-2.83-5.78,3.34c-.14.08-.32.04-.4-.1-.08-.14-.04-.32.09-.4l2.52-1.64-3.72,2.15c-.14.08-.32.04-.4-.1-.08-.14-.04-.32.09-.4l2.75-1.77-3.95,2.28c-.14.08-.32.04-.4-.1-.08-.14-.04-.32.09-.4l3.46-2.23-4.74,2.74s-.1.04-.15.04h0Z"/>
  <path class="cls-5" d="m17.82,27.17c-.09,0-.17-.04-.23-.11-.09-.11-.09-.27,0-.38l.94-1.12-2.13,1.23c-.13.08-.3.04-.39-.08-.09-.12-.07-.29.04-.39l1.55-1.41-1.96,1.13c-.13.08-.31.04-.39-.09-.09-.13-.06-.3.06-.4l.19-.14-.11.07c-.13.08-.3.04-.39-.08-.09-.12-.07-.29.04-.39l.44-.4-.19.11c-.1.06-.23.05-.32-.02-.1-.07-.14-.19-.12-.3l.19-.94c-.07-.02-.12-.07-.16-.13-.08-.14-.03-.32.11-.41l.3-.17c.1-.06.23-.05.32.02.09.07.14.19.12.3l-.17.8,1.96-1.13c.13-.08.3-.04.39.08.09.12.07.29-.04.39l-.44.4,1.53-.88c.13-.08.31-.04.39.09.09.13.06.3-.06.4l-.19.14.6-.35c.13-.08.3-.04.39.08.09.12.07.29-.04.39l-1.55,1.41,1.2-.7c.12-.07.28-.04.38.07.09.11.09.27,0,.38l-.94,1.12.07-.04c.14-.08.32-.03.41.11.08.14.03.32-.11.41l-1.54.89s-.1.04-.15.04h0Z"/>
  <path class="cls-1" d="m23.38.85c-.1,0-.2-.05-.26-.15-.08-.14-.03-.32.11-.41l.44-.26c.14-.08.32-.03.41.11.08.14.03.32-.11.41l-.44.26s-.1.04-.15.04Z"/>
  <path class="cls-5" d="m11.14,13.54c-.1,0-.2-.05-.25-.14-.08-.14-.05-.32.09-.4l6.76-4.49-8.41,4.85c-.14.08-.32.03-.4-.1-.08-.14-.04-.32.1-.4l1.95-1.22-1.74,1.01c-.14.08-.32.04-.4-.1-.08-.14-.04-.32.09-.4l6.36-4.12-6.19,3.57c-.14.08-.32.04-.4-.1-.08-.14-.04-.32.09-.4l5.96-3.86-5.78,3.34c-.14.08-.31.04-.4-.1-.08-.14-.05-.31.08-.4l6.06-4.18-5.93,3.42c-.14.08-.32.04-.4-.1-.08-.14-.05-.31.08-.4l3.74-2.54-3.39,1.95c-.14.08-.32.04-.4-.1-.08-.14-.05-.32.09-.4l1.37-.91-.88.51c-.14.08-.31.04-.4-.09-.09-.13-.06-.31.07-.4l3.17-2.35-2.24,1.29c-.13.08-.3.04-.39-.09-.09-.12-.07-.3.05-.4l1.96-1.69c-.09,0-.18-.06-.23-.15-.08-.14-.03-.32.11-.41l2.33-1.35c.13-.08.3-.04.39.09s.07.3-.05.4l-1.74,1.5,3.99-2.3c.14-.08.31-.04.4.09.09.13.06.31-.07.4l-3.17,2.35,4.65-2.69c.14-.08.32-.04.4.1.08.14.05.32-.09.4l-1.37.91,2.17-1.25c.14-.08.32-.04.4.1.08.14.05.31-.08.4l-3.74,2.54,5.28-3.05c.14-.08.31-.04.4.1.09.14.05.31-.08.4l-6.06,4.18L24.5.9c.14-.08.32-.04.4.1.08.14.04.32-.09.4l-5.96,3.86,6.17-3.56c.14-.08.32-.04.4.1.08.14.04.32-.09.4l-6.35,4.12,6.46-3.73c.14-.08.32-.04.4.1.08.14.04.32-.1.4l-1.96,1.22,1.88-1.09c.14-.08.32-.04.4.1.08.14.05.32-.09.4l-6.76,4.49,6.74-3.89c.14-.08.32-.04.4.1.08.14.04.32-.1.4l-.58.36.39-.22c.14-.08.32-.04.4.1.08.14.04.32-.09.4l-2.81,1.82,2.6-1.5c.14-.08.31-.04.4.1.09.14.05.31-.08.4l-4.31,2.97,4.05-2.34c.14-.08.31-.04.4.1.09.13.05.31-.08.4l-3.09,2.17,2.73-1.58c.14-.08.31-.04.4.1s.05.31-.08.4l-2.01,1.44,1.56-.9c.13-.08.31-.04.39.09.09.13.06.3-.06.4l-1.8,1.44,1.26-.73c.13-.07.29-.04.38.07.09.11.09.28-.01.39l-1.15,1.24.68-.39c.12-.07.27-.05.37.06.09.1.1.26.02.37l-.27.37c.09.01.17.06.22.15.08.14.03.32-.11.41l-.93.54c-.12.07-.27.05-.37-.06-.09-.1-.1-.26-.02-.37l.18-.25-1.18.68c-.13.07-.29.04-.38-.07-.09-.11-.09-.28.01-.39l1.15-1.24-2.95,1.7c-.13.08-.31.04-.39-.09-.09-.13-.06-.3.06-.4l1.8-1.44-3.34,1.93c-.14.08-.31.04-.4-.1-.09-.13-.05-.31.08-.4l2-1.44-3.36,1.94c-.14.08-.31.04-.4-.1s-.05-.31.08-.4l3.09-2.17-4.63,2.67c-.14.08-.31.04-.4-.1-.09-.14-.05-.31.08-.4l4.31-2.98-6.03,3.48c-.14.08-.32.04-.4-.1-.08-.14-.04-.32.09-.4l2.8-1.82-4.03,2.32c-.14.08-.32.04-.4-.1-.08-.14-.04-.32.1-.4l.58-.37-1.52.88s-.1.04-.15.04h0Z"/>
  <path class="cls-4" d="m16.6,23.57c-.1,0-.19-.05-.25-.14-.09-.13-.05-.31.07-.4l3.91-2.85-5.18,2.99c-.14.08-.31.04-.4-.1-.08-.13-.05-.31.08-.4l3.96-2.72-4.75,2.74c-.14.08-.31.04-.4-.1-.09-.13-.05-.31.08-.4l5.4-3.75-6.17,3.56c-.14.08-.32.04-.4-.1-.08-.14-.04-.32.09-.4l1.75-1.13-2,1.16c-.14.08-.32.04-.4-.1s-.05-.31.09-.4l5.75-3.87-6.19,3.57c-.14.08-.32.04-.4-.1-.08-.14-.05-.31.09-.4l6.45-4.33-6.78,3.91c-.14.08-.32.04-.4-.1-.08-.14-.04-.32.1-.4l1.75-1.11-1.76,1.02c-.14.08-.32.04-.4-.1-.08-.14-.04-.32.1-.4l.94-.6-.89.51c-.14.08-.32.04-.4-.1-.08-.14-.04-.32.09-.4l2.52-1.62-2.44,1.41c-.14.08-.32.04-.4-.1-.08-.14-.04-.32.09-.4l3.43-2.24-3.29,1.9c-.14.08-.31.04-.4-.1-.09-.14-.05-.31.08-.4l5.82-3.99-5.59,3.23c-.14.08-.31.04-.4-.1-.09-.13-.05-.31.08-.4l4.04-2.87-3.73,2.15c-.14.08-.31.04-.4-.09-.09-.13-.06-.31.07-.4l3.11-2.35-2.78,1.61c-.13.08-.31.04-.39-.09-.09-.13-.06-.3.06-.4l2.04-1.59-1.71.99c-.1.06-.24.05-.33-.02s-.14-.2-.1-.32l.16-.56c-.06-.02-.11-.07-.14-.12-.08-.14-.03-.32.11-.41l.33-.19c.11-.06.24-.05.33.02.1.07.14.2.1.32l-.12.4,4.8-2.77c.14-.08.31-.04.39.09.09.13.06.3-.06.4l-2.04,1.59,3.19-1.84c.14-.08.31-.04.4.09s.06.31-.07.4l-3.11,2.35,5.06-2.92c.14-.08.31-.04.4.1.09.13.05.31-.08.4l-4.04,2.87,6.73-3.88c.14-.08.31-.04.4.1.09.14.05.31-.08.4l-5.82,3.99,6.08-3.51c.14-.08.32-.04.4.1.08.14.04.32-.09.4l-3.42,2.24,3.68-2.12c.14-.08.32-.04.4.1.08.14.04.32-.09.4l-2.52,1.62,2.88-1.66c.14-.08.32-.04.4.1s.04.32-.1.4l-.94.6,1.43-.82c.14-.08.32-.04.4.1s.04.32-.1.4l-1.75,1.11,2.04-1.18c.14-.08.32-.04.4.1.08.14.05.31-.09.4l-6.45,4.33,6.13-3.54c.14-.08.32-.04.4.1.08.14.05.31-.09.4l-5.75,3.87,5.44-3.14c.14-.08.32-.04.4.1.08.14.04.32-.09.4l-1.75,1.13,1.45-.83c.14-.08.31-.04.4.1s.05.31-.08.4l-5.41,3.75,5.08-2.93c.14-.08.31-.04.4.1.09.13.05.31-.08.4l-3.96,2.73,3.51-2.03c.14-.08.31-.04.4.1.09.13.05.31-.07.4l-3.91,2.85,3.11-1.8c.13-.08.31-.04.39.09.09.13.06.3-.06.4l-2.52,1.99,1.04-.6c.14-.08.32-.03.41.11.08.14.03.32-.11.41l-4.63,2.67c-.13.08-.31.04-.39-.09s-.06-.3.06-.4l2.52-1.99-4.39,2.53s-.1.04-.15.04h0Z"/>
  <path class="cls-5" d="m12.57,9.55c-.08,0-.16-.03-.21-.09-.09-.1-.11-.25-.04-.36l.54-.85c-.04-.13,0-.28.13-.35l.2-.12c.12-.07.27-.05.36.05.09.1.11.25.04.36l-.13.2.4-.23c.14-.08.32-.03.41.11.08.14.03.32-.11.41l-1.45.83s-.1.04-.15.04Z"/>
  <g>
    <path class="cls-4" d="m7.6,15.9c-.09,0-.18-.04-.24-.12-.09-.12-.08-.28.02-.39l.61-.62-1.28.74c-.13.08-.3.04-.39-.08-.09-.12-.07-.29.04-.4l1.02-.91-1.01.58c-.13.08-.3.04-.39-.08-.09-.12-.07-.29.04-.39l1.62-1.51-1.27.73c-.13.08-.3.04-.39-.08-.09-.12-.08-.29.03-.39l1.27-1.23-.92.53c-.12.07-.27.05-.36-.05-.09-.1-.11-.25-.03-.37l.47-.71c-.12.02-.25-.03-.31-.14-.08-.14-.03-.32.11-.41l.98-.57c.12-.07.27-.05.36.05s.11.25.03.37l-.45.69,1.91-1.1c.13-.08.3-.04.39.08.09.12.08.29-.03.39l-1.27,1.23,1.44-.83c.13-.08.3-.04.39.08.09.12.07.29-.04.39l-1.62,1.51,1.27-.73c.13-.08.3-.04.39.08.09.12.07.29-.04.4l-1.02.91.68-.39c.13-.08.29-.04.38.08.09.12.08.28-.02.39l-.61.62.26-.15c.1-.06.23-.05.33.02.1.07.14.19.11.31l-.17.74c.06.02.11.07.14.13.08.14.03.32-.11.41l-.3.17c-.1.06-.23.05-.33-.02-.1-.07-.14-.19-.11-.31l.14-.59-1.58.91s-.1.04-.15.04h0Z"/>
    <path class="cls-4" d="m26.71,15.91c-.09,0-.17-.04-.23-.11-.09-.11-.09-.28,0-.38l.82-.92-1.93,1.11c-.13.08-.3.04-.39-.08-.09-.12-.07-.29.04-.39l1.4-1.25-1.05.61c-.13.08-.3.04-.39-.09s-.07-.3.05-.4l.93-.79-.6.34c-.13.08-.29.04-.38-.08-.09-.12-.08-.28.02-.39l1.31-1.32-.95.55c-.11.06-.25.05-.34-.03-.1-.08-.13-.22-.08-.34l.4-.97c-.13.04-.28-.01-.35-.13-.08-.14-.03-.32.11-.41l.69-.4c.11-.06.25-.05.34.03.1.08.13.22.08.34l-.39.96,2.1-1.21c.13-.07.29-.04.38.08.09.12.08.28-.02.39l-1.31,1.32,1.6-.92c.13-.08.3-.04.39.09.09.13.07.3-.05.4l-.94.79.61-.35c.13-.08.3-.04.39.08.09.12.07.29-.04.39l-1.4,1.25,1.05-.61c.12-.07.29-.04.38.07s.09.28,0,.38l-.82.92.45-.26c.14-.08.32-.03.41.11.08.14.03.32-.11.41l-2.05,1.18s-.1.04-.15.04h0Z"/>
    <path class="cls-4" d="m18.18,21.25c-.09,0-.17-.04-.23-.11-.09-.11-.09-.27,0-.38l.86-1.03-1.57.91c-.12.07-.26.05-.36-.05-.1-.09-.12-.24-.05-.36l.46-.82-.05.03c-.14.08-.32.03-.41-.11-.08-.14-.03-.32.11-.41l.98-.57c.12-.07.26-.05.36.05s.12.24.05.36l-.46.82,2.08-1.2c.12-.07.28-.05.38.07s.09.27,0,.38l-.86,1.03,1.33-.77c.12-.07.27-.05.36.05.09.1.11.25.03.37l-.39.58c.12-.02.25.03.31.14.08.14.03.32-.11.41l-.98.57c-.12.07-.27.05-.36-.05-.09-.1-.11-.25-.03-.37l.37-.55-1.69.97s-.1.04-.15.04h0Z"/>
  </g>
  <path class="cls-3" d="m27.51,26.1c-1.99-1.72-4.63-2.37-7.2-2.43,0-.18,0-.36,0-.55,1.58-.58,3.03-1.65,3.97-3.09,2.64.41,4.22-1.8,3.75-4.26,1.82-.5,1.03-2.74,1.19-4.14.14-1.59-1.51-1.7-2.7-1.62.72-3.23.43-7.81-2.4-9.98-.16-.12-.67.05-.79.18-2.45,3.23-6.62.21-9.86,1.6-3.4,1.06-5.78,4.64-5.18,8.17-2.89-.5-2.58,2.47-2.5,4.43.04,1.91,2.27,1.43,3.57,1.48.14,3.27,2.21,6.2,5.34,7.29v.48c-5.16.01-10.32,3.95-10.08,9.42,0,0-.01,0-.02,0,.11,1.85,1.86,1.81,3.22,1.81h18.77c6.02.97,3.8-6.44.92-8.82h0Zm-1.42-6.74c-.47.25-1,.17-1.51.18.63-1.11.99-2.37,1.05-3.66h1.53c.02,1.23.2,2.81-1.07,3.48Zm-.41-8.82s-.02,0-.03,0c0,0,.02,0,.03,0Zm1.68,0c1.66.24.77,2.55.98,3.71.2,1.65-1.67,1.03-2.7,1.14.07-1.6-.16-3.31.09-4.85.54,0,1.09,0,1.63,0ZM10.54,4.34c3.14-4.97,9.41-.12,13.08-3.73,2.43,2.2,2.71,6.43,2.06,9.45-.32.06-.63.24-.79.52-1.33-.29-2.3-1.52-2.68-2.8-.07-.25-.65-.04-.77.07-1.03.91-2.75,1.05-4.04,1.01-1.24-.03-2.82-.27-3.8-1.13-1.22-.53-1.16,2.74-3.42,2.88-.11-.49-.57-.61-1-.62-.42-1.98.08-4.07,1.35-5.66h0Zm-3.89,8.64c.08-.83-.39-2.57.95-2.43.54.12,1.56-.33,1.75.36.01,1.47,0,2.95,0,4.43-2.16.12-2.97.09-2.7-2.36Zm3.57,2.6c0-1.52-.02-3.04.01-4.57,1.42-.26,2.57-1.23,3.17-2.54,2.51,1.21,5.61,1.13,8.1-.08.55,1.43,1.75,2.51,3.29,2.67-.1,2.82.49,5.99-1.12,8.47h-2.2c-.19-1.74-3.81-1.54-4.69-.53-1.66,2.68,4.11,3.14,4.68,1.03h1.88c-3.81,5.78-13.31,2.37-13.12-4.44h0Zm9.82,5.11c-.94-.09-2.6.42-2.7-.97,0-1.34,1.64-.77,2.5-.87.89.1,1.1,1.63.19,1.83h0Zm-.59,2.68c.71,4.42-4.4,4.29-3.89.05,1.29.29,2.63.27,3.89-.05Zm7.21,10.96H8.93c-1.28,0-3.33.37-3.46-1.44-.16-5.02,4.41-8.74,9.23-8.67-.43,3.84,5.79,3.64,5.61,0,4.93-.1,9.47,3.65,9.23,8.78-.1,1.65-1.74,1.32-2.88,1.32Z"/>
</svg>