<?xml version="1.0" encoding="UTF-8"?>
<svg id="Layer_1" data-name="Layer 1" xmlns="http://www.w3.org/2000/svg" viewBox="0 0 35 35">
  <defs>
    <style>
      .cls-1 {
        fill: #f47721;
      }

      .cls-1, .cls-2, .cls-3 {
        stroke-width: 0px;
      }

      .cls-3 {
        fill: #c1dbf0;
      }
    </style>
  </defs>
  <g>
    <path class="cls-3" d="m4.62,22.8c-.16,0-.29-.13-.29-.29,0-.06.02-.11.05-.16l.39-.6-.94.54c-.14.08-.32.03-.4-.11-.06-.1-.05-.23.02-.32l.81-1.03-.79.45c-.14.08-.32.03-.4-.1-.07-.11-.05-.26.04-.35l.52-.54-.64.37c-.14.08-.32.03-.4-.11-.06-.11-.05-.25.04-.34l1.13-1.27-2.07,1.19c-.14.08-.32.03-.4-.11-.07-.12-.04-.27.06-.37l1.38-1.2-1.88,1.08c-.14.08-.32.03-.4-.11-.07-.13-.04-.29.08-.38l.33-.25-.14.08c-.14.08-.32.03-.4-.11-.07-.13-.04-.29.08-.38l.54-.4-.25.15c-.14.08-.32.03-.4-.11-.07-.13-.04-.29.07-.38l1.74-1.34-1.41.81c-.14.08-.32.03-.4-.11-.06-.1-.05-.23.02-.33l.63-.81-.1.06c-.14.08-.32.03-.4-.11-.08-.14-.03-.32.11-.4l1.41-.81c.14-.08.32-.03.4.11.06.1.05.23-.02.33l-.63.81,3.85-2.22c.14-.08.32-.03.4.11.07.13.04.29-.07.38l-1.74,1.34,1.12-.65c.14-.08.32-.03.4.11.07.13.04.29-.08.38l-.54.4.08-.05c.14-.08.32-.03.4.11.07.13.04.29-.08.38l-.35.26c.15-.06.32.01.38.16.05.12.02.25-.08.33l-1.38,1.2,1.02-.59c.14-.08.32-.03.4.11.06.11.05.25-.04.34l-1.13,1.27.86-.49c.14-.08.32-.03.4.11.06.11.05.25-.04.35l-.52.54.29-.17c.14-.08.32-.03.4.11.06.1.05.23-.02.32l-.81,1.03.69-.4c.14-.08.32-.03.4.11.05.09.05.21,0,.3l-.4.61c.16-.04.32.05.36.21.03.13-.02.26-.14.33l-.97.56s-.09.04-.15.04h0Z"/>
    <path class="cls-3" d="m21.04,31.95c-.16,0-.29-.13-.29-.29,0-.1.06-.2.15-.25l9.09-5.25c.14-.08.32-.03.4.11.07.12.04.28-.07.37l-1.29,1.02,1.29-.74c.14-.08.32-.03.4.11.07.12.04.28-.06.37l-1.15.96.96-.55c.14-.08.32-.03.4.11.07.12.04.26-.05.35l-1.67,1.52s.03.03.04.05c.08.14.03.32-.11.4l-1.17.68c-.14.08-.32.03-.4-.11-.07-.12-.04-.26.05-.35l.87-.8-1.56.9c-.14.08-.32.03-.4-.11-.07-.12-.04-.28.06-.37l1.15-.96-1.78,1.03c-.14.08-.32.03-.4-.11-.07-.12-.04-.28.07-.37l1.29-1.03-5.67,3.27s-.09.04-.14.04h0Z"/>
    <path class="cls-3" d="m17.42,34.73c-.16,0-.29-.13-.29-.29,0-.1.05-.19.13-.24l5.84-3.96-7.35,4.24c-.14.08-.32.02-.4-.12-.07-.13-.03-.29.09-.38l5.25-3.41-5.45,3.14c-.14.08-.32.04-.4-.1-.07-.13-.04-.29.07-.38l1.82-1.43-1.84,1.06c-.14.08-.32.03-.4-.1-.07-.12-.05-.26.05-.36l1.2-1.17-1.34.77c-.14.08-.32.03-.4-.11-.06-.1-.05-.23.02-.32l.69-.91-1.61.93c-.14.08-.32.03-.4-.11-.06-.11-.05-.25.03-.34l.47-.53-.56.32c-.14.08-.32.03-.4-.11-.06-.1-.05-.23.02-.32l.32-.41c-.16-.02-.27-.17-.24-.33.01-.09.07-.16.14-.21l.97-.56c.14-.08.32-.03.4.11.06.1.05.23-.02.32l-.22.28.85-.49c.14-.08.32-.03.4.11.06.11.05.24-.03.34l-.47.53,1.31-.76c.14-.08.32-.03.4.11.06.1.05.23-.02.32l-.68.92,2.13-1.23c.14-.08.32-.03.4.1.07.12.05.26-.05.36l-1.21,1.17,3.33-1.92c.14-.08.32-.03.4.11.07.12.04.28-.07.37l-1.82,1.43,11.5-6.64c.14-.08.32-.02.4.12.07.13.03.29-.09.38l-5.25,3.42,4.76-2.75c.14-.08.32-.03.4.11.07.13.04.3-.09.38l-9.76,6.62c.04.1.02.21-.05.29l-.46.53c.14.09.17.27.09.4-.03.04-.06.07-.1.09l-.88.51c-.14.08-.32.03-.4-.11-.06-.11-.05-.24.03-.34l.14-.16-1.14.66s-.1.04-.15.04h0Z"/>
    <path class="cls-3" d="m32.73,20.46c-.16,0-.29-.13-.29-.29,0-.1.06-.2.15-.25l1.53-.89c.14-.08.32-.03.4.11.08.14.03.32-.11.4l-1.53.88s-.09.04-.15.04h0Z"/>
    <path class="cls-3" d="m25.22,27.32c-.16,0-.29-.13-.29-.29,0-.09.04-.18.11-.23l2.74-2.14c-.14.08-.32.03-.4-.11-.07-.12-.04-.28.07-.37l1.02-.81c-.11.01-.22-.04-.29-.13-.08-.13-.05-.3.07-.4l1.88-1.4-.97.56c-.14.08-.32.03-.4-.11-.07-.13-.04-.29.08-.38l.78-.57-.15.09c-.14.08-.32.03-.4-.1-.07-.12-.04-.28.07-.37l2.21-1.8-1.59.92c-.14.08-.32.03-.4-.11-.07-.12-.04-.28.07-.37l1.41-1.1-.97.56c-.14.08-.32.03-.4-.11-.07-.12-.04-.28.07-.37l.99-.8-.63.36c-.14.08-.32.03-.4-.11-.06-.11-.05-.25.04-.35l1.27-1.37-.97.56c-.14.08-.32.03-.4-.11-.07-.11-.05-.26.05-.35l.38-.38-.13.08c-.14.08-.32.03-.4-.11-.07-.12-.05-.26.05-.35l.2-.19c-.12.06-.26.02-.35-.08-.09-.11-.09-.27,0-.38l.7-.83-.58.33c-.14.08-.32.03-.4-.11-.07-.11-.05-.26.05-.35l.18-.18-.04.02c-.14.08-.32.03-.4-.11-.06-.11-.05-.25.03-.34l.49-.55-.43.25c-.14.08-.32.03-.4-.11-.06-.1-.05-.23.02-.32l.66-.86-.71.41c-.14.08-.32.03-.4-.11-.06-.1-.05-.23.02-.32l.64-.86-.76.44c-.14.08-.32.03-.4-.11-.07-.12-.05-.27.05-.36l.49-.45-.56.32c-.14.08-.32.04-.4-.1-.07-.12-.05-.27.05-.37l1.44-1.34-1.74,1.01c-.14.08-.32.03-.4-.11-.07-.13-.04-.29.07-.38l.22-.17-.33.19c-.14.08-.32.03-.4-.11-.07-.12-.05-.26.05-.36l1.59-1.52-2.08,1.2c-.14.08-.32.04-.4-.1-.07-.12-.05-.27.05-.36l1.62-1.56-2.23,1.29c-.14.08-.32.03-.4-.11-.06-.11-.05-.25.04-.35l1.37-1.44-2.11,1.22c-.14.08-.32.03-.4-.11-.06-.1-.05-.24.03-.33l.46-.57-.98.56c-.14.08-.32.04-.4-.1-.07-.11-.05-.25.04-.35l.35-.39-.85.49c-.14.08-.32.03-.4-.11-.06-.1-.05-.23.02-.32l.55-.7-1.35.78c-.14.08-.32.03-.4-.11-.06-.11-.05-.25.04-.34l.43-.47-1.21.7c-.14.08-.32.03-.4-.11-.06-.11-.05-.25.04-.35l.49-.52-1.47.85c-.14.08-.32.03-.4-.11-.07-.12-.04-.26.05-.35l.47-.43-1.6.92c-.14.08-.32.03-.4-.11-.07-.12-.04-.26.05-.35l1.57-1.44-4.64,2.68c-.14.09-.32.05-.4-.09-.09-.14-.05-.32.09-.4,0,0,.01,0,.02-.01l6.97-4.02c.14-.08.32-.03.4.11.07.12.04.26-.05.35l-1.57,1.44,1.62-.94c.14-.08.32-.03.4.11.07.12.04.26-.05.35l-.47.43.85-.49c.14-.08.32-.03.4.11.06.11.05.25-.04.35l-.49.52,1.15-.67c.14-.08.32-.03.4.11.06.11.05.25-.04.34l-.43.47.99-.57c.14-.08.32-.03.4.11.06.1.05.23-.02.32l-.55.7,1.18-.68c.14-.08.32-.03.4.11.06.11.05.25-.04.34l-.35.39.74-.43c.14-.08.32-.03.4.11.06.1.05.24-.03.33l-.46.57,2.48-1.43c.14-.08.32-.03.4.11.06.11.05.25-.04.35l-1.38,1.45,2.56-1.48c.14-.08.32-.04.4.1.07.12.05.27-.05.36l-1.63,1.56,2.12-1.22c.14-.08.32-.03.4.11.07.12.05.26-.05.35l-1.59,1.52,2-1.16c.14-.08.32-.03.4.11.07.13.04.28-.07.37l-.22.17.15-.09c.14-.08.32-.04.4.1.07.12.05.27-.05.37l-1.44,1.34.62-.36c.14-.08.32-.03.4.11.07.12.05.27-.05.36l-.6.56c.09,0,.17.04.23.1.09.1.1.26.02.37l-.64.86.76-.44c.14-.08.32-.03.4.11.06.1.05.23-.02.32l-.66.86.72-.42c.14-.08.32-.03.4.11.06.11.05.24-.03.33l-.49.55.45-.26c.14-.08.32-.03.4.11.07.11.05.26-.05.35l-.18.18.06-.03c.14-.08.32-.03.4.11.06.11.05.24-.03.34l-.7.83.62-.36c.14-.08.32-.03.4.11.07.12.05.26-.05.35l-.19.19h.01c.14-.09.32-.04.4.1.07.11.05.26-.05.35l-.38.38.67-.39c.14-.08.32-.03.4.11.06.11.05.25-.04.34l-1.27,1.37,2.24-1.29c.14-.08.32-.03.4.11.07.12.04.28-.07.37l-1,.8,1.27-.73c.14-.08.32-.04.4.1.08.13.04.29-.07.38l-1.41,1.1,1.2-.69c.14-.08.32-.03.4.11.07.12.04.28-.07.37l-2.21,1.8,1.9-1.1c.14-.08.32-.03.4.11.07.13.04.29-.08.38l-.78.56.42-.24c.14-.08.32-.03.4.11.07.13.04.29-.08.37l-2.82,2.1s.08.05.11.09c.09.13.06.3-.06.39l-.91.72.25-.14c.14-.08.32-.03.4.11.07.13.04.29-.07.38l-2.73,2.13,1.73-.99c.14-.09.32-.05.4.09.09.14.05.32-.09.4,0,0-.01,0-.02.01l-5.35,3.09s-.1.04-.15.04h0Z"/>
    <path class="cls-3" d="m14.72,2.8c-.16,0-.29-.13-.29-.29,0-.06.02-.12.06-.18l.7-.92c-.15-.05-.24-.21-.19-.37.02-.07.07-.13.13-.17l.89-.51c.14-.08.32-.03.4.11.06.1.05.23-.02.32l-.55.72,2.07-1.2c.14-.09.32-.05.4.09.09.14.05.32-.09.4,0,0-.01,0-.02.01l-3.34,1.93s-.09.04-.15.04h0Z"/>
    <path class="cls-3" d="m3.25,14.54c-.16,0-.29-.13-.29-.29,0-.08.04-.17.1-.22l1.4-1.2-.72.42c-.14.08-.32.03-.4-.11-.07-.12-.04-.28.07-.37l2.68-2.18-1.67.97c-.14.08-.32.03-.4-.12-.07-.13-.03-.3.09-.38l5.25-3.37-4.14,2.39c-.14.08-.32.03-.4-.11-.07-.13-.04-.29.08-.38l4.35-3.13-4.26,2.46c-.14.08-.32.02-.4-.12-.06-.12-.04-.26.05-.35l2-1.79-2.1,1.21c-.14.08-.32.03-.4-.11-.07-.13-.04-.29.07-.38l.3-.23c-.14.08-.32.03-.4-.11-.07-.12-.04-.27.06-.36l1.64-1.47s-.02-.02-.03-.04c-.08-.14-.03-.32.11-.4l1.17-.68c.14-.08.32-.02.4.12.06.12.04.26-.05.35l-.75.68,1.39-.8c.14-.08.32-.03.4.11.07.13.04.29-.07.38l-.3.23.7-.41c.14-.08.32-.02.4.12.06.12.04.26-.05.35l-2,1.79,6.86-3.95c.14-.08.32-.03.4.11.07.13.04.29-.08.38l-4.35,3.13L19.62,1.08c.14-.08.32-.04.4.1.08.14.04.32-.1.4h0l-10.55,6.78c.07.12.03.28-.07.36l-2.68,2.18.28-.16c.14-.08.32-.03.4.11.07.12.04.28-.06.37l-1.4,1.2.24-.14c.14-.08.32-.03.4.11.08.14.03.32-.11.4l-2.98,1.72s-.09.04-.14.04Z"/>
  </g>
  <path class="cls-1" d="m16.97,26.52c-.16,0-.29-.13-.29-.29,0-.1.05-.19.13-.24l1.04-.69-1.83,1.05c-.14.08-.32.03-.4-.11-.08-.13-.04-.31.09-.39l2.33-1.55-3.08,1.78c-.14.08-.32.03-.4-.11-.08-.13-.04-.31.09-.39l2.55-1.67-3.17,1.83c-.14.09-.32.05-.4-.09-.09-.14-.05-.32.09-.4,0,0,.01,0,.02-.01l12.3-7.1c.14-.08.32-.03.4.12.07.13.03.3-.09.38l-2.55,1.67,2.1-1.21c.14-.08.32-.03.4.11.08.13.04.31-.09.39l-2.33,1.54,1.72-.99c.14-.08.32-.03.4.11.07.13.03.3-.09.38l-1.04.69.3-.18c.14-.08.32-.03.4.11.07.13.03.3-.09.38l-.74.5c.16.02.28.16.26.32,0,.08-.05.15-.11.2l-1.59,1.23c.14.07.2.25.13.39-.03.05-.07.09-.11.12l-2.72,1.57c-.14.08-.32.04-.4-.1-.07-.13-.04-.29.07-.38l.79-.61-2.73,1.58c-.14.08-.32.03-.4-.11-.08-.13-.04-.3.09-.39l.08-.05-.97.56s-.1.04-.15.04h0Z"/>
  <path class="cls-1" d="m20.86,19.4c-.16,0-.29-.13-.29-.29,0-.09.04-.18.12-.23l1.99-1.47s-.07-.05-.09-.08c-.09-.12-.07-.29.05-.39l1.63-1.4c-.05-.13,0-.28.13-.35l.9-.52c.14-.08.32-.03.4.11.07.12.04.28-.06.37l-.21.18.39-.23c.14-.08.32-.03.4.11.07.13.04.29-.08.38l-.95.7.79-.46c.14-.07.32-.02.39.12.07.13.03.3-.1.38l-5.26,3.04s-.1.04-.15.04h0Z"/>
  <path class="cls-1" d="m3.98,34.67c-.16,0-.29-.13-.29-.29,0-.09.04-.17.11-.23l.74-.6-1.78,1.02c-.14.08-.32.03-.4-.11-.07-.13-.04-.29.08-.38l2.91-2.1-3.59,2.08c-.14.08-.32.02-.4-.12-.07-.13-.03-.29.08-.37l5.23-3.59-5.62,3.24c-.14.08-.32.03-.4-.11-.08-.14-.03-.31.1-.39l5.54-3.39-5.52,3.19c-.14.08-.32.03-.4-.11-.08-.14-.03-.31.1-.39l9.32-5.77L.72,31.49c-.14.08-.32.02-.4-.12-.07-.13-.03-.29.09-.38l8.18-5.28-7,4.04c-.14.08-.32.02-.4-.12-.07-.13-.03-.3.1-.38l3.01-1.89-.76.44c-.14.08-.32.02-.4-.12-.07-.13-.03-.29.09-.38l4.92-3.21-2.17,1.25c-.14.09-.32.04-.4-.09s-.04-.32.09-.4l3.13-2.08-.6.35c-.14.08-.32.03-.4-.11-.07-.13-.04-.29.08-.38l3.46-2.5-1.78,1.03c-.14.08-.32.03-.4-.11-.07-.13-.04-.29.08-.38l1.59-1.15-1.54.89c-.14.08-.32.03-.4-.11-.07-.13-.04-.29.08-.38l2.08-1.57-1.99,1.15c-.14.08-.32.03-.4-.11-.07-.13-.04-.29.08-.38l3.51-2.64-3.35,1.93c-.14.08-.32.03-.4-.11-.07-.13-.04-.3.09-.38l4.27-2.95-3.95,2.28c-.14.08-.32.02-.4-.12-.07-.13-.03-.29.09-.38l4.32-2.92-3.85,2.22c-.14.08-.32.03-.4-.11-.07-.13-.04-.29.08-.38l4.19-2.92-3.46,2c-.14.08-.32.03-.4-.11-.08-.13-.04-.3.09-.39l1.12-.75-.31.18c-.14.08-.32.03-.4-.11-.07-.12-.04-.27.06-.36l2.23-1.89c-.15.05-.32-.04-.36-.2-.04-.13.02-.27.13-.33l2.74-1.58c.14-.08.32-.03.4.11.07.12.04.28-.06.37l-2.2,1.86,4.9-2.83c.14-.09.32-.04.4.09.09.14.04.32-.09.4h0l-1.12.75,1.99-1.15c.14-.08.32-.03.4.11.08.13.04.3-.09.38l-4.19,2.92,5.09-2.94c.14-.08.32-.03.4.11.07.13.03.3-.09.38l-4.31,2.91,3.01-1.74c.14-.08.32-.03.4.12.07.13.03.29-.08.38l-4.27,2.95,1.23-.71c.14-.08.32-.03.4.11.07.13.04.29-.08.37l-3.51,2.64,2.01-1.16c.14-.08.32-.03.4.11.07.13.04.29-.08.38l-2.09,1.57,2.25-1.3c.14-.08.32-.03.4.11.07.13.04.29-.08.38l-1.59,1.15,1.84-1.06c.14-.08.32-.03.4.11.07.13.04.29-.08.38l-3.46,2.5,3.89-2.24c.14-.08.32-.03.4.11.08.13.04.31-.09.39l-3.13,2.08,3.42-1.98c.14-.08.32-.03.4.12.07.13.03.3-.09.38l-4.93,3.21,5.28-3.05c.14-.08.32-.03.4.11.08.13.03.3-.1.39l-3,1.88,3.22-1.86c.14-.08.32-.03.4.11.08.13.04.3-.09.39l-8.18,5.28,15.37-8.88c.14-.08.32-.03.4.11.08.14.03.31-.1.39l-9.32,5.77,9.08-5.24c.14-.08.32-.04.4.1s.04.32-.1.4l-13.1,8.01s.03.03.04.05c.08.13.05.31-.08.4l-5.23,3.59,1.99-1.15c.14-.08.32-.03.4.11.07.13.04.29-.08.38l-2.91,2.1h0c.14-.08.32-.03.4.11.07.12.04.28-.07.37l-1.95,1.59s.02.02.02.04c.08.14.03.32-.11.4l-1.58.91s-.09.04-.15.04h0Z"/>
  <path class="cls-2" d="m31.96,14.17c-.58-.62-.7-2.39-1.14-3.25-.37-.73-.69-.98-.62-1.69.21-.76.85-1.48.66-2.34-.23-1.01-2-2.77-3.04-2.91-2.14.26-1.43,1.64-3.89.05-5.28-1.64-2.09-1.93-4.95-3.76-1.52-.62-3.38-.23-4.16,1.09-.27,1.25-.95,1.72-2.23,1.98-5.17,3.11-4.7-.81-7.32,1.9-2.71,2.71,1.31,2.29-1.86,7.27.06-.18-.53,1.68-.48,1.63-.37.39-1.24.37-1.68.67-1.18.81-1.43,2.78-.93,4.15.59,1.63,2.44,1.14,2.9,2.78.22.76,1.01,1.2,1.77.98.76-.22,1.2-1.01.98-1.77C2.95,9.14,17.68.2,26.27,9.34c8.42,8.96-1.04,22.57-12.33,19.58-.75-.19-1.51.25-1.71,1-.02.06-.03.12-.03.18-.1.75.33,1.47,1.04,1.72,1.14.32,1.02.53,1.55,1.59.5,2.15,4.08,1.89,5.21.54.74-2.44.87-1.96,3.19-2.63-.14.06,1.79-.85,1.64-.81,1.68-.55,2.61,1.1,4.28-.24,2.25-1.76,1.9-2.61.91-4.86-.02.37,1.14-1.91.83-1.32.72-1.9.75-3.12,2.84-3.94,1.71-.94,1.45-4.07.16-5.22-.49-.4-1.48-.32-1.9-.77h0Zm1.54,5.31c-2.58.88-2.06.9-2.78,3.43-.23.57-1.17,1.99-1.19,2.26-.05.68.52,1.18.61,1.86.23,1.73-1.58,3.27-3.23,3.01-2.02-1.24-2.51-.16-4.33.76-.54.21-1.84.3-2.25.72-.36.37-.32,1.11-.62,1.53-.81,1.11-3.21,1.6-4.33.39-1.34-1.45.04-1.71-2.05-2.29-1.14-.4-.44-1.82.63-1.57,12.01,3.09,21.34-11.42,12.66-20.72-3.84-4.09-9.93-5.14-14.92-2.59-5.48,2.88-7.71,8.99-6.22,14.84.24,1.03-1.39,1.48-1.74.5-.44-1.57-.28-.85-1.25-1.7-.92-.8-1.49-.19-1.68-2.05-.37-4.17,2.37-.26,3.79-6.61.92-1.86.83-1.09.52-2.62-.28-1.39-.53-2.3,1.05-3.33,1.29-.84,1.67-.18,2.82.02,1.55.26,3.12-.96,4.66-1.59,1.45-.59.69-.51,1.61-1.83.72-.88,1.87-1.28,2.98-1.02,2.17.48.94,1.17,2.02,2.31.77.82,2.51.95,3.59,1.48,2.81,1.38.88.28,3.48.1,1.36-.09,3.02,1.59,2.86,2.94-.15.66-.83,1.25-.67,1.98.77,1.39,1.41,2.85,1.89,4.36.53.96.82.58,1.78,1.28,1.07.78,1.53,3.02.31,4.13h0Z"/>
  <path class="cls-2" d="m7.66,22.87l-6.47,6.47c-2.86,3.02,1.32,7.39,4.4,4.48,2.68-2.45,5.11-5.49,7.83-7.83,1.95.05,4.38,1.15,6.44.26,3.72-1.09,6.37-4.37,6.65-8.24.33-6.31-3.31-1.79-5.38.41-1.34,1.35-2.18.9-3.43-.35-.91-.91-2.65-1.98-1.95-3.43.51-1.05,2.21-2.21,3.03-3.03,1.2-1.2,2.62-2.58.07-3.12-6.07-1.21-11.62,5.11-10.21,10.98.39,2.1.46,1.95-.98,3.39h0Zm1.92-1.22c.6-1.5-.68-3.59-.49-5.23.49-3.9,3.63-6.94,7.54-7.31.7-.06,3.05-.08,2.92.98-.04.3-.9.9-1.11,1.11-1.44,1.7-5.23,3.71-2.58,6.01.88.96,2.53,3.37,4.08,2.94,1.95-.55,2.78-3.61,4.58-4.34.64-.26.89-.54,1.35.61.64,1.59-.42,4.43-1.25,5.71-2.19,3.39-5.99,4.21-9.68,3.41-2.17-.47-2.76.94-4.31,2.49l-5.38,5.38c-2.33,2.25-6.02-1.25-3.72-3.64,2.41-2.82,5.9-5.13,8.04-8.11h0Z"/>
</svg>