<?xml version="1.0" encoding="UTF-8"?>
<svg id="Layer_1" data-name="Layer 1" xmlns="http://www.w3.org/2000/svg" viewBox="0 0 35 35">
  <defs>
    <style>
      .cls-1 {
        fill: #f47721;
      }

      .cls-1, .cls-2, .cls-3, .cls-4 {
        stroke-width: 0px;
      }

      .cls-3 {
        fill: #fff;
      }

      .cls-4 {
        fill: #c1dbf0;
      }
    </style>
  </defs>
  <path class="cls-1" d="m13.7,34.89c-.16,0-.3-.13-.3-.3,0-.1.05-.2.14-.25l3.5-2.21-4.7,2.71c-.14.08-.32.03-.4-.11-.08-.14-.03-.31.1-.39l3.79-2.37-4.99,2.88c-.14.08-.32.03-.4-.12-.07-.14-.03-.31.1-.39l2.73-1.69-3.81,2.2c-.14.08-.32.03-.4-.12-.07-.13-.03-.3.1-.39l6.76-4.26-8.25,4.76c-.14.08-.32.02-.4-.12-.07-.13-.03-.3.09-.39l8.79-5.57-10.49,6.06c-.14.08-.32.03-.4-.12-.07-.13-.03-.3.09-.39l10.91-6.98-11.8,6.81c-.14.08-.32.03-.4-.11-.08-.14-.03-.31.1-.39l5.05-3.11-5.1,2.95c-.14.08-.32.03-.4-.12-.08-.14-.03-.31.1-.39l2.84-1.74-2.59,1.49c-.14.08-.32.03-.4-.11-.08-.14-.03-.31.1-.39l9.21-5.88-8.74,5.05c-.14.08-.32.04-.41-.1s-.04-.32.1-.41l3.43-2.13-3.02,1.74c-.14.08-.32.02-.4-.12-.07-.13-.03-.3.09-.39l6.26-3.99-5.81,3.36c-.14.08-.32.02-.4-.12-.07-.13-.03-.3.09-.39l5.04-3.21-4.6,2.65c-.14.08-.32.04-.41-.1s-.04-.32.1-.41h0l1.6-1.01-1.19.69c-.14.08-.32.03-.4-.11-.08-.13-.04-.31.09-.39l6.05-4.13-5.55,3.21c-.14.08-.32.04-.41-.1-.08-.13-.04-.31.09-.4l4.57-3.19-4.07,2.35c-.14.08-.32.03-.4-.11-.07-.13-.04-.29.08-.38l2.98-2.21-2.2,1.27c-.14.08-.32.03-.4-.11-.07-.12-.04-.28.06-.37l1.57-1.37c-.16,0-.29-.14-.28-.31,0-.1.06-.19.15-.24l2.29-1.32c.14-.08.32-.03.4.11.07.12.04.28-.06.37l-1.4,1.22,4.06-2.34c.14-.08.32-.03.4.11.07.13.04.29-.08.38l-2.99,2.21,5.53-3.19c.14-.08.32-.03.4.11.07.13.04.3-.09.39l-4.57,3.19,6.39-3.69c.14-.08.32-.03.4.11.07.13.04.3-.09.38l-6.05,4.13,8.01-4.63c.14-.08.32-.03.4.12.07.13.03.3-.1.39l-1.61,1.01,2.56-1.48c.14-.08.32-.04.41.1.08.14.04.32-.1.41l-5.04,3.21,6-3.46c.14-.08.32-.03.4.11.08.14.03.31-.1.39l-6.27,3.99,7.32-4.22c.14-.08.32-.03.4.12.07.14.03.31-.1.39l-3.42,2.12,4.19-2.42c.14-.08.32-.03.4.11.08.14.03.31-.1.39l-9.22,5.88,10.46-6.04c.14-.08.32-.02.4.12.07.14.03.3-.1.39l-2.85,1.74,3.35-1.93c.14-.08.32-.03.4.11.08.14.03.31-.1.39l-5.05,3.11,5.51-3.18c.14-.08.32-.03.4.12.07.13.03.3-.09.39l-10.91,6.97,11.56-6.67c.14-.08.32-.03.4.11.08.14.04.31-.1.4l-8.79,5.57,9.14-5.28c.14-.08.32-.02.4.12.07.13.03.3-.09.38l-6.75,4.25,6.9-3.98c.14-.08.32-.04.41.1s.04.32-.1.41l-2.74,1.7,2.7-1.56c.14-.08.32-.04.41.1.08.14.04.32-.1.41l-3.78,2.37,3.69-2.13c.14-.08.32-.02.4.12.07.13.03.3-.09.38l-3.49,2.2,3.31-1.91c.14-.08.32-.02.4.12.07.13.03.3-.09.39l-3.47,2.21,3.27-1.89c.14-.08.31-.04.4.1.08.14.05.31-.09.4l-5.45,3.65,5.28-3.05c.14-.08.32-.03.4.11.07.13.04.3-.09.39l-4.46,3.03,4.28-2.47c.14-.08.32-.03.4.11.07.13.04.3-.09.39l-3.72,2.61,3.54-2.04c.14-.08.32-.03.4.11.08.13.04.31-.09.39l-1.47,1.01,1.25-.72c.14-.08.32-.04.4.11.08.13.04.29-.08.38l-2.5,1.92,2.31-1.33c.14-.08.32-.03.4.11.07.12.04.28-.06.37l-1.69,1.43,1.48-.86c.14-.08.32-.03.4.11.06.11.05.24-.03.34l-1.01,1.2.56-.32c.14-.08.32-.03.4.11.08.14.03.32-.11.4l-2.01,1.16c-.14.08-.32.03-.4-.11-.06-.11-.05-.24.03-.34l1.01-1.21-2.86,1.65c-.14.08-.32.03-.4-.11-.07-.12-.04-.28.06-.37l1.69-1.43-3.32,1.91c-.14.08-.32.03-.4-.11-.07-.13-.04-.29.08-.38l2.49-1.92-4.18,2.41c-.14.08-.32.03-.4-.11-.07-.13-.04-.3.09-.38l1.48-1.01-2.61,1.51c-.14.08-.32.03-.4-.12-.07-.13-.04-.29.08-.38l3.72-2.61-5.38,3.11c-.14.08-.32.02-.4-.12-.07-.13-.03-.29.09-.38l4.45-3.03-6.11,3.53c-.14.08-.32.03-.4-.11-.07-.13-.04-.3.09-.39l5.45-3.65-7.18,4.15c-.14.08-.32.02-.4-.12-.07-.13-.03-.3.09-.39l3.47-2.21-4.71,2.71s-.1.04-.15.04h0Z"/>
  <path class="cls-3" d="m17.3,21.87c-.16,0-.3-.13-.29-.3,0-.08.03-.16.09-.21l1.2-1.12-2.12,1.22c-.14.08-.32.03-.4-.11-.07-.12-.04-.27.06-.36l1.33-1.21-1.78,1.03c-.14.09-.32.04-.41-.1-.07-.12-.05-.28.05-.37l.72-.69-.81.47c-.14.08-.32.03-.4-.11-.06-.1-.05-.23.02-.33l.39-.5-.24.14c-.14.08-.32.03-.4-.11-.04-.07-.05-.15-.03-.23l.11-.37c-.14-.08-.2-.26-.12-.4.03-.05.07-.09.11-.12l.3-.17c.14-.08.32-.03.4.11.04.07.05.15.03.23l-.05.18.91-.53c.14-.08.32-.03.4.11.06.1.05.23-.02.33l-.39.5,1.63-.95c.13-.1.32-.07.41.06.1.13.07.32-.06.41l-.72.69,2.01-1.16c.14-.08.32-.03.4.11.07.12.04.27-.06.36l-1.33,1.22,2-1.16c.14-.08.32-.04.4.1.07.12.05.27-.06.37l-1.2,1.12.53-.31c.14-.08.32-.02.4.12.07.14.03.3-.1.39l-2.78,1.6s-.1.04-.15.03h0Z"/>
  <path class="cls-4" d="m9.8,11.85c-.16,0-.3-.13-.3-.3,0-.1.05-.19.14-.25l3.08-1.98-2.79,1.61c-.14.08-.32.03-.4-.11-.07-.13-.04-.3.09-.39l5.87-3.98-5.55,3.21c-.14.08-.32.03-.4-.11-.08-.13-.04-.3.09-.39l4.9-3.32-4.59,2.65c-.14.08-.32.03-.4-.11-.08-.13-.04-.31.09-.39l3.76-2.54-3.4,1.96c-.14.08-.32.03-.4-.11-.07-.13-.04-.3.09-.38l3.61-2.5-3.05,1.76c-.14.08-.32.03-.4-.11-.08-.13-.04-.3.08-.39l3.14-2.29-2.2,1.27c-.14.08-.32.03-.4-.11-.07-.12-.04-.28.06-.37l1.93-1.64c-.11,0-.22-.05-.28-.15-.08-.14-.03-.32.11-.4l2.59-1.49c.14-.08.32-.03.4.11.07.12.04.28-.06.37l-1.81,1.54L17.56.09c.14-.08.32-.03.4.11.08.13.04.3-.08.39l-3.14,2.29L19.18.31c.14-.08.32-.03.4.11.08.13.04.3-.09.39l-3.62,2.51,4.5-2.6c.14-.08.32-.03.4.11.08.13.04.3-.09.39l-3.76,2.54,4.4-2.54c.14-.08.32-.03.4.11.08.13.04.3-.09.39l-4.9,3.32,5.49-3.17c.14-.08.32-.04.41.1.08.14.04.31-.09.4l-5.87,3.98,6.38-3.68c.14-.08.32-.04.4.11.08.14.04.31-.1.4l-3.07,1.98,3.25-1.88c.14-.09.32-.04.41.1s.04.32-.1.41h0l-1.97,1.26,2.04-1.18c.14-.08.32-.04.41.1.08.14.04.31-.09.4l-5.15,3.62,5.34-3.08c.14-.08.32-.03.4.12.07.13.03.3-.09.39l-.87.57.78-.45c.14-.08.32-.03.4.11.08.14.04.31-.09.4l-.65.43.5-.29c.14-.08.32-.03.4.11.08.13.04.3-.09.39l-1.99,1.41,1.8-1.04c.14-.08.32-.04.41.1.08.14.04.31-.09.4l-.43.3.15-.09c.14-.08.32-.04.4.11.07.12.05.28-.06.37l-1.82,1.62,1.48-.85c.14-.08.32-.04.41.1.07.13.05.29-.07.38l-.24.2c.1-.02.2.02.26.09.09.1.1.26.03.37l-.34.49c.15-.06.32.02.38.17.05.14,0,.29-.13.36l-1.09.63c-.14.08-.32.03-.4-.11-.06-.1-.05-.22.01-.32l.34-.49-1.58.92c-.14.08-.32.03-.4-.11-.07-.12-.04-.28.07-.38l.15-.13-1.06.61c-.14.08-.32.04-.4-.11-.07-.12-.05-.28.06-.37l1.82-1.62-3.64,2.1c-.14.08-.32.03-.4-.11-.08-.13-.04-.3.09-.39l.43-.3-1.38.8c-.14.08-.32.03-.4-.11-.08-.13-.04-.3.09-.39l1.99-1.41-3.3,1.9c-.14.08-.32.03-.4-.11-.08-.14-.04-.31.09-.4l.65-.43-1.62.93c-.14.08-.32.03-.4-.12-.07-.13-.03-.3.09-.39l.88-.57-1.87,1.08c-.14.09-.32.05-.41-.09s-.05-.32.09-.41h0l5.15-3.62-7.14,4.12c-.14.09-.32.04-.41-.1s-.04-.32.1-.41h0l1.96-1.26-3.06,1.77s-.1.04-.15.04h0Z"/>
  <path class="cls-3" d="m17.26,19.51c-.16,0-.3-.13-.3-.3,0-.1.05-.18.12-.24l1.17-.84-1.93,1.12c-.14.08-.32.03-.4-.11-.07-.13-.04-.29.08-.38l3.34-2.5-4.21,2.43c-.14.08-.32.03-.4-.12-.07-.13-.03-.3.09-.39l3.01-2.03-3.5,2.02c-.14.08-.32.04-.41-.1-.08-.14-.04-.32.1-.4l2.05-1.34-2.4,1.39c-.14.09-.32.04-.41-.1-.09-.14-.04-.32.1-.41h0l2.88-1.91-3.26,1.88c-.14.08-.32.03-.4-.11-.07-.13-.03-.3.09-.39l2.48-1.64-2.7,1.56c-.14.08-.32.03-.4-.11-.08-.13-.04-.3.09-.39l5.28-3.69-5.5,3.17c-.15.07-.32.02-.4-.13-.07-.13-.03-.29.09-.37l2.36-1.55-2.24,1.29c-.14.08-.32.04-.41-.1-.08-.13-.04-.31.09-.4l3.7-2.56-3.56,2.06c-.14.08-.32.03-.4-.12-.07-.13-.03-.3.09-.39l1.08-.72-1.16.67c-.14.08-.32.02-.4-.12-.07-.13-.03-.29.09-.38l2.26-1.56-2.76,1.6c-.14.08-.32.04-.41-.1-.08-.13-.04-.3.08-.39l3.91-2.93-3.98,2.3c-.14.08-.32.04-.4-.1-.08-.13-.04-.3.08-.39l1.66-1.2c-.16-.04-.26-.19-.23-.35.01-.05.04-.1.07-.13l.52-.57c-.15-.06-.23-.23-.17-.38.02-.06.07-.12.13-.15l1.14-.66c.14-.08.32-.03.4.11.06.11.05.25-.04.35l-.28.31,2.47-1.42c.14-.08.32-.04.4.1.08.13.04.3-.08.39l-1.05.76,3.35-1.93c.14-.08.32-.03.4.11.07.13.04.29-.08.38l-3.91,2.93,4.85-2.8c.14-.08.32-.03.4.11.07.13.04.3-.09.39l-2.26,1.56,2.96-1.71c.14-.08.32-.03.4.11.08.14.04.31-.09.4l-1.08.72,1.71-.99c.14-.08.32-.03.4.11.07.13.04.3-.09.39l-3.7,2.56,4.74-2.74c.14-.08.32-.03.4.11.08.13.04.31-.09.39l-2.36,1.55,2.62-1.51c.14-.08.32-.04.41.1.08.13.04.31-.09.4l-5.28,3.68,5.33-3.08c.14-.08.32-.03.4.11.08.14.04.31-.09.4l-2.48,1.64,2.99-1.73c.14-.09.32-.04.41.1.09.14.04.32-.1.41l-2.87,1.9,3.13-1.8c.14-.08.32-.04.41.1.08.14.04.32-.1.4l-2.05,1.34,1.9-1.1c.14-.08.32-.03.4.11.08.13.04.31-.09.39l-3.01,2.03,1.1-.63c.14-.08.32-.03.4.11.07.13.04.29-.08.38l-3.34,2.5,2.78-1.6c.14-.09.32-.04.41.1.08.13.04.31-.09.4l-1.17.84.44-.25c.14-.08.32-.03.4.11.08.14.03.32-.11.4l-5.6,3.23s-.1.04-.15.04h0Z"/>
  <path class="cls-4" d="m10.07,33.13c-.16,0-.3-.13-.3-.3,0-.1.05-.19.13-.25l6.78-4.48-6.75,3.9c-.14.08-.32.03-.4-.12-.07-.14-.03-.31.1-.39l.95-.6-.65.37c-.14.08-.32.02-.4-.12-.07-.13-.03-.3.09-.38l1.93-1.21-1.62.93c-.14.08-.32.03-.4-.11-.08-.13-.04-.31.09-.39l4.44-2.91-4.13,2.38c-.14.08-.32.03-.4-.11-.08-.14-.04-.31.1-.39l1.92-1.24-1.61.93c-.14.08-.32.03-.4-.11-.08-.13-.04-.3.08-.39l4.59-3.3-4.27,2.47c-.14.08-.32.03-.4-.12-.07-.13-.03-.3.09-.39l1.08-.73-.77.44c-.14.08-.32.03-.4-.11-.07-.13-.04-.29.08-.38l2.34-1.76-2.01,1.16c-.14.08-.32.03-.4-.11-.07-.13-.04-.29.08-.38l.9-.68-.57.33c-.14.08-.32.04-.41-.1-.07-.12-.05-.28.06-.37l1.05-1-.7.41c-.14.08-.32.03-.4-.11-.06-.1-.05-.22.01-.31l.44-.63c-.11,0-.22-.05-.28-.15-.08-.14-.03-.32.11-.4l.98-.57c.14-.08.32-.03.4.11.06.1.05.22-.01.31l-.41.58,1.74-1.01c.14-.09.32-.04.41.1.08.12.05.28-.06.38l-1.05,1,2.54-1.47c.14-.08.32-.03.4.11.07.13.04.29-.08.38l-.9.68,2.03-1.17c.14-.08.32-.03.4.11.07.13.04.29-.08.38l-2.34,1.76,3.91-2.25c.14-.08.32-.02.4.12.07.13.03.29-.09.38l-1.08.73,2.13-1.23c.14-.08.32-.03.4.11.08.13.04.3-.08.39l-4.59,3.3,6.57-3.8c.14-.08.32-.03.4.11.08.13.03.3-.09.39l-1.92,1.24,3.03-1.75c.14-.08.32-.03.4.12.07.13.03.3-.09.38l-4.43,2.91,5.69-3.28c.14-.08.32-.04.41.1.08.14.04.32-.1.41h0l-1.93,1.22,2.12-1.23c.14-.08.32-.03.4.11.08.14.04.31-.1.4l-.95.6.78-.45c.14-.08.32-.02.4.12.07.13.03.3-.09.38l-6.79,4.48,6.48-3.74c.14-.08.32-.03.4.11.08.13.04.31-.09.39l-6.29,4.3,5.98-3.45c.14-.08.32-.03.4.12.07.13.03.3-.09.39l-2.32,1.51,2.01-1.16c.14-.08.32-.03.4.11.08.13.04.3-.09.39l-3.75,2.63,3.44-1.98c.14-.08.32-.04.41.1.08.13.04.3-.08.39l-3.34,2.54,3.01-1.74c.14-.08.32-.04.4.11.08.13.04.3-.08.39l-.69.49.37-.21c.14-.08.32-.03.4.11.07.12.05.26-.05.36l-1.66,1.62,1.3-.75c.14-.08.32-.03.4.11.05.09.05.21,0,.3l-.57.95.17-.1c.14-.08.32-.03.4.11.08.14.03.32-.11.4l-1.16.67c-.14.08-.32.03-.4-.11-.05-.09-.05-.21,0-.3l.57-.95-2.35,1.36c-.14.08-.32.03-.4-.11-.07-.12-.05-.26.05-.36l1.66-1.61-3.61,2.08c-.14.08-.32.04-.4-.11-.08-.13-.04-.3.08-.39l.69-.5-1.72.99c-.14.08-.32.03-.4-.11-.07-.13-.04-.29.08-.38l3.33-2.54-5.26,3.04c-.14.08-.32.03-.4-.11-.07-.13-.04-.3.09-.39l3.75-2.63-5.42,3.13c-.14.09-.32.04-.41-.1-.09-.14-.04-.32.1-.41l2.32-1.51-3.5,2.02c-.14.08-.32.03-.4-.11-.08-.13-.04-.31.09-.39l6.29-4.3-8.31,4.8s-.09.04-.14.04h0Z"/>
  <path class="cls-4" d="m14.9,13.59c-.16,0-.29-.13-.29-.3,0-.06.02-.12.06-.17l.48-.66-1.2.69c-.14.08-.32.03-.4-.11-.07-.12-.05-.26.05-.36l.42-.42-.46.26c-.14.08-.32.03-.4-.11-.06-.1-.05-.22.01-.31l.56-.83c-.15.07-.32.01-.4-.13-.07-.14-.02-.31.12-.39l1.1-.64c.14-.08.32-.03.4.11.06.1.05.22-.01.31l-.56.83,1.35-.78c.14-.08.32-.03.4.11.07.12.05.26-.05.36l-.43.42.41-.24c.14-.08.32-.03.4.11.06.1.05.23-.02.32l-.5.69c.16-.03.32.07.35.23.02.12-.03.25-.14.31l-1.1.63s-.1.04-.15.04h0Z"/>
  <path class="cls-4" d="m19.73,13.55c-.16,0-.3-.13-.3-.3,0-.08.03-.15.08-.21l.28-.29-.6.35c-.14.08-.32.03-.4-.11-.06-.11-.05-.25.04-.35l.66-.72-.68.39c-.14.08-.32.03-.4-.11-.06-.11-.05-.24.02-.33l.44-.55c-.16-.01-.28-.16-.27-.32,0-.1.06-.18.15-.23l1.1-.64c.14-.08.32-.03.4.11.06.11.05.24-.03.33l-.35.44.99-.57c.14-.08.32-.03.4.11.06.11.05.25-.04.35l-.66.72.79-.46c.14-.08.32-.04.4.1.07.12.05.26-.04.36l-.3.3c.15-.05.32.03.38.18.05.13,0,.28-.13.35l-1.79,1.03s-.09.04-.15.04h0Z"/>
  <path class="cls-4" d="m10.75,34.89c-.16,0-.3-.13-.3-.3,0-.09.04-.17.11-.23l.16-.13-1,.57c-.14.08-.32.03-.4-.11-.06-.11-.05-.25.04-.35l.79-.85-.8.46c-.14.08-.32.04-.4-.11-.05-.09-.05-.19,0-.28l.31-.62c-.11,0-.21-.05-.27-.15-.08-.14-.03-.32.11-.4l.69-.4c.11-.07.26-.05.35.04.09.09.12.23.06.35l-.28.57,1.66-.95c.14-.08.32-.03.4.11.06.11.05.25-.04.35l-.79.85,2.26-1.3c.14-.08.32-.03.4.11.07.12.04.28-.07.37l-.16.13,1.06-.61c.14-.08.32-.03.4.11.06.1.05.23-.02.32l-.87,1.19,2.81-1.62c.14-.08.32-.03.4.11.07.12.04.28-.06.37l-.27.23,1.23-.71c.14-.08.32-.03.4.11.07.12.05.26-.05.36l-.71.69,2.01-1.16c.14-.08.32-.03.4.11.06.1.05.23-.02.32l-.88,1.2,2.82-1.63c.14-.08.32-.03.4.11.06.1.05.23-.02.33l-.88,1.15,2.74-1.58c.14-.08.32-.03.4.11.06.11.05.25-.04.35l-.82.87,1.53-.88c.14-.08.32-.03.4.11.06.1.05.23-.02.32l-.55.78.18-.1c.14-.08.32-.02.4.12.07.14.03.3-.1.39l-1.35.78c-.14.08-.32.03-.4-.11-.06-.1-.05-.22.01-.32l.55-.78-2.08,1.2c-.14.08-.32.03-.4-.11-.07-.11-.05-.26.04-.35l.82-.87-2.3,1.33c-.12.07-.28.05-.37-.06-.09-.11-.1-.26-.01-.38l.88-1.15-2.74,1.58c-.14.08-.32.03-.4-.11-.06-.1-.05-.23.02-.32l.88-1.2-2.82,1.63c-.14.08-.32.03-.4-.11-.07-.12-.05-.26.05-.36l.71-.7-2.02,1.16c-.14.08-.32.03-.4-.11-.07-.12-.04-.28.06-.37l.27-.23-1.23.71c-.14.08-.32.03-.4-.11-.06-.1-.05-.23.02-.32l.88-1.19-2.81,1.62s-.1.04-.15.04h0Z"/>
  <g>
    <path class="cls-2" d="m8.23,34.78h.95c6.84.49,12.84-.02,19.96.21,4.33-.59,1.34-6.45,1.5-9.3-.01-5.42-5.47-6.6-9.8-7.19,0-.09,0-.18,0-.27,1.89-.94,3.1-2.84,3.16-4.94,3.57-1.39,1.25-10.47-1.89-11.87-7.03-4.55-14.48,2.71-12.77,10.18.01.89.68,1.62,1.56,1.73.03,2.14,1.26,4.07,3.18,5.02,0,.09,0,.18,0,.26-5.06.44-10.33,2.6-9.95,8.56-.41,4.32-2.43,8.64,4.1,7.62Zm1.99-12.22c1.04-1.6,10.89-.25,13.54-.66,2.03.39.5,7.98.95,10.01-4.84.03-9.67.02-14.51,0,.07-3.11-.11-6.26.02-9.35h0Zm5-2.75c-.14-.3-.23-.63-.25-.96,1.56.89,3.49.84,5.01-.11.15,2.78-3.67,3.57-4.76,1.07Zm-5.6,13.19c.06-.43.08-.37.4-.41,4.99,0,10.05,0,15.03,0,.42.17.35,1.44.13,1.7h-14.39c-.99.23-1.39-.28-1.17-1.28h0Zm13.39-13.59c6.56.12,7.04,6.68,7.43,11.76,1.05,3.81-1.75,3.34-4.47,3.28.29-.6.44-2.15-.39-2.44-.78-8.96,3.19-11.4-6.42-10.69.9-.47,1.51-1.36,1.63-2.37l2.21.45ZM10.2,7.99c.5-11.15,16.24-8.56,14.53,2.05-.22-.13-.46-.22-.71-.26-.09-2.39-2.85-1.99-4.45-2.77-.66-.27-1.33-.88-2.07-.86-.78.03-1.51.69-2.23.96-1.61.65-4.22.41-4.38,2.7-.25.06-.48.17-.69.3,0-.71,0-1.42,0-2.14h0Zm10.29,5.12c-1.43.24-2-2.24-.58-2.56,1.29.03,1.74,1.99.58,2.56h0Zm0,0,1.28-2.21c-.69-1.04-2.32-.87-3.11-.05-.72-.3-1.53-.3-2.25,0-.7-1.03-2.37-.85-3.13.03l-1.55-1.05c-.06-1.44,1.31-1.74,2.45-1.85,1.26-.1,2.37-1.32,3.59-1.08,1.6,1.32,5.29.58,5.4,3.16l-1.36.92s-.03-.05-.04-.08h0Zm-6.61,2.18c-1.34.24-1.88-1.83-.87-2.42.01,0,.15-.08.08-.04.02-.01.05-.02.07-.03-.1.04.02,0,.04-.01,1.3-.15,1.9,1.9.71,2.49.07-.03,0,0-.03.01h0Zm-.68-2.5-1.83,5.58c-.67-.92-.74-2.1-.92-3.19-1.36-.24-2.29-2.09-.7-2.66l1.9,1.28c-.49,2.72,4.22,2.37,3.73-.17.51-.2,1.08-.18,1.57.05.02,0,.03.02.05.03-.7,2.8,4.28,2.47,3.69-.14l1.58-1.07c1.34.2,1.64,2.42.1,2.52-.17.01-.45.12-.48.31-.35,5.8-7,7.63-10.52,3.03h0Zm-8.03,13.6c.32-7.22,1.85-10.25,9.46-10.91.03,1,.56,1.93,1.41,2.46-9.46-1.01-5.32,3.4-6.17,10.73-.79.37-.71,1.71-.46,2.41-3.95.45-5.27-.72-4.25-4.69h0Z"/>
    <path class="cls-2" d="m14.1,28.85c1.88.14-.47-1.44-.91-2.02,3.3-3.07.66-1.82-.86.1.28.7,1.25,1.27,1.77,1.92h0Z"/>
    <path class="cls-2" d="m20.24,28.89c.93-.27,1.82-1.41,2.36-2.12-1.9-2.39-4-2.48-.87.24-.23.41-2.2,1.75-1.49,1.88Z"/>
    <path class="cls-2" d="m17.29,29.23c-.03-.84,2.21-6.04.33-4.61.03.83-2.21,6.03-.33,4.61Z"/>
  </g>
</svg>