<?xml version="1.0" encoding="UTF-8"?>
<svg id="Layer_1" data-name="Layer 1" xmlns="http://www.w3.org/2000/svg" viewBox="0 0 35 35">
  <defs>
    <style>
      .cls-1 {
        fill: #f47721;
      }

      .cls-1, .cls-2, .cls-3 {
        stroke-width: 0px;
      }

      .cls-3 {
        fill: #c1dbf0;
      }
    </style>
  </defs>
  <g>
    <path class="cls-3" d="m12.34,34.8c-.16,0-.29-.13-.29-.3,0-.08.03-.16.09-.22l.61-.57-1.1.63c-.14.08-.32.03-.4-.11-.07-.12-.04-.27.06-.37l1.1-.96-1.3.75c-.14.08-.32.03-.4-.11-.07-.12-.04-.28.07-.37l.87-.7-.74.43c-.14.09-.32.05-.41-.09-.09-.14-.05-.32.09-.41,0,0,.01,0,.02-.01l4.09-2.36c.14-.08.32-.03.4.11.07.12.04.28-.07.37l-.87.7.54-.31c.14-.08.32-.03.4.11.07.12.05.28-.06.37l-1.1.96.75-.43c.14-.08.32-.04.4.1.07.12.05.27-.06.37l-.61.57.13-.08c.14-.09.32-.05.41.09.09.14.05.32-.09.41,0,0-.01,0-.02.01l-2.37,1.37s-.1.04-.15.04h0Z"/>
    <path class="cls-3" d="m8.55,34.84c-.16,0-.3-.13-.3-.29,0-.09.04-.18.11-.23l3.03-2.38-3.97,2.29c-.14.08-.32.03-.4-.11-.07-.13-.04-.3.08-.38l2.71-1.94-2.9,1.67c-.14.08-.32.03-.4-.11-.07-.13-.04-.3.09-.39l2.58-1.81-2.42,1.4c-.14.08-.32.03-.4-.11-.07-.13-.04-.3.08-.38l3.32-2.38-3,1.73c-.14.08-.32.04-.4-.11-.08-.13-.04-.3.08-.39l3.28-2.34-2.96,1.71c-.14.08-.32.03-.4-.11-.08-.13-.04-.3.09-.39l2.87-2.02-2.55,1.48c-.14.08-.32.04-.4-.1-.08-.13-.04-.31.09-.4l2.16-1.49-1.85,1.06c-.14.08-.32.03-.4-.12-.07-.13-.03-.3.09-.38l.68-.45-.36.21c-.14.08-.32.03-.4-.12-.07-.13-.03-.3.09-.38l.59-.39-.28.16c-.14.08-.32.03-.4-.11-.08-.13-.04-.3.08-.39l3.56-2.58-3.24,1.87c-.14.08-.32.03-.4-.11-.07-.13-.04-.3.08-.38l2.95-2.08-2.63,1.52c-.14.08-.32.03-.4-.11-.08-.13-.04-.3.09-.39l2.86-2.01-2.54,1.47c-.14.08-.32.02-.4-.12-.07-.13-.03-.29.09-.38l.82-.55-.51.3c-.14.08-.32.03-.4-.11-.08-.13-.04-.3.09-.39l2.37-1.65-2.06,1.19c-.14.08-.32.03-.4-.11-.08-.13-.04-.3.09-.39l.53-.35-.22.13c-.14.08-.32.03-.4-.11-.08-.14-.03-.32.11-.4l8.23-4.75c.14-.08.32-.03.4.12.07.13.03.3-.09.38l-.54.36.23-.13c.14-.08.32-.03.4.11.08.13.04.3-.09.39l-2.38,1.65,2.06-1.19c.14-.08.32-.03.4.11.07.13.04.3-.09.39l-.82.55.5-.29c.14-.08.32-.03.4.11.08.13.04.3-.09.39l-2.86,2.01,2.54-1.47c.14-.08.32-.03.4.11.07.13.04.3-.08.38l-2.95,2.08,2.63-1.52c.14-.08.32-.03.4.11.08.13.04.3-.08.39l-3.56,2.57,3.24-1.87c.14-.08.32-.03.4.11.08.13.04.3-.09.39l-.59.39.28-.16c.14-.08.32-.03.4.11.08.13.04.3-.09.39l-.68.46.37-.21c.14-.08.32-.04.4.1.08.13.04.31-.09.4l-2.15,1.49,1.84-1.06c.14-.08.32-.03.4.11.07.13.04.3-.08.38l-2.88,2.03,2.56-1.48c.14-.08.32-.04.4.11.08.13.04.3-.08.39l-3.27,2.34,2.95-1.71c.14-.08.32-.03.4.11.07.13.04.3-.08.38l-3.32,2.38,3-1.73c.14-.08.32-.03.4.11.07.13.04.3-.09.39l-2.58,1.81,2.26-1.3c.14-.08.32-.03.4.11.07.13.04.3-.08.38l-2.71,1.94,2.39-1.38c.14-.08.32-.03.4.11.07.13.04.29-.07.38l-4.32,3.39s.03.03.04.05c.08.14.03.32-.11.4l-1.93,1.12s-.1.04-.15.04h0Z"/>
    <path class="cls-3" d="m15.14,11.85c-.16,0-.3-.13-.3-.3,0-.11.06-.2.15-.26l5.08-2.93c.14-.08.32-.03.4.11.07.11.05.26-.04.35l-1.36,1.38,3.19-1.84c.14-.08.32-.03.4.11.07.12.04.28-.06.37l-.89.75,2.13-1.23c.14-.08.32-.03.4.11.06.11.05.25-.04.35l-1.37,1.42,2.21-1.28c.14-.08.32-.03.4.11.06.1.05.23-.02.33l-.87,1.1.74-.43c.14-.08.32-.02.4.12.07.14.03.3-.1.39l-2.09,1.2c-.14.08-.32.03-.4-.11-.06-.1-.05-.23.02-.33l.87-1.1-2.67,1.54c-.14.08-.32.03-.4-.11-.06-.11-.05-.25.04-.35l1.36-1.42-3.27,1.89c-.14.08-.32.03-.4-.11-.07-.12-.04-.28.06-.37l.89-.75-2.14,1.23c-.14.08-.32.03-.4-.11-.07-.11-.05-.26.04-.35l1.36-1.38-3.2,1.85s-.1.04-.15.04h0Z"/>
    <path class="cls-3" d="m4.45,22.29c-.16,0-.29-.13-.29-.3,0-.1.05-.19.13-.24l4.44-3.07-4.82,2.78c-.14.08-.31.04-.4-.1-.08-.13-.05-.31.08-.4l4.28-2.9-4.06,2.34c-.14.08-.32.03-.4-.11-.08-.14-.04-.31.09-.39l3.09-2.05-2.78,1.61c-.14.08-.32.03-.4-.12-.07-.13-.03-.3.09-.38l4.46-3.02-4.14,2.39c-.14.08-.32.03-.4-.12-.07-.13-.03-.3.09-.39l5.51-3.6-5.21,3c-.14.08-.32.03-.4-.12-.07-.13-.03-.3.09-.39l3.92-2.56-3.61,2.08c-.14.08-.32.03-.4-.11-.08-.13-.04-.31.09-.39l3.81-2.56-3.5,2.02c-.14.08-.32.03-.4-.11-.07-.13-.03-.3.09-.39l1.21-.8-.9.52c-.14.08-.32.03-.4-.11-.07-.13-.04-.29.08-.38l3.18-2.33-2.77,1.6c-.14.08-.32.03-.4-.11-.07-.13-.04-.29.08-.38l1.27-.91-.65.37c-.14.08-.32.03-.4-.12-.06-.12-.04-.26.05-.36l1.48-1.34c-.11,0-.21-.05-.26-.15-.08-.14-.03-.32.11-.4l2.12-1.22c.14-.08.32-.03.4.12.06.12.04.26-.05.36l-1.35,1.23,3.33-1.92c.14-.08.32-.03.4.11.07.13.04.29-.08.38l-1.27.91,2.44-1.41c.14-.08.32-.03.4.11.07.13.04.29-.08.38l-3.18,2.32,4.88-2.82c.14-.08.32-.03.4.11.07.13.03.3-.09.39l-1.21.8,2.25-1.3c.14-.08.32-.03.4.12.07.13.03.3-.09.38l-3.81,2.56,5.31-3.06c.14-.08.32-.02.4.12.07.13.03.29-.09.38l-3.92,2.57,5.31-3.07c.14-.08.32-.03.4.11.08.13.04.31-.09.39l-5.51,3.6,1.9-1.1c.14-.08.32-.03.4.11.08.13.04.3-.09.39l-4.45,3.02,4.14-2.39c.14-.08.32-.03.4.11.08.14.04.31-.09.39l-3.09,2.05,2.78-1.61c.14-.08.32-.03.4.11.08.13.04.3-.09.39l-4.29,2.9,3.97-2.29c.14-.08.32-.03.4.11.07.13.04.3-.09.39l-8.15,5.64c.04.13-.02.27-.14.34l-2.12,1.22s-.1.04-.15.04h0Z"/>
    <path class="cls-3" d="m10.68,8.87c-.16,0-.3-.13-.3-.3,0-.09.04-.17.11-.23l.79-.66-1.61.93c-.14.08-.32.03-.4-.11-.08-.13-.04-.3.08-.39l.09-.07-.43.25c-.14.08-.32.03-.4-.11-.07-.13-.04-.29.08-.38l1.69-1.28-2.07,1.19c-.14.08-.32.03-.4-.11-.07-.13-.04-.29.08-.38l2.05-1.53-2.25,1.3c-.14.08-.32.03-.4-.11-.08-.13-.04-.3.08-.39l1.03-.73-.98.57c-.15.07-.32.01-.4-.13-.06-.12-.03-.27.07-.36l1.84-1.36-1.67.96c-.14.08-.32.04-.4-.1-.08-.13-.04-.29.07-.38l2.33-1.86-2.01,1.16c-.14.08-.32.03-.4-.11-.07-.13-.04-.29.08-.38l.46-.34-.07.04c-.14.08-.32.03-.4-.11-.07-.11-.05-.26.04-.35l1.23-1.29c-.15.07-.32.01-.39-.14s-.01-.32.14-.39h0l1.73-1c.14-.08.32-.03.4.11.07.11.05.26-.04.35l-1.22,1.29,2.84-1.64c.14-.08.32-.03.4.11.07.13.04.29-.08.38l-.46.34.85-.49c.14-.08.32-.03.4.11.07.13.04.28-.07.37l-2.33,1.86,2.83-1.63c.14-.08.32-.03.4.11.07.13.04.29-.08.38l-1.84,1.36,1.98-1.14c.14-.08.32-.03.4.11.07.13.04.29-.08.38l-1.02.73.95-.55c.14-.08.32-.03.4.11.07.13.04.29-.08.38l-2.05,1.53,1.84-1.06c.14-.08.32-.03.4.11.07.13.04.29-.08.38l-1.68,1.29,1.36-.78c.14-.08.32-.03.4.11.08.13.04.3-.08.39l-.27.2c.11-.02.22.03.28.12.09.13.06.3-.05.4l-.79.66.07-.04c.14-.08.32-.04.4.11.08.14.04.32-.11.4,0,0,0,0,0,0l-3.12,1.8s-.1.04-.15.04h0Z"/>
  </g>
  <path class="cls-1" d="m10.61,17.13c-.16,0-.3-.13-.3-.29,0-.08.03-.15.08-.2l.41-.43-.79.45c-.14.08-.32.03-.4-.11-.07-.12-.05-.26.05-.36l.89-.91-1.34.77c-.14.08-.32.03-.4-.11-.07-.12-.04-.28.07-.37l.2-.16c-.11.02-.23-.02-.3-.11-.09-.12-.07-.29.04-.39l1.18-1.11-.68.39c-.14.08-.32.03-.4-.11-.07-.11-.05-.26.04-.35l1.35-1.43-.8.46c-.14.08-.32.03-.4-.11-.04-.07-.05-.16-.03-.24l.32-.99c-.15-.07-.2-.25-.13-.4.03-.05.07-.09.12-.12l.32-.19c.11-.06.24-.05.33.03.09.08.13.2.09.32l-.26.8,1.87-1.08c.14-.08.32-.04.4.11.07.11.05.26-.04.35l-1.35,1.43,1.15-.66c.14-.08.32-.04.4.1.07.12.05.28-.06.37l-1.18,1.11.97-.56c.14-.08.32-.03.4.11.07.13.04.29-.07.38l-.18.14c.11-.03.24.01.31.11.09.12.08.28-.02.39l-.89.91.66-.38c.14-.08.32-.03.4.11.07.11.05.26-.04.35l-.41.43h0c.14-.09.32-.05.41.09.09.14.05.32-.09.41,0,0-.01,0-.02.01l-1.76,1.02s-.1.04-.15.04h0Z"/>
  <path class="cls-1" d="m11.15,11.24c-.16,0-.3-.13-.3-.3,0-.06.02-.11.04-.16l.61-.98-1.88,1.09c-.14.08-.32.03-.4-.11-.06-.11-.05-.24.02-.33l.65-.81-.51.3c-.14.08-.32.03-.4-.11-.03-.05-.04-.1-.04-.16l.02-.62c-.16-.03-.27-.18-.24-.34.01-.09.07-.16.14-.21l.26-.15c.14-.08.32-.03.4.11.03.05.04.1.04.16l-.02.54,1.41-.81c.14-.08.32-.03.4.11.06.11.05.24-.02.33l-.65.82,1.55-.9c.14-.08.32-.03.4.11.06.1.05.21,0,.31l-.64,1.03c.12,0,.23.05.29.15.08.14.03.32-.11.4l-.88.51s-.1.04-.15.04h0Z"/>
  <path class="cls-1" d="m25.33,16.61c-.16,0-.29-.13-.29-.3,0-.08.03-.15.08-.21l1.04-1.05-.62.35c-.14.08-.32.03-.4-.11-.06-.1-.05-.22.01-.32l.77-1.11-1.46.84c-.14.08-.32.02-.4-.12-.07-.14-.03-.3.1-.39l2.6-1.5c.14-.08.32-.03.4.11.06.1.05.22-.01.32l-.77,1.11,1.37-.79c.14-.08.32-.03.4.11.07.11.05.26-.05.35l-1.04,1.05,1.52-.88c.14-.09.32-.05.41.09s.05.32-.09.41c0,0-.01,0-.02.01l-3.42,1.98s-.1.04-.15.04Z"/>
  <path class="cls-1" d="m19.3,34.83c-.16,0-.3-.13-.29-.3,0-.1.05-.19.13-.24l5.28-3.58-6.38,3.68c-.14.09-.32.04-.41-.1s-.04-.32.1-.41h0l5.58-3.7-5.83,3.36c-.14.08-.32.02-.4-.12-.07-.13-.03-.3.09-.38l4.84-3.15-4.6,2.66c-.14.08-.32.04-.41-.1-.08-.14-.04-.32.1-.41h0l.3-.18c-.14.08-.32.04-.4-.1-.08-.14-.04-.32.1-.4l5.12-3.34-4.81,2.77c-.14.08-.32.04-.4-.11-.08-.14-.04-.31.1-.4l3.28-2.1-2.97,1.72c-.14.09-.32.04-.41-.1s-.04-.32.1-.41l6.04-4-5.73,3.31c-.14.08-.32.03-.4-.12-.07-.13-.03-.3.09-.39l4.71-3.06-4.4,2.54c-.14.08-.32.03-.4-.11-.08-.14-.04-.31.1-.39l2.3-1.46-1.99,1.15c-.14.08-.32.03-.4-.11-.08-.14-.04-.31.09-.4l4.81-3.13-4.5,2.6c-.14.09-.32.04-.41-.1-.09-.14-.04-.32.1-.41l5.48-3.61-5.17,2.98c-.14.08-.32.04-.4-.11-.08-.14-.04-.31.1-.4l2.71-1.74-2.4,1.39c-.14.08-.32.03-.4-.12-.07-.13-.03-.3.09-.39l4.37-2.88-4.06,2.34c-.14.08-.32.04-.4-.11-.08-.14-.04-.31.1-.4l1.03-.66-.72.41c-.14.08-.32.03-.4-.11-.07-.13-.04-.29.08-.38l2.96-2.26-2.63,1.52c-.14.08-.32.03-.4-.11-.07-.13-.04-.29.07-.38l2.44-1.89-2.11,1.22c-.14.08-.32.03-.4-.11-.07-.13-.04-.3.08-.38l1.07-.77-.75.43c-.14.09-.32.04-.41-.1-.09-.14-.04-.32.1-.41h0l.74-.49-.43.25c-.14.08-.32.03-.4-.11-.07-.13-.04-.29.08-.38l3.67-2.67-3.15,1.82c-.14.08-.32.03-.4-.11-.07-.13-.04-.29.08-.38l4.51-3.42h0c-.08-.15-.03-.33.11-.41l1.88-1.08c.14-.08.32-.03.4.11.07.13.04.29-.08.38l-2.71,2.05,3.93-2.27c.14-.08.32-.03.4.11.07.13.04.29-.08.38l-3.68,2.67,4.3-2.48c.14-.09.32-.04.41.1.09.14.04.32-.1.41h0l-3.19,2.1s.06.05.08.08c.09.13.05.31-.08.4l-1.07.77.69-.4c.14-.08.32-.03.4.11.07.13.04.29-.07.38l-2.44,1.88,2.79-1.61c.14-.08.32-.03.4.11.07.13.04.29-.08.38l-2.96,2.27,8.2-4.73c.14-.08.32-.04.41.1s.04.32-.1.41l-1.03.66,1.28-.74c.14-.08.32-.03.4.11.08.14.04.31-.09.39l-4.37,2.88,4.81-2.78c.14-.08.32-.02.4.12.07.13.03.3-.09.38l-2.71,1.74,2.82-1.63c.14-.08.32-.03.4.11.07.13.03.3-.09.39l-5.48,3.61,5.39-3.12c.14-.08.32-.03.4.11.08.14.04.31-.09.4l-4.81,3.13,4.5-2.6c.14-.08.32-.03.4.11.08.14.04.31-.1.39l-2.3,1.46,1.99-1.15c.14-.08.32-.03.4.11.08.14.04.31-.09.4l-4.71,3.06,4.4-2.54c.14-.08.32-.04.4.1.08.14.05.31-.09.4l-6.04,4,5.73-3.31c.14-.08.32-.04.4.11.08.14.04.31-.1.4l-3.28,2.1,2.97-1.72c.14-.09.32-.04.41.1s.04.32-.1.41l-5.12,3.35,4.81-2.78c.14-.08.32-.03.4.11.08.14.03.31-.1.39l-.3.19c.14-.08.32-.02.4.12.07.13.03.3-.1.38l-4.83,3.15,4.52-2.61c.14-.09.32-.04.41.1s.04.32-.1.41l-5.58,3.7,5.27-3.04c.14-.08.32-.04.4.1.08.14.04.31-.09.4l-5.28,3.58,4.96-2.86c.14-.08.32-.03.4.12.07.13.04.29-.08.38l-4.26,2.96,3.94-2.27c.14-.08.32-.03.4.11.08.13.04.3-.08.39l-3.68,2.74,3.36-1.94c.14-.08.32-.03.4.11.07.13.04.29-.07.38l-2.33,1.81,2.01-1.16c.14-.08.32-.02.4.12.06.12.04.26-.05.35l-1.61,1.44,1.26-.73c.14-.08.32-.03.4.11.07.12.04.27-.06.37l-.3.26c.16-.03.32.07.35.23.02.12-.03.25-.14.31l-2.4,1.39c-.14.08-.32.03-.4-.11-.07-.12-.05-.28.06-.37l.24-.21-1.18.69c-.14.08-.32.03-.4-.11-.07-.12-.05-.27.06-.37l1.61-1.43-3.31,1.91c-.14.08-.32.03-.4-.11-.07-.13-.04-.29.07-.38l2.33-1.81-3.97,2.29c-.14.08-.32.03-.4-.11-.08-.13-.04-.3.08-.39l3.68-2.74-5.6,3.23c-.14.08-.32.03-.4-.11-.07-.13-.04-.3.09-.38l4.26-2.96-5.99,3.46s-.1.04-.15.04h0Z"/>
  <path class="cls-2" d="m16.79,32.68c-.03,2.36,2.5,2.25,4.22,2.15,2.93-.63,10.36,1.83,10.8-2.26-.22-5.41.44-10.99-.27-16.32-1.85-1.96-4.01-3.6-6.4-4.85,4.15-5.14-10.12-2.39-12.45-3.09,4.5-2.53,1.04-10.58-3.93-7.7-2.76,1.46-2.76,6.32-.04,7.77-3.09.14-5.51,2.68-5.5,5.77.41,2.44-1.62,9.8,2.95,7.91.51,3.23-2.2,16.68,4.5,11.69,1.23,2.01,4.63.92,4.62-1.42V11.8c2.49,0,4.97.01,7.46,0-1.83,1.48-4.14,2.65-5.62,4.48-.86,5.32-.13,10.97-.33,16.4h0Zm-5.99-16.06c-2.41-.88-.88-3.45-.88-5.36h1.58c-.09,1.81,1.61,4.54-.64,5.41.01-.02,0-.04-.07-.05Zm.02.08s-.05.03-.07.04c.02-.02.04-.03.07-.04Zm.74-6.04h-1.63c-.15-.61-.3-1.21-.45-1.82.85.02,1.69.01,2.54,0-.15.6-.3,1.21-.45,1.81Zm-3.94-5.65c-.91-4.6,5.31-6.23,6.2-1.48,1.15,5.11-5.54,6.84-6.2,1.48Zm7.41,6.28c-.14,0-.59.08-.59.3v18.22c-.08,1.53.56,4.67-1.84,4.46-3.21.18.09-13.12-2.29-10.81v9.08c-.06,2.49-3.36,2.05-3.27-.27,0-6.17,0-12.32,0-18.49-1.73-.87-.51,5.81-.86,6.95-.05.64-.44,1.41-1.32,1.07-1.27-.62-.63-2.34-.78-3.48-.15-3.64-.41-9.17,4.5-9.47,1.65,2.82-1.92,7.1,1.79,8.16,4.72-.57.91-5.24,2.5-8.17,2.86.49,10.53-1.1,12.11.85.93,3.03-8.02,1.06-9.95,1.59h0Zm2.63,20.48c.51-4.4-1.12-12.62.81-16.08,2.48-1.51,5.3-5.74,8.1-2.57,2.37,1.71,5.17,3.21,4.4,6.61-.57,2.72,1.42,14.24-1.27,14.57h-9.3c-1.81.29-3.07-.61-2.74-2.53h0Z"/>
  <path class="cls-2" d="m19.93,30.15c.28.46,11.64-10.59,8.15-8.7-2.75,2.75-5.51,5.51-8.26,8.26-.1.11-.09.28.02.38.03.03.06.05.1.06Z"/>
  <path class="cls-2" d="m24.98,14.36c-2.52-.74-3.25,3.17-.39,2.66,1.39-.18,1.86-2.21.39-2.66Zm-.56,2.21c-1.1.3-1.2-1.35-.59-1.65,1-.5,2.09,1.24.59,1.65Z"/>
  <path class="cls-2" d="m22.46,21.39c-2.96-.93-3.81,4.01-.46,3.36,1.64-.22,2.18-2.8.46-3.36Zm-.65,2.85c-1.36.4-1.49-1.81-.73-2.21,1.65-.85,2.59,1.65.73,2.21Z"/>
  <path class="cls-2" d="m27.66,26.7c-2.96-.93-3.81,4.01-.46,3.36,1.64-.22,2.18-2.8.46-3.36Zm-.65,2.85c-1.36.4-1.49-1.81-.73-2.21,1.65-.85,2.59,1.65.73,2.21h0Z"/>
</svg>