<?xml version="1.0" encoding="UTF-8"?>
<svg id="Layer_1" data-name="Layer 1" xmlns="http://www.w3.org/2000/svg" viewBox="0 0 35 35">
  <defs>
    <style>
      .cls-1 {
        fill: #f47721;
      }

      .cls-1, .cls-2, .cls-3, .cls-4 {
        stroke-width: 0px;
      }

      .cls-3 {
        fill: #fff;
      }

      .cls-4 {
        fill: #c1dbf0;
      }
    </style>
  </defs>
  <g>
    <path class="cls-4" d="m22.1,34.07c-.1,0-.19-.05-.25-.13-.09-.13-.05-.3.07-.4l3.83-2.86-5.61,3.24c-.13.07-.29.04-.38-.08-.09-.12-.08-.28.03-.39l.68-.66-.33.19c-.1.06-.23.05-.32-.02-.09-.07-.14-.19-.11-.31l.16-.63c-.06-.02-.1-.07-.13-.12-.08-.14-.03-.32.11-.4l.29-.17c.1-.06.23-.05.32.02.09.07.14.19.11.31l-.12.47,1.79-1.03c.13-.08.29-.04.38.08.09.12.08.28-.03.39l-.68.66,7.89-4.55c.13-.08.31-.04.39.09.09.13.05.3-.07.4l-3.84,2.86,2.19-1.26c.14-.08.32-.03.4.11.08.14.03.32-.11.4l-6.52,3.76s-.1.04-.15.04h0Z"/>
    <path class="cls-4" d="m25.79,29.9c-.1,0-.19-.05-.25-.13-.09-.13-.05-.31.08-.4l1.35-.97s-.06-.04-.08-.08c-.09-.12-.07-.29.04-.39l1.74-1.58-.41.24c-.13.08-.3.04-.39-.09s-.06-.3.06-.39l.41-.33c-.07-.01-.13-.05-.17-.11-.09-.11-.08-.28.02-.38l1.17-1.22-.57.33c-.12.07-.29.04-.38-.07s-.09-.28.01-.38l1.04-1.13-.64.37c-.12.07-.29.04-.38-.07s-.09-.28.01-.38l.44-.48-.08.05c-.1.06-.23.05-.33-.02-.09-.07-.13-.2-.1-.31l.14-.49s-.09-.06-.12-.11c-.08-.14-.03-.32.11-.4l.3-.17c.11-.06.23-.05.33.02.09.07.13.2.1.31l-.09.3,1.12-.65c.12-.07.29-.04.38.07s.09.28-.01.38l-.44.48.63-.37c.12-.07.28-.04.38.07.09.11.09.28-.01.38l-1.04,1.13.68-.39c.12-.07.29-.04.38.07.09.11.08.28-.02.38l-1.17,1.22.79-.46c.13-.08.3-.04.39.09.09.13.06.3-.06.39l-.25.21c.09,0,.18.04.23.12.09.12.07.29-.04.39l-1.74,1.58,1.11-.64c.13-.08.31-.04.39.09.09.13.05.31-.08.4l-.43.31c.1,0,.2.05.25.15.08.14.03.32-.11.4l-4.56,2.63s-.1.04-.15.04h0Z"/>
    <path class="cls-4" d="m30.08,14.26c-.07,0-.14-.03-.2-.08-.09-.09-.12-.23-.06-.34l.37-.77-1.39.8c-.12.07-.28.04-.37-.07-.09-.11-.09-.27,0-.38l.9-1.03-.62.36c-.13.07-.29.04-.38-.08s-.08-.28.03-.39l.34-.33-.11.06c-.13.08-.29.04-.38-.08-.09-.12-.07-.29.03-.39l.13-.12c-.1.03-.22,0-.29-.09-.09-.11-.1-.26,0-.37l.76-.95-.69.4c-.12.07-.28.04-.37-.06-.09-.11-.1-.26-.01-.37l.71-.93-.73.42c-.12.07-.27.05-.36-.06s-.1-.26-.02-.37l.7-.97-.8.46c-.12.07-.27.05-.36-.06-.09-.1-.1-.26-.02-.37l.65-.89-.82.47c-.12.07-.27.05-.36-.06-.09-.1-.1-.26-.02-.37l.61-.84-.84.48c-.12.07-.28.05-.37-.06-.09-.11-.1-.26-.01-.37l.51-.66-.76.44c-.13.07-.29.04-.38-.07-.09-.11-.08-.28.02-.38l.17-.17-.31.18c-.12.07-.27.05-.37-.06-.09-.1-.1-.26-.02-.37l.53-.71-.92.53c-.12.07-.28.04-.37-.07s-.09-.27,0-.38l.33-.36-.63.36c-.13.07-.29.04-.38-.08-.09-.12-.08-.28.03-.39l.05-.05-.3.17c-.12.07-.28.04-.37-.07-.09-.11-.09-.27,0-.38l.39-.45-.86.5c-.12.07-.28.04-.37-.07-.09-.11-.09-.27,0-.38l.46-.55-1.07.62c-.12.07-.27.05-.37-.06-.09-.11-.1-.26-.01-.37l.58-.76-1.49.86c-.12.07-.28.04-.37-.07-.09-.11-.09-.27.01-.38l.5-.56-1.44.83c-.13.07-.29.04-.38-.08-.09-.12-.08-.29.03-.39l.33-.32-1.31.76c-.12.07-.27.05-.36-.06-.09-.1-.1-.26-.02-.37l.84-1.15-3.96,2.29c-.14.08-.32.03-.4-.11-.08-.14-.03-.32.11-.4L18.56.31c.12-.07.27-.05.36.06.09.1.1.26.02.37l-.84,1.15,2.24-1.29c.13-.08.29-.04.38.08.09.12.08.29-.03.39l-.33.32.93-.54c.12-.07.28-.04.37.07.09.11.09.27-.01.38l-.5.56,1.14-.66c.12-.07.27-.05.37.06.09.11.1.26.01.37l-.58.76,1.25-.72c.12-.07.28-.04.37.07.09.11.09.27,0,.38l-.46.55.92-.53c.12-.07.28-.04.37.07.09.11.09.27,0,.38l-.39.45.76-.44c.13-.07.29-.04.38.08.09.12.08.28-.03.39l-.05.05.23-.13c.12-.07.28-.04.37.07s.09.27,0,.38l-.33.37.57-.33c.12-.07.27-.05.37.06s.1.26.02.37l-.53.71.86-.5c.13-.07.29-.04.38.07.09.11.08.28-.02.38l-.17.18.27-.16c.12-.07.28-.04.37.06.09.11.1.26.01.37l-.51.66.72-.42c.12-.07.27-.05.36.06.09.1.1.26.02.37l-.61.84.82-.48c.12-.07.27-.05.36.06.09.1.1.26.02.37l-.65.89.81-.47c.12-.07.27-.05.36.06s.1.26.02.37l-.7.97.82-.47c.12-.07.27-.05.37.06.09.11.1.26.01.37l-.71.93.75-.43c.12-.07.28-.04.37.06.09.11.1.26,0,.37l-.76.95.73-.42c.13-.08.29-.04.38.08.09.12.07.29-.03.39l-.11.11c.11-.03.24,0,.32.1.09.12.08.28-.03.39l-.34.33.15-.09c.12-.07.28-.04.37.07.09.11.09.27,0,.38l-.9,1.03.71-.41c.11-.06.25-.05.35.04.09.09.12.23.06.34l-.37.77.06-.03c.14-.08.32-.03.4.11.08.14.03.32-.11.4l-.89.51s-.1.04-.15.04h0Z"/>
    <path class="cls-4" d="m4.6,14.27c-.09,0-.18-.04-.24-.12-.09-.12-.07-.29.03-.39l.06-.06-.27.16c-.13.07-.29.04-.38-.07-.09-.12-.08-.28.02-.38l1.24-1.26-.8.46c-.13.08-.3.04-.39-.09s-.06-.3.05-.39l.42-.35c-.12.05-.26,0-.34-.1-.09-.12-.07-.29.04-.39l1.79-1.63-1.08.62c-.13.08-.3.04-.39-.09-.09-.13-.06-.3.06-.39l2.71-2.17-1.75,1.01c-.14.08-.31.04-.4-.1-.08-.14-.04-.31.09-.4l1.78-1.14-.89.52c-.14.08-.31.04-.4-.1-.08-.14-.04-.31.09-.4l1.03-.67c-.12.04-.26,0-.34-.11-.09-.13-.06-.3.06-.4l2.72-2.11c-.09,0-.21-.05-.26-.15-.08-.14-.03-.32.11-.4l3.41-1.97c.13-.08.3-.04.39.09s.06.3-.06.4l-2.52,1.95L15.93.33c.14-.08.31-.04.4.1.08.14.04.31-.09.4l-.95.62,2.07-1.19c.14-.08.31-.04.4.1.08.14.04.31-.09.4l-7.09,4.55c.07.12.04.28-.07.37l-2.71,2.17.11-.07c.13-.08.3-.04.38.08.09.12.07.29-.04.39l-1.79,1.63.53-.31c.13-.08.3-.04.39.09s.06.3-.05.39l-.54.45c.09,0,.19.03.25.11.09.12.08.28-.02.38l-1.24,1.26.57-.33c.13-.08.29-.04.38.08.09.12.07.29-.03.39l-.25.24c.06,0,.12.03.17.08.09.09.12.23.06.35l-.17.34c.06.02.1.07.14.12.08.14.03.32-.11.4l-.5.29c-.11.06-.25.05-.35-.04-.09-.09-.12-.23-.06-.35l.07-.14-.94.54s-.1.04-.15.04h0Z"/>
  </g>
  <path class="cls-1" d="m18.35,27.71c-.1,0-.19-.05-.25-.13-.08-.13-.05-.31.08-.4l3.31-2.36-4.91,2.83c-.13.08-.31.04-.39-.1s-.05-.31.08-.4l5.2-3.64-6.59,3.8c-.14.08-.31.04-.4-.1-.08-.14-.04-.31.09-.4l.63-.4-1.11.64c-.14.08-.31.04-.4-.1-.08-.13-.05-.31.09-.4l6.2-4.15-7.09,4.09c-.14.08-.31.04-.4-.1-.08-.14-.04-.32.09-.4l1.83-1.15-3.19,1.84c-.14.08-.32.03-.4-.1-.08-.14-.04-.32.1-.4l.61-.38-2.07,1.2c-.14.08-.31.04-.4-.1-.08-.14-.04-.31.09-.4l7.58-4.87-7.79,4.49c-.14.08-.31.04-.4-.1-.08-.14-.04-.31.09-.4l8.17-5.28-7,4.04c-.14.08-.31.04-.4-.1-.08-.14-.04-.31.09-.4l7.03-4.54-7.06,4.08c-.14.08-.32.03-.4-.1-.08-.14-.04-.32.1-.4l1.55-.96-1.6.92c-.14.08-.31.04-.4-.1-.08-.14-.04-.31.09-.4l4.47-2.82-4.55,2.63c-.14.08-.31.04-.4-.1-.08-.14-.04-.31.09-.4l6.55-4.22-6.63,3.83c-.14.08-.31.04-.4-.1-.08-.14-.04-.31.09-.4l7.21-4.7-7.23,4.17c-.14.08-.31.04-.4-.1-.08-.14-.04-.31.09-.4l4.23-2.68-4.1,2.37c-.14.08-.31.04-.4-.1-.08-.14-.04-.31.09-.4l5.28-3.4-5.09,2.94c-.14.08-.31.04-.4-.1-.08-.14-.04-.31.09-.4l3.92-2.51-3.64,2.1c-.14.08-.31.04-.4-.1-.08-.13-.04-.31.09-.4l5.48-3.61-5.08,2.93c-.14.08-.31.03-.4-.1s-.04-.31.09-.4l1.87-1.19-1.4.81c-.14.08-.31.04-.39-.1-.08-.13-.05-.31.08-.4l5.35-3.73-4.51,2.6c-.14.08-.31.04-.4-.1s-.05-.31.09-.4l1.75-1.17-.85.49c-.13.08-.3.04-.39-.09s-.06-.3.05-.39l2.56-2.14c-.14.07-.31.02-.38-.12-.08-.14-.03-.32.11-.4l2.91-1.68c.13-.08.3-.04.39.09.09.12.06.3-.05.39l-2.56,2.14,5.59-3.23c.14-.08.31-.04.4.1s.05.31-.09.4l-1.75,1.17,2.76-1.59c.13-.08.31-.04.39.1s.05.31-.08.4l-5.35,3.73,6.71-3.87c.14-.08.31-.03.4.1.08.14.04.31-.09.4l-1.87,1.19,2.41-1.39c.14-.08.31-.04.4.1.08.13.04.31-.09.4l-5.48,3.62,6.24-3.6c.14-.08.31-.03.4.1.08.14.04.31-.09.4l-3.92,2.51,4.39-2.53c.14-.08.31-.04.4.1s.04.31-.09.4l-5.28,3.4,5.74-3.31c.14-.08.32-.03.4.1s.04.31-.09.4l-4.23,2.69,4.55-2.63c.14-.08.31-.04.4.1.08.13.04.31-.09.4l-7.21,4.7,7.63-4.4c.14-.08.31-.04.4.1.08.14.04.31-.09.4l-6.55,4.22,6.82-3.94c.14-.08.32-.03.4.1.08.14.04.31-.09.4l-4.46,2.82,4.57-2.64c.14-.08.32-.03.4.1.08.14.04.32-.1.4l-1.56.97,1.55-.9c.14-.08.31-.04.4.1.08.14.04.31-.09.4l-7.02,4.54,7.11-4.1c.14-.08.31-.04.4.1.08.14.04.31-.09.4l-8.18,5.28,8.18-4.72c.14-.08.31-.03.4.1.08.14.04.31-.09.4l-7.57,4.87,7.45-4.3c.14-.08.32-.04.4.1.08.14.04.32-.1.4l-.61.38.36-.21c.14-.08.32-.04.4.1.08.14.04.31-.09.4l-1.83,1.15,1.53-.88c.14-.08.31-.04.4.1.08.13.05.31-.09.4l-6.19,4.15,5.76-3.33c.14-.08.32-.03.4.1s.04.31-.09.4l-.63.4.16-.09c.14-.08.31-.04.39.1s.05.31-.08.4l-5.2,3.64,4.33-2.5c.13-.08.31-.04.39.1.08.13.05.31-.08.4l-3.31,2.36,2.05-1.18c.13-.08.31-.04.39.09.09.13.06.3-.06.4l-1.89,1.46c.06.02.12.07.15.13.08.14.03.32-.11.4l-2.91,1.68c-.13.08-.3.04-.39-.09s-.06-.3.06-.4l1.27-.98-3.52,2.03s-.1.04-.15.04h0Z"/>
  <path class="cls-4" d="m3.71,21.3c-.07,0-.13-.02-.19-.07-.09-.08-.13-.21-.09-.32l.04-.12-.72.42c-.12.07-.28.05-.37-.06-.09-.11-.1-.26-.01-.37l.49-.63-1.32.76c-.13.07-.29.04-.38-.07-.09-.11-.08-.28.02-.38l1.15-1.19-1.61.93c-.13.08-.3.04-.39-.09-.09-.13-.06-.3.06-.39l.5-.41-.25.14c-.13.08-.29.04-.38-.08-.09-.12-.07-.29.04-.39l1.53-1.4-1.18.68c-.13.07-.29.04-.38-.08-.09-.12-.07-.29.04-.39l1.58-1.47-1.23.71c-.13.08-.3.04-.39-.09-.09-.13-.06-.3.06-.39l.38-.3-.05.03c-.12.07-.27.05-.36-.06-.09-.1-.1-.26-.02-.37l.48-.67c-.12.03-.26-.02-.33-.14-.08-.14-.03-.32.11-.4l1.07-.62c.12-.07.27-.05.36.06.09.1.1.26.02.37l-.46.65,2.32-1.34c.13-.08.3-.04.39.09.09.13.06.3-.06.39l-.38.3.05-.03c.13-.07.29-.04.38.08.09.12.07.29-.04.39l-1.58,1.47,1.24-.71c.13-.07.29-.04.38.08.09.12.07.29-.04.39l-1.53,1.4,1.18-.68c.13-.08.3-.04.39.09s.06.3-.06.39l-.51.41.18-.1c.13-.07.29-.04.38.07.09.11.08.28-.02.38l-1.15,1.19.79-.46c.12-.07.28-.05.37.06.09.11.1.26.01.37l-.49.63.11-.06c.11-.06.24-.05.33.03.09.08.13.21.09.32l-.12.35s.07.06.1.1c.08.14.03.32-.11.4l-.29.17s-.1.04-.15.04Z"/>
  <path class="cls-4" d="m4.73,22.47c-.09,0-.18-.04-.23-.12-.09-.12-.08-.28.03-.39l1.06-1.03-2.15,1.24c-.13.08-.3.04-.39-.09s-.07-.29.05-.39l1.69-1.42-1.79,1.03c-.13.08-.31.04-.39-.09-.09-.13-.05-.31.07-.4l.3-.22c-.13.06-.28.02-.37-.1-.09-.13-.06-.3.06-.39l1.78-1.44-1.45.84c-.13.08-.31.04-.39-.09-.09-.13-.05-.31.07-.4l.26-.19c-.12.04-.26,0-.33-.12-.09-.13-.06-.3.07-.4l1.11-.85-.79.45c-.13.08-.3.04-.39-.09-.09-.12-.07-.29.05-.39l2.18-1.86-1.84,1.06c-.13.08-.3.04-.39-.09-.09-.12-.07-.29.05-.39l1.57-1.33-1.23.71c-.13.08-.29.04-.38-.08-.09-.12-.08-.29.03-.39l.79-.75-.45.26c-.12.07-.27.05-.37-.06-.09-.11-.1-.26-.01-.37l.36-.47c-.09-.01-.16-.06-.21-.14-.08-.14-.03-.32.11-.4l.97-.56c.12-.07.27-.05.37.06.09.11.1.26.01.37l-.26.34,1.33-.77c.13-.08.29-.04.38.08.09.12.08.29-.03.39l-.79.75,1.89-1.09c.13-.08.3-.04.39.09.09.12.07.29-.05.39l-1.57,1.33,1.82-1.05c.13-.08.3-.04.39.09.09.12.07.29-.05.39l-2.18,1.86,1.88-1.08c.13-.08.3-.04.39.09.09.13.06.3-.07.4l-1.11.85.78-.45c.13-.08.31-.04.39.09s.05.31-.07.4l-.26.19c.12-.04.26,0,.33.11.09.13.06.3-.06.39l-1.78,1.44,1.45-.84c.13-.08.31-.04.39.09.09.13.05.31-.07.4l-.3.22c.13-.06.28-.02.37.1.09.12.07.29-.05.39l-1.69,1.42,1.35-.78c.13-.08.29-.04.38.08.09.12.08.28-.03.39l-1.07,1.03.72-.41c.12-.07.28-.04.37.06s.09.27,0,.38l-.35.42c.1,0,.22.04.28.15.08.14.03.32-.11.4l-1.23.71c-.12.07-.28.04-.37-.06-.09-.11-.09-.27,0-.38l.3-.36-1.39.8s-.1.04-.15.04h0Z"/>
  <path class="cls-4" d="m31.82,21.3c-.09,0-.17-.04-.23-.11-.09-.12-.08-.28.02-.38l1.22-1.25-1.66.96c-.13.08-.3.04-.39-.09-.09-.13-.06-.3.06-.39l.56-.45-.22.13c-.13.08-.3.04-.39-.08-.09-.12-.07-.29.05-.39l1.06-.9-.72.42c-.13.08-.3.04-.39-.09-.09-.12-.07-.3.05-.39l.92-.78-.59.34c-.13.08-.3.04-.39-.09-.09-.13-.06-.3.06-.4l.22-.17c-.1.01-.21-.03-.28-.12-.09-.12-.07-.29.05-.39l.52-.45-.18.11c-.13.07-.29.04-.38-.08-.09-.12-.08-.28.03-.39l.29-.28c-.09.02-.18,0-.26-.05-.09-.07-.14-.19-.11-.3l.18-.78c-.06-.02-.11-.07-.15-.13-.08-.14-.03-.32.11-.4l.29-.17c.1-.06.23-.05.32.02.09.07.14.19.11.3l-.14.63,1.32-.76c.13-.07.29-.04.38.08.09.12.08.28-.03.39l-.26.26.82-.47c.13-.08.3-.04.39.08.09.12.07.29-.05.39l-.52.45.72-.42c.13-.08.3-.04.39.09.09.13.06.3-.06.4l-.14.11c.12-.04.26,0,.33.11.09.12.07.3-.05.39l-.92.78.59-.34c.13-.08.3-.04.39.08s.07.29-.05.39l-1.06.9.72-.42c.13-.08.3-.04.39.09.09.13.06.3-.06.39l-.56.45.22-.13c.13-.07.29-.04.38.07.09.12.08.28-.02.38l-1.22,1.25.86-.5c.14-.08.32-.03.4.11.08.14.03.32-.11.4l-2.68,1.55s-.1.04-.15.04h0Z"/>
  <path class="cls-4" d="m30.69,22.47c-.08,0-.16-.03-.21-.09-.09-.1-.11-.25-.03-.36l.75-1.11-2.61,1.51c-.13.08-.3.04-.39-.09-.09-.13-.06-.3.06-.39l.79-.64-1.18.68c-.13.08-.3.04-.39-.08s-.07-.29.05-.39l2.04-1.75-1.93,1.12c-.13.08-.3.04-.39-.09s-.06-.3.06-.4l1.18-.91-.86.49c-.13.08-.31.04-.39-.09-.09-.13-.05-.31.07-.4l.23-.16c-.11.02-.23-.03-.3-.13-.09-.13-.05-.31.07-.4l.32-.24h0c-.13.08-.3.04-.39-.09-.09-.13-.06-.3.06-.4l1.43-1.12-1.1.64c-.13.08-.3.04-.39-.08-.09-.12-.07-.29.05-.39l2.18-1.89-1.84,1.06c-.13.07-.29.04-.38-.08-.09-.12-.08-.28.03-.39l1.59-1.55-1.24.71c-.12.07-.26.05-.36-.05-.09-.1-.11-.24-.04-.36l.55-.91c-.14.07-.31.02-.38-.12-.08-.14-.03-.32.11-.4l.97-.56c.12-.07.26-.05.36.05.09.1.11.24.04.36l-.55.9,2.27-1.31c.13-.08.29-.04.38.08.09.12.08.28-.03.39l-1.59,1.55,2.48-1.43c.13-.08.3-.04.39.08s.07.29-.05.39l-2.18,1.89,1.99-1.15c.13-.08.3-.04.39.09s.06.3-.06.4l-1.43,1.12,1.1-.64c.13-.08.31-.04.39.09s.05.31-.07.4l-.32.24h0c.13-.08.31-.04.39.09.09.13.05.31-.07.4l-.23.16c.11-.02.23.02.3.12.09.13.06.3-.06.4l-1.18.91.86-.49c.13-.08.3-.04.39.08.09.12.07.29-.05.39l-2.04,1.75,1.7-.98c.13-.08.3-.04.39.09s.06.3-.06.39l-.8.64.46-.27c.12-.07.27-.05.36.05.09.1.11.25.03.36l-.75,1.11.3-.18c.14-.08.32-.03.4.11.08.14.03.32-.11.4l-1.4.81s-.1.04-.15.04h0Z"/>
  <path class="cls-4" d="m16.1,34.79c-.09,0-.18-.04-.24-.12-.09-.12-.07-.29.03-.39l1.61-1.52-2.73,1.58c-.13.08-.3.04-.38-.08s-.07-.29.04-.39l1.31-1.17-1.5.87c-.13.08-.3.04-.39-.09-.09-.12-.07-.29.05-.39l.24-.21c-.13.07-.29.04-.38-.07s-.08-.28.02-.38l.42-.44c-.05-.02-.1-.06-.13-.12-.08-.14-.03-.32.11-.4l1.2-.69c.12-.07.29-.04.38.07.09.11.08.28-.02.38l-.12.12,1.03-.59c.13-.08.3-.04.39.09.09.12.07.29-.05.39l-.25.21,1.19-.69c.13-.08.3-.04.38.08s.07.29-.04.39l-1.31,1.17,2.43-1.4c.13-.08.29-.04.38.08.09.12.07.29-.03.39l-1.61,1.52,2-1.15c.12-.07.28-.04.37.07s.09.27,0,.38l-.94,1.05.65-.37c.14-.08.32-.03.4.11.08.14.03.32-.11.4l-2.24,1.29c-.12.07-.28.04-.37-.07-.09-.11-.09-.27,0-.38l.94-1.05-2.59,1.5s-.1.04-.15.04h0Z"/>
  <path class="cls-3" d="m11.83,19.52c-.09,0-.17-.04-.23-.11-.09-.11-.08-.28.02-.38l.06-.06-.64.37c-.13.08-.3.04-.39-.08s-.07-.29.05-.39l.07-.06-.26.15c-.12.07-.28.04-.37-.07s-.09-.27,0-.38l1.09-1.22-1.19.69c-.12.07-.28.04-.37-.06-.09-.11-.1-.26,0-.37l.61-.77c-.11.02-.24-.03-.3-.14-.08-.14-.03-.32.11-.4l1.2-.69c.12-.07.28-.05.37.06.09.11.1.26,0,.37l-.58.73,1.44-.83c.12-.07.28-.04.37.07s.09.27,0,.38l-1.09,1.22,1.35-.78c.13-.08.3-.04.39.08.09.12.07.29-.05.39l-.16.14c.1-.02.2.03.27.11.09.11.08.28-.02.38l-.41.42s.09.06.12.11c.08.14.03.32-.11.4l-1.2.69s-.1.04-.15.04h0Z"/>
  <path class="cls-3" d="m17.7,19.52c-.09,0-.17-.04-.23-.11-.09-.11-.09-.28.01-.38l.23-.25-.88.51c-.12.07-.28.04-.37-.07-.09-.11-.09-.27,0-.38l1.02-1.13-1.4.81c-.13.07-.29.04-.38-.08-.09-.12-.08-.29.03-.39l.63-.6-.46.26c-.12.07-.28.04-.38-.07-.09-.11-.09-.28.01-.38l.47-.52c-.07-.02-.13-.07-.17-.13-.08-.14-.03-.32.11-.4l1.2-.69c.12-.07.28-.04.38.07s.09.28-.01.38l-.26.29.93-.54c.13-.08.29-.04.38.08.09.12.08.29-.03.39l-.63.6.89-.51c.12-.07.28-.04.37.07.09.11.09.27,0,.38l-1.02,1.13.95-.55c.12-.07.29-.04.38.07s.09.28-.01.38l-.46.5c.06.02.12.07.16.13.08.14.03.32-.11.4l-1.2.69s-.1.04-.15.04h0Z"/>
  <path class="cls-3" d="m22.7,19.4c-.09,0-.18-.04-.23-.12-.09-.12-.08-.29.03-.39l.51-.49-.82.47c-.12.07-.28.04-.37-.07-.09-.11-.09-.27,0-.38l1.13-1.32-1.17.68c-.12.07-.28.04-.37-.07-.09-.11-.09-.27,0-.38l.52-.59c-.08-.01-.16-.06-.21-.14-.08-.14-.03-.32.11-.4l1.2-.69c.12-.07.28-.04.37.07.09.11.09.27,0,.38l-.38.44,1.11-.64c.12-.07.28-.04.37.07.09.11.09.27,0,.38l-1.13,1.32,1.49-.86c.13-.08.29-.04.38.08.09.12.08.29-.03.39l-.51.48.25-.14c.14-.08.32-.03.4.11.08.14.03.32-.11.4l-2.4,1.38s-.1.04-.15.04h0Z"/>
  <path class="cls-2" d="m32.55,13.74c-.07-.58-.5-1.15-1.21-1.24-1.85-16.29-25.92-15.86-27.68.21-.53.13-1.05.47-1.2,1.02C-.54,13.83.07,16.48.05,18.63c-.32,1.77.82,2.46,2.4,2.66.04,1.71,5.02,1.46,5.39.06.23,1.02,1.36,1.86,1.39,2.87-.15.8-.77,1.63-1.26,2.24-.14,1.26,3.44.07,4.11-.21,5.22,3.11,12.74.77,15-4.93.11.57.54,1.04,1.15,1.16.48,4.57-3.19,9.1-7.93,8.86-1.5-1-3.88-.66-5.57-.27-1.85.82-1.3,3.64.74,3.65,1.53-.11,3.32.41,4.65-.55,6.31.2,11.86-5.38,11.32-11.74.58-.18.99-.61,1.13-1.21,2.97-.11,2.39-2.69,2.4-4.83.32-1.73-.79-2.5-2.4-2.65h0ZM12.25,1.7c7.79-3.58,17.42,2.35,18.2,10.77-.5.02-.98,0-1.48,0C27.22-.68,7.79-.32,6.04,12.62c-.52,0-1.03,0-1.55,0,.46-4.71,3.41-8.99,7.76-10.93h0Zm14.88,11.86c-3.18-8.29-15.99-8.06-19.21.09-.11-.54-.53-.89-1.07-.99C8.38-.09,26.36.09,28.11,12.59c-.45.17-.82.5-.98.96h0ZM1.43,20.29c-1.05-.86-.29-2.62-.51-3.83-.18-1.29.14-1.91,1.48-2.04v6.13c-.32-.09-.67-.12-.97-.26Zm5.19,1.72c-1.18-.03-3.45.49-3.36-1.32.29-2.34-.61-5.65.41-7.66,1.5-.11,3.74-.54,3.43,1.7-.29,1.83.64,6.1-.48,7.28Zm16.98,3.08c-3.01,2.65-7.6,2.85-10.94.75-.82-.09-1.55.61-2.38.65-.07.01-1.63.22-1.47-.16.54-.75,1.31-1.73,1.37-2.67-2.11-2.59-2.82-6.29-1.69-9.47,6.53-15.26,26.75-.3,15.12,10.91h0Zm-5.11,9.21c-1.39-.12-3.64.57-4.05-1.3-.13-.64.14-1.44.77-1.72,1.47.03,3.94-.73,4.69.99.38.96-.3,2.22-1.41,2.04h0Zm9.78-4.34c-1.93,2.39-4.7,3.59-7.7,3.69.35-.54.4-1.29.07-1.86,4.79-.09,8.88-4.43,8.44-9.26.5-.01.99,0,1.49,0,.12,2.65-.58,5.37-2.3,7.44h0Zm2.16-8.1c-3.21.45-2.47-1.22-2.52-3.6.27-1.2-.7-4.85.71-5.12,1.21.06,3.4-.51,3.12,1.4,0,2.18,0,4.35,0,6.53-.01.75-.71.87-1.31.79Zm3.51-1.78c-.3.43-.89.38-1.34.54,0-2.07,0-4.15,0-6.22,1.08.07,1.68.77,1.49,1.83-.11,1.25.24,2.66-.14,3.85h0Z"/>
  <path class="cls-2" d="m12.45,15.6c-3.44-.98-4.19,4.46-.43,3.84,2.01-.28,2.48-3.23.43-3.84Zm-.38,3.38c.07-.02-.16.04-.09.02-1.51.23-2.3-2-1.06-2.84,0,0,.18-.1.14-.09,1.73-.66,2.67,2.3,1.01,2.9Z"/>
  <path class="cls-2" d="m18.34,15.57c-3.46-1.07-4.21,4.5-.45,3.93,2.03-.28,2.48-3.27.45-3.93Zm.22,2.87c-.15.21-.37.38-.58.46-1.42.47-2.43-1.6-1.36-2.55,1.24-1.11,2.88.9,1.94,2.09h0Z"/>
  <path class="cls-2" d="m24.19,15.6c-3.44-.98-4.19,4.46-.43,3.84,2.01-.28,2.48-3.23.43-3.84Zm-.38,3.38c.07-.02-.16.04-.09.02-1.51.23-2.3-2-1.06-2.84,0,0,.18-.1.14-.09,1.73-.66,2.67,2.3,1.01,2.9Z"/>
</svg>