<?xml version="1.0" encoding="UTF-8"?>
<svg id="Layer_1" data-name="Layer 1" xmlns="http://www.w3.org/2000/svg" viewBox="0 0 35 35">
  <defs>
    <style>
      .cls-1 {
        fill: #f47721;
      }

      .cls-1, .cls-2, .cls-3, .cls-4, .cls-5 {
        stroke-width: 0px;
      }

      .cls-3 {
        fill: #fff;
      }

      .cls-4 {
        fill: #f58231;
      }

      .cls-5 {
        fill: #c1dbf0;
      }
    </style>
  </defs>
  <path class="cls-1" d="m3.24,34.8c-.16,0-.29-.13-.29-.29,0-.1.05-.19.13-.25l7.15-4.64-8.8,5.08c-.14.08-.32.03-.4-.12-.07-.13-.03-.3.1-.39l2.18-1.35-2.48,1.43c-.14.08-.32.03-.4-.11-.08-.14-.04-.31.1-.39l6.69-4.25-6.61,3.81c-.14.08-.32.02-.4-.12-.07-.13-.03-.3.09-.38l7.85-5.08-7.54,4.36c-.14.08-.32.03-.4-.1-.08-.14-.04-.31.1-.4l6.01-3.86-5.7,3.29c-.14.08-.32.03-.4-.11-.08-.13-.04-.3.09-.39l6.63-4.35-6.32,3.65c-.14.08-.32.03-.4-.11-.08-.13-.04-.3.09-.39l6.79-4.56-6.48,3.74c-.14.08-.32.03-.4-.11-.08-.13-.04-.3.09-.39l5.15-3.43-4.84,2.79c-.14.08-.32.03-.4-.11-.08-.13-.04-.31.09-.39l1.74-1.12-1.43.83c-.14.08-.32.03-.4-.11-.08-.13-.04-.3.09-.39l1.48-.97-1.17.68c-.14.08-.32.03-.4-.11-.07-.13-.04-.29.08-.38l3.24-2.33-2.74,1.58c-.14.08-.32.02-.4-.12-.06-.12-.04-.26.05-.35l1.3-1.17c-.15.07-.32,0-.39-.14-.07-.14-.02-.3.11-.38l2.41-1.39c.14-.08.32-.02.4.12.06.12.04.26-.05.35l-1.3,1.17,5.45-3.15c.14-.08.32-.03.4.11.07.13.04.29-.08.38l-3.24,2.33,4.88-2.82c.14-.08.32-.04.4.1.08.14.04.31-.09.4l-1.48.97,2.55-1.47c.14-.08.32-.04.4.1s.04.32-.1.4h0l-1.74,1.13,2.81-1.62c.14-.08.32-.04.4.1.08.14.04.31-.09.39l-5.15,3.43,5.97-3.45c.14-.08.32-.03.4.11.07.13.03.3-.09.38l-6.79,4.56,7.79-4.5c.14-.08.32-.03.4.11.08.13.04.3-.09.39l-6.63,4.35,7.51-4.33c.14-.08.32-.03.4.1.08.14.04.31-.1.4l-6.01,3.86,6.75-3.89c.14-.08.32-.03.4.11.07.13.03.3-.09.39l-7.85,5.09,8.55-4.94c.14-.08.32-.03.4.11.07.13.03.3-.09.39l-6.69,4.25,7.03-4.06c.14-.08.32-.03.4.12.07.13.03.3-.1.39l-2.19,1.36,2.23-1.29c.14-.08.32-.04.4.1s.04.32-.1.4l-7.15,4.64,7.18-4.14c.14-.08.32-.03.4.11.08.13.04.3-.09.39l-6.31,4.13,6.1-3.52c.14-.08.32-.03.4.11.08.13.04.3-.09.39l-6.36,4.34,6.05-3.49c.14-.08.32-.02.4.12.07.13.03.29-.09.38l-2.12,1.38,1.82-1.05c.14-.08.32-.03.4.11.07.13.03.3-.09.38l-1.85,1.22,1.54-.89c.14-.08.32-.03.4.11.07.13.03.3-.09.38l-1.46.99,1.15-.67c.14-.08.32-.03.4.11.07.13.04.29-.08.38l-2.55,1.9,2.23-1.29c.14-.08.32-.03.4.11.07.12.04.28-.07.37l-1.79,1.46,1.46-.84c.14-.08.32-.03.4.11.06.11.05.25-.03.34l-1.18,1.34.82-.47c.14-.08.32-.03.4.11.06.11.05.24-.03.33l-.29.35c.15.06.23.23.17.38-.02.06-.07.12-.13.15l-.97.56c-.14.08-.32.03-.4-.11-.06-.11-.05-.24.03-.33l.09-.1-.95.55c-.14.08-.32.03-.4-.11-.06-.11-.05-.24.03-.34l1.18-1.34-3.1,1.79c-.14.08-.32.03-.4-.11-.07-.12-.04-.28.07-.37l1.79-1.45-3.35,1.93c-.14.08-.32.03-.4-.11-.07-.13-.04-.29.08-.38l2.55-1.9-4.14,2.39c-.14.08-.32.03-.4-.11-.07-.13-.03-.3.09-.38l1.46-.99-2.57,1.48c-.14.08-.32.02-.4-.12-.07-.13-.03-.29.09-.38l1.85-1.22-2.98,1.72c-.14.08-.32.02-.4-.12-.07-.13-.03-.29.09-.38l2.12-1.38-3.25,1.88c-.14.08-.32.03-.4-.11-.07-.13-.04-.29.09-.38l6.36-4.34-8.38,4.84c-.14.08-.32.03-.4-.11-.07-.13-.03-.3.09-.39l6.31-4.13-8.02,4.63s-.09.04-.15.04h0Z"/>
  <path class="cls-4" d="m9.98,23.64c-.16,0-.29-.13-.29-.29,0-.08.04-.17.1-.22l1.02-.88-1.72,1c-.14.08-.32.03-.4-.11-.07-.12-.04-.28.07-.37l1.32-1.06-1.68.97c-.14.08-.32.03-.4-.11-.08-.13-.04-.3.08-.38l.2-.14-.24.14c-.14.08-.32.03-.4-.11-.07-.12-.04-.28.07-.37l.84-.67-.8.46c-.14.08-.32.03-.4-.11-.07-.11-.05-.26.04-.35l.89-.91-.63.36c-.1.06-.23.05-.33-.02-.09-.07-.13-.2-.1-.31l.27-.89c-.05-.03-.1-.07-.13-.12-.08-.14-.03-.32.11-.4l.31-.18c.14-.08.32-.03.4.11.04.07.05.15.03.23l-.21.72,1.83-1.06c.14-.08.32-.03.4.11.07.11.05.26-.04.35l-.89.91,2.39-1.38c.14-.08.32-.03.4.11.07.12.04.28-.07.37l-.84.67,1.87-1.08c.14-.08.32-.03.4.11.07.13.04.29-.08.38l-.22.16c.15-.06.32.02.38.17.05.12.01.25-.09.33l-1.32,1.06,1.06-.61c.14-.08.32-.03.4.11.07.12.04.28-.06.37l-1.02.88.48-.28c.14-.09.32-.05.4.09.09.14.05.32-.09.4,0,0-.01,0-.02.01l-3.14,1.82s-.09.04-.14.04h0Z"/>
  <path class="cls-5" d="m4.06,17.81c-.16,0-.29-.13-.29-.29,0-.1.05-.19.13-.25l3.6-2.31-4.62,2.67c-.14.08-.32.04-.4-.1s-.04-.32.1-.4h0l1.68-1.05-2.14,1.24c-.14.08-.32.04-.4-.1-.08-.14-.04-.32.1-.4h0l6.1-3.94-6.34,3.66c-.14.08-.32.03-.4-.11-.08-.14-.04-.31.09-.39l7.27-4.75-6.03,3.48c-.14.08-.32.03-.4-.12-.07-.13-.03-.3.09-.38l5.47-3.55-4.87,2.81c-.14.08-.32.02-.4-.12-.07-.13-.03-.3.1-.38l.34-.21c-.15.05-.32-.03-.37-.18-.05-.13,0-.27.12-.35l4.76-3.1-4.39,2.54c-.14.08-.32.03-.4-.11-.07-.13-.03-.3.09-.39l3.43-2.22-3.12,1.8c-.14.08-.32.04-.4-.1-.08-.13-.04-.31.09-.39l5.62-3.81-5.31,3.06c-.14.08-.32.04-.4-.1-.08-.13-.04-.31.09-.39l4.72-3.21-4.41,2.55c-.14.08-.32.03-.4-.12-.07-.13-.03-.29.09-.38l3.63-2.46-3.23,1.87c-.14.08-.32.03-.4-.11-.08-.13-.04-.31.09-.39l1.26-.83-.77.44c-.14.08-.32.03-.4-.11-.07-.13-.04-.29.08-.38l3.16-2.29-2.25,1.3c-.14.08-.32.03-.4-.11-.07-.12-.04-.28.06-.37l1.99-1.71c-.16.03-.31-.07-.34-.23-.02-.12.03-.25.14-.31l2.56-1.48c.14-.08.32-.03.4.11.07.12.04.28-.06.37l-1.93,1.66L10.6.34c.14-.08.32-.03.4.11.07.13.04.29-.08.38l-3.16,2.29L12.18.58c.14-.08.32-.03.4.11.07.13.03.3-.09.38l-1.26.83,1.81-1.05c.14-.08.32-.03.4.11.08.13.04.3-.09.39l-3.63,2.46,4.3-2.48c.14-.08.32-.03.4.11.07.13.04.3-.09.38l-4.72,3.21,5.34-3.08c.14-.08.32-.04.4.1.08.13.04.31-.09.39l-5.61,3.81,6.14-3.54c.14-.08.32-.02.4.12.07.13.03.3-.09.38l-3.44,2.23,3.66-2.11c.14-.08.32-.03.4.11.08.13.04.3-.09.39l-4.76,3.1,4.95-2.86c.14-.08.32-.03.4.12.07.13.03.3-.1.39l-.17.11.15-.09c.14-.08.32-.03.4.12.07.13.03.3-.09.38l-5.47,3.55,5.52-3.19c.14-.08.32-.03.4.11.08.14.04.31-.09.39l-7.27,4.75,7.24-4.18c.14-.08.32-.03.4.11.07.13.03.3-.09.39l-6.1,3.94,5.91-3.42c.14-.08.32-.03.4.11.08.13.03.31-.1.39l-1.68,1.05,1.39-.81c.14-.08.32-.03.4.12.07.13.03.3-.09.38l-3.6,2.32,3.29-1.9c.14-.08.32-.03.4.11.07.13.03.3-.09.39l-3.41,2.25,3.1-1.79c.14-.08.32-.04.4.1.08.13.04.31-.09.39l-3.65,2.51,3.34-1.93c.14-.08.32-.03.4.11.07.13.04.29-.08.38l-3.54,2.66,3.3-1.91c.14-.08.32-.03.4.11.07.13.04.29-.08.38l-1.65,1.21,1.46-.84c.14-.08.32-.03.4.12.06.12.04.26-.05.35l-1.82,1.65,1.78-1.03c.12-.07.28-.04.37.07.09.11.09.27-.01.38l-1.22,1.34,1.37-.79c.14-.08.32-.03.4.1.07.11.05.26-.04.35l-.33.34.33-.19c.14-.08.32-.03.4.11.08.14.03.32-.11.4l-2.1,1.21c-.14.08-.32.03-.4-.11-.07-.11-.05-.26.04-.35l.33-.34-1.23.71c-.14.08-.32.03-.4-.11-.06-.11-.05-.25.04-.34l1.22-1.34-2.52,1.46c-.14.08-.32.03-.4-.12-.06-.12-.04-.26.05-.35l1.82-1.65-3.68,2.12c-.14.08-.32.03-.4-.11-.07-.13-.04-.29.08-.38l1.65-1.21-2.95,1.7c-.14.08-.32.03-.4-.11-.07-.13-.04-.29.08-.38l3.55-2.66-5.45,3.14c-.14.08-.32.04-.4-.1-.08-.13-.04-.31.09-.39l3.65-2.51-5.21,3.01c-.14.08-.32.03-.4-.11-.07-.13-.03-.3.09-.39l3.41-2.25-5.49,3.17s-.09.04-.15.04h0Z"/>
  <path class="cls-5" d="m28.88,24.85c-.16,0-.29-.13-.29-.29,0-.09.04-.17.11-.23l.28-.22-1.22.7c-.14.08-.32.02-.4-.12-.06-.11-.04-.26.05-.35l1.77-1.58-3.23,1.86c-.14.08-.32.03-.4-.11-.07-.13-.04-.28.07-.37l1-.79-.82.47c-.14.08-.32.03-.4-.11-.06-.11-.05-.24.03-.34l1.02-1.16-.66.38c-.14.08-.32.03-.4-.11-.05-.09-.05-.2,0-.29l.25-.44c-.16-.02-.27-.17-.25-.33.01-.09.06-.17.14-.21l.68-.39c.14-.08.32-.03.4.11.05.09.05.2,0,.29l-.19.34,1.28-.74c.14-.08.32-.03.4.11.06.11.05.24-.03.34l-1.02,1.16,2.78-1.61c.14-.08.32-.03.4.11.07.12.04.28-.07.37l-1,.79,2.2-1.27c.14-.08.32-.02.4.12.06.11.04.26-.05.35l-1.77,1.58,1.98-1.14c.14-.08.32-.03.4.11.07.12.04.28-.07.37l-.29.24c.15-.06.32.01.38.16.04.09.02.2-.04.28l-.52.71.14-.08c.14-.07.32-.02.4.12.07.13.03.3-.1.38l-1.35.78c-.14.08-.32.03-.4-.11-.06-.1-.05-.22.02-.32l.52-.71-1.96,1.13s-.1.04-.15.04h0Z"/>
  <path class="cls-3" d="m9.85,20.1c-.16,0-.29-.13-.29-.29,0-.09.04-.18.12-.23l2.44-1.86-3.28,1.89c-.14.08-.32.03-.4-.11-.07-.13-.04-.29.08-.38l3.64-2.73-4.46,2.58c-.14.08-.32.03-.4-.11-.07-.13-.03-.3.09-.39l2.07-1.37-2.4,1.39c-.14.08-.32.03-.4-.11-.08-.13-.04-.3.09-.39l5.21-3.62-5.71,3.3c-.14.08-.32.04-.4-.1-.08-.14-.04-.31.09-.4l2.76-1.81-2.91,1.68c-.14.08-.32.03-.4-.11-.08-.13-.04-.3.09-.39l5-3.48-5.21,3.01c-.14.08-.32.03-.4-.11-.07-.13-.04-.29.08-.38l4.64-3.32-4.69,2.71c-.14.08-.32.03-.4-.11-.07-.13-.04-.29.09-.38l2.84-1.94-2.68,1.55c-.14.08-.32.03-.4-.11-.08-.13-.04-.3.09-.39l1.74-1.17-1.46.84c-.14.08-.32.03-.4-.11-.07-.13-.04-.29.08-.38l3.6-2.61-4.39,2.54c-.14.08-.32.03-.4-.11-.08-.13-.04-.29.08-.38l.64-.48-.75.43c-.14.08-.32.03-.4-.11-.07-.12-.04-.28.07-.37l.53-.44-.4.23c-.14.08-.32.03-.4-.11-.06-.11-.05-.24.03-.33l.56-.67c-.16,0-.29-.13-.29-.29,0-.1.06-.2.15-.25l1.2-.69c.14-.08.32-.03.4.11.06.11.05.24-.03.33l-.49.59,1.97-1.14c.14-.08.32-.03.4.11.07.12.04.28-.07.37l-.53.44,2.1-1.21c.14-.08.32-.03.4.11.08.13.04.29-.08.38l-.64.47,4.97-2.87c.14-.08.32-.03.4.11.07.13.04.29-.08.38l-3.6,2.61,3.98-2.3c.14-.08.32-.03.4.11.08.13.04.3-.09.39l-1.74,1.17,1.88-1.09c.14-.08.32-.03.4.11.08.13.04.3-.09.39l-2.84,1.94,3.26-1.88c.14-.08.32-.03.4.11.07.13.04.29-.08.38l-4.64,3.32,5.96-3.44c.14-.08.32-.03.4.11.08.13.04.3-.09.39l-5,3.48,5.91-3.42c.14-.08.32-.02.4.12.07.13.03.3-.09.38l-2.75,1.81,2.85-1.64c.14-.08.32-.03.4.11.08.13.04.3-.09.39l-5.21,3.62,4.76-2.75c.14-.08.32-.02.4.12.07.13.03.29-.09.38l-2.07,1.37.23-.13c.14-.08.32-.03.4.11.07.13.04.29-.08.38l-3.65,2.73,3.04-1.75c.14-.08.32-.03.4.11.07.13.04.28-.07.37l-2.44,1.86,1.41-.82c.14-.08.32-.03.4.11.07.13.04.29-.08.38l-1.26.96s.08.06.1.11c.08.14.03.32-.11.4l-2.72,1.57c-.14.08-.32.03-.4-.11-.07-.13-.04-.29.08-.38l.33-.25-1.46.84s-.09.04-.14.04h0Z"/>
  <g>
    <path class="cls-2" d="m19.93,22.88c-1.59-1.78-4.14-2.21-6.21-3.28-.03-.25-.06-.5-.08-.75.55-.39,1.05-.84,1.48-1.36,1.45.48,3.43.47,4.55-.71.44-.63-.14-1.07-.43-1.59-.37-.71-.6-1.49-.68-2.29.93-8.29-3.85-15.89-12.68-11.18C.33,4.85,3.99,11.77,1.04,16.12c-.15,2.01,3.24,1.83,4.55,1.34.45.57.98,1.07,1.59,1.49-.03.25-.06.51-.08.77-2.54,1.25-6.32,1.84-6.97,5.08-.22,2.83-.08,5.72-.09,8.56.04,1.62,1.76,1.39,2.89,1.39,5.68-.24,11.56.49,17.14-.29,1.32-.64,1.05-10.6-.14-11.57h0Zm-1.3-7.08c1.2,1.71-2.15,1.69-3.11,1.17.78-1.14,1.2-2.5,1.18-3.88.35-.1.68-.27.95-.51.04,1.14.38,2.25.97,3.23ZM4.76,3.58c4.53-5.96,13.93-1.19,12.85,5.89-.99-.7-2.43-.2-3.29-1.21-.59-.58-.75-1.53-1.72-1.57-.96,0-1.47.97-2.33,1.27-2.17,1.25-4.91.54-7.05,1.55-.1-2.1.19-4.24,1.54-5.93h0Zm-2.17,13.42c-.81-.23-.95-.92-.31-1.46.51-.87.8-1.84.87-2.85.28.23.61.38.96.44-.05,1.4.36,2.78,1.18,3.92-.88.32-1.84.3-2.7-.05Zm2.65-2.06c-.43-.68.06-1.97-.52-2.38-1.33-.06-2.1-1.87-.92-2.68,2.61-.59,5.64-.31,7.93-2.05,1.47-1.58,1.13,2.03,4.82,1.9,1.42.47,1.36,2.73-.25,2.82-.23.01-.49.17-.46.42.02,6.92-8.27,9.09-10.6,1.96h0Zm4.91,5.25c.95-.01,1.88-.3,2.67-.82,1.16,4.81-5.78,4.8-4.84.07.66.4,1.4.66,2.17.75Zm9.8,12.99c.08,1.47-1.53,1.1-2.5,1.11-5.32-.1-10.72.19-16.01-.1-1.22-1.31-.26-3.67-.55-5.35-.69-5.51,1.27-7.01,6.18-8.67-.43,4.54,6.86,4.59,6.71.12,7.71,2.01,6.12,6.44,6.17,12.89h0Z"/>
    <path class="cls-2" d="m34.85,24.06c.77-9.22-1.95-5.52-10.12-6.21-1.74-.08-2.05,1.58-1.86,2.98.59,2.79-1.48,13.47,1.35,13.98,12.58.11,10.61,1.61,10.63-10.75h0Zm-1.55,10.18c-13.81.17-8.65,1.53-9.57-14.97.37-1.71,3.23-.52,4.54-.85,1.73.42,5.9-1.24,5.73,1.53-.44,2.66.97,13.4-.7,14.3h0Z"/>
    <path class="cls-2" d="m31.5,24.74c1.41.06,1.28-3.14.64-3.78-1.85-.28-3.83,0-5.71-.09-1.58-.05-1.18,1.64-1.21,2.7-.42,2.24,4.84.85,6.29,1.17Zm-4.96-.36c-.88-.15-.44-2.46-.4-3.13,1.76.16,3.83-.35,5.43.21.13.97.14,1.95.03,2.92h-5.06Z"/>
    <path class="cls-2" d="m34.85,2.29c.02-3.71-10.1-1.49-12.88-2.04-3.58.83-1.53,5.87-2.03,8.52-.4,2.1.5,4.19,2.92,3.82-.73,5.55,3.93,1.45,6.21,0-.12.01-.24-.03,0,0,.07-.06.12-.1.11-.11.03.07-.04.1-.11.11,8.53,1.17,5.14-4.67,5.77-10.3h0Zm-.86,8.24c-.42,2.75-4.07.58-5.7,1.76-1.37.81-2.62,1.95-4.05,2.58-.81-.06-.51-2.11-.51-2.63-.7-.82-2.83.33-2.93-1.76-.02-2.5.01-5.01,0-7.52,0-.84.01-1.91,1.1-2.07,3.34-.04,6.7,0,10.05-.01,3.72-.25,1.56,7.2,2.04,9.65h0Z"/>
    <path class="cls-2" d="m29.31,26.65c-.35.02-1.26-.12-1.14.44.31.32,2.03-.06,1.14-.44Z"/>
    <path class="cls-2" d="m25.87,27.1c.26.02.52-.05.73-.21.05-.56-2.63.27-.73.21Z"/>
    <path class="cls-2" d="m31.9,27.13c1.33-.28.01-.63-.57-.36-.7.37.25.4.57.36Z"/>
    <path class="cls-2" d="m28.8,29.43c.19.06,1.08-.21.62-.34-.6-.15-2.07.38-.62.34Z"/>
    <path class="cls-2" d="m26.37,28.98c-.36.02-1.27-.12-1.13.45.32.34,2.04-.05,1.13-.45Z"/>
    <path class="cls-2" d="m29.31,31.36c-.34.02-1.23-.12-1.14.41.3.28,2-.06,1.14-.41Z"/>
    <path class="cls-2" d="m25.98,31.42c-.2-.06-1.08.21-.62.35.6.15,2.07-.38.62-.35Z"/>
    <path class="cls-2" d="m32.11,28.95c-.7-.21-.72,3.18-.08,2.96.71.21.72-3.18.08-2.96Z"/>
    <path class="cls-2" d="m27.78,6.22c-1.03.11-1.6-1.41-.66-1.91.32-.1.7.22.85.47,1.35.39.74-.84-.17-.89-.08-.34.19-1.03-.15-1.16-.82-.08-.72.64-.7,1.23-1.48.3-1.56,2.51.03,2.67.59-.04,1.1.41,1.13.99,0,.06,0,.13,0,.19.02.38-.28.7-.65.71-.3.01-.57-.17-.67-.46-1.35-.39-.74.84.17.89.08.33-.19,1.04.15,1.14.81.06.73-.61.7-1.21,1.48-.3,1.56-2.51-.03-2.67h0Z"/>
  </g>
</svg>