<?xml version="1.0" encoding="UTF-8"?>
<svg id="Layer_1" data-name="Layer 1" xmlns="http://www.w3.org/2000/svg" viewBox="0 0 35 35">
  <defs>
    <style>
      .cls-1 {
        fill: #f47721;
      }

      .cls-1, .cls-2, .cls-3, .cls-4, .cls-5 {
        stroke-width: 0px;
      }

      .cls-3 {
        fill: #fff;
      }

      .cls-4 {
        fill: #f58231;
      }

      .cls-5 {
        fill: #c1dbf0;
      }
    </style>
  </defs>
  <g>
    <path class="cls-1" d="m12.44,31.67c-.11,0-.21-.09-.21-.2,0-.07.04-.14.09-.17l5.01-3.25-6.17,3.56c-.1.05-.22.02-.28-.08-.05-.09-.02-.21.07-.27l1.53-.95-1.73,1c-.1.06-.22.02-.28-.08-.05-.09-.02-.22.07-.27l4.69-2.98-4.63,2.67c-.1.05-.22.02-.28-.08-.05-.09-.02-.21.06-.27l5.5-3.56-5.28,3.05c-.1.06-.22.02-.28-.07-.06-.1-.03-.22.07-.28l4.21-2.7-4,2.31c-.1.06-.22.02-.28-.08-.05-.09-.02-.21.06-.27l4.64-3.05-4.43,2.56c-.1.06-.22.02-.28-.07-.05-.09-.03-.21.06-.27l4.76-3.2-4.54,2.62c-.1.06-.22.02-.28-.08-.05-.09-.03-.21.06-.27l3.61-2.4-3.39,1.96c-.1.06-.22.02-.28-.08-.05-.09-.02-.21.07-.27l1.22-.79-1,.58c-.1.06-.22.02-.28-.08-.05-.09-.02-.21.06-.27l1.04-.68-.82.47c-.1.06-.22.02-.28-.08-.05-.09-.03-.21.06-.27l2.27-1.63-1.92,1.11c-.1.05-.22.02-.28-.08-.04-.08-.03-.18.04-.24l.91-.82c-.1.05-.22,0-.27-.1-.05-.1-.01-.21.08-.26l1.69-.98c.1-.05.22-.02.28.08.04.08.03.18-.04.24l-.91.82,3.82-2.2c.1-.06.22-.02.28.08.05.09.03.21-.06.27l-2.27,1.63,3.42-1.97c.1-.06.22-.03.28.07.06.1.03.22-.07.28l-1.04.68,1.78-1.03c.1-.06.22-.03.28.07s.03.22-.07.28h0l-1.22.79,1.97-1.14c.1-.06.22-.03.28.07.06.09.03.22-.06.28l-3.61,2.4,4.18-2.41c.1-.05.22-.02.28.08.05.09.02.21-.06.27l-4.76,3.2,5.46-3.15c.1-.06.22-.02.28.08.05.09.02.21-.06.27l-4.64,3.05,5.26-3.04c.1-.06.22-.02.28.07.06.1.03.22-.07.28l-4.21,2.7,4.73-2.73c.1-.06.22-.02.28.08.05.09.02.21-.06.27l-5.5,3.56,5.99-3.46c.1-.06.22-.02.28.08.05.09.02.21-.07.27l-4.68,2.98,4.93-2.85c.1-.05.22-.02.28.08.05.09.02.21-.07.27l-1.54.95,1.57-.9c.1-.06.22-.03.28.07s.03.22-.07.28l-5.01,3.25,5.03-2.9c.1-.06.22-.02.28.08.05.09.02.21-.06.27l-4.42,2.89,4.27-2.47c.1-.06.22-.02.28.07.05.09.03.21-.06.27l-4.45,3.04,4.24-2.45c.1-.05.22-.02.28.08.05.09.02.21-.06.27l-1.48.97,1.27-.73c.1-.05.22-.02.28.08.05.09.02.21-.06.27l-1.3.86,1.08-.62c.1-.05.22-.02.28.08.05.09.02.21-.06.27l-1.03.69.81-.47c.1-.06.22-.02.28.08.05.09.03.2-.05.26l-1.79,1.33,1.56-.9c.1-.06.22-.02.28.08.05.09.03.19-.05.26l-1.25,1.02,1.02-.59c.1-.06.22-.02.28.07.04.08.03.17-.02.24l-.83.94.57-.33c.1-.06.22-.02.28.08.04.07.03.17-.02.23l-.2.24c.11.04.16.16.12.26-.02.04-.05.08-.09.1l-.68.39c-.1.06-.22.02-.28-.08-.04-.07-.03-.17.02-.23l.06-.07-.66.38c-.1.06-.22.02-.28-.08-.04-.08-.03-.17.02-.24l.83-.94-2.17,1.25c-.1.06-.22.02-.28-.08-.05-.09-.03-.19.05-.26l1.25-1.02-2.35,1.35c-.1.06-.22.02-.28-.08-.05-.09-.03-.2.05-.26l1.79-1.33-2.9,1.68c-.1.05-.22.02-.28-.08-.05-.09-.02-.21.06-.27l1.03-.69-1.8,1.04c-.1.05-.22.02-.28-.08-.05-.09-.02-.21.06-.26l1.3-.86-2.09,1.2c-.1.05-.22.02-.28-.08-.05-.09-.02-.21.06-.27l1.49-.97-2.28,1.32c-.1.06-.22.02-.28-.08-.05-.09-.02-.21.06-.27l4.45-3.04-5.87,3.39c-.1.06-.22.02-.28-.08-.05-.09-.02-.21.06-.27l4.42-2.9-5.62,3.24s-.07.03-.1.03h0Z"/>
    <path class="cls-4" d="m17.15,23.85c-.11,0-.21-.09-.2-.21,0-.06.03-.12.07-.15l.72-.62-1.21.7c-.1.06-.22.02-.28-.08-.05-.09-.03-.19.05-.26l.92-.74-1.18.68c-.1.06-.22.02-.28-.07-.05-.09-.03-.21.06-.27l.14-.1-.17.1c-.1.06-.22.02-.28-.08-.05-.09-.03-.2.05-.26l.59-.47-.56.32c-.1.06-.22.02-.28-.08-.05-.08-.03-.18.03-.25l.63-.64-.44.25c-.07.04-.16.04-.23-.02-.07-.05-.09-.14-.07-.22l.19-.63s-.07-.05-.09-.08c-.06-.1-.02-.22.07-.28l.22-.13c.1-.06.22-.02.28.08.03.05.03.11.02.16l-.15.5,1.29-.74c.1-.06.22-.02.28.08.05.08.03.18-.03.25l-.63.64,1.67-.96c.1-.06.22-.02.28.08.05.09.03.2-.05.26l-.59.47,1.31-.75c.1-.06.22-.02.28.08.05.09.03.2-.06.27l-.16.11c.11-.04.22.01.27.12.03.08,0,.18-.06.23l-.92.74.74-.43c.1-.06.22-.02.28.08.05.09.03.19-.04.26l-.71.62.34-.2c.1-.06.22-.03.28.06.06.1.03.22-.06.28,0,0,0,0-.01,0l-2.2,1.27s-.06.03-.1.03h0Z"/>
    <path class="cls-5" d="m13.01,19.77c-.11,0-.21-.09-.21-.2,0-.07.04-.14.09-.17l2.52-1.62-3.24,1.87c-.1.06-.22.03-.28-.07s-.03-.22.07-.28h0l1.18-.74-1.5.87c-.1.06-.22.03-.28-.07-.06-.1-.03-.22.07-.28h0l4.27-2.76-4.44,2.56c-.1.06-.22.02-.28-.07-.06-.09-.03-.22.07-.28l5.09-3.33-4.22,2.44c-.1.05-.22.02-.28-.08-.05-.09-.02-.21.06-.27l3.83-2.49-3.41,1.97c-.1.05-.22.02-.28-.08-.05-.09-.02-.21.07-.27l.24-.15c-.11.04-.22-.02-.26-.13-.03-.09,0-.19.09-.24l3.33-2.17-3.08,1.78c-.1.06-.22.02-.28-.08-.05-.09-.02-.21.06-.27l2.4-1.56-2.19,1.26c-.1.06-.22.03-.28-.07-.06-.09-.03-.22.06-.28l3.93-2.67-3.72,2.15c-.1.06-.22.03-.28-.07-.06-.09-.03-.22.06-.28l3.31-2.25-3.09,1.78c-.1.05-.22.02-.28-.08-.05-.09-.02-.21.06-.27l2.54-1.72-2.26,1.31c-.1.06-.22.02-.28-.07-.05-.09-.03-.21.06-.27l.88-.58-.54.31c-.1.06-.22.02-.28-.08-.05-.09-.03-.2.06-.27l2.21-1.61-1.58.91c-.1.06-.22.02-.28-.08-.05-.09-.03-.19.04-.26l1.39-1.2c-.11.02-.22-.05-.24-.16-.02-.09.02-.17.1-.22l1.79-1.04c.1-.06.22-.02.28.08.05.09.03.19-.04.26l-1.35,1.16,3.06-1.77c.1-.06.22-.02.28.08.05.09.03.2-.06.27l-2.21,1.61,3.09-1.79c.1-.05.22-.02.28.08.05.09.02.21-.06.27l-.88.58,1.27-.73c.1-.06.22-.02.28.08.05.09.03.21-.06.27l-2.54,1.72,3.01-1.74c.1-.06.22-.02.28.08.05.09.03.21-.06.27l-3.31,2.25,3.74-2.16c.1-.06.22-.03.28.07.06.09.03.22-.06.28l-3.93,2.67,4.3-2.48c.1-.05.22-.02.28.08.05.09.02.21-.06.27l-2.41,1.56,2.56-1.48c.1-.06.22-.02.28.08.05.09.02.21-.06.27l-3.33,2.17,3.47-2c.1-.05.22-.02.28.08.05.09.02.21-.07.27l-.12.07.1-.06c.1-.05.22-.02.28.08.05.09.02.21-.06.27l-3.83,2.49,3.87-2.23c.1-.06.22-.02.28.07.06.09.03.22-.07.28l-5.09,3.32,5.07-2.93c.1-.06.22-.02.28.08.05.09.02.21-.06.27l-4.27,2.76,4.14-2.39c.1-.06.22-.02.28.08.05.09.02.21-.07.27l-1.18.74.98-.56c.1-.05.22-.02.28.08.05.09.02.21-.07.27l-2.52,1.62,2.31-1.33c.1-.06.22-.02.28.08.05.09.02.21-.06.27l-2.39,1.58,2.17-1.25c.1-.06.22-.03.28.07.06.09.03.21-.06.27l-2.55,1.76,2.34-1.35c.1-.06.22-.02.28.08.05.09.03.2-.05.27l-2.48,1.86,2.31-1.34c.1-.06.22-.02.28.07.05.09.03.21-.06.27l-1.15.85,1.02-.59c.1-.05.22-.02.28.08.04.08.03.18-.04.25l-1.28,1.16,1.25-.72c.09-.05.2-.03.26.05.06.08.06.19,0,.27l-.85.94.96-.55c.1-.06.22-.02.28.07.05.08.03.18-.03.25l-.23.24.23-.13c.1-.06.22-.02.28.08.06.1.02.22-.07.28l-1.47.85c-.1.06-.22.02-.28-.08-.05-.08-.03-.18.03-.24l.23-.24-.86.5c-.1.06-.22.02-.28-.07-.05-.08-.03-.18.03-.24l.85-.94-1.77,1.02c-.1.05-.22.02-.28-.08-.04-.08-.03-.18.04-.25l1.28-1.16-2.58,1.49c-.1.06-.22.02-.28-.07-.05-.09-.03-.21.06-.27l1.15-.85-2.06,1.19c-.1.06-.22.02-.28-.08-.05-.09-.03-.2.05-.27l2.48-1.86-3.81,2.2c-.1.06-.22.03-.28-.07-.06-.09-.03-.21.06-.27l2.56-1.76-3.65,2.11c-.1.06-.22.02-.28-.08-.05-.09-.02-.21.06-.27l2.39-1.57-3.85,2.22s-.07.03-.1.03h0Z"/>
    <path class="cls-3" d="m17.06,21.37c-.11,0-.21-.09-.21-.21,0-.06.03-.13.08-.16l1.71-1.3-2.3,1.33c-.1.06-.22.02-.28-.08-.05-.09-.03-.2.05-.27l2.55-1.91-3.12,1.8c-.1.06-.22.02-.28-.08-.05-.09-.02-.21.06-.27l1.45-.96-1.68.97c-.1.06-.22.02-.28-.07-.05-.09-.03-.21.06-.27l3.65-2.53-4,2.31c-.1.06-.22.03-.28-.07-.06-.1-.03-.22.07-.28l1.93-1.27-2.04,1.18c-.1.06-.22.02-.28-.08-.05-.09-.03-.21.06-.27l3.5-2.44-3.65,2.11c-.1.06-.22.02-.28-.08-.05-.09-.03-.21.06-.27l3.25-2.33-3.29,1.9c-.1.06-.22.02-.28-.08-.05-.09-.02-.21.06-.27l1.99-1.36-1.88,1.08c-.1.06-.22.02-.28-.07-.05-.09-.03-.21.06-.27l1.22-.82-1.02.59c-.1.06-.22.02-.28-.08-.05-.09-.03-.21.06-.27l2.52-1.83-3.08,1.78c-.1.06-.22.02-.28-.07-.05-.09-.03-.21.06-.27l.45-.33-.53.3c-.1.06-.22.02-.28-.08-.05-.09-.03-.19.05-.26l.37-.31-.28.16c-.1.06-.22.02-.28-.08-.04-.07-.04-.17.02-.23l.39-.47c-.11,0-.2-.09-.2-.21,0-.07.04-.14.1-.18l.84-.48c.1-.06.22-.02.28.08.04.07.04.17-.02.23l-.34.41,1.38-.8c.1-.06.22-.02.28.08.05.09.03.19-.05.26l-.37.31,1.47-.85c.1-.06.22-.02.28.07.05.09.03.21-.06.27l-.45.33,3.48-2.01c.1-.06.22-.02.28.08.05.09.03.21-.06.27l-2.52,1.83,2.79-1.61c.1-.06.22-.02.28.07.05.09.03.21-.06.27l-1.22.82,1.32-.76c.1-.06.22-.02.28.07.05.09.03.21-.06.27l-1.99,1.36,2.28-1.32c.1-.06.22-.02.28.08.05.09.03.21-.06.27l-3.25,2.33,4.17-2.41c.1-.06.22-.02.28.08.05.09.03.21-.06.27l-3.5,2.44,4.14-2.39c.1-.05.22-.02.28.08.05.09.02.21-.06.27l-1.93,1.27,1.99-1.15c.1-.06.22-.02.28.07.05.09.03.21-.06.27l-3.65,2.53,3.33-1.92c.1-.05.22-.02.28.08.05.09.02.21-.06.26l-1.45.96.16-.09c.1-.06.22-.02.28.08.05.09.03.2-.05.27l-2.55,1.91,2.13-1.23c.1-.05.22-.02.28.08.05.09.03.2-.05.26l-1.71,1.3.99-.57c.1-.06.22-.02.28.08.05.09.03.2-.05.26l-.88.67s.06.04.07.07c.06.1.02.22-.08.28l-1.9,1.1c-.1.06-.22.02-.28-.08-.05-.09-.03-.2.05-.26l.23-.18-1.03.59s-.07.03-.1.03h0Z"/>
    <path class="cls-2" d="m24.13,23.32c-1.12-1.25-2.9-1.55-4.35-2.3-.02-.18-.04-.35-.06-.52.39-.27.74-.59,1.04-.95,1.02.33,2.41.33,3.19-.5.31-.44-.1-.75-.3-1.11-.26-.5-.42-1.04-.48-1.6.65-5.81-2.7-11.13-8.88-7.83-3.89,2.19-1.33,7.04-3.39,10.09-.1,1.41,2.27,1.28,3.19.94.32.4.69.75,1.11,1.04-.02.18-.04.36-.06.54-1.78.87-4.43,1.29-4.88,3.56-.15,1.98-.06,4-.06,6,.03,1.14,1.23.97,2.03.97,3.98-.17,8.1.35,12.01-.21.93-.45.74-7.43-.09-8.11h0Zm-.91-4.96c.84,1.2-1.51,1.18-2.18.82.55-.8.84-1.75.83-2.72.25-.07.48-.19.67-.36.03.8.26,1.58.68,2.26Zm-9.71-8.57c3.17-4.17,9.76-.83,9,4.12-.69-.49-1.7-.14-2.3-.84-.41-.41-.52-1.07-1.2-1.1-.67,0-1.03.68-1.63.89-1.52.87-3.44.38-4.94,1.08-.07-1.47.13-2.97,1.08-4.15h0Zm-1.52,9.4c-.57-.16-.67-.64-.22-1.03.36-.61.56-1.29.61-1.99.19.16.43.27.68.31-.04.98.26,1.95.83,2.75-.61.22-1.29.21-1.89-.04Zm1.86-1.44c-.3-.48.04-1.38-.36-1.67-.93-.04-1.47-1.31-.65-1.87,1.83-.41,3.95-.21,5.55-1.44,1.03-1.1.79,1.42,3.38,1.33,1,.33.95,1.91-.17,1.98-.16,0-.34.12-.32.3.02,4.85-5.79,6.37-7.43,1.37h0Zm3.44,3.68c.67,0,1.32-.21,1.87-.57.81,3.37-4.05,3.36-3.39.05.46.28.98.46,1.52.52Zm6.86,9.1c.06,1.03-1.07.77-1.75.78-3.73-.07-7.51.13-11.22-.07-.85-.92-.19-2.57-.38-3.75-.48-3.86.89-4.91,4.33-6.07-.3,3.18,4.8,3.21,4.7.08,5.4,1.41,4.29,4.51,4.32,9.03h0Z"/>
  </g>
  <g>
    <g>
      <path class="cls-5" d="m21.02,32.05c-.16,0-.29-.13-.29-.29,0-.1.06-.2.15-.25l9.15-5.29c.14-.08.32-.03.4.11.07.12.04.27-.06.36l-1.88,1.67,1.97-1.14c.14-.08.32-.03.4.11.07.12.04.27-.06.37l-1.22,1.07.37-.21c.14-.07.32-.02.4.12.07.13.03.3-.1.38l-2.91,1.68c-.14.08-.32.03-.4-.11-.07-.12-.04-.27.06-.36l1.22-1.07-1.92,1.11c-.14.08-.32.03-.4-.11-.07-.12-.04-.27.06-.37l1.88-1.67-6.67,3.85s-.09.04-.15.04h0Z"/>
      <path class="cls-5" d="m26.56,26.15c-.16,0-.29-.13-.29-.29,0-.09.04-.18.12-.23l1.56-1.21c-.16.03-.31-.08-.34-.24-.02-.1.02-.21.1-.27l1.21-1.01-.1.06c-.14.08-.32.03-.4-.11-.07-.13-.04-.29.08-.38l1.31-.96-.53.31c-.14.08-.32.04-.4-.1-.07-.13-.04-.29.07-.38l2.4-1.94-1.66.96c-.14.08-.32.03-.4-.11-.07-.13-.04-.29.08-.38l.73-.54-.26.15c-.14.08-.32.04-.4-.1-.07-.12-.05-.28.06-.37l1.98-1.69-1.53.88c-.14.08-.32.03-.4-.11-.07-.12-.04-.26.05-.36l1.24-1.14-.9.52c-.14.08-.32.03-.4-.11-.06-.11-.05-.26.04-.35l.72-.73-.45.26c-.14.08-.32.04-.4-.1-.07-.12-.05-.27.05-.36l.29-.28-.05.03c-.14.08-.32.03-.4-.11-.06-.11-.05-.25.04-.34l.64-.71-.48.28c-.14.08-.32.03-.4-.11-.07-.11-.05-.26.04-.35l.42-.43-.28.16c-.14.08-.32.03-.4-.11-.06-.11-.05-.24.03-.33l.67-.82-.63.37c-.14.08-.32.03-.4-.11-.06-.1-.05-.24.03-.33l.62-.75-.63.37c-.14.08-.32.03-.4-.11-.06-.11-.05-.25.04-.35l.3-.32-.28.16c-.14.08-.32.03-.4-.11-.06-.1-.05-.23.02-.33l1-1.26-1.25.72c-.14.08-.32.04-.4-.1-.07-.12-.05-.27.05-.36l1.44-1.39-1.76,1.02c-.14.08-.32.03-.4-.11-.07-.12-.04-.28.07-.37l.9-.75-1.11.64c-.14.08-.32.03-.4-.11-.07-.13-.04-.29.08-.38l.03-.02-.15.08c-.14.08-.32.03-.4-.11-.07-.12-.04-.28.07-.37l.7-.56-.94.54c-.14.08-.32.04-.4-.1-.07-.12-.05-.27.05-.36l1.62-1.57-2.26,1.31c-.14.08-.32.03-.4-.11-.05-.09-.05-.21,0-.3l.63-.99-1.32.76c-.14.08-.32.03-.4-.11-.05-.09-.05-.21,0-.3l.61-.95-1.41.81c-.14.08-.32.03-.4-.11-.07-.12-.05-.26.05-.36l.15-.14-.58.33c-.14.08-.32.03-.4-.11-.06-.1-.05-.22.01-.31l.64-.92-1.7.98c-.14.08-.32.03-.4-.11-.06-.1-.05-.23.02-.32l.68-.9-1.96,1.13c-.14.08-.32.03-.4-.11-.06-.11-.05-.26.05-.35l.76-.77-2.19,1.27c-.14.08-.32.04-.4-.1-.07-.12-.05-.28.06-.37l1.47-1.29-4.35,2.51c-.14.07-.32.02-.4-.12-.07-.13-.03-.3.1-.38l6.93-4c.14-.08.32-.03.4.11.07.12.04.27-.06.36l-1.48,1.29,1.5-.87c.14-.08.32-.03.4.11.06.11.05.26-.05.35l-.76.77,1.33-.77c.14-.08.32-.03.4.11.06.1.05.23-.02.32l-.68.9,1.58-.91c.14-.08.32-.03.4.11.06.1.05.22-.01.31l-.64.92,1.45-.83c.14-.08.32-.03.4.11.07.12.05.26-.05.36l-.15.15.46-.27c.14-.08.32-.03.4.11.05.1.05.21,0,.3l-.61.95,1.29-.74c.14-.08.32-.03.4.11.05.09.05.21,0,.3l-.62.99,3.29-1.9c.14-.08.32-.04.4.1.07.12.05.27-.05.36l-1.62,1.57,2.13-1.23c.14-.08.32-.03.4.11.07.12.04.28-.07.37l-.7.56.88-.51c.14-.08.32-.03.4.11.07.13.04.28-.07.37l-.03.02.1-.06c.14-.08.32-.04.4.1.07.12.04.28-.07.37l-.9.75.86-.5c.14-.08.32-.04.4.1.07.12.05.27-.05.36l-1.44,1.39.5-.29c.14-.08.32-.03.4.11.06.1.05.23-.02.33l-1,1.26.71-.41c.14-.08.32-.03.4.11.07.11.05.25-.04.35l-.3.32.28-.16c.14-.08.32-.03.4.11.06.11.05.24-.03.33l-.62.75.64-.37c.14-.08.32-.03.4.11.06.11.05.24-.03.33l-.67.82.66-.38c.14-.08.32-.03.4.11.06.11.05.25-.04.35l-.42.44.31-.18c.14-.08.32-.03.4.11.06.11.05.25-.04.34l-.64.71.53-.3c.14-.08.32-.04.4.1.07.12.05.27-.05.36l-.29.28.23-.13c.14-.08.32-.03.4.11.06.11.05.26-.04.35l-.72.73,1.37-.79c.14-.08.32-.03.4.11.07.12.04.26-.05.36l-1.24,1.14,1.93-1.12c.14-.08.32-.04.4.1.07.12.05.28-.06.37l-1.98,1.7,1.97-1.14c.14-.08.32-.03.4.11.07.13.04.29-.08.38l-.73.54.44-.25c.14-.08.32-.03.4.11.07.12.04.28-.07.37l-2.4,1.94,2.03-1.17c.14-.08.32-.03.4.11.07.13.04.29-.08.38l-2.63,1.92s.05.04.07.07c.09.12.06.3-.05.39l-1.22,1.01.56-.32c.14-.08.32-.03.4.11.07.13.04.29-.07.38l-1.46,1.13.66-.38c.14-.08.32-.03.4.11.08.14.03.32-.11.4l-4.41,2.55s-.1.04-.15.04h0Z"/>
      <path class="cls-5" d="m14.79,2.68c-.16,0-.29-.13-.29-.29,0-.07.02-.13.06-.18l.64-.81c-.06-.02-.11-.07-.15-.13-.08-.14-.03-.32.11-.4l.89-.51c.12-.07.27-.05.37.06.09.11.1.26,0,.37l-.46.58,1.84-1.06c.14-.09.32-.05.4.09.09.14.05.32-.09.4,0,0-.01,0-.02.01l-3.16,1.83s-.1.04-.15.04h0Z"/>
      <path class="cls-5" d="m18.16,34.72c-.16,0-.29-.13-.29-.29,0-.1.05-.19.13-.24l5.79-3.98-7.65,4.42c-.14.08-.32.03-.4-.11-.07-.13-.03-.3.09-.39l2.62-1.67-2.98,1.72c-.14.08-.32.03-.4-.11-.07-.13-.04-.28.07-.37l2.73-2.14-2.82,1.63c-.14.08-.32.03-.4-.11-.07-.12-.04-.27.06-.36l1.37-1.21-1.39.8c-.14.08-.32.03-.4-.11-.07-.11-.05-.26.05-.35l.68-.68-1.29.74c-.14.08-.32.03-.4-.11-.07-.12-.05-.26.05-.36l.3-.29-.83.48c-.14.08-.32.03-.4-.11-.06-.11-.05-.25.04-.34l.51-.57-1.11.64c-.14.08-.32.04-.4-.1-.07-.12-.05-.27.05-.36l.03-.02-.33.19c-.14.08-.32.03-.4-.11-.07-.11-.05-.26.04-.35l.27-.28-.63.36c-.14.08-.32.03-.4-.11-.06-.1-.05-.22.02-.32l.58-.81-1.44.83c-.14.08-.32.03-.4-.11-.06-.1-.05-.22.01-.31l.77-1.12-3.19,1.84c-.14.08-.32.04-.4-.1-.07-.12-.05-.27.05-.36l1.6-1.54-2.1,1.21c-.14.08-.32.04-.4-.1-.07-.12-.05-.27.05-.36l1.49-1.39-1.87,1.08c-.14.08-.32.03-.4-.11-.07-.12-.05-.27.05-.36l1.46-1.35-1.53.89c-.14.08-.32.03-.4-.11-.06-.11-.05-.26.04-.35l1.56-1.59-.53.3c-.14.08-.32.03-.4-.11-.06-.1-.05-.23.02-.33l.85-1.06-.69.4c-.14.08-.32.03-.4-.11-.06-.1-.05-.22.01-.31l.77-1.12-.92.53c-.14.08-.32.03-.4-.11-.06-.11-.05-.26.04-.35l.26-.26-.19.11c-.14.08-.32.03-.4-.11-.06-.1-.05-.22.02-.32l.85-1.16-.88.51c-.14.08-.32.03-.4-.11-.06-.11-.05-.24.03-.33l.72-.84-.63.37c-.14.08-.32.03-.4-.11-.06-.11-.05-.24.03-.33l.86-1.01-1,.57c-.14.08-.32.03-.4-.11-.07-.11-.05-.26.04-.35l.96-1-1.73,1c-.14.08-.32.03-.4-.11-.07-.12-.04-.28.07-.37l.62-.5-1.04.6c-.14.08-.32.03-.4-.11-.07-.12-.04-.28.07-.37l1.67-1.39-1.65.96c-.14.08-.32.03-.4-.11-.07-.13-.04-.29.08-.38l.2-.14c-.16.03-.31-.07-.35-.22-.02-.11.02-.23.11-.29l1.52-1.16-1.19.69c-.14.08-.32.04-.4-.1-.08-.13-.04-.3.08-.39l.5-.35-.14.08c-.14.08-.32.03-.4-.11-.07-.13-.04-.29.08-.38l2.66-1.93s-.04-.04-.06-.06c-.09-.13-.06-.3.05-.39l1.37-1.13-.66.38c-.14.08-.32.03-.4-.11-.07-.13-.04-.29.08-.38l1.56-1.18-.73.42c-.14.08-.32.03-.4-.12-.07-.13-.03-.3.09-.38l5.23-3.36-4.15,2.4c-.14.08-.32.03-.4-.11-.08-.13-.03-.31.1-.39l.66-.41-.23.13c-.14.08-.32.03-.4-.11-.07-.13-.04-.3.09-.38l2.29-1.58-2.3,1.32c-.14.08-.32.03-.4-.11-.07-.13-.04-.28.07-.37l1.03-.81-1.01.58c-.14.08-.32.02-.4-.12-.06-.12-.04-.27.07-.36l.93-.76-.61.35c-.14.08-.32.04-.4-.1-.07-.12-.05-.28.06-.37l1.61-1.41h0c-.08-.15-.03-.33.11-.41l1.12-.65c.14-.08.32-.03.4.11.07.12.05.28-.06.37l-.52.46,1.08-.62c.14-.08.32-.03.4.11.07.12.04.28-.07.37l-.93.76,1.5-.86c.14-.08.32-.03.4.11.07.13.04.28-.07.37l-1.03.81,4.97-2.87c.14-.08.32-.03.4.12.07.13.03.29-.08.38l-2.29,1.58L19.29.57c.14-.08.32-.03.4.11.08.13.03.31-.1.39l-.67.42.71-.41c.14-.08.32-.04.4.1.08.14.04.32-.1.4l-10.69,6.87c.06.13.03.28-.08.37l-1.8,1.36c.1,0,.19.04.25.13.09.13.06.3-.05.39l-1.37,1.13.12-.07c.14-.08.32-.03.4.11.07.13.04.29-.08.38l-1.21.88.4-.23c.14-.08.32-.04.4.1.08.13.04.3-.08.39l-.56.4c.15-.05.32.04.36.2.03.12,0,.24-.1.32l-1.51,1.15.93-.53c.14-.08.32-.03.4.11.07.13.04.29-.08.38l-.32.23c.1-.01.21.04.26.12.09.12.06.3-.05.39l-1.67,1.39,1.25-.72c.14-.08.32-.03.4.11.07.12.04.28-.07.37l-.62.5.29-.17c.14-.08.32-.03.4.11.06.11.05.25-.04.35l-.96,1,.67-.39c.14-.08.32-.03.4.11.06.11.05.24-.03.33l-.86,1.01.67-.38c.14-.08.32-.03.4.11.06.11.05.24-.03.34l-.72.84.59-.34c.14-.08.32-.03.4.11.06.1.05.23-.02.32l-.85,1.16.85-.49c.14-.08.32-.03.4.11.07.11.05.26-.05.35l-.26.26.17-.1c.14-.08.32-.03.4.11.06.1.05.22-.01.31l-.77,1.12.91-.53c.14-.08.32-.03.4.11.06.1.05.24-.02.33l-.85,1.06,1.05-.6c.14-.08.32-.03.4.11.07.11.05.26-.04.35l-1.56,1.59,1.93-1.11c.14-.08.32-.03.4.11.07.12.04.27-.05.36l-1.46,1.35,1.83-1.05c.14-.08.32-.04.4.1.07.12.05.27-.05.36l-1.49,1.39,1.96-1.13c.14-.08.32-.04.4.1.07.12.05.27-.05.36l-1.6,1.54,2.22-1.28c.14-.08.32-.03.4.11.06.1.05.22-.01.31l-.77,1.12,1.5-.87c.14-.08.32-.03.4.11.06.1.05.23-.02.32l-.58.81,1.27-.73c.14-.08.32-.03.4.11.06.11.05.25-.04.35l-.27.28.75-.43c.14-.08.32-.04.4.1.07.12.05.27-.05.36l-.03.02.46-.26c.14-.08.32-.03.4.11.06.11.05.25-.03.34l-.51.57,1.35-.78c.14-.08.32-.04.4.1.07.12.05.27-.05.37l-.3.29,1.09-.63c.14-.08.32-.02.4.12.06.11.04.25-.05.34l-.67.68,2.01-1.16c.14-.08.32-.03.4.11.07.12.04.27-.06.36l-1.37,1.21,3.91-2.26c.14-.08.32-.03.4.11.07.13.04.28-.07.37l-2.73,2.13,10.85-6.26c.14-.08.32-.03.4.11.07.13.03.3-.09.39l-2.62,1.67,2.59-1.5c.14-.08.32-.04.4.1.08.13.04.31-.09.39l-10.08,6.93c.01.12-.04.23-.14.29l-1.7.98s-.09.04-.15.04h0Z"/>
    </g>
    <path class="cls-2" d="m21.57,5.58C.93.42-1.34,32.56,19.96,29.77c12.47-2.28,13.83-20.4,1.61-24.19Zm.05,23.28C2.03,34.35-.22,2.72,20.03,5.75c11.28,2.31,12.53,19.33,1.59,23.11Z"/>
    <path class="cls-2" d="m34.48,15.26c-.57-.55-1.68-.54-2.22-1.06-.26-1.74-1.24-3.38-1.98-4.9.93-1.86,1.21-2.84-.68-4.23-1.11-1.44-2.54-.88-3.9-.18-1.46-.93-3.08-1.59-4.78-1.95-.11-.1-.17-.42-.23-.56C20.39.41,18.74,0,17.01.31c-1.75-.24-2.55,1.17-2.9,2.68-1.61.39-3.14,1.02-4.55,1.88-2.19-1.73-4.5,0-5.62,2.04-.29.93.71,1.75.8,2.61-.95,1.5-1.64,3.16-2.03,4.89-1.42.47-2.85,1-2.6,2.8-.44,2.02.76,3.05,2.58,3.48.38,1.75,1.08,3.42,2.07,4.92-.08.8-.96,1.59-.86,2.44.11.79,1.15,1.56,1.7,2.06,1.03,1.32,2.49.64,3.71,0,1.46.93,3.08,1.59,4.77,1.95.11.1.17.42.23.56.31,1.96,1.97,2.36,3.71,2.05,1.74.24,2.53-1.18,2.88-2.68,1.61-.39,3.14-1.02,4.55-1.88,2.19,1.73,4.5,0,5.62-2.04.29-.93-.71-1.75-.8-2.61.95-1.5,1.64-3.16,2.03-4.89,2.83-.44,3.21-3.13,2.18-5.32h0Zm-.43,2.62c.33,1.66-1.01,2.05-2.28,2.49-.69.67-.59,1.98-1.11,2.84-.23.91-1.15,1.74-1.2,2.62.59,1.24,1.27,2.52-.18,3.49-.37.39-1,1.25-1.59,1.09-.8-.16-1.53-1.02-2.38-.72-1.58,1.08-3.45,1.59-5.19,2.21-.62.72-.39,2.33-1.66,2.34-2.53.4-2.91-.26-3.61-2.5-1.31-.31-2.59-.77-3.79-1.37-2.74-2.31-3.03,2.2-5.82-1.7-1.1-.94.02-2.12.32-3.15-.74-1.6-1.78-3.31-2.08-5.14-.77-.51-2.11-.47-2.47-1.45-.33-2.29-.35-3.74,2.21-4.31.88-1.47,1.06-3.51,2.19-4.96.21-2.04-2-2.36.68-4.39,1.07-1.69,2.4.57,3.7-.05,1.56-1.05,3.41-1.46,5.07-2.18.5-.96.55-2.6,2.04-2.3,3.81-.69,1.63,2.63,4.35,2.82,1.52.29,2.78,1.38,4.19,1.82,2.14-1.11,2.84-.88,4.36,1.04.99.96-.18,2.09-.42,3.09.83,1.57,1.77,3.32,2.11,5.12,1.84.65,2.93.94,2.55,3.25h0Z"/>
  </g>
</svg>