<?xml version="1.0" encoding="UTF-8"?>
<svg id="Layer_1" data-name="Layer 1" xmlns="http://www.w3.org/2000/svg" viewBox="0 0 35 35">
  <defs>
    <style>
      .cls-1 {
        fill: #f47721;
      }

      .cls-1, .cls-2, .cls-3, .cls-4 {
        stroke-width: 0px;
      }

      .cls-3 {
        fill: #c1dbf0;
      }

      .cls-4 {
        fill: #f68d43;
      }
    </style>
  </defs>
  <path class="cls-3" d="m14.33,30.14c-.16,0-.29-.13-.29-.29,0-.11.06-.2.15-.25l15.6-9.01c.14-.08.32-.03.4.11.07.13.03.3-.09.39l-5.36,3.53,5.05-2.92c.14-.08.32-.03.4.11.08.13.04.3-.09.39l-4.8,3.25,4.49-2.59c.14-.08.32-.03.4.11.08.14.04.31-.09.39l-.43.27.12-.07c.14-.08.32-.03.4.11.08.13.04.3-.09.39l-2.38,1.63,2.07-1.19c.14-.08.32-.03.4.11.07.13.04.29-.08.38l-2.26,1.62,1.89-1.09c.14-.08.32-.03.4.11.08.13.04.3-.09.39l-.36.25c.1,0,.21.04.26.13.09.13.06.3-.07.4l-.66.5c.16-.01.3.11.31.28,0,.11-.05.22-.15.27l-3.9,2.25c-.14.08-.32.03-.4-.11-.07-.13-.04-.29.08-.38l.46-.34-1.45.83c-.14.08-.32.03-.4-.11-.07-.13-.04-.3.09-.38l.05-.04-.93.53c-.14.08-.32.03-.4-.11-.08-.13-.04-.3.08-.39l2.26-1.62-3.67,2.11c-.14.08-.32.03-.4-.11-.07-.13-.04-.3.09-.38l2.39-1.63-3.69,2.13c-.14.08-.32.03-.4-.11-.07-.13-.03-.3.09-.39l.42-.27-1.34.78c-.14.08-.32.03-.4-.12-.07-.13-.03-.3.09-.38l4.81-3.25-6.5,3.75c-.14.08-.32.02-.4-.12-.07-.13-.03-.29.09-.38l5.36-3.54-6.99,4.04s-.1.04-.15.04h0Z"/>
  <path class="cls-3" d="m7.03,34.7c-.16,0-.29-.13-.29-.29,0-.1.05-.2.14-.25l1.1-.67-1.26.73c-.14.08-.32.03-.4-.11-.08-.14-.03-.31.1-.4l1.09-.66-.94.54c-.14.08-.32.03-.4-.11-.08-.14-.03-.31.1-.4l3.38-2.06-3.08,1.78c-.14.08-.32.02-.4-.12-.07-.13-.03-.3.1-.38l9-5.62-8.7,5.02c-.14.08-.32.04-.4-.1-.08-.14-.04-.32.1-.4l9.59-6-9.29,5.36c-.14.08-.32.03-.4-.12-.07-.14-.03-.3.1-.39l8.05-5-8.73,5.04c-.14.08-.32.03-.4-.12-.07-.14-.03-.3.1-.39l8.44-5.23-9.62,5.56c-.14.08-.32.04-.4-.1-.08-.14-.04-.32.1-.4l5-3.05-5.56,3.21c-.14.08-.32.04-.4-.1s-.04-.32.1-.4h0l8.04-4.93-8.52,4.92c-.14.08-.32.03-.4-.11-.08-.14-.03-.31.1-.4l6.1-3.72-6.37,3.68c-.14.08-.32.04-.4-.1-.08-.14-.04-.32.1-.4h0l2.28-1.37-2.37,1.37c-.14.08-.32.04-.4-.1-.08-.14-.04-.32.1-.4l13-8.09L.96,27.03c-.14.08-.32.02-.4-.12-.07-.13-.03-.3.1-.39l10.87-6.71L.72,26.05c-.14.08-.32.02-.4-.12-.07-.13-.03-.3.1-.38l11.57-7.17L.67,24.91c-.14.08-.32.02-.4-.12-.07-.13-.03-.3.1-.39l10.43-6.46L.67,23.79c-.14.08-.32.02-.4-.12-.07-.13-.03-.3.09-.38l12.94-8.15L.67,22.44c-.14.08-.32.02-.4-.12-.07-.13-.03-.3.1-.38l9.82-6.1L.67,21.33c-.14.08-.32.04-.4-.1-.08-.14-.04-.32.1-.4H.37l1.21-.73-.91.53c-.14.08-.32.03-.4-.12-.07-.14-.03-.3.1-.39l9.59-5.99L.67,19.48c-.14.08-.32.03-.4-.11-.08-.14-.04-.31.1-.39l10.6-6.75L.67,18.18c-.14.08-.32.02-.4-.12-.07-.13-.03-.3.1-.38l1.01-.62-.71.41c-.15.07-.32,0-.39-.14-.06-.13-.02-.28.09-.36l4.35-2.71-4.05,2.33c-.14.08-.32.03-.4-.12-.08-.14-.03-.31.1-.39l.48-.29-.18.1c-.14.08-.32.02-.4-.12-.07-.13-.03-.3.09-.38l7.49-4.92L.67,14.61c-.14.08-.32.03-.4-.11-.07-.13-.04-.3.09-.39l6.34-4.24L.67,13.35c-.14.08-.32.03-.4-.11-.08-.13-.04-.3.09-.39l5.61-3.89L.67,12.03c-.14.08-.32.03-.4-.11-.08-.13-.04-.3.09-.39l3.85-2.68-3.53,2.04c-.14.08-.32.03-.4-.11-.07-.13-.04-.29.08-.38l3.37-2.52-3.02,1.75c-.14.08-.32.03-.4-.11-.07-.13-.04-.29.07-.38l2.1-1.64-1.44.83c-.14.08-.32.03-.4-.11-.07-.12-.05-.27.06-.37l1.21-1.08c-.16-.03-.26-.18-.23-.34.02-.08.07-.16.14-.2l2.01-1.16c.14-.08.32-.02.4.12.06.12.04.26-.05.35l-.95.85,2.6-1.5c.14-.08.32-.03.4.11.07.13.04.28-.07.37l-2.1,1.64,3.69-2.13c.14-.08.32-.03.4.11.07.13.04.29-.08.38l-3.37,2.52,5.22-3.01c.14-.08.32-.03.4.11.08.13.04.3-.09.39l-3.85,2.68,5.51-3.18c.14-.08.32-.03.4.11.07.13.04.3-.09.38l-5.61,3.89,7.59-4.38c.14-.08.32-.03.4.11.07.13.04.3-.09.39l-6.34,4.24,8.2-4.74c.14-.08.32-.02.4.12.07.13.03.3-.09.38l-7.48,4.92,9.39-5.42c.14-.08.32-.02.4.12.07.13.03.3-.1.39l-.49.3,1.4-.81c.14-.08.32-.03.4.11.08.14.04.31-.1.4l-4.34,2.7,5.56-3.21c.14-.08.32-.03.4.12.08.14.03.31-.1.39l-1.01.62,1.95-1.12c.14-.08.32-.02.4.12.07.13.03.3-.09.38l-10.6,6.75,12.23-7.07c.14-.08.32-.03.4.12.07.14.03.3-.1.39l-9.59,5.99,10.01-5.78c.14-.08.32-.02.4.12.07.13.03.3-.1.38l-1.22.74,1.37-.79c.14-.08.32-.03.4.12.07.14.03.3-.1.39l-9.83,6.11,10.23-5.91c.14-.08.32-.03.4.12.07.13.03.3-.1.39l-12.94,8.14,13.49-7.79c.14-.08.32-.02.4.12.07.13.03.3-.1.38l-10.43,6.46,10.84-6.26c.14-.08.32-.04.4.1s.04.32-.1.4h0l-11.57,7.18,12.01-6.94c.14-.08.32-.03.4.11.08.14.03.31-.1.39l-10.86,6.7,11.26-6.5c.14-.08.32-.04.4.1.08.14.04.32-.1.4h0l-13.01,8.09,13.14-7.58c.14-.08.32-.02.4.12.07.14.03.31-.1.39l-2.25,1.36,1.96-1.13c.14-.08.32-.02.4.13.07.13.03.3-.1.38l-6.12,3.72,5.82-3.36c.14-.08.32-.03.4.12.08.14.03.31-.1.39l-8.04,4.93,7.74-4.47c.14-.08.32-.02.4.12.07.13.03.3-.1.38l-5.01,3.05,4.7-2.72c.14-.08.32-.03.4.11.08.14.03.31-.1.39l-8.43,5.22,8.13-4.69c.14-.08.32-.03.4.11.08.14.03.31-.1.39l-8.05,5.01,7.75-4.48c.14-.08.32-.02.4.12.07.13.03.3-.1.39l-9.58,6,9.28-5.35c.14-.08.32-.03.4.12.07.14.03.3-.1.39l-9,5.62,8.7-5.02c.14-.08.32-.03.4.11.08.14.03.31-.1.4l-3.39,2.07,3.09-1.78c.14-.08.32-.02.4.12.07.14.03.31-.1.39l-1.09.66.79-.45c.14-.08.32-.02.4.13.07.13.03.3-.1.38l-18.35,11.17c0,.09-.06.18-.15.23l-4.41,2.55s-.1.04-.15.04h0Z"/>
  <path class="cls-4" d="m15.58,22.64c-.16,0-.29-.13-.29-.3,0-.08.03-.15.09-.21l1.26-1.27-1.71.99c-.14.08-.32.03-.4-.11-.06-.11-.05-.26.04-.35l1.34-1.39-1.8,1.04c-.14.08-.32.03-.4-.11-.07-.12-.05-.26.05-.36l1.22-1.19-1.6.92c-.14.08-.32.03-.4-.11-.07-.12-.04-.28.06-.37l.71-.61-.86.5c-.14.08-.32.03-.4-.11-.07-.12-.05-.26.05-.35l1.18-1.16-.6.35c-.14.08-.32.04-.4-.1-.07-.12-.05-.27.06-.37l.33-.3c-.16-.01-.29-.15-.27-.31,0-.04.01-.08.04-.12l.43-.79s-.07-.06-.09-.1c-.08-.14-.03-.32.11-.4l.45-.26c.14-.08.32-.03.4.11.05.09.05.2,0,.29l-.28.51,1.02-.59c.14-.08.32-.04.4.1.07.12.05.27-.06.37l-.16.15.36-.21c.14-.08.32-.03.4.11.07.12.05.26-.05.35l-1.18,1.16,1.56-.9c.14-.08.32-.03.4.11.07.12.04.27-.06.37l-.71.61.92-.53c.14-.08.32-.03.4.11.07.12.05.26-.05.36l-1.22,1.19,1.6-.92c.14-.08.32-.03.4.11.06.11.05.26-.04.35l-1.34,1.39,1.79-1.03c.14-.08.32-.02.4.12.06.11.04.25-.05.34l-1.26,1.27,1.41-.81c.14-.08.32-.03.4.11.05.09.05.2,0,.29l-.29.55.14-.08c.14-.08.32-.03.4.11.08.14.03.32-.11.4l-1.03.59c-.14.08-.32.03-.4-.11-.05-.09-.05-.2,0-.29l.29-.55-2.43,1.4s-.1.04-.15.04h0Z"/>
  <path class="cls-1" d="m18.95,21.41c-.16,0-.29-.14-.29-.3,0-.08.04-.16.1-.22l1.84-1.61-2.28,1.31c-.14.08-.32.03-.4-.11-.07-.13-.04-.3.08-.38l2.18-1.56-2.48,1.43c-.14.08-.32.02-.4-.12-.07-.13-.03-.29.09-.38l3.63-2.47-3.98,2.3c-.14.08-.32.03-.4-.11-.07-.13-.04-.3.09-.39l5.34-3.56-5.77,3.33c-.14.08-.32.04-.4-.11-.08-.14-.04-.31.1-.4l2.06-1.32-2.27,1.3c-.14.08-.32.03-.4-.11-.08-.13-.04-.3.09-.39l4.78-3.17-5.16,2.98c-.14.08-.32.03-.4-.11-.07-.13-.03-.3.09-.39l4.23-2.77-4.56,2.63c-.14.08-.32.04-.4-.1s-.04-.32.1-.4h.02s-.15.07-.15.07c-.14.08-.32.03-.4-.11-.08-.14-.04-.31.09-.39l2.43-1.56-.93.53c-.14.08-.32.03-.4-.11-.08-.14-.04-.31.09-.39l1.87-1.2c-.16-.02-.28-.16-.26-.32,0-.08.05-.16.12-.21l4.29-3.14-.81.47c-.14.08-.32.03-.4-.11-.07-.13-.04-.29.08-.38l1.9-1.4s-.06-.05-.08-.07c-.09-.12-.07-.29.04-.39l1.97-1.81c-.02-.12.04-.23.14-.29l.51-.29c.14-.08.32-.03.4.11.07.12.04.27-.05.36l-.6.55.8-.46c.14-.08.32-.03.4.11.07.13.04.29-.08.38l-.77.56.95-.55c.14-.08.32-.03.4.11.07.13.04.29-.08.38l-4.3,3.14,4.83-2.79c.14-.08.32-.03.4.12.07.13.03.3-.09.39l-.87.56,1.03-.6c.14-.08.32-.03.4.12.07.13.03.3-.09.39l-2.43,1.56,2.65-1.53c.14-.08.32-.04.4.1.08.14.04.32-.1.4h-.02s.15-.07.15-.07c.14-.08.32-.02.4.12.07.13.03.3-.09.38l-4.23,2.77,4.56-2.63c.14-.09.32-.04.41.1.09.14.04.32-.1.41l-4.78,3.16,5.15-2.97c.14-.08.32-.04.4.11.08.14.04.31-.1.4l-2.06,1.32,2.27-1.31c.14-.08.32-.03.4.11.08.13.04.31-.09.39l-5.33,3.57,3.22-1.86c.14-.08.32-.03.4.11.07.13.04.3-.09.39l-3.63,2.47.84-.49c.14-.08.32-.03.4.11.07.13.04.3-.08.38l-2.48,1.77c.1,0,.19.04.25.12.09.12.07.29-.05.39l-2.84,2.49s.01.02.02.03c.08.14.03.32-.11.4l-1.21.7s-.1.04-.15.04h0Z"/>
  <path class="cls-3" d="m31.96,8.42c-.16,0-.29-.13-.3-.29,0-.08.03-.15.08-.2l1.25-1.31-1.69.97c-.14.08-.32.04-.4-.1-.07-.12-.05-.28.06-.37l1.36-1.28-1.75,1.01c-.14.08-.32.04-.4-.1-.07-.12-.05-.28.06-.37l.97-.83-1.23.71c-.14.08-.32.03-.4-.11-.07-.12-.05-.26.05-.36l1.42-1.35-1.84,1.06c-.14.08-.32.03-.4-.11-.07-.12-.04-.28.07-.37l.35-.28-.5.29c-.14.08-.32.04-.4-.1-.08-.13-.04-.29.07-.38l.26-.2-.39.22c-.14.08-.32.03-.4-.11-.07-.12-.04-.28.07-.37l.85-.71-1.08.62c-.14.08-.32.03-.4-.11-.07-.12-.04-.28.07-.37l.64-.53-.84.48c-.14.08-.32.03-.4-.11-.06-.11-.05-.25.04-.35l1.5-1.56c-.06-.02-.11-.07-.14-.12-.08-.14-.03-.32.11-.4l1.25-.72c.14-.08.32-.03.4.11.07.11.05.26-.04.35l-1.21,1.26,2.18-1.26c.14-.08.32-.03.4.11.07.12.04.28-.07.37l-.64.53.84-.48c.14-.08.32-.03.4.11.07.12.04.28-.06.37l-.85.71,1.08-.62c.14-.08.32-.03.4.11.07.13.04.28-.07.37l-.26.2.39-.23c.14-.08.32-.03.4.11.07.12.04.28-.07.37l-.35.28.49-.29c.14-.08.32-.03.4.11.07.12.04.26-.05.36l-1.42,1.35,1.84-1.06c.14-.08.32-.04.4.1.07.12.05.28-.06.37l-.97.83,1.2-.69c.14-.08.32-.04.4.1.07.12.05.28-.06.37l-1.36,1.28,1.29-.74c.14-.08.32-.03.4.11.06.11.05.25-.04.35l-1.59,1.66c.14.08.2.25.12.4-.03.05-.06.09-.11.12l-1.16.67s-.1.04-.15.04h0Z"/>
  <path class="cls-1" d="m16.74,19.21c-.16,0-.29-.13-.29-.29,0-.09.04-.18.11-.23l1.27-.99-1.54.89c-.14.08-.32.04-.4-.1-.08-.13-.04-.31.09-.39l.77-.53-.89.52c-.14.08-.32.03-.4-.12-.07-.13-.03-.3.09-.38l1.98-1.32c-.16-.02-.28-.16-.26-.32,0-.09.06-.16.13-.21l3.71-2.54-.82.48c-.14.08-.32.03-.4-.12-.07-.13-.04-.29.08-.38l2.81-2.05c-.16.03-.31-.07-.35-.23-.02-.1.01-.2.09-.27l3.1-2.92c-.02-.12.03-.25.14-.31l.51-.29c.14-.08.32-.04.4.1.07.12.05.28-.06.37l-1.86,1.75,2.37-1.37c.14-.08.32-.03.4.11.07.13.04.29-.08.38l-2.69,1.96,2.57-1.48c.14-.08.32-.03.4.11.08.13.04.3-.09.39l-3.71,2.55.84-.49c.14-.08.32-.03.4.11.08.13.04.3-.09.39l-1.97,1.31c.16.02.28.16.26.32,0,.09-.05.16-.13.21l-1.87,1.28c.06.02.11.06.14.11.09.13.06.3-.06.4l-2.22,1.74s.06.06.08.09c.08.14.03.32-.11.4l-2.32,1.34s-.1.04-.15.04Z"/>
  <path class="cls-1" d="m14.6,22.8c-.16,0-.29-.13-.29-.29,0-.02,0-.04,0-.05l.15-.81-1.86,1.07c-.14.08-.32.04-.4-.1-.07-.12-.05-.28.06-.37l.18-.18c-.15.05-.32-.03-.37-.18-.04-.1-.01-.22.07-.3l.3-.32s-.1-.03-.13-.06c-.09-.08-.13-.2-.09-.32l.29-.92c-.12-.11-.13-.3-.02-.42.02-.02.04-.04.07-.06l.22-.13c.14-.08.32-.03.4.11.04.07.05.16.02.24l-.2.63.78-.45c.14-.08.32-.03.4.11.07.11.05.26-.04.35l-.13.14.29-.17c.14-.09.32-.04.41.1.08.12.05.28-.06.38l-.17.16.24-.14c.14-.08.32-.03.4.11.03.06.05.13.03.2l-.15.81.25-.14c.14-.09.32-.05.41.09.09.14.05.32-.09.41,0,0-.01,0-.02.01l-.79.46s-.1.04-.15.04h0Z"/>
  <g>
    <path class="cls-2" d="m2.96,29.68c.95.37,1.98.53,3,.47-.83,9.19,4.5,2.51,8.15.06-.15-.13-.05-.05.05-.04.02-.03.15-.11.16-.13.02.04.03.08.04.13,4.15-.25,8.43.43,12.51-.3,3.87-1.2,3.62-5.45,3.51-8.74,0-3.51.01-7.04,0-10.55.72-.76,1.59-1.53,2.27-2.27,4.65-3.78,1.49-4.61-1.55-7.81-2.01-1.17-3.63,1.32-4.85,2.45l-1.88,1.88H5.76C2.79,4.64.23,6.89.04,9.85c-.02.36-.01.72.04,1.07v11.41c-.23,2.74-.06,6.13,2.89,7.35h0Zm16.34-8.74l-1.57-1.57,10.09-10.09,1.56,1.56c-3.36,3.37-6.73,6.71-10.08,10.09h0Zm-3.39,1.2c-.44-1.3-1.46-2.33-2.76-2.78.12-.98.31-1.94.57-2.89,1.67,1.67,3.33,3.33,5,5-.82.52-1.88.45-2.81.67h0Zm-2.89-2.1c.94.46,1.66,1.27,2.01,2.25-2.32.67-2.65.21-2.01-2.25Zm12.76-12.8l-10.09,10.09-1.54-1.54c3.34-3.38,6.73-6.73,10.08-10.09l1.55,1.55Zm1.59,1.59l-10.09,10.09c-.37-.37-.74-.74-1.11-1.11l10.09-10.09,1.11,1.11Zm1.52-7.8c1.42-1.54,3.63,2.27,4.8,3.09,1.43,1.45-.35,2.8-1.38,3.8l-5.18-5.18c.57-.59,1.15-1.16,1.76-1.71h0Zm-2.32,2.29c1.72,1.72,3.45,3.45,5.17,5.17l-1.81,1.81c-1.71-1.71-3.42-3.42-5.12-5.12.01-.02.02-.05.02-.08.59-.59,1.16-1.18,1.74-1.77h0ZM1.32,7.95c.81-1.81,2.49-2.53,4.36-2.53h18.1c-3.48,3.53-7.09,7-10.51,10.56-.98,1.64-.85,3.77-1.32,5.61-.53,2.12,2.09,1.16,3.23,1,.24.11.52.07.7-.12,1.28-.29,2.79-.24,3.79-1.17,3.3-3.26,6.56-6.58,9.85-9.85v12.56c0,1.4,0,2.75-.92,3.94-2.37,2.8-6.58,1.24-9.79,1.63-1.48,0-2.97-.03-4.45,0-2.35.83-4.16,3.24-6.32,4.56-2.26,1.21-.44-4.57-1.61-4.56-4.36.48-6.05-3.14-5.5-6.96.26-4.85-.57-9.91.38-14.65h0Z"/>
    <path class="cls-2" d="m14.16,30.17s-.03.03-.05.04c.12.09.31.18.25-.04-.07,0-.14,0-.2,0h0Z"/>
  </g>
</svg>