<?xml version="1.0" encoding="UTF-8"?>
<svg id="Layer_1" data-name="Layer 1" xmlns="http://www.w3.org/2000/svg" viewBox="0 0 35 35">
  <defs>
    <style>
      .cls-1 {
        fill: #f47721;
      }

      .cls-1, .cls-2, .cls-3 {
        stroke-width: 0px;
      }

      .cls-3 {
        fill: #c1dbf0;
      }
    </style>
  </defs>
  <path class="cls-3" d="m2.14,34.74c-.16,0-.29-.13-.29-.29,0-.09.04-.17.1-.22l.62-.53-1.36.79c-.14.08-.32.03-.4-.11-.07-.13-.04-.29.08-.38l.55-.42-.63.36c-.13.08-.3.04-.39-.08-.09-.12-.07-.29.05-.39l2.24-1.93-1.97,1.14c-.14.08-.32.03-.4-.11-.07-.12-.04-.28.06-.37l2.19-1.86-1.86,1.07c-.14.08-.32.03-.4-.11-.07-.13-.04-.29.08-.38l.52-.39-.2.12c-.14.08-.32.03-.4-.11-.07-.12-.04-.28.06-.37l2.15-1.83-1.81,1.04c-.14.08-.32.03-.4-.11-.07-.13-.04-.29.08-.38l.61-.46-.28.16c-.14.08-.32.04-.4-.1-.07-.12-.05-.28.06-.38l.72-.62-.38.22c-.14.08-.32.03-.4-.11-.05-.09-.05-.21,0-.3l.5-.78c-.16.05-.32-.04-.37-.2-.04-.13.02-.27.13-.34l.97-.57c.14-.08.32-.03.4.11.05.09.05.21,0,.3l-.49.76,2.04-1.17c.14-.08.32-.03.4.11.07.12.04.27-.06.37l-.72.62,1.5-.86c.14-.08.32-.03.4.11.07.13.04.29-.08.38l-.6.46.68-.39c.14-.08.32-.03.4.11.07.12.04.28-.06.37l-2.15,1.83,1.87-1.08c.14-.08.32-.03.4.11.07.13.04.29-.08.38l-.52.39.2-.12c.14-.08.32-.03.4.11.07.12.04.28-.06.37l-2.19,1.87,1.86-1.07c.14-.08.32-.03.4.11.07.12.05.28-.06.37l-2.24,1.93,1.9-1.1c.14-.08.32-.03.4.11.07.13.04.29-.08.38l-.55.42.22-.13c.14-.08.32-.03.4.11.07.12.04.27-.06.36l-.62.53.29-.17c.14-.08.32-.03.4.11.06.11.05.25-.04.34l-.38.42c.15-.07.32-.01.39.14.07.14.02.3-.11.38l-1.58.92c-.14.08-.32.03-.4-.11-.06-.11-.05-.25.04-.34l.38-.42-1.51.87s-.1.04-.15.04h0Z"/>
  <path class="cls-3" d="m11.52,34.74c-.08,0-.16-.03-.21-.09-.09-.1-.11-.25-.03-.36l.69-1.07-2.55,1.47c-.13.08-.3.04-.38-.08-.09-.12-.07-.29.04-.39l1.51-1.36-2.09,1.21c-.14.08-.32.03-.4-.11-.07-.12-.04-.28.07-.37l1.91-1.59-1.7.98c-.14.08-.32.04-.4-.1-.07-.13-.04-.29.07-.38l1.78-1.45-1.45.84c-.14.08-.32.03-.4-.11-.07-.13-.04-.29.08-.38l.68-.51-.36.21c-.14.08-.32.03-.4-.1-.07-.12-.05-.28.06-.37l2.31-2-1.97,1.14c-.14.08-.32.03-.4-.11-.07-.13-.04-.29.08-.38l.87-.66-.55.31c-.14.08-.32.03-.4-.11-.07-.12-.04-.28.07-.37l1.44-1.13-1.12.64c-.14.08-.32.03-.4-.11-.07-.13-.04-.28.07-.37l1.39-1.09-1.06.61c-.14.08-.32.03-.4-.11-.07-.12-.04-.27.06-.37l2.35-2.04-2.01,1.16c-.14.08-.32.03-.4-.11-.07-.12-.04-.28.06-.37l1.82-1.56-1.48.85c-.14.08-.32.03-.4-.11-.07-.12-.04-.28.07-.37l.28-.23c-.15.06-.32-.02-.38-.18-.03-.08-.02-.17.02-.25l.56-.93c-.14.08-.31.03-.39-.11-.08-.14-.03-.32.11-.4l.97-.56c.14-.08.32-.03.4.11.05.09.05.2,0,.29l-.56.93,2.32-1.34c.14-.08.32-.03.4.11.07.13.04.29-.07.38l-.26.21.82-.47c.14-.08.32-.03.4.11.07.12.04.27-.06.37l-1.81,1.56,1.95-1.13c.14-.08.32-.03.4.11.07.12.05.28-.06.37l-2.35,2.04,2.01-1.16c.14-.08.32-.03.4.11.07.13.04.28-.07.37l-1.39,1.09,1.07-.61c.14-.08.32-.03.4.11.07.12.04.28-.07.37l-1.44,1.13,1.12-.64c.14-.08.32-.03.4.11.07.13.04.29-.08.38l-.87.65.55-.31c.14-.08.32-.03.4.11.07.12.04.28-.06.37l-2.31,2,1.97-1.14c.14-.08.32-.03.4.11.07.13.04.29-.08.38l-.68.51.36-.21c.14-.08.32-.03.4.11.07.12.04.28-.07.37l-1.78,1.45,1.45-.84c.14-.08.32-.03.4.11.07.12.04.28-.07.37l-1.91,1.59,1.58-.91c.14-.08.32-.02.4.12.06.12.04.26-.05.35l-1.51,1.36,1.17-.68c.12-.07.27-.05.36.05.09.1.11.25.03.36l-.69,1.07.22-.13c.14-.09.32-.05.41.09.09.14.05.32-.09.41,0,0-.01,0-.02.01l-1.28.73s-.1.04-.15.04h0Z"/>
  <path class="cls-3" d="m18.06,34.74c-.16,0-.29-.13-.29-.29,0-.07.03-.15.08-.2l1.09-1.16-2.43,1.41c-.14.08-.32.03-.4-.11-.07-.12-.04-.28.06-.37l1.67-1.41-1.82,1.05c-.14.08-.32.03-.4-.11-.07-.12-.04-.28.07-.37l1.9-1.57-1.58.91c-.14.08-.32.03-.4-.11-.07-.12-.04-.28.07-.37l2.02-1.68-1.69.97c-.14.08-.32.03-.4-.11-.07-.12-.04-.28.06-.37l2.35-2.03-2.01,1.16c-.14.08-.32.03-.4-.11-.07-.13-.04-.29.08-.38l1.04-.79-.71.41c-.14.08-.32.03-.4-.11-.07-.12-.04-.28.06-.37l2.24-1.91-1.9,1.1c-.14.08-.32.03-.4-.11-.07-.13-.04-.29.07-.37l1.1-.85-.78.45c-.14.08-.32.03-.4-.11-.07-.12-.04-.28.07-.37l1.68-1.35-1.35.78c-.14.08-.32.03-.4-.11-.07-.13-.04-.3.08-.38l.22-.16c-.11.02-.22-.03-.29-.12-.09-.13-.06-.3.06-.39l1.81-1.47-1.48.85c-.14.08-.32.03-.4-.11-.07-.12-.04-.28.07-.37l1.62-1.3-1.29.75c-.14.08-.32.03-.4-.11-.07-.13-.04-.29.08-.38l.39-.29-.07.04c-.14.08-.32.03-.4-.11-.07-.12-.04-.28.07-.37l1.83-1.5-1.49.86c-.14.08-.32.03-.4-.11-.07-.12-.04-.28.07-.37l1.37-1.13-1.03.6c-.14.08-.32.02-.4-.12-.06-.12-.04-.26.05-.35l.69-.62-.34.2c-.14.08-.32.03-.4-.11-.06-.1-.05-.22.02-.32l.4-.57c-.16,0-.29-.13-.29-.3,0-.1.06-.2.15-.25l.97-.56c.14-.08.32-.03.4.11.06.1.05.22-.02.31l-.35.49,1.59-.91c.14-.08.32-.02.4.12.06.12.04.26-.05.35l-.69.61,1.64-.95c.14-.08.32-.03.4.11.07.12.04.28-.07.37l-1.37,1.13,1.59-.92c.14-.08.32-.03.4.11.07.12.04.28-.07.37l-1.82,1.5,1.54-.89c.14-.08.32-.03.4.11.07.13.04.29-.08.38l-.4.29.07-.04c.14-.08.32-.03.4.11.07.12.04.28-.07.37l-1.62,1.29,1.29-.74c.14-.08.32-.03.4.11.07.12.04.28-.07.37l-1.81,1.47,1.48-.85c.14-.08.32-.03.4.11.07.13.04.3-.08.38l-.22.16c.16-.02.31.09.33.25.02.1-.02.21-.11.27l-1.68,1.35,1.35-.78c.14-.08.32-.03.4.11.07.13.04.29-.07.37l-1.1.85.78-.45c.14-.08.32-.03.4.11.07.12.04.28-.06.37l-2.24,1.91,1.9-1.1c.14-.08.32-.03.4.11.07.13.04.29-.08.38l-1.04.79.71-.41c.14-.08.32-.03.4.11.07.12.04.28-.06.37l-2.35,2.03,2.01-1.16c.14-.08.32-.03.4.11.07.12.04.28-.07.37l-2.02,1.68,1.68-.97c.14-.08.32-.03.4.11.07.12.04.28-.07.37l-1.9,1.56,1.57-.91c.14-.08.32-.03.4.11.07.12.04.28-.06.37l-1.67,1.41,1.33-.77c.14-.08.32-.03.4.11.06.11.05.25-.04.35l-1.09,1.16.73-.42c.14-.08.32-.03.4.11.06.1.05.23-.03.33l-.31.39c.16.05.24.21.2.36-.02.07-.07.13-.13.17l-.97.56c-.14.08-.32.03-.4-.11-.06-.1-.05-.23.03-.33l.16-.19-1.1.63s-.1.04-.15.04h0Z"/>
  <path class="cls-3" d="m29.16,17.09c-.16,0-.29-.13-.29-.29,0-.08.03-.15.09-.21l.94-.94-2.1,1.21c-.14.08-.32.03-.4-.11-.07-.12-.04-.26.05-.36l1.92-1.76-2.61,1.51c-.14.08-.32.03-.4-.11-.07-.13-.04-.29.07-.38l1.07-.83-1.19.69c-.14.08-.32.03-.4-.11-.07-.13-.04-.29.08-.38l.92-.7-.85.49c-.14.08-.32.03-.4-.11-.07-.13-.04-.29.08-.38l.61-.47-.35.2c-.14.08-.32.03-.4-.11-.07-.13-.04-.29.07-.38l.29-.23c-.16,0-.29-.14-.28-.3,0-.08.04-.15.1-.21l.67-.61s-.09-.06-.11-.11c-.08-.14-.03-.32.11-.4l1.57-.91c.14-.08.32-.03.4.11.07.12.04.26-.05.36l-.19.17,1.09-.63c.14-.08.32-.03.4.11.07.13.04.29-.07.38l-.03.02.42-.24c.14-.08.32-.03.4.11.07.13.04.29-.08.38l-.61.47.9-.52c.14-.08.32-.03.4.11.07.13.04.29-.08.38l-.92.7,1.07-.62c.14-.08.32-.03.4.11.07.13.04.29-.07.38l-1.07.83,1.07-.62c.14-.08.32-.03.4.11.07.12.04.27-.05.36l-1.92,1.76,1.69-.97c.14-.08.32-.02.4.12.06.11.04.25-.05.34l-.94.94c.15-.07.32-.01.39.13.07.14.02.3-.11.38l-1.89,1.09s-.1.04-.15.04h0Z"/>
  <path class="cls-1" d="m30.54,34.73c-.16,0-.29-.13-.29-.29,0-.05.01-.11.04-.15l.54-.88-1.06.61c-.14.08-.32.03-.4-.11-.06-.11-.05-.25.04-.34l.76-.83-.5.29c-.14.08-.32.03-.4-.11-.06-.11-.05-.24.03-.33l1.09-1.31-.78.45c-.14.08-.32.03-.4-.11-.06-.11-.05-.24.03-.34l1.1-1.29-.79.45c-.14.08-.32.03-.4-.11-.06-.11-.05-.24.03-.34l1.08-1.23-.77.45c-.14.08-.32.04-.4-.1-.07-.12-.05-.27.05-.36l.61-.59-.3.18c-.14.08-.32.03-.4-.11-.07-.12-.05-.27.05-.36l.45-.41-.13.08c-.14.08-.32.03-.4-.11-.06-.11-.05-.25.04-.35l1.12-1.22-1.15.66c-.14.09-.32.05-.41-.09-.09-.14-.05-.32.09-.41,0,0,.01,0,.02-.01l2.79-1.61c.14-.08.32-.03.4.11.06.11.05.25-.04.34l-1.12,1.22.75-.43c.14-.08.32-.03.4.11.07.12.05.27-.05.36l-.44.41.1-.06c.14-.08.32-.04.4.1.07.12.05.27-.05.36l-.61.59.26-.15c.14-.08.32-.03.4.11.06.11.05.25-.03.34l-1.08,1.23.72-.41c.14-.08.32-.03.4.11.06.11.05.24-.03.33l-1.1,1.29.73-.42c.14-.08.32-.03.4.11.06.11.05.24-.03.33l-1.09,1.3.72-.42c.14-.08.32-.03.4.11.06.11.05.25-.04.35l-.76.83.4-.23c.14-.08.32-.03.4.11.05.09.05.21,0,.3l-.54.88c.14-.09.32-.05.41.09.09.14.05.32-.09.41,0,0-.01,0-.02.01l-.99.58s-.1.04-.15.04h0Z"/>
  <path class="cls-1" d="m33.48,26.94c-.16,0-.29-.13-.29-.29,0-.06.02-.12.05-.17l.29-.42-.68.39c-.14.08-.32.03-.4-.11-.06-.1-.05-.23.02-.32l.78-1.03-.69.4c-.14.08-.32.03-.4-.11-.06-.11-.05-.25.04-.34l.57-.63-.36.21c-.14.08-.32.02-.4-.12-.06-.11-.04-.25.05-.34l.3-.31-.07.04c-.14.08-.32.03-.4-.11-.06-.11-.04-.26.05-.35l.26-.26-.03.02c-.14.08-.32.03-.4-.11-.06-.11-.04-.26.05-.35l.27-.27-.04.02c-.14.08-.32.03-.4-.11-.06-.11-.05-.24.03-.34l.74-.86-.55.31c-.14.08-.32.03-.4-.11-.08-.14-.03-.32.11-.4l2.04-1.18c.14-.08.32-.03.4.11.06.11.05.24-.03.34l-.74.86.52-.3c.14-.08.32-.03.4.11.07.12.05.26-.05.35l-.27.27h.02c.14-.09.32-.04.4.1.06.11.04.26-.05.35l-.26.26h.02c.14-.08.32-.03.4.11.06.11.04.25-.05.34l-.31.31.06-.03c.14-.08.32-.03.4.11.06.11.05.25-.04.35l-.57.63.34-.19c.14-.08.32-.03.4.11.06.1.05.23-.02.32l-.78,1.03.57-.33c.14-.08.32-.03.4.11.06.1.05.22-.01.31l-.32.46c.16-.02.31.09.33.25.02.12-.04.23-.14.29l-1.02.59s-.09.04-.15.04h0Z"/>
  <path class="cls-1" d="m26.53,34.67c-.16,0-.29-.13-.29-.29,0-.07.03-.14.08-.2l.19-.21-.37.21c-.14.08-.32.03-.4-.11-.06-.11-.05-.25.04-.35l.69-.74-.48.28c-.13.07-.29.04-.38-.08-.09-.12-.07-.29.04-.39l.28-.25c-.16.04-.32-.05-.36-.21-.03-.1,0-.22.08-.29l.46-.44-.11.07c-.14.08-.32.03-.4-.12-.06-.11-.04-.25.05-.35l.73-.73-.38.22c-.14.08-.32.03-.4-.11-.06-.11-.05-.25.04-.35l1.1-1.21-.73.42c-.14.08-.32.03-.4-.11-.07-.12-.05-.26.05-.36l.66-.63-.31.18c-.14.08-.32.03-.4-.11-.08-.13-.04-.3.09-.39l.5-.35-.18.1c-.14.08-.32.03-.4-.11-.07-.13-.04-.29.07-.37l2.31-1.78-1.99,1.15c-.14.08-.32.03-.4-.11-.07-.13-.04-.29.07-.38l2.79-2.23-2.47,1.42c-.14.08-.32.03-.4-.11-.08-.13-.04-.3.09-.39l2.57-1.81-2.26,1.3c-.14.08-.32.03-.4-.11-.07-.13-.04-.29.08-.38l3.65-2.75-3.32,1.92c-.14.08-.32.03-.4-.11-.07-.13-.04-.3.09-.38l.52-.35-.2.12c-.14.08-.32.03-.4-.11-.07-.13-.04-.29.08-.38l1.86-1.34-1.54.89c-.14.08-.32.02-.4-.12-.07-.14-.03-.3.1-.38l6.47-3.73c.14-.08.32-.03.4.11.07.13.04.29-.08.38l-1.86,1.35,2.19-1.26c.14-.08.32-.03.4.11.08.13.04.3-.09.39l-.51.35.57-.33c.14-.08.32-.03.4.11.07.13.04.29-.08.38l-3.65,2.75,3.73-2.15c.14-.08.32-.03.4.11.08.13.04.3-.09.39l-2.57,1.81.21-.12c.14-.08.32-.03.4.11.07.12.04.28-.07.37l-2.79,2.23,2.47-1.42c.14-.08.32-.03.4.11.07.13.04.29-.07.37l-2.31,1.78,1.99-1.15c.14-.08.32-.03.4.11.07.13.04.29-.08.38l-3.33,2.35c.06.11.03.25-.06.34l-.66.63.27-.15c.14-.08.32-.03.4.11.06.11.05.25-.04.35l-1.1,1.21.68-.39c.14-.08.32-.03.4.12.06.11.04.25-.05.35l-.73.73.33-.19c.14-.08.32-.04.4.1.07.12.05.28-.06.37l-.46.44.07-.04c.14-.08.32-.03.4.11.07.12.04.27-.05.36l-.29.27c.16-.03.31.07.35.23.02.09,0,.19-.07.26l-.69.74.28-.16c.14-.08.32-.03.4.11.06.11.05.25-.04.35l-.27.3c.11,0,.21.05.26.15.08.14.03.32-.11.4l-1.4.81s-.1.04-.15.03h0Z"/>
  <path class="cls-1" d="m23.38,26.78c-.16,0-.29-.13-.29-.29,0-.08.03-.15.09-.21l.25-.25-.32.18c-.14.08-.32.03-.4-.11-.06-.11-.05-.25.04-.34l1.16-1.27-.73.42c-.14.08-.32.03-.4-.11-.07-.12-.05-.27.05-.36l.87-.85-.35.2c-.14.08-.32.04-.4-.1-.07-.12-.05-.28.06-.37l.76-.71-.25.15c-.14.08-.32.03-.4-.11-.07-.13-.04-.29.08-.38l3.38-2.49-2.86,1.65c-.14.08-.32.03-.4-.11-.07-.13-.04-.29.07-.38l2.34-1.86-1.82,1.05c-.14.08-.32.03-.4-.11-.08-.13-.04-.29.08-.38l.34-.25c-.16,0-.29-.14-.29-.3,0-.08.04-.15.09-.21l.8-.74c-.06-.02-.1-.07-.14-.12-.08-.14-.03-.32.11-.4l1.64-.95c.14-.08.32-.03.4.11.07.12.04.27-.05.36l-.4.36,1.58-.91c.14-.08.32-.03.4.11.07.13.04.29-.08.38l-.04.03.9-.52c.14-.08.32-.03.4.11.07.13.04.29-.07.38l-2.34,1.86,4-2.31c.14-.08.32-.03.4.11.07.13.04.29-.08.38l-5.15,3.79h.01c.09.13.07.3-.03.4l-.76.71.23-.13c.14-.08.32-.03.4.11.07.12.05.27-.05.36l-.87.85.33-.19c.14-.08.32-.03.4.11.06.11.05.25-.04.34l-1.16,1.27.55-.32c.14-.08.32-.03.4.11.07.11.05.26-.05.35l-.36.36c.16,0,.29.13.29.3,0,.1-.06.2-.15.25l-1.62.94s-.1.04-.15.04h0Z"/>
  <g>
    <path class="cls-1" d="m29.9,6.37c-.16,0-.29-.13-.29-.29,0-.08.03-.15.09-.21l.11-.1-.18.1c-.14.08-.32.03-.4-.11-.06-.11-.05-.25.04-.34l.93-1.02-.69.4c-.14.08-.32.02-.4-.12-.07-.14-.03-.3.1-.38l2.31-1.34c.14-.08.32-.03.4.11.06.11.05.25-.04.34l-.93,1.02.57-.33c.14-.08.32-.03.4.11.07.12.05.26-.05.36l-.21.21c.11,0,.21.05.26.15.08.14.03.32-.11.4l-1.77,1.02s-.1.04-.15.04h0Z"/>
    <path class="cls-1" d="m23.07,7.68c-.16,0-.29-.13-.29-.29,0-.1.05-.19.13-.24l3.05-2.14-.25.14c-.14.08-.32.03-.4-.11-.07-.12-.04-.28.07-.37l2.61-2.14-.8.46c-.14.08-.32.03-.4-.11-.06-.1-.05-.23.02-.32l.87-1.19-1.59.92c-.14.08-.32.03-.4-.11-.05-.09-.05-.21,0-.3l.39-.6c-.16.04-.32-.05-.36-.21-.03-.13.02-.26.14-.33l.97-.56c.14-.08.32-.03.4.11.05.1.05.21,0,.31l-.38.58,1.73-1c.14-.08.32-.03.4.11.06.1.05.23-.02.32l-.87,1.19,2.68-1.55c.14-.08.32-.04.4.1.08.13.05.29-.07.38l-2.61,2.14,3.01-1.74c.14-.08.32-.03.4.11.08.13.04.3-.09.39l-3.06,2.14,2.76-1.59c.14-.08.32-.02.4.12.07.14.03.3-.1.38l-8.6,4.97s-.1.04-.15.04h0Z"/>
    <path class="cls-1" d="m21.01,11.6c-.16,0-.29-.13-.29-.29,0-.09.04-.18.12-.23l2.62-2.02-3.06,1.77c-.14.08-.32.03-.4-.11-.06-.09-.05-.21,0-.31l.65-1.02-1.07.62c-.14.08-.32.03-.4-.11-.06-.11-.05-.25.03-.34l.36-.41-.55.31c-.14.09-.32.05-.41-.09-.09-.14-.05-.32.09-.41,0,0,.01,0,.02-.01l2.1-1.21c.14-.08.32-.03.4.11.06.11.05.25-.03.34l-.36.41.55-.32c.14-.08.32-.03.4.11.06.09.05.21,0,.31l-.65,1.02,5.87-3.39c.14-.08.32-.03.4.11.07.13.04.29-.07.38l-2.94,2.26c.16.01.28.16.27.32,0,.1-.06.18-.15.23l-3.35,1.93s-.09.04-.14.04h0Z"/>
    <path class="cls-1" d="m13.9,10.98c-.16,0-.29-.13-.29-.3,0-.09.04-.18.12-.23l2.12-1.55c-.15-.06-.22-.24-.15-.39.02-.04.05-.08.08-.11l1.62-1.35c-.06-.14-.01-.3.12-.38l1.1-.63c.14-.08.32-.03.4.11.07.12.04.28-.07.37l-.18.15.59-.34c.14-.08.32-.03.4.11.07.13.04.29-.08.38l-1.24.91,1.48-.86c.14-.08.32-.02.4.12.07.14.03.3-.1.38l-6.18,3.57s-.1.04-.15.04h0Z"/>
    <path class="cls-1" d="m12.87,14c-.16,0-.29-.13-.29-.29,0-.09.04-.18.12-.23l1.75-1.33-2.09,1.2c-.14.08-.32.03-.4-.11-.08-.13-.04-.3.09-.39l2.11-1.45-2.37,1.37c-.14.08-.32.03-.4-.11-.06-.1-.05-.22.01-.31l.61-.9-.99.57c-.12.07-.27.05-.36-.05-.09-.1-.11-.25-.03-.36l.63-.98-1.04.6c-.14.09-.32.05-.41-.09-.09-.14-.05-.32.09-.41,0,0,.01,0,.02-.01l2.1-1.21c.14-.08.32-.03.4.11.06.1.05.21,0,.31l-.63.98,1.04-.6c.12-.07.27-.05.36.05.09.1.1.25.03.36l-.62.91,7.68-4.43c.14-.08.32-.03.4.12.07.13.03.29-.09.38l-2.34,1.61c.11-.02.22.03.28.13.09.13.06.3-.07.4l-2.44,1.86c.15.06.23.23.17.38-.02.06-.07.12-.13.15l-3.04,1.75s-.1.04-.15.04Z"/>
    <path class="cls-1" d="m1.67,18.08c-.16,0-.29-.13-.29-.29,0-.09.05-.18.12-.24l.23-.16-.3.17c-.14.08-.32.03-.4-.11-.07-.13-.04-.29.08-.38l3.58-2.59-2.85,1.64c-.14.08-.32.04-.4-.1-.08-.14-.04-.31.09-.4l1.98-1.3c-.16,0-.29-.15-.28-.31,0-.09.05-.17.12-.22l3.07-2.24h-.03c-.14.09-.32.04-.4-.1-.07-.12-.04-.27.06-.37l2.56-2.24h0c-.08-.15-.03-.33.11-.41l1.1-.63c.14-.08.32-.03.4.11.07.12.04.27-.06.36l-1.46,1.28,2.13-1.23c.14-.08.32-.03.4.11.07.13.04.29-.08.38l-3.06,2.24,3.48-2.01c.14-.08.32-.03.4.11.07.13.03.3-.09.39l-2.39,1.56c.16.03.26.19.23.35-.01.07-.06.14-.11.18l-3.58,2.6.4-.23c.14-.08.32-.03.4.11.07.13.04.3-.08.38l-1.67,1.21c.13.1.15.28.05.41-.02.03-.05.06-.09.07l-3.2,1.85s-.1.04-.15.04h0Z"/>
  </g>
  <path class="cls-2" d="m.15,33.4c-.24,1.92,5.85,1.7,5.55-.23-.53-2.61,1.8-8.57-2.72-7.7-4.56-.71-2.4,5.22-2.83,7.92h0Zm.85-6.66c.03-1.47,1.86-.77,2.81-.91,1.35.12,1.01,1.71,1.04,2.66-.44,3.25,1.72,6.82-3.26,5.69-1.4-1.93-.24-5.09-.59-7.43h0Z"/>
  <path class="cls-2" d="m7.78,33.4c.07.94.83,1.36,1.69,1.37,5.81,1.08,3.39-4.57,3.86-8.14-.29-1.77,1.03-5.39-1.73-5.4-1.14,0-3.01-.35-3.65.87-.5,3.67-.02,7.56-.17,11.3h0Zm.86-10.68c.14-1.39,1.88-.71,2.82-.86,1.93.32.68,3.55,1.02,4.96v6.5c-.2,1.38-2.06.7-3.03.83-1.76-.5-.41-9.28-.8-11.43Z"/>
  <path class="cls-2" d="m16.38,34.58c7.16,1.38,3.89-5.09,4.58-9.63-.42-1.95,1.07-6.94-1.06-7.67-1.36,0-3.24-.42-4.26.7-.69,4.33,0,9-.23,13.44,0,1.01-.35,2.83.97,3.15Zm-.12-16.05c.07-1.02.66-.93,1.43-.93,2.35-.39,2.69.92,2.42,2.94v12.86c-.1,1.2-1.21.89-2.08.89s-1.69-.06-1.77-1.13c0-4.87,0-9.76,0-14.63h0Z"/>
  <path class="cls-2" d="m33.03,26.81c3.32.29,1.47-3.67,1.4-5.54-.1-2.35-1.29-4.88-4.05-4.6,2.41-1.17,2.22-4.97-.39-5.79-3.56-1.4-6.52,3.91-2.97,5.82-3.61.09-3.92,3.81-4.21,6.62-.13.88-.79,2.75.2,3.34.8.45,2.18.01,2.39-.93.3,2.79-.63,6.06.42,8.62,4.22,1.63,2.21-5.6,2.91-7.82.84,1.97-.99,7.87,1.81,8.09,3.1-.6,1.02-6.34,1.59-8.74.08.47.44.84.91.93h0Zm-6.43-14.31c1.23-2.34,4.75-1.02,4.67,1.45-.21,4.56-6.64,2.35-4.67-1.45Zm4.67,20.93c-.04.53-.41,1.13-.99.59-1.11-2.31.26-5.74-.98-7.9-2.8-.4-1.03,5.64-1.74,7.41-.05.39-.22.92-.85.6-.84-.67-.31-2-.45-2.94-.39-1.32.95-11.78-.84-10.12-.36,1.69-.47,3.51-.95,5.14-2.38.76-.24-4.45-.41-5.68.24-3.45,2.34-3.71,5.28-3.46,1.86-.37,3.66.84,4.03,2.7.05.23.07.46.07.69.14,1.88.86,3.85.68,5.7-.51.8-1.06-.09-1.17-.53-2.15-12.9-1.64,4.41-1.67,7.82h0Z"/>
  <path class="cls-2" d="m23.04,11.14c1.99-1.95,3.93-3.94,5.91-5.91.03,1.67,2.67,1.68,3.11.19.22-1.28-.02-2.67.06-3.96-.39-2.13-3.25-1.08-4.78-1.32-2.21-.17-2.76,2.86-.32,2.85l-5.24,5.23c-3.29-4.76-5.43-.06-8.22,2.35-4.12-5.42-5.4-1.32-8.94,1.9-1.13,1.47-6.3,4.71-2.44,5.8,3.15-1.17,5.09-4.81,7.73-6.91,4.07,5.33,5.28,1.47,8.81-1.76,1.14,1.19,2.71,3.24,4.33,1.53h0Zm-3.88-2.2c-1.88-.03-3.81,4.21-5.72,4.69-1.17-.72-2.03-2.01-3.09-2.92-.18-.18-.58-.07-.74.09l-6.55,6.54c-5.33,1.53,5.37-7.5,6.01-8.46,1.31-1.66,2.88,1.7,4.02,2.37,1.78-.17,3-2.8,4.52-3.86,1.28-1.97,2.62.66,3.7,1.51.18.18.58.07.74-.09l5.98-5.97c.32-.51-.61-.29-.86-.34-.55-.04-.96-.52-.92-1.07,0-.13.04-.25.1-.37.81-.87,2.37-.2,3.46-.4,2.16-.22,1.3,2.48,1.46,3.82.39,2.12-1.87,1.75-1.49-.12-.98-.87-5.41,5.06-6.72,5.91-1.34,2.18-2.75-.27-3.88-1.33h0Z"/>
</svg>