<svg width="35" height="35" viewBox="0 0 35 35" fill="none" xmlns="http://www.w3.org/2000/svg">
<g clip-path="url(#clip0_329_3276)">
<path d="M3.29657 0.04375C5.35911 0.04375 7.41679 0.0486111 9.47933 0.04375C10.7392 0.0388889 12.0089 0 13.2736 0C14.3633 0 15.4529 0.0243056 16.5426 0.04375C17.5106 0.0631944 18.4786 0.0875 19.4467 0.111806C20.1909 0.13125 20.9303 0.150694 21.6746 0.184722C22.5891 0.223611 23.5037 0.267361 24.4182 0.330556C25.0652 0.374306 25.6246 0.957639 25.7219 1.69167C25.8727 2.82917 26.0186 3.96667 26.1451 5.10417C26.2375 5.94028 26.3007 6.77639 26.3591 7.61736C26.4369 8.74028 26.5099 9.85833 26.5732 10.9812C26.6267 11.9292 26.6802 12.8771 26.7142 13.825C26.7677 15.259 26.8164 16.6979 26.8553 18.1319C26.8845 19.2306 26.9039 20.3292 26.9283 21.4278C26.9477 22.2542 26.9964 23.0806 26.9915 23.9021C26.9866 25.3458 26.9623 26.7847 26.9234 28.2285C26.8991 29.0937 26.8456 29.9639 26.7823 30.8292C26.7337 31.4757 26.6899 32.1319 26.5586 32.7687C26.3834 33.6243 25.8678 34.2174 24.7879 34.4215C23.8442 34.5965 22.881 34.7326 21.9227 34.7764C20.4731 34.8444 19.0137 34.8299 17.5592 34.8444C16.3966 34.8542 15.234 34.8542 14.0714 34.8639C12.3786 34.8833 10.6857 34.9076 8.99289 34.9319C7.48003 34.9562 5.96717 35 4.45432 34.9951C3.39872 34.9903 2.35286 34.8347 1.35077 34.4944C0.606506 34.2417 -0.0307425 33.5174 -0.0112845 32.5938C0.00817341 31.6361 0.0373603 30.6833 0.0568183 29.7257C0.0811407 28.6514 0.115192 27.5771 0.124921 26.5028C0.163837 23.2847 0.207617 20.0618 0.227075 16.8389C0.236804 15.2493 0.212482 13.6597 0.197888 12.075C0.178431 10.4319 0.154108 8.78889 0.124921 7.14583C0.105463 6.07153 0.0811407 4.99722 0.0519538 3.92292C0.0519538 3.33472 0.0227669 2.74653 -0.00155557 2.16319C-0.035607 1.28819 0.684337 0.189583 1.77885 0.179861C2.28475 0.179861 2.7858 0.116667 3.2917 0.0826389C3.2917 0.0680556 3.2917 0.0583333 3.2917 0.04375H3.29657ZM23.6593 1.03542C22.8615 0.986806 22.093 0.933333 21.3244 0.899306C20.512 0.865278 19.6948 0.845833 18.8824 0.826389C17.7733 0.797222 16.6593 0.772917 15.5502 0.758333C14.1638 0.738889 12.7726 0.729167 11.3862 0.729167C10.3793 0.729167 9.37232 0.74375 8.3605 0.758333C7.35842 0.772917 6.35147 0.806944 5.34938 0.826389C4.2646 0.850694 3.17496 0.879861 2.09017 0.894444C1.2243 0.904167 0.703795 1.41458 0.713524 2.28472C0.713524 2.66875 0.767034 3.05764 0.781627 3.44167C0.810814 4.33611 0.835137 5.23542 0.84973 6.12986C0.878917 7.53472 0.903239 8.94444 0.917833 10.3493C0.942155 12.4104 0.971342 14.4715 0.971342 16.5326C0.971342 18.4382 0.937291 20.3486 0.917833 22.2542C0.893511 24.3833 0.874053 26.5125 0.844866 28.6465C0.830272 29.6722 0.801085 30.6979 0.776763 31.7285C0.776763 31.7625 0.781627 31.8014 0.776763 31.8354C0.625964 32.3167 0.698931 32.7736 0.908104 33.2646C1.0735 33.2014 1.2243 33.1285 1.38482 33.0799C1.56967 33.0215 1.76425 32.9486 1.9491 32.9583C2.06099 32.9632 2.25557 33.109 2.25557 33.1965C2.25557 33.3229 2.15341 33.4833 2.04639 33.5757C1.93938 33.6681 1.77398 33.6972 1.63778 33.7556C1.63778 33.7993 1.64751 33.8431 1.65237 33.8868C1.89073 33.8868 2.13882 33.9306 2.36259 33.8771C2.57662 33.8236 2.77607 33.6875 2.97065 33.566C3.18468 33.4299 3.40845 33.3618 3.53493 33.6194C3.6079 33.7653 3.53979 33.9792 3.53493 34.2319C3.70519 34.2174 3.9776 34.266 4.18677 34.1687C4.55161 34.0035 4.8678 33.7215 5.23264 33.5465C5.35425 33.4882 5.56828 33.6194 5.73854 33.6632C5.69963 33.8187 5.66071 33.9743 5.61693 34.1299C5.6072 34.159 5.59261 34.1882 5.57801 34.2271C5.78232 34.2271 5.97204 34.2271 6.16175 34.2271C6.26391 34.2271 6.38552 34.2368 6.46335 34.1882C7.04222 33.8236 7.59678 33.4201 8.19024 33.0799C8.32645 33.0021 8.63778 33.041 8.7448 33.1479C8.91505 33.3278 8.83236 33.5368 8.58427 33.6729C8.31672 33.8236 8.0735 34.0132 7.76703 34.2271C8.21943 34.1931 8.5794 34.3049 8.94911 33.916C9.29448 33.5514 9.83931 33.3667 10.3209 33.1479C10.4571 33.0847 10.7392 33.1333 10.8365 33.2403C11.0214 33.4347 10.856 33.634 10.6711 33.7653C10.4863 33.8917 10.2868 33.9986 10.0971 34.1153C10.3939 34.1493 10.7052 34.1736 10.9435 34.0521C11.3035 33.8771 11.5954 33.5757 11.9456 33.3764C12.0721 33.3083 12.3153 33.3326 12.4369 33.4153C12.5196 33.4736 12.544 33.7312 12.4905 33.8528C12.4369 33.9743 12.2521 34.0424 12.0575 34.1785C12.2326 34.2028 12.3445 34.2319 12.4564 34.2271C12.7483 34.2125 13.0353 34.1833 13.3271 34.159C13.3758 34.159 13.4293 34.1687 13.4682 34.1493C13.9109 33.916 14.3536 33.6826 14.7865 33.4396C15.0151 33.3132 15.2729 33.2597 15.4237 33.4736C15.5843 33.7069 15.4627 33.9257 15.1951 34.0424C15.1854 34.0424 15.1854 34.0861 15.1708 34.1833C15.7934 34.0278 16.4356 34.3049 17.0047 33.8187C17.4085 33.4736 17.89 33.2062 18.3619 32.9486C18.4884 32.8806 18.7705 32.9194 18.8775 33.0215C19.0089 33.1479 19.0235 33.3764 18.7948 33.5222C18.5419 33.6875 18.3035 33.8771 18.0165 34.091C18.4105 34.091 18.7413 34.091 19.0721 34.091C19.1451 34.091 19.2375 34.0812 19.291 34.0375C19.8164 33.6049 20.3223 33.1431 20.8671 32.7396C20.9839 32.6521 21.2903 32.691 21.4265 32.7882C21.626 32.934 21.5141 33.1431 21.3487 33.2889C21.1638 33.4542 20.979 33.6146 20.7941 33.775C20.6725 33.8819 20.546 33.9889 20.4244 34.0958C20.439 34.125 20.4488 34.1542 20.4634 34.1833C20.7406 34.1396 21.0811 34.1833 21.2903 34.0375C21.767 33.7021 22.1902 33.2792 22.6183 32.8757C22.7497 32.7542 22.8032 32.5306 22.9442 32.4382C23.0756 32.3556 23.3188 32.3167 23.4404 32.3847C23.5912 32.4674 23.6496 32.6715 23.4939 32.8708C23.1923 33.2451 22.9102 33.6389 22.5745 34.0861C23.4696 33.9208 24.3112 33.7653 25.2062 33.6C25.0895 33.4299 25.0311 33.3326 24.963 33.2403C24.7392 32.9437 24.5009 32.6569 24.2966 32.3458C24.2333 32.2486 24.2187 32.0687 24.2674 31.9667C24.3063 31.884 24.4911 31.8062 24.5836 31.8306C24.7344 31.8743 24.89 31.9764 24.9922 32.0979C25.2354 32.3799 25.4543 32.691 25.6781 32.9924C25.717 32.9826 25.7559 32.9681 25.7948 32.9583C25.8678 32.3458 25.9408 31.7333 26.0235 31.0285C25.7559 31.2375 25.5808 31.3542 25.4349 31.5C25.25 31.6799 25.07 31.6507 24.9727 31.4562C24.9046 31.325 24.89 31.0819 24.9727 30.9799C25.1333 30.7757 25.3765 30.6347 25.5808 30.4597C25.7462 30.3187 25.9991 30.1924 26.0478 30.0174C26.1451 29.6479 26.1305 29.2493 26.1645 28.8604C25.8143 29.1229 25.5808 29.434 25.2938 29.6868C25.1819 29.784 24.9046 29.8229 24.7782 29.75C24.5884 29.6431 24.603 29.4194 24.7636 29.2444C25.1965 28.7875 25.6294 28.3306 26.0624 27.8736C26.111 27.8201 26.2034 27.7667 26.2034 27.7083C26.218 27.3972 26.2083 27.0861 26.2083 26.7701C26.1645 26.7458 26.1256 26.7167 26.0818 26.6924C25.9651 26.8382 25.8727 27.0083 25.7316 27.1153C25.5857 27.2222 25.357 27.3243 25.2403 27.0958C25.177 26.9694 25.1868 26.7361 25.2646 26.6194C25.4689 26.3083 25.7121 26.0167 25.9797 25.759C26.3542 25.3896 26.1597 24.9715 26.1645 24.5583C25.9797 24.709 25.8581 24.9132 25.6829 25.025C25.5711 25.0979 25.3619 25.0833 25.2257 25.025C25.0165 24.9375 25.036 24.7479 25.1576 24.5875C25.3473 24.3347 25.5273 24.0722 25.7462 23.8535C26.1548 23.45 26.3251 22.9931 26.1694 22.4194C26.111 22.4389 26.0429 22.4924 25.9894 22.4826C25.8483 22.4583 25.6538 22.4486 25.5954 22.3611C25.5321 22.259 25.5759 22.0694 25.6051 21.9285C25.6246 21.8458 25.7121 21.7778 25.7559 21.7C26.077 21.1556 26.3348 20.5965 26.1791 19.9354C25.7413 19.9257 25.5613 19.7993 25.6489 19.5319C25.7413 19.2306 25.8435 18.9243 26.0089 18.6618C26.2132 18.3312 26.1159 18.0104 26.1402 17.6167C26.0624 17.6993 26.0235 17.7236 26.0137 17.7528C25.9067 18.0493 25.6586 18.0785 25.4397 17.9715C25.216 17.8597 25.2451 17.6264 25.3619 17.4222C25.5419 17.1111 25.7365 16.8097 25.897 16.4937C25.9991 16.2944 26.0527 16.066 26.1305 15.8278C25.3473 15.7743 25.2354 15.5993 25.6538 15.0208C26.0429 14.4812 26.0137 13.9174 25.9894 13.4069C25.79 13.3486 25.5711 13.3486 25.5078 13.2514C25.4349 13.1396 25.4543 12.9208 25.5078 12.7701C25.5808 12.5562 25.7267 12.3667 25.8337 12.1625C25.9894 11.8562 25.9845 11.55 25.8824 11.3507C25.6051 11.375 25.3668 11.4674 25.2111 11.3896C24.9581 11.2583 25.0749 11.0104 25.1916 10.8111C25.2306 10.7431 25.2841 10.675 25.3181 10.6069C25.5322 10.1937 25.897 9.83403 25.79 9.30417C25.7511 9.1 25.7267 8.89583 25.6927 8.69167C25.2889 8.82778 24.9971 8.72083 25.0165 8.43403C25.0262 8.27847 25.1527 8.12778 25.25 7.9868C25.5224 7.59306 25.7754 7.20417 25.5662 6.78125C25.3327 6.74722 25.1138 6.78125 24.9776 6.68403C24.7392 6.51875 24.8803 6.29514 24.9873 6.10069C25.0311 6.01805 25.0554 5.93055 25.0992 5.84792C25.357 5.35694 25.5565 4.85625 25.2938 4.26805C25.216 4.3993 25.1479 4.52083 25.0749 4.63264C24.9825 4.76875 24.9095 4.95347 24.7782 5.00694C24.6468 5.06042 24.3598 5.02639 24.3209 4.94375C24.2528 4.80278 24.2722 4.56458 24.3452 4.41875C24.7101 3.68472 25.357 3.04792 25.0262 2.05139C24.9144 2.22639 24.8219 2.38194 24.7198 2.52292C24.5884 2.70278 24.4133 2.79514 24.209 2.65417C24.0144 2.52292 23.9317 2.34792 24.0874 2.11944C24.2528 1.88125 24.4182 1.64306 24.5641 1.39028C24.603 1.32708 24.569 1.22014 24.569 1.13264C24.2966 1.42431 24.1214 1.71597 23.9025 1.96875C23.8247 2.05625 23.6058 2.10972 23.4988 2.06111C23.3042 1.97361 23.2118 1.79375 23.3577 1.57014C23.4599 1.41944 23.5426 1.25417 23.6496 1.05972L23.6593 1.03542Z" fill="#222222"/>
<path d="M32.4963 3.74759C32.9098 3.74759 33.2844 3.75245 33.6638 3.74759C34.4567 3.73301 34.9529 4.37468 34.9821 5.06009C35.0161 5.79412 34.9967 6.53301 34.9821 7.26704C34.9675 8.06912 34.9383 8.8712 34.914 9.67329C34.8896 10.4851 34.8702 11.3018 34.841 12.1136C34.8264 12.5219 34.8215 12.94 34.7583 13.3386C34.734 13.4795 34.5394 13.5913 34.4275 13.7177C34.3059 13.6011 34.0821 13.4844 34.0773 13.3629C34.0627 12.7893 34.1162 12.2108 34.1259 11.6372C34.1357 11.0684 34.1259 10.4997 34.1308 9.93093C34.1502 8.97329 34.1746 8.02051 34.2038 7.06287C34.2232 6.47468 34.2573 5.88648 34.2719 5.29829C34.2816 4.71009 34.0335 4.46218 33.4595 4.46218C33.2211 4.46218 32.9828 4.43787 32.7493 4.4719C32.6568 4.48648 32.5352 4.61287 32.5061 4.71495C32.4623 4.85593 32.472 5.00662 32.7104 5.03579C33.2698 5.1087 33.3087 5.16704 33.3038 5.7212C33.2941 9.06565 33.2892 12.415 33.2795 15.7594C33.2795 16.8143 33.2698 17.8691 33.2795 18.924C33.2941 20.3191 33.3233 21.7143 33.3525 23.1094C33.3671 23.79 33.3865 24.4754 33.4254 25.1559C33.4546 25.6906 33.5325 26.2205 33.5519 26.7552C33.5616 26.9448 33.4838 27.1393 33.4206 27.324C33.0655 28.3788 32.8466 29.4872 32.2142 30.4351C31.9272 30.8629 31.6888 30.8726 31.3969 30.4545C30.6284 29.3462 29.9668 28.1747 29.6019 26.867C29.529 26.5997 29.5241 26.3129 29.5095 26.0358C29.456 25.1316 29.4025 24.2275 29.3685 23.3233C29.3101 21.899 29.2712 20.4747 29.2225 19.0504C29.1982 18.2823 29.1739 17.5191 29.1544 16.7511C29.1301 15.6865 29.0912 14.6268 29.0863 13.5622C29.0863 12.1768 29.1155 10.7962 29.1252 9.41079C29.1252 9.17745 29.0815 8.94412 29.0863 8.71565C29.1058 7.58301 29.1252 6.44551 29.1641 5.31287C29.169 5.1719 29.2906 4.95315 29.4074 4.91912C29.636 4.8462 29.6603 4.72954 29.6555 4.53509C29.6457 4.04898 29.6409 3.56287 29.6555 3.07676C29.6798 2.31843 30.0446 2.20662 30.5797 2.25037C30.9397 2.27954 31.3045 2.31356 31.6694 2.31843C32.2774 2.32815 32.5061 2.55176 32.5061 3.16912C32.5061 3.34412 32.5061 3.52398 32.5061 3.74759H32.4963ZM30.5748 27.1927C30.5748 27.1927 30.5408 27.2268 30.5213 27.2462C30.5846 27.4261 30.6381 27.6156 30.7159 27.7858C30.7597 27.8781 30.8375 28.0045 30.9154 28.0143C31.251 28.0629 31.5915 28.0677 31.9272 28.0969C32.0634 28.1115 32.1996 28.1504 32.3942 28.1893C32.472 27.8976 32.5547 27.5719 32.6423 27.2462C32.6568 27.2268 32.6763 27.2073 32.6909 27.1927C32.6714 27.1927 32.652 27.1879 32.6374 27.183C31.9515 27.183 31.2607 27.183 30.5748 27.183V27.1927ZM30.7889 26.4538C30.8132 26.4538 30.8375 26.4538 30.8619 26.4538C31.3094 26.4538 31.7618 26.4538 32.2093 26.4538C32.3358 26.4587 32.4671 26.4879 32.5887 26.4636C32.6714 26.4441 32.7347 26.3518 32.8417 26.2594C32.5742 26.3177 32.3942 26.3566 32.2142 26.3906C31.9564 26.1816 31.9418 25.9677 32.1558 25.7004C32.4963 25.2726 32.8709 24.8448 32.6763 24.2226C32.652 24.2275 32.6179 24.2323 32.5887 24.2469C32.399 24.3538 32.2093 24.5483 32.005 24.2906C31.8007 24.0379 31.971 23.8677 32.1315 23.6538C32.3358 23.3816 32.5401 23.0705 32.6179 22.7448C32.7006 22.39 32.6374 22.0011 32.6374 21.5393C32.4623 21.792 32.3553 21.9865 32.2142 22.1469C32.0974 22.283 31.9466 22.4337 31.7375 22.2636C31.5477 22.108 31.504 21.9379 31.6548 21.7143C31.825 21.4615 31.9661 21.1941 32.1315 20.9365C32.2045 20.8247 32.2969 20.7275 32.3844 20.6205C32.4574 20.5281 32.5304 20.4309 32.6033 20.3337C32.5742 20.3143 32.5498 20.29 32.5206 20.2705C32.4379 20.3094 32.3504 20.3823 32.2677 20.3775C32.1412 20.3677 31.9856 20.3386 31.9029 20.2559C31.8299 20.1879 31.791 20.008 31.8299 19.9205C31.9466 19.6677 32.078 19.4052 32.258 19.1962C32.579 18.8219 32.6228 18.4038 32.5401 17.9469C32.1218 17.8594 32.0147 17.6844 32.2045 17.3004C32.5109 16.683 32.6714 16.0462 32.5206 15.2976C32.4671 15.4337 32.4428 15.5212 32.4039 15.6038C32.3066 15.8031 32.1801 15.9927 31.9223 15.8906C31.6645 15.7886 31.5818 15.5893 31.7131 15.3219C31.8688 14.9962 32.0342 14.6754 32.1753 14.3448C32.3261 13.9802 32.725 13.6886 32.5304 13.2122C32.4428 13.3288 32.3796 13.4893 32.2677 13.5427C32.1266 13.6108 31.9077 13.6545 31.7958 13.5865C31.7131 13.5379 31.6888 13.2754 31.7326 13.1441C31.825 12.8816 31.9807 12.6386 32.1266 12.3955C32.3747 11.992 32.7395 11.6275 32.5012 11.0101C32.4428 11.2386 32.3698 11.4087 32.365 11.5837C32.3553 11.8754 32.1704 12.0018 31.9418 11.9969C31.6937 11.9969 31.6402 11.7781 31.645 11.5594C31.6742 10.8886 31.9564 10.3052 32.3942 9.82884C32.579 9.62468 32.5547 9.47884 32.5352 9.27468C32.4574 9.33787 32.4234 9.44482 32.3553 9.4837C32.2336 9.55662 32.0147 9.66357 31.9661 9.61982C31.8445 9.50801 31.7618 9.32329 31.7375 9.15801C31.7229 9.05593 31.8347 8.92954 31.8931 8.81773C32.078 8.48232 32.3163 8.16148 32.4477 7.80176C32.5644 7.48579 32.5596 7.12607 32.6082 6.78579C32.5693 6.78093 32.5304 6.7712 32.4915 6.76634C32.4428 6.8587 32.3942 6.9462 32.3504 7.04343C32.2385 7.28162 32.0196 7.29134 31.8348 7.21843C31.6207 7.13093 31.5769 6.93162 31.6985 6.71773C31.7958 6.54273 31.8883 6.36773 31.9904 6.20245C32.0926 6.04204 32.2045 5.89134 32.3115 5.73579C32.292 5.6969 32.2774 5.65315 32.258 5.61426H29.7868C29.7868 6.73232 29.7868 7.82607 29.7868 8.92468C29.7868 9.27468 29.8354 9.62468 29.8403 9.97468C29.85 11.3747 29.8403 12.7747 29.8598 14.1747C29.8744 15.8761 29.9035 17.5823 29.9327 19.2837C29.9425 19.7893 29.9765 20.2948 30.0008 20.8004C30.0495 21.9865 30.0933 23.1775 30.1468 24.3636C30.1808 25.0636 30.2392 25.7587 30.2878 26.4538H30.784H30.7889ZM31.7326 4.88995V3.05731H30.3608C30.3608 3.5969 30.3657 4.11218 30.3608 4.63231C30.3608 4.83648 30.4484 4.89968 30.6381 4.89481C31.0029 4.88509 31.3726 4.89481 31.7326 4.89481V4.88995ZM31.8007 29.7691C31.9466 29.4045 32.0585 29.1275 32.1801 28.8261H31.2316C31.4115 29.1226 31.5769 29.4045 31.8007 29.7691Z" fill="#222222"/>
<path d="M32.2068 26.4441C31.7593 26.4441 31.3069 26.4441 30.8594 26.4441C30.8399 26.4247 30.8205 26.4101 30.801 26.3906C30.728 25.5156 30.6356 24.6406 30.5772 23.7656C30.514 22.7448 30.4702 21.7191 30.4313 20.6983C30.3973 19.624 30.3681 18.5497 30.3583 17.4754C30.3437 15.9295 30.3438 14.3837 30.3438 12.8427C30.3438 11.0393 30.3486 9.23092 30.3535 7.42745C30.3535 6.82467 30.3535 6.21704 30.3535 5.61426H32.2555C32.275 5.65315 32.2895 5.6969 32.309 5.73579C32.202 5.89134 32.0852 6.04204 31.9879 6.20245C31.8809 6.36773 31.7934 6.54759 31.6961 6.71773C31.5793 6.93162 31.6182 7.13092 31.8323 7.21842C32.0171 7.2962 32.236 7.28162 32.3479 7.04342C32.3917 6.95106 32.4452 6.8587 32.489 6.76634C32.5279 6.7712 32.5668 6.78092 32.6057 6.78579C32.5571 7.12606 32.5571 7.48579 32.4452 7.80176C32.3139 8.16148 32.0804 8.47745 31.8907 8.81773C31.8274 8.92954 31.7155 9.05592 31.735 9.15801C31.7593 9.32329 31.8469 9.50801 31.9636 9.61981C32.0123 9.66356 32.2312 9.55662 32.3528 9.4837C32.4209 9.44481 32.4549 9.33787 32.5328 9.27467C32.5571 9.47398 32.5814 9.62467 32.3917 9.82884C31.9539 10.3052 31.6718 10.8886 31.6426 11.5594C31.6328 11.7781 31.6912 11.9969 31.9393 11.9969C32.1728 11.9969 32.3528 11.8705 32.3625 11.5837C32.3674 11.4087 32.4403 11.2386 32.4987 11.0101C32.7371 11.6275 32.3722 11.992 32.1242 12.3955C31.9782 12.6386 31.8274 12.8816 31.7301 13.1441C31.6815 13.2754 31.7058 13.5379 31.7934 13.5865C31.9053 13.6545 32.1242 13.6108 32.2652 13.5427C32.3771 13.4893 32.4355 13.3337 32.5279 13.2122C32.7225 13.6886 32.3236 13.9802 32.1728 14.3448C32.0317 14.6754 31.8663 15.0011 31.7107 15.3219C31.5842 15.5893 31.662 15.7886 31.9198 15.8906C32.1777 15.9927 32.3041 15.8031 32.4014 15.6038C32.4403 15.5212 32.4695 15.4337 32.5182 15.2976C32.669 16.0462 32.5084 16.683 32.202 17.3004C32.0123 17.6795 32.1193 17.8545 32.5376 17.9469C32.6203 18.4038 32.5765 18.817 32.2555 19.1962C32.0755 19.4052 31.9442 19.6677 31.8274 19.9205C31.7885 20.008 31.8274 20.1879 31.9004 20.2559C31.9831 20.3386 32.1387 20.3677 32.2652 20.3775C32.3479 20.3823 32.4306 20.3094 32.5182 20.2705C32.5474 20.29 32.5717 20.3143 32.6009 20.3337C32.5279 20.4309 32.4549 20.5281 32.382 20.6205C32.2993 20.7275 32.202 20.8247 32.129 20.9365C31.9636 21.1941 31.8226 21.4615 31.6523 21.7143C31.5015 21.9379 31.5453 22.108 31.735 22.2636C31.9442 22.4337 32.0901 22.283 32.2117 22.1469C32.3528 21.9865 32.4598 21.792 32.6349 21.5393C32.6349 22.0011 32.6982 22.39 32.6155 22.7448C32.5376 23.0705 32.3382 23.3816 32.129 23.6538C31.9685 23.8677 31.7982 24.0379 32.0025 24.2906C32.2068 24.5483 32.3966 24.3587 32.5863 24.2469C32.6155 24.2323 32.6495 24.2275 32.6738 24.2226C32.8684 24.8497 32.4939 25.2775 32.1533 25.7004C31.9393 25.9677 31.9539 26.1816 32.2117 26.3906C32.2068 26.4101 32.202 26.4295 32.202 26.449L32.2068 26.4441Z" fill="#FF7A00"/>
<path d="M32.207 26.4445C32.207 26.4445 32.207 26.4056 32.2168 26.3861C32.3967 26.3472 32.5767 26.3084 32.8443 26.2549C32.7373 26.3424 32.674 26.4396 32.5913 26.4591C32.4697 26.4834 32.3384 26.4591 32.2119 26.4493L32.207 26.4445Z" fill="#FF7A00"/>
<path d="M30.7812 26.449C30.7812 26.449 30.7813 26.4101 30.7958 26.3906C30.8153 26.4101 30.8348 26.4247 30.8542 26.4441C30.8299 26.4441 30.8056 26.4441 30.7812 26.4441V26.449Z" fill="#FF7A00"/>
<path d="M30.573 27.1934C30.573 27.1934 30.539 27.2274 30.5195 27.2468C30.539 27.2274 30.5536 27.2128 30.573 27.1934Z" fill="#C0DAF0"/>
<path d="M32.6389 27.2517C32.6389 27.2517 32.634 27.2079 32.6389 27.1885L32.6924 27.1982C32.6924 27.1982 32.6583 27.2371 32.6437 27.2517H32.6389Z" fill="#C0DAF0"/>
<path d="M21.1422 18.6224C20.252 18.6711 19.3618 18.7391 18.4716 18.7634C17.5133 18.7877 16.5501 18.7974 15.5918 18.7634C14.6676 18.7294 13.7482 18.6273 12.8288 18.5592C12.1769 18.5106 11.5202 18.4523 10.8684 18.4183C9.62309 18.3599 8.37292 18.321 7.12761 18.2724C6.42226 18.2481 5.71204 18.2384 5.00669 18.1947C4.52024 18.1655 4.02893 18.1217 3.54734 18.0391C3.42573 18.0197 3.25547 17.8447 3.23601 17.7183C3.13386 17.1252 3.07549 16.5224 3.00252 15.9245C2.90523 15.1419 2.80794 14.3592 2.72038 13.5766C2.68146 13.2266 2.66687 12.8766 2.64741 12.5217C2.59877 11.6808 2.53553 10.8349 2.51121 9.99397C2.45283 8.2148 2.39446 6.43563 2.375 4.65161C2.375 4.31133 2.53553 3.96619 2.662 3.64049C2.69606 3.54813 2.88577 3.47036 3.00252 3.46063C4.29647 3.4023 5.59043 3.35369 6.88438 3.3148C7.86214 3.28563 8.84477 3.26133 9.82253 3.24188C11.0873 3.21272 12.3521 3.17383 13.6168 3.17383C14.8476 3.17383 16.0734 3.20786 17.3041 3.24674C18.384 3.28077 19.4688 3.32938 20.5487 3.38772C21.2054 3.42174 21.8573 3.47036 22.5091 3.53355C22.8399 3.56758 23.1172 3.67452 23.1901 4.08286C23.3264 4.86549 23.5258 5.63355 23.6523 6.41619C23.7982 7.30577 23.9004 8.20508 24.0122 9.10438C24.0512 9.41549 24.0706 9.73147 24.0901 10.0474C24.1193 10.6356 24.1485 11.2238 24.1582 11.812C24.1874 13.4308 24.2117 15.0495 24.2263 16.6731C24.2263 17.0231 24.2068 17.378 24.1533 17.7231C24.0998 18.0683 23.8323 18.253 23.5209 18.3405C23.1707 18.4377 22.8059 18.5106 22.4459 18.5495C22.0129 18.5981 21.58 18.6079 21.1471 18.637C21.1471 18.637 21.1471 18.6273 21.1471 18.6224H21.1422ZM4.27702 6.36758C4.53483 6.34813 4.78779 6.31897 5.0456 6.31411C6.1693 6.28494 7.293 6.25577 8.41183 6.24119C10.6933 6.21202 12.9796 6.18772 15.261 6.17799C15.9567 6.17799 16.6523 6.22661 17.3479 6.23633C18.5689 6.24605 19.7947 6.23633 21.0157 6.23633C21.6238 6.23633 22.2318 6.23633 22.9177 6.23633C22.7815 5.5898 22.6453 4.91897 22.5091 4.27244C21.7211 4.20924 20.9817 4.14119 20.2471 4.1023C19.0845 4.04397 17.917 3.99536 16.7496 3.95647C15.8399 3.9273 14.9302 3.89813 14.0157 3.90299C12.751 3.90299 11.4813 3.93702 10.2166 3.95647C9.04421 3.97591 7.87674 4.00022 6.7044 4.02938C5.98445 4.04883 5.26451 4.07313 4.54456 4.1023C4.49592 4.1023 4.44727 4.14605 4.39863 4.17036C4.07757 4.17036 3.76138 4.17522 3.44032 4.17036C3.24574 4.16549 3.11927 4.20438 3.11927 4.43286C3.12413 5.07938 3.11927 5.72105 3.11927 6.36758H4.26242H4.27702ZM7.9643 14.3933C8.07132 15.2585 8.15401 16.0655 8.29022 16.8579C8.334 17.1058 8.334 17.271 8.08591 17.3391C7.76972 17.4217 7.60919 17.3002 7.56055 16.9648C7.45839 16.2211 7.36597 15.4724 7.27841 14.7238C7.25408 14.5051 7.16166 14.4079 6.91843 14.4176C5.99904 14.4565 5.07966 14.471 4.16027 14.4954C4.04352 14.4954 3.90731 14.4613 3.81002 14.5051C3.71273 14.5488 3.57653 14.6801 3.58139 14.7579C3.65923 15.5308 3.74679 16.3037 3.8684 17.0669C3.88786 17.1933 4.05325 17.3731 4.17486 17.3974C4.52997 17.4606 4.89481 17.4704 5.25964 17.4801C6.21308 17.5092 7.17139 17.519 8.12483 17.5579C9.12205 17.5967 10.1193 17.6551 11.1165 17.694C11.3938 17.7037 11.6662 17.694 11.9045 17.694C11.8462 16.5516 11.7878 15.4579 11.7343 14.3884H7.96916L7.9643 14.3933ZM12.4542 14.403C12.5077 15.3995 12.5515 16.4058 12.6293 17.4072C12.6391 17.5579 12.7704 17.8058 12.8774 17.8252C13.3687 17.9127 13.8698 17.9662 14.3708 17.9808C15.2999 18.0099 16.2291 18.0051 17.1533 18.0099C17.5327 18.0099 17.9073 18.0099 18.3159 18.0099C18.1992 16.7947 18.0873 15.6231 17.9706 14.403H12.4542ZM17.9608 10.1787C18.0192 10.4898 18.0678 10.7377 18.1068 10.9856C18.2478 11.8023 18.4084 12.619 18.5202 13.4405C18.5543 13.6933 18.6564 13.7127 18.8608 13.7176C19.8045 13.7322 20.7482 13.7613 21.6968 13.7856C21.7794 13.7856 21.8573 13.8148 21.94 13.8197C22.4653 13.8197 22.9907 13.8197 23.5307 13.8197C23.4723 12.5995 23.4139 11.394 23.3604 10.1836H17.9608V10.1787ZM17.236 10.2808H12.2499C12.3083 11.4134 12.3667 12.4877 12.425 13.6009H17.7954C17.6057 12.4829 17.4209 11.3599 17.236 10.2808ZM19.0261 17.9856C18.9921 17.9711 19.0018 17.9856 19.0116 17.9808C20.3347 17.9127 21.6578 17.8544 22.981 17.762C23.2437 17.7426 23.5355 17.6162 23.4528 17.2224C23.4285 17.1106 23.448 16.9842 23.4528 16.8676C23.4869 16.1287 23.5209 15.3947 23.555 14.6217C21.8865 14.5537 20.2861 14.4856 18.7245 14.4176C18.8267 15.6329 18.9289 16.7995 19.031 17.9856H19.0261ZM23.0345 6.99466H17.8198C17.8198 7.71897 17.8149 8.45786 17.8198 9.19674C17.8198 9.39119 17.9511 9.45438 18.1505 9.45438C18.9921 9.44466 19.8337 9.44466 20.6752 9.44952C21.0303 9.44952 21.3854 9.44466 21.7405 9.45924C22.2562 9.47869 22.7669 9.51758 23.2972 9.54674C23.2047 8.67661 23.1172 7.86966 23.0248 7.00438L23.0345 6.99466ZM7.37083 10.3731C7.4438 10.869 7.50704 11.2822 7.56541 11.7051C7.64324 12.2787 7.69675 12.8572 7.78918 13.4259C7.80377 13.5086 7.95457 13.6349 8.04213 13.6349C9.25339 13.6495 10.4646 13.6447 11.7051 13.6447C11.6419 12.4683 11.5835 11.394 11.53 10.3731H7.37083ZM17.0706 6.94605H12.1964C12.1964 7.78702 12.1915 8.58911 12.2061 9.38633C12.2061 9.45438 12.3521 9.57105 12.4299 9.57105C12.6585 9.57105 12.892 9.51272 13.1255 9.51272C14.1811 9.50299 15.2367 9.51272 16.2972 9.50786C16.5696 9.50786 16.842 9.46411 17.0755 9.4398V6.94119L17.0706 6.94605ZM7.10815 13.6641C6.94762 12.5558 6.79196 11.5009 6.63629 10.4315C5.498 10.4801 4.39863 10.5238 3.25061 10.5724C3.33817 11.6662 3.42087 12.7113 3.50356 13.8099C4.70995 13.7613 5.89203 13.7127 7.10328 13.6641H7.10815ZM7.25408 9.68772C8.69397 9.63911 10.0804 9.59536 11.5008 9.54674C11.4521 8.63286 11.4084 7.80161 11.3646 6.92661C9.94901 6.96549 8.58695 6.99952 7.25895 7.03355V9.68772H7.25408ZM6.49522 9.69744V7.06758H3.08522C3.129 8.00091 3.16791 8.88563 3.21169 9.82869C4.34998 9.78494 5.45422 9.74119 6.49522 9.69744Z" fill="#222222"/>
<path d="M13.5898 27.0227C13.6434 25.7685 13.7455 24.631 14.2417 23.5664C14.806 22.3609 15.7545 21.656 17.0582 21.481C19.3932 21.165 21.3925 21.8748 22.9297 23.6637C23.922 24.8206 24.0874 26.2109 23.6934 27.6595C23.2264 29.3706 22.0395 30.4255 20.4536 31.1012C19.7045 31.422 18.9165 31.563 18.1284 31.5727C16.8296 31.5873 15.6427 31.1643 14.6892 30.2602C14.0714 29.672 13.7406 28.9088 13.6823 28.0387C13.6579 27.6643 13.619 27.2949 13.5947 27.0178L13.5898 27.0227ZM17.1652 30.722C17.6225 30.7463 18.0798 30.7949 18.537 30.7949C19.2327 30.7949 19.8748 30.5616 20.4877 30.2845C20.225 30.1727 19.9575 30.09 19.724 29.9539C19.544 29.8518 19.4418 29.6866 19.5829 29.4484C19.7191 29.2199 19.8991 29.322 20.0791 29.3317C20.3709 29.3512 20.6774 29.4143 20.9547 29.356C21.2514 29.2928 21.4946 29.2685 21.7233 29.531C22.0103 29.2005 22.273 28.8893 22.5405 28.5782C22.5162 28.5539 22.4967 28.5296 22.4724 28.5102C22.2778 28.6414 22.093 28.8164 21.8741 28.8893C21.7281 28.9428 21.4849 28.9137 21.3779 28.8164C21.3001 28.7435 21.3244 28.3935 21.3925 28.3595C21.9519 28.1067 22.2535 27.465 22.9151 27.3727C22.9783 27.363 23.0561 27.2463 23.0659 27.1734C23.1096 26.8866 23.134 26.59 23.1437 26.2984C23.1437 26.2109 23.0902 26.1185 23.0513 25.9921C22.7254 26.2741 22.4481 26.5171 22.1611 26.7602C21.986 26.9109 21.7622 26.9546 21.6503 26.7505C21.5822 26.6192 21.6211 26.347 21.7184 26.2303C21.9762 25.9289 22.2924 25.6713 22.5891 25.3991C22.6962 25.3018 22.8032 25.2095 22.9248 25.0977C22.8956 25.0248 22.8713 24.9227 22.8178 24.8303C22.7691 24.7477 22.6962 24.6748 22.6329 24.597C22.56 24.665 22.4821 24.7234 22.4189 24.7963C22.2535 24.981 22.0978 25.1706 21.9324 25.3505C21.7816 25.5109 21.6065 25.5887 21.4265 25.4039C21.2465 25.2241 21.2757 25.0393 21.4363 24.8449C21.6941 24.5289 21.9276 24.1984 22.1562 23.897C21.9519 23.5567 21.767 23.5178 21.5822 23.8484C21.5579 23.8873 21.5336 23.9262 21.5092 23.965C21.3633 24.1692 21.1979 24.3248 20.9304 24.1692C20.7406 24.0574 20.7455 23.7512 20.9206 23.513C21.0276 23.372 21.1347 23.2262 21.2417 23.0803C20.6628 22.7255 20.6774 22.7352 20.3369 23.2796C20.2542 23.4109 20.0061 23.5324 19.8602 23.5081C19.6169 23.4692 19.6121 23.2116 19.6753 23.0123C19.7337 22.8275 19.8358 22.6623 19.938 22.4484C19.2764 22.2345 18.6246 22.1178 17.9436 22.1178C17.7149 22.1373 17.4814 22.1518 17.2528 22.1762C15.9734 22.3366 15.1465 23.0512 14.733 24.247C14.3049 25.4866 14.2271 26.7699 14.3925 28.063C14.4363 28.4275 14.5725 28.8067 14.7573 29.1275C15.2778 30.056 16.1583 30.4838 17.1555 30.7123L17.1652 30.722Z" fill="#222222"/>
<path d="M2.12205 24.3977C2.27285 24.1596 2.37501 23.9359 2.53067 23.7658C2.92469 23.3429 3.38195 22.9686 3.74679 22.5214C4.09217 22.0984 4.93373 22.1859 5.19641 22.6721C5.49314 23.2116 5.72664 23.7852 5.98932 24.3443C6.06715 24.5096 6.12066 24.6894 6.21309 24.8401C6.37848 25.0977 6.22282 25.2582 6.03797 25.3602C5.84339 25.4672 5.6634 25.3991 5.56125 25.1609C5.30829 24.563 5.04075 23.97 4.76833 23.3769C4.71483 23.2651 4.64186 23.1387 4.54457 23.0755C4.46674 23.0269 4.28189 23.0172 4.23324 23.0707C3.78571 23.5762 3.18251 23.9408 2.88091 24.5825C2.83227 24.6894 2.57931 24.7526 2.42851 24.738C2.33122 24.7283 2.24366 24.5484 2.11719 24.4026L2.12205 24.3977Z" fill="#222222"/>
<path d="M9.75389 22.1962C10.216 22.2594 10.6781 22.6435 10.8873 23.149C11.1208 23.7226 11.3446 24.3011 11.617 24.8553C11.7386 25.1081 11.6365 25.249 11.4662 25.3511C11.2667 25.4726 11.077 25.4046 10.9749 25.181C10.756 24.6997 10.5468 24.2185 10.3328 23.7324C10.323 23.7129 10.3328 23.6837 10.323 23.6643C10.0166 22.8719 9.85118 22.8282 9.27231 23.431C8.91234 23.8101 8.45994 24.1067 8.25077 24.6268C8.21671 24.7094 7.96376 24.7435 7.81783 24.7289C7.74486 24.724 7.62325 24.5393 7.6427 24.4615C7.69621 24.2331 7.75945 23.9803 7.91025 23.8101C8.3286 23.3435 8.781 22.906 9.23826 22.4733C9.37933 22.3421 9.58364 22.2789 9.75876 22.1865L9.75389 22.1962Z" fill="#222222"/>
<path d="M9.20914 28.7244C9.25292 27.3828 9.29184 26.046 9.34048 24.7043C9.35021 24.4564 9.45236 24.2376 9.76369 24.2571C10.0458 24.2716 10.1383 24.4564 10.1237 24.7091C10.0556 25.8758 9.97773 27.0473 9.91449 28.214C9.89503 28.6175 9.90476 29.021 9.91449 29.4244C9.91935 29.6918 9.8172 29.8133 9.54479 29.8133C9.28211 29.8133 9.19454 29.6772 9.19941 29.439C9.20427 29.2008 9.19941 28.9626 9.19941 28.7293C9.19941 28.7293 9.20914 28.7293 9.214 28.7293L9.20914 28.7244Z" fill="#222222"/>
<path d="M4.69353 25.1513C4.64975 26.2207 4.60597 27.2853 4.55732 28.3548C4.54273 28.7145 4.49895 29.0791 4.49408 29.4388C4.49408 29.6673 4.41625 29.7839 4.17789 29.8131C3.91521 29.8423 3.7936 29.6964 3.78387 29.4825C3.75954 29.0791 3.75954 28.6756 3.78387 28.277C3.81305 27.6839 3.88602 27.0909 3.92007 26.4978C3.95899 25.8659 3.97358 25.2291 3.99304 24.5923C4.00277 24.3589 4.11465 24.2568 4.34815 24.2568C4.58164 24.2568 4.70812 24.3492 4.70812 24.5874C4.70812 24.777 4.70812 24.9666 4.70812 25.1561C4.70812 25.1561 4.70326 25.1561 4.69839 25.1561L4.69353 25.1513Z" fill="#222222"/>
<path d="M4.40753 4.17068C4.45618 4.14638 4.50482 4.10749 4.55347 4.10263C5.27341 4.07346 5.99336 4.04429 6.7133 4.02971C7.88564 4.00054 9.05312 3.97624 10.2255 3.95679C11.4902 3.93249 12.7599 3.90332 14.0246 3.90332C14.9343 3.90332 15.8439 3.92763 16.7585 3.95679C17.9259 3.99568 19.0886 4.03943 20.256 4.10263C20.9954 4.14151 21.73 4.21443 22.518 4.27276C22.6542 4.91929 22.7904 5.59013 22.9266 6.23665C22.2407 6.23665 21.6327 6.23665 21.0246 6.23665C19.8036 6.23665 18.5778 6.24151 17.3568 6.23665C16.6612 6.23179 15.9656 6.17832 15.2699 6.17832C12.9885 6.18804 10.7022 6.21235 8.42074 6.24151C7.29704 6.2561 6.17334 6.28526 5.05451 6.31443C4.79669 6.31929 4.54374 6.35332 4.28592 6.3679C4.28592 6.28526 4.29565 6.20263 4.28592 6.11999C4.15458 5.45888 4.1789 4.80749 4.42213 4.17068H4.40753Z" fill="#FF7A00"/>
<path d="M17.9632 22.1279C18.6394 22.1279 19.2961 22.2446 19.9577 22.4585C19.8555 22.6675 19.7485 22.8377 19.695 23.0224C19.6318 23.2217 19.6366 23.4793 19.8799 23.5182C20.0258 23.5425 20.2739 23.421 20.3566 23.2897C20.6971 22.7453 20.6776 22.7356 21.2614 23.0904C21.1544 23.2363 21.0473 23.3821 20.9403 23.5231C20.7603 23.7564 20.7603 24.0675 20.95 24.1793C21.2176 24.3349 21.383 24.1793 21.5289 23.9752C21.5581 23.9363 21.5824 23.8974 21.6019 23.8585C21.7867 23.5279 21.9716 23.5668 22.1759 23.9071C21.9473 24.2085 21.7089 24.539 21.456 24.855C21.3003 25.0495 21.2662 25.2293 21.4462 25.414C21.6311 25.5988 21.8013 25.521 21.9521 25.3606C22.1175 25.1807 22.2732 24.9863 22.4386 24.8064C22.5018 24.7335 22.5796 24.6752 22.6526 24.6071C22.7159 24.6849 22.7888 24.7529 22.8375 24.8404C22.891 24.9279 22.9153 25.0349 22.9445 25.1078C22.8229 25.2147 22.711 25.312 22.6088 25.4092C22.3121 25.6814 21.9959 25.9342 21.7381 26.2404C21.6408 26.3571 21.6019 26.6293 21.67 26.7606C21.7819 26.9647 22.0056 26.921 22.1808 26.7703C22.4629 26.5272 22.745 26.2842 23.071 26.0022C23.1099 26.1238 23.1683 26.2161 23.1634 26.3085C23.1488 26.6002 23.1245 26.8918 23.0856 27.1835C23.0758 27.2613 22.9931 27.3779 22.9348 27.3828C22.2732 27.4752 21.9716 28.1168 21.4122 28.3696C21.3441 28.3988 21.3197 28.7536 21.3976 28.8265C21.4997 28.9238 21.7478 28.9529 21.8938 28.8995C22.1127 28.8217 22.2926 28.6515 22.4921 28.5203C22.5164 28.5446 22.5359 28.5689 22.5602 28.5883C22.2926 28.8995 22.0251 29.2106 21.743 29.5411C21.5143 29.2786 21.2711 29.2981 20.9744 29.3661C20.6971 29.4245 20.3906 29.3613 20.0988 29.3418C19.9188 29.3321 19.7388 29.23 19.6026 29.4585C19.4615 29.6918 19.5637 29.8571 19.7437 29.964C19.9771 30.1002 20.2447 30.1828 20.5074 30.2946C19.8896 30.5717 19.2523 30.805 18.5567 30.805C18.0995 30.805 17.6422 30.7564 17.1849 30.7321C17.1557 30.6835 17.1411 30.6203 17.1022 30.5911C15.9591 29.8522 15.5359 28.7585 15.5553 27.4508C15.5651 26.9356 15.5553 26.4106 15.638 25.9002C15.7353 25.2682 15.8569 24.6314 16.0758 24.0335C16.4066 23.1245 17.1022 22.5265 17.9778 22.1377L17.9632 22.1279ZM18.0216 28.1703C18.0216 28.1703 18.0265 28.2189 18.0216 28.2529C18.0168 28.5397 18.1043 28.7779 18.4254 28.8022C18.6978 28.8217 18.7999 28.5738 18.7464 28.1849C18.7367 28.1022 18.8145 27.9856 18.8875 27.9224C18.9799 27.8446 19.1113 27.8106 19.2183 27.7425C19.7874 27.3682 20.1523 26.6731 19.5637 26.0022C19.2767 25.6717 18.8437 25.6182 18.4351 25.5258C18.2162 25.4724 17.8173 25.5453 17.8319 25.205C17.8465 24.8988 18.2065 24.8258 18.4789 24.7675C18.5713 24.7481 18.6832 24.7967 18.7756 24.8404C18.9945 24.9425 19.1745 24.9377 19.3156 24.7189C19.4712 24.4807 19.335 24.33 19.1453 24.2036C19.0967 24.1696 19.048 24.1258 18.9945 24.121C18.7124 24.1015 18.5664 24.014 18.7172 23.7029C18.7464 23.6397 18.7075 23.4939 18.654 23.4502C18.5421 23.3675 18.3378 23.2411 18.2746 23.2849C18.1335 23.387 17.9584 23.5814 17.9681 23.7272C17.9924 24.0627 17.8368 24.2328 17.5838 24.3786C17.5449 24.4029 17.506 24.4321 17.4719 24.4661C17.1801 24.7238 17.039 25.0446 17.0974 25.4286C17.1509 25.7883 17.4087 25.9974 17.7298 26.1043C18.0459 26.2064 18.3913 26.2258 18.7027 26.3425C18.8583 26.4008 19.0237 26.571 19.0724 26.7217C19.1502 26.955 18.9799 27.1397 18.7464 27.1835C18.3865 27.2515 18.0168 27.2856 17.6471 27.3245C17.3795 27.3536 17.2433 27.2467 17.219 26.9502C17.2093 26.8286 17.0439 26.6779 16.9125 26.6245C16.7082 26.537 16.5915 26.6925 16.538 26.8821C16.4358 27.2321 16.5769 27.6696 16.9028 27.8203C17.2384 27.9758 17.613 28.0536 18.0119 28.18L18.0216 28.1703Z" fill="#C0DAF0"/>
<path d="M18.0228 28.1746C17.624 28.0482 17.2543 27.9704 16.9137 27.8149C16.583 27.6593 16.4468 27.2218 16.5489 26.8767C16.6024 26.6871 16.7192 26.5315 16.9235 26.619C17.0548 26.6725 17.2202 26.8232 17.2299 26.9447C17.2543 27.2413 17.3905 27.3482 17.658 27.3191C18.0228 27.2802 18.3925 27.2461 18.7574 27.1781C18.9909 27.1343 19.1611 26.9545 19.0833 26.7163C19.0347 26.5607 18.8644 26.3906 18.7136 26.3371C18.4023 26.2204 18.0569 26.201 17.7407 26.0989C17.4196 25.9968 17.1618 25.7829 17.1083 25.4232C17.0499 25.0392 17.191 24.7184 17.4829 24.4607C17.5169 24.4315 17.5559 24.3975 17.5948 24.3732C17.8477 24.2274 17.9985 24.0572 17.9791 23.7218C17.9693 23.576 18.1445 23.3815 18.2855 23.2795C18.3439 23.2357 18.5531 23.3621 18.665 23.4447C18.7233 23.4885 18.7574 23.6343 18.7282 23.6975C18.5774 24.0086 18.7282 24.0961 19.0055 24.1156C19.059 24.1156 19.1076 24.1642 19.1563 24.1982C19.346 24.3246 19.4822 24.4753 19.3265 24.7135C19.1855 24.9322 19.0006 24.9371 18.7866 24.835C18.6941 24.7913 18.5823 24.7427 18.4898 24.7621C18.2174 24.8204 17.8575 24.8982 17.8429 25.1996C17.8283 25.5447 18.2272 25.4718 18.4461 25.5204C18.8547 25.6177 19.2876 25.6663 19.5746 25.9968C20.1584 26.6677 19.7984 27.3677 19.2292 27.7371C19.1271 27.8052 18.9909 27.8343 18.8985 27.917C18.8255 27.9802 18.7477 28.0968 18.7574 28.1795C18.8109 28.5732 18.7087 28.8163 18.4363 28.7968C18.1153 28.7774 18.0228 28.5343 18.0326 28.2475C18.0326 28.2135 18.0326 28.1746 18.0326 28.1649L18.0228 28.1746Z" fill="#222222"/>
</g>
<defs>
<clipPath id="clip0_329_3276">
<rect width="35" height="35" fill="white"/>
</clipPath>
</defs>
</svg>
