<svg width="60" height="61" viewBox="0 0 60 61" fill="none" xmlns="http://www.w3.org/2000/svg">
    <circle cx="30" cy="30.2773" r="30" fill="none" />
    <circle cx="26.5" cy="22.5" r="5.5" fill="#FF7A00" />
    <path
        d="M33.7513 22.7773C33.7513 18.6411 30.3875 15.2773 26.2513 15.2773C22.115 15.2773 18.7512 18.6411 18.7512 22.7773C18.7512 26.9136 22.115 30.2773 26.2513 30.2773C30.3875 30.2773 33.7513 26.9136 33.7513 22.7773ZM26.2513 27.7773C23.4938 27.7773 21.2512 25.5348 21.2512 22.7773C21.2512 20.0198 23.4938 17.7773 26.2513 17.7773C29.0088 17.7773 31.2513 20.0198 31.2513 22.7773C31.2513 25.5348 29.0088 27.7773 26.2513 27.7773ZM26.2413 33.9498C26.3263 34.6348 25.8413 35.2586 25.155 35.3448C20.7913 35.8898 17.5 39.6211 17.5 44.0273C17.5 44.7173 16.94 45.2773 16.25 45.2773C15.56 45.2773 15 44.7173 15 44.0273C15 38.3636 19.2325 33.5648 24.845 32.8648C25.5225 32.7786 26.1538 33.2648 26.24 33.9511L26.2413 33.9498ZM43.3712 39.1936L42.1537 38.4911C42.3612 37.8698 42.5012 37.2173 42.5012 36.5261C42.5012 35.8348 42.3625 35.1823 42.1537 34.5611L43.3712 33.8586C43.9687 33.5136 44.1737 32.7486 43.8288 32.1511C43.4825 31.5523 42.72 31.3461 42.1212 31.6936L40.905 32.3961C40.0237 31.4036 38.85 30.6773 37.5012 30.4036V29.0273C37.5012 28.3373 36.9412 27.7773 36.2512 27.7773C35.5612 27.7773 35.0012 28.3373 35.0012 29.0273V30.4036C33.6525 30.6786 32.4788 31.4048 31.5975 32.3961L30.3813 31.6936C29.7812 31.3473 29.0188 31.5523 28.6737 32.1511C28.3288 32.7498 28.5338 33.5136 29.1313 33.8586L30.3488 34.5611C30.1413 35.1823 30.0013 35.8348 30.0013 36.5261C30.0013 37.2173 30.14 37.8698 30.3488 38.4911L29.1313 39.1936C28.5338 39.5386 28.3288 40.3036 28.6737 40.9011C28.9062 41.3023 29.325 41.5261 29.7575 41.5261C29.9688 41.5261 30.1838 41.4723 30.3813 41.3586L31.5975 40.6561C32.4788 41.6486 33.6525 42.3748 35.0012 42.6486V44.0248C35.0012 44.7148 35.5612 45.2748 36.2512 45.2748C36.9412 45.2748 37.5012 44.7148 37.5012 44.0248V42.6486C38.85 42.3736 40.0237 41.6473 40.905 40.6561L42.1212 41.3586C42.3187 41.4723 42.5337 41.5261 42.745 41.5261C43.1775 41.5261 43.5975 41.3023 43.8288 40.9011C44.1737 40.3023 43.9687 39.5386 43.3712 39.1936ZM36.2512 40.2761C34.1838 40.2761 32.5013 38.5936 32.5013 36.5261C32.5013 34.4586 34.1838 32.7761 36.2512 32.7761C38.3187 32.7761 40.0012 34.4586 40.0012 36.5261C40.0012 38.5936 38.3187 40.2761 36.2512 40.2761Z"
        fill="black" />
</svg>