<svg width="29" height="31" viewBox="0 0 29 31" fill="none" xmlns="http://www.w3.org/2000/svg">
<path d="M18.7513 7.77734C18.7513 3.64109 15.3875 0.277344 11.2513 0.277344C7.115 0.277344 3.75125 3.64109 3.75125 7.77734C3.75125 11.9136 7.115 15.2773 11.2513 15.2773C15.3875 15.2773 18.7513 11.9136 18.7513 7.77734ZM11.2513 12.7773C8.49375 12.7773 6.25125 10.5348 6.25125 7.77734C6.25125 5.01984 8.49375 2.77734 11.2513 2.77734C14.0088 2.77734 16.2513 5.01984 16.2513 7.77734C16.2513 10.5348 14.0088 12.7773 11.2513 12.7773ZM11.2413 18.9498C11.3263 19.6348 10.8413 20.2586 10.155 20.3448C5.79125 20.8898 2.5 24.6211 2.5 29.0273C2.5 29.7173 1.94 30.2773 1.25 30.2773C0.56 30.2773 0 29.7173 0 29.0273C0 23.3636 4.2325 18.5648 9.845 17.8648C10.5225 17.7786 11.1538 18.2648 11.24 18.9511L11.2413 18.9498ZM28.3712 24.1936L27.1537 23.4911C27.3612 22.8698 27.5012 22.2173 27.5012 21.5261C27.5012 20.8348 27.3625 20.1823 27.1537 19.5611L28.3712 18.8586C28.9687 18.5136 29.1737 17.7486 28.8288 17.1511C28.4825 16.5523 27.72 16.3461 27.1212 16.6936L25.905 17.3961C25.0237 16.4036 23.85 15.6773 22.5012 15.4036V14.0273C22.5012 13.3373 21.9412 12.7773 21.2512 12.7773C20.5612 12.7773 20.0012 13.3373 20.0012 14.0273V15.4036C18.6525 15.6786 17.4788 16.4048 16.5975 17.3961L15.3813 16.6936C14.7812 16.3473 14.0188 16.5523 13.6737 17.1511C13.3288 17.7498 13.5338 18.5136 14.1313 18.8586L15.3488 19.5611C15.1413 20.1823 15.0013 20.8348 15.0013 21.5261C15.0013 22.2173 15.14 22.8698 15.3488 23.4911L14.1313 24.1936C13.5338 24.5386 13.3288 25.3036 13.6737 25.9011C13.9062 26.3023 14.325 26.5261 14.7575 26.5261C14.9688 26.5261 15.1838 26.4723 15.3813 26.3586L16.5975 25.6561C17.4788 26.6486 18.6525 27.3748 20.0012 27.6486V29.0248C20.0012 29.7148 20.5612 30.2748 21.2512 30.2748C21.9412 30.2748 22.5012 29.7148 22.5012 29.0248V27.6486C23.85 27.3736 25.0237 26.6473 25.905 25.6561L27.1212 26.3586C27.3187 26.4723 27.5337 26.5261 27.745 26.5261C28.1775 26.5261 28.5975 26.3023 28.8288 25.9011C29.1737 25.3023 28.9687 24.5386 28.3712 24.1936ZM21.2512 25.2761C19.1838 25.2761 17.5013 23.5936 17.5013 21.5261C17.5013 19.4586 19.1838 17.7761 21.2512 17.7761C23.3187 17.7761 25.0012 19.4586 25.0012 21.5261C25.0012 23.5936 23.3187 25.2761 21.2512 25.2761Z" fill="black"/>
</svg>
