<svg width="36" height="35" viewBox="0 0 36 35" fill="none" xmlns="http://www.w3.org/2000/svg">
<g clip-path="url(#clip0_329_3216)">
<path d="M23.5584 16.0514C24.307 16.0514 25.0557 16.0417 25.8044 16.0368C25.8339 16.0417 25.8585 16.0465 25.8881 16.0514C27.9765 16.0514 30.0698 16.0417 32.1582 16.0417C33.158 16.0417 34.153 16.0514 35.1528 16.0611C35.4976 16.066 35.8522 16.4208 35.9409 16.9361C36.0246 17.4417 36.0788 18.0201 35.6749 18.3944C35.271 18.7639 35.34 19.1771 35.34 19.6049C35.34 24.1889 35.3351 28.7681 35.34 33.3521C35.34 34.6014 34.8376 34.7375 33.7737 34.9271C33.7294 34.9368 33.6801 34.9271 33.6309 34.9271C32.434 34.9271 32.3404 34.7861 32.1483 33.6097C31.8282 31.6653 31.8774 29.7111 31.8774 27.7569C31.8774 26.9403 31.9168 26.1188 31.9464 25.3021C31.9661 24.6944 32.0005 24.0819 32.0153 23.4743C32.0449 22.0889 32.0547 20.6986 32.0941 19.3132C32.104 19.0167 32.0301 18.9 31.705 18.9146C31.1287 18.9389 30.5525 18.9146 29.9762 18.9146C29.9466 18.9049 29.9171 18.8951 29.8875 18.8806C27.2968 18.8951 24.706 18.9146 22.1201 18.9146C20.6474 18.9146 19.1796 18.8903 17.7069 18.8806C17.6528 18.8903 17.6035 18.9 17.5493 18.9097H12.4712V19.3181C12.4712 24.0868 12.4663 28.8556 12.4811 33.6194C12.4811 34.0861 12.2545 34.3535 11.9097 34.5674C11.4369 34.8639 10.9148 35.0146 10.3483 34.9903C9.58982 34.9611 8.8313 34.9271 8.07279 34.9222C6.04843 34.9125 4.02901 34.9222 2.00465 34.9222C1.29539 34.9222 1.17718 34.8785 0.999863 34.2125C0.847175 33.6389 0.73389 33.0361 0.719113 32.4431C0.664934 30.4306 0.630456 28.4181 0.640306 26.4056C0.645232 24.85 0.724039 23.2944 0.773293 21.7389C0.792995 21.1993 0.832398 20.6597 0.837324 20.1201C0.837324 19.741 0.79792 19.3667 0.768368 18.9875C0.768368 18.934 0.743741 18.8514 0.709263 18.8417C0.231495 18.6569 0.167465 18.2 0 17.8063C0 17.6653 0 17.5292 0 17.3882C0.182241 17.0382 0.34478 16.6736 0.546723 16.3333C0.67971 16.1097 0.916131 16.0611 1.1821 16.0611C5.54111 16.066 9.8952 16.0611 14.2542 16.0708C14.5694 16.0708 14.7615 16.0125 14.8797 15.6868C15.1359 14.9771 15.4314 14.2819 15.7466 13.4896C15.0915 13.4896 14.4906 13.4701 13.8848 13.4896C13.0721 13.5188 12.2643 13.6063 11.4516 13.6111C10.9542 13.6111 10.4567 13.5576 9.99863 13.3C9.25982 12.8868 9.0628 12.2257 9.09728 11.4576C9.13176 10.6556 9.23026 9.85833 9.22534 9.05625C9.22534 8.10347 9.14653 7.15069 9.09728 6.20278C9.05787 5.44931 8.94459 4.69097 8.96922 3.94236C9.00369 2.89236 9.08743 1.8375 9.53072 0.855556C9.70311 0.48125 10.304 0.0583333 10.7325 0.0534722C11.4615 0.0534722 12.1905 0.0534722 12.9194 0.0534722C13.1706 0.0534722 13.4267 0.0194444 13.6779 0C13.7961 0 13.9144 0 14.0326 0C14.4315 0 14.8305 0 15.2294 0C15.3477 0 15.4659 0 15.5841 0C15.983 0 16.382 0 16.781 0C16.8992 0.0145833 17.0223 0.0340278 17.1405 0.0486111C19.4062 0.0486111 21.6768 0.0777778 23.9425 0.0388889C24.5681 0.0291667 25.1837 -0.0534722 25.7945 0.116667C26.4003 0.286806 26.8781 0.782639 26.8781 1.50208C26.8633 4.84653 26.9076 8.19583 26.9126 11.5403C26.9126 12.6826 26.0753 13.5042 24.8981 13.5528C24.3513 13.5771 23.8046 13.6306 23.2579 13.616C22.4009 13.5965 21.5389 13.5285 20.6819 13.4847C20.6129 13.4847 20.544 13.4896 20.4209 13.4944C20.5588 13.8688 20.6868 14.2236 20.8247 14.5736C20.9971 15.0111 21.1794 15.4486 21.3715 15.8764C21.4059 15.9542 21.5241 16.0465 21.6079 16.0514C22.2285 16.0563 22.854 16.0417 23.4746 16.0319C23.5042 16.0368 23.5288 16.0417 23.5584 16.0465V16.0514ZM19.1796 10.5535C19.0368 10.5535 18.8989 10.5535 18.7561 10.5535C18.1453 10.5535 17.5345 10.5535 16.9238 10.5535C16.8056 10.5632 16.6874 10.5681 16.5692 10.5778C16.4756 10.5778 16.382 10.5729 16.2884 10.5681C16.2195 10.5681 16.1456 10.5681 16.0766 10.5681C15.5151 10.5681 14.9536 10.5729 14.3872 10.5778C14.3379 10.5778 14.2887 10.5778 14.2394 10.5778C13.8158 10.5681 13.3972 10.5632 12.9736 10.5535C12.949 10.5535 12.9243 10.5535 12.9046 10.5535L12.8308 10.5778C12.8308 10.5778 12.7914 10.5632 12.7667 10.5778C12.7175 10.5778 12.6682 10.5778 12.619 10.5778C12.5254 10.5778 12.4367 10.5778 12.3431 10.5778C11.9196 10.5729 11.496 10.5632 11.0724 10.5583C10.9542 10.5632 10.836 10.5681 10.7177 10.5778C10.6734 10.5778 10.6242 10.5778 10.5798 10.5729C10.5306 10.5729 10.4863 10.5729 10.437 10.5729H10.0233V11.6181C10.0479 11.7785 10.0725 11.9389 10.0971 12.0993C10.2301 12.3375 10.368 12.5757 10.501 12.809C10.5503 12.8479 10.5995 12.8868 10.6488 12.9306C10.9542 12.9792 11.2595 13.0278 11.5698 13.0715C11.7324 13.0715 11.8998 13.0715 12.0624 13.0715C12.8849 13.0715 13.7075 13.0715 14.535 13.0715C14.7665 13.0715 15.0029 13.0715 15.2344 13.0715C15.658 13.0715 16.0766 13.0715 16.5002 13.0715C16.8105 13.0715 17.1159 13.0715 17.4262 13.0764C17.8449 13.0764 18.2684 13.0764 18.6871 13.0715C18.9235 13.0715 19.1599 13.0764 19.3964 13.0813C20.6425 13.0813 21.8886 13.0813 23.1348 13.0813C23.3909 13.0813 23.647 13.0813 23.9031 13.0813C24.3464 13.0861 24.7897 13.0958 25.2379 13.0958C25.6369 13.0958 25.9964 12.809 26.0161 12.4153C26.0457 11.8076 26.026 11.2 26.026 10.5875C25.8832 10.5826 25.7797 10.5778 25.6714 10.5729C25.5778 10.5778 25.4842 10.5875 25.3857 10.5924C25.0803 10.5875 24.7749 10.5778 24.4696 10.5729C24.376 10.5826 24.2775 10.5875 24.1839 10.5972C24.041 10.5972 23.9031 10.5972 23.7603 10.5972C23.5731 10.5972 23.381 10.5972 23.1939 10.6021L23.2086 10.5924L23.1988 10.5778C23.0806 10.5778 22.9624 10.5778 22.8442 10.5778C22.4452 10.5826 22.0462 10.5875 21.6424 10.5972C21.4306 10.5972 21.2188 10.5972 21.0119 10.6021C20.9627 10.5924 20.9183 10.5875 20.8691 10.5778C20.7509 10.5826 20.6326 10.5924 20.5144 10.5972C20.1647 10.5972 19.8101 10.5972 19.4604 10.5972C19.3668 10.5924 19.2732 10.5875 19.1796 10.5778V10.5535ZM3.9502 18.9049C3.92557 18.8903 3.90094 18.8708 3.87139 18.8563H1.63524C1.63524 19.2403 1.63524 19.566 1.63524 19.8868C1.65495 19.9062 1.67465 19.9257 1.69435 19.9451C1.66972 20.3438 1.65002 20.7424 1.62539 21.141C1.6451 21.2139 1.6648 21.2868 1.68942 21.3597C1.66972 21.9236 1.64017 22.4826 1.63032 23.0465C1.63032 23.2264 1.66972 23.4014 1.69435 23.5813C1.66972 23.6347 1.6451 23.6931 1.60569 23.7708H2.10316C2.58093 23.7708 3.05869 23.7708 3.53154 23.7708C3.66945 23.7708 3.80244 23.7708 3.94035 23.7708C4.27035 23.7708 4.59543 23.7757 4.92543 23.7757C6.98919 23.7757 9.05295 23.7757 11.1216 23.7757C11.4467 23.7757 11.5945 23.6882 11.5698 23.3382C11.5403 22.9444 11.5551 22.5507 11.5551 22.1569C11.5551 22.0694 11.5551 21.9819 11.5551 21.8944C11.5551 21.6319 11.5551 21.3743 11.5551 21.1118C11.5551 20.9319 11.5551 20.7521 11.5551 20.5722C11.5551 20.3146 11.5551 20.0521 11.5551 19.7944C11.5551 19.6097 11.5649 19.425 11.5649 19.2354C11.56 19.1042 11.5501 18.9729 11.5452 18.8514C11.2349 18.8708 10.9739 18.8854 10.7079 18.9049C10.5454 18.9 10.3828 18.8903 10.2203 18.8854C10.171 18.8708 10.1218 18.8563 10.0725 18.8417C8.89041 18.8417 7.70831 18.8417 6.5262 18.8417C6.41292 18.8417 6.30456 18.8854 6.19127 18.9097C6.07799 18.9097 5.9647 18.9097 5.85142 18.9097C5.6347 18.9097 5.41305 18.9049 5.19633 18.9049C4.89588 18.9049 4.59543 18.9049 4.29005 18.9097C4.17677 18.9049 4.05856 18.9 3.94527 18.8951L3.9502 18.9049ZM6.62963 18.4236C6.72322 18.409 6.81188 18.3896 6.90546 18.375C6.95471 18.3896 7.00397 18.4042 7.05322 18.4188C7.45218 18.4188 7.84622 18.409 8.24518 18.409C8.31906 18.409 8.39294 18.4188 8.46682 18.4188C8.84116 18.4188 9.22041 18.4188 9.59475 18.4188C9.73758 18.4188 9.8755 18.4188 10.0183 18.4188C10.8458 18.4188 11.6782 18.4139 12.5057 18.409C12.7076 18.3944 12.9096 18.3799 13.1164 18.3701C13.54 18.3896 13.9636 18.4042 14.3872 18.4236C14.599 18.4042 14.8108 18.3847 15.0176 18.3701C15.4412 18.3896 15.8648 18.4042 16.2884 18.4236C16.5938 18.4236 16.8992 18.4236 17.2045 18.4236C17.6675 18.4042 18.1354 18.3847 18.5984 18.3653C18.8595 18.3653 19.1205 18.3653 19.3865 18.3653C19.8101 18.3847 20.2337 18.3993 20.6622 18.4188C21.0119 18.3944 21.3665 18.375 21.7162 18.3507C21.8246 18.375 21.933 18.4188 22.0413 18.4188C22.5634 18.4236 23.0806 18.4188 23.6027 18.4188C24.8094 18.4188 26.0161 18.4188 27.2229 18.4188H27.6415C28.1144 18.4188 28.5823 18.4188 29.0551 18.4188C29.3359 18.3993 29.6166 18.3847 29.8974 18.3653C30.3456 18.3847 30.7938 18.3993 31.242 18.4188L31.8725 18.3604C32.2961 18.3799 32.7246 18.3944 33.1482 18.4139C33.355 18.3896 33.5619 18.3653 33.7737 18.3458C34.153 18.3701 34.5322 18.4042 34.9164 18.409C34.9607 18.409 35.0445 18.2826 35.0445 18.2097C35.0592 17.816 35.074 17.4222 35.0395 17.0333C35.0297 16.9069 34.8721 16.7951 34.7785 16.6785C34.6603 16.6104 34.5371 16.5472 34.4189 16.4792C33.9953 16.4792 33.5668 16.4792 33.1432 16.4792C32.8182 16.5035 32.4931 16.5278 32.168 16.5521H30.8874C30.7002 16.5521 30.5131 16.5521 30.3259 16.5521C29.4393 16.5521 28.5527 16.5472 27.6662 16.5424C27.0751 16.5424 26.4841 16.5424 25.893 16.5424C25.5335 16.5424 25.1788 16.5472 24.8193 16.5521C24.4942 16.5521 24.1691 16.5521 23.8391 16.5521C23.6224 16.5521 23.4007 16.5424 23.184 16.5472C22.9525 16.5472 22.721 16.5472 22.4945 16.5521H21.7359C21.3074 16.5521 20.8789 16.5521 20.4455 16.5521C20.3322 16.5521 20.2189 16.5521 20.1056 16.5569C19.8938 16.5569 19.6771 16.5569 19.4653 16.5569C19.0417 16.5569 18.6132 16.5569 18.1896 16.5569C17.9778 16.5569 17.766 16.5569 17.5592 16.5569C17.4065 16.5569 17.2538 16.5472 17.1011 16.5472C16.8056 16.5472 16.515 16.5472 16.2195 16.5521C16.0815 16.5521 15.9436 16.5521 15.8057 16.5521C14.8256 16.5618 13.8405 16.5764 12.8603 16.5764C12.0575 16.5764 11.2595 16.5521 10.4567 16.5424C10.3089 16.5424 10.1612 16.5424 10.0134 16.5472C9.83117 16.5472 9.64893 16.5472 9.46176 16.5472C9.07758 16.5278 8.69832 16.484 8.31413 16.484C7.48173 16.4889 6.64934 16.5181 5.81694 16.5326C5.63962 16.5326 5.46231 16.5375 5.28499 16.5424C5.0535 16.5424 4.822 16.5424 4.59051 16.5424C4.16199 16.5424 3.7384 16.5424 3.30989 16.5424C3.14735 16.5424 2.98481 16.5424 2.8272 16.5424C2.4972 16.5375 2.16719 16.5715 1.84704 16.5181C1.06389 16.3917 0.985087 16.4403 0.990012 17.2035C0.990012 17.2375 0.985087 17.2764 0.990012 17.3056C1.07374 17.7042 0.925982 18.2049 1.48256 18.3993C1.73375 18.3896 1.98988 18.3847 2.24107 18.375C2.64496 18.375 3.04884 18.3799 3.45273 18.3847C3.52661 18.3847 3.60049 18.3944 3.66945 18.3944C4.11274 18.3799 4.56095 18.3653 5.00424 18.3507L5.152 18.3944C5.55096 18.3944 5.945 18.3847 6.34396 18.3847C6.44247 18.3896 6.53605 18.3944 6.63456 18.4042L6.62963 18.4236ZM2.39869 29.6431H1.64017C1.6648 29.8132 1.67957 29.9347 1.69927 30.0611C1.69927 30.1972 1.69927 30.3285 1.69927 30.4646C1.67465 30.7222 1.65495 30.9847 1.63032 31.2424C1.60569 31.4222 1.58599 31.6021 1.56136 31.7819C1.56136 32.0444 1.56136 32.3069 1.56136 32.5694C1.56136 32.7444 1.56136 32.9243 1.56136 33.0993C1.60077 33.3181 1.64017 33.5319 1.67957 33.7507C1.7042 33.8285 1.7239 33.9014 1.74853 33.9792C1.91107 34.1347 2.07361 34.2903 2.24107 34.4458C2.38391 34.4653 2.52182 34.4847 2.66466 34.4993C3.39362 34.4993 4.12259 34.509 4.85155 34.509C5.02394 34.509 5.19633 34.4653 5.36872 34.4604C6.19127 34.4458 7.01382 34.441 7.83637 34.4313C8.20577 34.4556 8.58011 34.4799 8.94951 34.5042C9.71788 34.5042 10.4813 34.5042 11.2497 34.5139C11.4713 34.5139 11.5649 34.441 11.5698 34.2125C11.5797 33.3958 11.6092 32.5792 11.624 31.7625C11.624 31.4757 11.6043 31.1889 11.5895 30.9021C11.5895 30.8729 11.5895 30.8438 11.5846 30.8146C11.5846 30.5861 11.5846 30.3625 11.5846 30.134C11.5846 30.1049 11.5846 30.0757 11.5846 30.0465C11.5748 29.9007 11.5649 29.7549 11.5501 29.5847H7.69353C7.66398 29.5847 7.63935 29.5847 7.6098 29.5847C6.69367 29.5847 5.78246 29.575 4.86633 29.575C4.81708 29.575 4.76782 29.6188 4.71857 29.6382C4.62991 29.6382 4.54125 29.6479 4.45259 29.6479C3.9305 29.6479 3.40348 29.6479 2.88138 29.6479C2.71884 29.6479 2.56123 29.6479 2.39869 29.6479V29.6431ZM11.5501 28.4424C11.5501 28.3792 11.5501 28.316 11.5501 28.2528C11.5501 27.9951 11.5501 27.7375 11.5501 27.4799C11.5501 27.3194 11.5501 27.159 11.5551 26.9986C11.5551 26.741 11.5551 26.4833 11.5501 26.2257C11.5501 26.0653 11.5501 25.9097 11.5501 25.7493C11.5501 25.4868 11.5501 25.2243 11.5501 24.9667C11.5501 24.8354 11.5501 24.7042 11.5501 24.5681V24.2472C11.2448 24.2083 10.9837 24.1792 10.7227 24.15C10.6734 24.1694 10.6242 24.1889 10.5749 24.2035C8.76235 24.2035 6.94979 24.2132 5.13723 24.2181C5.06827 24.2181 5.00424 24.2181 4.93529 24.2181C4.36886 24.2181 3.79751 24.2181 3.23109 24.2181C3.04884 24.2181 2.86168 24.2181 2.67944 24.2181H1.62539C1.62539 24.4563 1.62539 24.6458 1.62539 24.8403C1.6451 24.9813 1.6648 25.1222 1.6845 25.2681C1.6648 25.5451 1.6451 25.8174 1.62047 26.0944C1.62047 26.2743 1.62047 26.459 1.62539 26.6389C1.62539 26.9208 1.62539 27.1979 1.62539 27.4799C1.62539 27.5479 1.62539 27.6208 1.62539 27.6889V29.0743H3.53646C3.62512 29.0743 3.71378 29.0743 3.80244 29.0743C5.3835 29.0743 6.95964 29.0743 8.5407 29.0743C8.62936 29.0743 8.71802 29.0743 8.80175 29.0743C9.06773 29.0743 9.3337 29.0938 9.59967 29.084C9.85579 29.0743 10.1119 29.0403 10.368 29.0208C10.3927 29.0208 10.4124 29.0208 10.4321 29.0306C10.8015 29.0549 11.1709 29.0792 11.5551 29.1083C11.5551 28.841 11.5551 28.6465 11.5551 28.4521L11.5501 28.4424ZM19.815 14.5007C19.7214 14.2576 19.618 14.0146 19.5441 13.7618C19.485 13.5528 19.3717 13.4993 19.1649 13.5042C18.6132 13.5139 18.0566 13.5479 17.5099 13.4896C16.7859 13.4118 16.3721 13.6306 16.1801 14.3646C16.0372 14.9285 15.7515 15.4583 15.5151 16.0417H17.0617C17.2242 16.0417 17.3819 16.0514 17.5444 16.0562H20.4701C20.278 15.5896 20.1155 15.2007 19.9529 14.8069C19.9037 14.7049 19.8594 14.6028 19.8101 14.5007H19.815ZM34.4189 29.6285C34.4239 29.0938 34.4386 28.5639 34.4386 28.0292C34.4386 27.4556 34.414 26.8819 34.4091 26.3083C34.4042 25.4917 34.4091 24.675 34.4091 23.8583C34.4091 23.6056 34.3894 23.3528 34.3943 23.1C34.3943 22.3028 34.4042 21.5104 34.4189 20.7132C34.4239 20.3583 34.4534 19.9986 34.4633 19.6438C34.4731 19.3958 34.4633 19.1431 34.4633 18.8903H32.9758C32.9758 19.7701 32.9807 20.616 32.9758 21.4667C32.9659 22.3125 32.9315 23.1632 32.9364 24.009C32.9462 25.584 32.9856 27.1542 32.9955 28.7292C32.9955 29.3368 32.9413 29.9396 32.9364 30.5472C32.9265 31.5972 32.9364 32.6472 32.9364 33.6972C32.9364 34.2563 33.2959 34.5965 33.8624 34.5868C34.2268 34.5819 34.4879 34.3826 34.4879 34.1153C34.4879 33.4639 34.4879 32.8076 34.483 32.1563C34.483 31.3444 34.483 30.5326 34.478 29.7208C34.4633 29.6917 34.4436 29.6674 34.4288 29.6382L34.4189 29.6285ZM15.456 10.1403C15.8254 10.1403 16.1998 10.1403 16.5692 10.1403C16.973 10.1403 17.3769 10.1403 17.7857 10.1403C18.1355 10.1403 18.4852 10.1403 18.8349 10.1403C19.2289 10.1208 19.6229 10.1014 20.017 10.0819C20.1844 10.1014 20.3519 10.1208 20.5194 10.1403C20.9282 10.1403 21.3321 10.1403 21.7409 10.1403C22.0906 10.1208 22.4354 10.1063 22.7851 10.0868C23.184 10.0965 23.5781 10.1062 23.977 10.116C24.0066 10.116 24.0312 10.116 24.0607 10.116C24.4302 10.116 24.8045 10.116 25.1739 10.116C25.2232 10.116 25.2773 10.116 25.3266 10.116C25.5532 10.1062 25.7847 10.0965 26.026 10.0868C25.9964 9.48403 25.9718 8.91528 25.9423 8.34653C25.9423 8.23472 25.9423 8.11806 25.9423 8.00625C25.9669 7.90903 26.0161 7.81181 26.0161 7.71458C26.0161 7.14097 26.0161 6.5625 26.0161 5.98889C26.0161 5.82847 26.0211 5.66806 26.026 5.50278C26.0457 5.22083 26.0654 4.93889 26.09 4.65694C26.09 4.47222 26.09 4.29236 26.09 4.10764C26.09 3.85 26.09 3.59722 26.09 3.33958C26.0753 3.27153 26.0555 3.20347 26.0408 3.13056C26.0408 2.90208 26.0309 2.66875 26.0309 2.44028C26.0309 2.34306 26.026 2.24097 26.0211 2.14375C25.9767 1.91528 25.9324 1.68681 25.8881 1.46319C25.8881 1.39514 25.8881 1.32222 25.8881 1.25417C25.7945 1.06458 25.7009 0.879861 25.6073 0.690278C25.3512 0.627083 25.0951 0.559028 24.839 0.495833C24.3957 0.520139 23.9475 0.539583 23.5042 0.563889H22.9328C22.5339 0.563889 22.1349 0.563889 21.7359 0.563889C21.4798 0.563889 21.2188 0.563889 20.9627 0.563889C20.608 0.539583 20.2534 0.515278 19.8988 0.495833C19.6673 0.495833 19.4358 0.495833 19.1993 0.495833L18.1404 0.422917C17.8104 0.422917 17.4853 0.422917 17.1553 0.422917C16.8253 0.398611 16.4904 0.379167 16.1604 0.354861C15.9978 0.354861 15.8402 0.354861 15.6777 0.354861C15.3181 0.354861 14.9585 0.354861 14.6039 0.354861C14.466 0.354861 14.3281 0.354861 14.1902 0.354861C13.7666 0.379167 13.343 0.403472 12.9243 0.427778C12.7815 0.427778 12.6387 0.427778 12.5008 0.427778C11.8309 0.554167 11.161 0.665972 10.4961 0.821528C10.2055 0.889583 10.038 1.14236 10.038 1.45347C10.038 2.47917 10.043 3.50486 10.0479 4.53542C10.0479 4.67153 10.0479 4.8125 10.0479 4.94861C10.0479 5.20139 10.0479 5.45417 10.0479 5.70694C10.0676 5.80417 10.0873 5.90139 10.107 6.00347C10.0873 6.25625 10.0676 6.51389 10.0479 6.76667C10.0676 6.88333 10.0873 7 10.107 7.11667L10.0479 7.88472C10.0479 7.97708 10.0479 8.06458 10.0479 8.15695C10.0479 8.40972 10.0479 8.65764 10.0479 8.91042C10.0479 9.09514 10.0479 9.275 10.0479 9.45972C10.0627 9.67361 10.0331 9.90695 10.1119 10.0965C10.1365 10.1549 10.4419 10.1014 10.6192 10.0965C10.6439 10.0965 10.6685 10.0965 10.6882 10.0965C11.1266 10.116 11.5698 10.1354 12.0082 10.1549C12.22 10.1549 12.4318 10.1549 12.6436 10.1549C13.0426 10.1549 13.4464 10.1549 13.8454 10.1549C13.9981 10.1549 14.1508 10.1549 14.3035 10.15C14.6926 10.15 15.0817 10.15 15.4757 10.1549L15.456 10.1403Z" fill="#222222"/>
<path d="M29.8906 18.8809C29.9202 18.8906 29.9497 18.9003 29.9793 18.9149C29.9497 18.9052 29.9202 18.8954 29.8906 18.8809Z" fill="#C0DAF0"/>
<path d="M4.29374 18.9245C4.59419 18.9245 4.89464 18.9196 5.20002 18.9196C5.41674 18.9196 5.63838 18.9196 5.8551 18.9245C5.66793 19.0703 5.48569 19.221 5.29853 19.3669C5.31823 19.396 5.33793 19.4252 5.35271 19.4544L6.19495 18.9245C6.30824 18.9002 6.4166 18.8564 6.52988 18.8564C7.71199 18.8564 8.89409 18.8564 10.0762 18.8564C10.0762 18.8808 10.0762 18.9051 10.0811 18.9294C9.38171 19.4203 8.6823 19.9113 7.97796 20.4071C8.0814 20.4363 8.1602 20.4266 8.22423 20.3877C8.73155 20.096 9.23395 19.7995 9.73634 19.503C10.0565 19.3134 10.3816 19.1189 10.7017 18.9294C10.9677 18.9148 11.2287 18.8953 11.5391 18.8759C11.544 19.0023 11.5538 19.1335 11.5588 19.2599C11.1007 19.5662 10.6377 19.8627 10.1846 20.1738C9.53932 20.6162 8.89409 21.0682 8.24886 21.5155C8.34737 21.5446 8.42618 21.5301 8.49021 21.496C8.91379 21.2627 9.33738 21.0245 9.76097 20.7912C10.3569 20.4655 10.948 20.1398 11.544 19.8141C11.544 20.0717 11.544 20.3342 11.544 20.5919C11.4898 20.6064 11.4307 20.6162 11.3913 20.6453C10.9283 20.9613 10.4653 21.2724 10.0072 21.5932C9.35216 22.0502 8.70693 22.512 8.05677 22.9738C8.00751 23.003 7.95826 23.0321 7.90901 23.0564C7.91886 23.071 7.92871 23.0856 7.93856 23.1051L8.1011 23.0273C8.53454 22.7939 8.9729 22.5606 9.40634 22.3224C10.1205 21.9287 10.8298 21.5301 11.544 21.1314C11.544 21.3939 11.544 21.6516 11.544 21.9141C10.9923 22.2689 10.4407 22.6189 9.8841 22.9738C9.83485 23.003 9.7856 23.0321 9.73634 23.0564L9.76589 23.1002L9.93336 23.0224C10.0368 22.9738 10.1452 22.9349 10.2486 22.8814C10.682 22.6481 11.1105 22.4099 11.544 22.1717C11.544 22.5655 11.5292 22.9592 11.5588 23.353C11.5834 23.6981 11.4356 23.7905 11.1105 23.7905C9.04678 23.7807 6.98302 23.7905 4.91434 23.7905C4.58434 23.7905 4.25926 23.7905 3.92925 23.7856C4.25926 23.5328 4.59419 23.2849 4.92419 23.0321C4.98822 23.003 5.04733 22.9787 5.11136 22.9495C5.10151 22.9252 5.09166 22.9058 5.07688 22.8814C5.01285 22.9155 4.94882 22.9544 4.87986 22.9884C4.4218 23.2558 3.96866 23.5183 3.51059 23.7856C3.03283 23.7856 2.55506 23.7856 2.08222 23.7856C2.69297 23.3433 3.30865 22.9009 3.9194 22.4585C3.90463 22.4342 3.88493 22.4051 3.87015 22.3808C3.13626 22.7842 2.4073 23.1926 1.67341 23.596C1.6537 23.4162 1.60938 23.2412 1.60938 23.0613C1.61923 22.4974 1.64878 21.9384 1.66848 21.3745C1.8852 21.2092 2.09699 21.0439 2.31371 20.8787C2.32849 20.8592 2.33834 20.8398 2.35312 20.8252C2.32849 20.8252 2.29894 20.8301 2.27431 20.8349C2.05266 20.9419 1.83102 21.0488 1.60938 21.1558C1.634 20.7571 1.6537 20.3585 1.67833 19.9599C1.65863 19.9405 1.63893 19.921 1.61923 19.9016V18.871C2.37282 18.871 3.11656 18.871 3.8603 18.871C3.8603 18.8953 3.86522 18.9196 3.87015 18.9439C3.76179 19.0655 3.6485 19.1821 3.54015 19.3037C3.50567 19.3426 3.47611 19.3814 3.44164 19.4155C3.42686 19.4252 3.41208 19.4349 3.39731 19.4446C3.41208 19.4446 3.42193 19.4544 3.43671 19.4592C3.43671 19.4446 3.43671 19.4252 3.43671 19.4106C3.48597 19.3912 3.53522 19.3717 3.5894 19.3523C3.82089 19.2113 4.05239 19.0703 4.28389 18.9342L4.29374 18.9245ZM6.79093 20.728C6.79093 20.728 6.78601 20.6939 6.78108 20.6794C6.45108 20.7377 6.12107 20.7814 5.79599 20.8544C5.71226 20.8738 5.64823 20.9759 5.57435 21.0391C5.63345 21.1023 5.68271 21.1995 5.75659 21.2287C6.31809 21.4523 6.89437 21.3988 7.45587 21.2335C7.52975 21.2092 7.60363 21.0245 7.59378 20.9273C7.58393 20.8544 7.44601 20.7523 7.34751 20.7377C7.16526 20.7085 6.97317 20.728 6.78601 20.728H6.79093Z" fill="#FF7A00"/>
<path d="M1.56063 32.5696C1.56063 32.3071 1.56063 32.0446 1.56063 31.7821C1.59511 31.7821 1.63944 31.787 1.66407 31.7724C2.68363 31.0627 3.7032 30.3481 4.72276 29.6384C4.77202 29.6141 4.82127 29.5752 4.87052 29.5752C5.78665 29.5752 6.69786 29.5801 7.61399 29.5849C7.62877 29.6092 7.64354 29.6384 7.65339 29.6627C7.66817 29.6384 7.68295 29.6092 7.6928 29.5849H11.5494C11.5642 29.7551 11.574 29.9009 11.5839 30.0467C11.5839 30.0759 11.5839 30.1051 11.5839 30.1342C11.5839 30.3627 11.5839 30.5863 11.5839 30.8148C11.5839 30.8439 11.5839 30.8731 11.5888 30.9023C11.5987 31.1891 11.6282 31.4759 11.6233 31.7627C11.6134 32.5794 11.5839 33.396 11.5691 34.2127C11.5691 34.4412 11.4706 34.5141 11.249 34.5141C10.4806 34.5044 9.71715 34.5044 8.94878 34.5044C9.01774 34.4023 9.08177 34.2953 9.1655 34.203C9.44625 33.9016 9.73685 33.6099 10.0225 33.3134C9.9979 33.2794 9.97328 33.2453 9.94372 33.2113C9.23939 33.6196 8.53505 34.0231 7.83071 34.4314C7.00816 34.4412 6.18562 34.446 5.36307 34.4606C5.19068 34.4606 5.01829 34.5092 4.8459 34.5092C4.11693 34.5092 3.38797 34.5092 2.659 34.4995C2.73781 34.412 2.80677 34.3051 2.89542 34.2321C3.14662 34.0377 3.40767 33.8627 3.66379 33.678C3.69827 33.6683 3.73275 33.6585 3.7623 33.6488C3.79678 33.6245 3.82633 33.6002 3.86081 33.5759C3.85588 33.5613 3.84603 33.5516 3.84111 33.537C3.8017 33.5564 3.75738 33.571 3.71797 33.5905C3.68842 33.6051 3.65394 33.6196 3.62439 33.6342C3.1614 33.9016 2.69841 34.1738 2.23542 34.4412C2.07288 34.2856 1.91034 34.1301 1.74287 33.9745C2.0778 33.7363 2.41273 33.4981 2.74766 33.2599C2.81662 33.2113 2.88557 33.1627 2.95453 33.1141C2.97423 33.0995 2.99393 33.0849 3.01364 33.0655C3.00378 33.0655 2.99393 33.0557 2.98408 33.0509C2.97423 33.0703 2.96438 33.0946 2.95453 33.1141C2.8708 33.1481 2.78214 33.1773 2.69841 33.2113C2.35855 33.3912 2.0187 33.571 1.67392 33.746C1.63451 33.5273 1.59511 33.3134 1.55571 33.0946C2.21079 32.6474 2.8708 32.2051 3.52096 31.753C3.95439 31.4516 4.36813 31.1308 4.79172 30.8196C4.85575 30.7905 4.91978 30.7662 4.97888 30.737C4.96903 30.7127 4.95918 30.6933 4.94441 30.6689C4.88037 30.703 4.81634 30.7419 4.74739 30.7759C3.68349 31.3738 2.61468 31.9669 1.55078 32.5648L1.56063 32.5696ZM7.68295 31.6898C7.55489 31.5974 7.50071 31.5294 7.45145 31.5245C6.94906 31.5148 6.44174 31.5002 5.93934 31.5294C5.82113 31.5342 5.7177 31.7092 5.60441 31.8016C6.34323 32.0738 6.98846 32.0155 7.68295 31.6849V31.6898ZM3.14662 32.9974C3.14662 32.9974 3.13185 32.9877 3.12692 32.9877C3.12692 33.0023 3.12692 33.0169 3.12692 33.0314C3.13677 33.0314 3.1417 33.0266 3.14662 33.0217C3.14662 33.0217 3.14662 33.0071 3.14662 33.0023V32.9974Z" fill="#FF7A00"/>
<path d="M1.62908 27.4754C1.62908 27.1934 1.62908 26.9163 1.62908 26.6344C2.05759 26.3573 2.49103 26.09 2.90969 25.7983C3.65836 25.2781 4.39225 24.7434 5.13599 24.2136C6.94855 24.2136 8.76111 24.2038 10.5737 24.199C10.6229 24.1795 10.6722 24.1601 10.7214 24.1455C10.9825 24.1747 11.2435 24.2087 11.5489 24.2427C11.5489 24.3448 11.5489 24.4518 11.5489 24.5636C10.7855 25.0788 10.022 25.5941 9.25365 26.1045C9.18469 26.1531 9.11574 26.1969 9.04678 26.2455C8.99753 26.2747 8.94827 26.299 8.89902 26.3281C8.90887 26.3427 8.91872 26.3573 8.92857 26.3768C8.98275 26.3525 9.03693 26.3281 9.09604 26.3038C9.16499 26.2601 9.23887 26.2115 9.30783 26.1677C9.46052 26.0948 9.62306 26.0268 9.77082 25.9441C10.3668 25.6184 10.9579 25.2927 11.5489 24.9622C11.5489 25.2247 11.5489 25.4872 11.5489 25.7448C11.4947 25.7594 11.4356 25.7691 11.3913 25.7983C10.8199 26.1872 10.2535 26.5809 9.68709 26.9747C9.23395 27.2906 8.78573 27.6066 8.33752 27.9226C8.28826 27.9518 8.23901 27.9761 8.18976 28.0052C8.19961 28.0198 8.20946 28.0344 8.21931 28.0538C8.27349 28.0295 8.32767 28.0052 8.38185 27.9761C8.48528 27.9275 8.59857 27.8886 8.69708 27.8351C9.64768 27.3004 10.5983 26.7656 11.544 26.2261C11.544 26.4837 11.544 26.7413 11.5489 26.999C11.1992 27.2275 10.8446 27.4462 10.4998 27.6844C9.83978 28.1413 9.18469 28.6129 8.52468 29.0795C6.94362 29.0795 5.36748 29.0795 3.78642 29.0795C4.02776 28.9143 4.26911 28.7441 4.51046 28.5788C4.49568 28.5497 4.47598 28.5254 4.4612 28.4962C4.14597 28.6906 3.83567 28.8851 3.52044 29.0747C2.89984 29.0747 2.27431 29.0747 1.60938 29.0747C1.60938 28.6031 1.60938 28.1462 1.60938 27.6893C2.18565 27.3344 2.76193 26.9747 3.34313 26.6198C3.40716 26.5809 3.47119 26.5518 3.53522 26.5129C3.50567 26.474 3.47119 26.4351 3.44164 26.3962C2.83088 26.7559 2.22505 27.1156 1.6143 27.4754H1.62908ZM5.63838 26.4594C6.11122 26.7365 7.18989 26.6393 7.59378 26.3038C7.21452 26.017 5.91913 26.1094 5.63838 26.4594ZM4.62867 28.4768C4.62867 28.4768 4.61389 28.4719 4.60896 28.467C4.60896 28.4816 4.60896 28.4913 4.60896 28.5059C4.61389 28.5059 4.62374 28.5059 4.62867 28.4962C4.62867 28.4962 4.62867 28.4816 4.62867 28.4768Z" fill="#FF7A00"/>
<path d="M12.9787 10.5536C13.4023 10.5633 13.8209 10.5682 14.2445 10.5779C14.2938 10.5779 14.343 10.5779 14.3923 10.5779C14.9538 10.5779 15.5153 10.573 16.0817 10.5682H16.2935C16.3871 10.5682 16.4807 10.5682 16.5743 10.573C16.6925 10.5633 16.8107 10.5584 16.9289 10.5487C17.5397 10.5487 18.1504 10.5487 18.7612 10.5487C18.8547 10.5584 18.9483 10.5682 19.0468 10.573C18.9532 10.7091 18.8547 10.8404 18.7612 10.9765C18.7316 10.9862 18.6971 10.9959 18.6676 11.0057C18.6725 11.0154 18.6774 11.0251 18.6873 11.0348C18.7119 11.0154 18.7365 11.0008 18.7661 10.9814C19.0025 10.8452 19.234 10.7043 19.4704 10.5682C19.8201 10.5682 20.1748 10.5682 20.5245 10.5682C20.6427 10.5633 20.7609 10.5536 20.8791 10.5487C20.9284 10.5584 20.9727 10.5633 21.0219 10.573C20.7658 10.8258 20.5097 11.0737 20.2536 11.3265C20.2733 11.3508 20.293 11.38 20.3176 11.4043C20.7658 11.1272 21.2091 10.8452 21.6573 10.5682C22.0563 10.5633 22.4552 10.5584 22.8591 10.5487C22.9773 10.5487 23.0955 10.5487 23.2138 10.5487L23.2236 10.5633L23.2088 10.573C22.997 10.7723 22.7852 10.9668 22.5685 11.1661C22.5931 11.1952 22.6178 11.2244 22.6375 11.2536C23.0167 11.0251 23.3911 10.7918 23.7703 10.5633C23.9132 10.5633 24.0511 10.5633 24.1939 10.5633C24.2875 10.5536 24.386 10.5487 24.4796 10.539C24.785 10.5439 25.0903 10.5536 25.3957 10.5584C25.4893 10.5536 25.5829 10.5439 25.6814 10.539C25.7848 10.539 25.8932 10.5487 26.036 10.5536C26.036 11.1612 26.0557 11.7737 26.0262 12.3814C26.0065 12.7751 25.6469 13.0619 25.248 13.0619C24.8047 13.0619 24.3614 13.0522 23.9132 13.0473C24.125 12.7946 24.3368 12.5418 24.5485 12.2939C24.5584 12.2841 24.5682 12.2744 24.5781 12.2598L24.5485 12.289C24.0806 12.5418 23.6127 12.7946 23.1448 13.0473C21.8987 13.0473 20.6525 13.0473 19.4064 13.0473C19.4753 12.9793 19.5443 12.9112 19.6133 12.8432C19.8349 12.6827 20.0713 12.5369 20.2733 12.3571C20.4703 12.1869 20.6328 11.9876 20.8151 11.8029C20.8446 11.7932 20.8791 11.7834 20.9086 11.7737C20.9037 11.764 20.8889 11.7494 20.8889 11.7494C20.8643 11.764 20.8348 11.7834 20.8101 11.798C20.4063 12.0314 20.0024 12.2696 19.5985 12.5029C19.298 12.6827 18.9927 12.8577 18.6922 13.0376C18.2735 13.0376 17.85 13.0376 17.4313 13.0425C17.6185 12.8383 17.8007 12.6341 17.9879 12.43C18.2932 12.1723 18.6035 11.9147 18.9089 11.6571C18.9188 11.6571 18.9286 11.6522 18.9335 11.6473C18.9335 11.6473 18.9335 11.6327 18.9335 11.6279C18.9237 11.6376 18.9138 11.6473 18.904 11.6571C18.835 11.6716 18.7612 11.6668 18.7021 11.7008C18.2341 11.9633 17.7662 12.2307 17.3082 12.5077C17.1456 12.605 17.0028 12.7362 16.8501 12.8529C16.7368 12.9161 16.6186 12.9793 16.5053 13.0376C16.0817 13.0376 15.6631 13.0376 15.2395 13.0376C15.3626 12.9209 15.4907 12.8091 15.6138 12.6876C15.796 12.5077 15.9783 12.3279 16.1605 12.148C16.2049 12.1237 16.2541 12.0994 16.2984 12.0751C16.3231 12.0508 16.3428 12.0265 16.3674 12.0022C16.3428 12.0265 16.3181 12.0459 16.2935 12.0702C16.2443 12.0946 16.1999 12.114 16.1507 12.1383L14.5351 13.0376C13.7126 13.0376 12.89 13.0376 12.0626 13.0376C12.3433 12.7848 12.629 12.5321 12.9097 12.2793C12.9541 12.255 13.0033 12.2307 13.0477 12.2064C13.0575 12.2064 13.0674 12.2015 13.0723 12.1966C13.0723 12.1966 13.0723 12.1869 13.0772 12.1772C13.0674 12.1869 13.0575 12.1966 13.0477 12.2064C12.9984 12.2307 12.9541 12.2501 12.9048 12.2744C12.4615 12.5272 12.0133 12.7848 11.57 13.0376C11.2646 12.989 10.9593 12.9404 10.649 12.8966C10.8164 12.7168 10.979 12.5321 11.1464 12.3522C11.1711 12.3279 11.1908 12.3036 11.2154 12.2793C11.1908 12.3036 11.1661 12.323 11.1415 12.3473C10.9297 12.4883 10.713 12.6341 10.5012 12.7751C10.3682 12.5369 10.2303 12.2987 10.0973 12.0654C10.2845 11.8369 10.4766 11.6133 10.6637 11.3848L10.5997 11.3168C10.4076 11.4043 10.2155 11.4918 10.0234 11.5841V10.539H10.4372C10.4864 10.539 10.5308 10.539 10.58 10.539C10.6243 10.539 10.6736 10.539 10.7179 10.5439C10.8361 10.539 10.9543 10.5341 11.0726 10.5244C11.4961 10.5293 11.9197 10.539 12.3433 10.5439C12.1759 10.748 12.0133 10.9522 11.8458 11.1612C11.8015 11.1855 11.7523 11.2098 11.7079 11.2341C11.7572 11.2098 11.8015 11.1904 11.8508 11.1661C12.1759 10.9619 12.5059 10.7529 12.8309 10.5487C12.8556 10.539 12.8802 10.5341 12.9048 10.5244C12.9294 10.5244 12.9541 10.5244 12.9738 10.5244L12.9787 10.5536Z" fill="#C0DAF0"/>
<path d="M17.07 16.0415H15.5234C15.7599 15.4582 16.0406 14.9283 16.1884 14.3644C16.3755 13.6304 16.7942 13.4117 17.5182 13.4894C18.065 13.5478 18.6215 13.5138 19.1732 13.504C19.3801 13.504 19.4933 13.5526 19.5524 13.7617C19.6214 14.0144 19.7298 14.2526 19.8233 14.5006C19.6115 14.7485 19.3998 14.9915 19.188 15.2394C19.2077 15.2638 19.2274 15.2881 19.2471 15.3124L19.9613 14.8068C20.1238 15.2006 20.2863 15.5894 20.4784 16.0561C19.4539 16.0561 18.5033 16.0561 17.5527 16.0561C17.6956 15.8763 17.8384 15.6915 17.9812 15.5117C17.9911 15.4971 18.0009 15.4874 18.0108 15.4728C17.996 15.4825 17.9862 15.4922 17.9714 15.5068L17.0651 16.0464L17.07 16.0415Z" fill="#C0DAF0"/>
<path d="M3.23562 24.2178C3.80204 24.2178 4.37339 24.2178 4.93982 24.2178C4.62459 24.3976 4.30936 24.5872 3.99413 24.7622C3.20606 25.2046 2.418 25.6469 1.625 26.0893C1.6447 25.8122 1.6644 25.54 1.68903 25.2629C2.2062 24.9129 2.71845 24.5629 3.23562 24.2178Z" fill="#FF7A00"/>
<path d="M1.62993 31.2419C1.65455 30.9842 1.67425 30.7217 1.69888 30.4641C2.09292 30.1919 2.48695 29.9197 2.88099 29.6426C3.40308 29.6426 3.9301 29.6426 4.4522 29.6426C4.03846 29.8856 3.62473 30.1384 3.20114 30.3766C2.67904 30.6683 2.15202 30.9502 1.625 31.237L1.62993 31.2419Z" fill="#FF7A00"/>
<path d="M10.3671 29.0107C10.1109 29.035 9.85482 29.069 9.5987 29.0739C9.33273 29.0836 9.06675 29.0739 8.80078 29.0642C8.84018 29.0253 8.87466 28.9767 8.92392 28.9475C9.80064 28.4517 10.6774 27.9656 11.5541 27.4697C11.5541 27.7274 11.5541 27.985 11.5541 28.2426C11.298 28.4274 11.0419 28.6121 10.7857 28.7968H10.7907C10.6921 28.8406 10.5986 28.8843 10.5001 28.9329H10.505C10.4557 28.9524 10.4114 28.9767 10.3621 29.001L10.3671 29.0107Z" fill="#FF7A00"/>
<path d="M17.9786 12.4492C17.7915 12.6534 17.6092 12.8576 17.4221 13.0617C17.1118 13.0617 16.8064 13.0617 16.4961 13.0569C16.6094 12.9937 16.7276 12.9305 16.8409 12.8721C16.9689 12.8235 17.0921 12.7749 17.2201 12.7263C17.4713 12.6339 17.7275 12.5416 17.9786 12.4541V12.4492Z" fill="#C0DAF0"/>
<path d="M11.5566 28.4423V29.0986C11.1724 29.0743 10.803 29.05 10.4336 29.0208C10.4582 28.9916 10.4828 28.9625 10.5124 28.9382H10.5075C10.606 28.8896 10.6996 28.8458 10.7981 28.7972H10.7932C11.0493 28.6757 11.3054 28.5541 11.5615 28.4326L11.5566 28.4423Z" fill="#FF7A00"/>
<path d="M2.68295 24.2178C2.33324 24.4268 1.97861 24.631 1.62891 24.84C1.62891 24.6456 1.62891 24.456 1.62891 24.2178H2.68295Z" fill="#FF7A00"/>
<path d="M18.6875 13.0572C18.988 12.8773 19.2933 12.7023 19.5938 12.5225C19.5938 12.6343 19.6036 12.7509 19.6036 12.8627C19.5347 12.9308 19.4657 12.9988 19.3968 13.0669C19.1603 13.0669 18.9239 13.062 18.6875 13.0572Z" fill="#C0DAF0"/>
<path d="M20.1064 16.5664C19.7714 16.7462 19.4365 16.9212 19.1016 17.1011C19.2247 16.9212 19.3478 16.7414 19.471 16.5615C19.6828 16.5615 19.8995 16.5615 20.1113 16.5615L20.1064 16.5664Z" fill="#C0DAF0"/>
<path d="M2.40305 29.6426C2.17155 29.7836 1.93513 29.9197 1.70364 30.0606C1.68886 29.9342 1.66916 29.8127 1.64453 29.6426H2.40305Z" fill="#FF7A00"/>
<path d="M3.53516 29.0746C3.85038 28.8801 4.16069 28.6857 4.47591 28.4961C4.49069 28.5253 4.51039 28.5496 4.52517 28.5787C4.28382 28.744 4.04248 28.9141 3.80113 29.0794C3.71247 29.0794 3.62381 29.0794 3.53516 29.0794V29.0746Z" fill="#C0DAF0"/>
<path d="M1.47656 18.4235C1.57015 18.3555 1.66865 18.2923 1.76224 18.2242C1.80657 18.2582 1.86075 18.3263 1.8903 18.3166C2.01836 18.268 2.13657 18.1999 2.25478 18.1367C2.24986 18.2242 2.24 18.3117 2.23508 18.3992C1.97896 18.4089 1.72776 18.4138 1.47656 18.4235Z" fill="#FF7A00"/>
<path d="M3.55469 19.2942C3.66305 19.1726 3.77633 19.056 3.88469 18.9344C3.90932 18.9247 3.92902 18.915 3.95365 18.9053C4.06693 18.9101 4.18514 18.915 4.29843 18.9199C4.06693 19.0608 3.83544 19.2018 3.60394 19.3379C3.58917 19.3185 3.56946 19.3039 3.55469 19.2844V19.2942Z" fill="#C0DAF0"/>
<path d="M6.78211 18.1513C6.73286 18.2437 6.68361 18.3361 6.63435 18.4236C6.53584 18.4187 6.44226 18.4138 6.34375 18.4041C6.49151 18.3166 6.63435 18.234 6.78211 18.1465V18.1513Z" fill="#FF7A00"/>
<path d="M9.59375 18.4192C9.72181 18.3657 9.84495 18.3122 9.99271 18.249C10.0026 18.3171 10.0124 18.3657 10.0173 18.4192C9.8745 18.4192 9.73659 18.4192 9.59375 18.4192Z" fill="#FF7A00"/>
<path d="M8.24711 18.4093L8.46383 18.2246C8.46383 18.2927 8.46383 18.3559 8.46383 18.4191C8.38995 18.4191 8.31607 18.4093 8.24219 18.4093H8.24711Z" fill="#FF7A00"/>
<path d="M3.45312 18.409C3.51223 18.3459 3.57134 18.2827 3.68955 18.1611C3.67969 18.3021 3.67969 18.3604 3.67477 18.4188C3.60089 18.4188 3.52701 18.409 3.45805 18.409H3.45312Z" fill="#FF7A00"/>
<path d="M11.0734 10.5586C10.9552 10.5635 10.837 10.5683 10.7188 10.578C10.837 10.5732 10.9552 10.5683 11.0734 10.5586Z" fill="#222222"/>
<path d="M25.6724 10.5537C25.5788 10.5586 25.4852 10.5683 25.3867 10.5732C25.4803 10.5683 25.5739 10.5586 25.6724 10.5537Z" fill="#222222"/>
<path d="M19.1814 10.5537C19.1371 10.5634 19.0878 10.5683 19.0435 10.578C18.9499 10.5683 18.8563 10.5586 18.7578 10.5537C18.9007 10.5537 19.0386 10.5537 19.1814 10.5537Z" fill="#222222"/>
<path d="M10.7259 24.1455C10.6766 24.165 10.6274 24.1844 10.5781 24.199C10.6274 24.1795 10.6766 24.1601 10.7259 24.1455Z" fill="#FF7A00"/>
<path d="M6.91016 18.3747C6.95449 18.3553 6.99881 18.3359 7.04314 18.3164C7.04807 18.3504 7.05299 18.3845 7.05792 18.4185C7.00867 18.4039 6.95941 18.3893 6.91016 18.3747Z" fill="#FF7A00"/>
<path d="M7.69209 29.585C7.67731 29.6093 7.66254 29.6384 7.65268 29.6627C7.63791 29.6384 7.62313 29.6093 7.61328 29.585C7.64283 29.585 7.66746 29.585 7.69701 29.585H7.69209Z" fill="#FF7A00"/>
<path d="M10.2249 18.9051C10.1805 18.9148 10.1313 18.9245 10.087 18.9294C10.087 18.9051 10.087 18.8808 10.082 18.8564C10.1313 18.871 10.1805 18.8856 10.2298 18.9051H10.2249Z" fill="#FF7A00"/>
<path d="M1.63672 19.8916C1.63672 19.8916 1.67612 19.9305 1.69582 19.9499C1.67612 19.9305 1.65642 19.911 1.63672 19.8916Z" fill="#FF7A00"/>
<path d="M11.5907 30.8971C11.5907 30.8679 11.5907 30.8387 11.5859 30.8096C11.5859 30.8387 11.5859 30.8679 11.5907 30.8971Z" fill="#FF7A00"/>
<path d="M3.9499 18.91C3.9499 18.91 3.90557 18.9294 3.88094 18.9391C3.88094 18.9148 3.87602 18.8905 3.87109 18.8662C3.89572 18.8808 3.92035 18.9002 3.9499 18.9148V18.91Z" fill="#FF7A00"/>
<path d="M8.46094 18.2244C8.48556 18.2049 8.51019 18.1903 8.53482 18.1709C8.53974 18.1806 8.54467 18.1903 8.55452 18.1952C8.52497 18.2049 8.49542 18.2146 8.46094 18.2195V18.2244Z" fill="#FF7A00"/>
<path d="M6.79369 20.7273C6.98085 20.7273 7.17295 20.7079 7.35519 20.737C7.44877 20.7516 7.59161 20.8537 7.60146 20.9266C7.61131 21.0287 7.53743 21.2134 7.46355 21.2329C6.90205 21.3982 6.32577 21.4516 5.76427 21.228C5.69039 21.1988 5.64114 21.1016 5.58203 21.0384C5.65591 20.9752 5.71994 20.8732 5.80368 20.8537C6.12875 20.7808 6.45876 20.7322 6.78876 20.6787C6.78876 20.6933 6.79369 20.7127 6.79861 20.7273H6.79369Z" fill="#222222"/>
<path d="M3.60581 19.3425C3.55656 19.362 3.5073 19.3814 3.45312 19.4009H3.45805C3.49253 19.3668 3.52208 19.328 3.55656 19.2891C3.57134 19.3036 3.59104 19.3231 3.60581 19.3425Z" fill="#C0DAF0"/>
<path d="M3.45347 19.4053C3.45347 19.4053 3.45347 19.4393 3.45347 19.4539C3.43869 19.4539 3.42884 19.4442 3.41406 19.4393C3.42884 19.4296 3.44362 19.4199 3.45839 19.4101H3.45347V19.4053Z" fill="#C0DAF0"/>
<path d="M7.684 31.6894C6.98952 32.0199 6.34428 32.0783 5.60547 31.8061C5.71875 31.7088 5.82219 31.5387 5.9404 31.5338C6.44279 31.5047 6.94519 31.5192 7.45251 31.529C7.50669 31.529 7.56087 31.6019 7.684 31.6942V31.6894Z" fill="#222222"/>
<path d="M5.64062 26.4593C5.92137 26.1093 7.21676 26.0169 7.59602 26.3038C7.19706 26.6392 6.11347 26.7315 5.64062 26.4593Z" fill="#222222"/>
<path d="M4.62853 28.4765C4.62853 28.4765 4.62853 28.4911 4.62853 28.496C4.62853 28.5008 4.61416 28.5008 4.60938 28.5057C4.60938 28.4911 4.60938 28.4814 4.60938 28.4668C4.61416 28.4668 4.62374 28.4717 4.62853 28.4765Z" fill="#C0DAF0"/>
</g>
<defs>
<clipPath id="clip0_329_3216">
<rect width="36" height="35" fill="white"/>
</clipPath>
</defs>
</svg>
