<svg width="325" height="360" viewBox="0 0 325 360" fill="none" xmlns="http://www.w3.org/2000/svg">
<rect x="13.1523" y="5.46094" width="16.2954" height="6.51817" rx="3.25909" fill="#222222"/>
<path d="M41.2845 4.08241H42.4515V10.4634C42.4515 11.1222 42.2962 11.7104 41.9856 12.228C41.6782 12.7425 41.2437 13.1488 40.6821 13.4468C40.1206 13.7417 39.4618 13.8891 38.7057 13.8891C37.9497 13.8891 37.2909 13.7417 36.7293 13.4468C36.1678 13.1488 35.7317 12.7425 35.4211 12.228C35.1137 11.7104 34.96 11.1222 34.96 10.4634V4.08241H36.127V10.3693C36.127 10.8398 36.2305 11.2586 36.4376 11.6257C36.6446 11.9896 36.9395 12.2766 37.3223 12.4868C37.7081 12.6939 38.1693 12.7974 38.7057 12.7974C39.2422 12.7974 39.7034 12.6939 40.0892 12.4868C40.4751 12.2766 40.77 11.9896 40.9739 11.6257C41.1809 11.2586 41.2845 10.8398 41.2845 10.3693V4.08241ZM50.0524 6.49174C49.9959 6.01489 49.7669 5.64471 49.3654 5.38119C48.9638 5.11767 48.4713 4.98591 47.8878 4.98591C47.4611 4.98591 47.0878 5.05493 46.7678 5.19296C46.451 5.331 46.2031 5.52079 46.0243 5.76235C45.8486 6.00391 45.7608 6.27841 45.7608 6.58585C45.7608 6.8431 45.822 7.06427 45.9443 7.24936C46.0698 7.43132 46.2298 7.58347 46.4243 7.70582C46.6188 7.82503 46.8227 7.92385 47.036 8.00228C47.2494 8.07757 47.4454 8.13874 47.6243 8.1858L48.603 8.44932C48.854 8.5152 49.1332 8.60618 49.4407 8.72225C49.7512 8.83833 50.0477 8.99675 50.33 9.19753C50.6155 9.39517 50.8508 9.64928 51.0359 9.95986C51.221 10.2704 51.3135 10.6516 51.3135 11.1033C51.3135 11.6241 51.1771 12.0947 50.9041 12.5151C50.6343 12.9354 50.2391 13.2695 49.7183 13.5174C49.2007 13.7652 48.5717 13.8891 47.8313 13.8891C47.1411 13.8891 46.5435 13.7778 46.0384 13.555C45.5365 13.3323 45.1412 13.0217 44.8526 12.6233C44.5671 12.2249 44.4055 11.7621 44.3679 11.2351H45.5726C45.6039 11.599 45.7263 11.9002 45.9396 12.1386C46.1561 12.3739 46.429 12.5496 46.7584 12.6656C47.0909 12.7786 47.4486 12.8351 47.8313 12.8351C48.2768 12.8351 48.6768 12.7629 49.0313 12.6186C49.3858 12.4711 49.6665 12.2672 49.8736 12.0068C50.0806 11.7433 50.1842 11.4359 50.1842 11.0845C50.1842 10.7645 50.0948 10.5042 49.9159 10.3034C49.7371 10.1026 49.5018 9.93946 49.2101 9.81398C48.9183 9.68849 48.603 9.57869 48.2642 9.48458L47.0784 9.14577C46.3255 8.9293 45.7294 8.62029 45.2902 8.21874C44.851 7.81718 44.6314 7.29171 44.6314 6.64232C44.6314 6.10273 44.7773 5.63216 45.0691 5.23061C45.3639 4.82592 45.7592 4.5122 46.2549 4.28946C46.7537 4.06359 47.3105 3.95065 47.9254 3.95065C48.5466 3.95065 49.0987 4.06202 49.5818 4.28476C50.065 4.50436 50.4477 4.80552 50.73 5.18826C51.0155 5.57099 51.1661 6.00548 51.1818 6.49174H50.0524ZM62.2296 6.49174C62.1732 6.01489 61.9442 5.64471 61.5426 5.38119C61.141 5.11767 60.6485 4.98591 60.065 4.98591C59.6384 4.98591 59.265 5.05493 58.945 5.19296C58.6282 5.331 58.3804 5.52079 58.2015 5.76235C58.0259 6.00391 57.938 6.27841 57.938 6.58585C57.938 6.8431 57.9992 7.06427 58.1215 7.24936C58.247 7.43132 58.407 7.58347 58.6015 7.70582C58.796 7.82503 58.9999 7.92385 59.2133 8.00228C59.4266 8.07757 59.6227 8.13874 59.8015 8.1858L60.7803 8.44932C61.0312 8.5152 61.3105 8.60618 61.6179 8.72225C61.9285 8.83833 62.2249 8.99675 62.5073 9.19753C62.7928 9.39517 63.028 9.64928 63.2131 9.95986C63.3982 10.2704 63.4908 10.6516 63.4908 11.1033C63.4908 11.6241 63.3543 12.0947 63.0814 12.5151C62.8116 12.9354 62.4163 13.2695 61.8955 13.5174C61.3779 13.7652 60.7489 13.8891 60.0085 13.8891C59.3184 13.8891 58.7207 13.7778 58.2157 13.555C57.7137 13.3323 57.3184 13.0217 57.0298 12.6233C56.7443 12.2249 56.5828 11.7621 56.5451 11.2351H57.7498C57.7812 11.599 57.9035 11.9002 58.1168 12.1386C58.3333 12.3739 58.6062 12.5496 58.9356 12.6656C59.2682 12.7786 59.6258 12.8351 60.0085 12.8351C60.454 12.8351 60.854 12.7629 61.2085 12.6186C61.563 12.4711 61.8438 12.2672 62.0508 12.0068C62.2579 11.7433 62.3614 11.4359 62.3614 11.0845C62.3614 10.7645 62.272 10.5042 62.0932 10.3034C61.9144 10.1026 61.6791 9.93946 61.3873 9.81398C61.0956 9.68849 60.7803 9.57869 60.4415 9.48458L59.2556 9.14577C58.5027 8.9293 57.9066 8.62029 57.4674 8.21874C57.0282 7.81718 56.8086 7.29171 56.8086 6.64232C56.8086 6.10273 56.9545 5.63216 57.2463 5.23061C57.5412 4.82592 57.9364 4.5122 58.4321 4.28946C58.9309 4.06359 59.4878 3.95065 60.1026 3.95065C60.7238 3.95065 61.2759 4.06202 61.7591 4.28476C62.2422 4.50436 62.6249 4.80552 62.9073 5.18826C63.1927 5.57099 63.3433 6.00548 63.359 6.49174H62.2296ZM67.3859 13.8891C66.9279 13.8891 66.5122 13.8029 66.1389 13.6303C65.7656 13.4546 65.4691 13.2021 65.2495 12.8727C65.0299 12.5402 64.9201 12.1386 64.9201 11.668C64.9201 11.2539 65.0017 10.9183 65.1648 10.661C65.328 10.4006 65.546 10.1967 65.8189 10.0493C66.0919 9.90182 66.393 9.79202 66.7224 9.71986C67.055 9.64457 67.3891 9.58497 67.7247 9.54105C68.1639 9.48458 68.52 9.44223 68.7929 9.41399C69.069 9.38262 69.2698 9.33086 69.3953 9.2587C69.5239 9.18655 69.5882 9.06106 69.5882 8.88225V8.8446C69.5882 8.3803 69.4611 8.01953 69.207 7.76228C68.9561 7.50504 68.5749 7.37642 68.0636 7.37642C67.5334 7.37642 67.1177 7.49249 66.8165 7.72464C66.5154 7.95679 66.3036 8.20462 66.1813 8.46814L65.1272 8.09169C65.3154 7.65248 65.5664 7.31054 65.8801 7.06584C66.1969 6.818 66.542 6.64546 66.9154 6.54821C67.2918 6.44782 67.662 6.39763 68.0259 6.39763C68.2581 6.39763 68.5247 6.42586 68.8259 6.48233C69.1302 6.53566 69.4235 6.64703 69.7058 6.81643C69.9913 6.98584 70.2282 7.24152 70.4164 7.58347C70.6046 7.92542 70.6988 8.38344 70.6988 8.95754V13.7197H69.5882V12.7409H69.5317C69.4564 12.8978 69.331 13.0656 69.1553 13.2444C68.9796 13.4233 68.7459 13.5754 68.4541 13.7009C68.1624 13.8264 67.8063 13.8891 67.3859 13.8891ZM67.5553 12.8915C67.9945 12.8915 68.3647 12.8052 68.6659 12.6327C68.9702 12.4602 69.1992 12.2374 69.3529 11.9645C69.5098 11.6916 69.5882 11.4045 69.5882 11.1033V10.0869C69.5411 10.1434 69.4376 10.1951 69.2776 10.2422C69.1208 10.2861 68.9388 10.3253 68.7318 10.3598C68.5278 10.3912 68.3286 10.4194 68.1341 10.4445C67.9428 10.4665 67.7875 10.4853 67.6683 10.501C67.3797 10.5387 67.1099 10.5998 66.8589 10.6845C66.6111 10.7661 66.4103 10.89 66.2566 11.0563C66.106 11.2194 66.0307 11.4422 66.0307 11.7245C66.0307 12.1104 66.1734 12.4021 66.4589 12.5998C66.7475 12.7943 67.113 12.8915 67.5553 12.8915ZM73.8363 4.08241V13.7197H72.7257V4.08241H73.8363ZM77.9973 13.8891C77.5393 13.8891 77.1236 13.8029 76.7503 13.6303C76.377 13.4546 76.0805 13.2021 75.8609 12.8727C75.6413 12.5402 75.5315 12.1386 75.5315 11.668C75.5315 11.2539 75.6131 10.9183 75.7762 10.661C75.9394 10.4006 76.1574 10.1967 76.4303 10.0493C76.7033 9.90182 77.0044 9.79202 77.3338 9.71986C77.6664 9.64457 78.0005 9.58497 78.3361 9.54105C78.7753 9.48458 79.1314 9.44223 79.4043 9.41399C79.6804 9.38262 79.8812 9.33086 80.0067 9.2587C80.1353 9.18655 80.1996 9.06106 80.1996 8.88225V8.8446C80.1996 8.3803 80.0725 8.01953 79.8184 7.76228C79.5675 7.50504 79.1863 7.37642 78.6749 7.37642C78.1448 7.37642 77.7291 7.49249 77.4279 7.72464C77.1268 7.95679 76.915 8.20462 76.7927 8.46814L75.7386 8.09169C75.9268 7.65248 76.1778 7.31054 76.4915 7.06584C76.8083 6.818 77.1534 6.64546 77.5268 6.54821C77.9032 6.44782 78.2734 6.39763 78.6373 6.39763C78.8695 6.39763 79.1361 6.42586 79.4373 6.48233C79.7416 6.53566 80.0349 6.64703 80.3172 6.81643C80.6027 6.98584 80.8396 7.24152 81.0278 7.58347C81.216 7.92542 81.3102 8.38344 81.3102 8.95754V13.7197H80.1996V12.7409H80.1431C80.0678 12.8978 79.9424 13.0656 79.7667 13.2444C79.591 13.4233 79.3573 13.5754 79.0655 13.7009C78.7738 13.8264 78.4177 13.8891 77.9973 13.8891ZM78.1667 12.8915C78.6059 12.8915 78.9761 12.8052 79.2773 12.6327C79.5816 12.4602 79.8106 12.2374 79.9643 11.9645C80.1212 11.6916 80.1996 11.4045 80.1996 11.1033V10.0869C80.1525 10.1434 80.049 10.1951 79.889 10.2422C79.7322 10.2861 79.5502 10.3253 79.3432 10.3598C79.1392 10.3912 78.94 10.4194 78.7455 10.4445C78.5542 10.4665 78.3989 10.4853 78.2797 10.501C77.9911 10.5387 77.7213 10.5998 77.4703 10.6845C77.2225 10.7661 77.0217 10.89 76.868 11.0563C76.7174 11.2194 76.6421 11.4422 76.6421 11.7245C76.6421 12.1104 76.7848 12.4021 77.0703 12.5998C77.3589 12.7943 77.7244 12.8915 78.1667 12.8915ZM83.3371 13.7197V6.49174H84.41V7.58347H84.4853C84.6171 7.22583 84.8555 6.93565 85.2006 6.71291C85.5457 6.49017 85.9347 6.3788 86.3676 6.3788C86.4492 6.3788 86.5511 6.38037 86.6735 6.38351C86.7958 6.38665 86.8884 6.39135 86.9511 6.39763V7.527C86.9135 7.51759 86.8272 7.50347 86.6923 7.48465C86.5606 7.46269 86.421 7.45171 86.2735 7.45171C85.9222 7.45171 85.6084 7.52543 85.3324 7.67288C85.0594 7.81718 84.843 8.01796 84.683 8.27521C84.5261 8.52932 84.4477 8.8195 84.4477 9.14577V13.7197H83.3371ZM89.2028 16.4302C89.0146 16.4302 88.8468 16.4145 88.6993 16.3832C88.5519 16.3549 88.4499 16.3267 88.3934 16.2985L88.6758 15.3197C88.9456 15.3887 89.184 15.4138 89.391 15.395C89.5981 15.3761 89.7816 15.2836 89.9416 15.1173C90.1047 14.9542 90.2538 14.6891 90.3887 14.3221L90.5957 13.7574L87.9229 6.49174H89.1275L91.1228 12.2515H91.198L93.1933 6.49174H94.3979L91.3298 14.7738C91.1918 15.1471 91.0208 15.4561 90.8169 15.7008C90.613 15.9487 90.3761 16.1322 90.1063 16.2514C89.8397 16.3706 89.5385 16.4302 89.2028 16.4302Z" fill="black"/>
<rect x="106.656" y="5.46094" width="16.2954" height="6.51817" rx="3.25909" fill="#FF7A00"/>
<path d="M128.464 13.7197V4.08241H131.72C132.473 4.08241 133.091 4.21103 133.574 4.46828C134.057 4.72239 134.415 5.07218 134.647 5.51766C134.879 5.96313 134.995 6.46978 134.995 7.0376C134.995 7.60543 134.879 8.10894 134.647 8.54814C134.415 8.98734 134.059 9.33243 133.579 9.5834C133.099 9.83123 132.486 9.95515 131.739 9.95515H129.104V8.90107H131.701C132.216 8.90107 132.63 8.82578 132.944 8.67519C133.261 8.52461 133.49 8.31129 133.631 8.03522C133.775 7.75601 133.847 7.42347 133.847 7.0376C133.847 6.65173 133.775 6.31449 133.631 6.02587C133.486 5.73726 133.256 5.51452 132.939 5.35766C132.622 5.19767 132.203 5.11767 131.683 5.11767H129.631V13.7197H128.464ZM133 9.39046L135.372 13.7197H134.017L131.683 9.39046H133ZM139.742 13.8703C139.046 13.8703 138.445 13.7166 137.94 13.4091C137.438 13.0986 137.051 12.6656 136.778 12.1104C136.508 11.552 136.373 10.9026 136.373 10.1622C136.373 9.42184 136.508 8.76931 136.778 8.20462C137.051 7.6368 137.43 7.19446 137.917 6.87761C138.406 6.55762 138.977 6.39763 139.629 6.39763C140.006 6.39763 140.378 6.46037 140.745 6.58585C141.112 6.71134 141.446 6.91526 141.747 7.1976C142.048 7.4768 142.288 7.84699 142.467 8.30815C142.646 8.76931 142.735 9.33713 142.735 10.0116V10.4822H137.164V9.52222H141.606C141.606 9.1144 141.524 8.75049 141.361 8.4305C141.201 8.11051 140.972 7.85797 140.674 7.67288C140.379 7.48778 140.031 7.39524 139.629 7.39524C139.187 7.39524 138.804 7.50504 138.481 7.72464C138.161 7.9411 137.915 8.22345 137.742 8.57167C137.57 8.91989 137.484 9.29321 137.484 9.69163V10.3316C137.484 10.8775 137.578 11.3402 137.766 11.7198C137.957 12.0963 138.222 12.3833 138.561 12.5809C138.9 12.7754 139.294 12.8727 139.742 12.8727C140.034 12.8727 140.298 12.8319 140.533 12.7503C140.771 12.6656 140.977 12.5402 141.149 12.3739C141.322 12.2045 141.455 11.9943 141.549 11.7433L142.622 12.0445C142.509 12.4084 142.319 12.7284 142.053 13.0045C141.786 13.2774 141.457 13.4907 141.065 13.6444C140.672 13.795 140.232 13.8703 139.742 13.8703ZM144.425 13.7197V6.49174H145.497V7.62111H145.592C145.742 7.23524 145.985 6.93565 146.321 6.72232C146.657 6.50586 147.06 6.39763 147.53 6.39763C148.007 6.39763 148.404 6.50586 148.721 6.72232C149.041 6.93565 149.29 7.23524 149.469 7.62111H149.544C149.729 7.24779 150.007 6.95133 150.377 6.73173C150.747 6.509 151.191 6.39763 151.709 6.39763C152.355 6.39763 152.884 6.59997 153.295 7.00466C153.706 7.40622 153.911 8.03208 153.911 8.88225V13.7197H152.801V8.88225C152.801 8.34893 152.655 7.96777 152.363 7.73876C152.071 7.50974 151.728 7.39524 151.333 7.39524C150.824 7.39524 150.431 7.54896 150.151 7.8564C149.872 8.1607 149.733 8.54657 149.733 9.01401V13.7197H148.603V8.76931C148.603 8.35834 148.47 8.02737 148.203 7.7764C147.937 7.52229 147.593 7.39524 147.173 7.39524C146.884 7.39524 146.614 7.4721 146.363 7.62582C146.115 7.77954 145.915 7.99287 145.761 8.2658C145.61 8.53559 145.535 8.84774 145.535 9.20224V13.7197H144.425ZM158.878 13.8703C158.226 13.8703 157.653 13.715 157.161 13.4044C156.671 13.0939 156.288 12.6594 156.012 12.101C155.739 11.5425 155.603 10.89 155.603 10.1434C155.603 9.39046 155.739 8.73323 156.012 8.17168C156.288 7.61013 156.671 7.17407 157.161 6.86349C157.653 6.55292 158.226 6.39763 158.878 6.39763C159.531 6.39763 160.102 6.55292 160.591 6.86349C161.084 7.17407 161.466 7.61013 161.739 8.17168C162.015 8.73323 162.153 9.39046 162.153 10.1434C162.153 10.89 162.015 11.5425 161.739 12.101C161.466 12.6594 161.084 13.0939 160.591 13.4044C160.102 13.715 159.531 13.8703 158.878 13.8703ZM158.878 12.8727C159.374 12.8727 159.782 12.7456 160.102 12.4915C160.422 12.2374 160.658 11.9033 160.812 11.4892C160.966 11.0751 161.043 10.6265 161.043 10.1434C161.043 9.66026 160.966 9.21008 160.812 8.79284C160.658 8.3756 160.422 8.03835 160.102 7.78111C159.782 7.52386 159.374 7.39524 158.878 7.39524C158.382 7.39524 157.975 7.52386 157.655 7.78111C157.335 8.03835 157.098 8.3756 156.944 8.79284C156.79 9.21008 156.714 9.66026 156.714 10.1434C156.714 10.6265 156.79 11.0751 156.944 11.4892C157.098 11.9033 157.335 12.2374 157.655 12.4915C157.975 12.7456 158.382 12.8727 158.878 12.8727ZM166.992 6.49174V7.43288H163.246V6.49174H166.992ZM164.338 4.76004H165.448V11.6492C165.448 11.9629 165.494 12.1982 165.585 12.3551C165.679 12.5088 165.798 12.6123 165.943 12.6656C166.09 12.7158 166.245 12.7409 166.408 12.7409C166.531 12.7409 166.631 12.7347 166.71 12.7221C166.788 12.7064 166.851 12.6939 166.898 12.6845L167.124 13.6821C167.048 13.7103 166.943 13.7385 166.808 13.7668C166.674 13.7982 166.503 13.8138 166.296 13.8138C165.982 13.8138 165.674 13.7464 165.373 13.6115C165.075 13.4766 164.827 13.2711 164.63 12.995C164.435 12.719 164.338 12.3708 164.338 11.9504V4.76004ZM173.218 10.7645V6.49174H174.328V13.7197H173.218V12.4962H173.142C172.973 12.8633 172.709 13.1754 172.352 13.4327C171.994 13.6868 171.542 13.8138 170.997 13.8138C170.545 13.8138 170.143 13.715 169.792 13.5174C169.441 13.3166 169.164 13.0154 168.964 12.6139C168.763 12.2092 168.663 11.6994 168.663 11.0845V6.49174H169.773V11.0092C169.773 11.5363 169.921 11.9567 170.215 12.2704C170.513 12.5841 170.893 12.7409 171.354 12.7409C171.63 12.7409 171.911 12.6704 172.197 12.5292C172.485 12.388 172.727 12.1715 172.921 11.8798C173.119 11.588 173.218 11.2163 173.218 10.7645ZM178.489 13.8891C178.031 13.8891 177.616 13.8029 177.242 13.6303C176.869 13.4546 176.572 13.2021 176.353 12.8727C176.133 12.5402 176.023 12.1386 176.023 11.668C176.023 11.2539 176.105 10.9183 176.268 10.661C176.431 10.4006 176.649 10.1967 176.922 10.0493C177.195 9.90182 177.496 9.79202 177.826 9.71986C178.158 9.64457 178.492 9.58497 178.828 9.54105C179.267 9.48458 179.623 9.44223 179.896 9.41399C180.172 9.38262 180.373 9.33086 180.499 9.2587C180.627 9.18655 180.692 9.06106 180.692 8.88225V8.8446C180.692 8.3803 180.564 8.01953 180.31 7.76228C180.059 7.50504 179.678 7.37642 179.167 7.37642C178.637 7.37642 178.221 7.49249 177.92 7.72464C177.619 7.95679 177.407 8.20462 177.285 8.46814L176.23 8.09169C176.419 7.65248 176.67 7.31054 176.983 7.06584C177.3 6.818 177.645 6.64546 178.019 6.54821C178.395 6.44782 178.765 6.39763 179.129 6.39763C179.361 6.39763 179.628 6.42586 179.929 6.48233C180.233 6.53566 180.527 6.64703 180.809 6.81643C181.095 6.98584 181.331 7.24152 181.52 7.58347C181.708 7.92542 181.802 8.38344 181.802 8.95754V13.7197H180.692V12.7409H180.635C180.56 12.8978 180.434 13.0656 180.259 13.2444C180.083 13.4233 179.849 13.5754 179.557 13.7009C179.266 13.8264 178.91 13.8891 178.489 13.8891ZM178.659 12.8915C179.098 12.8915 179.468 12.8052 179.769 12.6327C180.073 12.4602 180.302 12.2374 180.456 11.9645C180.613 11.6916 180.692 11.4045 180.692 11.1033V10.0869C180.644 10.1434 180.541 10.1951 180.381 10.2422C180.224 10.2861 180.042 10.3253 179.835 10.3598C179.631 10.3912 179.432 10.4194 179.237 10.4445C179.046 10.4665 178.891 10.4853 178.772 10.501C178.483 10.5387 178.213 10.5998 177.962 10.6845C177.714 10.7661 177.514 10.89 177.36 11.0563C177.209 11.2194 177.134 11.4422 177.134 11.7245C177.134 12.1104 177.277 12.4021 177.562 12.5998C177.851 12.7943 178.216 12.8915 178.659 12.8915ZM184.94 4.08241V13.7197H183.829V4.08241H184.94ZM196.122 6.49174C196.065 6.01489 195.836 5.64471 195.435 5.38119C195.033 5.11767 194.54 4.98591 193.957 4.98591C193.53 4.98591 193.157 5.05493 192.837 5.19296C192.52 5.331 192.272 5.52079 192.093 5.76235C191.918 6.00391 191.83 6.27841 191.83 6.58585C191.83 6.8431 191.891 7.06427 192.013 7.24936C192.139 7.43132 192.299 7.58347 192.493 7.70582C192.688 7.82503 192.892 7.92385 193.105 8.00228C193.319 8.07757 193.515 8.13874 193.693 8.1858L194.672 8.44932C194.923 8.5152 195.202 8.60618 195.51 8.72225C195.82 8.83833 196.117 8.99675 196.399 9.19753C196.685 9.39517 196.92 9.64928 197.105 9.95986C197.29 10.2704 197.383 10.6516 197.383 11.1033C197.383 11.6241 197.246 12.0947 196.973 12.5151C196.704 12.9354 196.308 13.2695 195.787 13.5174C195.27 13.7652 194.641 13.8891 193.9 13.8891C193.21 13.8891 192.613 13.7778 192.108 13.555C191.606 13.3323 191.21 13.0217 190.922 12.6233C190.636 12.2249 190.475 11.7621 190.437 11.2351H191.642C191.673 11.599 191.795 11.9002 192.009 12.1386C192.225 12.3739 192.498 12.5496 192.828 12.6656C193.16 12.7786 193.518 12.8351 193.9 12.8351C194.346 12.8351 194.746 12.7629 195.1 12.6186C195.455 12.4711 195.736 12.2672 195.943 12.0068C196.15 11.7433 196.253 11.4359 196.253 11.0845C196.253 10.7645 196.164 10.5042 195.985 10.3034C195.806 10.1026 195.571 9.93946 195.279 9.81398C194.987 9.68849 194.672 9.57869 194.333 9.48458L193.148 9.14577C192.395 8.9293 191.799 8.62029 191.359 8.21874C190.92 7.81718 190.701 7.29171 190.701 6.64232C190.701 6.10273 190.846 5.63216 191.138 5.23061C191.433 4.82592 191.828 4.5122 192.324 4.28946C192.823 4.06359 193.38 3.95065 193.995 3.95065C194.616 3.95065 195.168 4.06202 195.651 4.28476C196.134 4.50436 196.517 4.80552 196.799 5.18826C197.085 5.57099 197.235 6.00548 197.251 6.49174H196.122ZM201.278 13.8891C200.82 13.8891 200.404 13.8029 200.031 13.6303C199.658 13.4546 199.361 13.2021 199.141 12.8727C198.922 12.5402 198.812 12.1386 198.812 11.668C198.812 11.2539 198.894 10.9183 199.057 10.661C199.22 10.4006 199.438 10.1967 199.711 10.0493C199.984 9.90182 200.285 9.79202 200.614 9.71986C200.947 9.64457 201.281 9.58497 201.617 9.54105C202.056 9.48458 202.412 9.44223 202.685 9.41399C202.961 9.38262 203.162 9.33086 203.287 9.2587C203.416 9.18655 203.48 9.06106 203.48 8.88225V8.8446C203.48 8.3803 203.353 8.01953 203.099 7.76228C202.848 7.50504 202.467 7.37642 201.955 7.37642C201.425 7.37642 201.01 7.49249 200.708 7.72464C200.407 7.95679 200.196 8.20462 200.073 8.46814L199.019 8.09169C199.207 7.65248 199.458 7.31054 199.772 7.06584C200.089 6.818 200.434 6.64546 200.807 6.54821C201.184 6.44782 201.554 6.39763 201.918 6.39763C202.15 6.39763 202.417 6.42586 202.718 6.48233C203.022 6.53566 203.315 6.64703 203.598 6.81643C203.883 6.98584 204.12 7.24152 204.308 7.58347C204.497 7.92542 204.591 8.38344 204.591 8.95754V13.7197H203.48V12.7409H203.424C203.348 12.8978 203.223 13.0656 203.047 13.2444C202.872 13.4233 202.638 13.5754 202.346 13.7009C202.054 13.8264 201.698 13.8891 201.278 13.8891ZM201.447 12.8915C201.886 12.8915 202.257 12.8052 202.558 12.6327C202.862 12.4602 203.091 12.2374 203.245 11.9645C203.402 11.6916 203.48 11.4045 203.48 11.1033V10.0869C203.433 10.1434 203.33 10.1951 203.17 10.2422C203.013 10.2861 202.831 10.3253 202.624 10.3598C202.42 10.3912 202.221 10.4194 202.026 10.4445C201.835 10.4665 201.679 10.4853 201.56 10.501C201.272 10.5387 201.002 10.5998 200.751 10.6845C200.503 10.7661 200.302 10.89 200.148 11.0563C199.998 11.2194 199.923 11.4422 199.923 11.7245C199.923 12.1104 200.065 12.4021 200.351 12.5998C200.639 12.7943 201.005 12.8915 201.447 12.8915ZM207.728 4.08241V13.7197H206.618V4.08241H207.728ZM211.889 13.8891C211.431 13.8891 211.016 13.8029 210.642 13.6303C210.269 13.4546 209.972 13.2021 209.753 12.8727C209.533 12.5402 209.423 12.1386 209.423 11.668C209.423 11.2539 209.505 10.9183 209.668 10.661C209.831 10.4006 210.049 10.1967 210.322 10.0493C210.595 9.90182 210.896 9.79202 211.226 9.71986C211.558 9.64457 211.892 9.58497 212.228 9.54105C212.667 9.48458 213.023 9.44223 213.296 9.41399C213.572 9.38262 213.773 9.33086 213.899 9.2587C214.027 9.18655 214.092 9.06106 214.092 8.88225V8.8446C214.092 8.3803 213.964 8.01953 213.71 7.76228C213.459 7.50504 213.078 7.37642 212.567 7.37642C212.037 7.37642 211.621 7.49249 211.32 7.72464C211.019 7.95679 210.807 8.20462 210.685 8.46814L209.631 8.09169C209.819 7.65248 210.07 7.31054 210.383 7.06584C210.7 6.818 211.045 6.64546 211.419 6.54821C211.795 6.44782 212.165 6.39763 212.529 6.39763C212.761 6.39763 213.028 6.42586 213.329 6.48233C213.634 6.53566 213.927 6.64703 214.209 6.81643C214.495 6.98584 214.732 7.24152 214.92 7.58347C215.108 7.92542 215.202 8.38344 215.202 8.95754V13.7197H214.092V12.7409H214.035C213.96 12.8978 213.834 13.0656 213.659 13.2444C213.483 13.4233 213.249 13.5754 212.957 13.7009C212.666 13.8264 212.31 13.8891 211.889 13.8891ZM212.059 12.8915C212.498 12.8915 212.868 12.8052 213.169 12.6327C213.474 12.4602 213.703 12.2374 213.856 11.9645C214.013 11.6916 214.092 11.4045 214.092 11.1033V10.0869C214.044 10.1434 213.941 10.1951 213.781 10.2422C213.624 10.2861 213.442 10.3253 213.235 10.3598C213.031 10.3912 212.832 10.4194 212.637 10.4445C212.446 10.4665 212.291 10.4853 212.172 10.501C211.883 10.5387 211.613 10.5998 211.362 10.6845C211.114 10.7661 210.914 10.89 210.76 11.0563C210.609 11.2194 210.534 11.4422 210.534 11.7245C210.534 12.1104 210.677 12.4021 210.962 12.5998C211.251 12.7943 211.616 12.8915 212.059 12.8915ZM217.229 13.7197V6.49174H218.302V7.58347H218.377C218.509 7.22583 218.747 6.93565 219.093 6.71291C219.438 6.49017 219.827 6.3788 220.26 6.3788C220.341 6.3788 220.443 6.38037 220.565 6.38351C220.688 6.38665 220.78 6.39135 220.843 6.39763V7.527C220.805 7.51759 220.719 7.50347 220.584 7.48465C220.452 7.46269 220.313 7.45171 220.165 7.45171C219.814 7.45171 219.5 7.52543 219.224 7.67288C218.951 7.81718 218.735 8.01796 218.575 8.27521C218.418 8.52932 218.34 8.8195 218.34 9.14577V13.7197H217.229ZM223.095 16.4302C222.907 16.4302 222.739 16.4145 222.591 16.3832C222.444 16.3549 222.342 16.3267 222.285 16.2985L222.568 15.3197C222.837 15.3887 223.076 15.4138 223.283 15.395C223.49 15.3761 223.674 15.2836 223.834 15.1173C223.997 14.9542 224.146 14.6891 224.281 14.3221L224.488 13.7574L221.815 6.49174H223.019L225.015 12.2515H225.09L227.085 6.49174H228.29L225.222 14.7738C225.084 15.1471 224.913 15.4561 224.709 15.7008C224.505 15.9487 224.268 16.1322 223.998 16.2514C223.732 16.3706 223.43 16.4302 223.095 16.4302Z" fill="black"/>
<rect x="240.16" y="5.46094" width="16.2954" height="6.51817" rx="3.25909" fill="#FFEBD9"/>
<path d="M267.238 6.49174C267.182 6.01489 266.953 5.64471 266.551 5.38119C266.15 5.11767 265.657 4.98591 265.074 4.98591C264.647 4.98591 264.274 5.05493 263.954 5.19296C263.637 5.331 263.389 5.52079 263.21 5.76235C263.034 6.00391 262.947 6.27841 262.947 6.58585C262.947 6.8431 263.008 7.06427 263.13 7.24936C263.256 7.43132 263.416 7.58347 263.61 7.70582C263.805 7.82503 264.009 7.92385 264.222 8.00228C264.435 8.07757 264.631 8.13874 264.81 8.1858L265.789 8.44932C266.04 8.5152 266.319 8.60618 266.626 8.72225C266.937 8.83833 267.234 8.99675 267.516 9.19753C267.801 9.39517 268.037 9.64928 268.222 9.95986C268.407 10.2704 268.499 10.6516 268.499 11.1033C268.499 11.6241 268.363 12.0947 268.09 12.5151C267.82 12.9354 267.425 13.2695 266.904 13.5174C266.386 13.7652 265.757 13.8891 265.017 13.8891C264.327 13.8891 263.729 13.7778 263.224 13.555C262.722 13.3323 262.327 13.0217 262.038 12.6233C261.753 12.2249 261.591 11.7621 261.554 11.2351H262.758C262.79 11.599 262.912 11.9002 263.125 12.1386C263.342 12.3739 263.615 12.5496 263.944 12.6656C264.277 12.7786 264.634 12.8351 265.017 12.8351C265.463 12.8351 265.863 12.7629 266.217 12.6186C266.572 12.4711 266.852 12.2672 267.059 12.0068C267.266 11.7433 267.37 11.4359 267.37 11.0845C267.37 10.7645 267.281 10.5042 267.102 10.3034C266.923 10.1026 266.688 9.93946 266.396 9.81398C266.104 9.68849 265.789 9.57869 265.45 9.48458L264.264 9.14577C263.511 8.9293 262.915 8.62029 262.476 8.21874C262.037 7.81718 261.817 7.29171 261.817 6.64232C261.817 6.10273 261.963 5.63216 262.255 5.23061C262.55 4.82592 262.945 4.5122 263.441 4.28946C263.939 4.06359 264.496 3.95065 265.111 3.95065C265.732 3.95065 266.285 4.06202 266.768 4.28476C267.251 4.50436 267.633 4.80552 267.916 5.18826C268.201 5.57099 268.352 6.00548 268.368 6.49174H267.238ZM272.394 13.8891C271.936 13.8891 271.521 13.8029 271.147 13.6303C270.774 13.4546 270.478 13.2021 270.258 12.8727C270.039 12.5402 269.929 12.1386 269.929 11.668C269.929 11.2539 270.01 10.9183 270.173 10.661C270.337 10.4006 270.555 10.1967 270.827 10.0493C271.1 9.90182 271.402 9.79202 271.731 9.71986C272.064 9.64457 272.398 9.58497 272.733 9.54105C273.173 9.48458 273.529 9.44223 273.802 9.41399C274.078 9.38262 274.278 9.33086 274.404 9.2587C274.532 9.18655 274.597 9.06106 274.597 8.88225V8.8446C274.597 8.3803 274.47 8.01953 274.216 7.76228C273.965 7.50504 273.583 7.37642 273.072 7.37642C272.542 7.37642 272.126 7.49249 271.825 7.72464C271.524 7.95679 271.312 8.20462 271.19 8.46814L270.136 8.09169C270.324 7.65248 270.575 7.31054 270.889 7.06584C271.206 6.818 271.551 6.64546 271.924 6.54821C272.3 6.44782 272.671 6.39763 273.034 6.39763C273.267 6.39763 273.533 6.42586 273.834 6.48233C274.139 6.53566 274.432 6.64703 274.714 6.81643C275 6.98584 275.237 7.24152 275.425 7.58347C275.613 7.92542 275.707 8.38344 275.707 8.95754V13.7197H274.597V12.7409H274.54C274.465 12.8978 274.34 13.0656 274.164 13.2444C273.988 13.4233 273.754 13.5754 273.463 13.7009C273.171 13.8264 272.815 13.8891 272.394 13.8891ZM272.564 12.8915C273.003 12.8915 273.373 12.8052 273.674 12.6327C273.979 12.4602 274.208 12.2374 274.361 11.9645C274.518 11.6916 274.597 11.4045 274.597 11.1033V10.0869C274.55 10.1434 274.446 10.1951 274.286 10.2422C274.129 10.2861 273.947 10.3253 273.74 10.3598C273.536 10.3912 273.337 10.4194 273.143 10.4445C272.951 10.4665 272.796 10.4853 272.677 10.501C272.388 10.5387 272.118 10.5998 271.867 10.6845C271.62 10.7661 271.419 10.89 271.265 11.0563C271.115 11.2194 271.039 11.4422 271.039 11.7245C271.039 12.1104 271.182 12.4021 271.467 12.5998C271.756 12.7943 272.122 12.8915 272.564 12.8915ZM283.386 6.49174L280.713 13.7197H279.584L276.911 6.49174H278.115L280.111 12.2515H280.186L282.181 6.49174H283.386ZM284.852 13.7197V6.49174H285.962V13.7197H284.852ZM285.416 5.28708C285.2 5.28708 285.013 5.21335 284.856 5.06591C284.703 4.91846 284.626 4.74121 284.626 4.53416C284.626 4.32711 284.703 4.14986 284.856 4.00241C285.013 3.85497 285.2 3.78125 285.416 3.78125C285.633 3.78125 285.818 3.85497 285.972 4.00241C286.129 4.14986 286.207 4.32711 286.207 4.53416C286.207 4.74121 286.129 4.91846 285.972 5.06591C285.818 5.21335 285.633 5.28708 285.416 5.28708ZM289.107 9.37164V13.7197H287.996V6.49174H289.069V7.62111H289.163C289.333 7.25407 289.59 6.95918 289.935 6.73644C290.28 6.51056 290.726 6.39763 291.271 6.39763C291.761 6.39763 292.189 6.49801 292.556 6.69879C292.923 6.89643 293.209 7.1976 293.413 7.60229C293.617 8.00385 293.718 8.51206 293.718 9.12694V13.7197H292.608V9.20224C292.608 8.63441 292.46 8.19207 292.166 7.87522C291.871 7.55523 291.466 7.39524 290.952 7.39524C290.597 7.39524 290.28 7.4721 290.001 7.62582C289.725 7.77954 289.507 8.00385 289.347 8.29874C289.187 8.59363 289.107 8.95126 289.107 9.37164ZM298.665 16.5808C298.129 16.5808 297.668 16.5118 297.282 16.3738C296.896 16.2389 296.574 16.06 296.317 15.8373C296.063 15.6177 295.861 15.3824 295.71 15.1314L296.595 14.5103C296.695 14.642 296.822 14.7926 296.976 14.962C297.13 15.1346 297.34 15.2836 297.607 15.4091C297.876 15.5377 298.229 15.602 298.665 15.602C299.249 15.602 299.73 15.4608 300.11 15.1785C300.49 14.8962 300.679 14.4538 300.679 13.8515V12.3833H300.585C300.504 12.5151 300.388 12.6782 300.237 12.8727C300.09 13.0641 299.876 13.235 299.597 13.3856C299.321 13.5331 298.948 13.6068 298.477 13.6068C297.894 13.6068 297.37 13.4688 296.905 13.1927C296.444 12.9166 296.079 12.5151 295.809 11.988C295.542 11.461 295.409 10.821 295.409 10.0681C295.409 9.32772 295.539 8.68304 295.8 8.13404C296.06 7.5819 296.422 7.15525 296.887 6.85408C297.351 6.54978 297.887 6.39763 298.496 6.39763C298.967 6.39763 299.34 6.47606 299.616 6.63291C299.895 6.78663 300.108 6.96231 300.256 7.15995C300.406 7.35446 300.523 7.51445 300.604 7.63994H300.717V6.49174H301.79V13.9268C301.79 14.5479 301.649 15.053 301.366 15.442C301.087 15.8342 300.711 16.1212 300.237 16.3032C299.766 16.4883 299.243 16.5808 298.665 16.5808ZM298.628 12.6092C299.073 12.6092 299.45 12.5072 299.757 12.3033C300.065 12.0994 300.298 11.8061 300.458 11.4233C300.618 11.0406 300.698 10.5826 300.698 10.0493C300.698 9.5285 300.62 9.06891 300.463 8.67049C300.306 8.27207 300.074 7.95993 299.766 7.73405C299.459 7.50818 299.079 7.39524 298.628 7.39524C298.157 7.39524 297.765 7.51445 297.451 7.75287C297.141 7.9913 296.907 8.31129 296.75 8.71284C296.596 9.1144 296.52 9.55987 296.52 10.0493C296.52 10.5512 296.598 10.9951 296.755 11.381C296.915 11.7637 297.15 12.0649 297.461 12.2845C297.774 12.5009 298.163 12.6092 298.628 12.6092ZM308.943 8.11051L307.945 8.39285C307.882 8.22658 307.79 8.06502 307.667 7.90816C307.548 7.74817 307.385 7.61641 307.178 7.51288C306.971 7.40936 306.706 7.35759 306.383 7.35759C305.94 7.35759 305.572 7.45955 305.277 7.66346C304.985 7.86424 304.839 8.11992 304.839 8.4305C304.839 8.70657 304.94 8.9246 305.14 9.08459C305.341 9.24459 305.655 9.37792 306.082 9.48458L307.154 9.7481C307.801 9.90496 308.282 10.1449 308.599 10.4681C308.916 10.7881 309.074 11.2006 309.074 11.7057C309.074 12.1198 308.955 12.49 308.717 12.8162C308.481 13.1425 308.152 13.3997 307.729 13.588C307.305 13.7762 306.813 13.8703 306.251 13.8703C305.514 13.8703 304.904 13.7103 304.42 13.3903C303.937 13.0703 303.631 12.6029 303.503 11.988L304.557 11.7245C304.657 12.1135 304.847 12.4053 305.126 12.5998C305.409 12.7943 305.777 12.8915 306.232 12.8915C306.75 12.8915 307.161 12.7817 307.465 12.5621C307.772 12.3394 307.926 12.0727 307.926 11.7621C307.926 11.5112 307.838 11.301 307.663 11.1316C307.487 10.959 307.217 10.8304 306.853 10.7457L305.649 10.4634C304.987 10.3065 304.5 10.0634 304.19 9.73398C303.882 9.40144 303.729 8.98577 303.729 8.48697C303.729 8.07914 303.843 7.71836 304.072 7.40465C304.304 7.09094 304.62 6.84467 305.018 6.66585C305.42 6.48703 305.875 6.39763 306.383 6.39763C307.098 6.39763 307.66 6.55448 308.067 6.8682C308.478 7.18191 308.77 7.59602 308.943 8.11051Z" fill="black"/>
<path d="M44 327L44 30" stroke="#CACACA" stroke-width="1.31766"/>
<path d="M4.43807 48.9312V36.8846H5.20981V48.9312H4.43807ZM7.03563 40.4986C6.97916 40.0217 6.75015 39.6515 6.3486 39.388C5.94704 39.1245 5.45451 38.9927 4.871 38.9927C4.44435 38.9927 4.07103 39.0618 3.75104 39.1998C3.43419 39.3378 3.18635 39.5276 3.00753 39.7692C2.83185 40.0107 2.74401 40.2853 2.74401 40.5927C2.74401 40.8499 2.80519 41.0711 2.92754 41.2562C3.05302 41.4382 3.21302 41.5903 3.40752 41.7127C3.60202 41.8319 3.80594 41.9307 4.01926 42.0091C4.23259 42.0844 4.42866 42.1456 4.60748 42.1926L5.58627 42.4562C5.83724 42.522 6.11645 42.613 6.42389 42.7291C6.73446 42.8452 7.03092 43.0036 7.31327 43.2044C7.59875 43.402 7.83403 43.6561 8.01913 43.9667C8.20422 44.2773 8.29676 44.6584 8.29676 45.1102C8.29676 45.6309 8.1603 46.1015 7.88737 46.5219C7.61757 46.9423 7.22229 47.2764 6.70152 47.5242C6.1839 47.7721 5.5549 47.896 4.81453 47.896C4.12436 47.896 3.52673 47.7846 3.02165 47.5619C2.51971 47.3391 2.12443 47.0285 1.83581 46.6301C1.55033 46.2317 1.38877 45.769 1.35112 45.2419H2.55579C2.58716 45.6059 2.70951 45.907 2.92283 46.1454C3.13929 46.3807 3.41223 46.5564 3.74163 46.6725C4.07416 46.7854 4.4318 46.8419 4.81453 46.8419C5.26001 46.8419 5.65999 46.7697 6.01449 46.6254C6.36899 46.478 6.64976 46.2741 6.85681 46.0137C7.06387 45.7502 7.16739 45.4427 7.16739 45.0914C7.16739 44.7714 7.07798 44.511 6.89916 44.3102C6.72035 44.1094 6.48506 43.9463 6.19331 43.8208C5.90155 43.6953 5.58627 43.5855 5.24746 43.4914L4.06162 43.1526C3.3087 42.9361 2.71264 42.6271 2.27344 42.2256C1.83424 41.824 1.61464 41.2985 1.61464 40.6492C1.61464 40.1096 1.76052 39.639 2.05227 39.2374C2.34716 38.8328 2.74245 38.519 3.23811 38.2963C3.73692 38.0704 4.29376 37.9575 4.90865 37.9575C5.5298 37.9575 6.08194 38.0689 6.56506 38.2916C7.04818 38.5112 7.43091 38.8124 7.71325 39.1951C7.99873 39.5778 8.14932 40.0123 8.165 40.4986H7.03563ZM13.1331 47.8583C12.4868 47.8583 11.9159 47.7438 11.4202 47.5148C10.9277 47.2827 10.5434 46.9642 10.2673 46.5595C9.99121 46.1517 9.85475 45.6874 9.85789 45.1667C9.85475 44.7588 9.93475 44.3824 10.0979 44.0373C10.261 43.6891 10.4837 43.3989 10.7661 43.1667C11.0516 42.9314 11.37 42.7824 11.7214 42.7197V42.6632C11.2602 42.544 10.8931 42.2852 10.6202 41.8868C10.3473 41.4852 10.2124 41.0288 10.2155 40.5174C10.2124 40.028 10.3363 39.5904 10.5873 39.2045C10.8382 38.8186 11.1833 38.5143 11.6225 38.2916C12.0649 38.0689 12.5684 37.9575 13.1331 37.9575C13.6915 37.9575 14.1903 38.0689 14.6295 38.2916C15.0687 38.5143 15.4138 38.8186 15.6647 39.2045C15.9189 39.5904 16.0475 40.028 16.0506 40.5174C16.0475 41.0288 15.9079 41.4852 15.6318 41.8868C15.3589 42.2852 14.9965 42.544 14.5448 42.6632V42.7197C14.893 42.7824 15.2067 42.9314 15.4859 43.1667C15.7651 43.3989 15.9879 43.6891 16.1541 44.0373C16.3204 44.3824 16.4051 44.7588 16.4082 45.1667C16.4051 45.6874 16.2639 46.1517 15.9847 46.5595C15.7087 46.9642 15.3244 47.2827 14.8318 47.5148C14.3424 47.7438 13.7762 47.8583 13.1331 47.8583ZM13.1331 46.8231C13.5691 46.8231 13.9456 46.7525 14.2624 46.6113C14.5793 46.4701 14.824 46.2709 14.9965 46.0137C15.1691 45.7564 15.2569 45.4553 15.2601 45.1102C15.2569 44.7463 15.1628 44.4247 14.9777 44.1455C14.7926 43.8663 14.5401 43.6467 14.2201 43.4867C13.9032 43.3267 13.5409 43.2467 13.1331 43.2467C12.7221 43.2467 12.3551 43.3267 12.0319 43.4867C11.7119 43.6467 11.4594 43.8663 11.2743 44.1455C11.0924 44.4247 11.0029 44.7463 11.0061 45.1102C11.0029 45.4553 11.0861 45.7564 11.2555 46.0137C11.428 46.2709 11.6743 46.4701 11.9943 46.6113C12.3143 46.7525 12.6939 46.8231 13.1331 46.8231ZM13.1331 42.2491C13.4782 42.2491 13.784 42.1801 14.0507 42.0421C14.3205 41.904 14.5322 41.7111 14.686 41.4632C14.8397 41.2154 14.9181 40.9252 14.9212 40.5927C14.9181 40.2664 14.8412 39.9825 14.6907 39.741C14.5401 39.4963 14.3315 39.308 14.0648 39.1763C13.7981 39.0414 13.4876 38.9739 13.1331 38.9739C12.7723 38.9739 12.457 39.0414 12.1872 39.1763C11.9174 39.308 11.7088 39.4963 11.5614 39.741C11.4139 39.9825 11.3418 40.2664 11.3449 40.5927C11.3418 40.9252 11.4155 41.2154 11.5661 41.4632C11.7198 41.7111 11.9315 41.904 12.2013 42.0421C12.4711 42.1801 12.7817 42.2491 13.1331 42.2491ZM21.3551 47.8583C20.6461 47.8583 20.0422 47.6654 19.5434 47.2795C19.0446 46.8905 18.6635 46.3274 18.3999 45.5902C18.1364 44.8498 18.0047 43.9557 18.0047 42.9079C18.0047 41.8664 18.1364 40.977 18.3999 40.2398C18.6666 39.4994 19.0493 38.9347 19.5481 38.5457C20.0501 38.1536 20.6524 37.9575 21.3551 37.9575C22.0579 37.9575 22.6586 38.1536 23.1574 38.5457C23.6594 38.9347 24.0421 39.4994 24.3056 40.2398C24.5723 40.977 24.7056 41.8664 24.7056 42.9079C24.7056 43.9557 24.5739 44.8498 24.3103 45.5902C24.0468 46.3274 23.6656 46.8905 23.1668 47.2795C22.668 47.6654 22.0641 47.8583 21.3551 47.8583ZM21.3551 46.8231C22.0579 46.8231 22.6037 46.4843 22.9927 45.8066C23.3817 45.129 23.5762 44.1628 23.5762 42.9079C23.5762 42.0734 23.4868 41.3629 23.308 40.7762C23.1323 40.1896 22.8782 39.7425 22.5457 39.4351C22.2163 39.1276 21.8194 38.9739 21.3551 38.9739C20.6587 38.9739 20.1144 39.3174 19.7223 40.0045C19.3301 40.6884 19.134 41.6562 19.134 42.9079C19.134 43.7424 19.2219 44.4514 19.3976 45.0349C19.5732 45.6184 19.8258 46.0623 20.1552 46.3666C20.4877 46.6709 20.8877 46.8231 21.3551 46.8231ZM27.5479 45.0914L27.529 43.7173H27.7549L30.9172 40.4986H32.2912L28.9219 43.9055H28.8278L27.5479 45.0914ZM26.5126 47.7266V38.0892H27.6232V47.7266H26.5126ZM31.1054 47.7266L28.282 44.1502L29.0725 43.3785L32.5171 47.7266H31.1054Z" fill="black"/>
<path d="M4.74367 109.438V97.3914H5.51541V109.438H4.74367ZM7.34123 101.005C7.28476 100.529 7.05575 100.158 6.65419 99.8949C6.25264 99.6313 5.76011 99.4996 5.1766 99.4996C4.74995 99.4996 4.37663 99.5686 4.05664 99.7066C3.73979 99.8447 3.49195 100.034 3.31313 100.276C3.13745 100.518 3.04961 100.792 3.04961 101.1C3.04961 101.357 3.11079 101.578 3.23314 101.763C3.35862 101.945 3.51862 102.097 3.71312 102.219C3.90762 102.339 4.11154 102.438 4.32486 102.516C4.53819 102.591 4.73426 102.652 4.91308 102.699L5.89187 102.963C6.14284 103.029 6.42205 103.12 6.72949 103.236C7.04006 103.352 7.33652 103.51 7.61887 103.711C7.90435 103.909 8.13963 104.163 8.32473 104.474C8.50982 104.784 8.60236 105.165 8.60236 105.617C8.60236 106.138 8.4659 106.608 8.19297 107.029C7.92317 107.449 7.52789 107.783 7.00712 108.031C6.48949 108.279 5.8605 108.403 5.12013 108.403C4.42996 108.403 3.83233 108.291 3.32725 108.069C2.82531 107.846 2.43003 107.535 2.14141 107.137C1.85593 106.739 1.69437 106.276 1.65672 105.749H2.86138C2.89276 106.113 3.0151 106.414 3.22843 106.652C3.44489 106.888 3.71783 107.063 4.04723 107.179C4.37976 107.292 4.7374 107.349 5.12013 107.349C5.5656 107.349 5.96559 107.277 6.32009 107.132C6.67459 106.985 6.95536 106.781 7.16241 106.521C7.36946 106.257 7.47299 105.95 7.47299 105.598C7.47299 105.278 7.38358 105.018 7.20476 104.817C7.02595 104.616 6.79066 104.453 6.49891 104.328C6.20715 104.202 5.89187 104.092 5.55306 103.998L4.36721 103.659C3.6143 103.443 3.01824 103.134 2.57904 102.732C2.13984 102.331 1.92024 101.805 1.92024 101.156C1.92024 100.616 2.06612 100.146 2.35787 99.7443C2.65276 99.3396 3.04804 99.0259 3.54371 98.8031C4.04252 98.5773 4.59936 98.4643 5.21424 98.4643C5.8354 98.4643 6.38754 98.5757 6.87066 98.7984C7.35378 99.018 7.73651 99.3192 8.01885 99.7019C8.30433 100.085 8.45492 100.519 8.4706 101.005H7.34123ZM13.5516 108.365C13.1563 108.359 12.761 108.284 12.3658 108.139C11.9705 107.995 11.6097 107.752 11.2834 107.41C10.9572 107.065 10.6952 106.599 10.4976 106.012C10.3 105.423 10.2011 104.682 10.2011 103.791C10.2011 102.938 10.2811 102.182 10.4411 101.523C10.6011 100.861 10.8333 100.304 11.1376 99.8525C11.4419 99.3976 11.8089 99.0525 12.2387 98.8173C12.6716 98.582 13.1595 98.4643 13.7022 98.4643C14.2418 98.4643 14.7218 98.5726 15.1421 98.789C15.5657 99.0023 15.9107 99.3004 16.1774 99.6831C16.4441 100.066 16.6166 100.507 16.695 101.005H15.5468C15.4402 100.572 15.2331 100.213 14.9257 99.9278C14.6182 99.6423 14.2104 99.4996 13.7022 99.4996C12.9555 99.4996 12.3673 99.8243 11.9375 100.474C11.5109 101.123 11.296 102.034 11.2929 103.208H11.3681C11.5438 102.941 11.7524 102.714 11.994 102.525C12.2387 102.334 12.5085 102.187 12.8034 102.083C13.0983 101.979 13.4104 101.928 13.7398 101.928C14.292 101.928 14.7971 102.066 15.2551 102.342C15.7131 102.615 16.0801 102.993 16.3562 103.476C16.6323 103.956 16.7703 104.506 16.7703 105.128C16.7703 105.724 16.637 106.27 16.3703 106.765C16.1037 107.258 15.7288 107.65 15.2457 107.942C14.7657 108.23 14.201 108.371 13.5516 108.365ZM13.5516 107.33C13.9469 107.33 14.3014 107.231 14.6151 107.033C14.9319 106.836 15.1814 106.571 15.3633 106.238C15.5484 105.906 15.6409 105.535 15.6409 105.128C15.6409 104.729 15.5515 104.367 15.3727 104.041C15.197 103.711 14.9539 103.449 14.6433 103.255C14.3359 103.06 13.9845 102.963 13.5892 102.963C13.2912 102.963 13.0136 103.023 12.7563 103.142C12.4991 103.258 12.2732 103.418 12.0787 103.622C11.8873 103.826 11.7368 104.059 11.627 104.323C11.5172 104.583 11.4623 104.858 11.4623 105.146C11.4623 105.529 11.5517 105.887 11.7305 106.219C11.9124 106.552 12.1603 106.82 12.474 107.024C12.7908 107.228 13.15 107.33 13.5516 107.33ZM21.7643 108.365C21.0553 108.365 20.4514 108.172 19.9526 107.786C19.4538 107.397 19.0726 106.834 18.8091 106.097C18.5455 105.357 18.4138 104.463 18.4138 103.415C18.4138 102.373 18.5455 101.484 18.8091 100.747C19.0757 100.006 19.4585 99.4415 19.9573 99.0525C20.4592 98.6604 21.0615 98.4643 21.7643 98.4643C22.467 98.4643 23.0677 98.6604 23.5666 99.0525C24.0685 99.4415 24.4512 100.006 24.7147 100.747C24.9814 101.484 25.1147 102.373 25.1147 103.415C25.1147 104.463 24.983 105.357 24.7195 106.097C24.4559 106.834 24.0748 107.397 23.576 107.786C23.0772 108.172 22.4733 108.365 21.7643 108.365ZM21.7643 107.33C22.467 107.33 23.0128 106.991 23.4019 106.313C23.7909 105.636 23.9854 104.67 23.9854 103.415C23.9854 102.58 23.896 101.87 23.7171 101.283C23.5415 100.696 23.2873 100.249 22.9548 99.9419C22.6254 99.6345 22.2286 99.4808 21.7643 99.4808C21.0678 99.4808 20.5235 99.8243 20.1314 100.511C19.7392 101.195 19.5432 102.163 19.5432 103.415C19.5432 104.249 19.631 104.958 19.8067 105.542C19.9824 106.125 20.2349 106.569 20.5643 106.873C20.8968 107.178 21.2968 107.33 21.7643 107.33ZM27.957 105.598L27.9382 104.224H28.164L31.3263 101.005H32.7004L29.3311 104.412H29.2369L27.957 105.598ZM26.9217 108.233V98.5961H28.0323V108.233H26.9217ZM31.5145 108.233L28.6911 104.657L29.4816 103.885L32.9262 108.233H31.5145Z" fill="black"/>
<path d="M4.51074 177.878V165.832H5.28248V177.878H4.51074ZM7.1083 169.446C7.05183 168.969 6.82282 168.599 6.42126 168.335C6.01971 168.072 5.52718 167.94 4.94367 167.94C4.51701 167.94 4.14369 168.009 3.8237 168.147C3.50685 168.285 3.25902 168.475 3.0802 168.716C2.90452 168.958 2.81668 169.233 2.81668 169.54C2.81668 169.797 2.87785 170.018 3.0002 170.203C3.12569 170.385 3.28568 170.538 3.48019 170.66C3.67469 170.779 3.8786 170.878 4.09193 170.956C4.30526 171.032 4.50133 171.093 4.68015 171.14L5.65894 171.403C5.90991 171.469 6.18911 171.56 6.49655 171.676C6.80713 171.792 7.10359 171.951 7.38593 172.152C7.67141 172.349 7.9067 172.603 8.09179 172.914C8.27688 173.225 8.36943 173.606 8.36943 174.057C8.36943 174.578 8.23296 175.049 7.96003 175.469C7.69024 175.89 7.29496 176.224 6.77419 176.471C6.25656 176.719 5.62756 176.843 4.8872 176.843C4.19702 176.843 3.5994 176.732 3.09432 176.509C2.59237 176.286 2.19709 175.976 1.90848 175.577C1.623 175.179 1.46143 174.716 1.42379 174.189H2.62845C2.65982 174.553 2.78217 174.854 2.9955 175.093C3.21196 175.328 3.48489 175.504 3.81429 175.62C4.14683 175.733 4.50447 175.789 4.8872 175.789C5.33267 175.789 5.73266 175.717 6.08716 175.573C6.44165 175.425 6.72243 175.221 6.92948 174.961C7.13653 174.697 7.24006 174.39 7.24006 174.039C7.24006 173.719 7.15065 173.458 6.97183 173.257C6.79301 173.057 6.55773 172.894 6.26597 172.768C5.97422 172.643 5.65894 172.533 5.32012 172.439L4.13428 172.1C3.38137 171.883 2.78531 171.574 2.34611 171.173C1.90691 170.771 1.68731 170.246 1.68731 169.596C1.68731 169.057 1.83318 168.586 2.12494 168.185C2.41983 167.78 2.81511 167.466 3.31078 167.244C3.80959 167.018 4.36643 166.905 4.98131 166.905C5.60247 166.905 6.1546 167.016 6.63772 167.239C7.12085 167.458 7.50358 167.76 7.78592 168.142C8.0714 168.525 8.22198 168.96 8.23767 169.446H7.1083ZM9.89291 174.697V173.737L14.1281 167.037H14.8245V168.524H14.3539L11.154 173.587V173.662H16.8574V174.697H9.89291ZM14.4292 176.674V174.406V173.959V167.037H15.5398V176.674H14.4292ZM21.7643 176.806C21.0553 176.806 20.4514 176.613 19.9526 176.227C19.4538 175.838 19.0726 175.275 18.8091 174.537C18.5455 173.797 18.4138 172.903 18.4138 171.855C18.4138 170.814 18.5455 169.924 18.8091 169.187C19.0757 168.447 19.4585 167.882 19.9573 167.493C20.4592 167.101 21.0615 166.905 21.7643 166.905C22.467 166.905 23.0677 167.101 23.5666 167.493C24.0685 167.882 24.4512 168.447 24.7147 169.187C24.9814 169.924 25.1147 170.814 25.1147 171.855C25.1147 172.903 24.983 173.797 24.7195 174.537C24.4559 175.275 24.0748 175.838 23.576 176.227C23.0772 176.613 22.4733 176.806 21.7643 176.806ZM21.7643 175.77C22.467 175.77 23.0128 175.432 23.4019 174.754C23.7909 174.076 23.9854 173.11 23.9854 171.855C23.9854 171.021 23.896 170.31 23.7171 169.723C23.5415 169.137 23.2873 168.69 22.9548 168.382C22.6254 168.075 22.2286 167.921 21.7643 167.921C21.0678 167.921 20.5235 168.265 20.1314 168.952C19.7392 169.636 19.5432 170.603 19.5432 171.855C19.5432 172.69 19.631 173.399 19.8067 173.982C19.9824 174.566 20.2349 175.01 20.5643 175.314C20.8968 175.618 21.2968 175.77 21.7643 175.77ZM27.957 174.039L27.9382 172.665H28.164L31.3263 169.446H32.7004L29.3311 172.853H29.2369L27.957 174.039ZM26.9217 176.674V167.037H28.0323V176.674H26.9217ZM31.5145 176.674L28.6911 173.097L29.4816 172.326L32.9262 176.674H31.5145Z" fill="black"/>
<path d="M3.98955 246.319V234.272H4.76128V246.319H3.98955ZM6.5871 237.886C6.53064 237.409 6.30162 237.039 5.90007 236.776C5.49851 236.512 5.00598 236.38 4.42247 236.38C3.99582 236.38 3.6225 236.449 3.30251 236.587C2.98566 236.726 2.73783 236.915 2.55901 237.157C2.38333 237.398 2.29549 237.673 2.29549 237.98C2.29549 238.238 2.35666 238.459 2.47901 238.644C2.6045 238.826 2.76449 238.978 2.95899 239.1C3.1535 239.22 3.35741 239.318 3.57074 239.397C3.78406 239.472 3.98014 239.533 4.15895 239.58L5.13774 239.844C5.38871 239.91 5.66792 240.001 5.97536 240.117C6.28594 240.233 6.5824 240.391 6.86474 240.592C7.15022 240.79 7.38551 241.044 7.5706 241.354C7.75569 241.665 7.84824 242.046 7.84824 242.498C7.84824 243.019 7.71177 243.489 7.43884 243.91C7.16905 244.33 6.77376 244.664 6.253 244.912C5.73537 245.16 5.10637 245.284 4.366 245.284C3.67583 245.284 3.07821 245.172 2.57313 244.95C2.07118 244.727 1.6759 244.416 1.38728 244.018C1.1018 243.619 0.94024 243.157 0.902594 242.63H2.10726C2.13863 242.994 2.26098 243.295 2.4743 243.533C2.69077 243.768 2.9637 243.944 3.2931 244.06C3.62564 244.173 3.98327 244.23 4.366 244.23C4.81148 244.23 5.21147 244.157 5.56596 244.013C5.92046 243.866 6.20124 243.662 6.40829 243.401C6.61534 243.138 6.71886 242.83 6.71886 242.479C6.71886 242.159 6.62946 241.899 6.45064 241.698C6.27182 241.497 6.03653 241.334 5.74478 241.209C5.45303 241.083 5.13774 240.973 4.79893 240.879L3.61309 240.54C2.86017 240.324 2.26412 240.015 1.82492 239.613C1.38571 239.212 1.16611 238.686 1.16611 238.037C1.16611 237.497 1.31199 237.027 1.60375 236.625C1.89864 236.22 2.29392 235.907 2.78959 235.684C3.28839 235.458 3.84524 235.345 4.46012 235.345C5.08127 235.345 5.63341 235.457 6.11653 235.679C6.59965 235.899 6.98238 236.2 7.26473 236.583C7.55021 236.966 7.70079 237.4 7.71648 237.886H6.5871ZM9.59759 245.114V244.267L12.7787 240.785C13.152 240.377 13.4594 240.023 13.701 239.722C13.9425 239.417 14.1214 239.132 14.2374 238.865C14.3566 238.595 14.4162 238.313 14.4162 238.018C14.4162 237.679 14.3347 237.386 14.1715 237.138C14.0116 236.89 13.792 236.699 13.5127 236.564C13.2335 236.429 12.9198 236.362 12.5716 236.362C12.2014 236.362 11.8783 236.438 11.6022 236.592C11.3293 236.743 11.1175 236.955 10.967 237.227C10.8195 237.5 10.7458 237.82 10.7458 238.187H9.63523C9.63523 237.623 9.76543 237.127 10.0258 236.7C10.2862 236.274 10.6407 235.941 11.0893 235.703C11.5411 235.464 12.0477 235.345 12.6092 235.345C13.1739 235.345 13.6743 235.464 14.1104 235.703C14.5464 235.941 14.8884 236.263 15.1362 236.667C15.3841 237.072 15.508 237.522 15.508 238.018C15.508 238.373 15.4437 238.719 15.315 239.058C15.1896 239.394 14.97 239.769 14.6562 240.183C14.3457 240.594 13.9143 241.096 13.3622 241.688L11.1975 244.004V244.079H15.6774V245.114H9.59759ZM20.7643 245.246C20.0553 245.246 19.4514 245.053 18.9526 244.667C18.4538 244.278 18.0726 243.715 17.8091 242.978C17.5455 242.237 17.4138 241.343 17.4138 240.296C17.4138 239.254 17.5455 238.365 17.8091 237.627C18.0757 236.887 18.4585 236.322 18.9573 235.933C19.4592 235.541 20.0615 235.345 20.7643 235.345C21.467 235.345 22.0677 235.541 22.5666 235.933C23.0685 236.322 23.4512 236.887 23.7147 237.627C23.9814 238.365 24.1147 239.254 24.1147 240.296C24.1147 241.343 23.983 242.237 23.7195 242.978C23.4559 243.715 23.0748 244.278 22.576 244.667C22.0772 245.053 21.4733 245.246 20.7643 245.246ZM20.7643 244.211C21.467 244.211 22.0128 243.872 22.4019 243.194C22.7909 242.517 22.9854 241.55 22.9854 240.296C22.9854 239.461 22.896 238.751 22.7171 238.164C22.5415 237.577 22.2873 237.13 21.9548 236.823C21.6254 236.515 21.2286 236.362 20.7643 236.362C20.0678 236.362 19.5235 236.705 19.1314 237.392C18.7392 238.076 18.5432 239.044 18.5432 240.296C18.5432 241.13 18.631 241.839 18.8067 242.423C18.9824 243.006 19.2349 243.45 19.5643 243.754C19.8968 244.059 20.2968 244.211 20.7643 244.211ZM26.957 242.479L26.9382 241.105H27.164L30.3263 237.886H31.7004L28.3311 241.293H28.2369L26.957 242.479ZM25.9217 245.114V235.477H27.0323V245.114H25.9217ZM30.5145 245.114L27.6911 241.538L28.4816 240.766L31.9262 245.114H30.5145Z" fill="black"/>
<path d="M19.4317 314.76V302.714H20.2035V314.76H19.4317ZM22.0293 306.328C21.9728 305.851 21.7438 305.481 21.3422 305.217C20.9407 304.954 20.4482 304.822 19.8646 304.822C19.438 304.822 19.0647 304.891 18.7447 305.029C18.4278 305.167 18.18 305.357 18.0012 305.598C17.8255 305.84 17.7377 306.114 17.7377 306.422C17.7377 306.679 17.7988 306.9 17.9212 307.085C18.0467 307.267 18.2067 307.419 18.4012 307.542C18.5957 307.661 18.7996 307.76 19.0129 307.838C19.2262 307.914 19.4223 307.975 19.6011 308.022L20.5799 308.285C20.8309 308.351 21.1101 308.442 21.4175 308.558C21.7281 308.674 22.0246 308.833 22.3069 309.033C22.5924 309.231 22.8277 309.485 23.0128 309.796C23.1979 310.106 23.2904 310.488 23.2904 310.939C23.2904 311.46 23.1539 311.931 22.881 312.351C22.6112 312.771 22.2159 313.105 21.6952 313.353C21.1775 313.601 20.5485 313.725 19.8082 313.725C19.118 313.725 18.5204 313.614 18.0153 313.391C17.5134 313.168 17.1181 312.858 16.8295 312.459C16.544 312.061 16.3824 311.598 16.3448 311.071H17.5494C17.5808 311.435 17.7032 311.736 17.9165 311.975C18.1329 312.21 18.4059 312.386 18.7353 312.502C19.0678 312.615 19.4254 312.671 19.8082 312.671C20.2537 312.671 20.6536 312.599 21.0081 312.455C21.3626 312.307 21.6434 312.103 21.8505 311.843C22.0575 311.579 22.161 311.272 22.161 310.92C22.161 310.6 22.0716 310.34 21.8928 310.139C21.714 309.939 21.4787 309.775 21.187 309.65C20.8952 309.524 20.5799 309.415 20.2411 309.321L19.0553 308.982C18.3023 308.765 17.7063 308.456 17.2671 308.055C16.8279 307.653 16.6083 307.128 16.6083 306.478C16.6083 305.939 16.7542 305.468 17.0459 305.067C17.3408 304.662 17.7361 304.348 18.2318 304.125C18.7306 303.9 19.2874 303.787 19.9023 303.787C20.5234 303.787 21.0756 303.898 21.5587 304.121C22.0418 304.34 22.4246 304.641 22.7069 305.024C22.9924 305.407 23.143 305.841 23.1587 306.328H22.0293ZM28.1832 313.687C27.4742 313.687 26.8703 313.494 26.3715 313.109C25.8727 312.72 25.4915 312.156 25.228 311.419C24.9645 310.679 24.8327 309.785 24.8327 308.737C24.8327 307.695 24.9645 306.806 25.228 306.069C25.4946 305.328 25.8774 304.764 26.3762 304.375C26.8781 303.983 27.4805 303.787 28.1832 303.787C28.8859 303.787 29.4867 303.983 29.9855 304.375C30.4874 304.764 30.8702 305.328 31.1337 306.069C31.4003 306.806 31.5337 307.695 31.5337 308.737C31.5337 309.785 31.4019 310.679 31.1384 311.419C30.8749 312.156 30.4937 312.72 29.9949 313.109C29.4961 313.494 28.8922 313.687 28.1832 313.687ZM28.1832 312.652C28.8859 312.652 29.4318 312.313 29.8208 311.636C30.2098 310.958 30.4043 309.992 30.4043 308.737C30.4043 307.903 30.3149 307.192 30.1361 306.605C29.9604 306.019 29.7063 305.572 29.3737 305.264C29.0443 304.957 28.6475 304.803 28.1832 304.803C27.4867 304.803 26.9424 305.147 26.5503 305.834C26.1582 306.517 25.9621 307.485 25.9621 308.737C25.9621 309.571 26.0499 310.28 26.2256 310.864C26.4013 311.448 26.6538 311.891 26.9832 312.196C27.3158 312.5 27.7157 312.652 28.1832 312.652Z" fill="black"/>
<path d="M201 60.1766C201 52.8994 206.899 47 214.177 47H276.823C284.101 47 290 52.8994 290 60.1766V199H201V60.1766Z" fill="#FFEBD9"/>
<path d="M201 199.664C201 192.387 206.899 186.487 214.177 186.487H276.905C284.182 186.487 290.082 192.387 290.082 199.664V326.628H201V199.664Z" fill="#FF7A00"/>
<path d="M217.001 356.704V347.067H220.257C221.01 347.067 221.628 347.195 222.111 347.453C222.594 347.707 222.952 348.057 223.184 348.502C223.416 348.948 223.532 349.454 223.532 350.022C223.532 350.59 223.416 351.093 223.184 351.533C222.952 351.972 222.596 352.317 222.116 352.568C221.636 352.816 221.023 352.94 220.276 352.94H217.641V351.885H220.238C220.753 351.885 221.167 351.81 221.481 351.66C221.798 351.509 222.027 351.296 222.168 351.02C222.312 350.74 222.384 350.408 222.384 350.022C222.384 349.636 222.312 349.299 222.168 349.01C222.023 348.722 221.793 348.499 221.476 348.342C221.159 348.182 220.74 348.102 220.22 348.102H218.168V356.704H217.001ZM221.537 352.375L223.909 356.704H222.554L220.22 352.375H221.537ZM228.279 356.855C227.583 356.855 226.982 356.701 226.477 356.394C225.975 356.083 225.588 355.65 225.315 355.095C225.045 354.536 224.91 353.887 224.91 353.147C224.91 352.406 225.045 351.754 225.315 351.189C225.588 350.621 225.967 350.179 226.454 349.862C226.943 349.542 227.514 349.382 228.166 349.382C228.543 349.382 228.915 349.445 229.282 349.57C229.649 349.696 229.983 349.9 230.284 350.182C230.585 350.461 230.825 350.831 231.004 351.293C231.183 351.754 231.272 352.322 231.272 352.996V353.467H225.701V352.507H230.143C230.143 352.099 230.061 351.735 229.898 351.415C229.738 351.095 229.509 350.842 229.211 350.657C228.916 350.472 228.568 350.38 228.166 350.38C227.724 350.38 227.341 350.489 227.018 350.709C226.698 350.925 226.452 351.208 226.279 351.556C226.107 351.904 226.021 352.278 226.021 352.676V353.316C226.021 353.862 226.115 354.325 226.303 354.704C226.494 355.081 226.759 355.368 227.098 355.565C227.437 355.76 227.831 355.857 228.279 355.857C228.571 355.857 228.835 355.816 229.07 355.735C229.308 355.65 229.514 355.525 229.686 355.358C229.859 355.189 229.992 354.979 230.086 354.728L231.159 355.029C231.046 355.393 230.857 355.713 230.59 355.989C230.323 356.262 229.994 356.475 229.602 356.629C229.21 356.779 228.769 356.855 228.279 356.855ZM232.962 356.704V349.476H234.034V350.605H234.129C234.279 350.22 234.522 349.92 234.858 349.707C235.194 349.49 235.597 349.382 236.067 349.382C236.544 349.382 236.941 349.49 237.258 349.707C237.578 349.92 237.827 350.22 238.006 350.605H238.081C238.266 350.232 238.544 349.936 238.914 349.716C239.284 349.493 239.728 349.382 240.246 349.382C240.892 349.382 241.421 349.584 241.832 349.989C242.243 350.391 242.448 351.016 242.448 351.867V356.704H241.338V351.867C241.338 351.333 241.192 350.952 240.9 350.723C240.608 350.494 240.265 350.38 239.87 350.38C239.361 350.38 238.968 350.533 238.688 350.841C238.409 351.145 238.27 351.531 238.27 351.998V356.704H237.14V351.754C237.14 351.343 237.007 351.012 236.74 350.761C236.474 350.507 236.13 350.38 235.71 350.38C235.421 350.38 235.151 350.456 234.9 350.61C234.652 350.764 234.452 350.977 234.298 351.25C234.147 351.52 234.072 351.832 234.072 352.187V356.704H232.962ZM247.415 356.855C246.763 356.855 246.19 356.699 245.698 356.389C245.208 356.078 244.825 355.644 244.549 355.085C244.276 354.527 244.14 353.874 244.14 353.128C244.14 352.375 244.276 351.718 244.549 351.156C244.825 350.595 245.208 350.158 245.698 349.848C246.19 349.537 246.763 349.382 247.415 349.382C248.068 349.382 248.639 349.537 249.128 349.848C249.621 350.158 250.003 350.595 250.276 351.156C250.552 351.718 250.69 352.375 250.69 353.128C250.69 353.874 250.552 354.527 250.276 355.085C250.003 355.644 249.621 356.078 249.128 356.389C248.639 356.699 248.068 356.855 247.415 356.855ZM247.415 355.857C247.911 355.857 248.319 355.73 248.639 355.476C248.959 355.222 249.195 354.888 249.349 354.474C249.503 354.059 249.58 353.611 249.58 353.128C249.58 352.645 249.503 352.194 249.349 351.777C249.195 351.36 248.959 351.023 248.639 350.765C248.319 350.508 247.911 350.38 247.415 350.38C246.919 350.38 246.512 350.508 246.192 350.765C245.872 351.023 245.635 351.36 245.481 351.777C245.327 352.194 245.251 352.645 245.251 353.128C245.251 353.611 245.327 354.059 245.481 354.474C245.635 354.888 245.872 355.222 246.192 355.476C246.512 355.73 246.919 355.857 247.415 355.857ZM255.529 349.476V350.417H251.783V349.476H255.529ZM252.875 347.744H253.986V354.634C253.986 354.947 254.031 355.183 254.122 355.339C254.216 355.493 254.335 355.597 254.48 355.65C254.627 355.7 254.782 355.725 254.945 355.725C255.068 355.725 255.168 355.719 255.247 355.706C255.325 355.691 255.388 355.678 255.435 355.669L255.661 356.666C255.585 356.695 255.48 356.723 255.345 356.751C255.211 356.783 255.04 356.798 254.833 356.798C254.519 356.798 254.211 356.731 253.91 356.596C253.612 356.461 253.364 356.255 253.167 355.979C252.972 355.703 252.875 355.355 252.875 354.935V347.744ZM261.755 353.749V349.476H262.865V356.704H261.755V355.481H261.679C261.51 355.848 261.246 356.16 260.889 356.417C260.531 356.671 260.079 356.798 259.534 356.798C259.082 356.798 258.68 356.699 258.329 356.502C257.978 356.301 257.701 356 257.501 355.598C257.3 355.194 257.2 354.684 257.2 354.069V349.476H258.31V353.994C258.31 354.521 258.458 354.941 258.752 355.255C259.05 355.568 259.43 355.725 259.891 355.725C260.167 355.725 260.448 355.655 260.734 355.514C261.022 355.372 261.264 355.156 261.458 354.864C261.656 354.572 261.755 354.201 261.755 353.749ZM267.026 356.874C266.568 356.874 266.153 356.787 265.779 356.615C265.406 356.439 265.109 356.186 264.89 355.857C264.67 355.525 264.56 355.123 264.56 354.652C264.56 354.238 264.642 353.903 264.805 353.645C264.968 353.385 265.186 353.181 265.459 353.034C265.732 352.886 266.033 352.776 266.363 352.704C266.695 352.629 267.029 352.569 267.365 352.525C267.804 352.469 268.16 352.427 268.433 352.398C268.709 352.367 268.91 352.315 269.036 352.243C269.164 352.171 269.229 352.045 269.229 351.867V351.829C269.229 351.365 269.101 351.004 268.847 350.747C268.596 350.489 268.215 350.361 267.704 350.361C267.174 350.361 266.758 350.477 266.457 350.709C266.156 350.941 265.944 351.189 265.822 351.453L264.768 351.076C264.956 350.637 265.207 350.295 265.52 350.05C265.837 349.802 266.182 349.63 266.556 349.533C266.932 349.432 267.302 349.382 267.666 349.382C267.898 349.382 268.165 349.41 268.466 349.467C268.771 349.52 269.064 349.631 269.346 349.801C269.632 349.97 269.869 350.226 270.057 350.568C270.245 350.91 270.339 351.368 270.339 351.942V356.704H269.229V355.725H269.172C269.097 355.882 268.971 356.05 268.796 356.229C268.62 356.408 268.386 356.56 268.094 356.685C267.803 356.811 267.447 356.874 267.026 356.874ZM267.196 355.876C267.635 355.876 268.005 355.79 268.306 355.617C268.611 355.445 268.84 355.222 268.993 354.949C269.15 354.676 269.229 354.389 269.229 354.088V353.071C269.181 353.128 269.078 353.18 268.918 353.227C268.761 353.27 268.579 353.31 268.372 353.344C268.168 353.376 267.969 353.404 267.774 353.429C267.583 353.451 267.428 353.47 267.309 353.485C267.02 353.523 266.75 353.584 266.499 353.669C266.251 353.75 266.051 353.874 265.897 354.041C265.746 354.204 265.671 354.427 265.671 354.709C265.671 355.095 265.814 355.386 266.099 355.584C266.388 355.779 266.753 355.876 267.196 355.876ZM273.477 347.067V356.704H272.366V347.067H273.477Z" fill="black"/>
<path d="M232.317 253.923V241.877H233.089V253.923H232.317ZM234.364 245.853C234.326 245.474 234.165 245.179 233.879 244.968C233.594 244.758 233.206 244.653 232.717 244.653C232.385 244.653 232.104 244.7 231.875 244.794C231.646 244.885 231.47 245.012 231.348 245.175C231.228 245.339 231.169 245.524 231.169 245.731C231.163 245.903 231.199 246.054 231.277 246.183C231.359 246.311 231.47 246.422 231.611 246.517C231.752 246.608 231.916 246.688 232.101 246.757C232.286 246.822 232.483 246.879 232.694 246.926L233.559 247.133C233.98 247.227 234.366 247.353 234.717 247.51C235.068 247.666 235.373 247.859 235.63 248.088C235.887 248.317 236.086 248.587 236.228 248.898C236.372 249.208 236.446 249.564 236.449 249.966C236.446 250.556 236.295 251.067 235.997 251.5C235.702 251.93 235.275 252.264 234.717 252.502C234.162 252.738 233.492 252.855 232.708 252.855C231.93 252.855 231.252 252.736 230.675 252.498C230.101 252.259 229.652 251.906 229.329 251.439C229.009 250.968 228.841 250.386 228.825 249.693H230.797C230.819 250.016 230.912 250.286 231.075 250.502C231.241 250.716 231.462 250.877 231.738 250.987C232.017 251.094 232.333 251.147 232.684 251.147C233.029 251.147 233.329 251.097 233.583 250.996C233.84 250.896 234.039 250.756 234.181 250.578C234.322 250.399 234.392 250.193 234.392 249.961C234.392 249.745 234.328 249.563 234.199 249.415C234.074 249.268 233.889 249.142 233.644 249.039C233.403 248.935 233.106 248.841 232.755 248.757L231.705 248.493C230.893 248.295 230.251 247.986 229.781 247.566C229.31 247.146 229.076 246.579 229.08 245.867C229.076 245.284 229.232 244.774 229.545 244.338C229.862 243.902 230.297 243.561 230.849 243.317C231.401 243.072 232.028 242.95 232.731 242.95C233.446 242.95 234.071 243.072 234.604 243.317C235.141 243.561 235.558 243.902 235.856 244.338C236.154 244.774 236.308 245.279 236.317 245.853H234.364ZM237.617 251.025V249.42L241.64 243.081H243.024V245.303H242.205L239.669 249.317V249.392H245.386V251.025H237.617ZM242.243 252.719V250.535L242.28 249.825V243.081H244.191V252.719H242.243ZM246.744 252.719V251.251L250.174 248.074C250.466 247.792 250.711 247.538 250.908 247.312C251.109 247.086 251.261 246.865 251.365 246.648C251.468 246.429 251.52 246.192 251.52 245.938C251.52 245.655 251.456 245.412 251.327 245.208C251.198 245.001 251.023 244.843 250.8 244.733C250.577 244.62 250.325 244.564 250.042 244.564C249.747 244.564 249.49 244.623 249.271 244.743C249.051 244.862 248.882 245.033 248.762 245.255C248.643 245.478 248.584 245.743 248.584 246.051H246.65C246.65 245.42 246.792 244.873 247.078 244.408C247.363 243.944 247.763 243.585 248.278 243.331C248.792 243.077 249.385 242.95 250.056 242.95C250.747 242.95 251.347 243.072 251.859 243.317C252.373 243.558 252.773 243.894 253.059 244.324C253.344 244.754 253.487 245.246 253.487 245.801C253.487 246.165 253.415 246.524 253.27 246.879C253.129 247.233 252.877 247.627 252.513 248.06C252.149 248.49 251.636 249.006 250.974 249.608L249.567 250.987V251.053H253.614V252.719H246.744ZM256.926 250.639L256.93 248.234H257.222L259.537 245.491H261.838L258.728 249.124H258.253L256.926 250.639ZM255.109 252.719V243.081H257.114V252.719H255.109ZM259.627 252.719L257.5 249.571L258.836 248.154L261.975 252.719H259.627Z" fill="white"/>
<path d="M227.979 112.697V100.65H228.751V112.697H227.979ZM230.026 104.627C229.988 104.247 229.827 103.952 229.541 103.742C229.256 103.532 228.868 103.427 228.379 103.427C228.046 103.427 227.766 103.474 227.537 103.568C227.308 103.659 227.132 103.786 227.01 103.949C226.89 104.112 226.831 104.297 226.831 104.504C226.825 104.677 226.861 104.827 226.939 104.956C227.021 105.085 227.132 105.196 227.273 105.29C227.414 105.381 227.577 105.461 227.763 105.53C227.948 105.596 228.145 105.652 228.355 105.699L229.221 105.906C229.642 106.001 230.028 106.126 230.379 106.283C230.73 106.44 231.035 106.633 231.292 106.862C231.549 107.091 231.748 107.361 231.889 107.671C232.034 107.982 232.107 108.338 232.111 108.739C232.107 109.329 231.957 109.84 231.659 110.273C231.364 110.703 230.937 111.037 230.379 111.276C229.824 111.511 229.154 111.629 228.37 111.629C227.592 111.629 226.914 111.509 226.337 111.271C225.763 111.033 225.314 110.68 224.991 110.212C224.671 109.742 224.503 109.16 224.487 108.466H226.459C226.481 108.79 226.574 109.059 226.737 109.276C226.903 109.489 227.124 109.651 227.4 109.76C227.679 109.867 227.995 109.92 228.346 109.92C228.691 109.92 228.991 109.87 229.245 109.77C229.502 109.67 229.701 109.53 229.842 109.351C229.984 109.172 230.054 108.967 230.054 108.735C230.054 108.518 229.99 108.336 229.861 108.189C229.736 108.041 229.551 107.916 229.306 107.812C229.064 107.709 228.768 107.615 228.417 107.53L227.367 107.266C226.555 107.069 225.913 106.76 225.443 106.339C224.972 105.919 224.738 105.353 224.741 104.641C224.738 104.057 224.894 103.547 225.207 103.111C225.524 102.675 225.959 102.335 226.511 102.09C227.063 101.845 227.69 101.723 228.393 101.723C229.108 101.723 229.733 101.845 230.266 102.09C230.802 102.335 231.22 102.675 231.518 103.111C231.816 103.547 231.969 104.052 231.979 104.627H230.026ZM236.987 111.624C236.284 111.624 235.658 111.503 235.109 111.262C234.563 111.017 234.132 110.681 233.815 110.255C233.502 109.825 233.34 109.329 233.331 108.768H235.382C235.395 109.003 235.472 109.21 235.613 109.389C235.757 109.564 235.949 109.701 236.187 109.798C236.425 109.895 236.694 109.944 236.992 109.944C237.302 109.944 237.577 109.889 237.815 109.779C238.054 109.67 238.24 109.517 238.375 109.323C238.51 109.128 238.577 108.904 238.577 108.65C238.577 108.393 238.505 108.165 238.361 107.968C238.22 107.767 238.016 107.61 237.749 107.497C237.486 107.384 237.172 107.328 236.808 107.328H235.909V105.831H236.808C237.116 105.831 237.387 105.778 237.622 105.671C237.861 105.565 238.046 105.417 238.177 105.229C238.309 105.038 238.375 104.815 238.375 104.561C238.375 104.319 238.317 104.107 238.201 103.925C238.088 103.74 237.928 103.596 237.721 103.492C237.517 103.389 237.279 103.337 237.006 103.337C236.73 103.337 236.477 103.387 236.248 103.488C236.019 103.585 235.836 103.725 235.698 103.907C235.56 104.089 235.486 104.302 235.476 104.547H233.523C233.533 103.991 233.691 103.502 233.999 103.078C234.306 102.655 234.72 102.324 235.241 102.085C235.765 101.844 236.356 101.723 237.015 101.723C237.68 101.723 238.262 101.844 238.761 102.085C239.26 102.327 239.647 102.653 239.923 103.064C240.202 103.472 240.341 103.93 240.337 104.438C240.341 104.978 240.173 105.428 239.834 105.789C239.498 106.15 239.061 106.379 238.521 106.476V106.551C239.23 106.642 239.77 106.888 240.14 107.29C240.513 107.688 240.698 108.187 240.695 108.786C240.698 109.335 240.54 109.823 240.22 110.25C239.903 110.677 239.465 111.012 238.907 111.257C238.348 111.502 237.708 111.624 236.987 111.624ZM245.858 111.624C245.363 111.621 244.884 111.538 244.423 111.375C243.965 111.211 243.554 110.946 243.19 110.579C242.826 110.212 242.538 109.726 242.324 109.121C242.114 108.515 242.009 107.772 242.009 106.89C242.012 106.081 242.105 105.357 242.287 104.721C242.472 104.081 242.735 103.538 243.077 103.092C243.422 102.647 243.835 102.308 244.315 102.076C244.795 101.841 245.333 101.723 245.929 101.723C246.572 101.723 247.14 101.849 247.632 102.1C248.125 102.347 248.52 102.685 248.818 103.111C249.119 103.538 249.301 104.016 249.364 104.547H247.355C247.276 104.211 247.112 103.947 246.861 103.756C246.61 103.565 246.299 103.469 245.929 103.469C245.302 103.469 244.825 103.742 244.498 104.288C244.175 104.834 244.011 105.576 244.004 106.514H244.07C244.214 106.228 244.409 105.985 244.654 105.784C244.902 105.58 245.182 105.425 245.496 105.318C245.813 105.208 246.147 105.154 246.498 105.154C247.069 105.154 247.578 105.288 248.023 105.558C248.468 105.825 248.82 106.192 249.077 106.659C249.334 107.127 249.463 107.662 249.463 108.264C249.463 108.917 249.311 109.497 249.006 110.005C248.705 110.513 248.283 110.912 247.741 111.2C247.201 111.486 246.574 111.627 245.858 111.624ZM245.849 110.024C246.163 110.024 246.443 109.949 246.691 109.798C246.939 109.648 247.134 109.444 247.275 109.186C247.416 108.929 247.487 108.641 247.487 108.321C247.487 108.001 247.416 107.713 247.275 107.459C247.137 107.205 246.945 107.003 246.701 106.852C246.456 106.702 246.177 106.626 245.863 106.626C245.628 106.626 245.41 106.67 245.209 106.758C245.011 106.846 244.837 106.968 244.687 107.125C244.539 107.282 244.423 107.464 244.338 107.671C244.254 107.875 244.211 108.093 244.211 108.325C244.211 108.636 244.282 108.92 244.423 109.177C244.567 109.434 244.762 109.64 245.007 109.793C245.254 109.947 245.535 110.024 245.849 110.024ZM251.697 111.615C251.386 111.615 251.12 111.505 250.897 111.285C250.677 111.062 250.568 110.796 250.568 110.485C250.568 110.178 250.677 109.914 250.897 109.695C251.12 109.475 251.386 109.365 251.697 109.365C251.998 109.365 252.262 109.475 252.488 109.695C252.713 109.914 252.826 110.178 252.826 110.485C252.826 110.692 252.773 110.882 252.666 111.055C252.563 111.224 252.426 111.36 252.257 111.464C252.088 111.564 251.901 111.615 251.697 111.615ZM257.443 101.855V111.492H255.405V103.789H255.349L253.142 105.172V103.365L255.527 101.855H257.443ZM261.568 109.412L261.573 107.008H261.865L264.18 104.264H266.481L263.371 107.897H262.895L261.568 109.412ZM259.752 111.492V101.855H261.757V111.492H259.752ZM264.269 111.492L262.143 108.344L263.479 106.928L266.618 111.492H264.269Z" fill="black"/>
<path d="M100.167 347.067H101.334V353.448C101.334 354.107 101.179 354.695 100.869 355.212C100.561 355.727 100.127 356.133 99.5651 356.431C99.0036 356.726 98.3448 356.874 97.5887 356.874C96.8327 356.874 96.1739 356.726 95.6123 356.431C95.0508 356.133 94.6147 355.727 94.3041 355.212C93.9967 354.695 93.843 354.107 93.843 353.448V347.067H95.01V353.354C95.01 353.824 95.1135 354.243 95.3206 354.61C95.5276 354.974 95.8225 355.261 96.2052 355.471C96.5911 355.678 97.0523 355.782 97.5887 355.782C98.1252 355.782 98.5863 355.678 98.9722 355.471C99.3581 355.261 99.653 354.974 99.8569 354.61C100.064 354.243 100.167 353.824 100.167 353.354V347.067ZM108.935 349.476C108.879 348.999 108.65 348.629 108.248 348.366C107.847 348.102 107.354 347.97 106.771 347.97C106.344 347.97 105.971 348.039 105.651 348.177C105.334 348.315 105.086 348.505 104.907 348.747C104.732 348.988 104.644 349.263 104.644 349.57C104.644 349.827 104.705 350.049 104.827 350.234C104.953 350.416 105.113 350.568 105.307 350.69C105.502 350.809 105.706 350.908 105.919 350.987C106.132 351.062 106.328 351.123 106.507 351.17L107.486 351.434C107.737 351.5 108.016 351.591 108.324 351.707C108.634 351.823 108.931 351.981 109.213 352.182C109.499 352.38 109.734 352.634 109.919 352.944C110.104 353.255 110.197 353.636 110.197 354.088C110.197 354.608 110.06 355.079 109.787 355.499C109.517 355.92 109.122 356.254 108.601 356.502C108.084 356.75 107.455 356.874 106.714 356.874C106.024 356.874 105.426 356.762 104.921 356.539C104.419 356.317 104.024 356.006 103.736 355.608C103.45 355.209 103.289 354.747 103.251 354.219H104.456C104.487 354.583 104.609 354.885 104.823 355.123C105.039 355.358 105.312 355.534 105.641 355.65C105.974 355.763 106.332 355.819 106.714 355.819C107.16 355.819 107.56 355.747 107.914 355.603C108.269 355.456 108.55 355.252 108.757 354.991C108.964 354.728 109.067 354.42 109.067 354.069C109.067 353.749 108.978 353.489 108.799 353.288C108.62 353.087 108.385 352.924 108.093 352.798C107.801 352.673 107.486 352.563 107.147 352.469L105.961 352.13C105.208 351.914 104.612 351.605 104.173 351.203C103.734 350.802 103.514 350.276 103.514 349.627C103.514 349.087 103.66 348.617 103.952 348.215C104.247 347.81 104.642 347.497 105.138 347.274C105.637 347.048 106.194 346.935 106.808 346.935C107.43 346.935 107.982 347.046 108.465 347.269C108.948 347.489 109.331 347.79 109.613 348.173C109.898 348.555 110.049 348.99 110.065 349.476H108.935ZM121.113 349.476C121.056 348.999 120.827 348.629 120.426 348.366C120.024 348.102 119.531 347.97 118.948 347.97C118.521 347.97 118.148 348.039 117.828 348.177C117.511 348.315 117.263 348.505 117.085 348.747C116.909 348.988 116.821 349.263 116.821 349.57C116.821 349.827 116.882 350.049 117.005 350.234C117.13 350.416 117.29 350.568 117.484 350.69C117.679 350.809 117.883 350.908 118.096 350.987C118.31 351.062 118.506 351.123 118.684 351.17L119.663 351.434C119.914 351.5 120.193 351.591 120.501 351.707C120.811 351.823 121.108 351.981 121.39 352.182C121.676 352.38 121.911 352.634 122.096 352.944C122.281 353.255 122.374 353.636 122.374 354.088C122.374 354.608 122.237 355.079 121.964 355.499C121.695 355.92 121.299 356.254 120.779 356.502C120.261 356.75 119.632 356.874 118.892 356.874C118.201 356.874 117.604 356.762 117.099 356.539C116.597 356.317 116.201 356.006 115.913 355.608C115.627 355.209 115.466 354.747 115.428 354.219H116.633C116.664 354.583 116.786 354.885 117 355.123C117.216 355.358 117.489 355.534 117.819 355.65C118.151 355.763 118.509 355.819 118.892 355.819C119.337 355.819 119.737 355.747 120.091 355.603C120.446 355.456 120.727 355.252 120.934 354.991C121.141 354.728 121.244 354.42 121.244 354.069C121.244 353.749 121.155 353.489 120.976 353.288C120.797 353.087 120.562 352.924 120.27 352.798C119.979 352.673 119.663 352.563 119.324 352.469L118.139 352.13C117.386 351.914 116.79 351.605 116.35 351.203C115.911 350.802 115.692 350.276 115.692 349.627C115.692 349.087 115.837 348.617 116.129 348.215C116.424 347.81 116.819 347.497 117.315 347.274C117.814 347.048 118.371 346.935 118.986 346.935C119.607 346.935 120.159 347.046 120.642 347.269C121.125 347.489 121.508 347.79 121.79 348.173C122.076 348.555 122.226 348.99 122.242 349.476H121.113ZM126.269 356.874C125.811 356.874 125.395 356.787 125.022 356.615C124.649 356.439 124.352 356.186 124.133 355.857C123.913 355.525 123.803 355.123 123.803 354.652C123.803 354.238 123.885 353.903 124.048 353.645C124.211 353.385 124.429 353.181 124.702 353.034C124.975 352.886 125.276 352.776 125.605 352.704C125.938 352.629 126.272 352.569 126.608 352.525C127.047 352.469 127.403 352.427 127.676 352.398C127.952 352.367 128.153 352.315 128.278 352.243C128.407 352.171 128.471 352.045 128.471 351.867V351.829C128.471 351.365 128.344 351.004 128.09 350.747C127.839 350.489 127.458 350.361 126.947 350.361C126.416 350.361 126.001 350.477 125.7 350.709C125.398 350.941 125.187 351.189 125.064 351.453L124.01 351.076C124.198 350.637 124.449 350.295 124.763 350.05C125.08 349.802 125.425 349.63 125.798 349.533C126.175 349.432 126.545 349.382 126.909 349.382C127.141 349.382 127.408 349.41 127.709 349.467C128.013 349.52 128.306 349.631 128.589 349.801C128.874 349.97 129.111 350.226 129.299 350.568C129.488 350.91 129.582 351.368 129.582 351.942V356.704H128.471V355.725H128.415C128.339 355.882 128.214 356.05 128.038 356.229C127.863 356.408 127.629 356.56 127.337 356.685C127.045 356.811 126.689 356.874 126.269 356.874ZM126.438 355.876C126.878 355.876 127.248 355.79 127.549 355.617C127.853 355.445 128.082 355.222 128.236 354.949C128.393 354.676 128.471 354.389 128.471 354.088V353.071C128.424 353.128 128.321 353.18 128.161 353.227C128.004 353.27 127.822 353.31 127.615 353.344C127.411 353.376 127.212 353.404 127.017 353.429C126.826 353.451 126.67 353.47 126.551 353.485C126.263 353.523 125.993 353.584 125.742 353.669C125.494 353.75 125.293 353.874 125.14 354.041C124.989 354.204 124.914 354.427 124.914 354.709C124.914 355.095 125.056 355.386 125.342 355.584C125.63 355.779 125.996 355.876 126.438 355.876ZM132.719 347.067V356.704H131.609V347.067H132.719ZM136.88 356.874C136.422 356.874 136.007 356.787 135.633 356.615C135.26 356.439 134.964 356.186 134.744 355.857C134.524 355.525 134.415 355.123 134.415 354.652C134.415 354.238 134.496 353.903 134.659 353.645C134.822 353.385 135.04 353.181 135.313 353.034C135.586 352.886 135.887 352.776 136.217 352.704C136.549 352.629 136.883 352.569 137.219 352.525C137.658 352.469 138.014 352.427 138.287 352.398C138.563 352.367 138.764 352.315 138.89 352.243C139.018 352.171 139.083 352.045 139.083 351.867V351.829C139.083 351.365 138.956 351.004 138.701 350.747C138.45 350.489 138.069 350.361 137.558 350.361C137.028 350.361 136.612 350.477 136.311 350.709C136.01 350.941 135.798 351.189 135.676 351.453L134.622 351.076C134.81 350.637 135.061 350.295 135.374 350.05C135.691 349.802 136.036 349.63 136.41 349.533C136.786 349.432 137.156 349.382 137.52 349.382C137.752 349.382 138.019 349.41 138.32 349.467C138.625 349.52 138.918 349.631 139.2 349.801C139.486 349.97 139.723 350.226 139.911 350.568C140.099 350.91 140.193 351.368 140.193 351.942V356.704H139.083V355.725H139.026C138.951 355.882 138.825 356.05 138.65 356.229C138.474 356.408 138.24 356.56 137.948 356.685C137.657 356.811 137.301 356.874 136.88 356.874ZM137.05 355.876C137.489 355.876 137.859 355.79 138.16 355.617C138.465 355.445 138.694 355.222 138.847 354.949C139.004 354.676 139.083 354.389 139.083 354.088V353.071C139.036 353.128 138.932 353.18 138.772 353.227C138.615 353.27 138.433 353.31 138.226 353.344C138.022 353.376 137.823 353.404 137.629 353.429C137.437 353.451 137.282 353.47 137.163 353.485C136.874 353.523 136.604 353.584 136.353 353.669C136.105 353.75 135.905 353.874 135.751 354.041C135.6 354.204 135.525 354.427 135.525 354.709C135.525 355.095 135.668 355.386 135.953 355.584C136.242 355.779 136.607 355.876 137.05 355.876ZM142.22 356.704V349.476H143.293V350.568H143.368C143.5 350.21 143.738 349.92 144.084 349.697C144.429 349.475 144.818 349.363 145.251 349.363C145.332 349.363 145.434 349.365 145.556 349.368C145.679 349.371 145.771 349.376 145.834 349.382V350.511C145.796 350.502 145.71 350.488 145.575 350.469C145.444 350.447 145.304 350.436 145.156 350.436C144.805 350.436 144.491 350.51 144.215 350.657C143.942 350.802 143.726 351.002 143.566 351.26C143.409 351.514 143.331 351.804 143.331 352.13V356.704H142.22ZM148.086 359.415C147.898 359.415 147.73 359.399 147.582 359.368C147.435 359.339 147.333 359.311 147.276 359.283L147.559 358.304C147.829 358.373 148.067 358.398 148.274 358.379C148.481 358.361 148.665 358.268 148.825 358.102C148.988 357.939 149.137 357.673 149.272 357.306L149.479 356.742L146.806 349.476H148.011L150.006 355.236H150.081L152.076 349.476H153.281L150.213 357.758C150.075 358.132 149.904 358.441 149.7 358.685C149.496 358.933 149.259 359.117 148.989 359.236C148.723 359.355 148.421 359.415 148.086 359.415Z" fill="black"/>
<path d="M78 61.1766C78 53.8994 83.8994 48 91.1766 48H153.905C161.182 48 167.082 53.8994 167.082 61.1766V327.195H78V61.1766Z" fill="#222222"/>
<path d="M106.022 176.793V164.746H106.793V176.793H106.022ZM108.069 168.722C108.031 168.343 107.87 168.048 107.584 167.838C107.299 167.627 106.911 167.522 106.422 167.522C106.089 167.522 105.808 167.569 105.579 167.663C105.35 167.754 105.175 167.881 105.052 168.045C104.933 168.208 104.874 168.393 104.874 168.6C104.867 168.772 104.903 168.923 104.982 169.052C105.063 169.18 105.175 169.292 105.316 169.386C105.457 169.477 105.62 169.557 105.805 169.626C105.99 169.692 106.188 169.748 106.398 169.795L107.264 170.002C107.684 170.096 108.07 170.222 108.422 170.379C108.773 170.536 109.077 170.728 109.335 170.957C109.592 171.186 109.791 171.456 109.932 171.767C110.077 172.077 110.15 172.433 110.153 172.835C110.15 173.425 110 173.936 109.702 174.369C109.407 174.799 108.98 175.133 108.422 175.371C107.866 175.607 107.197 175.724 106.412 175.724C105.634 175.724 104.957 175.605 104.379 175.367C103.805 175.128 103.357 174.775 103.034 174.308C102.714 173.837 102.546 173.255 102.53 172.562H104.502C104.524 172.885 104.616 173.155 104.779 173.371C104.946 173.585 105.167 173.746 105.443 173.856C105.722 173.963 106.037 174.016 106.389 174.016C106.734 174.016 107.033 173.966 107.288 173.866C107.545 173.765 107.744 173.626 107.885 173.447C108.026 173.268 108.097 173.062 108.097 172.83C108.097 172.614 108.033 172.432 107.904 172.284C107.779 172.137 107.593 172.012 107.349 171.908C107.107 171.804 106.811 171.71 106.459 171.626L105.41 171.362C104.597 171.165 103.956 170.856 103.485 170.435C103.015 170.015 102.781 169.448 102.784 168.736C102.781 168.153 102.936 167.643 103.25 167.207C103.567 166.771 104.001 166.431 104.554 166.186C105.106 165.941 105.733 165.819 106.436 165.819C107.151 165.819 107.775 165.941 108.309 166.186C108.845 166.431 109.262 166.771 109.56 167.207C109.858 167.643 110.012 168.148 110.022 168.722H108.069ZM111.849 175.588L115.844 167.682V167.616H111.19V165.951H117.952V167.64L113.952 175.588H111.849ZM122.749 175.72C122.025 175.72 121.38 175.602 120.815 175.367C120.254 175.128 119.813 174.804 119.493 174.393C119.173 173.982 119.013 173.516 119.013 172.995C119.013 172.593 119.104 172.225 119.286 171.889C119.471 171.55 119.722 171.27 120.039 171.047C120.356 170.821 120.71 170.677 121.102 170.614V170.548C120.588 170.445 120.171 170.195 119.851 169.8C119.531 169.401 119.371 168.939 119.371 168.412C119.371 167.913 119.517 167.469 119.808 167.08C120.1 166.688 120.5 166.38 121.008 166.158C121.52 165.932 122.1 165.819 122.749 165.819C123.399 165.819 123.978 165.932 124.486 166.158C124.997 166.384 125.399 166.693 125.69 167.085C125.982 167.474 126.13 167.916 126.133 168.412C126.13 168.942 125.967 169.405 125.643 169.8C125.32 170.195 124.906 170.445 124.401 170.548V170.614C124.787 170.677 125.137 170.821 125.45 171.047C125.767 171.27 126.018 171.55 126.203 171.889C126.392 172.225 126.487 172.593 126.49 172.995C126.487 173.516 126.326 173.982 126.006 174.393C125.686 174.804 125.243 175.128 124.679 175.367C124.117 175.602 123.474 175.72 122.749 175.72ZM122.749 174.223C123.073 174.223 123.355 174.165 123.596 174.049C123.838 173.93 124.026 173.767 124.161 173.56C124.299 173.35 124.368 173.108 124.368 172.835C124.368 172.556 124.298 172.31 124.156 172.096C124.015 171.88 123.824 171.71 123.582 171.588C123.341 171.463 123.063 171.4 122.749 171.4C122.439 171.4 122.161 171.463 121.916 171.588C121.672 171.71 121.479 171.88 121.338 172.096C121.2 172.31 121.131 172.556 121.131 172.835C121.131 173.108 121.198 173.35 121.333 173.56C121.468 173.767 121.658 173.93 121.902 174.049C122.147 174.165 122.429 174.223 122.749 174.223ZM122.749 169.917C123.019 169.917 123.259 169.863 123.469 169.753C123.68 169.643 123.844 169.491 123.963 169.296C124.083 169.102 124.142 168.878 124.142 168.623C124.142 168.372 124.083 168.153 123.963 167.965C123.844 167.773 123.681 167.624 123.474 167.518C123.267 167.408 123.025 167.353 122.749 167.353C122.476 167.353 122.235 167.408 122.025 167.518C121.815 167.624 121.65 167.773 121.531 167.965C121.415 168.153 121.357 168.372 121.357 168.623C121.357 168.878 121.416 169.102 121.535 169.296C121.655 169.491 121.819 169.643 122.029 169.753C122.24 169.863 122.48 169.917 122.749 169.917ZM128.834 175.71C128.523 175.71 128.257 175.6 128.034 175.381C127.814 175.158 127.705 174.891 127.705 174.581C127.705 174.273 127.814 174.01 128.034 173.79C128.257 173.571 128.523 173.461 128.834 173.461C129.135 173.461 129.399 173.571 129.624 173.79C129.85 174.01 129.963 174.273 129.963 174.581C129.963 174.788 129.91 174.978 129.803 175.15C129.7 175.32 129.563 175.456 129.394 175.56C129.224 175.66 129.038 175.71 128.834 175.71ZM134.58 165.951V175.588H132.542V167.885H132.486L130.279 169.268V167.461L132.664 165.951H134.58ZM138.705 173.508L138.71 171.103H139.002L141.317 168.36H143.618L140.508 171.993H140.032L138.705 173.508ZM136.889 175.588V165.951H138.894V175.588H136.889ZM141.406 175.588L139.279 172.44L140.616 171.023L143.755 175.588H141.406Z" fill="white"/>
<path d="M0.113281 327H324.258" stroke="#CACACA" stroke-width="1.31766"/>
</svg>
