<svg width="36" height="35" viewBox="0 0 36 35" fill="none" xmlns="http://www.w3.org/2000/svg">
<g clip-path="url(#clip0_329_3459)">
<path d="M21.6631 9.16806C22.2848 8.57014 23.0495 8.18611 23.8339 7.87986C24.8946 7.47153 26.0195 7.20417 27.1739 7.31111C27.835 7.37431 28.4912 7.40347 29.1572 7.54444C30.6027 7.85556 31.8756 8.47778 32.9856 9.38194C34.4854 10.6021 35.5066 12.1431 35.7928 14.0875C35.8717 14.6271 35.9704 15.1618 35.9951 15.7063C36.0493 16.7951 35.7977 17.8403 35.2452 18.7736C34.5051 20.0229 33.6862 21.2285 32.882 22.434C32.0926 23.6153 31.3871 24.8257 31.2046 26.2597C31.1651 26.5903 31.1355 26.9208 31.1405 27.2514C31.1405 27.3438 31.2638 27.5042 31.3526 27.5236C31.9397 27.6306 32.2258 28.0194 32.3196 28.5396C32.4084 29.0646 32.137 29.4583 31.7078 29.7597C31.6782 29.7792 31.6437 29.784 31.619 29.8035C31.5993 29.8181 31.5894 29.8375 31.6042 29.8181C31.8262 30.0757 32.1074 30.2993 32.2406 30.5861C32.5268 31.2181 32.142 32.0736 31.4414 32.375C31.1503 32.5014 30.9875 32.6764 30.8445 32.934C30.2722 33.9694 29.3052 34.5042 28.2099 34.8104C27.0407 35.1312 25.8813 35.0389 24.7861 34.4896C24.0214 34.1056 23.4491 33.5417 23.1432 32.7347C23.1136 32.6569 23.0149 32.5694 22.9311 32.55C22.3736 32.4285 22.0085 32.0736 21.9049 31.5583C21.7865 30.9847 21.9049 30.4354 22.4871 30.1049C22.5167 30.0903 22.5315 30.0514 22.5709 30.0076C22.1022 29.7986 21.7865 29.4146 21.8358 28.9382C21.9098 28.2187 22.2305 27.7618 23.0199 27.5576C22.9952 25.9049 22.5709 24.3833 21.6434 23.0076L21.5053 23.0319C21.5349 23.4354 21.6089 23.8438 21.5891 24.2472C21.5497 24.9618 21.4954 25.6764 21.377 26.3861C21.2241 27.3243 20.6567 27.7861 19.6799 27.8687C18.8856 27.9368 18.0814 27.8882 17.2822 27.8882C16.3004 27.8882 15.3186 27.8882 14.2875 27.8882C14.2875 27.966 14.2875 28.0924 14.2875 28.2139C14.2924 29.8132 14.3171 31.4125 14.3023 33.0118C14.2875 34.2951 13.656 34.966 12.2697 34.9806C11.3619 34.9903 10.4591 34.9806 9.55132 34.9806C8.96423 34.9806 8.37221 34.9806 7.78512 34.9806C7.00068 34.9806 6.47773 34.6208 6.29026 33.8722C6.03865 32.8757 6.03865 31.8694 6.12252 30.8438C6.20145 29.8958 6.13732 28.9382 6.13732 27.9417C5.94491 27.9417 5.71303 27.9417 5.48116 27.9417C4.29217 27.9417 3.10319 27.9514 1.91914 27.9319C0.912704 27.9174 0.379882 27.4167 0.143072 26.5028C0.0789365 26.2549 0.0493353 25.9924 0 25.7299C0 25.4528 0 25.1757 0 24.8937C0.0246677 24.8354 0.0690695 24.7771 0.0690695 24.7236C0.0986707 23.6542 0.148006 22.5799 0.148006 21.5104C0.157873 16.8729 0.148006 12.2354 0.148006 7.60278C0.148006 6.90278 0.508154 6.36319 0.97684 5.89653C1.71194 5.17222 2.50624 4.50139 3.24133 3.77222C4.0751 2.94583 4.85953 2.07569 5.6933 1.24931C6.05838 0.889583 6.47773 0.573611 6.90201 0.272222C7.07469 0.150694 7.32136 0.0777778 7.53844 0.0777778C11.5445 0.0388889 15.5505 0.00972222 19.5565 0C20.1042 0 20.6518 0.0777778 21.0958 0.490972C21.4855 0.855556 21.5201 1.32222 21.525 1.77917C21.5447 4.12222 21.5299 6.46042 21.5349 8.80347C21.5349 8.92986 21.5842 9.06111 21.6089 9.1875C21.6286 9.18264 21.6483 9.17292 21.6681 9.16806H21.6631ZM33.5332 20.4458C33.5332 20.4458 33.5727 20.3972 33.5875 20.3729C33.8342 19.9694 34.0858 19.566 34.3325 19.1625C34.3966 19.0118 34.4558 18.8611 34.5199 18.7153C34.8505 18.1028 34.9788 17.4417 34.9985 16.7563C35.0232 16.5667 35.0478 16.3771 35.0725 16.1826C35.0725 15.9104 35.0725 15.6382 35.0725 15.366C35.0528 15.225 35.0281 15.084 35.0084 14.9382C34.959 14.7194 34.9048 14.5007 34.8554 14.2819C34.8357 14.1507 34.816 14.0146 34.7962 13.8833C34.7271 13.6792 34.6581 13.4701 34.5939 13.266C34.5397 13.1056 34.4903 12.9403 34.4361 12.7799C34.3423 12.5951 34.2535 12.4153 34.1598 12.2306C34.0957 12.1139 34.0266 12.0021 33.9624 11.8854C33.849 11.7007 33.7306 11.516 33.6171 11.3312C33.5678 11.2632 33.5184 11.1903 33.4691 11.1222C33.2126 10.7965 32.956 10.4708 32.6945 10.1451C32.6452 10.0965 32.5959 10.0479 32.5465 9.99931C32.3837 9.84861 32.2209 9.69306 32.0581 9.54236C31.9397 9.46458 31.8164 9.38194 31.698 9.30417C31.5105 9.16319 31.3181 9.02708 31.1306 8.88611C31.0369 8.81806 30.9431 8.75486 30.8494 8.68681C30.6372 8.575 30.4202 8.46806 30.208 8.35625C30.0304 8.28333 29.8479 8.21042 29.6703 8.1375C29.4236 8.06458 29.1769 7.98681 28.9302 7.91389C28.7921 7.875 28.6589 7.83611 28.5208 7.79722C28.205 7.75347 27.8893 7.70486 27.5785 7.66111C27.2331 7.66111 26.8878 7.66111 26.5375 7.66111C25.684 7.63681 24.8749 7.89444 24.0904 8.17153C22.7485 8.63819 21.752 9.59097 20.8294 10.6215C20.7356 10.7285 20.6814 10.8694 20.6123 10.9958C20.5827 11.0153 20.558 11.0347 20.5284 11.0542C20.41 11.2389 20.2966 11.4285 20.1782 11.6132H20.1831C20.1634 11.6521 20.1436 11.691 20.119 11.7347C19.9463 12.109 19.7785 12.4833 19.6059 12.8576C19.5861 12.9306 19.5615 13.0035 19.5417 13.0764C19.5417 13.0764 19.5023 13.1153 19.4875 13.1396C19.4184 13.4458 19.3493 13.7521 19.2803 14.0583C19.2556 14.2188 19.2309 14.384 19.2062 14.5444C19.1816 14.7972 19.1618 15.0549 19.1372 15.3076C19.1372 15.4194 19.1372 15.5264 19.1372 15.6382C19.1372 15.8715 19.1372 16.1049 19.1372 16.3382C19.1618 16.484 19.1865 16.625 19.2112 16.7708C19.2556 17.0042 19.2951 17.2375 19.3395 17.4757C19.3444 17.5438 19.3493 17.6069 19.3592 17.675C19.5121 18.1125 19.6651 18.55 19.818 18.9826L19.9019 19.1479C20.0005 19.3521 20.0992 19.5514 20.1979 19.7556C20.2423 19.8285 20.2867 19.9014 20.3311 19.9792C20.4692 20.1833 20.6024 20.3875 20.7406 20.5917C20.854 20.7278 20.9725 20.8639 21.0859 21C21.2093 21.1215 21.3326 21.2479 21.4559 21.3694C21.5546 21.4812 21.6483 21.5979 21.747 21.7097C21.8852 21.8701 22.0233 22.0306 22.1565 22.191C22.2354 22.3076 22.3094 22.4243 22.3884 22.5458C22.5216 22.7549 22.6597 22.959 22.7929 23.1681C22.862 23.2896 22.936 23.4111 23.0051 23.5326C23.0988 23.7368 23.1876 23.941 23.2813 24.1451C23.2912 24.1743 23.306 24.1986 23.3159 24.2278C23.3899 24.4222 23.4639 24.6167 23.533 24.8111C23.5527 24.9181 23.5724 25.0201 23.5922 25.1271C23.6612 25.3458 23.7303 25.5597 23.8043 25.7785C23.8043 25.8806 23.8043 25.9826 23.8043 26.0847C23.829 26.3181 23.8487 26.5514 23.8734 26.7847C23.8734 26.9257 23.8734 27.0667 23.8734 27.2076C23.9079 27.3 23.9375 27.3924 23.972 27.4847C24.3569 27.4847 24.7219 27.5042 25.0821 27.475C25.1956 27.4653 25.383 27.3535 25.3978 27.266C25.4521 26.916 25.4521 26.5611 25.4718 26.2062V25.9486C25.4718 25.6521 25.4718 25.3507 25.4718 25.0542C25.4718 25.0056 25.4718 24.9618 25.4718 24.9132C25.4718 24.6069 25.4718 24.2958 25.4718 23.9896C25.4718 23.9167 25.4768 23.8438 25.4817 23.7708C25.462 23.5472 25.4718 23.3139 25.4126 23.1049C25.3238 22.7937 25.1808 22.4924 25.0624 22.191C24.8946 22.1521 24.7269 22.1132 24.5591 22.0743C24.2829 21.9528 24.0016 21.8312 23.7254 21.7097C23.6563 21.6174 23.5823 21.5201 23.5132 21.4278L23.2369 20.7424C23.232 20.6451 23.2271 20.5479 23.2172 20.4458C23.2912 19.7507 23.7451 19.1528 24.3914 19.0361C24.7565 18.9681 25.1512 19.0653 25.536 19.0653C26.6904 19.075 27.8498 19.0701 29.0042 19.0701C29.5173 19.0701 30.0206 19.109 30.4794 19.3618C30.9925 19.8479 31.1651 20.4458 30.9037 21.0826C30.652 21.6903 30.1192 21.9722 29.4384 22.0111C29.2657 22.0208 29.0141 22.2104 28.9549 22.3708C28.8118 22.7549 28.6786 23.1778 28.6786 23.5812C28.6885 24.7771 28.7625 25.9681 28.8118 27.159C28.6836 27.4507 28.7132 27.4847 29.0881 27.475C29.3693 27.475 29.6505 27.475 29.9268 27.4847C30.1834 27.4944 30.2771 27.3972 30.2968 27.125C30.3314 26.5951 30.4202 26.0701 30.4892 25.5451C30.5139 25.4285 30.5435 25.3118 30.5682 25.1951C30.6175 25.0979 30.657 24.9958 30.7113 24.8986C31.0763 24.2181 31.4365 23.5375 31.8016 22.8569C31.9052 22.7014 32.0088 22.5507 32.1124 22.3951C32.4528 21.9187 32.7883 21.4472 33.1287 20.9708V20.9611C33.1731 20.9222 33.2126 20.8882 33.252 20.8493C33.3211 20.7424 33.3951 20.6306 33.4642 20.5236C33.4642 20.5236 33.5135 20.475 33.5382 20.4507L33.5332 20.4458ZM26.2464 19.8042C26.2069 19.9014 26.1675 19.9986 26.128 20.0958C26.0984 20.441 26.0688 20.7861 26.0392 21.1264H26.0441C26.0195 21.1556 25.9948 21.1799 25.9751 21.2042C25.8764 21.316 25.7728 21.4181 25.6889 21.5347C25.6692 21.559 25.7333 21.6417 25.758 21.6951C25.9208 21.9819 26.1379 22.2542 26.2316 22.5604C26.5523 23.6444 26.3845 24.7431 26.3155 25.8465C26.2859 26.3181 26.3303 26.7944 26.3401 27.266C26.3845 27.334 26.4191 27.4507 26.4733 27.4556C26.6312 27.475 26.7891 27.4556 26.9519 27.4556C28.0669 27.4701 27.8843 27.6063 27.8745 26.6243C27.8745 26.5611 27.8745 26.4931 27.8745 26.4299C27.8498 25.8319 27.8153 25.2389 27.8103 24.641C27.8103 24.0868 27.7758 23.5181 27.8942 22.9882C27.9978 22.5215 28.2889 22.0937 28.5257 21.5931C28.1507 21.3208 27.9337 20.8639 27.9435 20.3C27.9682 20.2319 27.9929 20.1639 28.0126 20.0958C28.0767 19.9403 28.1359 19.7847 28.205 19.6194H26.7546C26.7052 19.634 26.6559 19.6535 26.6066 19.6681C26.5621 19.6729 26.5177 19.6826 26.4733 19.6875C26.3993 19.7264 26.3253 19.7604 26.2513 19.7993L26.2464 19.8042ZM29.4483 32.0639L29.4384 32.0736C29.6012 32.0639 29.764 32.0542 29.9268 32.0444C30.213 32.0687 30.509 32.1465 30.7853 32.1076C31.0813 32.0688 31.3723 31.8937 31.4069 31.5632C31.4513 31.1306 31.4661 30.6347 30.9974 30.4111C30.7063 30.2701 30.3314 30.2993 29.9959 30.2507C29.6456 30.2507 29.2953 30.2507 28.945 30.2507C28.5208 30.2507 28.0965 30.241 27.6673 30.241C27.5982 30.241 27.5291 30.241 27.4551 30.241C27.0555 30.241 26.6559 30.241 26.2563 30.2458C25.9997 30.2458 25.7382 30.2458 25.4817 30.2458C25.0821 30.2458 24.6775 30.2458 24.2779 30.2458C24.0707 30.2458 23.8586 30.2458 23.6514 30.2507C23.0889 30.2118 22.9952 30.2701 22.788 30.7563C22.64 31.1014 22.7189 31.4417 23.01 31.7042L23.2912 31.8451C23.38 31.8889 23.4639 31.9424 23.5527 31.9715C24.2286 32.1806 24.9242 32.2194 25.6248 32.1708C25.8369 32.1708 26.0491 32.1708 26.2563 32.1708L26.6756 32.1125C26.7842 32.1368 26.8878 32.1806 26.9963 32.1757C27.7857 32.1562 28.575 32.1222 29.3644 32.0979C29.3891 32.0785 29.4137 32.0639 29.4433 32.0444L29.4483 32.0639ZM19.966 10.8062C19.9907 10.7722 20.0203 10.7431 20.045 10.709C20.119 10.6167 20.1979 10.5243 20.2719 10.4319C20.2916 10.4125 20.3114 10.3931 20.3311 10.3687C20.3558 10.3444 20.3854 10.3153 20.41 10.291C20.7652 10.0771 20.563 9.73681 20.5975 9.45486C20.6024 9.38681 20.6123 9.31875 20.6172 9.25069C20.6172 9.25069 20.6468 9.20694 20.6616 9.18264C20.6468 8.71597 20.632 8.25417 20.6222 7.7875C20.6222 7.71458 20.6222 7.64653 20.6271 7.57361C20.637 7.32083 20.6518 7.06319 20.6616 6.81042C20.6419 6.74236 20.6222 6.67431 20.6024 6.60625C20.6024 6.37292 20.6024 6.13958 20.6024 5.91111C20.6024 5.72639 20.6024 5.54167 20.6024 5.35694C20.6271 5.09931 20.6518 4.84653 20.6764 4.58889C20.6764 4.42847 20.6764 4.26319 20.6764 4.10278C20.6764 3.86944 20.6764 3.63611 20.6764 3.40278C20.6764 3.19375 20.6764 2.98958 20.6764 2.78056C20.6518 2.57153 20.6271 2.3625 20.6024 2.14861C20.6024 2.05625 20.6024 1.96389 20.6024 1.87153C20.5136 1.63819 20.4248 1.40486 20.336 1.17153C20.267 1.10347 20.1979 1.03542 20.1288 0.9625C19.8673 0.850694 19.6059 0.74375 19.3395 0.631944C19.1766 0.607639 19.0089 0.583333 18.8461 0.563889C18.4465 0.563889 18.0469 0.563889 17.6423 0.563889C17.3364 0.588194 17.0306 0.607639 16.7247 0.631944C16.2757 0.631944 15.8317 0.631944 15.3828 0.631944C15.0522 0.65625 14.7266 0.680556 14.3961 0.7C13.5722 0.7 12.7483 0.7 11.9244 0.7C11.5691 0.7 11.2189 0.7 10.8636 0.7C9.96081 0.7 9.05797 0.690278 8.15513 0.690278C7.85419 0.690278 7.62724 0.821528 7.62724 1.13264C7.62724 1.70625 7.67165 2.275 7.70125 2.84861C7.70125 2.94097 7.70125 3.03333 7.70125 3.12569C7.70125 3.45139 7.73578 3.78194 7.68151 4.09792C7.58778 4.67639 7.51377 5.27431 7.29176 5.80903C7.04509 6.40694 6.44813 6.67917 5.85117 6.89306C5.75743 6.9125 5.6637 6.92708 5.56503 6.94653C4.90887 7 4.24777 7.05347 3.59161 7.10694C3.44854 7.10694 3.3104 7.10694 3.16733 7.10694H1.07058V8.27847C1.07058 8.43889 1.07058 8.60417 1.07058 8.76458C1.07058 9.02222 1.07058 9.275 1.07058 9.53264L1.04591 9.94583C1.03111 10.2035 1.01137 10.4563 0.996574 10.7139V10.991C0.996574 11.2486 0.996574 11.5014 0.996574 11.759C0.996574 11.9 0.996574 12.0361 0.996574 12.1771C1.00151 12.4104 1.00644 12.6438 1.01137 12.8771L1.04098 13.1542C1.04098 13.3875 1.04098 13.6208 1.04098 13.8542C1.04098 14.0632 1.03604 14.2722 1.03111 14.4764C1.03111 14.7097 1.03604 14.9431 1.04098 15.1764C1.04098 15.3611 1.04098 15.5458 1.04098 15.7306C1.04098 15.9639 1.04098 16.1972 1.04098 16.4306C1.04098 16.6153 1.04098 16.8049 1.04098 16.9896C1.04098 17.2229 1.04098 17.4514 1.04098 17.6847C1.04098 17.7528 1.04098 17.8257 1.04098 17.8938C1.04098 18.1271 1.04098 18.3556 1.04591 18.5889V18.866C1.03111 19.3326 1.00644 19.7944 0.986707 20.2611V20.5382C0.986707 20.7715 0.986707 21.0049 0.986707 21.2333C0.986707 21.3014 0.986707 21.3694 0.986707 21.4424C1.01137 21.9285 1.03604 22.4194 1.05578 22.9056C1.05578 23.0222 1.05578 23.134 1.05578 23.2507C1.05578 23.9701 1.05578 24.6896 1.05578 25.409C1.05578 25.5014 1.05578 25.5938 1.05578 25.6812C1.05578 25.9146 1.05578 26.1479 1.05578 26.3813C1.11991 26.5465 1.18405 26.7069 1.24818 26.8722C1.48499 27.0132 1.7218 27.1542 1.95861 27.2903C2.03262 27.3049 2.10169 27.3243 2.17569 27.3389C2.59997 27.3632 3.02426 27.3875 3.44361 27.4069C3.65575 27.3826 3.86789 27.3583 4.08003 27.3389C4.54872 27.3146 5.02234 27.2903 5.49102 27.2708H6.16692C6.16692 27.1104 6.16692 26.9889 6.16692 26.8674C6.16692 26.5903 6.16692 26.3083 6.16692 26.0312C6.16692 25.9632 6.16692 25.8951 6.16692 25.8271C6.16692 25.1757 6.16692 24.5243 6.16692 23.8778C6.16692 23.7854 6.16692 23.6931 6.16692 23.6007V23.1535C5.77717 23.1875 5.42195 23.241 5.06181 23.2458C4.59805 23.2458 4.09483 23.3819 3.73962 22.9493C3.95669 22.6431 4.26751 22.5507 4.62272 22.5604C5.02727 22.575 5.43182 22.5944 5.83637 22.6285C6.09291 22.6528 6.19159 22.575 6.18665 22.3076C6.17185 21.5785 6.17678 20.8542 6.17678 20.125C6.17678 20.1007 6.17678 20.0764 6.17678 20.0521V19.6389C5.93504 19.6389 5.74757 19.634 5.56009 19.6389C5.16541 19.6583 4.76579 19.7167 4.37604 19.6924C4.13924 19.6729 3.91723 19.5222 3.68535 19.4299C3.69522 19.3764 3.70508 19.3229 3.71495 19.2694C4.44511 18.7347 5.33315 19.1771 6.12252 18.9681C6.11265 17.9569 6.10278 16.9458 6.67507 16.0465C5.68836 15.9347 4.71646 16.1875 3.75442 15.8472C3.81362 15.7694 3.82842 15.7306 3.85802 15.716C3.89749 15.6965 3.94189 15.6771 3.9863 15.6771C4.60792 15.6285 5.22955 15.5701 5.85611 15.5361C6.24092 15.5167 6.69481 15.6479 7.00068 15.4875C7.29176 15.3319 7.4299 14.8944 7.62231 14.5736C8.03673 13.8882 8.44621 13.1931 8.88036 12.4639C8.53995 12.4639 8.2538 12.4639 7.96272 12.4639C7.37563 12.4639 6.78854 12.4639 6.19652 12.4639C6.07811 12.4639 5.95971 12.4639 5.84624 12.4639C5.35288 12.4444 4.8546 12.425 4.36124 12.4104C4.19844 12.3813 4.03563 12.3521 3.87776 12.3229C3.88269 12.2743 3.87776 12.1917 3.89749 12.1868C4.05043 12.1528 4.21324 12.1285 4.37111 12.1042C4.39578 12.0847 4.42538 12.0701 4.45005 12.0507L4.44511 12.0604C4.67699 12.0507 4.9138 12.0458 5.14568 12.0361C5.79197 11.9972 6.43826 11.9292 7.08456 11.9194C7.73578 11.9097 8.38701 11.9583 9.04317 11.9729C9.13197 11.9729 9.26024 11.9243 9.29971 11.8562C9.61546 11.3215 10.6564 11.2729 11.0561 11.691C11.1597 11.7979 11.3619 11.8514 11.5198 11.8514C12.9999 11.8611 14.4849 11.8562 15.9649 11.8611C16.0833 11.8611 16.2067 11.8417 16.3152 11.8806C16.4435 11.9243 16.552 12.0215 16.6655 12.0944C16.5668 12.1965 16.4879 12.3521 16.3645 12.4007C15.4568 12.7653 14.5046 12.5854 13.5672 12.5903C12.9555 12.5903 12.3437 12.5903 11.7073 12.5903C11.7319 12.634 11.7566 12.6681 11.7763 12.7069C12.319 13.6014 12.8617 14.4958 13.4192 15.3806C13.4685 15.4632 13.6166 15.5312 13.7202 15.5312C14.3665 15.5458 15.0127 15.5312 15.659 15.541C15.807 15.541 15.9551 15.5944 16.0981 15.6236C16.0981 15.6625 16.0981 15.6965 16.0932 15.7354C15.4272 16.2604 14.6181 15.9007 13.8682 16.0514C13.9224 16.1875 13.9816 16.3333 14.0458 16.4792C14.3319 17.1694 14.248 17.8937 14.2579 18.6083C14.2628 19.0799 14.401 19.1674 14.8993 19.0215C15.0621 19.0118 15.2249 19.0069 15.3877 18.9972C15.6344 18.9972 15.886 18.9778 16.1277 19.0167C16.3201 19.0458 16.5076 19.1479 16.7296 19.2306C16.4385 19.5854 16.1623 19.7313 15.7922 19.7069C15.3088 19.6729 14.8203 19.6583 14.3171 19.6292V22.5847C14.7513 22.5847 15.1608 22.5799 15.5702 22.5847C16.3103 22.5993 17.0454 22.6187 17.7854 22.6333C17.815 22.6771 17.8446 22.716 17.8742 22.7597C17.8742 23.0757 17.6423 23.1437 17.3956 23.1778C17.223 23.2021 17.0503 23.1875 16.8727 23.1924C16.848 23.1924 16.8283 23.1924 16.8036 23.1924C16.0044 23.1924 15.2002 23.1924 14.401 23.1924C14.3813 23.1924 14.3566 23.2021 14.3369 23.2069C14.3319 24.3104 14.327 25.4139 14.3171 26.5222C14.3171 26.6146 14.3171 26.7069 14.3171 26.7993V27.4167H14.7562C14.8549 27.4118 14.9585 27.4021 15.0571 27.3972C15.3581 27.3875 15.659 27.3778 15.96 27.3681C16.4089 27.3826 16.853 27.3972 17.3019 27.4118C17.3512 27.4118 17.3956 27.4118 17.445 27.4118C17.8199 27.4361 18.1998 27.4556 18.5748 27.4799H19.2803C19.9561 27.4847 20.489 27.1736 20.5432 26.6778C20.6172 26.0021 20.637 25.3215 20.6764 24.641C20.6764 24.4806 20.6764 24.3201 20.6764 24.1549C20.6764 23.8972 20.6764 23.6396 20.6764 23.3868C20.6764 23.2944 20.6764 23.2021 20.6764 23.1097L20.6074 22.3417C20.6074 22.225 20.6074 22.1083 20.6074 21.9965C20.6814 21.6757 20.4742 21.4813 20.2719 21.2868C20.2028 21.2188 20.1338 21.1556 20.0647 21.0875C19.9216 20.8785 19.7785 20.6743 19.6355 20.4653C19.6059 20.4215 19.5763 20.3729 19.5516 20.3292L18.8461 18.9389C18.8214 18.8903 18.7968 18.8465 18.777 18.7979C18.634 18.2875 18.4958 17.7771 18.3527 17.2667C18.3281 17.1306 18.3083 16.9896 18.2837 16.8535C18.2837 16.7368 18.2886 16.625 18.2935 16.5083C18.3182 15.9153 18.3182 15.3174 18.3774 14.7243C18.4218 14.2722 18.5452 13.825 18.634 13.3729C18.6636 13.3049 18.6932 13.2368 18.7178 13.1687C19.1372 12.3861 19.5565 11.6083 19.9709 10.8257L19.966 10.8062ZM8.53008 30.3868C8.53008 30.3431 8.53995 30.2993 8.54488 30.2556C8.55968 29.6771 8.57448 29.0938 8.59422 28.5153C8.57942 28.4667 8.56955 28.4181 8.55475 28.3694C8.54488 28.35 8.53995 28.3306 8.53008 28.3111C8.53008 27.966 8.53008 27.6208 8.53008 27.2708C8.53008 27.1979 8.53008 27.1299 8.53008 27.0569C8.53008 26.7312 8.53008 26.4007 8.53008 26.075C8.53995 26.0556 8.53995 26.0361 8.53995 26.0118C8.55475 25.3944 8.56955 24.7722 8.57942 24.1549C8.56955 24.0771 8.55968 23.9993 8.54982 23.9215C8.56462 23.3187 8.57942 22.716 8.59422 22.1181C8.58435 22.0694 8.56955 22.0208 8.55968 21.9722C8.55968 21.9479 8.54982 21.9285 8.54488 21.9042H8.55968C8.56955 21.8556 8.58435 21.8069 8.59422 21.7632C8.59422 21.0924 8.59422 20.4264 8.59422 19.7556L8.55475 19.6778C8.55475 19.6778 8.53995 19.634 8.54488 19.6146H8.55968C8.57448 19.566 8.58435 19.5222 8.59915 19.4736C8.59915 19.0118 8.59915 18.55 8.59915 18.0882C8.59915 18.0639 8.59915 18.0396 8.59915 18.0104V17.2618H8.10086C7.82459 17.2618 7.55324 17.2618 7.27696 17.2618C7.20789 17.2958 7.09442 17.3201 7.07962 17.3687C7.03029 17.5437 6.99575 17.7285 7.00068 17.9035C7.02042 18.7299 7.05002 19.5514 7.07962 20.3778C7.07962 20.5576 7.07962 20.7424 7.07962 20.9222C7.07962 21.4861 7.07962 22.0549 7.07962 22.6187C7.10429 22.7549 7.12402 22.891 7.14869 23.0271C7.12402 23.1 7.07469 23.1729 7.07469 23.2458C7.07469 23.7319 7.07469 24.2132 7.07962 24.6993C7.07962 24.884 7.07962 25.0736 7.07962 25.2583C7.07962 25.7639 7.07962 26.2694 7.08456 26.7799V27.0812C7.08456 27.3486 7.08456 27.616 7.08456 27.8833C7.08456 28.0292 7.08456 28.175 7.08456 28.3208C7.08456 28.5931 7.08456 28.8604 7.08456 29.1326C7.08456 29.2736 7.08456 29.4097 7.08456 29.5507V30.8632H7.58284C7.71605 30.8632 7.84925 30.8632 7.98246 30.8632H8.53995C8.53995 30.6833 8.53995 30.5326 8.53995 30.3868H8.53008ZM25.2597 29.7354C25.3633 29.7354 25.4669 29.7354 25.5705 29.7354C27.3219 29.7451 29.0684 29.7549 30.8198 29.7597C30.8987 29.7597 30.9974 29.7646 31.0517 29.7257C31.4463 29.4292 31.5352 29.0403 31.4167 28.5736C31.3477 28.3111 31.0073 27.9076 30.7458 27.8882C30.2623 27.8493 29.7739 27.8444 29.2855 27.825C29.0783 27.825 28.871 27.825 28.6688 27.825C28.4764 27.8493 28.2889 27.8736 28.0965 27.8979C27.7363 27.8736 27.3762 27.8493 27.016 27.825C26.7891 27.825 26.5621 27.825 26.3352 27.825C26.1921 27.8493 26.0491 27.8736 25.906 27.8979C25.5656 27.8736 25.2301 27.8493 24.8897 27.825C24.4999 27.8007 24.1102 27.7812 23.7204 27.7569C23.2764 27.7618 22.8719 27.9222 22.7485 28.35C22.6203 28.7972 22.714 29.2542 23.1432 29.5604C23.2863 29.6236 23.4294 29.6868 23.5675 29.75C24.0411 29.75 24.5098 29.75 24.9834 29.75C25.0722 29.7451 25.161 29.7403 25.2498 29.7306L25.2597 29.7354ZM13.4044 26.0069C13.4044 25.8903 13.4044 25.7736 13.4044 25.6569C13.4044 25.3993 13.4044 25.1368 13.4044 24.8792C13.4044 24.816 13.4093 24.7528 13.4143 24.6847C13.4143 24.5875 13.4143 24.4951 13.4143 24.3979C13.4143 24.1354 13.4143 23.8729 13.4143 23.6153C13.4143 23.5083 13.4143 23.4014 13.4143 23.2944V21.8167C13.4143 21.8167 13.4291 21.7826 13.434 21.7632C13.4439 21.7583 13.4587 21.7486 13.4587 21.7437C13.4537 21.7243 13.4389 21.7097 13.4291 21.6951C13.4192 21.5542 13.4143 21.4083 13.4044 21.2674C13.4044 20.7424 13.4044 20.2174 13.4044 19.6924C13.4044 19.5271 13.4044 19.3667 13.4044 19.2014C13.3797 18.6424 13.3551 18.0833 13.3353 17.5243V17.2569H11.875C11.875 17.4514 11.875 17.6215 11.875 17.7917C11.875 17.9569 11.875 18.1222 11.875 18.2875C11.88 18.934 11.8849 19.5806 11.8948 20.2222C11.8898 20.2514 11.88 20.2757 11.875 20.3049C11.88 20.3778 11.8849 20.4507 11.8898 20.5236C11.8997 21.1313 11.9096 21.734 11.9194 22.3368C11.9046 22.4243 11.8898 22.5167 11.875 22.6042C11.8898 23.1729 11.8997 23.7465 11.9145 24.3153C11.9145 24.3444 11.9046 24.3687 11.9046 24.3979C11.9096 24.7528 11.9194 25.1076 11.9244 25.4576C11.9096 25.5257 11.8898 25.5938 11.875 25.6569C11.875 26.0021 11.875 26.3424 11.875 26.6875C11.875 26.7556 11.875 26.8236 11.88 26.8917V30.8681C12.3388 30.8681 12.7483 30.8681 13.1577 30.8681C13.3649 30.8681 13.4192 30.7708 13.4143 30.5861C13.4044 30.0514 13.4044 29.5215 13.3945 28.9868C13.3945 28.8653 13.3945 28.7486 13.3945 28.6271C13.3945 28.35 13.3945 28.0729 13.3945 27.7958C13.3945 27.7229 13.3945 27.6549 13.3945 27.5819C13.3945 27.0764 13.3945 26.5757 13.3945 26.0701C13.3945 26.0458 13.3945 26.0215 13.3945 25.9972L13.4044 26.0069ZM6.00411 2.01736C5.93504 2.08542 5.86104 2.15347 5.79197 2.22153C5.74757 2.25556 5.6933 2.27986 5.65383 2.32361C4.32671 3.62639 3.00452 4.93403 1.68234 6.24167C1.63793 6.28542 1.6034 6.34861 1.56393 6.40208C1.49486 6.48472 1.42579 6.56736 1.31725 6.70347C1.52446 6.71319 1.6774 6.72292 1.83034 6.73264C2.21022 6.73264 2.59011 6.72292 2.97492 6.71806C3.15746 6.72292 3.34494 6.72778 3.52748 6.73264C4.13924 6.71319 4.76579 6.76181 5.36275 6.65972C6.17678 6.52361 6.60107 6.26597 6.69974 5.37153C6.78854 4.53542 6.75401 3.68958 6.77374 2.84861C6.77374 2.78056 6.77374 2.7125 6.77374 2.64444C6.77374 2.38681 6.77374 2.12917 6.76881 1.87153V1.33194C6.532 1.56528 6.33959 1.75 6.14718 1.93958C6.10278 1.96389 6.05838 1.99306 6.00904 2.01736H6.00411ZM25.6198 20.4556C25.6001 20.3972 25.5754 20.334 25.5557 20.2757C25.4324 19.8965 25.1068 19.7944 24.7663 19.6972C24.2483 19.6632 24.0016 19.8042 23.8043 20.2514C23.7402 20.6111 23.898 20.8882 24.125 21.1458C24.2187 21.1944 24.3174 21.2382 24.4111 21.2868C24.9291 21.4861 25.5409 21.0681 25.6149 20.4604L25.6198 20.4556ZM25.6988 34.2028C25.9109 34.2708 26.1181 34.334 26.3303 34.4021C26.6855 34.4312 27.0407 34.4604 27.391 34.4896C27.6031 34.4653 27.8153 34.441 28.0274 34.4215C28.9697 34.334 30.0156 33.4639 30.1686 32.6375H29.3644C29.1523 32.6375 28.945 32.6375 28.7329 32.6375H24.0855C24.4013 33.4104 24.9736 33.8819 25.6988 34.2076V34.2028ZM9.03823 16.6056H13.1972C12.8617 16.066 12.5608 15.5944 12.2648 15.1132C11.6727 14.1458 11.0857 13.1736 10.4936 12.2063C10.2864 11.8708 10.094 11.8854 9.8868 12.2257C9.23558 13.3049 8.56955 14.3792 7.91832 15.4583C7.69631 15.8278 7.48417 16.2021 7.22763 16.6444C7.84925 16.6104 8.37221 16.5861 8.89516 16.5569C8.9445 16.5715 8.9889 16.5861 9.03823 16.6007V16.6056ZM12.0674 31.5826C11.8602 31.5826 11.653 31.5826 11.4409 31.5826H7.06482C7.06482 32.2292 7.05989 32.866 7.06975 33.4979C7.06975 33.6243 7.15362 33.7458 7.19803 33.8722C7.28683 33.984 7.37563 34.0958 7.46444 34.2076C7.73085 34.3 7.99726 34.3875 8.26367 34.4799C8.56955 34.4799 8.87049 34.4799 9.17637 34.4799C9.58092 34.4799 9.99041 34.4799 10.395 34.475C10.76 34.475 11.1251 34.475 11.4902 34.4799C11.8553 34.4799 12.2253 34.5333 12.5756 34.475C12.7976 34.441 13.0788 34.2951 13.1923 34.1153C13.6067 33.4493 13.4143 32.7104 13.36 31.991C13.3551 31.8986 13.3501 31.8062 13.3452 31.7139C13.3304 31.6653 13.3156 31.5778 13.2959 31.5778C12.8864 31.5729 12.4769 31.5778 12.0674 31.5778V31.5826ZM10.9475 17.3833C10.9968 17.1111 10.8094 17.2812 10.7206 17.2667H9.47732C9.47732 18.2535 9.47732 19.2063 9.47732 20.159C9.47732 20.2076 9.47732 20.2562 9.47732 20.3097C9.47732 21.8021 9.47732 23.2993 9.47732 24.7917C9.47732 26.7944 9.48225 28.7972 9.48719 30.8049C9.50199 30.8243 9.52172 30.8486 9.53652 30.8681C9.89174 30.8681 10.247 30.8535 10.6022 30.8826C10.9376 30.9118 11.0215 30.7903 11.0166 30.4694C11.0067 27.8736 11.0166 25.2778 11.0067 22.6819C11.0067 22.1764 10.9524 21.6708 10.9524 21.1653C10.9524 20.7035 11.0116 20.2417 11.0067 19.7799C11.0018 18.9826 10.9672 18.1854 10.9475 17.3882V17.3833ZM30.3412 20.4507C30.2623 19.9792 30.1538 19.6437 29.5815 19.6C29.0338 19.5562 28.6737 20.0667 28.6638 20.5187C28.654 20.9514 29.0487 21.4181 29.4088 21.4181C29.8923 21.4181 30.3314 20.9611 30.3412 20.4507Z" fill="#222222"/>
<path d="M21.6647 9.16797C21.6647 9.16797 21.6252 9.18255 21.6055 9.18741C21.6252 9.17769 21.6449 9.16797 21.6647 9.16797Z" fill="#222222"/>
<path d="M20.6721 3.40326C20.6721 3.63659 20.6721 3.86992 20.6721 4.10326C18.6542 5.36714 16.6364 6.63589 14.6186 7.89978L14.6827 8.00673C16.6808 6.86923 18.6789 5.72687 20.6721 4.58937C20.6474 4.847 20.6227 5.09978 20.5981 5.35742C19.5817 5.99909 18.5654 6.63589 17.5491 7.28242C17.0114 7.62756 16.4835 7.98728 15.9507 8.33728C15.8816 8.33728 15.8125 8.347 15.7385 8.347C13.8243 8.347 11.9101 8.34214 9.99095 8.33728C9.66041 8.33728 9.33973 8.35673 9.12759 8.76506C9.30026 8.81367 9.4384 8.88659 9.58147 8.89145C11.2786 8.92062 12.9757 8.94492 14.6778 8.96923C14.7222 8.96923 14.7715 8.97409 14.816 8.97895C14.7123 9.05187 14.6038 9.11506 14.5051 9.19284C14.3029 9.34839 14.1006 9.50881 13.8983 9.66437C13.8934 9.67409 13.8884 9.68381 13.8835 9.69353C13.8884 9.68381 13.8934 9.67409 13.9032 9.66437C14.3029 9.43589 14.7025 9.20742 15.1021 8.97895C15.5313 8.95464 15.9605 8.94006 16.3848 8.89631C16.7844 8.85742 17.1791 8.79423 17.5738 8.71645C17.6774 8.69701 17.7613 8.57062 17.855 8.49284C17.7465 8.44423 17.6429 8.36159 17.5294 8.35673C17.1446 8.33728 16.7548 8.34214 16.37 8.33728C16.4095 8.29839 16.444 8.24492 16.4934 8.22062C17.8599 7.4477 19.2265 6.67964 20.5931 5.91159C20.5931 6.14492 20.5931 6.37826 20.5931 6.60673C20.0258 6.94701 19.4584 7.28728 18.896 7.63728C18.817 7.68589 18.7628 7.78312 18.6986 7.85603C18.6937 7.86576 18.6888 7.87548 18.6838 7.8852C18.6888 7.87548 18.6937 7.86576 18.7036 7.85603C18.8072 7.81228 18.9157 7.77339 19.0193 7.71506C19.5669 7.41367 20.1096 7.11228 20.6573 6.81089C20.6474 7.06367 20.6326 7.32131 20.6227 7.57409C20.1392 7.85117 19.6557 8.12339 19.1723 8.40534C18.9947 8.51228 18.822 8.62895 18.6493 8.74075C18.669 8.76992 18.6838 8.79909 18.7036 8.82825C18.8318 8.7602 18.9601 8.69214 19.0884 8.62409C19.5965 8.347 20.1096 8.06506 20.6178 7.78798C20.6326 8.25464 20.6474 8.71645 20.6573 9.18312C20.6425 9.20742 20.6277 9.23173 20.6129 9.25603C20.1343 9.52826 19.6508 9.79075 19.1821 10.0727C18.9848 10.1942 18.8121 10.3595 18.6296 10.5005C18.5605 10.5248 18.4865 10.5491 18.4174 10.5685C18.3681 10.6171 18.3237 10.6609 18.2744 10.7095C18.2102 10.7241 18.1461 10.7435 18.0869 10.7581C18.0968 10.7776 18.1066 10.797 18.1165 10.8164C18.1708 10.7824 18.225 10.7484 18.2793 10.7095C18.3286 10.6609 18.373 10.6171 18.4224 10.5685C18.4914 10.5442 18.5654 10.5199 18.6345 10.5005C18.7381 10.4519 18.8516 10.4178 18.9503 10.3595C19.5028 10.0581 20.0504 9.75673 20.5981 9.45534C20.5635 9.74214 20.7658 10.0776 20.4106 10.2914C20.3859 10.3158 20.3563 10.3449 20.3316 10.3692C20.3119 10.3887 20.2922 10.4081 20.2724 10.4324C19.8926 10.6609 19.5127 10.8942 19.1279 11.1227C18.9897 11.1762 18.8516 11.2296 18.7134 11.2831C18.7332 11.3171 18.7578 11.3512 18.7776 11.3852C18.896 11.2977 19.0095 11.2102 19.1279 11.1227C19.4041 11.0158 19.6853 10.9088 19.9616 10.8019C19.5423 11.5845 19.1229 12.3623 18.7085 13.1449C18.6197 13.1546 18.5112 13.1352 18.4421 13.1741C18.2004 13.3102 17.9685 13.456 17.7415 13.6164C17.4455 13.8206 17.1594 14.0394 16.8683 14.2533C16.7992 14.2776 16.7252 14.3019 16.6562 14.3213C16.6019 14.3505 16.5427 14.3748 16.4884 14.4039L16.5526 14.472C16.5871 14.4234 16.6266 14.3748 16.6611 14.3262C16.7302 14.3019 16.8042 14.2776 16.8732 14.2581C16.9768 14.2144 17.0854 14.1706 17.189 14.1171C17.6675 13.8644 18.1461 13.6067 18.6296 13.3491C18.5408 13.8012 18.4174 14.2435 18.373 14.7005C18.3138 15.2935 18.3138 15.8914 18.2892 16.4845C18.2892 16.6012 18.2793 16.713 18.2793 16.8296C17.8747 17.0776 17.4603 17.3206 17.0607 17.5783C16.3404 18.0449 15.625 18.5262 14.9048 18.9977C14.4065 19.1435 14.2683 19.056 14.2634 18.5845C14.2535 17.8699 14.3423 17.1408 14.0513 16.4553C13.9921 16.3095 13.9328 16.1637 13.8736 16.0276C14.6186 15.8769 15.4326 16.2366 16.0987 15.7116C16.0987 15.6727 16.0987 15.6387 16.1036 15.5998C15.9556 15.5706 15.8125 15.5171 15.6645 15.5171C15.0182 15.5074 14.3719 15.5171 13.7256 15.5074C13.622 15.5074 13.479 15.4394 13.4247 15.3567C12.8672 14.472 12.3294 13.5776 11.7818 12.6831C11.7621 12.6491 11.7374 12.6102 11.7128 12.5664C12.3492 12.5664 12.9609 12.5664 13.5727 12.5664C14.5101 12.5664 15.4622 12.7414 16.37 12.3769C16.4934 12.3283 16.5723 12.1776 16.671 12.0706C16.5526 11.9977 16.449 11.9053 16.3207 11.8567C16.2171 11.8178 16.0888 11.8373 15.9704 11.8373C14.4903 11.8373 13.0053 11.8373 11.5253 11.8276C11.3674 11.8276 11.1651 11.7741 11.0615 11.6671C10.6619 11.2539 9.62094 11.3026 9.30519 11.8324C9.26572 11.9005 9.13745 11.9491 9.04865 11.9491C8.39742 11.9394 7.74126 11.8859 7.09004 11.8956C6.44374 11.9053 5.79745 11.9685 5.15116 12.0123C5.20543 11.9442 5.24489 11.8519 5.31396 11.8081C6.21187 11.2296 7.1147 10.6658 8.01261 10.0873C8.13101 10.0095 8.22475 9.89284 8.33329 9.79562C8.26915 9.81506 8.19515 9.82964 8.13594 9.86367C7.21337 10.3838 6.2908 10.9039 5.3781 11.4387C5.06235 11.6234 4.76141 11.8373 4.45553 12.0366L4.46046 12.0269C4.43579 12.0463 4.40619 12.0609 4.38153 12.0803C4.22365 12.1046 4.06578 12.1289 3.90791 12.163C3.89311 12.163 3.89311 12.2505 3.88817 12.2991C3.42442 12.5616 2.96067 12.8241 2.48705 13.0769C2.0085 13.3345 1.52501 13.5824 1.04152 13.8352C1.04152 13.6019 1.04152 13.3685 1.04152 13.1352C1.08592 13.1255 1.14019 13.1303 1.17473 13.106C1.88022 12.6734 2.58572 12.2456 3.28135 11.8033C3.53789 11.638 3.7747 11.4387 4.01644 11.2539C4.14472 11.2151 4.27792 11.1762 4.40619 11.1373C4.39139 11.1033 4.37166 11.0692 4.35686 11.0303C4.24339 11.1033 4.12992 11.1762 4.01644 11.2539C3.50829 11.5359 3.00507 11.8178 2.49198 12.0901C2.00356 12.3526 1.50528 12.6005 1.01192 12.8533C1.00699 12.6199 1.00205 12.3866 0.997121 12.1533C1.15499 12.0755 1.3178 12.0171 1.46581 11.9248C2.98534 10.9671 4.50486 10.0095 6.02439 9.047C6.17733 8.94978 6.33027 8.85742 6.48321 8.76506C6.39934 8.71159 6.34507 8.71645 6.30067 8.74075C5.47677 9.20742 4.6578 9.67895 3.8339 10.1456C2.8916 10.6803 1.94436 11.2053 0.997121 11.7401C0.997121 11.4824 0.997121 11.2296 0.997121 10.972C1.08099 10.9428 1.17966 10.9283 1.25366 10.8845C1.69275 10.622 2.1269 10.3498 2.56105 10.0776C3.06921 9.75673 3.57243 9.43103 4.07565 9.1102C3.96218 9.07617 3.8783 9.09562 3.8043 9.13451C3.41455 9.34839 3.03467 9.572 2.64492 9.78589C2.0973 10.0921 1.54474 10.3935 0.992188 10.6949C1.00699 10.4373 1.02672 10.1845 1.04152 9.92687C1.11553 9.8977 1.19446 9.87339 1.2586 9.8345C2.0529 9.32895 2.85213 8.82826 3.6415 8.31784C4.19405 7.95812 4.73674 7.58381 5.28436 7.21923C5.3337 7.17548 5.3781 7.12687 5.42743 7.07826C5.4521 7.05395 5.47677 7.03451 5.50144 7.0102C5.52117 7.0102 5.54584 7.0102 5.56557 7.0102C5.65931 6.96645 5.75305 6.9227 5.85172 6.87895C6.44868 6.66506 7.04563 6.39284 7.29231 5.79492C7.51432 5.2602 7.58339 4.66228 7.68206 4.08381C7.73633 3.76784 7.69686 3.43728 7.70179 3.11159C8.65397 2.57687 9.60614 2.04701 10.5534 1.50742C11.0171 1.24492 11.4661 0.962977 11.9249 0.690755C12.7488 0.690755 13.5727 0.690755 14.3966 0.690755C14.3571 0.729644 14.3177 0.778255 14.2733 0.807422C12.9757 1.66784 11.6733 2.52826 10.3807 3.38867C10.2722 3.46159 10.1883 3.57339 10.0946 3.66576C10.0255 3.69006 9.95149 3.71437 9.88242 3.73381C9.95149 3.70951 10.0255 3.6852 10.0946 3.66576C10.1735 3.64145 10.2524 3.62201 10.3215 3.58312C11.8164 2.73242 13.3162 1.88173 14.8061 1.02617C15.0084 0.909505 15.1909 0.75395 15.3882 0.617839C15.8372 0.617839 16.2812 0.617839 16.7302 0.617839C15.2057 1.60464 13.6763 2.58659 12.1518 3.57339C12.1666 3.60256 12.1864 3.63173 12.2012 3.65603C12.29 3.61228 12.3788 3.57339 12.4627 3.52478C13.3359 3.03381 14.2091 2.54284 15.0824 2.04214C15.9408 1.55117 16.7943 1.04562 17.6478 0.544922C18.0474 0.544922 18.447 0.544922 18.8516 0.544922C17.9981 1.08937 17.1446 1.62409 16.3009 2.17826C15.9211 2.42617 15.556 2.70326 15.181 2.97062C15.0626 3.03867 14.9442 3.11159 14.8308 3.17964C14.9492 3.11159 15.0676 3.03867 15.186 2.97062C15.2501 2.95117 15.3241 2.93659 15.3833 2.90256C16.7055 2.14423 18.0277 1.38103 19.3499 0.617839C19.6113 0.729644 19.8728 0.836589 20.1392 0.948394C20.0159 1.00673 19.8827 1.05534 19.7643 1.12826C18.4372 1.95464 17.115 2.78103 15.7928 3.61228C15.3784 3.86992 14.9738 4.14701 14.5643 4.41437C14.6778 4.45326 14.7518 4.43381 14.816 4.39492C16.3355 3.53451 17.8599 2.67409 19.3795 1.79909C19.715 1.60464 20.0208 1.37131 20.3415 1.15256C20.4303 1.38589 20.5191 1.61923 20.6079 1.85256C20.5339 1.88173 20.45 1.89631 20.381 1.94006C19.7347 2.33867 19.0884 2.73728 18.447 3.13589C18.2546 3.25256 18.0672 3.37895 17.8797 3.50048C17.8994 3.52964 17.9142 3.55881 17.9339 3.58798C18.23 3.4227 18.5309 3.25742 18.8269 3.09214C19.4189 2.76645 20.0159 2.44562 20.6079 2.11992C20.6326 2.32895 20.6573 2.53798 20.6819 2.75187C18.3582 4.22478 16.0345 5.6977 13.7108 7.16576L13.7602 7.25326C13.844 7.21923 13.9279 7.19492 14.0069 7.15117C15.2846 6.42201 16.5624 5.69284 17.8451 4.96853C18.7874 4.43381 19.7347 3.90395 20.6819 3.37409L20.6721 3.40326ZM13.553 9.87339C13.6072 9.84423 13.6664 9.81992 13.7207 9.79075C13.701 9.76645 13.6812 9.747 13.6566 9.7227C13.622 9.77131 13.5875 9.81992 13.548 9.86853L13.4543 9.89284C13.4543 9.89284 13.4642 9.91228 13.474 9.91714C13.4987 9.8977 13.5234 9.88312 13.548 9.86367L13.553 9.87339ZM4.30752 8.90117C4.38646 8.88173 4.4654 8.86228 4.54433 8.84284C4.53447 8.81853 4.5246 8.78937 4.51473 8.76506C4.44566 8.80881 4.37659 8.85256 4.31246 8.90117C4.27792 8.93034 4.23845 8.9595 4.20392 8.98381C4.21379 8.99353 4.21872 8.99839 4.22859 9.00812C4.25819 8.97409 4.28779 8.9352 4.31246 8.90117H4.30752ZM18.4273 11.5456C18.4816 11.5164 18.5408 11.4921 18.595 11.463C18.5753 11.4387 18.5556 11.4192 18.5358 11.3949C18.5013 11.4435 18.4618 11.4921 18.4273 11.5456ZM17.5097 3.82131C17.5985 3.78242 17.6873 3.74353 17.7761 3.70464C17.7514 3.67548 17.7317 3.64145 17.707 3.61228C17.6429 3.68034 17.5738 3.75326 17.5097 3.82131ZM13.0645 7.64701C13.1583 7.59839 13.252 7.55464 13.3458 7.50603C13.4346 7.46714 13.5234 7.42826 13.6122 7.38937C13.5875 7.3602 13.5678 7.32617 13.5431 7.29701C13.479 7.36506 13.4099 7.43798 13.3458 7.50603C13.252 7.55464 13.1583 7.59839 13.0645 7.64701C13.0053 7.67617 12.9511 7.70048 12.8919 7.72964C12.9067 7.74909 12.9215 7.76367 12.9363 7.78312C12.9807 7.73937 13.0251 7.69562 13.0645 7.64701ZM18.0079 9.17825C18.1954 9.10048 18.378 9.01784 18.5654 8.94006C18.5408 8.90117 18.5161 8.85742 18.4964 8.81853C18.3336 8.94006 18.1708 9.05673 18.0079 9.17825C17.9487 9.20742 17.8945 9.23173 17.8353 9.26089C17.8501 9.28034 17.8649 9.29492 17.8797 9.31437C17.9241 9.27062 17.9685 9.22687 18.0129 9.17825H18.0079ZM11.6832 3.87964C11.698 3.90395 11.7128 3.92826 11.7226 3.95742C11.8361 3.89909 11.9545 3.83589 12.068 3.77756C12.0532 3.74839 12.0384 3.71923 12.0236 3.69006C11.9101 3.75326 11.7966 3.81645 11.6832 3.87964ZM14.4706 4.61367C14.4509 4.57964 14.4262 4.55048 14.4065 4.51645C14.3029 4.58451 14.1993 4.65742 14.0957 4.72548C14.1105 4.74492 14.1253 4.76923 14.1401 4.78867C14.2486 4.73034 14.3621 4.67201 14.4706 4.60881V4.61367ZM18.5408 7.98728C18.521 7.96298 18.5062 7.93867 18.4865 7.91437C18.4273 7.95812 18.3632 7.99701 18.304 8.04076C18.3138 8.0602 18.3286 8.07964 18.3385 8.09423C18.4076 8.0602 18.4766 8.02131 18.5408 7.98728ZM6.74469 8.61923C6.74469 8.61923 6.73482 8.5852 6.72989 8.56575C6.68549 8.57548 6.64602 8.5852 6.60162 8.59492C6.60162 8.61437 6.61148 8.63381 6.61642 8.65325C6.66082 8.64353 6.70029 8.63381 6.74469 8.61923ZM14.3769 8.06992C14.3769 8.06992 14.3867 8.09909 14.3917 8.11853C14.4311 8.10881 14.4706 8.10395 14.5101 8.09423L14.4854 8.01645C14.4509 8.03589 14.4114 8.05048 14.3769 8.06992ZM14.1943 8.25464C14.1943 8.25464 14.2387 8.24006 14.2437 8.22548C14.2486 8.21089 14.2338 8.19145 14.2289 8.172C14.2091 8.18173 14.1894 8.18659 14.1795 8.20117C14.1746 8.21089 14.1894 8.2352 14.1943 8.24978V8.25464ZM16.3108 14.5838C16.3108 14.5838 16.3552 14.5692 16.3601 14.5546C16.3651 14.5449 16.3503 14.5206 16.3453 14.5012C16.3256 14.5109 16.3059 14.5158 16.296 14.5303C16.2911 14.5401 16.3059 14.5644 16.3108 14.5789V14.5838ZM14.6235 3.28173C14.6235 3.28173 14.6087 3.29145 14.6038 3.29631L14.6433 3.31576C14.6433 3.31576 14.6531 3.29631 14.6482 3.29631C14.6482 3.29145 14.6334 3.28659 14.6235 3.28659V3.28173ZM18.23 11.6623L18.2497 11.6477C18.2497 11.6477 18.2398 11.6331 18.23 11.6283C18.2201 11.638 18.2102 11.6477 18.2004 11.6526C18.2102 11.6526 18.2152 11.6574 18.225 11.6623H18.23ZM4.57393 10.9623C4.57393 10.9623 4.5542 10.9623 4.5542 10.9671C4.5542 10.972 4.5542 10.9817 4.54927 10.9914H4.58873C4.58873 10.9914 4.5838 10.9671 4.57887 10.9623H4.57393ZM18.1313 8.15742C18.1313 8.15742 18.1313 8.17687 18.1362 8.17687C18.1412 8.17687 18.151 8.17687 18.1609 8.18173C18.1609 8.17201 18.1609 8.15742 18.156 8.1477C18.1461 8.1477 18.1412 8.15256 18.1313 8.15742ZM6.91243 8.47339C6.91243 8.47339 6.90256 8.45881 6.89763 8.45395C6.89269 8.45881 6.88283 8.46367 6.87789 8.47339C6.88776 8.48312 6.89763 8.49284 6.9075 8.50256C6.9075 8.49284 6.91243 8.48798 6.91736 8.47825L6.91243 8.47339Z" fill="#C0DAF0"/>
<path d="M31.1322 8.8911C31.3197 9.03208 31.5121 9.16819 31.6996 9.30916C31.596 9.35777 31.4825 9.39666 31.3888 9.45985C30.476 10.0626 29.5584 10.6703 28.6506 11.2779C28.2658 11.5355 27.8859 11.8029 27.5061 12.0654C27.4567 12.0897 27.4074 12.1092 27.3581 12.1286L27.3778 12.1724C27.4321 12.1529 27.4913 12.1335 27.5455 12.114C28.177 11.764 28.8085 11.4189 29.4351 11.064C30.3132 10.5633 31.1865 10.0529 32.0646 9.54249C32.2275 9.69319 32.3903 9.84874 32.5531 9.99944C32.0202 10.3349 31.4874 10.6751 30.9546 11.0105C30.9743 11.0446 30.999 11.0835 31.0187 11.1175L32.7011 10.1453C32.9576 10.471 33.2142 10.7967 33.4756 11.1224C33.2832 11.2536 33.0958 11.3849 32.9033 11.5112C32.2373 11.9536 31.5713 12.3911 30.9053 12.8335C30.8559 12.8529 30.8017 12.8724 30.7523 12.8918L30.777 12.9404C30.8313 12.9161 30.8806 12.8918 30.9349 12.8675C31.1519 12.7605 31.3789 12.6633 31.5861 12.5418C32.2669 12.1432 32.9478 11.7349 33.6286 11.3314C33.742 11.5161 33.8605 11.7008 33.9739 11.8855C32.9823 12.5369 31.9956 13.1883 31.0039 13.8397C30.7671 14.0001 30.5254 14.1557 30.2886 14.3161C30.2738 14.3307 30.259 14.3501 30.2442 14.3647L30.3083 14.3355C30.5649 14.1946 30.8263 14.0536 31.0829 13.9126C31.591 13.6258 32.0942 13.339 32.6024 13.0619C33.1204 12.78 33.6434 12.5078 34.1663 12.2307C34.2601 12.4154 34.3489 12.5953 34.4426 12.78C33.9443 13.1008 33.4411 13.4168 32.9477 13.7425C31.8821 14.4522 30.8263 15.1668 29.7656 15.8814C29.7163 15.9057 29.6719 15.93 29.6225 15.9494C29.6275 15.964 29.6373 15.9786 29.6423 15.9932C29.6966 15.9737 29.7558 15.9543 29.81 15.9349C30.5204 15.5362 31.2309 15.1376 31.9462 14.7439C32.8293 14.2529 33.7124 13.7571 34.6005 13.2661C34.6695 13.4703 34.7386 13.6793 34.8028 13.8835C34.5363 14.0487 34.2601 14.2043 33.9986 14.3744C33.0514 14.9918 32.109 15.6092 31.1667 16.2265C31.1815 16.2508 31.1963 16.28 31.2111 16.3043C31.4529 16.1779 31.6946 16.0564 31.9364 15.9251C32.9132 15.3807 33.8901 14.8314 34.8669 14.2821C34.9162 14.5008 34.9705 14.7196 35.0198 14.9383C34.1861 15.4828 33.3424 16.0224 32.5136 16.5717C31.9265 16.9605 31.3443 17.3689 30.7622 17.7675C30.7129 17.7918 30.6635 17.8112 30.6142 17.8355C30.6191 17.8501 30.629 17.8647 30.6339 17.8793C30.6882 17.8599 30.7474 17.8404 30.8017 17.821C31.7292 17.3008 32.6567 16.7904 33.5792 16.2654C34.0874 15.9786 34.5807 15.6675 35.079 15.371C35.079 15.6432 35.079 15.9154 35.084 16.1876C35.0396 16.2071 34.9952 16.2168 34.9557 16.2411C33.6582 17.1064 32.3656 17.9717 31.0681 18.8418C31.0533 18.8515 31.0681 18.905 31.0681 18.939C30.8707 19.0751 30.6783 19.2112 30.481 19.3474C30.0222 19.0946 29.5189 19.0557 29.0059 19.0557C27.8514 19.0557 26.692 19.0557 25.5376 19.0508C25.1577 19.0508 24.763 18.9536 24.393 19.0217C23.7516 19.1383 23.2928 19.7362 23.2188 20.4314C23.1349 20.4654 23.0461 20.4946 22.9672 20.5383C22.464 20.8105 21.9608 21.0876 21.4625 21.3647C21.3391 21.2432 21.2158 21.1168 21.0925 20.9953C21.1517 20.9126 21.1961 20.8105 21.275 20.7571C22.5676 19.9015 23.8602 19.0557 25.1528 18.205C25.3846 18.0543 25.6066 17.8939 25.8336 17.7335C25.7448 17.6751 25.6955 17.6654 25.6609 17.6849C24.3141 18.448 22.9672 19.2112 21.6253 19.989C21.3194 20.164 21.0382 20.3828 20.7471 20.5821C20.609 20.3779 20.4758 20.1737 20.3376 19.9696C20.4018 19.9453 20.4758 19.9307 20.53 19.8967C21.5414 19.2453 22.5528 18.5939 23.5592 17.9376C23.5938 17.9182 23.6135 17.8744 23.6382 17.8453C23.3175 17.9376 23.0363 18.0835 22.7649 18.2439C21.9114 18.7446 21.0579 19.2453 20.2044 19.746C20.1058 19.5418 20.0071 19.3425 19.9084 19.1383C20.308 18.8807 20.7126 18.623 21.1122 18.3654C21.1418 18.3362 21.1714 18.3071 21.201 18.2779C21.1961 18.239 21.1862 18.2001 21.1813 18.1661C21.127 18.1758 21.0629 18.1758 21.0234 18.2001C20.6238 18.4529 20.2242 18.7105 19.8295 18.9682C19.6765 18.5307 19.5236 18.0932 19.3707 17.6605C19.9035 17.3397 20.4363 17.0237 20.9691 16.7029L20.905 16.6008C20.387 16.8876 19.869 17.1744 19.3509 17.4612C19.3065 17.2279 19.2671 16.9946 19.2227 16.7564C19.6963 16.455 20.165 16.1536 20.6386 15.8522C20.8261 16.0369 21.0135 16.0078 21.2355 15.9008C21.5513 15.755 21.5562 15.4925 21.5513 15.2154C22.0693 14.8994 22.5824 14.5835 23.1004 14.2675C23.0807 14.2383 23.0659 14.2043 23.0461 14.1751C22.9672 14.2092 22.8833 14.2383 22.8093 14.2772C22.39 14.496 21.9657 14.7196 21.5464 14.9432C21.576 14.7876 21.5858 14.6272 21.6302 14.4765C21.9657 13.3147 22.4985 12.2744 23.426 11.4432C24.3881 10.5876 25.503 10.1453 26.7858 10.0869C26.5391 10.2717 26.2973 10.4564 26.0507 10.6362C26.0655 10.6605 26.0852 10.6849 26.1 10.7092C26.4552 10.5001 26.8104 10.2862 27.1656 10.0772C27.2693 10.0043 27.3729 9.93138 27.4765 9.85846C27.5209 9.8536 27.5751 9.85846 27.6146 9.83902C28.4829 9.34319 29.3463 8.84249 30.2146 8.3418C30.4267 8.4536 30.6438 8.56055 30.8559 8.67235C30.7918 8.72096 30.7277 8.76957 30.6586 8.81332C29.9876 9.26541 29.3117 9.71749 28.6408 10.1696C28.5914 10.189 28.5372 10.2133 28.4878 10.2328C28.4977 10.2474 28.5026 10.2619 28.5125 10.2814C28.5668 10.2571 28.6161 10.2328 28.6704 10.2085C28.8085 10.1501 28.9516 10.0967 29.0799 10.0237C29.7656 9.63971 30.4514 9.25569 31.1371 8.8668L31.1322 8.8911ZM21.3145 18.0543C21.3145 18.098 21.3145 18.1467 21.3145 18.1904C21.8128 17.9036 22.311 17.6217 22.8093 17.3349C22.7847 17.296 22.76 17.2571 22.7353 17.2133C22.2617 17.4904 21.7881 17.7724 21.3145 18.0494V18.0543ZM30.1406 14.4328C30.1406 14.4328 30.1011 14.4133 30.0863 14.4182C30.0715 14.423 30.0666 14.4474 30.0567 14.4668C30.0764 14.4717 30.0962 14.4862 30.111 14.4814C30.1258 14.4765 30.1356 14.4522 30.1455 14.4328H30.1406ZM25.9668 10.7432C25.9668 10.7432 25.9224 10.7237 25.9027 10.7189C25.8928 10.7189 25.8829 10.7286 25.8731 10.7383C25.8879 10.748 25.8977 10.7724 25.9125 10.7724C25.9273 10.7724 25.9471 10.7529 25.9619 10.7432H25.9668Z" fill="#FF7A00"/>
<path d="M1 21.2138C1 20.9804 1 20.7471 1 20.5186C1.8091 20.0374 2.62313 19.5513 3.43223 19.07C3.4125 19.036 3.39276 19.002 3.37303 18.9728C3.03755 19.1624 2.70207 19.3665 2.36166 19.5464C1.9127 19.7846 1.45389 20.0131 1 20.2415C1.01973 19.7749 1.0444 19.3131 1.06414 18.8464C1.7647 18.4138 2.46526 17.986 3.16089 17.5533C3.14115 17.5193 3.12142 17.4901 3.10169 17.4561C2.97341 17.5242 2.84021 17.5971 2.71194 17.6651C2.15938 17.9665 1.60682 18.2679 1.0592 18.5693C1.0592 18.336 1.0592 18.1075 1.05427 17.8742C1.54762 17.5825 2.04591 17.2957 2.53926 17.004C2.51953 16.97 2.49979 16.936 2.48006 16.902C2.00644 17.1547 1.52789 17.4124 1.05427 17.6651C1.05427 17.4318 1.05427 17.2033 1.05427 16.97C2.95368 15.779 4.85802 14.5881 6.7525 13.3922C6.98931 13.2415 7.19652 13.0422 7.41853 12.8624C7.53693 12.7943 7.65534 12.7214 7.77374 12.6533C7.84281 12.6047 7.91682 12.561 7.98589 12.5124C7.98589 12.4881 7.98589 12.4638 7.98589 12.4395H8.90352C8.46937 13.1686 8.05989 13.8589 7.64547 14.5492C7.45306 14.87 7.30999 15.3075 7.02385 15.4631C6.7229 15.6235 6.26901 15.4874 5.87927 15.5117C5.25764 15.5457 4.63601 15.604 4.00946 15.6526C3.96505 15.6526 3.92065 15.6721 3.88118 15.6915C3.85652 15.7061 3.84172 15.7401 3.77758 15.8228C4.74455 16.1582 5.71153 15.9103 6.69823 16.0221C6.12594 16.9214 6.13581 17.9276 6.14568 18.9436C5.35631 19.1526 4.46827 18.7103 3.73811 19.245C3.72824 19.2985 3.71838 19.352 3.70851 19.4054C3.93545 19.4978 4.1624 19.6485 4.39921 19.6679C4.78895 19.6971 5.18857 19.6339 5.58325 19.6145C5.77073 19.6047 5.9582 19.6145 6.19994 19.6145C6.19994 19.7651 6.19994 19.8964 6.19994 20.0276C6.19008 20.0325 6.17528 20.0422 6.17528 20.0471C6.18021 20.0665 6.19008 20.0811 6.19994 20.1006C6.19994 20.8297 6.19501 21.554 6.20981 22.2832C6.21475 22.5506 6.11608 22.6283 5.85953 22.604C5.45498 22.57 5.05043 22.5506 4.64588 22.536C4.2956 22.5263 3.97985 22.6186 3.76278 22.9249C4.12293 23.3624 4.62615 23.2263 5.08497 23.2214C5.44018 23.2214 5.7954 23.1631 6.19008 23.129V23.5763C6.04701 23.6249 5.899 23.6589 5.76579 23.7318C4.74949 24.3006 3.73811 24.879 2.7218 25.4526C2.17418 25.7589 1.62163 26.0603 1.074 26.3617C1.074 26.1283 1.074 25.895 1.074 25.6617C1.63643 25.3214 2.20872 24.986 2.76621 24.636C2.96355 24.5096 3.13622 24.3492 3.32369 24.2033C3.39276 24.179 3.46677 24.1547 3.53584 24.1353C3.58517 24.0867 3.62957 24.0429 3.67891 23.9943C3.80718 23.9554 3.94039 23.9165 4.06866 23.8776C4.05386 23.8436 4.03412 23.8096 4.01932 23.7707C3.90585 23.8436 3.79238 23.9165 3.67891 23.9943C3.62957 24.0429 3.58517 24.0867 3.53584 24.1353C3.46677 24.1596 3.39276 24.1839 3.32369 24.2033C3.22009 24.252 3.11155 24.2908 3.00795 24.3443C2.36166 24.6895 1.7203 25.0395 1.07894 25.3895C1.07894 24.67 1.07894 23.9506 1.07894 23.2311C2.27285 22.502 3.4717 21.7728 4.66562 21.0436L4.61628 20.9561C4.53734 20.9853 4.44854 21.0047 4.37454 21.0485C3.86638 21.3353 3.36316 21.6318 2.85501 21.9138C2.26792 22.2443 1.67096 22.5603 1.07894 22.886C1.05427 22.3999 1.0296 21.9089 1.00987 21.4228C1.37988 21.2089 1.75483 20.9999 2.11991 20.7714C2.29752 20.6596 2.45539 20.5138 2.62313 20.3776C2.74154 20.3096 2.85994 20.2367 2.97341 20.1686C2.85501 20.2367 2.7366 20.3096 2.6182 20.3776C2.5146 20.4214 2.40606 20.4603 2.30739 20.5138C1.87324 20.7422 1.43908 20.9804 1.00987 21.2138H1ZM5.26257 20.6596C5.24284 20.6304 5.22311 20.6013 5.19844 20.5721C5.0455 20.6645 4.89256 20.7568 4.73962 20.8443C4.75935 20.8735 4.77415 20.9026 4.79389 20.9318C4.95176 20.8395 5.1047 20.752 5.26257 20.6596ZM2.97835 16.6054C2.99808 16.6346 3.01288 16.6638 3.03262 16.6929C3.12635 16.6346 3.21516 16.5763 3.30889 16.5228C3.29409 16.4985 3.27929 16.4742 3.25956 16.4499C3.16582 16.5033 3.07208 16.5568 2.97341 16.6103L2.97835 16.6054ZM3.25463 17.3735C3.27436 17.4026 3.28916 17.4318 3.30889 17.461C3.40263 17.4026 3.49637 17.3443 3.59011 17.2908C3.5753 17.2665 3.5605 17.2422 3.54077 17.2179C3.44703 17.2714 3.34836 17.3249 3.25463 17.3783V17.3735ZM2.62807 16.8193C2.64287 16.8436 2.65273 16.8679 2.66753 16.8922C2.7366 16.8582 2.81061 16.8193 2.87968 16.7853C2.86488 16.761 2.85501 16.7367 2.84021 16.7124C2.77114 16.7464 2.69714 16.7853 2.62807 16.8193ZM3.71838 17.1401C3.71838 17.1401 3.71838 17.1596 3.72331 17.1596C3.72824 17.1596 3.74304 17.1596 3.74798 17.1645C3.74798 17.1547 3.74798 17.1401 3.74305 17.1304C3.73318 17.1304 3.72824 17.1353 3.71838 17.1401ZM3.57037 18.8999C3.57037 18.8999 3.55064 18.8999 3.55064 18.9047C3.55064 18.9096 3.55064 18.9193 3.5457 18.929C3.5605 18.929 3.57037 18.929 3.58517 18.9242C3.58517 18.9145 3.58024 18.9096 3.5753 18.8999H3.57037ZM3.48157 16.3867C3.48157 16.3867 3.47663 16.3672 3.46677 16.3672C3.46183 16.3672 3.44703 16.3672 3.4421 16.3672C3.44703 16.377 3.45197 16.3867 3.4569 16.4013C3.46183 16.4013 3.4717 16.3915 3.47663 16.3867H3.48157ZM3.20036 20.0714C3.20036 20.0714 3.19542 20.052 3.18556 20.052C3.18062 20.052 3.16582 20.052 3.16089 20.052C3.16582 20.0617 3.17075 20.0714 3.17569 20.086C3.18062 20.086 3.19049 20.0763 3.19542 20.0714H3.20036ZM4.26107 23.6881C4.26107 23.6881 4.25613 23.6686 4.24627 23.6686C4.24133 23.6686 4.22653 23.6686 4.2216 23.6686C4.22653 23.6783 4.23147 23.6881 4.2364 23.7026C4.24133 23.7026 4.2512 23.6929 4.25613 23.6881H4.26107Z" fill="#C0DAF0"/>
<path d="M20.6028 22.3224C20.6274 22.5801 20.6472 22.8329 20.6718 23.0905C20.2525 23.3919 19.8331 23.6933 19.4187 23.9947C19.3891 24.0044 19.3595 24.0141 19.325 24.019L19.3447 24.0433C19.3694 24.0238 19.394 24.0092 19.4187 23.9898C19.5223 23.946 19.6309 23.9072 19.7295 23.8537C20.0453 23.6933 20.361 23.528 20.6718 23.3627C20.6718 23.6204 20.6718 23.878 20.6718 24.1308C20.2722 24.4711 19.8726 24.8065 19.473 25.1467C19.4976 25.1759 19.5223 25.2051 19.5519 25.2342C19.7345 25.137 19.917 25.0398 20.0946 24.9377C20.287 24.8308 20.4794 24.7238 20.6718 24.612C20.6274 25.2926 20.6126 25.9731 20.5386 26.6488C20.4844 27.1447 19.9466 27.4606 19.2756 27.4558C19.4187 27.2273 19.5568 26.9988 19.6999 26.7704C19.7049 26.7606 19.7098 26.7509 19.7147 26.7412L19.6999 26.7704C19.325 26.9988 18.95 27.2273 18.5701 27.4558C18.1952 27.4315 17.8153 27.412 17.4404 27.3877C17.5094 27.2759 17.5834 27.1641 17.6525 27.0523C17.7166 27.0377 17.7758 27.0183 17.84 27.0037C17.8252 26.9794 17.8153 26.9551 17.8005 26.9308C17.7512 26.9697 17.7018 27.0134 17.6525 27.0523C17.5193 27.1155 17.3861 27.1787 17.2628 27.2516C17.2529 27.2565 17.2874 27.3391 17.2973 27.3877C16.8483 27.3731 16.4043 27.3586 15.9554 27.344C16.3846 26.9648 16.8187 26.5905 17.243 26.2065C17.4354 26.0363 17.6081 25.8419 17.7906 25.662C17.2825 25.944 16.7694 26.2162 16.2662 26.503C15.8024 26.7704 15.3535 27.0523 14.8947 27.3245C14.8453 27.3488 14.796 27.3683 14.7516 27.3926C14.6134 27.3926 14.4753 27.3926 14.3125 27.3926C14.3125 27.1787 14.3125 26.9745 14.3125 26.7752C14.5789 26.6051 14.8453 26.4301 15.1167 26.2599C15.0969 26.2308 15.0772 26.2016 15.0575 26.1724C14.8108 26.2842 14.5641 26.3912 14.3174 26.503C14.3224 25.3995 14.3273 24.2961 14.3372 23.1877C14.3569 23.1877 14.3816 23.178 14.4013 23.1731C15.2005 23.1731 16.0047 23.1731 16.8039 23.1731C16.8286 23.1731 16.8483 23.1731 16.873 23.1731C17.0457 23.1731 17.2233 23.1829 17.396 23.1586C17.6426 23.1245 17.8745 23.0565 17.8745 22.7405C18.4468 22.4099 19.0191 22.0891 19.5864 21.7537C19.8282 21.6079 20.0453 21.4329 20.2722 21.2676C20.4745 21.462 20.6817 21.6565 20.6077 21.9773C20.213 22.2398 19.8134 22.4926 19.4286 22.7648C19.2016 22.9252 18.9944 23.1197 18.7823 23.2995C19.3891 22.9738 19.9959 22.6481 20.6077 22.3224H20.6028ZM15.3732 25.978C15.4965 25.9342 15.5261 25.9245 15.5558 25.9148C15.5508 25.9051 15.5409 25.8905 15.5409 25.8905C15.5113 25.9051 15.4867 25.9197 15.4669 25.944C15.4423 25.9683 15.4176 25.9926 15.3979 26.012C15.3337 26.0266 15.2745 26.0461 15.2104 26.0606C15.2252 26.0849 15.2351 26.1092 15.2499 26.1384C15.2992 26.0947 15.3485 26.0558 15.3979 26.012C15.4225 25.9877 15.4472 25.9634 15.3781 25.978H15.3732ZM19.3644 25.3606C19.3644 25.3606 19.3792 25.3217 19.3891 25.3023C19.3694 25.2926 19.3447 25.2731 19.3299 25.2829C19.3151 25.2877 19.3102 25.3169 19.3003 25.3363C19.32 25.346 19.3398 25.3509 19.3595 25.3606H19.3644Z" fill="#C0DAF0"/>
<path d="M30.4726 19.342C30.67 19.2059 30.8624 19.0697 31.0597 18.9336C31.3014 18.817 31.5432 18.7052 31.7751 18.5739C32.8506 17.9711 33.9261 17.3635 35.0016 16.7559C34.9819 17.4413 34.8536 18.1024 34.523 18.7149C33.6893 19.2593 32.8555 19.7989 32.0217 20.3434C31.9724 20.3628 31.9231 20.3871 31.8737 20.4066C31.8787 20.4211 31.8885 20.4357 31.8935 20.4503C31.9477 20.4309 32.002 20.4114 32.0612 20.3871C32.2092 20.3142 32.3572 20.2461 32.4954 20.1684C33.1071 19.8329 33.7238 19.4975 34.3356 19.1621C34.0889 19.5656 33.8373 19.9691 33.5906 20.3725C33.5709 20.3968 33.5511 20.426 33.5363 20.4503C33.5117 20.4746 33.487 20.4989 33.4623 20.5232C33.2798 20.6107 33.0923 20.6885 32.9197 20.7906C32.599 20.9899 32.2832 21.2086 31.9675 21.4177C31.9872 21.442 32.0069 21.4711 32.0217 21.4954C32.1698 21.4128 32.3178 21.3204 32.4707 21.2475C32.6828 21.1454 32.9048 21.0628 33.1219 20.9704C32.7815 21.4468 32.446 21.9184 32.1056 22.3947C31.6172 22.701 31.1238 23.0072 30.6354 23.3086C30.6552 23.3427 30.67 23.3718 30.6897 23.4059C31.0597 23.2211 31.4248 23.0413 31.7948 22.8566C31.4297 23.5371 31.0646 24.2177 30.7045 24.8982C30.6552 24.9954 30.6108 25.0927 30.5614 25.1947C30.2555 25.4475 29.9497 25.6954 29.6388 25.9482C29.629 25.9677 29.624 25.9871 29.6142 26.0066C29.629 25.992 29.6388 25.9774 29.6536 25.9579C29.9299 25.817 30.2062 25.6809 30.4825 25.5399C30.4134 26.0649 30.3197 26.5899 30.2901 27.1197C30.2753 27.392 30.1766 27.4843 29.9201 27.4795C29.6388 27.4697 29.3576 27.4697 29.0814 27.4697C29.1948 27.2802 29.3132 27.0857 29.476 26.8135C29.1899 26.9593 28.9975 27.0566 28.8051 27.1538C28.7557 25.9628 28.6768 24.767 28.6719 23.576C28.6719 23.1725 28.8001 22.7496 28.9482 22.3656C29.0074 22.2052 29.259 22.0156 29.4316 22.0059C30.1125 21.9621 30.6453 21.685 30.8969 21.0774C31.1584 20.4406 30.9857 19.8427 30.4726 19.3566V19.342ZM31.8885 21.5197C31.8885 21.5197 31.8491 21.5003 31.8293 21.5003C31.8195 21.5003 31.8096 21.51 31.8047 21.5149C31.8195 21.5246 31.8293 21.5441 31.8441 21.5441C31.8589 21.5441 31.8787 21.5295 31.8935 21.5197H31.8885Z" fill="#FF7A00"/>
<path d="M9.48252 30.8048C9.48252 28.802 9.47266 26.7992 9.47266 24.7916C9.47266 23.2992 9.47266 21.802 9.47266 20.3097C9.50719 20.2854 9.53679 20.261 9.57133 20.2367C9.54173 20.2124 9.50719 20.1833 9.47759 20.159V17.2666C9.91174 17.2666 10.3163 17.2666 10.7208 17.2666C10.7948 17.3055 10.8688 17.3444 10.9478 17.3833C10.9675 18.1805 11.0021 18.9777 11.007 19.7749C11.007 20.2367 10.9527 20.6985 10.9527 21.1604C10.9527 21.6659 11.007 22.1715 11.007 22.677C11.0119 25.2729 11.007 27.8687 11.0169 30.4645C11.0169 30.7805 10.933 30.902 10.6024 30.8777C10.2472 30.8485 9.89201 30.868 9.53679 30.8631C9.52199 30.8437 9.50226 30.8194 9.48746 30.7999L9.48252 30.8048Z" fill="#FF7A00"/>
<path d="M18.3422 17.2471C18.4852 17.7575 18.6234 18.2679 18.7665 18.7783C18.2484 19.0846 17.7353 19.3908 17.2173 19.6971C17.2371 19.7311 17.2568 19.7603 17.2765 19.7943C17.7945 19.5026 18.3175 19.211 18.8355 18.9193C19.0723 19.3811 19.3042 19.8478 19.541 20.3096C19.1661 20.5283 18.7911 20.7471 18.4211 20.9658C18.4458 21.0047 18.4655 21.0436 18.4902 21.0776C18.8701 20.8686 19.2499 20.6547 19.6298 20.4457C19.7729 20.6547 19.916 20.8589 20.059 21.0679C19.615 21.3547 19.1661 21.6318 18.727 21.9235C18.4063 22.1422 18.1004 22.3804 17.7847 22.6137C17.0446 22.5992 16.3096 22.5748 15.5695 22.5651C15.16 22.5603 14.7506 22.5651 14.3164 22.5651V19.6096C14.8196 19.6339 15.308 19.6533 15.7915 19.6873C16.1615 19.7117 16.4378 19.5658 16.7289 19.211C16.5069 19.1283 16.3244 19.0262 16.127 18.9971C15.8853 18.9582 15.6337 18.9825 15.387 18.9776C15.4363 18.9193 15.4807 18.8512 15.5449 18.8123C15.8902 18.6033 16.2405 18.3943 16.5957 18.195C17.1729 17.8742 17.76 17.563 18.3422 17.2519V17.2471ZM17.7205 21.4908C17.7452 21.4665 17.7699 21.4422 17.7896 21.4228C17.9771 21.345 18.1596 21.2623 18.3471 21.1846L18.278 21.063C18.1152 21.1846 17.9524 21.3012 17.7896 21.4228L17.7205 21.4908ZM17.0644 19.8478C17.0644 19.8478 17.0644 19.8672 17.0693 19.8672C17.0743 19.8672 17.0841 19.8672 17.094 19.8721C17.094 19.8623 17.094 19.8478 17.0891 19.838C17.0792 19.838 17.0743 19.8429 17.0644 19.8478Z" fill="#C0DAF0"/>
<path d="M19.6157 12.8528C19.7884 12.4785 19.9561 12.1042 20.1288 11.7299C20.1485 11.691 20.1683 11.6473 20.1929 11.6084H20.188C20.5235 11.3896 20.8639 11.1757 21.1994 10.957C21.1796 10.9181 21.1599 10.8841 21.1402 10.8452C20.9626 10.8938 20.7899 10.9375 20.6123 10.9861C20.6813 10.8598 20.7356 10.7188 20.8294 10.6118C21.7519 9.58129 22.7485 8.62851 24.0904 8.16184C24.8749 7.88962 25.679 7.63198 26.5375 7.65143C25.7037 8.28823 24.8748 8.92018 24.0411 9.55698L24.1003 9.64934C25.2597 8.98337 26.419 8.32226 27.5784 7.65629C27.8942 7.70004 28.2099 7.74865 28.5207 7.7924C28.427 7.86045 28.3382 7.92851 28.2445 7.99657C27.8202 8.29795 27.391 8.6042 26.9617 8.90559C26.9716 8.93476 26.9815 8.95906 26.9913 8.98823C27.0061 8.96393 27.0209 8.93962 27.0357 8.91531C27.164 8.86184 27.2972 8.81809 27.4156 8.7549C27.9238 8.47781 28.427 8.19101 28.9302 7.90906C29.1769 7.98198 29.4236 8.05976 29.6702 8.13268C29.2657 8.41948 28.8562 8.70143 28.4517 8.99309C28.1162 9.23615 27.7856 9.48406 27.4502 9.72712C27.0012 9.37226 26.4881 9.50351 26.0096 9.59587C25.6099 9.66879 25.2251 9.85837 24.8403 10.0042C23.3751 10.5681 22.117 11.375 21.451 12.8577C21.4312 12.882 21.4115 12.9063 21.3918 12.9306C21.2882 12.9646 21.1747 12.9889 21.076 13.0424C20.4741 13.373 19.8821 13.7084 19.2852 14.0389C19.3542 13.7327 19.4233 13.4264 19.4924 13.1202C19.5121 13.1007 19.5318 13.0764 19.5466 13.057C19.9018 12.8577 20.2521 12.6535 20.6073 12.4542C20.5876 12.425 20.5679 12.391 20.5531 12.3618C20.2423 12.5223 19.9265 12.6827 19.6157 12.8431V12.8528ZM26.6065 9.11948C26.6164 9.14379 26.6263 9.16809 26.6361 9.1924C26.6953 9.15837 26.7496 9.1292 26.8088 9.09518C26.7989 9.07573 26.7891 9.06115 26.7792 9.0417L26.6065 9.11948ZM26.5177 9.26531C26.5177 9.26531 26.5079 9.2167 26.493 9.20698C26.4782 9.20212 26.4536 9.22156 26.4338 9.22643C26.4437 9.24587 26.4437 9.27504 26.4585 9.28476C26.4733 9.28962 26.498 9.27504 26.5177 9.26531ZM26.2809 9.43059C26.2809 9.43059 26.3105 9.38684 26.3006 9.37226C26.2957 9.35768 26.2661 9.35281 26.2464 9.34795C26.2365 9.3674 26.2168 9.3917 26.2266 9.40629C26.2316 9.42087 26.2612 9.42573 26.2809 9.43059Z" fill="#FF7A00"/>
<path d="M13.3599 32.0003C13.4142 32.7198 13.6066 33.4586 13.1921 34.1246C13.0787 34.3045 12.7975 34.4503 12.5755 34.4843C12.2202 34.5427 11.8502 34.4941 11.4901 34.4892C11.7565 34.1441 12.0229 33.7989 12.2893 33.4538C12.3041 33.4441 12.3238 33.4343 12.3386 33.4246C12.3288 33.4149 12.314 33.4052 12.3041 33.4003C12.2942 33.4149 12.2893 33.4343 12.2794 33.4489C12.235 33.4489 12.1808 33.4392 12.1462 33.4586C11.5641 33.7989 10.9819 34.1441 10.3998 34.4843C9.99521 34.4843 9.58573 34.4843 9.18118 34.4892C9.60053 34.11 10.0248 33.7357 10.4442 33.3566C10.4244 33.3274 10.3998 33.2982 10.38 33.2691C9.67453 33.6725 8.97397 34.0809 8.26848 34.4843C8.00207 34.392 7.73566 34.3045 7.46924 34.2121C7.77512 33.9253 8.08594 33.6385 8.39182 33.3566C8.37701 33.3323 8.36221 33.3128 8.34741 33.2885C7.96753 33.483 7.58272 33.6823 7.20283 33.8767C7.15843 33.7503 7.07456 33.6288 7.07456 33.5024C7.05976 32.8656 7.06963 32.2288 7.06963 31.5871C8.53489 31.5871 9.99028 31.5871 11.4457 31.5871C11.0707 31.8934 10.6958 32.1996 10.3258 32.5059C10.3455 32.5399 10.3702 32.5691 10.3899 32.6031C10.9523 32.2628 11.5098 31.9274 12.0722 31.5871C12.4817 31.5871 12.8912 31.5823 13.3007 31.5871C13.3155 31.5871 13.3352 31.6746 13.35 31.7232C13.0195 31.9809 12.6889 32.2385 12.3633 32.501C12.388 32.5399 12.4176 32.5788 12.4422 32.6177C12.7481 32.4135 13.0589 32.2093 13.3648 32.0003H13.3599Z" fill="#FF7A00"/>
<path d="M6.17655 23.8535C6.17655 24.5049 6.17655 25.1563 6.17655 25.8028C6.13214 25.8077 6.07788 25.8028 6.03841 25.8223C5.39705 26.1868 4.75075 26.5514 4.11433 26.9257C3.88245 27.0618 3.67524 27.232 3.45323 27.3924C3.02895 27.3681 2.60467 27.3438 2.18532 27.3243C2.95988 26.848 3.73445 26.3764 4.50408 25.9C4.48434 25.866 4.46461 25.832 4.44488 25.798C4.09953 25.9924 3.74925 26.1771 3.40883 26.3813C2.92535 26.673 2.44679 26.9743 1.96824 27.2709C1.73143 27.1299 1.49462 26.9889 1.25781 26.8528C1.32195 26.8285 1.39102 26.8091 1.45022 26.775C2.83161 25.9 4.20807 25.025 5.59439 24.1549C5.77693 24.0382 5.98414 23.9556 6.17655 23.8584V23.8535ZM4.72609 25.6667C4.69155 25.6959 4.65208 25.725 4.61755 25.7493C4.62742 25.7591 4.63235 25.7639 4.64222 25.7737C4.67182 25.7396 4.70142 25.7007 4.72609 25.6667Z" fill="#C0DAF0"/>
<path d="M7.97849 12.4443C7.97849 12.4443 7.97849 12.4929 7.97849 12.5173C7.90942 12.5659 7.83542 12.6096 7.76635 12.6582C7.64794 12.7263 7.52954 12.7992 7.41113 12.8673C7.35687 12.8818 7.29273 12.8916 7.24339 12.9159C6.41456 13.3874 5.58573 13.8589 4.75689 14.3304C3.52351 15.0256 2.28519 15.7207 1.04688 16.4159C1.04688 16.1825 1.04688 15.9492 1.04688 15.7159C1.73757 15.2832 2.4332 14.8603 3.12389 14.4228C4.155 13.7666 5.18611 13.1054 6.21722 12.4492C6.80431 12.4492 7.3914 12.4492 7.98342 12.4492L7.97849 12.4443Z" fill="#C0DAF0"/>
<path d="M7.70682 2.84876C7.68215 2.27515 7.63281 1.7064 7.63281 1.13279C7.63281 0.82168 7.85976 0.69043 8.1607 0.69043C9.06354 0.69043 9.96637 0.695291 10.8692 0.700152C10.0354 1.29321 9.20168 1.89112 8.36298 2.47446C8.15577 2.61543 7.92389 2.72237 7.70682 2.8439V2.84876Z" fill="#C0DAF0"/>
<path d="M1.04502 15.1615C1.04502 14.9281 1.04009 14.6948 1.03516 14.4615C1.07956 14.4517 1.13383 14.4615 1.1733 14.4372C2.23894 13.7566 3.30952 13.0712 4.37516 12.3906C4.86851 12.4101 5.3668 12.4295 5.86015 12.4441C5.80095 12.4976 5.74668 12.5608 5.68255 12.5997C4.59223 13.2219 3.50192 13.8441 2.40668 14.4566C1.96266 14.7045 1.50384 14.9281 1.04996 15.1615H1.04502Z" fill="#C0DAF0"/>
<path d="M25.0573 22.1719C25.1757 22.4781 25.3188 22.7747 25.4076 23.0906C25.4668 23.3045 25.4569 23.533 25.4766 23.7566C25.3829 23.7955 25.2842 23.8295 25.1954 23.883C24.6379 24.1892 24.0854 24.4955 23.5279 24.8017C23.4539 24.6073 23.3799 24.4128 23.3108 24.2184C23.5674 24.0531 23.8239 23.8927 24.0804 23.7274C24.1051 23.708 24.1347 23.6885 24.1594 23.6691C24.184 23.6448 24.2137 23.6253 24.2383 23.601C24.2038 23.6156 24.1643 23.6253 24.1298 23.6399C24.1002 23.6594 24.0706 23.6788 24.0459 23.6934C23.7894 23.8392 23.5328 23.9899 23.2763 24.1358C23.1825 23.9316 23.0937 23.7274 23 23.5233C23.6858 23.076 24.3666 22.624 25.0524 22.1767L25.0573 22.1719Z" fill="#FF7A00"/>
<path d="M5.57072 7.02407C5.57072 7.02407 5.52632 7.02407 5.50659 7.02407C5.48192 7.04837 5.45725 7.07268 5.43258 7.09698C5.38325 7.14559 5.33885 7.18934 5.28951 7.23796C5.12671 7.29629 4.95403 7.33518 4.80603 7.41782C3.55784 8.11782 2.31459 8.82754 1.06641 9.5324C1.06641 9.27476 1.06641 9.02198 1.06641 8.76435C1.91004 8.21018 2.75367 7.66087 3.59238 7.10671C4.24854 7.05323 4.90963 6.99976 5.56579 6.94629C5.56579 6.97059 5.56579 6.99976 5.56579 7.02407H5.57072Z" fill="#C0DAF0"/>
<path d="M19.1406 15.2983C19.1653 15.0455 19.185 14.7879 19.2097 14.5351C19.3676 14.4379 19.5254 14.3358 19.6784 14.2337C20.2063 13.8934 20.7292 13.5532 21.2571 13.2129C21.1091 13.6115 20.9611 14.0053 20.8131 14.4039C20.6996 14.4622 20.5862 14.5205 20.4776 14.5789C20.0336 14.8171 19.5846 15.0553 19.1406 15.2934V15.2983Z" fill="#FF7A00"/>
<path d="M25.4705 23.9746C25.4705 24.2808 25.4705 24.5919 25.4705 24.8982C25.3768 24.9371 25.2732 24.9614 25.1844 25.01C24.7206 25.2628 24.2569 25.5156 23.7981 25.7683C23.729 25.5496 23.6599 25.3357 23.5859 25.1169C23.7093 25.0635 23.8425 25.0197 23.956 24.9468C24.4641 24.626 24.9624 24.2954 25.4656 23.9697L25.4705 23.9746Z" fill="#FF7A00"/>
<path d="M1.07031 8.27407V7.10254C1.83008 7.10254 2.50104 7.10254 3.17693 7.10254C3.01906 7.19976 2.86119 7.29698 2.69838 7.38448C2.15569 7.68101 1.61793 7.97754 1.07525 8.27407H1.07031Z" fill="#C0DAF0"/>
<path d="M23.8699 26.7706C23.8452 26.5372 23.8254 26.3039 23.8008 26.0706C23.9143 26.0171 24.0327 25.9734 24.1363 25.9053C24.5852 25.6185 25.0292 25.3268 25.4732 25.0352C25.4732 25.3317 25.4732 25.6331 25.4732 25.9296C25.3598 25.9879 25.2414 26.0414 25.1328 26.0997C24.7135 26.3234 24.2941 26.547 23.8748 26.7657L23.8699 26.7706Z" fill="#FF7A00"/>
<path d="M22.7913 23.1585C22.6581 22.9495 22.5199 22.7453 22.3867 22.5363C22.8307 22.2543 23.2748 21.9724 23.7237 21.6904C24 21.812 24.2812 21.9335 24.5575 22.055C24.0395 22.3564 23.5165 22.6529 23.0034 22.9592C22.9245 23.0078 22.8653 23.0904 22.7962 23.1536L22.7913 23.1585Z" fill="#FF7A00"/>
<path d="M19.1417 16.3288C19.1417 16.0955 19.1417 15.8622 19.1417 15.6288C19.5215 15.3858 19.8965 15.133 20.2813 14.8997C20.3997 14.8268 20.5428 14.7927 20.676 14.7393C20.6513 15.0163 20.6266 15.2934 20.597 15.5656C20.1086 15.8184 19.6202 16.0761 19.1367 16.3288H19.1417Z" fill="#FF7A00"/>
<path d="M6.18063 26.0068C6.18063 26.2839 6.18063 26.5658 6.18063 26.8429C5.95369 26.979 5.73168 27.1151 5.50474 27.2464C5.03605 27.2707 4.56244 27.295 4.09375 27.3145C4.78938 26.877 5.48501 26.4395 6.18063 26.002V26.0068Z" fill="#C0DAF0"/>
<path d="M25.4657 26.1914C25.4459 26.5463 25.4459 26.9011 25.3916 27.2511C25.3768 27.3386 25.1894 27.4504 25.0759 27.4602C24.7158 27.4893 24.3507 27.4699 23.9659 27.4699C23.9313 27.3775 23.8968 27.2852 23.8672 27.1928C23.9807 27.1393 24.0991 27.0907 24.1977 27.0275C24.622 26.7553 25.0414 26.4734 25.4607 26.1914H25.4657Z" fill="#FF7A00"/>
<path d="M22.1556 22.181C22.0174 22.0206 21.8793 21.8601 21.7461 21.6997C22.2394 21.374 22.7377 21.0483 23.2311 20.7178C23.3248 20.9462 23.4136 21.1747 23.5074 21.4032C23.0584 21.6608 22.6045 21.9185 22.1556 22.1761V22.181Z" fill="#FF7A00"/>
<path d="M21.2584 13.2175C20.7305 13.5578 20.2075 13.8981 19.6796 14.2383C19.5218 14.3404 19.3639 14.4377 19.2109 14.5397C19.2356 14.3793 19.2603 14.214 19.2849 14.0536C19.8819 13.7182 20.4789 13.3828 21.0758 13.0571C21.1745 13.0036 21.288 12.9793 21.3916 12.9404C21.362 13.0085 21.3324 13.0814 21.3028 13.1495C21.283 13.1738 21.2633 13.1981 21.2436 13.2224H21.2534L21.2584 13.2175Z" fill="#C0DAF0"/>
<path d="M30.8956 12.8332C31.5616 12.3957 32.2276 11.9533 32.8936 11.5158C33.086 11.3895 33.2785 11.2582 33.4659 11.127C33.5153 11.195 33.5646 11.2679 33.6139 11.336C32.9331 11.7395 32.2572 12.1478 31.5715 12.5464C31.3642 12.6679 31.1373 12.7651 30.9202 12.8721C30.9104 12.8624 30.9005 12.8478 30.8906 12.8381L30.8956 12.8332Z" fill="#C0DAF0"/>
<path d="M34.3334 19.162C33.7216 19.4975 33.1098 19.8329 32.4932 20.1683C32.3501 20.2461 32.2021 20.3141 32.059 20.387C32.0442 20.3725 32.0343 20.3579 32.0195 20.3384C32.8533 19.794 33.6871 19.2544 34.5208 18.71C34.4567 18.8607 34.3975 19.0113 34.3334 19.1572V19.162Z" fill="#C0DAF0"/>
<path d="M28.9294 7.91354C28.4262 8.19549 27.923 8.48229 27.4148 8.75937C27.2964 8.82743 27.1632 8.86632 27.0349 8.91979C27.0103 8.91979 26.9856 8.91493 26.9609 8.91007C27.3902 8.60868 27.8144 8.30243 28.2437 8.00104C28.3374 7.93299 28.4262 7.86493 28.5199 7.79688C28.6581 7.83576 28.7913 7.87465 28.9294 7.91354Z" fill="#C0DAF0"/>
<path d="M20.6828 14.7388C20.5496 14.7922 20.4065 14.8263 20.2881 14.8992C19.9033 15.1374 19.5283 15.3853 19.1484 15.6283C19.1484 15.5165 19.1484 15.4096 19.1484 15.2978C19.5925 15.0596 20.0414 14.8214 20.4854 14.5832C20.5989 14.5249 20.7074 14.4665 20.8209 14.4082C20.7962 14.4714 20.7716 14.5395 20.7518 14.6026C20.7321 14.6464 20.7074 14.695 20.6877 14.7388H20.6828Z" fill="#C0DAF0"/>
<path d="M21.1119 18.3702C20.7123 18.6279 20.3077 18.8855 19.9081 19.1431C19.8785 19.0897 19.8489 19.0313 19.8242 18.9779C20.2238 18.7202 20.6185 18.4626 21.0181 18.2098C21.0625 18.1806 21.1217 18.1855 21.176 18.1758C21.1809 18.2147 21.1908 18.2536 21.1957 18.2876C21.1661 18.3168 21.1365 18.3459 21.1069 18.3751L21.1119 18.3702Z" fill="#C0DAF0"/>
<path d="M32.6957 10.1449L31.0134 11.1171C30.9936 11.0831 30.969 11.0442 30.9492 11.0101C31.482 10.6747 32.0149 10.3344 32.5477 9.99902C32.597 10.0476 32.6464 10.0962 32.6957 10.1449Z" fill="#C0DAF0"/>
<path d="M19.3398 17.4659C19.8579 17.1791 20.3759 16.8923 20.8939 16.6055L20.958 16.7076C20.4252 17.0284 19.8924 17.3444 19.3596 17.6652C19.3546 17.5971 19.3497 17.5339 19.3398 17.4659Z" fill="#C0DAF0"/>
<path d="M31.8 22.8524C31.43 23.0372 31.0649 23.217 30.6949 23.4017C30.6752 23.3677 30.6604 23.3385 30.6406 23.3045C31.129 22.9983 31.6224 22.692 32.1108 22.3906C32.0072 22.5462 31.9036 22.6969 31.8 22.8524Z" fill="#C0DAF0"/>
<path d="M33.1271 20.9658C32.91 21.0581 32.688 21.1456 32.4759 21.2429C32.3229 21.3158 32.1749 21.4081 32.0269 21.4908C32.0072 21.4665 31.9875 21.4373 31.9727 21.413C32.2884 21.204 32.5992 20.9852 32.9248 20.7859C33.0975 20.679 33.285 20.6061 33.4675 20.5186C33.3984 20.6255 33.3244 20.7373 33.2554 20.8443C33.2159 20.8831 33.1764 20.9172 33.132 20.9561V20.9658H33.1271Z" fill="#C0DAF0"/>
<path d="M20.6118 10.9906C20.7894 10.942 20.9621 10.8982 21.1397 10.8496C21.1594 10.8885 21.1791 10.9225 21.1989 10.9614C20.8634 11.1802 20.523 11.3941 20.1875 11.6128C20.3059 11.4281 20.4194 11.2385 20.5378 11.0538C20.5674 11.0343 20.5921 11.01 20.6217 10.9906H20.6118Z" fill="#C0DAF0"/>
<path d="M29.6445 25.939C29.9504 25.6862 30.2563 25.4383 30.5671 25.1855C30.5424 25.3022 30.5128 25.4189 30.4882 25.5355C30.2119 25.6765 29.9356 25.8126 29.6593 25.9536L29.6495 25.9439L29.6445 25.939Z" fill="#C0DAF0"/>
<path d="M19.6159 12.8523C19.9268 12.6919 20.2425 12.5315 20.5533 12.3711C20.5731 12.4003 20.5928 12.4343 20.6076 12.4635C20.2524 12.6628 19.9021 12.8669 19.5469 13.0662C19.5666 12.9933 19.5913 12.9204 19.611 12.8475L19.6159 12.8523Z" fill="#C0DAF0"/>
<path d="M23.2812 24.1357C23.5378 23.9899 23.7943 23.8392 24.0509 23.6934C24.0657 23.7031 24.0756 23.7177 24.0904 23.7274C23.8338 23.8927 23.5773 24.0531 23.3207 24.2184C23.3109 24.1892 23.2961 24.1649 23.2862 24.1357H23.2812Z" fill="#C0DAF0"/>
<path d="M10.9457 17.3835C10.8717 17.3446 10.7977 17.3057 10.7188 17.2668C10.8076 17.2814 10.995 17.1112 10.9457 17.3835Z" fill="#FF7A00"/>
<path d="M14.8931 27.3291C14.9473 27.3437 14.9967 27.3582 15.0509 27.3728C14.9523 27.3777 14.8487 27.3874 14.75 27.3923C14.7993 27.368 14.8487 27.3485 14.8931 27.3242V27.3291Z" fill="#222222"/>
<path d="M27.9453 20.3048C27.97 20.2367 27.9946 20.1686 28.0144 20.1006C27.9897 20.1686 27.965 20.2367 27.9453 20.3048Z" fill="#FF7A00"/>
<path d="M9.47759 20.1641C9.50719 20.1884 9.54173 20.2175 9.57133 20.2418C9.53679 20.2661 9.50719 20.2905 9.47266 20.3148C9.47266 20.2661 9.47266 20.2175 9.47266 20.1641H9.47759Z" fill="#222222"/>
<path d="M25.2578 29.7351C25.3565 29.7206 25.4552 29.7011 25.5538 29.6865C25.5637 29.7011 25.5686 29.7206 25.5686 29.74C25.465 29.74 25.3614 29.74 25.2578 29.74V29.7351Z" fill="#222222"/>
<path d="M19.9648 10.8061C19.9648 10.7673 19.9648 10.7332 19.9648 10.6943C19.9895 10.6992 20.0191 10.7041 20.0438 10.7089C20.0191 10.7429 19.9895 10.7721 19.9648 10.8061Z" fill="#C0DAF0"/>
<path d="M33.1328 20.9565C33.1723 20.9176 33.2117 20.8836 33.2562 20.8447C33.2167 20.8836 33.1772 20.9176 33.1328 20.9565Z" fill="#FF7A00"/>
<path d="M6.13814 1.93945C6.09374 1.96376 6.04934 1.99293 6 2.01723C6.0444 1.99293 6.0888 1.96376 6.13814 1.93945Z" fill="#222222"/>
<path d="M20.1891 11.6084C20.1694 11.6473 20.1497 11.691 20.125 11.7299C20.1447 11.691 20.1645 11.6473 20.1891 11.6084Z" fill="#C0DAF0"/>
<path d="M19.5504 13.0664C19.5504 13.0664 19.5109 13.1102 19.4961 13.1296C19.5158 13.1102 19.5356 13.0859 19.5504 13.0664Z" fill="#C0DAF0"/>
<path d="M26.0456 21.1357C26.0456 21.1357 25.9963 21.1844 25.9766 21.2087C26.0012 21.1844 26.0259 21.16 26.0456 21.1357Z" fill="#FF7A00"/>
<path d="M13.4306 21.7683C13.4306 21.7683 13.4306 21.7196 13.4258 21.7002C13.4354 21.7148 13.445 21.7342 13.4546 21.7488C13.4546 21.7488 13.4402 21.7634 13.4306 21.7683Z" fill="#222222"/>
<path d="M11.9185 24.403H11.8945C11.8945 24.3738 11.9041 24.3495 11.9041 24.3203L11.9281 24.3446C11.9281 24.3641 11.9185 24.3835 11.9185 24.403Z" fill="#FF7A00"/>
<path d="M14.4001 23.1729C14.4001 23.1729 14.3557 23.1826 14.3359 23.1874C14.3557 23.1874 14.3803 23.1777 14.4001 23.1729Z" fill="#C0DAF0"/>
<path d="M11.95 20.247C11.9254 20.2664 11.8958 20.2859 11.8711 20.3102C11.876 20.281 11.8859 20.2567 11.8908 20.2275C11.9106 20.2275 11.9303 20.2373 11.95 20.247Z" fill="#222222"/>
<path d="M9.48047 30.8047C9.48047 30.8047 9.515 30.8484 9.5298 30.8679C9.515 30.8484 9.49527 30.8241 9.48047 30.8047Z" fill="#222222"/>
<path d="M6.19195 20.1003C6.19195 20.1003 6.17277 20.0662 6.16797 20.0468C6.16797 20.0468 6.18236 20.0322 6.19195 20.0273C6.19195 20.0516 6.19195 20.076 6.19195 20.1003Z" fill="#222222"/>
<path d="M33.5352 20.4508C33.5549 20.4265 33.5746 20.3974 33.5894 20.373C33.5697 20.3974 33.55 20.4265 33.5352 20.4508Z" fill="#C0DAF0"/>
<path d="M8.59341 18.0836C8.59341 18.0836 8.57422 18.0496 8.57422 18.0302C8.57422 18.0253 8.58861 18.0156 8.59341 18.0059C8.59341 18.0302 8.59341 18.0545 8.59341 18.0836Z" fill="#FF7A00"/>
<path d="M15.9538 8.33691C16.0969 8.33691 16.235 8.33691 16.3781 8.33691C16.7629 8.33691 17.1527 8.33691 17.5375 8.35636C17.646 8.36122 17.7546 8.44386 17.8631 8.49247C17.7694 8.57025 17.6855 8.69664 17.5819 8.71608C17.1872 8.79386 16.7925 8.85705 16.3929 8.89594C15.9686 8.93969 15.5345 8.95428 15.1102 8.97858C15.0165 8.97858 14.9227 8.97858 14.829 8.97858C14.7846 8.97858 14.7353 8.96886 14.6909 8.96886C12.9937 8.94455 11.2916 8.92511 9.59451 8.89108C9.45144 8.89108 9.3133 8.8133 9.14062 8.76469C9.35277 8.35636 9.67345 8.33691 10.004 8.33691C11.9182 8.33691 13.8324 8.34178 15.7516 8.34664C15.8206 8.34664 15.8897 8.33691 15.9637 8.33691H15.9538Z" fill="#222222"/>
<path d="M20.7465 14.6023C20.7712 14.5392 20.7958 14.4711 20.8156 14.4079C20.9636 14.0093 21.1116 13.6155 21.2596 13.2169H21.2497C21.2694 13.1926 21.2892 13.1683 21.3089 13.144C21.3385 13.076 21.3681 13.003 21.3977 12.935C21.4174 12.9107 21.4372 12.8864 21.4569 12.8621C22.1279 11.3794 23.381 10.5725 24.8463 10.0086C25.2311 9.86277 25.611 9.67318 26.0155 9.60027C26.4941 9.51277 27.0071 9.37665 27.4561 9.73152C27.466 9.77527 27.4709 9.82388 27.4808 9.86763C27.3772 9.94054 27.2736 10.0135 27.1699 10.0864C27.0417 10.0864 26.9183 10.0864 26.7901 10.0912C25.5073 10.1496 24.3924 10.5919 23.4303 11.4475C22.5028 12.2739 21.97 13.319 21.6345 14.4808C21.5901 14.6315 21.5753 14.7919 21.5507 14.9475C21.5507 15.0398 21.5507 15.1273 21.5507 15.2197C21.5507 15.4968 21.5507 15.7544 21.2349 15.9051C21.0129 16.0072 20.8205 16.0412 20.638 15.8565C20.6281 15.7593 20.6182 15.6621 20.6133 15.5648C20.6379 15.2878 20.6626 15.0107 20.6922 14.7385C20.712 14.6947 20.7366 14.6461 20.7564 14.6023H20.7465Z" fill="#222222"/>
<path d="M21.543 15.2248C21.543 15.1325 21.543 15.045 21.543 14.9526C21.9623 14.729 22.3817 14.5054 22.806 14.2867C22.88 14.2478 22.9638 14.2186 23.0428 14.1846C23.0625 14.2137 23.0773 14.2478 23.097 14.2769C22.579 14.5929 22.0659 14.9089 21.5479 15.2248H21.543Z" fill="#C0DAF0"/>
<path d="M21.3125 18.0539C21.7861 17.7768 22.2597 17.4949 22.7334 17.2178C22.758 17.2567 22.7827 17.2956 22.8074 17.3393C22.3091 17.6261 21.8108 17.9081 21.3125 18.1949C21.3125 18.1511 21.3125 18.1025 21.3125 18.0587V18.0539Z" fill="#C0DAF0"/>
<path d="M26.7781 10.0967C26.9063 10.0967 27.0297 10.0967 27.1579 10.0918C26.8027 10.3008 26.4475 10.5147 26.0923 10.7237C26.0775 10.6994 26.0578 10.6751 26.043 10.6508C26.2896 10.4661 26.5314 10.2814 26.7781 10.1015V10.0967Z" fill="#C0DAF0"/>
<path d="M30.9917 13.8447C31.0213 13.869 31.0459 13.8933 31.0755 13.9176C30.819 14.0586 30.5575 14.1996 30.301 14.3406L30.2812 14.3211C30.5181 14.1607 30.7598 14.0051 30.9966 13.8447H30.9917Z" fill="#C0DAF0"/>
<path d="M30.1357 14.4326C30.1357 14.4326 30.1159 14.4714 30.1011 14.4812C30.0863 14.486 30.0666 14.4714 30.0469 14.4666C30.0567 14.452 30.0617 14.4228 30.0765 14.418C30.0913 14.4131 30.111 14.4277 30.1307 14.4326H30.1357Z" fill="#C0DAF0"/>
<path d="M30.9247 12.867C30.8705 12.8913 30.8211 12.9156 30.7669 12.94L30.7422 12.8913C30.7915 12.8719 30.8458 12.8525 30.8951 12.833C30.905 12.8476 30.9149 12.8573 30.9198 12.867H30.9247Z" fill="#C0DAF0"/>
<path d="M25.9599 10.7431C25.9599 10.7431 25.9254 10.7722 25.9106 10.7722C25.8958 10.7722 25.8859 10.7528 25.8711 10.7382C25.881 10.7333 25.8908 10.7188 25.9007 10.7188C25.9204 10.7188 25.9402 10.7333 25.9648 10.7431H25.9599Z" fill="#C0DAF0"/>
<path d="M30.2985 14.3407L30.2344 14.3699C30.2344 14.3699 30.264 14.3359 30.2788 14.3213L30.2985 14.3407Z" fill="#C0DAF0"/>
<path d="M32.0586 20.3875C32.0043 20.4069 31.95 20.4264 31.8908 20.4507C31.8859 20.4361 31.876 20.4215 31.8711 20.4069C31.9204 20.3875 31.9698 20.3632 32.0191 20.3438C32.0339 20.3583 32.0438 20.3729 32.0586 20.3924V20.3875Z" fill="#C0DAF0"/>
<path d="M31.8896 21.5204C31.8896 21.5204 31.8551 21.5447 31.8403 21.5447C31.8304 21.5447 31.8156 21.5253 31.8008 21.5156C31.8106 21.5107 31.8205 21.4961 31.8255 21.501C31.8452 21.501 31.8649 21.5156 31.8847 21.5204H31.8896Z" fill="#C0DAF0"/>
<path d="M29.6567 25.9482C29.6567 25.9482 29.632 25.9774 29.6172 25.9968C29.6271 25.9774 29.632 25.9579 29.6419 25.9385L29.6517 25.9482H29.6567Z" fill="#C0DAF0"/>
<path d="M26.6055 9.11977L26.7781 9.04199C26.7781 9.04199 26.7979 9.07602 26.8077 9.09546C26.7485 9.12949 26.6943 9.15866 26.6351 9.19269C26.6252 9.16838 26.6153 9.14408 26.6055 9.11977Z" fill="#FF7A00"/>
<path d="M26.5175 9.26535C26.5175 9.26535 26.4731 9.28966 26.4583 9.2848C26.4435 9.27994 26.4435 9.25077 26.4336 9.22646C26.4533 9.21674 26.478 9.20216 26.4928 9.20702C26.5076 9.21188 26.5076 9.24105 26.5175 9.26535Z" fill="#FF7A00"/>
<path d="M26.2777 9.4303C26.2777 9.4303 26.2284 9.41571 26.2234 9.40599C26.2185 9.39141 26.2382 9.3671 26.2432 9.34766C26.2629 9.35738 26.2925 9.36224 26.2974 9.37196C26.3024 9.38655 26.2826 9.41085 26.2728 9.4303H26.2777Z" fill="#FF7A00"/>
<path d="M26.9609 8.91016C26.9856 8.91016 27.0103 8.91502 27.0349 8.91988C27.0201 8.94418 27.0053 8.96849 26.9905 8.9928C26.9807 8.96363 26.9708 8.93932 26.9609 8.91016Z" fill="#FF7A00"/>
<path d="M21.4459 12.8672C21.4459 12.8672 21.4065 12.9158 21.3867 12.9401C21.4065 12.9158 21.4262 12.8915 21.4459 12.8672Z" fill="#C0DAF0"/>
<path d="M2.53516 5.96921C2.58943 5.93032 2.64369 5.89143 2.69796 5.85254C2.70783 5.87684 2.72263 5.89629 2.7325 5.92059C2.6733 5.9449 2.60916 5.96921 2.54996 5.98865L2.53516 5.96921Z" fill="#C0DAF0"/>
<path d="M24.9242 31.0234C24.9242 31.0234 24.9002 31.038 24.8906 31.0477C24.9002 31.038 24.9098 31.0234 24.9146 31.0137L24.9242 31.0234Z" fill="#C0DAF0"/>
<path d="M24.1289 23.6346C24.1634 23.62 24.2029 23.6103 24.2374 23.5957C24.2128 23.62 24.1832 23.6395 24.1585 23.6638C24.1486 23.654 24.1388 23.6443 24.1289 23.6346Z" fill="#C0DAF0"/>
<path d="M24.0479 23.6931C24.0775 23.6737 24.1071 23.6542 24.1318 23.6396C24.1416 23.6494 24.1515 23.6591 24.1614 23.6688C24.1367 23.6883 24.1071 23.7077 24.0824 23.732C24.0726 23.7223 24.0578 23.7077 24.043 23.698L24.0479 23.6931Z" fill="#C0DAF0"/>
<path d="M11.919 24.4031C11.919 24.4031 11.9289 24.3642 11.9289 24.3447C11.9535 24.3447 11.9733 24.3447 11.9979 24.3447C11.9683 24.3642 11.9437 24.3836 11.9141 24.4079L11.919 24.4031Z" fill="#C0DAF0"/>
<path d="M21.3092 13.1445C21.3092 13.1445 21.2697 13.1931 21.25 13.2174C21.2697 13.1931 21.2895 13.1688 21.3092 13.1445Z" fill="#FF7A00"/>
</g>
<defs>
<clipPath id="clip0_329_3459">
<rect width="36" height="35" fill="white"/>
</clipPath>
</defs>
</svg>
