<svg width="36" height="35" viewBox="0 0 36 35" fill="none" xmlns="http://www.w3.org/2000/svg">
<g clip-path="url(#clip0_329_3295)">
<path d="M26.3544 24.1259C26.32 24.471 26.2562 24.8113 26.2512 25.1564C26.2365 25.8078 26.2611 26.4641 26.2414 27.1155C26.207 28.2676 26.1727 29.4148 26.0892 30.562C26.0351 31.3398 25.9811 32.1273 25.7945 32.8759C25.49 34.096 24.6207 34.9078 23.2357 34.9273C21.9686 34.9467 20.6965 34.9273 19.4245 34.9321C18.6878 34.937 17.9462 34.9953 17.2095 34.9953C15.7705 34.9953 14.3364 34.9613 12.8974 34.9613C11.8611 34.9613 10.8248 35.0002 9.78849 34.9953C8.76694 34.9905 7.75029 34.9613 6.72874 34.9224C5.75138 34.8884 4.76912 34.8495 3.79668 34.7717C3.0256 34.7134 2.24961 34.6453 1.49818 34.48C0.795858 34.3245 0.417686 33.7557 0.314548 33.0849C0.206499 32.3946 0.186854 31.6849 0.157386 30.9849C0.0984499 29.3662 0.0296914 27.7426 0.0149575 26.1238C-0.00959916 23.5134 0.000223488 20.903 0.0149575 18.2974C0.0198688 16.9509 0.0591594 15.5995 0.083716 14.253C0.103361 13.2419 0.127918 12.2356 0.157386 11.2245C0.181942 10.3738 0.206499 9.51825 0.231056 8.66755C0.250701 7.95783 0.250701 7.24811 0.309637 6.54325C0.388218 5.65852 0.437331 4.75436 0.957931 3.97172C1.18385 3.63144 1.48344 3.45158 1.91073 3.44672C3.24661 3.437 4.5874 3.40783 5.92328 3.3738C6.18358 3.36894 6.44388 3.31061 6.61578 3.29116C6.84661 2.89741 6.97921 2.45019 7.2788 2.212C7.57839 1.97866 8.04006 1.90575 8.43788 1.86686C9.13528 1.7988 9.84251 1.81339 10.5399 1.7745C10.648 1.76963 10.81 1.69186 10.8395 1.60922C11.1587 0.685607 11.92 0.272413 12.7795 0.068246C13.2804 -0.0484206 13.8551 -0.00953175 14.3658 0.0974127C15.1222 0.257829 15.5053 0.860607 15.7999 1.59463C16.2665 1.56061 16.7626 1.55575 17.2488 1.48769C18.1083 1.37102 19.0365 1.87658 19.3607 2.68839C19.3901 2.76616 19.4196 2.84394 19.4245 2.92658C19.4589 3.45158 19.4589 3.44186 20.004 3.45644C21.2859 3.49533 22.5678 3.55366 23.8545 3.59741C24.493 3.62172 24.9301 3.88422 25.21 4.48213C25.4998 5.11408 25.6324 5.76547 25.7306 6.44116C25.8043 6.92727 25.8632 7.41825 25.9566 7.90436C25.9762 8.00158 26.1088 8.12311 26.212 8.15227C27.5331 8.54116 28.6185 9.2995 29.5222 10.3009C30.4504 11.3314 31.0643 12.5321 31.3099 13.9224C31.5948 15.5266 31.3639 17.0481 30.6272 18.4821C30.3375 19.046 29.9053 19.537 29.5173 20.1009C29.6302 20.3488 29.7628 20.6745 29.9347 20.9807C29.9839 21.0634 30.1607 21.1412 30.2589 21.1266C30.6714 21.0488 30.9563 21.1363 31.1675 21.4863C32.0466 22.9203 32.9306 24.3544 33.795 25.7981C34.3942 26.7946 34.9394 27.8301 35.568 28.8071C36.5405 30.3287 35.8725 32.1467 33.962 32.5453C32.5918 32.8321 31.6046 32.3509 30.8875 31.3106C29.866 29.8231 28.9672 28.2578 28.0095 26.7314C27.5429 25.9828 27.0567 25.2391 26.5901 24.4953C26.5214 24.3835 26.4821 24.2523 26.4281 24.1259C26.4084 24.1259 26.3839 24.1259 26.3642 24.1307L26.3544 24.1259ZM28.8837 21.7342C29.3454 21.671 29.3847 21.5932 29.1931 21.1849C29.1244 21.0391 29.0654 20.8884 29.0016 20.7377C28.923 20.5481 28.8199 20.4995 28.6676 20.6648C28.6136 20.728 28.5547 20.7863 28.4957 20.8446C27.9358 21.1412 27.3808 21.4377 26.821 21.7391C27.4987 22.8134 27.1205 22.7162 28.2305 22.1863C28.3484 22.128 28.4663 22.0599 28.5743 21.9821C28.6823 21.9044 28.7806 21.812 28.8788 21.7294L28.8837 21.7342ZM30.0575 28.6224C30.2147 28.8849 30.3718 29.1426 30.5339 29.4196C30.5536 29.3662 30.5585 29.3224 30.583 29.303C31.0693 28.8946 31.6783 28.7634 32.2627 28.5787C32.3413 28.5544 32.5918 28.7488 32.6016 28.8557C32.6114 28.9919 32.4984 29.2106 32.3757 29.2689C31.8894 29.4926 31.3787 29.6676 30.7844 29.896C31.1626 30.3919 31.4671 30.9606 31.9238 31.3446C32.8128 32.0884 33.5986 32.0787 34.6005 31.471C35.3372 30.9509 35.4796 30.0953 34.959 29.2495C34.7675 28.9384 34.5858 28.6224 34.3991 28.3113C33.2744 26.4252 32.1448 24.5391 31.0201 22.6481C30.5143 21.7974 30.5192 21.7926 29.6597 22.2544C29.6401 22.2641 29.6302 22.2884 29.6155 22.3078C28.9132 22.6578 28.2207 23.0176 27.5135 23.353C26.9978 23.596 27.0469 23.7273 27.3219 24.2182C27.538 24.1016 27.7443 23.9557 27.9702 23.8682C28.1716 23.7905 28.4122 23.8002 28.5006 24.0335C28.5792 24.2377 28.5497 24.4467 28.2796 24.5585C28.0783 24.6412 27.8916 24.7676 27.6755 24.8891C27.7639 25.0301 27.8327 25.1321 27.8769 25.2002C28.2649 25.0592 28.6087 24.9328 28.9574 24.8113C29.1784 24.7335 29.3994 24.7578 29.4632 25.0057C29.5222 25.2294 29.4927 25.4481 29.1735 25.521C28.8935 25.5842 28.6283 25.7203 28.3091 25.8467C28.4319 26.012 28.5154 26.1287 28.5989 26.2453C28.9672 25.8613 29.4092 25.7057 29.8905 25.6669C30.0182 25.6571 30.2589 25.803 30.2638 25.8856C30.2687 26.0217 30.1607 26.2356 30.0379 26.2939C29.6793 26.4738 29.2963 26.5905 28.8935 26.7412C29.1784 27.1981 29.478 27.6794 29.7825 28.1557C29.8562 28.2724 29.9691 28.3696 30.0624 28.4766C30.0624 28.5252 30.0624 28.5787 30.0624 28.6273L30.0575 28.6224ZM18.5552 2.86338C18.4766 2.52797 18.2065 2.2995 17.8431 2.29463C17.2488 2.28977 16.6545 2.2995 16.0602 2.30436C15.9866 2.30436 15.9129 2.28491 15.8441 2.30436C15.3235 2.4113 15.2646 2.37727 15.0829 1.8863C15.0043 1.67727 14.8963 1.48283 14.803 1.27866C14.5918 1.11338 14.41 0.880052 14.1694 0.797413C13.5162 0.564079 12.8777 0.729357 12.2982 1.05991C11.8758 1.29811 11.532 1.60922 11.5025 2.15366C11.4976 2.25575 11.3405 2.39672 11.2275 2.43075C11.0114 2.49394 10.7806 2.50366 10.5547 2.51339C9.84251 2.54255 9.12055 2.52311 8.41332 2.60088C7.81905 2.66408 7.42614 2.77589 7.49981 3.5488C7.58822 4.4238 7.7552 5.29394 7.91728 6.16408C7.94183 6.30505 7.79941 6.60644 8.15793 6.56755H12.5094C12.195 6.14463 12.1705 5.76061 12.4013 5.3863C12.4602 5.28908 12.6321 5.20158 12.7451 5.21616C12.8581 5.23075 13.0349 5.362 13.0447 5.45436C13.0791 5.81408 13.0594 6.17866 13.0594 6.55783H13.7175C13.7175 6.48005 13.7372 6.412 13.7175 6.36338C13.5358 5.98422 13.6979 5.63422 13.8354 5.2988C13.9386 5.04602 14.1939 4.97797 14.415 5.08491C14.6507 5.19672 14.6654 5.41547 14.5132 5.63422C14.4592 5.712 14.3855 5.81408 14.4002 5.89186C14.4444 6.10575 14.5034 6.3245 14.6114 6.50922C14.6507 6.57727 14.8472 6.56269 14.9601 6.58213C14.9601 6.30505 14.9994 6.0863 14.9503 5.887C14.8815 5.61963 14.8619 5.40575 15.1909 5.35227C15.5642 5.29394 15.687 5.43491 15.7017 5.85297C15.7115 6.09602 15.7557 6.33422 15.7803 6.56755H16.7331C16.6987 6.40713 16.6643 6.27102 16.6398 6.13491C16.5907 5.86755 16.5268 5.60019 16.5072 5.33283C16.4875 5.11894 16.5465 4.90991 16.8313 4.91963C17.0867 4.92936 17.2144 5.06061 17.2341 5.32311C17.2537 5.54186 17.3274 5.76061 17.3667 5.97936C17.401 6.15436 17.4207 6.32936 17.46 6.54811C17.7497 6.54811 18.0788 6.57241 18.4079 6.54325C18.7369 6.51408 18.8646 6.30019 18.845 5.9745C18.8057 5.32797 18.7959 4.68144 18.7664 4.03491C18.7517 3.71408 18.732 3.39325 18.6927 3.07241C18.6829 3.00436 18.6043 2.94602 18.5552 2.88283V2.86338ZM9.84251 31.4516C9.84251 31.4516 9.88181 31.4127 9.90145 31.3932C10.093 31.2328 10.2698 31.0287 10.4908 30.9314C10.6431 30.8634 10.8886 30.9071 11.0458 30.9849C11.1047 31.0141 11.1047 31.3544 11.0212 31.437C10.6824 31.753 10.2993 32.0252 9.88181 32.3509H10.9869C11.1096 32.1564 11.1784 31.962 11.3159 31.8356C11.6351 31.5537 11.974 31.2912 12.3276 31.0481C12.5437 30.8974 12.7991 30.8439 12.9809 31.1016C13.192 31.3884 12.9514 31.5196 12.7549 31.6655C12.4652 31.8794 12.1803 32.0981 11.8463 32.3557H16.738C16.3991 31.8842 16.4237 31.7676 16.8903 31.4613C17.0474 31.3592 17.2046 31.2571 17.3617 31.155C17.3912 31.1356 17.4207 31.1162 17.4452 31.0967C17.514 31.0432 17.5828 30.9898 17.6515 30.9363C17.681 30.9169 17.7105 30.8974 17.735 30.878C17.8774 30.771 18.0346 30.6738 18.1574 30.5474C18.3538 30.3432 18.5699 30.3821 18.732 30.5377C18.9235 30.7176 18.8597 30.9266 18.6534 31.0821C18.1181 31.4905 17.5828 31.8988 17.013 32.3266H18.5503C18.344 32.0203 18.3145 31.7821 18.5945 31.5877C18.7025 31.5148 18.8106 31.4419 18.9334 31.3932C19.2968 31.2328 19.6553 31.0676 20.0335 30.946C20.1219 30.9169 20.3675 31.0481 20.3626 31.0919C20.3527 31.2523 20.3135 31.4807 20.2005 31.5537C19.7732 31.8259 19.3115 32.0446 18.7811 32.3314C18.9874 32.3557 19.1102 32.3849 19.233 32.3801C20.4362 32.3606 21.6395 32.3217 22.8428 32.3169C23.1571 32.3169 23.3339 32.1953 23.3781 31.9134C23.4665 31.3203 23.5598 30.7224 23.5991 30.1196C23.6679 29.0453 23.7121 27.9662 23.7465 26.8919C23.771 26.1432 23.7366 25.3946 23.7563 24.646C23.7759 23.8682 23.8201 23.0953 23.8545 22.3516C23.3192 22.2738 22.8526 22.2446 22.4008 22.1377C21.9587 22.0307 21.5364 21.8509 21.1091 21.6905C20.6278 21.5106 20.1956 21.2676 19.6259 21.2627C18.511 21.253 17.401 21.0682 16.2862 21.0051C15.245 20.9467 14.1989 20.9516 13.1527 20.9273C13.0791 20.9273 12.971 20.9467 12.9416 20.9078C12.8188 20.7669 12.6518 20.6113 12.6371 20.446C12.6174 20.2321 12.8335 20.1932 13.0349 20.1981C14.2283 20.2273 15.4169 20.2467 16.6103 20.271C16.6693 20.271 16.7282 20.3002 16.7871 20.3002C17.5386 20.3439 18.29 20.3926 19.0905 20.4363C18.8057 20.1155 18.5847 19.8481 18.3489 19.5953C18.2703 19.5127 18.1672 19.4155 18.0641 19.4009C17.4894 19.3377 16.9148 19.2745 16.3402 19.2551C15.1762 19.2162 14.0073 19.2016 12.8384 19.1773C12.7648 19.1773 12.696 19.1676 12.6272 19.1481C12.362 19.0849 12.1557 18.9294 12.2736 18.6523C12.3276 18.521 12.5732 18.3898 12.7353 18.3849C13.192 18.3703 13.6488 18.4238 14.1105 18.4481C14.69 18.4773 15.2695 18.5064 15.854 18.5162C16.4384 18.5259 17.0229 18.5162 17.6122 18.5162C16.8461 17.0821 16.463 15.546 16.6643 13.8981C15.7803 13.8398 14.9405 13.7863 14.0957 13.728C13.8452 13.7085 13.58 13.7182 13.3492 13.6356C13.2019 13.5821 13.0693 13.3974 13.0103 13.2467C12.9858 13.1787 13.1429 12.9551 13.2313 12.9453C13.5064 12.9113 13.7863 12.9405 14.0663 12.9599C14.9159 13.0182 15.7705 13.0912 16.6201 13.1446C16.6987 13.1495 16.8362 13.096 16.8608 13.0328C17.0622 12.5273 17.2439 12.012 17.4305 11.5016C16.9001 11.4481 16.3598 11.4189 15.8294 11.3314C15.3088 11.2439 14.7882 11.1176 14.2824 10.962C14.1448 10.9182 13.9729 10.6995 13.9778 10.5731C13.9877 10.3835 14.1547 10.2037 14.41 10.2523C15.2941 10.4176 16.1732 10.612 17.0622 10.7335C17.401 10.7821 17.8234 10.928 18.1132 10.5974C19.4982 8.99325 21.2417 8.06964 23.3929 7.83144C23.3094 7.3113 23.2308 6.79116 23.1276 6.27588C23.1129 6.20783 22.9557 6.12519 22.8673 6.12519C22.4892 6.11061 22.111 6.13005 21.7328 6.11547C21.0207 6.09116 20.3085 6.04741 19.5964 6.01338C19.5227 7.00991 18.9825 7.26269 18.2458 7.26755C14.8275 7.29186 11.4092 7.28213 7.98603 7.26755C7.71591 7.26755 7.43106 7.17519 7.33283 6.86894C7.22969 6.55297 7.15111 6.23213 7.07744 5.9745C5.75629 5.9745 4.44497 5.9745 3.13365 5.98422C3.04524 5.98422 2.90282 6.11061 2.88317 6.19811C2.82423 6.4363 2.8095 6.68908 2.79968 6.937C2.77021 7.63213 2.74565 8.32727 2.72601 9.02241C2.70145 9.87311 2.67198 10.7287 2.65234 11.5794C2.62778 12.6488 2.5934 13.7182 2.57867 14.7877C2.5492 17.1259 2.52464 19.4641 2.505 21.8071C2.505 22.0405 2.53447 22.2738 2.53938 22.512C2.55411 24.3787 2.55902 26.2453 2.57867 28.112C2.58849 29.0259 2.62287 29.9398 2.65234 30.8488C2.66216 31.1502 2.69163 31.4467 2.71127 31.7481C2.91755 31.2766 3.23187 30.9217 3.66407 30.6981C3.79176 30.6301 4.03733 30.7078 4.18467 30.7905C4.2387 30.8196 4.21905 31.1259 4.13556 31.2085C3.86052 31.4807 3.54129 31.7141 3.23679 31.962C3.2859 32.03 3.33501 32.0932 3.38412 32.1613C3.53638 32.0981 3.72301 32.0689 3.84088 31.962C4.11591 31.7189 4.35166 31.4321 4.62669 31.1891C4.80841 31.0287 5.04906 30.9849 5.21605 31.2182C5.37321 31.4419 5.29463 31.6363 5.07853 31.7967C4.9361 31.9037 4.80841 32.0398 4.61196 32.2196H5.77594C5.66298 31.9717 5.74647 31.787 5.94292 31.6169C6.25234 31.3495 6.52737 31.0335 6.86134 30.8099C7.00377 30.7176 7.33774 30.7224 7.46052 30.8294C7.65206 30.9898 7.55384 31.1939 7.33283 31.3738C7.01359 31.6314 6.74347 31.9523 6.41441 32.2877H7.77485C7.76502 32.1078 7.67171 31.8453 7.76503 31.7384C8.04988 31.403 8.38385 31.0967 8.74238 30.8391C8.85534 30.7564 9.13037 30.8245 9.29245 30.9023C9.35138 30.9314 9.36612 31.2571 9.29245 31.3252C8.93883 31.6509 8.54593 31.9377 8.16775 32.2391C8.12846 32.2537 8.08426 32.2634 8.04497 32.278C8.04006 32.278 8.04497 32.3169 8.05479 32.3363C8.08917 32.3217 8.12355 32.3071 8.15793 32.2877C8.28071 32.3169 8.40841 32.3752 8.53119 32.3703C8.95357 32.3509 9.37594 32.3071 9.80814 32.2731C9.44961 32.0009 9.45452 31.8842 9.85234 31.4321L9.84251 31.4516ZM6.94975 5.19672C6.89572 4.88561 6.81714 4.6863 6.83187 4.49186C6.86134 4.14186 6.69436 4.09325 6.39968 4.10297C4.99013 4.137 3.58058 4.15644 2.16612 4.18075C1.66516 4.19047 1.59149 4.25852 1.39504 4.73977C1.09054 5.48352 1.10527 6.26616 1.04142 7.03908C0.977577 7.79255 0.982488 8.55088 0.957931 9.30922C0.933375 10.1599 0.903907 11.0155 0.884262 11.8662C0.854794 12.9599 0.825326 14.0537 0.810592 15.1523C0.781124 17.3203 0.756567 19.4932 0.736922 21.6613C0.736922 21.8509 0.771301 22.0356 0.776213 22.2252C0.790946 24.2426 0.790946 26.2599 0.810592 28.2821C0.820414 29.196 0.844971 30.1099 0.884262 31.0189C0.913729 31.6606 0.938286 32.3071 1.04142 32.9391C1.12001 33.4106 1.38031 33.7995 1.9402 33.8578C2.62778 33.9307 3.31537 34.0231 4.00786 34.062C5.18167 34.1301 6.35547 34.203 7.52928 34.2078C12.5732 34.2224 17.6171 34.2176 22.6611 34.2078C23.0441 34.2078 23.442 34.1981 23.8054 34.1009C24.5077 33.921 24.9105 33.3912 25.048 32.73C25.21 31.9474 25.2935 31.1405 25.3476 30.3432C25.4261 29.2106 25.4703 28.0682 25.4998 26.9307C25.5244 25.9634 25.4998 24.996 25.4998 24.0287C25.4998 23.9217 25.5244 23.8148 25.5244 23.7078C25.5244 23.1974 25.5244 22.687 25.5244 22.1523C25.3083 22.1814 25.0922 22.2446 24.881 22.2349C24.5863 22.2203 24.5421 22.3467 24.5372 22.5995C24.5225 24.262 24.493 25.9245 24.4684 27.587C24.4684 27.6453 24.4684 27.7085 24.4684 27.7669C24.3948 28.8606 24.3358 29.9592 24.2425 31.053C24.2081 31.4807 24.1443 31.9182 24.0117 32.3266C23.8987 32.6766 23.6335 32.9682 23.2406 33.0363C22.887 33.0946 22.5236 33.1141 22.1601 33.1141C19.8371 33.1238 17.514 33.1384 15.1909 33.1287C12.1901 33.1141 9.19422 33.0801 6.19831 33.046C5.50582 33.0363 4.81823 33.012 4.12573 32.9731C3.57567 32.9439 3.02069 32.9051 2.48044 32.8176C2.32328 32.7932 2.117 32.6182 2.06298 32.4676C1.95984 32.1856 1.92055 31.8696 1.91073 31.5682C1.85179 30.1294 1.7683 28.6905 1.7683 27.2516C1.7683 23.5474 1.80759 19.8432 1.83706 16.1391C1.84688 15.2252 1.88617 14.3113 1.90582 13.4023C1.93037 12.3814 1.95984 11.3557 1.97949 10.3349C2.00404 9.12936 2.01387 7.92866 2.06298 6.72311C2.07771 6.32936 2.18576 5.93561 2.28399 5.55158C2.31346 5.44463 2.45588 5.2988 2.55902 5.28422C2.96666 5.23075 3.3743 5.20644 3.78685 5.20158C4.82805 5.19186 5.87417 5.20158 6.94483 5.20158L6.94975 5.19672ZM24.0706 8.60922C23.7514 8.60922 23.4272 8.56547 23.1178 8.61894C21.3645 8.91547 19.8862 9.70297 18.7271 11.0689C17.4649 12.5516 17.1309 14.2627 17.4747 16.1002C17.7645 17.6266 18.5356 18.9196 19.7241 19.9648C20.9028 21.0002 22.278 21.5495 23.8447 21.5787C24.6993 21.5932 25.5342 21.3891 26.3347 21.0877C27.6362 20.5967 28.7757 19.8627 29.5762 18.7301C30.4504 17.4905 30.809 16.1099 30.642 14.5787C30.475 13.0426 29.8758 11.7252 28.81 10.6314C27.5233 9.31408 25.9762 8.52172 24.0608 8.60922H24.0706ZM25.2051 7.8995C25.21 7.812 25.2248 7.76825 25.215 7.7245C25.1167 7.15575 25.0529 6.58213 24.9105 6.02797C24.7926 5.55644 24.601 5.10436 24.4193 4.65227C24.38 4.55019 24.2572 4.43352 24.1492 4.40922C23.8938 4.35575 23.6286 4.3363 23.3634 4.32658C22.4793 4.29741 21.5953 4.27311 20.7064 4.25366C20.3135 4.24394 19.9205 4.25366 19.5031 4.25366C19.5326 4.55019 19.562 4.90019 19.5964 5.24533C19.7781 5.27936 19.95 5.33283 20.1268 5.33769C21.06 5.37172 21.9931 5.39602 22.9263 5.41061C23.5893 5.42033 23.6384 5.42519 23.8152 6.07172C23.9527 6.56755 24.0117 7.07797 24.1246 7.57866C24.1443 7.6613 24.2278 7.78283 24.2965 7.79255C24.5863 7.84602 24.8859 7.86547 25.2051 7.8995Z" fill="#222222"/>
<path d="M24.0706 8.60865C25.986 8.52115 27.5331 9.31351 28.8198 10.6309C29.8856 11.7198 30.4848 13.042 30.6517 14.5781C30.8187 16.1093 30.4602 17.4899 29.586 18.7295C28.7805 19.867 27.646 20.601 26.3445 21.0871C25.5391 21.3885 24.709 21.5975 23.8545 21.5781C22.2878 21.5489 20.9126 20.9996 19.7339 19.9642C18.5453 18.9239 17.7743 17.626 17.4845 16.0996C17.1358 14.2621 17.4747 12.5462 18.7369 11.0684C19.8959 9.70726 21.3743 8.91976 23.1276 8.61837C23.437 8.5649 23.7612 8.60865 24.0804 8.60865H24.0706ZM23.9969 9.51282C23.6482 9.54685 23.2946 9.55657 22.9508 9.62462C21.4774 9.92115 20.2545 10.6503 19.3655 11.8462C18.4864 13.0323 18.1672 14.3593 18.452 15.8517C18.7369 17.3343 19.4687 18.5302 20.6277 19.4538C21.9047 20.4649 23.4026 20.8295 25.0037 20.4843C26.5066 20.1635 27.8277 19.4684 28.7314 18.1705C29.7972 16.6392 29.92 15.0059 29.3306 13.2559C28.643 11.2045 26.3052 9.40587 23.992 9.51768L23.9969 9.51282Z" fill="#FF7A00"/>
<path d="M14.7996 1.27826C14.8929 1.47756 15.0009 1.67687 15.0795 1.88589C15.2612 2.37687 15.3202 2.41576 15.8408 2.30395C15.9095 2.28937 15.9881 2.30395 16.0569 2.30395C16.0814 2.38173 16.1207 2.45951 16.1306 2.54214C16.1698 2.89701 16.3761 2.97478 16.7052 2.95048C17.3191 2.90187 17.9379 2.88728 18.5518 2.86298C18.6009 2.92617 18.6844 2.98451 18.6894 3.05256C18.7237 3.37339 18.7483 3.69423 18.763 4.01506C18.7925 4.66159 18.8023 5.30812 18.8416 5.95464C18.8612 6.2852 18.7336 6.49423 18.4045 6.52339C18.0754 6.55256 17.7464 6.52825 17.4566 6.52825C17.4222 6.3095 17.3977 6.1345 17.3633 5.9595C17.3191 5.74075 17.2503 5.52687 17.2307 5.30325C17.211 5.04075 17.0784 4.9095 16.828 4.89978C16.5382 4.89006 16.4842 5.09909 16.5038 5.31298C16.5284 5.58034 16.5873 5.8477 16.6364 6.11506C16.661 6.25117 16.6954 6.39214 16.7297 6.5477H15.7769C15.7524 6.31437 15.7082 6.07617 15.6984 5.83312C15.6836 5.41992 15.5559 5.27409 15.1876 5.33242C14.8536 5.38589 14.8733 5.59978 14.9469 5.86714C14.996 6.06645 14.9567 6.2852 14.9567 6.56228C14.8438 6.54284 14.6473 6.56228 14.608 6.48937C14.5 6.30464 14.4411 6.08589 14.3969 5.872C14.3821 5.79909 14.4558 5.69214 14.5098 5.61437C14.6621 5.39562 14.6473 5.172 14.4116 5.06506C14.1857 4.96298 13.9352 5.03103 13.8321 5.27895C13.6896 5.61923 13.5325 5.96437 13.7142 6.34353C13.7387 6.39214 13.7142 6.4602 13.7142 6.53798H13.0561C13.0561 6.15395 13.0757 5.78937 13.0413 5.4345C13.0315 5.34214 12.8547 5.21089 12.7417 5.19631C12.6337 5.18659 12.4618 5.27409 12.3979 5.36645C12.1622 5.74076 12.1917 6.12478 12.506 6.5477C11.0031 6.5477 9.57885 6.5477 8.15456 6.5477C8.06125 5.98867 7.9532 5.42478 7.87462 4.86089C7.76657 4.04423 7.96793 3.46576 8.75866 3.25187C9.04351 3.17409 9.35293 3.16437 9.65252 3.15464C10.3843 3.12548 11.121 3.11576 11.7398 3.09631C11.9461 2.76089 12.0885 2.51784 12.2359 2.27964C12.4029 3.10603 13.1248 3.39284 13.7486 2.92131C14.3232 2.48867 14.2839 1.71089 13.6454 1.39492C13.7829 1.37548 13.9205 1.35117 14.058 1.33659C14.3035 1.30742 14.554 1.28798 14.7996 1.26367V1.27826ZM18.4438 5.03589C18.321 4.58381 18.1737 4.23381 17.8102 4.04423C17.7022 3.99075 17.4468 4.01506 17.4075 4.07826C17.3387 4.20951 17.3289 4.41367 17.378 4.5595C17.4517 4.76367 17.6285 4.93381 17.7071 5.13798C17.8004 5.37131 17.987 5.37617 18.1442 5.3227C18.267 5.27895 18.3554 5.12339 18.4389 5.03589H18.4438Z" fill="#FF7A00"/>
<path d="M34.5952 31.461C33.5883 32.0687 32.8025 32.0784 31.9185 31.3346C31.4617 30.9506 31.1572 30.3819 30.7791 29.886C31.3684 29.6576 31.8841 29.4826 32.3703 29.2589C32.4931 29.2006 32.611 28.9819 32.5962 28.8457C32.5864 28.7388 32.3409 28.5444 32.2574 28.5687C31.6778 28.7582 31.0639 28.8846 30.5777 29.293C30.5531 29.3124 30.5482 29.3562 30.5286 29.4096C30.3616 29.1326 30.2044 28.8749 30.0522 28.6124C30.4353 28.836 30.7987 28.7485 31.1523 28.5444C31.4175 28.3937 31.4519 28.0826 31.226 27.9319C30.9117 27.7277 30.1258 28.0777 30.0473 28.4617C29.9539 28.3548 29.8459 28.2576 29.7673 28.1409C29.4628 27.6645 29.1632 27.1832 28.8784 26.7263C29.2762 26.5756 29.6642 26.4589 30.0227 26.2791C30.1455 26.2159 30.2535 26.0069 30.2486 25.8707C30.2486 25.7881 30.0031 25.6423 29.8754 25.652C29.399 25.6909 28.952 25.8464 28.5837 26.2305C28.5002 26.1138 28.4167 26.002 28.2939 25.8319C28.6181 25.7055 28.8784 25.5694 29.1583 25.5062C29.4825 25.4332 29.507 25.2145 29.4481 24.9909C29.3842 24.7478 29.1632 24.7235 28.9422 24.7964C28.5984 24.918 28.2546 25.0444 27.8617 25.1853C27.8175 25.1173 27.7488 25.0103 27.6604 24.8742C27.8765 24.7527 28.0582 24.6214 28.2645 24.5437C28.5346 24.4367 28.5591 24.2277 28.4855 24.0187C28.3971 23.7853 28.1564 23.7707 27.955 23.8534C27.7291 23.9409 27.5228 24.0819 27.3067 24.2034C27.0268 23.7173 26.9826 23.5812 27.4983 23.3381C28.2055 23.0076 28.9029 22.643 29.6003 22.293C29.6642 22.3513 29.7428 22.3951 29.787 22.4631C30.3567 23.3819 30.9362 24.3055 31.4912 25.2339C32.2475 26.5027 33.0039 27.7714 33.7357 29.0499C34.0451 29.5944 34.3103 30.168 34.5509 30.7464C34.6344 30.9506 34.5804 31.2131 34.5902 31.4513L34.5952 31.461ZM31.0688 27.0277C30.9559 26.9499 30.8625 26.8332 30.7496 26.8138C30.3321 26.7409 30.0129 26.9839 29.7182 27.2124C29.6298 27.2805 29.62 27.5284 29.6642 27.6645C29.6986 27.7666 29.9196 27.9027 29.9932 27.8735C30.3174 27.7326 30.6219 27.543 30.9215 27.3534C30.9853 27.3145 31.0001 27.193 31.0688 27.0277ZM32.2819 30.7707C32.5226 30.6832 32.7927 30.6346 32.9941 30.4888C33.0972 30.4159 33.1561 30.0951 33.0874 30.0124C32.778 29.6332 32.4096 30.0027 32.0609 30.0124C31.9529 30.0124 31.7957 30.1388 31.7564 30.2409C31.6533 30.5326 31.8694 30.727 32.2819 30.7707Z" fill="#C0DAF0"/>
<path d="M28.8782 21.7343C28.775 21.8218 28.6817 21.9142 28.5737 21.9871C28.4656 22.0649 28.3526 22.1329 28.2299 22.1913C27.1199 22.7211 27.4981 22.8184 26.8203 21.7441C27.3802 21.4475 27.9352 21.151 28.4951 20.8496C28.6228 21.1461 28.7505 21.4378 28.8782 21.7343Z" fill="#222222"/>
<path d="M30.0508 28.4718C30.1294 28.0878 30.9103 27.7329 31.2295 27.9419C31.4554 28.0926 31.421 28.4038 31.1558 28.5545C30.8022 28.7586 30.4388 28.8461 30.0557 28.6225C30.0557 28.5739 30.0557 28.5204 30.0557 28.4718H30.0508Z" fill="#222222"/>
<path d="M8.15894 32.2539C8.15894 32.2539 8.15403 32.2879 8.14912 32.3074C8.11474 32.322 8.08036 32.3365 8.04598 32.356C8.04598 32.3365 8.03125 32.2977 8.03616 32.2977C8.07545 32.2831 8.11965 32.2685 8.15894 32.2588V32.2539Z" fill="#222222"/>
<path d="M17.6562 30.9411C17.6857 30.9217 17.7152 30.9023 17.7397 30.8828C17.7103 30.9023 17.6808 30.9217 17.6562 30.9411Z" fill="#222222"/>
<path d="M17.3633 31.1599C17.3927 31.1405 17.4222 31.121 17.4468 31.1016C17.4173 31.121 17.3878 31.1405 17.3633 31.1599Z" fill="#222222"/>
<path d="M9.84375 31.447C9.84375 31.447 9.88304 31.4081 9.90269 31.3887C9.88304 31.4081 9.8634 31.4276 9.84375 31.447Z" fill="#222222"/>
<path d="M7.28864 11.8857C6.90556 11.5211 6.5765 11.2197 6.25726 10.9038C6.09028 10.7385 5.88892 10.5586 6.10501 10.301C6.26709 10.1065 6.59615 10.1503 6.83189 10.3885C7.02834 10.5829 7.21497 10.7871 7.48018 11.069C7.48018 10.6704 7.47527 10.3788 7.48018 10.0822C7.4851 9.81487 7.59806 9.66903 7.90256 9.68362C8.14812 9.69334 8.21197 9.7857 8.21688 10.0142C8.22671 10.5781 8.266 11.1371 8.29546 11.769C8.40351 11.6864 8.47718 11.6426 8.53121 11.5794C8.875 11.2197 9.19424 10.8406 9.56258 10.5149C9.66081 10.4274 9.9604 10.4274 10.0734 10.51C10.2403 10.6315 10.2502 10.8406 10.0586 11.0301C9.77377 11.3072 9.52329 11.6135 9.20406 11.9732C9.69028 11.9732 10.1323 11.9732 10.5694 11.9732C10.6922 11.9732 10.8444 11.9246 10.9279 11.9829C11.0704 12.0753 11.2472 12.2163 11.2766 12.3572C11.3257 12.61 11.0851 12.7024 10.8739 12.7121C10.4614 12.7315 10.0439 12.7169 9.62643 12.7169C9.45454 12.7169 9.28755 12.7169 9.02725 12.7169C9.25317 12.9892 9.43489 13.2128 9.61661 13.4364C9.81306 13.6746 10.0046 13.9176 10.2011 14.1607C10.3484 14.3406 10.3975 14.5058 10.1814 14.676C9.98005 14.8364 9.80324 14.8072 9.64608 14.6225C9.33666 14.2579 9.03216 13.8885 8.72275 13.5239C8.63435 13.4169 8.53612 13.3197 8.43298 13.2031C8.43298 13.5579 8.42316 13.869 8.43298 14.1801C8.4428 14.4183 8.46736 14.6517 8.50174 14.8899C8.54103 15.1767 8.41334 15.3371 8.1383 15.3419C7.86327 15.3419 7.79451 15.1135 7.76995 14.8996C7.72575 14.5253 7.70119 14.1461 7.65699 13.66C7.45563 13.8447 7.28864 13.9663 7.15604 14.1169C6.93012 14.3649 6.7484 14.6565 6.49792 14.8704C6.38987 14.9628 6.11484 14.9822 5.99205 14.9093C5.77104 14.7781 5.80542 14.5301 5.96259 14.3503C6.42425 13.8253 6.89574 13.3149 7.43598 12.7169C7.0529 12.6975 6.73366 12.6829 6.41443 12.6683C6.10993 12.6586 5.80542 12.6683 5.50583 12.6343C5.25536 12.6051 5.08837 12.4301 5.13748 12.1676C5.1866 11.8906 5.41743 11.8517 5.66299 11.8663C6.13448 11.8954 6.60106 11.9149 7.07254 11.9392C7.10201 11.9392 7.13639 11.9246 7.27882 11.8906L7.28864 11.8857Z" fill="#222222"/>
<path d="M8.02841 17.7773C8.5883 17.8308 9.24642 17.8891 9.90453 17.962C10.3957 18.0204 10.6412 18.3023 10.6314 18.7884C10.6118 19.819 10.5872 20.8544 10.5577 21.885C10.543 22.303 10.1992 22.4051 9.8898 22.444C9.01067 22.5461 8.12172 22.6336 7.23768 22.6579C6.8546 22.6676 6.43714 22.5607 6.08352 22.3954C5.4647 22.1037 5.54819 21.4961 5.58257 20.9565C5.62186 20.4072 5.71026 19.8579 5.79867 19.3086C5.85269 18.9634 5.89689 18.6037 6.0295 18.2877C6.10317 18.1176 6.334 17.9329 6.52063 17.8988C6.97738 17.8162 7.45378 17.8113 8.02841 17.7725V17.7773ZM7.86142 21.8752C8.51463 21.8218 9.16783 21.7732 9.80631 21.7197V18.6669C9.2415 18.628 8.69635 18.5891 8.14628 18.5502H6.66306C6.53537 19.5176 6.41749 20.412 6.30453 21.3113C6.27998 21.5058 6.27998 21.7294 6.51081 21.7926C6.94792 21.919 7.39485 22.0502 7.85651 21.8752H7.86142Z" fill="#222222"/>
<path d="M7.66476 24.3643C8.372 24.4275 9.07431 24.4858 9.78155 24.5587C10.1401 24.5976 10.4102 24.8893 10.4102 25.2927C10.4102 26.3622 10.3807 27.4316 10.3365 28.5011C10.3169 28.924 9.92397 29.0018 9.60474 29.0406C8.78455 29.1427 7.95944 29.2448 7.13925 29.2497C6.69723 29.2497 6.24048 29.0844 5.80828 28.9483C5.47431 28.8413 5.34171 28.5059 5.37118 28.2045C5.4694 27.1254 5.5971 26.0462 5.74444 24.967C5.78864 24.6462 6.2061 24.4226 6.67759 24.4129C7.00665 24.4031 7.33571 24.4129 7.66476 24.4129C7.66476 24.3983 7.66476 24.3788 7.66476 24.3643ZM7.92506 25.1518C7.56163 25.1518 7.19328 25.1809 6.83475 25.1372C6.53516 25.0983 6.44676 25.2587 6.39764 25.4775C6.35344 25.6719 6.34362 25.8712 6.31415 26.0705C6.24048 26.6198 6.17172 27.1643 6.08823 27.7136C6.00474 28.2823 6.16681 28.4719 6.76108 28.4768C7.05085 28.4768 7.34553 28.4768 7.6353 28.467C8.29341 28.4087 8.95153 28.3504 9.59983 28.292V25.2538C9.03993 25.2198 8.48496 25.1858 7.92998 25.1469L7.92506 25.1518Z" fill="#222222"/>
<path d="M20.12 28.2434C19.0837 28.1996 18.0474 28.1608 17.0111 28.1121C16.24 28.0733 15.4738 28.0246 14.7028 27.9663C14.1773 27.9274 13.6517 27.8788 13.1311 27.8156C12.915 27.7864 12.807 27.6455 12.8316 27.4073C12.8561 27.1837 12.9691 27.0864 13.1852 27.101C13.8826 27.1448 14.5751 27.2031 15.2725 27.242C16.2842 27.2955 17.2959 27.3344 18.3077 27.3878C19.0395 27.4267 19.7713 27.4948 20.503 27.5288C20.7535 27.5385 20.95 27.6163 20.9451 27.8691C20.9451 28.1073 20.7633 28.2434 20.5178 28.258C20.3852 28.2677 20.2477 28.258 20.115 28.258C20.115 28.2531 20.115 28.2483 20.115 28.2434H20.12Z" fill="#222222"/>
<path d="M13.3974 25.608C13.1371 25.574 12.8768 25.5497 12.6165 25.5059C12.3562 25.4622 12.258 25.2434 12.3415 25.0636C12.4054 24.9275 12.6362 24.8108 12.8032 24.7913C13.0733 24.7622 13.3483 24.8302 13.6234 24.8497C14.9003 24.9226 16.1773 24.9955 17.4591 25.0684C17.6114 25.0781 17.7636 25.1365 17.9159 25.1365C18.1762 25.1365 18.3284 25.2094 18.3333 25.5011C18.3382 25.8073 18.132 25.8656 17.911 25.8608C17.4788 25.8559 17.0417 25.8268 16.6095 25.7927C16.1429 25.7538 15.6812 25.6712 15.2146 25.6566C14.6105 25.6323 14.0065 25.6518 13.4024 25.6518V25.6129L13.3974 25.608Z" fill="#222222"/>
<path d="M14.606 32.3165C14.5667 32.2825 14.4243 32.2096 14.3899 32.0978C14.3211 31.8985 14.3604 31.7089 14.5913 31.5825C15.0824 31.32 15.5588 31.0332 16.045 30.7707C16.1924 30.688 16.3593 30.5957 16.5165 30.5908C16.6196 30.5908 16.7768 30.7123 16.821 30.8193C16.8603 30.9068 16.8112 31.111 16.7326 31.1596C16.104 31.5582 15.4655 31.9325 14.8221 32.3117C14.7975 32.3262 14.7484 32.3117 14.606 32.3117V32.3165Z" fill="#222222"/>
<path d="M14.9595 30.8928C14.9398 30.9268 14.8907 31.0483 14.8023 31.1261C14.3799 31.4907 13.9527 31.8504 13.5008 32.181C13.4173 32.2442 13.1325 32.2101 13.103 32.1421C13.0342 31.9962 12.9851 31.724 13.0637 31.6462C13.5008 31.2282 13.9674 30.8393 14.4536 30.4747C14.6844 30.2997 14.9595 30.4942 14.9595 30.8928Z" fill="#222222"/>
<path d="M23.9968 9.51276C26.31 9.40096 28.6478 11.1996 29.3354 13.251C29.9247 15.001 29.802 16.6343 28.7362 18.1655C27.8325 19.4635 26.5114 20.1586 25.0085 20.4794C23.4074 20.8197 21.9095 20.46 20.6325 19.4489C19.4734 18.5301 18.7417 17.3343 18.4568 15.8468C18.1719 14.3544 18.4912 13.0273 19.3703 11.8412C20.2543 10.6454 21.4822 9.91624 22.9556 9.61971C23.2994 9.55165 23.653 9.54193 24.0017 9.5079L23.9968 9.51276ZM27.9504 17.869C29.1929 16.4933 29.3796 13.985 27.8669 12.1523C26.1627 10.0864 23.6284 9.6586 21.3643 11.0392C19.2082 12.3517 18.3782 14.719 19.8221 17.4315C19.9744 17.3197 20.1119 17.1593 20.2838 17.1058C20.4459 17.0572 20.6964 17.0572 20.8142 17.1544C20.9861 17.2857 20.9223 17.4947 20.7455 17.6405C20.5785 17.7767 20.4164 17.9176 20.3035 18.0148C20.4852 18.2385 20.6178 18.4037 20.77 18.5933C20.9468 18.3454 21.1187 18.1412 21.2366 17.9128C21.3839 17.6357 21.6197 17.728 21.8014 17.7815C21.8751 17.801 21.9095 18.0683 21.8898 18.219C21.8751 18.3454 21.767 18.4669 21.6884 18.5836C21.5853 18.7392 21.4773 18.8898 21.3741 19.0357C23.3485 20.4746 25.9417 19.8329 27.3119 18.5544C27.2432 18.3114 27.1204 18.0975 27.1498 17.9128C27.2235 17.4753 27.3708 17.0523 27.4838 16.6246C27.5624 16.3329 27.8816 16.1579 28.0633 16.3572C28.1763 16.4787 28.2156 16.7267 28.191 16.9017C28.1468 17.2322 28.029 17.5482 27.9455 17.869H27.9504Z" fill="#222222"/>
<path d="M12.2344 2.2941C12.2737 1.78854 12.5683 1.41424 13.1184 1.29271C13.2756 1.25868 13.4671 1.36563 13.6439 1.40938C14.2824 1.72535 14.3217 2.49826 13.7471 2.93576C13.1184 3.40729 12.4014 3.12049 12.2344 2.2941Z" fill="#222222"/>
<path d="M18.4431 5.03623C18.3596 5.12373 18.2761 5.27929 18.1484 5.32304C17.9913 5.37651 17.8046 5.37165 17.7113 5.13832C17.6278 4.93415 17.451 4.76887 17.3823 4.55985C17.3331 4.41401 17.343 4.20985 17.4117 4.0786C17.4461 4.01054 17.7064 3.98623 17.8145 4.04457C18.1779 4.23415 18.3252 4.58415 18.448 5.03623H18.4431Z" fill="#222222"/>
<path d="M31.0683 27.0327C30.9947 27.198 30.9848 27.3147 30.921 27.3584C30.6214 27.548 30.3169 27.7376 29.9928 27.8786C29.924 27.9077 29.6981 27.7716 29.6637 27.6695C29.6195 27.5334 29.6244 27.2855 29.7177 27.2175C30.0124 26.989 30.3316 26.7459 30.7491 26.8188C30.8621 26.8383 30.9554 26.955 31.0683 27.0327Z" fill="#222222"/>
<path d="M32.2776 30.7706C31.8651 30.7269 31.649 30.5324 31.7521 30.2408C31.7865 30.1387 31.9485 30.0123 32.0566 30.0123C32.4004 30.0026 32.7687 29.638 33.0831 30.0123C33.1518 30.0998 33.0929 30.4158 32.9897 30.4887C32.7884 30.6345 32.5183 30.6831 32.2776 30.7706Z" fill="#222222"/>
<path d="M8.15394 18.5498C8.70401 18.5887 9.24916 18.6276 9.81397 18.6665V21.7192C9.17058 21.7727 8.51738 21.8213 7.86908 21.8748C7.87399 21.3692 7.84944 20.8588 7.89855 20.3533C7.95258 19.7505 8.07045 19.1477 8.15885 18.5498H8.15394Z" fill="#C0DAF0"/>
<path d="M7.92824 25.1514C8.48322 25.1854 9.0382 25.2194 9.59809 25.2583V28.2965C8.94979 28.3548 8.29168 28.4132 7.63356 28.4715C7.609 28.2139 7.54024 27.9465 7.56971 27.6937C7.66794 26.843 7.80054 26.0021 7.92333 25.1562L7.92824 25.1514Z" fill="#C0DAF0"/>
<path d="M23.9218 17.8213C23.8579 17.9428 23.8137 18.04 23.7597 18.1275C23.5338 18.497 23.3079 18.8713 23.0672 19.231C22.9346 19.4303 22.7529 19.5956 22.4975 19.4303C22.2323 19.2602 22.2421 19.056 22.4288 18.8032C22.6989 18.4338 22.9052 18.0157 23.1851 17.656C23.2686 17.549 23.524 17.5296 23.691 17.5393C23.7745 17.5442 23.8481 17.7192 23.9218 17.8164V17.8213Z" fill="#222222"/>
<path d="M26.998 17.6406C26.7278 18.1073 26.497 18.5253 26.2465 18.9288C26.2072 18.992 26.0894 19.0357 26.0059 19.0455C25.6719 19.0843 25.4853 18.8316 25.6424 18.5253C25.8291 18.1607 26.0304 17.801 26.2613 17.4607C26.3251 17.3684 26.5314 17.3198 26.6542 17.3392C26.7671 17.3635 26.8604 17.5093 27.0029 17.6357L26.998 17.6406Z" fill="#222222"/>
<path d="M24.3067 19.3427C23.9334 19.3427 23.7959 19.0948 23.9678 18.7983C24.1495 18.4823 24.3411 18.1663 24.5719 17.8892C24.6456 17.8017 24.8911 17.792 25.0287 17.8406C25.122 17.8747 25.2448 18.108 25.2055 18.176C24.9992 18.5552 24.7536 18.9101 24.5081 19.2649C24.4639 19.3281 24.3411 19.333 24.3067 19.3427Z" fill="#222222"/>
</g>
<defs>
<clipPath id="clip0_329_3295">
<rect width="36" height="35" fill="white"/>
</clipPath>
</defs>
</svg>
