<svg width="41" height="35" viewBox="0 0 41 35" fill="none" xmlns="http://www.w3.org/2000/svg">
<g clip-path="url(#clip0_329_3436)">
<path d="M8.43312 24.7039C7.49138 24.7768 6.70011 24.5046 6.11274 23.7219C5.54477 22.9587 5.50594 22.0886 5.56419 21.1893C4.38943 20.9462 3.71953 20.2365 3.50594 19.0455C2.82147 19.1087 2.15157 19.0796 1.48167 18.8268C0.607881 18.4962 0.0884633 17.7087 0.0739002 16.8483C0.0593371 15.7643 -0.00862405 14.6803 0.00593906 13.5962C0.0205022 12.6094 0.170988 11.6421 0.637007 10.7428C0.937978 10.1692 1.904 9.62471 2.54477 9.69763C2.7438 9.72193 2.95254 9.72679 3.14672 9.69763C3.38943 9.65874 3.59817 9.61499 3.71953 9.29415C4.16613 8.09346 5.1904 7.59763 6.34574 7.47124C7.37972 7.35943 8.43798 7.42749 9.48652 7.45179C10.6419 7.48096 11.7972 7.58304 12.9574 7.59763C14.0788 7.61221 15.2001 7.52957 16.3215 7.53929C16.6419 7.53929 17.0156 7.66082 17.2584 7.85527C17.4962 8.04485 17.7147 8.09346 17.9817 8.09346C19.9283 8.06915 21.836 7.74346 23.7098 7.25735C26.3652 6.57193 28.8263 5.43443 31.0642 3.85457C31.9234 3.24693 32.705 2.52263 33.4962 1.82749C33.7001 1.65249 33.8652 1.40457 33.972 1.15665C34.2875 0.451792 34.8846 0.155265 35.5739 0.0337368C36.4283 -0.116958 37.0011 0.26707 37.2875 1.21013C37.4622 1.78374 37.5836 2.39138 37.5982 2.98929C37.6273 4.11221 37.5739 5.23513 37.5302 6.35804C37.5108 6.89763 37.3943 7.43721 37.3797 7.97679C37.3652 8.50665 37.4234 9.04138 37.472 9.57124C37.4817 9.64902 37.6079 9.74138 37.6953 9.78999C38.3652 10.1448 39.0642 10.4462 39.705 10.8448C40.5788 11.3893 41.137 12.0942 40.9428 13.2657C40.8263 13.9608 40.9768 14.6997 40.9914 15.4192C41.0108 16.3136 40.7195 17.1692 40.2195 17.8497C39.8166 18.4039 39.1079 18.7344 38.5205 19.1476C38.3749 19.2497 38.1953 19.3615 38.0254 19.3712C37.4671 19.4101 37.3554 19.8087 37.3749 20.2171C37.4234 21.3983 37.5448 22.5747 37.5982 23.7511C37.6564 25.1073 37.836 26.4636 37.3797 27.8053C37.069 28.7143 36.4525 29.2344 35.5642 29.3754C34.6904 29.5115 34.0642 29.0643 33.7487 28.0046C33.7001 27.8442 33.6516 27.6643 33.671 27.5039C33.7098 27.1685 33.5593 26.9594 33.3312 26.7504C31.103 24.6942 28.5642 23.1532 25.7098 22.1178C24.0982 21.5296 22.4428 21.1407 20.7632 20.8587C19.7632 20.6886 18.7341 20.6594 17.7195 20.606C17.1176 20.5719 16.8263 21.0872 16.8652 21.6803C16.9137 22.3997 16.8409 23.1289 16.7535 23.8483C16.6904 24.3539 16.2875 24.5775 15.8021 24.6261C15.5448 24.6504 15.4137 24.7525 15.4622 25.0247C15.5982 25.8268 15.7244 26.6289 15.87 27.4261C16.0302 28.3011 16.2341 29.1664 16.3846 30.0414C16.5885 31.2275 16.7487 32.4136 16.3749 33.6046C16.137 34.3678 15.5788 34.8004 14.8846 34.9219C14.1856 35.0435 13.4331 35.0143 12.7244 34.9025C11.7632 34.7469 11.1516 34.0226 10.7972 33.1914C10.3652 32.1803 10.0302 31.1157 9.75351 30.0462C9.35545 28.5053 9.04477 26.9449 8.68555 25.3942C8.63215 25.1657 8.5205 24.9518 8.42827 24.7087L8.43312 24.7039ZM38.0254 10.8254C37.8749 10.7428 37.7292 10.6553 37.5496 10.558C37.5496 10.8594 37.5496 11.0879 37.5496 11.3164C37.5496 11.3407 37.5496 11.3698 37.5496 11.3942V18.9872C37.9186 18.8122 38.2778 18.681 38.5982 18.4865C39.404 17.9955 40.103 17.4171 39.938 16.3185C39.938 16.1337 39.938 15.9442 39.938 15.7594C39.938 15.0837 39.938 14.4129 39.938 13.7372C39.938 13.5476 39.938 13.3629 39.938 13.1733C39.972 12.7018 39.8409 12.2837 39.5982 11.8803C39.2875 11.3553 38.7487 11.1754 38.2535 10.9275C38.1758 10.8935 38.0982 10.8594 38.0205 10.8303L38.0254 10.8254ZM9.65642 25.1073C9.6904 25.2143 9.71953 25.3212 9.75351 25.4282C9.91856 26.0212 10.0836 26.6143 10.2438 27.2073C10.2681 27.3386 10.2923 27.4747 10.3166 27.606C10.4817 28.2282 10.6419 28.8455 10.8069 29.4678C10.8506 29.6573 10.8943 29.8469 10.938 30.0365C11.0011 30.3039 11.0642 30.5712 11.1224 30.8386C11.1758 30.999 11.2292 31.1594 11.2778 31.315C11.3943 31.6018 11.5108 31.8935 11.637 32.1803C11.8603 32.7053 12.0836 33.2254 12.3069 33.7504C12.3603 33.8573 12.4186 33.9594 12.472 34.0664C12.5011 34.115 12.5254 34.2025 12.5642 34.2074C12.9089 34.2705 13.2535 34.3192 13.603 34.3678H14.4865C14.7244 34.4212 14.9089 34.3532 15.0788 34.1587C15.5351 33.6386 15.6516 33.0261 15.603 32.3601C15.603 32.2532 15.603 32.1462 15.603 32.0393C15.5788 31.6699 15.5836 31.3004 15.5302 30.9358C15.4428 30.3573 15.3118 29.7837 15.2001 29.2101C15.1758 29.0789 15.1467 28.9428 15.1224 28.8115C15.0642 28.515 15.0108 28.2185 14.9525 27.9219C14.904 27.7615 14.8603 27.6011 14.8118 27.4358C14.7001 26.7893 14.5836 26.1428 14.472 25.5011C14.472 25.3698 14.472 25.2337 14.472 25.1025V24.665H11.0302C10.9962 24.665 10.9622 24.665 10.9234 24.665C10.7632 24.6698 10.6079 24.6747 10.4477 24.6796C10.3943 24.6796 10.3457 24.6796 10.2923 24.6796C10.0302 24.6698 9.76807 24.6553 9.43798 24.6407C9.53021 24.8448 9.58361 24.9712 9.64186 25.0928L9.65642 25.1073ZM31.8894 4.19971C31.836 4.22888 31.7826 4.25804 31.7341 4.28721C31.6467 4.34068 31.5593 4.39415 31.4671 4.44763C30.2681 5.12818 29.069 5.80874 27.8652 6.48443C27.836 6.50388 27.8069 6.52332 27.7778 6.54763V6.54276C27.0545 6.84901 26.3312 7.1504 25.6079 7.45665C25.2729 7.55388 24.9331 7.64624 24.5982 7.74346C22.6322 8.30735 20.6516 8.76429 18.5933 8.82263C18.4331 8.82263 18.2729 8.82263 18.1127 8.82749C17.5496 8.79346 17.5448 8.79346 17.5496 9.33304C17.5593 10.3442 17.5739 11.3553 17.5933 12.3664C17.5933 12.658 17.6127 12.9497 17.6224 13.2462C17.6224 13.4115 17.6176 13.5719 17.6127 13.7372C17.6127 14.3546 17.6176 14.9719 17.6224 15.5844C17.6224 15.6914 17.6176 15.8032 17.6127 15.9101C17.6127 16.2067 17.6176 16.4983 17.6224 16.7948C17.6224 17.0087 17.6224 17.2275 17.6176 17.4414C17.6176 18.0879 17.6273 18.7296 17.6273 19.3761V19.9254H18.3506C18.7535 19.9546 19.1564 19.9789 19.5642 20.008L20.2001 20.0372L21.404 20.2025C21.7001 20.2511 22.0011 20.3046 22.2972 20.3532C22.6467 20.4261 22.9962 20.499 23.3506 20.5719C23.5885 20.6351 23.8312 20.6935 24.069 20.7567L24.9622 21.0532C25.1224 21.0921 25.2778 21.1261 25.438 21.165C25.7341 21.2719 26.0302 21.374 26.3263 21.481C26.4622 21.5296 26.5982 21.583 26.7341 21.6317C27.2972 21.8747 27.8603 22.1226 28.4234 22.3657C28.5836 22.4435 28.7487 22.5212 28.9088 22.599C29.4428 22.9004 29.9817 23.1969 30.5156 23.4983C30.705 23.6053 30.8943 23.7073 31.0836 23.8143C31.569 24.1594 32.0545 24.5046 32.5351 24.8449C32.6127 24.908 32.6953 24.9664 32.7729 25.0296C33.0351 25.2337 33.3021 25.433 33.637 25.6907C33.6856 25.4233 33.7341 25.2629 33.7389 25.1025C33.7632 23.4935 33.7778 21.8844 33.7875 20.2754C33.7972 18.958 33.7875 17.6455 33.7875 16.3282C33.7875 16.2893 33.7875 16.2553 33.7923 16.2164C33.7778 15.8712 33.7632 15.5261 33.7535 15.181C33.7535 15.0205 33.7584 14.865 33.7632 14.7046C33.7632 14.3789 33.7535 14.0532 33.7535 13.7275L33.7632 13.2511C33.7632 12.9254 33.7535 12.5997 33.7487 12.2789C33.7487 12.1719 33.7535 12.0698 33.7584 11.9629C33.7584 11.6372 33.7487 11.3164 33.7438 10.9907V10.3393C33.7438 9.69763 33.7438 9.0511 33.7438 8.40943C33.7438 8.19068 33.7438 7.97679 33.7487 7.75804C33.7487 7.46151 33.7487 7.16985 33.7438 6.87332C33.7438 6.76638 33.7487 6.65457 33.7535 6.54763C33.7535 5.9011 33.7535 5.25943 33.7535 4.6129C33.7535 4.47679 33.7535 4.34068 33.7584 4.20457C33.7584 3.90804 33.7535 3.61638 33.7487 3.31985C33.7584 3.13513 33.7632 2.94554 33.7778 2.64901C33.5156 2.87263 33.3506 3.01846 33.1807 3.15457C32.7487 3.50457 32.3118 3.84971 31.8749 4.19971L31.8797 4.19485L31.8894 4.19971ZM1.22439 17.1643C1.27293 17.3101 1.32147 17.4608 1.37002 17.6067C1.5739 17.8205 1.77778 18.0393 1.98652 18.2532C2.15157 18.3553 2.31176 18.4573 2.47681 18.5594C2.81176 18.5983 3.14672 18.6372 3.49138 18.6761C3.51565 18.5497 3.53507 18.5011 3.53507 18.4476C3.53507 15.7692 3.53021 13.0858 3.52536 10.4073V10.1108H2.65642C2.04963 10.0865 1.65642 10.4122 1.38943 10.9178C0.986522 11.6712 0.967104 12.5073 0.976813 13.324C0.981667 14.131 1.08361 14.9379 1.14186 15.7448L1.20497 16.0851L1.22924 17.1594L1.22439 17.1643ZM11.9283 21.1844C11.8943 21.1844 11.8603 21.1844 11.8215 21.1844C11.4186 21.1796 11.0156 21.1553 10.6176 21.1747C9.87487 21.2087 9.13701 21.2817 8.39914 21.306C7.96225 21.3205 7.52536 21.2525 7.08361 21.2428C6.48167 21.2282 6.48167 21.2428 6.64186 21.831C6.65157 21.8747 6.64186 21.933 6.62244 21.9768C6.42827 22.5067 7.1273 23.474 7.65642 23.7317C8.33604 24.0622 9.06419 24.1983 9.82633 24.1254C10.1176 24.1254 10.4137 24.1254 10.705 24.1254L12.3166 24.0428C12.5302 24.0136 12.7438 23.9893 12.9525 23.9601C13.7875 23.965 14.6224 23.965 15.4525 23.9796C15.6953 23.9796 15.8555 23.8921 15.8603 23.6442C15.87 22.8275 15.8603 22.0108 15.8603 21.2573C14.5011 21.233 13.2098 21.2087 11.9186 21.1844H11.9283ZM34.7778 22.4483C34.7778 22.7983 34.7778 23.1483 34.7778 23.4983C34.7681 23.508 34.7535 23.5178 34.7535 23.5226C34.7584 23.5421 34.7729 23.5615 34.7826 23.5761C34.7632 23.7317 34.7195 23.8872 34.7195 24.0428C34.7147 24.7428 34.7195 25.4428 34.7195 26.1476C34.7195 26.5268 34.6807 26.9108 34.7292 27.2851C34.7972 27.8101 34.87 28.3497 35.3069 28.7289C35.6322 29.0157 35.9331 28.9573 36.1322 28.583C36.5593 27.7858 36.5982 26.8962 36.6419 26.0358C36.6904 24.9712 36.6079 23.8969 36.5739 22.8275C36.5254 21.4129 36.4574 19.9983 36.4186 18.5837C36.4088 18.1317 36.4865 17.6796 36.4962 17.2275C36.5108 16.4935 36.4865 15.7594 36.4962 15.0303C36.5156 13.9317 36.5496 12.8379 36.5739 11.7393C36.603 10.1643 36.637 8.59415 36.6467 7.01915C36.6467 6.46013 36.5933 5.9011 36.5739 5.34207C36.5545 4.82679 36.5739 4.30665 36.5254 3.79624C36.4283 2.89207 36.3263 1.9879 36.1564 1.09832C36.0448 0.514987 35.5059 0.461515 35.2875 0.724015C35.0302 1.03513 34.7826 1.3511 34.7875 1.81776C34.8069 3.50457 34.7875 5.19138 34.7778 6.87332C34.7681 6.88304 34.7535 6.89276 34.7535 6.89763C34.7535 6.91707 34.7681 6.94138 34.7778 6.96082C34.7778 7.33513 34.7875 7.70943 34.7923 8.08374C34.7923 8.16638 34.7826 8.24415 34.7778 8.32679C34.7778 8.73026 34.7778 9.13374 34.7778 9.53721C34.7778 9.61985 34.7778 9.69763 34.7778 9.78027C34.7778 10.1303 34.7778 10.4803 34.7778 10.8254V11.0685C34.7875 11.4428 34.7923 11.8219 34.8021 12.1962C34.7972 12.2789 34.7875 12.3615 34.7826 12.4393L34.8021 14.374C34.7972 14.4567 34.7875 14.5344 34.7826 14.6171C34.7875 15.0205 34.7972 15.424 34.8021 15.8275C34.7972 15.9344 34.7923 16.0414 34.7826 16.1483C34.7826 18.1948 34.7826 20.2365 34.7826 22.283C34.7826 22.3365 34.7826 22.39 34.7826 22.4435L34.7778 22.4483ZM16.5739 11.0247C16.5739 10.9372 16.5739 10.8448 16.5739 10.7573C16.5739 10.208 16.5739 9.6636 16.5788 9.11429C16.5788 9.03165 16.5788 8.95388 16.5788 8.87124C16.5982 8.58443 16.6419 8.2879 16.2778 8.16638C16.1661 8.14207 16.0545 8.12263 15.938 8.09832C15.4817 8.12749 15.0205 8.15179 14.5642 8.18096C14.2972 8.18096 14.0351 8.18096 13.7681 8.18096C12.7729 8.15179 11.7826 8.12749 10.7875 8.09832C10.569 8.09832 10.3506 8.09832 10.1322 8.09832C9.17099 8.06915 8.20497 8.04485 7.2438 8.01568C6.78264 8.11777 6.32147 8.21985 5.86516 8.32193C5.60788 8.51638 5.2972 8.66707 5.10788 8.91013C4.55934 9.60527 4.55448 10.4754 4.43798 11.3067C4.43798 11.4185 4.44283 11.5303 4.44769 11.6372C4.44283 12.2789 4.43798 12.9254 4.43312 13.5671C4.43798 13.6789 4.44283 13.7858 4.45254 13.8976C4.45254 14.515 4.45254 15.1323 4.44769 15.7497C4.47196 15.808 4.49138 15.8664 4.51565 15.9198C4.51565 16.4789 4.5205 17.0379 4.52536 17.5969C4.53021 17.6796 4.53507 17.7671 4.53992 17.8497C4.55448 18.3893 4.41371 18.9483 4.7438 19.449C4.80206 19.5365 4.86031 19.624 4.91856 19.7115C5.05448 19.8282 5.17584 19.9886 5.33604 20.0615C5.76807 20.2511 6.15157 20.6205 6.68555 20.4455C6.68555 20.465 6.68555 20.4893 6.69526 20.5087C7.12244 20.5865 7.54963 20.6643 7.97681 20.7421H8.70982C9.16128 20.7372 9.61273 20.7275 10.0642 20.7226C10.2292 20.7226 10.3991 20.7275 10.5642 20.7323C11.2147 20.7129 11.8652 20.6983 12.5156 20.6692C13.0351 20.6448 13.5545 20.5865 14.069 20.5768C14.8749 20.5622 15.6758 20.5768 16.5302 20.5768C16.5593 19.4198 16.5933 18.2775 16.6224 17.1303C16.6224 17.0719 16.6224 17.0185 16.6224 16.9601L16.5885 16.1046V15.8129C16.5982 15.4969 16.603 15.181 16.6127 14.865C16.6127 14.8115 16.6224 14.758 16.6224 14.7046C16.6079 14.1407 16.5982 13.5768 16.5836 13.0129C16.5836 12.906 16.5836 12.799 16.5836 12.6969C16.5836 12.1428 16.5836 11.5837 16.5836 11.0296L16.5739 11.0247Z" fill="#222222"/>
<path d="M4.43538 15.7545C4.43538 15.1372 4.43538 14.5198 4.44023 13.9024C4.89169 13.6205 5.34314 13.3385 5.7946 13.0517C5.76547 13.0031 5.73635 12.9545 5.70722 12.9059C5.28004 13.1295 4.85285 13.3483 4.42081 13.5719C4.42567 12.9302 4.43052 12.2837 4.43538 11.642C4.70237 11.467 4.96936 11.2872 5.23149 11.1122L5.17324 11.0198C4.92081 11.117 4.67324 11.2142 4.42081 11.3066C4.53732 10.4753 4.54703 9.60521 5.09072 8.91007C5.28004 8.66701 5.59557 8.51632 5.848 8.32188C5.72664 8.5309 5.61013 8.73507 5.48877 8.9441C5.51305 8.97812 5.53246 9.00729 5.55674 9.04132C6.11499 8.70104 6.66839 8.3559 7.22664 8.01562C8.1878 8.04479 9.15382 8.0691 10.115 8.09826C9.68295 8.45799 9.24606 8.82257 8.81402 9.18229C8.78004 9.2066 8.7412 9.2309 8.70722 9.25521C8.71693 9.26493 8.72664 9.27951 8.73149 9.27951C8.77033 9.26007 8.80431 9.24062 8.83829 9.21632C9.48392 8.84201 10.1247 8.47257 10.7703 8.09826C11.7655 8.12743 12.7558 8.15174 13.7509 8.1809C13.6732 8.25382 13.6053 8.33646 13.5228 8.39479C12.8577 8.87118 12.1878 9.33785 11.5179 9.81424C11.5373 9.84826 11.5616 9.88229 11.581 9.91632C12.5713 9.33785 13.5567 8.75938 14.547 8.1809C15.0033 8.15174 15.4645 8.12743 15.9208 8.09826C15.7897 8.23924 15.6635 8.38021 15.5325 8.52604C15.547 8.54549 15.5616 8.56979 15.5762 8.58924C15.8043 8.44826 16.0325 8.30729 16.2606 8.16632C16.6247 8.28785 16.581 8.58438 16.5616 8.87118C16.0616 9.18229 15.5664 9.4934 15.0664 9.80938C15.0859 9.8434 15.1004 9.87257 15.1198 9.9066C15.6004 9.6441 16.081 9.3816 16.5616 9.11424C16.5616 9.66354 16.5616 10.208 16.5567 10.7573C16.047 11.0976 15.5325 11.4378 15.0228 11.7781C14.9596 11.8219 14.8917 11.8656 14.8286 11.9094C14.8431 11.9288 14.8577 11.9531 14.8723 11.9726C14.9402 11.924 15.0082 11.8802 15.0762 11.8316C15.5664 11.5594 16.0616 11.292 16.5519 11.0198C16.5519 11.574 16.5519 12.133 16.5519 12.6872C15.8674 13.1392 15.1878 13.5913 14.5033 14.0385C14.5276 14.0774 14.5567 14.1212 14.581 14.1601C15.2363 13.776 15.8965 13.3872 16.5519 13.0031C16.5664 13.567 16.5762 14.1309 16.5907 14.6948C16.5907 14.7483 16.581 14.8017 16.581 14.8552C16.5762 15.1712 16.5664 15.4872 16.5616 15.8031C16.1004 16.1288 15.6441 16.4545 15.1829 16.7802C15.1684 16.8045 15.1538 16.824 15.1344 16.8483C15.1635 16.8385 15.1878 16.8288 15.2169 16.8191C15.6635 16.576 16.1101 16.3378 16.5519 16.0948C16.5616 16.3816 16.5762 16.6635 16.5859 16.9503C16.5859 17.0087 16.5859 17.0622 16.5859 17.1205C16.5567 18.2677 16.5276 19.4101 16.4936 20.567C15.6393 20.567 14.8334 20.5573 14.0325 20.567C13.513 20.5767 12.9936 20.6351 12.4791 20.6594C11.8286 20.6885 11.1781 20.7031 10.5276 20.7226C10.6053 20.6205 10.6732 20.5135 10.7558 20.426C10.8868 20.2851 11.0276 20.1538 11.1684 20.0226C11.2024 20.0128 11.2412 19.9983 11.2752 19.9885C11.2703 19.9788 11.2558 19.9594 11.2558 19.9594C11.2266 19.9788 11.1927 19.9983 11.1635 20.0177C10.7849 20.251 10.4062 20.4844 10.0276 20.7177C9.57615 20.7226 9.1247 20.7323 8.67324 20.7372C8.70237 20.6545 8.73149 20.5719 8.76062 20.4941C9.348 20.1003 9.94023 19.7066 10.5276 19.3128C10.4985 19.2642 10.4694 19.2205 10.4354 19.1719C9.89654 19.5073 9.35285 19.8427 8.81402 20.1781C8.52275 20.3628 8.23149 20.5524 7.93538 20.7372C7.50819 20.6594 7.08101 20.5816 6.65382 20.5038C7.02275 20.2948 7.39169 20.0809 7.76062 19.8719C7.73149 19.8281 7.70237 19.7844 7.67809 19.7406C7.33343 19.974 6.98877 20.2122 6.64411 20.4455C6.11013 20.6205 5.72178 20.251 5.2946 20.0615C5.13441 19.9934 5.0179 19.833 4.87712 19.7115C5.65868 19.1719 6.44023 18.6323 7.21693 18.0878C7.28975 18.0538 7.36741 18.0198 7.44023 17.9906C7.42567 17.9663 7.4111 17.9372 7.4014 17.9128C7.32373 17.9566 7.25091 18.0052 7.17324 18.049C6.348 18.5156 5.52275 18.9823 4.70237 19.449C4.37712 18.9483 4.5179 18.3892 4.49848 17.8497C4.88683 17.6115 5.27518 17.3733 5.65868 17.1351C5.63926 17.101 5.61499 17.067 5.59557 17.033C5.22664 17.2177 4.85285 17.4073 4.48392 17.592C4.48392 17.033 4.47907 16.474 4.47421 15.9149C4.82373 15.6962 5.17809 15.4774 5.52761 15.2587C5.60043 15.2247 5.66839 15.1858 5.7412 15.1517C5.72178 15.1226 5.70722 15.0983 5.6878 15.0691C5.61499 15.1177 5.54703 15.1663 5.47421 15.2149C5.11984 15.3899 4.76062 15.5649 4.40625 15.7399L4.43538 15.7545ZM15.1393 8.73507C15.1587 8.76424 15.1732 8.7934 15.1927 8.82743L15.4499 8.63299C15.4499 8.63299 15.4208 8.59896 15.3917 8.56979C15.3092 8.62326 15.2218 8.6816 15.1393 8.73507ZM14.9742 8.92951C14.9742 8.92951 15.0276 8.91007 15.0373 8.89063C15.047 8.8809 15.0276 8.85174 15.0179 8.83229C14.9936 8.84201 14.9645 8.84688 14.9548 8.86632C14.9451 8.87604 14.9645 8.91007 14.9742 8.92951ZM14.3431 14.1795C14.3868 14.1941 14.4062 14.2038 14.4305 14.2087C14.4305 14.1844 14.4402 14.1601 14.4451 14.1358C14.416 14.1455 14.3868 14.1601 14.3431 14.1747V14.1795Z" fill="#FF7A00"/>
<path d="M34.7722 6.87332C34.777 5.18651 34.8013 3.49971 34.7819 1.81776C34.777 1.34624 35.0246 1.03513 35.2819 0.724014C35.5003 0.461514 36.0343 0.514986 36.1508 1.09832C36.3256 1.9879 36.4275 2.89207 36.5198 3.79624C36.5732 4.30665 36.5489 4.82679 36.5683 5.34207C36.5877 5.9011 36.646 6.46012 36.6411 7.01915C36.6314 8.59415 36.5974 10.1643 36.5683 11.7393C36.5489 12.8379 36.51 13.9317 36.4906 15.0303C36.4809 15.7643 36.5003 16.4983 36.4906 17.2275C36.4809 17.6796 36.4032 18.1317 36.413 18.5837C36.4518 19.9983 36.5198 21.4129 36.5683 22.8275C36.6023 23.8969 36.6897 24.9712 36.6363 26.0358C36.5974 26.8962 36.5537 27.7858 36.1265 28.583C35.9275 28.9573 35.6265 29.0108 35.3013 28.7289C34.8644 28.3448 34.7916 27.8053 34.7236 27.2851C34.6751 26.9108 34.7139 26.5268 34.7139 26.1476C34.7139 25.4476 34.7139 24.7476 34.7139 24.0428C34.7139 23.8872 34.7528 23.7317 34.777 23.5761C34.777 23.5469 34.777 23.5226 34.7722 23.4935C34.7722 23.1435 34.7722 22.7935 34.7722 22.4435C34.7722 22.39 34.7722 22.3365 34.7722 22.283C34.7722 20.2365 34.7722 18.1948 34.7722 16.1483C34.777 16.0414 34.7819 15.9344 34.7916 15.8275C34.7867 15.424 34.777 15.0205 34.7722 14.6171C34.777 14.5344 34.7867 14.4567 34.7916 14.374C34.7867 13.7275 34.777 13.0858 34.7722 12.4393C34.777 12.3567 34.7867 12.274 34.7916 12.1962C34.7819 11.8219 34.777 11.4428 34.7673 11.0685C34.7673 10.9858 34.7673 10.908 34.7673 10.8254C34.7673 10.4754 34.7673 10.1254 34.7673 9.78026C34.7673 9.69763 34.7673 9.61985 34.7673 9.53721C34.7673 9.13374 34.7673 8.73026 34.7673 8.32679C34.7673 8.24415 34.777 8.16638 34.7819 8.08374C34.7819 7.70943 34.7722 7.33512 34.7673 6.96082C34.7673 6.93165 34.7673 6.90249 34.7673 6.87332H34.7722Z" fill="#FF7A00"/>
<path d="M15.6084 32.37C15.6618 33.036 15.5404 33.6436 15.0841 34.1686C14.9142 34.363 14.7297 34.4311 14.4919 34.3776C14.6181 34.1297 14.7492 33.8818 14.8754 33.6339C14.8463 33.6047 14.8123 33.5707 14.7831 33.5415C14.3899 33.8186 14.0016 34.1005 13.6084 34.3776C13.2637 34.3242 12.9142 34.2755 12.5696 34.2172C12.5307 34.2123 12.5064 34.1248 12.4773 34.0762C12.6958 33.804 12.9094 33.5367 13.1278 33.2644C13.1812 33.2353 13.2346 33.211 13.288 33.1818C13.2977 33.1818 13.3074 33.1769 13.3171 33.1672C13.3171 33.1672 13.3171 33.1526 13.322 33.1478C13.3123 33.1575 13.2977 33.1672 13.288 33.1818C13.2346 33.2061 13.1812 33.2353 13.1278 33.2596C12.856 33.4248 12.5841 33.5901 12.3171 33.7603C12.0938 33.2353 11.8705 32.7151 11.6472 32.1901C11.5259 31.9033 11.4094 31.6117 11.288 31.3248C11.4336 31.1839 11.589 31.0429 11.7297 30.8922C11.8851 30.7221 12.021 30.5373 12.1666 30.3623C12.2006 30.3526 12.2346 30.3429 12.2734 30.3283C12.2686 30.3186 12.2589 30.3089 12.254 30.2992C12.2249 30.3186 12.1958 30.338 12.1666 30.3575C11.822 30.5179 11.4822 30.6832 11.1375 30.8436C11.0744 30.5762 11.0113 30.3089 10.953 30.0415C11.4142 29.6089 11.8705 29.1762 12.3317 28.7485C12.3414 28.7485 12.3511 28.7436 12.3608 28.7339C12.3608 28.7339 12.3608 28.7193 12.3657 28.7144C12.356 28.7242 12.3414 28.7339 12.3317 28.7485C12.2249 28.7873 12.1084 28.8165 12.0064 28.8651C11.6084 29.0644 11.2152 29.2735 10.822 29.4776C10.6569 28.8554 10.4967 28.238 10.3317 27.6158C10.7055 27.295 11.0744 26.9742 11.4482 26.6533C11.5016 26.6242 11.555 26.5998 11.6084 26.5707C11.555 26.595 11.5016 26.6242 11.4482 26.6485C11.055 26.838 10.6569 27.0276 10.2637 27.2172C10.0987 26.6242 9.93363 26.0311 9.77344 25.438C9.9579 25.2485 10.1424 25.0637 10.3268 24.8742C10.3802 24.8158 10.4336 24.7575 10.487 24.6992C10.6472 24.6943 10.8026 24.6894 10.9628 24.6846C10.9967 24.6846 11.0307 24.6846 11.0696 24.6846C12.2055 24.6846 13.3365 24.6846 14.5113 24.6846V25.1221C14.1666 25.3797 13.8171 25.6325 13.4725 25.8901L13.5404 25.9825C13.8657 25.8269 14.1861 25.6762 14.5113 25.5207C14.623 26.1672 14.7395 26.8137 14.8511 27.4554C14.4725 27.8005 14.0938 28.1408 13.7152 28.486C13.7395 28.5151 13.7637 28.5443 13.7831 28.5686C14.1861 28.3596 14.589 28.1457 14.987 27.9367C15.0453 28.2332 15.0987 28.5297 15.1569 28.8262C14.8365 29.0839 14.5113 29.3415 14.1909 29.5992L14.254 29.6721C14.5793 29.5262 14.9094 29.3755 15.2346 29.2297C15.3463 29.8033 15.4773 30.3769 15.5647 30.9554C15.623 31.32 15.6181 31.6894 15.6375 32.0589C15.4239 32.2485 15.2152 32.4332 15.0016 32.6228C15.2103 32.5401 15.4239 32.4623 15.6327 32.3797L15.6084 32.37Z" fill="#C0DAF0"/>
<path d="M38.2566 10.9277C38.7517 11.1757 39.2905 11.3555 39.6012 11.8805C39.8391 12.284 39.975 12.702 39.941 13.1736C39.509 13.5382 39.077 13.9027 38.6498 14.2673C38.674 14.2965 38.6983 14.3257 38.7226 14.3597C39.1255 14.1507 39.5333 13.9465 39.9362 13.7375C39.9362 14.4132 39.9362 15.084 39.9362 15.7597C39.6158 16.0805 39.3003 16.4013 38.9799 16.7222C38.9022 16.7757 38.8197 16.8291 38.742 16.8875C38.8245 16.834 38.9022 16.7805 38.9847 16.727C39.3003 16.5909 39.6158 16.4548 39.9313 16.3187C40.0964 17.4173 39.4022 17.9958 38.5915 18.4868C38.2711 18.6812 37.9119 18.8125 37.543 18.9875V11.3944C37.7808 11.2388 38.0187 11.0833 38.2566 10.9277Z" fill="#C0DAF0"/>
<path d="M9.65701 25.1122C9.60361 24.9907 9.54536 24.8643 9.45312 24.6602C9.78322 24.6747 10.0454 24.6845 10.3075 24.699C10.3075 24.7574 10.3075 24.8157 10.3026 24.874C10.0842 24.9567 9.8706 25.0345 9.65215 25.1171L9.65701 25.1122Z" fill="#C0DAF0"/>
<path d="M37.5469 11.3169V10.5586C37.7265 10.6607 37.877 10.7433 38.0226 10.826C37.8624 10.9864 37.7071 11.1516 37.5469 11.3121V11.3169Z" fill="#C0DAF0"/>
<path d="M34.7968 15.8281C34.7919 15.9351 34.7871 16.042 34.7773 16.149C34.7822 16.042 34.7871 15.9351 34.7968 15.8281Z" fill="#222222"/>
<path d="M34.7802 8.08887C34.7802 8.17151 34.7705 8.24928 34.7656 8.33192C34.7656 8.24928 34.7753 8.17151 34.7802 8.08887Z" fill="#222222"/>
<path d="M34.7968 12.2012C34.7919 12.2838 34.7822 12.3664 34.7773 12.4442C34.7822 12.3616 34.7919 12.2789 34.7968 12.2012Z" fill="#222222"/>
<path d="M33.7993 16.3335C33.7701 16.314 33.7362 16.2946 33.707 16.2752C33.741 16.2557 33.775 16.2411 33.8041 16.2217C33.8041 16.2606 33.8041 16.2946 33.7993 16.3335Z" fill="#222222"/>
<path d="M11.9271 21.1846L11.8737 21.2721C11.8543 21.2429 11.8397 21.2137 11.8203 21.1846C11.8543 21.1846 11.8883 21.1846 11.9271 21.1846Z" fill="#222222"/>
<path d="M34.7704 23.499C34.7704 23.5282 34.7704 23.5525 34.7752 23.5817C34.7655 23.5622 34.7509 23.5476 34.7461 23.5282C34.7461 23.5282 34.7607 23.5136 34.7704 23.5039V23.499Z" fill="#222222"/>
<path d="M34.7704 6.87402C34.7704 6.90319 34.7704 6.93236 34.7704 6.96152C34.7607 6.94208 34.7509 6.91777 34.7461 6.89833C34.7461 6.89347 34.7607 6.87888 34.7704 6.87402Z" fill="#222222"/>
<path d="M12.2188 22.7499C12.2479 22.7451 12.277 22.7353 12.3061 22.7305C12.2867 22.7451 12.2673 22.7645 12.2479 22.7791C12.2382 22.7694 12.2285 22.7596 12.2188 22.7499Z" fill="#C0DAF0"/>
</g>
<defs>
<clipPath id="clip0_329_3436">
<rect width="41" height="35" fill="white"/>
</clipPath>
</defs>
</svg>
