<svg width="35" height="35" viewBox="0 0 35 35" fill="none" xmlns="http://www.w3.org/2000/svg">
<g clip-path="url(#clip0_329_3178)">
<path d="M12.9171 27.9227C11.353 27.9227 9.78885 27.913 8.22471 27.9227C7.81436 27.9227 7.40402 27.947 6.99367 27.9908C6.89229 28.0005 6.75229 28.1074 6.71367 28.1998C5.98953 29.979 5.27505 31.7678 4.56057 33.5519C4.14057 34.6019 3.36333 35.0296 2.33022 34.9227C1.46609 34.8352 1.04609 33.8338 1.43229 32.8956C2.11298 31.2477 2.78402 29.5998 3.45505 27.947C2.17574 27.7185 1.70264 26.863 1.5385 25.8373C1.3985 24.9866 1.35022 24.1213 1.24884 23.2658C1.14264 22.4102 1.00746 21.5595 0.906086 20.7088C0.799879 19.829 0.727465 18.9442 0.626086 18.0644C0.524706 17.2088 0.394361 16.3581 0.283327 15.5026C0.181948 14.7248 0.095051 13.947 0.00332686 13.1692C-0.0642594 12.5616 0.350913 11.7352 0.867465 11.5165C1.5385 11.2296 2.35436 11.2977 2.76953 11.7498C3.11712 12.1338 3.24747 12.6102 3.31505 13.106C3.43574 14.0151 3.5516 14.929 3.65781 15.838C3.73505 16.4796 3.78816 17.1262 3.87022 17.7678C3.97643 18.6234 4.10195 19.4741 4.20816 20.3296C4.2854 20.947 4.33367 21.5741 4.4254 22.1915C4.53643 22.9255 4.65229 23.6595 4.82609 24.3838C4.92747 24.8067 5.32333 24.9477 5.71436 24.9817C6.09091 25.0158 6.47229 24.9866 6.83436 24.9866C6.6316 24.656 6.35643 24.3546 6.24057 23.9949C6.06195 23.4456 5.94126 22.8623 5.88333 22.2838C5.81091 21.5303 5.7916 20.7671 5.80609 20.004C5.8254 18.8567 5.91229 17.7046 5.9316 16.5574C5.94609 15.7408 5.86402 14.9192 5.8785 14.1026C5.89298 13.2421 6.02333 12.3915 6.6316 11.7255C6.90195 11.429 7.26885 11.2199 7.54402 11.006C7.25919 10.7921 6.86816 10.5442 6.53022 10.238C5.8254 9.58173 5.46816 8.74076 5.31367 7.79284C5.1785 6.93242 5.22195 6.09631 5.50195 5.26506C5.89298 4.09353 6.60264 3.23798 7.76609 2.77617C8.95367 2.30465 10.1268 2.26576 11.2419 2.91228C12.2799 3.51506 12.8978 4.48242 13.173 5.63937C13.5013 7.01992 13.3564 8.34701 12.4923 9.52826C12.2895 9.8102 12.0385 10.063 11.7778 10.2915C11.5268 10.5102 11.2371 10.6803 10.933 10.8942C11.0295 10.9526 11.1116 11.0158 11.2082 11.0546C12.0433 11.3998 12.6275 12.0463 13.1778 12.7317C13.6992 13.3783 14.1771 14.0637 14.7419 14.6665C15.0799 15.0262 15.553 15.2546 15.9778 15.5317C16.0551 15.5803 16.1709 15.5901 16.2675 15.5949C17.0495 15.5949 17.8316 15.6046 18.6137 15.5949C19.0433 15.5901 19.3861 15.7748 19.7192 16.013C19.8061 16.0762 19.9461 16.0956 20.0571 16.0908C21.0516 16.0421 22.0364 16.0227 22.8088 16.8345C23.1419 17.1894 23.2723 17.5831 23.1999 18.0595C23.1806 18.1713 23.1999 18.2928 23.1999 18.429H25.3482V14.9338C24.4116 14.7977 24.0882 14.4234 24.0978 13.4852C24.1219 9.80534 24.1461 6.12548 24.1702 2.44562C24.1702 2.01784 24.122 1.58034 24.1702 1.15742C24.2861 0.160896 24.7495 0.0977016 25.4544 0.0296461C26.1061 -0.0335484 26.7675 0.000479389 27.4192 0.0199238C28.2157 0.0393683 28.5826 0.447702 28.5826 1.27409C28.5826 6.84978 28.5778 12.4206 28.573 17.9963C28.573 18.1324 28.573 18.2734 28.573 18.4581C29.0219 18.4581 29.4564 18.4581 29.8861 18.4581C31.1075 18.4581 32.324 18.4435 33.5454 18.4484C33.8399 18.4484 34.1392 18.4678 34.424 18.5213C34.762 18.5894 34.9647 18.8713 34.9744 19.1776C35.0033 19.829 34.9744 20.4852 34.9309 21.1366C34.902 21.579 34.5785 21.8269 34.1826 21.8949C33.8737 21.9484 33.864 22.0991 33.864 22.3373C33.864 25.881 33.8688 29.4296 33.864 32.9734C33.864 33.547 33.753 34.0817 33.3137 34.4901C32.7923 34.9713 31.9137 35.2095 31.2137 34.7088C30.7985 34.4171 30.6585 33.9699 30.6537 33.4984C30.644 29.7651 30.6537 26.0366 30.6537 22.3033C30.6537 22.2012 30.6537 22.0991 30.6537 21.9727H16.6875C17.2668 22.5803 17.3778 23.2949 17.3778 24.0484C17.373 26.8192 17.3778 29.5852 17.3778 32.356C17.3778 33.022 17.2378 33.6539 16.7888 34.1546C16.4075 34.5776 15.9247 34.8255 15.3309 34.9324C14.6019 35.0588 14.0033 34.8644 13.5737 34.3345C13.284 33.9748 13.0571 33.4887 12.9992 33.0366C12.893 32.147 12.9123 31.2428 12.9123 30.3435C12.9123 29.5512 12.9461 28.754 12.9654 27.9616C12.9461 27.9421 12.9268 27.9227 12.9075 27.9081L12.9171 27.9227ZM11.4688 24.9963C11.604 24.9866 11.7392 24.9817 11.8744 24.972C12.0433 24.972 12.2171 24.9623 12.3861 24.9866C12.8785 25.0546 13.4095 25.0401 13.7282 25.5408C13.7523 25.5894 13.7764 25.638 13.8006 25.6817C13.8006 26.2262 13.8006 26.7755 13.8151 27.3199C13.8247 27.8158 13.873 28.3116 13.873 28.8074C13.873 29.731 13.844 30.6546 13.8247 31.5783C13.8247 31.6998 13.8247 31.8262 13.8247 31.9477C13.8247 32.1908 13.8054 32.4338 13.8151 32.6769C13.8682 33.5713 14.3557 34.3005 15.104 34.5289C15.2247 34.563 15.3744 34.563 15.4902 34.5192C15.9875 34.3491 16.2385 33.9748 16.3737 33.4692C16.6199 32.5699 16.5813 31.6609 16.4895 30.7519C16.4895 30.6109 16.4895 30.4699 16.4895 30.329C16.4702 30.1005 16.4364 29.8769 16.4316 29.6484C16.4219 29.1477 16.4123 28.6421 16.4316 28.1415C16.4606 27.4755 16.5426 26.8095 16.5668 26.1435C16.5909 25.4192 16.6151 24.6901 16.5571 23.9706C16.5185 23.4699 16.4268 22.9449 16.0744 22.5317C15.944 22.4394 15.8137 22.347 15.6833 22.2546C15.5916 22.1866 15.4999 22.0748 15.4033 22.0651C14.824 22.0067 14.2447 21.9727 13.6606 21.9338L12.8302 22.0019C12.4633 21.9776 12.0964 21.9533 11.7295 21.929C11.5702 21.8998 11.4109 21.8755 11.2516 21.8463C11.2226 21.7296 11.1792 21.6081 11.1744 21.4915C11.1599 21.122 11.1647 20.7574 11.1599 20.388C11.1599 20.2908 11.1599 20.1984 11.1599 20.1012C11.1599 19.8241 11.1599 19.547 11.1599 19.2748C11.1599 19.1387 11.1599 19.0026 11.1599 18.8665C11.1599 18.5894 11.1599 18.3074 11.1599 18.0303C11.1599 17.938 11.1599 17.8505 11.1599 17.7581C11.1599 17.3984 11.1599 17.0387 11.1744 16.6838C11.1792 16.5671 11.2226 16.4359 11.2951 16.3484C11.5316 16.0616 11.9082 16.0762 12.2268 16.3873C12.5937 16.747 12.9461 17.1213 13.3033 17.4908C13.3806 17.5637 13.4626 17.6317 13.5399 17.7046L14.1385 18.1616C14.2978 18.2296 14.4619 18.2977 14.6213 18.3706L15.804 18.5116C16.1033 18.5116 16.3978 18.5116 16.6971 18.5116C16.924 18.4921 17.1461 18.463 17.373 18.4533C17.7544 18.4435 18.1357 18.463 18.5219 18.4533C19.2123 18.4338 19.6033 17.6852 19.3233 16.922C19.2751 16.8248 19.2268 16.7276 19.1833 16.6303C19.0578 16.3581 18.8792 16.154 18.5702 16.1053C18.2902 16.081 18.0151 16.0567 17.7351 16.0373C17.2957 16.0616 16.8564 16.0859 16.4219 16.1102C16.2144 16.0859 16.0068 16.0665 15.804 16.0421C15.524 15.9546 15.2054 15.9255 14.9737 15.7699C14.4909 15.4491 14.0564 15.0651 13.5978 14.7053C13.5254 14.6081 13.453 14.5109 13.3854 14.4185C13.3371 14.331 13.3082 14.2241 13.2454 14.1512C12.724 13.5338 12.2075 12.9165 11.6619 12.3185C11.4447 12.0803 11.1551 11.9102 10.8992 11.7109C10.8075 11.6623 10.7157 11.6185 10.6288 11.5699C10.5661 11.5262 10.5082 11.463 10.4406 11.4435C9.63436 11.2102 8.8185 11.2442 8.01229 11.4435C7.57298 11.5505 7.25919 11.8324 7.02747 12.231C6.74264 12.7269 6.76678 13.2665 6.76678 13.806C6.75712 13.8741 6.74747 13.947 6.74264 14.0151C6.74264 14.5255 6.74264 15.031 6.74264 15.5415C6.74264 15.5901 6.74264 15.6387 6.74264 15.6873C6.75229 16.5185 6.76195 17.3498 6.7716 18.181C6.79091 18.2831 6.8054 18.3803 6.82471 18.4824C6.79091 19.0317 6.76195 19.581 6.72816 20.1303C6.72816 20.1352 6.74747 20.1449 6.75229 20.1498C6.73781 20.2421 6.7185 20.3394 6.70402 20.4317L6.69436 21.3116C6.69436 21.4526 6.69436 21.5984 6.69436 21.7394C6.69436 21.997 6.69436 22.2498 6.69436 22.5074C6.7185 22.5998 6.74264 22.6921 6.76678 22.7845C6.81022 23.256 6.94057 23.6935 7.22057 24.0776C7.29298 24.1796 7.3654 24.2817 7.44264 24.379C7.6985 24.5394 7.94953 24.6998 8.2054 24.8553C8.29712 24.8991 8.38884 24.9477 8.48057 24.9915C8.64953 25.0206 8.81367 25.0595 8.98264 25.0692C9.26747 25.0887 9.55712 25.1033 9.84195 25.0935C10.1944 25.079 10.5468 25.0303 10.904 24.9963C11.0875 25.0012 11.2757 25.0109 11.4592 25.0158L11.4688 24.9963ZM30.7985 21.4234H31.0833C31.5178 21.4234 31.9571 21.4234 32.3916 21.4234C32.5316 21.4234 32.6716 21.4234 32.8116 21.4234C33.1785 21.4234 33.5502 21.4234 33.9171 21.438C34.1392 21.4477 34.202 21.3602 34.1971 21.156C34.1875 20.6456 34.1875 20.1352 34.1826 19.6296C34.202 19.3963 34.2309 19.1533 33.9219 19.0755C33.8206 19.0512 33.7144 19.0074 33.613 19.0074C33.2751 19.0171 32.942 19.0609 32.6088 19.0609C32.1937 19.0609 31.7785 19.0269 31.3633 19.0123C31.064 19.0123 30.7695 19.0123 30.4702 19.0123H29.2923C29.133 19.0123 28.9737 19.0123 28.8144 19.0123H27.5737C27.5254 19.0123 27.4771 19.0123 27.4288 19.0123C26.9895 19.0123 26.5551 19.0123 26.1157 19.0123C25.7488 19.0123 25.382 19.0123 25.0151 19.0123C24.5999 19.0123 24.1847 19.0123 23.7695 19.0123C23.4461 19.0123 23.1275 19.0123 22.804 19.0123C22.3647 19.0123 21.9302 19.0123 21.4909 19.0074C21.3992 19.0074 21.3026 19.0074 21.2109 19.0074C20.7764 19.0074 20.3371 19.0074 19.9026 19.0123C19.6468 19.0123 19.3957 19.0123 19.1399 19.0123C18.7488 19.0123 18.3578 19.0123 17.9668 19.0123C17.6916 19.0123 17.4164 19.0123 17.1413 19.0123C16.7261 19.0123 16.3109 19.0123 15.8957 19.0074C15.7799 19.0074 15.664 19.0074 15.5482 19.0074C14.9978 18.9977 14.9978 18.9977 14.9978 19.5324C14.9978 19.8338 14.9882 20.1303 14.9833 20.4317C14.9833 20.7915 14.9785 21.1463 15.3406 21.3602C15.5482 21.404 15.7509 21.4477 15.9585 21.4963C16.2819 21.4769 16.6102 21.4477 16.9337 21.4428C17.5516 21.4331 18.1744 21.4331 18.7923 21.4283C19.1157 21.4283 19.4344 21.4283 19.7578 21.4283C20.173 21.4283 20.5882 21.4283 21.0033 21.4283C21.3702 21.4283 21.7371 21.4283 22.104 21.4283C23.0019 21.4283 23.9047 21.4283 24.8026 21.4283H25.2806C25.6716 21.4283 26.0675 21.4283 26.4585 21.4283H27.3516C28.2302 21.4283 29.104 21.4283 29.9826 21.4283C30.2578 21.4283 30.533 21.4283 30.8033 21.4234H30.7985ZM21.7613 16.9901C21.5633 16.7373 21.293 16.679 20.9937 16.7227H20.2213C20.2599 16.8685 20.2888 16.9949 20.3226 17.1213C20.2551 17.622 20.144 18.0984 19.6178 18.4533C20.2502 18.4533 20.7668 18.4533 21.2785 18.4533C21.3461 18.4533 21.4137 18.4533 21.4861 18.4533C21.6888 18.4533 21.8964 18.4824 22.0992 18.4484C22.2006 18.4338 22.3599 18.322 22.3695 18.2394C22.413 17.8699 22.384 17.5102 22.0413 17.2671C21.9495 17.1748 21.8578 17.0824 21.7661 16.9901H21.7613ZM26.3282 14.856C26.2992 14.8706 26.2751 14.8852 26.2461 14.8998C26.2364 15.4102 26.2316 15.9158 26.222 16.4262C26.222 16.4505 26.222 16.4796 26.222 16.504V18.4387C26.6516 18.4678 27.0233 18.4873 27.3902 18.5165C27.6461 18.5408 27.7475 18.4241 27.7378 18.181C27.7378 18.147 27.7378 18.1178 27.7378 18.0838C27.7378 17.7241 27.7378 17.3595 27.7378 16.9998C27.7378 16.9658 27.7378 16.9366 27.7378 16.9026C27.7378 16.5866 27.7378 16.2706 27.733 15.9546C27.733 15.9012 27.733 15.8428 27.733 15.7894V14.8512H26.3282V14.856ZM2.15643 33.6151C2.21919 33.7658 2.28195 33.9165 2.34471 34.0671C2.47988 34.4852 2.7985 34.6213 3.16057 34.4414C3.43574 34.3053 3.57091 34.0914 3.67712 33.8046C4.04402 32.8373 4.43988 31.8845 4.82609 30.922C5.19298 30.0081 5.56471 29.0942 5.92678 28.1755C5.95091 28.1123 5.89781 28.0199 5.88333 27.9421C5.76264 27.947 5.64678 27.9567 5.52609 27.9616C5.30884 27.9616 5.0916 27.9567 4.86953 27.9519C4.28057 27.9421 4.29505 27.9519 4.06333 28.4915C3.6385 29.4734 3.17988 30.4456 2.7454 31.4276C2.43643 32.1227 2.1516 32.8324 2.1516 33.6151H2.15643ZM31.513 27.7574C31.513 27.8352 31.513 27.9081 31.513 27.9859C31.513 28.3262 31.513 28.6713 31.5178 29.0116V29.1671C31.5178 29.5123 31.513 29.8526 31.513 30.1977C31.513 30.2463 31.513 30.2998 31.513 30.3484C31.5082 31.2477 31.4937 32.147 31.4985 33.0463C31.4985 33.2602 31.5516 33.4741 31.5757 33.6831C31.6385 33.8241 31.7013 33.9602 31.764 34.1012C32.1164 34.6067 32.6088 34.6505 32.8647 34.1838C32.9468 34.0331 33.0047 33.8435 33.0095 33.6685C33.0192 32.3706 33.0144 31.0776 33.0144 29.7796C33.0192 29.7602 33.024 29.7456 33.0144 29.7262C33.0144 28.9533 33.0144 28.1852 33.0144 27.4123C33.0192 27.3977 33.0192 27.3783 33.0144 27.3637V22.0165H31.513C31.513 22.6678 31.513 23.3046 31.513 23.9366C31.513 23.9901 31.513 24.0387 31.513 24.0921C31.513 25.3123 31.513 26.5373 31.513 27.7574ZM9.24815 10.7921C9.33988 10.7921 9.43643 10.8116 9.52333 10.7921C11.2951 10.4519 12.1351 9.35812 12.4199 7.68104C12.4199 7.52062 12.4199 7.35534 12.4199 7.19492L12.2847 5.70742L12.1399 5.22617C12.0916 5.09978 12.0626 4.96367 11.9951 4.84701C11.7199 4.35117 11.4544 3.84076 10.9185 3.56853C10.7785 3.47617 10.6385 3.38381 10.4985 3.29145C10.2185 3.20395 9.94333 3.11159 9.66333 3.02409C9.29643 3.0484 8.92471 3.0727 8.55781 3.09701C8.48057 3.11645 8.40333 3.13103 8.32609 3.15534C7.16264 3.53937 6.29367 4.74492 6.21643 5.74145C6.17298 5.90187 6.12953 6.06228 6.08609 6.21784C6.11022 6.61645 6.10057 7.01992 6.16333 7.40881C6.21643 7.74909 6.34195 8.07965 6.4385 8.41506C6.48195 8.5609 6.53022 8.70673 6.57367 8.85256C6.84402 9.22201 7.10953 9.58659 7.37988 9.95603C7.51022 10.1019 7.58747 10.3303 7.85298 10.2526C8.06057 10.3741 8.27298 10.4956 8.48057 10.6123C8.73643 10.6706 8.99229 10.7241 9.24333 10.7824L9.24815 10.7921ZM25.0778 14.0053L25.2757 14.1949C25.6523 14.4331 26.0482 14.3748 26.4488 14.2776C26.6564 14.2533 26.864 14.2338 27.0668 14.2095C27.2599 14.2387 27.453 14.2678 27.6799 14.297V8.44423C27.6799 7.48659 27.6799 6.53381 27.6799 5.57617C27.6799 5.46437 27.6799 5.35256 27.6799 5.24076C27.6799 4.58937 27.6799 3.93312 27.6799 3.28173C27.6799 3.16992 27.6799 3.05812 27.6799 2.94145C27.6799 2.48937 27.6799 2.03728 27.6944 1.5852C27.6992 1.35673 27.8585 1.11367 27.6171 0.914368C27.5254 0.841452 27.4385 0.768535 27.3468 0.700479C26.9509 0.685896 26.5551 0.666452 26.1592 0.651868C25.9564 0.627563 25.7585 0.603257 25.5557 0.578952C25.0923 0.57409 25.0006 0.656729 24.9957 1.10395C24.9957 2.01784 24.9957 2.93173 24.9957 3.84562C24.9957 3.96228 25.0488 4.07895 25.073 4.19562C25.073 4.30742 25.0682 4.42409 25.0633 4.5359C25.0392 4.95395 25.0054 5.37201 24.9957 5.79006C24.9957 5.99909 25.0392 6.20812 25.0633 6.41715L25.0006 6.82548C25.0006 7.13173 25.0006 7.44284 25.0006 7.74909C25.0199 7.84145 25.0392 7.93381 25.0585 8.02617C25.0392 8.58034 25.0199 9.13451 25.0006 9.68867C25.0199 9.80534 25.0392 9.92201 25.0585 10.0387C25.0344 10.1699 24.9957 10.306 24.9957 10.4373C25.0151 11.6234 25.044 12.8095 25.0682 13.9956L25.0778 14.0053ZM2.0116 12.1873C1.91988 12.1192 1.82333 12.0463 1.7316 11.9783C1.32126 11.8324 1.08953 11.9053 0.992982 12.2213C0.939879 12.406 0.891603 12.6053 0.906086 12.7901C1.00746 13.8206 1.12815 14.8463 1.24884 15.8769C1.38402 17.0387 1.52402 18.2005 1.65919 19.3623C1.77505 20.3345 1.89091 21.3019 2.00678 22.2741C2.14678 23.4602 2.28195 24.6512 2.41712 25.8373C2.47022 26.3234 2.64402 26.7755 3.0785 26.9991C3.47436 27.2033 3.92815 27.3199 4.36747 27.4026C4.62333 27.4512 4.90815 27.3637 5.1785 27.3345C5.52609 27.3345 5.86884 27.3345 6.21643 27.3345C6.6316 27.3345 7.04195 27.3345 7.45712 27.3345C7.59229 27.3345 7.73229 27.3345 7.86747 27.3345C8.2585 27.3345 8.65436 27.3345 9.0454 27.3345C9.29643 27.3345 9.54747 27.3345 9.7985 27.3345C10.2137 27.3345 10.6288 27.3345 11.044 27.3345C11.2951 27.3345 11.5509 27.3345 11.8019 27.3345H12.9751C12.9751 26.9116 12.9944 26.5178 12.9654 26.129C12.9461 25.8762 12.9123 25.5991 12.5309 25.5894C12.1833 25.5796 11.8406 25.4727 11.4978 25.4727C10.7254 25.4727 9.94816 25.5165 9.17574 25.5456C8.80884 25.5456 8.44195 25.5456 8.07505 25.5456C7.90609 25.5456 7.73712 25.5359 7.57298 25.5359C7.32678 25.5359 7.08057 25.5408 6.82953 25.5456C6.62195 25.5699 6.41919 25.5942 6.2116 25.6137C5.87367 25.5845 5.53091 25.5748 5.19298 25.5262C4.58953 25.4484 4.08264 25.147 3.94264 24.5491C3.73988 23.6838 3.64333 22.7894 3.51781 21.9046C3.40678 21.1123 3.33919 20.3199 3.23298 19.5276C3.10747 18.5845 2.94333 17.6463 2.82747 16.7033C2.69229 15.6192 2.61022 14.5303 2.47022 13.4463C2.41229 12.9991 2.35919 12.5227 2.00195 12.1727L2.0116 12.1873ZM14.2495 21.4283C13.9792 20.5776 14.0709 19.7609 14.3654 18.9588C13.3902 18.7838 12.7578 18.1324 12.1013 17.4616V21.5303C12.8206 21.4963 13.5157 21.4623 14.2447 21.4283H14.2495Z" fill="#222222"/>
<path d="M12.918 27.9219C12.918 27.9219 12.9566 27.9608 12.9759 27.9753C12.9566 27.9559 12.9373 27.9365 12.918 27.9219Z" fill="#C0DAF0"/>
<path d="M6.7737 20.1295C6.7737 20.1295 6.74473 20.115 6.74956 20.1101C6.77852 19.5608 6.81232 19.0115 6.84611 18.4622C7.35301 18.0879 7.8599 17.7136 8.37163 17.3441C8.38611 17.3247 8.39577 17.3101 8.41025 17.2907C8.38611 17.2907 8.35714 17.2907 8.33301 17.2955C7.82128 17.5823 7.30473 17.874 6.79301 18.1608C6.78335 17.3295 6.7737 16.4983 6.76404 15.667C6.76404 15.6184 6.76404 15.5698 6.76404 15.5212C6.76404 15.0108 6.76404 14.5052 6.76404 13.9948C6.7737 13.9268 6.78335 13.8539 6.78818 13.7858C6.78818 13.2462 6.76404 12.7115 7.04887 12.2108C7.27577 11.8122 7.59439 11.5302 8.0337 11.4233C8.8399 11.224 9.65094 11.1948 10.462 11.4233C10.5296 11.4427 10.5875 11.5059 10.6502 11.5497C10.4765 11.7004 10.3027 11.8511 10.124 12.0018C10.0854 12.0358 10.0516 12.0698 10.013 12.1039C9.97921 12.1184 9.94059 12.133 9.9068 12.1476C9.9068 12.1622 9.91645 12.1768 9.92128 12.1914C9.96956 12.1816 10.0178 12.1719 10.0661 12.1622C10.1047 12.1282 10.1385 12.0941 10.1771 12.0601C10.4282 11.9386 10.6792 11.817 10.9254 11.6955C11.1813 11.8948 11.4709 12.065 11.6882 12.3032C12.2337 12.8962 12.7502 13.5184 13.2716 14.1358C13.3344 14.2087 13.3682 14.3157 13.4116 14.4032C12.7985 14.8552 12.1902 15.3122 11.5771 15.7643C11.5289 15.7886 11.4806 15.8177 11.4371 15.842C11.4468 15.8566 11.4516 15.8761 11.4613 15.8907C11.5144 15.8664 11.5675 15.842 11.6206 15.8177C12.2868 15.4434 12.9578 15.0691 13.624 14.6948C14.0778 15.0545 14.5171 15.4434 14.9999 15.7594C15.2365 15.915 15.5502 15.9441 15.8302 16.0316C15.6565 16.2552 15.4778 16.4789 15.304 16.6976L15.3427 16.7705C15.7096 16.5469 16.0813 16.3233 16.4482 16.0997C16.8875 16.0754 17.3268 16.0511 17.7613 16.0268C17.4234 16.3816 17.0854 16.7365 16.7475 17.0914L16.8006 17.1643C17.3992 16.8094 17.9978 16.4545 18.5965 16.0997C18.9102 16.1483 19.0889 16.3573 19.2096 16.6295C19.0068 16.8289 18.804 17.0282 18.6061 17.2275C18.6206 17.2518 18.6399 17.2761 18.6544 17.3052C18.8861 17.1789 19.1178 17.0525 19.3544 16.9212C19.6296 17.6844 19.2385 18.433 18.553 18.4525C18.1716 18.4622 17.7902 18.4476 17.404 18.4525C17.1771 18.4573 16.9551 18.4914 16.7282 18.5108C16.9937 18.1705 17.2544 17.8351 17.5296 17.4802C17.4668 17.4948 17.3944 17.49 17.3461 17.524C16.9454 17.7573 16.5399 17.9858 16.1489 18.2337C16.033 18.3066 15.9413 18.4184 15.8399 18.5108C15.444 18.4622 15.053 18.4184 14.6571 18.3698C14.9516 18.0587 15.2461 17.7525 15.5358 17.4414C15.5165 17.417 15.502 17.3927 15.4827 17.3684C15.0482 17.6309 14.6089 17.8983 14.1744 18.1608C13.9765 18.0101 13.7737 17.8545 13.5758 17.7039C13.7061 17.5386 13.8365 17.3684 13.9668 17.2032C13.9813 17.1837 13.9958 17.1691 14.0054 17.1497C13.9861 17.1594 13.962 17.174 13.9427 17.1837C13.7399 17.2858 13.5371 17.3879 13.3344 17.4948C12.9771 17.1254 12.6247 16.7511 12.2578 16.3914C11.9392 16.0802 11.5627 16.0657 11.3261 16.3525C11.2537 16.44 11.2102 16.5761 11.2054 16.6879C11.1861 17.0476 11.1909 17.4025 11.1909 17.7622C10.9737 17.9323 10.7613 18.0976 10.544 18.2677C10.5054 18.3018 10.4668 18.3358 10.4282 18.3698C10.3896 18.3795 10.3509 18.3941 10.3171 18.4039C10.3171 18.4184 10.3268 18.433 10.3268 18.4476C10.3751 18.4379 10.4234 18.4282 10.4716 18.4184C10.5102 18.3844 10.544 18.3504 10.5827 18.3164L11.1861 18.0295C11.1861 18.3066 11.1861 18.5886 11.1861 18.8657C10.8047 19.1719 10.4282 19.483 10.0468 19.7893C10.0034 19.8184 9.95508 19.8427 9.91163 19.8719C9.92128 19.8865 9.93094 19.9011 9.93577 19.9205C9.98887 19.8962 10.042 19.8719 10.0951 19.8427C10.4571 19.6532 10.8192 19.4636 11.1861 19.274C11.1861 19.5511 11.1861 19.8282 11.1861 20.1004C10.9158 20.2948 10.6454 20.4941 10.3751 20.6886C10.3896 20.7177 10.4089 20.7469 10.4234 20.7712C10.6744 20.6448 10.9302 20.5136 11.1813 20.3872C11.1813 20.7566 11.1813 21.1212 11.1958 21.4907C11.1958 21.6122 11.244 21.7289 11.273 21.8455C10.9978 22.0886 10.7227 22.3365 10.4427 22.5795C10.462 22.6087 10.4765 22.6379 10.4958 22.6622C10.9109 22.4191 11.3309 22.1712 11.7461 21.9282C12.113 21.9525 12.4799 21.9768 12.8468 22.0011C12.5089 22.3073 12.1709 22.6087 11.833 22.915C11.7847 22.9393 11.7365 22.9636 11.6882 22.9879L11.7075 23.0414C11.7654 23.017 11.8234 22.9927 11.8813 22.9684C12.4751 22.6233 13.0737 22.2782 13.6675 21.9282C14.2468 21.9719 14.8309 22.0059 15.4102 22.0594C15.5068 22.0691 15.5985 22.1858 15.6902 22.249C15.3427 22.565 14.9951 22.8761 14.6427 23.192C14.7489 23.2261 14.8213 23.2066 14.8889 23.1677C15.2847 22.9539 15.6806 22.74 16.0765 22.5261C16.4289 22.9393 16.5158 23.4643 16.5592 23.965C16.6171 24.6844 16.593 25.4136 16.5689 26.1379C16.5447 26.8039 16.4675 27.4698 16.4337 28.1358C16.4096 28.6365 16.424 29.1372 16.4337 29.6427C16.4337 29.8712 16.4723 30.0948 16.4916 30.3233C16.2406 30.5372 15.9896 30.7559 15.7385 30.9698C15.7578 30.9941 15.7723 31.0184 15.7916 31.0476C16.0234 30.9504 16.2551 30.8483 16.4916 30.7511C16.5785 31.6601 16.622 32.5691 16.3758 33.4684C16.2358 33.974 15.9847 34.3434 15.4923 34.5184C15.3765 34.5573 15.222 34.5622 15.1061 34.5282C14.3578 34.2997 13.8702 33.5705 13.8171 32.6761C13.8027 32.433 13.8171 32.19 13.8268 31.9469C14.0827 31.7379 14.3385 31.5289 14.5944 31.3198C14.5751 31.2907 14.5558 31.2566 14.5365 31.2275C14.2999 31.3441 14.0634 31.4608 13.8268 31.5775C13.8461 30.6539 13.8702 29.7302 13.8751 28.8066C13.8751 28.3108 13.8316 27.815 13.8171 27.3191C13.8027 26.7747 13.8075 26.2254 13.8027 25.6809C13.9716 25.5254 14.1454 25.365 14.3144 25.2094C14.3482 25.1705 14.3868 25.1316 14.4206 25.0927C14.4061 25.083 14.3965 25.0684 14.382 25.0587C14.3434 25.0927 14.2999 25.1268 14.2613 25.1608C14.0827 25.2872 13.904 25.4136 13.7254 25.5448C13.4068 25.0441 12.8758 25.0587 12.3834 24.9907C12.2144 24.9664 12.0454 24.9809 11.8716 24.9761C12.2675 24.5872 12.6585 24.1983 13.0544 23.8143C13.0689 23.7948 13.0785 23.7802 13.093 23.7608C13.0689 23.7608 13.0399 23.7608 13.0158 23.7657C12.562 24.0282 12.1082 24.2907 11.6544 24.5532C11.4082 24.6941 11.1571 24.8351 10.9109 24.9809C10.5585 25.015 10.2061 25.0636 9.84887 25.0782C9.56404 25.0927 9.27921 25.0782 8.98956 25.0539C8.82059 25.0441 8.65645 25.0052 8.48749 24.9761C8.69025 24.7914 8.88818 24.6066 9.09094 24.4268C9.30818 24.2469 9.52059 24.0622 9.73783 23.8823C9.75232 23.8629 9.76197 23.8434 9.77646 23.824C9.75232 23.8337 9.72818 23.8434 9.70404 23.8483C9.37094 24.0427 9.03783 24.2323 8.70473 24.4268C8.54059 24.5629 8.37646 24.699 8.21232 24.8351C7.95646 24.6747 7.70542 24.5143 7.44956 24.3587C7.84542 24.0136 8.24128 23.6733 8.63714 23.3282C8.6468 23.3087 8.65645 23.2844 8.67094 23.265C8.6468 23.2747 8.62266 23.2795 8.5937 23.2893C8.1399 23.5469 7.68128 23.7997 7.22749 24.0573C6.94749 23.6733 6.81714 23.2358 6.7737 22.7643C7.07301 22.5358 7.37232 22.3122 7.67645 22.0837C7.68611 22.0643 7.69577 22.04 7.71025 22.0205C7.68611 22.0205 7.65714 22.0205 7.63301 22.0205C7.32404 22.1761 7.01508 22.3316 6.71094 22.4872C6.71094 22.2295 6.71094 21.9768 6.71094 21.7191C7.14542 21.3691 7.57508 21.0191 8.00956 20.6643C7.99025 20.6302 7.96611 20.6011 7.9468 20.567C7.53645 20.8101 7.12128 21.0483 6.71094 21.2914C6.71094 20.9997 6.71577 20.708 6.72059 20.4115C7.01508 20.1976 7.30956 19.9886 7.60404 19.7795C7.61852 19.7601 7.62818 19.7407 7.64266 19.7212C7.61852 19.7309 7.59439 19.7358 7.56542 19.7455C7.2999 19.8768 7.03439 20.0032 6.76887 20.1344L6.7737 20.1295Z" fill="#FF7A00"/>
<path d="M26.108 19.0167C26.5473 19.0167 26.9818 19.0167 27.4211 19.0167H27.5659C27.9811 19.0167 28.3915 19.0167 28.8066 19.0167C28.6377 19.1625 28.4639 19.3132 28.2949 19.4591L28.3866 19.5709C28.6859 19.3861 28.9853 19.2014 29.2894 19.0167C29.6804 19.0167 30.0763 19.0167 30.4673 19.0167C30.168 19.3375 29.8639 19.6535 29.5646 19.9743L29.6322 20.0667C30.2066 19.7167 30.7859 19.3667 31.3604 19.0118C31.7756 19.0313 32.1908 19.0604 32.6059 19.0604C32.939 19.0604 33.277 19.0167 33.6101 19.007C33.7115 19.007 33.8177 19.0507 33.919 19.075C33.5811 19.4736 33.2432 19.8674 32.9004 20.266C32.9149 20.2757 32.9294 20.2903 32.9439 20.3C33.3542 20.0764 33.7694 19.8528 34.1797 19.6292C34.1797 20.1396 34.1797 20.65 34.1942 21.1556C34.1942 21.3597 34.1363 21.4521 33.9142 21.4375C33.5473 21.4181 33.1804 21.4229 32.8087 21.4229C32.9004 21.2674 32.9921 21.1118 33.0839 20.9514C32.8521 21.107 32.6204 21.2625 32.3887 21.4181C31.9542 21.4181 31.5149 21.4181 31.0804 21.4181C31.2156 21.2188 31.3508 21.0195 31.4859 20.8202C31.6742 20.6111 31.8577 20.3972 32.0459 20.1882C32.0749 20.1785 32.1087 20.1688 32.1377 20.1591C32.1328 20.1493 32.1184 20.1347 32.1184 20.1347C32.0942 20.1493 32.0653 20.1688 32.0411 20.1834C31.6018 20.4264 31.1528 20.6646 30.7232 20.9174C30.4625 21.0681 30.2211 21.2528 29.9749 21.4229C29.0963 21.4229 28.2225 21.4229 27.3439 21.4229C27.4742 21.2577 27.6094 21.0972 27.7397 20.932C27.8846 20.7521 28.0342 20.5722 28.179 20.3924C28.208 20.3827 28.2418 20.3729 28.2708 20.3632C28.2659 20.3535 28.2515 20.3389 28.2515 20.3389C28.2273 20.3535 28.1984 20.3729 28.1742 20.3875C27.788 20.6014 27.4018 20.8104 27.0204 21.0292C26.8225 21.1459 26.639 21.2868 26.4508 21.4181C26.0597 21.4181 25.6639 21.4181 25.2728 21.4181C25.4273 21.2285 25.5818 21.0438 25.7315 20.8542C25.7122 20.8299 25.6928 20.8104 25.6735 20.7861C25.379 20.9952 25.0846 21.2091 24.7901 21.4181C23.8921 21.4181 22.9894 21.4181 22.0915 21.4181C22.4053 21.0195 22.719 20.6257 23.0908 20.1591C22.9266 20.232 22.8301 20.2611 22.748 20.3097C22.2122 20.6209 21.6763 20.9368 21.1453 21.2528C21.0825 21.2917 21.0439 21.3646 20.9908 21.4181C20.5756 21.4181 20.1604 21.4181 19.7453 21.4181C19.9142 21.2188 20.0784 21.0195 20.2425 20.8202C20.4018 20.6306 20.5563 20.4361 20.7156 20.232C20.7156 20.232 20.7156 20.232 20.7108 20.2417C20.7204 20.2417 20.7301 20.2368 20.7349 20.232C20.7349 20.232 20.7349 20.2222 20.7397 20.2125C20.7349 20.2125 20.7253 20.2125 20.7156 20.2271C20.3149 20.4604 19.9094 20.6743 19.5232 20.9028C19.2673 21.0535 19.0259 21.2382 18.7797 21.4084C18.1618 21.4084 17.539 21.4084 16.9211 21.4229C16.5928 21.4278 16.2694 21.457 15.9459 21.4764C16.0184 21.3743 16.0763 21.2625 16.1584 21.175C16.4046 20.9028 16.6653 20.6403 16.9163 20.3778C16.9259 20.3778 16.9356 20.3729 16.9404 20.3632C16.9404 20.3632 16.9404 20.3486 16.9404 20.3438C16.9308 20.3535 16.9211 20.3632 16.9115 20.3729C16.3901 20.6597 15.8639 20.9514 15.3473 21.2431C15.328 21.2528 15.3328 21.3063 15.3232 21.3403C14.9563 21.1264 14.9611 20.7667 14.9659 20.4118C14.9659 20.1104 14.9804 19.8139 14.9804 19.5125C14.9804 18.9778 14.9804 18.9778 15.5308 18.9875C15.6466 19.1771 15.7625 19.0313 15.8784 18.9875C16.2935 18.9875 16.7087 18.9875 17.1239 18.9924C16.9163 19.2646 16.7039 19.5368 16.4963 19.8091C16.4528 19.8334 16.4094 19.8577 16.3611 19.882C16.3563 19.8917 16.3515 19.9014 16.3466 19.9111C16.3466 19.9014 16.3563 19.8917 16.3611 19.882L16.5011 19.8188C16.9839 19.5417 17.4666 19.2646 17.9446 18.9924C18.3356 18.9924 18.7266 18.9924 19.1177 18.9924C19.0018 19.1528 18.8859 19.3132 18.7701 19.4736C18.5866 19.6584 18.4032 19.8382 18.2197 20.0229C18.1908 20.0327 18.1618 20.0424 18.1328 20.0521C18.1377 20.0618 18.1522 20.0764 18.1522 20.0764C18.1763 20.0618 18.2053 20.0424 18.2294 20.0278C18.4804 19.8917 18.7315 19.7507 18.9873 19.6146C19.2866 19.4104 19.5859 19.2014 19.8901 18.9972C20.3246 18.9972 20.7639 18.9972 21.1984 18.9924C21.2901 18.9924 21.3866 18.9924 21.4784 18.9924C21.9177 18.9924 22.3522 18.9924 22.7915 18.9972C22.4584 19.3472 22.1204 19.7021 21.7873 20.0521C21.8115 20.0861 21.8308 20.1202 21.8549 20.1542C22.4873 19.7702 23.1246 19.3813 23.757 18.9972C24.1722 18.9972 24.5873 18.9972 25.0025 18.9972C24.6549 19.3861 24.3122 19.775 23.9646 20.1639C23.9839 20.1931 24.008 20.2174 24.0273 20.2466C24.7177 19.8285 25.408 19.4153 26.1032 18.9972L26.108 19.0167Z" fill="#C0DAF0"/>
<path d="M10.9282 3.56793C11.4641 3.84015 11.7248 4.35056 12.0048 4.8464C12.0724 4.96306 12.1013 5.09918 12.1496 5.22556C11.4979 5.7457 10.8462 6.2707 10.1993 6.79084C10.1606 6.82487 10.122 6.86376 10.0882 6.89779C10.0496 6.90751 10.011 6.91723 9.97237 6.92209L9.98685 6.96584C10.0303 6.95126 10.0737 6.93668 10.1172 6.92209C10.1558 6.89293 10.1944 6.86376 10.2379 6.83459C10.3393 6.79084 10.4455 6.75195 10.542 6.69848C11.131 6.36793 11.7151 6.03737 12.2993 5.70681C12.3427 6.20265 12.3862 6.69848 12.4344 7.19431C11.9806 7.56862 11.522 7.94293 11.0682 8.31723C11.0875 8.3464 11.102 8.37556 11.1213 8.40473C11.5606 8.16168 11.9951 7.92348 12.4344 7.68043C12.1496 9.35751 11.3096 10.4513 9.53788 10.7915C9.45099 10.8061 9.35443 10.7915 9.26271 10.7915C9.33512 10.6943 9.39305 10.5825 9.47995 10.4999C9.76961 10.2131 10.0641 9.94084 10.3586 9.66376C10.3441 9.64431 10.3296 9.62487 10.32 9.60543C9.71168 9.9457 9.10823 10.286 8.49995 10.6263C8.29237 10.5047 8.07995 10.3832 7.87237 10.2665C8.43237 9.79501 8.99237 9.32834 9.55719 8.85681C9.53305 8.82279 9.50892 8.78876 9.48961 8.75473C8.79443 9.1582 8.09926 9.56168 7.40409 9.96515C7.13374 9.5957 6.86823 9.23112 6.59788 8.86168C6.98409 8.57487 7.37995 8.29293 7.76133 7.9964C8.04133 7.77765 8.30685 7.54431 8.58202 7.31584C8.56271 7.28668 8.5434 7.25751 8.51926 7.22834C7.83374 7.62695 7.1434 8.02556 6.45788 8.42418C6.36133 8.08876 6.23581 7.7582 6.18271 7.41793C6.11995 7.02418 6.12961 6.62556 6.10547 6.22695C6.4965 5.92556 6.88754 5.62418 7.27857 5.32765C7.24961 5.28876 7.22547 5.24987 7.1965 5.21098C6.87788 5.39084 6.55926 5.5707 6.24064 5.75056C6.31788 4.75404 7.19168 3.54362 8.3503 3.16445C8.42754 3.14015 8.50478 3.12556 8.58202 3.10612C8.27306 3.46584 7.95926 3.83043 7.57788 4.27279C7.80478 4.15126 7.95443 4.07834 8.09443 3.9957C8.62547 3.67973 9.1565 3.35404 9.68754 3.0332C9.96754 3.1207 10.2427 3.21306 10.5227 3.30056C9.9965 3.75265 9.4703 4.20473 8.94409 4.65681C8.95857 4.68112 8.97306 4.71029 8.98754 4.73459C9.2434 4.58876 9.50409 4.45265 9.75995 4.30195C10.1558 4.06376 10.5517 3.8207 10.9427 3.57765L10.9282 3.56793Z" fill="#FF7A00"/>
<path d="M31.5163 30.192C31.5163 29.8469 31.5163 29.5066 31.5163 29.1614C31.5163 29.108 31.5163 29.0594 31.5163 29.0059C31.5163 28.6656 31.5163 28.3205 31.5115 27.9802C31.5115 27.9024 31.5115 27.8295 31.5115 27.7517C31.5115 26.5316 31.5115 25.3066 31.5115 24.0864C31.5115 24.033 31.5115 23.9844 31.5115 23.9309V22.0107H33.0129V27.358C33.0129 27.358 32.9743 27.3725 32.9598 27.3823C32.9791 27.392 32.9984 27.3969 33.0129 27.4066C33.0129 28.1795 33.0129 28.9475 33.0129 29.7205C32.9936 29.7302 32.9743 29.735 32.9598 29.7448C32.9791 29.7545 32.9936 29.7642 33.0129 29.7739C33.0129 31.0719 33.0177 32.3649 33.008 33.6628C33.008 33.8378 32.9501 34.0274 32.8632 34.1781C32.6074 34.6448 32.1149 34.601 31.7625 34.0955C31.9363 33.8913 32.1149 33.692 32.2887 33.4878C32.2646 33.4635 32.2405 33.4392 32.2115 33.4149C31.9991 33.5024 31.7818 33.5899 31.5694 33.6774C31.5405 33.4635 31.4922 33.2545 31.4922 33.0406C31.4922 32.1413 31.5018 31.242 31.5067 30.3427C31.5067 30.2941 31.5067 30.2406 31.5067 30.1871L31.5163 30.192Z" fill="#C0DAF0"/>
<path d="M27.7385 18.1854C27.7482 18.4284 27.642 18.5451 27.3909 18.5208C27.0192 18.4867 26.6475 18.4673 26.2227 18.443C26.2227 17.7916 26.2227 17.1499 26.2227 16.5083C26.2227 16.484 26.2227 16.4548 26.2227 16.4305C26.2323 15.9201 26.2371 15.4145 26.2468 14.9041C26.2758 14.8895 26.2999 14.8749 26.3289 14.8604H27.7337C27.7337 15.2055 27.7337 15.502 27.7337 15.7985C27.7337 15.852 27.7337 15.9104 27.7337 15.9638C27.7337 16.2798 27.7337 16.5958 27.7337 16.9117C27.7337 16.9458 27.7337 16.9749 27.7337 17.009C27.7337 17.3687 27.7337 17.7333 27.7337 18.093C27.7337 18.127 27.7337 18.1562 27.7337 18.1902L27.7385 18.1854Z" fill="#C0DAF0"/>
<path d="M20.9891 16.7266C21.2885 16.6829 21.5588 16.7363 21.7567 16.994C21.5781 17.2079 21.3947 17.4169 21.216 17.6308C21.2305 17.6405 21.2402 17.6551 21.2547 17.6648C21.5153 17.5336 21.776 17.4023 22.0367 17.2711C22.3795 17.5141 22.4085 17.8738 22.365 18.2433C22.3554 18.3259 22.196 18.4377 22.0947 18.4523C21.8967 18.4863 21.6891 18.4572 21.4816 18.4572C21.414 18.4572 21.3464 18.4572 21.274 18.4572H19.6133C20.1395 18.0975 20.2505 17.6211 20.3181 17.1252C20.5402 16.994 20.7671 16.8579 20.9891 16.7266Z" fill="#C0DAF0"/>
<path d="M18.7852 19.4979C18.901 19.3374 19.0169 19.177 19.1327 19.0166C19.3886 19.0166 19.6396 19.0166 19.8955 19.0166C19.5962 19.2208 19.2969 19.4298 18.9927 19.634C18.9252 19.5902 18.8527 19.5416 18.7852 19.4979Z" fill="#C0DAF0"/>
<path d="M9.10128 24.4219C8.89852 24.6066 8.70059 24.7913 8.49783 24.9712C8.4061 24.9274 8.31438 24.8788 8.22266 24.8351C8.38679 24.699 8.55093 24.5628 8.71507 24.4267C8.84541 24.4267 8.97093 24.4267 9.10128 24.4267V24.4219Z" fill="#C0DAF0"/>
<path d="M30.8008 21.4231C30.8442 21.0731 31.0566 20.8884 31.4911 20.8252C31.356 21.0245 31.2208 21.2238 31.0856 21.4231H30.8008Z" fill="#C0DAF0"/>
<path d="M19.3459 16.9167C19.1142 17.0431 18.8825 17.1694 18.6459 17.3007C18.6314 17.2764 18.6121 17.2521 18.5977 17.2229C18.8004 17.0236 19.0032 16.8243 19.2011 16.625C19.2494 16.7222 19.2977 16.8194 19.3411 16.9167H19.3459Z" fill="#C0DAF0"/>
<path d="M11.6653 24.5488C11.6026 24.6995 11.5398 24.8454 11.477 24.996C11.2936 24.9912 11.1053 24.9815 10.9219 24.9766C11.1681 24.8356 11.4191 24.6947 11.6653 24.5488Z" fill="#C0DAF0"/>
<path d="M32.3867 21.4178L33.0819 20.9512C32.9902 21.1067 32.8984 21.2623 32.8067 21.4227C32.6667 21.4227 32.5267 21.4227 32.3867 21.4227V21.4178Z" fill="#C0DAF0"/>
<path d="M13.7344 25.5403C13.913 25.4139 14.0916 25.2875 14.2702 25.1562C14.2847 25.1757 14.304 25.1903 14.3185 25.2097C14.1495 25.3653 13.9758 25.5257 13.8068 25.6813C13.7827 25.6326 13.7585 25.584 13.7344 25.5403Z" fill="#C0DAF0"/>
<path d="M15.8906 19.0117C15.7747 19.0555 15.6588 19.2013 15.543 19.0117C15.6588 19.0117 15.7747 19.0117 15.8906 19.0117Z" fill="#222222"/>
<path d="M6.77804 13.791C6.76839 13.8591 6.75873 13.932 6.75391 14C6.76356 13.932 6.77322 13.8591 6.77804 13.791Z" fill="#222222"/>
<path d="M33.0219 27.4119C33.0219 27.4119 32.9832 27.3973 32.9688 27.3876C32.9881 27.3779 33.0074 27.373 33.0219 27.3633C33.0267 27.3779 33.0267 27.3973 33.0219 27.4119Z" fill="#222222"/>
<path d="M33.014 29.7791C33.014 29.7791 32.9802 29.7596 32.9609 29.7499C32.9802 29.7402 32.9996 29.7353 33.014 29.7256C33.0189 29.745 33.0189 29.7596 33.014 29.7791Z" fill="#222222"/>
<path d="M14.2656 25.1607C14.3042 25.1266 14.3477 25.0926 14.3863 25.0586C14.4008 25.0683 14.4105 25.0829 14.4249 25.0926C14.3911 25.1315 14.3525 25.1704 14.3187 25.2093C14.3042 25.1898 14.2849 25.1753 14.2705 25.1558L14.2656 25.1607Z" fill="#C0DAF0"/>
<path d="M33.082 20.9502C33.082 20.9502 33.0917 20.9313 33.0965 20.9219C33.0917 20.9313 33.0869 20.9408 33.082 20.9502Z" fill="#C0DAF0"/>
</g>
<defs>
<clipPath id="clip0_329_3178">
<rect width="35" height="35" fill="white"/>
</clipPath>
</defs>
</svg>
