<svg width="35" height="35" viewBox="0 0 35 35" fill="none" xmlns="http://www.w3.org/2000/svg">
<g clip-path="url(#clip0_329_3325)">
<path d="M27.6881 31.0382C26.929 31.1014 26.3537 30.7271 25.759 30.4305C25.5172 30.309 25.3335 30.2944 25.0966 30.4354C23.8444 31.184 22.5148 31.7479 21.0933 32.0882C20.9821 32.1125 20.8757 32.2632 20.8225 32.3847C20.5614 32.9389 20.339 33.5173 20.0538 34.0569C19.7685 34.5965 19.2367 34.8444 18.671 34.9028C17.9699 34.9805 17.2544 35.0292 16.5533 34.9708C15.5041 34.8833 15.0351 34.5916 14.5468 33.5028C14.4646 33.318 14.3631 33.1285 14.3341 32.934C14.2374 32.3069 13.8457 32.1173 13.2655 31.9667C11.9746 31.6312 10.7611 31.0722 9.61518 30.3868C9.42179 30.2701 9.29608 30.2993 9.12685 30.3673C8.58051 30.5812 8.03416 30.7951 7.48298 30.9847C6.90763 31.1791 6.36612 30.9993 5.94064 30.6396C5.37979 30.1632 4.88179 29.6042 4.36446 29.0743C3.73108 28.4326 3.79394 27.7083 4.12271 26.95C4.31127 26.5173 4.64488 26.075 4.63038 25.6472C4.61587 25.234 4.23391 24.8354 4.03085 24.4173C3.4845 23.2944 3.01068 22.1472 2.76893 20.9125C2.75443 20.8396 2.65289 20.7569 2.57554 20.7278C2.14039 20.5576 1.69558 20.4021 1.2556 20.2416C0.385316 19.9305 0.104891 19.425 0.0275322 18.5014C-0.0159821 17.9861 0.0275322 17.4611 0.0178623 16.9458C-0.025652 15.4291 0.598053 14.9722 1.69558 14.5833C2.40148 14.3305 2.85113 14.0486 3.02518 13.2173C3.28627 11.9875 3.85196 10.8451 4.53851 9.78054C4.69807 9.53748 4.68356 9.30901 4.56752 9.06596C4.38863 8.68679 4.18073 8.31734 4.03085 7.92845C3.70207 7.09234 3.66339 6.71318 4.34512 5.96457C4.88663 5.37151 5.47649 4.82707 6.07119 4.28748C6.64171 3.77221 7.3331 3.79651 8.00999 4.0104C8.46447 4.15137 8.89478 4.37498 9.32992 4.57429C9.48947 4.64721 9.59101 4.64721 9.75539 4.54998C11.0221 3.79165 12.3856 3.25693 13.8022 2.85346C13.9424 2.81457 14.0827 2.66387 14.1552 2.52776C14.4501 1.95415 14.687 1.34651 15.011 0.787484C15.3301 0.233317 15.9006 0.0534557 16.5001 0.0291502C17.1528 -1.65114e-05 17.8104 0.00970571 18.4631 0.0291502C19.5171 0.0583168 19.9571 0.461789 20.3874 1.31734C20.5905 1.71596 20.7113 2.15346 20.8951 2.56179C20.9482 2.68332 21.0836 2.82429 21.2093 2.85346C22.655 3.21804 24.0232 3.77707 25.3093 4.54026C25.5124 4.66179 25.6284 4.63748 25.817 4.54026C26.228 4.34096 26.6486 4.16109 27.0789 4.01526C27.8622 3.74304 28.6019 3.89859 29.2208 4.42846C29.7816 4.90971 30.299 5.44929 30.7873 6.00346C31.3627 6.65971 31.1838 7.38401 30.8695 8.09859C30.7099 8.46804 30.5359 8.83262 30.3908 9.20693C30.3522 9.30415 30.3618 9.45484 30.415 9.54234C31.2031 10.8791 31.8317 12.2889 32.1701 13.7958C32.2958 14.3597 32.7261 14.3014 33.0404 14.4764C33.3256 14.6417 33.6593 14.7097 33.9687 14.8312C34.5924 15.084 34.9163 15.5604 34.9502 16.2312C34.9792 16.8243 35.0324 17.4222 35.013 18.0153C34.9889 18.691 34.8922 19.3958 34.2878 19.8041C33.7705 20.1542 33.1661 20.3826 32.5907 20.6451C32.3877 20.7375 32.2475 20.8055 32.1798 21.068C31.7881 22.5507 31.2079 23.9604 30.4489 25.2923C30.3763 25.4236 30.3715 25.6423 30.4199 25.7833C30.5262 26.075 30.6906 26.3472 30.8308 26.6291C31.2708 27.5236 31.2418 28.5444 30.4199 29.2639C29.9364 29.6868 29.5012 30.1583 29.0226 30.5861C28.6406 30.9264 28.1861 31.1257 27.7026 31.0382H27.6881ZM5.16705 26.3958C5.14771 26.4201 5.13321 26.4444 5.11387 26.4687C4.97849 26.9062 4.83828 27.3486 4.7029 27.7861C4.74642 27.9465 4.78993 28.1069 4.83828 28.2625C5.01234 28.4569 5.19123 28.6514 5.36529 28.8458C5.38463 28.8896 5.40397 28.9285 5.42814 28.9722C5.6167 29.1326 5.80526 29.293 5.99866 29.4486C6.18239 29.6625 6.33711 29.9055 6.55468 30.0708C6.7239 30.2069 6.96565 30.2507 7.17838 30.3333C7.6232 30.4062 7.98098 30.1923 8.3436 29.9882C8.39195 29.9639 8.43546 29.9444 8.48381 29.9201C8.57567 29.8764 8.67237 29.8326 8.76424 29.7937C9.21388 29.575 9.66837 29.4923 10.1422 29.716C10.1857 29.7646 10.2341 29.818 10.2776 29.8666C10.7852 30.134 11.2929 30.4014 11.8054 30.6736C11.9118 30.7125 12.023 30.7514 12.1293 30.7854C12.7047 30.9896 13.2752 31.1889 13.8506 31.393C14.0585 31.4562 14.2712 31.5194 14.4791 31.5826C14.8369 31.5632 14.8224 31.9521 15.0303 32.093C15.0496 32.1465 15.069 32.2048 15.0883 32.2583C15.1512 32.4528 15.214 32.6521 15.2769 32.8465C15.3156 32.9583 15.3494 33.075 15.3881 33.1868C15.4799 33.3764 15.5766 33.566 15.6685 33.7507C15.6685 33.7653 15.6685 33.7798 15.6733 33.7944C15.6878 33.8236 15.6975 33.8528 15.712 33.8819L16.1327 34.159C16.4759 34.2028 16.8241 34.2416 17.1673 34.2854C17.4187 34.2854 17.6702 34.2854 17.9264 34.2854C18.3809 34.4701 18.7677 34.2757 19.1206 34.0278C19.5945 33.6923 19.6912 33.1285 19.8507 32.6229C20.0344 32.0347 20.3052 31.6166 20.9821 31.4757C22.3842 31.184 23.6751 30.5666 24.9129 29.8521C25.0918 29.75 25.3093 29.7111 25.5076 29.6479C25.6188 29.6479 25.7348 29.643 25.846 29.6382C26.0829 29.6917 26.3198 29.7451 26.5567 29.7986C26.5422 29.8083 26.5374 29.8229 26.5471 29.8423C26.5713 29.8666 26.5906 29.891 26.6148 29.9201C26.726 29.9736 26.842 30.0271 26.9532 30.0805C27.4319 30.4111 27.9637 30.5423 28.4472 30.1729C28.9452 29.784 29.3803 29.3076 29.8252 28.8507C29.946 28.7243 30.0137 28.5493 30.1104 28.3937C30.1588 28.2382 30.2071 28.0826 30.2555 27.9222C30.1926 27.6403 30.1249 27.3632 30.0621 27.0812C30.0572 27.0423 30.0524 26.9986 30.0476 26.9597C29.9557 26.775 29.8638 26.5854 29.772 26.4007C29.6849 26.2354 29.5979 26.0701 29.5109 25.9C29.3803 25.6326 29.4674 25.3944 29.5931 25.1562C29.6173 25.1465 29.6221 25.1319 29.6221 25.1076C29.7865 24.7771 29.9557 24.4416 30.1201 24.1111C30.1491 24.0722 30.1733 24.0285 30.2023 23.9847C30.2458 23.8923 30.2893 23.7951 30.3377 23.7028C30.3618 23.6785 30.386 23.6541 30.4102 23.625C30.7293 22.6965 31.0339 21.7583 31.382 20.8444C31.4739 20.6014 31.6673 20.334 31.8848 20.2076C32.2378 19.9986 32.6584 19.9111 33.0452 19.7458C33.4997 19.5514 33.9977 19.391 34.046 18.7736C34.0509 18.6375 34.0606 18.5014 34.0654 18.3653C34.0847 18.0639 34.0992 17.7625 34.1186 17.466C34.1186 17.3736 34.1186 17.2861 34.1186 17.1937C34.1186 16.9312 34.1089 16.6736 34.1041 16.4111C34.0751 16.2944 34.0412 16.1729 34.0122 16.0562C33.7608 15.4729 33.258 15.2444 32.6923 15.1083C32.6004 15.0646 32.5037 15.0257 32.4118 14.9819C32.2475 14.909 32.0879 14.8069 31.9138 14.7778C31.5125 14.7097 31.4062 14.4083 31.3143 14.0875C31.1596 13.543 31.0822 12.9694 30.8647 12.4542C30.5311 11.6666 30.1346 10.8986 29.714 10.1548C29.4577 9.70276 29.361 9.29443 29.6124 8.80832C29.8397 8.36596 29.9847 7.87984 30.2168 7.44234C30.4102 7.0729 30.2603 6.80554 30.0717 6.52359C30.0186 6.43123 29.9654 6.33887 29.9122 6.24165C29.714 6.05693 29.5157 5.87221 29.3175 5.68748C29.2691 5.63887 29.2208 5.59512 29.1773 5.54651C29.0177 5.38609 28.8533 5.22568 28.6938 5.06526L28.4859 4.86596C28.1958 4.63262 27.8815 4.53054 27.5141 4.66179C26.8372 4.67637 26.3102 5.07984 25.7251 5.33748C25.3867 5.38609 25.0918 5.31318 24.8113 5.10415C24.6083 4.95346 24.3665 4.85137 24.1441 4.72984C23.9846 4.66179 23.8299 4.59373 23.6703 4.52568C23.1626 4.29235 22.655 4.06387 22.1473 3.83054C22.0119 3.78679 21.8765 3.74304 21.7412 3.69929C21.4511 3.62151 21.161 3.54373 20.8757 3.46596C20.75 3.42707 20.6243 3.38818 20.4986 3.34929C20.339 3.17915 20.1795 3.00901 20.0199 2.84373C19.9716 2.72707 19.9184 2.6104 19.8701 2.49373C19.7782 2.2604 19.6815 2.03193 19.5896 1.79859C19.5509 1.66248 19.5074 1.52637 19.4688 1.39026C19.3527 1.22984 19.2415 1.06457 19.1255 0.90415C18.8015 0.81665 18.4824 0.72915 18.1585 0.64165C17.7669 0.64165 17.3704 0.64165 16.9788 0.64165C16.7709 0.656233 16.563 0.675678 16.3502 0.690261C15.9586 0.719428 15.7072 0.967345 15.5573 1.28818C15.4074 1.60901 15.3204 1.95901 15.2044 2.29929C15.0013 2.89721 14.6338 3.30068 14.0005 3.45623C13.6523 3.54373 13.3187 3.68957 12.9755 3.81109C12.8981 3.82082 12.8062 3.81109 12.7385 3.84026C11.8538 4.25832 10.9641 4.67637 10.089 5.11873C9.77474 5.27429 9.48464 5.42498 9.12685 5.27915C8.88027 5.17707 8.62402 5.09443 8.37261 5.00693C8.32909 4.9729 8.28558 4.94373 8.24206 4.90971C7.6377 4.58401 7.00916 4.3604 6.41446 4.88054C5.96965 5.26943 5.57319 5.71179 5.18156 6.15415C4.69807 6.69373 4.62071 7.28193 5.02684 7.90901C5.12354 8.05971 5.18639 8.23471 5.26859 8.39512C5.34111 8.53123 5.41364 8.66734 5.48132 8.80346C5.51033 9.01248 5.53451 9.22637 5.56352 9.4354C5.55385 9.50346 5.54418 9.57151 5.53934 9.63957C5.31694 10.009 5.09453 10.3833 4.87212 10.7528C4.81894 10.8937 4.77059 11.0347 4.71741 11.1757C4.53851 11.5451 4.36446 11.9146 4.18556 12.284L4.02601 12.7555H4.03085C4.01151 12.775 3.997 12.7993 3.97766 12.8187C3.8858 13.1736 3.79394 13.5236 3.70207 13.8785C3.62955 14.3451 3.41198 14.6757 2.92365 14.8118C2.6819 14.8798 2.46433 15.0062 2.23226 15.1083C1.53119 15.2396 1.02353 15.5847 0.926828 16.3528C0.897818 16.5861 0.888148 16.8243 0.873643 17.0576C0.873643 17.15 0.873643 17.2375 0.873643 17.3298C0.873643 17.5875 0.873643 17.8403 0.873643 18.0979C0.892983 18.166 0.917158 18.2389 0.936498 18.3069C0.980012 18.5354 1.01869 18.7639 1.06221 18.9972C1.10088 19.0701 1.1444 19.143 1.18308 19.216C1.37648 19.3472 1.56504 19.4785 1.75843 19.6097C1.80195 19.6097 1.8503 19.6097 1.89381 19.6097C1.91799 19.6097 1.93733 19.6146 1.9615 19.6243C2.02919 19.6632 2.10171 19.7021 2.1694 19.741C2.33379 19.8041 2.49334 19.8965 2.6674 19.9305C3.36846 20.0618 3.67306 20.4896 3.77943 21.1847C3.84229 21.6271 4.0792 22.0403 4.23391 22.468C4.25809 22.5604 4.28226 22.6528 4.3016 22.7451C4.38863 22.9493 4.4805 23.1535 4.56752 23.3576C4.61587 23.4743 4.66422 23.591 4.71741 23.7125C4.86729 24.0285 4.97849 24.3736 5.17672 24.6555C5.51033 25.1319 5.70373 25.5889 5.33144 26.1236C5.33144 26.1673 5.33144 26.216 5.33144 26.2597C5.3121 26.2792 5.28793 26.3035 5.26859 26.3229C5.24441 26.3472 5.22024 26.3715 5.19606 26.4007L5.16705 26.3958Z" fill="#222222"/>
<path d="M8.33955 5.00705C8.59096 5.09941 8.84721 5.18205 9.09379 5.27927C9.45158 5.42511 9.74167 5.27927 10.0559 5.11886C10.9311 4.6765 11.8207 4.2633 12.7055 3.84039C12.7732 3.80636 12.8602 3.82094 12.9424 3.81122C12.7393 3.9765 12.5363 4.14178 12.3332 4.29733C11.5693 4.89039 10.8054 5.47858 10.0366 6.06677C9.98825 6.08622 9.93507 6.1008 9.88672 6.12025C9.88672 6.13483 9.89639 6.14941 9.90123 6.164C9.95924 6.14455 10.0173 6.12997 10.0704 6.11052C10.2107 6.03761 10.3605 5.97441 10.4959 5.89177C11.4581 5.33761 12.4202 4.77858 13.3824 4.21955C15.2825 3.11122 17.1875 2.00775 19.0876 0.899414C19.2036 1.05983 19.3148 1.22511 19.4309 1.38553C18.7395 1.83761 18.0481 2.28969 17.3567 2.74178C16.6121 3.22303 15.8675 3.70428 15.1229 4.18066C15.2341 4.21469 15.3212 4.19525 15.3985 4.1515C16.1624 3.70914 16.9264 3.26191 17.6951 2.82441C18.3092 2.47441 18.9377 2.13414 19.5566 1.79386C19.6484 2.02719 19.7451 2.25566 19.837 2.489C19.5566 2.75636 19.2713 3.02858 18.9909 3.29594C18.9522 3.32997 18.9135 3.364 18.8797 3.39803C18.87 3.41261 18.8652 3.42719 18.8555 3.44664C18.8652 3.43205 18.87 3.41747 18.8797 3.40289C18.928 3.38344 18.9812 3.364 19.0296 3.34455C19.3487 3.17441 19.6678 3.00914 19.9869 2.839C20.1464 3.00914 20.306 3.17928 20.4655 3.34455C20.3495 3.48066 20.2335 3.62164 20.1174 3.75775C20.1368 3.77719 20.1561 3.8015 20.1754 3.82094C20.3978 3.69941 20.6202 3.57789 20.8427 3.46122C21.1328 3.539 21.4228 3.61678 21.7081 3.69455C21.5824 3.889 21.4567 4.07858 21.3261 4.27303C21.3407 4.29247 21.3552 4.31191 21.3745 4.33136C21.6211 4.16122 21.8677 3.99108 22.1142 3.8258C22.6219 4.05914 23.1296 4.28761 23.6372 4.52094C23.5599 4.72025 23.4825 4.91955 23.4052 5.114C23.3955 5.12858 23.3907 5.14803 23.381 5.16261C23.3955 5.15289 23.41 5.14316 23.4245 5.1383C23.6517 5.00219 23.879 4.86122 24.1111 4.72511C24.3335 4.84664 24.5752 4.94872 24.7783 5.09941C25.0587 5.30844 25.3536 5.38622 25.6921 5.33275C25.6002 5.49316 25.5084 5.65844 25.4117 5.81886C25.402 5.83344 25.3923 5.84803 25.3826 5.86261C25.3972 5.85289 25.4165 5.84802 25.431 5.8383C26.1127 5.44455 26.7944 5.0508 27.4762 4.65705C27.8388 4.5258 28.1579 4.62789 28.448 4.86122C28.2546 5.04108 28.066 5.22094 27.8726 5.4008C27.8968 5.42997 27.921 5.45914 27.9403 5.49316C28.1772 5.34733 28.4141 5.20636 28.6511 5.06052C28.8106 5.22094 28.975 5.38136 29.1345 5.54177C28.9363 5.71677 28.7381 5.88691 28.5447 6.06191C28.564 6.09108 28.5834 6.12025 28.6075 6.14941C28.8299 5.99386 29.0572 5.8383 29.2796 5.68275C29.4778 5.86747 29.6761 6.05219 29.8743 6.23691C29.531 6.5383 29.1926 6.83969 28.8493 7.13622C28.8154 7.14594 28.7864 7.15566 28.7526 7.16539L28.7768 7.20914C28.8058 7.18969 28.8299 7.17025 28.859 7.1508C29.2506 6.94177 29.6422 6.72789 30.029 6.51886C30.2176 6.8008 30.3675 7.06816 30.1741 7.43761C29.942 7.87997 29.7969 8.36608 29.5697 8.80358C29.3183 9.28969 29.415 9.69316 29.6712 10.1501C30.0919 10.8987 30.4932 11.6619 30.8219 12.4494C31.0395 12.9647 31.1169 13.5383 31.2716 14.0827C31.3634 14.4036 31.4698 14.705 31.8711 14.773C32.0452 14.8022 32.2047 14.9091 32.3691 14.9772C32.2241 15.1522 32.079 15.3272 31.934 15.4973C31.9098 15.5216 31.8856 15.5459 31.8614 15.5654C31.8953 15.5508 31.9291 15.5411 31.9581 15.5265C32.1902 15.3855 32.4175 15.2397 32.6495 15.0987C33.2152 15.2348 33.7229 15.4633 33.9695 16.0466C33.6504 16.3189 33.3313 16.5959 33.0122 16.8682L33.046 16.9314C33.3844 16.7564 33.7229 16.5814 34.0613 16.4064C34.0613 16.6689 34.071 16.9265 34.0758 17.189C33.7906 17.4029 33.5102 17.6216 33.2249 17.8355C33.2442 17.8647 33.2587 17.8939 33.2781 17.9279C33.544 17.7723 33.8099 17.6168 34.0758 17.4612C34.0565 17.7626 34.042 18.064 34.0227 18.3605C33.5778 18.7008 33.1282 19.0362 32.6834 19.3765C32.7027 19.4057 32.7221 19.4397 32.7462 19.4689C33.1669 19.2355 33.5875 19.0022 34.0081 18.7689C33.9598 19.3911 33.4618 19.5466 33.0073 19.7411C32.6254 19.9064 32.2047 19.9939 31.8469 20.2029C31.6294 20.3293 31.436 20.5918 31.3441 20.8397C30.996 21.7584 30.6914 22.6918 30.3723 23.6202C30.3481 23.6446 30.3239 23.6689 30.2998 23.698C30.0048 23.8779 29.7051 24.0577 29.4101 24.2376C29.4246 24.2619 29.4391 24.2911 29.4537 24.3154C29.6616 24.2425 29.8695 24.1744 30.0822 24.1015C29.9178 24.4321 29.7486 24.7675 29.5842 25.098C29.5213 25.1126 29.4585 25.1321 29.4005 25.1466C29.4537 25.1466 29.502 25.1466 29.5552 25.1466C29.4295 25.3848 29.3424 25.6279 29.473 25.8904C29.3521 25.9536 29.2264 26.0071 29.1152 26.08C27.3843 27.2466 25.6534 28.4133 23.9225 29.58C23.7823 29.6772 23.6517 29.789 23.5164 29.8911C23.468 29.9105 23.4148 29.9251 23.3665 29.9446C23.3665 29.9591 23.3762 29.9737 23.381 29.9883C23.439 29.9689 23.497 29.9543 23.5502 29.9348C23.6904 29.8619 23.8403 29.7939 23.9757 29.7161C25.8951 28.6077 27.8098 27.4946 29.7292 26.3862C29.8211 26.5709 29.913 26.7605 30.0048 26.9452C29.9903 27.0133 29.9758 27.0814 29.9662 27.1494C29.9855 27.1202 30.0048 27.0959 30.0242 27.0668C30.087 27.3487 30.1547 27.6258 30.2176 27.9077C29.9807 28.1119 29.7437 28.3112 29.5068 28.5154C29.531 28.5446 29.5552 28.5689 29.5794 28.598C29.7437 28.5251 29.9081 28.4522 30.0725 28.3793C29.9807 28.5348 29.913 28.7098 29.7873 28.8362C29.3424 29.2883 28.9073 29.7696 28.4093 30.1584C27.9307 30.5327 27.3988 30.4015 26.9153 30.0661C27.2683 29.7696 27.6164 29.473 27.9693 29.1765C27.9452 29.1473 27.921 29.1133 27.8968 29.0841C27.8194 29.123 27.7421 29.1571 27.6696 29.1959C27.2876 29.3952 26.9056 29.5946 26.5237 29.7939C26.2868 29.7404 26.0499 29.6869 25.813 29.6334C25.958 29.4827 26.1031 29.3321 26.2433 29.1765C26.2674 29.1522 26.2868 29.1279 26.311 29.1036C26.34 29.089 26.369 29.0793 26.398 29.0647C26.3883 29.0501 26.3835 29.0404 26.3738 29.0258C26.3448 29.0452 26.3206 29.0647 26.2916 29.0841C26.2626 29.1036 26.2384 29.123 26.2094 29.1376L25.4697 29.6334C25.2714 29.7015 25.0539 29.7355 24.875 29.8376C23.6324 30.5522 22.3463 31.1647 20.9442 31.4612C20.2673 31.6022 19.9965 32.0202 19.8128 32.6084C19.6533 33.114 19.5566 33.6779 19.0827 34.0133C18.7298 34.2661 18.3478 34.4557 17.8885 34.2709C18.1448 33.9987 18.401 33.7265 18.6573 33.4543L18.5799 33.3716C18.0964 33.673 17.6129 33.9744 17.1294 34.2758C16.7862 34.2321 16.438 34.1932 16.0948 34.1494C17.289 33.3425 18.4832 32.5355 19.6774 31.7189C20.1948 31.364 20.7073 30.9994 21.2198 30.6397C21.2585 30.6057 21.2923 30.5765 21.331 30.5425C21.4035 30.5133 21.476 30.4841 21.5486 30.4501C21.5292 30.4209 21.505 30.3869 21.4857 30.3577C21.4373 30.4209 21.3842 30.4793 21.3358 30.5425C21.2875 30.5619 21.2391 30.5765 21.1908 30.5959C21.0989 30.6397 21.0022 30.6737 20.9103 30.7272C19.5421 31.5196 18.1786 32.3216 16.8103 33.1091C16.4284 33.3327 16.0271 33.5272 15.6354 33.7362C15.5436 33.5466 15.4469 33.3571 15.355 33.1723C15.7902 32.8321 16.2253 32.4918 16.6604 32.1515L16.5976 32.0591C16.1479 32.3168 15.6983 32.5744 15.2438 32.8369C15.181 32.6425 15.1181 32.4432 15.0553 32.2487C15.1036 32.1418 15.1471 32.03 15.1955 31.923C15.1713 31.9133 15.152 31.8987 15.1278 31.889C15.0843 31.9571 15.0407 32.0202 14.9972 32.0883C14.7893 31.9473 14.8038 31.5584 14.4461 31.5779C14.5814 31.3154 14.712 31.0577 14.8474 30.7952C14.8328 30.7807 14.8135 30.7661 14.799 30.7466C14.4702 30.9605 14.1463 31.1744 13.8175 31.3883C13.2422 31.1841 12.6716 30.9848 12.0963 30.7807C12.2075 30.6251 12.3139 30.4696 12.4251 30.314C12.4009 30.2946 12.3815 30.2702 12.3574 30.2508C12.164 30.3918 11.9657 30.5279 11.7723 30.6689C11.2647 30.4015 10.757 30.1341 10.2445 29.8619C10.317 29.7452 10.3896 29.6237 10.4621 29.5071C10.4427 29.4876 10.4186 29.473 10.3992 29.4536C10.3025 29.5411 10.2058 29.6237 10.1091 29.7112C9.6353 29.4925 9.18082 29.5702 8.73117 29.789C8.73117 29.7112 8.73117 29.6383 8.72634 29.5605C8.67315 29.5265 8.60063 29.4487 8.57646 29.4633C8.0978 29.7452 7.62398 30.0369 7.15015 30.3286C6.93742 30.2459 6.69567 30.1973 6.52645 30.0661C6.31371 29.8959 6.15416 29.6529 5.97043 29.4439C6.04779 29.4147 6.12515 29.3855 6.19767 29.3564C6.18317 29.3321 6.16383 29.3077 6.14933 29.2786C6.09131 29.3321 6.02845 29.3904 5.97043 29.4439C5.78187 29.2834 5.59331 29.123 5.39991 28.9675C5.44826 28.8702 5.50145 28.773 5.54979 28.6758C5.52079 28.6612 5.49661 28.6466 5.4676 28.6321C5.42409 28.7001 5.38057 28.7682 5.34189 28.8362C5.16784 28.6418 4.98894 28.4473 4.81489 28.2529C5.1485 27.898 5.48694 27.5383 5.82055 27.1834C5.81088 27.1689 5.80605 27.1591 5.79638 27.1446C5.42409 27.3536 5.0518 27.5626 4.67951 27.7765C4.81489 27.339 4.9551 26.8966 5.09048 26.4591C5.10982 26.4348 5.12432 26.4105 5.14366 26.3862C5.16784 26.3619 5.19201 26.3376 5.21619 26.3084C5.23553 26.289 5.2597 26.2647 5.27904 26.2452C5.31772 26.2307 5.3564 26.2112 5.39508 26.1966C5.3564 26.1675 5.31772 26.1383 5.27904 26.1091C5.65133 25.5744 5.46277 25.1175 5.12432 24.6411C4.92609 24.3591 4.81489 24.014 4.665 23.698C4.73269 23.5376 4.80522 23.3821 4.86807 23.2411C4.74236 23.28 4.63116 23.314 4.51996 23.348C4.43293 23.1439 4.34106 22.9397 4.25404 22.7355C4.25404 22.6189 4.26371 22.5071 4.26371 22.3904C4.2347 22.4098 4.21052 22.4341 4.18151 22.4536C4.02196 22.0258 3.78988 21.6126 3.72703 21.1702C3.6255 20.4751 3.31606 20.0473 2.615 19.9161C2.44577 19.8821 2.28622 19.7897 2.117 19.7265C2.26688 19.5223 2.41193 19.323 2.57632 19.0994C2.38292 19.1918 2.20403 19.2647 2.04931 19.3668C1.98162 19.4105 1.95745 19.5272 1.9091 19.6098C1.88492 19.605 1.86558 19.6001 1.84141 19.5952C1.7979 19.5952 1.74955 19.5952 1.70603 19.5952C1.51263 19.464 1.32407 19.3327 1.13068 19.2015C1.19837 19.1091 1.26605 19.0119 1.36275 18.8807C1.21287 18.9244 1.11134 18.9536 1.0098 18.9827C0.966289 18.7543 0.927609 18.5258 0.884095 18.2925C1.11134 18.1369 1.34341 17.9765 1.57065 17.8209C1.55131 17.7966 1.53681 17.7772 1.51747 17.7529C1.28539 17.8647 1.05332 17.9765 0.816406 18.0834C0.816406 17.8258 0.816406 17.573 0.816406 17.3154C1.06299 17.1307 1.30957 16.9508 1.55615 16.7661C1.53197 16.7369 1.51263 16.7029 1.48846 16.6737C1.26605 16.7952 1.04365 16.9216 0.816406 17.0432C0.835746 16.8098 0.840581 16.5716 0.86959 16.3383C0.971124 15.5702 1.47396 15.2251 2.17502 15.0939C2.02997 15.3175 1.88492 15.5411 1.71087 15.8133C1.8124 15.7744 1.87525 15.7598 1.93327 15.7307C2.85674 15.2008 3.77054 14.6612 4.69885 14.1362C4.82939 14.0633 4.98894 14.0341 5.13399 13.9904C5.04213 14.3404 4.9551 14.6855 4.86324 15.0355C4.79555 15.0598 4.72786 15.0793 4.66017 15.1036C4.61182 15.1473 4.56831 15.1959 4.51996 15.2397C4.50545 15.264 4.48611 15.2883 4.47161 15.3126C4.47161 15.3126 4.48611 15.3223 4.49578 15.3321C4.50545 15.3029 4.51512 15.2737 4.52479 15.2446C4.56831 15.1959 4.61666 15.1522 4.66017 15.1036C4.72786 15.1279 4.79071 15.1473 4.8584 15.1716C4.83423 15.4487 4.81005 15.7258 4.78588 16.0029C4.7472 16.0515 4.70368 16.1001 4.665 16.1487C4.68434 16.3334 4.70852 16.5182 4.71819 16.7029C4.72786 16.839 4.71819 16.9751 4.71819 17.1112C4.70368 17.1355 4.68434 17.1598 4.66984 17.1841C4.66984 17.4564 4.66984 17.7286 4.66984 17.9959C4.68918 18.0202 4.70852 18.0494 4.72786 18.0737C4.76654 19.3959 5.07114 20.6598 5.55463 21.8848C5.48694 21.9772 5.41925 22.0696 5.3564 22.1571C5.29838 22.2008 5.23553 22.2446 5.17751 22.2834C5.19685 22.3029 5.21619 22.3272 5.23553 22.3466C5.27904 22.2834 5.31772 22.2202 5.36123 22.1571C5.45793 22.1571 5.5498 22.1571 5.64649 22.1522C5.7577 22.3855 5.86407 22.614 5.97527 22.8473C5.91725 22.8862 5.85923 22.9251 5.80121 22.9689C5.83506 23.0029 5.8689 23.0418 5.90274 23.0758C5.93175 23.0369 5.96076 23.0029 5.98977 22.964L6.83105 24.4321C6.77787 24.4807 6.71985 24.5293 6.66666 24.5779C6.62315 24.6265 6.5748 24.6702 6.53128 24.7189C6.49744 24.748 6.4636 24.7772 6.42492 24.8015C6.43459 24.8112 6.43942 24.8161 6.44909 24.8258C6.4781 24.7918 6.50711 24.7577 6.53128 24.7189C6.57963 24.6751 6.62315 24.6265 6.6715 24.5827C6.74402 24.5536 6.81171 24.5244 6.88423 24.4952C7.02445 24.6848 7.15982 24.8744 7.30004 25.064C7.02445 25.3411 6.74886 25.6182 6.46843 25.8952C6.39591 25.9876 6.32822 26.08 6.25569 26.1723C6.34756 26.1091 6.43942 26.0459 6.53128 25.9827C6.8794 25.7883 7.22751 25.5987 7.57563 25.4043C7.71101 25.5696 7.84638 25.7348 7.98176 25.905C7.89473 26.0071 7.8077 26.1091 7.71584 26.2112C7.43058 26.5175 7.14532 26.8237 6.86006 27.13C6.82138 27.1591 6.77787 27.1883 6.73919 27.2175C6.73919 27.2272 6.72952 27.2321 6.72468 27.2418C6.72468 27.2321 6.72952 27.2223 6.73435 27.2175C6.7827 27.198 6.83105 27.1786 6.8794 27.1591C7.02928 27.0814 7.17916 27.0084 7.32905 26.9307C7.68683 26.7459 8.04461 26.5612 8.4024 26.3765C8.55712 26.5175 8.71183 26.6536 8.86655 26.7946C8.70216 26.9307 8.53294 27.0716 8.36855 27.2077C8.33954 27.2223 8.3057 27.2321 8.27669 27.2466C8.28153 27.2612 8.28636 27.2758 8.29603 27.2855C8.32987 27.2709 8.36855 27.2564 8.4024 27.2418C8.5958 27.164 8.79403 27.0814 8.98742 27.0036C9.16148 27.1202 9.3307 27.2321 9.50476 27.3487C9.45158 27.3973 9.40323 27.4411 9.35004 27.4897C9.36938 27.5091 9.38872 27.5334 9.40806 27.5529C9.45641 27.5091 9.5096 27.4605 9.55795 27.4168C9.94957 27.6987 10.3364 27.9758 10.728 28.2577L10.3074 28.7536C10.3074 28.7536 10.3315 28.7779 10.3412 28.7925C10.5781 28.6807 10.815 28.5737 11.0568 28.4619C11.2888 28.5786 11.5209 28.6952 11.753 28.8168C11.6128 28.9432 11.4677 29.0696 11.3275 29.1959C11.3469 29.2154 11.3662 29.2348 11.3855 29.2543C11.608 29.1522 11.8255 29.0501 12.0479 28.948C12.5701 29.1619 13.0923 29.3709 13.6193 29.5848C13.5226 29.7598 13.421 29.9397 13.3243 30.1147C13.3002 30.139 13.276 30.1584 13.2518 30.1827C13.2857 30.173 13.3195 30.1584 13.3534 30.1487C13.5806 29.9883 13.8078 29.8279 14.0351 29.6675C14.3735 29.7355 14.712 29.8036 15.0504 29.8716C15.3792 29.9397 15.7031 30.0077 16.0319 30.0807C15.8627 30.3675 15.6935 30.6591 15.5242 30.9459C15.5001 30.9702 15.4759 30.9897 15.4517 31.014C15.4856 31.0043 15.5194 30.9897 15.5532 30.98C16.0754 30.6786 16.5976 30.3772 17.1198 30.0807C17.4921 30.0807 17.8643 30.0807 18.2415 30.0807C18.0577 30.2848 17.874 30.4939 17.6903 30.698C17.6903 30.7126 17.7 30.7272 17.7048 30.7418C18.1061 30.4987 18.5122 30.2508 18.9135 30.0077C19.4454 29.8911 19.982 29.7793 20.5139 29.6626C20.422 29.7744 20.3398 29.8959 20.2286 29.9883C19.7693 30.3821 19.3003 30.7661 18.8362 31.155C18.7975 31.1841 18.754 31.2084 18.7153 31.2376C18.725 31.2668 18.7298 31.3008 18.7395 31.33C18.754 31.3057 18.7685 31.2814 18.783 31.2522C18.812 31.2327 18.8458 31.2133 18.8748 31.1939C18.9377 31.1696 19.0102 31.1598 19.0682 31.1258C20.3495 30.3821 21.6307 29.6334 22.912 28.8848C23.0957 28.7682 23.2795 28.6515 23.4632 28.53C23.5067 28.5057 23.555 28.4814 23.5986 28.4571C23.6421 28.4327 23.6904 28.4084 23.7339 28.3793L23.8548 28.3161C23.8838 28.2918 23.9128 28.2723 23.9418 28.248C23.9902 28.2286 24.0337 28.2043 24.0821 28.18C24.1256 28.1557 24.1691 28.1314 24.2174 28.1022C24.2416 28.0827 24.2658 28.0584 24.29 28.039C24.3383 28.0147 24.3818 27.9904 24.4302 27.9709C24.4785 27.9515 24.5269 27.9321 24.5704 27.9126C24.7928 27.7716 25.02 27.6258 25.2424 27.4848C25.3295 27.4557 25.4165 27.4265 25.4987 27.3973C25.4648 27.3584 25.4262 27.3196 25.3923 27.2807C25.4117 27.2515 25.4213 27.2175 25.4503 27.198C26.2868 26.5855 26.9733 25.8272 27.5874 25.0008C28.4673 23.8196 29.1394 22.5314 29.5407 21.1022C29.56 21.0827 29.5794 21.0584 29.5939 21.039H29.589C29.9613 20.7716 30.3336 20.5043 30.7059 20.2369C30.6817 20.2077 30.6624 20.1737 30.6382 20.1446C30.3336 20.2855 30.0338 20.4216 29.7292 20.5626L29.8743 19.6584C30.1499 19.4786 30.4206 19.3036 30.6962 19.1237L30.6479 19.0411C30.4158 19.1383 30.1837 19.2307 29.9516 19.3279C29.9952 19.0459 30.0387 18.764 30.0822 18.4821C30.3578 18.2536 30.6334 18.0251 30.909 17.7966C30.9235 17.7821 30.9331 17.7723 30.9476 17.7577C30.9235 17.7577 30.9041 17.7675 30.88 17.7675L30.0822 18.1369C30.0822 17.5827 30.087 17.0286 30.0725 16.4744C30.0629 16.1098 30.058 15.7404 29.9758 15.3855C29.7534 14.4279 29.5117 13.4751 29.2312 12.5321C29.1055 12.1043 28.9025 11.6862 28.6897 11.2925C28.4432 10.8355 28.1434 10.4077 27.863 9.97025L28.5689 9.27997C28.5447 9.25566 28.5253 9.23136 28.5012 9.20705C28.2207 9.36747 27.9403 9.52789 27.6599 9.6883C27.5197 9.52789 27.3795 9.36747 27.2441 9.20705C27.51 8.964 27.7808 8.72094 28.0467 8.47302L27.95 8.36122C27.6454 8.5508 27.336 8.73553 27.0314 8.92511C26.8476 8.74525 26.6687 8.56052 26.485 8.38066C26.8283 8.07441 27.1716 7.77302 27.5148 7.46677C27.5245 7.46677 27.5342 7.46191 27.5439 7.45219C27.5439 7.45219 27.5439 7.43761 27.5439 7.43275C27.5342 7.44733 27.5245 7.45705 27.5148 7.47164C27.099 7.70497 26.6832 7.93344 26.2674 8.16677C26.1031 8.01608 25.9435 7.86539 25.7791 7.71469C25.9677 7.52025 26.1562 7.32094 26.3448 7.1265C26.3593 7.11678 26.369 7.10219 26.3835 7.09247L26.3255 7.10705C26.0547 7.25289 25.7839 7.39872 25.5132 7.53969C25.3295 7.39872 25.1409 7.26261 24.9572 7.12164C25.1651 6.93691 25.3681 6.74733 25.576 6.56261C25.5567 6.53344 25.5325 6.50427 25.5132 6.47511C25.2569 6.64525 25.0007 6.81539 24.7444 6.98552C23.9563 6.43622 23.0764 6.06191 22.2013 5.67789C22.3657 5.464 22.53 5.24525 22.6944 5.03136C22.6654 5.00705 22.6364 4.98761 22.6074 4.9633L21.6936 5.46886C21.5631 5.44455 21.4325 5.42025 21.302 5.39594C20.8668 5.30358 20.4365 5.20636 20.0014 5.10914C20.1368 4.85636 20.277 4.60844 20.4123 4.35566C20.422 4.34594 20.4365 4.34108 20.4462 4.33136C20.4414 4.33136 20.4317 4.33136 20.4269 4.33136C20.422 4.33622 20.4172 4.34594 20.4123 4.35566C20.0691 4.55983 19.721 4.764 19.3777 4.97302C19.0537 4.94872 18.7298 4.92441 18.4107 4.90011L18.9425 4.12233C18.6041 4.25358 18.2995 4.42372 18.0046 4.60844C17.8788 4.68622 17.7773 4.80289 17.6613 4.90497C17.2455 4.90497 16.8345 4.90497 16.4187 4.90497C16.878 4.44316 17.3325 3.98136 17.7918 3.51955C17.7725 3.49525 17.7531 3.47094 17.7338 3.4515C17.5259 3.56816 17.318 3.67997 17.1149 3.8015C16.38 4.239 15.6451 4.68136 14.9054 5.12372C14.7845 5.16747 14.6636 5.21608 14.5379 5.25497C13.89 5.44941 13.218 5.58552 12.6039 5.84802C11.9174 6.13969 11.2743 6.52858 10.6265 6.90289C9.54344 7.52997 8.6103 8.35636 7.77869 9.28483C6.83105 10.3446 6.09614 11.5598 5.54013 12.8723C5.31288 12.9939 5.08081 13.1154 4.85357 13.2369C4.4426 13.4459 4.03163 13.6501 3.62066 13.8591C3.71252 13.5043 3.80439 13.1543 3.89625 12.7994C3.91559 12.78 3.9301 12.7557 3.94944 12.7362H3.9446C4.20569 12.5369 4.47161 12.3425 4.73269 12.1432C4.71335 12.1189 4.69401 12.0946 4.66984 12.0751C4.48128 12.1383 4.29272 12.2015 4.10415 12.2647C4.28305 11.8952 4.4571 11.5258 4.63599 11.1564C5.00345 10.8987 5.3709 10.6459 5.73836 10.3883C5.72385 10.364 5.70935 10.3397 5.69484 10.3154C5.39508 10.4564 5.09048 10.5925 4.79071 10.7334C5.01312 10.364 5.23553 9.98969 5.45793 9.62025C5.91725 9.34803 6.3814 9.0758 6.84072 8.80358C6.82138 8.76955 6.80204 8.74039 6.7827 8.70636C6.34756 8.94455 5.91725 9.17789 5.48211 9.41608C5.4531 9.20705 5.42892 8.99316 5.39991 8.78414C6.28954 8.09386 7.184 7.40358 8.07362 6.7133C8.0011 6.66469 7.96726 6.66469 7.93825 6.67928C7.06313 7.17997 6.188 7.68066 5.31288 8.19108C5.25486 8.22511 5.22586 8.31261 5.18234 8.38066C5.10498 8.22025 5.04213 8.04525 4.9406 7.89455C4.53446 7.26747 4.60699 6.67928 5.09531 6.13969C5.49178 5.70219 5.88824 5.25497 6.32822 4.86608C6.92291 4.34594 7.55145 4.56955 8.15582 4.89525C7.94308 5.06052 7.73518 5.2258 7.52244 5.38622C7.49343 5.39594 7.45959 5.41052 7.43058 5.42025C7.43541 5.43483 7.44508 5.44941 7.44992 5.464C7.48376 5.44455 7.51277 5.42997 7.54662 5.41052C7.7932 5.26955 8.03978 5.12858 8.2912 4.98761L8.33955 5.00705ZM27.2151 26.4008C27.2151 26.4008 27.2344 26.4105 27.2441 26.4154C27.2344 26.4105 27.2248 26.4057 27.2151 26.4008ZM28.5253 25.6376C28.5253 25.6376 28.506 25.6279 28.4963 25.623C28.506 25.6279 28.5157 25.6327 28.5253 25.6376L28.5544 25.6522C28.5544 25.6522 28.535 25.6425 28.5253 25.6376ZM29.4198 28.6807L29.3231 28.705C29.3231 28.705 29.3376 28.7341 29.3473 28.7487C29.3763 28.7293 29.4005 28.7098 29.4295 28.6855C29.4391 28.6661 29.4488 28.6515 29.4585 28.6321C29.444 28.6466 29.4343 28.6612 29.4198 28.6758V28.6807ZM25.842 27.2321C25.8613 27.2077 25.8758 27.1834 25.8951 27.1591C25.8855 27.1543 25.8758 27.1494 25.871 27.1397C25.8613 27.1689 25.8516 27.198 25.842 27.2272V27.2321ZM27.6309 26.1918L27.6841 26.1189C27.6841 26.1189 27.6647 26.1091 27.6599 26.0994C27.6502 26.1286 27.6406 26.1577 27.6357 26.1869L27.6309 26.1918ZM6.01395 27.0862C6.04779 27.0668 6.0768 27.0425 6.11065 27.023C6.09614 27.0084 6.08647 26.9939 6.07197 26.9841C6.05263 27.0133 6.02845 27.0473 6.00911 27.0765C5.99944 27.0959 5.98494 27.1154 5.97527 27.1348C5.98977 27.1202 6.00428 27.1008 6.01878 27.0862H6.01395ZM5.62715 28.5689L5.74803 28.6904C5.81088 28.6272 5.87373 28.564 5.93659 28.5008C5.89791 28.4619 5.85923 28.423 5.81572 28.3793L5.62232 28.564L5.62715 28.5689ZM26.2046 26.955C26.2046 26.955 26.2288 26.989 26.2433 27.0084C26.2868 26.9744 26.3351 26.9404 26.3786 26.9064C26.369 26.8918 26.3545 26.8772 26.3448 26.8577C26.2964 26.8918 26.2529 26.9258 26.2046 26.955ZM26.867 26.6341C26.867 26.6341 26.8331 26.5904 26.8186 26.5709C26.7751 26.6098 26.7364 26.6487 26.6929 26.6876C26.7074 26.7022 26.7171 26.7168 26.7316 26.7314L26.867 26.6341ZM27.9983 25.9147C27.9983 25.9147 28.0225 25.9487 28.037 25.9682C28.0805 25.9341 28.1289 25.9001 28.1724 25.8661C28.1627 25.8515 28.1482 25.8369 28.1386 25.8175C28.0902 25.8515 28.0467 25.8855 27.9983 25.9147ZM4.52479 16.3869C4.52479 16.3626 4.52479 16.3383 4.52479 16.314C4.47644 16.314 4.43293 16.314 4.38458 16.3237C4.38458 16.3237 4.38458 16.3626 4.37974 16.3821C4.42809 16.3821 4.47644 16.3869 4.52479 16.3918V16.3869ZM29.7147 27.2077C29.7147 27.2077 29.7147 27.2321 29.7196 27.2466H29.913C29.8646 27.2077 29.8404 27.1737 29.8163 27.1737C29.7824 27.1737 29.7437 27.1932 29.7099 27.2077H29.7147ZM28.2981 28.914C28.2981 28.914 28.2884 28.8654 28.2739 28.8605C28.2594 28.8557 28.2353 28.8702 28.2159 28.88C28.2256 28.8994 28.2256 28.9286 28.2401 28.9334C28.2546 28.9383 28.2788 28.9237 28.2981 28.914ZM1.59966 18.7348C1.54648 18.7834 1.51747 18.798 1.51747 18.8077C1.51747 18.8369 1.54164 18.8612 1.55615 18.8904C1.56582 18.8515 1.58032 18.8126 1.59966 18.7348ZM6.12032 28.2966C6.12032 28.2966 6.09131 28.3404 6.09614 28.355C6.10098 28.3696 6.12999 28.3744 6.14933 28.3793C6.159 28.3598 6.17834 28.3355 6.1735 28.3209C6.16866 28.3064 6.13966 28.3015 6.12032 28.2966ZM15.4179 31.7577C15.4179 31.7577 15.3889 31.8015 15.3937 31.8161C15.3985 31.8307 15.4275 31.8355 15.4469 31.8404C15.4566 31.8209 15.4759 31.7966 15.4711 31.7821C15.4662 31.7675 15.4372 31.7626 15.4179 31.7577ZM18.5847 31.3446L18.5606 31.4029C18.5606 31.4029 18.6041 31.4321 18.6186 31.4223C18.6331 31.4175 18.6379 31.3883 18.6428 31.3689C18.6234 31.3591 18.6041 31.3543 18.5847 31.3446ZM4.59248 17.2376C4.59248 17.2376 4.54897 17.2084 4.53446 17.2133C4.51996 17.2182 4.51512 17.2473 4.51029 17.2668C4.52963 17.2765 4.5538 17.2959 4.56831 17.2911C4.58281 17.2862 4.58765 17.2571 4.59248 17.2376ZM4.38458 15.405C4.38458 15.405 4.37491 15.3564 4.3604 15.3515C4.3459 15.3466 4.32172 15.3661 4.30239 15.3709C4.31205 15.3904 4.31205 15.4196 4.32656 15.4244C4.34106 15.4293 4.36524 15.4147 4.38458 15.405ZM5.7722 23.2411C5.7722 23.2411 5.74803 23.1973 5.73836 23.173C5.69968 23.1925 5.661 23.2119 5.62715 23.2362C5.63199 23.2508 5.63682 23.2654 5.64166 23.2751C5.68517 23.2654 5.72869 23.2508 5.7722 23.2411ZM22.8927 30.348C22.8927 30.348 22.8588 30.3286 22.8395 30.3189C22.8395 30.3383 22.8346 30.3577 22.8395 30.3772C22.8395 30.3821 22.8637 30.3918 22.8637 30.3918C22.8782 30.3821 22.883 30.3626 22.8927 30.3529V30.348ZM16.8587 31.9182C16.8587 31.9182 16.8393 31.9182 16.8297 31.9182V32.0202C16.8297 32.0202 16.849 32.0202 16.8587 32.0202V31.9182ZM4.15734 16.5716C4.15734 16.5716 4.12349 16.5473 4.10899 16.5327C4.10415 16.5522 4.09448 16.5668 4.09448 16.5862C4.09448 16.5911 4.11382 16.6057 4.11866 16.6057C4.13316 16.5959 4.14767 16.5862 4.16217 16.5716H4.15734ZM9.18566 27.723C9.18566 27.723 9.14698 27.6987 9.13247 27.6841C9.13247 27.7036 9.1228 27.723 9.1228 27.7425C9.1228 27.7473 9.14214 27.7619 9.14698 27.7571C9.16148 27.7473 9.17115 27.7376 9.18566 27.723ZM21.9305 30.2168C21.9305 30.2168 21.8918 30.1925 21.8773 30.1779C21.8773 30.1973 21.8677 30.2168 21.8677 30.2362C21.8677 30.2411 21.887 30.2557 21.8918 30.2508C21.9063 30.2411 21.916 30.2314 21.9305 30.2168ZM23.2601 30.0515H23.2359V30.1536H23.2601V30.0515ZM1.82691 16.6057C1.82691 16.6057 1.79306 16.5959 1.77856 16.5911C1.77856 16.6008 1.77856 16.6105 1.78339 16.6154C1.79306 16.6154 1.80273 16.6105 1.82207 16.6057H1.82691ZM26.6494 28.8946C26.6494 28.8946 26.6397 28.8751 26.6349 28.8654C26.6301 28.8751 26.6156 28.88 26.6156 28.8897C26.6156 28.8994 26.6252 28.9091 26.6301 28.9189C26.6349 28.9091 26.6446 28.9043 26.6494 28.8946ZM15.0359 29.9494C15.0359 29.9494 15.0166 29.9494 15.0069 29.9591C15.0069 29.9591 15.0069 29.9737 15.0117 29.9834C15.0214 29.9834 15.0311 29.9834 15.0407 29.9737C15.0407 29.9737 15.0407 29.9591 15.0359 29.9494ZM32.6109 19.5077L32.635 19.5223V19.5029L32.6109 19.5126V19.5077ZM1.69153 17.6946L1.68186 17.7091H1.7012L1.69153 17.6946ZM4.8439 12.0265L4.86324 12.0362V12.0168L4.8439 12.0216V12.0265ZM28.1579 8.35636L28.1386 8.34664V8.36608L28.1579 8.36122V8.35636ZM27.7904 5.51261L27.8098 5.52719V5.50775L27.7904 5.51261Z" fill="#C0DAF0"/>
<path d="M18.1299 0.646463C17.221 1.18118 16.312 1.71591 15.403 2.24577C15.3402 2.28466 15.2531 2.28466 15.1758 2.3041C15.2918 1.96868 15.3788 1.61382 15.5287 1.29299C15.6834 0.972157 15.93 0.719379 16.3217 0.695074C16.2346 0.836046 16.1428 0.977018 16.0557 1.11799C16.0461 1.13257 16.0364 1.14716 16.0267 1.15688C16.0412 1.14716 16.0509 1.13743 16.0654 1.12285C16.3603 0.962435 16.6553 0.802018 16.9502 0.641602C17.3418 0.641602 17.7383 0.641602 18.1299 0.641602V0.646463Z" fill="#C0DAF0"/>
<path d="M5.53199 9.43531C5.96713 9.19711 6.39744 8.96378 6.83258 8.72559C6.85192 8.75961 6.87126 8.78878 6.8906 8.82281C6.43128 9.09503 5.96713 9.36725 5.50781 9.63947C5.51748 9.57142 5.52715 9.50336 5.53199 9.43531Z" fill="#C0DAF0"/>
<path d="M4.15955 12.2843C4.34811 12.2211 4.53668 12.1579 4.72524 12.0947C4.74458 12.119 4.76392 12.1433 4.78809 12.1628C4.52701 12.3621 4.26109 12.5565 4 12.7558C4.05318 12.6003 4.10637 12.4399 4.15955 12.2843Z" fill="#C0DAF0"/>
<path d="M1.93359 19.6247C1.97711 19.542 2.00128 19.4302 2.07381 19.3816C2.23336 19.2795 2.41225 19.2066 2.60081 19.1143C2.44126 19.333 2.29138 19.5372 2.1415 19.7413C2.07381 19.7025 2.00128 19.6636 1.93359 19.6247Z" fill="#C0DAF0"/>
<path d="M25.5 29.6482C25.7466 29.4829 25.9932 29.3176 26.2397 29.1523C26.2494 29.1621 26.2639 29.1766 26.2736 29.1864C26.1285 29.3371 25.9835 29.4878 25.8433 29.6433C25.7321 29.6433 25.616 29.6482 25.5048 29.653L25.5 29.6482Z" fill="#C0DAF0"/>
<path d="M0.847656 18.0933C1.07973 17.9814 1.31181 17.8696 1.54872 17.7627C1.56806 17.787 1.58256 17.8064 1.6019 17.8308C1.37466 17.9863 1.14259 18.1467 0.915345 18.3023C0.896005 18.2342 0.871831 18.1613 0.852491 18.0933H0.847656Z" fill="#C0DAF0"/>
<path d="M4.53999 23.3579C4.65119 23.3239 4.7624 23.2899 4.88811 23.251C4.82525 23.3919 4.75756 23.5524 4.68504 23.7079C4.63669 23.5913 4.58834 23.4746 4.53516 23.3531L4.53999 23.3579Z" fill="#C0DAF0"/>
<path d="M10.1328 29.7205C10.2295 29.633 10.3262 29.5504 10.4229 29.4629C10.4422 29.4823 10.4664 29.4969 10.4858 29.5164C10.4132 29.633 10.3407 29.7546 10.2682 29.8712C10.2247 29.8226 10.1763 29.7691 10.1328 29.7205Z" fill="#C0DAF0"/>
<path d="M8.47656 29.9301C8.56843 29.8134 8.66029 29.6919 8.75215 29.5752C8.75215 29.653 8.75215 29.7259 8.75699 29.8037C8.66512 29.8474 8.56843 29.8912 8.47656 29.9349V29.9301Z" fill="#C0DAF0"/>
<path d="M1.03516 18.9927C1.13669 18.9635 1.23822 18.9344 1.38811 18.8906C1.29141 19.0219 1.22372 19.1142 1.15603 19.2115C1.11735 19.1385 1.07384 19.0656 1.03516 18.9927Z" fill="#C0DAF0"/>
<path d="M5.37202 28.8458C5.41554 28.7777 5.45905 28.7097 5.49773 28.6416C5.52674 28.6562 5.55091 28.6708 5.57992 28.6854C5.53157 28.7826 5.47839 28.8798 5.43004 28.977C5.4107 28.9333 5.39136 28.8944 5.36719 28.8506L5.37202 28.8458Z" fill="#C0DAF0"/>
<path d="M15.0234 32.0977C15.067 32.0297 15.1105 31.9665 15.154 31.8984C15.1782 31.9082 15.1975 31.9227 15.2217 31.9325C15.1733 32.0394 15.1298 32.1512 15.0815 32.2582C15.0621 32.2047 15.0428 32.1464 15.0234 32.0929V32.0977Z" fill="#C0DAF0"/>
<path d="M4.20703 22.4685C4.23604 22.449 4.26022 22.4247 4.28922 22.4053C4.28922 22.5219 4.27956 22.6337 4.27956 22.7504C4.25538 22.6581 4.23121 22.5657 4.21187 22.4733L4.20703 22.4685Z" fill="#C0DAF0"/>
<path d="M5.30469 26.1191C5.34337 26.1483 5.38205 26.1775 5.42073 26.2066C5.38205 26.2212 5.34337 26.2407 5.30469 26.2553C5.30469 26.2115 5.30469 26.1629 5.30469 26.1191Z" fill="#C0DAF0"/>
<path d="M30.0502 27.0815C30.0309 27.1107 30.0115 27.135 29.9922 27.1641C30.0067 27.0961 30.0212 27.028 30.0309 26.96C30.0357 26.9988 30.0405 27.0426 30.0454 27.0815H30.0502Z" fill="#C0DAF0"/>
<path d="M29.4258 25.156C29.4886 25.1414 29.5515 25.122 29.6095 25.1074C29.6095 25.1317 29.6047 25.1463 29.5805 25.156C29.5273 25.156 29.479 25.156 29.4258 25.156Z" fill="#C0DAF0"/>
<path d="M8.33984 29.9929C8.38819 29.9686 8.43171 29.9491 8.48006 29.9248C8.43171 29.9442 8.38819 29.9686 8.33984 29.9929Z" fill="#C0DAF0"/>
<path d="M5.24049 26.3232C5.21632 26.3475 5.19214 26.3719 5.16797 26.401C5.19214 26.3767 5.21632 26.3524 5.24049 26.3232Z" fill="#C0DAF0"/>
<path d="M26.5352 29.8428C26.5593 29.8671 26.5787 29.8914 26.6028 29.9206C26.5787 29.8962 26.5593 29.8719 26.5352 29.8428Z" fill="#C0DAF0"/>
<path d="M4.0024 12.751C4.0024 12.751 3.96856 12.7947 3.94922 12.8142C3.96856 12.7947 3.98306 12.7704 4.0024 12.751Z" fill="#C0DAF0"/>
<path d="M5.2398 13.8586C5.36067 13.5377 5.47671 13.212 5.59759 12.8912C6.1536 11.5738 6.88851 10.3634 7.83615 9.30369C8.66776 8.37522 9.6009 7.54883 10.6839 6.92174C11.3318 6.54744 11.9748 6.15855 12.6614 5.86688C13.2803 5.60438 13.9523 5.46827 14.5954 5.27383C14.7211 5.23494 14.8371 5.18633 14.9628 5.14258C15.4657 5.06966 15.9733 4.99674 16.4762 4.92383C16.892 4.92383 17.3029 4.92383 17.7187 4.92383C17.9702 4.92383 18.2167 4.92383 18.4681 4.92383C18.7921 4.94813 19.116 4.97244 19.4351 4.99674C19.643 5.04049 19.8509 5.08911 20.0588 5.13286C20.494 5.23008 20.9243 5.3273 21.3594 5.41966C21.49 5.44883 21.6205 5.46827 21.7511 5.49258C21.9203 5.56063 22.0895 5.63355 22.2587 5.70161C23.129 6.08563 24.009 6.45994 24.8019 7.00924C24.8744 7.05786 24.9469 7.10161 25.0146 7.15022C25.1984 7.29119 25.3869 7.4273 25.5706 7.56827C25.6577 7.62661 25.7447 7.68494 25.8317 7.73841C25.9961 7.88911 26.1557 8.0398 26.3201 8.19049C26.3926 8.26341 26.4603 8.33633 26.5328 8.40438C26.7165 8.58425 26.8954 8.76897 27.0791 8.94883C27.1468 9.04119 27.2194 9.13355 27.287 9.22591C27.4273 9.38633 27.5675 9.54674 27.7028 9.70716C27.7705 9.80438 27.8382 9.89674 27.9059 9.99397C28.1815 10.4315 28.4861 10.8592 28.7327 11.3162C28.9454 11.7099 29.1485 12.128 29.2742 12.5558C29.5498 13.4988 29.7964 14.4516 30.0188 15.4092C30.101 15.7592 30.101 16.1335 30.1155 16.4981C30.13 17.0523 30.1251 17.6065 30.1251 18.1606C30.1251 18.2773 30.1251 18.3891 30.1251 18.5058C30.0816 18.7877 30.0381 19.0697 29.9946 19.3516C29.9704 19.4634 29.9414 19.5752 29.9172 19.6822C29.8689 19.9836 29.8205 20.2849 29.7722 20.5863C29.7529 20.6106 29.7335 20.6349 29.7142 20.6592C29.6852 20.7954 29.6562 20.9315 29.6271 21.0724H29.632C29.6126 21.0919 29.5933 21.1162 29.5788 21.1356C29.1775 22.5599 28.5006 23.8481 27.6255 25.0342C27.0115 25.8606 26.3249 26.619 25.4885 27.2315C25.4643 27.2509 25.4498 27.2849 25.4304 27.3141C25.3821 27.3822 25.3289 27.4502 25.2806 27.5183C25.0581 27.6592 24.8309 27.8051 24.6085 27.9461C24.5602 27.9655 24.5118 27.9849 24.4683 28.0044C24.4199 28.0287 24.3764 28.053 24.3281 28.0724C24.3039 28.0967 24.2797 28.1162 24.2555 28.1405C24.212 28.1648 24.1685 28.1891 24.1202 28.2183C24.0718 28.2426 24.0283 28.262 23.98 28.2863C23.9509 28.3106 23.9219 28.3301 23.8929 28.3544C23.8542 28.3738 23.8107 28.3981 23.7721 28.4176C23.7285 28.4419 23.6802 28.4662 23.6367 28.4954C23.5932 28.5197 23.5448 28.544 23.5013 28.5683C23.3176 28.6849 23.1338 28.8016 22.9501 28.9231C22.7084 28.9912 22.4618 29.0544 22.22 29.1322C21.664 29.3169 21.108 29.5065 20.5568 29.696C20.025 29.8127 19.4883 29.9245 18.9565 30.0412C18.7341 30.0655 18.5068 30.0898 18.2844 30.1141C17.9121 30.1141 17.5398 30.1141 17.1627 30.1141C16.8001 30.1141 16.4375 30.1141 16.0749 30.1141C15.7461 30.046 15.4221 29.9731 15.0934 29.9051C14.7549 29.837 14.4165 29.769 14.078 29.7009C13.9378 29.6717 13.8024 29.6474 13.6622 29.6183C13.1401 29.4044 12.6179 29.1954 12.0909 28.9815C11.9942 28.9377 11.8927 28.894 11.796 28.8502C11.5639 28.7335 11.3318 28.6169 11.0997 28.4954C10.9885 28.4273 10.8822 28.3592 10.771 28.2912C10.3793 28.0092 9.99253 27.7322 9.6009 27.4502C9.58156 27.4259 9.56706 27.4065 9.54772 27.3822C9.37366 27.2655 9.20444 27.1537 9.03038 27.037C8.9917 26.969 8.94819 26.896 8.90951 26.828C8.75479 26.687 8.60007 26.5509 8.44535 26.4099C8.44535 26.3905 8.43085 26.371 8.41634 26.3613C8.40184 26.3419 8.3825 26.3176 8.368 26.2981C8.25196 26.1815 8.13592 26.0648 8.01988 25.9481C7.8845 25.7829 7.74913 25.6176 7.61375 25.4474C7.52188 25.3356 7.42519 25.2238 7.33332 25.112C7.19311 24.9224 7.05773 24.7329 6.91752 24.5433C6.90301 24.5238 6.88367 24.4995 6.86917 24.4801C6.58874 23.9891 6.30832 23.503 6.02789 23.012C6.02306 22.9731 6.01822 22.9342 6.00855 22.8954C5.89735 22.662 5.79098 22.4335 5.67978 22.2002C5.65077 22.1079 5.62176 22.0155 5.59275 21.928C5.10926 20.703 4.80466 19.4391 4.76598 18.1169C4.74664 18.0926 4.7273 18.0634 4.70796 18.0391C4.70796 17.7669 4.70796 17.4947 4.70796 17.2273C4.72246 17.203 4.7418 17.1787 4.75631 17.1544C4.75631 17.0183 4.76598 16.8822 4.75631 16.746C4.74664 16.5613 4.72246 16.3766 4.70312 16.1919C4.7418 16.1433 4.78532 16.0947 4.824 16.046C4.84817 15.769 4.87235 15.4919 4.89652 15.2148C4.89652 15.171 4.89652 15.1224 4.89652 15.0787C4.98839 14.7287 5.07541 14.3836 5.16728 14.0336C5.19145 13.9898 5.21563 13.9412 5.2398 13.8974V13.8586ZM16.9113 5.34674C15.572 5.24466 14.1844 5.63841 12.8161 6.13424C11.5639 6.59119 10.534 7.40299 9.54772 8.26341C8.24712 9.40577 7.28497 10.8204 6.58874 12.4051C5.81032 14.1648 5.41386 15.9926 5.57341 17.937C5.67011 19.1037 5.89252 20.2315 6.28414 21.3301C7.01905 23.3669 8.18427 25.112 9.77979 26.5704C10.8435 27.5426 12.0232 28.3301 13.348 28.8794C14.5229 29.3655 15.7364 29.6912 17.0177 29.7204C17.5012 29.7301 17.9895 29.769 18.4633 29.7106C19.1934 29.6183 19.9138 29.4676 20.6342 29.312C21.4658 29.137 22.22 28.7579 22.9695 28.3592C24.7149 27.4356 26.1315 26.1474 27.2435 24.5238C28.2492 23.0655 28.9212 21.4516 29.2113 19.7016C29.3516 18.846 29.4869 17.9808 29.3612 17.096C29.2549 16.3669 29.279 15.6134 29.1292 14.8988C28.694 12.8523 27.7754 11.0342 26.3926 9.46897C25.3579 8.29744 24.125 7.35924 22.7325 6.65924C20.9485 5.7648 19.0628 5.28355 16.9161 5.34188L16.9113 5.34674Z" fill="#222222"/>
<path d="M11.7888 28.8262C11.8855 28.8699 11.987 28.9137 12.0837 28.9574C11.8613 29.0595 11.6437 29.1616 11.4213 29.2637C11.402 29.2442 11.3826 29.2248 11.3633 29.2053C11.5035 29.079 11.6485 28.9526 11.7888 28.8262Z" fill="#C0DAF0"/>
<path d="M5.58104 21.8994C5.61005 21.9918 5.63906 22.0841 5.66807 22.1716C5.57137 22.1716 5.47951 22.1716 5.38281 22.1765C5.4505 22.0841 5.51819 21.9918 5.58104 21.9043V21.8994Z" fill="#C0DAF0"/>
<path d="M6.49008 25.9199C6.50942 25.9491 6.53359 25.9782 6.55293 26.0025C6.46107 26.0657 6.36921 26.1289 6.27734 26.1921C6.34987 26.0998 6.41756 26.0074 6.49008 25.915V25.9199Z" fill="#C0DAF0"/>
<path d="M25.2773 27.504C25.3257 27.4359 25.3789 27.3679 25.4272 27.2998C25.4611 27.3387 25.4998 27.3776 25.5336 27.4165C25.4466 27.4456 25.3595 27.4748 25.2773 27.504Z" fill="#C0DAF0"/>
<path d="M5.62891 28.5685L5.8223 28.3838C5.86098 28.4227 5.89966 28.4616 5.94318 28.5053C5.88032 28.5685 5.81747 28.6317 5.75461 28.6949L5.63374 28.5734L5.62891 28.5685Z" fill="#C0DAF0"/>
<path d="M5.99344 22.8662C5.99828 22.9051 6.00311 22.944 6.01278 22.9829C5.98377 23.0218 5.95476 23.0558 5.92575 23.0947C5.89191 23.0607 5.85806 23.0218 5.82422 22.9877C5.88224 22.9488 5.94026 22.91 5.99828 22.8662H5.99344Z" fill="#C0DAF0"/>
<path d="M9.53362 27.3633C9.53362 27.3633 9.56747 27.407 9.58681 27.4313C9.53846 27.4751 9.48527 27.5237 9.43693 27.5674C9.41759 27.548 9.39825 27.5237 9.37891 27.5043C9.43209 27.4556 9.48044 27.4119 9.53362 27.3633Z" fill="#C0DAF0"/>
<path d="M6.85672 24.4512C6.85672 24.4512 6.89057 24.4949 6.90507 24.5144C6.83255 24.5435 6.76486 24.5727 6.69234 24.6019L6.6875 24.597C6.74068 24.5484 6.7987 24.4998 6.85189 24.4512H6.85672Z" fill="#C0DAF0"/>
<path d="M4.89745 15.04C4.89745 15.0838 4.89745 15.1324 4.89745 15.1761C4.82976 15.1518 4.76691 15.1324 4.69922 15.1081C4.76691 15.0838 4.8346 15.0595 4.90229 15.0352L4.89745 15.04Z" fill="#C0DAF0"/>
<path d="M6 29.4534C6.05802 29.3999 6.12087 29.3416 6.17889 29.2881C6.1934 29.3124 6.21274 29.3367 6.22724 29.3659C6.14988 29.395 6.07252 29.4242 6 29.4534Z" fill="#C0DAF0"/>
<path d="M21.3603 30.5617C21.4087 30.4985 21.4618 30.4401 21.5102 30.377C21.5295 30.4061 21.5537 30.4401 21.573 30.4693C21.5005 30.4985 21.428 30.5276 21.3555 30.5617H21.3603Z" fill="#C0DAF0"/>
<path d="M26.207 26.9595C26.2554 26.9255 26.2989 26.8915 26.3472 26.8623C26.3569 26.8769 26.3714 26.8915 26.3811 26.9109C26.3376 26.9449 26.2892 26.979 26.2457 27.013C26.2312 26.9936 26.2215 26.979 26.207 26.9595Z" fill="#C0DAF0"/>
<path d="M26.8694 26.6394L26.734 26.7366C26.734 26.7366 26.7098 26.7074 26.6953 26.6928C26.7388 26.654 26.7775 26.6151 26.821 26.5762C26.8355 26.5956 26.8549 26.6199 26.8694 26.6394Z" fill="#C0DAF0"/>
<path d="M5.38685 22.1768C5.34334 22.24 5.30466 22.3031 5.26114 22.3663C5.2418 22.3469 5.22246 22.3226 5.20312 22.3031C5.26114 22.2594 5.324 22.2156 5.38202 22.1768H5.38685Z" fill="#C0DAF0"/>
<path d="M27.9961 25.9195C28.0444 25.8855 28.088 25.8514 28.1363 25.8223C28.146 25.8368 28.1605 25.8514 28.1701 25.8709C28.1266 25.9049 28.0783 25.9389 28.0348 25.973C28.0203 25.9535 28.0106 25.9389 27.9961 25.9195Z" fill="#C0DAF0"/>
<path d="M4.52395 16.3864C4.4756 16.3864 4.42726 16.3815 4.37891 16.3766C4.37891 16.3572 4.37891 16.3183 4.38374 16.3183C4.43209 16.3135 4.4756 16.3135 4.52395 16.3086C4.52395 16.3329 4.52395 16.3572 4.52395 16.3815V16.3864Z" fill="#C0DAF0"/>
<path d="M29.7148 27.2079C29.7487 27.1981 29.7874 27.1738 29.8212 27.1738C29.8454 27.1738 29.8647 27.2079 29.9179 27.2467H29.7245C29.7245 27.2467 29.7245 27.2224 29.7197 27.2079H29.7148Z" fill="#C0DAF0"/>
<path d="M28.2931 28.9138C28.2931 28.9138 28.2496 28.9381 28.2351 28.9333C28.2206 28.9284 28.2206 28.8992 28.2109 28.8798C28.2303 28.8701 28.2545 28.8555 28.269 28.8603C28.2835 28.8652 28.2835 28.8944 28.2931 28.9138Z" fill="#C0DAF0"/>
<path d="M1.60172 18.7344C1.57755 18.8122 1.56788 18.851 1.55821 18.8899C1.54371 18.8608 1.52437 18.8365 1.51953 18.8073C1.51953 18.7976 1.54854 18.7781 1.60172 18.7344Z" fill="#C0DAF0"/>
<path d="M4.69397 15.1133C4.65046 15.1619 4.60211 15.2056 4.55859 15.2543C4.60694 15.2056 4.65046 15.157 4.69881 15.1133H4.69397Z" fill="#C0DAF0"/>
<path d="M6.12259 28.2969C6.12259 28.2969 6.17094 28.3115 6.17578 28.326C6.18061 28.3406 6.16127 28.3649 6.1516 28.3844C6.13226 28.3747 6.10325 28.3698 6.09842 28.3601C6.09358 28.3455 6.11292 28.3212 6.12259 28.3017V28.2969Z" fill="#C0DAF0"/>
<path d="M6.00484 27.0816C6.02417 27.0525 6.04835 27.0184 6.06769 26.9893C6.08219 27.0038 6.09186 27.0184 6.10637 27.0281C6.07252 27.0476 6.04351 27.0719 6.00967 27.0913L6 27.0816H6.00484Z" fill="#C0DAF0"/>
<path d="M15.4234 31.7627C15.4234 31.7627 15.4717 31.7773 15.4766 31.7919C15.4814 31.8064 15.4621 31.8308 15.4524 31.8502C15.433 31.8405 15.404 31.8356 15.3992 31.8259C15.3944 31.8113 15.4137 31.787 15.4234 31.7676V31.7627Z" fill="#C0DAF0"/>
<path d="M6.69099 24.6025C6.64264 24.6463 6.59913 24.6949 6.55078 24.7386C6.5943 24.69 6.64264 24.6463 6.68616 24.5977L6.69099 24.6025Z" fill="#C0DAF0"/>
<path d="M18.5906 31.3496C18.5906 31.3496 18.6293 31.3642 18.6486 31.3739C18.6389 31.3934 18.6341 31.4225 18.6244 31.4274C18.6099 31.4323 18.5857 31.4128 18.5664 31.4079C18.5761 31.3885 18.5809 31.3691 18.5906 31.3496Z" fill="#C0DAF0"/>
<path d="M4.59875 17.2428C4.59875 17.2428 4.58424 17.2915 4.56974 17.2963C4.55523 17.3012 4.53106 17.2817 4.51172 17.272C4.52139 17.2526 4.52622 17.2234 4.53589 17.2185C4.5504 17.2137 4.57457 17.2331 4.59391 17.2428H4.59875Z" fill="#C0DAF0"/>
<path d="M4.39469 15.4099C4.39469 15.4099 4.35118 15.4342 4.33667 15.4294C4.32217 15.4245 4.32217 15.3953 4.3125 15.3759C4.33184 15.3662 4.35601 15.3516 4.37052 15.3564C4.38502 15.3613 4.38502 15.3905 4.39469 15.4099Z" fill="#C0DAF0"/>
<path d="M6.55559 24.7383C6.52658 24.7723 6.49757 24.8063 6.47339 24.8452C6.46372 24.8355 6.45889 24.8306 6.44922 24.8209C6.48306 24.7918 6.51691 24.7626 6.55559 24.7383Z" fill="#C0DAF0"/>
<path d="M5.78177 23.2458C5.73825 23.2555 5.69474 23.2701 5.65122 23.2798C5.64639 23.2652 5.64155 23.2507 5.63672 23.2409C5.6754 23.2215 5.71408 23.202 5.74792 23.1777C5.75759 23.202 5.7721 23.2215 5.78177 23.2458Z" fill="#C0DAF0"/>
<path d="M22.9047 30.3524C22.9047 30.3524 22.8854 30.3816 22.8757 30.3913C22.8757 30.3913 22.8516 30.3816 22.8516 30.3767C22.8516 30.3572 22.8516 30.3378 22.8516 30.3184C22.8709 30.3281 22.8854 30.3378 22.9047 30.3475V30.3524Z" fill="#C0DAF0"/>
<path d="M16.8649 31.9277V32.0298C16.8649 32.0298 16.8456 32.0298 16.8359 32.0298V31.9277C16.8359 31.9277 16.8553 31.9277 16.8649 31.9277Z" fill="#C0DAF0"/>
<path d="M4.16925 16.576C4.16925 16.576 4.14508 16.6003 4.12574 16.61C4.12574 16.61 4.10156 16.5954 4.10156 16.5906C4.10156 16.5711 4.11123 16.5566 4.11607 16.5371C4.13057 16.5517 4.14991 16.5614 4.16442 16.576H4.16925Z" fill="#C0DAF0"/>
<path d="M9.19567 27.7274C9.19567 27.7274 9.17149 27.7517 9.15699 27.7614C9.15699 27.7614 9.13281 27.7517 9.13281 27.7468C9.13281 27.7274 9.13765 27.7079 9.14248 27.6885C9.16182 27.7031 9.17633 27.7128 9.19567 27.7274Z" fill="#C0DAF0"/>
<path d="M21.9418 30.2215C21.9418 30.2215 21.9176 30.2458 21.9031 30.2555C21.9031 30.2555 21.8789 30.2458 21.8789 30.2409C21.8789 30.2215 21.8837 30.2021 21.8886 30.1826C21.9079 30.1972 21.9224 30.2069 21.9418 30.2215Z" fill="#C0DAF0"/>
<path d="M23.2703 30.0566V30.1587H23.2461V30.0566H23.2703Z" fill="#C0DAF0"/>
<path d="M4.561 15.2539C4.55133 15.2831 4.54166 15.3122 4.53199 15.3414C4.52232 15.3365 4.50781 15.3268 4.50781 15.3219C4.52232 15.2976 4.54166 15.2733 4.55616 15.249L4.561 15.2539Z" fill="#C0DAF0"/>
<path d="M1.82867 16.605C1.82867 16.605 1.79966 16.6144 1.78999 16.6144C1.78999 16.605 1.78999 16.5955 1.78516 16.5908C1.79966 16.5908 1.80933 16.6003 1.83351 16.605H1.82867Z" fill="#C0DAF0"/>
<path d="M27.6298 26.192C27.6395 26.1628 27.6492 26.1337 27.654 26.1045C27.6637 26.1094 27.6733 26.1142 27.6782 26.1239L27.625 26.1969L27.6298 26.192Z" fill="#C0DAF0"/>
<path d="M24.1172 28.1989C24.1607 28.1746 24.2042 28.1503 24.2526 28.1211C24.2091 28.1454 24.1655 28.1697 24.1172 28.1989Z" fill="#C0DAF0"/>
<path d="M25.8438 27.232C25.8534 27.2029 25.8631 27.1737 25.8728 27.1445C25.8824 27.1494 25.8921 27.1543 25.8969 27.164C25.8776 27.1883 25.8631 27.2126 25.8438 27.2369V27.232Z" fill="#C0DAF0"/>
<path d="M24.4609 27.9851C24.5093 27.9656 24.5576 27.9462 24.6012 27.9268C24.5528 27.9462 24.5045 27.9656 24.4609 27.9851Z" fill="#C0DAF0"/>
<path d="M24.3203 28.0583C24.3687 28.034 24.4122 28.0097 24.4605 27.9902C24.4122 28.0145 24.3687 28.0388 24.3203 28.0583Z" fill="#C0DAF0"/>
<path d="M23.6328 28.4713C23.6763 28.447 23.7247 28.4227 23.7682 28.3936C23.7247 28.4179 23.6763 28.4422 23.6328 28.4713Z" fill="#C0DAF0"/>
<path d="M26.651 28.8944C26.651 28.8944 26.6365 28.909 26.6317 28.9187C26.6269 28.909 26.6172 28.8993 26.6172 28.8895C26.6172 28.8798 26.6269 28.875 26.6365 28.8652C26.6414 28.875 26.6462 28.8847 26.651 28.8944Z" fill="#C0DAF0"/>
<path d="M26.3164 29.0935C26.3454 29.074 26.3696 29.0546 26.3986 29.0352C26.4083 29.0497 26.4131 29.0595 26.4228 29.074L26.3357 29.1129L26.3164 29.0935Z" fill="#C0DAF0"/>
<path d="M15.0382 29.9492C15.0382 29.9492 15.0478 29.9728 15.043 29.9728C15.0333 29.9776 15.0237 29.9776 15.014 29.9823C15.014 29.9728 15.0043 29.9587 15.0092 29.9587C15.0188 29.9539 15.0285 29.9539 15.0382 29.9492Z" fill="#C0DAF0"/>
<path d="M18.75 31.2471C18.75 31.2471 18.7935 31.2568 18.8177 31.2665C18.8032 31.2908 18.7887 31.3151 18.7742 31.3443C18.7645 31.3151 18.7597 31.2811 18.75 31.2519V31.2471Z" fill="#C0DAF0"/>
<path d="M29.4247 25.1562C29.4247 25.1562 29.415 25.1751 29.4102 25.1846C29.415 25.1751 29.4198 25.1657 29.4247 25.1562Z" fill="#C0DAF0"/>
<path d="M28.5312 25.6377C28.5312 25.6377 28.55 25.6471 28.5594 25.6519L28.5312 25.6377Z" fill="#C0DAF0"/>
<path d="M28.5243 25.6372C28.5243 25.6372 28.5055 25.6278 28.4961 25.623C28.5055 25.6278 28.5149 25.6325 28.5243 25.6372Z" fill="#C0DAF0"/>
<path d="M27.2196 26.3999C27.2196 26.3999 27.2008 26.3905 27.1914 26.3857C27.2008 26.3905 27.2102 26.3952 27.2196 26.3999Z" fill="#C0DAF0"/>
<path d="M25.8426 27.2324C25.8426 27.2324 25.833 27.2513 25.8281 27.2608C25.833 27.2513 25.8378 27.2419 25.8426 27.2324Z" fill="#C0DAF0"/>
<path d="M26.3359 29.1132C26.3359 29.1132 26.2924 29.1618 26.2682 29.1861C26.2586 29.1764 26.244 29.1618 26.2344 29.1521C26.2634 29.1327 26.2876 29.1132 26.3166 29.0986L26.3359 29.1181V29.1132Z" fill="#C0DAF0"/>
<path d="M27.6317 26.1914C27.6317 26.1914 27.622 26.2103 27.6172 26.2197C27.622 26.2103 27.6269 26.2009 27.6317 26.1914Z" fill="#C0DAF0"/>
<path d="M1.69299 17.6992L1.70238 17.7134H1.68359L1.69299 17.6992Z" fill="#C0DAF0"/>
<path d="M6.28013 26.1914C6.28013 26.1914 6.27046 26.2103 6.26562 26.2197C6.27046 26.2103 6.27529 26.2009 6.28013 26.1914Z" fill="#C0DAF0"/>
<path d="M4.84375 12.0309L4.86792 12.0215L4.86309 12.0404L4.84375 12.0309Z" fill="#C0DAF0"/>
<path d="M27.2188 26.4004C27.2188 26.4004 27.2375 26.4098 27.2469 26.4146C27.2375 26.4098 27.2281 26.4051 27.2188 26.4004Z" fill="#C0DAF0"/>
<path d="M8.40382 26.3376C8.40382 26.3376 8.36997 26.2939 8.35547 26.2744C8.36997 26.2939 8.38931 26.3182 8.40382 26.3376Z" fill="#C0DAF0"/>
<path d="M29.769 20.582C29.769 20.582 29.7303 20.6306 29.7109 20.6549C29.7303 20.6306 29.7496 20.6063 29.769 20.582Z" fill="#C0DAF0"/>
<path d="M21.3858 22.1861C21.8693 22.4 22.0386 22.8569 21.9854 23.4256C21.9322 23.9993 21.6083 24.4076 21.1006 24.6069C20.8298 24.7138 20.7912 24.9034 20.7573 25.1076C20.5639 26.1527 19.916 26.7847 19.0022 27.2611C18.2818 27.6402 17.5276 27.7375 16.7782 27.6256C16.2608 27.5527 15.7338 27.3048 15.289 27.0131C14.5106 26.5076 14.1915 25.7006 14.1238 24.7916C13.0553 24.5583 12.4267 23.2895 13.5823 22.2784C13.1181 22.0013 12.8764 21.5687 12.7555 21.0631C12.5621 20.2659 12.0641 19.6631 11.5564 19.0506C10.8167 18.1659 10.3719 17.1402 10.1301 16.0027C9.80621 14.4569 10.0721 12.9937 10.7248 11.618C11.4162 10.15 12.4606 8.96384 13.9062 8.1569C15.2262 7.41801 16.6331 7.11176 18.1223 7.22356C19.7613 7.34995 21.2311 7.89926 22.4737 9.04162C23.6631 10.1305 24.4415 11.4479 24.7848 13.0034C25.2441 15.0937 24.8428 17.0284 23.518 18.7347C22.9234 19.5027 22.3867 20.2902 22.0627 21.2236C21.937 21.5736 21.6276 21.8604 21.3907 22.1861H21.3858ZM18.3302 20.927C18.3302 20.8784 18.3302 20.8298 18.3302 20.7812C18.5719 19.9305 18.8137 19.0798 19.0506 18.2437H15.9514C16.3382 19.2354 16.6476 20.227 16.6911 21.2819C16.696 21.4472 16.812 21.6027 16.8797 21.7631C16.928 21.8166 16.9716 21.9138 17.0247 21.9187C17.397 21.943 17.7693 21.9527 18.1416 21.9479C18.1851 21.9479 18.2528 21.8361 18.2625 21.7729C18.2963 21.4909 18.3108 21.209 18.3302 20.927ZM14.6895 17.7965C14.5444 17.5923 14.4042 17.3881 14.2592 17.1791C14.2398 17.1548 14.2253 17.1256 14.206 17.1013C14.206 17.0236 14.1721 16.9215 14.206 16.8777C14.3994 16.6347 14.8877 16.6201 15.0811 16.8631C15.2793 17.1111 15.4727 17.3687 15.6226 17.6506C15.7193 17.8354 15.8208 17.884 16.0142 17.8791C16.8265 17.8694 17.6485 17.8305 18.4559 17.8888C19.0796 17.9326 19.5002 17.7916 19.7855 17.1937C19.9644 16.8145 20.4479 16.5666 20.8443 16.7708C20.7476 16.9215 20.6558 17.0673 20.5542 17.2131C19.6163 18.5548 19.1376 20.0472 19.0893 21.6805C19.0844 21.8895 19.1618 21.9722 19.3697 21.9625C19.7178 21.9527 20.0611 21.9527 20.4092 21.9625C20.941 21.9722 21.1006 21.8895 21.2408 21.3597C21.4922 20.3875 22.0482 19.6048 22.6429 18.827C23.1022 18.2291 23.5664 17.6166 23.7163 16.8388C23.8081 16.3527 23.9338 15.8715 24.0451 15.3902C24.0451 15.2979 24.0451 15.2104 24.0451 15.118C24.0837 14.35 24.0934 13.5819 23.9097 12.8236C23.8855 12.7312 23.8565 12.634 23.8323 12.5416C23.7501 12.3375 23.6679 12.1284 23.5809 11.9243C23.5567 11.8708 23.5277 11.8125 23.5035 11.759C23.4068 11.5743 23.3101 11.3944 23.2134 11.2097C23.1071 11.0298 23.0055 10.8548 22.8992 10.675C22.759 10.5145 22.6236 10.3493 22.4834 10.1888C22.4544 10.1402 22.4302 10.0868 22.4012 10.0381C22.2465 9.88259 22.0869 9.72217 21.9322 9.56662L21.7775 9.42565C21.5744 9.28954 21.3762 9.15342 21.1731 9.01245C21.1248 8.9687 21.0812 8.92495 21.0329 8.87634C20.8298 8.75967 20.6219 8.64301 20.4189 8.52634C20.2303 8.43884 20.0417 8.34648 19.8532 8.25898C19.6018 8.16662 19.3455 8.07426 19.0941 7.9819C18.9829 7.95759 18.8717 7.93329 18.7556 7.90898C18.306 7.83606 17.8612 7.73884 17.4115 7.70481C17.1021 7.68051 16.7878 7.74856 16.4736 7.77287C16.1593 7.81662 15.8402 7.86523 15.5259 7.90898C15.4486 7.9187 15.3664 7.9187 15.2938 7.94301C14.4236 8.2444 13.65 8.69162 12.9924 9.34787C12.1898 10.1548 11.6145 11.093 11.2954 12.1868C11.2712 12.2694 11.247 12.352 11.218 12.4298C11.1358 12.7458 11.0536 13.0618 10.9714 13.3729L10.9037 13.9173C10.8989 14.1944 10.8892 14.4763 10.8844 14.7534C10.8892 14.8215 10.8989 14.8847 10.9037 14.9527C10.9279 15.1666 10.9472 15.3756 10.9714 15.5895C10.9908 15.6673 11.0101 15.7451 11.0294 15.8229C11.0778 16.0416 11.1261 16.2652 11.1745 16.484C11.1987 16.552 11.218 16.6201 11.2422 16.693C11.3099 16.8777 11.3824 17.0625 11.4501 17.252C11.5419 17.4173 11.6338 17.5826 11.7208 17.7479C11.832 17.9277 11.9481 18.1125 12.0593 18.2923C12.1028 18.3604 12.1511 18.4333 12.1947 18.5013L12.5815 18.9923C12.6346 19.0652 12.6927 19.1333 12.7458 19.2062C12.7942 19.2791 12.8425 19.3569 12.8957 19.4298C13.2535 19.9013 13.5581 20.402 13.6596 21C13.7128 21.0972 13.7612 21.1944 13.8144 21.2916C14.0174 21.4909 14.1915 21.7972 14.4284 21.8604C14.8732 21.977 15.3567 21.9527 15.9272 21.9965C15.8208 21.2965 15.729 20.6888 15.6371 20.0763C15.6178 20.0326 15.5984 19.9888 15.5791 19.9451C15.4486 19.2111 15.1826 18.5354 14.7427 17.9326C14.7233 17.884 14.704 17.8354 14.6846 17.7868L14.6895 17.7965ZM16.3334 26.8965L16.754 27.0958C17.1456 27.4263 17.6485 27.4069 18.0643 27.3145C19.4277 27.0131 19.9112 25.8125 19.9595 24.8694H15.0183C15.202 25.7687 15.6323 26.425 16.3382 26.8965H16.3334ZM20.472 22.5215C20.2303 22.502 19.9886 22.4583 19.7468 22.4631C19.0312 22.4631 18.3157 22.4923 17.6001 22.502C16.5219 22.5166 15.4437 22.5118 14.3655 22.5361C14.2398 22.5361 14.0754 22.6333 14.0029 22.7402C13.6258 23.2798 13.8095 23.9069 14.4091 24.1986C14.5493 24.2326 14.6895 24.2715 14.8297 24.3055C15.6806 24.3055 16.5316 24.3152 17.3777 24.3152C17.6485 24.3152 17.924 24.3104 18.1948 24.3055C18.2867 24.3104 18.3737 24.325 18.4656 24.325C19.0699 24.325 19.6743 24.325 20.2835 24.325C20.6364 24.325 20.9507 24.2229 21.0861 23.8875C21.2408 23.5034 21.2118 23.1145 20.8927 22.7986C20.7525 22.7062 20.6123 22.6138 20.4769 22.5215H20.472Z" fill="#222222"/>
<path d="M11.4533 17.2618C11.3856 17.077 11.3131 16.8923 11.2454 16.7027C11.7773 16.343 12.3091 15.9833 12.841 15.6236C12.8651 15.5993 12.8893 15.575 12.9135 15.5507C12.8796 15.5604 12.841 15.575 12.8071 15.5847L11.1729 16.4937C11.1246 16.275 11.0762 16.0513 11.0279 15.8326C11.5162 15.5118 12.0045 15.1861 12.4977 14.8652C12.5219 14.8409 12.546 14.8166 12.5702 14.7875C12.5364 14.7972 12.4977 14.8118 12.4638 14.8215C12.343 14.8798 12.2173 14.9333 12.1012 14.9965C11.7241 15.1958 11.347 15.4 10.9698 15.5993C10.9457 15.3854 10.9263 15.1763 10.9022 14.9625C11.2454 14.7388 11.5887 14.5152 11.932 14.2868C11.9127 14.2576 11.8933 14.2284 11.874 14.1944C11.5452 14.384 11.2116 14.5736 10.8828 14.7583C10.8876 14.4812 10.8973 14.1993 10.9022 13.9222C10.9553 13.9076 11.0182 13.9076 11.0617 13.8736C11.7628 13.3632 12.4638 12.8527 13.1601 12.3423C13.5082 12.3229 13.7693 12.1965 13.9578 11.8708C14.1077 11.6034 14.3059 11.3507 14.5283 11.1416C15.3406 10.3736 16.2979 9.94579 17.439 9.98468C17.1247 10.2229 16.8153 10.4611 16.501 10.6993C16.6219 10.7236 16.7186 10.6993 16.8008 10.6507C17.3906 10.3152 17.9756 9.97982 18.5607 9.63468C19.1795 9.2701 19.7984 8.89093 20.4173 8.52148C20.6203 8.63815 20.8282 8.75482 21.0313 8.86662C20.572 9.18746 20.1127 9.51315 19.6534 9.83398C19.6727 9.86315 19.692 9.89232 19.7162 9.92635C20.1997 9.6201 20.688 9.30898 21.1715 9.00273C21.3746 9.13885 21.5728 9.27496 21.7759 9.41593C21.2344 9.77079 20.6929 10.1257 20.1514 10.4805C20.1707 10.5145 20.1949 10.5534 20.2142 10.5875C20.7847 10.2423 21.3601 9.90204 21.9306 9.5569C22.0853 9.71246 22.2449 9.87287 22.3996 10.0284C21.7566 10.4416 21.1135 10.8597 20.4705 11.2729C20.4946 11.3069 20.514 11.3409 20.5382 11.375C21.186 10.9763 21.8339 10.5777 22.4866 10.1743C22.6268 10.3347 22.7622 10.5 22.9024 10.6604C22.1385 11.2048 21.3698 11.7541 20.6058 12.2937C19.9531 12.7555 19.2956 13.2076 18.6429 13.6645C18.7734 13.6888 18.8846 13.6694 18.9765 13.6159C19.4455 13.3486 19.9096 13.0715 20.3738 12.8041C21.3214 12.2645 22.2691 11.7298 23.2167 11.1902C23.3134 11.375 23.4101 11.5548 23.5068 11.7395C22.8976 12.1236 22.2836 12.5027 21.6744 12.8868C21.6985 12.9257 21.7179 12.9645 21.742 13.0034C22.3561 12.6388 22.9701 12.2743 23.5842 11.9097C23.6663 12.1138 23.7485 12.3229 23.8356 12.527C23.1152 12.9986 22.3948 13.4652 21.6695 13.9368C21.6889 13.9708 21.7082 14.0048 21.7275 14.034C22.4576 13.6257 23.1829 13.2173 23.9129 12.809C24.0967 13.5673 24.0918 14.3354 24.0483 15.1034C23.5213 15.4632 22.9895 15.8277 22.4625 16.1875C22.3948 16.2361 22.3271 16.2847 22.2594 16.3333C22.2449 16.3479 22.2255 16.3576 22.211 16.3722C22.2352 16.3673 22.2594 16.3625 22.2836 16.3576C22.3561 16.3138 22.4334 16.275 22.506 16.2312C23.0233 15.9493 23.5358 15.6625 24.0531 15.3805C23.9419 15.8618 23.8211 16.343 23.7244 16.8291C23.5745 17.6069 23.1103 18.2194 22.651 18.8173C22.0515 19.5951 21.5003 20.3826 21.2489 21.35C21.1087 21.8847 20.9491 21.9625 20.4173 21.9527C20.0692 21.9479 19.7259 21.943 19.3778 21.9527C19.1699 21.9576 19.0877 21.8798 19.0973 21.6708C19.1505 20.0375 19.6244 18.5451 20.5623 17.2034C20.6639 17.0625 20.7557 16.9118 20.8524 16.7611C20.456 16.552 19.9725 16.8 19.7936 17.184C19.5131 17.7819 19.0877 17.9229 18.464 17.8791C17.6517 17.8208 16.8346 17.8597 16.0223 17.8694C15.8338 17.8694 15.7274 17.8208 15.6307 17.6409C15.4857 17.359 15.2923 17.1013 15.0892 16.8534C14.891 16.6104 14.4026 16.625 14.2141 16.868C14.1754 16.9166 14.2092 17.0187 14.2141 17.0916C14.1899 17.1208 14.1657 17.15 14.1367 17.1791C14.011 17.2277 13.8805 17.2569 13.7644 17.3201C13.1987 17.6409 12.6331 17.9666 12.0674 18.2923C11.9562 18.1125 11.8401 17.9277 11.7289 17.7479C11.8014 17.7138 11.8788 17.6895 11.9417 17.6409C13.0489 16.868 14.1561 16.0902 15.2633 15.3125C15.4615 15.1715 15.6549 15.0305 15.8483 14.8895C15.7274 14.8458 15.6404 14.8652 15.5679 14.9041C14.4993 15.5263 13.4308 16.1486 12.3575 16.7659C12.0625 16.9361 11.7531 17.0868 11.4533 17.2472V17.2618ZM19.4648 9.96037C19.4648 9.96037 19.5035 9.97496 19.5228 9.97496C19.5277 9.97496 19.5373 9.96523 19.547 9.95551C19.5325 9.94579 19.518 9.93121 19.5035 9.93121C19.4938 9.93121 19.4793 9.94579 19.4648 9.96037ZM20.2916 11.4138C20.2916 11.4138 20.3302 11.4284 20.3496 11.4333C20.3544 11.4333 20.3641 11.4187 20.3738 11.4138C20.3593 11.4041 20.3448 11.3895 20.3302 11.3847C20.3206 11.3847 20.3061 11.4041 20.2916 11.4138ZM22.0128 16.4597C22.0128 16.4597 22.0321 16.484 22.037 16.484C22.0563 16.484 22.0757 16.4694 22.0998 16.4645C22.0902 16.4548 22.0805 16.4402 22.0757 16.4451C22.0563 16.4451 22.037 16.4597 22.0176 16.4645L22.0128 16.4597ZM12.0432 14.1798C12.0432 14.1798 12.0287 14.1604 12.0239 14.1604C12.019 14.1604 12.0093 14.1701 12.0045 14.175C12.0093 14.1798 12.019 14.1944 12.0239 14.1944C12.0287 14.1944 12.0384 14.1847 12.0432 14.1798Z" fill="#FF7A00"/>
<path d="M19.0935 7.98639C19.3449 8.07875 19.6011 8.17111 19.8526 8.26348C19.2095 8.72528 18.5713 9.18709 17.9283 9.64889C16.6325 9.54195 15.4721 9.90167 14.4229 10.6697C13.8331 11.0975 13.3544 11.6128 13.016 12.2642C12.9241 12.3031 12.8274 12.3371 12.7404 12.3906C12.1505 12.7211 11.5655 13.0565 10.9805 13.3919C11.0627 13.076 11.1449 12.76 11.227 12.4489C11.4688 12.3079 11.7057 12.1621 11.9475 12.0211C11.9329 11.9968 11.9184 11.9725 11.9088 11.9433C11.7105 12.0308 11.5075 12.1183 11.3092 12.201C11.6283 11.1072 12.2037 10.169 13.0063 9.36209C13.659 8.70098 14.4374 8.25375 15.3077 7.95723C15.3802 7.93292 15.4624 7.93292 15.5398 7.9232C15.2062 8.23431 14.8677 8.54542 14.5341 8.86139C14.5486 8.8857 14.5631 8.91486 14.5777 8.93917C15.2159 8.55514 15.8492 8.17111 16.4874 7.78709C16.8017 7.76278 17.116 7.69473 17.4254 7.71903C17.8751 7.75306 18.3199 7.85028 18.7695 7.9232C18.3441 8.23431 17.9234 8.54542 17.4979 8.85653C17.5124 8.8857 17.5318 8.91 17.5463 8.93917C18.0685 8.6232 18.5858 8.30723 19.108 7.99611L19.0935 7.98639ZM12.0248 11.9044L12.0393 11.885H12.0151L12.0248 11.9044Z" fill="#FF7A00"/>
<path d="M16.8775 21.7685C16.8098 21.6081 16.6938 21.4476 16.689 21.2872C16.6454 20.2275 16.336 19.2407 15.9492 18.249H19.0484C18.8115 19.0851 18.5697 19.9358 18.328 20.7865C18.1201 20.8983 17.9025 20.9956 17.6995 21.1171C17.4094 21.2969 17.0419 21.3844 16.8969 21.7539L16.8775 21.7685Z" fill="#FF7A00"/>
<path d="M13.6638 21.0097C13.5671 20.4118 13.2577 19.9111 12.8999 19.4396C12.8467 19.3667 12.7983 19.2937 12.75 19.216C12.866 19.1479 12.9869 19.0799 13.1029 19.0069C13.6493 18.6521 14.1956 18.2972 14.742 17.9375C15.182 18.5403 15.4431 19.216 15.5784 19.95C15.2932 20.1201 15.0079 20.2951 14.7178 20.4507C14.3697 20.6403 14.0119 20.8201 13.659 21.0049L13.6638 21.0097Z" fill="#FF7A00"/>
<path d="M15.6353 20.0859C15.7271 20.6936 15.819 21.3012 15.9254 22.0061C15.3548 21.9623 14.8762 21.9915 14.4265 21.87C14.1896 21.8068 14.0156 21.5005 13.8125 21.3012C14.4169 20.8977 15.0261 20.4894 15.6304 20.0859H15.6353Z" fill="#FF7A00"/>
<path d="M14.258 17.1787C14.403 17.3829 14.5432 17.587 14.6883 17.796C13.9872 18.1995 13.291 18.603 12.5899 19.0016C12.4594 18.8363 12.3337 18.6759 12.2031 18.5106C12.8462 18.0683 13.4892 17.6259 14.1323 17.1835C14.1758 17.1835 14.2193 17.1787 14.2628 17.1738L14.258 17.1787Z" fill="#FF7A00"/>
<path d="M18.3294 20.9267C18.31 21.2087 18.2907 21.4906 18.2617 21.7726C18.252 21.8358 18.1843 21.9476 18.1408 21.9476C17.7685 21.9476 17.3962 21.9476 17.024 21.9184C16.9708 21.9184 16.9273 21.8163 16.8789 21.7628L16.8982 21.7483C17.0433 21.7094 17.2125 21.7045 17.3334 21.6267C17.6767 21.408 18.0006 21.1601 18.3294 20.9219V20.9267Z" fill="#FF7A00"/>
<path d="M10.8867 14.768C11.2155 14.5784 11.5491 14.3888 11.8779 14.2041C11.8972 14.2333 11.9166 14.2624 11.9359 14.2965C11.5926 14.5201 11.2493 14.7437 10.9061 14.9722C10.9012 14.9041 10.8916 14.8409 10.8867 14.7729V14.768Z" fill="#C0DAF0"/>
<path d="M11.2931 12.1961C11.4914 12.1086 11.6944 12.0211 11.8927 11.9385C11.9072 11.9628 11.9217 11.9871 11.9313 12.0163C11.6896 12.1572 11.4527 12.3031 11.2109 12.444C11.2351 12.3614 11.2593 12.2788 11.2883 12.201L11.2931 12.1961Z" fill="#C0DAF0"/>
<path d="M13.1664 12.3516C13.1133 12.3224 13.0649 12.2884 13.0117 12.2592C13.3453 11.6078 13.8288 11.0926 14.4187 10.6648C15.4679 9.9016 16.6282 9.54187 17.924 9.64396C17.7644 9.76062 17.6001 9.87729 17.4405 9.99396C16.3043 9.95021 15.347 10.3828 14.5299 11.1509C14.3075 11.3599 14.1092 11.6127 13.9594 11.8801C13.7756 12.2058 13.5097 12.3322 13.1616 12.3516H13.1664Z" fill="#222222"/>
<path d="M12.0426 14.179C12.0426 14.179 12.0281 14.1932 12.0232 14.1932C12.0184 14.1932 12.0087 14.1838 12.0039 14.1743C12.0087 14.1696 12.0184 14.1602 12.0232 14.1602C12.0281 14.1602 12.0378 14.1696 12.0426 14.179Z" fill="#C0DAF0"/>
<path d="M12.0253 11.9045L12.0156 11.8809L12.0398 11.8856L12.0253 11.9045Z" fill="#C0DAF0"/>
</g>
<defs>
<clipPath id="clip0_329_3325">
<rect width="35" height="35" fill="white"/>
</clipPath>
</defs>
</svg>
