<svg width="30" height="30" viewBox="0 0 30 30" fill="none" xmlns="http://www.w3.org/2000/svg">
<rect width="29.91" height="29.91" rx="14.955" fill="#FF7A00"/>
<path d="M18.5 22.3438H12.125V22.875H18.5V22.3438Z" fill="white"/>
<path d="M18.5 8H12.125V8.53125H18.5V8Z" fill="white"/>
<path d="M18.5 17.5625H13.7188V18.0938H18.5V17.5625Z" fill="white"/>
<path d="M13.1875 17.5625H12.125V18.0938H13.1875V17.5625Z" fill="white"/>
<path d="M18.5 19.1562H13.7188V19.6875H18.5V19.1562Z" fill="white"/>
<path d="M13.1875 19.1562H12.125V19.6875H13.1875V19.1562Z" fill="white"/>
<path d="M20.0938 10.125V20.75H20.625V10.125H20.0938Z" fill="white"/>
<path d="M18.5 8V8.53125H19.5625C19.7034 8.53125 19.8385 8.58722 19.9382 8.68685C20.0378 8.78648 20.0938 8.9216 20.0938 9.0625V10.125H20.625V9.0625C20.625 8.78071 20.5131 8.51046 20.3138 8.3112C20.1145 8.11194 19.8443 8 19.5625 8H18.5Z" fill="white"/>
<path d="M10 10.125V20.75H10.5312V10.125H10Z" fill="white"/>
<path d="M12.125 8V8.53125H11.0625C10.9216 8.53125 10.7865 8.58722 10.6868 8.68685C10.5872 8.78648 10.5312 8.9216 10.5312 9.0625V10.125H10V9.0625C10 8.78071 10.1119 8.51046 10.3112 8.3112C10.5105 8.11194 10.7807 8 11.0625 8H12.125Z" fill="white"/>
<path d="M18.5 22.875V22.3438H19.5625C19.7034 22.3438 19.8385 22.2878 19.9382 22.1882C20.0378 22.0885 20.0938 21.9534 20.0938 21.8125V20.75H20.625V21.8125C20.625 22.0943 20.5131 22.3645 20.3138 22.5638C20.1145 22.7631 19.8443 22.875 19.5625 22.875H18.5Z" fill="white"/>
<path d="M12.125 22.875V22.3438H11.0625C10.9216 22.3438 10.7865 22.2878 10.6868 22.1882C10.5872 22.0885 10.5312 21.9534 10.5312 21.8125V20.75H10V21.8125C10 22.0943 10.1119 22.3645 10.3112 22.5638C10.5105 22.7631 10.7807 22.875 11.0625 22.875H12.125Z" fill="white"/>
<path d="M17.7933 15.0124C17.6012 14.5102 17.2611 14.0781 16.8182 13.7732C16.3752 13.4684 15.8501 13.3052 15.3124 13.3052C14.7746 13.3052 14.2495 13.4684 13.8066 13.7732C13.3636 14.0781 13.0235 14.5102 12.8314 15.0124C12.7594 15.1986 12.7112 15.3932 12.688 15.5915C12.8455 15.7174 13.0125 15.8311 13.1874 15.9315C13.1902 15.7387 13.2206 15.5472 13.2777 15.363C13.4094 14.9259 13.6784 14.5427 14.0449 14.2704C14.4113 13.998 14.8558 13.851 15.3124 13.851C15.769 13.851 16.2134 13.998 16.5799 14.2704C16.9463 14.5427 17.2154 14.9259 17.3471 15.363C17.4042 15.5472 17.4346 15.7387 17.4374 15.9315C17.6123 15.8311 17.7792 15.7174 17.9367 15.5915C17.9135 15.3932 17.8653 15.1986 17.7933 15.0124Z" fill="white"/>
<path d="M15.3125 11.1875C15.1024 11.1875 14.8969 11.2498 14.7222 11.3666C14.5475 11.4833 14.4113 11.6493 14.3309 11.8434C14.2505 12.0375 14.2294 12.2512 14.2704 12.4573C14.3114 12.6634 14.4126 12.8527 14.5612 13.0013C14.7098 13.1499 14.8991 13.2511 15.1052 13.2921C15.3113 13.3331 15.525 13.312 15.7191 13.2316C15.9132 13.1512 16.0792 13.015 16.1959 12.8403C16.3127 12.6656 16.375 12.4601 16.375 12.25C16.375 11.9682 16.2631 11.698 16.0638 11.4987C15.8645 11.2994 15.5943 11.1875 15.3125 11.1875ZM15.3125 12.7812C15.2074 12.7812 15.1047 12.7501 15.0174 12.6917C14.93 12.6333 14.8619 12.5504 14.8217 12.4533C14.7815 12.3562 14.771 12.2494 14.7915 12.1464C14.812 12.0433 14.8626 11.9486 14.9369 11.8743C15.0111 11.8001 15.1058 11.7495 15.2089 11.729C15.3119 11.7085 15.4187 11.719 15.5158 11.7592C15.6129 11.7994 15.6958 11.8675 15.7542 11.9549C15.8126 12.0422 15.8438 12.1449 15.8438 12.25C15.8438 12.3909 15.7878 12.526 15.6882 12.6257C15.5885 12.7253 15.4534 12.7812 15.3125 12.7812Z" fill="white"/>
<path d="M17.7933 15.0124C17.6012 14.5102 17.2611 14.0781 16.8182 13.7732C16.3752 13.4684 15.8501 13.3052 15.3124 13.3052C14.7746 13.3052 14.2495 13.4684 13.8066 13.7732C13.3636 14.0781 13.0235 14.5102 12.8314 15.0124C12.7594 15.1986 12.7112 15.3932 12.688 15.5915C12.8455 15.7174 13.0125 15.8311 13.1874 15.9315C13.8334 16.3045 14.5663 16.5009 15.3124 16.5009C16.0584 16.5009 16.7913 16.3045 17.4374 15.9315C17.6123 15.8311 17.7792 15.7174 17.9367 15.5915C17.9135 15.3932 17.8653 15.1986 17.7933 15.0124ZM15.3124 15.9687C14.5897 15.9688 13.8827 15.7583 13.2777 15.363C13.4094 14.9259 13.6784 14.5427 14.0449 14.2704C14.4113 13.998 14.8558 13.851 15.3124 13.851C15.769 13.851 16.2134 13.998 16.5799 14.2704C16.9463 14.5427 17.2154 14.9259 17.3471 15.363C16.7421 15.7583 16.035 15.9688 15.3124 15.9687Z" fill="white"/>
<path d="M17.7934 15.0124C17.6554 15.1423 17.506 15.2597 17.3472 15.363C17.2155 14.9259 16.9465 14.5427 16.58 14.2704C16.2135 13.998 15.7691 13.851 15.3125 13.851C14.8559 13.851 14.4114 13.998 14.045 14.2704C13.6785 14.5427 13.4095 14.9259 13.2778 15.363C13.1189 15.2597 12.9696 15.1423 12.8315 15.0124C13.0237 14.5102 13.3637 14.0781 13.8067 13.7732C14.2497 13.4684 14.7747 13.3052 15.3125 13.3052C15.8502 13.3052 16.3753 13.4684 16.8183 13.7732C17.2613 14.0781 17.6013 14.5102 17.7934 15.0124Z" fill="white"/>
</svg>
