<svg width="35" height="35" viewBox="0 0 35 35" fill="none" xmlns="http://www.w3.org/2000/svg">
<g clip-path="url(#clip0_329_3555)">
<path d="M20.3128 32.0297H21.7531C21.7531 31.8888 21.7531 31.7672 21.7531 31.6457C21.7531 27.4603 21.7675 23.2749 21.7434 19.0846C21.7434 18.2776 22.2589 17.9568 22.8995 17.9471C23.9737 17.9276 25.0527 17.9422 26.1269 17.9422C26.228 17.9422 26.334 17.9325 26.4352 17.9422C26.9217 18.0006 27.254 18.2679 27.2492 18.7832C27.2492 21.0582 27.2926 23.3283 27.3022 25.6033C27.3022 26.4103 27.2444 27.2124 27.2444 28.0193C27.2444 28.9964 27.2781 29.9783 27.2829 30.9554C27.2829 31.2957 27.2492 31.6408 27.2251 32.0103H28.7858C28.7858 31.529 28.7858 31.0575 28.7858 30.5811C28.7858 25.2971 28.7858 20.0131 28.7858 14.7242C28.7858 14.379 28.9111 14.0922 29.229 13.9658C29.5325 13.8443 29.8648 13.7325 30.1876 13.7228C31.1702 13.6888 32.1529 13.6888 33.1355 13.7228C33.5691 13.7374 34.0459 13.786 34.2482 14.2964C34.2868 14.3985 34.3109 14.5103 34.3109 14.6221C34.3109 20.2999 34.3157 25.9776 34.3109 31.6554C34.3109 31.9228 34.3398 32.1172 34.5903 32.3165C34.807 32.4867 34.9371 32.8513 34.9756 33.1429C35.0479 33.7165 34.9612 34.295 34.4987 34.6985C34.3109 34.8638 34.0219 34.9901 33.7762 34.9901C28.1837 35.0047 22.5912 34.995 16.9987 34.995C11.6808 34.995 6.3629 34.995 1.04498 34.995C0.5681 34.995 0.283899 34.786 0.129757 34.3096C-0.120725 33.5561 -0.0195687 32.8756 0.529564 32.2728C0.616269 32.1756 0.67889 32.0151 0.674073 31.8839C0.640354 30.7026 0.558466 29.5214 0.553649 28.3401C0.553649 27.3485 1.0787 26.6388 2.1866 26.6728C2.91396 26.6922 3.64132 26.595 4.36386 26.629C4.78775 26.6485 5.24055 26.7506 5.61145 26.945C6.1076 27.2124 6.24247 27.752 6.23766 28.2964C6.22802 29.4145 6.1943 30.5325 6.17504 31.6457C6.17504 31.7575 6.17504 31.8742 6.17504 32.0054H7.67793C7.77908 31.1693 7.80317 30.3332 7.69238 29.4874C7.63939 29.079 7.62976 28.6658 7.62012 28.2526C7.59122 27.2075 7.52378 26.1575 7.56714 25.1124C7.59122 24.4658 7.7261 23.8096 7.92841 23.1971C8.0392 22.8665 8.34748 22.5797 8.80028 22.5846C9.99007 22.5992 11.1799 22.5846 12.3696 22.5895C12.8995 22.5895 13.1741 22.9103 13.1789 23.4499C13.1982 26.245 13.2222 29.0353 13.2463 31.8304C13.2463 31.8839 13.2463 31.9374 13.2463 32.0103H14.754C14.754 31.0429 14.7637 30.095 14.754 29.1422C14.7396 27.611 14.7107 26.0749 14.6914 24.5436C14.6818 23.6638 14.6818 22.7839 14.6914 21.9089C14.6962 21.4374 14.7203 20.9707 14.7637 20.504C14.807 20.0082 15.2165 19.7263 15.8378 19.6922C16.9891 19.6339 18.15 19.6485 19.3012 19.6874C19.8696 19.7068 20.2598 19.9596 20.2598 20.679C20.2454 24.461 20.2598 28.2429 20.2694 32.02C20.2694 32.0346 20.2694 32.054 20.2694 32.0686C20.2839 32.054 20.3032 32.0395 20.3176 32.0297H20.3128ZM3.14999 32.0395C3.14999 32.0395 3.19816 32.0395 3.21743 32.0395C3.24151 32.0346 3.26078 32.0249 3.28486 32.02C3.55943 32.0297 3.834 32.0346 4.10856 32.0443C4.176 32.0443 4.24825 32.0443 4.31569 32.0443H5.32243C5.30317 31.777 5.27427 31.5631 5.27908 31.3492C5.29353 30.6249 5.3128 29.9054 5.33207 29.1811C5.33207 29.045 5.33207 28.904 5.33207 28.7679C5.30798 28.4908 5.2839 28.2089 5.26463 27.9318C5.22128 27.7471 5.17311 27.5672 5.12976 27.3825C5.02378 27.3582 4.92263 27.3193 4.81665 27.3193C4.2338 27.3096 3.64613 27.3096 3.06328 27.3145C2.83689 27.3145 2.61049 27.329 2.38891 27.3533C2.22513 27.3728 2.06617 27.5381 1.9024 27.3339C1.89276 27.3242 1.66637 27.4263 1.6471 27.504C1.55558 27.9221 1.4785 28.3499 1.43515 28.7776C1.41588 28.9818 1.47369 29.1957 1.49777 29.4047C1.49777 29.5651 1.50259 29.7256 1.50741 29.886C1.52667 30.1631 1.54594 30.445 1.56521 30.7221C1.54594 30.8582 1.52667 30.9943 1.50741 31.1353C1.52667 31.4221 1.54594 31.7138 1.57003 32.0492H2.32147C2.38891 32.0492 2.46116 32.0492 2.5286 32.0492C2.57195 32.0492 2.62012 32.0492 2.66348 32.0492C2.68756 32.0638 2.71646 32.0832 2.74055 32.0978C2.7839 32.0783 2.82725 32.0638 2.8706 32.0443C2.96213 32.0443 3.05365 32.0443 3.14517 32.0443L3.14999 32.0395ZM12.3648 28.695C12.3552 28.6318 12.3456 28.5638 12.3359 28.5006C12.3359 28.2138 12.3456 27.927 12.3456 27.645C12.3456 27.3776 12.3359 27.1054 12.3407 26.8381C12.3407 26.5124 12.3552 26.1818 12.3648 25.8561C12.36 25.7638 12.3552 25.6714 12.3504 25.579C12.3504 25.2971 12.3456 25.02 12.3407 24.7381C12.3407 24.5776 12.3407 24.4124 12.3407 24.252C12.3263 23.97 12.3118 23.6881 12.2974 23.4061C12.1962 23.3429 12.0999 23.2506 11.9843 23.2165C11.8398 23.1728 11.6808 23.1728 11.5267 23.1533C11.175 23.1339 10.8282 23.0901 10.4766 23.1047C9.92744 23.1242 9.37831 23.1631 8.834 23.2214C8.59315 23.2457 8.47272 23.4013 8.49199 23.6783C8.52089 24.0672 8.51126 24.461 8.51608 24.8499V25.2776C8.51608 25.5888 8.51608 25.8999 8.51608 26.211C8.51608 26.3665 8.51608 26.527 8.51608 26.6825C8.53534 26.9596 8.55461 27.2415 8.57388 27.5186C8.57388 27.6596 8.57388 27.8006 8.57388 27.9415C8.5498 28.029 8.51126 28.1117 8.51126 28.1992C8.51126 28.9672 8.51126 29.7353 8.52089 30.5033C8.52089 30.6151 8.52089 30.7221 8.52089 30.8339C8.53535 31.1304 8.6076 31.4415 8.54498 31.7186C8.44382 32.1707 8.71839 32.0978 8.95924 32.0929C9.4024 32.0832 9.84556 32.0589 10.2935 32.0443C10.361 32.0443 10.4284 32.0443 10.4958 32.0443C10.8619 32.0443 11.228 32.0443 11.5941 32.0492C11.6856 32.0395 11.7772 32.0346 11.8687 32.0249H12.3696V30.8485C12.3696 30.7804 12.3696 30.7075 12.3696 30.6395C12.3696 30.3381 12.3696 30.0367 12.3696 29.7353C12.3696 29.6915 12.3696 29.6478 12.3745 29.5992C12.3648 29.3415 12.3552 29.079 12.3456 28.8214C12.3456 28.802 12.3552 28.7825 12.3648 28.7631C12.3745 28.7582 12.3889 28.7436 12.3889 28.7436C12.3793 28.729 12.3696 28.7096 12.36 28.695H12.3648ZM21.8639 32.6179C21.6664 32.6276 21.4689 32.6374 21.2714 32.6471C20.9101 32.6325 20.544 32.6228 20.1827 32.6082C20.1298 32.6179 20.0816 32.6276 20.0286 32.6374C19.5951 32.6471 19.1615 32.652 18.728 32.6617C18.4535 32.6617 18.1789 32.6665 17.8995 32.6714L15.3754 32.6033C15.2116 32.6033 15.0431 32.6033 14.8793 32.6033C14.5421 32.6033 14.2049 32.6033 13.8677 32.6033L13.7184 32.6374V32.652C13.3619 32.652 12.9958 32.6568 12.6346 32.6617C12.2203 32.6617 11.8061 32.6617 11.3918 32.6617C11.1172 32.6617 10.8427 32.6617 10.5681 32.6617C10.1105 32.6617 9.65288 32.6617 9.19527 32.6617C8.9207 32.6617 8.64613 32.6617 8.37157 32.6568C7.96213 32.6422 7.55269 32.6276 7.14324 32.6131H7.04691C6.82533 32.6325 6.60856 32.6422 6.38698 32.6568C5.98717 32.6568 5.58737 32.6568 5.18756 32.6617C4.89373 32.6617 4.60471 32.6617 4.31087 32.6617C3.92552 32.652 3.54016 32.6471 3.1548 32.6374C2.97176 32.6374 2.79353 32.6374 2.61049 32.6325C2.17696 32.6325 1.74344 32.6471 1.30509 32.6422C1.0787 32.6422 0.934188 32.6617 0.948639 32.9582C0.96309 33.2158 0.90047 33.4783 0.895653 33.7408C0.890836 34.0665 1.01608 34.3145 1.35326 34.402C1.65191 34.402 1.95538 34.3922 2.25403 34.3922C2.66348 34.3922 3.07773 34.3922 3.48717 34.3922C3.6943 34.3922 3.90143 34.3922 4.10856 34.3922C4.518 34.3922 4.93226 34.3922 5.3417 34.3922C5.64035 34.3922 5.939 34.3922 6.23766 34.3922C6.67118 34.3922 7.10471 34.3922 7.53823 34.3922C7.83689 34.3922 8.13554 34.3922 8.43419 34.3874C8.84845 34.3874 9.25789 34.3874 9.67215 34.3874C10.0382 34.3874 10.4043 34.3874 10.7656 34.3874L12.1432 34.4117C12.1866 34.4117 12.2299 34.4068 12.2781 34.402C12.6635 34.402 13.0536 34.4117 13.439 34.4165C13.4872 34.4165 13.5402 34.4165 13.5883 34.4165L14.8889 34.3874H15.7752C16.623 34.3874 17.4708 34.3874 18.3186 34.3874C18.5257 34.3874 18.728 34.3874 18.9352 34.3874H20.1683C20.3947 34.3874 20.6259 34.3874 20.8523 34.3874C22.1095 34.3874 23.3667 34.3874 24.624 34.3874C24.8985 34.3874 25.1731 34.3874 25.4477 34.3874C25.8619 34.3874 26.2714 34.3874 26.6856 34.3874C27.0036 34.3874 27.3263 34.3874 27.6442 34.3874C28.0585 34.3874 28.4679 34.3874 28.8822 34.3922C29.0652 34.3922 29.2483 34.3922 29.4313 34.3922C29.8407 34.3922 30.255 34.3922 30.6644 34.3922C30.8475 34.3922 31.0305 34.3922 31.2136 34.3922C32.0662 34.3971 32.9188 34.4117 33.7714 34.402C33.8581 34.402 33.9689 34.2853 34.017 34.1929C34.0748 34.0908 34.0893 33.9547 34.0941 33.8332C34.1086 33.4832 34.1567 33.1186 33.834 32.861C33.7377 32.8172 33.6461 32.7686 33.5498 32.7249C33.1163 32.686 32.6779 32.6422 32.2444 32.6033L31.8301 32.6568C31.281 32.6568 30.7319 32.6665 30.1827 32.6665C29.9997 32.6617 29.8215 32.652 29.6384 32.6471C29.2242 32.6471 28.8099 32.6471 28.3957 32.6471C28.1211 32.6471 27.8465 32.6471 27.572 32.652C27.2107 32.6471 26.8494 32.6374 26.4881 32.6325C26.4352 32.6374 26.387 32.6471 26.334 32.652C25.9486 32.6422 25.5633 32.6325 25.1779 32.6276C25.1249 32.6276 25.0768 32.6276 25.0238 32.6276C24.6625 32.6276 24.3012 32.6276 23.94 32.6276C23.9111 32.6276 23.8822 32.6276 23.8533 32.6325C23.8292 32.6422 23.8003 32.6568 23.7762 32.6665C23.5594 32.6617 23.3427 32.6568 23.1259 32.652C22.755 32.6471 22.3889 32.6422 22.018 32.6325C21.9602 32.6325 21.9024 32.6325 21.8446 32.6325L21.8639 32.6179ZM15.5825 25.6374C15.5825 26.1672 15.5825 26.702 15.5825 27.2318C15.5825 27.3533 15.5825 27.47 15.5825 27.5915C15.5825 27.8686 15.5825 28.1408 15.5825 28.4179C15.5825 28.5346 15.5825 28.6464 15.5825 28.7631V32.0151C15.756 32.0249 15.9005 32.0346 16.0498 32.0443C16.1895 32.0443 16.3244 32.0443 16.4641 32.0443C16.8542 32.0443 17.2444 32.0443 17.6346 32.0443C17.7213 32.0443 17.8128 32.0443 17.8995 32.0443H18.9978C19.0459 32.0443 19.0941 32.0443 19.1375 32.0443C19.2242 32.0297 19.3109 32.02 19.3783 32.0054C19.3783 31.4124 19.3783 30.8533 19.3783 30.2943C19.3831 29.1131 19.3928 27.927 19.3976 26.7457C19.3976 26.629 19.3976 26.5124 19.3976 26.3957C19.3976 26.1186 19.3976 25.8367 19.3976 25.5596C19.3976 25.4478 19.3976 25.336 19.3976 25.2242C19.3976 24.6943 19.3976 24.1645 19.3976 23.6346C19.3976 23.4985 19.3976 23.3575 19.3976 23.2214C19.3976 22.9395 19.3976 22.6624 19.3976 22.3804C19.3976 22.2395 19.3976 22.1033 19.3976 21.9624C19.3976 21.5735 19.4217 21.1797 19.3976 20.7908C19.3879 20.645 19.3253 20.4554 19.2194 20.3679C18.8292 20.0568 18.3668 20.0325 17.8947 20.1006C17.6924 20.1006 17.4852 20.1006 17.2829 20.1006C16.7194 20.1297 16.1606 20.154 15.5777 20.1832V23.9651C15.5777 24.111 15.5777 24.2568 15.5777 24.4075C15.5777 24.6797 15.5777 24.9568 15.5777 25.229C15.5777 25.37 15.5777 25.5061 15.5777 25.6471L15.5825 25.6374ZM22.5816 23.5568C22.5816 23.654 22.5816 23.7513 22.5816 23.8436C22.5816 24.461 22.5816 25.0783 22.5816 25.6957C22.5816 25.8075 22.5816 25.9242 22.5816 26.036C22.5816 26.5853 22.572 27.1395 22.572 27.6888C22.572 27.7471 22.6153 27.8054 22.6346 27.8686C22.6153 27.9999 22.596 28.136 22.5768 28.2672C22.5768 28.8311 22.5671 29.395 22.5671 29.9589C22.5671 30.5957 22.5768 31.2276 22.5816 31.8645C22.5816 31.8985 22.5816 31.9325 22.5864 31.9617L22.9091 32.0395C22.9766 32.0395 23.044 32.0395 23.1115 32.0395H24.8311C24.9226 32.0395 25.0141 32.0395 25.1057 32.0395C25.4284 32.0395 25.7463 32.0395 26.0691 32.0395C26.1365 32.0395 26.2039 32.0395 26.2714 32.0395C26.5604 31.986 26.3677 31.7429 26.44 31.6068C26.44 31.5582 26.44 31.5145 26.44 31.4658C26.44 30.9117 26.44 30.3575 26.4352 29.8033C26.4448 29.7936 26.4592 29.7888 26.4592 29.779C26.4592 29.7596 26.4448 29.7401 26.4352 29.7256C26.4255 28.5735 26.4159 27.4214 26.4014 26.2645V25.9047C26.4014 25.2825 26.4014 24.6554 26.4014 24.0332C26.4062 23.9214 26.4111 23.8096 26.4159 23.6978L26.3966 21.8457C26.3966 21.7485 26.4062 21.6513 26.4111 21.5492C26.4111 21.2672 26.4062 20.9901 26.4014 20.7082C26.4014 20.6158 26.4014 20.5186 26.4014 20.4263C26.4014 19.9547 26.4159 19.4832 26.4062 19.0068C26.4062 18.895 26.3195 18.7881 26.2762 18.6811C26.1509 18.4186 25.9197 18.3263 25.6548 18.2825C25.3995 18.2582 25.1394 18.2047 24.8841 18.2145C24.1953 18.2436 23.5064 18.2971 22.8176 18.336C22.6298 18.3457 22.5623 18.4332 22.5671 18.6228C22.5768 19.1089 22.5768 19.595 22.5816 20.0763V20.4797C22.5816 21.1165 22.5816 21.7582 22.5816 22.395C22.5816 22.502 22.5816 22.6089 22.5816 22.7158C22.5816 22.9929 22.5816 23.2749 22.5816 23.552V23.5568ZM33.4053 18.0881C33.4053 18.0151 33.4053 17.9374 33.4053 17.8645C33.4053 17.004 33.4053 16.1436 33.4053 15.2832C33.4294 15.0985 33.4535 14.9138 33.4727 14.729C33.3908 14.3693 33.1452 14.2478 32.808 14.2575C32.6394 14.2381 32.4756 14.2186 32.307 14.1992H31.0835C30.7656 14.2235 30.4429 14.2478 30.1249 14.2721H29.6529V16.8193C29.6529 16.9651 29.6529 17.111 29.6529 17.2568C29.6432 17.5533 29.6336 17.8499 29.624 18.1464C29.6192 18.1513 29.6047 18.161 29.6047 18.1658C29.6047 18.1853 29.6143 18.1999 29.624 18.2193C29.624 18.4526 29.624 18.6811 29.624 18.9145C29.6192 18.9242 29.6095 18.9339 29.6095 18.9388C29.6192 18.9533 29.6288 18.9679 29.6384 18.9825C29.624 19.2596 29.6095 19.5415 29.5951 19.8186C29.6143 19.911 29.6336 20.0082 29.6529 20.1006C29.6288 20.2075 29.5854 20.3193 29.5903 20.4263C29.5951 20.6547 29.6481 20.8783 29.6432 21.102C29.6384 21.7096 29.6095 22.3221 29.5951 22.9297C29.5951 23.0464 29.5951 23.1631 29.5951 23.2846C29.6143 23.8145 29.6288 24.3443 29.6481 24.8742C29.6481 24.9422 29.6384 25.0151 29.6384 25.0832C29.6432 25.3603 29.6529 25.6374 29.6577 25.9145C29.6577 26.0068 29.6481 26.0992 29.6432 26.1964C29.6529 26.7749 29.6577 27.3533 29.6673 27.9318C29.6673 28.0485 29.6673 28.1651 29.6673 28.277C29.6673 28.554 29.6673 28.8311 29.6673 29.1131C29.6673 29.2249 29.6673 29.3318 29.6673 29.4436C29.6673 30.027 29.6673 30.6103 29.6673 31.1936C29.6673 31.3589 29.6625 31.5242 29.6577 31.6895C29.5421 32.0249 29.5758 32.0978 29.9034 32.0929C30.4862 32.0832 31.0691 32.0589 31.6519 32.0395C31.7193 32.0395 31.7916 32.0395 31.859 32.0395C32.0854 32.0395 32.3167 32.0395 32.543 32.0395C32.6105 32.0395 32.6827 32.0395 32.7502 32.0395H33.4246V29.7353C33.4246 29.5943 33.4246 29.4582 33.4246 29.3172C33.4246 28.695 33.4246 28.0679 33.4246 27.4457C33.4294 27.3533 33.439 27.261 33.4438 27.1686C33.439 26.8915 33.4294 26.6145 33.4246 26.3325C33.4246 26.2207 33.4342 26.104 33.439 25.9922C33.4486 25.2485 33.4631 24.4999 33.4583 23.7561C33.4583 22.9297 33.439 22.1033 33.4246 21.2818C33.4246 21.1846 33.4246 21.0874 33.4246 20.9901C33.4246 20.0228 33.4246 19.0554 33.4246 18.0881H33.4053Z" fill="#222222"/>
<path d="M29.0288 -2.17017e-05C30.2379 0.0485894 31.4036 0.267339 32.42 0.938173C33.6435 1.74998 34.3949 2.8972 34.6647 4.37984C34.9633 6.03262 34.6984 7.55414 33.7735 8.93956C32.9354 10.1986 31.789 11.0104 30.2668 11.2097C29.7658 11.2729 29.2601 11.3604 28.7591 11.3361C27.3766 11.2778 26.1242 10.8403 25.1464 9.8097C24.3419 8.96387 23.9084 7.92359 23.735 6.75692C23.5375 5.40067 23.7543 4.1222 24.3612 2.90692C25.0789 1.45831 26.2013 0.500673 27.7812 0.140951C28.1859 0.0485894 28.6098 0.0437283 29.024 -0.00488281L29.0288 -2.17017e-05ZM32.762 2.37706C32.5934 2.22637 32.4296 2.07567 32.261 1.92498C32.1406 1.84234 32.025 1.76456 31.9046 1.68192C31.4614 1.33192 30.9749 1.07914 30.4113 1.00623C30.2716 0.962478 30.1319 0.918728 29.9971 0.874978C29.6069 0.855534 29.2119 0.831228 28.8217 0.811784C28.4604 0.855534 28.0992 0.904145 27.7379 0.947895C27.6608 0.957617 27.5789 0.952756 27.5067 0.977062C26.9238 1.17637 26.4084 1.47776 25.9508 1.91039C25.3583 2.46942 24.9489 3.13539 24.6984 3.90831C24.655 4.03956 24.6117 4.16595 24.5683 4.2972C24.3371 4.84164 24.2745 5.41526 24.3034 6.00345C24.3275 6.14442 24.3516 6.28539 24.3708 6.42151C24.419 6.64998 24.4672 6.87845 24.5105 7.10692C24.578 7.2722 24.6454 7.43748 24.708 7.60276C24.8188 7.79234 24.9248 7.98192 25.0356 8.16664C25.0789 8.22984 25.1223 8.29789 25.1656 8.36109C25.3005 8.54581 25.4402 8.72567 25.5751 8.91039C25.6473 8.96387 25.7196 9.01734 25.7918 9.07081C25.9701 9.22151 26.1435 9.3722 26.3217 9.52289C26.4132 9.57637 26.5096 9.62984 26.6011 9.68331C26.8082 9.79998 27.0154 9.91178 27.2273 10.0284C27.42 10.1159 27.6078 10.2035 27.8005 10.2909C28.4171 10.3882 29.0337 10.5194 29.6599 10.568C29.9585 10.5923 30.2668 10.4125 30.5751 10.3833C31.3843 10.3153 32.0202 9.89234 32.5886 9.36734C33.3208 8.68678 33.6965 7.80206 33.894 6.82984C33.9181 6.64026 33.9373 6.45067 33.9614 6.26109C33.9855 5.96942 34.0096 5.67289 34.0337 5.38123C34.0337 5.27914 34.024 5.18192 34.0192 5.07984C33.9759 4.85137 33.9325 4.62776 33.8891 4.39928C33.8458 4.30206 33.8073 4.20484 33.7639 4.10762C33.6917 3.90345 33.6194 3.69928 33.5471 3.49512C33.5134 3.43192 33.4845 3.36873 33.4508 3.30553C33.3304 3.1354 33.21 2.97012 33.0895 2.79998C32.9787 2.65415 32.868 2.51317 32.762 2.36734V2.37706Z" fill="#222222"/>
<path d="M20.3138 32.0294C20.3138 32.0294 20.2801 32.0586 20.2656 32.0683C20.2656 32.0537 20.2656 32.0343 20.2656 32.0197C20.2849 32.01 20.2993 32.0148 20.3138 32.0294Z" fill="#C0DAF0"/>
<path d="M33.4094 29.7402V32.0443H32.7351C32.6676 32.0443 32.5954 32.0443 32.5279 32.0443C32.3015 32.0443 32.0703 32.0443 31.8439 32.0443C31.7765 32.0443 31.7042 32.0443 31.6368 32.0443C31.0539 32.0638 30.4711 32.0881 29.8882 32.0978C29.5607 32.1027 29.527 32.0346 29.6426 31.6943L30.9528 30.5763C30.9528 30.5763 30.9769 30.5374 30.9865 30.5228C30.9624 30.5228 30.9383 30.5325 30.9094 30.5374C30.7986 30.5909 30.6878 30.6395 30.5819 30.6978C30.2688 30.8631 29.9605 31.0332 29.6474 31.1985C29.6474 30.6152 29.6474 30.0318 29.6474 29.4485C29.869 29.2638 30.0857 29.0742 30.3073 28.8895C30.2929 28.87 30.2784 28.8506 30.264 28.8311C30.0568 28.9284 29.8497 29.0207 29.6474 29.1179C29.6474 28.8409 29.6474 28.5638 29.6474 28.2818C29.922 28.0728 30.1965 27.8638 30.4711 27.6548C30.4518 27.6256 30.4325 27.5964 30.4133 27.5624L29.6474 27.9318C29.6377 27.3534 29.6329 26.7749 29.6233 26.1964C29.6233 26.1041 29.6329 26.0117 29.6377 25.9145C29.6329 25.6374 29.6233 25.3603 29.6185 25.0832C29.6185 25.0152 29.6281 24.9423 29.6281 24.8742C29.6088 24.3443 29.5944 23.8145 29.5751 23.2846C29.9171 23.0318 30.2591 22.7791 30.606 22.5214C30.5867 22.4923 30.5674 22.4631 30.5482 22.4339C30.2254 22.5992 29.8979 22.7645 29.5751 22.9298C29.5944 22.3221 29.6185 21.7096 29.6233 21.102C29.6233 20.8784 29.5751 20.6499 29.5703 20.4263C29.5703 20.3193 29.6137 20.2075 29.6329 20.1006C29.8834 19.9061 30.1339 19.7117 30.3844 19.5173C30.3699 19.4978 30.3555 19.4735 30.341 19.4541L29.5751 19.8186C29.5896 19.5416 29.604 19.2596 29.6185 18.9825C29.6137 18.9582 29.6088 18.9339 29.604 18.9096C29.604 18.6763 29.604 18.4478 29.604 18.2145C29.604 18.1902 29.604 18.1659 29.604 18.1416C29.6137 17.845 29.6233 17.5485 29.6329 17.252L30.789 16.2554C30.7697 16.2263 30.7505 16.202 30.7312 16.1728C30.3651 16.3867 30.0038 16.6006 29.6377 16.8145V14.2673H30.1098C30.0279 14.4666 29.946 14.6659 29.8593 14.8603C29.8786 14.8798 29.8979 14.9041 29.922 14.9235C30.3025 14.6804 30.6878 14.4374 31.0684 14.1943H32.2919C32.0703 14.4082 31.8487 14.6221 31.6272 14.836C31.6464 14.8652 31.6705 14.8992 31.6898 14.9284C32.0559 14.7048 32.4268 14.4763 32.7929 14.2527C33.13 14.2429 33.3757 14.3645 33.4576 14.7242L32.1329 15.8763C32.0992 15.9152 32.0607 15.9492 32.027 15.9881C32.0125 15.9978 31.9932 16.0075 31.9788 16.0173C31.9932 16.027 32.0029 16.0318 32.0173 16.0416C32.0173 16.027 32.027 16.0075 32.0318 15.9929C32.0751 15.9686 32.1233 15.9492 32.1667 15.9249C32.5713 15.711 32.9807 15.4971 33.3853 15.2832C33.3853 16.1436 33.3853 17.0041 33.3853 17.8645C33.1349 18.0298 32.8892 18.195 32.6387 18.3603C32.658 18.3895 32.6724 18.4235 32.6917 18.4527C32.9229 18.3311 33.1541 18.2096 33.3853 18.0881C33.3853 19.0554 33.3853 20.0228 33.3853 20.9902C33.0915 21.2041 32.7977 21.4179 32.499 21.627C32.5183 21.6561 32.5327 21.6902 32.552 21.7193C32.8314 21.5735 33.106 21.4277 33.3853 21.2818C33.395 22.1082 33.4142 22.9346 33.4191 23.7561C33.4191 24.4999 33.4046 25.2485 33.3998 25.9923C33.13 26.2061 32.8651 26.42 32.5954 26.6339C32.552 26.6582 32.5087 26.6874 32.4605 26.7117C32.4653 26.7263 32.4749 26.7409 32.4798 26.7554C32.5376 26.736 32.5905 26.7117 32.6483 26.6923C32.894 26.5707 33.1349 26.4492 33.3805 26.3325C33.3853 26.6096 33.395 26.8867 33.3998 27.1686C33.2023 27.3145 33.0048 27.4652 32.8121 27.611C32.7736 27.645 32.7351 27.6791 32.7013 27.7179C32.6628 27.7277 32.6243 27.7374 32.5857 27.7471C32.5857 27.7617 32.5905 27.7763 32.5954 27.7909L32.7351 27.7617C32.7736 27.7277 32.8073 27.6936 32.8458 27.6645L33.3805 27.4506C33.3805 28.0728 33.3805 28.6999 33.3805 29.3221C33.0048 29.6332 32.6291 29.9395 32.2534 30.2506C32.2196 30.2846 32.1811 30.3186 32.1474 30.3575C32.1088 30.3673 32.0703 30.377 32.0318 30.3916C32.0318 30.4061 32.0366 30.4207 32.0414 30.4353C32.0896 30.4304 32.1378 30.4207 32.1907 30.4159C32.2245 30.3818 32.263 30.3429 32.2967 30.3089L33.3805 29.745L33.4094 29.7402Z" fill="#FF7A00"/>
<path d="M20.1824 32.6132L21.271 32.6521C21.1313 32.8368 20.9916 33.0215 20.8568 33.2111C20.8471 33.2208 20.8375 33.2354 20.8279 33.2451C20.8375 33.2354 20.8471 33.2257 20.8616 33.216C21.2036 33.0361 21.5456 32.8562 21.8828 32.6715C21.9358 32.6569 21.9839 32.6424 22.0369 32.6278C22.4078 32.6326 22.7739 32.6375 23.1448 32.6472C23.0099 32.8125 22.8751 32.9778 22.7402 33.1382C23.1785 33.1382 23.4627 32.8465 23.7951 32.6618C23.8192 32.6521 23.8481 32.6375 23.8722 32.6278C23.9011 32.6278 23.93 32.6278 23.9589 32.6229C24.3201 32.6229 24.6814 32.6229 25.0427 32.6229C25.0957 32.6229 25.1438 32.6229 25.1968 32.6229C25.5822 32.6326 25.9675 32.6424 26.3529 32.6472C26.4059 32.6424 26.4541 32.6326 26.507 32.6278C26.8683 32.6326 27.2296 32.6424 27.5909 32.6472C27.4078 32.9049 27.2248 33.1576 27.0369 33.4153C27.0273 33.425 27.0176 33.4396 27.008 33.4493C27.0176 33.4396 27.0321 33.4299 27.0417 33.4201C27.4993 33.1625 27.9521 32.9 28.4097 32.6424C28.824 32.6424 29.2383 32.6424 29.6525 32.6424C29.6043 32.7299 29.5562 32.8174 29.5032 32.9C29.3731 33.0944 29.2334 33.2889 29.0986 33.4785C29.0889 33.4882 29.0793 33.5028 29.0697 33.5125C29.0793 33.5028 29.0889 33.4931 29.1034 33.4833C29.3972 33.3326 29.7055 33.2014 29.9849 33.0215C30.0909 32.9535 30.1294 32.7833 30.2016 32.6569C30.7508 32.6569 31.2999 32.6472 31.849 32.6472C31.7334 32.8076 31.6178 32.9681 31.5022 33.1285C31.4589 33.1528 31.4155 33.1771 31.3722 33.2062C31.3625 33.2062 31.3529 33.2111 31.3481 33.216C31.3481 33.216 31.3481 33.2306 31.3481 33.2354C31.3577 33.2257 31.3674 33.216 31.377 33.2062C31.4252 33.1868 31.4733 33.1625 31.5167 33.1431C31.8105 33.0167 32.1332 32.9389 32.2681 32.5938C32.7016 32.6326 33.14 32.6764 33.5735 32.7153C33.4338 32.8806 33.299 33.041 33.1593 33.2062C33.1496 33.2062 33.14 33.2111 33.1352 33.216C33.1352 33.216 33.1352 33.2257 33.1352 33.2354C33.1448 33.2257 33.1544 33.216 33.1641 33.2062C33.3953 33.0896 33.6313 32.9729 33.8625 32.8562C34.1805 33.1139 34.1323 33.4785 34.1226 33.8285C34.1226 33.95 34.1034 34.0812 34.0456 34.1882C33.9974 34.2806 33.8866 34.3924 33.7999 34.3972C32.9473 34.4069 32.0947 34.3972 31.2421 34.3875L31.6564 33.8382C31.6564 33.8382 31.6756 33.8187 31.6853 33.8042C31.6756 33.8139 31.6612 33.8236 31.6516 33.8333C31.3288 34.0181 31.0109 34.2076 30.6882 34.3924C30.2787 34.3924 29.8645 34.3924 29.455 34.3924C29.5947 34.2076 29.7344 34.0229 29.8693 33.8431C29.8789 33.8333 29.8885 33.8236 29.8982 33.809C29.8885 33.8188 29.8741 33.8285 29.8645 33.8382C29.5417 34.0229 29.2238 34.2125 28.9011 34.3972C28.4868 34.3972 28.0774 34.3972 27.6631 34.3924C27.8462 34.1153 28.034 33.8431 28.2171 33.566C28.2267 33.5563 28.2363 33.5417 28.246 33.5319C28.2363 33.5417 28.2219 33.5514 28.2122 33.5611C27.7113 33.8382 27.2055 34.1201 26.7045 34.3972C26.2903 34.3972 25.8808 34.3972 25.4666 34.3972C25.6593 34.1347 25.8568 33.8771 26.0494 33.6146L25.9868 33.5514C25.5388 33.8333 25.0909 34.1201 24.6429 34.4021C23.3857 34.4021 22.1284 34.4021 20.8712 34.4021C21.0109 34.1979 21.1506 33.9937 21.2903 33.7847L21.4203 33.7069C21.4203 33.7069 21.4396 33.7021 21.4444 33.6972C21.4444 33.6972 21.4444 33.6826 21.4444 33.6778C21.4348 33.6875 21.4252 33.6972 21.4155 33.7069C21.3674 33.7264 21.3192 33.7507 21.2758 33.7701C20.9097 33.9792 20.5437 34.1882 20.1824 34.4021C19.7729 34.4021 19.3587 34.4021 18.9492 34.4021C19.1082 34.2174 19.2672 34.0278 19.4261 33.8431L19.3683 33.7799C19.0263 33.9889 18.6795 34.1931 18.3375 34.4021C17.4897 34.4021 16.6419 34.4021 15.7941 34.4021C15.8519 34.3097 15.9097 34.2174 15.9724 34.125C16.0976 33.9403 16.2228 33.7556 16.3433 33.5708C16.3674 33.5562 16.3914 33.5368 16.4155 33.5222C16.3914 33.5417 16.3674 33.5562 16.3433 33.5757C15.8616 33.8528 15.3847 34.1299 14.903 34.4069C14.4695 34.4167 14.0359 34.4264 13.6024 34.4361C13.5542 34.4361 13.5013 34.4361 13.4531 34.4361C13.0677 34.4361 12.6776 34.4264 12.2922 34.4215C12.2729 34.3972 12.2585 34.3778 12.2392 34.3535C12.2151 34.3778 12.1862 34.4069 12.1621 34.4312L10.7845 34.4069C10.9916 34.0861 11.1988 33.7604 11.4059 33.4396C11.4107 33.4299 11.4155 33.4201 11.4203 33.4104C11.4203 33.4201 11.4107 33.4299 11.4059 33.4396C10.8327 33.7653 10.2595 34.0861 9.69105 34.4118C9.27679 34.4118 8.86735 34.4118 8.45309 34.4118C8.65541 34.1299 8.85772 33.8528 9.06003 33.5708L9.00704 33.5076C8.52535 33.8139 8.04365 34.1153 7.55714 34.4215C7.12361 34.4215 6.69009 34.4215 6.25656 34.4215C6.46369 34.1444 6.666 33.8674 6.87313 33.5903C6.88277 33.5903 6.8924 33.5854 6.89722 33.5757C6.89722 33.5757 6.89722 33.5611 6.89722 33.5562C6.88758 33.566 6.87795 33.5757 6.86832 33.5854C6.36253 33.8625 5.86157 34.1396 5.35579 34.4215C4.94635 34.4215 4.53209 34.4215 4.12265 34.4215L4.60435 33.7993C4.60435 33.7993 4.62361 33.775 4.63325 33.7653C4.62361 33.775 4.60916 33.7847 4.59953 33.7944C4.23344 34.0035 3.86735 34.2125 3.50126 34.4264C3.09182 34.4264 2.67756 34.4264 2.26812 34.4264C2.44635 34.1639 2.62458 33.9014 2.8028 33.6437L2.745 33.566C2.28739 33.8576 1.82978 34.1493 1.37217 34.441C1.03498 34.3535 0.904924 34.1056 0.914558 33.7799C0.919375 33.5174 0.981995 33.2549 0.967545 32.9972C0.953094 32.7056 1.0976 32.6813 1.324 32.6813C1.75753 32.6861 2.19105 32.6764 2.62939 32.6715C2.81244 32.6715 2.99067 32.6715 3.17371 32.6764C3.55907 32.6861 3.94442 32.691 4.32978 32.7007C4.23344 32.8611 4.13228 33.0215 4.03595 33.1771C4.07448 33.2208 4.11302 33.2597 4.15155 33.3035C4.50319 33.0993 4.85964 32.9 5.21128 32.6958C5.61109 32.6958 6.0109 32.6958 6.4107 32.691C6.27583 32.8806 6.14095 33.0701 6.00126 33.2597C6.01571 33.2792 6.03016 33.3035 6.04462 33.3229C6.38662 33.1188 6.73344 32.9097 7.07544 32.7056C7.10435 32.6861 7.13325 32.6667 7.15733 32.6521L8.38566 32.6958L7.70165 33.5271C7.72573 33.5514 7.74982 33.5757 7.7739 33.6L9.20454 32.7007C9.66215 32.7007 10.1198 32.7007 10.5774 32.7007C10.3702 32.9729 10.1679 33.2451 9.9608 33.5222C9.9319 33.5319 9.903 33.5417 9.86928 33.5514C9.87409 33.5611 9.88855 33.5757 9.88855 33.5757C9.91263 33.5611 9.94153 33.5417 9.96562 33.5271C10.4425 33.2549 10.9242 32.9778 11.4011 32.7056C11.8153 32.7056 12.2296 32.7056 12.6438 32.7056C12.4608 33.0021 12.2729 33.2986 12.0899 33.5903C12.0803 33.6 12.0706 33.6146 12.061 33.6243C12.0706 33.6146 12.0803 33.6049 12.0899 33.5951C12.167 33.5757 12.2489 33.5806 12.3163 33.5417C12.7932 33.2646 13.2652 32.9778 13.7373 32.6958V32.6813C13.7806 32.6715 13.8288 32.6569 13.8818 32.6472C14.219 32.6472 14.5562 32.6472 14.8934 32.6472C15.062 32.9097 15.2257 32.6278 15.3895 32.6472L17.9136 32.7153C17.7113 32.9632 17.509 33.2062 17.3067 33.4542C17.3259 33.4785 17.3452 33.4979 17.3645 33.5222C17.8221 33.25 18.2845 32.9826 18.7421 32.7104C19.1756 32.7007 19.6092 32.6958 20.0427 32.6861C20.0957 32.6764 20.1438 32.6667 20.1968 32.6569L20.1824 32.6132ZM5.82785 33.3521C5.82785 33.3521 5.81822 33.3715 5.8134 33.3764C5.8134 33.3667 5.82304 33.3569 5.82785 33.3472C5.83749 33.3472 5.84712 33.3472 5.85194 33.3375C5.85194 33.3375 5.85194 33.3278 5.85675 33.3229C5.84712 33.3326 5.83749 33.3424 5.82785 33.3521Z" fill="#C0DAF0"/>
<path d="M17.9011 20.1054C18.3731 20.0373 18.8404 20.0616 19.2257 20.3728C19.3317 20.4554 19.3991 20.6498 19.404 20.7957C19.4232 21.1846 19.404 21.5783 19.404 21.9672C19.0282 22.2783 18.6525 22.5846 18.2768 22.8957C18.2431 22.9297 18.2045 22.9686 18.1708 23.0026C18.1323 23.0123 18.0938 23.0221 18.0552 23.0318L18.0648 23.0755C18.1178 23.0707 18.166 23.061 18.219 23.0561C18.2527 23.0221 18.2912 22.9832 18.325 22.9491C18.6862 22.7644 19.0475 22.5748 19.4088 22.3901C19.4088 22.6721 19.4088 22.9492 19.4088 23.2311C19.0427 23.5471 18.6766 23.8679 18.3105 24.1839C18.272 24.1936 18.2334 24.2082 18.1949 24.2179C18.1949 24.2325 18.1997 24.2471 18.2045 24.2616C18.2527 24.2568 18.3057 24.2471 18.3539 24.2422C18.7055 24.0429 19.062 23.8436 19.4136 23.6492C19.4136 24.179 19.4136 24.7089 19.4136 25.2387C19.0909 25.4721 18.7729 25.7054 18.4502 25.9387C18.4695 25.9728 18.4887 26.0019 18.508 26.036C18.8067 25.8804 19.1101 25.7248 19.4088 25.5693C19.4088 25.8464 19.4088 26.1283 19.4088 26.4054C19.1438 26.6241 18.8789 26.8429 18.6188 27.0616L18.4069 27.1978C18.4261 27.2221 18.4406 27.2512 18.4598 27.2755C18.5321 27.2221 18.5995 27.1686 18.6718 27.1151C18.9174 26.9936 19.1631 26.8769 19.4088 26.7554C19.404 27.9367 19.3943 29.1228 19.3895 30.304C19.3895 30.863 19.3895 31.4269 19.3895 32.0151C19.3173 32.0248 19.2306 32.0394 19.1487 32.054C19.1005 32.054 19.0523 32.054 19.009 32.054H17.9107C17.824 32.054 17.7325 32.054 17.6458 32.054C17.2556 32.054 16.8654 32.054 16.4753 32.054C16.3356 32.054 16.2007 32.054 16.061 32.054C15.9165 32.0443 15.772 32.0346 15.5938 32.0248V28.7728C15.8876 28.5394 16.1862 28.3061 16.4801 28.0728C16.4608 28.0436 16.4464 28.0144 16.4271 27.9901C16.1477 28.136 15.8731 28.2818 15.5938 28.4276C15.5938 28.1505 15.5938 27.8783 15.5938 27.6012C15.9117 27.3387 16.2296 27.0811 16.5427 26.8186C16.5234 26.7894 16.5042 26.7603 16.4849 26.7311C16.1862 26.9012 15.8924 27.0714 15.5938 27.2415C15.5938 26.7117 15.5938 26.1769 15.5938 25.6471C15.9839 25.3262 16.3693 25.0054 16.7595 24.6846C16.7739 24.6651 16.7835 24.6457 16.798 24.6262C16.7739 24.636 16.7498 24.6408 16.7257 24.6505C16.35 24.845 15.9743 25.0394 15.5986 25.2339C15.5986 24.9616 15.5986 24.6846 15.5986 24.4123C15.9839 24.0818 16.3693 23.7561 16.7546 23.4255C16.7306 23.3915 16.7065 23.3623 16.6824 23.3283L15.5986 23.97C15.5986 22.7158 15.5986 21.4616 15.5986 20.188C16.1814 20.1589 16.7402 20.1346 17.3038 20.1054C17.1785 20.2707 17.0485 20.436 16.9232 20.6061C16.8943 20.6304 16.8654 20.6596 16.8365 20.6839C16.8462 20.6936 16.851 20.7082 16.8606 20.7179C16.8943 20.6985 16.9329 20.6742 16.9666 20.6547C17.2845 20.47 17.6024 20.2901 17.9203 20.1054H17.9011Z" fill="#FF7A00"/>
<path d="M2.87591 32.0394C2.83255 32.0589 2.7892 32.0735 2.74585 32.0929C2.72176 32.0783 2.69286 32.0589 2.66878 32.0443C2.62543 32.0443 2.57726 32.0443 2.5339 32.0443C2.46647 32.0443 2.39421 32.0443 2.32677 32.0443H1.57533C1.55124 31.7089 1.53198 31.4172 1.51271 31.1304C1.8788 30.8533 2.2497 30.5762 2.61579 30.2943C2.59652 30.2603 2.57244 30.2262 2.55317 30.1971C2.22562 30.3721 1.89807 30.5471 1.57051 30.7172C1.55124 30.4401 1.53198 30.1582 1.51271 29.8811C1.85471 29.5554 2.1919 29.2297 2.5339 28.904C2.54835 28.8943 2.5628 28.8846 2.58207 28.8748C2.57244 28.8651 2.55799 28.8554 2.54835 28.8457C2.53872 28.8603 2.5339 28.8748 2.52427 28.8943C2.44238 28.9235 2.35568 28.9478 2.28342 28.9867C2.02331 29.1228 1.76801 29.2637 1.50789 29.3998C1.48381 29.1908 1.426 28.9769 1.44527 28.7728C1.48862 28.345 1.5657 27.9221 1.65722 27.4992C1.67167 27.4262 1.90288 27.3193 1.91252 27.329C2.07629 27.5332 2.23525 27.3679 2.39903 27.3485C2.62061 27.3242 2.84701 27.3096 3.0734 27.3096C3.65625 27.3096 4.24392 27.3096 4.82677 27.3144C4.93275 27.3144 5.0339 27.3533 5.13988 27.3776C4.64373 27.8248 4.14277 28.2672 3.64662 28.7144L3.70442 28.7971C4.22947 28.5054 4.7497 28.2186 5.27475 27.9269C5.29884 28.204 5.32292 28.486 5.34219 28.763C4.98092 29.045 4.61483 29.3269 4.25356 29.604C4.27282 29.6332 4.28727 29.6575 4.30654 29.6867C4.65336 29.5165 4.99537 29.3464 5.34219 29.1762C5.32292 29.9005 5.29884 30.62 5.2892 31.3443C5.2892 31.5582 5.31329 31.7721 5.33255 32.0394H4.32581C4.25837 32.0394 4.18612 32.0394 4.11868 32.0394C3.84412 32.0297 3.56955 32.0248 3.29498 32.0151C3.40096 31.8887 3.51175 31.7623 3.61772 31.6311C3.59845 31.6019 3.57437 31.5776 3.5551 31.5485C3.33352 31.7089 3.11194 31.8693 2.88554 32.0297L2.87591 32.0394Z" fill="#FF7A00"/>
<path d="M3.14978 32.6426C2.96674 32.6426 2.78851 32.6426 2.60547 32.6377C2.78851 32.6377 2.96674 32.6377 3.14978 32.6426Z" fill="#222222"/>
<path d="M15.3751 32.608C15.2113 32.5934 15.0475 32.8753 14.8789 32.608C15.0427 32.608 15.2113 32.608 15.3751 32.608Z" fill="#222222"/>
<path d="M29.6473 25.9199C29.6473 26.0123 29.6376 26.1046 29.6328 26.2019C29.6328 26.1095 29.6424 26.0171 29.6473 25.9199Z" fill="#222222"/>
<path d="M12.1454 34.4118C12.1695 34.3875 12.1984 34.3583 12.2225 34.334C12.2418 34.3583 12.2562 34.3777 12.2755 34.402C12.2321 34.402 12.1888 34.4069 12.1406 34.4118H12.1454Z" fill="#222222"/>
<path d="M12.375 29.7357C12.375 29.692 12.375 29.6482 12.3798 29.5996C12.3798 29.6434 12.3798 29.6871 12.375 29.7357Z" fill="#222222"/>
<path d="M21.8832 32.6717C21.8832 32.6717 21.8591 32.6474 21.8639 32.6279C21.9217 32.6279 21.9795 32.6279 22.0373 32.6279C21.9843 32.6425 21.9362 32.6571 21.8832 32.6717Z" fill="#222222"/>
<path d="M22.5898 31.8691C22.5898 31.9032 22.5898 31.9372 22.5947 31.9664C22.5947 31.9323 22.5947 31.8983 22.5898 31.8691Z" fill="#222222"/>
<path d="M29.6208 18.1465C29.6208 18.1465 29.6208 18.1951 29.6208 18.2194C29.616 18.2048 29.6064 18.1854 29.6016 18.1659C29.6016 18.1611 29.616 18.1513 29.6208 18.1465Z" fill="#222222"/>
<path d="M29.616 18.915C29.616 18.915 29.6256 18.9637 29.6305 18.988C29.6208 18.9734 29.6064 18.9588 29.6016 18.9442C29.6016 18.9393 29.6112 18.9296 29.616 18.9199V18.915Z" fill="#222222"/>
<path d="M12.369 28.7634L12.3594 28.6953C12.3594 28.6953 12.3835 28.7245 12.3883 28.7439C12.3883 28.7439 12.3738 28.7585 12.3642 28.7634H12.369Z" fill="#222222"/>
<path d="M7.0553 32.6668C7.0553 32.6668 7.03603 32.6376 7.04567 32.6133C7.07938 32.6133 7.10829 32.6133 7.14201 32.6133C7.1131 32.6327 7.0842 32.6522 7.06012 32.6668H7.0553Z" fill="#222222"/>
<path d="M23.9539 32.623C23.925 32.623 23.8961 32.623 23.8672 32.6279C23.8961 32.6279 23.925 32.6279 23.9539 32.623Z" fill="#222222"/>
<path d="M26.4414 29.8131C26.4414 29.7888 26.4414 29.7645 26.4414 29.7354C26.451 29.7548 26.4607 29.7694 26.4655 29.7888C26.4655 29.7937 26.451 29.8034 26.4414 29.8131Z" fill="#222222"/>
<path d="M34.0261 5.386C34.002 5.67767 33.9779 5.9742 33.9539 6.26586C33.2843 6.79086 32.6147 7.31586 31.9452 7.84086C31.9066 7.87489 31.8633 7.90406 31.8248 7.93809C31.791 7.95267 31.7525 7.96239 31.7188 7.97697C31.7188 7.99156 31.7284 8.00614 31.7284 8.02072C31.7718 8.00614 31.8151 7.99642 31.8585 7.98184C31.897 7.95267 31.9355 7.91864 31.9741 7.88947C32.1041 7.83114 32.2438 7.78253 32.3691 7.70961C32.8749 7.42281 33.3806 7.13114 33.8864 6.84434C33.6889 7.81656 33.3132 8.70128 32.581 9.38184C32.0126 9.90684 31.3768 10.3249 30.5675 10.3978C30.2592 10.4221 29.951 10.602 29.6523 10.5825C29.0309 10.5388 28.4144 10.4027 27.793 10.3054C28.6263 9.66378 29.4548 9.02211 30.2882 8.38045C30.2737 8.35614 30.2592 8.33184 30.2448 8.30753C30.0377 8.39503 29.8305 8.48739 29.6234 8.57489C29.6716 8.41447 29.5704 8.21517 29.8016 8.10336C30.028 7.99156 30.2689 7.85545 30.4278 7.66586C30.7747 7.25267 30.8325 6.75684 30.6398 6.25128C30.4616 5.78461 30.1099 5.55614 29.5993 5.52211C28.9394 5.47836 28.3999 5.02628 28.4577 4.30684C28.4866 3.986 28.5878 3.74781 28.8768 3.62628C29.1754 3.50475 29.4789 3.62628 29.633 3.84989C29.8354 4.14156 30.081 4.15614 30.37 4.14642C30.134 4.34086 29.9028 4.53531 29.6668 4.72489C29.6186 4.7492 29.5752 4.7735 29.5271 4.79781C29.5319 4.81239 29.5415 4.82697 29.5463 4.84156C29.5993 4.82211 29.6571 4.80267 29.7101 4.77836C30.8325 4.12697 31.95 3.47072 33.0724 2.81934C33.1928 2.98947 33.3132 3.15475 33.4336 3.32489C33.1398 3.53878 32.846 3.75267 32.5521 3.97142C32.5666 3.99086 32.5762 4.01517 32.5907 4.03461C32.9038 3.86447 33.2169 3.68947 33.53 3.51934C33.6022 3.7235 33.6745 3.92767 33.7467 4.13184C33.135 4.55961 32.528 4.98739 31.9163 5.41517C31.9356 5.44434 31.95 5.4735 31.9693 5.50267C32.6051 5.14295 33.2409 4.78322 33.8768 4.4235C33.9201 4.65197 33.9635 4.87559 34.0068 5.10406C33.5155 5.43947 33.029 5.77975 32.5377 6.11517C32.5569 6.14434 32.5714 6.17836 32.5907 6.20753C33.0675 5.94017 33.5444 5.67281 34.0213 5.40059L34.0261 5.386ZM30.3797 8.26378C30.3797 8.26378 30.3652 8.24434 30.3604 8.24434C30.3508 8.24434 30.346 8.25406 30.3363 8.26378C30.346 8.2735 30.3508 8.28323 30.3604 8.28323C30.37 8.28323 30.3749 8.2735 30.3845 8.26378H30.3797Z" fill="#FF7A00"/>
<path d="M30.4093 1.00597C30.9728 1.07888 31.4594 1.33166 31.9025 1.68166C31.2378 2.17263 30.573 2.66361 29.9083 3.15944C29.8216 3.14972 29.7397 3.14486 29.653 3.13513C29.6145 2.87263 29.7301 2.54208 29.3062 2.53236C28.8775 2.52263 28.8052 2.59069 28.733 3.04763C28.4006 3.32958 28.1164 3.50944 27.9093 3.75736C27.5287 4.2143 27.5962 4.74416 27.7744 5.27402C27.2156 5.59 26.652 5.90111 26.0933 6.21708C25.5634 6.51361 25.0335 6.815 24.5037 7.11152C24.4555 6.88305 24.4073 6.65458 24.364 6.42611C24.6193 6.26083 24.8794 6.10527 25.1202 5.92541C25.6019 5.57055 26.074 5.19625 26.5509 4.83166C26.5653 4.81708 26.5846 4.8025 26.599 4.78791C26.5701 4.78791 26.5461 4.78791 26.5172 4.79277C26.3775 4.86083 26.233 4.92888 26.0933 5.0018C25.4911 5.33236 24.8938 5.66777 24.2917 6.00319C24.2628 5.415 24.3254 4.84138 24.5567 4.29694C24.9179 4.02958 25.2792 3.76708 25.6453 3.49972C25.6308 3.47541 25.6116 3.45111 25.5971 3.4268C25.2937 3.58722 24.9902 3.74763 24.6915 3.90805C24.9372 3.13513 25.3515 2.46916 25.9439 1.91013C26.3967 1.48236 26.917 1.17611 27.4998 0.976801C27.5721 0.952496 27.654 0.957357 27.731 0.947635C27.389 1.32194 27.0422 1.69625 26.7195 2.05111C26.8399 1.98791 27.0085 1.91013 27.1674 1.81291C27.7166 1.48236 28.2657 1.14694 28.8148 0.811523C29.205 0.830968 29.6 0.855273 29.9902 0.874718C29.5181 1.25388 29.0509 1.63305 28.5788 2.01222C28.5306 2.03652 28.4825 2.06083 28.4295 2.08027C28.4391 2.09486 28.4439 2.10944 28.4536 2.12888C28.5066 2.10458 28.5595 2.08027 28.6077 2.05597C29.205 1.70597 29.8023 1.35597 30.3996 1.01083L30.4093 1.00597Z" fill="#FF7A00"/>
<path d="M25.5771 8.91576C25.4422 8.73103 25.3025 8.55117 25.1676 8.36645C25.4952 8.12825 25.8227 7.89492 26.1503 7.65673C26.1407 7.63728 26.131 7.61784 26.1214 7.60326C25.7601 7.79284 25.3989 7.98242 25.0424 8.17687L24.7148 7.61298C24.7726 7.58381 24.8401 7.56923 24.8931 7.53034C25.8805 6.80603 26.8632 6.08173 27.8507 5.35742C28.106 5.73659 28.4913 5.89214 28.9152 5.93589C29.6089 6.01367 30.0328 6.4852 29.9075 7.1852C29.869 7.39909 29.6811 7.63242 29.4981 7.76367C29.2861 7.91437 29.0453 7.77825 28.8574 7.61298C28.7804 7.54492 28.7177 7.45742 28.6407 7.38937C28.3902 7.17062 27.9807 7.21437 27.8362 7.47201C27.8314 7.47687 27.817 7.48659 27.8218 7.49145C27.8218 7.50603 27.8362 7.52062 27.841 7.53034C27.841 7.57895 27.8459 7.62756 27.8507 7.67131C27.8314 7.67131 27.8121 7.67131 27.7929 7.67131C27.7206 7.66645 27.6243 7.6227 27.5713 7.65673C26.9788 7.99214 26.3911 8.33242 25.8035 8.68242C25.712 8.73589 25.6493 8.83798 25.5771 8.92062V8.91576ZM26.2659 7.56437C26.2659 7.56437 26.2515 7.54492 26.2418 7.54492C26.2322 7.54492 26.2274 7.55464 26.2177 7.56437C26.2274 7.56923 26.2322 7.58381 26.2418 7.58381C26.2515 7.58381 26.2563 7.57409 26.2659 7.56437Z" fill="#FF7A00"/>
<path d="M27.7929 7.6709C27.7929 7.6709 27.8315 7.6709 27.8507 7.6709C28.0482 8.01604 28.3469 8.20562 28.7419 8.25423C28.7419 8.55076 28.7419 8.83756 29.079 8.93479C28.4625 9.30423 27.8459 9.66882 27.2293 10.0383C27.0222 9.92159 26.8151 9.80979 26.6031 9.69312C27.1089 9.31395 27.6147 8.93479 28.1205 8.55562C28.1012 8.52645 28.0819 8.49243 28.0627 8.46326C27.4798 8.81812 26.9018 9.17784 26.3189 9.5327C26.1407 9.38201 25.9673 9.23132 25.7891 9.08062C26.4538 8.61395 27.1234 8.14729 27.7881 7.67576L27.7929 7.6709Z" fill="#FF7A00"/>
<path d="M32.2607 1.9248C32.4293 2.0755 32.5931 2.22619 32.7617 2.37689C32.5305 2.55189 32.2993 2.73661 32.0584 2.90675C31.5575 3.26647 31.0517 3.62133 30.5507 3.98105C30.5892 3.62133 30.3773 3.4123 30.1172 3.22758C30.8301 2.79494 31.5478 2.3623 32.2607 1.9248Z" fill="#FF7A00"/>
<path d="M16.627 9.8732C16.2368 9.64473 15.8033 9.47945 15.4758 9.18779C14.628 8.41973 15.1338 7.25307 15.9816 6.91279C16.5259 6.69404 17.0654 6.8107 17.6097 6.9614C18.2263 7.1364 18.8621 7.24334 19.4883 7.38432C20.1868 7.53987 20.8997 7.63709 21.5162 8.07945C22.1039 8.50723 22.1858 9.09057 22.0605 9.71279C21.8582 10.6996 21.6174 11.6767 21.3284 12.6392C21.1742 13.1496 20.943 13.66 20.6299 14.0829C20.1241 14.7732 19.4498 14.8218 18.6598 14.4038C17.9421 14.0295 17.9469 13.5482 17.9806 12.9649C17.9902 12.7801 18.0625 12.6003 18.1347 12.3086C17.7157 12.5031 17.3447 12.6343 17.0172 12.8385C15.0663 14.0732 13.1395 15.342 11.1839 16.567C9.12221 17.86 7.08463 19.2065 4.91219 20.31C3.93916 20.8058 2.97095 21.3114 1.90641 21.5642C1.57404 21.642 1.26093 21.7878 0.865944 21.7051C0.12895 21.5545 -0.0348269 20.8447 0.0952309 20.2906C0.23974 19.6829 0.711801 19.3475 1.19831 19.0607C3.40448 17.7482 5.6251 16.46 7.83608 15.1475C9.78695 13.9857 11.7282 12.8045 13.6742 11.6378C14.6184 11.069 15.5721 10.5149 16.5162 9.95098C16.574 9.91695 16.627 9.85862 16.6222 9.86348L16.627 9.8732ZM17.8264 9.40654C17.8505 9.43084 17.8794 9.46001 17.9035 9.48432C17.8313 9.6107 17.7927 9.7857 17.6819 9.85376C17.0943 10.2281 16.4873 10.5781 15.8852 10.9329C12.8746 12.7267 9.86402 14.5204 6.85342 16.3142C5.06151 17.3788 3.2696 18.4482 1.48251 19.5176C1.05862 19.7704 0.85631 20.3538 1.03454 20.7864C1.09716 20.9031 1.1646 21.0246 1.22722 21.1413C1.49215 21.5447 1.97384 21.4329 2.3303 21.219C2.93242 20.8545 3.52972 20.4753 4.13184 20.1107C6.24648 18.8468 8.36594 17.5878 10.4806 16.3239C13.0384 14.7975 15.601 13.2711 18.1588 11.7447C18.4478 11.5746 18.732 11.3996 19.1656 11.526C19.0596 11.944 18.9681 12.3767 18.8332 12.7947C18.6935 13.2274 18.9103 13.6892 19.4353 13.9565C19.7195 14.1024 19.9796 13.9808 20.2157 13.5676C20.3072 13.4121 20.3939 13.2371 20.4372 13.0621C20.654 12.1774 20.8563 11.2878 21.0634 10.3982C21.1357 10.0871 21.1983 9.77598 21.2609 9.46487C21.2465 9.31904 21.232 9.17807 21.2224 9.03223C21.049 8.48293 20.6395 8.23987 20.1145 8.14265C19.9266 8.08918 19.7388 8.04057 19.5509 7.98709C19.233 7.9239 18.9151 7.86556 18.5972 7.80237L18.1155 7.71487C17.8505 7.62251 17.5904 7.52529 17.3255 7.43293C17.1328 7.39404 16.9449 7.36001 16.7523 7.32112C16.3669 7.3357 16.0297 7.45237 15.8948 7.8607C15.7841 8.20584 15.8948 8.50723 16.1309 8.76973C16.2513 8.84265 16.3332 9.04195 16.5259 8.91557C16.6174 8.98362 16.6993 9.08084 16.8052 9.11487C17.1424 9.22182 17.4893 9.30445 17.8313 9.39195L17.8264 9.40654Z" fill="#222222"/>
<path d="M1.03356 20.7864C0.855336 20.3489 1.05765 19.7704 1.48154 19.5176C3.27345 18.4482 5.06054 17.3836 6.85244 16.3142C9.86304 14.5204 12.8736 12.7267 15.8842 10.9329C16.4864 10.5732 17.0885 10.2281 17.681 9.85375C17.7869 9.7857 17.8303 9.6107 17.9025 9.48431C18.6395 9.04195 19.3765 8.59959 20.1087 8.15723C20.6386 8.24959 21.0432 8.4975 21.2166 9.04681C20.6 9.44542 19.9786 9.83917 19.3621 10.2378C18.312 10.9183 17.2619 11.5989 16.2166 12.2746C16.1829 12.294 16.154 12.3135 16.1203 12.3329C15.9276 12.4544 15.7349 12.5808 15.5374 12.7024C15.47 12.7413 15.4025 12.7801 15.3399 12.819L15.3929 12.8968C15.4507 12.8482 15.5133 12.7996 15.5711 12.751C15.7783 12.6343 15.9902 12.5225 16.1973 12.4058C16.2166 12.3815 16.2359 12.3572 16.2551 12.3329C16.5442 12.1822 16.838 12.0413 17.1222 11.8808C18.4998 11.0836 19.8775 10.2815 21.2503 9.48431C21.1829 9.79542 21.1251 10.1065 21.0528 10.4176C20.8457 11.3072 20.6434 12.1919 20.4266 13.0815C20.3833 13.2565 20.2966 13.4267 20.205 13.5871C19.9642 14.0003 19.7089 14.1218 19.4247 13.976C18.8996 13.7086 18.6829 13.2468 18.8226 12.8142C18.9575 12.3961 19.049 11.9635 19.1549 11.5454C18.7166 11.419 18.4324 11.594 18.1482 11.7642C15.5904 13.2906 13.0278 14.8169 10.47 16.3433C8.35533 17.6072 6.23587 18.8663 4.12123 20.1301C3.51429 20.4899 2.92181 20.8739 2.31969 21.2385C1.96805 21.4524 1.48636 21.5642 1.21661 21.1607C2.34859 20.4364 3.48058 19.7169 4.60774 18.9878C5.26767 18.56 5.92277 18.1176 6.57788 17.685C6.64532 17.6558 6.70794 17.6267 6.77537 17.5975C7.03067 17.4371 7.28597 17.2815 7.54609 17.1211C7.52682 17.0919 7.51237 17.0676 7.4931 17.0385C7.22817 17.2038 6.96805 17.369 6.70312 17.5343L6.52971 17.6364C5.6193 18.1565 4.7089 18.6767 3.80331 19.2017C2.87846 19.7364 1.9536 20.2711 1.02393 20.8058L1.03356 20.7864ZM7.69059 16.9753L7.79657 16.9461C7.79657 16.9461 7.78693 16.9169 7.78212 16.9024C7.7484 16.9218 7.70986 16.9413 7.67614 16.9607C7.65688 16.9704 7.63761 16.9801 7.61834 16.985C7.62797 16.9947 7.64243 17.0093 7.65206 17.019C7.66169 17.0044 7.67614 16.985 7.68578 16.9704L7.69059 16.9753ZM15.1135 12.9697C15.1135 12.9697 15.1472 13.0038 15.1617 13.0183C15.2099 12.9843 15.258 12.9454 15.3062 12.9114C15.2918 12.8968 15.2821 12.8822 15.2677 12.8676C15.2147 12.9017 15.1665 12.9357 15.1135 12.9697Z" fill="#C0DAF0"/>
<path d="M16.1261 8.78455C15.8949 8.52205 15.7793 8.22066 15.8901 7.87552C16.025 7.46719 16.3622 7.35538 16.7475 7.33594C16.6753 7.49149 16.5982 7.64705 16.5259 7.79774C16.5115 7.81233 16.497 7.82691 16.4826 7.84149C16.5115 7.84149 16.5356 7.84149 16.5645 7.83663C16.815 7.70538 17.0703 7.57413 17.3207 7.44774C17.5857 7.5401 17.8458 7.63733 18.1107 7.72969C18.0096 7.88038 17.9036 8.03108 17.8024 8.18177L17.7109 8.25955C17.7109 8.25955 17.7254 8.28385 17.735 8.29844C17.7687 8.27899 17.8024 8.25469 17.841 8.23524C18.0915 8.09913 18.3419 7.95816 18.5876 7.82205C18.9055 7.88524 19.2234 7.94358 19.5414 8.00677C18.9681 8.47344 18.3949 8.94497 17.8217 9.41163C17.4797 9.31927 17.1329 9.23663 16.7957 9.13455C16.6945 9.10052 16.6078 9.0033 16.5163 8.93524C16.6175 8.78455 16.7138 8.63385 16.815 8.48316C16.7957 8.46372 16.7764 8.44913 16.7572 8.42969C16.5452 8.55122 16.3333 8.67274 16.1213 8.78941L16.1261 8.78455Z" fill="#C0DAF0"/>
<path d="M6.70703 17.5193C6.97196 17.354 7.23208 17.1887 7.49701 17.0234C7.51628 17.0526 7.53073 17.0769 7.55 17.1061C7.2947 17.2665 7.0394 17.422 6.77929 17.5825C6.7552 17.563 6.73112 17.5387 6.70703 17.5193Z" fill="#C0DAF0"/>
<path d="M16.2038 12.4011C15.9967 12.5177 15.7847 12.6295 15.5776 12.7462C15.5631 12.7316 15.5535 12.717 15.5391 12.7025C15.7317 12.5809 15.9244 12.4545 16.1219 12.333C16.1508 12.3573 16.1749 12.3816 16.2038 12.4011Z" fill="#C0DAF0"/>
<path d="M15.1094 12.9742C15.1624 12.9401 15.2105 12.9061 15.2635 12.8721C15.278 12.8867 15.2876 12.9012 15.3021 12.9158C15.2539 12.9498 15.2057 12.9887 15.1575 13.0228C15.1431 13.0082 15.1238 12.9887 15.1094 12.9742Z" fill="#C0DAF0"/>
<path d="M15.5789 12.7459C15.5211 12.7945 15.4584 12.8431 15.4006 12.8917L15.3477 12.8139C15.4151 12.775 15.4825 12.7362 15.5452 12.6973C15.5596 12.7118 15.5692 12.7264 15.5837 12.741L15.5789 12.7459Z" fill="#C0DAF0"/>
<path d="M7.67578 16.9656C7.7095 16.9461 7.74804 16.9267 7.78175 16.9072C7.78175 16.9218 7.79139 16.9364 7.79621 16.951L7.69023 16.9801L7.6806 16.9704L7.67578 16.9656Z" fill="#C0DAF0"/>
<path d="M7.68853 16.9804C7.68853 16.9804 7.66445 17.0145 7.65481 17.029C7.64518 17.0193 7.63073 17.0047 7.62109 16.995C7.64036 16.9853 7.65963 16.9756 7.6789 16.9707L7.68853 16.9804Z" fill="#C0DAF0"/>
<path d="M29.9127 3.16014C29.9801 3.17958 30.0476 3.20389 30.115 3.22333C30.3751 3.40805 30.5822 3.62194 30.5485 3.9768C30.4955 4.02541 30.4377 4.07889 30.3847 4.1275C30.1005 4.13722 29.8549 4.1275 29.6478 3.83097C29.4936 3.60736 29.1901 3.48583 28.8915 3.60736C28.5977 3.72889 28.4965 3.96708 28.4724 4.28791C28.4146 5.00736 28.9541 5.45944 29.614 5.50319C30.1246 5.53722 30.4763 5.76569 30.6545 6.23236C30.8472 6.73305 30.7894 7.23375 30.4425 7.64694C30.2836 7.83652 30.0427 7.9775 29.8163 8.08444C29.5803 8.19625 29.6815 8.39555 29.6381 8.55597C29.4551 8.6775 29.272 8.79902 29.0842 8.92055C28.747 8.82333 28.747 8.53652 28.747 8.24C28.352 8.19139 28.0533 8.0018 27.8558 7.65666C27.8558 7.60805 27.851 7.55944 27.8462 7.51569C27.851 7.49625 27.8462 7.4768 27.8414 7.45736C27.9859 7.19972 28.3953 7.15597 28.6458 7.37472C28.7229 7.44277 28.7855 7.53027 28.8626 7.59833C29.0504 7.76361 29.2913 7.89972 29.5032 7.74902C29.6863 7.61777 29.8741 7.38444 29.9127 7.17055C30.0331 6.47055 29.614 5.99902 28.9204 5.92125C28.4965 5.87264 28.1111 5.71708 27.8558 5.34277C27.8366 5.31847 27.8125 5.29416 27.7932 5.26986C27.6102 4.74486 27.5476 4.215 27.9281 3.75319C28.1304 3.50527 28.4146 3.32541 28.7518 3.04347C28.8241 2.58652 28.8963 2.51847 29.325 2.52819C29.7489 2.53791 29.6285 2.86847 29.6718 3.13097C29.7537 3.14069 29.8404 3.14555 29.9271 3.15527L29.9127 3.16014Z" fill="#222222"/>
<path d="M27.8309 7.4668C27.8309 7.4668 27.8405 7.50569 27.8357 7.52513C27.826 7.51055 27.8164 7.50082 27.8164 7.48624C27.8164 7.48624 27.826 7.47166 27.8309 7.4668Z" fill="#FF7A00"/>
</g>
<defs>
<clipPath id="clip0_329_3555">
<rect width="35" height="35" fill="white"/>
</clipPath>
</defs>
</svg>
