<svg width="20" height="35" viewBox="0 0 20 35" fill="none" xmlns="http://www.w3.org/2000/svg">
<g clip-path="url(#clip0_329_3617)">
<path d="M9.31822 0.0297535C10.548 0.0297535 11.7778 0.0297535 13.0076 0.0396713C14.8672 0.054548 16.7318 0.0843015 18.5914 0.109096C19.1517 0.114055 19.7468 0.575234 19.8807 1.14055C20.0295 1.76041 20.0096 2.3654 19.5435 2.86129C19.3947 3.01998 19.2013 3.13403 19.0129 3.24809C18.8542 3.34231 18.76 3.42661 18.76 3.63984C18.7699 6.76891 18.7699 9.90295 18.7699 13.032C18.7699 13.8304 18.517 14.5544 17.9368 15.0949C17.2773 15.7049 16.5582 16.2553 15.8689 16.8355C15.7747 16.9148 15.7003 17.0239 15.6061 17.133C17.0988 18.1149 18.2691 19.4141 19.0228 21.0655C19.4146 21.9233 19.6774 22.8259 19.7468 23.773C19.7964 24.4623 19.8658 25.1615 19.8113 25.8409C19.6923 27.274 19.3005 28.6377 18.5914 29.9022C18.0856 30.8048 17.4806 31.6329 16.7169 32.3271C15.4127 33.5074 13.9003 34.3057 12.1795 34.6925C11.1133 34.9306 10.0273 35.0645 8.9463 34.9554C7.15613 34.7818 5.50977 34.1867 4.05681 33.0859C2.07821 31.5833 0.853356 29.5997 0.307875 27.2145C0.109519 26.3566 0.0252174 25.4392 0.0847243 24.5615C0.208697 22.6622 0.868232 20.9316 2.06829 19.4241C2.75758 18.5562 3.55596 17.8223 4.46344 17.2074C3.72952 16.6124 2.97081 16.047 2.2716 15.4123C1.6319 14.8321 1.25999 14.0734 1.1856 13.2006C1.16577 12.9775 1.25999 12.7494 1.26495 12.5262C1.2699 9.5707 1.26495 6.61023 1.26495 3.65472V3.49107C0.362423 3.21833 -0.0144539 2.65798 0.000422792 1.88439C0.0202584 1.01162 0.654999 0.0495891 1.77571 0.0942193C2.96089 0.13885 4.15103 0.0595069 5.34117 0.0297535C5.44035 0.0247946 5.53953 0.0148767 5.63871 0.00991782C6.25361 0.00495891 6.87348 0 7.49334 0C7.54789 0 7.60244 0 7.65698 0C8.138 0 8.61405 0.00495891 9.09507 0.00991782C9.16945 0.0148767 9.24383 0.0198356 9.32318 0.0297535H9.31822ZM14.049 33.5173L14.1928 33.4479C14.3118 33.3784 14.4259 33.309 14.5449 33.2396C14.5945 33.2148 14.6391 33.19 14.6887 33.1702C14.7581 33.1255 14.8276 33.0759 14.902 33.0313C14.9515 33.0065 14.9962 32.9817 15.0458 32.9569C15.0706 32.9371 15.0954 32.9123 15.1251 32.8875C15.4524 32.6396 15.7995 32.4164 16.102 32.1437C17.0293 31.3056 17.7434 30.294 18.2542 29.1584C18.4972 28.6179 18.6211 28.0228 18.7997 27.4476C18.8195 27.4178 18.8393 27.393 18.8592 27.3633C18.884 27.2294 18.9088 27.0955 18.9335 26.9566C18.9534 26.6988 18.9782 26.436 18.998 26.1781C19.0228 25.9748 19.0426 25.7764 19.0674 25.5731C19.0674 25.3301 19.0674 25.0921 19.0674 24.8491C19.0674 24.7648 19.0674 24.6805 19.0674 24.5962C18.998 24.1598 18.9335 23.7185 18.8641 23.2821C18.8393 23.1631 18.8145 23.0391 18.7897 22.9201C18.7203 22.7267 18.6559 22.5383 18.5864 22.3449C18.5616 22.2556 18.5418 22.1663 18.517 22.0771C18.4327 21.8738 18.3434 21.6704 18.2591 21.4671C18.2343 21.4175 18.2046 21.363 18.1798 21.3134C18.0856 21.1299 17.9963 20.9464 17.9021 20.763C17.8674 20.6886 17.8277 20.6192 17.793 20.5448C17.55 20.1976 17.312 19.8555 17.069 19.5084C16.9897 19.4141 16.9054 19.315 16.826 19.2207C16.6971 19.0819 16.5632 18.943 16.4343 18.8042C16.3698 18.7397 16.3053 18.6802 16.2458 18.6158C16.0822 18.4769 15.9235 18.3331 15.7598 18.1942L15.4673 17.9661C15.2838 17.8322 15.0954 17.6934 14.9119 17.5595C14.8474 17.5149 14.778 17.4752 14.7135 17.4306C14.5052 17.3165 14.297 17.1975 14.0887 17.0835C13.9895 17.0388 13.8903 16.9942 13.7912 16.9496C13.3052 16.7661 12.8192 16.5776 12.3283 16.3942C12.1696 16.3644 12.0109 16.3347 11.8522 16.3049C11.7778 16.2652 11.7084 16.2305 11.634 16.1908C10.7563 16.1413 9.87362 16.0867 8.99589 16.0371C8.62397 16.1016 8.25205 16.1661 7.88013 16.2256C7.59748 16.2999 7.31978 16.3793 7.03712 16.4537C6.73958 16.5578 6.42717 16.6322 6.14452 16.7661C4.87999 17.3612 3.82374 18.224 2.97081 19.3249C2.6584 19.7216 2.43029 20.1828 2.15755 20.6142H2.16251C2.13771 20.639 2.11292 20.6638 2.08812 20.6836C2.02862 20.7828 1.96911 20.877 1.90464 20.9762C1.75588 21.3233 1.61207 21.6704 1.4633 22.0176C1.39388 22.2457 1.32445 22.4738 1.25999 22.7019C1.17073 23.2424 1.07651 23.7829 0.987246 24.3185C0.967411 24.4127 0.942616 24.5069 0.92278 24.6012C0.92278 24.8491 0.92278 25.102 0.92278 25.35C0.92278 25.4194 0.92278 25.4838 0.92278 25.5533C0.947575 25.7715 0.967411 25.9897 0.992205 26.2078L1.06163 26.6046C1.11122 26.8178 1.15585 27.0261 1.20544 27.2393C1.23023 27.3087 1.25503 27.3782 1.27486 27.4426C1.34429 27.641 1.41371 27.8443 1.4881 28.0426L1.60711 28.3699C1.79555 28.7617 1.97903 29.1534 2.16747 29.5452C2.19226 29.6097 2.22202 29.6741 2.24681 29.7386C2.36087 29.9072 2.47492 30.0708 2.58897 30.2394C2.63361 30.3089 2.67328 30.3733 2.71791 30.4428C2.83692 30.6064 2.95593 30.77 3.07991 30.9337C3.14437 31.023 3.20884 31.1172 3.27826 31.2064C3.41215 31.3453 3.54604 31.4841 3.68489 31.623C3.77911 31.7122 3.86837 31.8015 3.96259 31.8957C4.28988 32.1784 4.61717 32.4561 4.94942 32.7387C5.01884 32.7883 5.08827 32.833 5.15769 32.8825L5.72797 33.2892C5.86682 33.3636 6.01062 33.4429 6.14947 33.5173C6.40238 33.6313 6.65032 33.7454 6.90323 33.8594C7.04704 33.9239 7.18589 33.9884 7.32969 34.0528C7.59748 34.1223 7.86526 34.1967 8.13304 34.2661C8.21238 34.2859 8.29172 34.3107 8.37107 34.3305C8.67356 34.3752 8.97605 34.4248 9.27855 34.4694L9.59592 34.5388C9.97775 34.519 10.3645 34.5041 10.7464 34.4843C10.9299 34.4545 11.1183 34.4297 11.3018 34.4C12.239 34.3206 13.1217 34.0677 13.935 33.5917C13.9846 33.5619 14.0292 33.5371 14.0788 33.5074L14.049 33.5173ZM10.6422 3.01998C10.6869 3.01998 10.7315 3.01998 10.7712 3.01502C10.8952 3.01502 11.0142 3.01502 11.1381 3.01998C12.968 3.01998 14.7978 3.01998 16.6277 3.01998H17.3715C17.7831 2.99518 18.1947 2.98526 18.6063 2.95055C18.6906 2.94559 18.7798 2.84642 18.8344 2.76707C19.1716 2.30589 19.1617 1.46288 18.8393 0.966988C18.6707 0.704165 18.4525 0.530604 18.1451 0.530604C17.2178 0.520686 16.2904 0.530604 15.3631 0.540521C15.1301 0.540521 14.892 0.540521 14.659 0.540521C14.2623 0.540521 13.8655 0.540521 13.4688 0.540521C13.2655 0.540521 13.0622 0.540521 12.8638 0.540521C12.4671 0.540521 12.0704 0.540521 11.6787 0.540521C11.4307 0.540521 11.1877 0.540521 10.9398 0.540521C10.553 0.540521 10.1662 0.540521 9.7794 0.540521C9.63559 0.540521 9.48682 0.540521 9.34301 0.540521C8.95622 0.540521 8.56942 0.540521 8.18759 0.540521C8.0289 0.540521 7.87518 0.540521 7.71649 0.540521H6.53131C6.25361 0.540521 5.97591 0.540521 5.69821 0.540521C5.3015 0.540521 4.90479 0.540521 4.50312 0.540521C4.13616 0.540521 3.76424 0.540521 3.39728 0.540521C2.79725 0.540521 2.19226 0.505809 1.59223 0.540521C1.41371 0.550439 1.20544 0.714083 1.09138 0.862851C0.858315 1.1703 0.888068 1.55214 0.912863 1.9191C0.957493 2.06291 1.00212 2.20672 1.04179 2.34557C1.12114 2.62822 1.2947 2.82658 1.57736 2.91584C1.81538 2.97039 2.05341 3.02989 2.2964 3.08444C2.73774 3.05965 3.17413 3.03485 3.61547 3.01006L3.95763 3.08444C4.34939 3.05965 4.74114 3.03981 5.1329 3.01502C5.27175 3.01502 5.41555 3.01502 5.5544 3.01502C5.94616 3.01502 6.33791 3.01502 6.72471 3.01502C6.96274 3.01502 7.20572 3.01502 7.44375 3.01502C7.8355 3.01502 8.22726 3.01502 8.61901 3.01502C8.82729 3.01502 9.03556 3.01502 9.24383 3.01502C9.63559 3.01502 10.0224 3.01502 10.4141 3.01502C10.4885 3.01502 10.5629 3.01502 10.6373 3.01502L10.6422 3.01998ZM7.50326 14.6486C7.50326 14.6486 7.46854 14.6933 7.44871 14.7181C7.44871 14.9759 7.44871 15.2387 7.44871 15.4966C7.44871 15.5611 7.44871 15.6255 7.44871 15.695C7.50822 15.7396 7.57268 15.8388 7.61731 15.8288C7.88509 15.7693 8.14296 15.69 8.40578 15.6156C8.57934 15.6156 8.7529 15.6255 8.92647 15.6156C9.33805 15.5859 9.74964 15.4966 10.1563 15.5164C10.9348 15.5511 11.7084 15.6454 12.5167 15.7198C12.5167 14.966 12.5167 14.1874 12.5167 13.4039C12.5167 13.2155 12.5266 13.0271 12.5316 12.8386C12.5316 12.5609 12.5266 12.2882 12.5217 12.0105C12.5217 11.8915 12.5266 11.7725 12.5316 11.6534C12.5316 11.4005 12.5266 11.1476 12.5217 10.8947C12.5217 10.8005 12.5316 10.7063 12.5366 10.6121C12.5366 10.3592 12.5266 10.1063 12.5217 9.85336C12.5217 9.68971 12.5316 9.52111 12.5366 9.35747C12.5366 9.08473 12.5366 8.80703 12.5316 8.53429C12.5316 8.37064 12.5316 8.20204 12.5316 8.03839C12.5316 7.50779 12.5266 6.97223 12.5217 6.44163C12.5217 6.25319 12.5266 6.06971 12.5316 5.88127C12.5316 5.62836 12.5316 5.37546 12.5266 5.12256C12.5266 5.00354 12.5316 4.88453 12.5366 4.76551C12.5366 4.51261 12.5316 4.25971 12.5266 4.0068C12.5366 3.91258 12.5465 3.82332 12.5613 3.7291C12.5514 3.70431 12.5366 3.68447 12.5266 3.65968C12.5068 3.65968 12.487 3.64976 12.4671 3.6448C12.363 3.60017 12.2589 3.52579 12.1597 3.52083C11.4357 3.51091 10.7117 3.51587 9.98767 3.51587C9.16449 3.51587 8.34131 3.51587 7.51813 3.51587C7.50822 3.50595 7.4983 3.49603 7.48838 3.49107C7.4983 3.50099 7.50822 3.51091 7.51813 3.52083C7.51813 4.40351 7.51813 5.2862 7.51813 6.16393C7.51813 6.32757 7.50822 6.49122 7.50822 6.65486C7.50822 6.93256 7.51317 7.2053 7.51813 7.483C7.51813 7.60201 7.51813 7.71607 7.51813 7.83508C7.51813 8.08799 7.51813 8.34089 7.51813 8.59379C7.51813 8.75744 7.51813 8.92108 7.51317 9.08968C7.51317 9.64508 7.51317 10.2005 7.51317 10.7509C7.51317 10.9146 7.51317 11.0782 7.51317 11.2468C7.51317 11.4997 7.51813 11.7526 7.52309 12.0055C7.52309 12.1692 7.51813 12.3328 7.51317 12.4965C7.51317 12.7494 7.51813 13.0023 7.52309 13.2552C7.52309 13.3742 7.51813 13.4882 7.51317 13.6073C7.51317 13.8602 7.51317 14.1131 7.51317 14.3709C7.51317 14.4602 7.51318 14.5544 7.50822 14.6437H7.51317L7.50326 14.6486ZM13.4292 4.98371C13.4292 5.07297 13.4292 5.16719 13.4292 5.25645C13.4292 5.85647 13.4292 6.46146 13.4292 7.06149C13.4292 7.13091 13.4292 7.20034 13.4292 7.26976C13.4292 9.98725 13.4192 12.6998 13.4192 15.4173C13.4192 15.4867 13.4093 15.5561 13.4044 15.6206C13.3548 15.9627 13.5283 16.1016 13.8407 16.1958C14.1482 16.29 14.4259 16.4685 14.7234 16.5826C14.8375 16.6272 15.0259 16.6669 15.1003 16.6074C15.7946 16.057 16.5086 15.5115 17.1483 14.9015C17.5599 14.5098 17.8426 13.9891 17.8624 13.3841C17.8674 13.2502 17.8773 13.1163 17.8823 12.9824L17.8674 12.1493C17.8674 12.0303 17.8674 11.9113 17.8674 11.7923C17.8674 11.5146 17.8674 11.2369 17.8674 10.9592C17.8674 10.865 17.8674 10.7708 17.8674 10.6765C17.8674 10.3988 17.8674 10.1211 17.8674 9.84344C17.8674 9.74922 17.8674 9.65996 17.8674 9.56574C17.8674 9.30788 17.8674 9.05497 17.8674 8.79711C17.8674 8.74752 17.8674 8.69297 17.8674 8.64338C17.8773 8.39048 17.8823 8.14253 17.8922 7.88963C17.8971 7.88467 17.912 7.87475 17.912 7.86979C17.912 7.85492 17.9021 7.84004 17.8971 7.82516C17.8971 7.59209 17.8971 7.35902 17.8922 7.12596C17.8922 7.08133 17.8922 7.0367 17.8922 6.99207C17.8872 6.78379 17.8773 6.57552 17.8723 6.36724C17.8723 6.31765 17.8723 6.2631 17.8723 6.21352C17.8823 5.96061 17.8872 5.70771 17.8971 5.45976C17.9021 5.4548 17.917 5.44488 17.917 5.43993C17.917 5.42505 17.9071 5.41017 17.8971 5.39034C17.8872 5.15727 17.8773 4.9242 17.8674 4.69113C17.8674 4.52253 17.8674 4.35888 17.8674 4.19028V3.52083C17.3566 3.52083 16.8806 3.52083 16.4045 3.52083C16.1516 3.52083 15.8987 3.52083 15.6458 3.52083H13.4242V4.97875L13.4292 4.98371ZM2.08812 11.7229C2.11292 12.2039 2.13771 12.6799 2.16251 13.161C2.18234 13.3395 2.20218 13.513 2.22202 13.6916C2.2964 14.1379 2.46004 14.5346 2.82204 14.8271C2.86667 14.8767 2.91626 14.9263 2.96089 14.9809L4.5775 16.2652C4.62709 16.3099 4.67172 16.3594 4.72131 16.4041C5.17257 16.8107 5.16761 16.8057 5.69821 16.538C5.99079 16.3892 6.29328 16.2553 6.59082 16.1165C6.59578 16.0718 6.60569 16.0272 6.61065 15.9826C6.61065 15.7049 6.61065 15.4222 6.61065 15.1445C6.61561 15.1396 6.63049 15.1296 6.63049 15.1247C6.63049 15.1098 6.61561 15.0949 6.61065 15.08C6.60569 14.9313 6.59578 14.7825 6.59578 14.6337C6.59578 13.3692 6.58586 12.0997 6.58586 10.8352C6.58586 10.7708 6.58586 10.7063 6.58586 10.6369C6.58586 10.0418 6.58586 9.44673 6.5809 8.85166C6.5809 8.79215 6.5809 8.7376 6.58586 8.67809C6.59578 7.97889 6.60073 7.28464 6.61065 6.58543C6.61561 6.58048 6.63049 6.57056 6.63049 6.5656C6.63049 6.55072 6.61561 6.53585 6.61065 6.51601C6.61065 5.58869 6.61065 4.65642 6.61065 3.7291C6.61561 3.72414 6.63049 3.71422 6.63049 3.70927C6.63049 3.69439 6.61561 3.67951 6.61065 3.65968C6.52139 3.61505 6.43213 3.52579 6.34783 3.52579C5.11802 3.51587 3.88325 3.51587 2.65344 3.52579C2.24681 3.52579 2.07821 3.69935 2.07325 4.11094C2.07325 4.62171 2.07325 5.13743 2.07325 5.6482C2.07325 5.7325 2.11788 5.8168 2.13771 5.9011C2.13771 6.01516 2.1278 6.13417 2.12284 6.24823C2.12284 6.52593 2.11292 6.80363 2.11292 7.08133C2.11292 7.12596 2.11292 7.17059 2.11292 7.21522C2.12284 7.45324 2.1278 7.69127 2.13771 7.9293C2.11788 8.06815 2.09308 8.20204 2.07325 8.34089C2.07325 8.59875 2.07325 8.85166 2.07325 9.10952C2.07325 9.28804 2.07325 9.46656 2.07325 9.64508C2.07325 10.1013 2.06333 10.5575 2.06333 11.0137C2.06333 11.0732 2.10796 11.1328 2.1278 11.1972C2.10796 11.3757 2.08812 11.5592 2.06829 11.7377L2.08812 11.7229Z" fill="#222222"/>
<path d="M9.31795 0.0296013C9.24357 0.0246424 9.16919 0.0196834 9.08984 0.00976562C9.16423 0.0147245 9.23861 0.0196834 9.31795 0.0296013Z" fill="#222222"/>
<path d="M6.73087 3.02487C6.33911 3.02487 5.94736 3.02487 5.56056 3.02487C5.70933 2.89594 5.85314 2.76701 6.00191 2.63312C5.97711 2.5984 5.95232 2.56865 5.92752 2.53394C5.6647 2.69758 5.40188 2.85627 5.14401 3.01991C4.75226 3.04471 4.36051 3.06454 3.96379 3.08934C4.15223 2.88602 4.34563 2.68766 4.53407 2.48435C4.54895 2.46947 4.55886 2.4546 4.57374 2.43972C4.54895 2.43972 4.52415 2.44468 4.49936 2.44964C4.20678 2.63807 3.9142 2.82651 3.62659 3.01495C3.18524 3.03975 2.74886 3.06454 2.30752 3.08934C2.35215 3.00008 2.39182 2.90586 2.43645 2.8166C2.4662 2.80172 2.491 2.77692 2.52075 2.75709C2.75382 2.54881 2.98689 2.3455 3.22492 2.13722C3.19516 2.09755 3.17037 2.05788 3.14061 2.01821C2.81333 2.21657 2.491 2.41988 2.16371 2.61824C1.97527 2.71742 1.78683 2.8166 1.59839 2.91577C1.31078 2.82651 1.14217 2.62816 1.06283 2.3455C1.27606 2.11243 1.4893 1.8744 1.69757 1.64133C1.67773 1.62646 1.6579 1.60662 1.63806 1.59174C1.40499 1.70084 1.16697 1.80498 0.933898 1.91407C0.904145 1.54711 0.874391 1.16528 1.11242 0.857825C1.22647 0.704099 1.43971 0.545414 1.61327 0.535496C2.2133 0.500784 2.81828 0.530537 3.41831 0.535496C3.11582 0.902456 2.81828 1.26942 2.51579 1.63637C2.51083 1.65125 2.50091 1.67109 2.49596 1.68596C2.50587 1.67109 2.51579 1.66117 2.52571 1.64629C2.59017 1.63142 2.66456 1.63142 2.71911 1.5967C3.31913 1.24462 3.91916 0.892538 4.51919 0.535496C4.9159 0.535496 5.31262 0.535496 5.71429 0.535496C5.40684 0.852867 5.09938 1.17024 4.79193 1.48761C4.80681 1.5124 4.81673 1.5372 4.8316 1.56199L6.55235 0.540455C6.94906 0.540455 7.34577 0.540455 7.73753 0.540455C7.54909 0.718976 7.36065 0.897497 7.17221 1.07602C7.1375 1.08594 7.10774 1.09585 7.07303 1.11073C7.07799 1.12561 7.08791 1.14048 7.09287 1.15536C7.12758 1.13552 7.16229 1.12065 7.19205 1.10081C7.52925 0.912373 7.86646 0.728894 8.20366 0.540455C8.59046 0.540455 8.97725 0.540455 9.35909 0.540455C9.23016 0.669387 9.10123 0.798318 8.97229 0.92725C8.94254 0.942127 8.90783 0.952045 8.87808 0.966921C8.88303 0.981798 8.88799 0.996675 8.89791 1.01155C8.93758 0.996675 8.97229 0.981798 9.01197 0.966921C9.27479 0.823113 9.53761 0.679305 9.80043 0.535496C10.1872 0.535496 10.574 0.535496 10.9608 0.535496C10.693 0.803277 10.4253 1.07602 10.1575 1.3438C10.1277 1.35868 10.093 1.36859 10.0633 1.38347C10.0682 1.39835 10.0732 1.41322 10.0781 1.42314C10.1178 1.40826 10.1575 1.39835 10.1922 1.38347C10.693 1.10081 11.1939 0.813195 11.6947 0.530537C12.0915 0.530537 12.4882 0.530537 12.8799 0.530537C12.6617 0.748729 12.4435 0.961963 12.2253 1.18015C12.1857 1.21487 12.151 1.24462 12.1113 1.27933C12.0766 1.28925 12.0468 1.29917 12.0121 1.30413C12.0171 1.319 12.027 1.33388 12.0319 1.34876C12.0617 1.32892 12.0915 1.30909 12.1212 1.28925C12.1708 1.26942 12.2154 1.24462 12.265 1.22478C12.6716 0.991716 13.0783 0.758647 13.4849 0.525578C13.8816 0.525578 14.2783 0.525578 14.675 0.525578C14.3973 0.798318 14.1196 1.07106 13.8419 1.3438C13.8271 1.35868 13.8122 1.37355 13.7973 1.38843L13.8767 1.37851C14.3775 1.09585 14.8784 0.813195 15.3792 0.525578C16.3065 0.525578 17.2338 0.510702 18.1612 0.51566C18.4686 0.51566 18.6868 0.689222 18.8554 0.952045C19.1728 1.44794 19.1877 2.29095 18.8504 2.75213C18.7959 2.83147 18.7017 2.93065 18.6223 2.93561C18.2107 2.97032 17.7992 2.98024 17.3876 3.00008C17.5562 2.7918 17.7248 2.58849 17.8934 2.38021C17.8735 2.35046 17.8487 2.32566 17.8289 2.29591C17.4322 2.53394 17.0404 2.76701 16.6437 3.00503C14.8139 3.00503 12.9841 3.00503 11.1542 3.00503C11.3129 2.82651 11.4765 2.64303 11.6352 2.46451H11.6253C11.6749 2.43972 11.7245 2.41492 11.7691 2.39013C11.8385 2.3207 11.908 2.25128 11.9774 2.18185C11.9526 2.15706 11.9328 2.13227 11.908 2.10747C11.6947 2.24632 11.4865 2.38517 11.2732 2.52898C11.1741 2.59344 11.0798 2.65791 10.9807 2.71742C10.8666 2.76701 10.7575 2.8166 10.6434 2.87114C10.5691 2.91577 10.4996 2.9604 10.4253 3.00503C10.0335 3.00503 9.64671 3.00503 9.25495 3.00503C9.50786 2.75213 9.76076 2.50418 10.0186 2.25128C10.0285 2.25128 10.0385 2.24632 10.0484 2.2364C10.0484 2.2364 10.0484 2.22153 10.0484 2.21161C10.0385 2.22153 10.0285 2.2364 10.0186 2.24632L8.63013 3.00008C8.23838 3.00008 7.84662 3.00008 7.45487 3.00008C7.56892 2.88602 7.67802 2.77197 7.79207 2.65791C7.98051 2.47443 8.16399 2.29095 8.35243 2.10747C8.36235 2.09259 8.37227 2.08268 8.38714 2.0678C8.37722 2.07772 8.36235 2.09259 8.35243 2.10251C8.09953 2.24136 7.84166 2.37525 7.58876 2.5141C7.3061 2.67775 7.0284 2.83643 6.74574 3.00008L6.73087 3.02487ZM6.06141 2.50914L6.08125 2.51906V2.50418L6.06141 2.50914Z" fill="#FF7A00"/>
<path d="M18.7732 27.4521C18.5946 28.0224 18.4707 28.6175 18.2277 29.163C17.7169 30.2986 17.0028 31.3052 16.0755 32.1482C15.773 32.421 15.4259 32.6441 15.0986 32.8921C15.0738 32.9169 15.049 32.9417 15.0193 32.9665C14.9697 32.9913 14.925 33.016 14.8754 33.0408C14.806 33.0904 14.7366 33.1351 14.6622 33.1846C14.6126 33.2094 14.568 33.2342 14.5184 33.2541C14.3994 33.3235 14.2853 33.3929 14.1663 33.4673C14.1167 33.4921 14.0721 33.5169 14.0225 33.5367C13.9729 33.5665 13.9283 33.5913 13.8787 33.621C13.0654 34.0971 12.1828 34.35 11.2455 34.4293C11.5183 34.2211 11.791 34.0128 12.0588 33.8045C12.039 33.7698 12.0142 33.74 11.9943 33.7053C11.5579 33.9731 11.1265 34.2409 10.6901 34.5087C10.3083 34.5285 9.9215 34.5434 9.53966 34.5632C9.84711 34.3054 10.1546 34.0425 10.462 33.7847C10.4471 33.7599 10.4323 33.7351 10.4174 33.7103C10.0207 33.9731 9.619 34.2359 9.22229 34.4938C8.9198 34.4492 8.6173 34.3996 8.31481 34.355C8.52804 34.1764 8.74128 33.9979 8.95451 33.8194C8.9793 33.7946 8.99914 33.7748 9.02393 33.75C9.05865 33.74 9.0884 33.7252 9.12311 33.7153C9.11319 33.7004 9.10824 33.6855 9.09832 33.6706C9.06856 33.6905 9.03881 33.7103 9.00906 33.7351C8.9793 33.7549 8.95451 33.7748 8.92476 33.7896C8.6421 33.9533 8.35944 34.1219 8.07678 34.2855C7.809 34.2161 7.54122 34.1417 7.27344 34.0723C7.35774 33.9979 7.43708 33.9136 7.52634 33.8491C8.15117 33.4227 8.78095 32.9962 9.41073 32.5747C9.76777 32.5648 10.1347 32.5945 10.4819 32.54C11.5331 32.3813 12.5448 32.0986 13.5117 31.6474C14.2804 31.2903 14.9796 30.8192 15.535 30.1944C16.011 29.6638 16.3681 29.034 16.7797 28.4439C16.9086 28.3993 17.0475 28.3695 17.1714 28.3051C17.6971 28.0323 18.2227 27.7447 18.7434 27.4621L18.7732 27.4521ZM10.5959 33.6706C10.5959 33.6706 10.581 33.6805 10.5711 33.6855C10.5761 33.6905 10.581 33.7053 10.5909 33.7053C10.5959 33.7053 10.6058 33.6954 10.6157 33.6905C10.6108 33.6855 10.6058 33.6756 10.5959 33.6706Z" fill="#C0DAF0"/>
<path d="M1.44351 22.0272C1.59228 21.68 1.73609 21.3329 1.88485 20.9858C2.16255 20.8023 2.44025 20.6238 2.71299 20.4403C2.73779 20.4155 2.75762 20.3957 2.78242 20.3709L2.87664 20.3362C2.87664 20.3362 2.86176 20.3064 2.8568 20.2965C2.82705 20.3163 2.79729 20.3362 2.76754 20.356C2.73779 20.3759 2.71299 20.3907 2.68324 20.4106C2.49976 20.48 2.31628 20.5544 2.1328 20.6238C2.40058 20.1924 2.63365 19.7312 2.94606 19.3345C3.79899 18.2336 4.8602 17.3708 6.11977 16.7757C6.40242 16.6418 6.71484 16.5674 7.01237 16.4633C6.92311 16.5476 6.83385 16.6269 6.75451 16.7162C6.65037 16.8352 6.56111 16.9641 6.46193 17.0931C6.39251 17.1426 6.32308 17.1873 6.2487 17.2369C6.20407 17.2617 6.15448 17.2815 6.10985 17.3063C5.69826 17.6385 5.28667 17.9708 4.88004 18.2981C4.89491 18.3229 4.90979 18.3477 4.92467 18.3725C5.01393 18.3328 5.10815 18.303 5.19741 18.2534C5.59908 18.0253 6.00571 17.8022 6.40242 17.5641C6.95782 17.2319 7.5033 16.8897 8.05374 16.5525C8.35624 16.3889 8.65873 16.2203 8.96122 16.0566C9.83895 16.1062 10.7216 16.1608 11.5994 16.2104C11.3217 16.4385 11.0489 16.6666 10.7712 16.8947C10.7216 16.9145 10.672 16.9344 10.6225 16.9542C10.3943 17.1079 10.1662 17.2567 9.94309 17.4154C9.68026 17.6038 9.4224 17.8022 9.16454 17.9956C8.93147 18.0452 8.69344 18.0749 8.47029 18.1493C7.71158 18.4121 6.94295 18.6551 6.20903 18.9725C5.43048 19.3097 4.83541 19.9147 4.2453 20.5147C4.21554 20.5395 4.18579 20.5643 4.15604 20.5891H4.161C4.03702 20.6337 3.90313 20.6635 3.78412 20.7279C3.00061 21.1643 2.2171 21.6057 1.43359 22.042L1.44351 22.0272ZM8.7827 17.1178C9.15462 16.9542 9.5315 16.7955 9.81416 16.498C9.78936 16.4633 9.76457 16.4236 9.73977 16.3889C9.40752 16.617 9.07528 16.8451 8.74303 17.0732C8.71328 17.0881 8.67856 17.103 8.64881 17.1178C8.65377 17.1327 8.65873 17.1476 8.66865 17.1625C8.70832 17.1476 8.74799 17.1377 8.78766 17.1228L8.7827 17.1178Z" fill="#C0DAF0"/>
<path d="M0.96875 24.3338C1.05801 23.7933 1.15223 23.2528 1.24149 22.7172C1.34563 22.6478 1.45472 22.5833 1.55886 22.5139C2.30766 21.9982 3.05645 21.4874 3.81021 20.9717C3.81021 21.0064 3.82012 21.051 3.81021 21.0758C3.29448 21.7701 2.96719 22.5536 2.69941 23.3668C2.12418 23.6892 1.54894 24.0165 0.973709 24.3388L0.96875 24.3338Z" fill="#C0DAF0"/>
<path d="M12.2967 16.4044C12.7826 16.5879 13.2686 16.7763 13.7595 16.9598C13.6207 17.0689 13.4818 17.1829 13.338 17.292C12.9463 17.5697 12.5545 17.8425 12.1578 18.1202C12.0834 18.1003 12.009 18.0656 11.9297 18.0606C11.1462 18.0111 10.3577 17.9615 9.57422 17.9119C10.4817 17.4061 11.3892 16.9052 12.2917 16.3994L12.2967 16.4044Z" fill="#C0DAF0"/>
<path d="M18.8404 23.292C18.9099 23.7284 18.9743 24.1697 19.0437 24.6061C18.9545 24.6607 18.8652 24.7152 18.776 24.7697C18.3396 25.0276 17.9082 25.2805 17.4718 25.5384C17.447 25.0524 17.4222 24.5664 17.4023 24.0805C17.8834 23.8176 18.3644 23.5548 18.8404 23.292Z" fill="#C0DAF0"/>
<path d="M4.9126 32.7484C4.58532 32.4657 4.25803 32.188 3.92578 31.9054C4.35721 31.6078 4.78863 31.3053 5.2151 31.0078C5.63661 31.2756 6.06307 31.5384 6.48458 31.8062C5.95894 32.1186 5.43329 32.431 4.90765 32.7484H4.9126Z" fill="#C0DAF0"/>
<path d="M17.0449 19.5186C17.2879 19.8657 17.5259 20.2078 17.7689 20.555C17.3375 20.8376 16.911 21.1203 16.4796 21.4029C16.2217 21.036 15.9638 20.6641 15.7109 20.2971C16.1572 20.0392 16.6035 19.7764 17.0449 19.5186Z" fill="#C0DAF0"/>
<path d="M2.14239 29.5598C1.95395 29.168 1.77047 28.7763 1.58203 28.3845C1.99362 28.1366 2.41017 27.8837 2.82176 27.6357C3.01516 28.0572 3.20855 28.4837 3.40195 28.9052C2.98044 29.1234 2.55894 29.3416 2.13743 29.5598H2.14239Z" fill="#C0DAF0"/>
<path d="M6.87485 33.8691C6.62194 33.755 6.374 33.641 6.12109 33.5269C6.72112 33.1351 7.32115 32.7384 7.92118 32.3467C8.29806 32.4161 8.67493 32.4855 9.05181 32.555C8.93776 32.6293 8.8237 32.7087 8.70469 32.7781C8.09474 33.1451 7.48479 33.5071 6.86989 33.8691H6.87485Z" fill="#C0DAF0"/>
<path d="M18.9762 26.1934C18.9564 26.4512 18.9316 26.714 18.9118 26.9719C18.2423 27.4083 17.5679 27.8447 16.8984 28.2811C17.0224 27.8893 17.1414 27.5025 17.2654 27.1108C17.3894 27.0562 17.5183 27.0116 17.6373 26.9471C18.0886 26.6992 18.5349 26.4463 18.9812 26.1934H18.9762Z" fill="#C0DAF0"/>
<path d="M19.048 24.8643C19.048 25.1072 19.048 25.3453 19.048 25.5883C18.4926 25.9503 17.9372 26.3172 17.3867 26.6792C17.4165 26.3569 17.4462 26.0346 17.471 25.7073C17.5752 25.6626 17.6843 25.623 17.7834 25.5684C18.2049 25.3354 18.6264 25.0973 19.048 24.8643Z" fill="#C0DAF0"/>
<path d="M0.903396 25.3645C0.903396 25.1165 0.903396 24.8636 0.903396 24.6157C1.01745 24.5661 1.13647 24.5314 1.2406 24.4669C1.70178 24.1743 2.16296 23.8718 2.62414 23.5693C2.57951 23.8917 2.52992 24.209 2.48529 24.5314C2.46545 24.5562 2.44562 24.5859 2.42578 24.6107C2.30677 24.6801 2.19271 24.7496 2.0737 24.819C1.94973 24.8587 1.8208 24.8884 1.70178 24.943C1.42904 25.0768 1.16622 25.2256 0.898438 25.3645H0.903396Z" fill="#C0DAF0"/>
<path d="M5.69918 33.2945C5.51074 33.1606 5.31734 33.0267 5.12891 32.8878C5.21817 32.8184 5.30743 32.749 5.40165 32.6845C5.80828 32.4118 6.21491 32.139 6.6265 31.8613C6.89924 31.9754 7.16702 32.0894 7.43976 32.1985C7.23644 32.3225 7.02817 32.4415 6.82485 32.5705C6.44798 32.8085 6.08102 33.0465 5.70414 33.2895L5.69918 33.2945Z" fill="#C0DAF0"/>
<path d="M14.0532 17.0938C14.2615 17.2078 14.4698 17.3268 14.678 17.4409C14.5739 17.5153 14.4747 17.5896 14.3706 17.6591C13.9838 17.9268 13.597 18.1946 13.2102 18.4624C12.9275 18.3533 12.6449 18.2492 12.3672 18.1401C12.4812 18.0657 12.5953 17.9913 12.7094 17.9169C12.9722 17.7384 13.235 17.5599 13.4978 17.3863C13.6813 17.2871 13.8648 17.1929 14.0532 17.0938Z" fill="#C0DAF0"/>
<path d="M14.881 17.5693C15.0645 17.7032 15.2529 17.8421 15.4364 17.976C14.9752 18.2785 14.5141 18.581 14.0529 18.8884C13.8148 18.7545 13.5818 18.6206 13.3438 18.4867L14.881 17.5743V17.5693Z" fill="#C0DAF0"/>
<path d="M0.971769 26.2231C0.946974 26.0049 0.927138 25.7867 0.902344 25.5686C1.2941 25.3206 1.68585 25.0677 2.07265 24.8148C2.19166 24.7454 2.30572 24.6759 2.42473 24.6016H2.45448H2.48424C2.48424 24.8743 2.48424 25.152 2.48424 25.4247C2.37514 25.4793 2.26109 25.5388 2.15199 25.5933C1.76024 25.7967 1.36848 26.0049 0.976727 26.2082L0.971769 26.2231Z" fill="#C0DAF0"/>
<path d="M1.18678 27.2544C1.13719 27.0411 1.09256 26.8328 1.04297 26.6196C1.15206 26.5651 1.27108 26.5204 1.37522 26.456C1.74713 26.2279 2.10913 25.9948 2.47609 25.7617C2.50089 26.0196 2.53064 26.2774 2.55544 26.5353C2.09922 26.7733 1.63804 27.0114 1.18182 27.2494L1.18678 27.2544Z" fill="#C0DAF0"/>
<path d="M18.5622 22.3545C18.6316 22.5479 18.6961 22.7363 18.7655 22.9297C18.6217 23.019 18.4729 23.1082 18.3291 23.1975C17.9969 23.3909 17.6646 23.5843 17.3324 23.7827C17.2828 23.5545 17.2332 23.3264 17.1836 23.0934L18.5622 22.3545Z" fill="#C0DAF0"/>
<path d="M15.7301 18.2041C15.8938 18.343 16.0525 18.4868 16.2161 18.6256C15.7748 18.9083 15.3334 19.1909 14.8921 19.4736C14.7136 19.3347 14.5301 19.1959 14.3516 19.057C14.8127 18.7744 15.269 18.4868 15.7301 18.2041Z" fill="#C0DAF0"/>
<path d="M16.408 18.8145C16.537 18.9533 16.6708 19.0922 16.7998 19.231C16.3684 19.5186 15.9369 19.8062 15.5055 20.0939C15.3419 19.9253 15.1832 19.7616 15.0195 19.593C15.4807 19.3351 15.9419 19.0773 16.408 18.8194V18.8145Z" fill="#C0DAF0"/>
<path d="M18.2345 21.4766C18.3188 21.68 18.4081 21.8833 18.4924 22.0866C18.0361 22.3544 17.5849 22.6271 17.1287 22.8949C17.0493 22.6817 16.97 22.4684 16.8906 22.2552C17.3369 21.9924 17.7832 21.7345 18.2295 21.4717L18.2345 21.4766Z" fill="#C0DAF0"/>
<path d="M3.65663 31.6325C3.52274 31.4937 3.38885 31.3548 3.25 31.216C3.35414 31.1218 3.45332 31.0127 3.56737 30.9284C3.85995 30.7201 4.16244 30.5168 4.46493 30.3135C4.64345 30.492 4.82197 30.6705 5.0005 30.8441C4.55419 31.1069 4.10789 31.3648 3.65663 31.6276V31.6325Z" fill="#C0DAF0"/>
<path d="M1.46714 28.0571C1.39771 27.8587 1.32829 27.6554 1.25391 27.457C1.71013 27.1793 2.16139 26.9066 2.61761 26.6289C2.6672 26.8769 2.72174 27.1198 2.77133 27.3678C2.33495 27.5959 1.89856 27.824 1.46714 28.0571Z" fill="#C0DAF0"/>
<path d="M17.8759 20.7725C17.9701 20.9559 18.0593 21.1394 18.1536 21.3229C17.7122 21.5857 17.2709 21.8485 16.8246 22.1114C16.7304 21.9229 16.6361 21.7394 16.5469 21.551C16.9882 21.2931 17.4345 21.0353 17.8759 20.7725Z" fill="#C0DAF0"/>
<path d="M3.05341 30.9483C2.93439 30.7846 2.81538 30.621 2.69141 30.4573C3.10795 30.1945 3.51954 29.9367 3.93609 29.6738C4.06502 29.8424 4.19396 30.011 4.31793 30.1796C3.89642 30.4325 3.47491 30.6904 3.05341 30.9433V30.9483Z" fill="#C0DAF0"/>
<path d="M2.56482 30.2539C2.45077 30.0853 2.33671 29.9216 2.22266 29.753C2.6392 29.4951 3.05079 29.2422 3.46734 28.9844C3.58636 29.1679 3.70041 29.3563 3.81943 29.5398C3.40288 29.7778 2.98137 30.0158 2.56482 30.2539Z" fill="#C0DAF0"/>
<path d="M2.62309 23.5696C2.16191 23.8671 1.70569 24.1696 1.23955 24.4672C1.13541 24.5316 1.0164 24.5663 0.902344 24.6159C0.922179 24.5217 0.946974 24.4275 0.96681 24.3333C1.54204 24.0109 2.11728 23.6837 2.69251 23.3613C2.66772 23.4308 2.64788 23.5002 2.62309 23.5746V23.5696Z" fill="#C0DAF0"/>
<path d="M17.1328 22.9001C17.589 22.6323 18.0403 22.3596 18.4965 22.0918C18.5213 22.1811 18.5411 22.2703 18.5659 22.3596C18.1048 22.6075 17.6436 22.8505 17.1874 23.0985C17.1725 23.034 17.1526 22.9695 17.1378 22.9051L17.1328 22.9001Z" fill="#C0DAF0"/>
<path d="M3.05574 30.9482C3.47725 30.6953 3.89876 30.4375 4.32026 30.1846C4.36985 30.2292 4.41448 30.2738 4.46407 30.3234C4.16654 30.5267 3.86404 30.7251 3.56651 30.9383C3.45245 31.0226 3.35327 31.1268 3.24914 31.2259C3.18467 31.1367 3.12021 31.0425 3.05078 30.9532L3.05574 30.9482Z" fill="#C0DAF0"/>
<path d="M6.61993 31.8662C6.2133 32.139 5.80171 32.4117 5.39508 32.6844C5.30086 32.7489 5.2116 32.8183 5.12234 32.8878C5.05291 32.8382 4.98349 32.7935 4.91406 32.744C5.43971 32.4315 5.96535 32.1142 6.491 31.8018C6.53563 31.8216 6.5753 31.8414 6.61993 31.8613V31.8662Z" fill="#C0DAF0"/>
<path d="M19.0457 24.8643C18.6242 25.0974 18.2027 25.3354 17.7812 25.5685C17.682 25.623 17.5729 25.6627 17.4688 25.7073C17.4688 25.6528 17.4688 25.5933 17.4688 25.5387C17.9051 25.2809 18.3415 25.028 18.7729 24.7701C18.8622 24.7155 18.9515 24.661 19.0407 24.6064C19.0407 24.6907 19.0407 24.775 19.0407 24.8594L19.0457 24.8643Z" fill="#C0DAF0"/>
<path d="M16.4081 18.8144C15.9469 19.0723 15.4857 19.3301 15.0196 19.588C14.9749 19.5483 14.9353 19.5136 14.8906 19.474C15.332 19.1913 15.7733 18.9086 16.2147 18.626C16.2791 18.6904 16.3436 18.7499 16.4031 18.8144H16.4081Z" fill="#C0DAF0"/>
<path d="M16.8242 22.1117C17.2656 21.8489 17.7069 21.5861 18.1532 21.3232C18.178 21.3728 18.2078 21.4274 18.2325 21.477C17.7862 21.7398 17.3399 21.9977 16.8936 22.2605C16.8688 22.2109 16.849 22.1613 16.8242 22.1117Z" fill="#C0DAF0"/>
<path d="M14.881 17.5694C14.3703 17.8719 13.8545 18.1793 13.3438 18.4818C13.2991 18.4768 13.2545 18.4669 13.2148 18.462C13.6016 18.1942 13.9884 17.9264 14.3752 17.6586C14.4794 17.5892 14.5785 17.5148 14.6827 17.4404C14.7471 17.4851 14.8166 17.5247 14.881 17.5694Z" fill="#C0DAF0"/>
<path d="M17.875 20.7728C17.4336 21.0307 16.9873 21.2885 16.546 21.5514C16.5212 21.5018 16.5014 21.4571 16.4766 21.4075C16.908 21.1249 17.3345 20.8422 17.7659 20.5596C17.8006 20.634 17.8403 20.7034 17.875 20.7778V20.7728Z" fill="#C0DAF0"/>
<path d="M12.207 1.18477C12.4252 0.966582 12.6434 0.753348 12.8616 0.535156C13.0649 0.535156 13.2682 0.535156 13.4666 0.535156C13.06 0.768225 12.6533 1.00129 12.2467 1.23436C12.2318 1.21949 12.2169 1.19965 12.207 1.18477Z" fill="#FF7A00"/>
<path d="M2.5625 30.2541C2.97905 30.0161 3.40056 29.7781 3.8171 29.54C3.85678 29.5847 3.89645 29.6293 3.93612 29.6739C3.51957 29.9368 3.10798 30.1946 2.69143 30.4574C2.6468 30.388 2.60713 30.3235 2.5625 30.2541Z" fill="#C0DAF0"/>
<path d="M2.61672 26.6342C2.1605 26.9119 1.70924 27.1846 1.25302 27.4623C1.22822 27.3929 1.20343 27.3235 1.18359 27.259C1.63981 27.021 2.10099 26.7829 2.55721 26.5449C2.57705 26.5747 2.59688 26.6044 2.61672 26.6391V26.6342Z" fill="#C0DAF0"/>
<path d="M10.7148 34.4938C11.1512 34.226 11.5827 33.9582 12.019 33.6904C12.0389 33.7251 12.0637 33.7549 12.0835 33.7896C11.8108 33.9979 11.538 34.2062 11.2702 34.4144C11.0868 34.4442 10.8983 34.469 10.7148 34.4987V34.4938Z" fill="#C0DAF0"/>
<path d="M3.47247 28.9895C3.05592 29.2474 2.64433 29.5003 2.22778 29.7581C2.20299 29.6937 2.17323 29.6292 2.14844 29.5647C2.56995 29.3465 2.99145 29.1283 3.41296 28.9102C3.4328 28.935 3.45759 28.9647 3.47743 28.9895H3.47247Z" fill="#C0DAF0"/>
<path d="M9.24219 34.4798C9.6389 34.217 10.0406 33.9542 10.4373 33.6963C10.4522 33.7211 10.467 33.7459 10.4819 33.7707C10.1745 34.0285 9.86701 34.2914 9.55956 34.5492C9.45046 34.5244 9.34632 34.5046 9.24219 34.4798Z" fill="#C0DAF0"/>
<path d="M2.07655 24.8145C1.6848 25.0674 1.29305 25.3153 0.90625 25.5682C0.90625 25.4988 0.90625 25.4343 0.90625 25.3649C1.17403 25.2211 1.43685 25.0773 1.70959 24.9434C1.82365 24.8839 1.95754 24.8591 2.08151 24.8145H2.07655Z" fill="#C0DAF0"/>
<path d="M8.18094 0.540039C7.84374 0.728478 7.50653 0.911957 7.16933 1.1004L7.14453 1.0756C7.33297 0.897081 7.52141 0.71856 7.70985 0.540039C7.86853 0.540039 8.02226 0.540039 8.18094 0.540039Z" fill="#FF7A00"/>
<path d="M4.52572 2.48979C4.33728 2.69311 4.14388 2.89146 3.95545 3.09478C3.84139 3.06998 3.72734 3.04519 3.61328 3.02039C3.90586 2.83196 4.19843 2.64352 4.48605 2.45508C4.50093 2.46995 4.51084 2.47987 4.52572 2.49475V2.48979Z" fill="#FF7A00"/>
<path d="M8.10262 34.2713C8.38527 34.1076 8.66793 33.939 8.95059 33.7754C8.96051 33.7853 8.97042 33.7903 8.97538 33.8002C8.76215 33.9787 8.54892 34.1572 8.33568 34.3357C8.25634 34.3159 8.177 34.2911 8.09766 34.2713H8.10262Z" fill="#C0DAF0"/>
<path d="M8.94922 0.926834C9.07815 0.797902 9.20708 0.668971 9.33601 0.540039C9.47982 0.540039 9.62859 0.540039 9.7724 0.540039C9.50958 0.683848 9.24675 0.827656 8.98393 0.971464C8.97401 0.956588 8.95914 0.94667 8.94922 0.931793V0.926834Z" fill="#FF7A00"/>
<path d="M2.71095 20.4458C2.43325 20.6292 2.15555 20.8078 1.88281 20.9913C1.94232 20.8921 2.00183 20.7979 2.06629 20.6987C2.09109 20.6739 2.11588 20.654 2.14068 20.6292H2.13572C2.3192 20.5598 2.50268 20.4854 2.68616 20.416C2.69607 20.4259 2.70599 20.4359 2.72087 20.4458H2.71095Z" fill="#C0DAF0"/>
<path d="M14.1875 33.4525C14.3065 33.3831 14.4206 33.3136 14.5396 33.2393C14.4206 33.3087 14.3065 33.3781 14.1875 33.4525Z" fill="#C0DAF0"/>
<path d="M14.6719 33.1751C14.7413 33.1255 14.8107 33.0808 14.8851 33.0312C14.8157 33.0808 14.7463 33.1255 14.6719 33.1751Z" fill="#C0DAF0"/>
<path d="M13.4133 15.4219C13.4133 15.4913 13.4034 15.5607 13.3984 15.6252C13.3984 15.5558 13.4084 15.4863 13.4133 15.4219Z" fill="#222222"/>
<path d="M14.5352 33.2442C14.5847 33.2194 14.6294 33.1946 14.679 33.1748C14.6294 33.1996 14.5847 33.2244 14.5352 33.2442Z" fill="#C0DAF0"/>
<path d="M14.0469 33.5225C14.0965 33.4978 14.1411 33.473 14.1907 33.4531C14.1411 33.4779 14.0965 33.5027 14.0469 33.5225Z" fill="#C0DAF0"/>
<path d="M2.13688 20.6289C2.13688 20.6289 2.08729 20.6735 2.0625 20.6983C2.08729 20.6735 2.11209 20.6537 2.13688 20.6289Z" fill="#C0DAF0"/>
<path d="M6.61378 3.72462C6.61378 3.72462 6.60387 3.67999 6.61378 3.66016C6.61874 3.67503 6.62866 3.68991 6.63362 3.70975C6.63362 3.70975 6.61874 3.72462 6.61378 3.72958V3.72462Z" fill="#222222"/>
<path d="M17.895 5.46493C17.895 5.46493 17.8851 5.4203 17.895 5.39551C17.9 5.41038 17.9099 5.42526 17.9149 5.4451C17.9149 5.45006 17.905 5.45997 17.895 5.46493Z" fill="#222222"/>
<path d="M6.61378 6.58009C6.61378 6.58009 6.60387 6.53546 6.61378 6.51562C6.61874 6.5305 6.62866 6.54538 6.63362 6.56521C6.63362 6.56521 6.61874 6.58009 6.61378 6.58505V6.58009Z" fill="#222222"/>
<path d="M12.5464 3.72958C12.5464 3.72958 12.5216 3.68495 12.5117 3.66016C12.5216 3.68495 12.5365 3.70479 12.5464 3.72958Z" fill="#222222"/>
<path d="M7.50241 3.52096L7.47266 3.49121C7.47266 3.49121 7.49249 3.51105 7.50241 3.51601V3.52096Z" fill="#222222"/>
<path d="M6.6216 15.1397C6.6216 15.1397 6.61168 15.095 6.6216 15.0752C6.62655 15.0901 6.63647 15.1049 6.64143 15.1198C6.64143 15.1198 6.63151 15.1347 6.6216 15.1397Z" fill="#222222"/>
<path d="M15.0195 32.9621C15.0443 32.9373 15.0691 32.9125 15.0989 32.8877C15.0741 32.9125 15.0493 32.9373 15.0195 32.9621Z" fill="#C0DAF0"/>
<path d="M17.8956 7.89943C17.8956 7.89943 17.8857 7.8548 17.8956 7.83496C17.9005 7.84984 17.9105 7.86471 17.9105 7.87959C17.9105 7.88455 17.9005 7.89447 17.8906 7.89943H17.8956Z" fill="#222222"/>
<path d="M7.50377 14.6484C7.50377 14.6484 7.46905 14.6931 7.44922 14.7179C7.46905 14.6931 7.48393 14.6732 7.50377 14.6484Z" fill="#222222"/>
<path d="M11.6133 2.47966C11.6629 2.45486 11.7125 2.43007 11.7571 2.40527C11.7075 2.43007 11.6579 2.45486 11.6133 2.47966Z" fill="#222222"/>
<path d="M12.1052 1.29898C12.0754 1.31882 12.0457 1.33865 12.0159 1.35849C12.011 1.34361 12.0011 1.32873 11.9961 1.31386C12.0308 1.30394 12.0606 1.29402 12.0953 1.28906L12.1052 1.30394V1.29898Z" fill="#FF7A00"/>
<path d="M12.2475 1.23514C12.1979 1.25497 12.1533 1.27977 12.1037 1.2996L12.0938 1.28473C12.1334 1.25001 12.1681 1.22026 12.2078 1.18555C12.2227 1.20042 12.2376 1.22026 12.2475 1.23514Z" fill="#FF7A00"/>
<path d="M7.1698 1.10097C7.13508 1.1208 7.10037 1.13568 7.07062 1.15551C7.06566 1.14064 7.05574 1.12576 7.05078 1.11088C7.08549 1.10097 7.11525 1.09105 7.14996 1.07617L7.17475 1.10097H7.1698Z" fill="#FF7A00"/>
<path d="M8.98936 0.972289C8.94969 0.987165 8.91498 1.00204 8.8753 1.01692C8.87034 1.00204 8.86539 0.987165 8.85547 0.972289C8.88522 0.957412 8.91993 0.947494 8.94969 0.932617C8.95961 0.947494 8.97448 0.957412 8.9844 0.972289H8.98936Z" fill="#FF7A00"/>
<path d="M4.48933 2.44937C4.51413 2.44937 4.53892 2.44441 4.56372 2.43945C4.54884 2.45433 4.53892 2.46921 4.52405 2.48408C4.50917 2.47417 4.49925 2.45929 4.48438 2.44441L4.48933 2.44937Z" fill="#FF7A00"/>
<path d="M10.0117 2.26616C10.0117 2.26616 10.0316 2.24136 10.0415 2.23145C10.0415 2.24136 10.0415 2.25128 10.0415 2.25624C10.0316 2.2612 10.0216 2.26616 10.0117 2.27112V2.26616Z" fill="#222222"/>
<path d="M8.33594 2.1226C8.33594 2.1226 8.36073 2.09781 8.37065 2.08789C8.36073 2.10277 8.35081 2.11269 8.33594 2.12756V2.1226Z" fill="#222222"/>
<path d="M6.05859 2.50887L6.07843 2.50391V2.51878L6.05859 2.50887Z" fill="#222222"/>
<path d="M3.4712 28.9894C3.45136 28.9646 3.42657 28.9349 3.40673 28.9101C3.21333 28.4886 3.01994 28.0621 2.82654 27.6406C2.81166 27.5513 2.79183 27.4621 2.77695 27.3728C2.72736 27.1249 2.67281 26.8819 2.62322 26.6339C2.60339 26.6042 2.58355 26.5744 2.56372 26.5397C2.53892 26.2819 2.50917 26.024 2.48438 25.7661C2.48438 25.657 2.48438 25.5479 2.48438 25.4388C2.48438 25.1611 2.48438 24.8884 2.48438 24.6107C2.48438 24.5859 2.48438 24.5562 2.48438 24.5314C2.52901 24.209 2.57859 23.8917 2.62322 23.5693C2.64802 23.4999 2.66785 23.4305 2.69265 23.3561C2.96539 22.5428 3.28772 21.7593 3.80345 21.0651C3.81832 21.0403 3.80345 20.9957 3.80345 20.9609C3.92246 20.827 4.04643 20.6981 4.16545 20.5642H4.16049C4.19024 20.5394 4.21999 20.5146 4.24975 20.4898C4.83986 19.8898 5.43493 19.2848 6.21348 18.9476C6.9474 18.6303 7.71603 18.3873 8.47474 18.1244C8.69789 18.0501 8.93592 18.0203 9.16899 17.9707C9.30288 17.9509 9.44173 17.9261 9.57562 17.9062C10.3591 17.9558 11.1476 18.0005 11.9311 18.055C12.0055 18.06 12.0848 18.0947 12.1592 18.1145C12.2286 18.1195 12.2981 18.1294 12.3675 18.1344C12.6501 18.2435 12.9328 18.3476 13.2105 18.4567C13.2551 18.4616 13.2998 18.4716 13.3394 18.4765C13.5775 18.6104 13.8105 18.7443 14.0486 18.8782C14.1477 18.9327 14.2469 18.9923 14.3461 19.0468C14.5246 19.1856 14.7081 19.3245 14.8866 19.4633C14.9312 19.503 14.9709 19.5377 15.0155 19.5774C15.1792 19.746 15.3379 19.9097 15.5015 20.0783C15.5709 20.1477 15.6354 20.2171 15.7048 20.2865C15.9627 20.6535 16.2206 21.0254 16.4735 21.3924C16.4983 21.442 16.5181 21.4866 16.5429 21.5362C16.6371 21.7246 16.7313 21.9081 16.8206 22.0965C16.8454 22.1461 16.8652 22.1957 16.89 22.2453C16.9694 22.4585 17.0487 22.6718 17.128 22.885C17.1429 22.9495 17.1628 23.0139 17.1776 23.0784C17.2272 23.3065 17.2768 23.5346 17.3264 23.7677C17.3512 23.8669 17.371 23.966 17.3958 24.0702C17.4206 24.5562 17.4454 25.0421 17.4652 25.5281C17.4652 25.5826 17.4652 25.6422 17.4652 25.6967C17.4355 26.019 17.4057 26.3414 17.3809 26.6686C17.3413 26.8125 17.3016 26.9563 17.257 27.1001C17.133 27.4918 17.014 27.8786 16.89 28.2704C16.8603 28.3249 16.8355 28.3745 16.8057 28.4291C16.3941 29.0142 16.0321 29.649 15.561 30.1796C15.0007 30.8044 14.3015 31.2755 13.5378 31.6325C12.5708 32.0838 11.5592 32.3664 10.5079 32.5251C10.1558 32.5797 9.79381 32.5499 9.43677 32.5598C9.30784 32.5598 9.17891 32.5549 9.04997 32.5499C8.6731 32.4805 8.29622 32.4111 7.91934 32.3416C7.7557 32.297 7.59701 32.2474 7.43337 32.2028C7.16063 32.0887 6.89285 31.9747 6.62011 31.8656C6.57548 31.8458 6.53581 31.8259 6.49118 31.8061C6.06967 31.5383 5.6432 31.2755 5.22169 31.0077C5.14731 30.9581 5.07293 30.9036 4.99358 30.849C4.81506 30.6705 4.63654 30.492 4.45802 30.3184C4.40843 30.2738 4.3638 30.2291 4.31421 30.1796C4.18528 30.011 4.06131 29.8424 3.93238 29.6737C3.89271 29.6291 3.85303 29.5845 3.81336 29.5399C3.69435 29.3564 3.58029 29.1679 3.46128 28.9845L3.4712 28.9894ZM4.09106 22.0271C4.07619 22.0519 4.05635 22.0767 4.04147 22.1064C3.89271 22.4784 3.74394 22.8453 3.60013 23.2172C3.54062 23.4255 3.47616 23.6388 3.41665 23.847C3.39186 24.3826 3.37202 24.9132 3.34723 25.4488C3.34723 25.6322 3.34723 25.8207 3.34723 26.0042C3.39681 26.2124 3.4464 26.4207 3.49599 26.629C3.51583 26.7083 3.53566 26.7827 3.5555 26.862C3.5555 26.9265 3.5555 26.991 3.5555 27.0554C3.6398 27.2637 3.7241 27.472 3.81336 27.6803C3.84312 27.7497 3.86791 27.8142 3.89766 27.8836C3.99684 28.0919 4.09602 28.3001 4.1952 28.5084C4.25967 28.6225 4.32413 28.7415 4.38364 28.8555L4.66134 29.277C4.73076 29.3713 4.80019 29.4655 4.86465 29.5597C4.97871 29.6985 5.09772 29.8374 5.21178 29.9762C5.35063 30.1151 5.48948 30.2539 5.62833 30.3928C5.99528 30.6457 6.3672 30.9036 6.73416 31.1565C6.85318 31.2259 6.97219 31.2953 7.0912 31.3647C7.34411 31.4788 7.5871 31.6325 7.84992 31.697C8.45986 31.8457 9.08469 31.9499 9.70455 32.0689C10.2897 32.183 10.8501 32.059 11.4104 31.9003L12.1741 31.7119C13.265 31.3846 14.1725 30.7796 14.9461 29.9465C16.0371 28.7712 16.5131 27.3431 16.6867 25.7909V25.5777C16.6569 25.0669 16.6371 24.5611 16.6123 24.0503C16.5677 23.8867 16.528 23.728 16.4834 23.5644C16.409 23.3313 16.3396 23.0982 16.2652 22.8652C16.2404 22.8205 16.2206 22.7709 16.1958 22.7263L15.9379 22.161C15.8883 22.0916 15.8437 22.0221 15.7941 21.9527L15.7197 21.8139C15.6205 21.6552 15.5164 21.4915 15.4172 21.3329L15.2337 21.1196C15.0701 20.9361 14.9114 20.7477 14.7478 20.5642C14.6833 20.4948 14.6139 20.4254 14.5494 20.356C14.3858 20.2171 14.2221 20.0783 14.0535 19.9394C13.8899 19.8204 13.7262 19.7063 13.5626 19.5873C13.146 19.3543 12.7295 19.1261 12.3179 18.8931L11.6088 18.6352C11.336 18.5856 11.0583 18.5311 10.7856 18.4815C10.4831 18.4418 10.1756 18.3972 9.87315 18.3575C9.02518 18.293 8.20696 18.4666 7.43833 18.779C6.12917 19.3096 5.10764 20.2072 4.39851 21.442C4.39851 21.442 4.37372 21.4568 4.36876 21.4717C4.27454 21.6552 4.18032 21.8436 4.0861 22.0271H4.09106Z" fill="#222222"/>
<path d="M9.03125 33.7207C9.061 33.7009 9.09076 33.681 9.12051 33.6562C9.13043 33.6711 9.13539 33.686 9.14531 33.7009C9.11059 33.7108 9.08084 33.7257 9.04613 33.7356L9.03125 33.7207Z" fill="#C0DAF0"/>
<path d="M10.599 33.6709C10.599 33.6709 10.6089 33.6858 10.6188 33.6907C10.6089 33.6957 10.604 33.7056 10.5941 33.7056C10.5891 33.7056 10.5792 33.6907 10.5742 33.6858C10.5841 33.6808 10.5891 33.6759 10.599 33.6709Z" fill="#C0DAF0"/>
<path d="M8.94531 33.7753C8.97507 33.7554 8.99986 33.7356 9.02961 33.7207L9.04449 33.7356C9.0197 33.7604 8.99986 33.7802 8.97507 33.805C8.96515 33.7951 8.95523 33.7901 8.95027 33.7802L8.94531 33.7753Z" fill="#C0DAF0"/>
<path d="M6.46323 17.0938C6.39381 17.1433 6.32438 17.188 6.25 17.2376C6.31942 17.188 6.38885 17.1433 6.46323 17.0938Z" fill="#C0DAF0"/>
<path d="M2.76562 20.3564L2.85489 20.2969C2.85489 20.2969 2.86976 20.3266 2.87472 20.3365L2.7805 20.3713L2.76562 20.3564Z" fill="#C0DAF0"/>
<path d="M2.78382 20.3713C2.78382 20.3713 2.73919 20.416 2.7144 20.4407C2.70448 20.4308 2.69456 20.4209 2.67969 20.411C2.70944 20.3912 2.73424 20.3763 2.76399 20.3564L2.77887 20.3713H2.78382Z" fill="#C0DAF0"/>
<path d="M12.3684 18.1448C12.299 18.1399 12.2296 18.13 12.1602 18.125C12.5519 17.8473 12.9437 17.5746 13.3404 17.2969C13.3949 17.3266 13.4495 17.3564 13.504 17.3911C13.2412 17.5696 12.9784 17.7481 12.7156 17.9217C12.6015 17.9961 12.4874 18.0705 12.3734 18.1448H12.3684Z" fill="#C0DAF0"/>
<path d="M2.4263 24.6064C2.30729 24.6759 2.19323 24.7453 2.07422 24.8197C2.19323 24.7503 2.30729 24.6808 2.4263 24.6064Z" fill="#C0DAF0"/>
<path d="M2.48529 24.5312C2.48529 24.556 2.48529 24.5858 2.48529 24.6106H2.45553H2.42578C2.44562 24.5858 2.46545 24.556 2.48529 24.5312Z" fill="#C0DAF0"/>
<path d="M15.7931 21.9533C15.7683 21.9087 15.7435 21.864 15.7188 21.8145C15.7435 21.8591 15.7683 21.9037 15.7931 21.9533Z" fill="#C0DAF0"/>
<path d="M4.39979 21.4424C4.39979 21.4424 4.40971 21.4771 4.41963 21.4969C4.40475 21.487 4.38988 21.4821 4.375 21.4721C4.375 21.4573 4.38492 21.4473 4.40475 21.4473L4.39979 21.4424Z" fill="#C0DAF0"/>
<path d="M4.09256 22.0225C4.07768 22.0473 4.05785 22.072 4.04297 22.1018C4.05785 22.077 4.07768 22.0522 4.09256 22.0225Z" fill="#C0DAF0"/>
<path d="M13.4173 23.4107C13.5115 23.4355 13.6057 23.4554 13.6999 23.4802C14.4487 23.857 14.4686 23.8868 13.9231 24.5563C13.566 24.9926 13.1445 25.3794 12.7676 25.796C12.6833 25.8852 12.6536 26.0241 12.599 26.1431C12.6139 26.1927 12.6288 26.2373 12.6486 26.2869C12.7329 26.9365 12.8272 27.5911 12.9015 28.2407C12.9115 28.3449 12.8569 28.4738 12.7974 28.568C12.5941 28.8953 12.1131 29.0837 11.7659 28.9251C11.1709 28.6573 10.6006 28.3399 10.0105 28.0572C9.91627 28.0126 9.76254 28.0126 9.66833 28.0572C9.08813 28.3349 8.51786 28.6374 7.94262 28.9151C7.81369 28.9746 7.65997 28.9746 7.51616 29.0044C7.4021 28.9251 7.28805 28.8457 7.17399 28.7713C7.18887 28.2754 7.20375 27.7845 7.21862 27.2886C7.21862 27.1845 7.2335 27.0803 7.23846 26.9812C7.25829 26.8869 7.27317 26.7927 7.29301 26.6985C7.43186 26.396 7.4021 26.1481 7.1244 25.92C6.88142 25.7166 6.67314 25.4687 6.44999 25.2406C6.39048 25.1712 6.32602 25.0968 6.26651 25.0274C6.11774 24.8191 5.97394 24.6108 5.82517 24.4075C5.80037 24.3381 5.77558 24.2686 5.75079 24.1943C5.73591 23.8868 5.93426 23.7182 6.18717 23.6537C6.63347 23.5347 7.08969 23.4554 7.54591 23.3661C7.73435 23.3314 7.93766 23.3364 8.12114 23.2868C8.2104 23.262 8.30462 23.1678 8.34926 23.0785C8.61208 22.5777 8.85506 22.0619 9.12284 21.5611C9.50964 20.8321 10.2485 20.7181 10.8337 21.2834C10.8833 21.333 10.9378 21.3726 10.9924 21.4173C11.0419 21.5115 11.0866 21.6007 11.1362 21.695C11.2502 21.9528 11.3643 22.2057 11.4734 22.4636C11.4982 22.5082 11.523 22.5529 11.5478 22.6024C11.6816 23.1628 11.8354 23.2769 12.3858 23.3017C12.7379 23.3165 13.085 23.381 13.4321 23.4207L13.4173 23.4107ZM8.19553 26.6886C8.19553 26.6886 8.16082 26.7382 8.14594 26.763L7.97734 27.7349C7.96246 27.8539 7.94758 27.968 7.93271 28.087C7.9575 28.2259 7.9823 28.3647 8.01701 28.5531C8.16082 28.4788 8.25999 28.4292 8.35917 28.3796C8.85506 28.1168 9.33112 27.8143 9.85181 27.6109C10.075 27.5217 10.4072 27.5762 10.6452 27.6754C11.1114 27.8688 11.5478 28.1316 12.0734 28.4093C11.9941 27.9382 11.9544 27.5266 11.8502 27.1349C11.6866 26.52 11.7015 25.9943 12.2767 25.5778C12.5247 25.3993 12.7379 25.1563 12.9412 24.9183C13.1049 24.7298 13.2487 24.5215 13.3578 24.2984C13.4024 24.2091 13.3181 24.0554 13.2883 23.9314L12.8024 23.8471C12.4007 23.7777 12.004 23.7083 11.6023 23.6389C11.2304 23.5744 10.913 23.4653 10.7395 23.0785C10.5113 22.5628 10.2386 22.0669 9.96586 21.5313C9.71792 21.9875 9.5146 22.4289 9.25178 22.8256C9.08813 23.0686 8.86994 23.3612 8.61208 23.4455C8.07652 23.624 7.50624 23.6984 6.94588 23.7727C6.56405 23.8223 6.47479 23.9314 6.70785 24.2438C6.9558 24.5761 7.26821 24.8538 7.53103 25.1761C7.83353 25.548 8.38893 25.791 8.21536 26.4258C8.20545 26.515 8.20049 26.6043 8.19057 26.6985H8.20049L8.19553 26.6886Z" fill="#222222"/>
<path d="M7.9804 27.7301C8.03495 27.4078 8.09446 27.0805 8.14901 26.7582C8.16388 26.7334 8.18372 26.7086 8.1986 26.6838H8.18868C8.47134 26.4755 8.75399 26.2672 9.03665 26.0639C9.04657 26.0639 9.05153 26.059 9.06145 26.054C9.06145 26.054 9.06145 26.0441 9.0664 26.0342C9.05649 26.0441 9.04657 26.054 9.03665 26.0639C8.76391 26.178 8.48621 26.297 8.21347 26.411C8.38703 25.7763 7.83164 25.5333 7.52914 25.1614C7.26632 24.8391 6.95391 24.5614 6.70596 24.2291C6.47289 23.9167 6.56215 23.8126 6.94399 23.758C7.50435 23.6836 8.07462 23.6043 8.61018 23.4307C8.86805 23.3464 9.08624 23.0588 9.24988 22.8109C9.51271 22.4142 9.71602 21.9728 9.96397 21.5166C10.2367 22.0522 10.5045 22.5481 10.7376 23.0638C10.9111 23.4506 11.2285 23.5646 11.6004 23.6241C12.0021 23.6936 12.3988 23.763 12.8005 23.8324C12.7062 23.9167 12.6219 24.006 12.5228 24.0804C12.131 24.3878 11.7343 24.6903 11.3376 24.9978C11.3574 25.0275 11.3723 25.0523 11.3921 25.0821C11.7442 24.8837 12.1013 24.6953 12.4484 24.482C12.736 24.3035 13.0087 24.1052 13.2864 23.9167C13.3112 24.0407 13.4005 24.1944 13.3559 24.2837C13.2517 24.5068 13.103 24.7151 12.9393 24.9035C12.736 25.1416 12.5277 25.3846 12.2748 25.5631C11.6996 25.9796 11.6847 26.5053 11.8484 27.1202C11.9525 27.5119 11.9922 27.9235 12.0715 28.3946C11.5459 28.1219 11.1095 27.8541 10.6433 27.6607C10.4053 27.5615 10.0731 27.507 9.84991 27.5962C9.33419 27.7995 8.85317 28.102 8.35728 28.3649C8.2581 28.4194 8.15892 28.469 8.01512 28.5384C7.9804 28.35 7.95561 28.2111 7.93081 28.0723C8.39199 27.7252 8.84821 27.378 9.30939 27.0309C9.31931 27.0309 9.32923 27.026 9.33419 27.021C9.33419 27.021 9.33419 27.0111 9.33914 27.0012C9.32923 27.0111 9.31931 27.021 9.30939 27.0309C9.21517 27.0656 9.11599 27.0855 9.02673 27.135C8.67465 27.3235 8.32257 27.5268 7.97048 27.7202L7.9804 27.7301Z" fill="#FF7A00"/>
</g>
<defs>
<clipPath id="clip0_329_3617">
<rect width="19.9646" height="35" fill="white"/>
</clipPath>
</defs>
</svg>
