<?xml version="1.0" encoding="UTF-8"?>
<svg id="Layer_1" data-name="Layer 1" xmlns="http://www.w3.org/2000/svg" viewBox="0 0 35 35">
  <defs>
    <style>
      .cls-1 {
        fill: #f47721;
      }

      .cls-1, .cls-2, .cls-3, .cls-4 {
        stroke-width: 0px;
      }

      .cls-3 {
        fill: #fff;
      }

      .cls-4 {
        fill: #c1dbf0;
      }
    </style>
  </defs>
  <path class="cls-1" d="m15.35,30.67c-.16,0-.29-.13-.29-.29,0-.08.04-.16.1-.22l2-1.81-3.83,2.21c-.14.08-.32.03-.4-.11-.07-.13-.04-.29.08-.37l2.13-1.59-2.94,1.7c-.14.08-.32.03-.4-.11-.07-.13-.04-.29.08-.38l1.62-1.21-2.08,1.2c-.14.08-.32.03-.4-.11-.07-.13-.04-.29.08-.38l1.22-.93-1.47.85c-.14.08-.32.04-.4-.1-.07-.12-.05-.27.05-.36l1.34-1.3-1.55.89c-.11.07-.26.05-.35-.05-.09-.09-.11-.24-.05-.35l.27-.49-.16.09c-.14.08-.32.02-.4-.12-.07-.13-.03-.3.1-.38l1.08-.63c.14-.08.32-.03.4.11.05.09.05.2,0,.29l-.27.48,2.68-1.54c.14-.08.32-.04.4.1.07.12.05.27-.05.36l-1.34,1.3,3.42-1.97c.14-.08.32-.03.4.11.07.13.04.28-.07.37l-1.22.93,2.46-1.42c.14-.08.32-.03.4.11.07.13.04.29-.08.38l-1.62,1.21,2.87-1.66c.14-.08.32-.03.4.11.07.13.04.29-.08.38l-2.13,1.59,1.93-1.11c.14-.08.32-.02.4.12.06.12.04.26-.05.35l-2,1.81,1.82-1.05c.14-.08.32-.03.4.11.06.11.05.24-.03.33l-.98,1.14.75-.43c.14-.08.32-.03.4.11.04.07.05.15.03.23l-.18.61c.11,0,.22.05.28.15.08.14.03.32-.11.4l-.51.29c-.14.08-.32.03-.4-.11-.04-.07-.05-.15-.03-.23l.17-.58-1.58.91c-.14.08-.32.03-.4-.11-.06-.11-.05-.24.03-.33l.97-1.14-2.74,1.58s-.09.04-.15.04h0Z"/>
  <path class="cls-3" d="m17.07,27.71c-.16,0-.29-.13-.29-.29,0-.08.03-.15.09-.21l.24-.24-.8.46c-.14.08-.32.03-.4-.11-.07-.12-.04-.26.05-.36l1.41-1.29-2,1.15c-.14.08-.32.03-.4-.11-.07-.13-.04-.28.07-.37l.7-.54-.82.47c-.14.09-.32.04-.4-.1-.08-.12-.05-.28.06-.37l.83-.79-.65.37c-.14.08-.32.03-.4-.11-.04-.06-.05-.14-.03-.21l.21-.96c-.07-.02-.14-.07-.18-.14-.08-.14-.03-.32.11-.4h0s.32-.19.32-.19c.1-.06.23-.05.32.02.09.07.14.19.11.3l-.18.84,2.24-1.29c.14-.09.32-.04.4.1.08.12.05.28-.06.37l-.83.79,2.35-1.35c.14-.08.32-.03.4.11.07.13.04.29-.07.38l-.7.54.65-.37c.14-.08.32-.03.4.11.07.12.04.26-.05.36l-1.41,1.29.45-.26c.14-.08.32-.03.4.11.07.11.05.26-.05.35l-.53.52c.15.05.23.22.18.38-.02.06-.07.12-.13.15l-1.46.84s-.1.04-.15.04h0Z"/>
  <path class="cls-4" d="m11.69,17.79c-.16,0-.29-.13-.29-.29,0-.1.05-.19.13-.25l3.03-2-3.9,2.25c-.14.08-.32.03-.4-.11-.08-.13-.04-.3.09-.39l4.88-3.3-4.57,2.64c-.14.08-.32.03-.4-.11-.08-.13-.04-.3.09-.39l4.57-3.13-4.26,2.46c-.14.08-.32.03-.4-.11-.08-.13-.04-.3.09-.39l4.02-2.79-3.65,2.11c-.14.08-.32.03-.4-.11-.08-.13-.04-.3.08-.39l3.66-2.63-3.04,1.76c-.14.08-.32.04-.4-.1-.08-.13-.04-.29.08-.38l2.62-1.99-1.55.89c-.14.08-.32.04-.4-.1-.08-.13-.04-.3.08-.39l1.27-.99s-.07-.06-.09-.1c-.08-.14-.03-.32.11-.4l2.47-1.43c.14-.08.32-.03.4.11.07.13.04.29-.07.38l-.35.27,1.9-1.1c.14-.08.32-.03.4.11.07.13.04.29-.08.38l-2.62,1.99,4.05-2.34c.14-.08.32-.03.4.11.07.13.04.29-.08.38l-3.66,2.63,4.68-2.7c.14-.08.32-.04.4.1.08.13.04.31-.09.4l-4.02,2.79,4.73-2.73c.14-.08.32-.04.4.1.08.13.04.31-.09.39l-4.57,3.13,5.13-2.96c.14-.08.32-.03.4.11.08.13.04.3-.09.39l-4.88,3.3,5.29-3.05c.14-.08.32-.03.4.11.08.13.04.31-.09.39l-3.03,2,3.2-1.85c.14-.08.32-.03.4.1.08.14.04.31-.1.4l-.06.04.06-.03c.14-.08.32-.04.4.1.08.13.04.3-.08.39l-4.25,3.13,4.4-2.54c.14-.08.32-.03.4.11.07.13.04.29-.08.38l-2.7,1.98,2.63-1.52c.14-.08.32-.03.4.11.07.13.04.29-.08.38l-1.95,1.5,1.74-1c.14-.08.32-.03.4.11.07.12.05.27-.05.36l-1.56,1.45,1.24-.71c.14-.08.32-.03.4.11.06.11.05.24-.03.33l-.64.79.28-.16c.14-.08.32-.03.4.11.04.08.05.17.02.25l-.14.38c.05.02.1.07.13.12.08.14.03.32-.11.4l-.37.21c-.14.08-.32.03-.4-.11-.04-.08-.05-.17-.02-.25l.07-.19-.96.55c-.14.08-.32.03-.4-.11-.06-.11-.05-.24.03-.33l.64-.79-2.13,1.23c-.14.08-.32.03-.4-.11-.07-.12-.05-.27.05-.36l1.57-1.44-3.32,1.92c-.14.08-.32.04-.4-.1-.08-.13-.04-.29.08-.38l1.95-1.5-3.44,1.99c-.14.08-.32.03-.4-.11-.07-.13-.04-.29.08-.38l2.71-1.99-4.29,2.48c-.14.08-.32.04-.4-.1-.08-.13-.04-.3.08-.39l4.25-3.13-6.28,3.63c-.14.08-.32.04-.4-.1s-.04-.32.1-.4l.06-.04-.93.54s-.1.04-.15.04h0Z"/>
  <path class="cls-3" d="m17.13,24.79c-.16,0-.29-.13-.29-.29,0-.09.04-.17.11-.23l2.4-1.92-3.57,2.06c-.14.08-.32.03-.4-.11-.08-.13-.04-.3.09-.39l1.05-.7-1.47.85c-.14.08-.32.03-.4-.12-.07-.13-.03-.29.09-.38l3.44-2.37-3.95,2.28c-.14.08-.32.03-.4-.11-.07-.13-.03-.3.09-.39l1.82-1.2-2.03,1.17c-.14.08-.32.03-.4-.11-.08-.13-.04-.3.08-.39l4.82-3.46-5.16,2.98c-.14.08-.32.03-.4-.12-.07-.13-.03-.29.09-.38l3.55-2.44-3.6,2.08c-.14.08-.32.03-.4-.11-.08-.13-.04-.3.09-.39l3.69-2.55-3.59,2.07c-.14.08-.32.03-.4-.11-.07-.13-.04-.29.08-.38l3.89-2.85-4.35,2.51c-.14.08-.32.04-.4-.1-.08-.13-.04-.31.09-.39l.37-.25-.61.35c-.14.08-.32.03-.4-.11-.07-.13-.04-.29.08-.38l1.48-1.09-1.55.89c-.14.08-.32.03-.4-.11-.07-.12-.04-.28.06-.37l2.13-1.82-1.65.95c-.14.08-.32.03-.4-.11-.07-.12-.04-.27.06-.37l1.9-1.66s-.02-.03-.03-.04c-.08-.14-.03-.32.11-.4l1.27-.73c.14-.08.32-.03.4.11.07.12.04.27-.06.37l-.95.84,1.84-1.06c.14-.08.32-.03.4.11.07.12.04.28-.06.37l-2.13,1.82,3.25-1.88c.14-.08.32-.03.4.12.07.13.04.28-.08.37l-1.48,1.09,2.67-1.54c.14-.08.32-.04.4.1.08.13.04.31-.09.39l-.37.26,2.49-1.44c.14-.08.32-.03.4.11.07.13.04.29-.08.38l-3.89,2.85,5.09-2.94c.14-.09.32-.05.4.09.09.14.05.32-.09.4h0l-3.69,2.55,3.94-2.28c.14-.08.32-.03.4.11.08.13.04.3-.09.39l-3.55,2.44,3.75-2.17c.14-.08.32-.03.4.11.08.13.04.3-.08.39l-4.82,3.46,5.58-3.22c.14-.08.32-.03.4.11.07.13.03.3-.09.39l-1.82,1.2,1.78-1.03c.14-.08.32-.03.4.11.08.13.04.3-.09.39l-3.44,2.36,2.88-1.66c.14-.08.32-.03.4.11.07.13.04.3-.09.38l-1.86,1.24c.16.02.27.17.25.33-.01.07-.05.14-.11.19l-2.85,2.29c.07.02.14.07.18.14.08.14.03.32-.11.4l-2.66,1.53s-.1.04-.15.04h0Z"/>
  <g>
    <path class="cls-4" d="m19.5,29.46c-.16,0-.29-.13-.29-.29,0-.1.05-.19.13-.24l6.98-4.64-3.66,2.11c-.14.08-.32.04-.4-.1s-.04-.32.1-.4h0l2.23-1.44c-.15.06-.32,0-.39-.15-.06-.13-.01-.28.11-.36l2.18-1.44c-.16.02-.31-.09-.33-.25-.02-.11.03-.22.12-.28l2.66-1.87c-.15.06-.32,0-.39-.15-.05-.13-.01-.27.1-.35l1.23-.9c-.11.01-.21-.03-.27-.12-.09-.12-.07-.29.05-.39l1.45-1.26-1.08.62c-.14.08-.32.03-.4-.11-.07-.12-.04-.28.06-.37l.49-.42-.19.11c-.14.08-.32.03-.4-.11-.06-.11-.05-.25.04-.34l.77-.85-.53.3c-.14.08-.32.03-.4-.11-.06-.1-.05-.23.03-.33l.87-1.07-.72.42c-.12.07-.28.04-.37-.06-.09-.11-.1-.26-.01-.37l.8-1.02-.74.43c-.14.08-.32.03-.4-.11-.06-.1-.05-.22.02-.32l.8-1.09-.84.48c-.14.08-.32.03-.4-.11-.06-.1-.05-.22.02-.32l.74-1.02-.84.49c-.14.08-.32.03-.4-.11-.06-.1-.05-.23.02-.32l.83-1.11-1.04.6c-.14.09-.32.05-.4-.09-.08-.12-.05-.28.06-.38l1.1-1.05-1.32.76c-.14.08-.32.04-.4-.1-.07-.12-.04-.28.07-.38l.87-.72-1.06.61c-.13.07-.29.04-.38-.08-.09-.12-.08-.28.03-.39l1.62-1.58-2.11,1.22c-.14.08-.32.03-.4-.11-.07-.12-.04-.28.07-.37l.87-.72-1.17.68c-.14.08-.32.03-.4-.11-.07-.12-.05-.26.05-.36l1.58-1.49-2.2,1.27c-.14.08-.32.03-.4-.11-.07-.12-.04-.27.06-.37l.59-.51-.97.56c-.14.08-.32.03-.4-.11-.06-.1-.05-.23.02-.33l.52-.66-1.09.63c-.14.08-.32.03-.4-.11-.06-.1-.05-.24.02-.33l.55-.7-1.25.72c-.14.08-.32.03-.4-.11-.06-.1-.05-.23.02-.32l.62-.83-1.57.9c-.14.08-.32.03-.4-.11-.07-.12-.05-.27.05-.36l.09-.09-.68.4c-.14.08-.32.03-.4-.11-.06-.1-.05-.24.03-.33l.7-.86-2.07,1.19c-.14.08-.32.03-.4-.12-.06-.12-.04-.26.05-.35l.89-.81-2.51,1.45c-.14.08-.32.04-.4-.1-.08-.13-.04-.3.08-.39l.1-.07-2.06,1.19c-.14.08-.32.03-.4-.11-.08-.14-.03-.32.11-.4l6.93-4c.14-.08.32-.04.4.1.08.13.04.3-.08.39l-.1.07h.01c.14-.09.32-.03.4.11.06.12.04.26-.05.35l-.89.81,1.06-.61c.14-.08.32-.03.4.11.06.1.05.24-.03.33l-.69.86,1.62-.94c.14-.08.32-.03.4.11.07.12.05.27-.05.36l-.09.09.49-.29c.14-.08.32-.03.4.11.06.1.05.23-.02.32l-.62.83,1.34-.77c.14-.08.32-.03.4.11.06.1.05.23-.02.33l-.55.7,1.1-.63c.14-.08.32-.03.4.11.06.1.05.23-.02.33l-.52.65,2.26-1.31c.14-.08.32-.03.4.11.07.12.04.27-.06.37l-.59.51,1.72-1c.14-.09.32-.04.4.1.08.12.05.28-.06.37l-1.57,1.49,2.07-1.19c.14-.08.32-.03.4.11.07.12.04.28-.07.37l-.87.72,1.1-.63c.14-.08.32-.03.4.11.07.12.05.26-.05.36l-1.62,1.58,2.01-1.16c.14-.08.32-.03.4.11.07.12.04.28-.07.37l-.87.72.47-.27c.14-.09.32-.04.4.1.08.12.05.28-.06.37l-1.11,1.05.16-.09c.14-.08.32-.03.4.11.06.1.05.23-.02.32l-.83,1.11.79-.45c.14-.08.32-.03.4.11.06.1.05.22-.02.32l-.74,1.02.85-.49c.14-.08.32-.03.4.11.06.1.05.23-.02.32l-.8,1.09.86-.5c.14-.08.32-.03.4.11.06.1.05.23-.02.33l-.8,1.02.77-.45c.14-.08.32-.03.4.11.06.11.05.24-.03.33l-.87,1.07.78-.45c.14-.08.32-.03.4.11.06.11.05.25-.04.34l-.77.85,1.28-.74c.14-.08.32-.03.4.11.07.12.04.28-.06.37l-.49.42.98-.57c.14-.08.32-.03.4.11.07.12.04.27-.06.37l-1.45,1.26,1.9-1.1c.14-.08.32-.03.4.11.07.13.04.29-.08.38l-1.05.77.84-.48c.14-.08.32-.04.4.1.08.13.04.3-.09.39l-2.64,1.86,2.35-1.36c.14-.08.32-.03.4.11.07.13.03.3-.09.39l-1.93,1.27,1.59-.92c.14-.08.32-.02.4.12.07.13.03.3-.09.38l-2.2,1.42,1.71-.99c.14-.08.32-.03.4.11.07.13.03.3-.09.38l-6.98,4.64,1-.58c.14-.09.32-.05.4.09.09.14.05.32-.09.4,0,0-.01,0-.02.01l-9.12,5.27s-.09.04-.14.04h0Z"/>
    <path class="cls-4" d="m14.69,2.99c-.16,0-.29-.13-.29-.3,0-.06.02-.12.06-.17l.83-1.14c-.16-.03-.26-.19-.23-.34.02-.08.07-.15.14-.2l.89-.51c.14-.08.32-.03.4.11.06.1.05.23-.02.32l-.73.99,2.51-1.45c.14-.08.32-.04.4.1s.04.32-.1.4c0,0,0,0,0,0l-3.71,2.14s-.09.04-.15.04h0Z"/>
    <path class="cls-4" d="m17.67,34.76c-.16,0-.29-.13-.29-.29,0-.08.04-.16.1-.22l.68-.6-1.76,1.02c-.14.08-.32.03-.4-.11-.07-.13-.04-.29.08-.38l2.74-2.02-3.36,1.94c-.14.08-.32.03-.4-.12-.07-.13-.03-.29.08-.38l4.96-3.43-5.06,2.92c-.14.08-.32.03-.4-.11-.07-.11-.05-.26.04-.35l1.45-1.47-1.63.94c-.14.08-.32.03-.4-.11-.07-.11-.05-.26.05-.35l.49-.49-1.18.68c-.14.08-.32.03-.4-.11-.06-.11-.05-.25.04-.35l.43-.45-1.02.59c-.14.08-.32.03-.4-.11-.06-.11-.05-.25.04-.35l.36-.38-.85.49c-.14.08-.32.03-.4-.11-.06-.1-.05-.22.01-.31l.62-.88-1.32.76c-.14.08-.32.03-.4-.11-.06-.1-.05-.23.02-.32l.57-.77-1.13.65c-.14.08-.32.04-.4-.1-.06-.1-.05-.21,0-.31l.63-1.01-3.32,1.92c-.14.08-.32.03-.4-.11-.07-.12-.04-.28.07-.37l1.04-.87-1.34.77c-.14.08-.32.04-.4-.1-.07-.12-.05-.28.06-.37l1.54-1.46-1.97,1.14c-.14.08-.32.03-.4-.11-.07-.13-.04-.28.07-.38l.6-.48-.74.43c-.14.08-.32.03-.4-.11-.07-.13-.04-.28.07-.37l.21-.16-.09.05c-.14.08-.32.03-.4-.11-.07-.12-.04-.27.06-.37l1-.87-.24.14c-.14.08-.32.03-.4-.11-.06-.11-.05-.25.04-.34l1.07-1.19-.44.25c-.14.08-.32.03-.4-.11-.06-.1-.05-.23.02-.32l.67-.88-.78.45c-.14.08-.32.03-.4-.11-.06-.11-.05-.24.03-.33l.63-.77-.66.38c-.14.08-.32.03-.4-.11-.06-.11-.05-.25.04-.34l.41-.44-.34.2c-.14.08-.32.03-.4-.11-.07-.12-.05-.26.05-.36l.2-.2-.08.04c-.14.08-.32.04-.4-.1-.07-.12-.05-.27.05-.37l.09-.09c-.16.04-.32-.05-.36-.2-.03-.09,0-.19.05-.26l.94-1.19-.86.5c-.14.08-.32.03-.4-.11-.06-.11-.05-.24.03-.33l1.02-1.22-1.94,1.12c-.14.08-.32.03-.4-.11-.07-.12-.04-.28.07-.37l.65-.54-1.13.65c-.14.08-.32.03-.4-.11-.07-.12-.04-.28.07-.37l1.48-1.21-1.54.89c-.14.08-.32.03-.4-.11-.07-.13-.04-.29.08-.38l.2-.15c-.12.03-.25-.02-.32-.12-.09-.13-.06-.3.07-.4l1.48-1.13-1.16.67c-.14.07-.32.02-.4-.13-.06-.12-.03-.26.07-.35l2.62-2.11-2.19,1.26c-.14.08-.32.03-.4-.11-.07-.13-.04-.29.08-.38l3.07-2.36c-.11,0-.21-.04-.26-.13-.09-.13-.05-.3.07-.4l.48-.35c-.16,0-.29-.15-.28-.31,0-.09.05-.17.12-.22l1.06-.76-.25.14c-.14.08-.32.03-.4-.11-.07-.13-.03-.3.09-.39l5.96-3.87-4.79,2.77c-.14.08-.32.03-.4-.11-.08-.13-.04-.3.09-.39l3.45-2.43-3.51,2.03c-.14.08-.32.04-.4-.1-.08-.13-.04-.29.08-.38l.9-.69-.87.5c-.14.08-.32.03-.4-.11-.07-.12-.04-.28.07-.37l.86-.69-.72.42c-.14.08-.32.03-.4-.11-.07-.12-.05-.26.05-.36l1.76-1.67s-.04-.04-.05-.06c-.08-.14-.03-.32.11-.4l1.13-.65c.14-.09.32-.05.4.09.08.12.05.28-.06.38l-1.1,1.05,1.9-1.1c.14-.08.32-.03.4.11.07.13.04.28-.07.38l-.86.69,1.4-.81c.14-.08.32-.03.4.11.07.13.04.29-.07.38l-.9.69,5.24-3.02c.14-.08.32-.03.4.11.08.13.04.3-.09.39l-3.45,2.43L19.54.78c.14-.08.32-.04.4.1s.04.32-.1.4l-9.73,6.32s.02.02.03.03c.08.13.05.31-.08.4l-2.05,1.47c.05.02.1.06.13.11.09.13.05.3-.07.4l-.91.67c.15.06.23.23.17.38-.02.05-.05.1-.1.13l-2.89,2.22,1.65-.95c.14-.08.32-.03.4.11.07.13.04.28-.07.38l-2.62,2.11,1.75-1.01c.14-.08.32-.04.4.1.08.13.04.29-.08.38l-1.47,1.13.9-.52c.14-.08.32-.04.4.1.08.13.04.3-.08.39l-.31.23c.16-.02.31.1.33.26.01.1-.03.2-.11.26l-1.48,1.21,1.07-.62c.14-.08.32-.03.4.11.07.12.04.28-.07.37l-.65.54.33-.19c.14-.08.32-.03.4.11.06.11.05.24-.03.33l-1.02,1.22.76-.44c.14-.08.32-.03.4.11.06.1.05.24-.02.33l-.94,1.19.78-.45c.14-.08.32-.04.4.1.07.12.05.27-.05.37l-.11.1c.16-.04.32.06.35.22.02.1,0,.2-.08.28l-.2.2.06-.03c.14-.08.32-.03.4.11.06.11.05.25-.04.35l-.41.44.33-.19c.14-.08.32-.03.4.11.06.11.05.24-.03.33l-.63.77.65-.38c.14-.08.32-.03.4.1.06.1.05.23-.02.33l-.67.88.78-.45c.14-.08.32-.03.4.11.06.11.05.25-.04.34l-1.07,1.19,1.31-.76c.14-.08.32-.03.4.11.07.12.04.27-.06.36l-1,.87,1.19-.69c.14-.08.32-.03.4.11.07.13.04.28-.07.37l-.21.16.31-.18c.14-.08.32-.03.4.11.07.13.04.28-.07.38l-.6.48.79-.46c.14-.09.32-.04.4.1.08.12.05.28-.06.37l-1.54,1.46,2.07-1.19c.14-.08.32-.03.4.11.07.12.04.28-.07.37l-1.04.87,1.44-.83c.14-.08.32-.04.4.1.06.1.05.21,0,.31l-.63,1.01,1.34-.77c.14-.08.32-.03.4.11.06.1.05.23-.02.32l-.57.77,1.24-.72c.14-.08.32-.03.4.11.06.1.05.22-.01.31l-.62.88,1.51-.87c.14-.08.32-.03.4.11.06.11.05.25-.04.35l-.36.38,1.03-.59c.14-.08.32-.03.4.11.06.11.05.25-.04.35l-.43.45,1.28-.74c.14-.08.32-.02.4.12.06.11.04.25-.05.34l-.49.49,1.58-.91c.14-.08.32-.03.4.11.06.11.05.26-.04.35l-1.45,1.48,9.44-5.45c.14-.08.32-.03.4.11.07.13.04.3-.09.38l-4.96,3.43,1.71-.99c.14-.08.32-.03.4.11.07.13.04.29-.08.38l-2.85,2.1c.16-.03.31.07.35.23.02.1-.02.21-.1.28l-.81.7c.11,0,.22.05.27.15.08.14.03.32-.11.4l-2.38,1.38s-.1.04-.15.04h0Z"/>
  </g>
  <path class="cls-3" d="m26.18,34.77c-.16,0-.29-.13-.29-.29,0-.1.05-.18.12-.24l2.39-1.68-3.5,2.02c-.14.08-.32.03-.4-.11-.08-.13-.04-.3.09-.39l3.4-2.34-4.32,2.49c-.14.08-.32.02-.4-.12-.07-.13-.03-.29.09-.38l4.35-2.96-5.13,2.96c-.14.08-.32.03-.4-.12-.07-.13-.03-.29.09-.38l4.49-2.99-5.07,2.93c-.14.08-.32.03-.4-.11-.07-.13-.04-.3.09-.38l6.04-4.09-6.63,3.83c-.14.08-.32.03-.4-.11-.08-.13-.04-.3.09-.39l5.6-3.72-5.99,3.46c-.14.08-.32.03-.4-.11-.08-.13-.04-.3.09-.39l6.55-4.42-6.89,3.98c-.14.08-.32.03-.4-.11-.07-.13-.04-.3.09-.38l6.36-4.27-6.55,3.78c-.14.08-.32.03-.4-.11-.07-.13-.03-.3.09-.38l5.18-3.41-5.19,3c-.14.08-.32.03-.4-.11-.08-.13-.04-.31.09-.39l3.11-2-2.99,1.72c-.14.09-.32.04-.4-.09-.09-.14-.04-.32.09-.4l2.87-1.85-2.67,1.54c-.14.08-.32.03-.4-.11-.08-.13-.04-.31.09-.39l3.93-2.6-3.64,2.1c-.14.08-.32.03-.4-.11-.07-.13-.03-.3.09-.39l2.64-1.74-2.25,1.3c-.14.08-.32.03-.4-.11-.08-.13-.04-.3.09-.39l2.58-1.72-2.05,1.18c-.14.08-.32.03-.4-.11-.07-.13-.04-.29.08-.38l3.73-2.73-2.74,1.58c-.14.08-.32.03-.4-.11-.07-.12-.04-.28.06-.37l2.11-1.8c-.16.04-.32-.06-.35-.22-.03-.13.03-.26.14-.32l2.66-1.54c.14-.08.32-.03.4.11.07.12.04.28-.06.37l-2.06,1.76,4.63-2.68c.14-.08.32-.03.4.11.07.13.04.29-.08.38l-3.72,2.73,5.16-2.98c.14-.08.32-.03.4.12.07.13.03.29-.09.38l-2.58,1.72,3.29-1.9c.14-.08.32-.04.4.1.08.14.04.31-.09.4l-2.64,1.73,3.19-1.84c.14-.08.32-.03.4.11.07.13.03.3-.09.39l-3.93,2.6,4.46-2.58c.14-.08.32-.03.4.11.08.13.04.31-.09.39l-2.87,1.85,3.21-1.85c.14-.08.32-.02.4.12.07.13.03.29-.09.38l-3.1,2,3.38-1.95c.14-.08.32-.03.4.11.07.13.03.3-.09.39l-5.18,3.42,5.5-3.18c.14-.08.32-.03.4.11.07.13.04.3-.09.38l-6.36,4.27,6.65-3.84c.14-.09.32-.04.4.09s.04.32-.09.4l-6.55,4.41,6.73-3.89c.14-.08.32-.03.4.11.07.13.03.3-.09.38l-5.6,3.72,5.6-3.23c.14-.08.32-.03.4.12.07.13.03.29-.09.38l-6.03,4.09,5.92-3.42c.14-.08.32-.03.4.12.07.13.03.29-.09.38l-4.49,2.99,4.22-2.43c.14-.08.32-.03.4.11.07.13.04.3-.09.38l-4.36,2.96,3.92-2.26c.14-.08.32-.03.4.12.07.13.03.29-.09.38l-3.4,2.33,2.78-1.6c.14-.08.32-.03.4.11.07.13.04.3-.08.38l-2.39,1.68,1.49-.86c.14-.08.32-.03.4.11.07.13.04.28-.07.37l-1.72,1.34.05-.03c.14-.09.32-.05.4.09.09.14.05.32-.09.4,0,0-.01,0-.02.01l-3.72,2.15c-.14.08-.32.03-.4-.11-.07-.13-.04-.28.07-.37l1.72-1.34-3.63,2.1s-.1.04-.15.04h0Z"/>
  <path class="cls-1" d="m28,30.58c-.16,0-.29-.13-.29-.29,0-.07.03-.14.08-.2l.07-.07-.34.19c-.14.08-.32.03-.4-.11-.06-.11-.05-.24.03-.34l.73-.86-1.34.77c-.14.08-.32.03-.4-.11-.07-.12-.04-.28.07-.37l.53-.44-2.91,1.68c-.14.08-.32.03-.4-.11-.07-.13-.04-.29.08-.37l3.22-2.43-3.33,1.92c-.14.08-.32.03-.4-.11-.08-.13-.04-.3.09-.39l1.63-1.15-1.17.67c-.14.08-.32.03-.4-.11-.07-.13-.04-.29.08-.38l1.3-.95-.84.48c-.14.08-.32.03-.4-.11-.07-.13-.04-.29.07-.38l1.06-.82-1.29.75c-.14.08-.32.03-.4-.11-.07-.12-.04-.28.07-.37l1.44-1.13-1.73,1c-.14.08-.32.03-.4-.11-.07-.13-.04-.29.08-.38l.33-.23-.36.21c-.14.08-.32.03-.4-.11-.06-.1-.05-.22.01-.31l.31-.43c-.16,0-.28-.15-.27-.31,0-.1.06-.19.14-.24l.94-.54c.14-.08.32-.03.4.11.06.1.05.22-.02.32l-.24.34,4.19-2.42c.14-.08.32-.03.4.11.07.13.04.29-.08.38l-.32.23.28-.16c.14-.08.32-.03.4.11.07.12.04.28-.07.37l-1.44,1.13,1.48-.85c.14-.08.32-.03.4.11.07.13.04.29-.07.38l-1.06.82,1.83-1.06c.14-.08.32-.03.4.11.07.13.04.29-.08.38l-1.29.94,2.07-1.2c.14-.08.32-.03.4.11.08.13.04.3-.09.39l-1.63,1.15,1.78-1.03c.14-.08.32-.03.4.11.07.13.04.29-.08.37l-3.22,2.43,1.88-1.08c.14-.08.32-.03.4.11.07.12.04.28-.07.37l-.66.54c.16-.01.3.11.32.27,0,.08-.02.15-.07.21l-.73.86.52-.3c.14-.08.32-.03.4.11.06.11.05.25-.04.35l-.16.18c.16,0,.29.14.29.3,0,.1-.06.2-.15.25l-1.41.81s-.09.04-.14.04h0Z"/>
  <path class="cls-1" d="m24.98,23.41c-.16,0-.29-.13-.29-.29,0-.07.03-.14.08-.2l.5-.55s-.05-.05-.07-.08c-.08-.14-.03-.32.11-.4l.9-.52c.14-.08.32-.03.4.11.06.11.05.25-.04.34l-.08.09.41-.24c.14-.08.32-.02.4.12.07.13.03.3-.1.38l-2.06,1.19s-.1.04-.15.04h0Z"/>
  <path class="cls-2" d="m.52,19.74c.6.53,1.58.58,2.23.97.13,1.79,1.29,3.45,1.98,5.01-.92,1.86-1.22,2.83.67,4.23,1.12,1.43,2.53.86,3.9.16,1.47.93,3.09,1.6,4.79,1.97.55.68.42,1.95,1.27,2.42,1.83.44,4.89.68,5.31-1.78,7.73,6.7,19.4-4.75,11.94-12.27.98-.43,2.31-.63,2.31-1.96-.04-1.06.36-2.46-.45-3.29-.59-.45-1.48-.55-2.1-.92-.31-1.75-1.31-3.48-2.02-5.05.85-1.9,1.25-2.76-.69-4.19-1.12-1.43-2.53-.87-3.89-.17-1.48-.92-3.11-1.59-4.81-1.99-.12-.21-.21-.43-.27-.67-.3-1.91-1.99-2.18-3.64-1.91-1.74-.24-2.57,1.17-2.92,2.69-1.6.39-3.13,1.02-4.54,1.88-2.18-1.73-4.51,0-5.64,2.03-.29.92.71,1.75.8,2.61-.95,1.51-1.64,3.17-2.04,4.91-2.86.47-3.2,3.09-2.19,5.31h0Zm28.4,14.19c-13.93,3.42-13.28-19.82.45-14.94,6.32,2.66,6.19,12.72-.45,14.94Zm.46-15.55c-1.45-.5-3.01-.61-4.51-.31,2.74-10.18-10.71-15.39-14.53-5.34-.21,2.08-1.33,6.14,1.51,6.74.05,1.72.93,3.31,2.35,4.28-.02.62,0,1.25,0,1.88-1.42.27-2.82.64-4.19,1.12-6.81-5.37-5.22-17.16,2.87-20.4,7.93-3.58,17.31,3.5,16.52,12.04Zm-9.7,2.63c-.8.95-1.37,2.06-1.69,3.26-3.34.28-4.91-2.71-5.58-5.25-1.73-.1-2.09-2.94-.22-3.04.13,0,.47-.12.48-.29.28-3.52,4.49.61,7.82-1.6,1.07-.23,1.84.82,1.88,1.77,1.18.23,2.11,1.13,1.58,2.43-1.66.47-3.15,1.42-4.28,2.73h0Zm-4.66,4.38v-1.17c.89.41,1.88.59,2.86.52-.17.83-.21,1.68-.13,2.52-1.1,0-2.57-.69-2.73-1.87h0Zm-4.12-9.39c-1.1-10.87,14.02-10.72,13.27-.1-.28-.2-.61-.33-.95-.38-.48-3.19-3.66-1.3-5.65-1.2-2.01-.28-5.11-1.81-5.71,1.25-.34.08-.67.22-.96.43h0Zm1.67,10.36l1.65-.38c.74,1.22,2.16,1.87,3.57,1.64.09.65.27,1.29.51,1.9-2.88.19-5.73-.7-7.99-2.5.72-.29,1.48-.51,2.25-.65h0ZM.96,16.72c-.25-1.6,1.43-1.68,2.47-2.21.55-1.46.87-3.15,1.79-4.49,1-.99-.69-2.03-.47-3.14.44-.81,1.59-2.27,2.55-2.31.52.18,1.02.4,1.51.64,1.62.26,3.05-1.56,4.74-1.72.56-.16,1.2-.12,1.44-.7.44-2.17,1.72-2.38,3.71-2.03,1.17.3.76,2.15,1.75,2.55,1.92.18,3.52,1.82,5.3,1.97.82-.16,1.58-1.11,2.41-.55.79.77,2.28,1.66,2.07,2.91-.15.58-.75,1.27-.8,1.87.92,1.64,1.67,3.38,2.24,5.17.62.45,1.6.43,2.15,1.01.4,1.18.44,2.45.1,3.64-.34.54-1.08.56-1.61.85-.63-.6-1.35-1.09-2.13-1.47C31.73,4.43,11.2-.31,5.78,12.72c-3.84,8.37,3.64,18.42,12.74,17.26.39.81.91,1.55,1.54,2.19-.45,1.48-.93,2.53-2.72,2.12-1.75.35-1.81-1.37-2.41-2.48-1.87-.44-3.66-1.4-5.37-2.17-.7.1-1.32.63-2,.82-.56.09-1.08-.55-1.46-.91-2.8-2.14-.05-2.64-.75-4.53-.86-1.44-1.48-3.01-1.85-4.64-2.18-.82-2.82-1.08-2.54-3.66h0Z"/>
  <path class="cls-2" d="m29.37,23.86c-.3-.07-.6-.11-.91-.13-.9-3.11-3.3-2.98-4.21.05-3.14.14-3.56,1.72-1.16,3.62-.93,2.93.49,4.05,3.05,2.27,2.52,1.86,4.43.49,3.4-2.47,1.52-1.09,2.58-3.28-.18-3.34Zm-.91-.13,1.08,3.49.75-1.78c-.16.87-1.17,1.28-1.59,1.99-.02.85.78,2.2-.09,2.81-.87-.17-1.58-1.27-2.53-.88-2.79,1.88-2.54.1-2.16-2.21-.63-.74-2.43-1.92-1.12-2.87.64-.22,1.67,0,2.21-.49.46-.52.52-2.07,1.33-1.96.74.43.83,1.47,1.27,2.13.86.36,2.8-.01,2.68,1.47h0Z"/>
</svg>