<?xml version="1.0" encoding="UTF-8"?>
<svg id="Layer_1" data-name="Layer 1" xmlns="http://www.w3.org/2000/svg" viewBox="0 0 35 35">
  <defs>
    <style>
      .cls-1 {
        fill: #f47721;
      }

      .cls-1, .cls-2, .cls-3, .cls-4 {
        stroke-width: 0px;
      }

      .cls-3 {
        fill: #fff;
      }

      .cls-4 {
        fill: #c1dbf0;
      }
    </style>
  </defs>
  <path class="cls-4" d="m14.82,29.62c-.16,0-.29-.13-.29-.29,0-.09.04-.17.1-.22l1.73-1.49-2.84,1.64c-.14.08-.32.03-.4-.11-.07-.12-.04-.28.07-.37l1.18-.98-.84.49c-.14.08-.32.03-.4-.12-.06-.11-.04-.25.05-.35l.63-.63-.28.16c-.14.08-.32.03-.4-.11-.04-.06-.05-.14-.03-.21l.18-.77c-.15-.06-.23-.23-.17-.38.02-.06.07-.11.13-.15l.29-.17c.1-.06.23-.05.32.02.09.07.14.19.11.3l-.14.61,1.62-.94c.14-.08.32-.03.4.12.06.11.04.25-.05.35l-.63.64,1.9-1.1c.14-.08.32-.03.4.11.07.12.04.28-.07.37l-1.18.98,2.53-1.46c.14-.08.32-.03.4.11.07.12.04.28-.06.37l-1.73,1.49,3.42-1.97c.14-.08.32-.03.4.11.08.13.04.3-.08.38l-.46.34,1.44-.83c.14-.08.32-.03.4.11.07.12.04.27-.06.37l-1.78,1.56,3.54-2.04c.14-.08.32-.03.4.11.07.13.04.28-.07.37l-1.13.88,2.37-1.37c.14-.08.32-.03.4.11.07.12.04.28-.07.37l-1.53,1.26,1.6-.92c.14-.08.32-.03.4.11.07.12.04.28-.06.37l-.66.56.33-.19c.14-.08.32-.03.4.11.06.11.05.25-.04.34l-.42.46.05-.03c.14-.08.32-.03.4.11.04.07.05.16.03.23l-.14.45s.09.06.11.11c.08.14.03.32-.11.4h0s-.29.17-.29.17c-.14.08-.32.03-.4-.11-.04-.07-.05-.15-.03-.23l.08-.25-1.03.59c-.14.08-.32.03-.4-.11-.06-.11-.05-.25.04-.34l.42-.46-1.58.92c-.14.08-.32.03-.4-.11-.07-.12-.04-.28.06-.37l.66-.56-1.8,1.04c-.14.08-.32.03-.4-.11-.07-.12-.04-.28.07-.37l1.53-1.26-3.03,1.75c-.14.08-.32.03-.4-.11-.07-.13-.04-.29.07-.38l1.14-.88-2.38,1.37c-.14.08-.32.03-.4-.11-.07-.12-.04-.27.06-.37l1.78-1.56-3.54,2.04c-.14.08-.32.03-.4-.11-.08-.13-.04-.3.08-.38l.46-.34-1.44.83s-.1.04-.15.04Z"/>
  <path class="cls-4" d="m10.14,33.74c-.16,0-.29-.13-.29-.29,0-.1.05-.19.13-.24l.11-.07-.1.06c-.14.08-.32.03-.4-.11-.07-.12-.04-.28.07-.37l2.3-1.89-1.97,1.14c-.14.08-.32.04-.4-.11-.08-.13-.04-.29.08-.38l1.6-1.24c-.12-.11-.13-.3-.02-.42.02-.02.04-.04.07-.06l2.2-1.26c.14-.08.32-.03.4.11.07.13.04.29-.07.38l-.37.29,1.35-.78c.14-.08.32-.03.4.11.07.12.04.28-.07.37l-2.3,1.89,4.1-2.37c.14-.08.32-.03.4.12.07.13.03.3-.09.38l-.11.07.99-.57c.14-.08.32-.03.4.11.07.13.04.28-.07.38l-2.85,2.28,4.81-2.77c.14-.08.32-.03.4.11.07.13.04.29-.08.38l-2.2,1.63,3.68-2.12c.14-.08.32-.03.4.11.07.13.04.29-.08.38l-1.89,1.37,3.23-1.86c.14-.08.32-.03.4.11.07.13.04.3-.08.38l-1.56,1.11,2.78-1.61c.14-.08.32-.04.4.1.08.13.04.31-.09.4l-1.28.9,2.03-1.18c.14-.08.32-.03.4.11.07.13.04.3-.09.38l-.17.12.42-.24c.14-.08.32-.04.4.1.08.13.04.29-.07.38l-1.95,1.53,2.49-1.44c.14-.08.32-.03.4.11.07.12.04.28-.06.37l-1.62,1.36,2.17-1.25c.14-.08.32-.03.4.11.07.13.04.29-.07.38l-.34.27.61-.35c.14-.08.32-.02.4.12.06.12.04.26-.05.35l-.72.65.66-.38c.14-.08.32-.03.4.11.05.09.05.2,0,.29l-.47.84.07-.04c.14-.08.32-.03.4.11.08.14.03.32-.11.4l-1,.57c-.14.08-.32.03-.4-.11-.05-.09-.05-.2,0-.29l.47-.84-2.14,1.24c-.14.08-.32.02-.4-.12-.06-.12-.04-.26.05-.35l.72-.65-1.95,1.13c-.14.08-.32.03-.4-.11-.07-.13-.04-.29.07-.38l.34-.27-1.31.75c-.14.08-.32.03-.4-.11-.07-.12-.04-.28.06-.37l1.62-1.36-3.2,1.84c-.14.08-.32.03-.4-.11-.07-.13-.04-.28.07-.38l1.95-1.53-3.5,2.02c-.14.08-.32.03-.4-.11-.08-.13-.04-.3.09-.39l.17-.12-1.07.62c-.14.08-.32.03-.4-.11-.08-.13-.04-.3.09-.39l1.28-.9-2.42,1.4c-.14.08-.32.03-.4-.11-.07-.13-.04-.3.08-.38l1.56-1.11-2.78,1.6c-.14.08-.32.03-.4-.11-.07-.13-.04-.29.08-.38l1.89-1.37-3.23,1.86c-.14.08-.32.03-.4-.11-.07-.13-.04-.29.08-.38l2.2-1.63-3.68,2.12c-.14.08-.32.03-.4-.11-.07-.13-.04-.29.07-.38l2.85-2.29-4.81,2.77s-.09.04-.14.04Z"/>
  <path class="cls-3" d="m6.23,26.67c-.16,0-.29-.13-.29-.29,0-.1.05-.19.13-.24l.53-.35-1.33.77c-.14.08-.32.03-.4-.11-.07-.13-.04-.3.09-.39l.25-.17c-.12.04-.26,0-.33-.12-.09-.13-.05-.31.07-.4l1.82-1.33-1.5.86c-.14.08-.32.03-.4-.11-.07-.13-.04-.29.08-.38l.89-.68-.57.33c-.14.08-.32.04-.4-.1-.07-.12-.05-.27.06-.37l1.02-.95-.67.39c-.14.08-.32.03-.4-.11-.05-.09-.05-.19,0-.28l.44-.83c-.16,0-.29-.13-.29-.3,0-.1.06-.2.15-.25l.7-.4c.14-.08.32-.03.4.11.05.09.05.19,0,.28l-.4.77,2.01-1.16c.14-.08.32-.04.4.1.07.12.05.28-.06.37l-1.02.95,2.46-1.42c.14-.08.32-.03.4.11.07.13.04.29-.08.38l-.9.68,2.02-1.17c.14-.08.32-.03.4.11.08.13.04.3-.08.38l-1.82,1.33,3.16-1.83c.14-.08.32-.03.4.12.07.13.03.3-.09.38l-.15.1,1.04-.6c.14-.08.32-.02.4.12.07.13.03.29-.09.38l-.53.36,1.48-.86c.14-.08.32-.03.4.12.07.13.03.29-.09.38l-1.64,1.14,2.83-1.63c.14-.08.32-.03.4.11.07.13.04.29-.08.38l-3.28,2.5,5.18-2.99c.14-.08.32-.03.4.11.08.13.04.3-.08.38l-3.03,2.25,4.75-2.74c.14-.08.32-.03.4.11.07.13.04.29-.08.38l-3.16,2.38,4.98-2.88c.14-.08.32-.03.4.11.08.13.04.3-.09.39l-1.53,1.05,2.69-1.55c.14-.08.32-.02.4.12.07.13.03.29-.09.38l-.12.08,1.01-.58c.14-.08.32-.03.4.11.08.13.04.3-.09.39l-1.54,1.06,2.7-1.56c.14-.08.32-.02.4.12.07.13.03.29-.09.38l-.56.38,1.52-.88c.14-.08.32-.03.4.12.07.13.03.3-.09.38l-.17.11,1.06-.61c.14-.08.32-.03.4.11.07.13.04.29-.08.38l-2.58,1.86,4.07-2.35c.14-.08.32-.03.4.11.07.13.04.29-.08.38l-2.82,2.06,4.43-2.56c.14-.08.32-.03.4.11.08.13.04.3-.08.38l-2.88,2.12,3.44-1.99c.14-.08.32-.03.4.11.07.13.04.29-.07.38l-2.51,1.93,2.18-1.26c.14-.08.32-.03.4.11.07.12.04.28-.06.37l-1.64,1.4,1.3-.75c.14-.08.32-.03.4.11.06.11.05.24-.03.34l-.91,1.07.41-.24c.14-.09.32-.05.41.09.09.14.05.32-.09.41,0,0-.01,0-.02.01l-1.89,1.09c-.14.08-.32.03-.4-.11-.06-.11-.05-.24.03-.34l.91-1.07-2.63,1.52c-.13.08-.3.04-.39-.08-.09-.12-.07-.3.05-.39l1.64-1.4-3.25,1.88c-.14.08-.32.03-.4-.11-.07-.13-.04-.29.08-.38l2.51-1.92-4.18,2.42c-.14.08-.32.03-.4-.11-.08-.13-.04-.3.08-.38l2.88-2.12-4.52,2.61c-.14.08-.32.03-.4-.11-.07-.13-.04-.29.08-.38l2.82-2.06-4.43,2.56c-.14.08-.32.03-.4-.11-.07-.13-.04-.29.08-.38l2.58-1.86-4.08,2.35c-.14.08-.32.03-.4-.11-.08-.13-.04-.3.09-.39l.17-.11-1.06.61c-.14.08-.32.03-.4-.11-.07-.13-.04-.3.09-.39l.57-.38-1.52.88c-.14.08-.32.04-.4-.1-.08-.13-.04-.31.09-.39l1.54-1.06-2.7,1.56c-.14.08-.32.03-.4-.11-.08-.13-.04-.3.09-.39l.13-.08-1.01.59c-.14.08-.32.03-.4-.11-.08-.13-.04-.3.09-.39l1.53-1.05-2.69,1.55c-.14.08-.32.03-.4-.11-.07-.13-.04-.29.08-.38l3.17-2.39-4.98,2.88c-.14.08-.32.03-.4-.11-.08-.13-.04-.3.08-.38l3.03-2.25-4.75,2.74c-.14.08-.32.03-.4-.11-.07-.13-.04-.29.08-.38l3.28-2.5-5.18,2.99c-.14.08-.32.03-.4-.11-.07-.13-.04-.3.09-.39l1.65-1.14-2.83,1.63s-.1.04-.15.04Z"/>
  <path class="cls-1" d="m6.9,21.96c-.16,0-.3-.13-.3-.29,0-.1.05-.2.14-.25l12.82-7.99-14.29,8.25c-.14.08-.32.04-.4-.1-.08-.14-.04-.32.1-.4l5.89-3.57-5.59,3.23c-.14.08-.32.02-.4-.12-.07-.13-.03-.3.1-.39l11.87-7.32-11.57,6.68c-.14.08-.32.04-.4-.1-.08-.14-.04-.32.1-.4h0l1.16-.7-.86.5c-.14.08-.32.03-.4-.12-.07-.14-.03-.3.1-.39l13.7-8.53-13.4,7.74c-.14.08-.32.02-.4-.12-.07-.13-.03-.3.1-.39l9.27-5.7-8.97,5.18c-.14.08-.32.03-.4-.11-.08-.14-.04-.31.1-.4l10.73-6.69-10.43,6.02c-.14.08-.32.02-.4-.12-.07-.14-.03-.31.1-.39l.81-.49-.51.29c-.14.08-.32.04-.4-.1-.08-.14-.04-.32.1-.4l7.05-4.38-6.74,3.9c-.14.08-.32.03-.4-.11-.08-.14-.04-.31.1-.4l6.92-4.33-6.62,3.82c-.14.08-.32.03-.4-.12-.07-.14-.03-.3.1-.39l4.22-2.63-3.92,2.26c-.14.08-.32.04-.4-.1-.08-.14-.04-.32.1-.4h0l6.15-3.92-5.84,3.37c-.14.08-.32.03-.4-.12-.07-.13-.03-.3.09-.39l5.29-3.4-4.99,2.88c-.14.08-.32.02-.4-.12-.07-.13-.03-.3.09-.38l2.36-1.49-2.05,1.18c-.14.08-.32.03-.4-.11-.07-.13-.03-.3.09-.38l5.07-3.4-4.76,2.75c-.14.08-.32.03-.4-.11-.08-.13-.04-.3.08-.39l4.91-3.48-4.6,2.65c-.14.08-.32.03-.4-.11-.07-.13-.03-.3.09-.38l1.7-1.15-1.39.8c-.14.08-.32.03-.4-.11-.07-.13-.04-.3.08-.38l1.79-1.27-1.47.85c-.14.08-.32.03-.4-.11-.07-.12-.04-.28.07-.37l2-1.6-1.67.96c-.14.08-.32.03-.4-.11-.06-.11-.05-.26.04-.35l1.38-1.41-.99.57c-.14.08-.32.04-.4-.1-.07-.11-.05-.26.04-.35l.44-.47c-.15-.07-.2-.25-.13-.4.03-.05.07-.09.12-.12l1.14-.66c.14-.08.32-.03.4.11.07.11.05.25-.04.35l-.13.14,1.11-.64c.14-.08.32-.03.4.11.06.11.05.26-.04.35l-1.37,1.41L10.06.22c.14-.08.32-.03.4.11.07.12.04.28-.07.37l-2,1.6L11.99.22c.14-.08.32-.03.4.11.07.13.04.29-.08.38l-1.79,1.26L13.57.22c.14-.08.32-.03.4.12.07.13.03.3-.09.38l-1.7,1.15L15.04.22c.14-.08.32-.03.4.11.07.13.04.29-.08.38l-4.91,3.48L17.33.22c.14-.08.32-.02.4.12.07.13.03.29-.09.38l-5.07,3.4L19.33.22c.14-.08.32-.02.4.12.07.13.03.3-.09.38l-2.36,1.49,3.46-2c.14-.08.32-.03.4.11.08.14.04.31-.09.39l-5.29,3.4L22.51.22c.14-.08.32-.02.4.12.07.13.03.3-.09.38l-6.15,3.92L24.32.22c.14-.08.32-.03.4.11.08.14.04.31-.1.4l-4.22,2.63L25.83.22c.14-.08.32-.02.4.12.07.13.03.3-.1.39l-6.92,4.33L27.59.22c.14-.08.32-.02.4.12.07.13.03.3-.1.38l-7.05,4.38L29.31.22c.14-.08.32-.02.4.12.07.14.03.31-.1.39l-.8.48,1.71-.99c.14-.08.32-.03.4.11.08.14.04.31-.1.4l-10.74,6.69L32.56.22c.14-.08.32-.02.4.12.07.13.03.3-.1.38l-9.28,5.7L33.68.59c.14-.08.32-.04.4.1s.04.32-.1.4h0l-13.7,8.53L34.31,1.53c.14-.08.32-.03.4.11.08.14.03.31-.1.39l-1.16.7.95-.55c.14-.08.32-.04.4.1s.04.32-.1.4h0l-11.87,7.31,11.57-6.68c.14-.08.32-.02.4.12.07.13.03.3-.1.38l-5.89,3.57,5.59-3.23c.14-.08.32-.04.4.1s.04.32-.1.4l-12.82,7.99,12.52-7.23c.14-.08.32-.02.4.12.07.13.03.3-.1.39l-5.88,3.59,5.58-3.22c.14-.08.32-.03.4.12.07.14.03.3-.1.39l-9.25,5.76,8.95-5.16c.14-.08.32-.03.4.12.07.14.03.3-.1.39l-8.11,5.07,7.81-4.51c.14-.08.32-.03.4.12.08.14.03.31-.1.39l-1.62.99,1.32-.76c.14-.08.32-.03.4.11.08.14.04.31-.1.39l-6.94,4.4,6.64-3.83c.14-.08.32-.04.4.1.08.14.04.32-.1.4l-1.72,1.06,1.41-.82c.14-.08.32-.03.4.12.07.13.03.3-.1.39l-3.79,2.4,3.49-2.02c.14-.08.32-.03.4.11.08.13.04.31-.09.39l-6.73,4.5,6.42-3.7c.14-.09.32-.04.41.09s.04.32-.09.41l-5.01,3.37,4.7-2.71c.14-.08.32-.03.4.11.08.13.04.3-.08.39l-4.72,3.34,4.4-2.54c.14-.08.32-.03.4.11.07.13.04.3-.09.39l-2.27,1.57,1.96-1.13c.14-.08.32-.04.4.1.07.13.04.29-.07.38l-2.98,2.39,2.65-1.53c.14-.08.32-.03.4.11.07.13.04.29-.08.38l-.79.6.46-.27c.14-.08.32-.03.4.12.06.11.04.25-.05.35l-1.04,1.04.69-.4c.14-.08.32-.03.4.11.06.11.05.25-.04.34l-.21.24c.16,0,.29.14.29.3,0,.1-.06.2-.15.25l-1.36.79c-.14.08-.32.03-.4-.11-.06-.11-.05-.25.04-.34l.13-.14-1.03.59c-.14.08-.32.03-.4-.12-.06-.11-.04-.25.05-.35l1.04-1.04-2.61,1.51c-.14.08-.32.03-.4-.11-.07-.13-.04-.29.08-.38l.79-.6-1.88,1.09c-.14.08-.32.03-.4-.11-.07-.12-.04-.28.07-.37l2.98-2.39-4.98,2.88c-.14.08-.32.03-.4-.11-.08-.13-.04-.3.09-.39l2.27-1.57-3.58,2.06c-.14.08-.32.03-.4-.11-.08-.13-.04-.3.08-.39l4.72-3.34-6.65,3.84c-.14.08-.32.03-.4-.11-.08-.13-.04-.31.09-.39l5.01-3.37-6.71,3.87c-.14.09-.32.04-.41-.09s-.04-.32.09-.41l6.73-4.5-8.66,5c-.14.08-.32.04-.4-.1-.08-.14-.04-.32.1-.4l3.8-2.39-5.03,2.9c-.14.08-.32.04-.4-.1s-.04-.32.1-.4l1.73-1.07-2.73,1.57c-.14.08-.32.04-.4-.1-.08-.14-.04-.32.1-.4l6.94-4.39-8.48,4.9c-.14.08-.32.04-.4-.1-.08-.14-.04-.32.1-.4h0l1.61-.99-2.59,1.49c-.14.08-.32.03-.4-.11-.08-.14-.04-.31.1-.4l8.11-5.07-9.65,5.57c-.14.08-.32.04-.4-.1s-.04-.32.1-.4l9.25-5.76-10.85,6.26c-.14.08-.32.03-.4-.11-.08-.14-.03-.31.1-.4l5.89-3.6-7.11,4.11s-.1.04-.15.04Z"/>
  <path class="cls-3" d="m25.69,17.69c-.16,0-.29-.13-.29-.29,0-.11.06-.2.15-.26l3.76-2.17c.14-.08.32-.03.4.11.06.11.05.25-.04.34l-.54.6.47-.27c.14-.08.32-.03.4.11.08.14.03.32-.11.4l-2.06,1.19c-.14.08-.32.03-.4-.11-.06-.11-.05-.25.03-.34l.54-.61-2.16,1.25s-.1.04-.15.04Z"/>
  <path class="cls-3" d="m21.83,4.55c-.16,0-.29-.13-.29-.29,0-.06.02-.13.06-.18l.47-.62s-.06-.05-.08-.09c-.08-.14-.03-.32.11-.4l.65-.38c.14-.08.32-.03.4.11.06.1.05.23-.02.32l-.19.25,1.09-.63c.14-.08.32-.02.4.12.07.14.03.3-.1.39l-2.35,1.36s-.1.04-.15.04Z"/>
  <path class="cls-3" d="m23.83,19.56c-.16,0-.29-.13-.29-.29,0-.07.02-.13.06-.18l.07-.09-.88.51c-.14.08-.32.03-.4-.11-.07-.13-.04-.29.07-.38l3.39-2.63-3.71,2.14c-.14.09-.32.04-.41-.1-.09-.14-.04-.32.1-.41l1.59-1.06-1.56.9c-.14.08-.32.03-.4-.11-.07-.13-.03-.3.09-.38l2.8-1.88-3.51,2.03c-.14.08-.32.03-.4-.11-.08-.13-.04-.3.09-.39l5.1-3.59-7.3,4.22c-.14.08-.32.03-.4-.11-.07-.13-.04-.3.09-.38l5.36-3.66-5.89,3.4c-.14.08-.32.03-.4-.12-.07-.13-.03-.3.09-.39l3.18-2.07-3.19,1.84c-.14.08-.32.03-.4-.11-.07-.13-.03-.3.09-.39l3.84-2.53-2.99,1.73c-.14.08-.32.03-.4-.11-.07-.13-.03-.3.09-.38l4.97-3.34-5.07,2.93c-.14.08-.32.03-.4-.11-.07-.13-.03-.3.09-.39l2.91-1.89-2.86,1.65c-.14.08-.32.03-.4-.11-.07-.13-.03-.3.09-.39l3.79-2.5-4.25,2.46c-.14.08-.32.03-.4-.11-.07-.13-.04-.3.09-.39l4.5-3.11-5.12,2.96c-.14.08-.32.03-.4-.11-.07-.13-.03-.3.09-.39l2.18-1.44-1.9,1.1c-.14.08-.32.03-.4-.11-.08-.13-.04-.31.09-.39l2.47-1.66-.35.2c-.14.08-.32.03-.4-.11-.08-.13-.04-.3.09-.39l1.4-.95-.62.35c-.14.08-.32.03-.4-.11-.07-.11-.05-.25.04-.35l1.09-1.17-.91.53c-.14.08-.32.03-.4-.11-.05-.09-.05-.21,0-.3l.67-1.1c-.15.05-.32-.03-.37-.19-.04-.13.01-.28.14-.35l.92-.53c.14-.08.32-.03.4.11.05.09.05.21,0,.3l-.66,1.09,1.62-.94c.14-.08.32-.03.4.11.06.11.05.25-.04.35l-1.09,1.17,5.54-3.2c.14-.08.32-.03.4.11.07.13.04.3-.09.38l-1.4.96,1.36-.78c.14-.08.32-.02.4.12.07.13.03.29-.09.38l-2.48,1.66,3.03-1.75c.14-.08.32-.03.4.11.08.13.04.31-.09.39l-2.18,1.44,2.69-1.55c.14-.08.32-.03.4.12.07.13.03.29-.09.38l-4.5,3.11,6.49-3.75c.14-.08.32-.03.4.11.07.13.03.3-.09.39l-3.78,2.5,4.1-2.36c.14-.08.32-.03.4.12.07.13.03.3-.09.39l-2.92,1.89,2.69-1.55c.14-.08.32-.03.4.11.08.13.04.31-.09.39l-4.96,3.34,4.32-2.49c.14-.08.32-.03.4.11.08.13.04.31-.09.39l-3.85,2.53,3.91-2.26c.14-.08.32-.02.4.12.07.13.03.3-.09.38l-3.17,2.07,3.12-1.8c.14-.08.32-.03.4.11.07.13.04.3-.09.38l-5.36,3.67,6.26-3.61c.14-.08.32-.03.4.11.08.13.04.3-.09.39l-5.1,3.59,5.24-3.03c.14-.08.32-.03.4.11.08.13.04.31-.09.39l-2.79,1.88,2.37-1.37c.14-.08.32-.03.4.11.08.13.04.3-.09.39l-2.18,1.44c.16,0,.29.14.29.3,0,.09-.04.17-.11.22l-4.6,3.56s.02.02.02.02c.09.11.1.26,0,.38l-.4.51s.04.05.06.07c.08.14.03.32-.11.4l-.65.38s-.09.04-.14.04Z"/>
  <path class="cls-3" d="m24.09,15.95c-.16,0-.29-.13-.29-.29,0-.09.04-.17.1-.22l1.41-1.22-2.87,1.65c-.14.08-.32.03-.4-.11-.07-.13-.04-.28.07-.38l2.47-1.94-3.38,1.95c-.14.08-.32.04-.4-.1-.08-.13-.04-.3.08-.39l2.7-2-3.23,1.86c-.14.08-.32.03-.4-.11-.07-.13-.04-.3.09-.39l.18-.12-.28.16c-.14.08-.32.03-.4-.12-.07-.13-.04-.29.08-.38l3.11-2.28-3.36,1.94c-.14.08-.32.03-.4-.11-.07-.13-.04-.29.08-.38l3.25-2.4-3.32,1.92c-.14.08-.32.03-.4-.11-.08-.13-.04-.3.08-.39l2.27-1.63-2.08,1.2c-.14.08-.32.03-.4-.11-.07-.13-.04-.29.08-.38l1.8-1.31-1.42.82c-.14.08-.32.03-.4-.11-.07-.13-.04-.29.08-.38l1.27-.95-.65.37c-.14.08-.32.02-.4-.12-.06-.12-.04-.26.05-.35l1.21-1.09c-.16-.03-.27-.18-.24-.34.01-.09.07-.16.14-.21l1.97-1.14c.14-.08.32-.02.4.12.06.12.04.26-.05.35l-.97.88,2.51-1.45c.14-.08.32-.03.4.11.07.13.04.29-.08.38l-1.27.95,2.02-1.17c.14-.08.32-.03.4.11.07.13.04.29-.08.38l-1.8,1.31,2.35-1.36c.14-.08.32-.03.4.11.08.13.04.3-.08.39l-2.27,1.63,2.7-1.56c.14-.08.32-.03.4.11.07.13.04.29-.08.38l-3.25,2.4,3.57-2.06c.14-.08.32-.03.4.11.07.13.04.29-.08.38l-3.11,2.27,3.22-1.86c.14-.08.32-.03.4.11.08.13.04.31-.09.39l-.18.12.04-.03c.14-.08.32-.04.4.1.08.13.04.3-.08.39l-2.7,2,2.51-1.45c.14-.08.32-.03.4.11.07.13.04.29-.07.38l-2.47,1.94,1.94-1.12c.14-.08.32-.03.4.11.07.12.04.28-.06.37l-1.41,1.22.21-.12c.14-.08.32-.03.4.11.08.14.03.32-.11.4l-2.9,1.67s-.1.04-.15.04Z"/>
  <path class="cls-3" d="m23.79,13.62c-.16,0-.29-.13-.29-.3,0-.07.03-.14.07-.2l.66-.73-1.72.99c-.14.08-.32.03-.4-.11-.07-.12-.04-.28.07-.37l.55-.45-.84.48c-.14.08-.32.03-.4-.11-.07-.12-.04-.28.07-.37l.73-.59-.82.48c-.14.08-.32.03-.4-.11-.07-.12-.04-.28.07-.37l.7-.57-.59.34c-.14.08-.32.03-.4-.11-.07-.13-.04-.28.07-.38l.21-.16c-.09,0-.19-.04-.25-.11-.09-.12-.08-.28.02-.39l.61-.62c-.15-.05-.24-.22-.18-.37.02-.07.07-.12.13-.16l1.36-.79c.14-.08.32-.03.4.11.07.11.05.26-.04.35l-.35.36,1.25-.72c.14-.08.32-.03.4.11.07.13.04.29-.07.38l-.03.02.3-.17c.14-.08.32-.03.4.11.07.12.04.28-.07.37l-.7.58.87-.5c.14-.08.32-.03.4.11.07.12.04.28-.07.37l-.72.59.69-.4c.14-.08.32-.03.4.11.07.12.04.28-.07.37l-.55.45.28-.16c.14-.08.32-.03.4.11.06.11.05.25-.04.34l-.74.83c.16,0,.29.14.29.3,0,.1-.06.2-.15.25l-1.36.79s-.1.04-.15.04Z"/>
  <path class="cls-4" d="m10.86,33.74c-.16,0-.29-.13-.3-.29,0-.09.04-.17.1-.22l.41-.35-1.09.63c-.14.08-.32.03-.4-.11-.06-.1-.05-.23.02-.33l.73-.93-.35.21c-.14.08-.32.03-.4-.11-.05-.08-.05-.17-.02-.26l.16-.4c-.14-.08-.19-.26-.11-.4.03-.05.06-.08.11-.11l.35-.21c.14-.08.32-.03.4.11.05.08.05.17.02.26l-.07.18.94-.54c.14-.08.32-.03.4.11.06.1.05.23-.02.33l-.73.93,2.38-1.37c.14-.08.32-.03.4.11.07.12.04.27-.06.37l-.41.35,1.44-.83c.14-.08.32-.03.4.11.07.12.04.28-.06.37l-.28.24,1.25-.72c.14-.08.32-.03.4.11.07.12.04.28-.06.37l-.29.25,1.26-.73c.14-.08.32-.03.4.11.07.12.05.26-.05.36l-.72.71,2.03-1.17c.14-.08.32-.03.4.11.07.12.04.27-.05.36l-.57.53,1.73-1c.14-.08.32-.03.4.11.06.11.05.26-.04.35l-.78.79,2.17-1.25c.14-.08.32-.03.4.11.07.12.05.28-.06.37l-.46.41,1.54-.89c.14-.08.32-.03.4.11.06.11.05.26-.04.35l-.8.82,2.21-1.28c.14-.08.32-.03.4.11.06.11.05.25-.03.34l-.87.98,2.47-1.43c.14-.08.32-.03.4.11.06.11.05.25-.03.34l-.87.98,2.47-1.43c.14-.08.32-.04.4.1.07.12.05.28-.06.37l-.63.6.54-.31c.14-.08.32-.03.4.11.07.11.05.26-.05.35l-.18.18c.06,0,.11.03.15.06.09.08.13.2.1.32l-.12.39c.14.08.19.26.1.4-.03.04-.06.08-.11.1l-.29.17c-.14.08-.32.03-.4-.11-.04-.07-.05-.16-.03-.24l.06-.18-.91.52c-.14.08-.32.03-.4-.11-.07-.11-.05-.26.05-.35l.03-.03-.85.49c-.14.08-.32.04-.4-.1-.07-.12-.05-.28.06-.37l.63-.6-1.85,1.07c-.14.08-.32.03-.4-.11-.06-.11-.05-.25.03-.34l.87-.98-2.47,1.43c-.14.08-.32.03-.4-.11-.06-.11-.05-.25.03-.34l.87-.97-2.47,1.43c-.14.08-.32.03-.4-.11-.07-.11-.05-.26.04-.35l.79-.82-2.21,1.28c-.14.08-.32.03-.4-.11-.07-.12-.05-.28.06-.37l.47-.41-1.54.89c-.14.08-.32.03-.4-.11-.07-.11-.05-.26.04-.35l.78-.79-2.17,1.25c-.14.08-.32.03-.4-.11-.07-.12-.04-.27.05-.36l.57-.53-1.73,1c-.14.08-.32.03-.4-.11-.07-.12-.05-.26.05-.36l.72-.71-2.03,1.17c-.14.08-.32.04-.4-.1-.07-.12-.05-.28.06-.38l.29-.25-1.26.73c-.14.08-.32.03-.4-.11-.07-.12-.04-.28.06-.37l.28-.24-1.24.72s-.1.04-.15.03Z"/>
  <path class="cls-4" d="m5.06,31.66c-.16,0-.29-.13-.3-.29,0-.07.03-.15.08-.2l1.25-1.34-1.19.69c-.14.08-.32.03-.4-.11-.07-.12-.04-.27.06-.37l.59-.51-1.05.61c-.14.08-.32.03-.4-.11-.08-.14-.03-.32.11-.4l3.78-2.18c.14-.08.32-.03.4.11.07.12.04.28-.06.37l-.59.51.17-.1c.14-.08.32-.03.4.11.07.11.05.25-.04.35l-1.25,1.34.77-.44c.14-.08.32-.04.4.11.08.14.04.32-.11.4,0,0,0,0,0,0l-2.48,1.43s-.09.04-.15.04Z"/>
  <path class="cls-4" d="m4.83,34.74c-.16,0-.29-.13-.29-.29,0-.08.03-.15.08-.21l.92-.93-2.38,1.37c-.14.08-.32.03-.4-.11-.07-.12-.04-.28.06-.37l2.04-1.74-2.87,1.65c-.14.08-.32.02-.4-.12-.06-.11-.04-.25.05-.34l.1-.11-.25.14c-.14.08-.32.03-.4-.11-.06-.1-.05-.24.02-.33l.52-.66-.66.38c-.13.07-.29.04-.38-.07-.09-.11-.08-.28.01-.38l1.14-1.22-1.12.65c-.14.09-.32.05-.41-.08s-.05-.32.08-.41l3.44-2.58-3.1,1.79c-.14.08-.32.03-.4-.11-.08-.13-.04-.3.08-.39l2.67-1.92-2.12,1.22c-.14.08-.32.03-.4-.11-.08-.13-.04-.3.08-.39l2.9-2.12-2.34,1.35c-.14.08-.32.03-.4-.11-.07-.13-.04-.29.08-.38l2.69-1.96-2.14,1.23c-.14.08-.32.03-.4-.11-.08-.13-.04-.3.09-.39l1.71-1.2-1.2.69c-.14.09-.32.05-.41-.08s-.05-.32.08-.41h0l2.62-1.92-2.06,1.19c-.14.08-.32.03-.4-.11-.07-.13-.04-.29.08-.38l2.97-2.24-2.39,1.38c-.14.08-.32.03-.4-.11-.07-.13-.04-.29.08-.38l2.95-2.24-2.36,1.37c-.14.08-.32.03-.4-.11-.07-.13-.04-.29.08-.38l2.98-2.29-2.38,1.38c-.14.08-.32.03-.4-.11-.08-.13-.04-.3.09-.39l.36-.25c-.16.02-.31-.09-.34-.25-.02-.11.03-.22.12-.28l1.92-1.41-1.39.81c-.14.08-.32.03-.4-.11-.07-.13-.04-.29.07-.38l2.94-2.31-2.33,1.35c-.14.08-.32.03-.4-.11-.08-.13-.04-.3.08-.38l1.14-.85-.63.37c-.14.08-.32.03-.4-.11-.07-.12-.04-.28.06-.37l1.14-.96-.59.34c-.14.08-.32.03-.4-.11-.06-.1-.05-.23.02-.33l.79-1.03-.14.08c-.14.08-.32.03-.4-.11-.04-.08-.05-.18-.01-.26l.21-.46s-.03-.04-.04-.06c-.08-.14-.03-.32.11-.4l.28-.16c.14-.08.32-.03.4.11.05.08.05.18.01.27l-.05.11.61-.35c.14-.08.32-.03.4.11.06.1.05.23-.02.32l-.79,1.03,2.14-1.24c.14-.08.32-.03.4.11.07.12.04.28-.06.37l-1.14.96,2.18-1.26c.14-.08.32-.03.4.11.08.13.04.3-.08.38l-1.14.85,1.53-.88c.14-.08.32-.03.4.11.07.13.04.29-.07.38l-2.94,2.31,2.49-1.44c.14-.08.32-.03.4.11.08.13.04.3-.08.38l-1.92,1.41,1.51-.87c.14-.08.32-.03.4.11.08.13.04.3-.09.39l-.29.2c.16-.03.32.07.35.23.02.11-.02.23-.11.3l-2.98,2.29,2.54-1.46c.14-.08.32-.03.4.11.07.13.04.29-.08.38l-2.95,2.24,2.51-1.45c.14-.08.32-.03.4.11.07.13.04.29-.08.38l-2.97,2.24,2.54-1.46c.14-.08.32-.03.4.11.08.13.04.3-.08.38l-2.62,1.91,2.2-1.27c.14-.08.32-.03.4.11.08.13.04.3-.09.39l-1.71,1.2,1.31-.76c.14-.08.32-.03.4.12.07.13.04.29-.08.38l-2.69,1.96,2.27-1.31c.14-.08.32-.03.4.11.08.13.04.3-.08.39l-2.9,2.12,2.48-1.43c.14-.08.32-.03.4.11.08.13.04.3-.08.39l-2.66,1.91,2.25-1.3c.14-.08.32-.03.4.11.07.13.04.29-.08.38l-4.58,3.43s.04.04.06.06c.09.11.08.28-.01.38l-1.14,1.22.31-.18c.14-.08.32-.03.4.11.06.1.05.24-.02.33l-.52.66.8-.46c.14-.08.32-.03.4.11.07.11.05.26-.05.35l-.11.11,3.74-2.16c.14-.08.32-.03.4.11.07.12.04.28-.06.37l-2.04,1.74,1.49-.86c.14-.08.32-.03.4.11.07.11.05.26-.04.35l-1.04,1.06c.16,0,.29.14.28.31,0,.1-.06.19-.15.24l-1.6.92s-.1.04-.15.04Z"/>
  <path class="cls-4" d="m8.75,9.06c-.16,0-.29-.13-.29-.29,0-.08.03-.16.1-.22l1.04-.96-.47.27c-.14.09-.32.04-.41-.1-.08-.12-.05-.28.06-.38l.59-.56-.11.06c-.14.08-.32.03-.4-.11-.07-.11-.05-.26.04-.35l.39-.4c-.09.02-.19-.01-.26-.08-.09-.09-.12-.23-.06-.35l.44-.87c-.16-.03-.27-.18-.25-.34.01-.09.07-.16.14-.21l.61-.35c.14-.08.32-.04.4.1.05.09.05.19,0,.28l-.39.77.82-.48c.14-.08.32-.03.4.11.07.11.05.26-.04.35l-.35.36.46-.26c.14-.08.32-.04.4.1.07.12.05.28-.06.37l-.59.56.62-.36c.14-.08.32-.03.4.11.07.12.04.27-.05.36l-1.04.96,1.02-.59c.14-.09.32-.05.41.09.09.14.05.32-.09.41,0,0-.01,0-.02.01l-3.34,1.93s-.1.04-.15.04Z"/>
  <path class="cls-4" d="m7.98,13.84c-.16,0-.29-.13-.3-.29,0-.08.04-.17.1-.22l1.89-1.68-3.64,2.1c-.14.08-.32.03-.4-.11-.07-.13-.04-.29.08-.38l1.56-1.12-2.25,1.3c-.14.08-.32.03-.4-.11-.07-.13-.04-.29.08-.38l3.26-2.42-3.95,2.28c-.14.08-.32.03-.4-.11-.08-.13-.04-.3.09-.39l.45-.3-.62.35c-.15.07-.32,0-.39-.15-.05-.11-.03-.23.05-.32l1.21-1.03-1.47.84c-.13.08-.3.04-.39-.08-.09-.12-.07-.3.05-.39l.58-.49-.61.35c-.14.08-.32.03-.4-.11-.07-.11-.05-.26.05-.35l1.36-1.37-1.41.81c-.14.08-.32.03-.4-.11-.07-.12-.04-.26.05-.36l1.46-1.33-1.31.75c-.14.08-.32.03-.4-.11-.07-.13-.04-.29.08-.38l.22-.17c-.12.03-.24-.02-.31-.12-.09-.13-.06-.3.06-.4l.42-.33c-.15.06-.32-.01-.38-.17-.05-.12,0-.26.1-.34l.53-.41c-.12.04-.26,0-.34-.1-.09-.12-.07-.29.04-.39l1.38-1.24c-.16-.04-.26-.2-.22-.36.02-.08.07-.15.14-.19l1.92-1.11c.14-.08.32-.02.4.12.06.12.04.26-.05.35l-1.09.98,1.2-.69c.14-.08.32-.03.4.11.07.13.04.29-.07.38l-.5.39.06-.03c.14-.08.32-.04.4.11.08.13.04.29-.08.38l-.41.32c.15-.06.32,0,.39.16.05.12.01.26-.09.35l-.31.24c.1,0,.2.04.26.12.09.12.07.29-.04.39l-1.45,1.33.94-.54c.14-.08.32-.03.4.11.07.11.05.26-.05.35l-1.35,1.36,1.54-.89c.14-.08.32-.03.4.11.07.12.04.28-.06.37l-.58.49,1.41-.81c.14-.08.32-.03.4.11.07.12.04.28-.06.37l-1.21,1.03,5.97-3.45c.14-.08.32-.03.4.11.08.13.04.3-.09.39l-.45.3.3-.17c.14-.08.32-.03.4.11.07.13.04.29-.08.38l-3.26,2.41,2.93-1.69c.14-.08.32-.03.4.12.07.13.04.29-.08.38l-1.56,1.12,1-.58c.14-.08.32-.03.4.11.07.12.05.28-.06.37l-1.89,1.67.63-.37c.14-.09.32-.05.41.09.09.14.05.32-.09.41,0,0-.01,0-.02.01l-3.17,1.83s-.1.04-.15.04Z"/>
  <path class="cls-2" d="m15.5,12.58c.32.08.62.2.9.36,0,0,.05.01.08.03-.04.04.02.36.02.33.08.32.2.62.37.9.1.2.24.3.24.4-.03.13-.09.25-.16.36-.14.27-.26.56-.36.85-.16.53.12.82.48,1.19.34.35.71.81,1.23.81.54-.07,1.05-.26,1.52-.54.47.23.97.39,1.44.62.12.06-.02-.16.14.06.07.13.12.27.16.41.22.54.33,1.11.97,1.25.74.16,1.95.18,2.36-.57.18-.37.34-.76.47-1.15.51-.15,1.01-.36,1.48-.61.46.28.96.47,1.49.54.52,0,.9-.44,1.24-.78.37-.37.75-.72.61-1.27-.09-.27-.21-.54-.34-.79-.09-.14-.16-.3-.2-.46.1-.23.22-.46.36-.67.1-.19.17-.38.23-.59,0,0,.04-.31-.01-.32.11-.05.23-.09.35-.13l.76-.3c.06-.01.11-.03.16-.07.08-.03.15-.08.2-.15.46-.43.4-1.07.36-1.72.03-.43-.24-.83-.65-.96-.24-.11-.48-.19-.72-.29-.11-.03-.23-.08-.33-.13-.25-.22.11.12-.02-.11-.19-.34-.27-.78-.45-1.14-.21-.42-.28-.19-.15-.59.12-.38.38-.73.46-1.12.15-.66-.6-1.28-1.08-1.65-.66-.51-1.47-.04-2.17.29-.47-.23-.97-.39-1.44-.62-.12-.06.02.16-.14-.06-.07-.13-.12-.27-.16-.41-.22-.54-.33-1.11-.97-1.25-.74-.16-1.95-.18-2.36.57-.18.37-.34.76-.47,1.15-.51.15-1.01.36-1.48.61-.39-.21-.79-.37-1.21-.5-.4-.09-.82.04-1.1.34-.43.3-.78.69-1.03,1.15-.22.63.47,1.12.51,1.7.03.37-.52.86-.56,1.34-.03.1-.04.21-.02.32-.01,0-.03,0-.04.01-.17.09-.34.16-.53.21-.71.28-1.19.45-1.23,1.31-.04.88-.06,1.5.8,1.85Zm.15-2.35c.05-.06.22-.09.29-.12.35-.11.7-.24,1.02-.41.41-.26.46-.99.65-1.42.25-.53.45-.66.22-1.18-.18-.3-.32-.62-.41-.96-.03-.37.41-.74.65-.95.26-.23.28-.19.57-.06.31.16.63.3.96.41.52.12,1.06-.37,1.53-.55.46-.17.83-.16,1.06-.6.11-.38.25-.74.44-1.09.46-.32,1.09-.26,1.48.14.2.32.24.75.43,1.08.27.47,1.15.53,1.64.78.47.24.63.32,1.11.11.27-.12.87-.46,1.06-.41.39.22.71.54.93.93.09.24-.01.38-.1.58-.2.33-.35.69-.44,1.06,0,.32.34.69.46.98.08.37.21.74.39,1.08.3.2.63.34.98.42.16.04.31.1.45.18.18.17.3,1.49.06,1.64-.59.24-1.4.35-1.61.99-.11.36-.25.72-.41,1.06-.11.23-.34.46-.31.73.1.34.24.67.42.98.06.1.11.22.14.33.02.31-.46.88-.74,1.02s-.14.09-.43,0c-.24-.08-.47-.18-.69-.29-.23-.15-.51-.19-.78-.12-.31.1-.59.33-.9.45-.29.12-.86.17-1.1.41-.16.24-.28.5-.35.78-.05.18-.12.36-.21.53-.18.23-.42.2-.71.2-.77,0-.76-.25-1-.85-.11-.27-.18-.62-.42-.79-.39-.17-.79-.31-1.2-.42-.25-.11-.49-.36-.77-.38-.33.03-.65.14-.93.31-.17.09-.35.17-.54.23-.26.05-.06.11-.34-.13-.25-.22-.73-.58-.78-.91,0-.2.06-.4.17-.58.16-.27.28-.56.37-.85,0-.17-.04-.34-.15-.47-.25-.48-.38-.95-.58-1.44-.29-.7-1.5-.41-1.68-1.2-.08-.42-.05-.86.09-1.27h0Z"/>
  <path class="cls-2" d="m24.33,15.9c2.37-.45,4.1-2.48,4.18-4.89,0-.01,0-.02,0-.03s.01-.02,0-.03c-.03-2.12-1.42-3.98-3.44-4.61-2.03-.6-4.23.02-5.63,1.6-1.39,1.61-1.58,3.93-.47,5.75,1.16,1.78,3.3,2.66,5.37,2.2Zm-4.61-7.24c.91-1.59,2.77-2.37,4.54-1.93,2,.55,3.38,2.36,3.39,4.43,0,1.84-1.11,3.49-2.82,4.16-1.75.56-3.65-.04-4.77-1.5-1.16-1.49-1.3-3.53-.35-5.16Z"/>
  <path class="cls-2" d="m23.2,13.66c.05,0,.1,0,.16-.01,1.11-.03,2.11-.68,2.59-1.69.44-1.02.15-2.2-.7-2.91-.94-.72-2.22-.8-3.24-.22-.98.51-1.54,1.59-1.39,2.69.23,1.25,1.32,2.15,2.59,2.13Zm-1.09-4.26c.59-.53,1.46-.59,2.12-.16.75.46,1.15,1.32,1.04,2.19-.09.92-.82,1.65-1.74,1.73-.86-.03-1.63-.57-1.94-1.38-.32-.83-.12-1.77.52-2.38Z"/>
  <path class="cls-2" d="m34.99,2.74c0-.21.01-.42,0-.63-.03-1-.82-1.8-1.82-1.83-.56-.04-1.14,0-1.7,0H7.7c-.98,0-2.05.09-2.68.97-.43.6-.36,1.38-.35,2.1-.06.02-.12.05-.17.08-1.67.83-2.83,2.42-3.11,4.27-.23,1.83.46,3.65,1.84,4.87.06.06.13.1.2.15C2.31,18.56,1.17,24.41.08,30.26c-.37,1.96.59,3.9,2.61,4.43,1.39.35,2.86-.01,3.93-.97h27.78c.36,0,.89-.54.32-.54h-4.44c.05-.62.05-1.25,0-1.87-.02-.12-.07-.23-.13-.34,0-.01,0-.03-.02-.03-.31-.33-.67-.6-1.07-.8l-2.08-1.39c-.07-.05-.15-.09-.22-.12v-2.07c1.87,0,3.74.01,5.61,0,1.29-.01,2.57-.64,2.63-2.08.03-.72,0-1.44,0-2.16V2.74ZM6.07.88c.26-.21.6-.3.93-.25h22.76c.84,0,1.68-.01,2.52,0,.98-.05,1.81.7,1.86,1.68,0,.06,0,.12,0,.18.09,5.96,0,11.92,0,17.88v1.01H8.73c.23-2.66.46-5.32.69-7.98,1.45-.65,2.57-1.86,3.1-3.36.73-2.19.01-4.6-1.79-6.04,0,0-.02,0-.02-.01-.01-.01-.02-.02-.03-.03-.55-.33-1.26-.16-1.6.39-.05.08-.09.17-.12.27-.08.35-.1.73-.15,1.08-.09.66-.18,1.33-.28,1.99-.02.33-.07.67-.14.99-.08.28-.19.18-.44.14l-1.01-.14c-.43-.06-1.21.02-1.19-.59.03-.42.09-.84.18-1.26l.26-1.89c.09-.36.13-.73.13-1.11-.03-.39-.37-.69-.76-.66,0,0-.02,0-.03,0-.02-.78-.12-1.75.54-2.29Zm9.04,27.58h-1.33v-1.79h12.1v1.79h-10.77Zm-2.19.3l-2.92,1.95c-.37.19-.6.56-.61.97-.02.5,0,1,0,1.5h-2.27c.42-.54.68-1.18.75-1.85.17-1.59.31-3.18.43-4.77h4.62v2.2ZM2.26,7.52c.13-.91.51-1.76,1.09-2.47.27-.33,1.59-1.69,2-1.27.22.22.04.78,0,1.03l-.24,1.7c-.09.63-.57,2.05.17,2.45.39.14.81.22,1.23.23.47.06.95.16,1.42.2.58.1,1.15-.26,1.31-.83.09-.41.12-.84.17-1.25l.26-1.89c.03-.24.06-.47.1-.7.02-.14.01-.43.2-.33,1.5,1.21,2.22,3.15,1.86,5.04-.32,1.69-1.49,3.09-3.1,3.71-3.51,1.28-7.02-2.09-6.49-5.62Zm2.27,26.88c-1.57.16-3.04-.8-3.53-2.3-.2-.64-.22-1.32-.07-1.98.55-2.95,1.12-5.88,1.69-8.82l1.55-8.1c1.25.7,2.71.91,4.1.6.1-.02.2-.06.3-.09l-1.47,17c-.14,1.61-.68,3.4-2.56,3.69Zm20.74-1.23h-15.03c0-.53-.01-1.06,0-1.59,0-.11.02-.22.05-.33h19.05s.03.05.05.07c.07.38.08.76.03,1.14v.71h-4.15Zm2.34-3.15l1.13.75c.07.05.15.1.24.15H10.5c.12-.11.26-.2.4-.29l2.42-1.62h12.74c.49.37,1.01.7,1.54,1.01Zm5.42-3.82c-.65.04-1.3.04-1.94,0h-4.37c-.02-.06-.08-.1-.22-.1-.05,0-.1,0-.16,0h-12.84c-.15,0-.3.04-.44.11h-4.74c.09-1.11.18-2.22.27-3.33.03-.31.05-.61.08-.92h25.46v1.96c0,.87.06,2.13-1.11,2.29Z"/>
  <path class="cls-2" d="m4.6,29.77c-.71-.2-1.47.02-1.97.56-.37.44-.42,1.07-.11,1.55.39.52,1.06.74,1.69.55.72-.11,1.27-.72,1.31-1.45-.02-.56-.39-1.05-.93-1.21Zm-.11,2.01c-.05.07-.11.14-.18.19-.02.01-.03.02-.05.04.07-.05-.01,0-.03.01h-.01s-.01.02-.01.02c0,0-.04.01-.05.02h-.05s-.04,0-.04,0h-.02s-.05,0-.08-.01h-.04s-.05-.03-.08-.04c-.19-.07-.36-.2-.48-.37-.24-.34-.27-.79-.07-1.16.03-.05.06-.09.09-.13.02-.02.03-.04.05-.06,0,0,.05-.06.02-.02.04-.03.08-.06.11-.09h0s.14-.07.04-.03h.03s.03-.02.03-.02h.09s.05,0,.08.01h.05c.46.15.78.58.77,1.07,0,.2-.07.4-.18.57Z"/>
  <path class="cls-2" d="m21.16,23.74h-2.36c-.22-.02-.43.07-.56.25-.09.18.08.31.25.31h2.36c.22.02.43-.07.56-.25.09-.17-.08-.31-.25-.31Z"/>
</svg>