<?xml version="1.0" encoding="UTF-8"?>
<svg id="Layer_1" data-name="Layer 1" xmlns="http://www.w3.org/2000/svg" viewBox="0 0 35 35">
  <defs>
    <style>
      .cls-1 {
        fill: #f47721;
      }

      .cls-1, .cls-2, .cls-3, .cls-4 {
        stroke-width: 0px;
      }

      .cls-3 {
        fill: #fff;
      }

      .cls-4 {
        fill: #c1dbf0;
      }
    </style>
  </defs>
  <path class="cls-3" d="m2.9,34.86c-.16,0-.29-.13-.29-.29,0-.1.05-.2.14-.25l8.79-5.46-9.97,5.75c-.14.08-.32.04-.4-.1-.08-.14-.04-.32.1-.4l1.88-1.14-2.11,1.22c-.14.08-.32.03-.4-.11-.08-.14-.03-.31.1-.39l9.95-6.15L.66,33.32c-.14.08-.32.02-.4-.12-.07-.13-.03-.3.1-.39l8.79-5.4L.61,32.34c-.14.08-.32.02-.4-.12-.07-.13-.03-.3.1-.38l8.25-5.07L.61,31.36c-.14.08-.32.02-.4-.12-.07-.13-.03-.3.1-.39l12.98-8.12L.61,30.06c-.14.08-.32.02-.4-.12-.07-.13-.03-.3.1-.39l7.7-4.72L.61,29.11c-.14.08-.32.02-.4-.12-.07-.13-.03-.3.1-.39l6.45-3.94-6.15,3.55c-.14.08-.32.02-.4-.12-.07-.14-.03-.31.1-.39l4.73-2.88-4.43,2.56c-.14.08-.32.03-.4-.11-.08-.14-.04-.31.1-.4l13.26-8.33L.6,26.04c-.14.08-.32.02-.4-.12-.07-.13-.03-.29.09-.38l11.19-7.03L.6,24.79c-.14.08-.32.03-.4-.12-.07-.13-.03-.3.1-.39l10.05-6.36L.6,23.55c-.14.08-.32.02-.4-.12-.07-.13-.03-.3.09-.38l8.43-5.35L.6,22.39c-.14.08-.32.03-.4-.11-.08-.14-.04-.31.09-.4l8.91-5.81L.61,21.04c-.14.08-.32.03-.4-.11-.08-.14-.03-.31.1-.39l3.93-2.48-3.63,2.09c-.14.08-.32.02-.4-.12-.07-.13-.03-.29.09-.38l6.81-4.56-6.5,3.75c-.14.08-.32.03-.4-.12-.07-.13-.03-.3.09-.39l3.67-2.4-3.36,1.94c-.14.08-.32.03-.4-.11-.07-.13-.04-.29.08-.38l5-3.55-4.68,2.7c-.14.08-.32.03-.4-.11-.07-.13-.04-.3.09-.38l2.67-1.86-2.35,1.35c-.14.08-.32.03-.4-.11-.07-.13-.04-.3.09-.38l1.19-.82-.87.5c-.14.08-.32.03-.4-.11-.07-.13-.04-.28.07-.38l2.04-1.64-1.7.98c-.14.08-.32.03-.4-.11-.07-.12-.04-.27.06-.36l1.07-.95-.73.42c-.14.08-.32.03-.4-.11-.05-.08-.05-.18-.01-.27l.49-1.04c-.12.02-.23-.04-.29-.14-.08-.14-.03-.32.11-.4l.7-.4c.14-.08.32-.03.4.11.05.08.05.18.01.27l-.47,1,2.41-1.39c.14-.08.32-.03.4.11.07.12.04.27-.06.36l-1.07.96,2.48-1.43c.14-.08.32-.03.4.11.07.12.04.28-.07.37l-2.04,1.65,3.69-2.13c.14-.08.32-.03.4.11.07.13.04.3-.09.38l-1.19.83,2.3-1.33c.14-.08.32-.03.4.11.07.13.04.3-.09.38l-2.67,1.86,4.08-2.36c.14-.08.32-.03.4.11.07.13.04.29-.08.38l-5,3.55,7.01-4.05c.14-.08.32-.03.4.11.08.13.04.31-.09.39l-3.67,2.4,5.03-2.9c.14-.08.32-.03.4.11.07.13.03.3-.09.38l-6.81,4.56,8.78-5.07c.14-.08.32-.03.4.12.07.13.03.3-.1.39l-3.93,2.49,5.18-2.99c.14-.08.32-.03.4.12.07.13.03.3-.09.39l-8.91,5.81,10.95-6.32c.14-.08.32-.02.4.12.07.13.03.3-.09.38l-8.42,5.35,10.14-5.85c.14-.08.32-.04.4.1.08.14.04.32-.1.4h0l-10.05,6.36,11.9-6.87c.14-.08.32-.02.4.12.07.13.03.3-.1.39l-11.19,7.03,13.06-7.54c.14-.08.32-.04.4.1.08.14.04.32-.1.4l-13.27,8.34,13.39-7.73c.14-.08.32-.04.4.1.08.14.04.32-.1.4l-4.72,2.87,4.42-2.55c.14-.08.32-.02.4.12.07.13.03.3-.1.39l-6.45,3.94,6.15-3.55c.14-.08.32-.03.4.11.08.14.03.31-.1.4l-7.7,4.71,7.4-4.27c.14-.08.32-.02.4.12.07.13.03.3-.1.39l-12.98,8.12,12.68-7.32c.14-.08.32-.03.4.12.08.14.03.31-.1.39l-8.25,5.07,7.95-4.59c.14-.08.32-.03.4.12.08.14.03.31-.1.39l-8.77,5.39,8.47-4.89c.14-.08.32-.04.4.1.08.14.04.32-.1.4l-9.96,6.15,9.65-5.57c.14-.08.32-.02.4.12.07.14.03.31-.1.39l-1.88,1.14,1.58-.91c.14-.08.32-.03.4.11.08.14.03.31-.1.39l-8.79,5.45,8.49-4.9c.14-.08.32-.02.4.12.07.14.03.31-.1.39l-1.21.74.91-.53c.14-.08.32-.02.4.12.07.13.03.3-.09.38l-10.21,6.53,9.9-5.71c.14-.08.32-.04.4.1.08.14.04.32-.1.4h0l-7,4.42,6.69-3.86c.14-.08.32-.02.4.12.07.13.03.3-.1.39l-3.74,2.34,3.44-1.99c.14-.08.32-.02.4.12.07.13.03.3-.09.38l-5.27,3.38,4.97-2.87c.14-.08.32-.03.4.11.08.14.04.31-.1.4l-1.36.86,1.06-.61c.14-.08.32-.03.4.12.07.13.03.3-.09.38l-5.16,3.44,4.85-2.8c.14-.08.32-.03.4.11.08.13.04.3-.09.39l-4.88,3.4,4.56-2.63c.14-.08.32-.02.4.12.07.13.03.29-.09.38l-1.74,1.17,1.43-.82c.14-.08.32-.03.4.11.08.13.04.3-.08.38l-2.98,2.22,2.66-1.53c.14-.08.32-.03.4.11.07.13.04.3-.09.39l-.34.24h.02c.14-.1.32-.05.4.09.07.12.05.28-.06.37l-1.7,1.6,1.35-.78c.14-.08.32-.03.4.11.06.1.05.23-.02.32l-.67.88c.16-.03.31.08.34.24.02.12-.04.24-.14.3l-1.13.65c-.14.09-.32.04-.41-.1-.07-.11-.06-.24.02-.34l.64-.84-2.29,1.32c-.13.07-.29.04-.38-.08-.09-.12-.07-.29.03-.39l1.7-1.6-3.59,2.07c-.14.08-.32.03-.4-.12-.07-.13-.04-.29.08-.38l.35-.24-1.28.74c-.14.08-.32.03-.4-.11-.08-.13-.04-.3.08-.38l2.98-2.22-4.69,2.71c-.14.08-.32.02-.4-.12-.07-.13-.03-.29.09-.38l1.74-1.17-2.89,1.67c-.14.08-.32.03-.4-.11-.07-.13-.04-.3.09-.39l4.87-3.4-6.75,3.9c-.14.08-.32.03-.4-.11-.07-.13-.04-.3.09-.39l5.16-3.44-6.83,3.94c-.14.08-.32.03-.4-.11-.08-.14-.03-.31.1-.39l1.37-.86-2.36,1.36c-.14.08-.32.02-.4-.12-.07-.13-.03-.3.09-.38l5.27-3.38-6.73,3.88c-.14.08-.32.03-.4-.11-.08-.14-.03-.31.1-.39l3.75-2.35-4.94,2.85c-.14.08-.32.03-.4-.11-.08-.14-.04-.31.1-.39l6.99-4.42-8.54,4.93c-.14.08-.32.02-.4-.12-.07-.13-.03-.3.09-.38l10.21-6.53-12.19,7.04c-.14.08-.32.02-.4-.12-.07-.13-.03-.3.1-.39l1.2-.73-2.15,1.24s-.1.04-.15.04h0Z"/>
  <path class="cls-4" d="m.69,11.31c-.16,0-.29-.13-.29-.29,0-.09.05-.18.12-.24l1.81-1.31-1.72.99c-.14.08-.32.03-.4-.11-.07-.13-.04-.28.07-.37l1.73-1.37-1.4.81c-.14.08-.32.03-.4-.11-.07-.12-.04-.27.06-.37l.99-.87-.65.37c-.14.08-.32.03-.4-.11-.06-.11-.05-.24.03-.33l.57-.69c-.16-.02-.28-.16-.26-.33.01-.09.06-.17.15-.22l1.14-.66c.14-.08.32-.03.4.11.06.11.05.24-.03.33l-.47.56,1.82-1.05c.14-.08.32-.03.4.11.07.12.04.27-.06.36l-.99.87,2.33-1.34c.14-.08.32-.03.4.11.07.13.04.28-.07.37l-1.73,1.37,3.21-1.85c.14-.08.32-.03.4.11.07.13.04.3-.08.38l-1.81,1.3,3.12-1.8c.14-.08.32-.03.4.11.07.13.04.29-.08.38l-2.11,1.56,3.55-2.05c.14-.08.32-.03.4.12.07.13.04.29-.08.38l-1.05.73,2.13-1.23c.14-.08.32-.03.4.11.07.13.04.29-.07.38l-2.65,2.06,4.41-2.55c.14-.08.32-.03.4.11.07.13.04.29-.08.38l-1.9,1.38,3.24-1.87c.14-.08.32-.03.4.11.07.13.04.29-.08.38l-2.09,1.54,3.52-2.03c.14-.08.32-.03.4.11.07.13.04.29-.08.38l-2.16,1.6,3.62-2.09c.14-.08.32-.03.4.11.07.13.04.28-.07.38l-2.85,2.3,4.82-2.78c.14-.08.32-.03.4.11.07.13.04.28-.07.38l-2.7,2.11,4.51-2.6c.14-.08.32-.03.4.12.07.13.04.29-.08.38l-1.06.74,2.14-1.24c.14-.08.32-.03.4.11.07.13.04.29-.07.38l-2.55,1.97,3.79-2.19c.14-.08.32-.03.4.11.07.13.04.28-.07.38l-2.51,2.01,2.91-1.68c.14-.08.32-.03.4.12.07.13.04.29-.08.38l-.17.12c.15-.07.32,0,.39.14.06.11.03.25-.06.34l-1.35,1.3,1.01-.58c.14-.08.32-.03.4.11.06.1.05.23-.02.33l-.45.57.08-.05c.14-.08.32-.03.4.11.08.14.03.32-.11.4l-1.42.82c-.14.08-.32.03-.4-.11-.06-.1-.05-.23.02-.33l.45-.57-1.75,1.01c-.14.08-.32.04-.4-.1-.07-.12-.05-.27.05-.36l1.35-1.3-3.06,1.77c-.14.08-.32.03-.4-.11-.07-.13-.04-.29.08-.38l.16-.12-1.06.61c-.14.08-.32.03-.4-.11-.07-.12-.04-.28.07-.37l2.5-2.01-4.33,2.5c-.14.08-.32.03-.4-.11-.07-.13-.04-.29.08-.38l2.55-1.96-4.25,2.45c-.14.08-.32.03-.4-.11-.08-.13-.04-.3.09-.39l1.06-.74-2.14,1.24c-.14.08-.32.03-.4-.11-.07-.13-.04-.28.07-.38l2.7-2.11-4.51,2.6c-.14.08-.32.03-.4-.11-.07-.12-.04-.28.07-.37l2.85-2.3-4.82,2.78c-.14.08-.32.03-.4-.11-.07-.13-.04-.29.08-.38l2.16-1.6-3.62,2.09c-.14.08-.32.03-.4-.11-.07-.13-.04-.29.08-.38l2.09-1.54-3.53,2.03c-.14.08-.32.03-.4-.11-.07-.13-.04-.29.08-.38l1.9-1.38-3.24,1.87c-.14.08-.32.03-.4-.11-.07-.13-.04-.29.07-.38l2.65-2.06-4.41,2.55c-.14.08-.32.03-.4-.11-.08-.13-.04-.3.09-.39l1.05-.73-2.13,1.23c-.14.08-.32.03-.4-.11-.07-.13-.04-.29.08-.38l2.11-1.56-3.55,2.05s-.1.04-.15.04h0Z"/>
  <path class="cls-1" d="m18.7,17.16c-.16,0-.29-.13-.29-.29,0-.08.03-.15.09-.21l.95-.96-1.13.65c-.14.08-.32.03-.4-.11-.07-.12-.04-.28.06-.37l.36-.31c-.1,0-.19-.03-.25-.11-.09-.12-.08-.28.02-.39l.33-.33c-.06,0-.11-.03-.15-.06-.09-.08-.13-.2-.1-.32l.29-.94s-.03-.04-.05-.06c-.08-.14-.03-.32.11-.4l.21-.12c.14-.08.32-.03.4.11.04.07.05.16.03.24l-.2.63.89-.51c.14-.08.32-.03.4.11.06.11.05.26-.04.35l-.18.18.57-.33c.14-.08.32-.03.4.11.07.12.04.27-.06.37l-.23.2.33-.19c.14-.08.32-.03.4.11.07.11.05.26-.05.35l-.95.96.97-.56c.09-.05.2-.05.29,0,.09.05.15.14.15.25l.02.69c.15-.05.32.03.37.19.04.13-.01.28-.13.35l-.37.21c-.09.05-.2.05-.29,0-.09-.05-.15-.14-.15-.25l-.02-.68-2.44,1.41s-.1.04-.15.04h0Z"/>
  <path class="cls-1" d="m21.88,16.43c-.16,0-.29-.13-.29-.29,0-.08.04-.16.1-.22l1.12-1-1.43.82c-.14.08-.32.03-.4-.11-.07-.13-.04-.29.08-.38l1.92-1.41-2.23,1.28c-.14.08-.32.03-.4-.11-.08-.13-.04-.3.08-.39l4.66-3.3-5.17,2.98c-.14.08-.32.03-.4-.11-.08-.13-.04-.3.09-.39l5.73-3.91-6.23,3.6c-.14.08-.32.03-.4-.11-.08-.14-.04-.31.1-.39l.73-.46c-.16.03-.31-.08-.34-.24-.02-.12.03-.23.13-.3l3.34-2.21-.75.43c-.14.08-.32.04-.4-.1-.08-.14-.04-.31.09-.4l1.7-1.11c-.15-.06-.23-.23-.17-.38.02-.05.05-.09.09-.13l3.37-2.69c-.16-.01-.28-.16-.27-.32,0-.07.04-.14.1-.19l1.82-1.66c-.02-.12.04-.23.14-.29l.51-.29c.14-.08.32-.03.4.11.07.12.04.26-.05.36l-.41.37.58-.33c.14-.08.32-.03.4.11.07.13.04.28-.07.37l-3.08,2.46,3.62-2.09c.14-.08.32-.04.4.1.08.14.04.31-.09.4l-.15.1.28-.16c.14-.09.32-.04.41.1s.04.32-.1.41l-3.34,2.21,3.64-2.1c.14-.08.32-.03.4.11.08.14.04.31-.1.39l-.32.21.46-.27c.14-.08.32-.03.4.11.07.13.04.3-.09.38l-5.73,3.91,3.95-2.28c.14-.08.32-.03.4.11.08.13.04.3-.08.39l-4.66,3.3,1.31-.76c.14-.08.32-.03.4.11.07.13.04.29-.08.38l-2.43,1.79c.07.01.14.06.19.12.09.12.07.29-.04.39l-2.34,2.1c.05.14,0,.29-.13.36l-.81.47s-.09.04-.15.04h0Z"/>
  <path class="cls-1" d="m32.12,6.24c-.16,0-.29-.13-.29-.29,0-.07.03-.15.08-.2l1.14-1.23-1.57.9c-.14.08-.32.03-.4-.11-.07-.11-.05-.26.04-.35l1.35-1.42-1.82,1.05c-.14.08-.32.03-.4-.11-.06-.11-.05-.25.04-.35l1.38-1.47-1.87,1.08c-.14.08-.32.03-.4-.11-.07-.13-.04-.28.07-.38l.21-.17-.33.19c-.14.08-.32.03-.4-.12-.06-.11-.04-.25.05-.35l1.48-1.49c-.13-.09-.16-.28-.07-.41.02-.03.06-.06.09-.08l1.14-.66c.14-.08.32-.03.4.12.06.11.04.25-.05.35l-1.01,1.02,1.66-.96c.14-.08.32-.03.4.11.07.13.04.28-.07.38l-.21.17.33-.19c.14-.08.32-.03.4.11.06.11.05.25-.04.35l-1.38,1.47,1.87-1.08c.14-.08.32-.03.4.11.06.11.05.25-.04.35l-1.35,1.42,1.5-.86c.14-.08.32-.03.4.11.06.11.05.25-.04.34l-1.77,1.91s0,.01.01.02c.08.14.03.32-.11.4l-.67.39s-.1.04-.15.04h0Z"/>
  <path class="cls-3" d="m31.25,7.18c-.16,0-.29-.13-.29-.29,0-.06.02-.13.06-.18l.57-.78-.89.51c-.14.08-.32.03-.4-.11-.05-.09-.05-.2,0-.3l.66-1.1-1.12.65c-.14.08-.32.03-.4-.11-.06-.11-.05-.24.03-.33l.46-.57-.7.4c-.14.08-.32.04-.4-.1-.06-.11-.05-.25.03-.34l.42-.49-.62.36c-.14.08-.32.03-.4-.11-.05-.09-.05-.21,0-.3l.85-1.33s-.06-.05-.08-.09c-.08-.14-.03-.32.11-.4l.51-.29c.14-.08.32-.03.4.11.05.09.05.21,0,.3l-.64.99,1.05-.61c.14-.08.32-.03.4.11.06.11.05.24-.03.34l-.42.49.62-.36c.14-.08.32-.03.4.11.06.11.05.24-.03.33l-.46.57.7-.4c.12-.07.26-.05.36.05.09.1.11.24.04.36l-.66,1.1,1.12-.65c.14-.08.32-.03.4.11.06.1.05.23-.02.32l-.92,1.25s.02.03.03.05c.08.14.03.32-.11.4l-.5.29s-.1.04-.15.04Z"/>
  <path class="cls-3" d="m5.92,20.72c-.16,0-.29-.13-.29-.29,0-.1.05-.19.13-.24l2.07-1.37-3.25,1.87c-.14.08-.32.03-.4-.12-.07-.13-.03-.3.09-.38l2.47-1.63-3.51,2.03c-.14.08-.32.04-.4-.1-.08-.14-.04-.31.09-.4l1.83-1.2-1.78,1.03c-.14.08-.32.03-.4-.11-.07-.13-.04-.3.09-.39l1.98-1.32-1.67.96c-.14.08-.32.03-.4-.11-.08-.13-.04-.3.08-.39l2.93-2.14-2.61,1.51c-.14.08-.32.03-.4-.11-.08-.13-.04-.3.09-.39l.29-.2c-.15.07-.32,0-.39-.14-.06-.12-.03-.26.07-.34l1.9-1.74-1.56.9c-.14.08-.32.03-.4-.11-.06-.11-.05-.26.05-.35l.64-.64-.29.17c-.14.08-.32.03-.4-.11-.05-.09-.05-.2,0-.29l.27-.5c-.16-.02-.27-.17-.25-.33.01-.09.07-.17.14-.22l.66-.38c.14-.08.32-.03.4.11.05.09.05.2,0,.29l-.21.39,1.36-.79c.14-.08.32-.03.4.11.06.11.05.26-.05.35l-.65.64,1.91-1.1c.14-.08.32-.03.4.11.07.12.04.27-.05.36l-1.9,1.74,3.83-2.21c.14-.08.32-.03.4.11.07.13.04.3-.09.38l-.28.2,1.2-.69c.14-.08.32-.03.4.11.08.13.04.3-.08.39l-2.93,2.14,4.55-2.63c.14-.08.32-.02.4.12.07.13.03.29-.09.38l-1.98,1.33,3.16-1.83c.14-.08.32-.02.4.12.07.13.03.3-.09.38l-1.83,1.2,2.95-1.7c.14-.08.32-.02.4.12.07.13.03.29-.09.38l-2.47,1.63,2.81-1.62c.14-.08.32-.03.4.11.07.13.04.3-.09.39l-2.06,1.37,1.77-1.02c.14-.08.32-.03.4.11.08.14.04.31-.09.39l-.58.39.27-.16c.14-.08.32-.03.4.11.08.13.04.3-.09.39l-.52.35.21-.12c.14-.08.32-.03.4.11.07.13.04.29-.08.38l-1.49,1.1,1.16-.67c.14-.08.32-.03.4.11.07.12.04.27-.05.36l-1.62,1.48,1.27-.73c.14-.08.32-.03.4.11.06.11.05.24-.03.34l-.67.79.29-.17c.14-.08.32-.02.4.12.07.14.03.3-.1.39l-1.75,1.01c-.14.08-.32.03-.4-.11-.06-.11-.05-.24.03-.34l.66-.79-2.13,1.23c-.14.08-.32.03-.4-.11-.07-.12-.04-.27.05-.36l1.62-1.48-3.39,1.95c-.14.08-.32.03-.4-.11-.07-.13-.04-.29.08-.38l1.49-1.1-2.76,1.59c-.14.08-.32.03-.4-.12-.07-.13-.03-.3.09-.38l.52-.35-1.48.85c-.14.08-.32.03-.4-.11-.08-.13-.04-.3.09-.39l.58-.38-1.53.88s-.09.04-.15.04h0Z"/>
  <path class="cls-3" d="m16,32.5c-.16,0-.29-.13-.29-.29,0-.1.05-.19.13-.25l1.12-.74-2.15,1.24c-.14.08-.32.03-.4-.11-.07-.13-.04-.3.09-.39l2.7-1.8-3.98,2.3c-.14.08-.32.03-.4-.11-.07-.13-.04-.3.09-.38l4.3-2.99-4.81,2.78c-.14.08-.32.03-.4-.11-.07-.13-.04-.3.09-.39l2.21-1.48-1.9,1.09c-.14.08-.32.02-.4-.12-.07-.13-.03-.29.09-.38l.81-.54-.5.29c-.14.08-.32.03-.4-.11-.07-.12-.04-.28.07-.37l2.85-2.29-2.51,1.45c-.14.08-.32.03-.4-.11-.07-.12-.04-.26.05-.35l1.75-1.68-1.4.81c-.15.07-.32.02-.4-.13-.06-.11-.04-.25.05-.34l.2-.17c-.08,0-.15-.04-.21-.08-.09-.09-.12-.23-.06-.35l.28-.52c-.16-.02-.28-.16-.26-.32,0-.09.06-.18.15-.22l.66-.38c.11-.07.26-.05.35.04.09.09.12.23.06.35l-.23.43,1.43-.82c.14-.08.32-.03.4.11.07.12.04.27-.06.36l-.05.04.9-.52c.14-.08.32-.04.4.1.07.12.05.27-.05.37l-1.75,1.68,3.72-2.15c.14-.08.32-.03.4.11.07.12.04.28-.07.37l-2.85,2.29,4.81-2.77c.14-.08.32-.03.4.11.07.13.03.3-.09.38l-.8.54,1.8-1.04c.14-.08.32-.03.4.11.07.13.03.3-.09.38l-2.21,1.48,3.44-1.98c.14-.08.32-.03.4.11.07.13.04.3-.09.38l-4.3,2.98,5.75-3.32c.14-.08.32-.03.4.11.08.13.04.3-.09.39l-2.7,1.8,2.59-1.49c.14-.08.32-.03.4.11.08.14.04.31-.09.39l-1.12.74.81-.46c.14-.08.32-.03.4.11.07.13.03.3-.09.38l-.78.53.47-.27c.14-.08.32-.03.4.11.07.12.04.28-.07.37l-2.75,2.26,2.42-1.4c.14-.08.32-.03.4.11.07.13.04.29-.08.38l-.35.26h.03c.14-.1.32-.05.4.09.06.11.05.25-.03.34l-.98,1.11.61-.35c.12-.07.27-.05.36.05.09.1.11.25.03.37l-.22.32c.16.03.26.19.23.35-.02.08-.07.16-.14.2l-.81.47c-.14.08-.32.03-.4-.11-.06-.1-.05-.22.01-.31l.13-.19-1.05.61c-.14.08-.32.03-.4-.11-.06-.11-.05-.25.03-.34l.98-1.11-2.71,1.56c-.14.08-.32.03-.4-.11-.07-.13-.04-.29.08-.38l.35-.26-1.31.75c-.14.08-.32.03-.4-.11-.07-.12-.04-.28.07-.37l2.75-2.26-4.75,2.74c-.14.08-.32.03-.4-.11-.07-.13-.03-.3.09-.38l.78-.53-1.78,1.02s-.1.04-.15.04h0Z"/>
  <g>
    <path class="cls-2" d="m27.97,10.82l3.52-3.52c.06-.02.11-.05.15-.08.07-.05.11-.12.13-.2l1.18-1.18c.87-.87,2.85-2.23,1.71-3.58-.56-.65-1.17-1.25-1.83-1.8-.74-.47-1.72-.34-2.32.3-.39.37-.78.76-1.16,1.14l-.02.02c-.49.49-.97.98-1.46,1.47-.05.02-.1.05-.15.08-.07.05-.11.12-.13.2l-2.39,2.39H3.97c-1.1,0-2.4-.18-3.29.63C-.16,7.45.01,8.58.01,9.6v23.02c0,1.43.95,2.21,2.33,2.21h22.49c1.41,0,3.05-.32,3.13-2.07.15-3.09,0-6.22,0-9.31v-12.63Zm-.73-.13s-.07.06-.1.1l-3.86,3.86-1.17,1.17c-.87-.87-1.74-1.74-2.61-2.61l-.3-.3c.45-.43.88-.88,1.32-1.32l.33-.33c.08-.04.14-.1.18-.18l6.9-6.9,1.25,1.25-6.18,6.18-.9.9c-.34.34.49.31.68.12l6.33-6.32.47-.47,1.02,1.02.24.24-.76.76-2.84,2.84Zm-8.65,5.24c.06-.54.16-1.07.29-1.6.03-.17.06-.34.08-.51l2.27,2.27.1.11-2.06.37c-.08.01-.31.1-.38.07-.14-.15-.25-.33-.33-.52,0-.06.03-.14.04-.19h0ZM31.26.86c.62-.43,1.08.21,1.47.6l1.14,1.14c.77.92-.14,1.64-.78,2.25l-2.6-2.6-.31-.31c.33-.39.69-.75,1.08-1.08h0Zm-1.65,1.65l2.6,2.6.31.31-1.09,1.09-2.67-2.67-.24-.24,1.09-1.09ZM1.37,6.83c.36-.25.8-.36,1.24-.28h22.11l-1.94,1.94h-3.8c-.21,0-.42.05-.6.16-.12.08-.13.19.05.19h4l-1.89,1.89H.87v-.94c0-.88-.25-2.3.5-2.95h0Zm24.52,27.5c-.98.09-2.01,0-2.99,0H4.29c-.94,0-2.38.25-3.05-.57-.61-.76-.37-2.23-.37-3.14V11.32h19.08l-.92.92c-.15.15-.35.31-.51.47-.11.06-.29.24-.24.39-.04.16-.07.32-.09.49-.1.54-.19,1.07-.29,1.61-.14.78-.49,2.02.77,1.95.85-.09,1.7-.24,2.53-.44.2-.04.41-.06.61-.1.26.11.56-.02.66-.28,0,0,0-.01,0-.02.37-.33.71-.71,1.06-1.06l3.58-3.58v19.92c0,1.03.21,2.62-1.23,2.75h0Z"/>
    <path class="cls-2" d="m2.45,20.27c.05.1.13.18.22.24.07.08.17.13.27.13.76.14,1.53.16,2.3.06h9.78s.06,0,.09,0c.2-.02.39-.09.57-.19.14-.06.26-.16.28-.25.16-.25.24-.55.22-.86v-4.9c0-.48.05-1.01-.38-1.26-.04-.02-.08-.04-.13-.05-.03-.01-.06-.03-.09-.04-.31-.05-.62-.06-.93-.03h-7.54c-1.17,0-2.35-.05-3.52,0-.28,0-.55.08-.79.22-.07.03-.13.08-.18.14-.16.16-.25.38-.26.61-.05.63,0,1.29,0,1.93v2.69c-.08.52-.05,1.05.08,1.56h0Zm6.11-3.33l-3.15,1.72-2.17,1.19s-.02-.05-.02-.09c-.04-.57-.04-1.14,0-1.7,0-1.34-.03-2.69,0-4.03l5.34,2.92Zm-4.63,3.25l5.29-2.89,3.38,1.84,1.92,1.05H3.94Zm11.38-6.21s.01.03.02.05c.05.58.05,1.16,0,1.74v2.83c.03.4.03.81.01,1.21l-5.35-2.92,3.15-1.72,2.18-1.19Zm-10.07-.35h9.15c.08,0,.16,0,.24,0l-5.31,2.9-3.38-1.84-1.92-1.05h1.21Z"/>
    <path class="cls-2" d="m25.31,25.09s-.01-.02-.02-.03-.02,0-.03-.01c-.08-.05-.16-.09-.25-.12-.31-.05-.62-.06-.93-.03h-7.54c-1.17,0-2.35-.05-3.52,0-.62.02-1.17.3-1.23.97-.05.63,0,1.29,0,1.93v2.69c-.08.52-.05,1.05.08,1.56.05.09.12.17.21.23,0,.01.02.03.03.04.05.03.1.05.16.05.67.29,1.88.11,2.39.11h9.77s.01,0,.02,0c.03,0,.06,0,.09,0,.62-.02,1.1-.54,1.08-1.15,0-.05,0-.09-.01-.14v-4.9c0-.44.04-.93-.3-1.2h0Zm-.59.61s.03.07.04.11c.05.58.05,1.16,0,1.74v2.83c.03.42.03.84.01,1.25l-5.46-2.98,3.34-1.82,2.08-1.13Zm-10.06-.29h9.12c.13,0,.28-.01.42-.01-1.81.99-3.62,1.98-5.43,2.96l-3.33-1.82-2.08-1.13h1.31Zm-1.97,6.27c-.02-.05-.03-.11-.04-.17-.04-.56-.04-1.13,0-1.69,0-1.35-.03-2.72,0-4.08l5.45,2.97-3.34,1.82-2.08,1.13Zm.68.29h-.14l5.41-2.95,3.33,1.82,2.08,1.13h-10.68Z"/>
    <path class="cls-2" d="m2.64,8.94h.59c.06,0,.11,0,.17-.01.06,0,.12-.02.17-.05.05-.02.09-.05.13-.08.04-.03.07-.06.09-.1.04-.06.04-.15,0-.21-.06-.06-.15-.1-.24-.1h-.59c-.06,0-.11,0-.17.01-.06,0-.12.02-.17.05-.05.02-.09.05-.13.08-.04.03-.07.06-.09.1-.04.06-.04.15,0,.21.06.06.15.1.24.1Z"/>
    <path class="cls-2" d="m5.58,8.91h.59c.12,0,.23-.02.34-.07.05-.02.09-.05.13-.08.04-.02.07-.05.09-.09.04-.05.04-.13,0-.18-.06-.06-.15-.08-.23-.08h-.59c-.12,0-.23.02-.34.07-.05.02-.09.05-.13.08-.04.02-.07.05-.09.09-.04.05-.04.13,0,.18.06.06.15.08.23.08Z"/>
    <path class="cls-2" d="m8.34,8.84c.05.01.11.02.17.02h.59c.06,0,.11-.01.16-.02.06-.01.11-.03.17-.05.05-.02.09-.04.14-.07.04-.02.07-.04.1-.07.03-.04.06-.09.01-.13l-.05-.03c-.05-.01-.11-.02-.17-.02h-.59c-.06,0-.11.01-.16.02-.06.01-.11.03-.17.05-.05.02-.09.04-.14.07-.04.02-.07.04-.1.07-.03.04-.06.09-.01.13l.05.03Z"/>
    <path class="cls-2" d="m18.55,20.73h6.48c.22.02.43-.07.56-.25.09-.18-.07-.32-.25-.32h-6.48c-.22-.02-.43.07-.56.25-.09.18.07.32.25.32h0Z"/>
    <path class="cls-2" d="m2.63,25.37h6.48c.16,0,.48-.06.57-.22s-.07-.21-.22-.21H2.97c-.16,0-.48.06-.57.22s.07.21.22.21Z"/>
    <path class="cls-2" d="m9.45,27.29H2.97c-.17,0-.48.06-.56.23s.07.23.22.23h6.48c.17,0,.48-.06.56-.23s-.07-.23-.22-.23Z"/>
    <path class="cls-2" d="m6.46,29.71h-.44c-.21,0-.42.06-.6.16-.13.08-.12.16.04.16h3.53c.21,0,.42-.06.6-.16.13-.08.12-.16-.04-.16h-3.1Z"/>
    <path class="cls-2" d="m3.04,30.05h.07c.11,0,.21-.01.31-.04.1-.02.2-.07.29-.12l.06-.05s.04-.05.04-.09c-.02-.05-.1-.07-.15-.07h-.59c-.11,0-.21.01-.31.04-.1.02-.2.07-.29.12l-.06.05s-.04.05-.04.09c.02.05.1.07.15.07h.52Z"/>
    <path class="cls-2" d="m7.68,32.01H2.97c-.21-.01-.42.07-.57.22-.11.16.09.21.22.21h4.71c.21.01.42-.07.57-.22.11-.16-.09-.21-.22-.21Z"/>
    <path class="cls-2" d="m25.35,22.54h-1.18c-.12,0-.23.02-.34.06-.09.04-.17.1-.23.18-.04.06-.04.13,0,.19.06.06.15.09.24.08h1.18c.12,0,.23-.02.34-.06.09-.04.17-.1.23-.18.04-.06.04-.13,0-.19-.06-.06-.15-.09-.24-.08Z"/>
    <path class="cls-2" d="m21.48,23.04c.32,0,.91-.48.33-.48H2.97c-.32,0-.91.48-.33.48h18.85Z"/>
  </g>
</svg>