<?xml version="1.0" encoding="UTF-8"?>
<svg id="Layer_1" data-name="Layer 1" xmlns="http://www.w3.org/2000/svg" viewBox="0 0 35 35">
  <defs>
    <style>
      .cls-1 {
        fill: #f47721;
      }

      .cls-1, .cls-2, .cls-3, .cls-4 {
        stroke-width: 0px;
      }

      .cls-3 {
        fill: #c1dbef;
      }

      .cls-4 {
        fill: #c1dbf0;
      }
    </style>
  </defs>
  <path class="cls-4" d="m13.44,33c-.1,0-.19-.05-.25-.13-.08-.13-.05-.3.07-.4l2.94-2.12-3.41,1.97c-.14.08-.31.04-.39-.1-.08-.13-.05-.31.08-.4l1.94-1.33-2.37,1.37c-.13.08-.31.04-.39-.09-.08-.13-.05-.31.08-.4l3.68-2.64-3.55,2.05c-.13.08-.31.04-.39-.09-.08-.13-.05-.31.08-.4l3.36-2.39-1.69.98c-.13.08-.31.04-.39-.09-.09-.13-.06-.3.07-.4l2.93-2.19-1.59.92c-.13.08-.3.04-.39-.09-.09-.13-.06-.3.06-.39l2.46-1.92-1.62.93c-.13.08-.3.04-.39-.09-.09-.13-.06-.3.06-.39l1.97-1.55-1.36.79c-.13.08-.31.04-.39-.09-.09-.13-.05-.3.07-.4l.31-.23c-.09.01-.18-.03-.24-.1-.09-.11-.09-.27,0-.38l.93-1.14-.43.25c-.11.06-.23.05-.33-.02s-.13-.2-.1-.31l.16-.53s-.08-.06-.11-.11c-.08-.14-.03-.32.11-.4l.29-.17c.1-.06.24-.05.33.03.09.07.13.2.1.31l-.1.33,1.17-.68c.12-.07.28-.04.37.06.09.11.09.27,0,.38l-.93,1.14,2.75-1.59c.13-.08.31-.04.39.09.09.13.05.3-.07.4l-.08.06.43-.25c.13-.08.3-.04.39.09.09.13.06.3-.06.39l-1.97,1.55,1.69-.98c.13-.08.3-.04.39.09.09.13.06.3-.06.39l-2.46,1.92,2.25-1.3c.13-.08.3-.04.39.09.09.13.06.3-.07.4l-2.93,2.19,2.79-1.61c.13-.08.31-.04.39.09.08.13.05.31-.08.4l-3.36,2.39,3.29-1.9c.13-.08.31-.04.39.09.08.13.05.31-.08.4l-3.68,2.64,3.7-2.14c.14-.08.31-.04.39.1.08.13.05.31-.08.4l-1.94,1.33,1.94-1.12c.13-.08.31-.04.39.09.08.13.05.3-.07.4l-2.94,2.12,3.09-1.78c.13-.08.31-.04.39.09.09.13.05.3-.07.4l-2.1,1.55,2.28-1.32c.13-.08.31-.04.39.09.08.13.05.31-.08.4l-.55.39.64-.37c.13-.08.3-.04.39.09.09.12.06.3-.05.39l-1.45,1.2,1.67-.96c.13-.07.29-.04.38.08.09.12.07.29-.04.39l-1.01.94,1.01-.58c.13-.07.29-.04.38.08.09.12.08.28-.03.39l-1.1,1.07c.08.14.03.31-.11.39l-.77.44c-.13.07-.29.04-.38-.08-.09-.12-.08-.28.03-.39l.22-.21-1.17.68c-.13.07-.29.04-.38-.08-.09-.12-.07-.29.04-.39l1.01-.94-2.45,1.42c-.13.08-.3.04-.39-.09s-.06-.3.05-.39l1.45-1.2-2.91,1.68c-.13.08-.31.04-.39-.09-.08-.13-.05-.31.08-.4l.55-.39-1.53.88c-.13.08-.31.04-.39-.09-.09-.13-.05-.3.07-.4l2.1-1.55-3.54,2.04s-.1.04-.15.04h0Z"/>
  <path class="cls-4" d="m16.09,21.86c-.09,0-.18-.04-.24-.13-.09-.12-.06-.29.05-.39l.17-.14-1.02.59c-.13.08-.29.04-.38-.08-.09-.12-.07-.29.04-.39l.52-.48-.87.5c-.11.06-.25.05-.35-.04-.09-.09-.12-.23-.06-.34l.48-.96-.13.07c-.14.08-.32.03-.4-.11-.08-.14-.03-.32.11-.4l.97-.56c.11-.06.25-.05.35.04.09.09.12.23.06.34l-.48.96,2.33-1.35c.13-.07.29-.04.38.08.09.12.07.29-.04.39l-.52.48,1.65-.95c.13-.08.3-.04.39.09s.06.29-.05.39l-.17.14,1.03-.59c.12-.07.28-.04.37.06.09.11.09.27,0,.37l-.85,1.05,1.33-.77c.12-.07.27-.05.36.05.09.1.1.25.03.36l-.37.55c.11-.01.23.04.29.14.08.14.03.32-.11.4l-.97.56c-.12.07-.27.05-.36-.05-.09-.1-.1-.25-.03-.36l.35-.51-1.61.93c-.12.07-.28.04-.37-.06s-.09-.27,0-.37l.85-1.05-2.57,1.49s-.1.04-.15.04h0Z"/>
  <path class="cls-4" d="m17.36,19.51c-.09,0-.18-.04-.24-.13-.09-.13-.06-.3.05-.39l.28-.23-.89.51c-.13.08-.29.04-.38-.08-.09-.12-.07-.29.04-.39l1.81-1.63-2.48,1.43c-.13.08-.3.04-.39-.09s-.06-.3.07-.4l.72-.54-.83.48c-.13.08-.3.04-.39-.09-.09-.12-.06-.29.05-.39l1.85-1.56-1.87,1.08c-.13.08-.3.04-.38-.08-.09-.12-.07-.29.04-.39l1.55-1.37-1.19.69c-.13.07-.29.04-.38-.08-.09-.12-.08-.28.03-.39l.83-.82c-.08-.02-.15-.06-.2-.14-.08-.14-.03-.32.11-.4l1.57-.91c.13-.07.29-.04.38.08.09.12.08.28-.03.39l-.62.62,1.74-1c.13-.08.3-.04.38.08.09.12.07.29-.04.39l-1.55,1.37,2.22-1.28c.13-.08.3-.04.39.09.09.12.06.29-.05.39l-1.85,1.55,2.16-1.25c.13-.08.3-.04.39.09.09.13.06.3-.07.4l-.72.54.67-.39c.13-.08.29-.04.38.08.09.12.07.29-.04.39l-1.81,1.63,1.54-.89c.13-.08.3-.04.39.09.09.13.06.3-.05.39l-.48.39c.1,0,.19.05.25.15.08.14.03.32-.11.4l-2.7,1.56s-.1.04-.15.04h0Z"/>
  <path class="cls-1" d="m13.51,10.74c-.1,0-.19-.05-.25-.14-.08-.13-.05-.31.08-.4l3.04-2.09-3.74,2.16c-.14.08-.31.04-.39-.1-.08-.13-.05-.31.08-.4l3.5-2.37-3.45,1.99c-.14.08-.31.04-.39-.1-.08-.13-.05-.31.08-.4l4.04-2.75-3.72,2.15c-.14.08-.31.04-.4-.1-.08-.13-.04-.31.09-.4l1.36-.89-1.05.61c-.13.08-.31.04-.39-.1-.08-.13-.05-.31.08-.4l3.94-2.75-3.63,2.1c-.13.08-.31.04-.39-.09-.08-.13-.05-.3.07-.4l3.31-2.43-2.99,1.73c-.13.08-.3.04-.39-.09s-.06-.3.06-.39l2.49-1.99-2.16,1.25c-.13.07-.29.04-.38-.08-.09-.12-.08-.28.03-.39l1.61-1.59-1.26.73c-.12.07-.26.05-.36-.05-.09-.1-.11-.24-.04-.36l.55-.9c-.14.07-.3.02-.38-.12-.08-.14-.03-.32.11-.4l.97-.56c.11-.07.26-.05.36.05.09.1.11.24.04.36l-.54.9,2.26-1.3c.13-.07.29-.04.38.08.09.12.08.28-.03.39l-1.61,1.59,3.55-2.05c.13-.08.3-.04.39.09.09.13.06.3-.06.39l-2.49,1.99L19.74.28c.13-.08.31-.04.39.09.08.13.05.3-.07.4l-3.31,2.43L21.72.32c.13-.08.31-.04.39.1.08.13.05.31-.08.4l-3.94,2.75,4.41-2.55c.14-.08.31-.04.4.1.08.13.04.31-.09.4l-1.36.88,1.13-.65c.14-.08.31-.04.39.1.08.13.05.31-.08.4l-4.04,2.75,3.73-2.15c.14-.08.31-.04.39.1s.05.31-.08.4l-3.5,2.37,3.19-1.84c.14-.08.31-.04.39.1.08.13.05.31-.08.4l-3.04,2.09,2.73-1.57c.13-.08.31-.04.39.1s.05.31-.08.4l-1.98,1.38,1.66-.96c.13-.08.3-.04.39.09s.06.3-.06.39l-2.62,2.15,2.29-1.32c.13-.08.3-.04.39.09.09.13.06.3-.07.4l-.3.23c.12-.06.27-.03.36.08.09.12.08.28-.02.38l-.84.86.48-.28c.12-.07.28-.04.37.07s.09.27,0,.38l-.27.32c.06.02.1.07.14.12.08.14.03.32-.11.4l-.97.56c-.12.07-.28.04-.37-.07s-.09-.27,0-.38l.04-.05-.86.5c-.13.07-.29.04-.38-.07-.09-.12-.08-.28.02-.38l.84-.86-2.28,1.31c-.13.08-.3.04-.39-.09-.09-.13-.06-.3.07-.4l.3-.23-1.24.71c-.13.08-.3.04-.39-.09s-.06-.3.06-.39l2.62-2.15-4.55,2.63c-.14.08-.31.04-.39-.1s-.05-.31.08-.4l1.98-1.38-3.24,1.87s-.1.04-.15.04h0Z"/>
  <path class="cls-1" d="m28.49,23.03c-.1,0-.19-.05-.25-.13-.08-.13-.05-.3.07-.4l1.68-1.24-2.99,1.73c-.13.08-.3.04-.39-.09s-.06-.3.07-.4l3.78-2.85-5.65,3.26c-.14.08-.31.04-.4-.1-.08-.13-.04-.31.09-.4l1.48-.97-1.73,1c-.14.08-.31.04-.4-.1-.08-.14-.04-.31.09-.4l.64-.41-.5.29c-.14.08-.31.04-.39-.1-.08-.13-.05-.31.08-.4l3.99-2.72-3.68,2.13c-.14.08-.31.04-.39-.1s-.05-.31.08-.4l4.93-3.44-4.61,2.66c-.14.08-.31.04-.39-.1-.08-.13-.05-.31.08-.4l3.69-2.53-3.38,1.95c-.14.08-.31.04-.39-.1-.08-.13-.05-.31.08-.4l2.33-1.59-2.01,1.16c-.13.08-.3.04-.39-.09-.09-.13-.06-.3.06-.39l3.13-2.48-2.8,1.62c-.13.08-.3.04-.39-.09-.09-.12-.06-.29.05-.39l1.73-1.45-1.4.81c-.13.07-.29.04-.38-.08-.09-.12-.07-.29.03-.39l.84-.79-.49.28c-.12.07-.27.05-.36-.06-.09-.1-.1-.26-.02-.37l.38-.52c-.09,0-.18-.06-.23-.15-.08-.14-.03-.32.11-.4l.97-.56c.12-.07.27-.05.36.06.09.1.1.26.02.37l-.31.42,1.46-.85c.13-.07.29-.04.38.08.09.12.07.29-.03.39l-.84.79,2.17-1.25c.13-.08.3-.04.39.09s.06.29-.05.39l-1.73,1.45,3.33-1.92c.13-.08.3-.04.39.09.09.13.06.3-.06.39l-3.13,2.48,5.12-2.96c.14-.08.31-.04.39.1.08.13.05.31-.08.4l-2.32,1.59,3.33-1.93c.14-.08.31-.04.39.1.08.13.05.31-.08.4l-3.69,2.53,3.93-2.27c.14-.08.31-.04.39.1s.05.31-.08.4l-4.93,3.44,4.64-2.68c.14-.08.31-.04.39.1.08.13.05.31-.08.4l-3.99,2.72,3.68-2.13c.14-.08.31-.04.4.1.08.14.04.31-.09.4l-.63.41.33-.19c.14-.08.31-.04.4.1.08.13.04.31-.09.4l-1.48.97,1.17-.67c.13-.08.3-.04.39.09s.06.3-.07.4l-3.78,2.86,3.46-2c.13-.08.31-.04.39.09.08.13.05.3-.07.4l-1.69,1.24,1.37-.79c.13-.08.3-.04.39.09.09.13.06.3-.06.39l-1.04.81.72-.41c.13-.08.3-.04.39.09.09.13.06.3-.06.39l-.2.16c.09,0,.18.03.24.11.09.11.09.27,0,.38l-.49.57.09-.05c.14-.08.32-.03.4.11.08.14.03.32-.11.4l-1.58.91c-.12.07-.28.04-.37-.07s-.09-.27,0-.38l.49-.57-1.75,1.01c-.13.08-.3.04-.39-.09-.09-.13-.06-.3.06-.39l.03-.02-.87.5c-.13.08-.3.04-.39-.09-.09-.13-.06-.3.06-.39l1.04-.81-2.24,1.29s-.1.04-.15.04h0Z"/>
  <path class="cls-3" d="m5.89,20.33c-.09,0-.18-.04-.23-.12-.09-.12-.08-.28.03-.39l1.18-1.13c-.08-.14-.03-.32.11-.4l.79-.46c.13-.08.29-.04.38.08.09.12.08.28-.03.39l-.28.27.5-.29c.14-.08.32-.03.4.11.08.14.03.32-.11.4l-2.6,1.5s-.1.04-.15.04h0Z"/>
  <path class="cls-4" d="m4.42,23.03c-.09,0-.19-.05-.24-.13-.09-.13-.06-.3.06-.39l1.24-.97-2.52,1.45c-.13.08-.3.04-.38-.08-.09-.12-.07-.29.05-.39l.26-.22-1.19.69c-.13.08-.3.04-.38-.08-.09-.12-.07-.29.04-.39l1.07-.94-1.1.64c-.13.07-.29.04-.38-.07-.09-.11-.08-.28.02-.38l2.06-2.14s-.01-.01-.01-.02c-.08-.14-.03-.32.11-.4l.74-.43c.13-.07.29-.04.38.07.09.11.08.28-.02.38l-1.4,1.45,1.87-1.08c.13-.08.3-.04.38.08.09.12.07.29-.04.39l-1.07.94,1.29-.75c.13-.08.3-.04.38.08s.07.29-.05.39l-.26.22,3.51-2.03c.13-.08.3-.04.39.09.09.13.06.3-.06.39l-1.24.97,1.44-.83c.13-.08.3-.04.38.08s.07.29-.05.39l-1.08.94,1.3-.75c.13-.07.29-.04.38.08.09.12.07.29-.04.39l-.57.54.72-.41c.11-.06.25-.05.34.04.09.09.12.22.07.34l-.39.87.31-.18c.14-.08.32-.03.4.11.08.14.03.32-.11.4l-1.09.63c-.11.06-.25.05-.34-.04-.09-.09-.12-.22-.07-.34l.39-.87-2.15,1.24c-.13.07-.29.04-.38-.08-.09-.12-.07-.29.04-.39l.57-.54-1.74,1c-.13.08-.3.04-.38-.08-.09-.12-.07-.29.05-.39l1.08-.94-2.44,1.41s-.1.04-.15.04h0Z"/>
  <path class="cls-4" d="m7.5,23.04c-.09,0-.18-.04-.23-.12-.09-.12-.07-.28.03-.39l.73-.7-1.05.61c-.13.07-.29.04-.38-.07-.09-.11-.08-.28.02-.38l1.08-1.12-1.38.8c-.12.07-.28.04-.37-.07s-.09-.27,0-.38l1.21-1.36-1.46.84c-.13.07-.29.04-.38-.08-.09-.12-.08-.28.03-.39l1.52-1.51h0c-.08-.15-.03-.33.11-.41l.79-.46c.13-.07.29-.04.38.08.09.12.08.28-.03.39l-.76.75,1.09-.63c.12-.07.28-.04.37.07.09.11.09.27,0,.38l-1.22,1.36,1.59-.92c.13-.07.29-.04.38.07.09.11.08.28-.02.38l-1.08,1.12,1.38-.79c.13-.07.29-.04.38.08.09.12.07.29-.03.39l-.73.7.91-.53c.11-.06.25-.05.34.04.09.09.12.22.07.34l-.42.91.39-.23c.14-.08.32-.03.4.11.08.14.03.32-.11.4l-1.18.68c-.11.06-.25.05-.34-.04-.09-.09-.12-.22-.07-.34l.42-.91-2.24,1.29s-.1.04-.15.04h0Z"/>
  <path class="cls-4" d="m27.77,19.96c-.09,0-.18-.04-.23-.11-.09-.12-.08-.28.03-.39l1.44-1.44-1.41.82c-.13.08-.29.04-.38-.08-.09-.12-.07-.29.04-.39l.53-.48-.19.11c-.13.07-.29.04-.38-.08-.09-.12-.07-.29.03-.39l.29-.28c-.1.03-.21.01-.29-.06-.09-.09-.12-.23-.06-.34l.46-.96c-.14.08-.32.03-.4-.11-.08-.14-.03-.32.11-.4l.82-.47c.11-.06.25-.05.35.04.09.09.12.23.06.34l-.46.96,1.23-.71c.13-.07.29-.04.38.08.09.12.07.29-.03.39l-.28.26.55-.32c.13-.07.3-.04.38.08.09.12.07.29-.04.39l-.53.48.87-.5c.13-.07.29-.04.38.07s.08.28-.03.39l-1.44,1.44,1.8-1.04c.14-.08.32-.03.4.11.08.14.03.32-.11.4l-3.73,2.15s-.1.04-.15.04h0Z"/>
  <path class="cls-1" d="m4.62,17.18c-.08,0-.16-.03-.21-.09-.09-.1-.11-.25-.03-.36l.37-.57-.91.53c-.11.06-.25.05-.35-.04-.09-.09-.12-.23-.06-.34l.48-.99-.14.08c-.14.08-.32.03-.4-.11-.08-.14-.03-.32.11-.4l.97-.56c.11-.06.25-.05.35.04.09.09.12.23.06.34l-.48.99,1.15-.66c.12-.07.27-.05.36.05.09.1.11.25.03.36l-.39.59c.12-.03.25.02.32.14.08.14.03.32-.11.4l-.97.56s-.1.04-.15.04h0Z"/>
  <path class="cls-4" d="m16.97,8.14c-.09,0-.18-.04-.23-.12-.09-.12-.07-.29.03-.39l1.62-1.53-2.28,1.32c-.13.08-.3.04-.39-.08-.09-.12-.06-.29.05-.39l1.66-1.4-2.03,1.17c-.13.08-.3.04-.38-.08-.09-.12-.07-.29.05-.39l1.73-1.52-1.9,1.1c-.13.07-.29.04-.38-.08-.09-.12-.07-.29.03-.39l.73-.7-.55.32c-.12.07-.28.04-.37-.06-.09-.11-.09-.27,0-.38l.56-.67c-.1,0-.2-.05-.25-.15-.08-.14-.03-.32.11-.4l1.2-.69c.12-.07.28-.04.37.06.09.11.09.27,0,.38l-.48.58,1.27-.74c.13-.07.29-.04.38.08.09.12.07.29-.03.39l-.73.7,2.34-1.35c.13-.08.3-.04.38.08.09.12.07.29-.05.39l-1.73,1.52,2.27-1.31c.13-.08.3-.04.39.08.09.12.06.29-.05.39l-1.66,1.4,1.61-.93c.13-.07.29-.04.38.08.09.12.07.29-.03.39l-1.62,1.53.81-.47c.14-.08.32-.03.4.11.08.14.03.32-.11.4l-2.96,1.71s-.1.04-.15.04h0Z"/>
  <path class="cls-4" d="m17.35,34.74c-.09,0-.18-.04-.24-.13-.09-.13-.06-.3.06-.39l.02-.02-.87.5c-.13.08-.29.04-.38-.08-.09-.12-.07-.29.04-.39l.48-.43-1.57.9c-.13.08-.3.04-.38-.08s-.07-.29.05-.39l.33-.29-1.32.76c-.13.07-.29.04-.38-.07s-.08-.28.02-.38l.75-.76-2.11,1.22c-.13.07-.29.04-.38-.08-.09-.12-.08-.28.03-.39l.68-.65-.97.56c-.12.07-.28.04-.37-.07-.09-.11-.09-.27,0-.38l.5-.56c-.08-.02-.15-.06-.19-.14-.08-.14-.03-.32.11-.4l1.2-.69c.12-.07.28-.04.37.07.09.11.09.27,0,.38l-.34.39,1.47-.85c.13-.07.29-.04.38.08.09.12.08.28-.03.39l-.68.65,1.94-1.12c.13-.07.29-.04.38.07.09.12.08.28-.02.38l-.75.76,2.11-1.22c.13-.08.3-.04.38.08.09.12.07.29-.05.39l-.33.29,1.32-.76c.13-.07.3-.04.38.08.09.12.07.29-.04.39l-.48.43,1.57-.9c.13-.08.3-.04.39.09.09.13.06.3-.06.39l-.02.02.87-.5c.13-.07.29-.04.38.07s.08.28-.02.38l-.78.81,1.94-1.12c.13-.08.29-.04.38.08.09.12.07.29-.04.39l-.46.43.74-.42c.12-.07.28-.04.37.07.09.11.09.27,0,.38l-.3.34.28-.16c.12-.07.26-.05.35.05s.11.24.04.36l-.14.23c.08.02.14.07.18.14.08.14.03.32-.11.4l-.68.39c-.11.07-.26.05-.35-.05s-.11-.24-.04-.36l.06-.09-.86.5c-.12.07-.28.04-.37-.07-.09-.11-.09-.27,0-.38l.3-.34-1.37.79c-.13.07-.29.04-.38-.08-.09-.12-.07-.29.04-.39l.46-.43-1.55.89c-.13.07-.29.04-.38-.07-.09-.11-.08-.28.02-.38l.78-.81-2.19,1.27s-.1.04-.15.04h0Z"/>
  <g>
    <path class="cls-2" d="m23.74,31.01c.1-1.1-.98-1.8-1.5-2.65-1.4-1.94-1.85-4.37-1.98-6.71,2.17-.75.95-3.06-1.04-2.6,2.31-1.27,2.03-4.98-.52-5.8-3.52-1.39-6.43,3.78-3.07,5.8-1.87-.35-3.05,2.23-.93,2.68.57,5.43-5.26,8.85-2.83,10.35-4.27,3.59,3.29,2.56,5.32,2.63,2.03,0,4.06,0,6.09,0,1.78-.19.98-2.5-.35-2.76.4-.2.73-.5.8-.94ZM15.33,14.94c1.23-2.26,4.72-1.05,4.64,1.4-.21,4.44-6.61,2.36-4.64-1.4h0Zm-.6,4.59c1.58-.23,3.28.08,4.91-.1.49.05.86.48.91.95-.05,2-3.66.64-5.04,1.02-.08-.1-.26-.11-.44-.07-.7-.26-.94-1.29-.34-1.8h0Zm-1.69,12.33c-3.11-.71,3.14-4.95,2.5-10.09h3.85c-.58,5.05,4.88,9.01,3.04,10.09-3.13-.03-6.26.01-9.39,0h0Zm10.34,2.34c-3.85-.03-7.75.04-11.57,0-.72-.19-.18-1.26.18-1.56,2.99-.7,6.33-.05,9.44-.26,1.01-.28,2.45.83,1.96,1.82h0Z"/>
    <path class="cls-2" d="m11.79,9.3c.5,2.81,7.07.88,9.34,1.39.97.05,2.03-.45,2.04-1.54-.52-2.18,1.41-8.64-1.5-8.86-10.28.18-10.28-2.19-9.88,9.02h0Zm.85-7.81c.43-1.64,6.94-.37,8.72-.75,1.95.75.58,3.96.96,5.64-.24,1.14.61,3.25-.58,3.85-10.52-.21-9.17,2.21-9.1-8.75h0Z"/>
    <path class="cls-2" d="m34.88,14.68c.76-3.6-3.15-2.65-5.43-2.72-1.85.32-5.3-1.02-5.95,1.41.41,2.17-1.1,8.9,1.07,9.6,9.63-.45,10.91,3.09,10.31-8.29h0Zm-1.53,7.81c-11.33.01-8.82,1.57-8.98-9.42.77-1.37,6.89-.26,8.75-.6,1.87.72.51,4.54.91,6.25-.25,1.13.65,3.28-.68,3.77Z"/>
    <path class="cls-2" d="m.39,22.49c1.04,1.15,3.06.38,4.46.59,9.7.87,5.91-2.44,6.62-9.69-.38-2.88-7.39-.98-9.69-1.48-1.47,0-1.89,1.39-1.71,2.63.22,2.6-.48,5.49.31,7.96Zm1.9-.05c-.36,0-.71.03-.99-.17.84-1.01,1.68-2.01,2.52-3.02.92,1.01,1.77,2.14,2.67,3.19H2.29Zm7.62,0h-2.36c-.54-.66-1.09-1.31-1.63-1.97.59-.72,1.21-1.43,1.79-2.15-.02,0-.03,0-.05-.01.02,0,.04,0,.06.01.02-.08.07,0,.03,0,1.04,1.02,1.89,2.26,2.87,3.36-.05.39-.2.72-.69.75h0ZM.98,13.05c1.52-1.25,5.74-.16,7.89-.51,3.15-.8,1.25,5.98,1.74,7.89-2.09-2.7-2.79-3.78-5.09-.44-1.58-2.91-3.31.29-4.56,1.72-.03-2.88-.09-5.8.02-8.66Z"/>
    <path class="cls-2" d="m31.46,16.63c-1.3-1.08-4.65-3.18-4.45.03-.09,1.51-.27,4.4,2.07,3.14.86-.78,4.05-1.8,2.39-3.17h0Zm-2.57,2.65c-1.71,1.17-.83-2.49-1.03-3.34.11-1.49,2.29.96,3,1.16.88,1.03-1.41,1.54-1.97,2.18Z"/>
    <path class="cls-2" d="m7.73,18.32s-.02,0-.03,0c0,0,0,0,0,0,0,0,.02,0,.03,0h0Z"/>
    <path class="cls-2" d="m4.84,17.02c2.14-.3,1.42-3.3-.61-2.54-1.93.37-1.28,3.11.61,2.54h0Zm.03-.28s0,0,0,0c0,0,0,0,0,0Zm0,0h0,0Zm0,0h0s0,0,0,0Zm-.85-1.66c1.19-.8,1.7,1.15.88,1.64-.79,0-1.51-1.22-.88-1.64Z"/>
    <path class="cls-2" d="m16.45,7.96c1.83,1.09,4.34-1.62,4.38-3.47,0-1.61-1.95-2.3-3.22-1.54-4.08-1.52-4.49,3.6-1.15,5Zm-1.29-4.2c.33-.81,1.34-.89,1.92-.3.17.14.58,0,.73-.11,3.39-1.16,2.23,3.86-.19,4.5-1.46-.68-3.23-2.33-2.46-4.09h0Z"/>
  </g>
</svg>