<?xml version="1.0" encoding="UTF-8"?>
<svg id="Layer_1" data-name="Layer 1" xmlns="http://www.w3.org/2000/svg" viewBox="0 0 35 35">
  <defs>
    <style>
      .cls-1 {
        fill: #f47721;
      }

      .cls-1, .cls-2, .cls-3, .cls-4, .cls-5 {
        stroke-width: 0px;
      }

      .cls-3 {
        fill: #fff;
      }

      .cls-4 {
        fill: #c1dbf0;
      }

      .cls-5 {
        fill: #f2f7fb;
      }
    </style>
  </defs>
  <path class="cls-4" d="m33.86,33.51c-.16,0-.29-.13-.29-.29,0-.04,0-.08.03-.12l.24-.52-.59.34c-.14.08-.32.03-.4-.11-.05-.1-.05-.21,0-.31l.72-1.1-1.32.76c-.14.08-.32.03-.4-.11-.06-.11-.04-.26.05-.35l.78-.77-1.17.68c-.14.08-.32.03-.4-.11-.07-.12-.04-.27.06-.36l.8-.69-1.14.66c-.14.08-.32.03-.4-.11-.07-.12-.04-.28.07-.37l.94-.76-1.28.74c-.14.08-.32.03-.4-.11-.07-.13-.04-.29.08-.38l.62-.47-.89.51c-.14.08-.32.03-.4-.11-.07-.13-.04-.29.08-.38l.83-.61-1.12.65c-.14.08-.32.03-.4-.11-.08-.13-.04-.3.09-.39l.34-.23-.56.32c-.14.08-.32.03-.4-.11-.07-.13-.04-.3.08-.38l1.55-1.12-1.91,1.1c-.14.08-.32.03-.4-.11-.07-.13-.04-.3.08-.38l1.47-1.03-1.81,1.04c-.14.08-.32.03-.4-.11-.08-.13-.04-.3.09-.39l2.19-1.54-2.6,1.5c-.14.08-.32.03-.4-.11-.08-.13-.04-.3.09-.39l2.18-1.5-2.56,1.48c-.14.08-.32.04-.4-.1-.08-.13-.04-.31.09-.39l3.42-2.39-3.93,2.27c-.14.07-.32.02-.4-.13-.07-.13-.03-.28.08-.37l3.49-2.39-3.97,2.29c-.14.08-.32.03-.4-.12-.07-.13-.03-.3.09-.38l1.35-.88-1.62.94c-.14.08-.32.03-.4-.11-.07-.13-.04-.3.09-.39l3.45-2.3-3.88,2.24c-.14.08-.32.03-.4-.11-.08-.13-.04-.31.09-.39l3.85-2.55-4.29,2.48c-.14.08-.32.03-.4-.11-.08-.13-.04-.31.09-.39l4.41-2.91-4.88,2.82c-.14.08-.32.03-.4-.11-.08-.13-.04-.3.09-.39l6.2-4.16-5.64,3.26c-.14.08-.32.03-.4-.11-.07-.13-.03-.3.09-.39l5.67-3.73c-.16-.02-.28-.16-.26-.32,0-.08.05-.16.12-.2l6.32-4.71c0-.11.05-.21.15-.27l.96-.55c.14-.08.32-.03.4.11.07.13.04.29-.08.38l-3.38,2.52,3.32-1.92c.14-.08.32-.04.4.1.08.14.04.31-.09.4l-4.84,3.19,4.53-2.62c.14-.08.32-.02.4.12.07.13.03.29-.09.38l-6.2,4.16,5.89-3.4c.14-.08.32-.03.4.11.07.13.03.3-.09.39l-4.41,2.91,4.1-2.37c.14-.08.32-.02.4.12.07.13.03.29-.09.38l-3.84,2.54,3.54-2.04c.14-.08.32-.03.4.12.07.13.03.3-.09.38l-3.45,2.3,3.14-1.81c.14-.08.32-.02.4.12.07.13.03.29-.09.38l-1.35.88,1.04-.6c.14-.08.32-.03.4.11.07.13.04.3-.09.38l-3.48,2.38,3.17-1.83c.14-.08.32-.03.4.11.08.13.04.3-.09.39l-3.42,2.39,3.1-1.79c.14-.08.32-.03.4.11.08.13.04.3-.09.39l-2.18,1.5,1.87-1.08c.14-.08.32-.03.4.11.08.13.04.3-.09.39l-2.2,1.54,1.88-1.09c.14-.08.32-.03.4.11.07.13.04.3-.08.38l-1.47,1.03,1.16-.67c.14-.08.32-.03.4.11.07.13.04.3-.08.38l-1.55,1.12,1.23-.71c.14-.08.32-.03.4.11.08.13.04.3-.09.39l-.34.23h.02c.14-.09.32-.04.4.1.07.13.04.29-.08.38l-.83.61.51-.29c.14-.08.32-.03.4.11.07.13.04.29-.08.38l-.62.47.3-.18c.14-.08.32-.03.4.11.07.12.04.28-.07.37l-.94.76.61-.35c.14-.08.32-.03.4.11.07.12.04.27-.06.36l-.8.69.46-.26c.14-.08.32-.03.4.11.06.11.04.26-.05.35l-.78.77.43-.25c.14-.08.32-.03.4.11.06.1.05.21,0,.31l-.72,1.1.32-.19c.14-.08.32-.03.4.11.05.08.05.18.01.27l-.27.58h0c.16,0,.29.13.29.29,0,.1-.06.2-.15.25l-.63.36s-.09.04-.15.04Z"/>
  <path class="cls-4" d="m.49,33.3c-.16,0-.29-.13-.29-.29,0-.1.05-.19.13-.24l4.1-2.81-3.8,2.19c-.14.08-.32.04-.4-.1-.08-.14-.04-.31.09-.4l6.43-4.3-6.12,3.54c-.14.08-.32.03-.4-.11-.08-.14-.04-.31.09-.39l4.06-2.65-3.75,2.17c-.14.08-.32.03-.4-.12-.07-.13-.03-.3.09-.38l3.55-2.32-3.24,1.87c-.14.08-.32.04-.4-.1-.08-.14-.04-.31.1-.4l1.32-.85-1.02.59c-.14.08-.32.04-.4-.1-.08-.14-.04-.31.09-.4l2.8-1.84-2.49,1.44c-.14.08-.32.03-.4-.11-.07-.13-.04-.29.08-.38l4.87-3.43-4.55,2.63c-.14.08-.32.04-.4-.1-.08-.14-.04-.31.09-.4l2.13-1.42-1.82,1.05c-.14.08-.32.03-.4-.11-.07-.13-.04-.29.08-.38l4.2-3.08-3.88,2.24c-.14.08-.32.03-.4-.11-.07-.13-.04-.29.08-.38l3.48-2.58-3.16,1.83c-.14.08-.32.03-.4-.11-.07-.13-.04-.29.08-.38l2.69-2-2.37,1.37c-.14.08-.32.03-.4-.11-.07-.13-.04-.29.08-.38l2.04-1.52-1.71.99c-.14.08-.32.03-.4-.11-.07-.13-.04-.29.07-.38l2-1.58-1.68.97c-.14.08-.32.03-.4-.11-.07-.13-.04-.29.08-.38l.68-.51-.36.21c-.14.08-.32.03-.4-.11-.07-.13-.04-.29.08-.38l.35-.26h-.02c-.14.09-.32.04-.4-.11-.06-.11-.04-.25.05-.34l1.52-1.53-1.17.67c-.14.08-.32.03-.4-.11-.06-.11-.05-.25.04-.35l.95-1.04-.58.34c-.14.08-.32.03-.4-.11-.06-.1-.05-.22.02-.31l.59-.82-.2.12c-.14.08-.32.03-.4-.11-.04-.07-.05-.16-.03-.24l.31-.98s-.08-.06-.1-.1c-.08-.14-.03-.32.11-.4l.29-.17c.14-.08.32-.03.4.11.04.07.05.16.03.24l-.24.76.72-.41c.14-.08.32-.03.4.11.06.1.05.22-.02.31l-.59.82,1.04-.61c.14-.08.32-.03.4.11.06.11.05.25-.04.35l-.95,1.04,1.44-.83c.14-.08.32-.02.4.12.06.11.04.25-.05.34l-1.52,1.53,2.14-1.24c.14-.08.32-.04.4.1.08.13.04.29-.08.38l-.35.26.57-.33c.14-.08.32-.03.4.11.07.13.04.29-.08.38l-.68.51.95-.55c.14-.08.32-.03.4.11.07.13.04.29-.07.38l-2,1.58,2.49-1.44c.14-.08.32-.03.4.11.07.13.04.29-.08.38l-2.04,1.52,2.47-1.43c.14-.08.32-.03.4.11.07.13.04.29-.08.38l-2.69,2,3.21-1.85c.14-.08.32-.03.4.11.07.13.04.29-.08.38l-3.48,2.58,4.08-2.36c.14-.08.32-.03.4.11.07.13.04.29-.08.38l-4.2,3.08,4.86-2.81c.14-.08.32-.03.4.11.08.13.04.3-.09.39l-2.12,1.42,2.46-1.42c.14-.08.32-.03.4.12.07.13.03.29-.08.38l-4.87,3.43,5.51-3.18c.14-.09.32-.04.4.1.09.14.04.32-.1.4l-2.8,1.84,3.16-1.83c.14-.08.32-.04.4.1.08.14.04.31-.1.4l-1.32.85,1.59-.91c.14-.08.32-.03.4.12.07.13.03.3-.09.38l-3.55,2.33,3.95-2.28c.14-.08.32-.03.4.11.08.14.04.31-.09.39l-4.06,2.65,4.48-2.59c.14-.08.32-.04.4.1.08.14.04.31-.09.4l-6.43,4.3,2.75-1.59c.14-.08.32-.03.4.11.07.13.04.3-.09.38l-6.36,4.35c.12.11.12.3.01.41-.02.02-.04.04-.07.05l-4.02,2.32s-.09.04-.15.04Z"/>
  <path class="cls-4" d="m4.23,34.79c-.16,0-.29-.13-.29-.29,0-.1.05-.19.14-.25l5.15-3.27-6.53,3.77c-.14.08-.32.03-.4-.11-.08-.14-.03-.31.1-.39l.8-.49-1.49.86c-.14.08-.32.03-.4-.11-.08-.13-.04-.31.09-.39l6.29-4.06-6.78,3.91c-.14.08-.32.03-.4-.12-.07-.13-.03-.3.09-.38l7.43-4.94-.49.28c-.14.08-.32.03-.4-.11-.07-.13-.04-.29.08-.38l6.25-4.53c0-.11.05-.21.15-.27l1.12-.65c.14-.08.32-.03.4.11.07.13.04.3-.08.38l-2.88,2.09,3.55-2.05c.14-.08.32-.03.4.11.08.13.04.3-.09.39l-7.43,4.95,8.91-5.15c.14-.08.32-.04.4.1s.04.32-.1.4l-6.28,4.06,8.97-5.18c.14-.08.32-.04.4.1s.04.32-.1.4l-.82.5,1.06-.61c.14-.08.32-.02.4.12.07.13.03.3-.09.38l-5.14,3.27,5.57-3.22c.14-.08.32-.04.4.1s.04.32-.1.4h0l-4.85,3.1,5.28-3.05c.14-.08.32-.03.4.12.07.13.03.3-.09.39l-4.4,2.82,4.81-2.78c.14-.08.32-.03.4.12.07.13.03.3-.09.38l-5.09,3.33,5.58-3.22c.14-.08.32-.03.4.11.07.13.03.3-.09.39l-4.81,3.18,5.32-3.07c.14-.09.32-.04.4.09s.04.32-.09.4h0l-4.01,2.66,4.47-2.58c.14-.08.32-.03.4.12.07.13.03.3-.09.38l-2.26,1.47,2.59-1.49c.14-.08.32-.03.4.11.08.13.04.3-.09.39l-3.67,2.51,4.17-2.4c.14-.08.32-.04.4.1s.04.32-.1.4l-.11.07.32-.19c.14-.08.32-.03.4.12.07.13.03.29-.09.38l-2.4,1.65,2.8-1.61c.14-.08.32-.03.4.11.07.13.04.3-.09.38l-1.76,1.21,2.1-1.21c.14-.08.32-.03.4.12.07.13.03.29-.08.38l-1.02.7,1.31-.75c.14-.08.32-.03.4.11.07.13.04.29-.07.38l-2.55,2.08,3.18-1.83c.14-.08.32-.03.4.11.08.13.04.3-.08.39l-.04.03.23-.14c.14-.09.32-.04.4.1.08.12.05.28-.06.37l-1.65,1.57,2.28-1.31c.14-.08.32-.03.4.11.07.12.04.27-.06.37l-.58.5.88-.51c.14-.08.32-.03.4.11.07.11.05.26-.04.35l-.55.56.88-.51c.14-.08.32-.03.4.11.05.08.05.19,0,.27l-.34.71.79-.45c.14-.08.32-.02.4.12.07.14.03.3-.1.38l-1.62.93c-.14.08-.32.03-.4-.11-.05-.08-.05-.19-.01-.27l.34-.71-1.89,1.09c-.14.08-.32.03-.4-.11-.07-.11-.05-.26.04-.35l.55-.56-1.77,1.02c-.14.08-.32.03-.4-.11-.07-.12-.04-.27.06-.37l.58-.5-1.69.98c-.14.09-.32.04-.4-.1-.08-.12-.05-.28.06-.37l1.65-1.57-3.52,2.03c-.14.08-.32.03-.4-.11-.07-.13-.04-.29.08-.38l.04-.03-.91.52c-.14.08-.32.03-.4-.11-.07-.12-.04-.28.07-.37l2.55-2.08-4.43,2.56c-.14.08-.32.03-.4-.12-.07-.13-.03-.29.08-.38l1.02-.7-2.09,1.2c-.14.08-.32.03-.4-.12-.07-.13-.03-.29.08-.38l1.76-1.21-2.96,1.71c-.14.08-.32.03-.4-.12-.07-.13-.03-.29.09-.38l2.4-1.65-3.72,2.15c-.14.08-.32.03-.4-.11-.08-.14-.04-.31.09-.39l.11-.07-.99.57c-.14.08-.32.03-.4-.11-.07-.13-.04-.3.09-.38l3.67-2.51-5.21,3.01c-.14.08-.32.03-.4-.11-.08-.13-.04-.3.09-.39l2.26-1.47-3.42,1.97c-.14.08-.32.03-.4-.11-.08-.13-.04-.3.09-.39l4.02-2.66-5.48,3.16c-.14.08-.32.02-.4-.12-.07-.13-.03-.29.09-.38l4.81-3.18-6.38,3.68c-.14.08-.32.03-.4-.11-.08-.13-.04-.3.09-.39l5.09-3.33-6.63,3.83c-.14.08-.32.02-.4-.12-.07-.13-.03-.3.09-.38l4.4-2.82-5.75,3.32c-.14.08-.32.03-.4-.11-.08-.13-.03-.3.09-.39l4.85-3.09-6.22,3.59s-.1.04-.15.04Z"/>
  <path class="cls-5" d="m12.7,17.77c-.08,0-.16-.04-.22-.1-.09-.1-.1-.26-.02-.37l.29-.39-1.35.78c-.14.08-.32.03-.4-.11-.06-.11-.05-.24.03-.34l.98-1.14-1.63.94c-.14.08-.32.02-.4-.12-.06-.12-.04-.26.05-.35l1.1-1-1.1.64c-.14.08-.32.03-.4-.11-.07-.12-.04-.27.06-.37l1.24-1.09-.92.53c-.14.08-.32.03-.4-.11-.07-.12-.04-.28.06-.37l1.13-.97-.79.46c-.14.08-.32.03-.4-.11-.06-.11-.05-.25.04-.35l.79-.84-.43.25c-.14.08-.32.03-.4-.11-.04-.06-.05-.14-.03-.21l.18-.74c-.06-.02-.11-.07-.14-.13-.08-.14-.03-.32.11-.4l.29-.17c.14-.08.32-.03.4.11.04.06.05.14.03.21l-.14.59,1.59-.92c.14-.08.32-.03.4.11.06.11.05.25-.04.35l-.79.84,1.74-1c.14-.08.32-.03.4.11.07.12.04.28-.06.37l-1.13.97.79-.46c.14-.08.32-.03.4.11.07.12.04.27-.06.37l-1.25,1.09.9-.52c.14-.08.32-.03.4.12.06.12.04.26-.05.35l-1.1,1,.75-.44c.14-.08.32-.03.4.11.06.11.05.24-.03.34l-.98,1.14,1.07-.61c.14-.08.32-.03.4.11.06.1.05.23-.02.32l-.29.39.03-.02c.14-.08.32-.03.4.11.08.14.03.32-.11.4l-1.24.71s-.1.04-.15.04Z"/>
  <path class="cls-3" d="m21.41,15.36c-.16,0-.29-.13-.29-.29,0-.06.02-.11.05-.16l.11-.18-.52.3c-.14.08-.32.03-.4-.11-.06-.11-.05-.25.03-.34l.37-.42-.93.53c-.14.08-.32.03-.4-.11-.07-.12-.04-.27.06-.36l.3-.27-.78.45c-.14.08-.32.03-.4-.11-.07-.12-.05-.26.05-.35l1.66-1.63-2.74,1.59c-.14.08-.32.03-.4-.11-.07-.13-.04-.29.07-.38l1.3-1.01-1.97,1.14c-.14.08-.32.03-.4-.11-.07-.13-.04-.29.08-.38l1.53-1.13-2.2,1.27c-.14.08-.32.03-.4-.11-.08-.13-.04-.3.09-.39l.55-.37-1.02.59c-.14.08-.32.04-.4-.1-.08-.13-.04-.31.09-.39l1.47-1.01-2.05,1.19c-.14.08-.32.03-.4-.11-.07-.13-.04-.3.08-.38l3.78-2.73-4.4,2.54c-.14.08-.32.03-.4-.11-.07-.13-.04-.29.08-.38l4.04-2.85-3.74,2.16c-.14.08-.32.03-.4-.11-.08-.13-.04-.3.09-.39l2.63-1.79-2.32,1.34c-.14.08-.32.02-.4-.12-.07-.13-.03-.29.09-.38l.26-.17c-.15.06-.32-.02-.38-.17-.05-.13,0-.27.11-.35l3.49-2.44-3.17,1.83c-.14.08-.32.03-.4-.11-.07-.13-.04-.29.08-.38l1.96-1.44-1.64.94c-.14.08-.32.03-.4-.11-.06-.1-.05-.23.02-.32l.52-.7c-.15.06-.32-.02-.38-.17-.05-.13,0-.29.13-.36l1.17-.68c.14-.08.32-.03.4.11.06.1.05.23-.02.32l-.52.7,4.94-2.85c.14-.08.32-.03.4.11.07.13.04.29-.08.38l-1.95,1.44,4.52-2.61c.14-.08.32-.03.4.11.08.13.04.3-.09.39l-3.49,2.44,3.49-2.01c.14-.08.32-.02.4.12.07.13.03.29-.09.38l-.27.18c.15-.06.32.01.38.17.05.13,0,.28-.11.35l-2.63,1.78,2.32-1.34c.14-.08.32-.03.4.11.07.13.04.29-.08.38l-4.04,2.85,3.73-2.15c.14-.08.32-.03.4.11.07.13.04.3-.08.38l-3.78,2.73,3.46-2c.14-.08.32-.04.4.1.08.13.04.31-.09.39l-1.47,1.01,1.15-.67c.14-.08.32-.03.4.11.08.13.04.3-.09.39l-.55.38.23-.14c.14-.08.32-.03.4.11.07.13.04.29-.08.38l-1.53,1.13,1.21-.7c.14-.08.32-.03.4.11.07.13.04.28-.07.37l-1.3,1.01.98-.56c.14-.08.32-.03.4.11.07.12.05.26-.05.35l-1.66,1.63,1.31-.76c.14-.08.32-.03.4.11.07.12.04.27-.06.36l-.31.27c.15-.06.32,0,.39.15.04.1.02.23-.05.31l-.37.42h0c.14-.08.32-.03.4.11.05.09.05.21,0,.3l-.29.45c.14.08.18.26.1.4-.03.04-.06.08-.1.1l-.56.32s-.09.04-.15.04Z"/>
  <path class="cls-1" d="m25.51,11.86c-.16,0-.29-.13-.29-.29,0-.08.03-.15.08-.21l.38-.39-.99.57c-.14.08-.32.03-.4-.11-.07-.12-.05-.27.06-.37l.74-.66-.4.23c-.14.08-.32.03-.4-.11-.07-.12-.04-.26.05-.36l.88-.81-.54.31c-.14.08-.32.04-.4-.1-.07-.12-.05-.27.06-.37l.76-.71-.41.23c-.14.08-.32.02-.4-.12-.06-.11-.04-.25.05-.34l.56-.56-.21.12c-.14.08-.32.03-.4-.11-.06-.11-.05-.25.04-.34l.23-.26c-.07,0-.15-.01-.2-.06-.09-.07-.14-.2-.1-.31l.15-.55c-.15-.07-.2-.25-.13-.39.03-.05.07-.09.12-.12l.29-.17c.14-.08.32-.03.4.11.04.07.05.15.03.23l-.1.37.87-.5c.14-.08.32-.03.4.11.06.11.05.25-.04.34l-.17.19.43-.25c.14-.08.32-.02.4.12.06.11.04.25-.05.34l-.56.56.7-.41c.14-.08.32-.04.4.1.07.12.05.27-.05.37l-.76.71.68-.39c.14-.08.32-.03.4.11.07.12.04.26-.05.36l-.88.81.56-.33c.14-.08.32-.03.4.11.07.12.05.27-.06.37l-.74.66.37-.21c.14-.08.32-.03.4.11.06.11.05.26-.04.35l-.63.64c.15.05.24.21.19.37-.02.07-.07.13-.13.17l-1.4.81s-.09.04-.15.04Z"/>
  <path class="cls-1" d="m11.07,12.48c-.16,0-.29-.13-.29-.29,0-.08.03-.16.09-.22l.36-.33-1.37.79c-.14.08-.32.04-.4-.1-.07-.12-.05-.27.05-.37l1.77-1.65-2.95,1.7c-.14.08-.32.03-.4-.11-.07-.13-.04-.29.07-.38l2.14-1.71-2.67,1.54c-.14.08-.32.03-.4-.12-.07-.13-.03-.29.08-.38l.76-.53-.86.5c-.14.08-.32.03-.4-.11-.08-.13-.04-.3.09-.39l.22-.15-.2.11c-.14.08-.32.03-.4-.11-.08-.13-.04-.3.09-.39l.61-.42-.49.28c-.14.08-.32.03-.4-.11-.07-.13-.04-.29.07-.38l2.1-1.63-1.83,1.06c-.14.08-.32.03-.4-.11-.07-.13-.04-.29.07-.38l.79-.62-.23.13c-.14.08-.32.03-.4-.11-.07-.12-.04-.28.06-.37l.74-.64s-.07-.06-.09-.1c-.08-.14-.03-.32.11-.4l1.72-1c.14-.08.32-.03.4.11.07.12.04.28-.06.37l-.08.07,1.13-.65c.14-.08.32-.03.4.11.07.13.04.29-.07.38l-.79.62,1.93-1.11c.14-.08.32-.03.4.11.07.13.04.29-.07.38l-2.1,1.63,3.25-1.87c.14-.08.32-.03.4.11.08.13.04.3-.09.39l-.62.42.31-.18c.14-.08.32-.03.4.12.07.13.03.29-.09.38l-.27.18c.15-.06.32.02.38.17.05.12,0,.26-.11.34l-.75.53.44-.25c.14-.08.32-.03.4.11.07.13.04.29-.07.38l-2.14,1.72,1.82-1.05c.14-.08.32-.04.4.1.07.12.05.27-.05.37l-1.77,1.65,1.43-.82c.14-.08.32-.03.4.11.07.12.05.27-.05.36l-.36.33h.01c.14-.09.32-.04.4.1.04.07.05.15.03.23l-.21.75c.16.04.25.2.21.36-.02.08-.07.14-.14.18l-.36.21c-.14.08-.32.03-.4-.11-.04-.07-.05-.15-.03-.22l.18-.64-1.68.96s-.1.04-.15.04Z"/>
  <path class="cls-1" d="m23.43,17.18c-.16,0-.29-.13-.29-.29,0-.07.03-.14.07-.19l.53-.62-1.27.73c-.14.08-.32.03-.4-.11-.06-.11-.04-.26.05-.35l1.16-1.15-1.41.82c-.14.08-.32.03-.4-.11-.07-.12-.04-.27.05-.36l1.39-1.28-1.16.67c-.14.08-.32.03-.4-.12-.06-.12-.04-.26.05-.35l1.46-1.32-1.12.65c-.14.08-.32.03-.4-.11-.07-.12-.04-.28.06-.37l1.13-.97-.79.46c-.14.08-.32.04-.4-.1-.07-.12-.05-.27.05-.37l1.75-1.69-1.4.81c-.14.08-.32.03-.4-.11-.07-.12-.04-.27.06-.37l1.22-1.06-.88.51c-.14.08-.32.03-.4-.11-.07-.12-.04-.28.06-.37l1.03-.87-.69.4c-.14.08-.32.03-.4-.11-.07-.12-.04-.27.06-.36l1.05-.9-.71.41c-.14.08-.32.03-.4-.11-.07-.13-.04-.29.07-.38l.51-.41-.18.11c-.14.08-.32.04-.4-.1-.07-.12-.05-.27.05-.37l1.59-1.48-1.24.71c-.14.08-.32.04-.4-.1-.07-.12-.05-.27.05-.37l1.59-1.48-1.24.72c-.14.08-.32.03-.4-.11-.07-.13-.04-.29.07-.38l.29-.23c-.15.06-.32-.02-.38-.17-.04-.12-.01-.25.08-.33l.99-.86-.65.37c-.14.08-.32.03-.4-.11-.06-.11-.05-.26.05-.35l1.04-1.06-.68.4c-.14.08-.32.03-.4-.11-.06-.11-.05-.25.04-.34l.47-.51c-.07-.02-.13-.07-.16-.13-.08-.14-.03-.32.11-.4l1.2-.7c.14-.08.32-.03.4.11.06.11.05.25-.04.34l-.25.27.91-.52c.14-.08.32-.03.4.11.07.11.05.26-.05.35l-1.04,1.06,1.4-.81c.14-.08.32-.03.4.11.07.12.04.27-.06.37l-.99.86.86-.5c.14-.08.32-.03.4.11.07.12.04.28-.07.37l-.29.23c.15-.06.32.01.38.17.04.11.02.24-.07.32l-1.59,1.48,1.24-.72c.14-.08.32-.04.4.1.07.12.05.27-.05.37l-1.59,1.48,1.24-.72c.14-.08.32-.03.4.11.07.12.04.28-.07.37l-.51.41.18-.11c.14-.08.32-.03.4.11.07.12.04.27-.06.36l-1.05.9.71-.41c.14-.08.32-.03.4.11.07.12.04.28-.06.37l-1.03.87.69-.4c.14-.08.32-.03.4.11.07.12.04.27-.06.37l-1.22,1.06.88-.51c.14-.08.32-.04.4.1.07.12.05.27-.05.37l-1.75,1.69,1.4-.81c.14-.08.32-.03.4.11.07.12.04.28-.06.37l-1.13.97.79-.46c.14-.08.32-.03.4.12.06.12.04.26-.05.35l-1.46,1.33,1.12-.65c.14-.08.32-.03.4.11.07.12.04.27-.05.36l-1.4,1.28,1.05-.6c.14-.08.32-.03.4.11.06.11.04.26-.05.35l-1.16,1.15.81-.47c.14-.08.32-.03.4.11.06.11.05.24-.03.34l-.56.65c.16-.03.31.07.35.23.03.12-.03.25-.14.31l-1.38.8s-.1.04-.15.04Z"/>
  <path class="cls-2" d="m34.93,13.64c.04-.49-.06-.98-.31-1.4-.51-.65-1.32-.98-2.13-.89h-5.93c.75-.41,1.25-1.18,1.32-2.04.06-.95.1-2.02-.51-2.81-.45-.56-1.12-.9-1.84-.94v-2.74c0-1.09-.19-2.2-1.46-2.49-1.26-.32-2.55.45-2.86,1.72,0,.02-.01.05-.02.07l-6.96,2.49-.87.31h-1.76c-.7-.03-1.39-.02-2.09.03-1.27.13-2.41.84-3.09,1.92-.9,1.44-.65,3.32.58,4.49h-3.92c-.72-.08-1.44.05-2.08.38C.38,12.13,0,12.82.03,13.55-.02,16.81.03,20.08.03,23.34S-.03,29.64.03,32.78c0,.31.07.62.21.9h0c.45.75,1.28,1.17,2.14,1.1h29.77c.98,0,2.01-.29,2.5-1.07.06-.05.09-.12.09-.2.11-.24.18-.5.19-.76.15-2.91,0-5.86,0-8.77v-10.33Zm-1.01-.91c.05.1.09.21.11.32.11.85.13,1.71.05,2.56v16.19c0,.34.02.73-.02,1.09l-11.75-8.81-1.59-1.19c.05-.04.11-.08.16-.12l6.98-5.38,6.05-4.66Zm-7.14-5.6c.21.5.3,1.04.26,1.57.05.53-.02,1.06-.19,1.56-.2.51-.62.91-1.14,1.09h-.17v-5.3c.53.19.98.58,1.24,1.08Zm-2.11-5.08c.03.22.04.44.03.66v11.16c0,.92.22,2.73-1.11,2.84-1.28-.03-1.56-1.24-1.56-2.27V3.49c0-.38-.05-.85-.02-1.29,0-.02,0-.04,0-.06.01-.24.07-.48.16-.71.65-1.38,2.29-.6,2.49.63h0Zm-3.93.72l.44-.16c-.05,2.47,0,4.94,0,7.41v4.59l-6.52-2.33-.86-.31v-6.74l6.93-2.47Zm-7.26,14.41s0,.03-.02.04h-1.43c-.26.02-.52-.01-.76-.09-.64-.28-1.03-.94-.98-1.64v-3.02h2.67v2.78c0,.13,0,.26.04.38.13.35.51.39.55.78v.31c0,.06,0,.13,0,.19,0,.08-.07.2-.06.26ZM7.11,7.09c.48-1,1.47-1.65,2.58-1.69.53,0,1.06,0,1.59,0h1.68v6.54h-2.94s-.1,0-.14.01c-1.87-.16-3.25-1.81-3.08-3.68.04-.41.15-.81.33-1.19Zm-3.96,4.79h4.53c.53.32,1.13.5,1.75.55,0,1.09,0,2.18,0,3.27-.03.89.53,1.69,1.38,1.96.31.09.63.12.95.1h1.13c.44.06.88-.06,1.23-.32.34-.32.28-.74.28-1.16,0-.01,0-.02,0-.03s0-.02,0-.03c0-.17-.07-.33-.18-.45-.1-.11-.25-.16-.33-.27-.06-.1-.09-.22-.07-.33v-2.42l6.51,2.33.87.31c.09.98.91,1.73,1.9,1.72h.05s.03,0,.04,0c.01,0,.02,0,.03,0,.07,0,.14-.01.2-.03,1.22-.06,2.17-1.08,2.13-2.3,0-.96,0-1.92,0-2.87h6.48c.6-.06,1.19.12,1.65.5l-12.59,9.7c-.26.2-.52.42-.79.63-.23.02-.48.18-.49.36-.36.26-.75.45-1.17.58-1.6.44-2.94-.35-4.14-1.28l-7.13-5.49L1.32,12.22c.46-.4,1.18-.34,1.83-.34ZM.88,31.6V15.43c-.08-.84-.07-1.69.05-2.53,0-.02.01-.03.02-.05l12.58,9.69c.24.19.49.37.73.54l-12.18,9.14c-.37.27-.73.55-1.1.83-.08-.48-.11-.96-.09-1.45Zm31.97,2.66c-.67.06-1.38,0-2.05,0H8.53c-2.04,0-4.1.1-6.14,0-.53.03-1.03-.26-1.27-.74,4.06-3.05,8.13-6.09,12.19-9.14l1.36-1.02c.6.39,1.28.65,2,.74,1.17.12,2.35-.14,3.36-.74l12.2,9.15,1.6,1.2c-.21.34-.58.54-.97.55h0Z"/>
  <path class="cls-2" d="m9.1,8.57c0-.15.04-.31.1-.45.03-.07.07-.13.11-.19.03-.03.05-.06.08-.09,0,0,.09-.08.06-.05.03-.02.05-.04.08-.06.01,0,.03-.01.04-.02,0,0,.01,0,.03,0h.08s1.16,0,1.16,0c.21,0,.41-.07.57-.21.13-.15-.12-.17-.21-.17-.88,0-1.91-.13-2.58.57-.24.24-.37.57-.37.91,0,.18.85.05.85-.23Z"/>
  <path class="cls-2" d="m15.77,6.99l3.08-.92.45-.13c.11-.03.41-.13.38-.29s-.38-.1-.47-.07l-3.08.92-.45.13c-.11.03-.41.13-.38.29s.38.1.47.07Z"/>
</svg>