<?xml version="1.0" encoding="utf-8"?>
<!-- Generator: Adobe Illustrator 19.0.0, SVG Export Plug-In . SVG Version: 6.00 Build 0)  -->
<svg version="1.1" id="Layer_1" xmlns="http://www.w3.org/2000/svg" xmlns:xlink="http://www.w3.org/1999/xlink" x="0px" y="0px"
	 viewBox="0 0 612 792" style="enable-background:new 0 0 612 792;" xml:space="preserve">
<style type="text/css">
	.st0{fill:#2C2B2B;}
	.st1{fill:#D6E2EC;}
	.st2{fill:#6D6C76;}
	.st3{fill:#FFFFFF;}
	.st4{fill:#F47A20;}
	.st5{fill:#C1DBF0;}
	.st6{fill:#F47822;}
	.st7{fill:#EBF2F8;}
	.st8{fill:#FEFEFE;}
	.st9{fill:#DBEAF6;}
	.st10{fill:#EFEDEE;}
	.st11{fill:#F2F1F1;}
	.st12{fill:#F2ECE9;}
	.st13{fill:#E0DEDF;}
	.st14{fill:#CFCDD0;}
	.st15{fill:#A6745F;}
	.st16{fill:#5E5C65;}
	.st17{fill:#8F5F4C;}
</style>
<path id="XMLID_267_" class="st0" d="M369.2,578.6c-2.9,4.2-6.6,7.2-12,7.5c-3,0.2-5.9-0.4-8.7-1.2c-1.8-0.5-2.9-2-3.7-3.7
	c-0.7-1.5-1.3-3.1-2.1-4.9c-0.3,2-1.3,3.4-2.7,4.5c-0.1,0.1-0.3,0.2-0.4,0.3c0,0-0.1,0-0.1,0c-0.2,0.1-0.4,0.3-0.6,0.4
	c-0.2,0-0.3,0-0.4,0.2c-0.2,0.1-0.3,0.2-0.5,0.3c-0.2,0-0.3,0.1-0.5,0.1c-0.2,0.1-0.4,0.2-0.5,0.3c0,0,0,0,0,0
	c-2.7,0.8-5.4,1.6-8.1,2.3c-28.7,4.2-57.6,2.4-86.5,1.7c-16.3-0.4-32.7-1.3-49-1.1c-3.8,0-7.6,0.3-11.3,0.9
	c-9.3,1.4-14.8-3.7-15.4-14.1c-0.4-6.6,0.4-13.1,1.3-19.6c3.2-24.8,17.4-41.5,40.1-51.9c6.4-2.9,13.4-4.5,20.5-5.1
	c0.8-0.1,2.1,0.5,2-1c-0.1-1.2,0.7-2.6-1.3-3.5c-5.3-2.3-9.9-5.5-13.9-9.5c-8.6-8.6-13.3-18.9-14.1-30.9c0-0.8,0.1-1.5-1.1-1.8
	c-8.9-2.9-11.9-9.8-12.8-18.1c-0.9-8.3,0.2-16.5,1.3-24.6c0.6-4.8,0.5-9.7,1.6-14.4c2.8-11.7,9.1-21.4,17.7-30
	c7.1-7.1,16.2-10.9,24.7-15.8c5.2-0.2,10-2.2,15.1-2.8c2.9-0.3,6-1,8.8-0.8c7.6,0.5,15.2,1.3,22.4,4c22.9,8.8,36.6,25,41.6,48.5
	c0.6,2.6,0.5,5.3,0.6,7.9c0.3,6.9,0.8,13.9,1.1,20.8c0.2,4.8,0,9.5-1.5,14.1c-1.8,5.2-5.2,8.9-10.6,10.7c-1,0.4-1.7,0.7-1.7,1.9
	c-0.8,16.8-9.9,28.6-23.9,37.4c-1,0.6-1.9,1.4-3,1.7c-2.3,0.7-2.5,2.3-2.4,4.3c0.1,1.1,0.5,1.3,1.5,1.4c10.3,0.7,19.9,3.4,28.9,8.3
	c1.5,0.8,1.9,0.2,1.9-1.1c0.1-1.4-0.7-2.5-1.3-3.6c-3.8-7.1-1.8-12.9,5.4-16.8c5.4-2.9,10.5-2.6,15.5,0.5c0.9,0.5,1.6,0.7,2.5,0.1
	c0.6-0.4,1.3-0.7,2-0.9c3.8-1.1,6.3-2.7,7.9-7c3.2-8.4,15.1-10.8,21.5-6.5c2.3,1.5,3.7,3.6,4.4,6.2c0.7,2.8,2.4,4.7,5.2,5.6
	c2.3,0.8,4.6,1.7,6.9,2.7c1.2,0.6,2,0,2.9-0.5c5.3-2.7,10.6-2.6,15.7,0.5c4.7,2.9,5.9,7.7,3.5,12.6c-1.7,3.4-2.8,6.7,0.1,10.1
	c1,1.2,1.1,3.2,1.7,4.7c1.1,2.9,3,4.7,6.3,5.4c5.7,1.2,8.8,6.7,6.9,12.4c-1.7,5.1-5.2,8.5-10.7,9.7c-0.6,0.1-1.3,0-1.5,0.9
	c-0.7,3-2.4,5.5-3.7,8.2c-1.3,2.7-1.4,5.3,0.5,8c2.5,3.6,1.9,8.3-1.1,11.9c-4,4.7-13.5,8.1-20.8,2.9c-0.5-0.5-0.8-0.4-1,0.2
	c0,0,0,0,0,0c-3.1,0.3-5.7,2.3-8.7,3c-0.5,0.1-0.6,0.5-0.7,0.9c-0.3,1.5-0.7,2.9-1,4.4c0,0,0,0,0,0
	C369.3,578.1,369.2,578.3,369.2,578.6z M201.3,378.7c-0.5-0.2-0.4,0.3-0.5,0.5c-1.2,2.1-2.1,4.4-2.5,6.8c-0.4,0.5-0.6,1.1-0.5,1.7
	c-0.8,2-1.4,4-1.4,6.1c-0.8,1.3-0.7,2.8-1,4.3c0,2-0.8,3.9-0.5,5.9c-0.2,1.3-0.6,2.6,0,3.9c-0.9,5.4-0.2,10.7-0.5,16.3
	c1.7-0.8,3.1-1.9,4.6-2.2c1.6-0.3,2.1-1.2,2.4-2.6c0.4-2.4,1.2-4.7,2.6-6.7c3.4-4.9,8.6-6.8,14-8.2c8.4-2.2,17.3-3.1,25-7.8
	c2-1.2,4-2.2,6.1-3.2c2.9-1.3,5.8-1.9,9.1-1.3c2.9,0.6,5.2,2.3,8,3.1c0.1,0.7,0.7,0.5,1.1,0.5c1.2,1.4,2.9,2.1,4.5,2.8
	c8.6,3.9,18.2,4.4,27.1,7.3c0.4,0.9,1.2,1,2,1c4.5,3.2,7.5,7.3,7.9,13c0.1,1,0.6,1.5,1.6,1.5c0.3,0,0.6,0,0.9,0
	c1.2,0.8,2.8,2.1,3.8,1.5c1.3-0.7,0.5-2.6,0.5-4c0.2-0.9,0.8-1.7,0.5-2.7c0.3-5.9,0.4-11.8-0.9-17.6c-0.1-1.2-0.2-2.5-0.9-3.6
	c0.2-1.7-0.7-3.1-1.1-4.7c-0.2-0.3-0.3-0.6-0.5-0.9c-0.3-1.4-0.6-2.8-1.6-3.9c0.1-0.4,0.2-0.9-0.4-1.1c-0.5-1.3-0.6-2.8-1.9-3.7
	c-0.1-1.2-0.6-2.2-1.6-3c-0.4-1.3-0.9-2.6-2.3-3.3c-0.1-1.4-0.9-2.3-2.1-3c-0.6-1.3-1.4-2.4-2.6-3.3c-0.5-1.1-1.4-1.9-2.3-2.5
	c-3.4-3.6-7.1-6.8-11.6-9.1c-1.1-0.9-2.3-1.8-3.8-1.9c-1.3-1.4-3-2.1-4.8-2.5c-1.2-1-2.6-1.4-4.1-1.6c-1.9-1.1-4-1.5-6.1-2.2
	c-0.5-0.1-0.9-0.1-1.4-0.2c-2.3-0.6-4.6-1-7-0.9c-0.8-0.9-1.9-0.4-2.9-0.4c-2.8-0.4-5.7-0.9-8.5,0.1c-4.2-0.4-8.3,0.7-12.3,1.8
	c-0.2,0.2-0.4,0.3-0.5,0.5l0,0c-0.8-0.1-1.6,0.1-2.4,0.4c-4.6,1.7-9.1,3.7-13,6.6c-1.8,1.4-4.2,2.2-4.9,4.7
	c-1.9,0.1-2.9,1.3-3.5,2.9l0,0c-0.5-0.1-0.6,0.2-0.8,0.5c-0.5,0.5-1.1,1-1.5,1.5c-2.8,3.6-5.7,7.2-7.1,11.7
	C201.6,377.8,200.8,378,201.3,378.7L201.3,378.7z M237.4,495.6L237.4,495.6L237.4,495.6c1.6,0.7,0.4,2.8,1.9,3.5
	c1.8,3.1,4.3,5.6,6.6,8.2c0.3,0.6,0.7,1,1.3,1.2c0.8,1.3,1.8,2.4,3.1,3.1c0.1,1.2,1,1.8,1.8,2.4c0.4,0.6,0.8,1.2,1.3,1.8
	c1.8,2.4,2,2.4,3.9,0.1c4.8-5.6,9.4-11.2,14.3-16.7c1.4-1.6,1.5-3.1,1.2-5.2c-0.7,0.3-1.2,0.4-1.6,0.7c-4.7,3.5-10.5,3.6-15.9,4
	c-5,0.4-9.9-0.6-14.7-2.2C239.5,496.4,238.3,496.7,237.4,495.6z M256.4,541.1c0.7,0,1.4,0,2,0c1.1,0.1,2.3,0.4,2.6-1.2
	c0.5-2.4,1.1-4.9,1.6-7.3c0.1-0.4,0.1-1.2-0.2-1.4c-2.7-2-5.3-4.1-8.1-5.9c-1.1-0.7-7.6,4.7-7.3,6c0.6,2.8,1.3,5.7,1.9,8.5
	c0.2,1,0.6,1.7,1.8,1.3C252.7,541.1,254.5,541.1,256.4,541.1z M300.4,460.3c0.1-0.2,0.3-0.3,0.4-0.5c0.5-2,1.3-3.9,1-6
	c0.5-0.5,0.6-1,0.5-1.7c0.3-5.4,0.3-5.4,5.8-6.8c0.5-0.1,1-0.2,1.4-0.4c2.3-1.2,4.6-2.5,4.6-5.6l0,0c0.4,0.1,0.5-0.1,0.5-0.4
	c0.1-0.6,0.4-1.3,0-1.9c0.3-1.9,0.1-3.7-0.8-5.4c-0.4-0.9-0.6-1.8-1.6-2.4c-0.7-1.8-2.1-2.8-4-3.3c-1.2-1-2.6-1.1-4-1
	c-1.7-0.5-2.1-1.8-2.1-3.4c0.2-1.2-0.4-2.3-0.5-3.4c-0.3-1.5-0.9-2.8-1.9-3.9c-0.3-0.4-0.6-0.9-1-1.3c-0.9-1.1-2.1-2-3.5-2.6
	c-0.3-0.2-0.6-0.3-0.9-0.5l-0.2-0.1c-1-0.5-2.1-0.8-3.2-0.9c-1.8-1.3-4-1.3-6.1-1.8c-0.5,0-0.9-0.1-1.4-0.1c-4.2-1-8.4-1.6-12.4-3.3
	c-1-0.5-2-1-3-1.5c-1.4-1.1-3.1-1.7-4.9-2.1c-1.6-0.9-3.3-1.4-5.1-1.7c-1-0.4-2.1-0.4-3.1-0.6c-5.3-1.2-9,2.9-13.5,4.1
	c-2.8,0.7-5.5,2.5-8.5,3c-4.9,0.9-9.8,1.9-13.9,4.9c-0.9,0.6-2,1.1-3,1.6l0,0c0-1.1,1.5-1.5,1.4-2.7c-5.5,0.6-10,5.5-10.3,11.4
	c-0.2,4-0.5,4.3-4.7,4.8c-3.6,0.4-7.8,3.8-7.6,8.9c-0.3,1.5,0,2.9,0.8,4.2c0,1.6,1,2.8,2,3.9c0.6,0.9,1.3,1.7,2.4,2
	c0.5,0.8,1.5,1.1,2.3,1.2c3.3,0.4,4.5,2.6,5.4,5.4c0.4,1.3,0.4,2.9,1.3,4c-0.1,1.3-0.2,2.6,0.4,3.8c0,1.5,0.3,3,0.8,4.4
	c0.1,0.5,0.2,0.9,0.3,1.4c0.2,1.4,0.4,2.9,1.5,4c0,1.2,0.7,2,1.5,2.9c0.9,1.2,1.7,2.5,3,3.4c0.6,0.7,1.3,1.4,1.9,2.1
	c1.2,1,1.9,2.6,3.7,2.8c0.4,1.4,1.6,1.9,2.7,2.6c1.2,1.1,2.4,2.1,3.9,2.7c0.5,0.8,1.3,1.1,2.1,1.4c1.4,1,2.8,1.9,4.5,2.5
	c0.7,0.3,1.3,0.6,2,0.9c1.6,1.4,3.5,1.9,5.5,2.5c1,0.8,2.3,1,3.5,1.4c1.8,0.5,3.6,1,5.4,1.5c0.7,0.1,1.3,0.3,2,0.4
	c7-0.3,13.6-2.1,19.8-5.3c4.4-1.5,8.1-4,11.4-7.2l0,0c0.4,0,0.5-0.2,0.5-0.5c0.5-0.3,1.1-0.4,1.5-0.8c5.5-5.4,10.4-11.3,12.7-18.8
	C300.2,461.8,300.5,461.1,300.4,460.3L300.4,460.3z M284.9,522.7c-0.1,0.2-0.3,0.4-0.4,0.6c-0.2,0.3-0.5,0.7-0.7,1
	c-0.1,0.1-0.2,0.2-0.2,0.3c-0.2,0.2-0.3,0.5-0.5,0.7c-1,1.2-2,2.3-3.1,3.5c-2.6,2.8-5.7,5-9.6,5.4c-2.2,0.2-2.5,1.4-2.8,3.1
	c-1.4,9.4,0.9,18.4,3.5,27.3c0,0.2,0,0.3,0.1,0.5c1,4,1.9,8.1,2.9,12.1c-0.1,0.8,0,1.7,0.4,2.4c0.2,1-0.8,2.7,1.3,2.7
	c4.4-0.1,8.7,0.4,13.1-0.2c0.5,0,0.9,0,1.4,0.1c3.2,0.4,6.4,0.4,9.5-0.1c1.9,0,3.9,0,5.8,0.1c3.2,0.3,6.4,0.4,9.6-0.1
	c0.9,0,1.9,0,2.8,0c4.5,0.6,9,0.1,13.5,0.1c2.4,0,3.8-1.7,4.4-3.9c0.3-1.2,0.5-2.6,0.4-3.8c0-1.1,0.8-2.7-0.9-3.1
	c-2.3-0.5-4-3-6.9-1.3c-6.5,3.8-12.9,2.9-17.8-1.9c-3-3-3.5-6.9-1.4-10.5c2-3.5,1.9-7,0-10.6c-0.2-0.5-0.4-1-0.6-1.5
	c-0.4-1-1.2-2-1.3-3.1c-0.1-4-2.8-5-6.1-5.7c-0.6-0.4-1.2-0.6-1.9-0.6c-4-1.3-5.2-4.5-5.9-8.2c0-0.6,0-1.3-0.1-1.9
	c0.6-2.8,1.4-5.4,3.2-7.7c2.7-1.9,5.5-3.8,8.2-5.7c1-0.7,2.4-1.2,2.8-2.6c0.1-0.1,0.2-0.2,0.1-0.3c0-0.2,0.1-0.4,0.1-0.6
	c-1-1.6-2.8-2.1-4.5-2.9c-1.1-0.6-2.4-1.1-3.4-1.8c-1.6-1-2.6-0.5-3.7,0.8c-2.1,2.5-3.9,5.1-5.5,7.9c0,0-0.1,0.1-0.1,0.1
	c-0.1,0.2-0.2,0.4-0.3,0.6C288.3,516.8,286.6,519.7,284.9,522.7L284.9,522.7z M222.6,582.1c3.8,0.1,7.6,0.1,11.4,0.2
	c0.8,0,1.4-0.2,1.5-1.1c0.4-2.8,0.9-5.6,1.4-8.3c0.2-0.8,0.4-1.6,0.5-2.4c1.9-6.4,3.6-12.9,4.5-19.5c0.8-5.3,0.8-10.6-0.5-15.9
	c-0.2-0.9-0.4-1.5-1.5-1.4c-5.6,0.2-9.3-3.1-12.6-7c-3.6-4.4-6.2-9.3-9.1-14.1c-1.7-2.8-3.5-5.4-5.7-7.9c-0.7-0.7-1.3-1.2-2.5-0.7
	c-13,5.5-22.7,14.3-29.1,26.7c-0.7,0.9-1.1,1.9-1.4,2.9c-4.1,8.1-6.1,16.7-5.9,25.7c0,1.3,0,2.6,0,3.9c-0.3,2.1-0.6,4.2-0.3,6.4
	c0,0.3,0,0.6,0,0.9c-0.3,2.1,0,4,0.7,6c0,1.1,0.5,1.9,1.1,2.7c0.9,1.8,2.4,2.7,4.4,2.9c1.3,0.3,2.6,0.3,3.9,0.2
	c2.8,0.2,5.6,0.5,8.4,0c1.8,0,3.5,0,5.3,0c6.5,0.3,13,0.3,19.5-0.1C218.6,582,220.6,582.1,222.6,582.1z M348.8,478.2
	c-2,1.6-3.9,3.7-6.5,4.2c-3.8,0.7-6.7,3.1-10.3,4.1c-2.1-0.2-4.3-0.3-6.4-0.5c-0.8-1.1-2.3-1.1-3.4-1.8c-0.9-0.5-1.7-0.9-2.8-0.6
	c-4.8,1.5-7.2,9.3-3.9,13.1c1.6,1.8,2.3,3.6,1.7,5.9c-0.4,0.6-0.8,1.2-1.1,1.9c-0.8,0.9-1.1,1.9-1.5,3c-0.3,1-0.5,2-0.8,3
	c-1.2,4.5-5.1,6-8.9,7.5c-4.2,1.6-5.3,3.6-4.9,8c-0.2,1.1-0.2,2.3,0.3,3.3c-0.1,1.1,0.6,1.8,1.3,2.5c1.8,1.9,4.3,2.7,6.6,3.7
	c2,0.9,3.9,2,4.9,3.9c1.4,2.9,2.4,5.9,3.6,8.9c0.7,1.7,0.3,3.3-0.2,5c-0.4,1.4-1.4,2.6-1.5,4.1c-0.6,0.5-1,1.2-1.1,2
	c-0.4,2.2-0.1,4.1,1.9,5.5c0.4,1.6,1.5,2.5,3.1,2.8c1.1,2,2.5,2.3,4.6,1.2c4.5-2.4,9.1-3.5,14.2-1c2,1,4.1,2.7,6.7,2.3
	c0.5,0.8,1.2,1.1,2.2,1.1c0.3,1.4,1.2,2.3,2.1,3.3c0,1.2,0.6,2.2,1.3,3.1c0.5,1.4,1,2.9,2.4,3.7c1.2,1.9,3.3,2.6,5,1.6
	c2.8-1.7,5.8-3.6,6-7.4c0.9-2.3,2.6-3.7,5.1-4.4c2.1-0.6,4.1-1.6,6.1-2.5c3.3-1.4,6.5-3,10.2-1.9c0.8,0.2,1.5,0.4,2.3,0.5
	c1.7,0.8,3.4,1.6,5.1,2.4c0.3,0.2,0.5,0.4,1,0c4.2-3.1,6.7-6.8,3.6-12.1c-0.9-1.5-1.8-3.1-1.8-4.9c0.1-0.8,0.2-1.6,0.3-2.3
	c1.2-2.2,2-4.5,2.5-6.9c0.2-0.8,0.6-1.6,1-2.4c1.9-3.4,5.2-4.7,8.5-6.1c4.2-1.7,5.4-3.6,5.1-8c-0.1-1-0.3-1.9-0.5-2.8
	c0.1-0.6-0.1-1.1-0.4-1.5c-0.2-2.3-2.1-2.8-3.9-3.3c-1.1-0.5-2.1-1.3-3.4-0.4c-0.5-1.6-2.8-1.1-3.3-2.5c-1.4-3.6-3.6-6.9-4.8-10.6
	c-1.1-3.3-0.9-6.3,1.2-9.2c0.7-1,1.2-2.1,1-3.6c-0.3-3.7-2.4-6-5.1-8.2c-1.6-1.6-3.3-1.8-5.2-0.6c-1.2,0.7-2.7,1.1-3.8,2
	c-2.2,0.4-4.4,1.3-6.5,0.2c-4.4-2.4-9.4-3.3-13.6-6c0-1.1-0.2-2.2-1-3.1c0-1.6-0.9-2.8-1.6-4.2c-0.1-0.6-0.3-1-0.9-1.2
	c-2.3-2.2-5-2.6-7.9-1.7c-0.8,0.2-1.7,0.7-1.8,1.5C350.7,473.7,349.3,475.8,348.8,478.2z M263.4,559.3c-0.2-0.8,0-1.6-0.6-2.3
	c-0.7-3.8-1.5-7.6-2.2-11.5c-0.2-1-0.8-1.3-1.7-1.3c-2.6,0-5.3,0.1-7.9,0c-1.5,0-2,0.6-2.2,1.9c-0.5,2.9-1.2,5.8-1.8,8.7
	c-1.4,6.9-2.8,13.8-4.2,20.8c-0.2,1.2-1.3,2.2-0.5,3.5c-1.2,3-1.2,3,2.1,3c1.3,0,2.6,0,3.9,0c1.2,0.4,2.5,0.3,3.7-0.1
	c2.8,0,5.6,0,8.3,0c1,0.5,2,0.4,3,0c0.9,0,1.8,0,2.7,0.1c1.6,0.1,2.1-0.2,1.7-2c-1-4-1.8-8.1-2.7-12.2c0.2-1.1-0.4-2-0.6-3.1
	C264.2,563,263.8,561.2,263.4,559.3z M278.6,499.4c-1.3-0.4-2.5,0.5-3.6,1.9c-0.7,0.9-1.5,1.7-2.2,2.6c-4.4,5.1-8.8,10.3-13.1,15.5
	c-0.5,0.5-2,1.3-0.6,2.3c3.6,2.5,6.8,5.7,10.7,7.9c1.1,0.6,1.9,1,2.9-0.4c6.3-8.7,12.7-17.3,19.1-25.9c0.8-1,0.7-1.4-0.6-1.8
	C287.3,500.5,283.3,499.9,278.6,499.4z M230.5,499.3c-3.9,0.3-7.9,0.8-11.8,1.7c-1.4,0.3-1.3,0.8-0.5,1.7c2.5,3.4,5,6.8,7.5,10.2
	c4,5.7,8,11.4,12.8,16.6c1,1.1,1.7,1.3,3,0.3c2.9-2.3,5.9-4.4,8.9-6.5c1-0.7,1.1-1.1,0.3-2c-6-7-11.9-14-17.9-21
	C232.1,499.7,231.6,499,230.5,499.3z"/>
<path id="XMLID_266_" class="st0" d="M369.7,578.1c0.3-1.5,0.7-2.9,1-4.4c0.1-0.4,0.2-0.8,0.7-0.9c3-0.7,5.6-2.6,8.7-3
	C376.9,573,373.4,575.7,369.7,578.1z"/>
<path id="XMLID_265_" class="st1" d="M328.9,584.8c2.7-0.8,5.4-1.6,8.1-2.3C334.9,585.4,331.5,586.4,328.9,584.8z"/>
<path id="XMLID_264_" class="st2" d="M380.1,569.9c0.2-0.6,0.6-0.7,1-0.2C380.8,569.7,380.4,569.8,380.1,569.9z"/>
<path id="XMLID_263_" class="st2" d="M369.2,578.6c0-0.3,0.1-0.5,0.5-0.5C369.7,578.5,369.5,578.6,369.2,578.6z"/>
<path id="XMLID_262_" class="st1" d="M339.5,581.1c0.1-0.1,0.3-0.2,0.4-0.3C339.8,580.8,339.7,581,339.5,581.1z"/>
<path id="XMLID_261_" class="st1" d="M338.9,581.5c0.2-0.1,0.4-0.3,0.6-0.4C339.3,581.2,339.1,581.4,338.9,581.5z"/>
<path id="XMLID_260_" class="st1" d="M338,582c0.2-0.1,0.3-0.2,0.5-0.3C338.3,581.8,338.1,581.9,338,582z"/>
<path id="XMLID_259_" class="st1" d="M337,582.5c0.2-0.1,0.4-0.2,0.5-0.3C337.3,582.3,337.1,582.4,337,582.5z"/>
<path id="XMLID_251_" class="st3" d="M242.9,491.8c-1.9-0.6-3.9-1.1-5.5-2.5c0.3-0.1,0.7,0,0.9-0.2c6.2-4.1,12.4-8.2,18.6-12.4
	c0.1,0,0-0.2,0-0.4c-1.3,0-2.1,0.9-3.1,1.4c-6.1,3.6-12.6,6.7-18.5,10.7c-1.7-0.5-3.1-1.4-4.5-2.5c6.2-4.1,12.4-8.2,18.6-12.3
	c0.2-0.2,0.4-0.4,0.6-0.6c-0.4-0.3-0.7-0.1-0.9,0.2c-6.8,3.8-13.5,7.5-20.3,11.3c-1.6-0.6-2.7-1.6-3.9-2.7
	c9.6-6.4,19.2-12.8,28.8-19.2c1.2-0.5,2.2-1.2,3.4-2.6c-1.8,0.5-3,1.2-4,2c-8.8,5-17.7,10-26.6,14.9c-1.4,0.8-2.7,1.8-4.4,2.2
	c-1.8-0.2-2.5-1.8-3.7-2.8c0.4-0.2,0.9-0.3,1.3-0.6c8-5.3,15.9-10.5,23.9-15.8c0.4-0.2,0.9-0.4,0.8-1.5
	c-9.4,5.3-18.7,10.6-27.9,15.8c-1.3-0.9-2.1-2.2-3-3.4c9.5-6.3,19.1-12.6,28.6-18.9c0.9-0.3,1.6-0.8,2.2-1.4
	c0.2-0.1,0.4-0.3,0.6-0.4c0.2-0.2,0.4-0.3,0.6-0.5c-0.4-0.3-0.7-0.1-0.9,0.2c-0.2,0.1-0.4,0.2-0.6,0.4c-1.1,0.3-2,0.8-2.8,1.6
	c-2.9,1.6-5.7,3.2-8.6,4.7c-6.9,3.8-13.5,7.9-20.6,11.4c-1.1-1.1-1.3-2.5-1.5-4c2.6-1.6,5.3-3.2,7.9-4.9c-0.1-0.2-0.2-0.4-0.3-0.6
	c-2.6,1.3-5.2,2.7-7.8,4c-0.4-1.4-0.8-2.9-0.8-4.4c8.6-5.8,17.2-11.7,25.8-17.5c1.1-0.5,2.2-1.1,3.4-2.6c-1.7,0.6-2.8,1.2-3.9,2.1
	c-2.4,1.3-4.7,2.6-7.1,3.9c-6.2,3.4-12.2,7.2-18.6,10.3c-1-1.2-0.9-2.7-1.3-4c-0.9-2.8-2.1-5-5.4-5.4c-0.8-0.1-1.8-0.4-2.3-1.2
	c6.3-4.4,12.6-8.8,18.9-13.2c-0.1-0.2-0.3-0.4-0.4-0.6c-7,4-13.9,7.9-20.9,11.9c-1.1-1.1-2-2.3-2-3.9c1.2-1,2.3-2,3.5-2.9
	c2-1.4,4.5-2.3,5.8-4.5l0,0c0.8,0.2,1.1-0.1,1.1-0.8l0,0c0.5,0,0.9,0,1-0.5l0,0c0.2-0.2,0.4-0.3,0.6-0.5l0,0c0.5,0,0.9,0,1-0.6
	l0,0.1c0.2-0.2,0.4-0.3,0.6-0.5l0,0c0.5,0,0.8-0.1,1-0.6l0,0.1c0.2-0.2,0.4-0.4,0.6-0.6c1.7-1.5,3.9-2.2,5.6-4.1
	c-1.3-0.2-2,0.5-2.7,0.9c-6.2,3.4-12.4,6.9-18.6,10.3c-0.3-5.2,3.9-8.5,7.6-8.9c4.3-0.5,4.5-0.8,4.7-4.8c0.3-5.9,4.8-10.9,10.3-11.4
	c0.1,1.2-1.4,1.6-1.4,2.7c-0.1,0-0.3,0.1-0.4,0.1c0,0-0.1,0.1-0.1,0.1c0.2-0.1,0.3-0.1,0.5-0.2c1-0.5,2.1-1,3-1.6
	c4.2-3,9-4,13.9-4.9c3-0.5,5.7-2.3,8.5-3c4.6-1.2,8.2-5.3,13.5-4.1c1,0.2,2.1,0.2,3.1,0.6c-8.1,5.9-16.3,11.8-24.4,17.6
	c0.1,0.2,0.3,0.4,0.4,0.6c9.7-5.5,19.4-11,29.1-16.5c1.8,0.4,3.4,1,4.9,2.1c-2.8,1.9-5.7,3.8-8.4,5.9c-4.3,3.1-8.9,5.7-12.9,9.2
	c-0.1,0.1-0.1,0.2-0.2,0.3c0.1-0.1,0.2-0.1,0.3-0.2c3.4-1.1,6.2-3.2,9.3-4.9c5.1-2.8,10.2-5.5,15-8.7c4,1.6,8.3,2.3,12.4,3.3
	c-0.5,0.5-1.1,1-1.6,1.5c-0.2,0.2-0.3,0.3-0.5,0.5c-0.5,0-1-0.1-1.2,0.4c0,0.1,0.1,0.3,0.2,0.3c0.6,0,0.8-0.3,1.1-0.8
	c0.2-0.2,0.3-0.3,0.5-0.5c1.2,0,2.2-0.5,3-1.4c2.1,0.5,4.3,0.5,6.1,1.8c-7.7,4.7-15.1,9.9-22.6,15c-2.5,1.7-5.5,2.9-7.4,5.4
	c-0.4,0.1-0.7,0.2-1.1,0.3c0,0.1,0.1,0.2,0.1,0.2c0.4,0.1,0.8,0,1-0.4c0.2-0.1,0.5-0.1,0.7-0.2c10.2-5.8,20.5-11.6,30.6-17.4
	c0.7-0.4,1.5-1.1,1.8-2.1c0,0,0.2,0.1,0.2,0.1c-0.3,1.2,0.4,0.6,0.9,0.5c1.3,0.6,2.5,1.5,3.5,2.6c-2.4,2.3-5.6,3.4-8,5.8
	c-0.2,0.2-0.3,0.3-0.5,0.5c-0.5,0-1-0.1-1.2,0.5c0,0.1,0.1,0.3,0.2,0.3c0.6,0.1,0.9-0.3,1.1-0.8c0.2-0.2,0.3-0.3,0.5-0.5
	c3.4-0.7,5.9-3.2,8.9-4.5c1,1.1,1.6,2.5,1.9,3.9c-8.5,5.6-17.1,11.2-25.6,16.8c-0.5,0.3-0.8,0.8-1.2,1.2c-1.8,0.2-3,1.5-4.2,2.7
	c1.6-0.5,3-1.3,4.3-2.3c4.1-2.3,8.1-4.6,12.2-6.8c5-2.7,9.8-5.9,15-8.2c0,1.5,0.3,2.9,2.1,3.4c-0.7,0.5-1.4,1-2.2,1.6
	c-4.4,3.1-9.2,5.6-13.3,9.1c-4,1.9-7.3,4.8-11.6,7.2c2.3-0.2,9.2-3.8,12.2-6.2c2.8-1,5.2-2.7,7.7-4.1c3.7-2.1,7.7-3.9,11.1-6.5
	c1.8,0.5,3.3,1.5,4,3.3c-3.8,1.9-7.1,4.4-10.5,6.9c-6.6,4.3-13.1,8.5-19.7,12.8c0.6,0.4,1.1,0.3,1.6,0.1c6.8-4,13.9-7.6,20.6-11.9
	c3.2-1.8,6.5-3.7,9.7-5.5c0.9,1.7,1.1,3.5,0.8,5.4c-5.8,2.7-10.6,6.8-16.3,10.1c1.4,0.4,2.1-0.3,2.9-0.7c4.3-2.2,8.4-5.1,12.9-7
	c0.1,3.1-2.2,4.4-4.6,5.6c-0.4,0.2-0.9,0.3-1.4,0.4c-5.5,1.3-5.5,1.3-5.8,6.8c-1.9,1.2-3.8,2.4-6.2,3.8c2.7,0,3.9-1.8,5.7-2.2
	c0.3,2.1-0.5,4-1,6c-0.3,0.1-0.6,0.1-0.4,0.5c0,0,0,0,0,0c-4.3,1.7-7.5,5-11.4,7.3c0.1,0.2,0.2,0.4,0.3,0.6
	c3.5-1.9,6.9-3.7,10.4-5.6c-2.4,7.5-7.2,13.4-12.7,18.8c-0.4,0.4-1,0.5-1.5,0.8c-0.3,0.1-0.8-0.1-0.5,0.5c0,0,0,0,0,0
	c-0.2-0.1-0.5-0.2-0.6-0.2c-3.5,1.9-6.9,3.9-10.5,5.8c-0.9,0.5-0.4,1-0.3,1.6c-6.2,3.2-12.8,5-19.8,5.3c0.3-1.2,2.1-1.2,2.3-3
	c-1.7,1-3,1.8-4.3,2.6c-1.8-0.5-3.6-1-5.4-1.5c0-1.5,1.7-1.9,2.1-3.1c3.1-0.7,5-3.1,7.6-4.7c1-0.6,2.1-1.1,2.4-2.4
	c-3.2,1.5-6.2,3.2-9.2,4.9c-0.5,0.3-1.3,0.4-1.2,1.3C245.9,489.4,244.5,490.7,242.9,491.8z M288,420.5c-0.2,0.1-0.7-0.2-0.5,0.4
	C287.6,420.7,287.8,420.6,288,420.5c0.1,0,0.1,0,0.2-0.1c0,0,0-0.1,0-0.1C288.1,420.3,288,420.4,288,420.5z M279.1,410.3
	c-0.2,0.1-0.7-0.2-0.5,0.4C278.7,410.5,278.9,410.4,279.1,410.3c0,0,0.1-0.1,0.2-0.1c0,0,0-0.1,0-0.1
	C279.2,410.1,279.1,410.2,279.1,410.3z M257.7,491.4c-0.1,0-0.1,0.1-0.2,0.1c0.1,0,0.2,0.1,0.3,0.1c0,0,0.1-0.1,0-0.1
	C257.9,491.4,257.8,491.4,257.7,491.4z M257.4,459.9c0,0-0.1,0.1-0.1,0.1c0.1,0.2,0.2,0.2,0.3,0c0,0,0-0.1-0.1-0.1
	C257.5,459.8,257.4,459.9,257.4,459.9z M269.9,439.3c0.1-0.1,0.1-0.1,0.2-0.1c-0.1-0.1-0.1-0.1-0.2-0.1c-0.1,0-0.1,0.1-0.2,0.1
	C269.8,439.2,269.8,439.2,269.9,439.3z M239.1,438c0,0-0.1,0.1-0.1,0.1c0.1,0,0.2,0,0.3,0c0,0,0-0.1-0.1-0.1
	C239.2,438,239.1,438,239.1,438z"/>
<path id="XMLID_246_" class="st4" d="M300,525.9c-0.4-4.4,0.8-6.4,4.9-8c3.9-1.5,7.8-2.9,8.9-7.5c0.3-1,0.5-2,0.8-3
	c0.3-1.1,0.7-2.1,1.5-3c1.6-0.4,2.9-1.4,3.7-2.9c-0.9,0.4-1.7,0.7-2.6,1.1c0.7-2.3-0.1-4.1-1.7-5.9c-3.3-3.8-1-11.6,3.9-13.1
	c1-0.3,1.9,0,2.8,0.6c-1,1.5-2,3-3.2,4.8c2.7-0.6,4.4-2.5,6.6-3c2.1,0.2,4.3,0.3,6.4,0.5c-1.5,1.8-3,3.5-4.5,5.3
	c-0.1,0.1-0.2,0.3-0.3,0.4c0.2-0.1,0.3-0.1,0.5-0.2c0.4-0.1,0.8-0.2,1.1-0.4c11-6.2,21.9-12.4,32.9-18.6c0.7,1.3,1.6,2.6,1.6,4.2
	c-6.2,4.4-12.5,8.7-18.9,13.2c1.9,0.4,2.9-0.8,4.1-1.4c5.3-2.8,10.4-6.2,15.9-8.7c4.2,2.7,9.3,3.6,13.6,6c2.1,1.1,4.3,0.2,6.5-0.2
	c-1.2,2.3-3.3,4-4.5,6.4c4.5-2.6,9.4-4.6,13.6-7.9c2.7,2.1,4.8,4.5,5.1,8.2c0.1,1.4-0.3,2.6-1,3.6c-2.1,2.9-2.3,5.9-1.2,9.2
	c1.2,3.7,3.4,6.9,4.8,10.6c0.6,1.4,2.8,0.9,3.3,2.5c-0.7,1.6-2.5,2.3-3.8,4.2c3-1,5.1-2.4,7.2-3.8c1.8,0.6,3.7,1,3.9,3.3
	c-1.8,1-3.3,2.3-4.8,3.7c-0.2,0.2-0.4,0.4-0.5,0.6c0.4,0.3,0.7,0.1,1-0.2c1.6-0.9,3.2-1.7,4.8-2.6c0.2,0.9,0.4,1.9,0.5,2.8
	c0.3,4.4-0.9,6.3-5.1,8c-3.3,1.4-6.7,2.6-8.5,6.1c-0.4,0.8-0.8,1.6-1,2.4c-0.5,2.4-1.3,4.7-2.5,6.9c-0.7-0.3-1.1,0.2-1.5,0.5
	c-3.6,2.6-7.2,5.3-10.8,8c-0.2,0.2-0.4,0.4-0.6,0.6c0.4,0.3,0.7,0.2,0.9-0.2c3.9-2.2,7.8-4.3,11.7-6.5c0,1.8,0.9,3.4,1.8,4.9
	c3.1,5.3,0.5,9-3.6,12.1c-0.5,0.4-0.7,0.1-1,0c-1.7-0.8-3.4-1.6-5.1-2.4c0.5-0.8,1.1-1.5,1.6-2.3c0.1-0.2,0.3-0.4,0.4-0.6
	c0.1,0,0.1-0.1,0.2-0.1c0,0,0-0.1,0-0.1c-0.1,0.1-0.1,0.2-0.2,0.3c-0.2,0.1-0.5,0.1-0.7,0.2c-1.3,0.5-2.6,1.2-3.6,2.1
	c-3.7-1-6.9,0.6-10.2,1.9c-2,0.9-4,1.9-6.1,2.5c-2.5,0.7-4.2,2-5.1,4.4c-3.7,1.9-7.4,3.9-11,5.8c-1.4-0.8-1.9-2.3-2.4-3.7
	c5.2-3.8,10.3-7.6,15.7-11.5c-1.4-0.6-2,0.2-2.6,0.6c-4.9,2.5-9.4,5.6-14.4,7.9c-1-0.9-1.8-1.9-2.1-3.3c2.5-2.4,5.8-3.8,8.4-6
	c1.1-0.6,2.2-1.2,3.4-2.6c-1.8,0.6-3,1.2-4,2.1c-3.3,1.8-6.7,3.6-10,5.4c-2.6,0.4-4.7-1.3-6.7-2.3c-5.1-2.5-9.7-1.5-14.2,1
	c-2.1,1.1-3.5,0.8-4.6-1.2c1.6-2.9,4.7-4.6,6.7-7.9c-3.7,1.7-6.5,3.9-9.8,5.1c-2-1.4-2.3-3.3-1.9-5.5c1.3,0.1,2.4-0.8,3.3-2.8
	c-0.8,0.3-1.5,0.6-2.3,0.8c0-1.5,1-2.7,1.5-4.1c0.5-1.7,0.9-3.3,0.2-5c-1.2-2.9-2.2-6-3.6-8.9c-0.9-1.9-2.9-3-4.9-3.9
	c-2.3-1-4.8-1.8-6.6-3.7c-0.7-0.7-1.4-1.4-1.3-2.5c7.9-4.8,15.4-10.3,23-15.5c0.1-0.1,0.1-0.3,0.1-0.4c-1-0.3-1.5,0.4-2.2,0.8
	C314.1,518,307.1,521.9,300,525.9z M388.5,505.4c-0.3,0.1-0.5,0.1-0.8,0.2c-1.5,0.7-3,1.5-4.4,2.2c-1.1-1-2.1-2.1-2.8-3.5
	c0.3-0.9,1.5-1.2,1.6-2.3c-1.2-0.3-1.8,1-2.9,0.9c-3.1-1.8-6.1-3.5-9.2-5.3c0.6-1.7,2.4-2.6,3-4.4c0.1-0.1,0.5,0,0.2-0.3
	c0,0.1-0.1,0.2-0.1,0.3c-2.5,0.6-4.4,2.3-6.6,3.4c-0.8-0.1-1.6-0.1-2.4-0.3c-4.4-1.3-9-1.1-13.4-0.4c-16.7,2.6-25.4,16.3-26.1,30.5
	c-0.3,5.7,1.3,11,3.5,16.1c-1.3,1.4-2.5,2.8-3.8,4.3c-0.2,0.3-0.5,0.5-0.7,0.8c0,0-0.1,0.1-0.1,0.1c0,0,0,0.1,0,0.1
	c0-0.1,0.1-0.2,0.1-0.3c0.5,0.2,0.8,0,1.1-0.4c1.6-0.9,3.2-1.7,4.8-2.6c1,1.3,2,2.6,3,3.8c-1.6,1.4-3.2,2.8-4.5,4.4
	c-0.1,0.1-0.2,0.3-0.3,0.4c0.2,0,0.4-0.1,0.5-0.1c1.9-1,3.9-2.1,5.8-3.1c1.5,1,2.9,2.1,4.4,3.1c-1.3,1.4-2.7,2.7-4,4.1
	c-1,1.1-2.1,2.2-3.3,3.6c1.9-0.7,3.2-1.5,4.5-2.5c2.1-1.2,4.6-1.9,6.2-4c4.6,2,9.5,2.3,14.4,2.4c-0.6,0.7-1.3,1.5-2.2,2.6
	c2.1-0.6,3.7-1.1,4.6-2.6c1-0.2,1.9-0.5,2.9-0.6c17.5-2.7,26.5-16.2,26.8-31.6c0.1-5.2-1.5-10.1-3.9-14.8c1.3-1.2,2.5-2.4,3.5-3.9
	C388.2,505.7,388.3,505.5,388.5,505.4c0-0.1,0.5,0,0.1-0.3C388.6,505.1,388.6,505.3,388.5,505.4z M359.1,562.3
	c-0.1,0-0.1-0.1-0.2-0.1c-0.2,0.1-0.2,0.2,0,0.3c0,0,0.1,0,0.2-0.1C359.2,562.4,359.1,562.3,359.1,562.3z M382.9,501.6
	c-0.1,0-0.1-0.1-0.2-0.1c-0.2,0.1-0.2,0.2,0,0.3c0,0,0.1,0,0.2-0.1C382.9,501.7,382.9,501.7,382.9,501.6z"/>
<path id="XMLID_240_" class="st4" d="M267.5,348.2c2,0.7,4.2,1.1,6.1,2.2c-0.7,0.5-1.4,1.1-2.2,1.6c-8.9,6-17.7,12-26.6,18
	c-1,0.4-1.9,1-2.6,1.8c-0.2,0.1-0.4,0.3-0.6,0.4c-0.2,0.2-0.4,0.3-0.6,0.5c0.4,0.3,0.7,0.1,0.9-0.2c0.2-0.1,0.4-0.2,0.7-0.3
	c1-0.4,2-0.9,2.8-1.7c9.4-5.3,18.9-10.6,28.3-15.9c1.4-0.8,3-1.2,4-2.6c1.8,0.4,3.5,1,4.8,2.5c-0.4,0.8-1.2,1-1.9,1.5
	c-8.9,6-17.9,12-26.9,17.9c-1.5,0.9-2.9,1.7-4.9,3c2.6-0.2,4-1.5,5.5-2.4c10.7-6,21.3-12,32-18c4.5,2.3,8.2,5.5,11.6,9.1
	c-11.6,7.5-23.1,15-34.7,22.5c-1.2,0.6-2.3,1.1-3.5,2.6c1.8-0.5,2.9-1.2,4-2.1c0.5-0.3,1-0.5,1.5-0.8c11.7-6.6,23.3-13.1,35-19.7
	c1.2,0.9,2,2,2.6,3.3c-0.7,0.5-1.3,1-2,1.4c-10.2,6.7-20.5,13.4-30.7,20.1c-1.1,0.7-2.5,0.9-3,2.4l0,0c-0.4,0-0.7,0-1.1,0
	c-2.8-0.7-5.1-2.5-8-3.1c-3.3-0.6-6.2,0-9.1,1.3c-2.1,1-4.1,2-6.1,3.2c-7.7,4.7-16.5,5.6-25,7.8c-5.4,1.4-10.7,3.4-14,8.2
	c-1.4,2-2.2,4.3-2.6,6.7c-0.2,1.3-0.7,2.2-2.4,2.6c-1.5,0.3-2.9,1.4-4.6,2.2c0.4-5.6-0.4-11,0.5-16.3c9.5-6.4,19.1-12.7,28.6-19.1
	c0.3-0.1,0.7-0.4,0.5-0.6c-0.3-0.4-0.7-0.2-0.9,0.2c-0.8,0.4-1.6,0.8-2.4,1.2c-8.6,4.8-17.1,9.6-25.7,14.5c-0.3-2,0.5-3.9,0.5-5.9
	c0.4-0.1,0.8-0.2,1.1-0.4c8.1-5.4,16.1-10.9,24.1-16.3c0.4-0.3,0.9-0.4,0.8-1.1c-1-0.3-1.7,0.5-2.4,0.9c-7.6,4.2-15.1,8.4-22.7,12.6
	c0-2.1,0.7-4.1,1.4-6.1c2.2-1.4,4.5-2.9,6.7-4.3c0.2-0.2,0.4-0.4,0.6-0.6c-0.4-0.3-0.7-0.2-1,0.2c-2,1-3.9,2-5.9,3
	c0.4-2.4,1.4-4.6,2.5-6.8c0.2-0.2,0.3-0.3,0.5-0.5c0,0,0,0,0,0c1.4-0.4,2.5-1.4,3.6-2.3c0.1-0.1,0.3-0.3,0.4-0.4
	c-0.3-0.3-0.5-0.1-0.7,0.1c-0.9,0.4-1.8,0.8-2.8,1.2c1.4-4.4,4.3-8,7.1-11.7c0.4-0.6,1-1,1.5-1.5c0.3-0.1,0.7-0.1,0.8-0.5
	c0,0,0,0,0,0c1.5-0.6,2.5-1.7,3.5-2.9c0.7-2.5,3.1-3.3,4.9-4.7c4-2.9,8.4-4.9,13-6.6c0.8-0.3,1.6-0.5,2.4-0.4
	c-4.1,4.1-8.9,7.5-13.2,11.4c0.1,0.2,0.3,0.4,0.4,0.7c8.5-4.8,17.1-9.6,25.6-14.4c2.8-1,5.7-0.5,8.5-0.1c-2.6,1.8-5.1,3.6-7.7,5.5
	c0.1,0.1,0.2,0.3,0.3,0.4c3.4-1.8,6.8-3.6,10.2-5.5c2.4-0.1,4.7,0.3,7,0.9c-3,1.6-5.7,3.5-8.4,5.5c-1.1,0.6-2.3,1.2-3.5,2.6
	c1.8-0.6,3-1.3,4.1-2.1c2.8-1.6,5.7-3.1,8.5-4.7C267.3,349.1,267.7,348.8,267.5,348.2z M259.8,390.3c-0.7,0.2-1.2,0.1-1.3,0.9
	C259.2,391.3,259.6,391.1,259.8,390.3z M254.2,356.3c-0.1-0.2-0.2-0.4-0.2-0.4c-0.1,0-0.3,0-0.4,0.1c-0.2,0.1-0.2,0.2,0,0.3
	C253.7,356.3,253.9,356.3,254.2,356.3z M247.9,352.5c-0.1,0.1-0.4,0.1-0.4,0.2c-0.1,0.3,0.2,0.3,0.4,0.3c0.1,0,0.2-0.1,0.4-0.2
	C248.2,352.7,248,352.6,247.9,352.5z M205.9,375.4c0,0-0.1,0.1-0.1,0.1c0,0.1,0.1,0.1,0.1,0.1c0-0.1,0.1-0.2,0.1-0.3
	C206,375.5,205.9,375.5,205.9,375.4z"/>
<path id="XMLID_232_" class="st5" d="M173.6,559.2c-0.2-9,1.8-17.6,5.9-25.7c3-1.2,5.3-3.4,7.7-5.4c-2.4,0.3-3.8,2.5-6.3,2.4
	c6.4-12.4,16.1-21.3,29.1-26.7c1.2-0.5,1.8,0,2.5,0.7c2.2,2.4,4,5.1,5.7,7.9c3,4.7,5.6,9.7,9.1,14.1c3.2,4,6.9,7.2,12.6,7
	c1.1,0,1.3,0.5,1.5,1.4c1.3,5.3,1.2,10.6,0.5,15.9c-1,6.6-2.6,13.1-4.5,19.5c-7.1,3.5-13.9,7.7-20.7,11.6c-6.5,0.5-13,0.4-19.5,0.1
	c0.6-0.3,1.2-0.5,1.8-0.8c10.4-6.6,20.8-13.2,31.2-19.9c0.9-0.6,2.2-0.9,2.4-2.2c0-0.1,0.1-0.1,0.1-0.2c0,0.1-0.1,0.1-0.1,0.2
	c-0.6,0.2-1.3,0.4-1.8,0.7c-8.4,4.7-16.8,9.5-25.1,14.2c-4.6,2.6-9.1,5.3-13.7,8c-2.8,0.5-5.6,0.2-8.4,0c6.6-4.7,13.6-8.6,20.4-13
	c2.2-1.4,4.9-2.2,6.4-4.6c0.5,0,1.1,0.1,1.5-0.5c0.6,0,1-0.3,1-1c0-0.1,0.1-0.1,0.1-0.2c0,0.1-0.1,0.1-0.1,0.2c-0.6,0-1,0.3-1,1
	c-0.5,0-1.1-0.1-1.5,0.5c-0.4,0.1-0.8,0.2-1.2,0.4c-6.6,3.7-13.2,7.4-19.7,11.2c-3.3,1.9-6.8,3.5-9.8,5.8c-2-0.1-3.5-1.1-4.4-2.9
	c15-9.5,29.9-19,44.9-28.6c0.3-0.2,0.6-0.4,0.3-0.7c-0.4-0.3-0.8,0-1.1,0.2c-13.7,7.8-27.5,15.5-41.2,23.4c-1.4,0.8-3.4,1-4,3
	c-0.8-1.9-1-3.9-0.7-6c1.1,0,1.8-0.5,2.7-1.1c5.2-3.3,10.5-6.5,15.7-9.8c1.2-0.7,2.8-1.1,3.2-2.7c0-0.1,0.1-0.1,0.1-0.2
	c0,0.1-0.1,0.1-0.1,0.2c-0.4,0.1-0.8,0.2-1.2,0.4c-4.7,2.7-9.4,5.2-14,8c-2.2,1.3-4.9,1.9-6.4,4.3c-0.3-2.2,0-4.3,0.3-6.4
	c0.6,0,1-0.4,1.5-0.7c10.4-6.8,20.8-13.6,31.1-20.5c0.5-0.3,1.3-0.4,1.2-1.8C196,546.6,184.8,552.9,173.6,559.2z M209.2,539.3
	c-0.4,0.1-0.8,0-0.8,0.6c0,0.1,0.1,0.1,0.2,0.2C209.2,540.1,209.1,539.7,209.2,539.3c0.4-0.1,0.7-0.1,1.1-0.2c0-0.1-0.1-0.2-0.1-0.2
	C209.7,538.8,209.4,539,209.2,539.3z M197.3,555.3c-0.4,0.1-0.8,0.1-0.8,0.6c0,0.1,0.1,0.1,0.2,0.2
	C197.3,556.1,197.3,555.7,197.3,555.3c0.2-0.1,0.4-0.1,0.6-0.2c0-0.1-0.1-0.1-0.1-0.2C197.7,555.1,197.5,555.2,197.3,555.3z
	 M221.9,548.9c-0.1-0.1-0.3-0.2-0.4-0.2c-0.1,0-0.1,0.3-0.2,0.4c0.1,0.1,0.3,0.2,0.4,0.2C221.8,549.2,221.8,549,221.9,548.9z
	 M214.3,562.4c0-0.2-0.1-0.3-0.3-0.1c0,0,0,0.1,0,0.2C214.1,562.5,214.2,562.4,214.3,562.4z M189,526.9c-0.1,0-0.1,0-0.2-0.1
	c0,0.1,0,0.2,0,0.2c0.1,0,0.1,0,0.2,0C189,527,189,526.9,189,526.9z M223.3,548.2c0.2,0,0.3-0.1,0.1-0.3c0,0-0.1,0-0.2,0
	C223.2,548,223.2,548.1,223.3,548.2z"/>
<path id="XMLID_225_" class="st5" d="M274.1,577.2c-1-4-1.9-8.1-2.9-12.1c1.7-0.1,3.1-0.9,3.9-2.4c0-0.1,0.1-0.1,0.1-0.2
	c0,0.1-0.1,0.1-0.1,0.2c-1.6,0.1-2.6,1.4-4,2c-2.7-8.9-4.9-17.9-3.5-27.3c0.2-1.7,0.6-2.8,2.8-3.1c3.9-0.4,7-2.7,9.6-5.4
	c1.1-1.1,2.1-2.3,3.1-3.5c0.4-0.1,0.8-0.1,0.5-0.7c0-0.1,0.1-0.2,0.2-0.3c1.1,0.8,1.8-0.2,2.6-0.6c3.5-1.6,6.4-4.3,10.3-5.2
	c-1.8,2.3-2.6,4.9-3.2,7.7c-4.8,2.5-9.2,5.6-13.6,8.8c1.3,0.2,2.1-0.5,3-1c3.6-1.9,6.9-4.3,10.7-5.8c0.7,3.6,2,6.8,5.9,8.2
	c-2,2.3-5.2,3.2-7.1,5.7c3.1-1.6,6.4-2.8,9.1-5.1c3.2,0.6,5.9,1.7,6.1,5.7c0,1,0.8,2,1.3,3.1c-3.8,1.6-6.9,4.4-10.3,6.6
	c-1.1,0.7-2.6,1.1-3,2.6l-0.2,0.1l0.1,0.1l0.1-0.2c4.9-2.2,9.3-5.1,13.9-7.8c1.9,3.5,2,7,0,10.6c-2.1,3.6-1.6,7.5,1.4,10.5
	c4.9,4.8,11.3,5.6,17.8,1.9c3-1.7,4.7,0.8,6.9,1.3c1.7,0.4,0.9,2,0.9,3.1c0,1.3-0.1,2.6-0.4,3.8c-0.5,2.2-2,4-4.4,3.9
	c-4.5,0-9,0.5-13.5-0.1c1.2-0.9,2.5-1.6,3.1-3.8c-2.4,1.4-4.5,2.1-6,3.7c-3.2,0.4-6.4,0.4-9.6,0.1c3.2-2.7,6.5-5.4,9.2-8.6
	c-2.3,1-4.6,2.2-6.7,3.5c-2.7,1.7-5.9,2.8-8.3,5c-3.2,0.4-6.4,0.4-9.5,0.1c0.7-0.5,1.9-0.5,2-2c-1.4,0.5-2.6,0.7-3.3,1.9
	c-4.4,0.6-8.7,0.2-13.1,0.2c-2.1,0-1.1-1.7-1.3-2.7c3.3-2.1,6.4-4.3,9.2-6.9C280.2,573.6,277.6,576.3,274.1,577.2z M293.9,579.1
	c-0.4,0.1-0.8,0.1-0.8,0.6c0,0.1,0.1,0.1,0.2,0.2C293.8,579.9,293.8,579.5,293.9,579.1c0.2-0.1,0.4-0.1,0.6-0.2
	c0-0.1-0.1-0.1-0.1-0.2C294.2,578.9,294.1,579,293.9,579.1z M285.5,571.3c-0.4,0.1-0.8,0-0.8,0.6c0,0.1,0.1,0.1,0.2,0.2
	C285.4,572.1,285.4,571.7,285.5,571.3c0-0.1,0.1-0.1,0.1-0.2C285.6,571.2,285.5,571.3,285.5,571.3z M290.4,543.2
	c-0.5,0.1-1-0.2-1.3,0.4c0,0,0.1,0.2,0.1,0.2C289.8,543.9,290.2,543.6,290.4,543.2c0.4-0.1,0.8,0,0.8-0.6c0-0.1-0.1-0.1-0.2-0.2
	C290.5,542.4,290.5,542.8,290.4,543.2z M278.1,536.4c0.4-0.1,0.8-0.1,0.8-0.6c0-0.1-0.1-0.1-0.2-0.2
	C278.1,535.6,278.1,536,278.1,536.4c0,0.1-0.1,0.1-0.1,0.2C278,536.5,278,536.5,278.1,536.4z M287.1,570.5c-0.1,0-0.1,0-0.2-0.1
	c0,0.1,0,0.2,0,0.2c0.1,0,0.1,0,0.2,0C287.1,570.7,287.1,570.6,287.1,570.5z"/>
<path id="XMLID_221_" class="st4" d="M298.8,405.9c-8.9-2.9-18.5-3.5-27.1-7.3c-1.6-0.7-3.3-1.4-4.5-2.8c0-0.2,0-0.4,0-0.6
	c0,0,0,0,0,0c1.4-0.3,2.5-1.1,3.6-1.9c7.1-4,14.2-8,21.4-11.9c4.3-2.4,8.4-5.1,12.9-7c1.4,0.7,1.9,2,2.3,3.3c-0.7,0.5-1.3,1-2,1.4
	c-8.1,5.4-16.2,10.7-24.3,16.1c-1.2,0.5-2.3,1.1-3.4,2.6c0.8-0.3,1.1-0.3,1.4-0.4c0.9-0.5,1.8-1.1,2.6-1.6c0.8-0.4,1.6-0.8,2.4-1.2
	c8.3-4.6,16.6-9.2,24.8-13.9c1.3,0.9,1.4,2.4,1.9,3.7c-1.4,0.9-2.9,1.8-4.3,2.8c-0.3,0.3-1.2,0.2-1,0.6c0.2,0.4,0.9,0.3,1.3-0.2
	c1.4-0.7,2.9-1.4,4.3-2.1c1,1.1,1.2,2.5,1.6,3.9c-2,1.3-4.1,2.6-6.1,3.9c2.5-0.4,4.5-1.8,6.6-3c0.3,1.6,1.2,3,1.1,4.7
	C309.1,398.6,304,402.3,298.8,405.9z M277.5,398c-0.1-0.2-0.2-0.4-0.2-0.4c-0.1,0-0.3,0-0.4,0.1c-0.2,0.1-0.2,0.2,0,0.3
	C277,398.1,277.2,398,277.5,398z M305.9,393.8c-0.1,0.1-0.3,0.1-0.4,0.2c0.1,0.1,0.3,0.3,0.4,0.3c0.1,0,0.2-0.1,0.3-0.2
	C306.1,393.9,306,393.9,305.9,393.8z"/>
<path id="XMLID_220_" class="st6" d="M242.9,575.7c1.4-6.9,2.8-13.8,4.2-20.8c0.6-2.9,1.3-5.8,1.8-8.7c0.2-1.4,0.8-2,2.2-1.9
	c2.6,0.1,5.3,0,7.9,0c1,0,1.6,0.3,1.7,1.3c0.7,3.8,1.4,7.7,2.2,11.5c-2,1.8-3.9,3.6-5.9,5.4c2.4-0.6,4.5-1.8,6.5-3.1
	c0.4,1.9,0.8,3.7,1.2,5.6c-2.6,2-4.9,4.3-7.2,6.6c-0.2,0.2-0.3,0.4-0.5,0.6c0.4,0.2,0.7,0.1,0.9-0.2c2.4-1.3,4.9-2.6,7.3-3.9
	c0.9,4.1,1.6,8.1,2.7,12.2c0.5,1.8-0.1,2.1-1.7,2c-0.9-0.1-1.8-0.1-2.7-0.1c0.1-0.6,0.9-1.1,0.5-1.9c-1.2,0.7-2.3,1.3-3.5,2
	c-2.8,0-5.6,0-8.3,0c0.4-0.9,1.6-1.2,1.6-2.6c-2.2,0.6-3.7,1.8-5.3,2.7c-1.3,0-2.6,0-3.9,0c-3.3,0-3.3,0-2.1-3
	c3.2-1.7,5.2-4.7,7.9-7.1C247.5,572.8,245.4,574.5,242.9,575.7z"/>
<path id="XMLID_219_" class="st7" d="M278.6,499.4c4.6,0.4,8.6,1.1,12.5,2.1c1.3,0.3,1.4,0.7,0.6,1.8c-6.4,8.6-12.8,17.2-19.1,25.9
	c-1,1.4-1.8,1-2.9,0.4c-3.9-2.2-7-5.3-10.7-7.9c-1.4-1,0.2-1.7,0.6-2.3c4.3-5.2,8.7-10.3,13.1-15.5c0.7-0.9,1.5-1.7,2.2-2.6
	C276.1,499.9,277.4,499,278.6,499.4z"/>
<path id="XMLID_218_" class="st7" d="M230.5,499.3c1.1-0.3,1.6,0.4,2.1,1.1c6,7,11.9,14,17.9,21c0.8,0.9,0.7,1.3-0.3,2
	c-3,2.1-6,4.2-8.9,6.5c-1.3,1-1.9,0.8-3-0.3c-4.7-5.2-8.7-10.9-12.8-16.6c-2.4-3.4-4.9-6.8-7.5-10.2c-0.7-1-0.8-1.4,0.5-1.7
	C222.6,500.1,226.6,499.6,230.5,499.3z"/>
<path id="XMLID_215_" class="st8" d="M240.7,496.6c4.8,1.6,9.8,2.6,14.7,2.2c5.5-0.4,11.2-0.5,15.9-4c0.4-0.3,0.9-0.4,1.6-0.7
	c0.3,2,0.3,3.5-1.2,5.2c-4.9,5.5-9.5,11.1-14.3,16.7c-1.9,2.2-2,2.2-3.9-0.1c-0.4-0.6-0.8-1.2-1.3-1.8c2.2-2.1,4.4-4.2,6.6-6.2
	c0.2-0.1,0.5-0.2,0.3-0.5c-0.1-0.1-0.4,0-0.6,0.1c-2.7,1.4-5.4,2.8-8.1,4.2c-1.3-0.8-2.3-1.8-3.1-3.1c0.8-1.1,2.4-1.7,3.2-3.4
	c-2,0.5-3.2,1.5-4.5,2.2c-2.4-2.6-4.9-5.1-6.6-8.2C240,498.4,240.6,497.6,240.7,496.6z M260.1,506.7
	C260.1,506.7,260.2,506.7,260.1,506.7c0-0.1-0.1-0.1-0.1,0c0,0,0,0.1,0,0.2C260.1,506.8,260.1,506.8,260.1,506.7z"/>
<path id="XMLID_214_" class="st4" d="M315.2,398.6c1.3,5.8,1.2,11.7,0.9,17.6c-2,1.6-4.2,3.1-5.8,5.2c-1,0-1.5-0.5-1.6-1.5
	c-0.4-5.6-3.4-9.8-7.9-13C305.6,404.2,310.4,401.4,315.2,398.6z"/>
<path id="XMLID_213_" class="st6" d="M250.8,541.1c-1.2,0.4-1.6-0.4-1.8-1.3c-0.6-2.8-1.3-5.6-1.9-8.5c-0.3-1.3,6.2-6.7,7.3-6
	c2.8,1.8,5.4,3.9,8.1,5.9c0.3,0.2,0.2,0.9,0.2,1.4c-0.5,2.4-1.1,4.9-1.6,7.3c-0.3,1.7-1.5,1.3-2.6,1.2c0.7-1.9,1.9-3.6,2.4-6.2
	c-1.5,1.4-3.1,1.5-3.9,2.8C254.6,538.5,252.8,539.9,250.8,541.1z"/>
<path id="XMLID_212_" class="st8" d="M174,576.3c0.6-1.9,2.6-2.2,4-3c13.7-7.9,27.4-15.6,41.2-23.4c0.3-0.2,0.7-0.5,1.1-0.2
	c0.3,0.4,0,0.6-0.3,0.7c-15,9.5-29.9,19-44.9,28.6C174.4,578.3,174,577.4,174,576.3z"/>
<path id="XMLID_211_" class="st9" d="M284.9,522.7c1.7-3,3.4-5.9,5.4-8.7c0.3-0.1,0.5-0.3,0.3-0.6c0,0,0.1-0.1,0.1-0.1
	c1.8,0.6,2.8-0.9,4.1-1.6c2.9-1.7,6.2-2.8,8.6-5.3c1.6,0.7,3.4,1.2,4.5,2.9c-0.2,0.2-0.3,0.4-0.1,0.6c0.1,0.1,0,0.3-0.1,0.3
	c-0.9-0.8-1.5,0.1-2.2,0.5c-4.4,2.7-8.6,5.6-13.1,8.1C289.9,520.1,287.9,522.4,284.9,522.7z"/>
<path id="XMLID_210_" class="st10" d="M263.2,388c11.6-7.5,23.1-15,34.7-22.5c1,0.7,1.9,1.4,2.3,2.5c-11.7,6.6-23.3,13.1-35,19.7
	c-0.5,0.3-1,0.5-1.5,0.8C263.6,388.3,263.4,388.1,263.2,388z"/>
<path id="XMLID_209_" class="st8" d="M173.6,559.2c11.2-6.3,22.4-12.7,33.8-19.1c0.1,1.3-0.7,1.5-1.2,1.8
	c-10.4,6.8-20.8,13.6-31.1,20.5c-0.5,0.3-0.9,0.7-1.5,0.7C173.6,561.8,173.6,560.5,173.6,559.2z"/>
<path id="XMLID_208_" class="st11" d="M277.7,352c-1,1.4-2.6,1.8-4,2.6c-9.4,5.3-18.8,10.6-28.3,15.9c-0.2-0.2-0.4-0.3-0.6-0.5
	c8.9-6,17.7-12,26.6-18c0.7-0.5,1.5-1.1,2.2-1.6C275.1,350.6,276.5,351.1,277.7,352z"/>
<path id="XMLID_207_" class="st10" d="M305,374.4c-4.5,2-8.6,4.7-12.9,7c-7.2,3.9-14.3,7.9-21.4,11.9c-0.2-0.2-0.4-0.3-0.6-0.5
	c10.2-6.7,20.5-13.4,30.7-20.1c0.7-0.4,1.3-1,2-1.4C304,372,304.8,373,305,374.4z"/>
<path id="XMLID_206_" class="st8" d="M191.9,582.1c4.6-2.7,9.1-5.4,13.7-8c8.4-4.8,16.7-9.5,25.1-14.2c0.6-0.3,1.2-0.5,1.8-0.7l0,0
	c-0.3,1.3-1.5,1.6-2.4,2.2c-10.4,6.6-20.8,13.3-31.2,19.9c-0.5,0.3-1.2,0.6-1.8,0.8C195.4,582.1,193.6,582.1,191.9,582.1z"/>
<path id="XMLID_205_" class="st11" d="M286.3,356.4c-10.7,6-21.3,12-32,18c-0.2-0.2-0.4-0.4-0.6-0.5c9-6,17.9-11.9,26.9-17.9
	c0.7-0.4,1.5-0.7,1.9-1.5C284.1,354.6,285.2,355.5,286.3,356.4z"/>
<path id="XMLID_204_" class="st4" d="M294.4,409.6c-0.2,1-1,1.6-1.8,2.1c-10.2,5.9-20.4,11.6-30.6,17.4c-0.2,0.1-0.5,0.1-0.7,0.2
	l-0.1-0.1c1.9-2.5,4.9-3.7,7.4-5.4c7.5-5.1,14.8-10.3,22.6-15C292.3,408.7,293.3,409.1,294.4,409.6z"/>
<path id="XMLID_203_" class="st11" d="M222.3,479.2c1.7-0.3,2.9-1.4,4.4-2.2c8.9-4.9,17.7-9.9,26.6-14.9c0.2,0.2,0.4,0.3,0.6,0.5
	c-9.6,6.4-19.2,12.8-28.8,19.2C223.9,481.1,222.7,480.6,222.3,479.2z"/>
<path id="XMLID_202_" class="st4" d="M263.3,399.9c-9.7,5.5-19.4,11-29.1,16.5c-0.1-0.2-0.3-0.4-0.4-0.6
	c8.1-5.9,16.3-11.8,24.4-17.6C260,398.5,261.7,399,263.3,399.9z"/>
<path id="XMLID_201_" class="st11" d="M247.8,346.8c-8.5,4.8-17.1,9.6-25.6,14.4c-0.1-0.2-0.3-0.4-0.4-0.7
	c4.3-3.9,9.1-7.3,13.2-11.4c0,0,0,0,0,0c0.2-0.2,0.4-0.3,0.5-0.5C239.5,347.5,243.5,346.5,247.8,346.8z"/>
<path id="XMLID_200_" class="st11" d="M223.4,388.8c-9.5,6.4-19.1,12.7-28.6,19.1c-0.5-1.3-0.2-2.6,0-3.9
	c8.6-4.8,17.1-9.6,25.7-14.5c0.8-0.4,1.6-0.8,2.4-1.2C223.1,388.5,223.3,388.6,223.4,388.8z"/>
<path id="XMLID_199_" class="st11" d="M242.2,452.1c-9.5,6.3-19.1,12.6-28.6,18.9c-0.7-0.8-1.5-1.7-1.5-2.9
	c7-3.5,13.7-7.6,20.6-11.4c2.9-1.6,5.7-3.2,8.6-4.7C241.6,452,241.9,452,242.2,452.1z"/>
<path id="XMLID_198_" class="st10" d="M327.5,491.7c1.5-1.8,3-3.5,4.5-5.3c3.6-1,6.6-3.4,10.3-4.1c2.6-0.5,4.4-2.6,6.5-4.2
	c4.2-1.8,8.1-4.2,11.9-6.6c0.6,0.2,0.8,0.7,0.9,1.2c-11,6.2-21.9,12.4-32.9,18.6c-0.3,0.2-0.8,0.3-1.1,0.4L327.5,491.7z"/>
<path id="XMLID_197_" class="st10" d="M308.9,380.7c-8.3,4.6-16.6,9.2-24.8,13.9c-0.8,0.4-1.6,0.8-2.4,1.2c-0.2-0.2-0.4-0.4-0.6-0.5
	c8.1-5.4,16.2-10.7,24.3-16.1c0.7-0.4,1.3-1,2-1.4C308.2,378.5,308.8,379.4,308.9,380.7z"/>
<path id="XMLID_196_" class="st11" d="M209.2,454.5c6.4-3.1,12.4-6.9,18.6-10.3c2.4-1.3,4.7-2.6,7.1-3.9c0.2,0.2,0.3,0.3,0.5,0.5
	c-8.6,5.8-17.2,11.7-25.8,17.5C209,457.1,209.1,455.8,209.2,454.5z"/>
<path id="XMLID_195_" class="st10" d="M196.4,393.8c7.6-4.2,15.1-8.4,22.7-12.6c0.7-0.4,1.4-1.2,2.4-0.9c0.1,0.7-0.5,0.8-0.8,1.1
	c-8,5.4-16.1,10.9-24.1,16.3c-0.3,0.2-0.7,0.3-1.1,0.4C195.7,396.7,195.6,395.2,196.4,393.8z"/>
<path id="XMLID_194_" class="st11" d="M216.7,474.3c9.3-5.2,18.5-10.5,27.9-15.8c0.2,1.1-0.4,1.2-0.8,1.5
	c-8,5.3-15.9,10.5-23.9,15.8c-0.4,0.3-0.9,0.4-1.3,0.6C218,475.7,217.3,475,216.7,474.3z"/>
<path id="XMLID_193_" class="st9" d="M236.9,572.8c-0.5,2.8-1,5.5-1.4,8.3c-0.1,1-0.7,1.2-1.5,1.1c-3.8-0.1-7.6-0.1-11.4-0.2
	C227,578.6,231.8,575.4,236.9,572.8z"/>
<path id="XMLID_192_" class="st4" d="M302.3,421.4c-5.2,2.3-10,5.5-15,8.2c-4.1,2.2-8.1,4.5-12.2,6.8c0-0.1-0.1-0.3-0.1-0.4
	c0.4-0.4,0.7-0.9,1.2-1.2c8.5-5.6,17.1-11.2,25.6-16.8C301.9,419.1,302.5,420.2,302.3,421.4z"/>
<path id="XMLID_191_" class="st1" d="M300,525.9c7.1-3.9,14.2-7.9,21.3-11.8c0.7-0.4,1.2-1.1,2.2-0.8c-0.1,0.2,0,0.4-0.1,0.4
	c-7.6,5.2-15.1,10.6-23,15.5C299.8,528.1,299.7,527,300,525.9z"/>
<path id="XMLID_190_" class="st4" d="M360.8,471.6c-3.9,2.4-7.7,4.8-11.9,6.6c0.5-2.4,1.8-4.4,2.2-6.9c0.1-0.8,1-1.2,1.8-1.5
	C355.8,469,358.5,469.4,360.8,471.6z"/>
<path id="XMLID_189_" class="st4" d="M271.2,403.5c-4.8,3.2-10,5.9-15,8.7c-3,1.7-5.9,3.8-9.3,4.9l-0.1-0.1c4-3.5,8.6-6.1,12.9-9.2
	c2.8-2,5.6-3.9,8.4-5.9C269.1,402.5,270.2,403,271.2,403.5z"/>
<path id="XMLID_188_" class="st4" d="M308.3,425.8c-3.4,2.7-7.4,4.4-11.1,6.5c-2.5,1.5-5,3.1-7.7,4.1c-0.2-0.3-0.4-0.7-0.6-1
	c4.1-3.5,8.9-6,13.3-9.1c0.7-0.5,1.5-1,2.2-1.6C305.8,424.8,307.2,424.8,308.3,425.8z"/>
<path id="XMLID_187_" class="st8" d="M179.5,581.9c3-2.3,6.5-3.9,9.8-5.8c6.5-3.8,13.2-7.5,19.7-11.2c0.3-0.2,0.8-0.2,1.2-0.4
	c0,0,0,0,0,0c-1.5,2.4-4.2,3.1-6.4,4.6c-6.7,4.4-13.8,8.3-20.4,13C182.1,582.3,180.8,582.2,179.5,581.9z"/>
<path id="XMLID_186_" class="st11" d="M199.3,435c-1.2,1-2.3,2-3.5,2.9c-0.8-1.3-1.1-2.7-0.8-4.2c6.2-3.5,12.4-6.9,18.6-10.3
	c0.7-0.4,1.4-1.1,2.7-0.9c-1.7,1.9-3.9,2.7-5.6,4.1c-0.2,0.2-0.4,0.4-0.6,0.6c0,0,0-0.1,0-0.1c-0.5,0-0.8,0.1-1,0.6c0,0,0,0,0,0
	c-0.3,0-0.6,0.1-0.6,0.5c0,0,0-0.1,0-0.1c-0.5,0-0.8,0.1-1,0.6c0,0,0,0,0,0c-0.3,0-0.6,0.1-0.6,0.5c0,0,0,0,0,0
	c-0.5-0.1-0.8,0.1-1,0.5c0,0,0,0,0,0c-0.5,0.1-1,0.2-1.1,0.8c0,0,0,0,0,0C202.9,431.6,200.3,432.3,199.3,435z"/>
<path id="XMLID_185_" class="st8" d="M236.9,572.8c-5.1,2.6-9.8,5.8-14.3,9.3c-2,0-3.9,0-5.9-0.1c6.9-4,13.6-8.2,20.7-11.6
	C237.2,571.2,237,572,236.9,572.8z"/>
<path id="XMLID_184_" class="st11" d="M315.2,398.6c-4.8,2.8-9.6,5.6-14.4,8.3c-0.8-0.1-1.6-0.2-2-1c5.1-3.6,10.3-7.3,15.4-10.9
	C314.9,396.1,315.1,397.4,315.2,398.6z"/>
<path id="XMLID_183_" class="st11" d="M303.3,506.4c-2.4,2.4-5.7,3.6-8.6,5.3c-1.2,0.7-2.2,2.3-4.1,1.6c1.6-2.8,3.4-5.4,5.5-7.9
	c1.1-1.3,2.1-1.8,3.7-0.8C300.9,505.3,302.2,505.8,303.3,506.4z"/>
<path id="XMLID_182_" class="st11" d="M197.8,441.8c7-4,13.9-7.9,20.9-11.9c0.1,0.2,0.3,0.4,0.4,0.6c-6.3,4.4-12.6,8.8-18.9,13.2
	C199.1,443.5,198.4,442.8,197.8,441.8z"/>
<path id="XMLID_181_" class="st10" d="M364.3,480.1c-5.5,2.5-10.5,5.9-15.9,8.7c-1.2,0.6-2.2,1.8-4.1,1.4
	c6.4-4.5,12.7-8.9,18.9-13.2C364.1,477.9,364.3,479,364.3,480.1z"/>
<path id="XMLID_180_" class="st11" d="M393.5,484.5c-4.1,3.2-9,5.2-13.6,7.9c1.2-2.4,3.3-4.1,4.5-6.4c1.1-0.9,2.6-1.3,3.8-2
	C390.3,482.7,392,482.8,393.5,484.5z"/>
<path id="XMLID_179_" class="st12" d="M235.5,488.4c5.9-4,12.3-7.1,18.5-10.7c0.9-0.6,1.8-1.4,3.1-1.4c0,0.2,0.1,0.4,0,0.4
	c-6.2,4.1-12.4,8.3-18.6,12.4c-0.2,0.2-0.6,0.1-0.9,0.2C236.8,489,236.1,488.7,235.5,488.4z"/>
<path id="XMLID_178_" class="st11" d="M349,574.3c5-2.3,9.5-5.3,14.4-7.9c0.7-0.4,1.2-1.1,2.6-0.6c-5.4,3.9-10.5,7.7-15.7,11.5
	C349.6,576.4,349,575.5,349,574.3z"/>
<path id="XMLID_177_" class="st11" d="M284.9,522.7c3-0.3,5-2.6,7.4-4c4.5-2.5,8.7-5.4,13.1-8.1c0.6-0.4,1.2-1.2,2.2-0.5
	c-0.4,1.4-1.7,1.9-2.8,2.6c-2.7,1.9-5.5,3.8-8.2,5.7c-3.9,0.9-6.8,3.6-10.3,5.2c-0.8,0.4-1.5,1.3-2.6,0.6c0.2-0.3,0.5-0.7,0.7-1
	C284.6,523.1,284.8,522.9,284.9,522.7L284.9,522.7z"/>
<path id="XMLID_176_" class="st10" d="M352.7,581c3.7-1.9,7.4-3.9,11-5.8c-0.2,3.9-3.2,5.7-6,7.4C356.1,583.7,354,583,352.7,581z"/>
<path id="XMLID_175_" class="st12" d="M228.9,484.5c6.8-3.8,13.5-7.5,20.3-11.3c0.1,0.1,0.2,0.3,0.4,0.4
	c-6.2,4.1-12.4,8.2-18.6,12.3C230.2,485.6,229.4,485.3,228.9,484.5z"/>
<path id="XMLID_174_" class="st8" d="M173.2,569.5c1.5-2.4,4.2-3,6.4-4.3c4.6-2.8,9.4-5.4,14-8c0.3-0.2,0.8-0.2,1.2-0.4c0,0,0,0,0,0
	c-0.5,1.6-2.1,2-3.2,2.7c-5.2,3.3-10.5,6.5-15.7,9.8c-0.8,0.5-1.6,1.1-2.7,1.1C173.2,570.1,173.2,569.8,173.2,569.5z"/>
<path id="XMLID_173_" class="st4" d="M313.9,431.5c-3.2,1.8-6.5,3.7-9.7,5.5c-1,0-1.9-0.1-2.4-1c3.4-2.4,6.7-5,10.5-6.9
	C313.2,429.7,313.5,430.6,313.9,431.5z"/>
<path id="XMLID_172_" class="st8" d="M299.8,582c2.4-2.3,5.6-3.3,8.3-5c2.1-1.3,4.4-2.5,6.7-3.5c-2.7,3.2-6,5.9-9.2,8.6
	C303.7,582.1,301.8,582.1,299.8,582z"/>
<path id="XMLID_171_" class="st12" d="M314.1,439.2c-4.5,1.9-8.5,4.8-12.9,7c-0.8,0.4-1.4,1.1-2.9,0.7c5.7-3.3,10.6-7.4,16.3-10.1
	c0.3,0.7,0.1,1.3,0,1.9C314.4,438.9,314.3,439.1,314.1,439.2C314.1,439.2,314.1,439.2,314.1,439.2z"/>
<path id="XMLID_170_" class="st1" d="M316,564.6c3.3-1.2,6.1-3.4,9.8-5.1c-1.9,3.3-5,5-6.7,7.9C317.5,567.1,316.5,566.2,316,564.6z"
	/>
<path id="XMLID_169_" class="st10" d="M383.3,558.4c3.6-2.7,7.2-5.3,10.8-8c0.4-0.3,0.8-0.8,1.5-0.5c-0.1,0.8-0.2,1.6-0.3,2.3
	c-3.9,2.2-7.8,4.3-11.7,6.5C383.5,558.7,383.4,558.6,383.3,558.4z"/>
<path id="XMLID_168_" class="st8" d="M295.4,554.8c0.4-1.5,1.9-1.9,3-2.6c3.4-2.2,6.4-5,10.3-6.6c0.2,0.5,0.4,1,0.6,1.5
	C304.7,549.8,300.2,552.7,295.4,554.8z"/>
<path id="XMLID_167_" class="st8" d="M293.5,528.1c-3.8,1.5-7.1,4-10.7,5.8c-0.9,0.5-1.7,1.2-3,1c4.4-3.2,8.8-6.2,13.6-8.8
	C293.4,526.9,293.5,527.5,293.5,528.1z"/>
<path id="XMLID_166_" class="st12" d="M273.6,489.8c-0.1-0.6-0.6-1.1,0.3-1.6c3.5-1.9,7-3.8,10.5-5.8c0.1-0.1,0.4,0.1,0.6,0.2
	C281.7,485.7,278,488.2,273.6,489.8z"/>
<path id="XMLID_165_" class="st1" d="M242.9,575.7c2.5-1.1,4.6-2.9,7.4-3.6c-2.6,2.4-4.7,5.4-7.9,7.1
	C241.6,577.9,242.6,576.8,242.9,575.7z"/>
<path id="XMLID_164_" class="st12" d="M299.7,462.5c-3.5,1.9-6.9,3.7-10.4,5.6c-0.1-0.2-0.2-0.4-0.3-0.6c3.9-2.3,7.1-5.6,11.4-7.3
	C300.5,461.1,300.2,461.8,299.7,462.5z"/>
<path id="XMLID_163_" class="st1" d="M257.4,571.5c2.3-2.3,4.6-4.6,7.2-6.6c0.2,1,0.7,2,0.6,3.1c-2.4,1.3-4.9,2.6-7.3,3.9
	C257.7,571.8,257.5,571.6,257.4,571.5z"/>
<path id="XMLID_162_" class="st13" d="M250.4,511.7c2.7-1.4,5.4-2.8,8.1-4.2c0.1,0.1,0.2,0.3,0.3,0.4c-2.2,2.1-4.4,4.2-6.6,6.2
	C251.4,513.5,250.6,512.9,250.4,511.7z"/>
<path id="XMLID_161_" class="st8" d="M274.1,577.2c3.5-0.9,6.1-3.6,9.6-4.5c-2.8,2.7-6,4.9-9.2,6.9C274.1,578.8,274,578,274.1,577.2
	z"/>
<path id="XMLID_160_" class="st10" d="M355.3,565c-2.7,2.2-5.9,3.6-8.4,6c-0.9,0-1.7-0.3-2.2-1.1c3.3-1.8,6.7-3.6,10-5.4
	C354.9,564.7,355.1,564.8,355.3,565z"/>
<path id="XMLID_159_" class="st12" d="M257.8,353.5c2.7-2,5.5-3.9,8.4-5.5c0.5,0.1,0.9,0.1,1.4,0.2c0.2,0.6-0.2,0.8-0.7,1.1
	c-2.9,1.6-5.7,3.1-8.5,4.7C258.1,353.9,258,353.7,257.8,353.5z"/>
<path id="XMLID_158_" class="st13" d="M259.2,347.2c-3.4,1.8-6.8,3.6-10.2,5.5c-0.1-0.1-0.2-0.3-0.3-0.4c2.6-1.8,5.1-3.6,7.7-5.5
	C257.3,346.8,258.3,346.3,259.2,347.2z"/>
<path id="XMLID_157_" class="st13" d="M256.9,537.8c0.8-1.3,2.4-1.4,3.9-2.8c-0.5,2.6-1.7,4.3-2.4,6.2c-0.7,0-1.4,0-2,0
	C257.1,540.1,258,539.1,256.9,537.8z"/>
<path id="XMLID_156_" class="st6" d="M256.9,537.8c1.1,1.3,0.2,2.3-0.5,3.4c-1.9,0-3.7,0-5.6,0C252.8,539.9,254.6,538.5,256.9,537.8
	z"/>
<path id="XMLID_155_" class="st10" d="M325.6,485.9c-2.3,0.5-3.9,2.4-6.6,3c1.2-1.8,2.2-3.3,3.2-4.8
	C323.3,484.8,324.8,484.8,325.6,485.9z"/>
<path id="XMLID_154_" class="st10" d="M407.9,518.9c-2.1,1.4-4.2,2.8-7.2,3.8c1.3-1.9,3-2.6,3.8-4.2
	C405.8,517.6,406.8,518.4,407.9,518.9z"/>
<path id="XMLID_153_" class="st8" d="M301.3,536.9c-2.7,2.3-6,3.5-9.1,5.1c1.9-2.5,5.1-3.4,7.1-5.7
	C300.1,536.3,300.8,536.5,301.3,536.9z"/>
<path id="XMLID_152_" class="st1" d="M263.4,559.3c-2,1.3-4,2.6-6.5,3.1c2-1.8,3.9-3.6,5.9-5.4C263.4,557.7,263.2,558.5,263.4,559.3
	z"/>
<path id="XMLID_151_" class="st11" d="M180.9,530.6c2.5,0,3.9-2.2,6.3-2.4c-2.4,2-4.7,4.1-7.7,5.4
	C179.8,532.4,180.2,531.5,180.9,530.6z"/>
<path id="XMLID_150_" class="st6" d="M315.6,418.9c0,1.4,0.8,3.4-0.5,4c-1.1,0.6-2.6-0.8-3.8-1.5C312.5,420.3,314,419.5,315.6,418.9
	z"/>
<path id="XMLID_149_" class="st4" d="M248.5,490.1c-0.4,1.2-2.1,1.6-2.1,3.1c-1.2-0.4-2.5-0.6-3.5-1.4c1.6-1.1,3.1-2.4,5.1-2.5
	C248.2,489.5,248.3,489.8,248.5,490.1z"/>
<path id="XMLID_148_" class="st4" d="M299.9,414.1c-3.1,1.3-5.5,3.7-8.9,4.5l0,0c2.4-2.3,5.6-3.4,8-5.8
	C299.2,413.2,299.5,413.6,299.9,414.1z"/>
<path id="XMLID_147_" class="st13" d="M210.4,462.7c2.6-1.3,5.2-2.7,7.8-4c0.1,0.2,0.2,0.4,0.3,0.6c-2.6,1.6-5.3,3.2-7.9,4.9
	C210.6,463.6,210.5,463.2,210.4,462.7z"/>
<path id="XMLID_146_" class="st13" d="M315.6,418.9c-1.6,0.6-3.1,1.4-4.4,2.5c-0.3,0-0.6,0-0.9,0c1.6-2.1,3.8-3.6,5.8-5.2
	C316.4,417.2,315.8,418,315.6,418.9z"/>
<path id="XMLID_145_" class="st8" d="M315.2,582c1.5-1.7,3.6-2.3,6-3.7c-0.6,2.1-1.9,2.9-3.1,3.8C317.1,582.1,316.1,582.1,315.2,582
	z"/>
<path id="XMLID_144_" class="st14" d="M248.4,582.1c1.7-0.9,3.2-2.1,5.3-2.7c0,1.4-1.2,1.8-1.6,2.6
	C250.9,582.4,249.6,582.6,248.4,582.1z"/>
<path id="XMLID_143_" class="st13" d="M198.3,386c2-1,3.9-2,5.9-3c0.1,0.1,0.2,0.3,0.4,0.4c-2.2,1.4-4.5,2.9-6.7,4.3
	C197.7,387.1,197.9,386.5,198.3,386z"/>
<path id="XMLID_142_" class="st13" d="M313.2,390.3c-2.1,1.2-4.1,2.6-6.6,3c2-1.3,4.1-2.6,6.1-3.9C312.9,389.7,313,390,313.2,390.3z
	"/>
<path id="XMLID_141_" class="st13" d="M412.2,523.8c-1.6,0.9-3.2,1.7-4.8,2.6c-0.1-0.1-0.3-0.3-0.4-0.4c1.5-1.3,3-2.7,4.8-3.7
	C412.2,522.7,412.3,523.2,412.2,523.8z"/>
<path id="XMLID_140_" class="st13" d="M301.8,453.7c-1.8,0.4-3,2.1-5.7,2.2c2.4-1.5,4.3-2.7,6.2-3.8
	C302.4,452.7,302.2,453.3,301.8,453.7z"/>
<path id="XMLID_139_" class="st13" d="M246,507.4c1.3-0.7,2.5-1.7,4.5-2.2c-0.8,1.7-2.4,2.2-3.2,3.4
	C246.7,508.4,246.3,507.9,246,507.4z"/>
<path id="XMLID_138_" class="st14" d="M240.7,496.6c-0.1,1-0.6,1.8-1.3,2.6c-1.5-0.7-0.3-2.9-1.9-3.5l0,0
	C238.3,496.7,239.5,496.4,240.7,496.6z"/>
<path id="XMLID_137_" class="st1" d="M315.1,557.2c0.7-0.3,1.5-0.5,2.3-0.8c-0.9,2-2,2.9-3.3,2.8
	C314.2,558.4,314.5,557.7,315.1,557.2z"/>
<path id="XMLID_136_" class="st13" d="M389.1,564.6c-0.5,0.8-1.1,1.5-1.6,2.3c-0.8-0.2-1.5-0.4-2.3-0.5c1.1-1,2.3-1.6,3.6-2.1
	C388.8,564.4,388.9,564.5,389.1,564.6z"/>
<path id="XMLID_135_" class="st13" d="M306.5,387.1c1.4-0.9,2.9-1.8,4.3-2.8c0.5,0.2,0.4,0.7,0.4,1.1c-1.4,0.7-2.9,1.4-4.3,2.1
	C306.7,387.4,306.6,387.3,306.5,387.1z"/>
<path id="XMLID_134_" class="st14" d="M260.4,582.1c1.1-0.6,2.2-1.3,3.5-2c0.5,0.9-0.4,1.3-0.5,1.9
	C262.4,582.5,261.4,582.6,260.4,582.1z"/>
<path id="XMLID_133_" class="st4" d="M251.8,494.7c1.3-0.8,2.7-1.6,4.3-2.6c-0.2,1.8-2.1,1.8-2.3,3
	C253.2,495,252.5,494.8,251.8,494.7z"/>
<path id="XMLID_132_" class="st13" d="M317.2,502.5c0.9-0.4,1.7-0.7,2.6-1.1c-0.9,1.5-2.1,2.5-3.7,2.9
	C316.5,503.8,316.9,503.1,317.2,502.5z"/>
<path id="XMLID_131_" class="st14" d="M214.6,360.8c-1,1.2-2,2.3-3.5,2.9C211.8,362.1,212.8,360.9,214.6,360.8z"/>
<path id="XMLID_130_" class="st8" d="M275.1,562.6c-0.8,1.6-2.1,2.3-3.9,2.4c0-0.2,0-0.3-0.1-0.5
	C272.5,564.1,273.5,562.7,275.1,562.6L275.1,562.6z"/>
<path id="XMLID_129_" class="st14" d="M201.8,377.3c0.9-0.4,1.8-0.8,2.8-1.2c0.1,0.1,0.2,0.2,0.3,0.3c-1.1,1-2.2,1.9-3.6,2.3
	C200.8,378,201.6,377.8,201.8,377.3z"/>
<path id="XMLID_128_" class="st8" d="M288.9,582c0.7-1.2,1.9-1.5,3.3-1.9c-0.1,1.5-1.3,1.5-2,2C289.8,582.1,289.4,582.1,288.9,582z"
	/>
<path id="XMLID_127_" class="st4" d="M285,407c-0.8,0.9-1.8,1.4-3,1.4l0,0c0.5-0.5,1.1-1,1.6-1.5C284.1,406.9,284.5,406.9,285,407z"
	/>
<path id="XMLID_126_" class="st4" d="M295.4,410.1c-0.5,0.2-1.1,0.7-0.9-0.5C294.8,409.8,295.1,410,295.4,410.1z"/>
<path id="XMLID_125_" class="st11" d="M283.6,524.6c0.3,0.5-0.1,0.6-0.5,0.7C283.3,525,283.4,524.8,283.6,524.6z"/>
<path id="XMLID_124_" class="st13" d="M267.2,395.2c0,0.2,0,0.4,0,0.6c-0.4,0-1,0.1-1.1-0.5C266.4,395.2,266.8,395.2,267.2,395.2z"
	/>
<path id="XMLID_123_" class="st11" d="M290.6,513.4c0.1,0.3,0,0.5-0.3,0.6C290.4,513.8,290.5,513.6,290.6,513.4z"/>
<path id="XMLID_122_" class="st9" d="M284.9,522.7c-0.1,0.2-0.3,0.4-0.4,0.6C284.6,523.1,284.8,522.9,284.9,522.7z"/>
<polygon id="XMLID_121_" class="st14" points="237.5,495.6 237.4,495.6 237.4,495.6 "/>
<path id="XMLID_120_" class="st15" d="M314.1,439.2c0.2-0.1,0.3-0.3,0.5-0.4C314.6,439.1,314.5,439.3,314.1,439.2z"/>
<path id="XMLID_119_" class="st11" d="M307.7,509.8c-0.2-0.2-0.1-0.4,0.1-0.6C307.7,509.4,307.7,509.6,307.7,509.8z"/>
<path id="XMLID_118_" class="st16" d="M235.5,348.7c-0.2,0.2-0.4,0.3-0.5,0.5C235.1,349,235.3,348.8,235.5,348.7z"/>
<path id="XMLID_117_" class="st14" d="M211.2,363.6c0,0.5-0.4,0.5-0.8,0.5C210.6,363.9,210.7,363.5,211.2,363.6z"/>
<path id="XMLID_116_" class="st14" d="M201.3,378.7c-0.2,0.2-0.3,0.3-0.5,0.5C200.9,378.9,200.7,378.5,201.3,378.7z"/>
<path id="XMLID_115_" class="st12" d="M285,482.6c-0.3-0.6,0.2-0.4,0.5-0.5C285.5,482.4,285.4,482.6,285,482.6z"/>
<path id="XMLID_114_" class="st12" d="M300.4,460.3c-0.2-0.4,0.1-0.5,0.4-0.5C300.6,459.9,300.5,460.1,300.4,460.3z"/>
<path id="XMLID_113_" class="st12" d="M301.8,436c0.5,1,1.4,1.1,2.4,1c-6.6,4.3-13.8,7.9-20.6,11.9c-0.4,0.3-0.9,0.3-1.6-0.1
	C288.7,444.5,295.2,440.3,301.8,436z"/>
<path id="XMLID_112_" class="st12" d="M248.5,490.1c-0.2-0.3-0.3-0.6-0.5-0.9c-0.1-0.9,0.7-1,1.2-1.3c3-1.7,6-3.4,9.2-4.9
	c-0.3,1.3-1.5,1.8-2.4,2.4C253.5,487,251.6,489.4,248.5,490.1z"/>
<path id="XMLID_111_" class="st12" d="M288.9,435.5c0.2,0.3,0.4,0.7,0.6,1c-3,2.4-9.9,6-12.2,6.2
	C281.5,440.3,284.8,437.4,288.9,435.5z"/>
<path id="XMLID_110_" class="st4" d="M199.3,435c1-2.7,3.6-3.4,5.8-4.5C203.8,432.7,201.3,433.6,199.3,435z"/>
<path id="XMLID_109_" class="st14" d="M274.9,436c0,0.1,0.1,0.3,0.1,0.4c-1.3,1-2.7,1.8-4.3,2.3C271.9,437.5,273.1,436.2,274.9,436z
	"/>
<path id="XMLID_108_" class="st13" d="M253.8,462.6c-0.2-0.2-0.4-0.3-0.6-0.5c1-0.9,2.2-1.5,4-2C256,461.5,254.9,462.1,253.8,462.6z
	"/>
<path id="XMLID_107_" class="st13" d="M235.4,440.8c-0.2-0.2-0.3-0.3-0.5-0.5c1-0.8,2.2-1.5,3.9-2.1
	C237.7,439.7,236.6,440.3,235.4,440.8z"/>
<path id="XMLID_106_" class="st14" d="M242.2,452.1c-0.3,0-0.6-0.1-0.9-0.1c0.8-0.8,1.8-1.3,2.8-1.6c0.1,0.1,0.2,0.2,0.3,0.3
	C243.9,451.3,243.1,451.8,242.2,452.1z"/>
<path id="XMLID_105_" class="st4" d="M281.5,408.8c-0.2,0.4-0.5,0.8-1.1,0.8c-0.1,0-0.2-0.3-0.2-0.3
	C280.5,408.7,281,408.8,281.5,408.8C281.5,408.8,281.5,408.8,281.5,408.8z"/>
<path id="XMLID_104_" class="st4" d="M290.4,419c-0.2,0.4-0.5,0.8-1.1,0.8c-0.1,0-0.2-0.3-0.2-0.3C289.4,418.9,290,419,290.4,419
	C290.4,419,290.4,419,290.4,419z"/>
<path id="XMLID_103_" class="st4" d="M205.1,430.5c0.1-0.6,0.6-0.8,1.1-0.8C206.2,430.3,205.9,430.7,205.1,430.5z"/>
<path id="XMLID_102_" class="st4" d="M261.2,429.2c-0.2,0.4-0.6,0.5-1,0.4c-0.1,0-0.1-0.1-0.1-0.2c0.4-0.1,0.7-0.2,1.1-0.3
	C261.1,429.1,261.2,429.2,261.2,429.2z"/>
<path id="XMLID_101_" class="st4" d="M209.2,427.7c0.2-0.4,0.5-0.6,1-0.6C210,427.6,209.6,427.7,209.2,427.7z"/>
<path id="XMLID_100_" class="st0" d="M216.1,411.2c-0.2,0.1-0.3,0.1-0.5,0.2c0,0,0.1-0.1,0.1-0.1C215.9,411.3,216,411.3,216.1,411.2
	C216.2,411.2,216.1,411.2,216.1,411.2z"/>
<path id="XMLID_99_" class="st4" d="M279,410.3c-0.2,0.1-0.3,0.2-0.5,0.4C278.4,410,278.9,410.4,279,410.3L279,410.3z"/>
<path id="XMLID_98_" class="st14" d="M244.8,450c0.2-0.3,0.5-0.6,0.9-0.2c-0.2,0.2-0.4,0.3-0.6,0.5C245,450.1,244.9,450,244.8,450z"
	/>
<path id="XMLID_97_" class="st4" d="M287.9,420.4c-0.2,0.1-0.4,0.3-0.5,0.4C287.3,420.2,287.8,420.6,287.9,420.4L287.9,420.4z"/>
<path id="XMLID_96_" class="st4" d="M206.2,429.6c0.2-0.4,0.5-0.6,1-0.5C207.1,429.6,206.7,429.7,206.2,429.6z"/>
<path id="XMLID_95_" class="st17" d="M257.7,491.4c0.1,0,0.1,0,0.2,0.1c0,0,0,0.1,0,0.1c-0.1,0-0.2-0.1-0.3-0.1
	C257.6,491.5,257.7,491.4,257.7,491.4z"/>
<path id="XMLID_94_" class="st12" d="M249.2,473.2c0.3-0.3,0.5-0.5,0.9-0.2c-0.2,0.2-0.4,0.4-0.6,0.6
	C249.5,473.5,249.4,473.4,249.2,473.2z"/>
<path id="XMLID_93_" class="st4" d="M207.7,428.7c0.2-0.4,0.5-0.6,1-0.6C208.5,428.6,208.1,428.7,207.7,428.7z"/>
<path id="XMLID_92_" class="st13" d="M257.4,459.9c0.1,0,0.1,0,0.2,0c0,0,0.1,0.1,0.1,0.1c-0.1,0.2-0.2,0.2-0.3,0
	C257.3,460,257.4,459.9,257.4,459.9z"/>
<path id="XMLID_91_" class="st16" d="M246.9,417.1c-0.1,0.1-0.2,0.1-0.3,0.2C246.7,417.2,246.7,417.1,246.9,417.1
	C246.8,417,246.9,417.1,246.9,417.1z"/>
<path id="XMLID_90_" class="st16" d="M290.9,418.5c-0.2,0.2-0.3,0.3-0.5,0.5c0,0,0,0,0,0C290.6,418.8,290.7,418.7,290.9,418.5
	C290.9,418.5,290.9,418.5,290.9,418.5z"/>
<path id="XMLID_89_" class="st16" d="M288,420.5c0.1-0.1,0.2-0.2,0.2-0.2c0,0,0,0.1,0,0.1C288.1,420.4,288,420.4,288,420.5
	C287.9,420.4,288,420.5,288,420.5z"/>
<path id="XMLID_88_" class="st2" d="M210.1,427.2c0.2-0.2,0.4-0.4,0.6-0.6C210.5,426.8,210.3,427,210.1,427.2z"/>
<path id="XMLID_87_" class="st4" d="M208.6,428.2c0-0.4,0.3-0.5,0.6-0.5C209,427.8,208.8,428,208.6,428.2z"/>
<path id="XMLID_86_" class="st14" d="M269.9,439.3c0-0.1-0.1-0.1-0.2-0.2c0.1,0,0.1-0.1,0.2-0.1c0.1,0,0.1,0.1,0.2,0.1
	C270,439.2,270,439.2,269.9,439.3z"/>
<path id="XMLID_85_" class="st13" d="M239.1,438c0.1,0,0.1,0,0.1,0c0,0,0,0.1,0.1,0.1c-0.1,0-0.2,0-0.3,0
	C239,438.1,239,438.1,239.1,438z"/>
<path id="XMLID_84_" class="st14" d="M244.2,450.3c0.2-0.1,0.4-0.2,0.6-0.4c0.1,0.1,0.2,0.2,0.3,0.2c-0.2,0.1-0.4,0.3-0.6,0.4
	C244.4,450.5,244.3,450.4,244.2,450.3z"/>
<path id="XMLID_83_" class="st4" d="M207.2,429.1c0-0.4,0.2-0.5,0.6-0.5C207.5,428.8,207.3,429,207.2,429.1z"/>
<path id="XMLID_82_" class="st16" d="M282,408.3c-0.2,0.2-0.3,0.3-0.5,0.5c0,0,0,0,0,0C281.7,408.6,281.8,408.5,282,408.3
	C282,408.3,282,408.3,282,408.3z"/>
<path id="XMLID_81_" class="st16" d="M279.1,410.3c0.1-0.1,0.1-0.1,0.2-0.2c0,0,0,0.1,0,0.1C279.2,410.2,279.1,410.2,279.1,410.3
	C279,410.3,279.1,410.3,279.1,410.3z"/>
<path id="XMLID_78_" class="st0" d="M370.2,497.6c3.1,1.8,6.1,3.5,9.2,5.3c0,0.8,0.5,1.2,1.2,1.4c0.7,1.3,1.6,2.5,2.8,3.5
	c0.2,0.8,0.6,1.4,1.2,2c2.4,4.7,4,9.6,3.9,14.8c-0.3,15.4-9.3,28.9-26.8,31.6c-1,0.1-1.9,0.4-2.9,0.6c-0.8,0-1.6,0-2.4,0
	c-4.9-0.2-9.8-0.5-14.4-2.4c-1.1-0.4-2.3-0.8-3.4-1.3c-1.5-1-2.9-2.1-4.4-3.1c-0.3-0.7-0.9-1.1-1.5-1.6c-1-1.3-2-2.6-3-3.8
	c-0.3-0.8-0.7-1.6-1.4-2.1c-2.2-5.2-3.8-10.5-3.5-16.1c0.8-14.2,9.4-27.9,26.1-30.5c4.4-0.7,8.9-0.8,13.4,0.4
	c0.8,0.2,1.6,0.2,2.4,0.3C367.7,497.3,368.8,497.8,370.2,497.6z M334.6,510.8c-0.4-0.1-0.5,0.1-0.6,0.4c-3.7,5.7-5.3,11.9-4.3,18.5
	c1.9,11.7,11.7,20.8,23.8,22.8c8.9,1.4,16.8-0.4,22.8-7.4c11.1-13,7.7-33-7.1-41.7c-5.5-3.2-11.4-5-17.9-3.8
	c-5.8,0.2-10.4,3-14.2,7.1C336.1,507.8,334.5,508.9,334.6,510.8l-0.1-0.1L334.6,510.8z"/>
<path id="XMLID_77_" class="st11" d="M338.5,553.1c1.1,0.4,2.3,0.8,3.4,1.3c-1.6,2-4.1,2.7-6.2,4c-0.6-0.2-1-0.6-1.2-1.1
	C335.8,555.9,337.2,554.5,338.5,553.1z"/>
<path id="XMLID_76_" class="st10" d="M370.2,497.6c-1.3,0.2-2.5-0.3-3.6-0.9c2.2-1.1,4.1-2.8,6.6-3.4l0,0
	C372.6,495,370.7,495.9,370.2,497.6z"/>
<path id="XMLID_75_" class="st1" d="M328.1,542.5c0.7,0.5,1.1,1.3,1.4,2.1c-1.6,0.9-3.2,1.7-4.8,2.6c-0.1-0.1-0.3-0.2-0.4-0.4
	C325.6,545.4,326.9,544,328.1,542.5z"/>
<path id="XMLID_74_" class="st1" d="M332.6,548.4c0.6,0.4,1.2,0.8,1.5,1.6c-1.9,1-3.9,2.1-5.8,3.1c-0.1-0.1-0.2-0.2-0.3-0.3
	C329.3,551.2,330.9,549.8,332.6,548.4z"/>
<path id="XMLID_73_" class="st10" d="M384.5,509.8c-0.6-0.6-1-1.2-1.2-2c1.5-0.7,3-1.5,4.4-2.2c0.1,0.1,0.2,0.2,0.3,0.3
	C387.1,507.3,385.8,508.6,384.5,509.8z"/>
<path id="XMLID_72_" class="st1" d="M334.5,557.2c0.2,0.6,0.7,0.9,1.2,1.1c-1.3,1-2.7,1.8-4.5,2.5
	C332.4,559.5,333.5,558.3,334.5,557.2z"/>
<path id="XMLID_71_" class="st13" d="M356.4,556.8c0.8,0,1.6,0,2.4,0c-0.9,1.6-2.5,2-4.6,2.6C355.1,558.3,355.7,557.6,356.4,556.8z"
	/>
<path id="XMLID_70_" class="st13" d="M355.3,565c-0.2-0.2-0.4-0.3-0.6-0.5c1-0.9,2.2-1.5,4-2.1C357.5,563.8,356.4,564.4,355.3,565z"
	/>
<path id="XMLID_69_" class="st13" d="M380.6,504.3c-0.8-0.2-1.2-0.6-1.2-1.4c1.1,0.1,1.7-1.2,2.9-0.9
	C382.1,503.2,380.8,503.4,380.6,504.3z"/>
<path id="XMLID_68_" class="st10" d="M383.6,558.8c-0.2,0.4-0.6,0.5-0.9,0.2c0.2-0.2,0.4-0.4,0.6-0.6
	C383.4,558.6,383.5,558.7,383.6,558.8z"/>
<path id="XMLID_67_" class="st13" d="M407.4,526.3c-0.3,0.3-0.6,0.5-1,0.2c0.2-0.2,0.4-0.4,0.5-0.6
	C407.1,526.1,407.3,526.2,407.4,526.3z"/>
<path id="XMLID_66_" class="st1" d="M323.6,547.5c0.2-0.3,0.5-0.5,0.7-0.8c0.1,0.1,0.2,0.2,0.4,0.4
	C324.4,547.6,324,547.7,323.6,547.5L323.6,547.5z"/>
<path id="XMLID_65_" class="st10" d="M387.8,505.6c0.3-0.1,0.5-0.1,0.8-0.2l0,0c-0.1,0.2-0.3,0.4-0.4,0.5
	C387.9,505.8,387.8,505.7,387.8,505.6z"/>
<path id="XMLID_64_" class="st13" d="M359.1,562.3c0,0.1,0,0.1,0,0.1c0,0-0.1,0.1-0.2,0.1c-0.2-0.1-0.2-0.2,0-0.3
	C359,562.2,359.1,562.2,359.1,562.3z"/>
<path id="XMLID_63_" class="st13" d="M389.5,564.1c0.1-0.1,0.1-0.2,0.2-0.3c0,0,0,0.1,0,0.1C389.6,564,389.5,564,389.5,564.1
	C389.5,564,389.5,564.1,389.5,564.1z"/>
<path id="XMLID_62_" class="st13" d="M388.8,564.2c0.2-0.1,0.5-0.1,0.7-0.2c0,0,0,0,0,0c-0.1,0.2-0.3,0.4-0.4,0.6
	C388.9,564.5,388.8,564.4,388.8,564.2z"/>
<path id="XMLID_61_" class="st10" d="M388.5,505.4c0-0.1,0.1-0.2,0.1-0.3C389,505.4,388.6,505.2,388.5,505.4
	C388.5,505.3,388.5,505.4,388.5,505.4z"/>
<path id="XMLID_60_" class="st13" d="M382.9,501.6c0,0,0,0.1,0,0.1c0,0-0.1,0.1-0.2,0.1c-0.2-0.1-0.2-0.2,0-0.3
	C382.8,501.5,382.8,501.6,382.9,501.6z"/>
<path id="XMLID_59_" class="st10" d="M327.7,491.9c-0.2,0.1-0.3,0.1-0.5,0.2c0.1-0.1,0.2-0.3,0.3-0.4
	C327.5,491.7,327.7,491.9,327.7,491.9z"/>
<path id="XMLID_58_" class="st1" d="M323.6,547.5c0,0.1-0.1,0.2-0.1,0.3c0,0,0-0.1,0-0.1C323.5,547.6,323.6,547.6,323.6,547.5
	C323.6,547.5,323.6,547.5,323.6,547.5z"/>
<path id="XMLID_57_" class="st10" d="M373.2,493.2c0-0.1,0.1-0.2,0.1-0.3C373.7,493.2,373.2,493.1,373.2,493.2
	C373.1,493.2,373.2,493.2,373.2,493.2z"/>
<path id="XMLID_56_" class="st1" d="M328.3,553.1c-0.2,0-0.4,0.1-0.5,0.1c0.1-0.1,0.2-0.3,0.3-0.4
	C328.1,552.9,328.2,553,328.3,553.1z"/>
<path id="XMLID_55_" class="st13" d="M253.8,373.9c0.2,0.2,0.4,0.4,0.6,0.5c-1.5,1-2.9,2.3-5.5,2.4
	C250.9,375.6,252.3,374.8,253.8,373.9z"/>
<path id="XMLID_54_" class="st13" d="M257.8,353.5c0.2,0.2,0.4,0.3,0.6,0.5c-1.1,0.9-2.2,1.5-4.1,2.1
	C255.5,354.7,256.6,354.1,257.8,353.5z"/>
<path id="XMLID_53_" class="st13" d="M270.1,392.9c0.2,0.2,0.4,0.3,0.6,0.5c-1.1,0.8-2.2,1.6-3.6,1.9
	C267.6,393.8,269.1,393.6,270.1,392.9z"/>
<path id="XMLID_52_" class="st14" d="M263.2,388c0.2,0.2,0.4,0.3,0.5,0.5c-1.1,0.8-2.2,1.5-4,2.1C260.9,389.1,262.1,388.5,263.2,388
	z"/>
<path id="XMLID_51_" class="st14" d="M244.9,370c0.2,0.2,0.4,0.3,0.6,0.5c-0.8,0.8-1.8,1.2-2.8,1.7c-0.1-0.1-0.2-0.2-0.4-0.4
	C243,371,243.9,370.5,244.9,370z"/>
<path id="XMLID_50_" class="st14" d="M259.8,390.3c-0.2,0.8-0.6,1-1.3,0.9C258.6,390.5,259.2,390.5,259.8,390.3z"/>
<path id="XMLID_49_" class="st13" d="M254.2,356.3c-0.3,0-0.5,0-0.6,0c-0.2-0.1-0.2-0.2,0-0.3c0.1,0,0.3-0.1,0.4-0.1
	C254,356,254.1,356.1,254.2,356.3z"/>
<path id="XMLID_48_" class="st14" d="M242,372.5c-0.2,0.4-0.5,0.5-0.9,0.2c0.2-0.2,0.4-0.3,0.6-0.5
	C241.8,372.3,241.9,372.4,242,372.5z"/>
<path id="XMLID_47_" class="st13" d="M247.9,352.5c0.1,0.1,0.2,0.2,0.4,0.2c-0.1,0.1-0.2,0.2-0.4,0.2c-0.2,0.1-0.4,0-0.4-0.3
	C247.6,352.6,247.8,352.6,247.9,352.5z"/>
<path id="XMLID_46_" class="st11" d="M223,388.3c0.3-0.4,0.7-0.6,0.9-0.2c0.2,0.2-0.2,0.5-0.5,0.6
	C223.3,388.6,223.1,388.5,223,388.3z"/>
<path id="XMLID_45_" class="st13" d="M204.2,383c0.3-0.4,0.6-0.5,1-0.2c-0.2,0.2-0.4,0.4-0.6,0.6C204.4,383.3,204.3,383.1,204.2,383
	z"/>
<path id="XMLID_44_" class="st14" d="M242.6,372.2c-0.2,0.1-0.4,0.2-0.7,0.3c-0.1-0.1-0.2-0.2-0.3-0.3c0.2-0.1,0.4-0.3,0.6-0.4
	C242.4,371.9,242.5,372.1,242.6,372.2z"/>
<path id="XMLID_43_" class="st14" d="M205.9,375.4c0,0,0.1,0,0.1,0c0,0.1-0.1,0.2-0.1,0.3c0,0-0.1-0.1-0.1-0.1
	C205.8,375.5,205.9,375.5,205.9,375.4z"/>
<path id="XMLID_42_" class="st14" d="M204.6,376.1c0.2-0.2,0.4-0.4,0.7-0.1c-0.1,0.1-0.3,0.3-0.4,0.4
	C204.8,376.3,204.7,376.2,204.6,376.1z"/>
<path id="XMLID_41_" class="st8" d="M221.9,548.9c-0.1,0.1-0.1,0.3-0.2,0.4c-0.1,0-0.3-0.1-0.4-0.2c0.1-0.1,0.1-0.3,0.2-0.4
	C221.6,548.7,221.8,548.8,221.9,548.9z"/>
<path id="XMLID_40_" class="st8" d="M197.3,555.3c-0.1,0.4-0.1,0.8-0.6,0.7c-0.1,0-0.2-0.1-0.2-0.2
	C196.5,555.4,197,555.4,197.3,555.3L197.3,555.3z"/>
<path id="XMLID_39_" class="st8" d="M212.7,563.1c0,0.6-0.4,1-1,1h0C211.7,563.4,212,563.1,212.7,563.1L212.7,563.1z"/>
<path id="XMLID_38_" class="st8" d="M209.2,539.3c-0.1,0.4-0.1,0.8-0.6,0.7c-0.1,0-0.2-0.1-0.2-0.2
	C208.4,539.4,208.8,539.4,209.2,539.3L209.2,539.3z"/>
<path id="XMLID_37_" class="st8" d="M211.7,564.1c-0.4,0.6-0.9,0.5-1.5,0.5c0,0,0,0,0,0C210.6,564,211.1,564.1,211.7,564.1
	C211.7,564.1,211.7,564.1,211.7,564.1z"/>
<path id="XMLID_36_" class="st8" d="M209.2,539.3c0.2-0.4,0.5-0.5,1-0.4c0.1,0,0.1,0.1,0.1,0.2C209.9,539.2,209.6,539.2,209.2,539.3
	C209.2,539.3,209.2,539.3,209.2,539.3z"/>
<path id="XMLID_35_" class="st8" d="M214.3,562.4c-0.1,0-0.1,0-0.2,0.1c0-0.1-0.1-0.2,0-0.2C214.2,562.2,214.3,562.2,214.3,562.4z"
	/>
<path id="XMLID_34_" class="st11" d="M189,526.9c0,0,0,0.1,0,0.1c0,0-0.1,0-0.2,0c0-0.1,0-0.2,0-0.2
	C188.9,526.8,189,526.9,189,526.9z"/>
<path id="XMLID_33_" class="st8" d="M223.3,548.2c0-0.1,0-0.1-0.1-0.2c0.1,0,0.2-0.1,0.2,0C223.5,548.1,223.5,548.2,223.3,548.2z"/>
<path id="XMLID_32_" class="st8" d="M197.3,555.3c0.2-0.1,0.4-0.2,0.5-0.4c0,0.1,0.1,0.1,0.1,0.2
	C197.8,555.2,197.5,555.3,197.3,555.3C197.3,555.3,197.3,555.3,197.3,555.3z"/>
<path id="XMLID_31_" class="st8" d="M212.7,563.1c0-0.1,0.1-0.1,0.1-0.2C212.8,563,212.7,563,212.7,563.1L212.7,563.1z"/>
<path id="XMLID_30_" class="st8" d="M194.8,556.8c0-0.1,0.1-0.1,0.1-0.2C194.9,556.6,194.9,556.7,194.8,556.8
	C194.8,556.8,194.8,556.8,194.8,556.8z"/>
<path id="XMLID_29_" class="st8" d="M232.5,559.2c0-0.1,0.1-0.1,0.1-0.2C232.6,559.1,232.5,559.1,232.5,559.2
	C232.5,559.2,232.5,559.2,232.5,559.2z"/>
<path id="XMLID_28_" class="st8" d="M278,536.4c0.1-0.4,0.1-0.8,0.6-0.7c0.1,0,0.2,0.1,0.2,0.2C278.8,536.4,278.4,536.3,278,536.4
	L278,536.4z"/>
<path id="XMLID_27_" class="st8" d="M290.4,543.2c-0.3,0.4-0.7,0.7-1.2,0.6c0,0-0.1-0.2-0.1-0.2C289.4,543,290,543.3,290.4,543.2
	L290.4,543.2z"/>
<path id="XMLID_26_" class="st8" d="M290.4,543.2c0.1-0.4,0.1-0.8,0.6-0.7c0.1,0,0.2,0.1,0.2,0.2
	C291.2,543.1,290.8,543.1,290.4,543.2L290.4,543.2z"/>
<path id="XMLID_25_" class="st8" d="M285.5,571.3c-0.1,0.4-0.1,0.8-0.6,0.7c-0.1,0-0.2-0.1-0.2-0.2
	C284.7,571.4,285.1,571.4,285.5,571.3L285.5,571.3z"/>
<path id="XMLID_24_" class="st8" d="M293.9,579.1c-0.1,0.4-0.1,0.8-0.6,0.7c-0.1,0-0.2-0.1-0.2-0.2
	C293.1,579.1,293.5,579.2,293.9,579.1L293.9,579.1z"/>
<path id="XMLID_23_" class="st8" d="M287.1,570.5c0,0,0,0.1,0,0.1c0,0-0.1,0-0.2,0c0-0.1,0-0.2,0-0.2
	C287,570.5,287,570.5,287.1,570.5z"/>
<path id="XMLID_22_" class="st8" d="M293.9,579.1c0.2-0.1,0.4-0.2,0.5-0.4c0,0.1,0.1,0.1,0.1,0.2C294.3,579,294.1,579,293.9,579.1
	C293.9,579.1,293.9,579.1,293.9,579.1z"/>
<path id="XMLID_21_" class="st8" d="M275.1,562.6c0-0.1,0.1-0.1,0.1-0.2C275.2,562.5,275.1,562.5,275.1,562.6
	C275.1,562.6,275.1,562.6,275.1,562.6z"/>
<path id="XMLID_20_" class="st8" d="M278.1,536.4c0,0.1-0.1,0.1-0.1,0.2C278,536.5,278,536.5,278.1,536.4
	C278,536.4,278.1,536.4,278.1,536.4z"/>
<path id="XMLID_19_" class="st8" d="M285.5,571.3c0-0.1,0.1-0.1,0.1-0.2C285.6,571.2,285.5,571.3,285.5,571.3
	C285.5,571.3,285.5,571.3,285.5,571.3z"/>
<polygon id="XMLID_18_" class="st8" points="295.4,554.8 295.3,555 295.2,554.9 "/>
<path id="XMLID_17_" class="st14" d="M281,395.2c0.2,0.2,0.4,0.4,0.6,0.5c-0.9,0.6-1.7,1.1-2.6,1.6c-0.2,0.1-0.6,0.2-1.4,0.4
	C278.7,396.4,279.8,395.8,281,395.2z"/>
<path id="XMLID_16_" class="st13" d="M306.9,387.6c-0.4,0.5-1.1,0.6-1.3,0.2c-0.2-0.4,0.7-0.3,1-0.6
	C306.6,387.3,306.7,387.4,306.9,387.6z"/>
<path id="XMLID_15_" class="st14" d="M277.5,398c-0.3,0-0.5,0-0.7,0c-0.2-0.1-0.2-0.2,0-0.3c0.1-0.1,0.3-0.1,0.4-0.1
	C277.3,397.7,277.4,397.8,277.5,398z"/>
<path id="XMLID_14_" class="st13" d="M305.9,393.8c0.1,0.1,0.2,0.2,0.4,0.2c-0.1,0.1-0.2,0.2-0.3,0.2c-0.2,0-0.3-0.2-0.4-0.3
	C305.6,393.9,305.8,393.8,305.9,393.8z"/>
<path id="XMLID_13_" class="st1" d="M257.8,571.9c-0.2,0.4-0.6,0.5-0.9,0.2c0.2-0.2,0.3-0.4,0.5-0.6
	C257.5,571.6,257.7,571.8,257.8,571.9z"/>
<path id="XMLID_12_" class="st13" d="M260.1,506.7c0,0.1-0.1,0.1-0.1,0.2c0-0.1,0-0.1,0-0.2C260,506.7,260.1,506.7,260.1,506.7
	C260.2,506.7,260.1,506.7,260.1,506.7z"/>
<path id="XMLID_11_" class="st13" d="M258.5,507.5c0.2,0,0.6-0.2,0.6-0.1c0.2,0.3-0.1,0.4-0.3,0.5
	C258.7,507.7,258.6,507.6,258.5,507.5z"/>
<path id="XMLID_10_" class="st8" d="M351.4,499.5c6.5-1.2,12.4,0.6,17.9,3.8c14.8,8.7,18.2,28.7,7.1,41.7c-6,7-13.8,8.8-22.8,7.4
	c-12.2-2-21.9-11-23.8-22.8c-1.1-6.6,0.6-12.8,4.3-18.5c0.3,0,0.5-0.1,0.6-0.4l-0.1-0.1c0,0,0.1,0.1,0.1,0.1
	C340.5,507.4,345.9,503.5,351.4,499.5z"/>
<path id="XMLID_9_" class="st8" d="M351.4,499.5c-5.5,3.9-10.9,7.9-16.7,11.3c-0.1-1.9,1.5-3,2.6-4.2
	C341,502.5,345.5,499.8,351.4,499.5z"/>
<path id="XMLID_8_" class="st2" d="M334.6,510.8c0,0.3-0.3,0.4-0.6,0.4C334.1,510.9,334.2,510.7,334.6,510.8z"/>
</svg>
