<?xml version="1.0" encoding="utf-8"?>
<!-- Generator: Adobe Illustrator 19.0.0, SVG Export Plug-In . SVG Version: 6.00 Build 0)  -->
<svg version="1.1" id="Layer_1" xmlns="http://www.w3.org/2000/svg" xmlns:xlink="http://www.w3.org/1999/xlink" x="0px" y="0px"
	 viewBox="0 0 612 792" style="enable-background:new 0 0 612 792;" xml:space="preserve">
<style type="text/css">
	.st0{fill:#272626;}
	.st1{fill:#A4A0A0;}
	.st2{fill:#A39F9E;}
	.st3{fill:#B6B2B2;}
	.st4{fill:#F47A20;}
	.st5{fill:#D0E0EE;}
	.st6{fill:#FFFDFC;}
	.st7{fill:#FFFCFC;}
	.st8{fill:#FEFCFB;}
	.st9{fill:#FEFBFA;}
	.st10{fill:#FEFAFA;}
	.st11{fill:#FEFAF9;}
	.st12{fill:#FFFAF9;}
	.st13{fill:#FDF9F7;}
	.st14{fill:#FEFAF8;}
	.st15{fill:#FEF9F8;}
	.st16{fill:#FFFAF8;}
	.st17{fill:#FCF7F6;}
	.st18{fill:#FDF9F8;}
	.st19{fill:#FEF8F6;}
	.st20{fill:#FFF9F7;}
	.st21{fill:#FCF4F2;}
	.st22{fill:#FDF5F4;}
	.st23{fill:#FBF2F0;}
	.st24{fill:#FBF6F5;}
	.st25{fill:#FDF1EE;}
	.st26{fill:#FEF2EF;}
	.st27{fill:#F7EDEA;}
	.st28{fill:#FDF2EF;}
	.st29{fill:#F3E8E6;}
	.st30{fill:#FEEFEC;}
	.st31{fill:#FEF1EE;}
	.st32{fill:#FDE8E4;}
	.st33{fill:#FCE5E1;}
	.st34{fill:#F8F8FC;}
	.st35{fill:#F7F8FB;}
	.st36{fill:#F7F7FC;}
	.st37{fill:#F6F6FB;}
	.st38{fill:#F4F5FA;}
	.st39{fill:#F7F7FB;}
	.st40{fill:#F2F3FA;}
	.st41{fill:#F2F3F9;}
	.st42{fill:#F2F2F9;}
	.st43{fill:#EAEBF3;}
	.st44{fill:#EDEEF7;}
	.st45{fill:#F1F1F9;}
	.st46{fill:#E8EAF6;}
	.st47{fill:#E1E3F3;}
	.st48{fill:#EAEBF6;}
	.st49{fill:#486CB4;}
	.st50{fill:#E3E5F3;}
	.st51{fill:#FDFDFE;}
	.st52{fill:#FEFEFC;}
	.st53{fill:#FFFEFC;}
	.st54{fill:#FFFDFB;}
	.st55{fill:#F8F8FB;}
	.st56{fill:#FFFDFA;}
	.st57{fill:#FEFCF9;}
	.st58{fill:#F3F1EF;}
	.st59{fill:#F8F5F0;}
	.st60{fill:#F5F1EC;}
	.st61{fill:#FFF9F1;}
	.st62{fill:#F1F0F6;}
	.st63{fill:#F3F3F7;}
	.st64{fill:#EDECF4;}
	.st65{fill:#E1E0EE;}
	.st66{fill:#E1E0EF;}
	.st67{fill:#D3D2E2;}
	.st68{fill:#F4ECDD;}
	.st69{fill:#DCDCEC;}
	.st70{fill:#E7E1D7;}
	.st71{fill:#DADAEA;}
	.st72{fill:#FFF2DB;}
	.st73{fill:#FFF4E0;}
	.st74{fill:#E1E0F0;}
	.st75{fill:#C9A878;}
	.st76{fill:#FFF8EB;}
	.st77{fill:#FCE6E2;}
	.st78{fill:#FBDFDB;}
	.st79{fill:#FCE7E2;}
	.st80{fill:#FBDEDA;}
	.st81{fill:#FAD0CB;}
	.st82{fill:#FBD9D4;}
	.st83{fill:#FBDBD6;}
	.st84{fill:#E9D1CE;}
	.st85{fill:#FDF7F4;}
	.st86{fill:#FEF1ED;}
	.st87{fill:#F8BFBA;}
	.st88{fill:#F9CEC9;}
	.st89{fill:#FCE1DC;}
	.st90{fill:#F8C4BE;}
	.st91{fill:#FFF9F8;}
	.st92{fill:#FCE0DB;}
	.st93{fill:#F8C2BD;}
	.st94{fill:#F9CAC4;}
	.st95{fill:#FAD7D1;}
	.st96{fill:#F6B0AB;}
	.st97{fill:#F8C2BC;}
	.st98{fill:#FBDDD8;}
	.st99{fill:#FDEAE5;}
	.st100{fill:#F9C6C1;}
	.st101{fill:#FBDED9;}
	.st102{fill:#F7BBB6;}
	.st103{fill:#F6B4AF;}
	.st104{fill:#FFFCFD;}
	.st105{fill:#FCDDD8;}
	.st106{fill:#F7BAB5;}
	.st107{fill:#272627;}
	.st108{fill:#272727;}
	.st109{fill:#FBFCFE;}
	.st110{fill:#FBFBFD;}
	.st111{fill:#F3F4FA;}
	.st112{fill:#F1F2F9;}
	.st113{fill:#ECEEF7;}
	.st114{fill:#DEE1F1;}
	.st115{fill:#DBDEF0;}
	.st116{fill:#D2D7ED;}
	.st117{fill:#E3E5F4;}
	.st118{fill:#D8DCEF;}
	.st119{fill:#CDD3EB;}
	.st120{fill:#DADDF0;}
	.st121{fill:#DCDFF1;}
	.st122{fill:#D9DDF0;}
	.st123{fill:#C7CDE8;}
	.st124{fill:#D5D9EE;}
	.st125{fill:#C4CAE7;}
	.st126{fill:#BAC1E2;}
	.st127{fill:#E0E2F2;}
	.st128{fill:#BCC4E3;}
	.st129{fill:#E7E9F5;}
	.st130{fill:#F9FAFD;}
	.st131{fill:#C2C9E6;}
	.st132{fill:#CFD4EB;}
	.st133{fill:#B6BEE1;}
	.st134{fill:#A9B3DB;}
	.st135{fill:#CBD0EA;}
	.st136{fill:#BDC4E4;}
	.st137{fill:#E4E6F4;}
	.st138{fill:#DDE0F1;}
	.st139{fill:#E0E3F2;}
	.st140{fill:#BEC5E4;}
	.st141{fill:#EAEAF4;}
	.st142{fill:#EFEEF7;}
	.st143{fill:#DCDBEA;}
	.st144{fill:#DFDEEA;}
	.st145{fill:#DEDEED;}
	.st146{fill:#ECEBF6;}
	.st147{fill:#E0E0F0;}
	.st148{fill:#E0DFF0;}
	.st149{fill:#C3C4E2;}
	.st150{fill:#C7C7E4;}
	.st151{fill:#C6C6E4;}
	.st152{fill:#A8A8D4;}
	.st153{fill:#D9D9ED;}
	.st154{fill:#DBDBEE;}
	.st155{fill:#C5C5E3;}
	.st156{fill:#C7C8E4;}
	.st157{fill:#E2E2F2;}
	.st158{fill:#DEDDEF;}
	.st159{fill:#FFFFFF;}
	.st160{fill:#DEDEEF;}
	.st161{fill:#DEDEF0;}
	.st162{fill:#BCBDDF;}
	.st163{fill:#B6B4CB;}
	.st164{fill:#C9A977;}
	.st165{fill:#DFDFF0;}
	.st166{fill:#272726;}
	.st167{fill:#282726;}
	.st168{fill:#FEFDFC;}
	.st169{fill:#FEFDFA;}
	.st170{fill:#FDFBF8;}
	.st171{fill:#FBF9F7;}
	.st172{fill:#FBF9F5;}
	.st173{fill:#FBF8F3;}
	.st174{fill:#FFF8EC;}
	.st175{fill:#FFF6E8;}
	.st176{fill:#FFF3DE;}
	.st177{fill:#FFF4E1;}
	.st178{fill:#FBF2E2;}
	.st179{fill:#FFEED0;}
	.st180{fill:#FFECC8;}
	.st181{fill:#FFF6E7;}
	.st182{fill:#FEE5B4;}
	.st183{fill:#FFF0D6;}
	.st184{fill:#FFEFD2;}
	.st185{fill:#FFF1D7;}
	.st186{fill:#FEF0D7;}
	.st187{fill:#FEEBC6;}
	.st188{fill:#FFF4E2;}
	.st189{fill:#FDFCF9;}
	.st190{fill:#FFF1D8;}
</style>
<path id="XMLID_1152_" class="st0" d="M372.8,84.2c6.3,0.8,9.8,5.1,12,10.5c3.1,7.5,3.1,15.4,2.6,23.2c-0.5,7.7-1.2,15.4-1.8,23.2
	c-0.4,5,0,10,0.8,14.9c1.8,11.1-5.4,20.4-16.7,22.1c-3.6,0.5-7.2,0-10.8,0c-18.1,0.2-36.2,0.7-54.2,0.4c-11.5-0.2-23,0-34.4-0.2
	c-15.2-0.3-30.4-0.1-45.6-0.1c-15.5,0-30.9-0.2-46.4,0c-13.1,0.1-26.1-0.3-39.2,0.3c-11.5,0.6-19.6-7.8-18.2-19
	c1.4-10.7,0.4-21.2-0.7-31.7c-0.2-2.2,0.7-4.7-1-6.7c0-1,0-2,0-3c0.6-2.5,0.6-5,0-7.5c0-1,0-2,0-3c1.5-1.6,1.1-3.7,1.4-5.5
	c1.9-11.4,10.7-18.5,22.2-18.4c41.8,0.1,83.7-0.1,125.5-0.1c25.6,0,51.2,0.2,76.8,0.3c8,0,16,0.2,23.9,0.3
	C370.3,83.9,371.5,83.8,372.8,84.2z"/>
<path id="XMLID_1151_" class="st0" d="M119.2,390.4c1.5-1.8,1-4.2,1.4-6.3c1.7-9.2,6.9-15.3,15.8-17.9c2.6-0.8,5.7-0.3,8.5-0.3
	c12.8,0,25.6-0.1,38.5-0.1c10.7,0,21.4,0.3,32-0.1c10.7-0.4,21.4,0,32.1-0.1c8.8,0,17.7,0.1,26.5,0.1c9.4,0,18.9,0,28.3,0
	c9.9-0.1,19.9,0,29.8,0.2c11.5,0.2,23.1,0.2,34.6-0.4c13.5-0.6,21.4,7.8,19.9,22.7c-1.3,13.2,0,26.2,0.5,39.3
	c0.2,5.1,0.2,10.2-0.9,15.3c-2.1,10.1-7.9,15.3-18.1,16.5c-3.2,0.4-6.4,0.1-9.7,0.1c-11.5,0.1-22.9,0.2-34.4,0.2
	c-7.7,0-15.4-0.1-23.1-0.1c-14.1,0-28.1,0-42.2,0.1c-9.7,0.1-19.4,0.1-29.1-0.2c-12.4-0.3-24.9-0.1-37.3-0.1c-11.8,0-23.6,0-35.5,0
	c-6.2,0-12.4,0.1-18.7,0.2c-11.5,0.2-18.8-7.4-17.3-18.8c1.4-10.3,0.3-20.4-0.6-30.6c-0.2-2.3,0.5-4.9-1.1-7.1c0-0.3,0-0.5,0-0.8
	c0.8-1.5,0.2-3,0.4-4.6c-0.2-1.7,0.4-3.5-0.4-5.2C119.2,391.9,119.2,391.1,119.2,390.4z"/>
<path id="XMLID_1150_" class="st1" d="M119.2,110.6c1.2,2.5,1.3,5,0,7.5C119.2,115.6,119.2,113.1,119.2,110.6z"/>
<path id="XMLID_1149_" class="st2" d="M119.2,392.6c1.5,1.6,0.5,3.5,0.6,5.3c-0.2,0.3-0.4,0.3-0.6,0
	C119.2,396.1,119.2,394.4,119.2,392.6z"/>
<path id="XMLID_1148_" class="st3" d="M119.2,397.9c0.2,0,0.4,0,0.6,0c-0.2,1.5,1,3.2-0.6,4.5C119.2,400.9,119.2,399.4,119.2,397.9z
	"/>
<path id="XMLID_1147_" class="st0" d="M434.6,343.1c-0.5,5.5-3.6,9.2-8.1,11.8c-7.2,4-14.9,4.9-22.8,2.3c-5.7-1.9-9.7-5.8-10.5-12
	c-0.4-3.4-2.3-5-5.3-6c-3.2-1.1-6.6-1.4-9.4-3.4c-0.9-0.7-1.5-0.2-2.2,0.4c-7.4,6.4-16.1,4-21.8,0.2c-5.2-3.4-9.1-7.9-10.3-14.1
	c-0.6-3-2.2-3.8-4.7-3.8c-8.1-0.1-16.2-0.5-24.3-0.3c-31.7,0.6-63.4,2.9-95.2,2.5c-15.1-0.2-30.2-0.4-44.8-5.1
	c-2.6-0.8-4.7-2.2-6.8-3.8c-1.3-1.1-2-2.4-1.9-4.2c0.6-12.3-1.2-24.4-1.9-36.6c-0.6-10.2-0.9-20.5,1.9-30.5c2-7,5.9-12.3,13.1-14.7
	c1.3-0.4,2.7-0.8,4-0.8c30.7-0.1,61.5-0.1,92.2-0.1c21.2,0,42.5,0,63.7,0.1c2.9,0,4.2-0.8,5.4-3.7c3.5-8.9,10.1-14.7,19.4-17.1
	c4.9-1.3,9.5-0.3,13.3,3.1c1.8,1.6,3.2,1.8,5.1,0.4c0.5-0.4,1.1-0.6,1.7-0.8c4.8-1.2,8.6-2.8,9-9.1c0.2-4,3.9-6.9,7.5-8.8
	c7.1-3.9,14.7-4.8,22.4-2.3c6.1,2,10,6,10.8,12.5c0.3,2.6,1.7,4.1,3.9,5c3.6,1.5,7.7,1.8,11.2,4.1c1.3,0.8,1.9-0.8,2.7-1.4
	c6-4.5,14.2-4.2,21.7,0.8c7.3,4.9,11.1,12.5,9.6,19.2c-0.6,2.4-1.7,4.4-3.4,6.1c-1.9,1.9-2,3.9-0.8,6.1c0.5,0.9,0.9,1.8,1.5,2.6
	c2.1,3.2,2.3,7.3,4.3,10.2c2,2.9,6.7,1.5,9.8,3.4c3.3,2.1,5.9,4.7,6.6,8.6c1,5.5,1.1,10.9-0.8,16.2c-2.3,6.3-7.1,9.4-13.5,10.4
	c-1.6,0.2-2.3,0.5-2.6,2.2c-0.8,3.6-3.1,6.5-4.7,9.7c-1.4,2.8-1.6,5.3,0.8,7.9c2.7,2.9,3.2,6.7,2.7,10.5
	c-1.5,11.4-17.3,21.7-28.3,18.6c-1.8-0.5-3.7-1.2-4.9-2.6c-2.1-2.3-3.9-1.9-5.8,0C440.7,338.9,436.7,339.6,434.6,343.1z"/>
<path id="XMLID_1146_" class="st4" d="M434.6,343.1c-0.2-2.4,0.7-4,3.3-4.5c2.1-0.4,3.8-1.8,6-1.9
	C441.2,339.5,438.3,341.9,434.6,343.1z"/>
<path id="XMLID_1145_" class="st5" d="M372.8,84.2c-1.3,0-2.5,0-3.8,0C370.3,83.2,371.6,83.1,372.8,84.2z"/>
<path id="XMLID_1144_" class="st5" d="M234,87.7c4.4,0.2,8.7,0.4,13.1,0.5c-0.1,1.9-1.7,2.7-3,3.6c-10.7,7.6-21.7,15-32.4,22.6
	c-1.1,0.8-2.2,1.6-3.2,2.5c-0.4,0.3-0.8,0.6-1.2,0.9c-0.2,0.2-0.8,0.3-0.7,0.5c0.2,0.3,0.8,0.1,1.2,0.2c6.5,1.7,13.1,1.7,19.7,1.6
	c3.4-0.1,6.7-0.1,10,1c1.7,2.5,3.1,0.1,4.6-0.3c0.9-0.4,1.9-0.6,2.9-0.6c11.7-0.1,23.3-0.4,35,0.1c2.4,0.8,1.5,1.9,0.2,2.9
	c1.2-0.5,1.8-1.8,3-2.5c2.8-1.2,5.8-1.3,8.8-1.3c11.2-0.3,22.4,1,33.6-0.7c2-0.3,4-0.3,5.8-1.3c1.2-0.7,2.6-1,3.7-1.8
	c11.2-6.4,22.4-12.9,33.7-19.3c1.6-0.9,2.9-2.5,5-2c2,1.5,2.7,3.8,3.4,6.1c-0.5,1.9-2.2,2.6-3.6,3.6c-9.5,6.2-18.7,12.8-28.2,19
	c-0.6,0.3-1.3,0.6-1.9,1.1c0.6-0.4,1.1-0.8,1.7-0.9c9.5-6.5,19.7-11.8,29.6-17.6c1-0.6,2-1.1,3.2-0.8c0.3,2.7,0.4,5.5-0.1,8.2
	c-4.1,4.3-9.3,7-14.1,10.2c-0.8,0.4-1.6,1-2.3,1.5c-0.2,0-0.3,0.1-0.2,0.3c0.1-0.2,0.2-0.3,0.5-0.4c0.7-0.6,1.6-1.1,2.4-1.5
	c3.4-2.1,6.7-4.3,10.2-6.1c0.9-0.5,1.8-1.5,3-0.7c-0.3,3.1-0.6,6.2-0.9,9.3c-2.4,3.7-6.4,5.4-9.6,8.1c-3.4,2.9-6.9,5.6-10.7,8
	c5.4-3.4,11-6.3,16.4-9.5c1.2-0.7,2.3-2.1,4-1.2c0.2,2.8,0.4,5.6,0.6,8.4c-2.5,4.2-6.9,6.1-10.3,9.2c-0.3,0-0.3,0.1-0.2,0.3
	c0.1-0.2,0.3-0.3,0.5-0.4c3.3-2,6-5,10.2-5.2c0.4,3.1,1,6.3,0.7,9.5c-0.1,0.3-0.8,0.6,0,0.9c0.5,3.4,0,6.8-0.8,10
	c-2,7.2-3.7,11.4-13.6,10c-0.8-2.5,1.9-3,2.5-4.6c-3,1.5-5.7,3.8-9.2,4.6c-4.3,0-8.6,0-12.8,0c0.4-3.1,3.4-3.8,4.9-5.6
	c-3.7,1.6-6.9,4.6-11.2,5.6c-4.3,0-8.5,0-12.8,0c-0.1-1.7,1.4-2.3,2.3-3.1c4.3-3.6,8.5-7.2,13.4-10.8c-6,3.9-11.9,7-17.7,10.3
	c-2.4,1.4-4.6,3-7.3,3.5c-4.3,0-8.6,0-12.9,0c-0.8-1.2,0.4-1.5,1-1.9c9.1-6.9,17.9-14.1,27.3-20.5c0.7-0.6,1.6-1,1.9-1.9
	c0.2-0.1,0.3-0.2,0.3-0.4c-0.1,0.2-0.2,0.4-0.4,0.5c-0.5,0.9-1.4,1.2-2.1,1.9c-11.6,7.1-23.5,13.7-35.3,20.6c-1.4,0.8-3,1.2-4.5,1.8
	c-4.3,0-8.5,0-12.8,0c0-1.2,0.8-1.7,1.6-2.3c5.5-3.9,11-7.8,16.8-11.3c0.7-0.4,1.3-1,2-1.5c-0.8,0.5-1.6,1.1-2.4,1.6
	c-6.2,3.7-12.5,7.3-18.8,10.9c-1.8,1-3.7,2.2-5.8,2.5c-4.3,0-8.5,0-12.8,0c0.2-1.8,1.7-2.4,2.8-3.2c11.2-7.3,21.9-15.3,33.2-22.4
	c0.8-0.4,1.5-0.9,2.1-1.4c0,0,0.1-0.1,0.1-0.1s-0.2,0.1-0.3,0.1c-0.7,0.6-1.5,1-2.3,1.4c-13.5,8.6-27.6,16.1-41.4,24.2
	c-1.1,0.6-2.3,0.9-3.5,1.2c-4-0.3-7.9-0.5-11.9-0.8c0.8-2.4,3.1-3.2,4.9-4.4c9.6-6.5,19.1-13.2,29.1-19.2c1.7-1-1.7-1.4,0.1-1.9
	c3.4-1.7,7.2-0.3,10.6-1.4c1.6-0.5,4.3-0.1,4.2-2.2c-0.2-2.3-2.9-1.8-4.6-1.8c-12.3-0.1-24.6,0.3-36.9-1c-1.2-2-2.5-0.6-3.8,0
	c-5.8,0.6-11.7,0.1-17.5,0.3c-4.5,0.1-8.9,0.6-13.3,1.5c-1.1,0.2-2.9,0.4-2.7,2c0.2,1.7,2,1.6,3.3,1.4c5.2-0.5,10.4-0.3,15.5,0.9
	c1.9,1.8-0.2,2.3-1,2.9c-3.1,2.1-6.4,3.8-9.6,5.7c-9,5.3-18.1,10.5-27.2,15.7c-1.8,1.1-3.7,1.9-5.8,2.5c-4.5,0.9-9.1,0.9-13.7,1.1
	c-0.5-2,1.3-2.5,2.4-3.2c5.2-3.6,10.5-7,16-10.1c0.7-0.4,1.5-0.9,2.1-1.4c0,0,0.1-0.1,0.1-0.1s-0.2,0.1-0.3,0.1
	c-0.7,0.6-1.5,1-2.2,1.4c-6.7,4.1-13.5,8.2-20.4,12c-1.3,0.7-2.7,1.1-4.1,1.6c-3.7,0.3-7.4,0.4-11.1,0c-0.2-2.7,1.9-3.6,3.6-4.7
	c11.1-7.3,21.9-15.1,33-22.5c3.8-2.6,7.5-5.3,11.5-7.6c0.8-0.4,1.4-0.9,2.1-1.4c-0.8,0.5-1.6,1.1-2.5,1.5
	c-15.8,9.8-32.1,18.8-48.2,28c-2.9,1.7-5.4,4.1-8.9,4.5c-2.7-0.6-4.7-2.2-6.2-4.4c0.4-1.7,2-2.1,3.2-3.1c1.4-1,3-1.7,4.3-2.8
	c0.4-0.3,0.8-0.6,1.2-0.9c1.1-0.4,1.7-1.5,2.7-2.1c3.9-2.2,7.6-4.9,11.7-6.8c3.6,0,7.2,0.8,10.8-0.2c1.4-0.4,3.2-0.5,3.4-2.4
	c0.2-1.8-1.5-2.1-2.8-2.5c-3.7-1.4-3.4-4.5-3.2-7.5c0.5-6.6,1.3-13.1,1.3-19.8c0-1.7-0.2-3.5-0.2-5.2c0.2-1.8,1.6-2.6,3-3.4
	c1.1-0.6,2.3-1.1,3.3-1.8c11.7-6.9,23.5-13.6,35.3-20.4c1.5-0.9,3.2-1.3,4.8-2c3.9,0,7.7,0.1,11.6,0.1c0.4,1.6-0.9,2.2-1.8,2.9
	c-8.3,6-16.6,12-25.2,17.5c-0.3,0.2-0.6,0.4-0.8,0.6c0.5-0.1,0.8-0.5,1.3-0.7c11-6.6,22-13.2,33.5-19.1
	C233.9,88.4,232.7,87.2,234,87.7z"/>
<path id="XMLID_1143_" class="st5" d="M171.7,112.5c-0.9,0.6-1.8,1.2-2.7,1.8c-4.1-5-6.4-5-11.1-0.2c-0.9,1-1.7,2.1-3,2.8
	c-1.2,0.6-2.2,1.6-3.5,2.2c-6.2,2.4-11.4,6.5-17.2,9.4c-1.6,0.8-3,2.3-5.1,1.7c-0.2-5.9-0.2-11.7,0.7-17.5c0.8-2,2.3-3.4,4.1-4.7
	c-1.3,0.6-2.4,1.9-4,1.1c0.2-3.9,0.3-7.7,0.5-11.6c0.1-2.9,2.4-3.9,4.5-4.9c1.3-0.6,2.8-1,4.2-1.5c0.5,3.2-1.9,4.8-3.1,6.4
	c5-2.9,10.1-6.7,16.2-8.8c4.6-0.8,9.2-1.1,13.8-1c-0.1,2.7-2.4,3.9-4.1,5.4c-2.3,2.1-4.6,4.1-6.9,6.2c-0.2,0.1-0.3,0.3-0.5,0.4
	c0.4,0,0.6-0.4,0.9-0.5c7.3-4,14-9,21.8-12c8.3-0.3,16.6-0.5,24.9-0.1c0.6,1.9-0.9,2.7-2.1,3.5c-8.4,6.6-16.8,13.2-25.5,19.3
	C173.5,110.9,172.3,111.4,171.7,112.5z"/>
<path id="XMLID_1142_" class="st5" d="M257.6,88.4c4.1,0.2,8.2,0.4,12.3,0.6c0,1.9-1.7,2.2-2.8,3c-2.5,1.7-5.1,3.3-7.8,4.8
	c-0.8,0.4-1.6,1-2.3,1.5c-0.2,0-0.3,0.1-0.2,0.3c0.1-0.2,0.2-0.3,0.4-0.4c0.7-0.6,1.5-1.1,2.4-1.5c4.7-2.5,8.8-6.2,14.1-7.6
	c4-0.1,8-0.1,12,0.6c0.3,1.5-1,1.9-1.8,2.5c-10.8,7.4-21.5,14.9-32.5,22.2c-1.1,0.8-2.3,1.5-3.7,1.7c-11.7,0-23.4,1.8-35.1,0.7
	c-0.8-0.4-1.7-0.7-0.9-1.8c0.6-0.8,1.5-1.3,2.4-1.8c13.6-7.9,27.2-15.7,40.8-23.6C255.7,88.9,256.6,88.6,257.6,88.4z"/>
<path id="XMLID_1141_" class="st5" d="M314.4,89.7c4.7-0.3,9.4-0.5,14.2-0.8c0.2,1.6-1,2.2-2,2.8c-12,8.2-24.1,16.3-35.9,24.7
	c-0.2,0.1-0.5,0.2-0.7,0.3c-6.5,1.1-12.8-0.6-19.3-0.5c-5.1,0.1-10.1,0.4-15.2-0.3c-3.2-2-0.2-2.8,0.9-3.5c4.1-2.5,8.3-5,12.5-7.4
	c7.6-4.2,15-8.8,22.6-13c1.7-1,3.5-1.8,5.4-2.3c4.3,0,8.6,0,12.9,0c-0.1,1.8-1.7,2.2-2.8,3c-3.5,2.5-7.2,4.7-10.8,6.9
	c-1.2,0.6-2.2,1.4-3.3,2.1c-0.7,0.5-1.7,0.6-2.3,1.2c-0.5-0.1-0.1-0.5-0.2-0.1c0,0.2,0.2,0.2,0.3-0.1c0.8-0.4,1.7-0.6,2.4-1.1
	c1-0.9,2.2-1.5,3.4-2.1C302.3,96.2,307.8,92,314.4,89.7z"/>
<path id="XMLID_1140_" class="st5" d="M339.9,88.9c4.5-0.5,9-0.9,13.5-0.6c0,2-1.7,2.7-3,3.5c-9.3,6.2-18.6,12.5-28,18.6
	c-1.7,0.9-3.5,1.8-4.8,3.4c-0.3,0.4-0.7,0.7-1.2,0.9c-1.4,0.4-2.2,1.8-3.7,2c-6,0.3-11.9,0.5-17.9-0.1c-1.8-0.7-1.2-1.6-0.1-2.4
	c1.4-1.1,3-1.7,4.5-2.6c11.2-6.8,22.7-13.1,34-19.8C335.5,90.6,337.6,89.5,339.9,88.9z"/>
<path id="XMLID_1139_" class="st5" d="M316.4,114.5c0.3-0.3,0.7-0.6,1-1c1.8-1.1,3.3-2.5,5.2-3.4c11.2-7,22.7-13.3,34-20
	c1.1-0.7,2.3-0.8,3.5-1.2c3.6-0.6,6.8,0.1,9.8,2.1c0.2,1.4-1,1.9-1.9,2.5c-11.2,7.2-21.8,15.3-33.2,22.1c-1.2,1-2.7,1.4-4,2.3
	c-5.1-0.6-10.3,0.4-15.3-1.5C314,114.9,315.4,114.8,316.4,114.5z"/>
<path id="XMLID_1138_" class="st5" d="M209.6,172.1c-4.7,0.3-9.4,0.9-14.2,0.7c0-1.5,1.2-2.1,2.2-2.8c10.7-7.5,21.6-14.7,32.4-22.2
	c0.8-0.6,1.7-1,2.7-1.2c5.8-0.1,11.7-1.1,17.5,0.6c0.8,0.9,0.2,1.5-0.4,2.1c-1.2,1-2.5,1.7-3.8,2.5c-10.4,6.1-21,11.9-31.3,18.2
	C213.2,170.9,211.3,171.4,209.6,172.1z"/>
<path id="XMLID_1137_" class="st5" d="M229.9,172.1c-4.3,0-8.7,0-13-0.1c-0.2-1.7,1.2-2.1,2.1-2.7c9-6,17.9-12.3,27.2-17.9
	c1.3-0.6,2.4-1.5,3.6-2.4c1-0.7,1.8-1.6,3-1.8c5.4-0.4,10.8-0.6,16.1,0.1c2.6,1.6,0.4,2.5-0.6,3.2c-3,1.8-6,3.7-9,5.4
	c-7.5,4.2-14.9,8.6-22.4,12.9C234.7,170.1,232.4,171.2,229.9,172.1z"/>
<path id="XMLID_1110_" class="st5" d="M151.4,119c0.6-1.2,1.4-2.2,2.9-2.4c1.1,1.5,1.3,3.7,4,3.6c1.4-0.1,1.6,1.4,1.7,2.5
	c0.1,1.6,0.2,3.2-0.3,4.8c-0.7,1.5-2.1,2-3.5,2.6c-1,0.3-1.9,0.7-2.8,1.3c-0.8,0.6-1.7,1.1-2.6,1.6c-5.6,3.3-11.2,6.6-16.8,9.8
	c-1.4,0.8-2.7,1.8-4.5,1.6c-0.5-2.8-0.4-5.6-0.2-8.4c0.5-0.9,1-1.7,1.8-2.3c6-4.7,11.9-9.3,18.1-13.8
	C149.7,119.4,150.5,119.1,151.4,119z"/>
<path id="XMLID_1109_" class="st5" d="M155.3,129.3c1.3-0.5,2.6-1,3.8-1.5c1.8,3.6,0.9,7.4,0.7,11.1c-0.5,1.6-1.9,2.3-3.1,3
	c-7.5,4.5-15.1,8.6-22.6,13.1c-1,0.6-2.1,1.4-3.4,0.7c-0.5-2.5-1.2-5-0.9-7.6c2.8-4,7.4-5.8,11.1-8.7c3.1-2.5,6.5-4.6,9.9-6.7
	c0.9-0.4,1.6-1,2.5-1.6C154.1,130.8,154.8,130.2,155.3,129.3z"/>
<path id="XMLID_1108_" class="st6" d="M142.1,172.9c14.5-8.5,29-17,43.6-25.4c4.5-2.6,9.1-5.1,13.7-7.7c0.8-0.4,0.9,0.1,0.9,0.7
	c-15,10.3-30,20.6-44.9,30.9c-1.4,1-3.1,1.7-3.7,3.6C148.3,175,145.1,174.5,142.1,172.9z"/>
<path id="XMLID_1107_" class="st5" d="M144.6,162.4c-0.2,0.3-0.5,0.6-0.7,0.9c-2.2-0.1-3.4,1.8-5.2,2.5c-1.2,0.6-2.2,1.6-3.7,1.2
	c-1.7-1.8-2.6-4-2.9-6.5c-0.1-0.9,0.6-1.3,1.1-1.7c7.6-5.3,15.2-10.7,22.9-15.8c0.9-0.6,1.8-1.4,3-0.9c1.3,2.7,1.3,5-1.8,6.5
	c-1.1,0.5-2.7,0.7-2.7,2.2c0,1.5,1.9,1.3,2.8,2c0.3,0.2,0.6,0.5,0.7,0.8c-3.4,2.8-6.9,5.3-11.2,6.6
	C146.4,161,145.5,161.7,144.6,162.4z"/>
<path id="XMLID_1106_" class="st7" d="M339.9,88.9c-15.2,8.9-30.5,17.7-45.7,26.6c-1.2,1.3-2.4,1.3-3.6,0c7.6-5.3,15.2-10.6,22.8-16
	c5.1-3.5,10.1-7.1,15.2-10.6C332.3,88.9,336.1,88.9,339.9,88.9z"/>
<path id="XMLID_1105_" class="st6" d="M231.7,147.4c-11.1,7.7-22.2,15.4-33.3,23.1c-1,0.7-2,1.5-2.9,2.2c-4.2,0.2-8.4,1.1-12.6,0.8
	c13.3-7.7,26.5-15.5,39.8-23.2c1.6-0.9,3.1-2,4.7-3C228.8,146.2,230.3,146.1,231.7,147.4z"/>
<path id="XMLID_1104_" class="st6" d="M296.8,89.7c-13.2,7.7-26.5,15.4-39.7,23.2c-1.2,0.7-2.3,1.5-3.4,2.2c-1.5,1.2-3.1,1.2-4.6,0
	c11.1-7.7,22.3-15.4,33.4-23.1c1.1-0.8,2.2-1.6,3.3-2.4C289.5,89.6,293.2,89.7,296.8,89.7z"/>
<path id="XMLID_1103_" class="st8" d="M257.6,88.4c-0.7,1.3-2.1,1.7-3.2,2.4c-14.3,8.3-28.6,16.5-42.9,24.8c-1,1.4-2.2,2.1-3.8,0.8
	c2-2.5,4.9-3.8,7.4-5.6c9.6-6.8,19.4-13.5,29.1-20.2c1-0.7,2.2-1.2,2.8-2.4C250.5,88.3,254.1,88.3,257.6,88.4z"/>
<path id="XMLID_1102_" class="st9" d="M290.9,173.4c13.1-8,26.5-15.6,39.8-23.1c0.8-0.3,1,0.1,0.8,0.8c-9.6,7.4-19.2,14.9-28.9,22.3
	C298.7,173.4,294.8,173.4,290.9,173.4z"/>
<path id="XMLID_1101_" class="st7" d="M174,109.9c8.5-6.5,16.9-13.1,25.4-19.6c1.1-0.8,2.3-1.5,2.7-3c4.2,0,8.4,0.1,12.6,0.1
	c-13.1,8.1-26.5,15.6-39.9,23.2C174,110.9,173.8,110.6,174,109.9z"/>
<path id="XMLID_1100_" class="st10" d="M295.4,148c-12.2,8.5-24.4,16.9-36.7,25.4c-3.1,0-6.1,0-9.2,0c13.6-7.9,27.2-15.9,40.8-23.8
	c1.4-0.8,2.8-1.5,4.2-2.3C295.5,146.9,295.5,147.3,295.4,148z"/>
<path id="XMLID_1099_" class="st11" d="M229.9,172.1c11.9-7,23.8-13.9,35.6-20.9c1.7-1,3.4-2.1,5-3.1c0.4-0.4,0.9-0.8,1.4-0.2
	c0.5,0.2,2-0.1,0.7,1c-1.5,1.3-3.3,2.3-4.9,3.4c-10,6.8-20.1,13.5-30.1,20.3C235.1,172.4,232.5,172.3,229.9,172.1z"/>
<path id="XMLID_1098_" class="st12" d="M334.5,115.2c11.8-8,23.6-16.1,35.4-24.1c1.7,0.5,2.9,1.5,3.8,2.9
	c-12.8,7.3-25.5,14.7-38.3,22C334.6,116.3,334.5,115.8,334.5,115.2z"/>
<path id="XMLID_1097_" class="st13" d="M198.8,107.7c8.2-5.8,16.4-11.6,24.6-17.4c1.1-0.8,2.3-1.4,2.9-2.7c2.5,0,5.1,0.1,7.6,0.1
	c1,0.8,0.2,1.1-0.4,1.5c-11.3,6.4-22.5,12.9-33.8,19.4C198.9,108.8,198.7,108.4,198.8,107.7z"/>
<path id="XMLID_1096_" class="st14" d="M360.1,89c-12.3,7.6-24.8,14.7-37.5,21.7c-0.8,0.4-1-0.1-0.9-0.8
	c9.4-6.3,18.8-12.6,28.2-18.9c1.2-0.8,2.7-1.4,3.5-2.7C355.7,87.9,357.9,88.2,360.1,89z"/>
<path id="XMLID_1095_" class="st11" d="M159.1,142c-9,6.2-18.1,12.3-27.1,18.5c-1-1.4-1-3.1-1.4-4.7c9.5-5.3,18.9-10.7,28.4-16
	C159.6,140.5,159.6,141.2,159.1,142z"/>
<path id="XMLID_1094_" class="st15" d="M377.8,104.6c-10.9,6.2-21.9,12.4-32.8,18.6c-0.3-0.2-0.4-0.3-0.3-0.5
	c0.1-0.2,0.1-0.3,0.2-0.3c10.7-7.4,21.4-14.8,32.1-22.2C377.3,101.6,377.5,103.1,377.8,104.6z"/>
<path id="XMLID_1093_" class="st16" d="M246.7,151.8c-10,6.7-19.9,13.5-29.9,20.2c-2.4,0-4.8,0-7.2,0c11.8-7.4,24-14.2,36.2-21
	C246.7,150.7,246.8,151.1,246.7,151.8z"/>
<path id="XMLID_1092_" class="st17" d="M315.5,173.4c8.8-5.2,17.6-10.4,26.4-15.6c0.2,0.3,0.4,0.6,0.7,0.9
	c-5.9,4.9-11.8,9.8-17.8,14.7C321.7,173.4,318.6,173.4,315.5,173.4z"/>
<path id="XMLID_1091_" class="st18" d="M154.4,99.2c3.9-3.8,7.7-7.5,11.6-11.3c3.7-0.9,7.5-0.6,11.2-0.5c-7,4.7-14.5,8.7-21.9,12.8
	C154.5,100.4,154.3,100,154.4,99.2z"/>
<path id="XMLID_1090_" class="st19" d="M376.4,130.8c-7.5,4.2-15,8.5-22.4,12.7c-0.2-0.3-0.4-0.6-0.6-0.9c7.7-5.7,15.3-11.5,23-17.2
	C376.3,127.2,376.3,129,376.4,130.8z"/>
<path id="XMLID_1089_" class="st20" d="M151.4,119c-7.4,5.7-14.9,11.4-22.3,17c0-1.9,0-3.8,0-5.6c6.3-3.6,12.7-7.2,19.1-10.8
	C149.1,119.1,150,117.7,151.4,119z"/>
<path id="XMLID_1088_" class="st21" d="M271.5,173.4c8-5,16.2-9.7,24.5-14.1c0.9-0.4,1,0.1,0.9,0.8c-6.3,4.4-12.6,8.9-18.9,13.3
	C275.9,173.4,273.7,173.4,271.5,173.4z"/>
<path id="XMLID_1087_" class="st22" d="M151.4,133c-7.2,5.1-14.4,10.1-21.7,15.2c-0.1-1.3-0.3-2.5-0.4-3.8c7.1-4,14.2-8.1,21.3-12.1
	C151.4,131.9,151.5,132.3,151.4,133z"/>
<path id="XMLID_1086_" class="st23" d="M162.7,175c8-5.1,16.2-9.8,24.6-14.2c0.7-0.4,0.9,0,0.9,0.6c-5.2,3.5-10.5,6.9-15.7,10.4
	c-1.2,0.8-2.6,1.4-3.3,2.9C167.1,175.1,164.9,175.2,162.7,175z"/>
<path id="XMLID_1085_" class="st24" d="M152.2,89c-5.5,3.3-11,6.6-16.5,9.9c-0.2-0.2-0.3-0.4-0.5-0.6c1.3-2.3,2.6-4.7,3.9-7
	C143.4,90.1,147.7,89.2,152.2,89z"/>
<path id="XMLID_1084_" class="st25" d="M314.4,89.7c-5.8,3.9-11.8,7.2-18,10.5c-0.9,0.4-1-0.1-0.9-0.8c4.7-3.2,9.5-6.4,14.2-9.7
	C311.3,89.7,312.8,89.7,314.4,89.7z"/>
<path id="XMLID_1083_" class="st26" d="M363,122.7c4.9-3.3,9.8-6.7,14.7-10c-0.2,1.1-0.3,2.2-0.5,3.3c-4.4,2.5-8.9,4.9-13.3,7.4
	C363.1,123.8,362.9,123.4,363,122.7z"/>
<path id="XMLID_1082_" class="st27" d="M337.5,173.4c4.4-2.6,8.8-5.3,13.3-7.9c0.2,0.3,0.5,0.6,0.7,0.9c-2.5,2.3-5,4.7-7.6,7
	C341.8,173.4,339.7,173.4,337.5,173.4z"/>
<path id="XMLID_1081_" class="st28" d="M366,148.1c3.7-3,7.3-5.9,11-8.9c0.1,1.3,0.1,2.6,0.2,3.8c-3.5,1.9-6.9,3.9-10.4,5.8
	C366,149.2,365.8,148.8,366,148.1z"/>
<path id="XMLID_1080_" class="st29" d="M356.7,173.4c3.6-2.2,7.2-4.4,10.8-6.6c0.1,0.2,0.3,0.4,0.4,0.6c-1.5,2-3.1,4.1-4.6,6.1
	C361.2,173.4,359,173.4,356.7,173.4z"/>
<path id="XMLID_1079_" class="st30" d="M273.8,89c-4.5,3.1-9.3,5.7-14.1,8.2c-0.7,0.4-0.9,0.1-0.9-0.6c3.7-2.5,7.4-5.1,11.1-7.6
	C271.2,89,272.5,89,273.8,89z"/>
<path id="XMLID_1078_" class="st31" d="M129.8,109.2c2.2-0.5,3.7-2.6,6.7-2.9c-2.1,2.9-4.5,4.7-6.8,6.6
	C129.8,111.7,129.8,110.5,129.8,109.2z"/>
<path id="XMLID_1077_" class="st32" d="M134.9,167c1.2-0.6,2.4-1.2,3.6-1.8c0.8-0.4,1,0,1,0.8c-1.2,0.8-2.4,1.6-3.6,2.4
	C135.6,168,135.3,167.5,134.9,167z"/>
<path id="XMLID_1076_" class="st33" d="M377.8,153.4c-0.6,0.3-1.2,0.7-1.8,1c0,0-0.3-0.4-0.3-0.5c0.3-1.1,1.1-1.4,2.1-1.4
	C377.8,152.8,377.8,153.1,377.8,153.4z"/>
<path id="XMLID_1075_" class="st4" d="M140.9,454.1c-5.3-1.8-8.4-5.6-10.1-10.8c-0.1-0.8,0.5-1.1,1-1.4c4.7-2.9,9.2-6.3,13.8-9.4
	c1.1-0.8,2.3-1.6,3.7-1.5c5.1,1.9,10.2,3,15.6,0.7c2.6-1.1,4.9-2.5,6.7-4.7c3.3-4,3.3-8-0.2-11.8c-2.3-2.4-2.3-4.2,0-6.6
	c4.7-5.1,3.3-11-2.8-14.1c-5.2-2.7-16.6-2.3-19.7,4.2c2.4,1,4.2-0.3,6-1.5c4.1-2.6,5.8-2.7,8.6-0.1c3.2,2.9,3.9,7.1,2,10.7
	c-0.6,0.6-0.4-1.1-1-0.3c-1,1.4-2.6,1.8-4.1,2.5c-0.9,0.3-1.9,0.7-2.7,1.3c-0.9,0.6-1.7,1.1-2.6,1.6c-6.9,4.1-14,8-20.9,12.1
	c-1.5,0.9-3,2.3-5.1,1.7c0-3-0.5-6,0.4-9c2.2-1.6,4.2-3.4,7.1-4.7c-2.7,0.8-4,3.5-6.9,2.9c0.8-12.5,1.1-25,0.8-37.6
	c-0.1-5.7,2.5-8,8.1-8.3c0.7,0.5,0.8,1.2,0.7,2c-0.1,0.5-0.2,1-0.4,1c2-0.9,4-2.9,6.8-3c3.5,0,7.1-1.5,10.4,1c2.2,1.5,3.6-1.5,5.6-1
	c3.7-0.3,7.5-0.3,11.2,0c1.2,1.5-0.2,2.2-1,3c-1.5,1.5-3.2,2.7-4.6,3.5c4.1-1.8,7.7-5.6,12.9-6.5c3.5,0,7-1.4,10.3,0.9
	c0.2,0.6,0.2,1.1-0.2,1.6c-0.4,0.3-0.8,0.6-1.3,0.9c0.5-0.2,1-0.5,1.5-0.8c1.6-1.4,3.3-2.5,5.5-2.6c3.8-0.4,7.6-0.4,11.4-0.1
	c0.9,1.8-0.7,2.4-1.6,3.2c-3.3,2.6-6.8,4.9-10.4,7.1c-0.3,0.2-0.6,0.3-0.9,0.5c0.5,0,0.8-0.4,1.3-0.6c4.8-3.3,10.1-6,15-9
	c1-0.6,2-0.9,3.2-1.1c3.8-0.4,7.6-0.4,11.4,0c1.2,2.3-0.9,2.8-2.1,3.6c-9.7,7-19.3,14.2-29.4,20.8c-0.8,0.4-1.6,1-2.4,1.5
	c-0.3,0-0.3,0.2-0.2,0.3c0.1-0.2,0.2-0.3,0.5-0.4c0.7-0.7,1.6-1.1,2.4-1.5c10.5-6.7,21.5-12.6,32.2-18.9c2.7-1.6,5.2-3.5,8.4-4.1
	c2.7-1.9,5.8-1.5,8.8-1.6c2.4-0.1,3.1,1,2.4,3.2c-0.7,1.6-2,2.4-3.4,3.4c-8.3,5.6-16.5,11.4-24.9,16.8c-1.8,1.1-3.7,2.2-5,4
	c-0.4,0.4-0.9,0.8-1.4,1.1c-0.5,0.3-1.1,0.5-1.7,0.9c-0.6,0.4-1.5,0.7-1.3,1.6c0.1,1.1,1.2,1.1,2,1.3c1.1,0.2,2.2,0.1,3.4,0.1
	c3.9,0,7.7,0.1,11.6,0c18.3-0.4,36.7,0.5,55,1c14.1,0.4,28.1-0.2,42.2-1.1c2-0.1,4-0.5,5.9-1.1c1-0.3,2.5-0.6,2-2.1
	c-0.4-1.2-1.7-0.9-2.6-0.8c-6,0.6-12,0.2-18,0.3c-2,0-4,0.1-5.8-1c-1.6-1.5-0.4-2.5,0.7-3.3c1.8-1.2,3.6-2.6,5.7-3.4
	c2.7-0.5,4.6-2.6,7-3.8c8.7-4.9,17.3-9.9,25.9-14.9c1.2-0.7,2.4-1.4,3.8-1.6c0.7,0,1.4-0.3,2.1-0.4c3.8-0.1,7.7-0.2,11.5-0.3
	c-0.1,2.5-2.3,3-3.8,4.1c-1.7,1.2-3.5,2.3-6,3.8c5.1-2.8,9-6,13.8-7.6c3,0.5,5.7,1.5,7.6,4c-0.6,1.4-1.9,1.9-3,2.7
	c-7,4.6-13.8,9.4-21,13.6c-0.8,0.4-1.4,1.1-2.7,1.6c1.4-0.6,2.1-1.4,3.1-1.7c7.1-4.6,14.6-8.5,21.8-12.9c1-0.6,2.1-1.3,3.5-1
	c1.8,1.8,2.3,4.2,2.9,6.6c-3.8,4.1-8.9,6.3-13.4,9.4c-1.9,1.3-3.8,2.3-5.6,3.6c-0.2,0.2-0.5,0.1-0.7,0.4c0.3,0.1,0.4-0.3,0.6-0.3
	c5.3-3.7,11-6.8,16.5-10.2c0.8-0.5,1.7-1.1,2.8-0.6c0.9,2.5,0.9,5.1,0.7,7.7c-1.5,2.5-4.2,3.4-6.5,4.9c-0.6,0.3-1.1,0.9-1.8,1.1
	c0.8-0.2,1.3-0.9,2.1-1.2c2.1-1.1,3.7-3,6.3-3.2c0.6,5.3-0.1,10.7-0.5,15.9c-0.7,10.4-2.2,20.8-0.6,31.2c0.5,3.1-0.2,6.2-1,9.2
	c-0.9,3.4-3,5.2-6.8,5c-2.9-0.2-5.7-0.1-8.6-0.2c-0.2-2.7,2.3-3.9,3.4-6.3c-4.5,1.9-8.1,5-12.6,6.3c-4.2,0-8.3,0-12.5,0
	c0.4-3.4,3.7-3.8,5.3-5.6c-3.2,2-6.6,4.5-10.6,5.6c-4.1,0-8.2,0-12.3,0c0.4-3.2,4-3.3,5.3-5.6c0.1-0.2,0.2-0.3,0.3-0.4
	c-0.1,0.1-0.3,0.3-0.4,0.5c-2.9,2.4-5.9,4.5-9.5,5.5c-4.1,0-8.3,0-12.4,0c-0.8-1.1,0.3-1.3,0.8-1.8c0.2-0.1,0.3-0.2,0.3-0.4
	c-0.1,0.2-0.3,0.3-0.5,0.4c-1,1-2.4,1.2-3.6,1.7c-4.1,0-8.1,0-12.2,0c0.1-2.7,2.8-2.5,4-3.8c-2.5,1.2-4.7,3.3-7.7,3.8
	c-4.1,0-8.1,0-12.2,0c-0.1-1.9,1.4-2.5,2.6-3.3c3.3-2.3,6.7-4.3,10.1-6.4c0.2,0,0.3-0.2,0.3-0.4c-0.1,0.2-0.3,0.3-0.5,0.4
	c-4.4,2.7-8.7,5.2-13.1,7.9c-1.4,0.9-3,1.2-4.5,1.8c-4.1,0-8.2,0-12.3,0c0-1.8,1.4-2.5,2.6-3.3c6.5-4.3,12.9-8.8,19.6-12.7
	c0.8-0.4,1.4-1,2.1-1.4c-0.9,0.5-1.6,1.1-2.5,1.5c-7.7,4.9-15.7,9.4-23.6,13.9c-1.5,0.9-3.1,1.5-4.8,2c-4.1,0-8.2,0-12.3,0
	c0.1-1.8,1.5-2.5,2.8-3.3c8-5.3,15.9-10.7,23.9-15.9c1.6-0.8,3.3-1.7,4.5-3.1c2.4-2.3,5.6-3.4,8.2-5.5c3-1.3,6.3-1.4,9.5-2.6
	c-26.2-2.9-52.4-3.1-78.6,0.8c2.7,1.5,5.5,0.8,8.2,1c2.1,0.2,4.3-0.5,6.1,1c0.8,1.8-0.8,2.3-1.8,2.9c-1.2,0.8-2.5,1.5-3.8,2
	c-1.7,0.5-3.3,1.5-4.8,2.4c-10.3,6.1-20.8,12-31.2,18.1c-1.6,1-3.4,1.5-5.1,2.2c-4.3,0.3-8.6,0.5-12.9,0.8c-0.5-2.3,1.4-3,2.8-3.9
	c4.5-2.8,8.9-5.8,13.5-8.4c1.2-0.6,2.3-1.4,3.3-2.2c0.1-0.2,0.4-0.3,0.6-0.2c0-0.2-0.1-0.2-0.3-0.1c-0.2,0.1-0.4,0.3-0.6,0.4
	c-1,0.9-2.2,1.5-3.4,2.1c-6.5,4.1-13,8.1-19.8,11.6c0.3,0.3,1.3,0,1.4,1c-5,0.8-9.8,0.5-14.6-1.1c-0.2-1.6,1.1-2.2,2.1-2.8
	c7.9-5.2,15.7-10.7,23.8-15.6c0.7-0.5,1.4-1,2.2-1.4c-0.9,0.4-1.7,1-2.6,1.5c-8.4,5.4-17.3,10.1-25.9,15.3
	C143.7,453.3,142.4,453.8,140.9,454.1z"/>
<path id="XMLID_1074_" class="st4" d="M138.8,372.4c0-0.8,0-1.6-0.1-2.5c3.3-0.9,6.7-0.4,10-0.4c34.6,0,69.2,0,103.8,0.1
	c9.7,0,19.5-0.1,29.2-0.1c1.4,0,2.7,0.2,4.1,0.3c0,0.2,0,0.4,0,0.5c-0.4,1-1.2,1.6-2,2.1c-8.1,5.5-16.2,10.9-24.6,15.9
	c-1.2,0.8-2.4,1.6-3.6,2.3c0.1,0-0.5,0.2,0,0.1c0.5-0.1-0.1,0.2,0.3-0.1c1.2-0.8,2.4-1.6,3.7-2.4c5.1-2.8,9.7-6.3,15.2-8.4
	c1.4,0,2.5-0.7,3.2-1.9c4-3.1,8.5-5.4,13.1-7.7c0.7-0.2,1.3-0.4,2-0.5c4.1-0.5,8.1-0.5,12.2,0c0,0.2-0.1,0.3-0.1,0.5
	c-0.3,0.2-0.5,0.4-0.9,0.5c-1.2,0.1-2,0.9-2.7,1.9c-4.8,3.4-9.6,6.8-14.7,9.7c-0.8,0.5-1.7,0.8-2.3,1.5c-0.3,0.4-0.4-0.3-0.2,0.1
	c0.2,0.3,0.3-0.2,0.5-0.2c0.7-0.7,1.7-0.9,2.4-1.5c7-3.9,13.6-8.3,20.7-11.9c0.8-0.3,1.6-0.2,2.4-0.6c4-0.5,8-0.5,12,0
	c0,0.4-0.1,0.7-0.4,0.9c-5.9,4.2-11.9,8.3-18.1,12c-3.4,1.2-6.3,3.1-8.8,5.7c-1,0.8-2.2,1.5-3.2,2.3c-0.8,0.5-1.6,1-2.4,1.6
	c-1.1,0.6-1.6,1.7-2.5,2.5c-1.5,0.9-3.1,1.7-4.7,2.4c-6.4-0.1-12.7-0.5-19.1-0.4c-8.5,0.1-17,0.1-25.5,0c-7.1-0.1-14.2,0.2-21.3,1
	c-1.5,0.2-3,0.6-4.2-0.7c0.3-0.2,0.6-0.5,0.9-0.7c1.6-1.4,3.4-2.4,5.2-3.5c12.6-7.5,25.3-14.7,37.6-21.8c-2.8-0.1-5.9,0.1-8.6,2.2
	c-0.6,0.4-1.4,0.6-2.1,0.1c0.9-2,0.8-3.3-1.9-3.2c-2.4,0.1-5-0.5-6.8,1.9c-0.3,0.4-1.4,0.2-2.1,0.2c0.2-1.1,0.7-1.8,1.8-1.5
	c-3.3,0.3-6.9,1-10.5,0.1c-4-1.2-8-1.1-12,0c-2-1-4,1.4-6-0.2c-4.1-0.9-8.1-0.9-12.2,0.2c-1.9-1.1-3.2,1.5-5.1,0.8
	c-3.4-2.9-7.1-1.3-10.8-0.8c-2.2-0.6-4.3,1.2-6.5,0c-4-1.2-8-1-12,0.1c-2.2-1.1-3.4,1.3-5.3,1.5c-1.2-3.3-4-2-6.3-2.2
	c-1.5-0.1-3,0.2-4.4,0.6C142.7,369.8,141,372.3,138.8,372.4z"/>
<path id="XMLID_1073_" class="st4" d="M276,428.7c-1.5,2.8-5.3,2.6-6.8,5.3c-2.2,0.1-3.5,1.9-5.4,2.6c-9.6,6.2-19.8,11.6-29.6,17.5
	c-1.2,0.7-2.6,0.8-3.8,1.4c-4.1,0-8.2,0-12.3,0c-0.1-1.5,1-2.2,2-2.8c2.7-1.7,5.4-3.4,8.2-5c0.8-0.4,1.4-1,2.1-1.4
	c-0.9,0.5-1.6,1.1-2.5,1.5c-4.7,2.6-8.9,6.2-14.2,7.7c-4.2,0-8.3,0-12.5,0c-0.3-1.8,1.3-2.2,2.3-2.8c6.6-4.5,13.3-9,20-13.4
	c1.3-0.7,2.6-1.5,3.9-2.3c0.8-0.5,1.6-1.1,2.4-1.7c0.9-0.6,1.3-1.5,2.2-2.1c3-1.7,5.7-3.7,8.8-5.3c4.3-1,8.7-0.5,13.1-0.5
	c5.7-0.1,11.5-0.1,17.2,0C272.8,427.5,274.6,427.2,276,428.7z"/>
<path id="XMLID_1072_" class="st4" d="M240.2,429.2c-2.7,1.6-5,4.1-8.3,4.6c-0.6,0.8-1.3,1.4-2.2,1.9c-0.8,0.6-1.6,1.1-2.5,1.6
	c-1.3,0.8-2.5,1.7-3.9,2.3c-7.5,4.8-15.3,9-23,13.6c-1.7,1-3.6,1.6-5.4,2.4c-4.2,0-8.3,0-12.5,0c-0.3-2,1.4-2.5,2.5-3.2
	c9.1-5.6,17.7-11.9,26.9-17.3c1.4-1,3-1.7,4.3-2.8c2-1.2,4-2.4,6-3.6c0.2-0.3,0.3-0.8,0.7-0.8c5.6-1.4,11.2-1.5,16.7,0.4
	C239.9,428.2,240.1,428.7,240.2,429.2z"/>
<path id="XMLID_1071_" class="st4" d="M322.5,370c0,0,0-0.2,0-0.2c9-0.4,17.9-0.3,26.9-0.1c-0.4,0.6-0.9,1-1.7,1
	c-3.3-0.2-6.2,0.7-9,2.6c-6.9,4.7-13.7,9.4-21,13.5c-2.2,1.3-4.2,2.9-6.4,4.2c-2.5,1.8-5.8,2.6-7.6,5.4c-1.1,1-2.5,1-3.9,1.1
	c-4.1,0.1-8.2,0.1-12.4,0c-1.5,0-3.1,0.1-4-1.5c0.6-1.9,2.7-0.9,3.8-2c0.7-0.9,1.9-1.4,2.8-2c0.7-0.8,1.8-1,2.6-1.7
	c11.5-6.7,23-13.4,34.5-20.1c0.4-0.3-0.4-0.6,0-0.2C328,371.1,324.7,371,322.5,370z"/>
<path id="XMLID_1070_" class="st4" d="M159.9,409.1c1.4-0.7,2.8-1.2,4.2-2c1.1-0.6,0.8,0.2,1,0.7c0.9,1.9-0.7,2.6-1.8,3.6
	c-0.9,0.8-2.4,0.8-2.9,2.2c2,2.1,6,2.7,4.9,7c-0.6,0.7-1.4,1.1-2.3,1.4c-2.8,0.8-4.8,3-7.7,3.7c-3.1,0.6-6.9,0.1-7.4,4.7
	c-5.1,3.3-10.6,6.1-15.8,9.3c-0.6,0.4-1.4,0.6-2.1,0.2c-0.9-2.6-1.1-5.2-0.8-7.9c2.2-3.1,5.6-4.8,8.6-6.9
	c5.8-4.2,11.5-8.7,17.7-12.3c0.8-0.5,1.6-1.2,2.4-1.7C158.7,410.5,159.3,409.8,159.9,409.1z"/>
<path id="XMLID_1069_" class="st4" d="M212.2,435.2c-8.8,5.8-17.6,11.7-26.3,17.5c-1.2,0.8-2.3,1.8-3.5,2.7c-2.3,0-4.7,0-7,0
	c11.8-7.4,23.9-14.2,36.1-21C212.2,434.2,212.3,434.6,212.2,435.2z"/>
<path id="XMLID_1068_" class="st4" d="M156,412.8c-8.8,6.5-17.7,13.1-26.9,19.1c0-1.7,0-3.5,0-5.2c8.7-4.9,17.3-9.7,26-14.6
	C155.9,411.6,156.1,412.1,156,412.8z"/>
<path id="XMLID_1067_" class="st34" d="M230.3,455.5c11-6.8,22.3-13.2,33.6-19.5c0.8-0.3,1,0.1,0.8,0.8
	c-8.1,5.4-16.1,10.7-24.2,16.1c-1.1,0.8-2.1,1.7-3.2,2.5C235,455.5,232.7,455.5,230.3,455.5z"/>
<path id="XMLID_1066_" class="st35" d="M140.9,454.1c9.7-6.2,19.8-11.8,29.9-17.3c0.8-0.2,1,0.1,0.9,0.9
	c-7.6,5.1-15.3,10.2-22.9,15.3c-1.2,0.8-2.7,1.4-3.5,2.7C143.7,455.5,142.3,455,140.9,454.1z"/>
<path id="XMLID_1065_" class="st36" d="M194.9,455.5c9.2-5.9,18.8-11.2,28.4-16.5c0.9-0.4,1,0.1,0.9,0.8
	c-6.6,4.4-13.2,8.8-19.8,13.2c-1.1,0.8-2.1,1.6-3.2,2.5C199.1,455.5,197,455.5,194.9,455.5z"/>
<path id="XMLID_1064_" class="st37" d="M278.9,439.8c-6.5,4.4-13,8.8-19.5,13.2c-1.1,0.8-2.4,1.3-3.2,2.6c-2.2,0-4.4,0-6.5,0
	c9.2-5.9,18.8-11.2,28.4-16.5C278.9,438.6,279,439.1,278.9,439.8z"/>
<path id="XMLID_1063_" class="st38" d="M348,389.7c8.1-5.5,16-11.1,24.4-16c0.6,0.8,1.2,1.5,1.7,2.3c-8.4,4.8-16.9,9.6-25.3,14.4
	C348,390.8,347.9,390.4,348,389.7z"/>
<path id="XMLID_1062_" class="st39" d="M129.9,439.8c5.9-3.3,11.8-6.7,17.7-10c1,0,1.5,0.5,1.5,1.5c-6.2,3.8-11.8,8.6-18.4,12
	C130.5,442.1,130.2,440.9,129.9,439.8z"/>
<path id="XMLID_1061_" class="st40" d="M179.2,444.3c-4.6,3-9.1,6-13.7,9c-1.2,0.8-2.7,1.4-3.2,3c-0.8,0.1-1.6,0.2-2.4,0.3
	c-1-0.1-1.9-0.1-2.9-0.2c-0.1-0.2-0.2-0.4-0.3-0.7c7.2-4.1,14.4-8.2,21.6-12.2C179.2,443.2,179.3,443.6,179.2,444.3z"/>
<path id="XMLID_1060_" class="st34" d="M351.6,455.5c4.4-3.3,9.3-5.5,14.8-8.8c-1.1,4.1-4.1,6-5.6,8.8
	C357.7,455.5,354.6,455.5,351.6,455.5z"/>
<path id="XMLID_1059_" class="st41" d="M377.4,385c-6.5,3.8-13,7.5-19.6,11.3c-0.5-0.2-0.6-0.4-0.2-0.8c6.4-4.4,12.7-9,19.5-12.8
	C377.2,383.4,377.3,384.2,377.4,385z"/>
<path id="XMLID_1058_" class="st42" d="M287.2,445.8c-4.4,3.5-9.5,5.9-13.6,9.7c-1.7,0-3.4,0-5.1,0c5.8-3.8,11.8-7.1,17.9-10.4
	C287.2,444.7,287.3,445.1,287.2,445.8z"/>
<path id="XMLID_1057_" class="st43" d="M364.8,369.7c-4.7,3.9-10.4,6.3-15.8,9.1c3.3-4,8.5-5.5,11.8-9.4
	C362.2,369.5,363.5,369.6,364.8,369.7z"/>
<path id="XMLID_1056_" class="st44" d="M213.7,455.5c4.5-3.1,9.3-5.8,14.1-8.2c0.8-0.4,1,0,0.9,0.7c-3.3,2.8-7.6,4.3-10.6,7.5
	C216.6,455.5,215.1,455.5,213.7,455.5z"/>
<path id="XMLID_1055_" class="st45" d="M333.7,455.5c4.1-2.5,8.1-4.9,12.2-7.4c-1.4,3.4-4.8,4.8-6.8,7.4
	C337.3,455.5,335.5,455.5,333.7,455.5z"/>
<path id="XMLID_1054_" class="st46" d="M327,449.6c-0.2,3.5-4.3,3.4-5.5,5.9c-1.4,0-2.9,0-4.3,0C320.2,453.1,323.6,451.5,327,449.6
	L327,449.6z"/>
<path id="XMLID_1053_" class="st46" d="M129.7,415.8c2.9-1.6,5.8-3.3,8.6-4.9c0.2,0.3,0.4,0.6,0.6,0.9c-3.2,1.9-5.5,5-9.4,5.9
	C129.6,417,129.7,416.4,129.7,415.8z"/>
<path id="XMLID_1052_" class="st47" d="M285.8,455.5c3.1-1.9,6.2-3.8,9.3-5.7c-1,3-4.1,3.5-5.7,5.7
	C288.3,455.5,287.1,455.5,285.8,455.5z"/>
<path id="XMLID_1051_" class="st48" d="M378.2,394.3c-1.8,1.6-3.9,2.7-6.1,3.6c-0.9,0.4-1-0.1-0.9-0.8c2.3-1.5,4.5-3,6.8-4.5
	C378.1,393.2,378.1,393.7,378.2,394.3z"/>
<path id="XMLID_1050_" class="st49" d="M293.1,369.8c-0.5,0.3-1,0.7-1.4,1c-2-0.4-4.2,1.1-5.9-0.8c0,0,0-0.2,0-0.2
	C288.2,369.8,290.7,369.8,293.1,369.8z"/>
<path id="XMLID_1049_" class="st50" d="M301.7,455.5c1.2-0.7,2.3-1.4,3.5-2.1c0.8-0.3,0.9,0,0.7,0.7c-0.4,0.5-0.8,1-1.2,1.5
	C303.7,455.5,302.7,455.5,301.7,455.5z"/>
<path id="XMLID_1048_" class="st49" d="M310.5,369.8c-0.1,0.8-0.7,1-1.4,1.1c-1.2-0.6-2.8,0.7-3.8-0.9c0,0,0-0.1,0-0.1
	C307,369.8,308.7,369.8,310.5,369.8z"/>
<path id="XMLID_1047_" class="st4" d="M346.5,258.5c1.7-0.9,3.5-1.7,5.2-2.6c0.8-1,1.6-2,2.8-2.5c1-0.5,1.9-0.9,2.7-1.7
	c0.4-0.3,0.8-0.6,1.2-0.8c1.5-0.3,2.6-1.4,3.9-2.2c0.8-0.5,1.7-0.9,2.4-1.6c0.7-0.7,1.5-1.1,2.4-1.5c1.1-0.3,2.1-0.7,3-1.3
	c0.7-0.4,1.3-0.9,1.8-1.5c0.2-0.2,0.5-0.4,0.7-0.6c0.9-0.3,1.8-0.4,2.6-1c1-0.8,1.8-1.9,3.2-2.1c1.4,0,2.3-1.1,3.4-1.7
	c1.2-0.7,2.6-1.2,3.6-2.2c0.4-0.3,0.7-0.6,1.2-0.8c1-0.4,2-0.8,3-1.4c0.7-0.4,1.3-0.9,1.8-1.5c0.2-0.2,0.5-0.4,0.7-0.6
	c0.9-0.3,1.8-0.4,2.6-1.1c0.8-0.6,1.5-1.2,2.5-1.5c1.6-0.2,2.8-1.4,4.1-2.2c0.8-0.4,1.6-0.9,2.3-1.6c0.7-0.7,1.5-1.1,2.4-1.5
	c1-0.3,2-0.7,2.9-1.2c0.8-0.4,1.5-1,2.1-1.7c0.2-0.2,0.5-0.4,0.8-0.5c1.6,0,2.6-1.1,3.8-1.8c0.7-0.4,1.5-0.7,2.2-0.9
	c1.2-0.4,1.9-1.5,3-2.1c0.8-0.4,1.6-0.8,2.4-1.3c0.7-0.4,1.3-0.8,1.9-1.2c0.3-0.2,0.5-0.3,0.8-0.5c0.8-0.4,1.7-0.8,2.4-1.4
	c0.6-0.5,1.2-1.1,2-1.2c5.3,0.8,9.6,4.5,14.9,5.6c0.4,0.9-0.6,1.5-0.6,2.3c1.6-1.1,3.5-1.6,5.2-2.3c0.9-0.5,1.9-0.8,2.6-1.4
	c6.6-5.6,10.6-3.4,16.1,1.2c2.9,2.4,4.5,5.9,5,9.7c0.3,1.8,0,3.5-1.3,4.8c-4.1,4.2-4.1,9-1.8,14c0.8,1.7,1.5,3.4,2.2,5.1
	c0.2,0.5-1.4,1.7,0.6,1.5c1.3,5.5,4.2,9.2,10.5,9c0.1,0.5,0,1-0.3,1.4c-0.3,0.5-0.8,0.8-1.2,1.1c1.2-0.8,2.5-1.4,4-1.6
	c4.8,2.2,5.5,6.8,6,11.2c0.4,3.5-0.4,6.9-1.9,10.2c-1.2,2.7-3.2,4.1-6.1,4.1c-5.3,0-9.3,1.6-9.9,7.7c-0.1,1-0.5,2.2-1.4,3
	c-2.1,2-4.5,3.8-7.9,5.5c2.7-1.1,4.1-2.9,6.4-2.4c-0.1,0.5-0.2,1-0.4,1.4c-3,5-3.6,9.7,0.7,14.5c2.4,2.6,2.8,6.2,0.6,9.4
	c-2.7,4-4.8,9-10.9,9c-1,0-2-0.1-2.8-0.8c-0.5-2.3,1.7-3.4,2.5-5.4c-2.6,0.3-4.1,3.3-7,2.7c-3-2.6-6.1-1.4-9.1-0.2
	c-5.7,2.3-10.9,6-17.2,7c-2.3,0.4-2.8,3-3,5.2c-0.5,4.9-2.4,8.8-7.4,10.2c-5.1,1.4-9.6,0-12.9-4.3c1-3,4.2-3.6,6.2-5.4
	c0.4-0.3-0.3-0.6,0-0.2c0.1,0.1,0,0.2-0.2,0.3c-2.5,1.2-4.4,3.5-7.5,3.3c-1.6-2.2-2.4-4.5-1.5-7.2c2.6-3.7,6.6-5.5,10.1-8
	c5.4-4,10.7-8,16.4-11.5c0.7-0.5,1.4-1,2.1-1.5c0,0,0.1-0.1,0.1-0.1s-0.2,0.1-0.3,0.1c-0.7,0.6-1.5,1-2.2,1.5
	c-8.8,5.4-17.9,10.3-26.8,15.7c-1,0.6-2,1-3.2,1c-2.8-0.7-5.2-2.2-7.6-3.7c0.2-2.4-1.4-0.8-2.2-0.9c-1.8-0.6-3.5-1.4-5.3-1.8
	c-3.2-0.7-6.3-1-9.2,1.3c-4.6,3.6-8,3.7-12.7,0.5c-2.5-1.7-4.7-3.7-5.7-6.7c0.4-3.3,3.7-4.5,5.2-6.6c-2.1,0.7-3.6,3.3-6.5,2.8
	c-1.4-2.2-1-4.9,0.4-6.3c4.8-4.8,4.2-9.9,1.9-15.3c0.1-0.9,1.5-2.5-1-2.2c-1.6-2.3-2.6-5-3.3-7.7c0.5-1.7,1.7-2.9,2.8-4.6
	c-1.5,0.7-2.6,1.8-4.1,1.6c-3-1.4-6.7,0-9.5-2.3c-0.3-1,0.3-1.8,0.9-2.3c4.1-3.3,7.6-7.1,11.1-10.2c-3.9,2.5-8.6,4.9-13.1,7.6
	c-0.9,0.6-1.9,1.2-3.1,0.7c-3.4-6.2-2.7-12.4,0.2-18.6c1.3-2.7,3.8-2.8,6.4-2.6C344.5,259.8,345.5,258.8,346.5,258.5z"/>
<path id="XMLID_1046_" class="st5" d="M223.3,314.3c-4.3,0.1-8.6,0.1-12.9,0.2c0-1.8,1.5-2.5,2.7-3.3c11.2-7.6,22.4-15.3,33.6-22.9
	c1.4-1,2.8-2.1,4.7-2.1c12.3,0.5,24.6,1.9,37,0.3c1-0.1,2-0.2,3-0.4c1-0.3,2.6-0.1,2.4-1.6c-0.1-1.2-1.6-1.5-2.7-1.5
	c-6.7-0.2-13.5-0.3-20.2-0.3c-3.6,0-7.2,0.3-10.8-0.1c-1.1-0.8-2.2-2-3.5-0.3c-2.2,1.4-5.5,0.6-6.9,3.6c-4,3.4-8.8,5.5-13.3,8.1
	c-11.2,6.6-22.5,13.1-34,19.6c0.6,0.6,1.9,0.2,2.1,1.3c-5.7,0.6-11.3,0.4-16.8-1.1c0-2,1.8-2.5,3-3.3c8.5-5.8,17.2-11.4,25.6-17.3
	c1.3-0.9,2.5-1.8,3.9-2.6c2.2-0.9,4-2.5,6.1-3.6c0.6-0.4,1.2-0.6,1.7-1.3c-0.7,0.8-1.5,1.1-2.2,1.5c-1.9,1-3.5,2.8-5.8,2.9
	c-4.1-2.1-8.7-1.2-13-2c-1.9-1.8,0-2.6,1.1-3.4c1.8-1.3,3.8-2.2,5.1-3.3c-3.3,1.9-6.7,4.6-10.7,6.4c-2.2-0.1-1.6-1.5-1.1-2.6
	c0.9-2.3,2.6-3.9,4.4-5.4c1.8-1.5,3.8-2.8,5.6-4.3c4.9-4.1,8.2-9,7.8-15.6c0.1-0.4,0.2-0.7,0.4-1c0.6-0.9,1.5-1.5,2.2-2.2
	c0.3-0.2,0.6-0.4,0.9-0.5c13.9-8.1,27.9-16.1,41.8-24.2c1.7-1,3.3-2.3,5.4-2.4c3.8-0.4,7.6-0.4,11.4,0c1.1,1.6-0.2,2.3-1.1,3
	c-6,4.4-12.2,8.5-16.6,11c4.9-3.2,12.1-7.3,19.3-11.4c1.8-1,3.5-2.5,5.7-2.6c3.8-0.4,7.6-0.4,11.4,0c1,2.2-1,2.8-2.2,3.6
	c-10.8,7.6-21.6,15-32.6,22.2c-4.3,1.4-9.2,1.1-13.4,3.7c0.7,1.2,1.5,2.1,3,2.2c8.4,0.2,16.9,0.4,25.3,0.3
	c5.6-0.1,11.2,0.1,16.8-0.4c1.1,1.4,1.1,1.4,3.1,0.1c1.6-0.9,3.5-1.1,5.3-1.4c2-0.4,3.4-1.3,3.7-3.4c5.2-3.9,11-6.7,16.5-10
	c6.2-3.6,12.4-7.3,18.7-10.8c1.2-0.7,2.3-1.5,3.8-0.9c1.5,1.1,1.8,2.4,0.9,4.2c-2.1,4.1-4.5,8-5.5,12.6c-0.2,0.9-0.7,1.4-1.8,1.5
	c-9.4,0.5-13.7,6.7-15.6,15c-1.3,5.7-0.9,11.4,2.7,16.5c2.2,3.1,5,5.2,9,5.3c3.4,0.1,5.6,0.8,6.3,5c0.7,3.9,3.1,7.5,4.7,11.3
	c-3.9,3.7-8.8,5.9-13.6,8.2c-20.3,0.1-40.6,0.1-61,0.1c-11.2,0-22.4-0.1-33.7-0.2c-0.4-1.2,0.8-0.9,1.3-1.4c-1.2,0.3-2,1.2-3.1,1.4
	c-4.3,0-8.7,0-13,0c0.1-1.5,1.6-1.6,2.4-2.3c0.8-0.7,1.9-0.9,2.2-1.2c-0.2,0.2-1.2,0.3-1.9,0.9C226.5,312.6,225.2,313.9,223.3,314.3
	z"/>
<path id="XMLID_1045_" class="st5" d="M208.8,229.4c4.5,0,9.1,0,13.6,0c-0.5,2.5-3,3.1-4.5,4.6c-2,2-4.4,3.7-6.7,5.2
	c-0.1,0.1-0.3,0.2-0.5,0.3c0.4,0.1,0.6-0.3,1-0.4c5.6-3.6,11.2-7.1,17.3-9.7c4.4,0,8.8-0.7,13.1,0.3c0,0.8-0.6,1.1-1.1,1.4
	c-0.8,0.4-1.4,1-2.1,1.4c0.1,0.1,0.2-0.1,0.3-0.1c0.7-0.5,1.4-1,2.2-1.4c0.8-0.4,1.7-0.7,2.6-1.1c0.2-0.1,0.3-0.2,0.6-0.1
	c3.6-0.7,7.3-0.3,10.9-0.2c1.5,1.5,0.4,2.6-0.7,3.4c-10.9,8-21.2,16.8-32.8,23.9l0,0c-0.7,0.7-1.7,1.1-2.2,2.1l-0.2,0.2
	c-1.8-0.2-1.8-1.9-2.4-3c-2.5-4.4-6.4-6-11.3-5.9c-5.1,0.1-9.2,1.9-12.1,6.2c-0.5,0.7-0.9,1.6-0.3,2.4c0.6,0.9,1.6,0.6,2.4,0.4
	c2.1-0.6,3.8-1.9,5.7-2.8c3-1.5,4.8-0.8,6.6,2.3c-0.4,1.6-1.7,2.3-3,2.9c-1.8,0-3,1-4.4,2c-7.2,4.1-14.3,8.4-21.6,12.5
	c-1.1,0.6-2.2,1.8-3.7,1.1c-0.1-5.9-0.3-11.9-0.4-17.8c0.8-1.9,2.6-2.7,4.2-3.9c-1.5,0.7-2.6,1.9-4.3,1.5
	c-0.5-6.9-0.1-13.7,0.6-20.5c0.5-4.3,4.1-6.8,9.8-7.2c0.4,0.4,0,1.6,0.4,1.4c0.8-0.3,2.2-0.1,2.1-1.7c4.8-0.5,9.5,0.4,14.3,0.5
	c-1.2,3.4-4.4,4.9-6.6,7.4c-0.2,0.1-0.3,0.2-0.1,0.3c0.1-0.2,0.2-0.3,0.4-0.5C200.2,234.2,204.1,231.1,208.8,229.4z"/>
<path id="XMLID_1044_" class="st4" d="M411.9,219.9c0,0.3-0.1,0.6-0.1,1c-0.8,0.6-1.8,0.7-2.6,1.2c-1,0.5-1.8,1.2-2.7,1.8
	c-0.7,0.5-1.5,1-2.2,1.5c-1,0-1.8,0.4-2.5,1.1c-1.5,0.8-3,1.7-4.4,2.7c-0.7,0.5-1.4,1-2,1.5c-1.1-0.1-2,0.5-3,0.6
	c0,0.3-0.1,0.6-0.1,0.9c-0.7,0.7-1.8,0.7-2.6,1.2c-1,0.5-1.8,1.2-2.7,1.8c-0.3,0.3-0.5,0.6-0.8,0.9c-1.5,0-2.7,0.9-3.9,1.7
	c-1.4,0.4-2.3,2-4,1.9c-0.8,0.7-1.7,1.5-2.5,2.2c-1.1,0-2.1,0.4-3.1,0.7c0,0.2,0,0.4,0,0.6c-0.7,0.8-1.7,0.9-2.6,1.4
	c-1,0.5-1.9,1.3-2.8,1.9c-0.7,0.5-1.5,1-2.2,1.5c-1,0-1.7,0.5-2.5,1c-1.5,0.8-2.9,1.7-4.3,2.7c-0.2,0.2-0.4,0.4-0.7,0.6
	c-1.2,0.4-2.4,0.7-3.5,1.4c-0.9,0.1-1.3,1.6-2.5,0.8c0.1-4,2.3-7.2,3.8-10.7c1-2.3,2-4.5,2.9-6.8c0.5-1.4,0.4-2.9-0.8-4.1
	c-0.2-2.1,1.6-2.9,2.7-4.1c-1.6,0.3-2.7,2-4.5,1.7c-4.3-7.9-0.7-17.7,7.4-19.9c1.6-0.4,3.1-0.7,4.6,0.3c0.2,2-1.5,3.1-2.2,5.1
	c2.3-0.8,3.8-2.7,6.2-2.6c3.7,2.6,7.3,2.8,11-0.3c1.4-1.1,3.1-1.9,5-2c0.2,1.8-1.2,2.6-2.2,3.7c-2.9,3-6,6-9.6,9.6
	c15.3-8.7,29.8-17.2,44.4-25.5c1.1-0.6,2.1-1.5,3.4-1.2c0.2,0.3,0.6,0.5,0.7,0.9c1,4.2,1.6,8.6,6.2,10.7c-0.5,0.6-1.1,1.2-1.6,1.8
	c-1.3,0-2.2,0.7-3.1,1.5l0.1-0.1c-0.8,0.6-1.8,0.7-2.6,1.2c-0.7,0.4-1.3,0.8-2,1.3c-1.1,0.3-1.9,1.2-2.8,1.7
	c-0.9,0.3-1.7,0.7-2.4,1.3C414.7,218.6,413.7,220.1,411.9,219.9z"/>
<path id="XMLID_1043_" class="st5" d="M255.8,230.8c-3.6-2-7.6-0.4-11.3-1c0.7-1,1.8-0.6,2.8-0.6c31.4,0,62.7,0,94.1,0
	c1.1,0,2.3-0.3,3.2,0.5c-3.5,2.4-7.4,0.8-11.1,1.2c-6-1-11,0.6-16,4.2c-8.9,6.4-18.1,12.2-27.2,18.3c-0.7,0.5-2.1,0.9-0.2,1.7
	c0.5,0.6,0.4,1.1-0.2,1.4c-6.7,0.3-13.3,0.1-19.8-1.3c-1.9-1.5-0.4-2.4,0.7-3c2.3-1.5,4.7-2.9,7.1-4.2c10.1-5.8,20.1-11.8,30.1-17.3
	c-2.4-0.1-5.1,0.5-7.8-0.1c-4-1.4-8-1.1-12-0.1c-2.2-0.8-4.5,1.2-6.7,0.1c-4-1.4-8-1.1-12-0.1C264.7,230.6,260.3,231.6,255.8,230.8z
	"/>
<path id="XMLID_1042_" class="st5" d="M332.4,229.9c4.1,0,8.1-0.1,12.2-0.1c0.1,0.2,0.2,0.5,0.3,0.7c-0.8,1.5-2.1,2.4-3.5,3.3
	c-10.7,7.1-21.2,14.4-31.8,21.6c-1,0.7-2.1,1.3-3.4,1.6c-4.2,0.5-8.4,0.2-12.7,0.2c-1.2,0-2.5-0.1-3.4-1.2c-0.3-0.2-0.7-0.5-1-0.7
	c0.1-1.7,1.6-2.1,2.7-2.8c11.6-6.8,23.3-13.6,35-20.3C328.6,231.2,330.5,230.5,332.4,229.9z"/>
<path id="XMLID_1041_" class="st5" d="M204.6,261.5c1.1-0.8,2.2-1.6,3.2-2.5c2.6-0.7,3.2,1.1,3.6,3c0.4,1.9-0.1,3.8-1.3,5.3
	c-4.3,5.3-8.7,10.5-14.7,14.2c-2,0.7-3.8,1.9-5.6,3.1c-4,2.3-8,4.5-12,6.9c-1.1,0.7-2.3,1.5-3.8,0.9c-0.3-2.9,0-5.8,0.7-8.7
	c0.6-1,1.1-1.9,2.1-2.6c8.1-5.9,15.9-12.2,24.2-17.8C202.2,262.5,203.2,261.6,204.6,261.5z"/>
<path id="XMLID_1040_" class="st51" d="M423.8,197.8c-16.3,9.5-32.6,19-48.9,28.5c-0.2-0.3-0.5-0.6-0.7-0.8
	c4.5-4.8,9.1-9.5,13.6-14.3c4.7-2.1,10.3-2.5,14-6.8c5.4-4.6,11.4-8.3,18.2-10.5C421.7,194.7,423,196,423.8,197.8z"/>
<path id="XMLID_1039_" class="st5" d="M182.2,311.7c-2.5-0.9-4.2-2.7-5.2-5.2c5.6-5.2,11.9-9.5,18.7-12.9c5,0.7,10.1,0.1,15.1,0.1
	c1.8,2.5-0.9,2.9-2,3.5c-7.4,4.2-14.7,8.7-22.2,12.8C185.2,310.9,184,312,182.2,311.7z"/>
<path id="XMLID_1038_" class="st52" d="M250.7,286.7c-12.4,8.4-24.7,16.8-37.1,25.3c-1.1,0.8-2.1,1.7-3.2,2.6
	c-2,0.1-4.1,0.2-6.1,0.3c-1.5-0.1-2.9-0.2-5.5-0.3c17.4-10.1,33.9-19.7,50.4-29.3C250.2,285.3,250.6,285.8,250.7,286.7z"/>
<path id="XMLID_1037_" class="st53" d="M307.2,256.2c12.3-8.9,24.9-17.4,37.6-25.7c1,1.5,2,2.9,3,4.4c-12.2,7-24.5,14-36.7,21
	c-0.8,0.4-1.5,0.8-2.3,1.2C308,257.4,307.4,257.1,307.2,256.2z"/>
<path id="XMLID_1036_" class="st5" d="M175.4,302.7c-1.1-2.3-1.4-4.8-1.3-7.4c3.3-3.9,8-5.8,12-8.7c1.3-0.9,2.8-1.6,4.1-2.6
	c1.1-0.4,1.9-2,3.4-1c0.4,0.7,0.4,1.5,0,2.1c-1.7,2.7-1.4,5.5-0.8,8.4c-4.9,3.1-10,5.7-15,8.7C177.1,302.7,176.3,303.1,175.4,302.7z
	"/>
<path id="XMLID_1035_" class="st54" d="M182.2,311.7c9.8-5.7,19.6-11.5,29.3-17.2c1.6-1.5,3.3-2.2,5.3-0.9
	c-8.7,5.9-17.4,11.9-26,17.8c-1.1,0.8-2.2,1.6-3.3,2.4C185.6,313.6,183.7,313,182.2,311.7z"/>
<path id="XMLID_1034_" class="st4" d="M420,193.8c-6.1,3.5-12.1,7-18.2,10.5c-0.3-4.8,0.8-9,5.3-11.4
	C411.5,190.7,415.9,190.9,420,193.8z"/>
<path id="XMLID_1033_" class="st55" d="M429,319.1c-9,6.5-18,12.9-27,19.4c-0.5-2.1-2.9-1.4-3.9-2.8c9.9-6.1,19.9-11.8,30.1-17.4
	C428.9,317.9,429.1,318.4,429,319.1z"/>
<path id="XMLID_1032_" class="st56" d="M201.7,263.6c-9,6.7-17.9,13.4-26.9,20.1c0.2-2.2,0.4-4.4,0.6-6.6
	c8.5-4.8,16.9-9.6,25.4-14.4C201.6,262.5,201.8,262.9,201.7,263.6z"/>
<path id="XMLID_1031_" class="st57" d="M175.4,302.7c5.6-3.1,11.2-6.3,16.8-9.4c1.3-0.5,2,0.2,2.6,1.2c-5.8,4.2-11.7,8.4-17.9,12.1
	C176.1,305.4,175.5,304.2,175.4,302.7z"/>
<path id="XMLID_1030_" class="st5" d="M336.8,279.6c6.3-3.6,12.7-7.1,19-10.7c0.1,0.2,0.3,0.3,0.4,0.5c-5,4.8-10.1,9.6-15.1,14.4
	C338.9,283.3,337.5,281.8,336.8,279.6z"/>
<path id="XMLID_1029_" class="st58" d="M334.9,314.3c4-3.5,8.9-5.7,13.6-8.2c0.7,5.7-1.4,8.2-6.9,8.2
	C339.4,314.4,337.1,314.4,334.9,314.3z"/>
<path id="XMLID_1028_" class="st59" d="M229,229.4c-5.4,4.1-11.5,7-17.4,10.3c-0.8,0.3-1-0.1-0.9-0.8c3.9-3.2,7.8-6.3,11.7-9.5
	C224.6,229.4,226.8,229.4,229,229.4z"/>
<path id="XMLID_1027_" class="st60" d="M194.9,236.5c2.4-2.4,4.8-4.8,7.2-7.2c2.2,0,4.4,0,6.7,0.1c-3.9,3.4-8.6,5.5-13,8
	C195,237.6,194.8,237.3,194.9,236.5z"/>
<path id="XMLID_1026_" class="st61" d="M190.4,284.5c-5.4,3.6-10.9,7.2-16.3,10.8c0-1,0-2,0-2.9c5.2-2.8,10.4-5.7,15.5-8.6
	C190.5,283.4,190.5,283.8,190.4,284.5z"/>
<path id="XMLID_1025_" class="st62" d="M454.6,329.8c2.8-1.6,5.6-3.2,9.1-5.2c-0.8,3.6-3.3,5.4-4.6,7.9
	C457.3,332.2,455.9,331.1,454.6,329.8z"/>
<path id="XMLID_1024_" class="st63" d="M353.9,320.6c2.9-1.7,5.8-3.3,8.6-5c0.2,0.2,0.5,0.5,0.7,0.7c-2.7,2.7-5.3,5.4-8,8.1
	C354.4,323.3,353.9,322.1,353.9,320.6z"/>
<path id="XMLID_1023_" class="st64" d="M371.8,213.5c-2.5,1.5-5,3-8,4.9c0.4-3.5,2.9-5,4-7.3C369.5,211.3,370.6,212.5,371.8,213.5z"
	/>
<path id="XMLID_1022_" class="st65" d="M403.5,345.6c3.2-1.8,6.5-3.5,9.7-5.3c0.2,0.3,0.3,0.6,0.5,0.9c-2.9,2.1-5.9,4.3-8.8,6.4
	C404.1,347.2,403.7,346.5,403.5,345.6z"/>
<path id="XMLID_1021_" class="st66" d="M471.8,299.1c-2.6,1.4-5.2,2.9-7.9,4.3c-0.2-0.3-0.4-0.6-0.5-0.9c3.3-2.2,6.1-5.1,9.9-6.5
	C473.1,297.1,472.7,298.2,471.8,299.1z"/>
<path id="XMLID_1020_" class="st5" d="M350.6,286.1c1.8-1.4,3.6-2.8,6.9-3.2c-2.2,2.4-3.9,4.3-5.6,6.1
	C351.5,288.1,351.1,287.1,350.6,286.1z"/>
<path id="XMLID_1019_" class="st5" d="M355.8,230.6c2-1.7,4.2-2.9,7-3.3c-1.8,1.9-3.5,3.8-5.3,5.6
	C356.7,232.4,356.1,231.6,355.8,230.6z"/>
<path id="XMLID_1018_" class="st67" d="M450.1,215c-2.1,1.8-4.5,2.9-7.3,4.5c0.1-2.4,2.2-3,2.7-4.5C447.1,215,448.6,215,450.1,215z"
	/>
<path id="XMLID_1017_" class="st68" d="M175,256.8c2-1.1,4-2.3,6.1-3.4c-1.2,2.9-3.6,4.4-6,5.9C175,258.5,175,257.7,175,256.8z"/>
<path id="XMLID_1016_" class="st69" d="M486.5,259.9c-1.9,1.2-3.9,2.4-5.8,3.7c0.3-2.4,2.2-3.1,3.3-4.6
	C485,259,485.9,259.2,486.5,259.9z"/>
<path id="XMLID_1015_" class="st70" d="M187.8,228.8c0.4,0.3,2,0.1,0.9,1c-1.2,1-2.6,2.2-4.5,2.3c-0.4-1.3,0.9-1.9,1.1-2.9
	C186.2,229,187,228.9,187.8,228.8z"/>
<path id="XMLID_1014_" class="st5" d="M355.2,296.8c1.1-0.4,1.9-1.5,3.5-1.5c0.2,2-1.5,2.6-2.5,3.7
	C355.4,298.5,355.4,297.6,355.2,296.8z"/>
<path id="XMLID_1013_" class="st71" d="M388.2,331c0.2-0.2,0.4-0.6,0.7-0.7c0.9-0.3,1.8-1.9,2.7-0.8c0.9,1.1-1,1.5-1.3,2.4
	C389.7,331.6,388.9,331.3,388.2,331z"/>
<path id="XMLID_1012_" class="st72" d="M238.4,314.3c1.6-1,3.2-2.1,5.4-3.5c-0.8,2.4-2.7,2.5-3.6,3.5
	C239.7,314.3,239,314.3,238.4,314.3z"/>
<path id="XMLID_1011_" class="st5" d="M346.5,258.5c-0.4,0.9-1.2,1.2-1.9,1.6c-0.5,0.3-1.1,1-1.6,0.4c-0.6-0.7,0.4-1.3,0.5-2
	C344.5,258.2,345.5,258.1,346.5,258.5z"/>
<path id="XMLID_1010_" class="st73" d="M223.3,314.3c1.4-1.2,2.8-2.4,4.7-2.7c0.2,0.2,0.3,0.3,0.2,0.5c-0.1,0.1-0.2,0.2-0.2,0.2
	c-0.4,1.2-1.9,1.1-2.6,2C224.7,314.3,224,314.3,223.3,314.3z"/>
<path id="XMLID_1009_" class="st74" d="M473.6,250c-0.8,0.7-1.7,1.3-2.8,1.5c-0.3-0.3-0.5-0.6-0.8-0.8c1-0.7,2-1.5,3-2.2
	C473.2,249,473.4,249.5,473.6,250z"/>
<path id="XMLID_1008_" class="st75" d="M351.8,254.4c0.8-0.4,1.5-0.7,2.3-1.1c0.4,0.1,0.6,0.3,0.8,0.6c-0.8,1-2,1.5-3.1,2
	C351.7,255.4,351.7,254.9,351.8,254.4z"/>
<path id="XMLID_1007_" class="st76" d="M240.8,230.7c0.5-0.3,0.9-0.6,1.4-1c0.6,0.1,1.2,0.2,1.8,0.2c-0.5,0.8-1.3,1.3-2.3,1.5
	C240.8,231.8,240.7,231.4,240.8,230.7z"/>
<path id="XMLID_1006_" class="st0" d="M207.8,116.4c1.3-0.3,2.5-0.6,3.8-0.8c12.5,0.3,25-0.2,37.6-0.5c1.5,0,3.1,0,4.6,0
	c12.3,0.1,24.5,0.3,36.8,0.4c1.2,0,2.4,0,3.6,0c6.7,0.1,13.4,0.2,20.1,0.3c0.2-0.3,0.4-0.3,0.6,0c5.6,0.5,11.1,0.9,16.7,1.4
	c0.5-0.2,0.8-0.1,1,0.5c-1.7,1.4-3.8,1.5-5.9,1.8c-12.2,1.9-24.4,0.4-36.6,1c-2.5,0.1-5.2-0.5-7.5,1.1c-0.6,0.3-0.9,0-1.1-0.6
	c-13.4,0-26.9-0.3-40.3,0.7c-0.8,0.3-1.7,0.8-2.5-0.1c-8.9-0.9-17.8-0.1-26.7-1.3c-2-0.3-3.9-0.6-5.6-1.7c-0.5-0.7,0.3-0.9,0.4-1.4
	C207.1,117,207.4,116.7,207.8,116.4z"/>
<path id="XMLID_1005_" class="st0" d="M272,147.9c-0.5,0.1-1,0.1-1.4,0.2c-6.2-0.1-12.4-0.4-18.6,0.2c-0.5,0.2-1,0.4-1.3-0.2
	c-6.3-0.9-12.6-0.6-18.9-0.6c-1.5,0-2.9-0.1-4.4-0.1c-5.7-0.4-11.4-1-17.1-0.3c-2.4,0.3-4.1-0.8-4.5-2.9c-0.4-2.1,1.9-2.4,3.4-2.7
	c6.6-1.5,13.3-1.6,20-1.6c4.3,0,8.7-0.1,13-0.1c0.5-0.3,1-0.4,1.5,0c13.1,0.6,26.2,1.1,39.3,0.9c0.7,0,1.5-0.1,2.2-0.1
	c1.8,0.1,3.2,1.1,3.5,2.8c0.3,1.8-1.4,2.1-2.7,2.6C281.5,147.7,276.6,147,272,147.9z"/>
<path id="XMLID_1004_" class="st0" d="M159.1,142c0-0.8,0-1.5,0-2.3c0.4-4,0.3-7.9,0-11.9c0.1-1.2,0.1-2.5,0.2-3.7
	c0.2-2.3,0.1-3.6-3-3.2c-3.9,0.5-2-2.5-2-4.3c1.9-1.8,3.6-3.8,5.7-5.3c4.5-3.4,7.4-2.4,9,3.1c1.4,8.1-0.4,16.2-0.6,24.2
	c0,1.5-0.2,3-0.2,4.5c0,2.1,0.2,3.9,3.2,3.7c1.7-0.1,3.1,1,3.3,3c0.2,2.2-1.3,3.1-3.1,3.6c-4.4,1.2-8.9,0.7-13.4,0.1
	c-0.1,0-0.2-0.1-0.4-0.1c-1.9-0.6-4.7-0.4-5-2.5c-0.3-2.3,2.6-2.7,4.4-3.3C160.5,146.5,159,144,159.1,142z"/>
<path id="XMLID_1003_" class="st77" d="M139.5,166c-0.3-0.3-0.6-0.5-1-0.8c1.8-0.8,2.8-3.3,5.4-2C142.4,164.2,140.9,165.1,139.5,166
	z"/>
<path id="XMLID_1002_" class="st78" d="M281.4,121.1c0.4,0.2,0.7,0.4,1.1,0.6c-0.8,1.8-2.7,1.9-4.7,3.5
	C278.7,122.5,280.7,122.4,281.4,121.1z"/>
<path id="XMLID_1001_" class="st79" d="M297,160.1c-0.3-0.3-0.6-0.5-0.9-0.8c1.4-0.9,2.8-1.8,4.9-3.2
	C300.2,158.8,298.4,159.2,297,160.1z"/>
<path id="XMLID_1000_" class="st80" d="M200.2,140.5c-0.3-0.2-0.6-0.5-0.9-0.7c1.4-0.9,2.8-1.8,4.1-2.7
	C203.2,139.1,201.6,139.7,200.2,140.5z"/>
<path id="XMLID_999_" class="st81" d="M198.8,107.7c0.3,0.3,0.6,0.5,0.9,0.8c-1,0.9-2,1.8-3.7,1.8
	C196.4,108.7,197.7,108.3,198.8,107.7z"/>
<path id="XMLID_998_" class="st82" d="M238.6,121.8c0.8,0,1.7,0,2.5,0.1c-0.9,1.1-2.1,1.8-3.6,2.1
	C236.8,122.6,238.3,122.5,238.6,121.8z"/>
<path id="XMLID_997_" class="st83" d="M332.5,117.7c-0.3-0.2-0.6-0.3-1-0.5c1-0.7,2-1.4,3-2c0.3,0.3,0.6,0.5,0.9,0.8
	C334.7,117,333.6,117.3,332.5,117.7z"/>
<path id="XMLID_996_" class="st84" d="M206.8,117.3c-0.1,0.5-0.3,0.9-0.4,1.4c-0.8,0.1-1.9,1.3-2.1,0.5
	C203.9,117.6,205.4,117.3,206.8,117.3z"/>
<path id="XMLID_995_" class="st85" d="M344.9,122.3c0,0.3,0.1,0.5,0.1,0.8c-0.9,0.9-1.9,1.7-4.5,1.7
	C342.6,123.7,343.7,123,344.9,122.3z"/>
<path id="XMLID_994_" class="st86" d="M232.6,126.1c1-0.6,1.6-1.4,3-1.4C234.8,126,234.1,126.5,232.6,126.1z"/>
<path id="XMLID_993_" class="st87" d="M144.6,162.4c0.3-1.4,1.4-1.8,2.5-2.3C147.3,162,145.9,162.2,144.6,162.4z"/>
<path id="XMLID_992_" class="st88" d="M174,109.9c0.3,0.2,0.5,0.5,0.8,0.7c-1,0.6-2,1.3-3.1,1.9C171.7,111,172.8,110.4,174,109.9z"
	/>
<path id="XMLID_991_" class="st89" d="M363,122.7c0.3,0.2,0.6,0.5,0.9,0.7c-0.8,0.5-1.6,1-2.3,1.5c-0.8,0.3-0.9-0.1-0.8-0.7
	C361.5,123.7,362.3,123.2,363,122.7z"/>
<path id="XMLID_990_" class="st31" d="M188.2,161.4c-0.3-0.2-0.6-0.4-0.9-0.6c0.8-0.5,1.6-1,2.4-1.5c0.8-0.4,0.9,0,0.8,0.7
	C189.7,160.5,188.9,160.9,188.2,161.4z"/>
<path id="XMLID_989_" class="st90" d="M360.8,124.2c0.3,0.2,0.5,0.5,0.8,0.7c-0.7,0.7-1.5,1.2-2.5,1.4
	C358.6,124.7,360,124.7,360.8,124.2z"/>
<path id="XMLID_988_" class="st91" d="M243.7,139.8c-0.5,0-1,0-1.5,0c0.4-1.4,1.6-1.6,2.7-2.2C245.2,139,243.9,139,243.7,139.8z"/>
<path id="XMLID_987_" class="st92" d="M295.4,148c-0.3-0.2-0.5-0.5-0.8-0.7c0.8-0.5,1.5-1,2.3-1.5c0.8-0.3,0.9,0.1,0.8,0.8
	C297,147,296.2,147.5,295.4,148z"/>
<path id="XMLID_986_" class="st93" d="M366,148.1c0.3,0.3,0.5,0.5,0.8,0.8c-0.8,0.5-1.5,1-2.4,1.6C364,148.8,365.2,148.6,366,148.1z
	"/>
<path id="XMLID_985_" class="st94" d="M190.4,160c-0.3-0.2-0.5-0.5-0.8-0.7c0.7-0.6,1.5-1.7,2.2-0.8
	C192.5,159.3,191.2,159.7,190.4,160z"/>
<path id="XMLID_984_" class="st95" d="M331.5,151.1c-0.3-0.3-0.5-0.5-0.8-0.8c0.8-0.5,1.5-1,2.3-1.5l0-0.1
	C333.4,150.2,332.5,150.7,331.5,151.1z"/>
<path id="XMLID_983_" class="st96" d="M333,148.9c0.6-0.6,1.1-1.3,2.1-0.9c0.1,0,0.1,0.5,0,0.6C334.5,149.6,333.7,149.4,333,148.9
	C333,148.8,333,148.9,333,148.9z"/>
<path id="XMLID_982_" class="st97" d="M297.7,146.6c-0.3-0.3-0.5-0.5-0.8-0.8c0.6-0.6,1.5-1.6,2.1-0.9
	C299.8,146,298.3,146.1,297.7,146.6z"/>
<path id="XMLID_981_" class="st98" d="M154.4,99.2c0.3,0.3,0.6,0.6,0.9,0.9c-0.7,0.9-1.7,1.3-3.1,1.8
	C152.4,100.4,153.5,99.8,154.4,99.2z"/>
<path id="XMLID_980_" class="st99" d="M258.8,96.5c0.3,0.2,0.6,0.4,0.9,0.6c-0.8,0.5-1.6,1-2.4,1.5c-0.8,0.4-0.9-0.1-0.8-0.7
	C257.3,97.5,258,97,258.8,96.5z"/>
<path id="XMLID_979_" class="st100" d="M256.5,97.9c0.3,0.2,0.5,0.5,0.8,0.7c-0.7,0.8-1.5,1.2-2.5,1.4
	C254.4,98.5,255.7,98.4,256.5,97.9z"/>
<path id="XMLID_978_" class="st101" d="M295.5,99.4c0.3,0.3,0.6,0.5,0.9,0.8c-0.9,1-2,1.5-3.2,2c-0.4-0.1-0.6-0.3-0.8-0.6
	C293.2,100.5,294.3,99.9,295.5,99.4z"/>
<path id="XMLID_977_" class="st6" d="M292.4,101.5c0.3,0.2,0.5,0.4,0.8,0.6c-0.9,0.6-1.8,1.2-2.9,0.9l0,0
	C290.5,102,291.6,101.9,292.4,101.5z"/>
<path id="XMLID_976_" class="st102" d="M290.2,103.1c-0.3,1.1-0.7,2-2.2,1.7C288.2,103.3,289.2,103.2,290.2,103.1
	C290.3,103.1,290.2,103.1,290.2,103.1z"/>
<path id="XMLID_975_" class="st80" d="M321.8,109.9c0.3,0.3,0.6,0.5,0.9,0.8c-1.6,1.3-3.2,2.5-5.2,2.9
	C318,111.4,320.1,110.9,321.8,109.9z"/>
<path id="XMLID_974_" class="st103" d="M314.8,115.8c0,0-0.3,0.1-0.3,0.1s-0.3-0.1-0.3-0.1c-0.2-1.8,0.5-2.3,2.1-1.3
	C315.9,114.9,315.4,115.4,314.8,115.8z"/>
<path id="XMLID_973_" class="st83" d="M246.7,151.8c-0.3-0.3-0.6-0.5-0.8-0.8c0.9-1,2-1.5,3.2-1.9c0.3,0,0.6,0.2,0.7,0.6
	C249.1,150.8,247.9,151.3,246.7,151.8z"/>
<path id="XMLID_972_" class="st104" d="M249.8,149.6c-0.2-0.2-0.5-0.4-0.7-0.6c0.5-0.4,1-0.7,1.6-1.1c0.4,0.1,0.9,0.2,1.3,0.2
	C251.2,148.7,250.5,149.2,249.8,149.6z"/>
<path id="XMLID_971_" class="st105" d="M151.4,133c-0.3-0.2-0.5-0.5-0.8-0.7c0.8-0.5,1.5-1,2.3-1.5c0.8-0.3,0.9,0.1,0.8,0.7
	C152.9,132,152.2,132.5,151.4,133z"/>
<path id="XMLID_970_" class="st106" d="M153.7,131.5c-0.3-0.2-0.5-0.5-0.8-0.7c0.8-0.5,1.6-1,2.3-1.5
	C155.5,130.6,154.7,131.2,153.7,131.5z"/>
<path id="XMLID_969_" class="st107" d="M283.5,396.1c6.7,0.1,13.5,0.3,20.2,0.4c8.2,0.9,16.4,1,24.6,0.1c2.1-0.2,4-0.1,4.5,2.1
	c0.5,2.1-1.5,2.5-3.1,3c-4.3,1.5-8.8,1.8-13.2,2c-22.1,1-44.1,0.3-66.2-0.4c-12.8-0.4-25.7-0.2-38.5-0.3c-0.9,0-1.7,0.1-2.6,0
	c-1.6-0.1-2.6-1-2.8-2.5c-0.3-1.4,1-1.9,2-2.3c1.3-0.5,2.6-0.9,3.9-1.4c20.2-2.5,40.5-1.2,60.8-1.3
	C276.5,395.7,280,396.6,283.5,396.1z"/>
<path id="XMLID_968_" class="st107" d="M149.2,431.3c-0.5-0.5-1-1-1.5-1.5c-1.1-1.5-0.8-2.7,1-3.5c2.1-1,4.3-1.8,6.7-1.3
	c0.8,0.2,1.5,0.7,2.2,1.2c5.2,3.3,6.9,2.4,7.3-3.8c0.1-0.7,0.1-1.5,0.4-2.2c-0.5-2.6-2.1-4.3-4.6-5.3c-0.8-0.3-2.3-0.3-2.2-1.6
	c0.1-1,1.3-1.5,2.2-1.8c1.9-0.8,4.1-1.3,4.3-3.9c1.6-3.6,0.8-6.8-1.6-9.6c-2.1-2.5-4.5-3.3-7.3-0.7c-1.9,1.8-4.2,3.1-7.1,2.8
	c-0.7-0.1-1.6,0.3-1.9-0.7c-0.3-0.8,0.3-1.4,0.7-2c5.3-7.3,19.4-7.7,25.2-0.8c3.3,3.9,2.9,8.5-1.5,13c-1.6,1.6-2,2.4,0,4.2
	c4.8,4.5,4.6,9.9-0.1,14.6C165.3,434.5,157.3,435.5,149.2,431.3z"/>
<path id="XMLID_967_" class="st108" d="M240.2,429.2c-6-2.1-12-1.7-18.1-0.8c-3.8-1.4-7.8-0.2-11.7-0.6c-0.6-0.1-1.2,0.1-1.9,0.1
	c-1.5,0-3.5,0.2-3.6-1.7c-0.1-1.6,2-1.7,3.2-2c8-1.7,16.1-2.1,24.2-2.3c15.2-0.4,30.5-0.6,45.7,0.7c4,0.3,8.2,0.4,12.3,2.5
	c-4.7,2.2-9.7,1.9-14.2,3.5c-11.4-0.1-22.8-0.1-34.1-0.1C241.3,428.6,240.7,429,240.2,429.2z"/>
<path id="XMLID_966_" class="st109" d="M225.7,370.8c3.5-1.7,7.1-0.4,11.7-1.1c-1.6,1.3-2.3,1.9-3,2.5c-12.5,7.1-25,14.2-37.5,21.3
	c-0.9,0.5-1.8,0.9-2.6,1.4c-0.8,0.4-0.9-0.1-0.8-0.7c9.8-7,19.5-14,29.3-21.1C223.8,372.4,224.8,371.6,225.7,370.8z"/>
<path id="XMLID_965_" class="st110" d="M245.3,373.3c6.6-3.7,7.1-3.8,13.4-2.8c-13.7,7.8-27,15.4-40.3,23c-0.9,0.3-1-0.1-0.9-0.9
	C226.8,386.2,236,379.7,245.3,373.3z"/>
<path id="XMLID_964_" class="st39" d="M317.2,386.6c7.8-5.2,15.7-10.5,23.5-15.7c2.2-1.4,4.6-1.5,6.9-0.2c-8.7,4.9-17.3,9.8-26,14.7
	c-1.2,0.7-2.4,1.3-3.6,1.9C317.2,387.7,317.1,387.3,317.2,386.6z"/>
<path id="XMLID_963_" class="st111" d="M207.7,370.6c2-0.7,4-1.5,6,0.2c-5.9,3.3-11.9,6.6-17.8,9.9c-0.8,0.3-1-0.1-0.8-0.8
	C199.3,376.8,203.5,373.7,207.7,370.6z"/>
<path id="XMLID_962_" class="st112" d="M173.2,370.8c2.2-0.9,4.3-1.5,6.5,0c-4.8,2.6-9.7,5.3-14.5,7.9
	C167.2,375.2,170.7,373.6,173.2,370.8z"/>
<path id="XMLID_961_" class="st113" d="M138.8,372.4c1.8-2.1,3.7-3.6,6.5-1.7c-1.8,1-3.6,2-5.5,2.9
	C138.2,374.3,138,373.7,138.8,372.4z"/>
<path id="XMLID_960_" class="st114" d="M317.2,386.6c0.3,0.3,0.5,0.5,0.8,0.8c-2.1,1.5-4.1,3.2-6.8,3.7
	C312.6,388.7,315.1,387.9,317.2,386.6z"/>
<path id="XMLID_959_" class="st115" d="M155.9,372.4c1.5-1.4,2.7-3.8,5.3-1.5C159.2,370.7,158.2,373.9,155.9,372.4z"/>
<path id="XMLID_958_" class="st116" d="M171.7,437.6c-0.3-0.3-0.6-0.6-0.9-0.9c1.4-1.3,3-2.2,5.8-3
	C174.9,436,173.4,436.8,171.7,437.6z"/>
<path id="XMLID_957_" class="st117" d="M190.5,371.6c1.7-0.5,3-3,5.1-0.8c-1.6,0.8-3.3,1.6-4.9,2.4c-0.8,0.3-1-0.1-0.9-0.8
	C190,372.1,190.2,371.8,190.5,371.6z"/>
<path id="XMLID_956_" class="st118" d="M217.5,392.6c0.3,0.3,0.6,0.6,0.9,0.9c-1.6,1.3-3.2,2.5-5.2,2.8
	C213.8,394.1,215.8,393.6,217.5,392.6z"/>
<path id="XMLID_955_" class="st119" d="M264.7,436.8c-0.3-0.3-0.6-0.5-0.8-0.8c1.6-0.9,2.8-3.2,5.3-2
	C267.7,434.9,266.2,435.9,264.7,436.8z"/>
<path id="XMLID_954_" class="st120" d="M278.9,439.8c-0.3-0.2-0.6-0.5-0.8-0.7c1.3-1.1,2.7-2,5-2.8
	C281.9,438.4,280.4,439,278.9,439.8z"/>
<path id="XMLID_953_" class="st121" d="M348,389.7c0.3,0.2,0.6,0.5,0.9,0.7c-1.3,1.1-2.7,2.1-5.3,2.8
	C345.1,391.1,346.6,390.4,348,389.7z"/>
<path id="XMLID_952_" class="st122" d="M371.3,397.2c0.3,0.3,0.6,0.5,0.9,0.8c-1.4,0.9-2.8,1.8-4.2,2.7
	C368.3,398.5,369.9,398,371.3,397.2z"/>
<path id="XMLID_951_" class="st4" d="M212.2,435.2c-0.3-0.2-0.5-0.5-0.8-0.7c1.3-1.2,2.7-2.3,4.6-2.4
	C215.5,434.1,213.6,434.3,212.2,435.2z"/>
<path id="XMLID_950_" class="st123" d="M195,379.9c0.3,0.3,0.6,0.5,0.8,0.8c-1,0.9-1.9,1.7-3.6,1.8C192.7,381,193.9,380.5,195,379.9
	z"/>
<path id="XMLID_949_" class="st36" d="M344,381.8c0.8-1.4,2-2.2,4-2.9C347,381,345.4,381.2,344,381.8z"/>
<path id="XMLID_948_" class="st124" d="M179.2,444.3c-0.3-0.3-0.6-0.5-0.8-0.8c1.1-0.7,2.1-1.3,3.2-2c0.4,0.1,0.6,0.3,0.8,0.6
	C181.6,443.3,180.4,443.8,179.2,444.3z"/>
<path id="XMLID_947_" class="st125" d="M189.8,372.4c0.3,0.3,0.6,0.5,0.9,0.8c-1,0.8-1.9,1.7-3.7,1.8
	C187.5,373.5,188.7,373,189.8,372.4z"/>
<path id="XMLID_946_" class="st126" d="M357.5,395.4c0.1,0.3,0.2,0.6,0.2,0.8c-0.7,0.6-1.3,1.4-2.7,1.3
	C355.4,396.1,356.4,395.7,357.5,395.4z"/>
<path id="XMLID_945_" class="st127" d="M193.5,394.2c0.3,0.2,0.6,0.5,0.8,0.7c-0.8,0.5-1.5,1-2.3,1.5c-0.8,0.3-0.9-0.1-0.8-0.7
	C192,395.2,192.8,394.7,193.5,394.2z"/>
<path id="XMLID_944_" class="st128" d="M191.3,395.7c0.3,0.2,0.5,0.5,0.8,0.7c-0.7,0.7-1.5,1.2-2.5,1.4
	C189.2,396.3,190.5,396.2,191.3,395.7z"/>
<path id="XMLID_943_" class="st126" d="M179.2,432.7c-0.4,0.5-0.8,1-1.5,0.9c-0.2,0-0.4-0.7-0.3-0.8c0.4-0.3,0.8-0.6,1.2-0.8
	C179.1,431.9,179.2,432.2,179.2,432.7z"/>
<path id="XMLID_942_" class="st129" d="M156,412.8c-0.3-0.3-0.6-0.5-0.9-0.8c0.8-0.5,1.6-1,2.3-1.5c0.8-0.3,0.9,0.1,0.8,0.8
	C157.5,411.8,156.7,412.3,156,412.8z"/>
<path id="XMLID_941_" class="st130" d="M182.4,442.2c-0.3-0.2-0.5-0.4-0.8-0.6c0.8-0.5,1.6-1,2.7-1.6
	C184.3,441.6,183.1,441.7,182.4,442.2z"/>
<path id="XMLID_940_" class="st131" d="M306,454c-0.2-0.2-0.5-0.5-0.7-0.7c0.7-0.6,1.6-1.8,2.3-0.7C308.1,453.5,306.7,453.8,306,454
	z"/>
<path id="XMLID_939_" class="st132" d="M287.2,445.8c-0.3-0.2-0.5-0.5-0.8-0.7c0.7-0.6,1.6-1.7,2.2-0.8
	C289.2,445,287.9,445.5,287.2,445.8z"/>
<path id="XMLID_938_" class="st125" d="M158.2,411.3c-0.3-0.3-0.5-0.5-0.8-0.8c0.8-0.5,1.6-1,2.4-1.5
	C160,410.3,159.3,411,158.2,411.3z"/>
<path id="XMLID_937_" class="st133" d="M327,449.6c0.6-0.6,1.1-1.4,2.1-0.9c0.1,0,0.1,0.5,0,0.6C328.5,450.3,327.7,450.3,327,449.6
	C327,449.6,327,449.6,327,449.6z"/>
<path id="XMLID_936_" class="st134" d="M342.5,394.6c-0.6,0.3-1,0.5-1.4,0.6c-0.1,0-0.4-0.4-0.5-0.6c0.4-0.2,0.7-0.6,1.1-0.7
	C341.8,393.8,342.1,394.2,342.5,394.6z"/>
<path id="XMLID_935_" class="st135" d="M133.3,395.3c-0.7,0.4-1.2,0.7-1.7,0.9c-0.1-0.3-0.4-0.7-0.3-0.8c0.3-0.3,0.7-0.6,1.1-0.8
	C132.5,394.6,132.9,395,133.3,395.3z"/>
<path id="XMLID_934_" class="st34" d="M322.5,370c1.9,0,3.7,0,5.6,0c0.1,0.3,0.2,0.5,0.4,0.8c-11.9,6.8-23.9,13.6-35.8,20.4
	c-0.8,0.3-1-0.1-0.9-0.8c0.4-1.5,2.2-1.3,3-2.4c3-2.1,5.9-4.2,9.1-5.8C310,377.9,316,373.6,322.5,370z"/>
<path id="XMLID_933_" class="st34" d="M285.8,370c1.9,0.5,4.1-0.9,5.9,0.8c-4.6,2.3-9.2,4.8-13.4,7.7c-0.8,1.1-2,1.6-3.3,2
	c-4,2.2-8,4.3-11.9,6.6c-1.2,0.7-2.3,1.3-3.6,1.8c-0.8,0.3-1-0.1-0.8-0.8C267.7,382.1,276.8,376,285.8,370z"/>
<path id="XMLID_932_" class="st112" d="M305.3,369.9c1.2,0.4,2.8-0.7,3.8,0.9c-6.1,3.4-12.2,6.8-18.1,10.3c-1.2,0.7-2.3,1.3-3.6,1.7
	c-0.8,0.3-1-0.1-0.8-0.8c4.8-3.6,9.8-6.9,15-9.9c0.7-1.2,2-1.5,3.1-2.1C304.9,370.2,305.1,370.1,305.3,369.9z"/>
<path id="XMLID_931_" class="st49" d="M303.9,382.2c-2.9,2.2-5.7,4.5-9.1,5.8C297.1,385,300.1,383,303.9,382.2z"/>
<path id="XMLID_930_" class="st115" d="M258.7,388.1c0.3,0.3,0.5,0.5,0.8,0.8c-1.2,0.8-2.5,1.5-3.7,2.3c-0.8,0.4-0.9-0.1-0.8-0.7
	C256.3,389.7,257.5,388.9,258.7,388.1z"/>
<path id="XMLID_929_" class="st136" d="M285,384.4c-0.8,0.7-2,1.9-2.7,0.9c-0.8-1.3,0.7-1.6,1.8-1.8
	C284.7,383.6,284.9,383.9,285,384.4z"/>
<path id="XMLID_928_" class="st49" d="M275,391c0.2-1.2,0.8-1.7,1.6-1.9c0.2,0,0.6,0.5,0.6,0.6C277,390.8,276.2,391,275,391z"/>
<path id="XMLID_927_" class="st50" d="M285,384.4c-0.3-0.3-0.6-0.6-0.9-0.9c0.4-1.1,1.3-1.3,2.3-1.4c0.3,0.3,0.5,0.5,0.8,0.8
	C286.5,383.4,285.8,383.9,285,384.4z"/>
<path id="XMLID_926_" class="st136" d="M290.3,392.6c-0.8,0.8-1.8,1.5-3,1.4c-0.1-1.6,0.7-2.2,2.2-2.3
	C289.9,391.9,290.2,392.2,290.3,392.6z"/>
<path id="XMLID_925_" class="st137" d="M290.3,392.6c-0.3-0.3-0.6-0.6-0.9-0.9c0.4-1.1,1.3-1.3,2.3-1.4c0.3,0.3,0.6,0.5,0.9,0.8
	C291.8,391.7,291.1,392.2,290.3,392.6z"/>
<path id="XMLID_924_" class="st49" d="M304.6,370.2c-1,0.7-2.1,1.4-3.1,2.1C301.3,369.7,303.1,370.1,304.6,370.2z"/>
<path id="XMLID_923_" class="st49" d="M275,380.5c0.9-1,2-1.6,3.3-2C278,380.5,276.6,380.7,275,380.5z"/>
<path id="XMLID_922_" class="st123" d="M255,390.4c0.3,0.2,0.5,0.5,0.8,0.7c-0.8,0.8-1.7,1.2-2.9,1.4
	C253.2,391.1,254.2,390.8,255,390.4z"/>
<path id="XMLID_921_" class="st138" d="M228.7,448c-0.3-0.2-0.6-0.5-0.9-0.7c1.4-1.1,2.8-2.1,5.3-2.8
	C231.7,446.6,230.1,447.2,228.7,448z"/>
<path id="XMLID_920_" class="st139" d="M224.2,439.8c-0.3-0.3-0.6-0.5-0.9-0.8c1.1-1,2.3-1.8,3.8-2.2c0.8-0.4,1,0,0.9,0.7
	C226.7,438.3,225.5,439,224.2,439.8z"/>
<path id="XMLID_919_" class="st118" d="M227.9,437.5c-0.3-0.2-0.6-0.5-0.9-0.7c0.8-0.5,1.6-1,2.4-1.5c0.8-0.3,0.9,0.1,0.8,0.7
	C229.5,436.5,228.7,437,227.9,437.5z"/>
<path id="XMLID_918_" class="st140" d="M230.2,436c-0.3-0.2-0.5-0.5-0.8-0.7c0.8-0.5,1.6-1,2.4-1.5C232,435.1,231.3,435.7,230.2,436
	z"/>
<path id="XMLID_917_" class="st4" d="M164.5,420.3c0.1,0.6,0.4,1.3,0.4,1.9c0.2,2.4,0,5.1-2.4,6.2c-2.4,1.1-4.3-0.8-5.9-2.6
	c1-2.5,3.8-2.7,5.3-4.5C162.8,420.8,163.7,420.6,164.5,420.3z"/>
<path id="XMLID_916_" class="st4" d="M162.5,421.2c-1,2.8-4,3.2-5.9,5c-0.4-0.4-0.9-0.8-1.3-1.2
	C157.7,423.8,159.8,421.9,162.5,421.2z"/>
<path id="XMLID_915_" class="st0" d="M418.4,313.2c-5.3-0.3-10.5,0.5-15.8-0.7c-5.3-1.1-10.1-3.2-14.8-5.9c-1.7-0.1-3-0.7-3.4-2.5
	c-1.7-1.8-3.3-3.7-5-5.5c-0.7-0.2-1.2-0.5-0.9-1.4c-1.2-2.2-2.4-4.4-3.6-6.6c-0.7-0.6-1-1.3-0.8-2.2c-0.7-2.9-1.3-5.9-2-8.8
	c-1-0.9-0.6-1.9-0.3-2.9c0.2-3.6,0.4-7.2,0.6-10.9c-0.7-1.1-0.5-2.1,0.4-3.1c2.3-7.1,4.9-14,10-19.7c9.7-10.8,21.9-14.5,36-12.9
	c1.3-0.3,2.7-0.9,3.8,0.4c4.9,1.7,10,2.8,14.5,5.6c2.9,1.8,5.4,4,7.9,6.1c1,0.1,1.4,0.8,1.7,1.7c13.1,16.9,11.2,39.6-0.4,54.3
	c-5.2,6.6-11.8,10.6-19.6,13.2c-0.7,0.2-1.4,0.5-2.1,0.8c-1.1,0.5-2.3,0.8-3.4,1.3C420.3,313.9,419.3,314,418.4,313.2z"/>
<path id="XMLID_914_" class="st141" d="M384.5,304.1c1.1,0.8,2.2,1.7,3.4,2.5c-3.3,2-6.7,4-10,5.9c-0.2-0.3-0.5-0.5-0.7-0.8
	C379.6,309.2,382,306.7,384.5,304.1z"/>
<path id="XMLID_913_" class="st142" d="M418.4,313.2c1-0.1,2-0.1,3-0.2c0.7-0.2,1.4-0.6,1.5,0.7c-2.8,1.6-5.6,3.2-9.1,5.2
	C415.1,316,417.3,315,418.4,313.2z"/>
<path id="XMLID_912_" class="st143" d="M422.7,230.7c-1.3-0.1-2.6-0.3-3.8-0.4c1.9-1.7,4.1-2.8,6.8-3.1
	C424.7,228.3,423.7,229.5,422.7,230.7z"/>
<path id="XMLID_911_" class="st144" d="M446.9,244c-0.6-0.6-1.1-1.1-1.7-1.7c1.8-1.1,3.6-2.3,5.4-3.4c0.2,0.3,0.5,0.6,0.7,1
	C449.8,241.3,448.4,242.7,446.9,244z"/>
<path id="XMLID_910_" class="st145" d="M372.9,262.9c-0.1,1-0.2,2-0.4,3.1c-0.9,0.5-1.8,1-2.7,1.5c-0.8,0.2-1.1-0.1-0.9-0.9
	C370.2,265.3,371.6,264.1,372.9,262.9z"/>
<path id="XMLID_909_" class="st146" d="M371.9,276.8c0.1,0.9,0.2,1.9,0.3,2.8c-1.1,0.8-2.1,1.6-3.8,2
	C368.7,279.2,370.4,278.1,371.9,276.8z"/>
<path id="XMLID_908_" class="st144" d="M374.2,288.5c0.3,0.7,0.6,1.5,0.8,2.2c-1,0.6-2,1.2-3.1,1.8c-0.2-0.2-0.4-0.5-0.7-0.7
	C372.2,290.6,373.2,289.6,374.2,288.5z"/>
<path id="XMLID_907_" class="st5" d="M358.4,251.6c0.7-2.1,2.9-2.4,4.5-3.3c0.4,0.3,0.4,0.7,0.1,1
	C361.6,250.4,360.2,251.3,358.4,251.6z"/>
<path id="XMLID_906_" class="st147" d="M397.4,229.1c0.8-2.1,2.9-2.4,4.5-3.4c0.3,0.3,0.4,0.7,0,1
	C400.6,227.9,399.2,228.8,397.4,229.1z"/>
<path id="XMLID_905_" class="st147" d="M411.9,219.9c1.4-0.7,2.9-1.4,4.3-2.2c0.2,0.1,0.3,0.3,0.3,0.4c0,0.2-0.1,0.3-0.2,0.3
	C414.9,219.1,414,221.4,411.9,219.9z"/>
<path id="XMLID_904_" class="st148" d="M378.3,239.6c1-1.4,2.7-1.8,4.1-2.6c0.3,0.3,0.3,0.7,0,1
	C381.1,238.7,380.3,240.6,378.3,239.6z"/>
<path id="XMLID_903_" class="st149" d="M382.5,238c0-0.3,0-0.7,0-1c1.2-0.7,2.1-2.3,3.7-1C385.1,236.9,383.9,237.7,382.5,238z"/>
<path id="XMLID_902_" class="st51" d="M418.5,216.3c0.8-1,1.9-1.3,2.9-1.8c0.2,0.2,0.3,0.4,0.2,0.6c-0.1,0.2-0.1,0.3-0.2,0.3
	c-0.9,0.8-1.7,1.5-3,1.7c-0.2-0.2-0.3-0.3-0.2-0.5C418.4,216.4,418.4,216.3,418.5,216.3z"/>
<path id="XMLID_901_" class="st5" d="M354.8,253.9c-0.3-0.2-0.5-0.4-0.8-0.6c1.2-0.5,2.1-2,3.7-1
	C357.2,253.5,355.8,253.4,354.8,253.9z"/>
<path id="XMLID_900_" class="st150" d="M426,212.6c0.5-1.6,1.2-2.8,3.1-1.5C428.2,212,427.3,212.7,426,212.6z"/>
<path id="XMLID_899_" class="st151" d="M392.3,231.2c0.9-0.5,1.7-2,3-0.6C394.4,231.4,393.6,232.6,392.3,231.2z"/>
<path id="XMLID_898_" class="st152" d="M459.9,305.4c0.6-1.1,1.1-1.8,2.7-1.8C462.1,305,461.4,305.5,459.9,305.4z"/>
<path id="XMLID_897_" class="st153" d="M378.6,297.3c0.3,0.5,0.6,0.9,0.9,1.4c-0.9,0.4-1.9,0.9-3.1,1.5
	C376.6,298.3,377.7,297.9,378.6,297.3z"/>
<path id="XMLID_896_" class="st154" d="M465.7,311.6c0.8-0.5,1.7-2.2,2.5-1c1,1.4-1.1,1.2-1.7,1.8
	C465.7,312.7,465.6,312.3,465.7,311.6z"/>
<path id="XMLID_895_" class="st155" d="M372.7,242.6c1-0.6,1.7-2.1,3.1-0.7C375,242.8,374.1,243.6,372.7,242.6z"/>
<path id="XMLID_894_" class="st156" d="M465.7,311.6c0.3,0.3,0.6,0.5,0.8,0.8c-0.7,0.7-1.5,1.2-2.6,1.4
	C463.5,312.2,465,312.2,465.7,311.6z"/>
<path id="XMLID_893_" class="st157" d="M429,319.1c-0.3-0.3-0.6-0.5-0.9-0.8c0.8-0.5,1.6-1,2.3-1.5c0.8-0.3,0.9,0.1,0.8,0.8
	C430.5,318.1,429.7,318.6,429,319.1z"/>
<path id="XMLID_892_" class="st158" d="M386.9,235.1c0.3-1.3,1.3-1.7,2.4-2.1c0.3,0.1,0.6,0.2,0.7,0.6
	C389.2,234.5,388.2,235.1,386.9,235.1z"/>
<path id="XMLID_891_" class="st159" d="M390,233.6c-0.2-0.2-0.5-0.4-0.7-0.6c0.8-0.8,1.8-1.2,3-1C391.9,233.1,391.1,233.7,390,233.6
	z"/>
<path id="XMLID_890_" class="st159" d="M423,213.6c0.9-0.7,1.8-1.3,3-1c-0.4,1-1.1,1.6-2.3,1.5C423,214.5,423,214.1,423,213.6z"/>
<path id="XMLID_889_" class="st160" d="M406.4,223.9c0.3-1.3,1.3-1.7,2.4-2.1c0.3,0.1,0.6,0.2,0.7,0.5
	C408.7,223.3,407.7,223.9,406.4,223.9z"/>
<path id="XMLID_888_" class="st159" d="M409.5,222.3c-0.2-0.2-0.5-0.4-0.7-0.5c0.8-0.8,1.8-1.2,2.9-0.9
	C411.3,221.9,410.6,222.4,409.5,222.3z"/>
<path id="XMLID_887_" class="st51" d="M418.5,216.3c0,0.3,0,0.5,0,0.8c-0.6,0.7-1.3,1.1-2.2,1.3c0-0.2,0-0.5-0.1-0.7
	C416.7,216.9,417.5,216.5,418.5,216.3z"/>
<path id="XMLID_886_" class="st155" d="M368.9,266.5c0.3,0.3,0.6,0.6,0.9,0.9c-0.7,0.7-1.5,1.2-2.5,1.4
	C367,267.4,368.2,267.1,368.9,266.5z"/>
<path id="XMLID_885_" class="st161" d="M367.4,246.4c0.3-1.3,1.3-1.7,2.4-2.1c0.3,0.1,0.6,0.2,0.7,0.6
	C369.7,245.8,368.7,246.4,367.4,246.4z"/>
<path id="XMLID_884_" class="st159" d="M370.5,244.9c-0.2-0.2-0.5-0.4-0.7-0.6c0.9-0.7,1.9-1.1,3-1.2
	C372.5,244.3,371.7,244.9,370.5,244.9z"/>
<path id="XMLID_883_" class="st162" d="M431.2,317.6c-0.3-0.3-0.5-0.5-0.8-0.8c0.7-0.6,1.5-1.7,2.2-0.8
	C433.2,316.8,431.9,317.2,431.2,317.6z"/>
<path id="XMLID_882_" class="st163" d="M422.9,313.7c-0.5-0.2-1-0.4-1.5-0.7c1-0.7,2.2-0.8,3.4-0.6
	C424.4,313.2,423.7,313.4,422.9,313.7z"/>
<path id="XMLID_881_" class="st164" d="M363,249.3c0-0.3,0-0.7-0.1-1c0.6-1,1.4-0.8,2.3-0.4C364.7,248.8,363.9,249.1,363,249.3z"/>
<path id="XMLID_880_" class="st149" d="M402,226.8c0-0.3,0-0.7,0-1c0.6-0.9,1.5-0.8,2.3-0.3C403.7,226.3,402.9,226.6,402,226.8z"/>
<path id="XMLID_879_" class="st165" d="M423,213.6c0.2,0.2,0.5,0.4,0.7,0.6c-0.6,0.8-1.4,1.2-2.3,1.3c0-0.3,0-0.6,0-0.8
	C422,214.2,422.5,213.9,423,213.6z"/>
<path id="XMLID_878_" class="st166" d="M194.9,294.4c-0.9-0.4-1.7-0.8-2.6-1.2c-1.8-2.4-1-4.8-0.1-7.2c0.4-1.1,1.7-1.9,1.3-3.3
	c-0.1-1.1,0.7-1.4,1.4-1.8c5.5-4.1,10.5-8.7,14.5-14.2c2.6-3.5,1.8-6.1-1.6-7.7c-1.5-2.6-3.5-3.6-6.3-1.6c-2,1.4-4.2,2.7-6.7,3.2
	c-2.6,0.4-3.6-0.8-2.7-3.2c0.5-1.2,1.3-2.4,2.2-3.4c7.7-8.3,20.6-5.7,25.2,5.2c1.3,8.4-3.1,13.9-9.3,18.4c-2.9,2.1-6,4-7.9,7.2
	c-0.4,0.7-2.2,1.7-0.2,2.7c1.2-0.4,2.5-1.1,3.7,0c4.8,0.7,10-1.2,14.2,2.4c0.8,0.4,0.7,0.8,0.2,1.3c-1.2,0.8-2.3,1.6-3.5,2.4
	c-1.9-0.3-3.5,0.8-5.3,0.9C206,295.2,200.4,295.3,194.9,294.4z"/>
<path id="XMLID_877_" class="st166" d="M307.2,256.2c0.5,0.3,1.1,0.6,1.6,0.9c1.8,2,0.3,2.9-1.4,3.3c-2.5,0.7-5,1.2-7.5,1.8
	c-0.8,0.4-1.6,0.5-2.4,0.1c-11.2,1-22.4,0.9-33.6,0.5c-4.1-0.1-8.2-0.5-12.1-1.5c-1.1-0.3-2.2-0.4-2.9-1.8c4.9-3.8,10.9-3.8,16.5-5
	c1.1-0.5,2.2-1,3.4,0c7.1,0.5,14.2,0.9,21.4,1.4C295.9,256,301.6,256.1,307.2,256.2z"/>
<path id="XMLID_876_" class="st167" d="M250.7,286.7c-0.5-0.5-0.9-1-1.4-1.5c-0.3-2.1,1.5-2.3,2.8-2.7c1.4-0.5,2.8-0.7,4.3-1
	c0.8-0.4,1.6-0.6,2.5-0.1c10.3,0,20.7,0,31,0.1c1,0,2.1-0.2,3,0.2c1.4,0.6,3.4,1.2,3.3,3.1c-0.1,1.9-2.1,1.8-3.5,2.1
	c-9.2,1.5-18.4,1.5-27.6,1C260.3,287.6,255.3,288.7,250.7,286.7z"/>
<path id="XMLID_875_" class="st168" d="M255.8,230.8c4.4-1.7,8.9-1.9,13.4-0.2c-13.2,7.6-26.4,15.1-39.7,22.6
	c-2.4,1.4-4.5,3.5-7.6,3.7c8.1-7,17-12.9,25.4-19.4C250.1,235.2,253,233,255.8,230.8z"/>
<path id="XMLID_874_" class="st169" d="M268.9,254.6c-1.1,0-2.3,0-3.4,0c10.5-7.2,21-14.5,31.6-21.7c1-0.7,2-1.5,2.9-2.2
	c3.2-1.7,6.5-0.7,10.1-0.3c-4.8,2.8-9.5,5.5-14.3,8.3C286.9,244,277.9,249.3,268.9,254.6z"/>
<path id="XMLID_873_" class="st170" d="M292.4,292.7c-9.4,6.7-18.9,13.3-28.3,20.1c-3,2.1-6.1,1.1-9.5,0.4
	c12.4-7.1,24.7-14.1,37.1-21.2C292.5,291.7,292.5,292.1,292.4,292.7z"/>
<path id="XMLID_872_" class="st171" d="M335.3,301.2c-4.1,3.9-8,8.1-12.4,11.8c-3.2,2.6-7.3,0.5-10.9,1.3c-0.1-0.3-0.2-0.7-0.3-1
	c7.6-4.3,15.2-8.6,22.8-12.9C335.2,300,335.4,300.4,335.3,301.2z"/>
<path id="XMLID_871_" class="st172" d="M315,300.4c-5.3,4.1-10.5,8.3-15.8,12.5c-2.8,2.2-6,0.9-9.3,0.5c8.1-4.6,16.2-9.2,24.2-13.7
	C315,299.2,315.1,299.6,315,300.4z"/>
<path id="XMLID_870_" class="st173" d="M281.2,230.6c2.2-0.8,4.5-2.1,6.7-0.1c-9.3,5.2-18.5,10.4-27.8,15.6
	c-0.1-0.2-0.3-0.4-0.4-0.6C266.9,240.6,274.1,235.6,281.2,230.6z"/>
<path id="XMLID_869_" class="st174" d="M206,287.5c-1.2,0-2.5,0-3.7,0c3.6-2.9,7.9-4.6,11.9-6.9C212.1,283.8,208.4,284.8,206,287.5z
	"/>
<path id="XMLID_868_" class="st175" d="M220.3,291.3c-0.1-0.4-0.1-0.9-0.2-1.3c1.8-1,3.6-2.1,5.4-3.1c0.8-0.4,0.9,0,0.9,0.7
	C224.5,288.8,222.7,290.5,220.3,291.3z"/>
<path id="XMLID_867_" class="st176" d="M226.4,287.5c-0.3-0.2-0.6-0.5-0.9-0.7c1.3-1,2.6-2,4.7-2.5
	C229.3,286.1,227.8,286.7,226.4,287.5z"/>
<path id="XMLID_866_" class="st177" d="M228,312.3c0-0.2,0-0.5,0-0.7c1.1-1.3,2.7-1.8,4.2-2.4C231.3,310.9,229.6,311.7,228,312.3z"
	/>
<path id="XMLID_865_" class="st178" d="M297.6,262.3c0.8,0,1.6-0.1,2.4-0.1c-1.3,0.9-2.6,1.7-4.2,2.8
	C295.6,263.1,297.2,263.2,297.6,262.3z"/>
<path id="XMLID_864_" class="st179" d="M258.8,281.5c-0.8,0-1.7,0-2.5,0.1c0.7-0.5,1.3-1.1,2-1.5c0.4-0.3,1-0.5,1.3,0.1
	C260.1,280.9,258.9,280.9,258.8,281.5z"/>
<path id="XMLID_863_" class="st180" d="M316.4,298.1c0.7-0.7,1.5-1.2,2.5-1.4c0.2,1.4-1,1.6-1.8,2.1
	C316.9,298.7,316.6,298.4,316.4,298.1z"/>
<path id="XMLID_862_" class="st181" d="M316.4,298.1c0.3,0.2,0.5,0.5,0.8,0.7c-0.7,0.5-1.5,1-2.2,1.6c-0.3-0.3-0.6-0.5-0.8-0.8
	C314.9,299.1,315.7,298.6,316.4,298.1z"/>
<path id="XMLID_861_" class="st73" d="M335.3,301.2c-0.3-0.3-0.6-0.6-0.9-0.9c0.7-0.8,1.5-1.2,2.5-1.4
	C337.3,300.4,335.9,300.5,335.3,301.2z"/>
<path id="XMLID_860_" class="st182" d="M219.8,259c-0.2-1.6,0.9-1.9,2.2-2.1C221.9,258.2,220.9,258.6,219.8,259z"/>
<path id="XMLID_859_" class="st183" d="M292.4,292.7c-0.2-0.2-0.5-0.4-0.7-0.7c0.8-0.7,1.6-1.5,2.9-1.2
	C294.2,291.9,293.3,292.4,292.4,292.7z"/>
<path id="XMLID_858_" class="st184" d="M201.7,263.6c-0.3-0.3-0.6-0.6-0.9-0.9c1.1-0.9,2-2.5,3.8-1.2
	C203.6,262.2,202.7,262.9,201.7,263.6z"/>
<path id="XMLID_857_" class="st185" d="M210.8,238.9c0.3,0.3,0.6,0.5,0.9,0.8c-0.9,0.6-1.8,1.2-3.1,2.1
	C208.8,240,209.8,239.4,210.8,238.9z"/>
<path id="XMLID_856_" class="st186" d="M194.9,236.5c0.3,0.3,0.6,0.6,0.9,0.9c-0.6,0.7-1.5,1.2-2.5,1.4
	C193,237.4,194.2,237.1,194.9,236.5z"/>
<path id="XMLID_855_" class="st187" d="M239.3,232.9c-0.7,0.7-1.4,1.3-2.6,1.2c0-1.3,1-1.5,1.8-2
	C238.8,232.4,239.2,232.4,239.3,232.9z"/>
<path id="XMLID_854_" class="st188" d="M239.3,232.9c-0.3-0.2-0.5-0.5-0.8-0.7c0.7-0.5,1.5-1,2.2-1.5c0.3,0.3,0.6,0.5,0.9,0.8
	C240.8,231.9,240.1,232.4,239.3,232.9z"/>
<path id="XMLID_853_" class="st189" d="M332.4,229.9c-13.4,7.8-26.7,15.5-40.1,23.3c-1.1,0.6-2.1,1.4-3.1,2
	c-0.7,0.1-1.4,0.1-2.5,0.2c0.7-1.5,1.9-1.9,2.9-2.5c9.8-6.6,19.8-13,29.5-19.9C323.2,230,327.5,229,332.4,229.9z"/>
<path id="XMLID_852_" class="st190" d="M195,281c-0.5,0.6-1,1.2-1.4,1.8c-1,0.6-2.1,1.1-3.1,1.7c-0.3-0.2-0.5-0.5-0.8-0.7
	C191.3,282.6,192.9,281.3,195,281z"/>
<path id="XMLID_851_" class="st159" d="M381.5,268.6c0.3-10.2,3.6-20.5,14-27.1c18.7-12,44.4-1,50,21.3c4.1,16.4-1.8,32.7-14.9,39.7
	c-20,10.6-41.9,3-48-22.3C381.7,276.8,381.5,273.5,381.5,268.6z"/>
</svg>
