<?xml version="1.0" encoding="utf-8"?>
<!-- Generator: Adobe Illustrator 19.0.0, SVG Export Plug-In . SVG Version: 6.00 Build 0)  -->
<svg version="1.1" id="Layer_1" xmlns="http://www.w3.org/2000/svg" xmlns:xlink="http://www.w3.org/1999/xlink" x="0px" y="0px"
	 viewBox="0 0 612 792" style="enable-background:new 0 0 612 792;" xml:space="preserve">
<style type="text/css">
	.st0{fill:#F2F1F1;}
	.st1{fill:#F2ECE9;}
	.st2{fill:#E0DEDF;}
	.st3{fill:#CFCDD0;}
	.st4{fill:#5E5C65;}
	.st5{fill:#272626;}
	.st6{fill:#C9D7E4;}
	.st7{fill:#C4D0DB;}
	.st8{fill:#F47A20;}
	.st9{fill:#EAF3FB;}
	.st10{fill:#D0E0EF;}
	.st11{fill:#C2D3E1;}
	.st12{fill:#D0E0EE;}
	.st13{fill:#C2D1DF;}
	.st14{fill:#CFDFED;}
	.st15{fill:#FEFEFE;}
	.st16{fill:#FDFCFB;}
	.st17{fill:#CEDDEB;}
	.st18{fill:#C2D1DE;}
	.st19{fill:#B5C3D0;}
	.st20{fill:#C1D1DE;}
	.st21{fill:#FDFDFD;}
	.st22{fill:#FCFAF9;}
	.st23{fill:#CCDBE8;}
	.st24{fill:#FBF9F8;}
	.st25{fill:#CEDCEA;}
	.st26{fill:#D0DFED;}
	.st27{fill:#D1E0EF;}
	.st28{fill:#FBF8F7;}
	.st29{fill:#FBF9F7;}
	.st30{fill:#F8F5F4;}
	.st31{fill:#CFDFEE;}
	.st32{fill:#BFCFDC;}
	.st33{fill:#D1E1EF;}
	.st34{fill:#FDFEFE;}
	.st35{fill:#FDFDFE;}
	.st36{fill:#FAFBFC;}
	.st37{fill:#F7F3F2;}
	.st38{fill:#FCFDFE;}
	.st39{fill:#F9F7F5;}
	.st40{fill:#F6F3F1;}
	.st41{fill:#FCFDFD;}
	.st42{fill:#CEDEEC;}
	.st43{fill:#CCD7E3;}
	.st44{fill:#BFCBD6;}
	.st45{fill:#F4F0EE;}
	.st46{fill:#D0DFEC;}
	.st47{fill:#D1E0EE;}
	.st48{fill:#D1E0ED;}
	.st49{fill:#CDDBE9;}
	.st50{fill:#F4EEEB;}
	.st51{fill:#D2E1EF;}
	.st52{fill:#F6F2EF;}
	.st53{fill:#CFDCE9;}
	.st54{fill:#BEC8D2;}
	.st55{fill:#F9FBFD;}
	.st56{fill:#FDFEFF;}
	.st57{fill:#F7F8F9;}
	.st58{fill:#BFC9D3;}
	.st59{fill:#F1EFEF;}
	.st60{fill:#BFCFDD;}
	.st61{fill:#CDD8E3;}
	.st62{fill:#CCD5E0;}
	.st63{fill:#FAFBFD;}
	.st64{fill:#CAD0D8;}
	.st65{fill:#E9E1DF;}
	.st66{fill:#F7F9FA;}
	.st67{fill:#F1EAE7;}
	.st68{fill:#F6F7F9;}
	.st69{fill:#F7FAFC;}
	.st70{fill:#F8FAFC;}
	.st71{fill:#F0EAE8;}
	.st72{fill:#D2E2F0;}
	.st73{fill:#EFE9E6;}
	.st74{fill:#ECE1DC;}
	.st75{fill:#EFF2F5;}
	.st76{fill:#EEF3F8;}
	.st77{fill:#F1F3F7;}
	.st78{fill:#EEF3F9;}
	.st79{fill:#E5DAD6;}
	.st80{fill:#F1F5F9;}
	.st81{fill:#EDE6E4;}
	.st82{fill:#F0F4F9;}
	.st83{fill:#B5B8C0;}
	.st84{fill:#ECE2DD;}
	.st85{fill:#ECF0F4;}
	.st86{fill:#EFF3F9;}
	.st87{fill:#F1F4F7;}
	.st88{fill:#D8C7C1;}
	.st89{fill:#E5D6CE;}
	.st90{fill:#997974;}
	.st91{fill:#C6CAD2;}
	.st92{fill:#F0F3F6;}
	.st93{fill:#ECF2F8;}
	.st94{fill:#CCD6E3;}
	.st95{fill:#D7D9DD;}
	.st96{fill:#B8ACAC;}
	.st97{fill:#A39A9B;}
	.st98{fill:#968B87;}
	.st99{fill:#FEFCFC;}
	.st100{fill:#CFDEEC;}
	.st101{fill:#FDFBFA;}
	.st102{fill:#FCFBF9;}
	.st103{fill:#C1CFDB;}
	.st104{fill:#C1CCD8;}
	.st105{fill:#EAE4E1;}
	.st106{fill:#F5F0ED;}
	.st107{fill:#F2EBE8;}
	.st108{fill:#CED6E1;}
	.st109{fill:#E9DCD6;}
	.st110{fill:#C8C7CD;}
	.st111{fill:#BCBCC2;}
	.st112{fill:#E9DCD4;}
	.st113{fill:#BEBABE;}
	.st114{fill:#F2ECE8;}
	.st115{fill:#BDBFC6;}
	.st116{fill:#BCBDC3;}
	.st117{fill:#EDE4DE;}
	.st118{fill:#E8DBD4;}
	.st119{fill:#E9DED7;}
	.st120{fill:#CDCED4;}
	.st121{fill:#ECE2DC;}
	.st122{fill:#C8C8CF;}
	.st123{fill:#EDE3DE;}
	.st124{fill:#BDC1C9;}
	.st125{fill:#E1CFC6;}
	.st126{fill:#B9AFB0;}
	.st127{fill:#BEC3CC;}
	.st128{fill:#E4D5CD;}
	.st129{fill:#C1BCC1;}
	.st130{fill:#BDBFC5;}
	.st131{fill:#E6D8D0;}
	.st132{fill:#C1C9D2;}
	.st133{fill:#F8F6F4;}
	.st134{fill:#BFCAD5;}
	.st135{fill:#EBE0DA;}
	.st136{fill:#DCC6BB;}
	.st137{fill:#C0B1B1;}
	.st138{fill:#B8ADAE;}
	.st139{fill:#F2E9E5;}
	.st140{fill:#DEC9BF;}
	.st141{fill:#E8DAD3;}
	.st142{fill:#E7DAD3;}
	.st143{fill:#F6F1EE;}
	.st144{fill:#DBC5BA;}
	.st145{fill:#F7F2F0;}
	.st146{fill:#FEFFFF;}
	.st147{fill:#D8E6F3;}
	.st148{fill:#DAE7F3;}
	.st149{fill:#DAE8F5;}
	.st150{fill:#D8E6F4;}
	.st151{fill:#C3D3E1;}
	.st152{fill:#F6F9FC;}
	.st153{fill:#ECEEF0;}
	.st154{fill:#BCCBD9;}
	.st155{fill:#F2F6FA;}
	.st156{fill:#F7F9FC;}
	.st157{fill:#F0F1F2;}
	.st158{fill:#C4D5E3;}
	.st159{fill:#EBF1F7;}
	.st160{fill:#EAF0F7;}
	.st161{fill:#EDF2F8;}
	.st162{fill:#E9F0F7;}
	.st163{fill:#E1EAF4;}
	.st164{fill:#DFEAF4;}
	.st165{fill:#E8EEF6;}
	.st166{fill:#ECF1F7;}
	.st167{fill:#E4ECF5;}
	.st168{fill:#E8EFF6;}
	.st169{fill:#E6EDF5;}
	.st170{fill:#E7EFF7;}
	.st171{fill:#CEDEED;}
	.st172{fill:#FEFEFF;}
	.st173{fill:#FBFBFB;}
	.st174{fill:#F8F8F9;}
	.st175{fill:#F8F9F9;}
	.st176{fill:#F4F5F5;}
	.st177{fill:#EDEDED;}
	.st178{fill:#F2F3F5;}
	.st179{fill:#EBEFF3;}
	.st180{fill:#E8EDF2;}
	.st181{fill:#E9EEF2;}
	.st182{fill:#E7EDF2;}
	.st183{fill:#D9DDE1;}
	.st184{fill:#E7ECF1;}
	.st185{fill:#E0E7EE;}
	.st186{fill:#E3E9EF;}
	.st187{fill:#DFE6EE;}
	.st188{fill:#E5EBF0;}
	.st189{fill:#EAEEF3;}
	.st190{fill:#E4EAF0;}
	.st191{fill:#E2E9EF;}
	.st192{fill:#DFE7EE;}
	.st193{fill:#D9E2EB;}
	.st194{fill:#D7E1EA;}
	.st195{fill:#DDE5ED;}
	.st196{fill:#F5F5F6;}
	.st197{fill:#9B7D78;}
	.st198{fill:#9B7C78;}
	.st199{fill:#9A7C78;}
	.st200{fill:#96726C;}
	.st201{fill:#A18785;}
	.st202{fill:#C8D0DB;}
	.st203{fill:#96736D;}
	.st204{fill:#987771;}
	.st205{fill:#9E827F;}
	.st206{fill:#9C7E7B;}
	.st207{fill:#997873;}
	.st208{fill:#9F8482;}
	.st209{fill:#9E827E;}
	.st210{fill:#9C7E7A;}
	.st211{fill:#F9FAFC;}
	.st212{fill:#EFF4F9;}
	.st213{fill:#E9EFF7;}
	.st214{fill:#E0EAF4;}
	.st215{fill:#9D817D;}
	.st216{fill:#9F827E;}
	.st217{fill:#E3ECF5;}
	.st218{fill:#E6EEF6;}
	.st219{fill:#EBF0F7;}
	.st220{fill:#E2D6D1;}
	.st221{fill:#CDB7AF;}
	.st222{fill:#D5C1BA;}
	.st223{fill:#E0D2CC;}
	.st224{fill:#E7DEDA;}
	.st225{fill:#D4C1BA;}
	.st226{fill:#EDE5E2;}
	.st227{fill:#E8E2DF;}
	.st228{fill:#EBE3E0;}
</style>
<path id="XMLID_208_" class="st0" d="M277.7,352c-1,1.4-2.6,1.8-4,2.6c-9.4,5.3-18.8,10.6-28.3,15.9c-0.2-0.2-0.4-0.3-0.6-0.5
	c8.9-6,17.7-12,26.6-18c0.7-0.5,1.5-1.1,2.2-1.6C275.1,350.6,276.5,351.1,277.7,352z"/>
<path id="XMLID_201_" class="st0" d="M247.8,346.8c-8.5,4.8-17.1,9.6-25.6,14.4c-0.1-0.2-0.3-0.4-0.4-0.7c4.3-3.9,9.1-7.3,13.2-11.4
	c0,0,0,0,0,0c0.2-0.2,0.4-0.3,0.5-0.5C239.5,347.5,243.5,346.5,247.8,346.8z"/>
<path id="XMLID_159_" class="st1" d="M257.8,353.5c2.7-2,5.5-3.9,8.4-5.5c0.5,0.1,0.9,0.1,1.4,0.2c0.2,0.6-0.2,0.8-0.7,1.1
	c-2.9,1.6-5.7,3.1-8.5,4.7C258.1,353.9,258,353.7,257.8,353.5z"/>
<path id="XMLID_158_" class="st2" d="M259.2,347.2c-3.4,1.8-6.8,3.6-10.2,5.5c-0.1-0.1-0.2-0.3-0.3-0.4c2.6-1.8,5.1-3.6,7.7-5.5
	C257.3,346.8,258.3,346.3,259.2,347.2z"/>
<path id="XMLID_131_" class="st3" d="M214.6,360.8c-1,1.2-2,2.3-3.5,2.9C211.8,362.1,212.8,360.9,214.6,360.8z"/>
<path id="XMLID_118_" class="st4" d="M235.5,348.7c-0.2,0.2-0.4,0.3-0.5,0.5C235.1,349,235.3,348.8,235.5,348.7z"/>
<path id="XMLID_117_" class="st3" d="M211.2,363.6c0,0.5-0.4,0.5-0.8,0.5C210.6,363.9,210.7,363.5,211.2,363.6z"/>
<path id="XMLID_54_" class="st2" d="M257.8,353.5c0.2,0.2,0.4,0.3,0.6,0.5c-1.1,0.9-2.2,1.5-4.1,2.1
	C255.5,354.7,256.6,354.1,257.8,353.5z"/>
<path id="XMLID_49_" class="st2" d="M254.2,356.3c-0.3,0-0.5,0-0.6,0c-0.2-0.1-0.2-0.2,0-0.3c0.1,0,0.3-0.1,0.4-0.1
	C254,356,254.1,356.1,254.2,356.3z"/>
<path id="XMLID_47_" class="st2" d="M247.9,352.5c0.1,0.1,0.2,0.2,0.4,0.2c-0.1,0.1-0.2,0.2-0.4,0.2c-0.2,0.1-0.4,0-0.4-0.3
	C247.6,352.6,247.8,352.6,247.9,352.5z"/>
<g id="XMLID_34_">
	<path id="XMLID_1667_" class="st5" d="M455.2,269c2.4,9.1,1.5,18.4,1.5,27.6c0,2.5,0.3,4.1,3,5.1c4.3,1.7,6.7,5.1,7.8,9.7
		c2.5,10.3,2.7,20.7,2.4,31.3c-0.3,9.9-0.9,19.7-0.7,29.6c0.1,3.7,1,5.2,5.1,4.6c4.6-0.6,9.2-0.5,13.8,0.6c9,2.1,13.7,7.7,14.6,17
		c0.5,5.5-0.1,11-0.1,16.5c0,21,0.1,42,0.1,63c0,12.9-1.5,25.7,0,38.6c1.3,10.9,1.7,21.9,1.5,32.9c-0.2,9-1.9,17.7-4.5,26.4
		c-1.6,5.6-5.5,8.6-9.3,11.9c-3.9,3.4-8.8,4.9-14.2,4.9c-47.7,0.4-95.5,0.8-143.2,1.4c-46.5,0.6-93,0.2-139.4-0.5
		c-14.9-0.2-29.7-0.3-44.6-1.3c-6.2-0.4-12-2.2-16.5-6.2c-4.7-4.1-7-10-7.9-16.4c-1.1-8.2-0.6-16.5-0.6-24.7
		c0-8.7,0.1-17.5-0.5-26.2c-0.4-5.4,0-10.7,0.9-16c0.5-2.7-0.4-5.2-0.5-7.8c-1.5-22.6-0.3-45.2-0.3-67.8c0-8.4-0.8-16.7-0.6-25.1
		c0.5-15,7.7-21.7,22.7-21.6c2.6,0,5.9,1.6,7.5-0.2c1.7-1.9,0.6-5.3,0.7-8c0.3-12.1-0.5-24.2,0.7-36.3c0.7-7,2.2-13.7,4.5-20.4
		c0-2,0.5-4,0.7-6c1-1.1,2.2-1.5,3.6-1.5c4.2-0.3,5.6-1.9,5.6-5.9c0.2-9.2-1-18.5,1.3-27.6c1.3-5.2,4-9.4,8.7-12
		c1.6-0.9,1.9-1.9,1.9-3.5c0-7.4-0.6-14.7-0.1-22.1c0.9-13.5,7.5-20.7,20.9-21.8c20.8-1.8,41.7-1.7,62.6-1.1c31.5,0.9,63,0.9,94.4,0
		c22-0.6,44-1,65.9,1.1c12.5,1.2,19.2,8.2,20.3,20.8c0.7,7.6-0.1,15.2-0.1,22.8c0,1.8,0.3,3,2.1,3.8c2.7,1.2,4.4,3.6,6.2,5.8
		C454.4,265.6,455,267.2,455.2,269z"/>
	<path id="XMLID_1666_" class="st6" d="M159.6,305.6c0.3,2.1,1.3,4.2-0.7,6C157.4,309.4,158.7,307.5,159.6,305.6z"/>
	<path id="XMLID_1665_" class="st7" d="M455.2,269c-0.7-1.6-1.4-3.1-2.2-4.7C455.5,265.1,456.4,266.6,455.2,269z"/>
	<path id="XMLID_1664_" class="st8" d="M497.1,541.7c0.5,3.1-0.3,6.1-0.6,9.1c-3.6,4.3-7.8,8.1-12.2,11.6c-0.1,0.1-0.3,0.3-0.5,0.4
		c0.4,0,0.5-0.4,0.8-0.5c2.6-1.5,5.1-3,7.7-4.4c1.1-0.6,2-1.5,3.4-1c-1.4,7.2-3.5,14-9,19.2c-2.5,2.4-5.3,4.5-9,4.8
		c-0.3-3.6,3.2-5.1,4.3-7.7c-5.8,3.2-11.6,7-17.9,10c-0.6,0.3-1.3,0.2-1.9,0.5c-3.8,0-7.6,0-11.4,0c0.1-2.4,2.1-3.6,3.6-4.9
		c4.1-3.7,8.1-7.6,12.5-11.4c-7.8,4.2-15.2,8.8-22.8,13.1c-1.9,1-3.7,1.9-5.8,2.5c-3.9,0.4-7.7-0.7-11.6-0.7
		c-0.1-1.2,0.8-1.8,1.5-2.4c6.3-5,12.7-9.7,18.6-14.2c-7.6,4.5-15.9,9.1-24,14c-1.5,0.9-3.2,1.3-4.9,1.9c-16.4,0-32.7,0-49.1,0
		c-24.5,0-48.9,0.3-73.4,0.1c-19.7-0.2-39.4-0.2-59.1-0.2c-20.1,0-40.2-0.1-60.3,0.2c-0.4,0-0.9-0.3-1.3-0.5c0.2-0.5,0.8-0.5,1.2-1
		c-0.6,0.5-1.5,0.3-2,0.8c-8.4,1.4-16.7,1-24.9-0.9c-1.2-0.3-2.3-0.8-3.5-1.2c3.7-3.6,8.4-5.8,12.6-8.6c0.3,0,0.4-0.1,0.2-0.4
		c-0.1,0.2-0.3,0.3-0.5,0.4c-4.6,2.7-8.7,6.2-13.9,7.6c-2.7-1.1-4.9-2.8-6.7-5c4-3.4,8.6-5.8,13-8.6c-3,1.6-5.8,3.6-8.7,5.3
		c-1.6,0.9-3,2.3-5.1,1.7c-1.9-1.6-2.5-3.9-3.5-6.1c2.5-2.8,5.9-4.2,8.9-6.3c0.8-0.4,1.6-0.9,1.9-1.7c0.2,0,0.3-0.2,0.2-0.3
		c0,0.2-0.2,0.4-0.3,0.5c-0.5,0.9-1.4,1.2-2.2,1.6c-3,1.5-5.4,4.3-9,4.8c-1.2-2.4-1.3-5-1.9-7.6c3.8-4.1,8.8-6.5,13.2-9.7
		c6-4.3,12-8.5,18.3-12.3c0.8-0.4,1.4-0.9,2.1-1.4c-0.8,0.5-1.6,1.1-2.5,1.5c-9.1,5.9-18.6,11-28,16.5c-1,0.6-2,1.7-3.4,1
		c-1.3-4.1-0.6-8.3-1.3-12.4c-0.6-3.5-0.6-7.1-0.8-10.7c0.9-1.4,2.6-1.6,3.6-2.9c-1.1,0.8-2,1.9-3.6,1.3c0-2.7,0-5.4,0-8.1
		c0.5-0.7,1.2-1.3,1.8-1.8c-0.5,0-1.1,0.7-1.8,0.1c-0.1-7.6,1-14.9,4.5-21.7c1.7-3.3,4-6,7.5-7.5c0.6,0.6,0.6,1.3,0.5,2
		c-0.5,1.4-1.7,2.3-2.3,3.6c5.2-2.4,9.7-6.2,15.3-7.8c4,0.3,7.9,0.5,11.9,0.8c0.1,1.8-2,1.7-2.6,2.9c-0.2,0.1-0.4,0.2-0.4,0.4
		c0.3-0.2,0.6-0.4,0.8-0.7c1.3-1.2,2.9-2,4.5-2.6c4.7-0.2,9.5-0.4,14.2-0.6c-0.4,2.7-3.2,2.8-4.3,4.2c2.6-1.4,5.2-3.6,8.6-4.3
		c4.3-0.1,8.6-0.1,12.9-0.2c0.4,0.3,0.5,0.8,0.4,1.3c-0.1,0.3-0.5,0.4-0.7,0.7c0.2,0.1,0.4,0,0.6-0.2c0.6-0.4,0.8-1.3,1.7-1.1
		c4.1-2.5,8.5-0.5,12.7-0.6c5.3-0.1,10.5,1.1,15.8,0c3.5-0.7,6.5,1.3,9.4,3c0.1,1.4-1,1.9-1.9,2.6c-9.7,6.7-19.3,13.7-29.3,20.1
		c-1.3,0.8-2.5,1.7-3.9,2.5c-0.3,0.2-0.6,0.4-0.9,0.4c0.5,0,0.9-0.4,1.3-0.6c1.3-0.8,2.6-1.7,3.9-2.5c10.6-6.4,21.5-12.5,32.2-18.7
		c1-0.6,2-1,3.2-1c2.7,1.5,4.7,3.4,2.7,6.8c-3.9,3.5-8.6,5.8-13,8.7c-0.4,0.3-1,0.4-1.4,1c0.5-0.5,1.2-0.7,1.8-1.1
		c2.5-1.6,4.9-3.2,7.4-4.6c1.1-0.6,2.2-1.6,3.7-0.9c-1,2.6-0.9,5,0.7,7.3c-2.6,3.3-6.5,4.9-9.7,7.2c-2,1.4-4.2,2.7-6.3,3.9
		c-0.8,0.4-1.4,1-2.3,1.6c1-0.6,1.8-1.3,2.7-1.7c4.5-2.8,9-5.7,13.7-8.2c1.1-0.6,2-1.5,3.4-1.1c1.8,1.4,3.6,2.9,5.4,4.3
		c-1.3,3.1-4.6,4.1-7,5.9c-2.2,1.6-4.6,2.9-6.9,4.3c-0.7,0.5-1.5,0.9-2.1,1.4c0.9-0.4,1.7-1,2.5-1.5c5.5-3,10.5-6.9,16.5-9
		c2.8,1,5.5,1.9,8.3,2.9c-2.4,3.9-6.7,5.2-10.1,7.8c-0.7,0.3-1.2,1-1.2,1c0.1,0,0.7-0.8,1.6-1.1c4.2-2.5,8.1-5.5,12.8-7
		c9.4,1,18.8,1.7,28.3,0.8c0.3,1.5-1,1.9-1.9,2.5c-5.7,4-11.3,8.2-17.1,12.2c-3.2,2.2-6.3,4.5-9.7,6.6c-0.8,0.4-1.5,1-2.3,1.5
		c-0.2,0-0.3,0.1-0.2,0.3c0.1-0.2,0.2-0.3,0.4-0.4c0.7-0.6,1.5-1,2.4-1.5c2.9-2.1,6.2-3.8,9.3-5.6c7.5-4.2,14.9-8.7,22.4-12.9
		c2.3-1.3,4.5-2.7,7.1-3.3c4.9-0.1,9.6-1.4,14.5-0.8c-0.1,2-1.7,2.6-3,3.5c-6.5,4.7-13,9.2-19.4,13.9c-2.8,1.6-5.2,3.8-8.1,5.3
		c-0.1,0.1-0.3,0.2-0.5,0.3c0.4,0.1,0.6-0.3,1-0.4c2.9-1.9,5.9-3.5,8.8-5.4c10.1-5.7,19.9-11.6,30.1-17.1c0.5-0.1-0.1-0.7,0.1-0.3
		c0.1,0.1,0,0.2-0.2,0.3c-2.5,0.8-5,1.4-7.4-0.4c6.8-1.5,13.5,0.2,20.2,0.9c0.9,1,1.9,0.4,2.8,0c4.3,0,8.6,0,12.9,0
		c-0.2,2.4-2.4,3.1-3.9,4.2c-6.4,4.4-12.6,8.9-19,13.3c-1.3,0.8-2.5,1.7-3.9,2.5c-0.3,0.2-0.5,0.4-0.9,0.4c0.5,0,0.8-0.4,1.3-0.5
		c1.5-0.9,2.9-1.8,4.4-2.8c26.6-15.4,53.2-30.9,79.9-46.1c3.4-1.7,6.5-4.2,10.3-5.3c4,0.3,8,0.5,12,0.8c-0.1,1.7-1.5,2.1-2.6,2.9
		c-4,2.8-8.3,5.1-12.2,8c-8.9,5.8-17.7,11.6-26.8,17.1c-0.8,0.5-1.7,0.8-2.5,1.5c1-0.6,1.9-1,2.8-1.5c7.4-4.9,15.4-8.9,22.9-13.6
		c7.5-4,14.6-8.6,22.1-12.5c1.6-0.8-0.5-1.3,0.3-1.7c5.6-0.1,11.3-0.1,16.9-0.2c0.5,1.4-0.8,1.6-1.5,2.1c-2.8,1.8-5.5,3.6-8.4,5.1
		c-0.7,0.4-1.4,0.8-1.8,1.2c0.6-0.3,1.3-1,2.2-1.3c4.7-2.6,8.9-6,14.1-7.6c2.8,2.4,5.5-1.2,8.3-0.1c1.2,0.7,2.7-0.2,3.9,0.7
		c-0.4,2-2,2.6-3.4,3.6c-7.6,4.2-14.5,9.5-21.8,14.2c-3,1.9-6,4-9,6c-4.9,3.3-10,6.4-15,9.5c-0.7,0.5-1.4,0.9-2.4,1.6
		c1.1-0.7,2-1.2,2.8-1.7c5.1-3.1,10.3-6,15.4-9.1c9-5.3,18.5-10,27-16.3c3.8-0.9,6.8-3.5,10.2-5.1c1.4-0.7,2.6-2,4.4-1.3
		c2.4,0.7,5.1,0.9,6.2,3.7c-0.1,0.2-0.3,0.4-0.4,0.5c0.4,0,0.7-0.2,0.9-0.6c2.6,0.8,3.6,2.9,3.9,5.4c-0.2,0.9-0.8,1.6-1.5,2.2
		c-9.1,6.3-18.4,12.3-27.5,18.5c-3.2,1.9-6.2,4.2-9.6,6c-0.8,0.7-1.6,1.2-2.5,1.7c-0.8,0.3-1.3,1.1-2.1,1.4c0.9-0.3,1.5-1.1,2.4-1.4
		c0.9-0.4,1.7-1.1,2.5-1.7c2.7-1.5,5.3-3,7.9-4.7c9-5,17.9-10.3,26.8-15.5c1.6-0.9,3-1.8,3.6-3.6c0.2-0.3,0.4-0.6,0.7-0.8
		c0.4,6.1,0.9,12.2,1.3,18.3c-0.3,0.7-0.7,1.3-1.4,1.7c-7.4,4.9-14.4,10.5-22.1,15.1c-0.3,0.2-0.5,0.5-0.9,0.7
		c0.6,0,0.8-0.6,1.3-0.8c5.9-3.4,11.7-6.9,17.7-10.3c1.7-0.9,3.2-2.4,5.4-1.9c0.9,5.2,0.9,10.5,0.8,15.7
		c-5.9,5.9-12.9,10.3-19.5,15.3c-0.3,0-0.3,0.2-0.2,0.3c0.1-0.2,0.3-0.3,0.5-0.5c5-3.5,10.4-6.3,15.6-9.4
		C494.7,541.7,495.8,541,497.1,541.7z"/>
	<path id="XMLID_1663_" class="st9" d="M254.2,379.9c-1.7-1.2-3.2-2.7-4.5-4.4c-0.3-2.4,1.8-2.8,3.1-3.7
		c9.6-6.6,19.1-13.5,26.9-18.3c-8.4,5.4-19.4,11.5-30.3,17.8c-1.1,0.6-2.3,1.1-3.6,0.4c-3.4-3-6.8-6.1-10.3-9.1
		c-0.3-2.1,1.5-2.7,2.7-3.6c6.6-4.8,13.2-9.7,16.9-12c-5.2,3.3-13.8,8.4-22.7,12.9c-3.9-2.8-7.6-5.9-11.2-9.2c-1-2,0.6-2.7,1.8-3.5
		c3-2.2,6-4.3,9.2-6.2c-3.5,2-6.8,4.4-10.4,6.3c-1.1,0.6-2.1,1.4-3.5,1c-1.8-1.5-3.6-3-5.4-4.4c-0.4-0.8,0-1.5,0.6-2
		c5.4-4.5,10.6-9.3,15.3-12.8c-4.5,2.8-10.1,6-15.7,9.2c-1.7,1-3.3,2.4-5.5,1.1c-1.6-1-3.2-2.1-4.4-3.7c-0.3-2.6,2-3.5,3.4-4.9
		c1.3-1.3,2.8-2.4,4.9-3.8c-3.3,1.9-6.1,3.6-8.9,5.1c-1,0.5-1.9,1.3-3.1,0.5c-1.9-1.3-3.8-2.6-5.3-4.4c-0.4-2.5,2-3.2,3-4.5
		c-1.8,0.8-3.4,2.7-5.9,2.2c-6.9-5.6-13.8-11.2-21.3-17.4c6.5-2.3,12.4-1.2,18.2-1.4c0.7,1-0.3,1.8-0.3,2.8c1.6-1.5,3.9-1.7,5.6-2.9
		l0.2-0.1l0.2,0.1c4.1-0.6,8.2-0.1,12.3-0.3c1.9,1.9,3.7-0.1,5.6,0c3.8,0,7.5,0,11.3,0c1.8,0,1.3,1.1,0.8,2
		c-1.1,1.8-2.8,3.1-4.1,4.3c3.8-1.9,7.2-5,11.7-6.2c3.7,0,7.5,0,11.2,0c2.3,0,2.3,1.1,1.2,2.5c-2.2,2.6-5,4.4-7.6,6.5
		c8.4-6.9,17.8-10.6,28.8-8.9c1.4,1,0.2,1.8-0.4,2.3c-5.4,4.8-10.8,9.5-15.9,13.4c4.8-3,10.5-5.8,15.5-9.8c3.6-2.9,8.3-3.8,12.5-5.6
		c4.2,0,8.5,0.1,12.7,0.1c-0.3,2.7-2.8,3.2-4.4,4.5c-1.4,1.2-3.1,2-4.6,3.2c3.7-2.7,7.9-4.5,11.3-7.7c2.8,0,5.5,0,8.3,0
		c1.4,0.5,2.9,0.1,4.4,0.3c6.1,0,12.2,0,18.3,0c0.6,0.1,1.4-0.2,1.3,0.8c0,0.7-0.6,1.1-1.1,1.4c-8.4,4.8-16.3,10.3-23.8,15.2
		c8.1-5.2,17.1-10.2,26-15.4c1.6-0.9,3.2-1.8,5.2-1.9c8.7,0,17.4,0,26.2,0c0.8,0,1.7,0,1.1,1.2c-0.5,1-1.6,1.6-2.5,2.2
		c-7.8,5.4-15.4,11-21.8,14.8c6.8-4.6,16.1-9.1,24.7-14.8c0.1-0.1,0.2-0.1,0.3-0.2c2.9-0.3,5-2.8,7.9-3.2c3.5,0,7,0,10.5,0
		c3.1,0,2.4,1.2,1,2.7c-7.3,4.5-14.3,9.5-20.1,13.1c5.3-3.8,12.8-7.3,19.6-12c2.9-1.2,5.4-3.2,8.4-4.1c4.5-0.1,9-0.1,13.5-0.2
		c0.4,1.7-1.3,1.9-2.2,2.5c-3.7,2.5-7.5,4.8-11.2,7.2c-1.2,0.9-2.7,1.4-3.9,2.4c-0.3,0.2-0.6,0.4-0.9,0.5c0.4-0.1,0.7-0.4,1-0.7
		c1.3-0.9,2.8-1.4,4-2.4c3.4-2,6.8-4,10-6.3c3.7-2.6,7.7-3.8,12.1-3.8c3-0.1,6-0.2,9-0.2c0.4,2.4-1.8,2.7-3,3.7
		c-3.9,2.8-8.3,5-12,8.2c-0.5,0.5-1.1,0.8-1.8,1.1c-2.4,1-4.6,2.1-6.1,4.3c-1.9,1.6-4.3,2.6-6.3,4c-0.4,0.4-1,0.5-1.4,1
		c0.6-0.5,1.2-0.8,1.8-1.2c10.3-6.6,20.9-12.5,31.4-18.6c1.6-1,3.5-1.2,5-2.3c4.9-0.7,9.7-0.2,14.5,0.8c-6.9,5-14.5,9.1-21.4,14.1
		c-1.7,1.2-3.8,2-4.9,3.9c-2.3,2.5-5.6,3.7-8.5,5.4c-10.4,6.4-20.2,13.7-29.2,18.8c20.8-12.7,43.9-25.5,66.6-38.8
		c2.1-1.2,4.3-2.7,7-1.8c1.5,0,2.8,0.4,4.4,1.4c-7.3,5.9-14.5,11.7-21.6,17.5c-6.6,4.7-13.2,9.2-20.3,13.1c2.3-1.5,4.7-2.7,7.1-4.1
		c0.8-0.5,1.7-0.8,1.7,0.7c-17.5,14.5-35,28.9-52.3,43.5c-12.6,10.6-25,21.5-37.5,32.2c-5.4,4.6-11.5,7.6-18.9,6.9
		c-4.1-0.4-8-1.4-11.5-3.8c-2.5-1.8-5.8-2.1-8.1-4.4c-1-2.6,1.3-3.2,2.7-4.1c10.7-7.1,21.4-14.1,32.2-21c3.7-2.3,7.4-4.5,11.1-6.8
		c1.8-1.2,3.7-2.3,5.6-3.4c-2,1.1-4,2.3-5.9,3.5c-15.3,9.7-31.2,18.3-46.7,27.6c-1.5,0.9-2.9,1.3-4.6,0.6c-1.6-0.7-3-1.8-4.2-3.1
		c-0.9-2.6,1.5-3.1,2.9-4c16.4-11.1,32.8-22.3,49.3-33.2c2.7-1.8,5.4-3.6,8.1-5.3c1.9-1,3.7-2.3,5.6-3.4c-2,1.1-3.9,2.5-5.9,3.5
		c-18.2,11.4-37,21.6-55.5,32.4c-2.4,1.4-4.7,2.8-7.1,4.2c-1.3,0.8-2.6,1.6-4.1,0.4c-1.2-1.1-2.5-2.1-3.7-3.2c-1-2.4,1.1-3,2.4-3.9
		c11.8-7.6,23.1-15.7,35.3-22.8c0.3-0.2,0.7-0.3,0.8-0.7c0.4-0.3-0.4-0.5,0-0.2c0.1,0.1,0.1,0.2-0.1,0.3
		c-9.6,6.1-19.3,11.9-29.3,17.4c-2.7,1.5-5.3,3.2-8.1,4.7c-1.5,0.8-2.9,2.1-4.8,1.5c-1.5-1.3-2.9-2.6-4.4-3.9
		c-0.3-2.1,1.5-2.7,2.8-3.5c5.1-3.3,10.3-6.4,15.5-9.5c0.7-0.3,1.1-0.9,1.9-1c-0.9,0.1-1.5,0.8-2.2,1.2c-5.5,3.3-10.9,6.8-16.5,9.9
		c-1.1,0.6-2.1,1.9-3.7,0.8c-1.5-1-2.8-2.2-3.8-3.7c-1.1-2.2,0.9-2.9,2.1-3.7c6.5-4.4,13-8.8,19.7-12.8c1.2-0.7,2.5-1.4,3.5-2.3
		c-8.4,5.4-17.2,10.4-25.9,15.4C255.9,380,255.1,380.3,254.2,379.9z"/>
	<path id="XMLID_1662_" class="st10" d="M450.6,278.6c1.3,6.1,0.8,12.1,0.3,18.2c-0.1,1.5-0.5,2.1-2.2,2.2
		c-12.6,0.3-25.2,0.8-37.8,0.5c0-2.5,2.1-3.5,3.6-4.8c1.8-1.5,3.6-3,5.6-4.3c0.2-0.1,0.4-0.1,0.6-0.2c-0.2,0-0.4,0-0.6,0.1
		c-5.3,3.5-10.4,7.3-16.6,9.1c-5,0-10,0-15,0c0.1-2.1,2.2-2,3.2-3.1c0.2-0.1,0.4-0.1,0.6-0.1c-0.2-0.1-0.4-0.1-0.6,0.1
		c-1.9,1.4-3.9,2.6-6.2,3.2c-5,0-10,0-15,0c-0.2-0.3-0.1-0.6,0.3-0.8c-0.2-0.4-0.4,0-0.6,0.1c-0.6,0.4-1.4,0.4-2,0.7c-5,0-10,0-15,0
		c-0.1-1.4,1.5-1.2,1.9-2.1c0.3-0.3,0.5,0.3,0.2-0.1c-0.2-0.3-0.3,0.2-0.5,0.3c-0.9,0.8-2.1,1.2-3.1,1.9c-16,0.1-32,0.2-48-0.5
		c-0.2-2,1.7-2.6,2.8-3.5c2.5-2.2,5.3-4,8.1-5.9c0.6-0.3,1.1-0.8,2.1-1.1c-1.1,0.2-1.7,0.9-2.4,1.2c-5.3,3.5-10.5,7.1-16.5,9.3
		c-5.5,0.4-11,0.2-16.5,0c1.6-3.8,5.5-4.7,8.3-6.9c0.3,0,0.4-0.2,0.2-0.4c-0.1,0.2-0.3,0.3-0.5,0.5c-4.1,2.4-7.6,5.8-12.5,6.8
		c-5,0-10,0-15,0c-0.4-1.3,1-1.7,1.5-2.6c-1.2,1.5-2.8,2.1-4.5,2.6c-15.3,0-30.5,0-45.8,0c0.4-2.6,3.1-2.8,4.6-4.2
		c1-0.9,2.3-1.4,3.2-2.3c0.2-0.1,0.4-0.3,0.4-0.4c-0.3,0.2-0.5,0.5-0.8,0.8c-3.6,2.2-6.8,5.2-11.1,6.2c-6.1,0.2-12.1,0.7-18.2,0.2
		c4.2-4.2,9.2-7.3,13.3-10.6c-5.1,3.8-11.4,6.6-16.6,9.9c0.6-0.3,1.9-0.6,3,0.7c-4.7,0.8-9.4,0.5-14.1,0.6c-3.3,0.1-1.5-2.3-1.8-3.7
		c3.5-3.9,8.2-6.5,12.3-9.7c0,0,0.2-0.1,0-0.1c-0.2,0-0.3,0.3-0.5,0.5c-2.6,1.8-5.2,3.6-7.9,5.2c-1.2,0.7-2.4,1.8-4,1.1
		c-1.1-7.1-0.9-14.1,1.6-20.9c1.6-4.4,4.4-7.7,9-9.2c8.4-0.8,16.9-0.3,25.4-0.3c4.8,0,9.7-0.2,14.5-0.1c2.2,0,2.8,0.7,1.7,2.6
		c-4.5,3.2-8.9,6.5-13.4,9.7c0.1,0-0.2,0.1,0,0.1c0.2,0,0.4-0.3,0.5-0.5c4.1-2.9,8.4-5.4,12.7-8c4.2-3.7,9.3-4.2,14.6-3.9
		c1.8,0.1,3.7,0,5.5,0c2,1.6,0,2.5-0.8,3.2c-4.9,3.9-9.6,7.9-14.6,11.6c-1.1,0.8-2.1,1.7-2.6,2c6.2-4.5,14-7.9,21-12.5
		c2.8-1.6,5.3-3.6,8.5-4.3c4.1,0,8.2,0,12.3,0c2.4,0.9,0.5,1.9-0.2,2.4c-3.5,2.9-7.1,5.7-11.1,8c-0.8,0.5-1.6,1.1-2.2,1.7
		c0.8-0.6,1.6-1.2,2.5-1.8c4.6-3,9.6-5.4,14.1-8.5c1.5-1,3.2-1.7,5-1.8c7.9,0,15.8,0,23.7,0c2.4,0,1.8,1.3,0.7,2.2
		c-1.7,1.3-3.4,2.5-5.3,3.5c3.7-1.7,6.5-5.2,10.8-5.6c3.8,0,7.6,0,11.4,0c2.4,0.6,0.9,1.6,0.2,2.3c-1.2,1.1-3,1.6-3.7,3.3
		c-3.2,0.6-5.4,3-7.4,4.1c1.9-1.4,4.6-3.2,7.6-4.5c2.6-2.7,5.7-4.6,9.4-5.3c11,0,21.9,0,32.8,0c1.2,0,1.6,0.5,0.9,1.5
		c-0.6,0.8-1.4,1.4-2.1,2c-6.6,4.9-12.9,10.1-19.7,14.7c0,0-0.2,0.1-0.1,0.1c0.2,0,0.4-0.3,0.6-0.5c6.7-4.9,14.2-8.5,21.1-13
		c3.1-1.8,6-4.1,9.6-4.8c3.8,0,7.7,0,11.5,0c2.9,0.7,0.5,1.7,0.2,2.5c1.5-1.1,3-2.4,5.1-2.5c3.9,0,7.7,0,11.6,0
		c1,0.1,1.3,0.7,0.6,1.4c-1.1,1.2-2.5,1.9-3.8,2.6c-0.3,0.4-0.7,0.6-1,1c0.5-0.4,1-0.9,1.6-1.3c2.5-1.1,4.4-3.5,7.4-3.8
		c3.9,0,7.8,0,11.7,0c1.6,0.2,1.1,1,0.4,1.7c-1.4,1.4-3.3,2.2-4.9,3.5c-0.9,0.5-1.7,1.1-2.3,1.5c0.7-0.2,1.4-1,2.2-1.4
		c1.9-1.7,4.6-2.3,6-4.6c-0.1-0.3,0-0.6,0.2-0.9c7.1-1,14.3-1.7,21.4-0.1c2.6,0.6,5.3,1.4,7.2,3.5c0.4,2.1-1.3,2.6-2.6,3.5
		c-1.5,1-3,2.1-4.5,3.1c-0.6,0.4-1.3,0.7-1.9,1.3c0.7-0.5,1.4-0.9,2.1-1.3c2.7-1.8,5.3-3.9,8.4-5.1c2.5,2,3.6,4.8,4.2,7.7
		c-4.2,4.2-8.8,7.9-13.5,11.5c-0.2,0.1-0.4,0.1-0.7,0.2c0.2,0.1,0.5,0,0.7-0.1c3.5-2.7,7.4-4.6,11.1-6.9
		C448.5,278.9,449.4,278.1,450.6,278.6z"/>
	<path id="XMLID_1661_" class="st11" d="M367.6,456.2c2,1.2,3.7,2.7,5.3,4.4c0.5,2-1.2,2.5-2.3,3.3c-5.6,3.9-11.3,7.5-17.1,11.1
		c-0.5,0.4-1,0.6-1.5,1c0.5-0.4,1.1-0.7,1.6-1.1c6.2-3.7,12.2-7.7,18.5-11.2c1-0.5,1.8-1.3,3-1.4c2.2,1.6,4.4,3.1,6.2,5.2
		c-6.2,5.2-13.1,9.5-19.8,13.9c-1.4,0.9-2.8,1.9-3.5,2.3c6.3-4.3,13.7-8.4,21-12.6c1.4-0.8,2.7-1.8,4.4-2.1c3.7,2.9,7.3,5.9,11,8.8
		c-0.8,1.3-1.9,0.8-2.8,0.8c-8.6,0.5-13.7,4.5-15.9,12.8c-0.3,1.1-0.8,2-1.2,3.1c-2.4,3.6-6.4,5.3-9.2,7.6c2.5-1.1,4.4-4.3,8.2-3.9
		c-2.8,8.7-7.7,12.9-16.7,12.7c-30.5-0.6-61,0.8-91.4,0c-5.1-0.1-9.5-3.1-12.9-6.8c-1.7-1.8-2.1-4.5-0.7-7.3c2.3-5,1.6-7.2-2.3-10.9
		c-4.9-4.6-9.8-6.7-18.3-7.3c4.6-3.8,8.7-7.2,12.8-10.7c17.2-14.3,34.4-28.5,51.6-42.8c1.7-1.4,2.9-1.7,4.8-0.5
		c3,1.9,6.6,2.2,9.9,3.1c-9.8,4.5-17.6,12.1-25,16.2c6.7-4.5,15.8-9.4,24.7-14.6c1.2-0.7,2.6-0.7,3.8-1.4c4.6-0.8,9.3-1.3,13.4-3.8
		c2.1-1.3,2.7,0.7,3.9,1.6c-0.3,1.5-1.6,2.1-2.8,2.8c-5.8,3.6-11.5,7.1-17.3,10.6c-0.4,0.4-1,0.6-1.5,1c0.6-0.4,1.2-0.8,1.7-1.1
		c6.9-4.2,13.9-8.3,20.7-12.6c2.2,1.5,4.4,3.2,6.2,5.2c-2.6,3.6-6.7,4.8-10.2,7.1c-3.8,2.5-7.8,4.8-11.6,7.2c-0.5,0.4-1,0.6-1.5,1
		c0.5-0.4,1.1-0.7,1.6-1.1c6.2-3.7,12.3-7.5,18.6-11.2c1.4-0.8,2.7-1.8,4.4-2.1c2,1.7,4.1,3.4,6.1,5.1c-6.3,4.9-13.3,8.8-20,13.1
		c-3.1,2-6.3,3.9-9.5,5.9c9.1-5.7,18.3-11.1,27.5-16.4c1.1-0.6,2.2-1.1,3.5-1.4c5.7,4.4,11.2,8.9,16.5,13.7c-0.6,2.2-2.6,3-4.2,4.1
		c-14.1,9.6-27.9,19.8-38.2,26.4c6.7-4.3,17.9-10.4,28.9-16.8C355.5,462.8,361.3,459.1,367.6,456.2z"/>
	<path id="XMLID_1660_" class="st11" d="M352.5,217c4.8-0.6,9.6-0.6,14.4-0.1c-0.7,0.7-1.8,1.1-2.4,1.9c0.8-1,2-1.2,3-1.8
		c9.4-0.9,18.8-0.1,28.2-0.4c3.6-0.1,7.2-0.1,10.8-0.1c0.2,1.5-1,2.2-1.9,2.9c-7.2,5.6-13.9,11.6-21.5,16.7c-1,0.6-1.9,1.2-2.6,2
		c0,0.1-0.3,0.1,0,0.1c0.2,0,0.3-0.3,0.5-0.5c0.7-0.7,1.6-1.2,2.4-1.7c10.6-6.9,21.8-12.9,32.7-19.2c1-0.6,2.1-0.7,3.1-1.1
		c3.6-0.1,7,0.6,9.9,2.8c-3.2,3.3-7.2,5.5-11,8c-1,0.4-1.6,1.4-2,1.5c0.4-0.4,1.3-1.1,2.3-1.6c4-2.5,7.8-5.1,12.1-7.1
		c2.5,1.6,4,3.8,4.7,6.6c-1.7,3.1-5.2,4.2-7.7,6.3c0.1,0-0.1,0.1,0,0c0.4-0.3-0.1,0.2,0.3-0.2c2.7-1.3,4.6-4.4,8.2-3.9
		c1,2.4,1.5,5,1.2,7.6c-0.5,1.1-1.4,2-2.4,2.6c-0.4,0.3-0.5-0.3-0.2,0.1c0.2,0.3,0.3-0.2,0.6-0.2c0.7-0.5,1.3-0.9,2.1-0.2
		c0.8,3.5,0.3,7-0.1,10.5c0.1,0.7-2,1.5,0,2.2c0.7,3.6-0.6,4.9-4.3,4.4c-3-0.4-6.1-0.4-9.2-0.6c-0.9-1.8-2-0.1-3-0.1
		c-11.3,0.1-22.7,0.3-34-0.5c1.3-1.7,3.5-2.4,5-3.8c0.2-0.1,0.4-0.3,0.5-0.4c-0.3,0.2-0.6,0.5-0.9,0.7c-2,1.2-3.8,2.6-6,3.4
		c-5.2,0.5-10.5,0.1-15.7-0.1c0.6-2.6,3.4-2.7,4.9-4.4c0.2-0.1,0.4-0.3,0.5-0.4c-0.3,0.2-0.6,0.5-0.9,0.7c-2.4,1.5-4.6,3.3-7.4,4
		c-5.5,0-11,0-16.5,0c-0.3-1.6,1-2.2,1.9-2.9c3.3-2.8,6.9-5.4,10.5-7.9c0.9-0.5,1.7-1.2,2.5-1.9c-0.9,0.8-1.8,1.5-2.8,2.1
		c-6.3,4-12.4,8.2-19.5,10.7c-5.8,0-11.5,0-17.3,0c0-1.8,1.6-2.4,2.7-3.3c3.9-3.1,7.6-6.4,11.8-9c0.3-0.2,0.6-0.4,0.9-0.5
		c-0.5,0-0.8,0.4-1.3,0.6c-7,4.4-14,8.9-21.7,12.2c-10.8,0-21.5,0-32.3,0c-0.3-1.6,0.9-2.2,1.9-2.9c3.6-2.9,7.1-5.9,10.9-8.4
		c0.3,0,0.4-0.2,0.2-0.4c-0.1,0.2-0.3,0.3-0.5,0.5c-6.5,4-12.9,8.3-20,11.3c-5.8,0-11.5,0.1-17.3,0.1c-0.5-1.7,0.9-2.1,1.8-2.9
		c2.9-2.4,5.8-4.6,9-6.6c0.9-0.5,1.7-1.2,2.5-2c-0.8,0.8-1.8,1.5-2.8,2c-5.4,3.4-10.7,6.8-16.6,9.4c-6,0.8-12,0.5-17.9,0.5
		c-0.2-0.3-0.2-0.7,0.1-1c2.6-2.2,5.5-3.9,8.2-5.9c0.3,0,0.4-0.2,0.2-0.4c-0.1,0.2-0.3,0.3-0.5,0.4c-3.5,2.3-6.7,4.8-10.6,6.3
		c-0.6,0.3-1.3,0.2-1.9,0.5c-13.6,0.3-27.1,0.5-40.7,0.9c-3.1,0.1-4.1-0.9-3.5-3.7c2.5-2.5,5.5-4.2,8.2-6.3c0.3,0,0.4-0.2,0.2-0.4
		c-0.1,0.2-0.3,0.3-0.5,0.4c-2.6,1.5-4.6,4.2-8,3.9c-0.3-3.8-1-7.6-0.2-11.4c2.8-0.5,3.4-3.6,5.8-4.6c-1.9,0.6-3.2,2.9-5.6,1.8
		c-0.3-4.5,0.9-8.7,3.1-12.5c2.3-4,5.6-6.2,10.7-6.2c44.8,0.2,89.7,0.1,134.5,0.1c1.9,0,3.7-0.3,5.6,0.4
		c-5.9,5.9-12.9,10.6-19.3,15.9c-1.4,1.2-2.8,2.5-4.5,3.3c-0.8,0.5-1.6,1.2-2.3,1.8c0.9-0.7,1.8-1.4,2.8-2
		c9.8-6.2,20-11.5,29.9-17.5C350,217.8,351.4,217.9,352.5,217z"/>
	<path id="XMLID_1659_" class="st10" d="M463.4,427.2c0,8,0,16,0.1,23.9c-0.7,1.5-1.9,2.6-3.3,3.5c-8.6,5.4-16.6,11.9-25.5,16.9
		c-1,0.6-1.6,1.5-2.3,2.4c-1.6,1.7-3.5,2.7-5.9,2.7c-4.6,2.4-9.7,1.3-14.6,2.1c-4.4,0.7-7.9-0.7-11.4-3.7
		c-19.3-16.3-38.9-32.4-58.3-48.5c-0.3-0.2-0.5-0.6-0.7-0.8c0.3-1.6,2.1-1.9,2.9-3c0.6-0.6,1.2-1.1,2-1.3c1.8-0.1,2.8-1.6,4.4-2.2
		c12.4-7.7,25.2-14.7,37.8-22.1c11.2-6.6,22.7-12.6,33.5-19.8c6.7-2.9,12.7-6.9,19-10.4c6.1-3.4,12.1-7,18.2-10.4
		c1.1-0.6,2.4-2.1,3.8-0.2c0,2.1,0,4.3,0,6.4c-0.2,1.6-1.5,2.2-2.6,2.9c-6.9,4.2-13.7,8.5-20.5,12.6c-7.7,4.8-15.4,9.5-23.3,14.1
		c-2.5,1.5-5,3-7.5,4.4c-1.2,0.6-2.1,1.6-3.3,2.1c0,0-0.1,0.1-0.1,0.1s0.2-0.1,0.3-0.1c1.1-0.5,2-1.3,2.9-2c2.8-1.4,5.4-3,8.1-4.6
		c7.7-4.6,15.4-9.1,23.1-13.7c6.4-3.3,12.4-7.2,18.8-10.7c1.3-0.7,2.6-2.2,4.2-0.3c0,2.2,0,4.3,0,6.5c-1.1,2.8-4.1,3.1-6,4.8
		c-15.4,9.5-30.6,19.3-46.3,28.4c-1.2,0.6-2.3,1.5-3.5,2.2c-0.9,0.4-1.7,1-2.6,1.7c0.9-0.6,1.6-1.3,2.5-1.6c1.3-0.8,2.6-1.8,4-2.4
		c15.1-9,30.3-18,45.7-26.5c1.9-0.9,3.5-2.8,5.9-2.4c0.2,0.3,0.2,0.7,0,1c0.1,2,1.1,3.9,0.6,6c-1.8,3-5.1,3.9-7.8,5.6
		c-1.2,0.6-2.2,1.4-3.4,2.1c-1.3,0.7-2.5,1.5-3.8,2.2c-0.1,0.2-0.6,0.1-0.5,0.5c0.1-0.2,0.3-0.3,0.5-0.4c1.2-0.8,2.4-1.6,3.7-2.2
		c1.3-0.8,2.5-1.7,3.8-2.3c2.5-0.9,4.2-3.7,7.3-3.2c0,5,0,9.9,0.1,14.9c-0.7,1.7-2.2,2.6-3.7,3.5c-7.3,4.4-14.5,9-21.9,13.3
		c-1.2,0.6-2.3,1.5-3.5,2.2c-0.4,0.2-0.9,0.5-1.3,0.7c0.5-0.1,0.8-0.4,1.3-0.5c1.3-0.8,2.5-1.8,3.9-2.4c7.2-4.4,14.5-8.7,21.8-12.9
		c1-0.6,2.1-1.4,3.5-0.8c0,2.5,0,5,0,7.5c-0.6,1.1-1.4,2-2.5,2.7c-12.7,8-25.2,16.3-38.2,23.9c-0.8,0.4-1.4,1-2.2,1.4
		c0.9-0.5,1.7-1.2,2.6-1.6c11.7-7.3,23.9-14,35.7-21c1.3-0.8,2.6-2.1,4.4-1c0,2.5,0,4.9-0.1,7.4c-0.2,0.7-0.6,1.3-1.3,1.7
		c-5.1,3.1-10,6.3-15.2,9.2c-0.8,0.4-1.6,1-2.3,1.5c-0.2,0-0.3,0.1-0.2,0.3c0.1-0.2,0.2-0.3,0.5-0.4c0.7-0.6,1.6-1.1,2.4-1.5
		c4.1-2.3,8-5,12.1-7.2C460.6,427.7,461.7,426.6,463.4,427.2z"/>
	<path id="XMLID_1658_" class="st12" d="M247.5,382.2c12.3,10.5,24.6,21,36.9,31.5c0.6,2.4-1.8,2.2-2.8,3.2c-1,0.6-2.1,1-3.1,1.7
		c-1.1,0.7-2.1,1.7-3.3,2.4c-24.1,13.9-48.2,27.8-72.3,41.8c-7.1,4.1-14.2,8.4-21,12.9c-1.6,1.1-3.4,1.5-5.1,2.3
		c-0.2,0-0.4,0-0.5,0.1c-4.2,0.7-8.5-0.2-12.7,0.5c-0.7-0.1-1.6,0-1.4-1.1c0.4-0.6,1-1.2-0.1-1.7c0-2.3,0-4.6,0-6.8
		c0.8-1.7,2.3-2.6,3.8-3.5c9.8-6,19.5-12,29.4-17.8c1.7-0.9,3.1-2.1,4.9-2.9c0.5-0.3,1-0.5,1.3-0.6c-0.5,0-1.1,0.5-1.7,0.7
		c-1.7,0.9-3.1,2.1-4.9,2.9c-9.5,5.7-19,11.3-28.6,16.8c-1.2,0.7-2.4,1.9-4.1,1.3c0-2.4-0.1-4.9-0.1-7.3c0.6-1.3,1.6-2.2,2.8-2.9
		c8.8-5.4,17.6-10.9,26.6-16.1c1.4-0.7,2.5-1.7,3.9-2.3c1.1-0.5,2-1.6,3.1-2c0.5,0,0.2,0.4,0.3,0c0.1-0.3-0.2-0.4-0.4,0
		c-1.2,0.6-2.1,1.6-3.3,2.1c-1.3,0.8-2.5,1.7-3.9,2.3c-8.2,5-16.5,9.8-24.8,14.6c-1.2,0.7-2.4,2-4.1,1.2c0-2.4,0-4.9-0.1-7.3
		c0.9-2.3,3.4-2.5,5-4c1.1-0.5,2-1.1,3-1.8c0.8-0.4,1.5-0.9,2.3-1.3c-0.9,0.4-1.8,0.9-2.6,1.4c-0.9,0.8-2,1.2-3.1,1.8
		c-1.5,0.8-2.6,2.6-4.6,1.6c0-2.5,0-5,0-7.5c0.6-1.7,2.1-2.4,3.4-3.3c20.5-13.2,41.2-26.2,61.7-39.3c1.2-0.7,2.3-1.5,3.5-2.1
		c1.1-0.5,1.7-1.5,2.5-2.2C238,388.3,243.2,386,247.5,382.2z"/>
	<path id="XMLID_1657_" class="st12" d="M247.5,382.2c-0.1,3-2.9,3.3-4.7,4.4c-3.1,1.9-5.9,4.2-9.5,5.2c-0.6,1.2-1.8,1.4-2.8,2
		c-1.1,0.8-2.2,1.7-3.4,2.3c-17,10.5-34.5,20.2-51.7,30.2c-2.9,1.7-5.8,3.4-8.8,5c-1.3,0.8-2.7,2-4.5,1.1c0-2.5,0.1-5,0.1-7.4
		c2.6-3.4,6.4-5.1,9.8-7.3c15.9-10.2,31.7-20.6,47.7-30.8c0.8-0.5,1.7-1,2.6-1.5c1.4-0.7,2.6-1.7,4-2.4c0.6-0.3,1.1-0.8,1.1-0.8
		c-0.1,0.1-0.7,0.6-1.5,1c-1.3,0.8-2.6,1.7-4,2.4c-18.4,11.1-37.1,21.6-55.6,32.3c-1.2,0.7-2.4,2-4.1,0.9c0-2.5,0-4.9,0-7.4
		c0.4-1.3,1.4-2,2.5-2.6c5-2.9,9.8-6.3,14.9-9.1c1.7-0.8,3.1-2.1,4.8-2.9c0.3-0.2,0.6-0.3,0.8-0.6c-0.4,0.2-0.8,0.5-1.2,0.7
		c-1.7,0.9-3.1,2.1-4.9,2.9c-4.1,2.5-8.2,5-12.3,7.4c-1.4,0.8-2.8,2.2-4.7,1.2c0-2.5,0-4.9,0.1-7.4c0.1-0.4,1-0.7,0-1.1
		c0-5.4,0-10.8-0.1-16.2c1.8-3,5.1-4.1,7.8-5.9c4.7-3.7,9.9-6.6,15-9.6c1.3-0.8,2.6-1.7,4-2.5c-1.5,0.8-2.8,1.8-4.3,2.6
		c-4.7,2.6-9,5.8-13.8,8.1c-0.8,0.4-0.9,1.2-1.5,1.6c-2.2,0.4-3.9,2.8-6.5,1.9c-0.5-0.9-0.8-1.8-0.8-2.8c0-11.6,0.1-23.2,0.1-34.7
		c0.7-1.5,2.3-2.1,3.6-2.9c-1.2,0.3-2.1,1.8-3.6,1.4c-1.1-8.6-1.7-17.1,1.8-25.4c0.8-2,1.6-3.1,4-1.2
		C195.1,336.1,221.5,358.9,247.5,382.2z"/>
	<path id="XMLID_1656_" class="st12" d="M215.3,478.5c-10.2,0.7-20.4,0.1-30.6,0.1c-0.1-1.9,1.5-2.5,2.7-3.2
		c29.4-18.1,58.4-36.9,88-54.7c1.3-0.6,2.1-1.7,3.3-2.3c0.9-0.4,1.7-1,2.5-1.4c1.2-0.9,2.4-1.6,3.8-2c6.9,3.7,7,4.1,1.3,8.8
		c-18.6,15.3-37.2,30.6-55.7,46c-1,0.8-2.5,0.3-3.1,1.7C224.1,475,219.9,477.2,215.3,478.5z"/>
	<path id="XMLID_1655_" class="st12" d="M462.8,379.2c0-0.3-0.1-0.6-0.1-0.9c-1.1-1.3-0.9-2.5,0.1-3.7c0-2.5,0-5,0-7.6
		c-1-1.2-0.7-2.4,0-3.7c0-2.5,0-5.1,0-7.6c-1.6-1.2,0.3-4.3-2-4.6c-1.7-0.2-3.2,1.7-4.8,2.7c-14,8.7-28.1,17.5-42.1,26.3
		c-0.7,0.5-1.5,1-1.8,1.8c-3.9,3.8-9,5.8-13.6,8.5c-16.1,9.4-31.7,19.4-47.6,29c-1.8,0.3-2.7,2.4-4.7,2.4c-0.4,0.5-0.8,1.1-1.2,1.6
		c-1.4,0-2.4,1.1-3.7,1.4c-2.6-0.4-4-2.7-6-4.1c-1.4-1-0.3-1.6,0.5-2.2c6.4-5.1,12.3-10.8,19.1-15.4c0.9-0.6,1.6-1.3,2.3-2.1
		c0.9-0.6,1.9-1.1,2.8-1.7c6.1-4.6,13.2-7.7,19.7-11.8c1.6-1,3.2-2,4.8-2.7c24.4-13.9,48.7-27.9,73-41.9c3.2-1.8,5-3.9,4.4-7.7
		c0.2-1.3-0.3-2.9,1.6-3.4c0,15,0.1,30,0.1,44.9C463.5,377.7,463.7,378.6,462.8,379.2z"/>
	<path id="XMLID_1654_" class="st12" d="M463.4,331.9c-1.1,1.1-0.5,2.5-0.6,3.7c-1,1.3-2.4,2.2-3.7,3.1
		c-23.7,14.4-47.1,29.4-70.8,43.8c-1.3,0.8-3.1,1.3-3.4,3.2c-7.3,4.2-14.6,8.4-21.8,12.7c-1,0.6-2.2,0.4-3.1,1
		c-0.2-1.4,1-1.9,1.8-2.6c23.3-20.1,46.5-40.2,69.8-60.2c0.5-0.4,1-0.6,1.6-0.9c8.1-5.6,16.9-10,25.3-15.1c0.9-0.6,1.8-1.4,3-1.5
		c1.4,2.4,1.8,5,2,7.7c-2.4,1.6-5,2.9-7.4,4.5c-0.5,0.3-0.9,0.8-0.8,0.8c0,0,0.4-0.6,1-0.9c2.5-1.1,4.4-3.3,7.2-3.6
		C463.4,328.9,463.4,330.4,463.4,331.9z"/>
	<path id="XMLID_1653_" class="st8" d="M131.1,420.4c-1.3-3.2-0.3-6.5-0.5-9.8c2.1-3.7,6.3-5.5,8.5-8.7c-2.8,1-5.1,3.7-8.4,4.2
		c0.3-4.7,0.3-9.4,2.3-13.9c2.4-5.6,7-7.7,12.6-8.6c0.5-0.1,1,0,1.5-0.1c6.8-0.5,6.8-0.5,6.8,6.2c0,9,0.1,17.9,0.7,26.8
		c-0.5,1-1.2,1.9-2.4,2.2c-0.7,0.3-1.4,0.5-2.1,1c-0.3,0.2-0.5,0.4-0.8,0.5c-0.8,0.5-1.7,1-2.5,1.5c-3.9,2.5-8,4.7-12,7
		c-1.3,0.7-2.5,1.7-4.2,1.3c0.1-3-0.7-6.1,0.5-9.1c0.4-0.5,1.3-0.6,1.6-1.4C132.2,420.4,131.6,420.3,131.1,420.4z"/>
	<path id="XMLID_1652_" class="st8" d="M494.2,455.4c0,6.6,0,13.2,0,19.8c-0.9,1.6-1.8,3.2-2.9,4.6c-0.4,0.6-0.8,1.1-1.5,1.2
		c-5.9-2.2-11.8-4.4-18.3-4.5c-1.4,0-2-0.7-2-2.1c0-5.9-0.1-11.7-0.1-17.6c0.2,0,0.3,0,0.5,0c1.1-0.3,2-0.8,2.9-1.4
		c7.4-4.5,15.2-8.3,22.2-13.4c-0.2,4.2-0.3,8.5-0.5,12.7c-1.6,1.8,0.8-2.8-1.2-0.7c-1.8,1.9-4.2,3-6.2,4.6c-0.1,0.2-0.6,0-0.5,0.5
		c0.1-0.2,0.3-0.3,0.5-0.4C489.4,457.5,491,454.8,494.2,455.4z"/>
	<path id="XMLID_1651_" class="st8" d="M136.5,481.2c-1.5,1-3.3,3-4.6,2.4c-1.7-0.8-0.6-3.3-0.6-5.1c-0.1-3.9,0-7.8,0.1-11.7
		c0.7-1.4,2-2.1,3.3-2.9c5.6-3.7,11.1-7.4,16.7-11.1c1.2-0.8,2.2-2,3.9-1.7c1.5,8.6,0.5,17.4,0.8,26.1c0.1,1.9-1.4,1.8-2.6,1.7
		c-4.2-0.2-8.4,0.3-12.5,1.4C139.2,479.4,137.8,480.2,136.5,481.2z"/>
	<path id="XMLID_1650_" class="st8" d="M410.3,484.1c3.8-0.3,7.5,0.4,11.2,0.8c-0.9,3-4.1,3.2-6,5c-11.2,6.4-22.4,12.9-33.6,19.3
		c-2.3,1.3-4.4,3.8-7.6,2.5c2.8-4,4.3-8.6,6-13.1c1.9-5.1,3.7-10.3,9.6-12.5c2.1,0.1,3.6-1.2,5.4-1.9c3.3-0.5,6.4-0.5,9.1,1.9
		c0.6,0.6,1.3,0.6,2,0.2C407.7,485.6,408.7,484.4,410.3,484.1z"/>
	<path id="XMLID_1649_" class="st8" d="M469.5,431.5c0-6.5,0-13,0-19.5c4.1-3,8.4-5.8,12.9-8.1c1.1-0.3,2.2-0.7,3-1.6
		c0.4-0.3,0.8-0.6,1.3-0.8c2.7-0.6,4.5-2.9,7-4c0.6,0.2,0.9,0.5,0.6,1.1c1.1,5.2,0.6,10.5,0.5,15.8c-2.1,3.3-5.9,4.5-8.8,6.8
		c-4.1,3.2-8.6,5.9-13,8.9C472.1,430.9,471.1,432.1,469.5,431.5z"/>
	<path id="XMLID_1648_" class="st8" d="M276,421c-21.1,13.3-42.2,26.5-63.3,39.8c-8.2,5.2-16.5,10.3-24.7,15.5
		c-1.1,0.7-2.2,1.6-3.3,2.4c-2.6-0.2-5.2-0.4-7.8-0.5c10.5-7.4,21.6-13.8,32.7-20.2c21.2-12.2,42.4-24.5,63.5-36.7
		c0.6-0.4,1.3-0.6,2-1C275.9,419.9,276,420.3,276,421z"/>
	<path id="XMLID_1647_" class="st10" d="M342.7,362.6c-19.3,13-38.5,26-57.8,39c-1.2,0.8-2.8,1.2-3,3c-2.5-1.5-4.6-3.4-6.7-5.3
		c1.6,0.1,2.8-0.7,4.1-1.5c15.2-8.8,30.5-17.7,45.8-26.5c5.6-3.2,11.2-6.4,16.8-9.6C342.8,361.6,342.9,361.9,342.7,362.6z"/>
	<path id="XMLID_1646_" class="st8" d="M469.3,456.9c0.1-3.3,0.7-6.7-0.4-9.9c-0.5-1.5,0.8-2.2,1.2-3.4c1.7-1.5,3.7-2.8,5.8-3.7
		c2.1-0.5,3.7-1.9,5.5-2.9c3.2-1.7,6.4-3.7,9.6-5.5c1.2-0.7,2.3-2,4-1.4c0,3-0.1,6-0.1,9c-7.2,6.1-14.8,11.4-22.6,16.7
		c-0.9,0.5-1.5,1.5-2.7,1.3L469.3,456.9z"/>
	<path id="XMLID_1645_" class="st8" d="M151.5,418.1c1.3,0.1,2-1,2.9-1.5c0,4,0.1,8,0.1,12c-0.5,1.3-1.2,2.3-2.5,2.9
		c-3.2,1.5-6,3.9-9.3,5.3c-4,1.4-7.1,4.5-11.2,5.7c-0.4,0-0.7-0.2-0.9-0.4c0-2.8,0-5.5,0-8.3c5-4.8,11-8.3,16.6-12.3
		c0.9-0.4,1.6-1.1,2.1-2l-0.1,0C150.1,419.4,151.1,419.2,151.5,418.1z"/>
	<path id="XMLID_1644_" class="st13" d="M374.3,511.7c4.9-1,8.7-4.2,12.9-6.6c9.5-5.2,18.8-10.7,28.2-16.1c0.7,0.4,0.8,1.1,0.8,1.8
		c-15.4,9-30.8,17.9-46.2,26.9c-11.3,6.5-22.7,13-34,19.5c-0.5-0.3-1.3,0-1.6-0.7c7.3-5.2,14.6-10.4,21.8-15.6
		c0.6-0.4,1.1-1,1.7-1.4C364.1,518.4,370.1,517,374.3,511.7z"/>
	<path id="XMLID_1643_" class="st14" d="M463.3,457.3c0,2.7,0,5.3,0,8c-4.3,4.5-9.4,7.9-15,10.6c-6.4,1-12.9,1-19.4,1.5
		c1.7-3.2,5.1-4,7.8-5.8c1.1-0.8,2.5-1.2,3.1-2.6c1.1-1.3,2.8-1.6,4.3-2.1c1.1-0.2,1.9-0.7,2.8-1.3c4.3-2.4,8.6-5,12.9-7.4
		C461,457.6,462,456.6,463.3,457.3z"/>
	<path id="XMLID_1642_" class="st10" d="M448.7,308.5c-6.1,1.3-10.9,5.3-16.2,8.3c-15.8,9-31.5,18.1-47.2,27.1
		c-4.7,2.7-9.3,5.4-14.2,7.8c13.5-9.6,27.2-18.9,41.4-27.4c6-4.7,12.7-8.2,19.3-12.1c2.7-1.6,5.3-3.2,7.7-5.3
		C442.7,306.9,445.7,307.4,448.7,308.5z"/>
	<path id="XMLID_1641_" class="st8" d="M476.2,440.6c-2.3,0.5-3.4,3.4-6.1,3c-1.2-3.2-1.6-6.5-0.5-9.9c2.6-3.4,6.7-4.7,10.2-6.8
		c3.8-2.4,7.8-4.4,11.7-6.7c1.1-0.6,2.1-1.4,3.5-0.8c0,2.6,0,5.2,0,7.9c-2,3.2-5.6,4.4-8.5,6.6c-1.7,1.3-3.4,2.5-5.3,3.5
		C479.6,438.6,477.6,439.1,476.2,440.6z"/>
	<path id="XMLID_1640_" class="st8" d="M142.3,436.2c4.1-2.6,8.5-4.6,12.3-7.6c0.8,3.7,0.7,7.5,0.7,11.3c-3.1,2.5-6.7,4.2-10.1,6.2
		c-1.1-0.3-1.9,0.4-2.6,1.1c-1.8,0.9-3.4,2.1-5.2,3.1c-2.1,0.6-3.5,3.1-6.1,2.4c-0.2-3.5-0.4-7-0.6-10.5c0.2,0,0.4,0,0.6,0
		c0.6,0.4,0.6,1,0.5,1.6C134.7,440.6,139,439.2,142.3,436.2z"/>
	<path id="XMLID_1639_" class="st8" d="M162.1,418.8c10.4-5.1,20.1-11.4,30.2-17.1c9.9-5.5,19.7-11.2,29.5-16.8
		c0.9-0.4,1,0.1,0.9,0.8c-20.2,13.1-40.4,26.1-60.6,39.2C162.1,422.9,162.1,420.9,162.1,418.8z"/>
	<path id="XMLID_1638_" class="st8" d="M162.1,432.4c5.6-2.1,10.5-5.6,15.6-8.5c16.5-9.4,33-18.9,49.5-28.3c0.8-0.4,0.9,0,0.8,0.7
		c-20.7,13.2-41.4,26.5-62.1,39.7c-1.3,0.8-2.5,1.6-3.8,2.4C162.1,436.4,162.1,434.4,162.1,432.4z"/>
	<path id="XMLID_1637_" class="st8" d="M144.6,446c3.1-2.9,6.6-4.9,10.6-6.2c0,3.1,0,6.1,0,9.2c-0.8,1.7-2.4,2.4-3.9,3.3
		c-5.3,3.1-10.6,6-15.8,9.1c-1.2,0.7-2.4,1.9-4.1,1.1c0-2.6,0-5.2,0-7.7c1.4-2.5,4-3.4,6.3-4.8c1.5-0.9,2.9-2,4.5-2.9
		C142.9,446.8,143.6,446,144.6,446z"/>
	<path id="XMLID_1636_" class="st8" d="M483,404.6c-3.5,2.1-7,4.2-10.4,6.4c-1,0.6-1.9,1.2-3,1.1c-0.2-3-0.7-6,0-9
		c0.6-1,1.4-1.7,2.4-2.2c5.5-3.1,10.9-6.5,16.5-9.5c1.1-0.6,2.1-1.4,3.5-1.1c1.1,2.8,3.4,5.1,2.4,8.5c-0.3-0.3-0.6-0.6-0.9-0.9
		c-2.2,1.7-4.5,3.1-6.8,4.5c-0.2,0.3-0.5,0.6-0.7,0.8C484.7,403.2,483.9,403.9,483,404.6z"/>
	<path id="XMLID_1635_" class="st12" d="M367.6,456.2c-2.5,3-6.1,4.1-9.3,6c-13.7,8-27.5,16-41.3,23.9c-0.6,0.4-1.3,0.6-2.4,0.3
		c16.2-11.3,32.3-22.5,48.5-33.8C364.8,453.5,366.3,454.7,367.6,456.2z"/>
	<path id="XMLID_1634_" class="st8" d="M483.6,383.8c2.6,0.9,5.2,2,6.8,4.4c-0.3,0.9-0.8,1.6-1.5,2c-6,3.8-11.9,7.6-18,11.3
		c-0.4,0.3-0.9,0.4-1.4,0c-0.3-3-0.4-6.1,0.1-9.1C473.6,388.4,478.6,386.1,483.6,383.8z"/>
	<path id="XMLID_1633_" class="st10" d="M338.2,379.8c-14.4,9.3-28.7,18.6-43.1,28c-1.3,0.9-3.4,1.3-3.4,3.6
		c-2.1-0.9-3.9-2.1-5.6-3.7c5.2-0.9,9.1-4.5,13.5-7c12.7-7.1,25.3-14.4,37.9-21.7C338.3,378.8,338.4,379.2,338.2,379.8z"/>
	<path id="XMLID_1632_" class="st15" d="M382.5,235.9c8-6.4,16-12.9,24-19.3c4.2-0.7,8.4-1.3,12.7-0.8c-9.7,5.7-19.4,11.4-29.1,17.1
		c-2.2,1.3-4.5,2.5-6.8,3.8C382.5,236.9,382.3,236.5,382.5,235.9z"/>
	<path id="XMLID_1631_" class="st15" d="M318,235.9c7.3-5.9,14.6-11.8,21.9-17.7c0.7-0.5,1.5-0.8,2.3-1.2c3.5,0,6.9,0,10.4,0.1
		c-11,7-22.3,13.3-33.8,19.6C318,236.9,317.8,236.6,318,235.9z"/>
	<path id="XMLID_1630_" class="st16" d="M438.2,582.9c10.1-5.9,20.2-11.8,30.4-17.7c0.2,0.3,0.4,0.6,0.6,0.9
		c-5.8,6.2-12.9,11.2-18.5,17.6C446.5,583.4,442.4,583.2,438.2,582.9z"/>
	<path id="XMLID_1629_" class="st17" d="M321.9,518.4c2.7,0,5.4,0,8.1,0c0.1,0.3,0.2,0.5,0.3,0.8c-10.3,5.8-20.6,11.6-30.9,17.4
		c-1.1,0.4-1.9,0.4-1.9-1.1c6.7-4.8,13.3-9.6,20-14.5c1-0.7,1.9-1.6,2.9-2.4C320.9,518.6,321.4,518.5,321.9,518.4z"/>
	<path id="XMLID_1628_" class="st18" d="M207.7,511.1c9.5-6.6,18.9-13.2,28.4-19.9c1.1-0.8,2.2-1.6,3.2-2.5c1.7,0.6,3.4,1.3,4.6,2.8
		c-11.8,6.8-23.6,13.6-35.3,20.4C207.8,512.2,207.6,511.8,207.7,511.1z"/>
	<path id="XMLID_1627_" class="st19" d="M359.8,263.1c-11.7,0-23.3,0-35-0.1c-1.3,0.4-2.7,1.1-4,0c-4.5,0-9,0-13.5,0.1
		c-1.2,0.2-2.4,0.9-3.6-0.1c-8.7,0-17.5,0-26.2,0c-1.2,0.5-2.4,0.6-3.7,0.8c-0.9,0-1.7-0.1-2.3-0.8c-4.7,0-9.5,0-14.2,0
		c-2.6,0.8-5.3,2.4-7.5-0.7c20.1,0,40.2,0,60.2,0c35.2,0,70.3,0,105.5,0.1c0,0.2,0,0.4,0,0.6c-0.2,0.2-0.5,0.3-0.7,0.1
		c-4.5,0-9,0-13.5,0.1c-1,0.1-2.1,0.7-3.1,0c-4.5,0-8.9,0-13.4,0c-1,0.3-2.1,0.8-3.1,0c-4.5,0-8.9,0-13.4,0
		C365.4,263.7,362.6,264.9,359.8,263.1z"/>
	<path id="XMLID_1626_" class="st10" d="M267.7,392.6c14.5-8.3,29-16.5,43.5-24.8c0.1,0.2,0.2,0.4,0.4,0.6c-7.5,5-15,10-22.5,15
		c-5.1,3.4-10.2,6.6-15.3,9.9c-1.1,0.7-2.1,1.4-2.2,2.8C270,395.2,268.7,394,267.7,392.6z"/>
	<path id="XMLID_1625_" class="st8" d="M444.7,467.5c-1.5,0.6-3.2,0.8-4.4,1.9c-2.5,1.8-4.8,4-8.2,4.1c-0.3-1.2,0.5-1.9,1.3-2.4
		c10.5-5.8,20-13.3,30-20c0,2-0.1,4.1-0.1,6.1c-5.4,3-10.8,6-16.2,9C446.2,466.4,445.4,466.8,444.7,467.5z"/>
	<path id="XMLID_1624_" class="st20" d="M276,534.3c6.5-4.7,12.9-9.4,19.4-14.1c3.5-0.2,7-0.5,10.5-0.7
		c-9.7,5.6-19.4,11.3-29.1,16.9C276.1,535.9,275.6,535.3,276,534.3z"/>
	<path id="XMLID_1623_" class="st21" d="M461.4,318.9c-3.2,3.6-7.7,5.3-11.8,7.6c-5.5,3.1-10.5,6.9-16.5,9
		c7.8-7.2,16.1-13.7,24.5-20C461.3,312.7,460.1,317.8,461.4,318.9z"/>
	<path id="XMLID_1622_" class="st10" d="M245.8,371.7c5.8-1.8,10.5-5.6,15.7-8.5c7.4-4,14.6-8.4,22.3-12c-2.2,1.6-4.3,3.2-6.5,4.7
		c-8.6,5.9-17.2,11.9-25.8,17.7c-0.7,0.5-1.5,0.9-1.8,1.8C248.4,374.2,247.1,372.9,245.8,371.7z"/>
	<path id="XMLID_1621_" class="st22" d="M417.9,581.5c10.6-6.2,21.1-12.3,31.7-18.5c0.2,0.3,0.4,0.6,0.6,0.9
		c-7.9,6.1-15.7,12.2-23.6,18.3C423.8,581.9,420.8,581.7,417.9,581.5z"/>
	<path id="XMLID_1620_" class="st8" d="M422.3,439.2c13.7-8.8,27.4-17.6,41.1-26.3c0,1.5,0,3,0,4.4c-3,0.7-5.3,2.7-7.9,4.1
		c-10.8,6.1-21.6,12.3-32.4,18.5C422.4,440.3,422.2,439.9,422.3,439.2z"/>
	<path id="XMLID_1619_" class="st10" d="M276.8,307.1c-3.1,2.6-7.2,3.1-10.3,5.3c-6.3,4.5-13,8.3-19.6,12.2
		c-0.3,0.2-0.6,0.2-1.3-0.2c6.6-5.7,13.2-11.4,19.9-17c0.3-0.5,0.7-0.6,1.2-0.3C270,307,273.4,307.1,276.8,307.1z"/>
	<path id="XMLID_1618_" class="st22" d="M130.5,551.5c10.5-6,21-12,31.5-18c0.8-0.3,0.9,0.1,0.8,0.7c-10,7-20,13.9-30,20.8
		c-0.6,0.4-1.3,0.6-2,0.9C130.6,554.5,130.6,553,130.5,551.5z"/>
	<path id="XMLID_1617_" class="st23" d="M266.6,307c-0.4,0.1-0.8,0.2-1.2,0.3c-12.4-2.6-21.6,4.5-31.7,9.8c1.7-1.6,3.5-3.1,5.1-4.7
		c1.6-1.6,4.1-2.4,5.3-5.2c-4.5,0-8.8,0-13.1,0c-2.3,0.5-4.6,1.9-6.8,0c-4.5,0-8.9,0.1-13.4,0.1c-1.1,0.3-2.1,0.7-3.2,0
		c-4.6-0.1-9.1-0.1-13.7-0.2c5.8-1.1,11.6-0.5,17.5-0.5c17.5,0,35.1,0.1,52.6,0.2C264.9,306.7,265.7,306.9,266.6,307z"/>
	<path id="XMLID_1616_" class="st24" d="M494.9,419.4c-8.4,4.8-16.9,9.6-25.3,14.3c0-0.7,0-1.5-0.1-2.2c8.5-5.7,16.9-11.3,25.4-17
		C494.9,416.2,494.9,417.8,494.9,419.4z"/>
	<path id="XMLID_1615_" class="st12" d="M207.6,339.4c5.6-1.1,9.9-5,14.8-7.6c3.1-1.6,6.2-3.5,9.7-4.6c-6.4,5.5-12.7,11.1-19.1,16.6
		C211.1,342.5,209.2,341.2,207.6,339.4z"/>
	<path id="XMLID_1614_" class="st25" d="M442,485.8c0.8,0.2,1.6,0.5,2.9,0.9c-8.6,4.8-16.7,9.4-24.8,14c-1.8-0.3-0.8-1.3-0.3-1.7
		c1.1-0.9,2.3-1.7,3.1-3c5-3.4,10-6.8,15-10.2C439.3,485.8,440.7,485.8,442,485.8z"/>
	<path id="XMLID_1613_" class="st14" d="M313.5,427.9c-10.7,6.3-21.4,12.6-32.1,18.9c-0.2-0.3-0.3-0.6-0.5-0.8
		c6.9-4.8,13.8-9.5,20.6-14.3c2.6-1.8,4.9-4.2,8.5-3.9C311.2,427.8,312.3,427.8,313.5,427.9z"/>
	<path id="XMLID_1612_" class="st26" d="M357.7,308c-9.5,0-19,0-28.4,0c-1.8,0.3-3.6,1.5-5.5,0c-6.7-0.1-13.4-0.1-20.1-0.2
		c-0.2-0.1-0.3-0.3-0.2-0.4c0.1-0.1,0.2-0.2,0.2-0.2c27.3,0,54.5,0,81.8,0c-2.5,1.9-4.9,4.1-8.3,4.4c-1.3,0-1.2-0.6-0.8-1.5
		c0.6-0.5,1.3-1,2.6-2.1c-5.2,0-9.5,0-13.8,0c-2.1,0.9-4.2,1.2-6.5,0.7C358.4,308.5,358,308.3,357.7,308z"/>
	<path id="XMLID_1611_" class="st27" d="M232.4,359.9c5.5-4.8,12.3-7.4,18.4-11.3c3.1-1.9,6.4-3.6,10-4.8c-4.4,3.1-8.9,6.1-13.1,9.4
		c-4,3.1-8.7,5.4-12,9.3C234.5,361.7,233.4,360.8,232.4,359.9z"/>
	<path id="XMLID_1610_" class="st28" d="M131.3,462.5c7.9-4.5,15.9-9,23.8-13.5c0,0.7,0,1.3,0.1,2c-8,5.2-15.9,10.5-23.9,15.7
		C131.3,465.3,131.3,463.9,131.3,462.5z"/>
	<path id="XMLID_1609_" class="st22" d="M463.7,583c6.7-4,13.5-8.1,20.2-12.1c0.2,0.2,0.3,0.4,0.5,0.6c-2.2,3.1-4.4,6.3-6.7,9.4
		c-3.8,1.7-7.8,2-11.8,2.4C465.1,583.5,464.3,583.7,463.7,583z"/>
	<path id="XMLID_1608_" class="st29" d="M472.5,532.8c7.9-5.6,15.7-11.3,23.9-16.4c0,1.5,0.1,2.9,0.1,4.4c-7.7,4.3-15.3,8.6-23,12.9
		C472.6,533.9,472.4,533.6,472.5,532.8z"/>
	<path id="XMLID_1607_" class="st8" d="M195.7,448c-11.2,7-22.4,14-33.7,21c0-1.1,0.1-2.1,0.1-3.2c10.9-6.2,21.8-12.4,32.6-18.6
		C195.7,446.9,195.8,447.3,195.7,448z"/>
	<path id="XMLID_1606_" class="st30" d="M471.8,455.6c7.1-5.3,14.3-10.6,21.4-15.8c0.5-0.3,1.1-0.4,1.7-0.6c0,1,0,1.9,0,2.9
		c-0.4,1.2-0.9,2.2-2.1,2.9c-6.8,3.8-13.5,7.6-20.2,11.4C471.7,456.7,471.6,456.3,471.8,455.6z"/>
	<path id="XMLID_1605_" class="st31" d="M346.6,438.8c-5.4,4.1-11.5,6.8-17.2,10.3c-4.9,3-10,5.8-15.5,8c2-1.3,3.9-2.6,5.9-3.9
		c7.4-4.8,14.8-9.6,22.2-14.4c0.9-0.6,2-0.8,3.1-1.3C345.6,438,346.1,438.4,346.6,438.8z"/>
	<path id="XMLID_1604_" class="st32" d="M247.5,262.9c-7.4-0.3-14.9-0.8-21.1,4.5c-1.3,0-1.1-0.7-0.7-1.5c0.3-0.9,0.6-1.8,1-2.9
		c-6.9-0.6-13.7,0.3-20.5,0c-7-0.4-14-0.1-21-0.1c0.6-0.7,1.3-0.6,2.1-0.6c20.3,0,40.6,0,61,0c0.2,0.2,0.2,0.3,0.2,0.5
		c0,0.2-0.1,0.3-0.1,0.3C248,263.1,247.8,263.1,247.5,262.9z"/>
	<path id="XMLID_1603_" class="st33" d="M254.2,379.9c10-5.7,20-11.5,30-17.2c0.1,0.2,0.3,0.4,0.4,0.7c-4,2.7-8,5.5-12.1,8.2
		c-4.3,2.9-8.7,5.8-13.1,8.7c-1,0.7-2.2,1.2-2.2,2.7C256,382.1,255,381.1,254.2,379.9z"/>
	<path id="XMLID_1602_" class="st34" d="M424.5,306.2c-6.3,4.6-13.3,8.2-20.1,12c-5.5,3.1-10.6,7-16.6,9.1c1.4-2.3,4.2-2.7,6-4.5
		c1.7-1.9,4.1-2.8,6-4.5c0.6,0,1.2-0.1,1.5-0.7c5.4-3.4,10.9-6.8,16.3-10.4c1.3-0.8,2.6-1.5,4.1-1
		C422.6,306.2,423.5,306.2,424.5,306.2z"/>
	<path id="XMLID_1601_" class="st31" d="M383.2,469.1c-5.1,4.3-11.3,6.7-16.8,10.2c-3.5,2.2-7.2,4.2-11.1,5.9
		c8.7-5.8,16.5-12.9,25.8-17.7C382.1,467.8,382.7,468.4,383.2,469.1z"/>
	<path id="XMLID_1600_" class="st29" d="M477,551.6c6.7-5.1,13-10.6,20.2-15.1c0,1.7-0.1,3.4-0.1,5.1c-6.4,3.6-12.9,7.1-19.3,10.7
		C477,552.7,476.9,552.3,477,551.6z"/>
	<path id="XMLID_1599_" class="st8" d="M162.2,455.4c9.6-5.5,19.3-10.9,28.9-16.4c0.8-0.4,1,0.1,0.9,0.8
		c-10,6.3-19.9,12.5-29.9,18.8C162.1,457.5,162.1,456.4,162.2,455.4z"/>
	<path id="XMLID_1598_" class="st35" d="M340.5,241.8c-5,4-10,8-14.9,11.9c-2.5,0-5,0-7.5,0c6.9-4.8,14.4-8.6,21.7-12.7
		C340.5,240.8,340.7,241.1,340.5,241.8z"/>
	<path id="XMLID_1597_" class="st35" d="M299.2,242.6c-4.5,3.7-9,7.4-13.5,11.2c-2.5,0-5,0-7.5,0c6.4-4.6,13.4-8.2,20.2-12
		C299.3,241.5,299.4,241.9,299.2,242.6z"/>
	<path id="XMLID_1596_" class="st34" d="M439.5,307c-1.4,3.7-5,4.6-7.9,6.3c-6.3,3.7-12.7,7.3-19.1,11c-0.4-0.3-0.4-0.7-0.1-0.9
		c8.1-5.4,16.1-10.9,24.5-15.7c0.6-0.4,1.4-0.5,2.1-0.7C439.2,306.8,439.4,306.8,439.5,307z"/>
	<path id="XMLID_1595_" class="st8" d="M483.8,487c-4,2.2-8,4.4-12,6.6c-0.8,0.5-1.6,1.4-2.5,0.1c-1.2-2.6,1.3-3.5,2.4-5
		c1.1-0.8,2.1-1.6,3.5-2.7c-1.2-0.7-2.6,0-3.4-1C475.9,484.7,479.9,485.9,483.8,487z"/>
	<path id="XMLID_1594_" class="st8" d="M437.3,418.9c8.7-5.5,17.4-11,26.1-16.5c0,1,0,2,0,3.1c-8.4,4.8-16.8,9.5-25.2,14.3
		C437.3,420.1,437.2,419.6,437.3,418.9z"/>
	<path id="XMLID_1593_" class="st36" d="M190.7,299c-1.3-0.1-2.7-0.2-5.1-0.4c7.6-4.4,14.5-8.4,21.3-12.4c-5,4.7-9.7,9.7-15.9,12.8
		c0,0-0.2,0.1-0.2,0.1L190.7,299z"/>
	<path id="XMLID_1592_" class="st37" d="M469.5,401.5c7-4.4,14-8.9,20.9-13.3c0.5,0.7,1,1.4,1.5,2.1c-7.5,4.3-14.9,8.5-22.4,12.8
		C469.5,402.6,469.5,402,469.5,401.5z"/>
	<path id="XMLID_1591_" class="st38" d="M342.8,253.7c6.5-3.7,13-7.4,19.4-11.2c0.8-0.3,0.9,0.1,0.8,0.8c-4.1,3.6-8.9,6.4-12.7,10.4
		C347.8,253.7,345.3,253.7,342.8,253.7z"/>
	<path id="XMLID_1590_" class="st8" d="M448.4,475.8c4.7-3.9,9.9-7.2,15-10.6c0,1.6,0,3.1,0,4.7c-2.8,3-6.4,4.6-10.2,5.8
		C451.6,475.8,450,475.8,448.4,475.8z"/>
	<path id="XMLID_1589_" class="st8" d="M153.7,485.6c-5.4,3.2-10.9,6.4-16.7,9.9c0.3-2.7,1.6-4.3,3.4-5.6c0.8-2,2.8-2.5,4.3-3.6
		C147.7,484.8,150.8,485.8,153.7,485.6z"/>
	<path id="XMLID_1588_" class="st39" d="M495.7,556.9c-3.7,2-7.3,4.1-11,6.1c-0.8,0.2-1.1-0.2-1-0.9c4.2-3.8,8.1-8,12.8-11.3
		C496.7,552.9,495.9,554.8,495.7,556.9z"/>
	<path id="XMLID_1587_" class="st40" d="M147.7,421.8c-5.6,4.1-11,8.7-17.1,12c0-1.2,0-2.4,0-3.6c5.4-3,10.9-6.1,16.3-9.1
		C147.7,420.7,147.8,421.1,147.7,421.8z"/>
	<path id="XMLID_1586_" class="st39" d="M483.6,383.8c-4.2,3.6-9.4,5.7-14,8.6c0-1.2-0.1-2.4-0.1-3.6c3.1-3.7,6.7-6.3,11.9-5.3
		C482.1,383.5,482.9,383.7,483.6,383.8z"/>
	<path id="XMLID_1585_" class="st41" d="M450.6,278.6c-5,2.7-9.5,6.2-14.9,8.3c-0.2-0.2-0.3-0.3-0.2-0.5c0.1-0.2,0.1-0.3,0.2-0.3
		c4.1-3.4,8.1-6.9,12.2-10.3c0.5-0.5,1.3-0.7,1.9-1C450.1,276.1,450.4,277.3,450.6,278.6z"/>
	<path id="XMLID_1584_" class="st14" d="M375,462.3c-4.5,4.3-10.4,6.4-15.6,9.6c-1.9,1.2-3.7,2.9-6.2,3.2l0,0
		c4.9-4.2,10.5-7.5,15.7-11.2c1.4-1,3.2-1.5,3.9-3.3C373.6,461.2,374.3,461.7,375,462.3z"/>
	<path id="XMLID_1583_" class="st41" d="M272.2,244.8c-3.8,3-7.5,6.1-11.3,9.1c-2,0-4,0-6,0c5.1-4,10.8-6.9,16.5-9.9
		C272.3,243.8,272.4,244.1,272.2,244.8z"/>
	<path id="XMLID_1582_" class="st38" d="M420.7,290.6c-3.3,2.9-7,5.3-9.8,8.9c-2.5,0-5,0-7.5,0c5.7-3.2,11.2-7,17.2-9.6
		c0.2,0.2,0.3,0.3,0.2,0.5C420.9,290.5,420.8,290.6,420.7,290.6z"/>
	<path id="XMLID_1581_" class="st42" d="M339,432.4c-4.9,4.2-11,6.5-16.3,9.9c-2.2,1.4-4.2,3.1-6.9,3.5l0,0
		c4.3-4.1,9.9-6.5,14.7-9.9c2.3-1.6,4.8-3,7.3-4.5C338.1,431.8,338.6,432.1,339,432.4z"/>
	<path id="XMLID_1580_" class="st38" d="M297.8,298.8c5.3-3.6,10.9-6.7,16.5-9.7c0.8-0.3,0.9,0.1,0.7,0.8c-3.8,3-7.5,6.1-11.3,9.1
		C301.7,298.9,299.7,298.9,297.8,298.8z"/>
	<path id="XMLID_1579_" class="st43" d="M255.7,515.8c-5.1,3.8-10.8,6.6-16.3,9.6c-0.9,0.3-1-0.1-0.9-0.8c4.8-3.3,9.6-6.6,14.3-9.9
		C253.8,515.1,254.8,515.4,255.7,515.8z"/>
	<path id="XMLID_1578_" class="st44" d="M247.4,510.4c-5.7,3.3-11.4,6.5-17.1,9.8c-0.8,0.4-0.9,0-0.8-0.7
		c5.4-3.7,10.7-7.6,16.4-10.8C246.5,509.2,246.9,509.8,247.4,510.4z"/>
	<path id="XMLID_1577_" class="st8" d="M162.1,408.4c6.1-2.3,11.1-6.5,17-9.1c0.8-0.3,1,0.1,0.9,0.8c-5.9,3.8-11.9,7.6-17.8,11.4
		C162.1,410.4,162.1,409.4,162.1,408.4z"/>
	<path id="XMLID_1576_" class="st45" d="M130.6,406.1c3.2-2.6,6.9-4.4,10.9-5.9c-3.4,3.8-6.7,7.6-10.9,10.4
		C130.6,409.1,130.6,407.6,130.6,406.1z"/>
	<path id="XMLID_1575_" class="st42" d="M310.5,439.1c5.1-4.7,11.5-7.6,17.1-11.5c1-0.7,2.1-1.3,3.1-2c0.3,0.2,0.5,0.4,0.8,0.7
		c-0.2,0.4-0.2,1.1-0.6,1.3C324.2,431.6,317.8,436.1,310.5,439.1L310.5,439.1z"/>
	<path id="XMLID_1574_" class="st46" d="M420,337c-2.8-0.7-4.2,1.9-6.4,2.6c-1.1,0.4-2,1.5-3.5,1.7c0-1.1,1-1.3,1.6-1.7
		c5.8-3.8,11.7-7.6,17.5-11.4c0.7-0.5,1.4-1,2.4-0.9C427.9,330.9,424,334.1,420,337z"/>
	<path id="XMLID_1573_" class="st47" d="M199.4,332.6c4.5-2.4,9.1-4.8,14.2-7.6c-3,4.7-8,6.5-10.5,10.7
		C201.9,334.7,200.7,333.6,199.4,332.6z"/>
	<path id="XMLID_1572_" class="st48" d="M261.1,386.6c7-3.2,13.3-7.7,20.2-11.2c0.8-0.3,0.9,0.1,0.7,0.7
		c-6.3,4.1-13.1,7.4-18.7,12.6C262.6,388,261.8,387.3,261.1,386.6z"/>
	<path id="XMLID_1571_" class="st45" d="M480.8,436.9c4.7-3.2,9.4-6.4,14.1-9.7c0,1,0.1,1.9,0.1,2.9c-4.4,2.5-8.8,5-13.3,7.5
		C480.9,438.1,480.7,437.6,480.8,436.9z"/>
	<path id="XMLID_1570_" class="st49" d="M453.2,475.7c3.3-2.1,6.6-4.2,10.2-5.8c0.2,6.1,0.2,6.1-5.8,6
		C456.1,475.9,454.7,475.8,453.2,475.7z"/>
	<path id="XMLID_1569_" class="st8" d="M463.4,427.2c-5.4,3-10.8,6-16.2,9c-0.7,0.4-0.9,0-0.9-0.6c5.7-3.6,11.4-7.2,17.1-10.8
		C463.4,425.6,463.4,426.4,463.4,427.2z"/>
	<path id="XMLID_1568_" class="st50" d="M136.5,571.1c5.2-2.9,10.4-5.8,15.6-8.7c0.2,0.3,0.4,0.6,0.6,0.9c-5.2,3-9.6,7.3-15.4,9.4
		C137,572.2,136.7,571.7,136.5,571.1z"/>
	<path id="XMLID_1567_" class="st46" d="M385.5,316.8c4-4,9.4-6,13.5-9.8c3-0.6,6-0.7,9-0.6c-7.5,0.9-13.2,5.5-19.5,9.1
		C387.6,316.1,386.5,316.4,385.5,316.8L385.5,316.8z"/>
	<path id="XMLID_1566_" class="st51" d="M218.4,348.3c5.2-3,10.4-5.9,15.6-8.9c0.1,0.2,0.2,0.4,0.4,0.6c-3.5,2.6-7.1,5.2-10.6,7.8
		c-1.1,0.8-2.5,1.2-2.5,3C220.3,349.9,219.3,349.1,218.4,348.3z"/>
	<path id="XMLID_1565_" class="st8" d="M481.4,383.4c-5.1-0.6-7.9,3.7-11.9,5.3c0-0.6,0-1.2-0.1-1.8c-0.5-3.2,0.7-4.6,4-4.1
		C476.1,383.3,478.8,382,481.4,383.4z"/>
	<path id="XMLID_1564_" class="st52" d="M144,577.8c4.5-3.1,9.3-5.7,14.1-8.3c0.8-0.4,0.9,0.1,0.8,0.7c-4.4,2.9-8.4,6.5-13.4,8.5
		C145.1,578.4,144.5,578.1,144,577.8z"/>
	<path id="XMLID_1563_" class="st53" d="M421.7,306.2c-6.2,2.4-11.3,6.6-17.1,9.9c-1.1,0.6-2.1,1.4-3.4,1.5c3.3-3.5,7.8-5.2,11.5-8
		c1.4-1.1,3.4-1.6,4.3-3.4C418.5,305.7,420.1,305.7,421.7,306.2z"/>
	<path id="XMLID_1562_" class="st54" d="M253.5,526.1c3.5-2.5,7-4.9,10.5-7.4c1,0.2,2.1,0.4,3.1,0.6c-3.9,3-8.4,5.2-12.8,7.5
		C253.5,527.3,253.4,526.8,253.5,526.1z"/>
	<path id="XMLID_1561_" class="st55" d="M187.5,286.1c-4,3.5-7.9,7.3-12.7,9.8c-0.1-1-0.1-2-0.2-2.9c4-2.3,8.1-4.5,12.1-6.8
		C187,285.8,187.2,285.8,187.5,286.1z"/>
	<path id="XMLID_1560_" class="st56" d="M291.7,307.2c-0.2,1.8-1.6,2.8-2.9,3.6c-3.5,2-7,4-10.9,5.4c3.9-3,7.7-6,11.6-9
		C290.2,307.2,291,307.2,291.7,307.2z"/>
	<path id="XMLID_1559_" class="st57" d="M430.5,219.4c-3.3,3.6-7.9,5.2-12,7.5c-0.8,0.3-0.9-0.1-0.8-0.8c4-2.3,7-6,11.4-7.6
		C429.6,218.8,430,219.1,430.5,219.4z"/>
	<path id="XMLID_1558_" class="st58" d="M245.3,501.3c-3.7,2-7.5,4-11.2,6.1c-0.8,0.4-0.9-0.1-0.8-0.7c4.4-2.8,8.4-6.4,13.4-8.4
		C247,499.7,245.8,500.4,245.3,501.3z"/>
	<path id="XMLID_1557_" class="st59" d="M215.3,478.5c4.1-2.4,8.2-4.7,12.2-7.1C225.3,476.1,219.9,479.2,215.3,478.5z"/>
	<path id="XMLID_1556_" class="st60" d="M248.2,262.8c0-0.2,0-0.4,0-0.6c0.5,0,1,0,1.5,0c2.4,1.3,5,0.3,7.5,0.7
		c-2,2.3-4.9,3.1-7.5,4.4C247.6,266.4,247.9,264.6,248.2,262.8z"/>
	<path id="XMLID_1555_" class="st61" d="M416.2,490.8c-0.7-0.4-0.7-1.1-0.8-1.8c2.1-1.4,4.1-2.8,6.2-4.1c1.5,0,3,0,4.5,0.1
		C423.1,487.5,419.6,489.1,416.2,490.8z"/>
	<path id="XMLID_1554_" class="st62" d="M463.4,485.1c-4.5,3-9.2,5.7-14,8.1c-0.8,0.4-0.9,0-0.9-0.7c3.5-2.3,6.9-4.6,10.4-6.9
		C460.4,485.5,461.8,484.6,463.4,485.1z"/>
	<path id="XMLID_1553_" class="st55" d="M290.2,292.1c-3,2.2-6,4.5-9,6.7c-1.5,0-3,0-4.5-0.1c4.2-2.5,8.5-4.9,12.7-7.4
		C290.3,291,290.4,291.4,290.2,292.1z"/>
	<path id="XMLID_1552_" class="st42" d="M373.3,498.3c-3.2,1.7-6.4,3.4-9.6,5.1c-0.2-0.2-0.3-0.4-0.5-0.7c3.7-2.7,7.4-5.5,11-8.2
		C374.5,496,373.8,497.1,373.3,498.3z"/>
	<path id="XMLID_1551_" class="st63" d="M188.3,235.1c2.8-0.5,4.7-3.1,8.2-2.9c-2.3,2.2-4.6,4.3-7,6.5c-1.1,1-1.1-0.2-1.4-0.7
		C188.2,237,188.2,236.1,188.3,235.1z"/>
	<path id="XMLID_1550_" class="st64" d="M186.6,485.8c-3.7,2.2-7.4,4.4-11.1,6.7c1.4-3.2,4.5-4.4,6.7-6.6
		C183.7,485.8,185.1,485.8,186.6,485.8z"/>
	<path id="XMLID_1549_" class="st8" d="M170.2,378.3c-2.7,1.8-5.4,3.6-8.1,5.3c-0.4-1.4,0.5-2.5,0.7-3.8c2.3-0.5,4-2.9,6.7-2.5
		C170.1,377.4,170.5,377.6,170.2,378.3z"/>
	<path id="XMLID_1548_" class="st65" d="M432.1,473.5c2.7-1.4,5.4-2.7,8.2-4.1c-0.8,3.1-4.1,2.9-6.1,4.5c-1.6,1.3-3.6,2-5.2,3.4
		c-0.9,0.2-1.9,0.5-2.5-0.6C428.4,475.6,430.2,474.6,432.1,473.5z"/>
	<path id="XMLID_1547_" class="st17" d="M191.3,325.8c2.7-1.4,5.4-2.9,8.6-4.6c-1.4,3.2-4.4,4.4-5.7,7
		C193.2,327.4,192.2,326.6,191.3,325.8z"/>
	<path id="XMLID_1546_" class="st66" d="M188.3,249.3c2.7-1.5,5.4-3,8.1-4.5c0.8-0.3,0.9,0.1,0.8,0.8c-3,2-5.2,5.1-8.9,6
		C188.4,250.9,188.4,250.1,188.3,249.3z"/>
	<path id="XMLID_1545_" class="st67" d="M142.5,559c-3.1,2.1-6,4.5-9.5,6c-0.1-0.5-0.2-1-0.3-1.5c2.8-2.1,5.9-3.7,9-5.3
		C142.5,557.9,142.6,558.3,142.5,559z"/>
	<path id="XMLID_1544_" class="st68" d="M436,228.2c-2.8,1.5-5.6,3.1-8.5,4.6c-0.8,0.3-0.9-0.1-0.7-0.7c2.8-2,5.6-4.1,8.4-6.1
		C435.9,226.6,435.8,227.4,436,228.2z"/>
	<path id="XMLID_1543_" class="st69" d="M221.3,292.1c-2.8,2.2-5.5,4.5-8.3,6.7c-1.2,0-2.5,0-3.7,0c3.7-2.2,7.5-4.4,11.2-6.7
		C220.8,291.8,221,291.8,221.3,292.1z"/>
	<path id="XMLID_1542_" class="st70" d="M436.5,271.8c2.6-2,5.7-3.4,7.6-6.2c0.5,0.5,1,1,1.5,1.5c-2.1,2.8-5.7,3.5-8.4,5.5
		C436.5,272.9,436.3,272.5,436.5,271.8z"/>
	<path id="XMLID_1541_" class="st71" d="M486.5,458.3c2-1.6,4.1-3.1,6.1-4.7c2-1.7,1.6,0.2,1.8,1.2c-0.1,0.2-0.2,0.4-0.2,0.6
		c-2.5,1.3-4.9,2.6-7.4,3.8C486.4,459,486.3,458.7,486.5,458.3z"/>
	<path id="XMLID_1540_" class="st72" d="M193.5,307c-1.5,2.5-4.7,2.5-7,5.1c0.1-2.4,1.2-3.6,1.7-5C190,306.8,191.8,306.6,193.5,307z
		"/>
	<path id="XMLID_1539_" class="st8" d="M455.3,390.4c2.7-1.8,5.4-3.5,8.2-5.3c0,0.8,0,1.5-0.1,2.3c-2.4,1.2-4.8,2.5-7.2,3.7
		C455.4,391.6,455.2,391.1,455.3,390.4z"/>
	<path id="XMLID_1538_" class="st8" d="M489.7,481.1c0.2-0.4,0.5-0.8,0.7-1.2c1.1-1,1.9-2.4,3.8-1.9c0,1.3,0,2.5,0,3.8
		c-0.5,0.8-1.5,0.3-2.1,0.7C491.3,482.1,490.5,481.6,489.7,481.1z"/>
	<path id="XMLID_1537_" class="st73" d="M138,450.3c-2.2,1.5-4.5,3-6.7,4.5c0-0.7,0-1.5-0.1-2.2c1.9-1,3.9-2,5.8-3.1
		C137.8,449.1,138,449.5,138,450.3z"/>
	<path id="XMLID_1536_" class="st74" d="M128.3,526.8c1.8-0.7,3.2-2.6,5.5-2.1c-1.7,1.4-3.1,3.4-5.5,3.7
		C128.3,527.9,128.3,527.3,128.3,526.8z"/>
	<path id="XMLID_1535_" class="st8" d="M163.6,478.7c4.2-0.2,8.4-0.3,12.7-0.5C172.1,479.6,167.9,478.8,163.6,478.7z"/>
	<path id="XMLID_1534_" class="st75" d="M366.8,253.8c2.5-1.5,5-2.9,7.5-4.4c0.3-0.3,0.5-0.3,0.8,0c-1.2,2.1-4,2.4-5.3,4.5
		C368.8,253.8,367.8,253.8,366.8,253.8z"/>
	<path id="XMLID_1533_" class="st76" d="M456,331.1c2-2.3,4.5-3.6,7.4-4.5c0,0.3,0,0.5,0,0.8C460.9,328.5,458.9,330.7,456,331.1
		L456,331.1z"/>
	<path id="XMLID_1532_" class="st77" d="M385.5,253.9c1.7-1.8,3.9-2.7,6-3.8c0.3-0.3,0.5-0.3,0.8,0c-1.5,1.7-3.2,3.2-5.5,3.9
		C386.4,254,385.9,253.9,385.5,253.9z"/>
	<path id="XMLID_1531_" class="st8" d="M167.4,444.5c-1.8,1.2-3.6,2.4-5.3,3.6c0-0.8,0-1.5,0-2.3c1.8,0,2.9-1.7,4.5-2.1
		C166.9,443.9,167.4,443.9,167.4,444.5z"/>
	<path id="XMLID_1530_" class="st78" d="M258.8,298.7c1.9-1.5,3.7-2.9,6.5-3.5c-1,1.7-2.9,2-3.5,3.5
		C260.8,298.7,259.8,298.7,258.8,298.7z"/>
	<path id="XMLID_1529_" class="st79" d="M494.2,478.1c-1.3,0.6-2.5,1.3-3.8,1.9c0.5-2.2,2.2-3.3,3.7-4.7
		C494.2,476.2,494.2,477.1,494.2,478.1z"/>
	<path id="XMLID_1528_" class="st80" d="M385.5,299.5c2.1-1.4,4.3-2.8,6.7-3.7c0.2,0.2,0.3,0.3,0.2,0.5c-0.1,0.2-0.1,0.3-0.2,0.3
		c-1.2,1-2.8,1.5-3.7,2.9C387.5,299.5,386.5,299.5,385.5,299.5z"/>
	<path id="XMLID_1527_" class="st81" d="M144.8,486.4c-0.7,2.1-3,2.2-4.3,3.6c-0.5-0.7-0.3-1.4-0.2-2.1
		C141.6,486.9,143,485.9,144.8,486.4z"/>
	<path id="XMLID_1526_" class="st82" d="M162,340.8c1.9-0.6,3.2-2.6,6.3-2.8c-2.5,1.8-4.4,3-6.2,4.3
		C162.1,341.8,162.1,341.3,162,340.8z"/>
	<path id="XMLID_1525_" class="st83" d="M395.3,484.3c-1.7,1-2.7,3.7-5.4,1.9C391.5,484.9,393.3,484.5,395.3,484.3z"/>
	<path id="XMLID_1524_" class="st84" d="M128.3,517c1.1-0.6,2.1-1.6,3.9-1.8c-0.8,2-2.2,2.9-3.9,3.5
		C128.3,518.1,128.3,517.6,128.3,517z"/>
	<path id="XMLID_1523_" class="st8" d="M285,415c-1,1.2-2.3,2-3.7,2.5c-0.2-0.2-0.3-0.4-0.2-0.6c0.1-0.2,0.1-0.3,0.2-0.3
		c0.2-1.9,3.2-0.6,3.2-2.8C285,414,285.1,414.5,285,415z"/>
	<path id="XMLID_1522_" class="st8" d="M168,486.4c-1.5,1-3,2-4.5,2.9c-0.3,0.3-0.5,0.3-0.8,0c0.6-1.4,2-1.9,3-2.9
		C166.5,486.4,167.2,486.4,168,486.4z"/>
	<path id="XMLID_1521_" class="st85" d="M367.5,217c-1.3,1.3-2.8,2.3-4.7,2.7c1-1.4,2.4-2.2,4.1-2.7
		C367.2,216.8,367.4,216.8,367.5,217z"/>
	<path id="XMLID_1520_" class="st85" d="M437.1,250.8c-0.8,0.3-1.5,1.2-2.7,0.8c0.5-1.5,1.6-2.3,2.8-3.1
		C437.2,249.4,437.2,250.1,437.1,250.8z"/>
	<path id="XMLID_1519_" class="st86" d="M368.3,299.5c1.5-0.9,3-1.9,4.8-3c-0.3,1.9-1.9,2-2.5,3C369.8,299.5,369,299.5,368.3,299.5z
		"/>
	<path id="XMLID_1518_" class="st87" d="M420.8,254.5c1-1.1,2.4-1.6,3.8-2.1c0.4,1.1-0.8,1.4-0.9,2.2
		C422.7,254.6,421.8,254.6,420.8,254.5z"/>
	<path id="XMLID_1517_" class="st88" d="M131.1,420.4c0.8-1,1.8-1.6,3.3-1.5c-0.8,1.1-1.5,2.3-3.3,2.2
		C131.1,420.9,131.1,420.6,131.1,420.4z"/>
	<path id="XMLID_1516_" class="st8" d="M136.5,481.2c1.1-1.8,2.4-2.9,4.4-1C139.4,480.5,138,480.9,136.5,481.2z"/>
	<path id="XMLID_1515_" class="st89" d="M174,580.8c1.1-1.1,2.4-1.6,4.3-2.2c-0.9,2.2-2.3,2.1-3.5,2.3
		C174.5,580.9,174.3,580.9,174,580.8z"/>
	<path id="XMLID_1514_" class="st90" d="M341.2,424.9c1.1-1,1.9-2.6,3.7-1.4c-1.2,0.7-2.3,1.5-3.5,2.2
		C341.3,425.4,341.3,425.2,341.2,424.9z"/>
	<path id="XMLID_1513_" class="st91" d="M410.3,484.1c-1.1,1.2-2.4,2-4,2.2C407,484.5,408.2,483.4,410.3,484.1z"/>
	<path id="XMLID_1512_" class="st92" d="M437.3,238.1c-0.8,0.3-1.5,0.5-2.3,0.8c-0.8,0.3-0.9-0.1-0.7-0.8c1-0.7,1.9-1.5,2.9-2.2
		C437.2,236.6,437.2,237.3,437.3,238.1z"/>
	<path id="XMLID_1511_" class="st8" d="M492.7,497.6c0.3-0.8,0.8-1.2,1.6-1.5c0.7,0.5,0.7,1.3,0.8,2.1c-0.1,0.1-0.1,0.2-0.2,0.3
		C493.9,499,492.9,499.2,492.7,497.6z"/>
	<path id="XMLID_1510_" class="st93" d="M355.5,297.3c-0.3,1.2-1.6,1.3-2.2,2.1c-0.5,0-1,0-1.5,0c0.6-1.3,1.9-1.5,3-2.1
		C355,297.1,355.3,297.1,355.5,297.3z"/>
	<path id="XMLID_1509_" class="st8" d="M162.1,475.8c0.8,0.4,1.9-1,2.2,0c0.3,1.3-1.2,1.3-2,1.7C162.2,477,162.1,476.4,162.1,475.8z
		"/>
	<path id="XMLID_1508_" class="st94" d="M199.5,487c0-0.5,0-1,0-1.5c0.8-0.1,1.6-0.4,1.9,0.7c-0.4,0.8-0.7,1.7-1.9,1.6
		c-0.2-0.2-0.2-0.4-0.2-0.6C199.4,487.1,199.4,487,199.5,487z"/>
	<path id="XMLID_1507_" class="st95" d="M232.5,254.5c0.5-0.2,1-0.4,1.5-0.6c1-0.5,2-0.8,3,0c0,0.2,0,0.4,0,0.6
		C235.5,254.4,234,254.4,232.5,254.5z"/>
	<path id="XMLID_1506_" class="st96" d="M345,519.4c-1,0.4-1.9,2.7-2.8,0C343.1,519.4,344,519.4,345,519.4z"/>
	<path id="XMLID_1505_" class="st8" d="M492,482.5c0.5-0.9,1.4-0.7,2.1-0.7c0.1,0.6,0.3,1.5-0.3,1.6
		C493.3,483.5,492.7,482.9,492,482.5z"/>
	<path id="XMLID_1504_" class="st8" d="M162.2,399.9c0.8-0.4,1.6-0.8,3-1.6c-0.9,1.8-2,2.2-3.1,2.7
		C162.2,400.6,162.2,400.2,162.2,399.9z"/>
	<path id="XMLID_1503_" class="st97" d="M357.1,401c0.1,1.6-1,2-2.3,2.1C355.5,402.4,355.8,401.2,357.1,401z"/>
	<path id="XMLID_1502_" class="st8" d="M490.5,490.7c-0.5,0.9-1.2,1.4-2.4,1.3c0.1-1.3,1.2-1,1.9-1.3
		C490.1,490.7,490.3,490.7,490.5,490.7z"/>
	<path id="XMLID_1501_" class="st27" d="M303.7,307.2c0,0.2,0,0.4,0,0.6c-1.3-0.1-2.6,0.4-3.7-0.6
		C301.3,307.2,302.5,307.2,303.7,307.2z"/>
	<path id="XMLID_1500_" class="st98" d="M463.7,583c0.7,0.1,1.5,0.1,2.2,0.2c-1.2,0.8-2.5,0.6-3.8,0.4
		C462.6,583.5,463.1,583.2,463.7,583z"/>
	<path id="XMLID_1499_" class="st99" d="M371.2,546.9c-10.6,7.1-21.1,14.2-31.7,21.3c-4.7,3.1-9.6,5.9-14,9.4
		c-4.2,3.3-8.7,3.9-13.7,3.1c0-1,0.9-1.1,1.5-1.4c18.5-10.7,37-21.4,55.5-32c0.7-0.4,1.6-0.7,2.4-1c0.2,0.1,0.3,0.3,0.2,0.4
		C371.4,546.8,371.3,546.9,371.2,546.9z"/>
	<path id="XMLID_1498_" class="st16" d="M399,552.3c-13.7,9.2-27.3,18.4-41,27.6c-3,2-6.3,0.7-9.9,0.2c16.7-9.5,33.3-19.1,50-28.6
		C399,551.1,399.1,551.6,399,552.3z"/>
	<path id="XMLID_1497_" class="st16" d="M231,558.3c-9.9,7.1-19.9,14.3-29.8,21.4c-3.2,2.3-6.8,0.5-10.1,1.4c-0.1-0.3-0.3-0.6-0.4-1
		c13.2-7.5,26.4-15.1,39.6-22.6C231,557.2,231.1,557.6,231,558.3z"/>
	<path id="XMLID_1496_" class="st16" d="M254.2,558.3c-9.9,7.1-19.9,14.2-29.8,21.4c-3.2,2.3-6.8,0.7-10.5,0.5
		c13.2-7.5,26.3-15.1,39.5-22.6C254.3,557.3,254.4,557.6,254.2,558.3z"/>
	<path id="XMLID_1495_" class="st24" d="M316.5,557.6c-11.3,7.5-22.6,14.9-34,22.4c-2.5,1.7-5.3,0.6-8.3,0.2
		c13.8-7.8,27.5-15.7,41.3-23.5C316.3,556.5,316.6,556.9,316.5,557.6z"/>
	<path id="XMLID_1494_" class="st100" d="M471.7,488.6c-0.1,2-2.7,2.8-2.4,5c-1.7,2.5-4.3,4-6.9,5.5c-6.6,3.7-13.2,7.5-19.8,11.2
		c-0.9-0.2-1.9-0.2-1.6-1.6c9.7-6.5,19.3-13,29-19.4C470.5,489,471.1,488.9,471.7,488.6z"/>
	<path id="XMLID_1493_" class="st101" d="M290.4,559.5c-8.4,5.9-16.9,11.9-25.3,17.8c-5.5,3.8-5.5,3.8-13.6,3.4
		c13.3-7.7,25.8-14.9,38.3-22.1C290,558.9,290.2,559.2,290.4,559.5z"/>
	<path id="XMLID_1492_" class="st101" d="M492.7,497.6c0.5,0.8,1.4,0.7,2.2,0.9c0.2,1.6-0.1,2.8-1.7,3.7c-9.7,5.4-19.3,11-29,16.5
		c-1.9-1.4,0.6-1.7,0.7-2.5C474.1,509.7,483.2,503.3,492.7,497.6z"/>
	<path id="XMLID_1491_" class="st102" d="M419.9,561.2c-8.8,6.1-17.6,12.2-26.4,18.4c-2.8,2-5.8,1.1-9,0.6
		c11.5-6.6,23-13.2,34.5-19.7C419.9,560.1,420.1,560.5,419.9,561.2z"/>
	<path id="XMLID_1490_" class="st103" d="M422.9,495.9c0.1,1.6-1,2.4-2.2,3.2c-0.5,0.3-1.6,0.6-0.6,1.6c-7.8,4.5-15.5,9-23.3,13.5
		c-0.8,0.3-0.9-0.1-0.8-0.7C405,507.6,414,501.8,422.9,495.9z"/>
	<path id="XMLID_1489_" class="st104" d="M440.9,508.7c0.5,0.5,1,1.1,1.6,1.6c-5,3.4-10.3,6.3-15.6,9.1c-0.8,0.3-1-0.1-0.9-0.8
		C431,515.3,436,512,440.9,508.7z"/>
	<path id="XMLID_1488_" class="st105" d="M169.5,574.9c-3.9,2.2-6.7,6.5-12.2,5.3c3.7-2.1,7.5-4.2,11.2-6.2
		C169.5,573.6,169.7,574.1,169.5,574.9z"/>
	<path id="XMLID_1487_" class="st106" d="M276,534.3c0.3,0.7,0.5,1.4,0.8,2.1c-3.2,1.8-6.4,3.6-9.6,5.5c-0.8,0.4-0.9-0.1-0.9-0.7
		C269.5,538.9,272.7,536.6,276,534.3z"/>
	<path id="XMLID_1486_" class="st107" d="M297.6,535.6c0.4,0.8,1.1,1,1.9,1.1c-2.8,2.2-5.9,3.7-9,5.3c-0.8,0.3-1,0-0.9-0.8
		C292.2,539.3,294.9,537.5,297.6,535.6z"/>
	<path id="XMLID_1485_" class="st108" d="M464.9,516.1c0.3,1-1.7,1.4-0.7,2.5c-2.4,2.1-5.3,3.1-8,4.6c-0.9,0.4-0.9-0.1-1-0.8
		C458.4,520.2,461.5,517.9,464.9,516.1z"/>
	<path id="XMLID_1484_" class="st109" d="M305.3,575.7c-3.1,2.3-6.1,4.6-10.1,5c3.1-2.5,6.4-4.5,10-6
		C305.6,575.1,305.6,575.4,305.3,575.7z"/>
	<path id="XMLID_1483_" class="st110" d="M238.5,524.6c0.3,0.3,0.6,0.6,0.9,0.8c-1.5,1.2-3,2.3-5.7,2.9
		C235.3,526.2,236.9,525.4,238.5,524.6z"/>
	<path id="XMLID_1482_" class="st111" d="M426,518.6c0.3,0.3,0.6,0.6,0.9,0.8c-1.5,1.1-3,2.3-5.7,2.9
		C422.8,520.2,424.4,519.4,426,518.6z"/>
	<path id="XMLID_1481_" class="st112" d="M169.5,574.9c-0.3-0.3-0.6-0.6-1-0.9c1.4-1.2,2.9-2,5.4-3
		C172.6,573.4,171,574.1,169.5,574.9z"/>
	<path id="XMLID_1480_" class="st113" d="M396,513.4c0.3,0.2,0.5,0.5,0.8,0.7c-1.5,1.2-3,2.2-5.8,3C392.9,515,394.4,514.1,396,513.4
		z"/>
	<path id="XMLID_1479_" class="st114" d="M334.4,536.5c0.5,0.2,1.1,0.5,1.6,0.7c-1.5,0.8-2.9,1.7-4.4,2.5c-0.8,0.3-1-0.1-0.8-0.8
		C332,538.1,333.2,537.3,334.4,536.5z"/>
	<path id="XMLID_1478_" class="st115" d="M453.9,524.7c-1.5,1.2-3,2.2-5.6,3.1c1.5-2.2,3.2-3,4.7-3.8
		C453.4,524.1,453.8,524.2,453.9,524.7z"/>
	<path id="XMLID_1477_" class="st116" d="M229.6,519.5c0.3,0.2,0.5,0.5,0.8,0.7c-1.4,1.1-2.9,2.2-5.4,3.1
		C226.4,521,228,520.3,229.6,519.5z"/>
	<path id="XMLID_1476_" class="st117" d="M316.5,557.6c-0.3-0.3-0.6-0.6-1-0.9c1-1.1,2.4-1.7,3.8-2.2c0.8-0.4,1,0,0.9,0.8
		C319,556,317.7,556.8,316.5,557.6z"/>
	<path id="XMLID_1475_" class="st118" d="M305.3,575.7c0-0.3-0.1-0.7-0.1-1c1.2-1.2,2.6-2,4.9-2.8C308.8,574.3,307,575,305.3,575.7z
		"/>
	<path id="XMLID_1474_" class="st119" d="M472.5,532.8c0.3,0.3,0.6,0.6,1,0.9c-1,1.1-2.3,1.6-4,2.2
		C469.8,533.8,471.3,533.5,472.5,532.8z"/>
	<path id="XMLID_1473_" class="st120" d="M162.7,534.2c-0.3-0.2-0.5-0.5-0.8-0.7c1.3-1.1,2.6-2,4.8-2.7
		C165.6,532.8,164.1,533.5,162.7,534.2z"/>
	<path id="XMLID_1472_" class="st121" d="M320.2,555.3c-0.3-0.3-0.6-0.5-0.9-0.8c1.5-0.9,2.9-1.8,4.4-2.7
		C323.2,553.9,321.6,554.5,320.2,555.3z"/>
	<path id="XMLID_1471_" class="st122" d="M448.6,492.5c0.3,0.2,0.6,0.5,0.9,0.7c-1.3,1-2.7,2-4.9,2.7
		C445.5,493.8,447.1,493.3,448.6,492.5z"/>
	<path id="XMLID_1470_" class="st123" d="M399,552.3c-0.3-0.2-0.6-0.5-0.8-0.7c1.3-1.1,2.8-2.1,5.3-2.8
		C401.9,550.8,400.4,551.5,399,552.3z"/>
	<path id="XMLID_1469_" class="st124" d="M207.7,511.1c0.3,0.3,0.6,0.6,0.9,0.8c-1.2,0.8-2.5,1.5-3.7,2.3c-0.8,0.3-0.9-0.1-0.8-0.8
		C205.3,512.7,206.5,511.9,207.7,511.1z"/>
	<path id="XMLID_1468_" class="st125" d="M330.8,538.9c0.3,0.3,0.6,0.5,0.8,0.8c-1,0.7-2.1,1.4-4,2.6
		C328.5,540,329.7,539.5,330.8,538.9z"/>
	<path id="XMLID_1467_" class="st126" d="M204.1,513.4c0.3,0.3,0.5,0.5,0.8,0.8c-1,0.7-2.1,1.4-3.9,2.6
		C201.8,514.5,203,514,204.1,513.4z"/>
	<path id="XMLID_1466_" class="st127" d="M253.5,526.1c0.3,0.3,0.6,0.5,0.8,0.8c-1.2,1-2.5,1.9-4.4,1.6
		C251.1,527.7,252.3,526.9,253.5,526.1z"/>
	<path id="XMLID_1465_" class="st128" d="M419.9,561.2c-0.3-0.3-0.6-0.5-0.8-0.8c0.9-0.9,1.9-1.7,3.8-1.6
		C422,560.3,421,560.8,419.9,561.2z"/>
	<path id="XMLID_1464_" class="st118" d="M483.7,562c0.3,0.3,0.7,0.6,1,0.9c-0.7,1-1.8,1.4-3.2,1.9
		C481.6,563.1,482.8,562.7,483.7,562z"/>
	<path id="XMLID_1463_" class="st129" d="M199.5,487c0,0.3,0,0.6,0,0.9c-0.4,0.5-0.7,1.4-1.6,0.8c-0.3-0.2-0.6-0.9-0.5-1.2
		C197.8,486.5,198.6,486.5,199.5,487z"/>
	<path id="XMLID_1462_" class="st130" d="M233.3,506.7c0.3,0.2,0.5,0.5,0.8,0.7c-1,0.9-2,1.6-3.8,1.8
		C231,507.7,232.2,507.2,233.3,506.7z"/>
	<path id="XMLID_1461_" class="st131" d="M289.5,541.2c0.3,0.3,0.6,0.5,0.9,0.8c-0.9,0.8-1.8,1.5-3.3,1.6
		C287.4,542.1,288.6,541.7,289.5,541.2z"/>
	<path id="XMLID_1460_" class="st132" d="M453.9,524.7c-0.3-0.3-0.6-0.5-0.9-0.8c0.8-0.5,1.5-1,2.3-1.5c0.3,0.3,0.6,0.5,1,0.8
		C455.6,524,454.9,524.5,453.9,524.7z"/>
	<path id="XMLID_1459_" class="st133" d="M371.2,546.9c0-0.2,0-0.4,0-0.7c0.5-1,1.4-1.2,2.6-1.5
		C373.3,546.2,372.3,546.5,371.2,546.9z"/>
	<path id="XMLID_1458_" class="st89" d="M477,551.6c0.3,0.2,0.5,0.5,0.8,0.7c-0.7,0.8-1.5,1.2-2.6,1.4
		C475,552.3,476.2,552.1,477,551.6z"/>
	<path id="XMLID_1457_" class="st134" d="M420,522.9c-0.5,1.3-1.4,1.5-2.2,1.7c-0.3-0.2-0.4-0.2-0.5-0.3
		C418.1,523.7,418.8,522.9,420,522.9z"/>
	<path id="XMLID_1456_" class="st135" d="M159,570.2c-0.3-0.2-0.5-0.5-0.8-0.7c0.8-0.7,1.6-1.4,3-1.4
		C160.9,569.5,159.9,569.8,159,570.2z"/>
	<path id="XMLID_1455_" class="st117" d="M266.3,541.2c0.3,0.2,0.6,0.5,0.9,0.7c-0.8,0.5-1.5,1-2.3,1.5c-0.8,0.3-0.9-0.1-0.8-0.7
		C264.8,542.2,265.5,541.7,266.3,541.2z"/>
	<path id="XMLID_1454_" class="st136" d="M264,542.7c0.3,0.2,0.5,0.5,0.8,0.7c-0.7,0.7-1.5,1.2-2.5,1.3
		C262,543.3,263.3,543.2,264,542.7z"/>
	<path id="XMLID_1453_" class="st137" d="M443.1,497.1c-0.6,0.3-0.9,0.6-1.3,0.7c-0.5,0.2-0.8-0.1-0.6-0.5c0.1-0.4,0.5-0.7,0.9-0.9
		C442.2,496.5,442.6,496.8,443.1,497.1z"/>
	<path id="XMLID_1452_" class="st138" d="M279,520.7c0.5,0.1,1.1,0.1,0.8,0.6c-0.2,0.4-0.7,0.6-1.2,0.7c-0.1,0-0.4-0.4-0.6-0.7
		C278.4,521.1,278.8,520.9,279,520.7z"/>
	<path id="XMLID_1451_" class="st139" d="M135.9,523.4c-0.1-1.4,0.9-1.3,1.6-1.6C137.6,523,136.7,523,135.9,523.4z"/>
	<path id="XMLID_1450_" class="st140" d="M144,556.9c0.6-0.6,1.1-1.4,2.1-0.9c0.1,0.1,0.1,0.5,0,0.6
		C145.5,557.5,144.8,557.4,144,556.9L144,556.9z"/>
	<path id="XMLID_1449_" class="st119" d="M231,558.3c-0.3-0.2-0.5-0.5-0.8-0.7c0.8-0.5,1.5-1,2.3-1.4l0-0.1
		C233,557.4,232,557.9,231,558.3z"/>
	<path id="XMLID_1448_" class="st8" d="M162.7,489.3c0.3,0,0.5,0,0.8,0c-0.6,0.7-1.3,1.3-2.3,1.2c0,0-0.1-0.5,0-0.5
		C161.7,489.7,162.2,489.5,162.7,489.3z"/>
	<path id="XMLID_1447_" class="st141" d="M254.2,558.3c-0.3-0.2-0.5-0.5-0.8-0.7c0.7-0.6,1.5-1.7,2.2-0.8
		C256.2,557.5,255,558,254.2,558.3z"/>
	<path id="XMLID_1446_" class="st142" d="M142.5,559c-0.3-0.2-0.6-0.5-0.8-0.7c0.8-0.5,1.6-0.9,2.4-1.4c0,0-0.1,0-0.1,0
		C144.5,558.2,143.5,558.6,142.5,559z"/>
	<path id="XMLID_1445_" class="st143" d="M177.6,569c-0.4,1-1.1,1.8-1.7,1.4c-0.8-0.6,0.4-0.8,0.7-1.1
		C176.7,569.1,177.1,569.1,177.6,569z"/>
	<path id="XMLID_1444_" class="st144" d="M232.5,556.1c0.6-0.6,1.1-1.3,2.1-0.9c0.1,0,0.1,0.5,0,0.6
		C234,556.8,233.3,556.7,232.5,556.1C232.5,556,232.5,556.1,232.5,556.1z"/>
	<path id="XMLID_1443_" class="st145" d="M180,578.2c0.3-1.3,1-1.5,1.8-1.6C181.8,577.7,181,577.8,180,578.2z"/>
	<path id="XMLID_1442_" class="st146" d="M357.7,308c0.2,0,0.4,0,0.6,0c1,0.9,1,1.9,0.1,2.9c-1.8,3.3-5.5,4-8.4,5.7
		c-6.9,4.2-13.8,8.2-21.3,11.5C338.5,321.4,348.1,314.7,357.7,308z"/>
	<path id="XMLID_1441_" class="st27" d="M323.8,308c1.8,0,3.6,0,5.5,0c-10.7,6.2-21.4,12.5-32.1,18.7
		C305.2,319.2,314.5,313.6,323.8,308z"/>
	<path id="XMLID_1440_" class="st56" d="M376.5,310.1c0,0.6,0.2,1.2,0.8,1.5c-0.6,2.5-3.2,2.6-4.8,3.6c-6,3.7-12.1,7.1-18.5,10.2
		C361.4,320.2,368.4,314.4,376.5,310.1z"/>
	<path id="XMLID_1439_" class="st33" d="M224.2,307.1c2.3,0,4.6,0,6.8,0c-4.5,2.7-9,5.4-13.4,8.1c-0.1-0.2-0.3-0.3-0.4-0.5
		C219.5,312.2,221.9,309.7,224.2,307.1z"/>
	<path id="XMLID_1438_" class="st33" d="M358.5,310.8c0-1-0.1-1.9-0.1-2.9c2.3,0,4.6,0,6.9,0C363.2,309.3,361.7,312,358.5,310.8z"/>
	<path id="XMLID_1437_" class="st147" d="M342.7,362.6c-0.3-0.3-0.5-0.5-0.8-0.8c2.3-1.8,4.8-3.2,7.6-4.2
		C347.6,359.8,345.3,361.3,342.7,362.6z"/>
	<path id="XMLID_1436_" class="st147" d="M338.2,379.8c-0.2-0.2-0.5-0.5-0.7-0.7c2.3-1.7,4.7-3.3,8.4-4.8
		C343.3,377.3,340.4,378.1,338.2,379.8z"/>
	<path id="XMLID_1435_" class="st148" d="M399.7,318.3c-1.4,2.3-3.8,3.2-6,4.5C394.9,320.2,397.5,319.5,399.7,318.3z"/>
	<path id="XMLID_1434_" class="st33" d="M207.6,307.2c1.1,0,2.1,0,3.2,0c-1.5,0.9-3,1.9-4.6,2.9
		C205.9,308.5,207.5,308.3,207.6,307.2z"/>
	<path id="XMLID_1433_" class="st149" d="M282,376.1c-0.2-0.2-0.5-0.5-0.7-0.7c1-1.1,2.4-1.7,4.1-1.6
		C284.2,374.5,283.1,375.3,282,376.1z"/>
	<path id="XMLID_1432_" class="st34" d="M387.9,327.3c-1,1.5-2.1,1.8-3.9,2.4C385.3,327.9,386.5,327.6,387.9,327.3z"/>
	<path id="XMLID_1431_" class="st150" d="M381.8,319.1c-0.6,1.4-1.9,1.6-3.9,2.5C379.3,319.7,380.4,319.3,381.8,319.1L381.8,319.1z"
		/>
	<path id="XMLID_1430_" class="st46" d="M381.7,319.1c0.8-1.5,2.2-2,3.8-2.3c0,0,0,0,0,0C384.7,318.4,383.3,318.8,381.7,319.1
		C381.8,319.1,381.7,319.1,381.7,319.1z"/>
	<path id="XMLID_1429_" class="st34" d="M248.2,262.8c0.9,1.4,0.2,3.3,1.5,4.5c-3.1,3-7.1,4.4-10.7,6.6c-4.3,2.6-8.8,5.1-13.1,7.7
		c-0.2-0.2-0.4-0.5-0.5-0.7c4.1-3.2,8.1-6.4,12.2-9.7c3.4-2.7,6.7-5.5,10-8.3C247.8,262.9,248,262.8,248.2,262.8z"/>
	<path id="XMLID_1428_" class="st38" d="M337.5,280.8c6.2-5.3,12.5-10.6,19.5-15c1.2,0.5,2.2,1.2,3,2.2c-7.2,4.2-14.5,8.5-21.7,12.7
		C338,281.1,337.7,281.1,337.5,280.8z"/>
	<path id="XMLID_1427_" class="st36" d="M271.5,262.9c0.7,0,1.5,0,2.2,0c0.7,0.7,0.6,1.4,0.1,2.2c-4.4,3.3-9.3,5.8-14.2,8.3
		c-0.8,0.3-1-0.1-0.8-0.8C263,269.4,267.3,266.1,271.5,262.9z"/>
	<path id="XMLID_1426_" class="st38" d="M322.5,275.6c4.3-3.2,8.6-6.4,12.9-9.5c0.6-0.5,1.2-2,2.3-0.6c1,1.3,0.6,2.2-0.8,3
		c-4.5,2.6-9.1,5.2-13.6,7.8C322.5,276.6,322.3,276.3,322.5,275.6z"/>
	<path id="XMLID_1425_" class="st151" d="M360,268.1c-1.4-0.3-2.7-0.5-3-2.2c0.5-1.4,1.9-1.9,2.9-2.8c2.8,0,5.6,0,8.4,0
		C365.5,264.7,362.7,266.4,360,268.1z"/>
	<path id="XMLID_1424_" class="st63" d="M225.7,265.9c0,0.6,0.1,1.2,0.7,1.5c-4.2,2.5-8.5,5-12.7,7.5c-0.3,0.3-0.5,0.3-0.8,0
		c3.3-3.6,7.6-6.1,11.4-9.3C224.6,265.4,225.3,265.8,225.7,265.9z"/>
	<path id="XMLID_1423_" class="st152" d="M420.4,271.2c3.7-2.7,7.3-5.3,11.1-8.1C431.6,265.8,428.4,268.2,420.4,271.2z"/>
	<path id="XMLID_1422_" class="st153" d="M303.8,262.9c1.2,0,2.4,0,3.6,0.1c-3.6,2.2-7.1,4.7-11.4,6
		C298.6,267,301.2,265,303.8,262.9z"/>
	<path id="XMLID_1421_" class="st154" d="M320.9,262.9c1.3,0,2.6,0,4,0c-2.4,2.2-5.6,3.3-8.3,5.1l0,0c-0.8-1.3,0.1-1.8,1.1-2.5
		C318.7,264.8,320.3,264.4,320.9,262.9z"/>
	<path id="XMLID_1420_" class="st155" d="M316.5,268.1c-3.2,2-6.4,4-9.6,6c-0.2-0.3-0.4-0.6-0.5-0.9
		C310.1,272.1,311.8,267.4,316.5,268.1C316.5,268.1,316.5,268.1,316.5,268.1z"/>
	<path id="XMLID_1419_" class="st156" d="M414.8,263c0.2-0.1,0.5-0.1,0.7-0.1c1.2,1.1,0.2,1.7-0.6,2.2c-1.8,1.1-3.6,2.1-5.4,3.1
		c-0.8,0.3-0.9-0.1-0.8-0.8C410.8,265.9,412.8,264.4,414.8,263z"/>
	<path id="XMLID_1418_" class="st157" d="M446.1,294c1.2-1.8,2-4,4.3-5.3C451.6,292.8,448.5,293.1,446.1,294z"/>
	<path id="XMLID_1417_" class="st158" d="M398.1,263c1,0,2.1,0,3.1,0c-2.1,1.5-4.1,3.1-6.8,3.6c-0.3,0.3-0.5,0.3-0.7-0.1
		C395.2,265.4,396.7,264.2,398.1,263z"/>
	<path id="XMLID_1416_" class="st158" d="M381.6,263.1c1,0,2.1,0,3.1,0c-1.6,1.9-4,2.2-6.1,3.3C379.2,264.8,381.1,264.6,381.6,263.1
		z"/>
	<path id="XMLID_1415_" class="st78" d="M258.7,272.6c0.3,0.3,0.5,0.5,0.8,0.8c-1.3,1.2-2.8,2.3-5.2,3.1
		C255.6,274.2,257.4,273.7,258.7,272.6z"/>
	<path id="XMLID_1414_" class="st159" d="M408.8,267.3c0.3,0.3,0.5,0.5,0.8,0.8c-1.5,1-3,1.9-4.5,2.9
		C405.6,268.9,407.4,268.4,408.8,267.3z"/>
	<path id="XMLID_1413_" class="st160" d="M315,289.8c-0.2-0.3-0.5-0.5-0.7-0.8c1-1.1,2.4-1.7,4.1-1.6
		C317.2,288.3,316.1,289.1,315,289.8z"/>
	<path id="XMLID_1412_" class="st60" d="M273.8,265.1c0-0.7,0-1.5-0.1-2.2c1.3,0,2.6,0,3.8,0C276.3,263.6,275,264.4,273.8,265.1z"/>
	<path id="XMLID_1411_" class="st161" d="M322.5,275.6c0.2,0.2,0.5,0.5,0.7,0.7c-1,1.1-2.4,1.7-4.1,1.6
		C320.3,277.1,321.4,276.4,322.5,275.6z"/>
	<path id="XMLID_1410_" class="st162" d="M436.5,271.8c0.2,0.2,0.5,0.5,0.7,0.7c-1,1.1-2.4,1.7-4.1,1.6
		C434.3,273.4,435.4,272.6,436.5,271.8z"/>
	<path id="XMLID_1409_" class="st76" d="M393.8,266.6c0.2,0,0.5,0,0.7,0.1c-0.6,1.4-1.8,1.7-3.3,2.2
		C391.6,267.2,392.9,267.2,393.8,266.6z"/>
	<path id="XMLID_1408_" class="st160" d="M290.2,292.1c-0.2-0.2-0.5-0.5-0.7-0.7c0.6-0.9,1.4-1.1,2.4-1.4
		C291.9,291.3,291,291.6,290.2,292.1z"/>
	<path id="XMLID_1407_" class="st163" d="M355.5,297.3c-0.3,0-0.5,0-0.8,0c0.6-0.8,1.3-1.2,2.5-1.2
		C357.1,297.2,356.3,297.3,355.5,297.3z"/>
	<path id="XMLID_1406_" class="st164" d="M392.2,296.6c0-0.3,0-0.5,0-0.8c0.3-0.6,0.7-1.3,1.8-1.2
		C393.8,295.7,393.1,296.2,392.2,296.6z"/>
	<path id="XMLID_1405_" class="st165" d="M221.3,292.1c-0.3,0-0.5,0-0.8,0c0.5-0.9,1.4-1.1,2.6-1.5C222.8,292,222,292,221.3,292.1z"
		/>
	<path id="XMLID_1404_" class="st166" d="M435.8,286.1c0,0.3,0,0.5,0,0.8c-0.3,0.6-0.7,1.3-1.8,1.2
		C434.2,287,434.9,286.5,435.8,286.1z"/>
	<path id="XMLID_1403_" class="st167" d="M187.5,286.1l-0.4,0c0,0-0.4,0-0.4,0c0.6-0.8,1.3-1.3,2.5-1.2
		C189.1,286,188.3,286,187.5,286.1z"/>
	<path id="XMLID_1402_" class="st168" d="M420.7,290.6c0-0.3,0-0.5,0-0.8c0.3-0.6,0.7-1.3,1.8-1.2
		C422.3,289.7,421.6,290.2,420.7,290.6z"/>
	<path id="XMLID_1401_" class="st169" d="M337.5,280.8c0.3,0,0.5,0,0.8,0c-0.6,0.8-1.3,1.3-2.5,1.2
		C335.9,281,336.7,280.9,337.5,280.8z"/>
	<path id="XMLID_1400_" class="st170" d="M213,274.8c0.3,0,0.5,0,0.8,0c-0.6,0.8-1.3,1.2-2.5,1.2C211.4,275,212.2,274.9,213,274.8z"
		/>
	<path id="XMLID_1399_" class="st14" d="M291.5,495c-9.5,4.5-16.1,13.9-27.1,15.8c-0.2-0.4-0.4-0.8-0.7-1.1
		c9-5.2,18.1-10.5,27.1-15.7C291.1,494.3,291.3,494.6,291.5,495z"/>
	<path id="XMLID_1398_" class="st171" d="M349.9,505.2c-3.2,1.5-4.9,5.8-10,4.9c3.4-2.1,6.4-3.9,9.4-5.7
		C349.5,504.6,349.7,504.9,349.9,505.2z"/>
	<path id="XMLID_1397_" class="st42" d="M310.5,439.1c-0.6,1.4-1.8,1.7-3.7,2.3C308,439.7,309.2,439.3,310.5,439.1
		C310.5,439.1,310.5,439.1,310.5,439.1z"/>
	<path id="XMLID_1396_" class="st42" d="M315.8,445.8c-0.6,1.4-1.8,1.7-3.7,2.3C313.3,446.4,314.5,446,315.8,445.8L315.8,445.8z"/>
	<path id="XMLID_1395_" class="st14" d="M353.3,475.1c-0.6,1.4-1.8,1.7-3.7,2.3C350.8,475.7,352,475.3,353.3,475.1L353.3,475.1z"/>
	<path id="XMLID_1394_" class="st172" d="M357,236.6c7.3-5.9,14.7-11.8,21.9-17.8c2.3-1.9,4.9-1.5,7.5-1.5c1.7-0.1,3.4,0,5.4,0.7
		c-11.3,6.5-22.7,13-34,19.4C357,237.6,356.8,237.3,357,236.6z"/>
	<path id="XMLID_1393_" class="st41" d="M294.8,235.1c6.2-4.8,12.7-9.3,18.4-14.5c4.3-4,8.9-3.4,14.8-3.3
		c-11.4,6.5-22,12.6-32.5,18.6C294.7,236.2,294.6,235.8,294.8,235.1z"/>
	<path id="XMLID_1392_" class="st173" d="M208.5,229.1c3.2-4.3,7.7-7.5,11.7-11c2.7-2.4,6.7-0.5,10.4-0.3c-7.1,4-14.2,8-21.2,12
		C208.5,230.1,208.3,229.8,208.5,229.1z"/>
	<path id="XMLID_1391_" class="st174" d="M280.5,229.8c4.9-3.8,9.9-7.5,14.8-11.3c2.6-2.1,5.6-1.2,8.6-0.7
		c-7.5,4.3-15.1,8.5-22.6,12.8C280.5,230.9,280.3,230.5,280.5,229.8z"/>
	<path id="XMLID_1390_" class="st175" d="M231,227.6c3.5-2.7,7.2-5.2,10.6-8.1c2.5-2.2,5.2-2.7,9.2-2c-6.8,3.9-12.9,7.4-19,10.9
		C231,228.6,230.8,228.3,231,227.6z"/>
	<path id="XMLID_1389_" class="st176" d="M252.8,225.4c2.8-2,5.6-4,8.4-6.1c2.2-1.7,4.5-2.6,7.9-1.8c-5.4,3.1-10.2,6.4-15.5,8.7
		C252.7,226.4,252.6,226.1,252.8,225.4z"/>
	<path id="XMLID_1388_" class="st177" d="M195.4,224.1c2.7-6.9,3.7-7.5,11.4-6.6C202.8,219.8,199.3,221.8,195.4,224.1z"/>
	<path id="XMLID_1387_" class="st178" d="M237,253.9c-1,0-2,0-3,0c3.5-2.6,7.3-4.7,11.2-6.7c0.8-0.3,0.9,0.1,0.8,0.8
		C243,249.8,240.6,252.7,237,253.9z"/>
	<path id="XMLID_1386_" class="st92" d="M207.8,250.1c-2.3,1.8-4.1,4.6-8.4,4.3c2.9-1.7,5.3-3,7.6-4.3
		C207.3,249.8,207.5,249.8,207.8,250.1z"/>
	<path id="XMLID_1385_" class="st179" d="M280.5,229.8c0.3,0.3,0.5,0.5,0.8,0.8c-1.5,1-3,1.9-4.5,2.9
		C277.3,231.5,279.2,230.9,280.5,229.8z"/>
	<path id="XMLID_1384_" class="st85" d="M252.8,225.4c0.3,0.3,0.5,0.5,0.8,0.8c-1.4,1.1-2.7,2.4-5.7,3
		C250,227.5,251.4,226.4,252.8,225.4z"/>
	<path id="XMLID_1383_" class="st180" d="M417.8,226.1c0.3,0.3,0.5,0.5,0.8,0.8c-1.4,1.1-2.7,2.4-5.6,3
		C415,228.2,416.4,227.2,417.8,226.1z"/>
	<path id="XMLID_1382_" class="st181" d="M272.2,244.8c-0.3-0.3-0.5-0.5-0.8-0.8c1.3-1.2,2.8-2.2,4.8-2.4
		C275,242.7,273.6,243.8,272.2,244.8z"/>
	<path id="XMLID_1381_" class="st182" d="M363,243.3c-0.3-0.3-0.5-0.5-0.8-0.8c1.4-1.1,2.7-2.4,5.6-2.9
		C365.7,241.2,364.3,242.3,363,243.3z"/>
	<path id="XMLID_1380_" class="st85" d="M318,235.9c0.3,0.3,0.5,0.5,0.8,0.8c-1.4,1.1-2.7,2.4-5.6,3
		C315.3,237.9,316.6,236.9,318,235.9z"/>
	<path id="XMLID_1379_" class="st183" d="M279.5,220c1.3-2.3,2.5-2.8,5-2.9C282.6,218.3,281.4,218.9,279.5,220z"/>
	<path id="XMLID_1378_" class="st184" d="M340.5,241.8c-0.2-0.2-0.5-0.5-0.7-0.7c1-0.7,1.9-1.4,2.9-2.2
		C342.5,240.4,341.6,241.2,340.5,241.8z"/>
	<path id="XMLID_1377_" class="st185" d="M246,247.8c-0.3-0.3-0.5-0.5-0.8-0.8c0.6-0.7,1.4-1.3,2.5-1.2
		C247.7,247.1,246.8,247.4,246,247.8z"/>
	<path id="XMLID_1376_" class="st186" d="M197.2,245.6c-0.3-0.3-0.5-0.5-0.8-0.8c0.6-0.7,1.4-1.3,2.5-1.2
		C199,244.8,198,245.1,197.2,245.6z"/>
	<path id="XMLID_1375_" class="st180" d="M299.2,242.6c-0.3-0.3-0.5-0.5-0.8-0.8c0.6-0.7,1.4-1.3,2.5-1.2
		C301,241.8,300,242.1,299.2,242.6z"/>
	<path id="XMLID_1374_" class="st187" d="M434.3,238.1c0.2,0.2,0.5,0.5,0.7,0.7c-0.6,0.7-1.4,1.3-2.5,1.2
		C432.6,238.9,433.5,238.6,434.3,238.1z"/>
	<path id="XMLID_1373_" class="st188" d="M294.8,235.1c0.2,0.2,0.5,0.5,0.7,0.7c-0.7,0.5-1.5,1-2.2,1.5c-0.3,0.3-0.5,0.3-0.8,0
		C293,236.3,293.7,235.6,294.8,235.1z"/>
	<path id="XMLID_1372_" class="st184" d="M357,236.6c0.3,0.3,0.5,0.5,0.8,0.8c-0.6,0.8-1.4,1.3-2.5,1.2
		C355.3,237.4,356.2,237.1,357,236.6z"/>
	<path id="XMLID_1371_" class="st189" d="M382.5,235.9c0.2,0.2,0.5,0.5,0.7,0.7c-0.8,0.5-1.5,1-2.3,1.5c-0.3,0.3-0.5,0.3-0.8,0
		C380.7,237.1,381.5,236.3,382.5,235.9z"/>
	<path id="XMLID_1370_" class="st180" d="M426.8,232.1c0.2,0.2,0.5,0.5,0.7,0.7c-0.6,0.7-1.4,1.3-2.5,1.2
		C425.1,232.9,426,232.6,426.8,232.1z"/>
	<path id="XMLID_1369_" class="st190" d="M208.5,229.1c0.3,0.3,0.5,0.5,0.8,0.8c-0.6,0.7-1.3,1.3-2.5,1.2
		C206.8,229.9,207.7,229.6,208.5,229.1z"/>
	<path id="XMLID_1368_" class="st191" d="M231,227.6c0.3,0.3,0.5,0.5,0.8,0.8c-0.6,0.8-1.4,1.3-2.5,1.2
		C229.3,228.4,230.2,228.1,231,227.6z"/>
	<path id="XMLID_1367_" class="st192" d="M392.3,250.1c-0.3,0-0.5,0-0.8,0c0.6-0.8,1.3-1.2,2.6-1.2
		C393.8,249.9,393.1,250.1,392.3,250.1z"/>
	<path id="XMLID_1366_" class="st185" d="M207.8,250.1c-0.3,0-0.5,0-0.8,0c0.6-0.8,1.3-1.2,2.6-1.2
		C209.3,249.9,208.6,250.1,207.8,250.1z"/>
	<path id="XMLID_1365_" class="st193" d="M375,249.3c-0.3,0-0.5,0-0.8,0c0.6-0.8,1.3-1.2,2.5-1.2C376.6,249.2,375.8,249.3,375,249.3
		z"/>
	<path id="XMLID_1364_" class="st194" d="M292.5,237.3c0.3,0,0.5,0,0.8,0c-0.6,0.7-1.3,1.3-2.3,1.2c0,0-0.1-0.5,0-0.5
		C291.4,237.7,291.9,237.5,292.5,237.3z"/>
	<path id="XMLID_1363_" class="st195" d="M380.2,238.1c0.3,0,0.5,0,0.8,0c-0.6,0.7-1.3,1.3-2.3,1.2c0,0-0.1-0.5,0-0.5
		C379.1,238.5,379.7,238.3,380.2,238.1z"/>
	<path id="XMLID_1362_" class="st172" d="M411.8,381.4c-0.8-0.7-0.2-1.1,0.4-1.4c15.9-10,31.8-19.9,47.7-29.8c1.8-1.1,3-1.2,2.8,1.5
		c-0.1,1.4,0,2.7-0.1,4.1c-10.6,6-21.2,12.2-31.9,18.1c-2.7,1.5-4.9,4.3-8.5,3.8c-2.5,0.7-4.8,1.8-7.1,3
		C414.2,381.2,413.2,382.3,411.8,381.4z"/>
	<path id="XMLID_1361_" class="st8" d="M411.8,381.4c2-1.1,4.1-2.1,6-3.3c1.4-0.9,2.8-1.3,4.4-0.5c0.4,1.4-0.8,1.6-1.6,2.1
		c-23,13.3-46,26.6-69.1,39.9c-0.2,0.1-0.5,0.2-0.7,0.2c-0.6,0-0.8-0.2-0.6-0.8c18.6-12,37.5-23.7,56.8-34.7
		C408.7,383.5,410.3,382.4,411.8,381.4z"/>
	<path id="XMLID_1360_" class="st8" d="M410.3,406.9c15.1-9.4,30.2-18.8,45.4-28.3c0.3-0.2,0.7-0.2,1.1-0.3c1.4,0.7,1.9,1.6,0.6,2.9
		c-15.4,8.8-30.7,17.6-46.1,26.4C410.4,408.1,410.2,407.6,410.3,406.9z"/>
	<path id="XMLID_1359_" class="st41" d="M462.7,363.4c0,1.2,0,2.4,0,3.7c-6.2,2.7-11.7,6.7-17.7,9.9c-1.5,0.8-2.9,1.8-4.6,2.2
		c-0.8-0.2-1.2-0.6-0.9-1.4C447,372.5,454.8,367.8,462.7,363.4z"/>
	<path id="XMLID_1358_" class="st8" d="M439.5,377.7c0.3,0.5,0.6,1,0.9,1.4c-7.4,5.1-15.3,9.3-23.2,13.6c-0.9,0.4-1-0.1-0.9-0.8
		C423.9,387,431.5,382.1,439.5,377.7z"/>
	<path id="XMLID_1357_" class="st196" d="M457.3,381.3c0.3-1.1-0.2-2-0.6-2.9c1.6-2,3.8-2.9,6-3.8c0,1.2,0,2.5-0.1,3.7
		C460.9,379.3,459.1,380.3,457.3,381.3z"/>
	<path id="XMLID_1356_" class="st8" d="M416.3,391.9c0.3,0.3,0.6,0.5,0.9,0.8c-2.6,1.9-5.3,3.6-8.4,4.5c-0.2-0.2-0.3-0.4-0.3-0.6
		c0.1-0.2,0.1-0.3,0.2-0.3C411.3,394.9,413.8,393.4,416.3,391.9z"/>
	<path id="XMLID_1355_" class="st8" d="M407.3,409.9c-1.5,1-3,1.9-4.5,2.9c0.7-2.4,2.6-3.1,4.4-3.9
		C407.5,409.2,407.6,409.6,407.3,409.9z"/>
	<path id="XMLID_1354_" class="st8" d="M350.3,419c0.2,0.3,0.4,0.5,0.6,0.8c-1.5,0.8-2.6,2.7-4.8,2
		C347.2,420.5,348.8,419.8,350.3,419z"/>
	<path id="XMLID_1353_" class="st8" d="M422.3,439.2c0.3,0.2,0.6,0.5,0.8,0.7c-1.4,1.1-2.8,2.1-5.4,2.9
		C419.3,440.6,420.8,440,422.3,439.2z"/>
	<path id="XMLID_1352_" class="st8" d="M434.3,421.9c-1,1.1-2.2,1.6-4.3,2.2c1.4-2,2.8-2.7,4.2-3.3
		C434.5,421.2,434.6,421.6,434.3,421.9z"/>
	<path id="XMLID_1351_" class="st8" d="M407.3,409.9c0-0.3-0.1-0.7-0.1-1c0.8-1,1.9-1.6,3.1-2c0.3,0.3,0.6,0.5,0.9,0.8
		C410.1,408.8,408.8,409.5,407.3,409.9z"/>
	<path id="XMLID_1350_" class="st8" d="M434.3,421.9c0-0.3-0.1-0.7-0.1-1c0.8-1,1.9-1.6,3.1-2c0.3,0.3,0.6,0.5,0.9,0.8
		C437.1,420.8,435.8,421.5,434.3,421.9z"/>
	<path id="XMLID_1349_" class="st8" d="M455.3,390.4c0.3,0.3,0.6,0.5,0.9,0.8c-1.1,1-2.4,1.8-3.9,2.2c-0.3-0.3-0.4-0.6-0.1-1
		C453,391.4,454.1,390.9,455.3,390.4z"/>
	<path id="XMLID_1348_" class="st8" d="M452.2,392.4c0,0.3,0,0.6,0.1,1c-1,1.1-2.3,1.8-3.8,2.1c-0.2-0.2-0.3-0.3-0.2-0.5
		c0.1-0.2,0.1-0.2,0.2-0.2C449.4,393.5,450.8,393,452.2,392.4z"/>
	<path id="XMLID_1347_" class="st8" d="M408.7,396.4c0,0.3,0,0.6,0.1,0.9c-0.6,1.3-1.9,1.6-3,2.1c-0.8,0.4-0.9,0-0.8-0.7
		C406.3,397.9,407.5,397.1,408.7,396.4z"/>
	<path id="XMLID_1346_" class="st8" d="M448.5,394.8c0,0.2,0,0.5,0,0.7c-0.6,1-1.4,1.5-2.6,1.5C445.9,395.2,447.4,395.2,448.5,394.8
		z"/>
	<path id="XMLID_1345_" class="st8" d="M444.8,437.6c-0.7,0.7-1.5,1.3-2.6,1.4c-0.4-1.6,1-1.6,1.8-2.1
		C444.3,437.1,444.8,437.2,444.8,437.6z"/>
	<path id="XMLID_1344_" class="st8" d="M444.8,437.6c-0.3-0.2-0.5-0.5-0.8-0.7c0.8-0.5,1.5-0.9,2.3-1.4c0.3,0.2,0.6,0.4,0.9,0.6
		C446.4,436.7,445.6,437.1,444.8,437.6z"/>
	<path id="XMLID_1343_" class="st8" d="M399.1,402.4c1.6-1,2.5-1.5,3.9-2.4C402.2,402,401.2,402.2,399.1,402.4z"/>
	<path id="XMLID_1342_" class="st197" d="M416.8,443.9c-0.5,0.3-0.9,0.6-1.3,0.8c-0.6,0.3-1-0.2-0.8-0.6c0.1-0.3,0.7-0.6,1.1-0.8
		C416,443.2,416.3,443.6,416.8,443.9z"/>
	<path id="XMLID_1341_" class="st198" d="M439.8,439.3c0.3,0.4,0.5,0.6,0.8,0.9c-0.4,0.3-0.7,0.6-1.1,0.8c-0.5,0.3-0.8-0.3-0.6-0.5
		C438.9,440,439.3,439.7,439.8,439.3z"/>
	<path id="XMLID_1340_" class="st199" d="M443.4,398.9c-0.4,0.2-0.8,0.2-0.9-0.3c-0.2-0.7,0.4-0.9,0.8-1c0.3-0.1,0.8,0.2,0.9,0.4
		C444.4,398.7,443.7,398.6,443.4,398.9z"/>
	<path id="XMLID_1339_" class="st200" d="M405,398.7c0.3,0.2,0.5,0.5,0.8,0.7c-0.7,0.6-1.6,1.7-2.2,0.8
		C403,399.3,404.4,399,405,398.7z"/>
	<path id="XMLID_1338_" class="st201" d="M439.7,399.6c0.3,0.4,0.5,0.6,0.7,0.8c-0.4,0.3-0.7,0.6-1.1,0.8c-0.5,0.2-0.7-0.2-0.6-0.5
		C438.9,400.3,439.3,400,439.7,399.6z"/>
	<path id="XMLID_1337_" class="st8" d="M195.7,448c-0.3-0.3-0.6-0.5-0.9-0.8c1.4-1.3,3-2.1,4.7-2.8c0.3,0.2,0.8,0.3,0.9,0.7
		C198.8,446.1,197.3,447.1,195.7,448z"/>
	<path id="XMLID_1336_" class="st8" d="M169.4,442.1c1.5-0.9,2.9-1.9,4.4-2.8c-0.5,2.2-2.1,2.8-3.6,3.6
		C169.9,442.6,169.5,442.5,169.4,442.1z"/>
	<path id="XMLID_1335_" class="st8" d="M192,439.8c-0.3-0.3-0.6-0.5-0.9-0.8c1.1-1.1,2.4-1.7,3.8-2.2c0.8-0.4,1,0.1,0.9,0.8
		C194.5,438.3,193.2,439,192,439.8z"/>
	<path id="XMLID_1334_" class="st8" d="M200.4,445.2c-0.3-0.2-0.6-0.5-0.9-0.7c1.2-0.8,2.2-1.8,4.3-1.9
		C202.8,444.2,201.6,444.6,200.4,445.2z"/>
	<path id="XMLID_1333_" class="st8" d="M195.7,437.5c-0.3-0.3-0.6-0.5-0.9-0.8c1.2-1,2.3-1.9,4-1.8l-0.1,0.3
		C198.3,436.7,196.8,436.9,195.7,437.5z"/>
	<path id="XMLID_1332_" class="st8" d="M281.2,416.5c0,0.3,0,0.6,0.1,0.9c-0.5,0.8-1.3,1.2-2.2,1.4c-0.8,0.3-1-0.1-0.9-0.8
		C279,417.1,280.1,416.7,281.2,416.5z"/>
	<path id="XMLID_1331_" class="st8" d="M278.3,418.1c0.3,0.3,0.6,0.5,0.9,0.8c-0.9,1-2,1.6-3.2,2c-0.3-0.2-0.6-0.5-0.9-0.7
		C276.1,419.5,276.7,418.1,278.3,418.1z"/>
	<path id="XMLID_1330_" class="st8" d="M169.4,442.1c0.3,0.2,0.5,0.5,0.8,0.7c-0.9,0.6-1.9,1.1-2.8,1.7c-0.3-0.2-0.6-0.5-0.9-0.7
		C167.5,443.2,168.5,442.6,169.4,442.1z"/>
	<path id="XMLID_1329_" class="st8" d="M228,396.2c-0.3-0.2-0.5-0.5-0.8-0.7c1-0.8,2-1.5,3.1-2.3c0.5,0.1,0.8,0.4,0.9,0.9
		C230.3,395.2,229.2,395.8,228,396.2z"/>
	<path id="XMLID_1328_" class="st8" d="M231.1,394.2c-0.3-0.3-0.6-0.6-0.9-0.9c1-0.5,2-0.9,3-1.4
		C233.4,393.5,232.2,393.7,231.1,394.2z"/>
	<path id="XMLID_1327_" class="st202" d="M238.2,421.5c-0.6,2-1.8,1.9-2.9,2.7C235.6,422.2,237,422.6,238.2,421.5z"/>
	<path id="XMLID_1326_" class="st203" d="M179.6,437.3c-0.7,0.3-1.2,0.6-1.7,0.8c-0.1,0-0.3-0.5-0.5-0.7c0.5-0.3,1-0.7,1.6-0.9
		C178.9,436.4,179.2,436.9,179.6,437.3z"/>
	<path id="XMLID_1325_" class="st204" d="M208.6,440c-0.1,0.7-0.7,0.9-1.3,1c-0.2,0.1-0.7-0.3-0.7-0.5c0-0.8,0.7-0.8,1.3-1.1
		C208.4,439.3,208.5,439.7,208.6,440z"/>
	<path id="XMLID_1324_" class="st205" d="M211,438.8c-0.4,0-0.8-0.3-0.6-0.7c0.2-0.4,0.7-0.6,1.1-0.8c0.4-0.2,0.7,0,0.7,0.4
		C212.2,438.5,211.5,438.6,211,438.8z"/>
	<path id="XMLID_1323_" class="st206" d="M184,434.8c-1.4,0.6-1.9,0.8-2.5,1.1c-0.1-0.3-0.3-0.8-0.2-0.9c0.4-0.3,0.8-0.6,1.3-0.7
		C182.8,434.2,183.1,434.5,184,434.8z"/>
	<path id="XMLID_1322_" class="st8" d="M198.7,435.2c0,0,0.1-0.3,0.1-0.3c0.2-1.1,1.1-1.4,2.2-1.6
		C201,435.1,199.9,435.2,198.7,435.2z"/>
	<path id="XMLID_1321_" class="st207" d="M204.8,431.7c-0.1,0.7-0.7,0.9-1.3,1.1c-0.4,0.1-0.7-0.1-0.7-0.5c0.1-0.8,0.8-0.8,1.3-1.1
		C204.6,431,204.7,431.4,204.8,431.7z"/>
	<path id="XMLID_1320_" class="st208" d="M208.1,428.9c0.1,0.3,0.4,0.7,0.3,0.8c-0.3,0.3-0.7,0.6-1.2,0.8c-0.4,0.2-0.8-0.1-0.7-0.5
		C206.7,429.3,207.4,429.2,208.1,428.9z"/>
	<path id="XMLID_1319_" class="st209" d="M173.2,471.1c-0.4,0.2-0.8,0.5-1.2,0.6c-0.4,0.1-0.8-0.3-0.5-0.6c0.3-0.4,0.8-0.6,1.2-0.8
		C173.1,470.2,173.2,470.6,173.2,471.1z"/>
	<path id="XMLID_1318_" class="st210" d="M168.6,473.9c-0.6,0.3-1,0.6-1.4,0.8c-0.5,0.2-0.8-0.2-0.7-0.5c0.2-0.4,0.6-0.7,1-0.9
		C167.6,473.2,168,473.6,168.6,473.9z"/>
	<path id="XMLID_1317_" class="st36" d="M181.5,350.6c-5.2,3.6-10.4,7.2-15.7,10.8c-0.9,0.6-1.9,2.4-2.9,0.8
		c-0.8-1.2,0.2-2.5,1.6-3.3c4.2-2.4,8.4-4.9,12.6-7.2c1.2-0.6,2.1-1.8,3.6-1.9C181.5,349.5,181.7,349.9,181.5,350.6z"/>
	<path id="XMLID_1316_" class="st211" d="M170.2,378.3c-0.3-0.3-0.5-0.6-0.8-0.9c-0.5-0.9,0-1.2,0.7-1.7c4.8-2.6,9.5-5.3,14.3-7.9
		c0.8-0.3,0.9,0.1,0.8,0.7C180.2,371.8,175.2,375.1,170.2,378.3z"/>
	<path id="XMLID_1315_" class="st152" d="M168,348.3c-1.5,1-3,2-4.5,2.9c0.2-2.5,2.3-2.7,3.8-3.7C168,347.3,168.2,347.7,168,348.3z"
		/>
	<path id="XMLID_1314_" class="st212" d="M185.2,368.6c-0.3-0.2-0.5-0.5-0.8-0.7c2-1.3,4-2.5,5.9-3.8c0.2,0.2,0.3,0.5,0.5,0.7
		C189,366,187.1,367.3,185.2,368.6z"/>
	<path id="XMLID_1313_" class="st8" d="M180,400c-0.3-0.3-0.6-0.5-0.9-0.8c1.4-1.3,3-2.1,4.7-2.8c0.3,0.1,0.6,0.4,0.8,0.7
		C183.2,398.4,181.7,399.3,180,400z"/>
	<path id="XMLID_1312_" class="st76" d="M181.5,350.6c-0.3-0.3-0.5-0.5-0.8-0.8c1.4-1.1,2.7-2.4,5-2.8
		C184.7,349,182.8,349.5,181.5,350.6z"/>
	<path id="XMLID_1311_" class="st8" d="M222.7,385.8c-0.3-0.3-0.6-0.5-0.9-0.8c1.1-1.1,2.3-1.7,3.7-2.2c0.8-0.4,1,0,0.9,0.7
		C225.2,384.2,224,385,222.7,385.8z"/>
	<path id="XMLID_1310_" class="st213" d="M168,348.3c-0.2-0.3-0.5-0.5-0.7-0.8c1.5-1,3-1.9,4.5-2.9
		C171.2,346.8,169.3,347.3,168,348.3z"/>
	<path id="XMLID_1309_" class="st8" d="M226.5,383.5c-0.3-0.2-0.6-0.5-0.9-0.7c1.5-0.9,2.9-1.8,4.4-2.7
		C229.5,382.1,227.9,382.7,226.5,383.5z"/>
	<path id="XMLID_1308_" class="st8" d="M184.5,397.1c-0.3-0.2-0.5-0.5-0.8-0.7c1.1-0.7,2.2-1.4,3.9-2.4
		C187.2,396.3,185.6,396.4,184.5,397.1z"/>
	<path id="XMLID_1307_" class="st214" d="M169.2,368c-0.5,1.2-1.3,1.4-2.5,1.6C167.1,368.4,167.9,368.2,169.2,368z"/>
	<path id="XMLID_1306_" class="st215" d="M190.1,392.5c0.8-0.3,1.2-0.1,1.1,0.3c-0.1,0.4-0.5,0.8-0.9,1c-0.5,0.2-1.1,0.2-0.9-0.5
		C189.5,392.8,190,392.5,190.1,392.5z"/>
	<path id="XMLID_1305_" class="st160" d="M165.4,370.3c-0.6,1.2-1.3,1.4-2.5,1.6C163.3,370.7,164.1,370.4,165.4,370.3z"/>
	<path id="XMLID_1304_" class="st216" d="M233.9,378.9c-0.4,0.2-0.8,0.5-1.2,0.6c-0.4,0.1-0.8-0.3-0.5-0.7c0.2-0.4,0.8-0.6,1.2-0.7
		C233.8,378,233.9,378.4,233.9,378.9z"/>
	<path id="XMLID_1303_" class="st172" d="M384.8,385.6c-2.1-1.3-0.4-1.8,0.6-2.4c9-5.6,17.9-11.2,26.9-16.8
		c16.1-9.9,32.1-19.9,48.2-29.8c0.7-0.5,1.4-1.1,2.3-1.1c1,4.4-1.7,6.3-5.1,8.3c-18.5,10.6-36.8,21.5-55.4,32
		C396.5,379.1,390.5,382.2,384.8,385.6z"/>
	<path id="XMLID_1302_" class="st217" d="M443.3,338.6c-0.6,1.3-1.8,1.7-3.7,2.3C440.8,339.2,441.9,338.8,443.3,338.6L443.3,338.6z"
		/>
	<path id="XMLID_1301_" class="st218" d="M443.2,338.6c0.8-1.5,2.2-2,3.7-2.3l0,0C446.2,337.9,444.8,338.3,443.2,338.6
		C443.3,338.6,443.2,338.6,443.2,338.6z"/>
	<path id="XMLID_1300_" class="st219" d="M447,336.3c0.6-1.4,1.8-1.7,3.9-2.4C449.5,335.7,448.3,336.2,447,336.3
		C447,336.3,447,336.3,447,336.3z"/>
	<path id="XMLID_1299_" class="st76" d="M456,331.1c-0.6,1.3-1.8,1.7-3.7,2.3C453.5,331.7,454.7,331.3,456,331.1
		C456,331.1,456,331.1,456,331.1z"/>
	<path id="XMLID_1298_" class="st220" d="M147.7,421.8c-0.3-0.3-0.6-0.5-0.8-0.8c0.8-0.5,1.6-1,2.4-1.5
		C149.7,420.9,148.8,421.4,147.7,421.8z"/>
	<path id="XMLID_1297_" class="st221" d="M151.5,418.1c0.1,1.9-0.6,2.4-2.3,1.5C150,419.1,150.7,418.6,151.5,418.1z"/>
	<path id="XMLID_1296_" class="st222" d="M486.5,458.3c0.1,0.3,0.2,0.7,0.2,1c-0.4,0.8-1.2,1.1-2.2,1.3
		C484.4,458.9,485.6,458.7,486.5,458.3z"/>
	<path id="XMLID_1295_" class="st223" d="M471.8,455.6c0.3,0.3,0.5,0.5,0.8,0.8c-0.9,0.6-1.5,2.3-3,0.8
		C470.3,456.6,471,456.1,471.8,455.6z"/>
	<path id="XMLID_1294_" class="st224" d="M486.7,402.4c1.6-2.5,4-3.8,6.8-4.5C492.2,400.9,489.3,401.4,486.7,402.4z"/>
	<path id="XMLID_1293_" class="st225" d="M483,404.6c0.5-1.4,1.3-2.4,3-1.4C485.1,404.1,484.2,404.7,483,404.6z"/>
	<path id="XMLID_1292_" class="st226" d="M480.8,436.9c0.3,0.3,0.6,0.5,0.9,0.8c-1.7,1.3-3.3,2.5-5.5,2.9
		C476.3,437.6,479.4,438.3,480.8,436.9z"/>
	<path id="XMLID_1291_" class="st227" d="M142.3,436.2c-2.4,3.9-6.7,5.4-10.3,7.7c-1.2,0.8-0.8-1.1-0.8-1.9
		C135,440.3,138.2,437.5,142.3,436.2z"/>
	<path id="XMLID_1290_" class="st8" d="M444.7,467.5c0.1-1.9,1-2.1,2.5-1.3C446.5,466.8,445.9,467.7,444.7,467.5z"/>
	<path id="XMLID_1289_" class="st228" d="M138,450.3c-0.3-0.3-0.6-0.5-1-0.8c1.8-1.1,3.6-2.2,5.4-3.3c0.3,0.3,0.3,0.7,0,1
		C141,448.2,139.5,449.2,138,450.3z"/>
	<path id="XMLID_1288_" class="st225" d="M142.5,447.2c0-0.3,0-0.7,0-1c0.7-0.9,1.4-0.8,2.2-0.1C144,446.6,143.4,447.3,142.5,447.2z
		"/>
</g>
</svg>
