<?xml version="1.0" encoding="utf-8"?>
<!-- Generator: Adobe Illustrator 19.0.0, SVG Export Plug-In . SVG Version: 6.00 Build 0)  -->
<svg version="1.1" id="Layer_1" xmlns="http://www.w3.org/2000/svg" xmlns:xlink="http://www.w3.org/1999/xlink" x="0px" y="0px"
	 viewBox="0 0 612 792" style="enable-background:new 0 0 612 792;" xml:space="preserve">
<style type="text/css">
	.st0{fill:#272626;}
	.st1{fill:#464343;}
	.st2{fill:#4D4A49;}
	.st3{fill:#54504F;}
	.st4{fill:#6B6767;}
	.st5{fill:#9F9C9B;}
	.st6{fill:#959191;}
	.st7{fill:#F47A20;}
	.st8{fill:#D0E0EE;}
	.st9{fill:#C7DDEE;}
	.st10{fill:#FFFFFF;}
	.st11{fill:#FDFDFD;}
	.st12{fill:#FEFEFD;}
	.st13{fill:#FEFCFC;}
	.st14{fill:#FCFCFC;}
	.st15{fill:#FEFDFC;}
	.st16{fill:#FBFBFB;}
	.st17{fill:#FAF9FA;}
	.st18{fill:#FDFCFC;}
	.st19{fill:#FDFBFA;}
	.st20{fill:#F8F8F8;}
	.st21{fill:#FCFAF8;}
	.st22{fill:#F9F9F9;}
	.st23{fill:#F9F9FA;}
	.st24{fill:#FBF9F8;}
	.st25{fill:#F9F6F4;}
	.st26{fill:#F6F7F7;}
	.st27{fill:#F8F5F3;}
	.st28{fill:#F8F4F2;}
	.st29{fill:#F4F3F4;}
	.st30{fill:#F3EFED;}
	.st31{fill:#F6F5F6;}
	.st32{fill:#F3F3F3;}
	.st33{fill:#F7F4F2;}
	.st34{fill:#F6F2EF;}
	.st35{fill:#EEEEEE;}
	.st36{fill:#F2F1F2;}
	.st37{fill:#E8E8E8;}
	.st38{fill:#F5F3F2;}
	.st39{fill:#F2ECE9;}
	.st40{fill:#F2EEEB;}
	.st41{fill:#ECECEC;}
	.st42{fill:#F4F0EE;}
	.st43{fill:#F0EBE8;}
	.st44{fill:#F3EDE9;}
	.st45{fill:#DABC3C;}
	.st46{fill:#E9E9EA;}
	.st47{fill:#EEE7E2;}
	.st48{fill:#DFDEDF;}
	.st49{fill:#EDEDEE;}
	.st50{fill:#E4E3E4;}
	.st51{fill:#E8E2DF;}
	.st52{fill:#FBF7EA;}
	.st53{fill:#EBEBEC;}
	.st54{fill:#F1EBE7;}
	.st55{fill:#E6E5E6;}
	.st56{fill:#E1E2E3;}
	.st57{fill:#E8E1DD;}
	.st58{fill:#D4B53F;}
	.st59{fill:#E3E3E4;}
	.st60{fill:#665D59;}
	.st61{fill:#D9DADC;}
	.st62{fill:#4F5F54;}
	.st63{fill:#E6DED9;}
	.st64{fill:#E7DEDA;}
	.st65{fill:#CDCFD1;}
	.st66{fill:#E1DED2;}
	.st67{fill:#DAC03D;}
	.st68{fill:#B5B8BC;}
	.st69{fill:#72784D;}
	.st70{fill:#C2C6C9;}
	.st71{fill:#EBE4E0;}
	.st72{fill:#A3958F;}
	.st73{fill:#E7E8E8;}
	.st74{fill:#F9F5F3;}
	.st75{fill:#F5F0ED;}
	.st76{fill:#D8BA3E;}
	.st77{fill:#EAE0D9;}
	.st78{fill:#E0D1C8;}
	.st79{fill:#E9DED8;}
	.st80{fill:#E9DDD7;}
	.st81{fill:#EDE4DE;}
	.st82{fill:#F0E8E4;}
	.st83{fill:#E5D8D0;}
	.st84{fill:#EBE2DC;}
	.st85{fill:#ECE3DD;}
	.st86{fill:#EAE0D8;}
	.st87{fill:#D1AF43;}
	.st88{fill:#635D59;}
	.st89{fill:#625D59;}
	.st90{fill:#615C59;}
	.st91{fill:#F9F7F5;}
	.st92{fill:#5B5B59;}
	.st93{fill:#6A5F59;}
	.st94{fill:#DAC5B9;}
	.st95{fill:#FAF8F6;}
	.st96{fill:#FAF8F7;}
	.st97{fill:#5C5B59;}
	.st98{fill:#B1B0B6;}
	.st99{fill:#68625F;}
	.st100{fill:#6A5F5A;}
	.st101{fill:#695F59;}
	.st102{fill:#CEAB45;}
	.st103{fill:#DECCC1;}
	.st104{fill:#605C59;}
	.st105{fill:#666663;}
	.st106{fill:#71625A;}
	.st107{fill:#E6D9D2;}
	.st108{fill:#E3D3CB;}
	.st109{fill:#C8A348;}
	.st110{fill:#6A605A;}
	.st111{fill:#7C6A61;}
	.st112{fill:#D6D5DC;}
	.st113{fill:#EFE7E2;}
	.st114{fill:#746B65;}
	.st115{fill:#646663;}
	.st116{fill:#746962;}
	.st117{fill:#5A5A59;}
	.st118{fill:#F6F6F7;}
	.st119{fill:#F4F4F5;}
	.st120{fill:#ECEDED;}
	.st121{fill:#E2E3E4;}
	.st122{fill:#DFE0E1;}
	.st123{fill:#DDDFE0;}
	.st124{fill:#E0E1E2;}
	.st125{fill:#C2C5C8;}
	.st126{fill:#D1D3D6;}
	.st127{fill:#D7D9DB;}
	.st128{fill:#BBBFC3;}
	.st129{fill:#D4D6D8;}
	.st130{fill:#E5E5E7;}
	.st131{fill:#C0C4C7;}
	.st132{fill:#DEDFE1;}
	.st133{fill:#C6C9CC;}
	.st134{fill:#C4C6C9;}
	.st135{fill:#CED1D3;}
	.st136{fill:#B0B6BA;}
	.st137{fill:#BDC1C5;}
	.st138{fill:#D7D8DB;}
	.st139{fill:#B8BDC1;}
	.st140{fill:#DCDDDF;}
	.st141{fill:#C0C4C8;}
	.st142{fill:#C5C9CC;}
	.st143{fill:#BEC2C5;}
	.st144{fill:#FAFAFA;}
	.st145{fill:#ECECED;}
	.st146{fill:#E1E1E2;}
	.st147{fill:#CED0D2;}
	.st148{fill:#DFDFE0;}
	.st149{fill:#D6D7D9;}
	.st150{fill:#F7F7F7;}
	.st151{fill:#D0D1D3;}
	.st152{fill:#D8D9DA;}
	.st153{fill:#B6B9BC;}
	.st154{fill:#BEC0C3;}
	.st155{fill:#B7B9BD;}
	.st156{fill:#B0B4B7;}
	.st157{fill:#CFD1D2;}
	.st158{fill:#FEFEFE;}
	.st159{fill:#FBF8F6;}
	.st160{fill:#E3D5CC;}
	.st161{fill:#EADFD9;}
	.st162{fill:#D7D8DA;}
	.st163{fill:#C7C9CB;}
	.st164{fill:#D8C9C2;}
	.st165{fill:#EDE4DF;}
	.st166{fill:#F8F6F4;}
	.st167{fill:#DAC6BB;}
	.st168{fill:#ECE3DE;}
	.st169{fill:#E2D2C9;}
	.st170{fill:#E4D6CD;}
	.st171{fill:#FDFAF9;}
	.st172{fill:#E2D3C9;}
	.st173{fill:#DCC9BE;}
	.st174{fill:#E5D6CE;}
	.st175{fill:#EDE3DD;}
	.st176{fill:#DFCCC2;}
	.st177{fill:#E3D5CD;}
	.st178{fill:#DDE3EC;}
	.st179{fill:#B48E7D;}
</style>
<g id="XMLID_34_">
	<path id="XMLID_1371_" class="st0" d="M114.8,387.9c0.6-0.2,0.7-0.6,0.7-1.1c0.4-25.1,2.8-50.1,1.5-75.2c-0.2-3.7-0.9-7.4-0.1-11.1
		c1.2-6,4.5-10.1,9.9-13.2c7-3.9,14.5-2.9,21.9-3.2c5.3-0.2,10.7,0.7,16.1,0.8c6.4,0.2,12.8,0.1,19.2,0.3c2.6,0.1,3-0.9,2.6-3.3
		c-1.7-13.5,0-26.2,10.3-36.3c4-3.9,9.1-6,13.9-8.5c2.8-0.8,5.2-2.7,8.3-2.4c5.4,0.1,10.6-1.4,15.9-1.7c11.9-0.6,23.7-0.3,35.5,0.3
		c4,0.2,8-0.4,12,0.4c15,3,25.7,14.6,28.8,30.8c1.1,6,1,11.9,0.6,17.9c-0.1,1.7-0.4,2.1,2,2.3c17.1,1.2,34.3-1.8,51.4,0.3
		c7.9,1,13.3,5.5,15.6,13.7c1.9,6.9,2.3,14,2.1,21.2c-0.1,6.6-0.6,13.2-1.1,19.8c-0.1,1.8,0,2.8,2.1,3c33.9,4.1,52.8,25.2,63.1,55.9
		c6.5,19.6,8.2,39.8,7,60.2c-0.2,3.9,0.9,4.1,4.1,4c17.2-0.5,28.3,6,34.3,20c2,4.7,3.2,9.7,4,14.7c1.8,12.2,1.7,24.4,1.1,36.6
		c-0.5,10.2-0.5,20.5-0.4,30.7c0.3,15.1-7.3,25.7-21.6,30.6c-10.1,3.5-20.5,3.8-31.1,2.7c-1.4-0.1-2.6-0.4-3.9,0.5
		c-15.9,10.9-33.9,13.1-52.5,13.2c-13.2,0.1-26.5-1-39.7-1.8c-15.3-1-30.5,0.5-45.7,0.8c-12.8,0.3-25.5,0.4-37.9-3.3
		c-5.9-1.8-11.4-4.4-16.1-8.4c-1.4-1.2-2.6-1.3-4.4-1c-9.7,1.3-19.4,1-28.9-2c-16.3-5.2-24.4-17.6-22.6-34.6
		c1-9.4,0.6-18.7,0.2-28.1c-0.5-14.3-1.7-28.7,1.9-42.9c0.7-3,1.8-5.9,2.7-9.1c-9.7,0.5-19.4-0.2-29.1,0.3
		c-6.4,0.3-12.9-0.1-19.4-0.1c-6.4,0.1-12.9,0.2-19.3-0.1c-4.5-0.2-9-5.3-10.1-9.6c-2.5-9.9-4-20-4.5-30.3c0-0.3-0.4-0.5-0.7-0.7
		c0-1.3,0-2.5,0-3.8c0.5-0.5,0.5-1,0-1.5c0-1.5,0-3,0-4.5c0.8-1.8,0.2-3.8,0.4-5.7c0-3.5,0-7.1,0-10.6c-0.2-3.1,0.5-6.2-0.4-9.2
		c0-0.5,0-1,0-1.5c0.6-1.5,0.6-3,0-4.5c0-1.5,0-3,0-4.5c0.6-0.8,0.6-1.5,0-2.3C114.8,391.4,114.8,389.6,114.8,387.9z"/>
	<path id="XMLID_1370_" class="st1" d="M115.5,414.9c0,3.8,0,7.5,0,11.3c-0.2,0.3-0.5,0.3-0.7,0c0-3.8,0-7.5,0-11.3
		C115,414.5,115.2,414.5,115.5,414.9z"/>
	<path id="XMLID_1369_" class="st2" d="M115.5,414.9c-0.2,0-0.5,0-0.7,0c0-3,0-6,0-9C116.3,408.8,115.1,411.9,115.5,414.9z"/>
	<path id="XMLID_1368_" class="st3" d="M114.8,426.1c0.2,0,0.5,0,0.7,0c-0.3,1.7,0.8,3.7-0.7,5.2
		C114.8,429.6,114.8,427.9,114.8,426.1z"/>
	<path id="XMLID_1367_" class="st4" d="M114.8,399.9c1.3,1.5,1.1,3,0,4.5C114.8,402.9,114.8,401.4,114.8,399.9z"/>
	<path id="XMLID_1366_" class="st5" d="M114.8,393.1c1.2,0.8,1.1,1.5,0,2.3C114.8,394.6,114.8,393.9,114.8,393.1z"/>
	<path id="XMLID_1365_" class="st6" d="M114.8,435.9c1,0.5,1.1,1,0,1.5C114.8,436.9,114.8,436.4,114.8,435.9z"/>
	<path id="XMLID_1364_" class="st7" d="M219.1,234.8c-2.6,1.4-5.4,2.2-8.3,2.4C213.4,235.9,215.3,232,219.1,234.8z"/>
	<path id="XMLID_1363_" class="st8" d="M243.6,459.8c0-0.2,0.1-0.4,0.1-0.7c1.1-1.8,3.2-2.4,4.9-3.5c1.2-0.8,2.6-1.5,3.8-2.3
		c1.4-0.9,2.9-1.6,4.2-2.6c0.4-0.2,0.8-0.6,1.2-0.7c-0.6,0.1-1,0.5-1.4,0.8c-1.4,0.9-2.9,1.6-4.2,2.5c-1.3,0.8-2.6,1.5-3.9,2.3
		c-1.5,0.6-2.6,2.3-4.6,1.9c0-2.5,0.1-5,0.1-7.4c2.5-3.6,6.5-5.2,10-7.5c5.4-3.5,10.9-6.8,16.4-10.2c1.3-0.9,2.6-1.6,3.9-2.4
		c0.7-0.2,1.1-1,1-1c0,0-0.5,0.8-1.3,1.1c-1.3,0.8-2.7,1.6-4,2.4c-7.4,4.6-14.8,9.1-22.4,13.3c-1.3,0.7-3,2.1-3.2-1
		c0.7-2.5-0.9-5.5,1.7-7.5c2-2.6,5.1-3.8,7.8-5.5c7.2-4.6,14.3-9.2,21.7-13.6c1.3-0.9,2.8-1.5,4-2.6c0.2-0.1,0.4-0.2,0.3-0.4
		c-0.3,0.2-0.5,0.5-0.8,0.7c-1.2,0.9-2.5,1.6-3.8,2.4c-8.5,5.4-17.1,10.4-25.8,15.4c-1.2,0.7-2.3,2-4,1.2c0.1-3,0.3-5.9,1.4-8.8
		c4.5-4.3,10.2-6.8,15.3-10.2c0.7-0.3,1.1-0.9,1.9-1c-0.9,0.1-1.5,0.8-2.2,1.2c-3.9,2.3-7.6,4.9-11.6,7.1c-1,0.5-2,1.7-3.3,0.6
		c0.5-2.9,1.1-5.8,1.6-8.8c4-4.3,9.3-6.7,13.8-10.3c2.4-1.6,4.9-3,7.3-4.5c1.2-0.9,2.8-1.5,3.9-2.6c0.2-0.1,0.3-0.2,0.3-0.4
		c-0.3,0.2-0.5,0.4-0.8,0.7c-1.2,0.8-2.5,1.5-3.7,2.3c-2.4,1.6-5,3-7.4,4.6c-3,1.9-6.2,3.6-9.3,5.4c-0.8,0.5-1.9,1.8-2.9,0.1
		c0.8-3.3,1.7-6.6,2.5-9.8c1.8-1.6,4-2.6,6-4c0.3,0,0.4-0.2,0.2-0.4c-0.1,0.2-0.3,0.3-0.5,0.4c-1.4,0.7-2.5,2.3-4.4,1.6
		c1-4.8,3.6-9,5.4-13.5c2.8-2.4,5.6-4.9,8.9-6.7c-2.1,0.5-3.3,3.3-6,2.3c8.7-14.3,20.2-24.7,37.3-27.7c5.6-1,11.1-2.7,16.8-3.1
		c0.3,1.9-1.3,2.5-2.4,3.4c-6,4.5-11.9,9.3-18.1,13.5c-0.8,0.4-1.6,1.1-2.4,1.5c-0.2,0.1-0.4,0.1-0.6,0.1c0.2,0.1,0.4,0.1,0.6-0.1
		c1-0.5,1.8-1.1,2.7-1.6c9-6.3,19-11.1,28.3-16.9c1.2-0.7,2.7-0.5,3.8-1.4c4.7-1,9.5-1.4,14.2-1.4c0.3,1.9-1.3,2.5-2.4,3.3
		c-4.3,3.3-9,6-13.6,8.9c-1.3,0.9-2.8,1.5-3.9,2.6c-0.2,0.1-0.4,0.2-0.3,0.4c0.3-0.2,0.5-0.5,0.8-0.7c1.2-0.9,2.5-1.6,3.8-2.4
		c5.7-3.6,11.4-7.1,17.2-10.5c1.4-0.8,3-1.1,4.5-1.8c4,0,7.9,0.1,11.9,0.1c0.2,2.3-1.8,2.8-3.1,3.8c-8,5.3-15.9,10.8-24,15.9
		c-1.3,0.8-2.6,1.6-3.9,2.3c-0.3,0.2-0.6,0.4-0.9,0.5c0.5,0,0.8-0.4,1.2-0.6c1.3-0.8,2.6-1.5,3.9-2.3c9.5-6.1,19.4-11.5,29.1-17.3
		c1.4-0.9,3.1-1,4.5-1.6c3.5,0.5,7,1,10.5,1.5c-0.8,2.6-3.3,3.3-5.3,4.7c-4,2-7.6,4.7-11.5,6.8c-1.3,1-2.9,1.5-4.1,2.7
		c-0.7,0.3-1.3,0.7-2,0.9c-0.2,0.1-0.4,0.1-0.6,0.2c0.2,0.1,0.4,0,0.6-0.1c0.8-0.5,1.8-0.6,2.5-1.4c1.2-0.9,2.5-1.6,3.8-2.4
		c3.8-2.1,7.2-4.7,11.1-6.6c2.7-1.5,5-3.6,8.2-4.1c3.4,0.5,6.7,1.5,9.9,2.6c-2.8,2.7-6.4,4.4-9.5,6.7c-7.4,4.1-14.1,9.3-21.5,13.4
		c-1.4,0.9-2.9,1.6-4.1,2.8c1.3-1.2,3-2,4.5-2.9c6.7-4,13-8.6,19.9-12.3c3.3-1.1,6.1-3.3,9.2-4.9c1.4-0.8,2.8-1.5,4.4-1.8
		c2.9,0.8,5.7,2,8.4,3.4c-1.1,2.1-3.4,2.9-5.2,4c-5.4,3.3-10.5,7.1-16.2,10c-2.2,1.9-5,3.1-7.4,4.7c-1.3,1-3,1.6-4.2,2.8
		c-0.3,0.1-0.6,0.3-1,0.3c0,0.1,0.1,0.2,0.1,0.2c0.5-0.3,1.1-0.4,1.5-0.9c1.2-1,2.6-1.6,3.8-2.4c2.2-1.6,4.9-2.5,7-4.4
		c6.7-3.7,13.2-7.9,20-11.6c1.2-0.6,2.3-1.4,3.8-1.5c7.2,3.5,13.8,7.8,18.8,14.2c0.3,1.5-1,1.9-1.9,2.4c-3,1.8-5.8,3.8-9,5.4
		c-1.3,0.8-2.5,1.7-3.9,2.5c-0.7,0.4-1.4,0.9-2.1,1.3c0.9-0.4,1.7-1,2.5-1.4c1.3-0.8,2.6-1.7,3.9-2.5c2.8-1.4,5.4-3.3,8.2-4.7
		c1.2-0.6,2.2-1.6,3.7-0.8c2.1,1.3,3,3.5,4.4,5.3c-3.5,2.9-7.6,4.9-11.4,7.2c-0.8,0.4-1.4,0.9-2.1,1.4c0.8-0.6,1.6-1.1,2.5-1.6
		c3.9-1.9,7.2-5,11.4-6.3c1.3,2.3,2.7,4.5,4,6.8c-7.5,5.2-15.1,10.1-22.8,15c-8.7,5.7-17.3,11.4-26.1,16.9c-1.6,1-2.2,3.5-4.6,3.3
		c-3.2-2.7-3.1-6.6-3.2-10.2c0-1.8,2-2,3.5-2.1c3.8-0.2,7.5-0.9,11.3-1.4c-6.6-2-13.4-1.9-20.1-1.4c-0.7-0.1-1.4-0.3-2.1-0.7
		c-1.3-0.8-1.6-0.4-1.2,0.9c-2.3,1.4-4.6,0.2-6.9,0.1c-3.8-0.2-7.6,0.8-11.4-0.1c-1.1,0.2,1.4-1.9-0.7-1c-0.8,0.3-1.6,0.7-2.5,0.9
		c-8,1-15.9-1-23.9-0.5c-7.2,0.4-14.4,0.9-21.6,2.4c3.5,0.8,7,1.7,10.5,1.4c6-0.6,12-0.3,17.9-1.1c0.5-0.1,1-0.1,1.5-0.2
		c9.9-0.9,11.3,0.4,11.3,10.2c0,4.1-0.1,8.2,0,12.3c0.1,3.5,0.7,7,2.5,10.1c1.7,2.9,4,5.2,7.4,5.8c3.3,0.6,6.7,0.8,10,0.7
		c8-0.2,13-4.4,15.2-12c0.2-0.7,0.4-1.4,0.9-2.1c6.1-3,11.6-7.2,17.7-10.3c1.6,0,2.7-1.1,3.9-1.8c0.9-0.5,1.7-0.9,2.5-1.5
		c1.3-0.9,2.7-1.5,4-2.3c9.4-5.6,19-11,28.4-16.4c1.1-0.6,2.2-1.8,3.7-0.9c2.7,5.5,3.4,11.6,4.5,17.5c0.2,1.2,0.4,2.4,0.6,3.7
		c-0.5,1.4-1.9,1.9-3,2.6c-20.5,13.2-41,26.4-61.8,39.3c-0.4,0.3-0.9,0.4-1.4,0.7c0.4-0.1,0.8-0.4,1.2-0.5
		c14.1-9.1,29-17.1,43.4-25.6c5.4-3.2,10.8-6.2,16.2-9.3c2-1.2,3.9-2.6,5.6-4.2c1,6.4,1.6,12.9,1.3,19.4c-1.8,2.5-4.6,3.4-7,4.9
		c-1.1,0.8-2.3,1.4-3.4,2.1c-0.9,0.4-1.7,0.9-2.2,1.5c0.6-0.4,1.3-1,2.2-1.3c1.3-0.8,2.6-1.5,3.9-2.4c2.2-0.8,3.7-3.4,6.6-2.7
		c0.7,6.9,0.7,13.8,0.8,20.7c0,1.2,0.2,2.5-0.5,3.6c-0.3-0.2-0.6-0.4-0.8-0.7c-0.8-4.4-0.8-4.5-4.6-2.1c-9.5,6.1-19,12.2-28.5,18.4
		c-1.3,0.8-2.5,2.2-4.4,1.6c-6.1-4.2-13.1-5.6-20.3-5.7c-13.2-0.2-26.5-0.4-39.7,0.1c-8.2,0.3-16.5,0.6-24.7,0.6
		c-6.2,0-12.4-0.8-18.7-0.8c-8.3-0.1-15.9,1.3-22.4,6.8c-2.1,0.9-4.1,2.1-6.1,3.3c-10,5.6-19.8,11.4-29.6,17.2
		c-0.9,0-1.9-0.3-1.9-1.3c0.1-2.7-0.9-5.6,0.9-8.2c9.7-6.8,19.8-13,29.6-19.5c14.3-9,28.1-18.7,42.7-27.4c1.4-1,3-1.6,4.2-2.8
		c0.8-0.3,1.5-0.8,2.3-1c0.5-0.3,0.9-0.7,1.3-1.1c-0.4,0.2-0.7,0.7-1.1,0.9c-1,0.5-2.2,0.7-3,1.6c-1.2,0.9-2.6,1.6-3.9,2.4
		c-12,7.4-24.3,14.5-36.6,21.5c-2.3,1.3-4.7,2.4-5.8,5c-2.2,0-4,0.7-5.9,1.8c-5.7,3.3-11.3,6.8-17.2,9.9c-2,1.1-3.6,2.7-5.1,4.2
		c-0.7-0.9-2.3-0.4-2.7-1.7c0-2.3,0-4.6,0-6.8c2.7-3.4,6.8-4.6,10.3-6.9c3.3-2.4,7.1-4.1,10.4-6.5c1-0.6,2.1-0.9,3-1.6
		c0.3-0.3,0.8-0.4,0.9-0.9c-0.2,0.3-0.5,0.5-0.8,0.7c-1.1,1-2.7,1.2-3.7,2.3c-3.2,2-6.6,3.8-9.7,5.9c-3.6,1.5-6.2,4.8-10.4,5
		c0-2.5,0-5,0-7.5c1.3-2.7,4.1-3.4,6.4-4.9c4.1-2.7,8.4-5.2,12.6-7.7c1.3-0.9,2.8-1.6,3.6-2.2c-1.1,0.6-2.4,1.6-4,2.4
		c-5.1,3-10,6.2-15.2,9.1c-1,0.6-2,1.6-3.4,0.9c0-2.4,0-4.9,0-7.3C244.1,465.4,242.8,462.6,243.6,459.8z"/>
	<path id="XMLID_1362_" class="st7" d="M249,289.6c4.3,0,8.6,0.1,12.9,0.1c0,1.7-1.4,2.3-2.4,3c-8.8,5.8-17.2,12.1-26.3,17.5
		c-0.7,0.4-1.4,0.8-1.9,1.3c-0.1,0.1-0.3,0.2-0.5,0.3c0.2,0.1,0.4,0.1,0.6-0.2c0.6-0.7,1.5-1,2.2-1.5c10.3-6.6,21.1-12.4,31.6-18.7
		c1.3-0.8,2.9-0.9,4.1-1.8c4.5,0,9,0,13.5,0c0.3,2-1.5,2.2-2.6,3c-4.4,2.3-8.3,5.6-12.7,7.9c-0.8,0.4-1.4,1-2.2,1.4
		c0.9-0.4,1.6-1.1,2.6-1.5c3.9-2.3,7.6-4.9,11.7-6.9c2.5-1.4,4.9-3.2,7.8-3.9c4.3,0,8.5,0,12.8,0c0.1,1.9-1.5,2.3-2.7,3
		c-2.2,1.3-4.2,2.9-6.5,4c-0.8,0.6-1.6,1.2-2.5,1.6c-0.7,0.4-1.3,0.8-1.9,1.3c-0.2,0.1-0.4,0.1-0.6,0.1c0.2,0.1,0.4,0.1,0.6,0
		c0.7-0.5,1.4-1,2.2-1.4c0.9-0.4,1.6-1.1,2.5-1.6c3.1-2.5,7.5-3.2,9.6-7c11.1-0.1,22.2-0.3,33.4-1.2c4.3-0.4,8.9-0.9,13.3-0.2
		c-0.2,2.6-2.4,3.3-4.1,4.5c-14.3,10-28.5,20.1-43,29.8c-0.3,0.2-0.5,0.4-0.9,0.5c0.4,0.3,0.5-0.2,0.8-0.3
		c8.8-6.2,18.3-11,27.5-16.5c9-5.3,18.1-10.4,27.1-15.7c1.1-0.6,2.3-1,3.4-1.6c6,1.3,10.9,4.1,12.9,10.4c-2.9,3.9-7.4,5.7-11.2,8.5
		c-5.7,4.2-11.5,8.4-17.5,12c-0.7,0.5-1.4,1-2.1,1.5c0.8-0.5,1.6-1.2,2.5-1.7c8.6-5.2,17.3-10.2,26.1-15.2c0.9-0.5,1.9-1.3,3.1-0.7
		c1.4,5.4,1.6,10.9,1.2,16.4c-0.2,3.1-0.2,6.2-0.5,9.2c-2.1,3.1-5.6,4.7-8.3,7.2c-0.7,0.4-1.3,0.9-1.8,1.6c-1.2,1.6-3,2.4-4.8,3.1
		c-9.6,0-19.2-0.1-28.7,0c-11.7,0.1-23.2,1.6-34.5,4.9c-0.7,0.2-1.5,0.2-2.2,0.2c0.3-2.4,2.6-2.8,4-4c0.8-0.4,1.6-0.9,1.9-1.8
		c0,0.1-0.1,0.1-0.1,0.2c-0.5,0.9-1.4,1.2-2.2,1.7c-4.2,3.1-8.9,5.2-13.4,7.8c-3.5,2-7,4-10.4,6c-6.1,3.6-11.9,7.9-18.6,10.4
		c-9,0.1-18.1,0.1-27.1,0.2c-1,0.5-1.9,0.5-1.4-0.9c0.3-1,1.3-1.4,2.2-2c4.6-3.2,9.1-6.5,13.7-9.7c9-6.1,17.6-12.7,26.8-18.5
		c0.8-0.4,1.5-0.9,2.1-1.4c0,0,0.1-0.1,0.1-0.1s-0.2,0.1-0.3,0.1c-0.7,0.6-1.5,1-2.2,1.4c-17.8,10.8-35.8,21.2-54.1,31.3
		c-0.2,0.1-0.3,0.3-0.4,0.6c-7.5,0.6-14.9,0.7-22.4,0.7c-2.3,0.5-4.6,0.5-7.2-0.1c2.3-2.6,5.4-3.5,7.6-5.6c-5.9,6-13.3,6.7-21.1,6
		c-1.4-1.8,0.4-2.3,1.3-3c2.6-2,5.5-3.5,8.2-5.2c0.7-0.4,1.5-0.8,1.9-1.3c-0.6,0.4-1.2,0.9-2,1.3c-4.5,2.7-8.9,5.6-13.4,8.5
		c-4.5-0.2-9.1-0.5-13.6-0.7c-0.4-1.6,1.1-1.9,1.9-2.7c0.2-0.3,1.1-0.6,0.6-0.9c-0.5-0.4-1,0.3-1.6,0.5c-1.5,1-3,2.1-4.8,2.4
		c-3.6-0.1-7.3,0-10.6-2.2c-0.2-0.3-0.3-0.6-0.1-1c8.3-5.1,16-11,24.3-16c1.5-0.9,3-2.1,4.5-2.9c0.2-0.1,0.4-0.1,0.6-0.1
		c-0.2-0.1-0.4-0.1-0.6,0.1c-1.7,0.9-3.1,2.1-4.8,3c-6.8,4.6-14.3,8.2-21.2,12.7c-2.9,0.8-5.2,3.9-8.8,2.6c-2.2-1-4.6-1.8-5.2-4.5
		c0.2-0.3,0.4-0.6,0.7-0.8c10.7-7.4,21.2-14.9,32-22.1c-10.5,6.9-22,12.3-32.4,19.3c-0.4,0.1-0.7,0.1-1-0.2
		c1.1-6.1,0.1-12.1,0.1-18.2c0.7-1.7,2.2-2.7,3.6-3.7c4.9-3.6,9.6-7.4,14.7-10.7c0.4-0.3,0.9-0.6,0.5-0.4c0.2-0.2-0.4,0.2-1,0.6
		c-3.9,2.6-8.1,4.8-12.2,7.1c-2.3,1.3-4.3,2.8-5.8,5c-1-8.6-1.6-17.2-1.2-25.9c0-0.9,0.9-1.7,1.4-2.6c0.2-0.1,0.4-0.3,0.4-0.5
		c0-0.2-0.3-0.3-0.6-0.2c-2-7.2,3.6-16.3,10-16.5c0.2,3.3,2,0.5,2.5,0.6c-0.4,0-1.3,0.1-1.8-0.8c3.4-1.7,6.8,0.4,10.2,0.1
		c2.3-0.2,4.7,0,7.1,0.1c-0.9,2.8-2.2,4.2-6.4,7.6c3.2-2.4,7.6-4.4,11.5-6.8c-1.6-0.2-3.5,0.6-5.1-0.8c0.8-1.1,2-0.9,3-0.8
		c10.5,0.8,21-0.5,31.4,0.1c3.1,0.8,6.3,0.2,9.5,0.4c0.6,0,1.3-0.2,1.7,0.5c0.4,0.8-0.1,1.4-0.6,2c-1.5,1.6-3.4,2.8-5.2,4.2
		c-6.1,4.5-12,9.3-18.3,13.5c-0.7,0.5-1.4,1-2.1,1.5c0,0-0.1,0.1-0.1,0.1s0.2-0.1,0.3-0.1c0.7-0.6,1.4-1,2.2-1.5
		c7.7-4.6,15.4-9.1,23.2-13.6c1.9-0.8,3.5-2.2,5.4-3c1.6-0.7,3-1.6,4.2-2.9c0.4-0.8,1.1-1.1,1.9-0.9c4.3,1.3,8.8,0.3,13.1,0.7
		c0.2,0.2,0.3,0.4,0.1,0.7c-0.1,0.2-0.2,0.3-0.2,0.3c-0.1,0.1-0.2,0.1-0.2,0.1c0.2,0.1,0.4,0.1,0.5-0.1c0.4-0.3,1.3-0.3,0.5-1.1
		c4.8,0.1,9.5,0.1,14.3,0.2c0.3,1.4-0.8,2-1.7,2.6c-12.1,8.4-24,17-36.4,25c-0.4,0.2,0.3,0.6-0.1,0.2c-0.1-0.1,0-0.1,0.2-0.3
		c14.2-8.8,28.9-16.8,43.3-25.3C245.5,291,247.3,290.3,249,289.6z"/>
	<path id="XMLID_1361_" class="st7" d="M126.1,415c-0.1-3.5-0.1-7.1-0.7-10.6c-0.2-1.2-0.6-2.7,0.7-3.8c1,0.8,0.7,2.1,1.4,3.4
		c6.6-4.6,12.5-9.9,19-14.3c0.2-0.1,0.3-0.2,0.5-0.3c-0.4-0.1-0.6,0.3-0.9,0.4c-5.5,3.8-11.4,6.9-17.2,10.3c-0.8,0.5-1.7,1-2.8,0.5
		c0.4-3.8-0.8-7.5-0.1-11.3c1.8,1.5,2.3-0.9,3.5-1.1c0.2-0.3,0.6-0.3,0.8-0.7c-0.4,0.3-0.8,0.5-1.1,0.8c-0.9,0.5-1.8,1-3,0.5
		c-0.1-5-0.1-10-0.2-14.9c0-1.2-0.2-2.6,1.9-2.3c16.8,2.8,33.7,1.8,50.6,2c-0.7,3-3.6,3.8-5.5,5.6c-1.1,1-2.4,1.7-3.6,2.6
		c4.1-2.6,8.4-5,12.6-7.3c-1.1-0.2-2.6,0.3-3.6-0.9c0.6-0.8,1.5-0.8,2.4-0.8c7.3,0.1,14.6,0.2,21.9,0.2c-1.2,3-4.1,3.9-6.5,5.5
		c-0.3,0.2-0.6,0.4-1,0.5c0.5,0,0.9-0.4,1.3-0.6c3.2-1.8,6.1-4.1,9.6-5.5c0.2,0,0.5-0.1,0.7-0.1c6.4,0.1,5.5-0.3,5.3,5.5
		c-0.4,10,2.7,18.4,11.4,24c3.9,2.6,8.3,3.9,13.1,3.5c3-0.3,3.8,1,3.2,3.7c-1.4,7-1.5,14-2.2,21.1c-0.8,0.9-1.3,2.1-2.5,2.7
		c-5.1,2.8-9.8,6.1-15,8.7c-1.4,0-2.4,1-3.4,1.7c-0.3,0.2-0.6,0.3-0.9,0.4c-1.5,0.3-2.5,1.5-3.8,2.2c-16.6,9.6-33.2,19.2-49.8,28.8
		c-1.3,0.8-2.7,1.2-4,2c-4.5,0-9.1,0-13.6,0c-0.7-1.6-1.5-0.2-2.2,0c-3.9,0.2-7.7-0.4-11.3-2.1c2.1-2.4,5.1-3.6,7.6-5.3
		c10.4-6.8,20.9-13.6,31.7-20c0.8-0.7,1.8-1,2.7-1.7c-1.1,0.6-2.1,1.1-3.1,1.8c-11.6,7-23.4,13.7-35.1,20.5c-1.9,1.1-3.8,2.3-6,2.9
		c-1.6-2-2.9-4.1-2.9-6.9c0.5-0.4,0.6-0.8,0-1.2c-0.2-3-0.2-6.1-0.8-9.1c-0.2-1.2-0.6-2.7,0.7-3.8c1.2,1.3,0.8,2.8,0.7,3.9
		c14.7-9.6,29.2-19.8,44.3-29c0.8-0.5,1.4-1.1,2.2-1.4c0.5,0,0.1,0.5,0.2,0c0-0.2-0.3-0.2-0.4,0c-0.8,0.5-1.4,1.1-2.2,1.5
		c-13.5,8.2-27.3,16-40.9,23.8c-1.1,0.7-2.2,1.8-3.7,1.1c-0.1-3.1,0.1-6.2-0.6-9.3c-0.3-1.3-0.7-3,0.7-4.2c1.1,1.4,1.1,2.9,0.3,4.2
		c11.6-8.2,23.6-16.3,35.8-24c0.9-0.6,1.9-1.1,2.7-1.8c0,0-0.1-0.2-0.1-0.2s0,0.2-0.1,0.2c-0.9,0.7-1.9,1.2-2.8,1.8
		c-10.8,6.5-21.7,12.7-32.6,19c-0.9,0.5-1.9,1.2-3.2,0.7c0.7-3.8-1.4-7.5-0.1-11.3c0.7,0.2,0.2,2.3,2.2,0.9
		c5-3.7,10.2-7.1,15.5-10.3c0.7-0.5,1.4-0.9,2.3-1.5c-1.1,0.6-1.9,1.1-2.8,1.7c-4.1,2.4-8.1,4.9-12.2,7.2c-1.5,0.8-2.8,2.1-4.8,1.5
		c0.4-3.8-1.4-7.6-0.3-11.5c1.3,1.4,2.5,0.9,3.9-0.1c4.3-3.1,8.6-6.2,13.2-9.1c-4.4,2.7-8.9,5.3-13.4,7.7
		C128.4,414.7,127.5,415.8,126.1,415z"/>
	<path id="XMLID_1360_" class="st8" d="M449.2,552.8c0.1,6.5,0.1,13.1-1.6,19.5c-1.7,3-4.7,4.6-7.1,6.5c1.8-0.5,3.2-3.3,5.9-2
		c-2,6.6-5,12.3-11.2,16c-11.6,6.9-24.1,10.8-37.6,11.8c-0.4-1.8,1.3-2.3,2.2-3.1c4-3.3,7.9-6.8,12.6-10
		c-8.2,4.7-15.8,9.4-23.7,13.6c-0.8,0.3-1.6,0.5-2.4,0.8c-7.3,0-14.7,0-22,0.1c-1.2,0-2.5,0-3.6-0.7c-0.2-2.1,1.5-2.7,2.7-3.6
		c9.9-7.3,19.7-14.6,29.7-21.8c1.1-0.7,1.9-1.6,2.9-2.5c1-1,2.3-1.4,3.6-1.9c9.4-3.5,13.4-9.3,13.4-19.3c0-1.9-0.3-3.8,0.5-5.5
		c7.6-5.1,15.7-9.2,23.5-13.8c2.5-1.5,4.5-3.5,7.1-4.7c1.2,0,2.4-0.6,3.5,0.3c0.6,3.2,0.9,6.4,0.8,9.7c2.1,6.2-2.3,9.1-6.3,12.2
		c-6.6,3.9-12.3,9-18.8,13c-0.3,0.3-0.8,0.4-0.9,0.8c0.3-0.4,0.7-0.6,1.1-0.9c5.6-3.7,11.7-6.7,17.3-10.3c1.1-0.7,2.5-1.2,3.2-2.5
		C445.6,553.2,447.3,552.8,449.2,552.8z"/>
	<path id="XMLID_1359_" class="st7" d="M195.8,274.7c-0.4-3.6,0.2-7.2,0.7-10.7c1.2-2.1,2.9-3.8,5-5.4c-1.6,0.8-2.5,2.4-4.4,1.7
		c1.6-10.5,11.8-19.7,21.9-20.9c5.5-0.7,10.9-1.6,16.5-1.4c-0.9,2.5-3.1,3.8-4.9,5.4c-2.5,2.2-4.9,4.4-7,6.3
		c6.4-3.6,12.9-7.9,20.1-11c9,0.8,17.9-0.1,26.9,0c0.6,0.9,0,1.3-0.5,1.9c1.2-1.2,2.8-1.2,4.2-1.8c3.5,0.3,6.8,1.2,9.9,3
		c0.1,2.6-2.4,3.8-3.2,6c2.6-0.7,4.3-3.8,7.4-3.1c3.1,1.4,4.9,4.1,6.9,6.7c-0.5,1.1-1,2.3-1.8,3.3c1.2,0,2.1-1.2,3.2-0.2
		c5.8,9,7.2,18.8,5.4,29.2c-0.3,1.6-1.3,1.6-2.4,1.6c-3.9,0-7.7-0.1-11.6,0c-2.1,0.1-2.6-0.9-2.5-2.7c0.2-4.1,0.9-8,0.2-12.2
		c-0.7-3.8-1.7-7.2-4.7-9.8c0-1.7,1.1-2.9,2.2-4.7c-2.1,1.6-4.2,2.2-6.1,3.1c-4.5-0.9-9.1,0.3-13.6-0.1c-0.6-3.1,2.6-4.2,3.3-6.9
		c-3.9,1.8-7.3,4.2-11.1,6c2.5,0.6,5.1-0.8,7.2,1.2c-3.6,1.4-7.3,0.5-11,0.3c-9.4-0.5-18.7-1.6-28.1,0.2c-3.3,0.6-5.9,2.6-8.8,3.8
		c-1.2,1.2-2.4,2.5-4.1,3c-1,0.3-1.9,0.8-2.7,1.4C204.3,270.1,200.6,273.4,195.8,274.7z"/>
	<path id="XMLID_1358_" class="st9" d="M486.7,523.6c0.8,12,1.5,23.9,2.2,35.9c0.1,1.1,0.3,2.3-0.7,3.2c-0.7-1.2-1.2-2.2-2.8-0.7
		c-1.7,1.7-3.5,3.4-5.6,4.6c-0.3,0.1-0.3,0.2-0.2,0.4c0.1-0.2,0.2-0.3,0.5-0.5c2.7-1.3,4.8-3.7,8.1-3.7c-0.2,7.6-2.1,14.7-6.6,21
		c-5.2,7.3-12.7,7.9-20.7,7.3c0.9-3.3,4.2-4.6,6-7.5c-4.8,2.6-9,5.6-13.9,7.6c-1.2,0-2.5,0-4.4,0c3-4.6,5.6-9,7.1-14
		c1.1-3.7,2-7.4,2.4-11.2c0.8-8.9,0.6-17.8-0.6-26.7c-0.2-1.4-0.1-2.7-0.1-4.1c0.7-0.9,1.5-1.7,2.3-2.4c0,0,0-0.1,0-0.1
		s-0.3,0.1-0.3,0.1c-0.7,0.4-1.3,0.6-2,0.1c-1.4-5.7-0.9-11.6-1.4-17.3c-0.2-1.8,1.3-2.2,2.8-2.2c6,0.1,12-0.2,18,0.2
		c2.6,0.2,5.2-0.1,7.8-0.3c2-0.1,3.1,0.5,2.8,2.7c-0.3,2.3,0.7,4.7-0.6,7c-1.1-0.6-0.8-1.7-1-2.8c-2.6,3.1-6,5.2-8.7,7.9
		c2.1-1.2,4.2-2.5,6.4-3.8C484.6,523.6,485.5,522.7,486.7,523.6z"/>
	<path id="XMLID_1357_" class="st9" d="M201.8,561.9c0-3,0-6.1,0-9.1c1.4-3,4.2-4.4,6.4-6.3c-2.1,0.5-3.6,3.1-6.4,2.7
		c0.4-9.7,1.8-19.3,1.4-29c-0.2-6.2-0.1-6.3,6.4-6.3c6.7,0,13.5,0.2,20.2-0.1c3.2-0.1,4.5,0.6,4.2,4.1c-0.9,8.7-1.5,17.5-2,26.3
		c-0.9,15.4-1.1,31,7.6,44.9c0.3,0.5,0.5,1.1,0.9,2.2c-7.7-0.5-15.1,0.8-22.3-1.3c1.4-1.9,3.7-2.9,4.7-5.1c-2.2,1.5-4.6,2.7-7,4
		c-2.8-1.5-5-3.8-7.3-5.9c0.8-0.8,1.8-1.2,2.7-1.8c-1,0.4-1.8,1.2-3,1c-2.1-2-2.9-4.9-4.3-7.4c1.9-2.1,4.4-3.5,6.1-5.5
		c-2.2,1-3.9,3.2-6.7,3.3c-0.5-2.8-1-5.7-1.6-8.5c0.5-1.4,2-1.8,2.8-2.9C203.8,561.7,202.9,562.4,201.8,561.9z"/>
	<path id="XMLID_1356_" class="st10" d="M276.6,278.2c-0.5,6.8-0.5,6.8-8,6.8c-8.6,0-17.1,0-25.7,0c-5.8,0-11.6-0.1-17.5,0
		c-2.7,0.1-3.7-0.9-3.9-3.6c-0.4-4.6,0.3-9.2,0.6-13.8c0.1-1.4,0.7-2.6,2.5-2.8c5.5-0.5,10.9-2.5,16.5-0.4c1.9,0.7,3.2-1.1,4.9-1.1
		c8.7-0.2,17.4,0.8,26,1.8c3,0.4,4.4,1.9,4.5,4.8C276.7,272.4,276.6,274.9,276.6,278.2z"/>
	<path id="XMLID_1355_" class="st8" d="M456.1,507.9c-0.5-10.8-1-21.6-1.5-32.4c1.7-3,4.9-3.6,7.5-4.8c-0.5,0-1.6,0.6-1.6-0.9
		c4.3,0.3,8.4,1.4,12,3.8c0.3,2.8-2.3,3.9-3.4,5.5c2.3-1,4.2-3.2,7-3.4c2.3,1.5,4.2,3.4,5.3,5.9c-2,3.8-5.6,6-8.1,8.9
		c0.6-0.4,1.5-1,2.4-1.5c2.6-1.3,4.8-3.6,7.9-3.6c3.8,6.7,4.7,14,4.3,21.5c-0.1,3.1-2.8,1.4-4.4,1.9c-1.2-1.7,0.8-2.9,0.7-4.7
		c-3,1.6-5.8,3.5-8.9,4.6c-4.5,0-9,0-13.5,0c-0.2-2.8,2.5-3.3,3.8-4.8c-1.7,1.5-3.8,2.6-5.9,3.7C458.8,508,457.5,508.8,456.1,507.9z
		"/>
	<path id="XMLID_1354_" class="st8" d="M204,491.3c1.8-9.2,6.6-16,15.5-19.5c1.3-0.5,2.6-1,4-0.6c2.4,1.2,4-1.3,6.1-1.5
		c7.4,0,7.3-1.2,6,6.7c-2.4,3.9-5.9,6.8-9.2,9.2c3-1,4.8-5.5,9.2-4.8c-0.3,6.3-0.6,12.6-0.9,18.9c0.4,4.4-2.9,5.7-5.9,7.4
		c-1.2,0.7-2.6,0.7-3.8,1.5c-4.5,0-9,0-13.5,0c-0.5-1.7,0.9-2.4,1.8-3.4c2.3-2.4,4.7-4.8,7.2-7.2c-3.1,1.9-6.2,3.5-9.2,5.3
		c-1,0.5-2.2,0.8-2.5,2.1c-0.4,1-1.2,1.5-2.1,1.9c-0.6,0.6-2,0.1-2,1.5c-1,0.7-2.1,0.7-2.1-0.7c0.1-3.8-0.8-7.7,0.6-11.4
		c2.5-3.7,6.2-6,9.3-8.3c-1.6,0.9-3.6,2.3-5.7,3.3C205.9,492,204.6,493.4,204,491.3z"/>
	<path id="XMLID_1353_" class="st8" d="M243.7,519.9c0-2.5,0-5,0.1-7.5c0.8-0.9,1.6-1.8,2.7-2.4c9.5-6.1,19-12,28.6-17.8
		c1.2-0.2,2.2-2.2,3.5-0.2c-1.7,8.5,0.9,17.2-1.3,25.7c-0.4,1-1.2,1.5-2.1,2c-9.1,5.3-18.3,10.6-27.5,15.8c-1.4,0.3-2.4,1.9-4.1,0.8
		c0-5,0-10,0-15c0.3-0.8,1.1-1.2,1.4-1.3C245,520.3,244.4,520.4,243.7,519.9z"/>
	<path id="XMLID_1352_" class="st8" d="M315,603c-10,0-20.1,0.1-30.1,0.1c-0.1-1.9,1.6-2.3,2.8-3.1c5.6-4,11.8-7.2,17.2-11.5
		c2.2-1.2,4.6-2.1,6.4-4c0.8-0.9,1.7-1.6,2.8-2c1.6,0.3,2.2-1.2,3.2-2c2-1.4,3.8-3.1,6.2-3.8c9.9,0.6,19.8,0.7,29.6,2.3
		c1,0.4,1.4,1,0.5,1.9c-0.9,0.9-2,1.5-3,2.1c-10.5,6-20.9,12.1-31.4,18.1C317.9,602.1,316.4,602.5,315,603z"/>
	<path id="XMLID_1351_" class="st8" d="M350.2,605.3c-9.7-0.7-19.4-1.3-29.1-2c11.8-6.7,22.7-14.9,34-22.5c0.9-0.6,1.7-1.4,2.9-1.7
		c3.1-0.7,6.2,0.4,9.3,0.5c7.6,0.2,15.1-0.5,22.6-1.5c1.3-0.2,2.7-0.6,4.1-0.2c1.6,1,0.4,1.6-0.4,2.1
		C379.3,588.8,364.6,596.8,350.2,605.3z"/>
	<path id="XMLID_1350_" class="st7" d="M219.6,442c3.9-3.5,8.7-5.8,13.2-8.3c1.7-1,2.9-2.7,4.9-3.1c-0.4,5.3,0.8,10.6-0.5,15.9
		c-0.3-0.1-0.6-0.3-0.8-0.6c-1.4-1.5-2.5-0.1-3.6,0.5c-14.4,8.1-28.6,16.5-42.9,24.6c-3.7,2.1-7.2,4.5-11.2,5.9
		c-4.4,0-8.8,0-13.2-0.1c0.1-1.5,1.3-2.1,2.3-2.7c14.8-9.4,29.4-19.2,44.5-28.1c1.3-0.7,2.4-1.8,3.5-2.6c0.3,0,0.5,0,0.8,0
		C217.6,442.8,218.5,442.1,219.6,442z"/>
	<path id="XMLID_1349_" class="st8" d="M322.5,577.7c-1.4,1.8-3.4,2.7-5.3,3.7c-0.9,0.6-1.9,1-2.9,1.4c-0.8,0.8-1.5,1.5-2.3,2.3
		c-2.5,0.7-4.5,2.4-6.8,3.4c-8.1,5.6-16.9,10.2-25.5,15.2c-6.2-0.8-12.2-1.9-17.3-5.8c-0.3-1.1,0.4-1.7,1.1-2.1
		c9.3-5.9,18.3-12.2,27.8-17.7c0.4-0.3,0.9-0.4,1.4-0.5c8.3,0.2,16.5-1.6,24.8-1C319.3,576.6,321.1,576.2,322.5,577.7z"/>
	<path id="XMLID_1348_" class="st8" d="M446.2,517.7c1.2,3.1,0.9,6.5,1.4,9.7c-2.4,2.6-5.6,4.2-8.4,6.2c-7.5,5.2-15,10.4-22.7,15.3
		c-1.1,0.7-2.1,2.2-3.3,0.1c0-6.9,0.3-13.8,0.7-20.7c0.6-1.9,2.3-2.7,3.9-3.6c1.3-0.4,2.7-0.8,3.9-1.6c0.9-0.5,1.8-0.9,2.7-1.4
		c1.3-0.7,2.6-1.6,3.9-2.4c4.9-2.8,9.8-5.8,14.8-8.5c3.4-1.3,2.4,1.7,3,3.1C446.2,515.1,446.2,516.4,446.2,517.7
		c-0.3,0.4-0.5,0.8-0.8,1.1C445.7,518.4,446,518,446.2,517.7z"/>
	<path id="XMLID_1347_" class="st10" d="M247.9,373.6c2.3-0.9,4.5-0.2,7.4-0.4c-3.4,5.1-6.5,9.5-8.8,14.5c-1.1,2.4-2.4,4.7-3,7.2
		c-0.9,3.8-2.9,5.1-6.6,4.2c-0.9-1-2.1,0.1-3.1-0.5c-2.4-0.5-4.5-1.3-6.2-3.2c-0.2-0.9,0.3-1.6,1-2.1c-0.8,0.3-1.5,0.7-2.4,0.6
		c-4.2-4.5-5-9.9-4.3-15.7c0.3-0.4,0.8-0.5,1.3-0.6c6.1-5.4,13.3-4.7,20.6-4.1c0,0.4-0.2,0.7-0.4,1c-0.4,0.6-0.9,1.1-1.5,1.6
		C244,375,246,374.4,247.9,373.6z"/>
	<path id="XMLID_1346_" class="st8" d="M395.8,424.6c-5.2,3.4-10.4,6.7-15.7,10c-0.3,0.2-0.9-0.2-1.4-0.3c-1.7-3.6-1.4-7.2-0.1-10.8
		c18.4-11.2,37.3-21.5,55.7-32.5c1,2.5,1.9,4.9,2.9,7.4c-2.8,3.7-7.1,5.2-10.8,7.7c-6.8,4.5-13.8,8.7-20.8,12.9
		c-1.3,0.7-2.7,1.4-3.9,2.3c-0.7,0.4-1.4,0.9-2,1.4C398.2,423,397.5,424.8,395.8,424.6z"/>
	<path id="XMLID_1345_" class="st8" d="M418.5,525.1c-1.2,0.7-2.4,1.5-3.6,2.2c-1.1-0.8-1.2-2.1-1.2-3.3c0-4.4-0.3-8.9,0.1-13.3
		c0.1-0.4,0.2-0.8,0.4-1.2c1.8-2,4.2-3,6.5-4.3c7.8-4.4,15.4-9.3,23.4-13.3c0.4-0.1,0.7,0,1.1,0.2c0.1,5.3,0.2,10.5,0.2,15.8
		c-0.5,0.9-1.3,1.6-2.2,2.1c-5.1,3.2-10.1,6.4-15.2,9.5c-1.3,0.6-2.5,1.6-3.8,2.3c-0.7,0.4-1.4,0.9-2,1.4
		C420.9,523.7,419.9,524.8,418.5,525.1z"/>
	<path id="XMLID_1344_" class="st7" d="M237.2,446.5c-0.6,4.6,0.3,9.2-0.7,13.8c-0.4,2-1.2,2.6-3.2,2.6
		c-11.9-0.3-22.2,3.7-30.4,12.6c-1.1,1.2-2.3,1.7-4,1.6c-3.1-0.1-6.2-0.1-9.4-0.1c0-1.5,1.3-2,2.3-2.7c13.1-8.5,26.2-17.1,39.3-25.7
		c1.7-1.1,3.3-2.7,5.7-2.4C237,446.4,237.1,446.5,237.2,446.5z"/>
	<path id="XMLID_1343_" class="st8" d="M243.8,550c0-3,0-6,0-9c10.5-6.6,20.9-13.3,31.3-20c0.7-0.5,1.5-1,2.1,0.2
		c-0.2,3.8,0.4,7.7-1,11.5c-1.1,1.2-2.5,1.8-4,2.2c-1.2,0.2-2.2,0.8-3.2,1.4c-1.1,0.7-2.2,1.5-3.4,2.1c-1.3,0.7-2.6,1.6-3.9,2.4
		c-4.8,2.9-9.7,5.5-14.5,8.4C246.2,549.8,245.1,550.8,243.8,550z"/>
	<path id="XMLID_1342_" class="st8" d="M271.5,534.1c1.3-0.5,2.6-1,4-1.5c1.6,3.1,0.9,6.4,0.6,9.6c-1.3,3.1-4.7,3.4-7,5
		c-3.9,2.7-8,5.4-12.4,7.3c-1,0.2-1.9,0.6-2.8,1.1c-1.4,0.7-2.4,1.8-3.4,2.9c-0.6,0.6-1.1,1.3-2,1.5c-1.8-0.5-3.4,1.6-5.3,0.4
		c0.3-3.3-0.6-6.6,0.6-9.8c1.6,0.6,2.6-0.5,3.7-1.2c4.8-3.1,9.8-5.9,14.7-8.9c1.4-0.7,2.5-1.7,3.9-2.3c1.2-0.6,2.1-1.6,3.3-2.2
		C269.9,535.4,270.8,534.9,271.5,534.1z"/>
	<path id="XMLID_1341_" class="st8" d="M444.9,471.3c-0.5,3,0.7,6,0,9c-0.3,0-0.5,0-0.8-0.1c-0.7-0.1-1.4,0.3-2,0.6
		c-0.8,0.5-1.5,1.2-2.2,1.8c-0.4,0.3-0.8,0.6-1.3,0.8c-1.2,0.3-2,1.1-2.9,1.9c-6.1,4.3-12.9,7.6-19.1,11.8c-1.1,0.8-2.3,1.4-3.8,1.2
		c-1.9-2.2-2.9-4.7-3.1-7.6c1.6-3,4.9-3.7,7.5-5.3c7.7-4.5,15.4-9.1,23.2-13.4c1.3-0.7,2.4-1.9,4.1-1.2
		C444.7,471.1,444.8,471.2,444.9,471.3z"/>
	<path id="XMLID_1340_" class="st8" d="M413.2,498.2c7.5-4.5,15-9,22.5-13.6c0.9-0.7,1.8-1.2,3-1.4c0.2-0.3,0.5-0.5,0.7-0.8
		c1-0.6,1.9-1.3,2.9-1.8c0.7-0.3,1.5-0.8,2.3-0.6c0.1,0.1,0.2,0.2,0.3,0.3c-0.6,4,1,7.9,0.3,11.8c-0.1,0-0.3,0-0.4,0
		c-1.1-0.8-0.8-2-1-2.9c-8,5.3-16.2,10.6-24.4,15.8c-1.8,1.2-3.4,2.4-4.6,4.2l-0.3,0.2C412,506,412.3,502.1,413.2,498.2z"/>
	<path id="XMLID_1339_" class="st8" d="M248.2,559.6c0.5-0.5,1.1-1,1.6-1.5c1.2-0.8,2.4-1.8,3.6-2.5c1.1-0.4,1.8-1.3,2.7-2
		c4.8-1.7,8.7-5.1,13.1-7.5c1.9-1,3.8-2,5.7-3c2.3,2.5,1.2,5.4,1,8.2c-0.4,1.5-1.5,2.4-2.9,3c-1.4,0.6-3,0.8-4.1,2.1
		c-0.4,0.4-0.8,0.6-1.3,0.8c-2.1,0.3-3.5,1.9-5.1,2.9c-3.9,2.4-8.1,4.3-11.7,7.2c-2,0.5-3.6,1.5-5.3,2.5c-1,0.6-2,1.6-3.4,0.9
		c-0.2-2.8-0.4-5.5,0.7-8.2C244.2,560.7,245.9,559.5,248.2,559.6z"/>
	<path id="XMLID_1338_" class="st11" d="M236.9,446.3c-15.7,10.3-31.5,20.5-47.2,30.8c-3.7,0-7.3,0-11,0c0.8-0.6,1.5-1.3,2.3-1.8
		c18-10.4,36-20.8,54.1-31.2c0.5-0.3,1.1-0.5,1.6-0.8C237.4,444.3,237,445.3,236.9,446.3z"/>
	<path id="XMLID_1337_" class="st8" d="M267.5,556.8c0.3-0.3,0.7-0.6,1-0.9c1.3-0.6,2.9-0.7,3.6-2.2c1.3,0.1,2-0.9,2.9-1.5
		c1.9,3,1.6,6.5,2.1,9.8c-4.3,3-9.1,5-13.5,7.8c-1.5,0.9-3,1.8-4.5,2.6c-3.3,1.6-5.9,3.9-7.8,7c-0.9-0.8-1.8-1.7-3.2-0.8
		c-0.9,0.6-1.9,1.2-3.1,0.7c-1.3-1.5-1.7-3.5-2.2-5.3c-0.2-2.4,1.8-2.9,3.3-3.9c1.3-0.9,2.6-1.8,4.1-2.5c4.2-2.5,8.3-5.2,12.5-7.6
		C264.4,558.9,265.9,557.8,267.5,556.8z"/>
	<path id="XMLID_1336_" class="st12" d="M434.3,391c0.1,1.2-0.8,1.7-1.7,2.2c-17,9.8-33.9,19.6-50.9,29.4c-0.6,0.4-1.4,0.4-2.1,0.6
		c-0.2-0.3-0.2-0.6,0.1-0.9c0.6-1.3,1.3-2.4,2.6-3.2c15.8-10.2,31.5-20.5,47.2-30.7c0.9-0.6,1.8-1.5,3-1.1
		C433.1,388.4,433.7,389.7,434.3,391z"/>
	<path id="XMLID_1335_" class="st8" d="M252.6,589.7c-2.5-0.5-3-3-4.3-4.6c-0.7-1.2-0.2-2.2,0.5-3.1c9.7-5.4,19-11.6,28.1-18.1
		c2.8,2.1,3.4,5.5,4.9,8.4c-0.9,2.9-3.8,3.4-5.9,4.7c-4.1,2.6-8.4,4.9-12.7,7.2c-1,0.3-1.9,0.8-2.7,1.3c-1.2,0.5-2.5,0.8-3.6,1.6
		c-1.3,0.7-2.1,2-3.3,2.8C253.1,590,252.8,589.9,252.6,589.7z"/>
	<path id="XMLID_1334_" class="st8" d="M252.6,589.7c0.3,0,0.6,0,0.9-0.1c1.2-0.9,2.2-1.9,3.5-2.6c1-0.5,1.9-1.2,3-1.5
		c0.9-0.4,1.6-1.1,2.2-1.8c6.3-3.7,12.6-7.4,19-11.1c3.4,0.4,5.5,2.7,7.7,4.9c-2.4,2.9-6,3.9-9,5.8c-6.1,3.9-12.5,7.2-18.7,10.9
		c-1,0.6-2,1-3.1,1.2C255.9,593.8,253.5,592.4,252.6,589.7z"/>
	<path id="XMLID_1333_" class="st11" d="M358.3,289.1c-0.3,0.7-0.8,1.2-1.5,1.6c-19,10.9-37.9,21.7-56.8,32.6
		c-0.4-0.2-0.5-0.5-0.3-0.9c14.5-10.2,28.9-20.3,43.4-30.5c1.5-1.1,2.9-2.4,4.3-3.5C351,288.6,354.7,288.8,358.3,289.1z"/>
	<path id="XMLID_1332_" class="st13" d="M443.4,425.5c0,1.5-0.7,2.4-2,3.2c-20.9,12-41.8,24.1-62.6,36.1c-0.2,0.1-0.5,0.1-0.7,0.2
		c-0.3-0.1-0.4-0.3-0.3-0.5c0.1-0.2,0.1-0.3,0.2-0.3c12.1-7.9,24.2-15.8,36.4-23.6c9.6-6.1,18.9-12.6,28.8-18.1
		C443.2,423.5,443.3,424.5,443.4,425.5z"/>
	<path id="XMLID_1331_" class="st7" d="M210.8,265.6c1.5-0.7,3-1.5,4.6-2.2c-3.8,5.9-4.9,12.3-3.2,19.2c0.4,1.7-0.4,2.5-2.2,2.5
		c-3.7-0.1-7.5,0-11.2,0c-1.3,0-2.2-0.2-2.3-1.8c-0.1-2-1.1-3.9-0.6-5.9c4.1-3.5,8.4-6.8,12.9-9.8
		C209.6,267.1,210.3,266.4,210.8,265.6z"/>
	<path id="XMLID_1330_" class="st14" d="M249,289.6c-0.4,1.1-1.5,1.3-2.3,1.7c-15.3,8.9-30.6,17.7-45.9,26.5
		c-0.8,0.5-1.7,0.9-2.7,1.4c-0.2-1.6,1-1.8,1.7-2.3c11.6-8.2,23.3-16.3,34.9-24.4c1.3-0.9,2.5-2,3.8-2.9
		C242,289.7,245.5,289.7,249,289.6z"/>
	<path id="XMLID_1329_" class="st15" d="M350.2,605.3c-0.1-0.9,0.5-1.3,1.2-1.7c13.8-7.9,27.7-15.9,41.5-23.8c0.8-0.4,0.9,0,0.8,0.7
		c-10.1,7.5-20.2,14.9-30.3,22.4c-1,0.7-2.2,1.2-2.7,2.5C357.2,605.3,353.7,605.3,350.2,605.3z"/>
	<path id="XMLID_1328_" class="st16" d="M213,367.8c-1.2-1,0.2-1.2,0.6-1.4c18-10.4,36.1-20.7,54.1-31c0.8-0.4,0.9,0.1,0.8,0.7
		c-9,6.3-18,12.6-27,18.8c-3.4,0.6-5.9,3-8.8,4.5c-5.1,2.7-9.8,6.4-15.4,8.1C215.8,367.6,214.4,367.7,213,367.8z"/>
	<path id="XMLID_1327_" class="st17" d="M213,446.2c-14.8,9.5-29.6,19.1-44.4,28.6c-1,0.7-2,1.4-3,2.1c-2.4,0-4.8,0.1-7.2,0.1
		c0.4-0.5,0.7-1.1,1.1-1.4c17.5-10.1,35.1-20.1,52.6-30.2C212.8,445.2,213,445.5,213,446.2z"/>
	<path id="XMLID_1326_" class="st18" d="M357.1,580c-0.4,1.3-1.7,1.8-2.7,2.5c-9.2,6.3-18.4,12.5-27.5,18.8c-1.8,1.3-3.6,2-5.8,2.1
		c-2-0.1-4-0.2-6-0.2c8.9-6.1,18.6-10.9,27.8-16.5c3.7-2.2,7.4-4.4,11.2-6.7C355,579,356,579,357.1,580z"/>
	<path id="XMLID_1325_" class="st19" d="M276.6,520.6c-3.6,3.4-8,5.5-12,8.2c-5.4,3.6-10.9,7-16.3,10.5c-1.4,0.9-2.8,1.5-4.5,1.7
		c0-1,0-2,0.1-3c1-1.4,2.5-2.2,4-3c9.4-6,18.9-11.6,28.9-16.6C277.4,519.2,277.4,519.9,276.6,520.6z"/>
	<path id="XMLID_1324_" class="st19" d="M258,595.5c5.2-4,11.2-6.7,16.8-10.1c4.6-2.7,9.2-5.2,13.9-7.9c1.3-0.7,2.2-0.2,3,0.9
		c-8.8,5.7-17.6,11.4-26.3,17.2c-1,0.7-2.3,1-2.9,2.2C260.6,597.7,259.5,596.3,258,595.5z"/>
	<path id="XMLID_1323_" class="st20" d="M129,473.3c6.2-4.6,13.2-7.9,19.8-11.8c7.1-4.2,14.3-8.1,21.4-12.2c0.8-0.4,0.9,0.1,0.8,0.7
		c-12.7,8.1-25.3,16.3-38,24.4c-0.5,0.3-1.2,0.4-1.8,0.5C130.5,474.5,129.8,473.9,129,473.3z"/>
	<path id="XMLID_1322_" class="st21" d="M414.2,549.9c8.7-6.8,18.1-12.6,27.2-18.8c2-1.4,3.7-3.3,6.3-3.7c0,1,0,1.9,0,2.9
		c-0.5,1.4-1.5,2.1-2.9,2.3c-8.9,7.3-19.4,11.8-29.1,17.8c-0.4,0.2-1,0.1-1.4,0.2c-0.2-0.2-0.3-0.3-0.2-0.5
		C414,550,414.1,549.9,414.2,549.9z"/>
	<path id="XMLID_1321_" class="st7" d="M327.8,348.1c-10.8,6.3-21.5,12.5-32.3,18.8c-0.8,0.3-0.9,0-0.7-0.7
		c6.2-4.8,12.5-9.5,18.7-14.3c0.9-0.7,1.8-1.3,2.4-2.3C319.8,348.4,323.7,348,327.8,348.1z"/>
	<path id="XMLID_1320_" class="st22" d="M232.5,310c8.8-6,17.6-12,26.5-18c1-0.7,1.9-1.5,2.9-2.2c2.4,0,4.9,0,7.3-0.1
		c-2.7,2.6-6.2,4-9.4,5.9c-8.8,5.1-17.7,10.1-26.5,15.2C232.5,311.1,232.4,310.6,232.5,310z"/>
	<path id="XMLID_1319_" class="st23" d="M372,303.9c-9.7,5.5-19.4,11.1-29.1,16.6c-0.9,0.4-1-0.1-0.9-0.8
		c9.6-6.9,19.2-13.8,29.2-20.2C371.5,300.9,372.3,302.3,372,303.9z"/>
	<path id="XMLID_1318_" class="st7" d="M332.3,366.2c8.3-5.6,16.6-11.3,24.9-16.9c1-0.7,2.2-1.2,2.8-2.4c2.3,0.2,4.5,0.4,6.8,0.7
		c-11.2,6.5-22.5,12.9-33.7,19.4C332.2,367.2,332.1,366.8,332.3,366.2z"/>
	<path id="XMLID_1317_" class="st24" d="M387.7,604.7c8.7-5,17.4-9.9,26.2-14.9c0.2,0.2,0.4,0.5,0.6,0.7c-5.7,4.7-11.3,9.4-17,14.2
		c-2.4,0.8-5,0.7-7.5,0.8C389.2,605.6,388,606.4,387.7,604.7z"/>
	<path id="XMLID_1316_" class="st20" d="M243.8,238.6c-7,5.2-15,8.8-22.4,13.5c-0.2-0.3-0.5-0.6-0.7-0.9c5-4.4,10-8.8,15-13.2
		C238.3,238.2,241.1,238.4,243.8,238.6z"/>
	<path id="XMLID_1315_" class="st25" d="M405,418.7c10.7-6.8,21.4-13.5,32.2-20.3c0.4,0.9,1,1.8,0.8,2.9
		c-9.8,5.6-19.7,11.2-29.5,16.7c-0.9,0.5-1.8,0.9-2.6,1.4C405,419.8,404.9,419.4,405,418.7z"/>
	<path id="XMLID_1314_" class="st7" d="M357.8,341.4c1.4-1.2,2.8-2.5,4.2-3.7c1.1,0.1,1.8-0.8,2.7-1.3c2.6-1.5,4.6-4.3,8.1-4
		c-0.1,3,1,6.9-0.5,8.7c-1.3,1.5-5.5,0.4-8.4,0.4C361.8,341.4,359.8,341.4,357.8,341.4z"/>
	<path id="XMLID_1313_" class="st7" d="M217.3,367.5c7-4.2,14.1-8.3,21.1-12.4c0.9-0.5,2-1.2,3.1-0.2c-5,3.6-9.9,7.1-14.8,10.7
		c-0.4,0.3-2.2,0.7-0.1,1.3C223.5,368.3,220.4,367.4,217.3,367.5z"/>
	<path id="XMLID_1312_" class="st7" d="M275.9,418.5c-9.4,6.1-18.8,12.2-28.3,18.2c-0.5,0.3-1.1,0.5-1.7,0.7
		c-0.9-0.6-0.7-1.6-0.6-2.5c10-5.7,19.9-11.4,29.9-17.1C276,417.5,276.1,417.9,275.9,418.5z"/>
	<path id="XMLID_1311_" class="st26" d="M144.7,323.4c-6.2,4.7-12.4,9.4-18.6,14.1c-0.1-0.7-0.2-1.4-0.3-2.1
		c-0.1-1.9,0.6-3.1,2.4-4.1c5.3-2.8,10.4-5.8,15.6-8.8C144.7,322.2,144.9,322.6,144.7,323.4z"/>
	<path id="XMLID_1310_" class="st7" d="M244.3,445c0.8,2.3,1.9,0.7,2.8,0.2c7.7-4.3,15.3-8.7,23-13c0.8-0.3,0.9,0,0.7,0.7
		c-9,5.8-17.9,11.6-26.9,17.4C243.9,448.4,243.3,446.6,244.3,445z"/>
	<path id="XMLID_1309_" class="st27" d="M279.7,603.7c0.1-1.8,1.8-2,2.8-2.6c7.5-4.4,15.1-8.8,22.6-13.2c0.3,0.3,0.4,0.7,0.1,1.1
		c-2.4,3.1-6.2,4.4-9.3,6.6c-3.6,2.6-7.4,5-11.1,7.5C283.3,603.9,281.5,603.9,279.7,603.7z"/>
	<path id="XMLID_1308_" class="st9" d="M206.1,506.4c1.1,0,1.9-0.5,2.4-1.6c0.4-1.1,2.1-0.9,2.3-2.2c3.8-2.2,7.5-4.3,11.3-6.5
		c0.2,0.2,0.4,0.4,0.6,0.6c-3.7,3.9-7.4,7.9-11.1,11.8c-2,0-4,0-6,0C205,507.7,205.9,507.2,206.1,506.4z"/>
	<path id="XMLID_1307_" class="st28" d="M403.4,358c-7.7,4.8-15.4,9.7-23.7,13.4c-0.5-0.1-0.6-0.4-0.2-0.8
		c7.2-4.8,14.2-9.8,21.8-13.8C402,357.2,402.7,357.6,403.4,358z"/>
	<path id="XMLID_1306_" class="st23" d="M263.3,259c-3.1,0-6.1,0-9.2,0c-0.1-0.2-0.2-0.5-0.3-0.7c5-2.9,10-5.8,15.9-9.2
		c-1.4,4.4-4.5,6.5-5.9,9.7C263.6,258.8,263.4,258.9,263.3,259z"/>
	<path id="XMLID_1305_" class="st7" d="M192.7,295.7c2.1-1.8,4.2-3.6,6.5-5.6c-3.8-1.2-7.6,0.6-11-1.2c6.5-0.4,13,0.7,19.5,0.7
		c-0.2,2-2.2,2-3.4,2.9c-2.1,0.7-3.4,2.6-5.5,3.1c-1.1,0.5-2.1,1.4-3.3,1.7C194.3,297.8,192.9,297.6,192.7,295.7z"/>
	<path id="XMLID_1304_" class="st29" d="M126.1,415c6.5-3,12.2-7.5,18.8-10.3c0.2,0.3,0.3,0.6,0.5,0.8c-6.2,4.4-12.4,8.7-19.1,13.4
		c-0.2-1.3-0.3-2.4-0.4-3.4C126,415.4,126.1,415.2,126.1,415z"/>
	<path id="XMLID_1303_" class="st30" d="M453.1,591c4.7-4,10.4-6.2,15.4-9.5c0.2,0.3,0.4,0.6,0.7,0.9c-2.7,2.9-5.4,5.8-8.2,8.6
		C458.4,591,455.7,591,453.1,591z"/>
	<path id="XMLID_1302_" class="st31" d="M253.7,366.8c6-3.8,11.9-7.9,18.6-10.4c-3.7,3.4-7.3,7-11.2,10.2
		C258.9,368.4,256.2,366.5,253.7,366.8z"/>
	<path id="XMLID_1301_" class="st7" d="M348,346.7c-7.3,4.2-14.5,8.5-21.8,12.7c-0.8,0.3-0.9,0-0.7-0.7c4.6-3.2,9.2-6.4,13.8-9.5
		c1-0.7,2.2-1.2,2.7-2.5C344,346.7,346,346.7,348,346.7z"/>
	<path id="XMLID_1300_" class="st32" d="M144,418.6c-5.8,4-11.7,8-17.8,12.3c-0.1-1.4-0.2-2.4-0.3-3.3c0.2-0.1,0.2-0.3,0.2-0.5
		c5.6-3.1,11.3-6.2,16.9-9.4C144,417.4,144.1,417.9,144,418.6z"/>
	<path id="XMLID_1299_" class="st7" d="M249.6,410.4c4.5-1.1,7.8-4.7,12.2-6.2c0.7-0.1,0.9,0.2,0.9,0.8c-4.4,3.9-9.3,6.9-14.3,9.9
		C249.1,413.6,248.6,411.8,249.6,410.4z"/>
	<path id="XMLID_1298_" class="st33" d="M486.7,523.6c-3.9,2.2-7.8,4.3-11.7,6.5c-0.2-0.2-0.4-0.5-0.6-0.7c3.9-3.5,7.8-7,12.2-10.9
		c0.1,1.9,0.2,3.1,0.3,4.4C486.8,523.1,486.8,523.3,486.7,523.6z"/>
	<path id="XMLID_1297_" class="st34" d="M262.5,540.8c-5.5,3.5-11,7-16.5,10.5c-1.1,0.7-2.2,1.6-2.4-0.7c0.1-0.2,0.2-0.4,0.2-0.6
		c5.9-3.3,11.9-6.6,17.8-9.9C262.4,539.7,262.6,540.1,262.5,540.8z"/>
	<path id="XMLID_1296_" class="st27" d="M380,358.6c3-2.5,6.1-4.9,9.9-6.2c1,0.4,1.9,0.7,2.9,1.1c-4.4,2.7-8.5,5.8-13.5,7.4
		C378.7,359.8,379.5,359.2,380,358.6z"/>
	<path id="XMLID_1295_" class="st35" d="M209.3,267.9c-3.7,2.9-7.4,5.9-11.1,8.8c-0.7,0.5-1.3,1.2-2.3,0.8c0-0.9,0-1.8,0-2.7
		c3.8-3.2,8.3-5.2,12.6-7.6C209.3,266.8,209.4,267.2,209.3,267.9z"/>
	<path id="XMLID_1294_" class="st7" d="M262.4,465.8c-6.4,4.1-12.9,8.1-19.3,12.2c0-0.8,0-1.7,0-2.5c6.2-3.5,12.4-6.9,18.5-10.4
		C262.5,464.7,262.6,465.1,262.4,465.8z"/>
	<path id="XMLID_1293_" class="st9" d="M475.5,508.6c2.8-2.9,6.8-3.9,10.1-6.5c0.8,2.8-1.7,4.4-1.9,6.6
		C481,508.7,478.2,508.7,475.5,508.6z"/>
	<path id="XMLID_1292_" class="st8" d="M441.7,554.4c0-1.4,1.2-1.9,2-2.4c4-2.1,5.4-5.4,4.8-9.7c1.4,3.4,0.3,7,0.6,10.5
		c-1.2,1.4-3.4,0.5-4.5,2.1C443.5,555.9,442.4,556.4,441.7,554.4z"/>
	<path id="XMLID_1291_" class="st9" d="M225,508.6c0.9-1.7,2.7-2,4.2-2.8c2.6-1.4,5-2.8,5.4-6.1C234.9,508.9,234.9,508.9,225,508.6z
		"/>
	<path id="XMLID_1290_" class="st9" d="M204,491.3c3.7,0.1,5.9-3.1,9.1-4.2c0.5-0.2,1-0.6,1.6-0.6c-3.4,3.9-7.5,6.9-11.5,10.1
		C203.5,494.8,202.7,492.9,204,491.3z"/>
	<path id="XMLID_1289_" class="st8" d="M235.6,480.8c-4.3,1.3-7.2,5.1-11.7,6.2c3.9-3.5,7.8-7.1,11.6-10.6
		C235.5,477.8,235.6,479.3,235.6,480.8z"/>
	<path id="XMLID_1288_" class="st36" d="M288.6,244.6c-3,1.6-5.9,3.2-8.9,4.9c-0.2-0.2-0.4-0.4-0.6-0.6c1.7-2.4,3.4-4.7,5.2-7.1
		C285.9,242.4,287.5,243.1,288.6,244.6z"/>
	<path id="XMLID_1287_" class="st7" d="M169.3,368.3c7.4,0.8,14.4,0.1,20.4-5.1c0.3-0.2,0.6-0.4,1-0.5c0.2-0.1,0.4,0,1.5,0.1
		c-2.9,1.9-5.3,3.4-8.7,5.7c3.1,0,5.1,0,7.2,0c-4.4,1.5-9,0.5-13.5,0.6c-2.7,0.1-5.6,0.8-8.3-0.6
		C168.9,368.2,169.1,368.2,169.3,368.3z"/>
	<path id="XMLID_1286_" class="st8" d="M249.1,582c-0.3,1-0.6,2.1-0.8,3.1c-1.5-1.7-2.4-3.8-3.1-5.9c1.2-0.6,2.5-1.1,3.5-1.9
		c2.8-2.1,2.6-0.1,2.6,1.7C251.8,581,250.1,581.3,249.1,582z"/>
	<path id="XMLID_1285_" class="st7" d="M262.4,416.3c-5.3,3.1-10.1,7.1-15.7,9.9c0-0.8,0-1.6,0.1-2.4c5.3-2.2,9.8-5.7,14.9-8.2
		C262.5,415.3,262.6,415.7,262.4,416.3z"/>
	<path id="XMLID_1284_" class="st37" d="M169.3,368.3c-0.2,0-0.4,0-0.6,0.2c-0.9,0.2-1.9,0.3-2.8,0.5c3.5-4.3,8.5-6.4,13.2-8.9
		c0.8-0.4,1,0.1,0.9,0.8C176.4,363.3,172.9,365.8,169.3,368.3z"/>
	<path id="XMLID_1283_" class="st38" d="M460.6,469.7c0.6,0.3,1.3,0.6,2.2,1c-2.9,1.6-5.5,3.2-8.2,4.7
		C454.3,469.5,454.3,469.5,460.6,469.7z"/>
	<path id="XMLID_1282_" class="st39" d="M411,379.6c3.8-2.5,7.5-5,11.3-7.5c0.9,0.4,1.4,1.2,1.5,2.1c-3.9,2.1-7.8,4.1-11.8,6.2
		C411.1,380.8,410.9,380.4,411,379.6z"/>
	<path id="XMLID_1281_" class="st8" d="M476.3,489.8c-2,0.5-3.2,2.6-6.5,2.9c4.3-4.1,8-7.6,11.6-11.1c0.6,0.3,1.3,0.7,1.4,1.5
		C481.2,485.8,478.1,487.1,476.3,489.8z"/>
	<path id="XMLID_1280_" class="st40" d="M215.9,588.8c2.4-3.3,6.3-4.1,9.7-5.9c-2.3,2.5-3.7,5.9-7.3,6.9
		C217.5,589.5,216.7,589.2,215.9,588.8z"/>
	<path id="XMLID_1279_" class="st41" d="M282.7,350.4c3.8-3.8,8.8-5.7,13.4-8.3c0.9-0.4,1,0.1,0.9,0.8c-1.5,1.2-3.1,2.5-4.6,3.7
		C289.2,347.9,286.2,349.8,282.7,350.4z"/>
	<path id="XMLID_1278_" class="st8" d="M247,510.8c-1.1,0.4-1.8,1.6-3.2,1.6c-1.4-6-0.7-12-0.7-18.1c0.6,0.7,2.3,0,2.2,1.6
		c0.4,1.5-0.7,3-0.1,4.6c-2.3,2.3-1.4,5.1-1.3,7.8c0,1.2,1.2,1,2.1,1.1C246.7,509.6,247,510,247,510.8z"/>
	<path id="XMLID_1277_" class="st30" d="M476.2,475.7c-2.9,2.1-5.9,3.8-10.1,5.8c2.6-3.2,4.5-5.6,6.5-7.9
		C474,473.9,475.1,474.8,476.2,475.7z"/>
	<path id="XMLID_1276_" class="st42" d="M201.8,549.1c2.9-1.7,5.7-3.3,8.6-5c0.2,0.3,0.5,0.6,0.7,0.8c-3.1,2.6-6.2,5.2-9.3,7.8
		C201.8,551.5,201.8,550.3,201.8,549.1z"/>
	<path id="XMLID_1275_" class="st43" d="M203.4,572.5c2.8-2,5.7-3.7,9.1-4.7c-2.7,2.4-4.6,5.8-8.5,6.9
		C203.8,574,203.6,573.3,203.4,572.5z"/>
	<path id="XMLID_1274_" class="st8" d="M456.1,507.9c4.6-0.6,7.7-4.3,12.6-6.1c-2.3,2.9-5.3,4.2-6.7,6.9
		C460,508.3,457.8,509.6,456.1,507.9z"/>
	<path id="XMLID_1273_" class="st8" d="M446.4,576.9c-2.9,0.3-4.7,3-8.5,3.7c3.2-3.6,6.7-5.7,9.8-8.2
		C447.4,573.9,447.3,575.5,446.4,576.9z"/>
	<path id="XMLID_1272_" class="st44" d="M428.5,380.4c-3.4,2.9-7.4,4.8-11.3,6.9c-0.8,0.4-1,0-0.9-0.7c3.9-2.4,7.4-5.5,11.8-6.9
		C428.2,379.8,428.4,380.1,428.5,380.4z"/>
	<path id="XMLID_1271_" class="st45" d="M261.8,380.4c2.6-1.3,5.2-2.7,7.8-4c-3.3,3.2-6.3,6.8-10.7,8.5
		C259.8,383.4,260.8,381.9,261.8,380.4z"/>
	<path id="XMLID_1270_" class="st46" d="M300.7,289.7c0.3,1.6-0.3,2.6-1.7,3.3c-2.6,1.4-5.2,2.8-7.8,4.3c-0.8,0.4-0.9-0.1-0.9-0.8
		c3.3-2.3,6.5-4.5,9.8-6.8C300.3,289.6,300.5,289.6,300.7,289.7z"/>
	<path id="XMLID_1269_" class="st47" d="M253.6,480.8c-3.3,2.6-6.9,4.7-10.5,6.7c0-0.7,0-1.4,0-2.1c3.5-1.6,6.5-4.3,10.3-5.3
		C253.7,480.3,253.8,480.5,253.6,480.8z"/>
	<path id="XMLID_1268_" class="st8" d="M250.5,567.9c-2.1,2.5-5.8,3.1-7.5,6c-0.9-0.9-0.6-2-0.7-3.1c2.8-1,4.8-3.9,8.2-3.7
		c0.3,0.2,0.3,0.4,0.2,0.5C250.7,567.8,250.6,567.9,250.5,567.9z"/>
	<path id="XMLID_1267_" class="st48" d="M206.1,373c-2.5,3-6.1,4.2-9.4,6c-0.8,0.3-1-0.1-1-0.8c2.3-1.7,4.7-3.4,7-5.1
		C203.9,373,205,373,206.1,373z"/>
	<path id="XMLID_1266_" class="st49" d="M372.7,332.4c-2.7,1.5-5.4,3-8.2,4.6c-0.8,0.3-0.9-0.1-0.8-0.8c3-2.2,6-4.5,8.9-6.7
		C372.7,330.4,372.7,331.4,372.7,332.4z"/>
	<path id="XMLID_1265_" class="st49" d="M277.4,258.9c2-2.3,4.8-3.1,7.7-4.1c-1.3,1.9-2.5,3.8-3.8,5.7
		C280,259.9,278.7,259.4,277.4,258.9z"/>
	<path id="XMLID_1264_" class="st30" d="M476.3,489.8c0.9-3.5,3.6-5.2,6.6-6.7c0.3,0.8,0.6,1.5,0.9,2.3
		C481.3,486.9,478.8,488.3,476.3,489.8z"/>
	<path id="XMLID_1263_" class="st7" d="M132,363.9c2.6,0,4.5-1.7,6.6-2.6c0.6-0.3,1-1.2,1.7-0.2c0.4,1.9-1,2.7-2.3,3.6
		c0,0.3,0,0.6-0.1,0.9C135.8,365.4,133.7,365.3,132,363.9z"/>
	<path id="XMLID_1262_" class="st50" d="M197.2,260.3c2-1.1,3.9-2.2,5.9-3.4c0.2,0.3,0.4,0.6,0.6,0.9c-2.4,2.1-4.8,4.1-7.2,6.2
		C196.8,262.8,197,261.5,197.2,260.3z"/>
	<path id="XMLID_1261_" class="st7" d="M287.3,289.7c-2.3,1.8-4.7,3.4-7.4,4.4c-0.8-0.7-0.6-1.5-0.1-2.2c1.1-0.6,2.4-0.9,3-2.2
		C284.2,289.7,285.7,289.7,287.3,289.7z"/>
	<path id="XMLID_1260_" class="st51" d="M380.1,349.8c-2.6,1.7-5.2,3.4-8.1,4.5c-0.2-0.2-0.3-0.4-0.3-0.6c0-0.2,0-0.4,0.1-0.4
		c1.8-1.4,3.6-2.9,5.4-4.3C378.2,349.3,379.1,349.5,380.1,349.8z"/>
	<path id="XMLID_1259_" class="st52" d="M247.9,373.6c-2.2,1.9-4.8,3.2-8.2,4.7c1.3-2.5,2.6-3.9,4.3-4.9
		C245.3,373.5,246.6,373.5,247.9,373.6z"/>
	<path id="XMLID_1258_" class="st53" d="M136.5,289.5c1.3,0.1,2.6,0.2,4.7,0.3c-2.6,1.5-4.5,2.6-6.5,3.8c-0.8-2,1-2.7,1.2-3.9
		C136.1,289.7,136.3,289.6,136.5,289.5z"/>
	<path id="XMLID_1257_" class="st54" d="M437.3,449.4c2.5-1.5,5-3,7.4-4.5c0,0.7,0,1.4,0,2.1c-2.1,1.1-4.3,2.2-6.4,3.3
		C437.4,450.5,437.2,450.1,437.3,449.4z"/>
	<path id="XMLID_1256_" class="st55" d="M296.9,254.3c-1.4,0.6-2.8,1.3-4.7,2.1c0.8-2.4,1.5-4.2,3.4-5.2
		C296,252.3,297.1,253,296.9,254.3z"/>
	<path id="XMLID_1255_" class="st7" d="M148.5,367.6c1.3-1.3,2.9-2.2,4.5-3c1.4-0.4,1.1,0.9,1.5,1.5c-0.7,0.7-1.5,1.4-2.2,2.2
		C151,368.5,149.7,368.3,148.5,367.6z"/>
	<path id="XMLID_1254_" class="st56" d="M274.4,238.7c-1.8,1.6-3.9,2.7-6.3,3.7c0.1-2.2,2-2.5,2.6-3.8
		C271.9,238.6,273.1,238.7,274.4,238.7z"/>
	<path id="XMLID_1253_" class="st57" d="M201.8,561.9c1.7-0.9,3.3-1.9,5-2.8c-0.9,2.6-2.8,3.9-4.9,5
		C201.8,563.3,201.8,562.6,201.8,561.9z"/>
	<path id="XMLID_1252_" class="st58" d="M258.7,396.8c-2.2,1.3-3.9,3.4-6.6,3.8c0.4-0.8,0.9-1.5,1.3-2.3c1.5-0.7,3-1.5,4.5-2.2
		C258.7,395.7,258.8,396.1,258.7,396.8z"/>
	<path id="XMLID_1251_" class="st7" d="M229.5,469.7c-1.7,1.1-3.2,2.3-5,3.1c-2.6,1.2-0.6-1.1-1.1-1.6
		C225.4,470.2,227.4,469.9,229.5,469.7z"/>
	<path id="XMLID_1250_" class="st8" d="M443.2,509.4c0.7-0.5,1.5-1,2.2-1.5c0.1,2,1.1,3.9,0.7,6c-1.1-0.6,0.1-4-2.9-2.2
		C442.6,510.9,442.7,510.2,443.2,509.4z"/>
	<path id="XMLID_1249_" class="st59" d="M126.1,388.9c0.9-0.4,1.8-0.7,2.6-1.1c1-0.4,1.1,0.1,1,0.9c-0.7,0.6-1.4,1.3-2.2,1.9
		c-2.2,1.9-1.4-0.4-1.7-1.3C126.1,389.2,126.1,389.1,126.1,388.9z"/>
	<path id="XMLID_1248_" class="st60" d="M243.6,459.8c1.3,1.9-2.1,5.1,1.8,6.5c0.4,0.1-1.6,1-2.2,1.8
		C243.1,465.3,242.5,462.5,243.6,459.8z"/>
	<path id="XMLID_1247_" class="st61" d="M204,292c1.3-0.8,2.5-1.5,3.8-2.3c0.2,0,0.5,0,0.7,0.1c0.3,2.8-2.4,2.4-3.8,3.5
		C204.2,293,203.7,292.7,204,292z"/>
	<path id="XMLID_1246_" class="st62" d="M226.5,393.8c1.4-0.9,2.7-1.7,4.8-3c-0.8,2.5-2.7,3.1-3.4,4.6
		C227.4,394.8,226.9,394.3,226.5,393.8z"/>
	<path id="XMLID_1245_" class="st8" d="M248.2,559.6c-1.7,1-3.5,2-5.2,3c0-0.7,0-1.5,0-2.2C244.8,560.7,246.2,557.7,248.2,559.6z"/>
	<path id="XMLID_1244_" class="st63" d="M208.3,582.1c1.3-1.3,2.8-2,5.4-3.2c-1.8,2.4-2.7,4.2-5.1,4
		C208.5,582.7,208.4,582.4,208.3,582.1z"/>
	<path id="XMLID_1243_" class="st7" d="M243.8,457.6c1.5-0.8,3-1.5,4.5-2.3c0.8-0.3,0.9,0,0.7,0.7c-1.7,1-3.5,2.1-5.2,3.1
		C243.8,458.7,243.8,458.1,243.8,457.6z"/>
	<path id="XMLID_1242_" class="st64" d="M460.6,532.7c-0.9,0.9-1.6,2.1-3.1,2.3c0-0.8,0-1.5,0.1-2.3c0.7-0.3,1.4-0.6,2.2-0.9
		C460.5,531.6,460.7,532,460.6,532.7z"/>
	<path id="XMLID_1241_" class="st8" d="M444.7,532.6c1-0.8,2-1.6,2.9-2.3c0,0.8,0.1,1.6,0.1,2.4
		C446.8,532.3,445.7,534.1,444.7,532.6z"/>
	<path id="XMLID_1240_" class="st7" d="M127.6,359.3c-0.3,0-0.6,0-0.9,0c-1.2-1.1-0.6-2.5-0.7-3.7c0.2,0,0.5,0,0.7,0
		C129.4,356.3,128,357.9,127.6,359.3z"/>
	<path id="XMLID_1239_" class="st65" d="M142.5,477.1c0.2-0.8,0.7-1.3,1.5-1.5c0.5-0.2,1.1-0.9,1.6-0.1c0.7,1-0.8,0.9-0.9,1.6
		C144,477.1,143.3,477.1,142.5,477.1z"/>
	<path id="XMLID_1238_" class="st66" d="M223.1,373.6c0.8,0,1.7,0,2.7,0c-0.7,1.5-2,1.7-3,2.2C222.4,375,221.9,374.2,223.1,373.6z"
		/>
	<path id="XMLID_1237_" class="st67" d="M223.1,373.6c-0.1,0.7-0.2,1.5-0.3,2.2c0,0.7-0.2,1.4,0.7,1.7c-0.4,0.2-0.9,0.4-1.3,0.6
		C222.2,376.6,220.7,374.7,223.1,373.6z"/>
	<path id="XMLID_1236_" class="st8" d="M247.8,534.9c-0.9,1.5-2.5,2.1-4,3c0-0.5,0-1.1,0-1.6C245.3,536.4,246.2,534.6,247.8,534.9z"
		/>
	<path id="XMLID_1235_" class="st8" d="M243.7,519.9c1.1,0.1,2-1,3.6-0.4c-1.4,0.7-2.4,1.3-3.5,1.9
		C243.8,520.9,243.8,520.4,243.7,519.9z"/>
	<path id="XMLID_1234_" class="st68" d="M126.1,465.3c0.7,0.1,1.7-1.4,2.1-0.1c0.3,1.1-1.1,1.3-2.1,1.3
		C126.1,466.1,126.1,465.7,126.1,465.3z"/>
	<path id="XMLID_1233_" class="st69" d="M234,398.5c0.8-0.2,1.6-0.4,2.4-0.6c1.7-0.5,0.5,0.7,0.6,1.1C236,399,234.9,399.4,234,398.5
		z"/>
	<path id="XMLID_1232_" class="st70" d="M125.9,306.2c0.7-0.4,1.4-0.8,2.5-1.5c-0.4,1.8-1,2.5-2.3,2.2
		C125.9,306.6,125.9,306.4,125.9,306.2z"/>
	<path id="XMLID_1231_" class="st71" d="M206.1,506.4c0.6,1-0.3,1.5-0.6,2.2c-0.3,0.1-0.5,0.1-0.8,0.2c-0.3-0.1-0.8-0.1-1-0.3
		c-0.5-0.7,0.4-0.6,0.6-0.8C204.9,507.2,205.5,506.8,206.1,506.4z"/>
	<path id="XMLID_1230_" class="st72" d="M387.7,604.7c0.5,1,1.6,0.3,2.3,0.8c-1.2,0.7-2.5,0.6-3.8,0.5
		C386.6,605.4,387,604.8,387.7,604.7z"/>
	<path id="XMLID_1229_" class="st73" d="M224.3,289.5c0.4,0.2,0.8,0.4,1.2,0.6c-0.6,0.4-1.2,0.7-1.9,1.1c-0.8,0.3-0.9-0.1-0.8-0.7
		c0.2-0.3,0.5-0.5,0.7-0.8C223.7,289.6,224,289.5,224.3,289.5z"/>
	<path id="XMLID_1228_" class="st0" d="M414.2,549.9c0,0.2,0,0.5,0,0.7c-0.1,2.1-0.3,4.2-0.1,6.4c0.6,11.1-6.8,17.3-14.9,19.8
		c-1.1,0.3-2.1,0.7-3,1.5c-0.5,0.6-1.1,0.6-1.7,0.1c-12.4,2.4-24.9,2.5-37.4,1.5c-1,0-2,0-3,0c-10.5-0.7-21-1.5-31.5-2.2
		c-7.6-0.1-15.2-0.4-22.7,0.9c-2.8,0.5-5.4-0.5-8.2-0.1c-1-0.3-2-0.6-3-0.9c-2.9-1-5.1-3.1-7.5-4.9c-1.7-2.7-3.2-5.4-4.3-8.4
		c-0.6-0.4-0.7-1-0.3-1.6c-0.9-3.4-1.4-6.9-1.5-10.4c0-3,0-6-0.1-9c0.1-3.5,0.3-7,0.4-10.4c0.4-4,0.8-8,1.1-12
		c0-0.8,0.1-1.5,0.1-2.3c0.2-6.3,1.4-12.7,0.1-19c-0.6-2.9,0.9-5.3,1.6-7.9c0-1.2,0.8-1.8,1.7-2.3c5.3-5.5,12-7.3,19.3-7.5
		c13.5-0.4,26.9,1.5,40.4,0.6c15.7-1,31.5-0.7,47.2-0.6c4,0,7.9,0.8,11.8,1.8c3.4,0.9,6.6,2.2,9.1,4.9c1.3,0.3,2.1,1,2.2,2.4
		c1,2.5,2,5,3.1,7.4c0.4,3.8,0.9,7.5,1.3,11.3c0.1,6,0.2,11.9,0.3,17.9C414.6,534.9,414.4,542.4,414.2,549.9z"/>
	<path id="XMLID_1227_" class="st0" d="M379.7,422.2c0,0.3,0,0.6-0.1,0.9c-1.7,3.6-0.4,7.5-0.9,11.2c-1.3,4.4-2.8,8.7-6.4,11.9
		c-5.2,4.7-19.8,4.2-24.4,1.5c-5.5-3.3-7-8.9-7.3-14.8c-0.3-6.2-0.2-12.5,0-18.7c0.1-2.4-0.7-3.3-3-3.5c-7.6-0.6-15.2,0.5-22.8,0.9
		c-6,0.3-11.8,0-18.4-2.4c4.9-1.6,9.1-2.1,13.2-2.5c10.6-1.1,21.2-0.7,31.8,0c1.7,0.1,3.5,0,5.2,0c0.8-0.3,1.6-0.6,2.3,0.3
		c6.2,0,12.3,0.1,18.5,0.1c0.6-1.1,1.5-0.6,2.3-0.4c5.7-0.4,11.4-1,17.1,0c1.6,0.3,3.2,0.5,4.8,0.8c0.9,0.1,2,0.4,2.1,1.3
		c0.1,1.4-1.4,1.3-2.3,1.4c-3.7,0.5-7.4,0.9-11.1,1c-3,0-4.6,0.5-3.1,3.9C378.1,417.3,377.3,420.3,379.7,422.2z"/>
	<path id="XMLID_1226_" class="st15" d="M410.1,490.8c-0.7-0.8-1.5-1.6-2.2-2.4c6.6-5.3,14.1-9.3,21-14c3.9-2.7,8.1-5.2,12.2-7.7
		c1-0.6,1.9-2.1,3.2-1.4c1.2,0.7,0.4,2.3,0.5,3.4c0.1,0.7-0.1,1.5-0.2,2.2C433.1,477.5,421.6,484.1,410.1,490.8z"/>
	<path id="XMLID_1225_" class="st15" d="M245.2,500.5c-3.8-1.6,0.6-3,0.1-4.6c0.7-1.9,2-3.1,3.8-4.1c7.2-4,14.2-8.2,21.3-12.3
		c1.2-0.7,2.3-1.6,3.2,0.4c0.8,0.3,1.2,0.8,0.8,1.7C264.7,487.9,255,494.2,245.2,500.5z"/>
	<path id="XMLID_1224_" class="st7" d="M274.4,481.6c-0.3-0.6-0.6-1.1-0.8-1.7c0-1.6,0.6-2.7,2.2-3.5c13.6-7.7,27.2-15.5,40.7-23.3
		c0.8-0.3,0.9,0,0.7,0.7C302.9,463.1,288.7,472.3,274.4,481.6z"/>
	<path id="XMLID_1223_" class="st74" d="M247,510.8c-0.3-0.5-0.7-0.9-1-1.4c0.5-1.3,1.5-1.9,2.6-2.5c8.6-4.9,17.2-9.9,25.9-14.8
		c0.8-0.3,1,0.1,0.8,0.8C265.8,498.8,256.4,504.8,247,510.8z"/>
	<path id="XMLID_1222_" class="st34" d="M420.8,449.4c7.6-4.8,15.1-9.6,22.7-14.5c1.2,1.9,0.2,2.7-1,3.4
		c-6.9,3.9-13.9,7.9-20.8,11.8C420.8,450.6,420.7,450.1,420.8,449.4z"/>
	<path id="XMLID_1221_" class="st75" d="M423.8,467.5c6.8-4.3,13.6-8.6,20.6-13.1c0,2.6-11.6,10.5-19.8,13.7
		C423.8,468.6,423.7,468.1,423.8,467.5z"/>
	<path id="XMLID_1220_" class="st7" d="M380,358.6c-0.2,0.8-0.5,1.5-0.7,2.3c-6.7,4-13.3,8-20,12c-0.8,0.3-0.9-0.1-0.8-0.7
		C365.8,367.8,372.5,362.5,380,358.6z"/>
	<path id="XMLID_1219_" class="st7" d="M371.8,353.3c0.1,0.3,0.1,0.7,0.2,1c-3.6,2.5-7.3,4.7-11.2,6.6c-0.8,0.3-0.9-0.1-0.8-0.7
		C364,358,367.3,354.6,371.8,353.3z"/>
	<path id="XMLID_1218_" class="st7" d="M253.6,480.8c-0.1-0.2-0.2-0.5-0.2-0.7c2.8-2.7,6.4-4.2,9.8-6c0.4-0.3,0.7-0.3,1,0.1
		C261,476.9,257.4,479,253.6,480.8z"/>
	<path id="XMLID_1217_" class="st76" d="M262.7,405.1c-0.3-0.3-0.6-0.6-0.9-0.8c2.2-2,4.9-3.1,7.4-4.4c0.8-0.3,0.9,0.1,0.8,0.7
		C267.6,402.1,265.5,404.2,262.7,405.1z"/>
	<path id="XMLID_1216_" class="st7" d="M379.5,370.6c0.1,0.3,0.2,0.5,0.2,0.8c-1.7,2.4-4.5,3.1-6.9,4.5c-0.8,0.3-0.9,0-0.7-0.7
		C374.5,373.7,377,372.2,379.5,370.6z"/>
	<path id="XMLID_1215_" class="st77" d="M423.8,467.5c0.3,0.2,0.5,0.4,0.8,0.7c-1.9,1.3-3.6,2.9-6.1,2.9l0,0
		C419.4,468.6,422.1,468.8,423.8,467.5z"/>
	<path id="XMLID_1214_" class="st7" d="M262.4,465.8c-0.3-0.2-0.5-0.5-0.8-0.7c2-1.3,4.1-2.5,6.1-3.8c0.2,0.3,0.3,0.5,0.5,0.8
		C266.3,463.3,264.4,464.5,262.4,465.8z"/>
	<path id="XMLID_1213_" class="st78" d="M275.2,492.8c-0.3-0.3-0.5-0.5-0.8-0.8c1.7-1.4,3.5-2.5,5.7-2.9c-0.6,0.8-1.2,1.5-1.7,2.3
		C277.3,491.9,276.3,492.4,275.2,492.8z"/>
	<path id="XMLID_1212_" class="st79" d="M434.3,452.5c-1.4,1.2-2.9,2.2-5.4,2.9c1.6-2.5,3.6-3,5.3-4
		C434.5,451.7,434.6,452.1,434.3,452.5z"/>
	<path id="XMLID_1211_" class="st80" d="M408.2,382.7c-1.5,1.1-3,2.3-5.8,3c1.7-2.2,3.3-3,4.9-3.8
		C407.6,382.2,408.1,382.2,408.2,382.7z"/>
	<path id="XMLID_1210_" class="st7" d="M358.5,372.2c0.3,0.2,0.5,0.5,0.8,0.7c-2,1.3-4.1,2.5-6.1,3.8c-0.2-0.3-0.3-0.5-0.5-0.8
		C354.7,374.7,356.6,373.4,358.5,372.2z"/>
	<path id="XMLID_1209_" class="st81" d="M416.3,386.5c0.3,0.2,0.6,0.5,0.9,0.7c-1.5,1.2-3,2.2-5.8,3
		C413.1,388,414.8,387.4,416.3,386.5z"/>
	<path id="XMLID_1208_" class="st82" d="M408.2,382.7c-0.3-0.3-0.6-0.5-0.9-0.8c1.2-0.8,2.5-1.5,3.7-2.3c0.3,0.3,0.6,0.6,1,0.8
		C410.7,381.2,409.4,382,408.2,382.7z"/>
	<path id="XMLID_1207_" class="st83" d="M434.3,452.5c0-0.4-0.1-0.7-0.1-1.1c0.8-1,1.9-1.5,3.1-2c0.3,0.3,0.6,0.6,0.9,0.8
		C437.1,451.3,435.8,452.1,434.3,452.5z"/>
	<path id="XMLID_1206_" class="st84" d="M420.8,449.4c0.3,0.3,0.6,0.5,0.9,0.8c-1.1,1-2.3,1.8-3.8,2.2c-0.8,0.4-1-0.1-0.9-0.7
		C418.3,451,419.5,450.2,420.8,449.4z"/>
	<path id="XMLID_1205_" class="st85" d="M405,418.7c0.3,0.2,0.5,0.5,0.8,0.7c-1.2,0.8-2.5,1.5-3.7,2.3c-0.8,0.4-0.9-0.1-0.8-0.7
		C402.5,420.2,403.8,419.4,405,418.7z"/>
	<path id="XMLID_1204_" class="st86" d="M395.8,424.6c1.3-0.9,2.6-1.7,3.9-2.6c0.4,0.3,0.4,0.6,0.1,1
		C398.5,423.7,397.6,425.4,395.8,424.6z"/>
	<path id="XMLID_1203_" class="st87" d="M270,400.6c-0.3-0.2-0.5-0.5-0.8-0.7c1.3-0.7,2.5-1.5,3.8-2.2c0.3-0.3,0.7-0.3,1,0.1
		C272.9,399,271.4,399.7,270,400.6z"/>
	<path id="XMLID_1202_" class="st88" d="M256.6,450.9c-0.9,1.4-2.5,2-3.9,2.8c-0.3-0.1-0.6-0.4-0.7-0.7c1.3-1.1,2.8-1.9,4.5-2.3
		L256.6,450.9z"/>
	<path id="XMLID_1201_" class="st89" d="M273.7,429.9c1.2-1,2.5-1.7,4.5-2.3c-1.2,1.7-2.5,2.2-3.7,3
		C274.1,430.4,273.9,430.2,273.7,429.9z"/>
	<path id="XMLID_1200_" class="st7" d="M252,453.1c0.2,0.2,0.5,0.5,0.7,0.7c-1.2,0.8-2.5,1.5-3.7,2.3c-0.2-0.2-0.5-0.5-0.7-0.7
		C249.5,454.6,250.7,453.9,252,453.1z"/>
	<path id="XMLID_1199_" class="st7" d="M317.2,453.8c-0.2-0.2-0.5-0.5-0.7-0.7c1.2-0.7,2.5-1.5,3.7-2.2c0.4-0.3,0.7-0.3,1,0.1
		C320.1,452.3,318.6,453,317.2,453.8z"/>
	<path id="XMLID_1198_" class="st7" d="M273.7,429.9c0.2,0.2,0.5,0.5,0.7,0.7c-1.2,0.8-2.5,1.5-3.7,2.3c-0.2-0.2-0.5-0.5-0.7-0.7
		C271.2,431.4,272.5,430.6,273.7,429.9z"/>
	<path id="XMLID_1197_" class="st7" d="M360,360.2c0.3,0.2,0.5,0.5,0.8,0.7c-1.3,0.7-2.5,1.5-3.8,2.2c-0.3,0.3-0.6,0.3-0.9-0.1
		C357.1,361.7,358.7,361.1,360,360.2z"/>
	<path id="XMLID_1196_" class="st7" d="M372,375.2c0.2,0.2,0.5,0.5,0.7,0.7c-1.3,0.7-2.5,1.5-3.8,2.2c-0.3,0.3-0.7,0.3-0.9-0.1
		C369.1,376.7,370.7,376.1,372,375.2z"/>
	<path id="XMLID_1195_" class="st90" d="M262.4,416.3c-0.2-0.2-0.5-0.5-0.7-0.7c1.1-1.1,2.5-1.8,4.4-2.3
		C265,415,263.7,415.6,262.4,416.3z"/>
	<path id="XMLID_1194_" class="st91" d="M415.5,453.7c-1.2,0.8-2.4,1.6-3.6,2.4c0.6-1.9,2.2-2.5,3.6-3.3
		C415.8,453.1,415.8,453.4,415.5,453.7z"/>
	<path id="XMLID_1193_" class="st7" d="M332.3,366.2c0.2,0.2,0.5,0.5,0.7,0.7c-1.2,0.8-2.5,1.5-3.7,2.3c-0.8,0.3-0.9,0-0.7-0.7
		C329.8,367.7,331,366.9,332.3,366.2z"/>
	<path id="XMLID_1192_" class="st92" d="M275.9,418.5c-0.2-0.2-0.5-0.4-0.7-0.7c1.2-0.8,2.5-1.5,3.7-2.3c0.3-0.3,0.6-0.3,0.9,0.1
		C278.9,417.1,277.4,417.7,275.9,418.5z"/>
	<path id="XMLID_1191_" class="st7" d="M325.5,358.7c0.2,0.2,0.5,0.5,0.7,0.7c-1.2,0.8-2.5,1.5-3.7,2.3c-0.3,0.3-0.6,0.3-0.9,0
		C322.6,360.2,324.2,359.6,325.5,358.7z"/>
	<path id="XMLID_1190_" class="st93" d="M323.2,449.2c0.8-1.2,1.9-1.7,3.5-1.4c-1.2,0.7-2.3,1.5-3.5,2.2
		C322.8,449.8,322.8,449.5,323.2,449.2z"/>
	<path id="XMLID_1189_" class="st94" d="M418.5,471.1c-0.3,1.3-1,2-2.7,1.9C416.2,471.3,417.5,471.4,418.5,471.1
		C418.5,471.1,418.5,471.1,418.5,471.1z"/>
	<path id="XMLID_1188_" class="st95" d="M377.9,464.2c0,0.2,0.1,0.5,0.1,0.7c-1,0.8-1.8,1.9-3.7,1.5
		C375.5,465.3,376.6,464.6,377.9,464.2z"/>
	<path id="XMLID_1187_" class="st96" d="M407.1,392.9c0.6-1.3,1.7-1.9,3.5-2.6C409.7,392.3,408.2,392.3,407.1,392.9z"/>
	<path id="XMLID_1186_" class="st95" d="M401.8,385.6c-1.2,2-2.5,2.3-3.9,2.9C398.6,386.9,399.8,386.6,401.8,385.6z"/>
	<path id="XMLID_1185_" class="st7" d="M368.2,470.4c0.7-1.3,2-1.6,3.3-2.4c-0.2,1.9-1.7,1.8-2.5,2.4
		C368.7,470.7,368.5,470.7,368.2,470.4z"/>
	<path id="XMLID_1184_" class="st97" d="M264.2,474.2c-0.3,0-0.7-0.1-1-0.1c1-1.1,2.4-1.6,3.8-2.1c0,0.2,0,0.3,0,0.5
		C266.3,473.6,265.3,474,264.2,474.2z"/>
	<path id="XMLID_1183_" class="st98" d="M369.6,406.5c-0.8,0.1-1.5,0.2-2.3,0.4c-0.6-0.1-1.1-0.3-2.1-0.5
		C367,405.2,368.4,405.3,369.6,406.5z"/>
	<path id="XMLID_1182_" class="st99" d="M328.5,368.5c0.2,0.2,0.5,0.5,0.7,0.7c-0.9,0.8-1.8,1.7-3.6,1.2
		C326.8,369.6,327.7,369,328.5,368.5z"/>
	<path id="XMLID_1181_" class="st100" d="M272.2,459.1c0.7-1.2,1.9-1.7,3.8-2.2c-1.3,1.6-2.4,2.1-3.7,2.3L272.2,459.1z"/>
	<path id="XMLID_1180_" class="st101" d="M256.5,450.8c0.7-1.3,2-1.6,3.2-1.9c-0.7,1.3-1.8,1.7-3.1,2
		C256.6,450.9,256.5,450.8,256.5,450.8z"/>
	<path id="XMLID_1179_" class="st90" d="M272.3,459.2c-0.5,1.1-1.4,1.5-2.7,1.8c0.3-1.6,1.5-1.7,2.6-1.9
		C272.2,459.1,272.3,459.2,272.3,459.2z"/>
	<path id="XMLID_1178_" class="st102" d="M258.7,396.8c-0.3-0.2-0.5-0.5-0.8-0.7c0.8-0.5,1.5-1,2.4-1.6
		C260.7,396.2,259.5,396.3,258.7,396.8z"/>
	<path id="XMLID_1177_" class="st103" d="M406.6,365.4c-0.8,0.5-1.6,1-2.4,1.6c-0.5-1.8,0.9-1.8,1.7-2.3
		C406.1,364.9,406.5,365,406.6,365.4z"/>
	<path id="XMLID_1176_" class="st104" d="M368.1,378.1c0.3,0,0.6,0,0.9,0.1c-0.9,0.8-1.8,1.6-3.3,1.3
		C366.3,378.4,367.2,378.3,368.1,378.1z"/>
	<path id="XMLID_1175_" class="st88" d="M267,472.5c0-0.2,0-0.3,0-0.5c0.5-1,1.3-1.3,2.4-1.5C269.3,472.1,267.9,472,267,472.5z"/>
	<path id="XMLID_1174_" class="st105" d="M294.8,366.2c0.2,0.2,0.5,0.5,0.7,0.7c-0.8,1-1.8,1.4-3,1.6c-0.2-0.2-0.3-0.4-0.2-0.6
		c0.1-0.2,0.2-0.3,0.2-0.3C293.3,367.2,294,366.7,294.8,366.2z"/>
	<path id="XMLID_1173_" class="st106" d="M270.9,469.8c0.7-1.1,1.4-1.5,2.5-1.4C272.8,469.5,272.1,469.8,270.9,469.8z"/>
	<path id="XMLID_1172_" class="st107" d="M415.5,453.7c0-0.3,0-0.6,0-0.9c0.5-0.4,1-0.7,1.6-1.1c0.3,0.2,0.6,0.5,0.9,0.7
		C417.2,453.1,416.5,453.7,415.5,453.7z"/>
	<path id="XMLID_1171_" class="st108" d="M399.7,423c0-0.3,0-0.7-0.1-1c0.5-0.4,1.1-0.7,1.6-1.1c0.3,0.2,0.5,0.5,0.8,0.7
		C401.4,422.4,400.7,422.9,399.7,423z"/>
	<path id="XMLID_1170_" class="st8" d="M402.9,376.2c-0.5,0.6-1.2,1.3-1.7,0.8c-0.5-0.6,0.5-0.9,1-1
		C402.4,375.9,402.7,376.1,402.9,376.2z"/>
	<path id="XMLID_1169_" class="st109" d="M273.9,397.7c-0.3,0-0.6,0-1-0.1c0.6-0.7,1.4-1.2,2.4-1.3
		C275.5,397.5,274.7,397.5,273.9,397.7z"/>
	<path id="XMLID_1168_" class="st110" d="M279.9,415.7c-0.3,0-0.6,0-0.9-0.1c0.6-0.7,1.4-1.2,2.4-1.3
		C281.5,415.5,280.7,415.5,279.9,415.7z"/>
	<path id="XMLID_1167_" class="st111" d="M292.5,367.6c0,0.3,0,0.5,0,0.8c-0.3,0.7-0.8,1.1-1.8,1.3
		C290.9,368.5,291.7,368.1,292.5,367.6z"/>
	<path id="XMLID_1166_" class="st112" d="M348.9,406.8c-0.8-0.1-1.5-0.2-2.3-0.3c0.7-0.9,1.8-1,2.6-0.6
		C350.5,406.5,349.1,406.5,348.9,406.8z"/>
	<path id="XMLID_1165_" class="st113" d="M406.6,365.4c-0.3-0.2-0.5-0.5-0.8-0.7c0.8-0.4,1.7-1.7,2.4-0.6
		C408.6,364.7,407.2,365,406.6,365.4z"/>
	<path id="XMLID_1164_" class="st114" d="M354,364.7c-0.4,0.6-0.8,1.2-2,1.1c0.4-1,1.1-1.6,2-1.9C354.4,364.2,354.4,364.5,354,364.7
		z"/>
	<path id="XMLID_1163_" class="st115" d="M354,364.7c0-0.3,0-0.5,0-0.8c0.7-0.3,1.4-0.6,2.1-0.8c0.3,0,0.6,0,0.9,0.1
		C356.2,364.1,355.2,364.5,354,364.7z"/>
	<path id="XMLID_1162_" class="st116" d="M321.7,361.6c0.3,0,0.6,0,0.9,0c-0.3,0.2-0.5,0.6-0.8,0.7c-0.6,0.2-1.3,1.2-1.7,0.2
		C319.8,362,320.9,361.7,321.7,361.6z"/>
	<path id="XMLID_1161_" class="st90" d="M368.2,470.4c0.3,0,0.5,0,0.8,0c-0.6,0.8-1.4,1.3-2.7,1.3
		C366.7,470.7,367.3,470.4,368.2,470.4z"/>
	<path id="XMLID_1160_" class="st117" d="M323.2,449.2c0,0.3,0,0.5,0,0.8c-0.7,0.3-1.4,0.6-2.1,0.9c-0.3,0-0.6-0.1-1-0.1
		C321,449.9,322.1,449.5,323.2,449.2z"/>
	<path id="XMLID_1159_" class="st14" d="M186.6,290.3c-11,6.4-22.1,12.7-33.1,19.1c-0.2-0.2-0.3-0.3-0.5-0.5
		c0.6-0.6,1.1-1.3,1.7-1.9c6.1-5.3,12.3-10.5,18.3-16c1.8-1.6,3.8-1.6,5.9-1.6c2.5,0,4.9,0,7.4,0C186.4,289.7,186.5,290,186.6,290.3
		z"/>
	<path id="XMLID_1158_" class="st23" d="M127.6,359.3c-0.1-1.3,0.5-2.8-0.9-3.7c-0.1-0.9,0.4-1.3,1.2-1.7
		c10.8-6.2,21.5-12.4,32.3-18.7c0.4-0.2,0.9-0.6,1.6,0.5C150.4,343.7,139,351.5,127.6,359.3z"/>
	<path id="XMLID_1157_" class="st118" d="M192.7,295.7c2.3,2.8,4-0.3,6-0.7c0.6,0.2,0.9,0.6,0.7,1.2c-7.9,4.6-15.9,9.1-23.8,13.7
		c-0.9,0.3-1-0.1-0.9-0.8C180.6,304.4,186.5,299.8,192.7,295.7z"/>
	<path id="XMLID_1156_" class="st119" d="M138,364.6c0.8-1.2,1.5-2.4,2.3-3.6c6.5-5.4,14.2-8.9,21.5-13c0.8-0.4,1,0.1,0.9,0.8
		c-7.4,5-14.9,10.1-22.3,15.2C139.7,364.5,138.9,364.8,138,364.6z"/>
	<path id="XMLID_1155_" class="st119" d="M138.8,312.1c-4.3,3.8-8.6,7.5-13,11.4c-1.1-4.9-1.1-4.9,2.6-7c3.1-1.8,6.3-3.5,9.5-5.3
		C138.7,311,138.9,311.4,138.8,312.1z"/>
	<path id="XMLID_1154_" class="st118" d="M153.8,289.7c2.3,0,4.7,0,8.2,0c-6.3,3.7-11.8,6.9-17.3,10c-0.1-0.2-0.3-0.4-0.4-0.6
		C147.5,295.9,150.6,292.8,153.8,289.7C153.8,289.7,153.8,289.7,153.8,289.7z"/>
	<path id="XMLID_1153_" class="st120" d="M279.7,291.9c0,0.7,0.1,1.5,0.1,2.2c-3.8,2.5-7.7,4.9-11.9,6.8c-0.8,0.4-1-0.1-0.9-0.8
		C271.2,297.4,275.5,294.7,279.7,291.9z"/>
	<path id="XMLID_1152_" class="st59" d="M199.5,296.3c-0.2-0.4-0.5-0.8-0.7-1.2c1.8-1,3.5-2,5.3-3c0.2,0.4,0.5,0.9,0.7,1.3
		C203,294.3,201.2,295.3,199.5,296.3z"/>
	<path id="XMLID_1151_" class="st7" d="M154.5,366.1c-1.4,0.4-0.8-1.2-1.5-1.5c1.1-0.8,2.3-2.4,3.5-0.7
		C157.3,365.2,155.8,366,154.5,366.1z"/>
	<path id="XMLID_1150_" class="st121" d="M162.7,348.8c-0.3-0.3-0.6-0.5-0.9-0.8c1.8-1.1,3.6-2.2,5.4-3.3c0.3,0.4,0.3,0.7,0,1.1
		C165.7,346.8,164.2,347.8,162.7,348.8z"/>
	<path id="XMLID_1149_" class="st121" d="M342,319.7c0.3,0.3,0.6,0.5,0.9,0.8c-1.5,1.3-3.1,2.2-5.7,3.1
		C338.8,321.4,340.4,320.5,342,319.7z"/>
	<path id="XMLID_1148_" class="st122" d="M167.2,357.8c-1.4,0.9-2.7,2-4.5,2.4c-0.2-0.2-0.3-0.4-0.2-0.6c0.1-0.2,0.1-0.3,0.2-0.3
		c1-1.1,2.3-1.7,3.6-2.2C167.2,356.7,167.3,357.1,167.2,357.8z"/>
	<path id="XMLID_1147_" class="st123" d="M180,360.8c-0.3-0.3-0.6-0.5-0.9-0.8c1.5-0.9,3-1.8,4.5-2.7C183,359.4,181.4,360,180,360.8
		z"/>
	<path id="XMLID_1146_" class="st124" d="M267,300.2c0.3,0.3,0.6,0.5,0.9,0.8c-1.4,1.1-2.8,2.1-5.5,2.9
		C264,301.6,265.5,300.9,267,300.2z"/>
	<path id="XMLID_1145_" class="st125" d="M299.7,322.3c0.1,0.3,0.2,0.6,0.3,0.9c-0.6,0.8-1.3,1.3-2.6,1.3
		C297.6,323.1,298.7,322.7,299.7,322.3z"/>
	<path id="XMLID_1144_" class="st126" d="M144.7,323.4c-0.3-0.3-0.6-0.6-0.9-0.8c0.9-1,1.9-1.6,4-1.8
		C146.7,322.3,145.8,322.9,144.7,323.4z"/>
	<path id="XMLID_1143_" class="st127" d="M290.3,296.5c0.3,0.3,0.6,0.5,0.9,0.8c-0.6,0.8-1.4,1.2-2.3,1.4c-0.9,0.4-1-0.1-0.9-0.8
		C288.8,297.4,289.5,297,290.3,296.5z"/>
	<path id="XMLID_1142_" class="st128" d="M286.5,300.1c-0.7,0.6-1.3,1.4-2.7,1.1c0.4-1.4,1.5-1.7,2.5-2.1
		C286.7,299.3,286.8,299.7,286.5,300.1z"/>
	<path id="XMLID_1141_" class="st129" d="M138.8,312.1c-0.3-0.3-0.6-0.6-0.9-0.9c0.7-0.9,1.7-1.3,3.1-1.8
		C140.8,311,139.7,311.6,138.8,312.1z"/>
	<path id="XMLID_1140_" class="st56" d="M162.7,359.3c0,0.3,0,0.6,0,0.9c-0.5,0.9-1.4,1.1-2.2,1.5c-0.8,0.3-0.9-0.1-0.8-0.7
		C160.7,360.2,161.5,359.4,162.7,359.3z"/>
	<path id="XMLID_1139_" class="st130" d="M174.8,309.1c0.3,0.3,0.6,0.5,0.9,0.8c-0.8,0.5-1.5,1-2.3,1.5c-0.8,0.3-0.9-0.1-0.8-0.8
		C173.3,310.2,174,309.6,174.8,309.1z"/>
	<path id="XMLID_1138_" class="st131" d="M231,312.1c-0.5,0.7-1.1,1.2-2.3,1c0-1.5,1.2-1.6,2.1-2C231.3,311.3,231.3,311.7,231,312.1
		z"/>
	<path id="XMLID_1137_" class="st132" d="M268.5,336c-0.3-0.2-0.6-0.5-0.8-0.7c0.8-0.5,1.5-1,2.3-1.5c0.8-0.3,0.9,0.1,0.8,0.7
		C270,335.1,269.2,335.5,268.5,336z"/>
	<path id="XMLID_1110_" class="st133" d="M172.8,354.4c-0.6,0.4-1.1,0.7-1.6,0.9c-0.6,0.2-0.9-0.4-0.6-0.8c0.3-0.4,1-0.7,1.5-0.9
		C172.1,353.6,172.4,354.1,172.8,354.4z"/>
	<path id="XMLID_1109_" class="st134" d="M159.8,360.9c0.3,0.2,0.5,0.5,0.8,0.7c-0.7,0.7-1.5,1.2-2.5,1.4
		C157.8,361.6,158.9,361.4,159.8,360.9z"/>
	<path id="XMLID_1108_" class="st135" d="M286.5,300.1c-0.1-0.3-0.1-0.7-0.2-1c0.6-0.4,1.1-0.8,1.7-1.1c0.3,0.3,0.6,0.5,0.9,0.8
		C288.1,299.2,287.3,299.6,286.5,300.1z"/>
	<path id="XMLID_1107_" class="st131" d="M222.8,290.4c0.3,0.2,0.5,0.5,0.8,0.7c-0.7,0.6-1.6,1.7-2.2,0.8
		C220.8,291.1,222.1,290.8,222.8,290.4z"/>
	<path id="XMLID_1106_" class="st127" d="M231,312.1c-0.1-0.3-0.1-0.7-0.2-1c0.6-0.4,1.1-0.7,1.7-1.1c0.3,0.2,0.5,0.5,0.8,0.7
		C232.7,311.5,231.9,311.9,231,312.1z"/>
	<path id="XMLID_1105_" class="st136" d="M259.8,306c-0.1-0.4-0.3-0.9-0.2-1c0.3-0.3,0.8-0.4,1.2-0.6c0.1,0.3,0.4,0.8,0.3,0.8
		C260.8,305.4,260.3,305.6,259.8,306z"/>
	<path id="XMLID_1104_" class="st137" d="M270.7,334.6c-0.3-0.2-0.5-0.5-0.8-0.7c0.7-0.6,1.5-1.6,2.2-0.8
		C272.7,333.8,271.4,334.2,270.7,334.6z"/>
	<path id="XMLID_1103_" class="st138" d="M167.2,357.8c-0.3-0.2-0.6-0.5-0.9-0.7c0.7-0.6,1.7-1.8,2.4-0.9
		C169.4,357.1,167.9,357.4,167.2,357.8z"/>
	<path id="XMLID_1102_" class="st139" d="M167.2,345.8c0-0.4,0-0.7,0-1.1c0.5-0.5,1.3-1.2,1.6-0.2
		C169.2,345.4,168,345.6,167.2,345.8z"/>
	<path id="XMLID_1101_" class="st140" d="M297,342.8c-0.3-0.3-0.6-0.5-0.9-0.8c0.8-0.5,1.6-1,2.4-1.5l0-0.1
		C299.1,342,298,342.4,297,342.8z"/>
	<path id="XMLID_1100_" class="st141" d="M298.5,340.6c0.6-0.6,1.2-1.3,2.1-0.9c0.3,0.1,0.3,0.6,0,0.9
		C299.9,341.3,299.2,341.4,298.5,340.6C298.5,340.5,298.5,340.6,298.5,340.6z"/>
	<path id="XMLID_1099_" class="st142" d="M363.8,336.2c0.3,0.3,0.5,0.5,0.8,0.8c-0.8,0.5-1.4,1.9-2.6,0.7
		C362.3,336.9,363,336.4,363.8,336.2z"/>
	<path id="XMLID_1098_" class="st143" d="M172.5,310.7c0.3,0.3,0.5,0.5,0.8,0.8c-0.6,0.6-1.5,1.6-2.1,0.9
		C170.4,311.3,171.9,311.1,172.5,310.7z"/>
	<path id="XMLID_1097_" class="st16" d="M171.7,427.5c-15.1,10-30.2,20-45.7,30.3c0-2.3,0-3.9,0-5.5c0,0,0,0,0,0
		c14.9-8.5,29.9-17.1,44.8-25.6C171.6,426.4,171.7,426.9,171.7,427.5z"/>
	<path id="XMLID_1096_" class="st144" d="M162.8,419.4c-12,8.2-24.1,16.4-36.7,25c0-2.2,0-3.8,0-5.5c0,0,0,0,0,0
		c11.9-6.8,23.9-13.6,35.8-20.4C162.7,418.2,162.9,418.6,162.8,419.4z"/>
	<path id="XMLID_1095_" class="st22" d="M126,400.6c6.7-3.8,13.4-7.6,20.1-11.4c0.8-0.3,1,0.1,0.9,0.8c-6.8,5.3-13.6,10.7-21,16.5
		C126,404,126,402.3,126,400.6C126,400.6,126,400.6,126,400.6z"/>
	<path id="XMLID_1094_" class="st36" d="M178.5,373.6c1.8,0,3.7,0,6.7,0c-6.6,3.8-12.3,7.1-18.1,10.4c-0.2-0.3-0.4-0.5-0.5-0.8
		C170.6,380.1,174.5,376.8,178.5,373.6C178.5,373.6,178.5,373.6,178.5,373.6z"/>
	<path id="XMLID_1093_" class="st61" d="M144,418.6c-0.3-0.3-0.6-0.6-0.9-0.9c1.4-1.3,3-2.2,5.5-3.1
		C147.4,417.2,145.6,417.8,144,418.6z"/>
	<path id="XMLID_1092_" class="st145" d="M171,450.1c-0.3-0.2-0.5-0.5-0.8-0.7c1.4-1.1,2.8-2.2,5.4-2.6
		C174,448.7,172.5,449.4,171,450.1z"/>
	<path id="XMLID_1091_" class="st146" d="M213,446.2c-0.3-0.2-0.6-0.5-0.9-0.7c1.1-0.9,2-2.4,3.8-2.1
		C216,445.5,214.1,445.4,213,446.2z"/>
	<path id="XMLID_1090_" class="st147" d="M195.8,378.2c0.3,0.3,0.6,0.5,1,0.8c-1.1,0.9-2.1,1.7-4,1.9
		C193.5,379.3,194.7,378.8,195.8,378.2z"/>
	<path id="XMLID_1089_" class="st148" d="M162.8,419.4c-0.3-0.3-0.6-0.6-0.9-0.8c0.9-1,2-1.5,3.2-2c0.4,0.1,0.8,0.1,0.8,0.6
		C165.1,418.3,164,418.9,162.8,419.4z"/>
	<path id="XMLID_1088_" class="st149" d="M129.8,388.7c-0.3-0.3-0.7-0.6-1-0.9c0.9-0.9,1.9-1.7,3.9-1.6
		C131.8,387.6,130.8,388.2,129.8,388.7z"/>
	<path id="XMLID_1087_" class="st150" d="M147.5,474.7c0.4-1.5,1.7-1.9,3.3-2.6C150.2,473.9,148.6,474,147.5,474.7z"/>
	<path id="XMLID_1086_" class="st151" d="M147,390.1c-0.3-0.3-0.6-0.5-0.9-0.8c0.8-0.9,1.8-1.4,3.3-1.9
		C149.1,389.2,148,389.6,147,390.1z"/>
	<path id="XMLID_1085_" class="st152" d="M171.7,427.5c-0.3-0.3-0.6-0.5-0.9-0.8c0.6-0.8,1.4-1.2,2.3-1.4c0.9-0.4,1,0.1,0.9,0.8
		C173.2,426.5,172.5,427,171.7,427.5z"/>
	<path id="XMLID_1084_" class="st153" d="M149.9,415c-0.2-0.5-0.5-1-0.4-1.1c0.5-0.4,1-0.6,1.5-1c0.1,0.3,0.5,0.7,0.4,0.8
		C151.1,414.2,150.6,414.5,149.9,415z"/>
	<path id="XMLID_1083_" class="st154" d="M219.6,442c-0.9,0.7-1.6,1.7-3,1.4C217.2,442,218,441,219.6,442z"/>
	<path id="XMLID_1082_" class="st155" d="M178,445.2c0.2-1.2,1.2-1.8,1.7-1.4c1,0.8-0.2,1.1-0.8,1.5
		C178.7,445.4,178.3,445.2,178,445.2z"/>
	<path id="XMLID_1081_" class="st156" d="M169.1,415.4c-0.6-0.1-1-0.4-0.8-0.7c0.3-0.4,0.9-0.7,1.4-1c0,0,0.5,0.6,0.5,0.6
		C169.9,414.8,169.4,415.2,169.1,415.4z"/>
	<path id="XMLID_1080_" class="st157" d="M174,426.1c-0.3-0.3-0.6-0.5-0.9-0.8c0.7-0.6,1.7-1.6,2.2-1
		C176.2,425.4,174.7,425.6,174,426.1z"/>
	<path id="XMLID_1079_" class="st158" d="M165.9,417.2c-0.3-0.2-0.6-0.4-0.8-0.6c0.7-0.2,1.2-1.6,2-0.5
		C167.4,416.6,166.5,417,165.9,417.2z"/>
	<path id="XMLID_1078_" class="st159" d="M441.7,554.4c0.8,1,1.9,0.9,3,0.6c1.6,1.1-0.2,1.4-0.6,1.6c-6.7,3.9-13.5,7.7-20.2,11.5
		c-0.8,0.2-1-0.2-0.9-0.8c5.3-4,10.7-7.9,16-11.9C439.9,554.7,440.6,554.1,441.7,554.4z"/>
	<path id="XMLID_1077_" class="st160" d="M423,567.2c0.3,0.3,0.6,0.6,0.9,0.8c-0.9,1-2.1,1.5-3.8,2.1
		C420.7,568.2,421.9,567.8,423,567.2z"/>
	<path id="XMLID_1076_" class="st161" d="M394.5,578.4c0.6,0,1.1-0.1,1.7-0.1c-0.4,1.2-1.4,1.8-2.4,2.2c-0.3-0.2-0.6-0.5-0.8-0.7
		C393.4,579.3,393.9,578.9,394.5,578.4z"/>
	<path id="XMLID_1075_" class="st162" d="M242.1,255.2c-0.5,2.5-1.8,3.5-4.7,2.7C239.3,256.8,240.7,256,242.1,255.2z"/>
	<path id="XMLID_1074_" class="st163" d="M209.3,267.9c-0.3-0.3-0.5-0.5-0.8-0.8c0.8-0.5,1.6-1,2.4-1.5
		C211.1,266.9,210.3,267.5,209.3,267.9z"/>
	<path id="XMLID_1073_" class="st42" d="M479.2,566.3c2.8-2.4,5.6-4.8,8.9-7.6c0.1,1.7,0.1,2.8,0.2,3.9c0,0,0,0.1,0,0.1
		c-2.7,1.5-5.4,3-8.1,4.5C479.3,567.5,479.1,567.1,479.2,566.3z"/>
	<path id="XMLID_1072_" class="st71" d="M479.2,566.3c0.3,0.3,0.6,0.6,0.9,0.9c-0.9,0.6-1.8,1.2-2.9,2
		C477.1,567.3,478.3,566.9,479.2,566.3z"/>
	<path id="XMLID_1071_" class="st164" d="M460.6,532.7c-0.3-0.3-0.6-0.6-0.9-0.9c0.7-0.5,1.5-1.6,2.2-0.8
		C462.4,531.8,461.2,532.3,460.6,532.7z"/>
	<path id="XMLID_1070_" class="st8" d="M210.8,502.6c1.3,2.9-1.6,1.4-2.3,2.2C208.1,503,210,503.4,210.8,502.6z"/>
	<path id="XMLID_1069_" class="st8" d="M259.3,511.9c1.3-1.8,2.2-2.1,3.9-2.5C262.2,510.9,261.2,511.1,259.3,511.9z"/>
	<path id="XMLID_1068_" class="st165" d="M314.8,594.4c-4.8,3.1-9.5,6.2-14.8,8.5c-0.2-0.4-0.4-0.8-0.7-1.2
		c4.9-2.8,9.9-5.6,14.8-8.4C314.4,593.7,314.6,594.1,314.8,594.4z"/>
	<path id="XMLID_1067_" class="st81" d="M305.3,589c0-0.4-0.1-0.7-0.1-1.1c2.1-1.3,4-3.1,6.8-2.8C310.1,587,307.9,588.3,305.3,589z"
		/>
	<path id="XMLID_1066_" class="st166" d="M314.3,582.8c0.5-1.5,1.8-1.2,2.9-1.4C316.7,582.9,315.8,583.5,314.3,582.8z"/>
	<path id="XMLID_1065_" class="st167" d="M316.1,592.6c0.1-0.7,0.7-0.8,1.3-1c0.5-0.1,0.7,0.3,0.5,0.6c-0.2,0.4-0.7,0.7-1.1,0.9
		C316.5,593.3,316.1,593.1,316.1,592.6z"/>
	<path id="XMLID_1064_" class="st75" d="M443.2,509.4c0,0.7,0,1.5,0,2.2c-5,2.8-9.9,5.6-14.9,8.3c-0.9,0.4-1-0.1-0.9-0.8
		C432.7,515.8,437.6,512,443.2,509.4z"/>
	<path id="XMLID_1063_" class="st77" d="M427.5,519.2c0.3,0.3,0.6,0.5,0.9,0.8c-1.3,0.7-2.5,1.5-3.8,2.2c-0.8,0.4-0.9-0.1-0.9-0.7
		C425,520.7,426.3,519.9,427.5,519.2z"/>
	<path id="XMLID_1062_" class="st85" d="M438,522.9c1.3-0.9,2.4-2,4.4-2.3c-0.6,2.2-2.4,2.3-3.6,3.1C438,524,437.9,523.6,438,522.9z
		"/>
	<path id="XMLID_1061_" class="st168" d="M446.2,517.7c0.1,1.8-1.2,2.4-3,3.2C443.6,518.7,445.2,518.5,446.2,517.7
		C446.2,517.7,446.2,517.7,446.2,517.7z"/>
	<path id="XMLID_1060_" class="st95" d="M418.5,525.1c1-1.3,2.4-1.8,3.7-2.5c0.2,0.2,0.3,0.4,0.2,0.5c-0.1,0.2-0.2,0.3-0.2,0.3
		C421.1,524.4,420.1,525.3,418.5,525.1z"/>
	<path id="XMLID_1059_" class="st169" d="M438,522.9c0.3,0.2,0.5,0.5,0.8,0.7c-0.8,0.5-1.6,1-2.5,1.6
		C435.9,523.5,437.2,523.5,438,522.9z"/>
	<path id="XMLID_1058_" class="st170" d="M422.2,523.4c0-0.3,0-0.5,0-0.8c0.3-0.7,0.9-1,1.5-1.2c0.3,0.2,0.6,0.5,0.9,0.7
		C424,522.9,423.2,523.4,422.2,523.4z"/>
	<path id="XMLID_1057_" class="st19" d="M414.8,509.3c-0.2-1.3,0-2.4,1.3-3.2c9.4-6,18.7-12,28.2-18.1c0.9,1.5,0.3,2.8,0.6,4.1
		C435,498.2,425.1,504.1,414.8,509.3z"/>
	<path id="XMLID_1056_" class="st85" d="M262.5,540.8c-0.3-0.3-0.6-0.5-0.9-0.8c1.1-1,2.3-1.8,3.8-2.2c0.8-0.4,1,0,0.9,0.7
		C265,539.3,263.7,540.1,262.5,540.8z"/>
	<path id="XMLID_1055_" class="st161" d="M266.2,538.5c-0.3-0.2-0.6-0.5-0.9-0.7c1.1-0.6,2.2-1.3,3.2-1.9c0.4,0.1,0.6,0.2,0.8,0.6
		C268.3,537.1,267.3,537.8,266.2,538.5z"/>
	<path id="XMLID_1054_" class="st171" d="M269.4,536.4c-0.3-0.2-0.5-0.4-0.8-0.6c1-0.4,1.4-2,2.9-1.7
		C271.7,535.7,270.4,536,269.4,536.4z"/>
	<path id="XMLID_1053_" class="st170" d="M253.5,556c-1,1.2-2.2,2-3.7,2.1c0.7-1.7,1.9-2.7,3.7-2.9c0.2,0.2,0.3,0.4,0.2,0.5
		C253.7,555.9,253.6,556,253.5,556z"/>
	<path id="XMLID_1052_" class="st172" d="M253.5,556c0-0.3,0-0.5,0-0.8c0.6-1,1.6-1.4,2.6-1.6C255.9,555.1,254.9,555.7,253.5,556z"
		/>
	<path id="XMLID_1051_" class="st165" d="M444.6,480c-0.7,0.3-1.3,0.6-2,0.9c-0.8,0.4-0.9-0.1-0.8-0.7
		C442.7,480.3,443.5,477.2,444.6,480z"/>
	<path id="XMLID_1050_" class="st173" d="M438.7,483.2c-0.8,0.9-1.7,1.5-3,1.4C436.3,483.3,437,482.3,438.7,483.2z"/>
	<path id="XMLID_1049_" class="st174" d="M441.8,480.2c0.3,0.2,0.6,0.5,0.8,0.7c-0.9,0.8-1.9,1.6-3.2,1.4
		C439.7,481.2,440.7,480.6,441.8,480.2z"/>
	<path id="XMLID_1048_" class="st39" d="M250.5,567.9c0-0.2,0-0.5,0.1-0.7c3.1-3.8,7.8-5.2,11.8-7.6c0.8-0.4,1,0,0.9,0.7
		C259,562.9,255.1,566,250.5,567.9z"/>
	<path id="XMLID_1047_" class="st175" d="M263.2,560.3c-0.3-0.2-0.6-0.5-0.9-0.7c1.6-1.2,2.7-3.2,5.2-2.8
		C266.9,559,264.7,559.2,263.2,560.3z"/>
	<path id="XMLID_1046_" class="st95" d="M272.1,553.7c-0.5,1.9-1.6,2.7-3.6,2.2C269.1,554,271.2,554.8,272.1,553.7z"/>
	<path id="XMLID_1045_" class="st18" d="M276.6,562.6c0.1,0.5,0.2,1.1,0.3,1.6c0,1.3-1.1,1.8-2,2.4c-7.5,4.8-14.9,9.6-22.4,14.5
		c-1.1,0.7-2.1,1.3-3.4,0.9c0.7-1,1.4-2,2.2-3c0.4-3.4,2.8-4.9,5.6-6.4c5.6-3,11-6.3,16.5-9.4C274.3,562.7,275.2,561.4,276.6,562.6z
		"/>
	<path id="XMLID_1044_" class="st10" d="M260.2,585.7c-0.9,0.6-1.9,1.1-2.8,1.7c-0.8,0.3-1-0.1-0.9-0.8c0.9-1.3,2.5-1.2,3.8-1.9
		C260.5,585.1,260.5,585.4,260.2,585.7z"/>
	<path id="XMLID_1043_" class="st168" d="M256.5,586.6c0.3,0.3,0.6,0.5,0.9,0.8c-1.1,1-2.3,2-3.9,2.2
		C253.7,587.9,254.8,586.9,256.5,586.6z"/>
	<path id="XMLID_1042_" class="st176" d="M260.2,585.7c0-0.3,0.1-0.7,0.1-1c0.5-0.7,1.2-1,2-1C262.3,585.2,261.3,585.5,260.2,585.7z
		"/>
	<path id="XMLID_1041_" class="st9" d="M405,553.6c0.3,4.4,0.3,8.8-1.9,12.8c-1.8,3.4-4.5,5.4-8.7,5.3c-8-0.2-16-0.1-23.9-0.1
		c0-2,1.8-2.5,3.1-3.3c1.8-1.2,4-2,5.6-3.6c0.6-0.9,1.9-1,2.5-1.9c-0.7,0.9-2,1-2.6,1.9c-3.8,2.8-7.8,5.2-12.2,6.9
		c-4.5,0-9.1,0-13.6,0c-0.3-1.5,0.8-2.3,1.7-3c5.4-4.3,10.6-9,16.3-12.8c0.3,0,0.3-0.1,0.2-0.3c-0.1,0.2-0.3,0.3-0.5,0.5
		c-7.8,5.6-16.5,9.7-24.6,14.8c1.4,0.3,3-0.3,4,1.1c-2.4,1.1-5,0.9-7.3,0.4c-4.3-0.8-8.7-0.2-13-0.5c-0.2-1.9,1.4-2.4,2.5-3.2
		c2.6-2,5.5-3.6,8.3-5.4c0.8-0.1,1.1-0.9,2-1.4c-0.8,0.4-1.2,1-1.8,1.3c-4.9,2.7-9.3,6.4-14.4,8.2c0.9-0.1,2.3-0.9,3.4,0.5
		c-1.5,1.2-3.4,0.9-5,0.6c-4.1-0.9-8.2-0.3-12.3-0.7c-0.8-0.8-1.5-0.4-2.2,0c-6-0.3-12.1,0.7-18.1-0.6c10.5-2.3,17.4-10.7,26.4-15.4
		c1-0.5,1.8-1.1,2.9-2.3c-1.1,1.1-2.1,1.8-3.1,2.3c-7.4,5-15.4,9.1-23.1,13.7c-1.2,0.7-2.5,0.9-3.8,1.6c-2.5-1.2-3.5-3.6-4.5-6
		c2.8-3.8,7.2-5.2,10.9-7.8c0.7-0.2,1.1-0.9,1.8-1.3c-0.7,0.4-1.1,1-1.7,1.2c-2.7,1.5-5.3,3.2-8,4.9c-1.2,0.7-2.2,1.8-3.7,0.9
		c-1-2.4-1.4-5-1.4-7.6c3.3-3.6,7.5-6,11.5-8.6c1-0.4,1.6-1.4,2-1.6c-0.4,0.4-1.3,1.2-2.4,1.7c-3.7,1.9-6.6,5.4-11.1,5.6
		c-0.6-3.1,0.8-6.1,0.7-9.1c0.6-1.4,1.7-2.4,3.2-3.1c-1.2,0.4-1.9,1.5-3.2,1c0.4-4.4,1.1-8.9,0.3-13.4c-0.4-1.9,0.9-1.7,2-1.7
		c4.2,0.2,8.4,0.4,12.6,0.8c13.1,1.4,26.3,1.6,39.4,1.5c10.1-0.1,20.2,0.4,30.2-0.6c-1.1,2.8-4.5,2.8-5.7,4.5
		c2.5-1.4,5.2-3.7,8.6-4.5c8.7-0.7,17.4-1.2,26-2.3c5-0.7,5.7,0.2,4.1,4.4c-0.8,0.4,0.2-2.1-1.3-0.8c-1.4,1.1-3,2.1-4.4,3
		c1.9-0.5,3.1-3.4,5.8-2.2c0.5,2.8,1,5.5,0.7,8.3c-3.6,4.4-8.2,7.4-12.7,10.6c0.1,0-0.4,0.2,0,0c0.4-0.2-0.1,0.2,0.3-0.2
		c2.9-2.1,6-3.8,9.1-5.6c1-0.6,2.1-1.4,3.4-0.5c1.3,2.7,0.6,5.5,0.7,8.3c-0.3,0.4-0.4,1-0.7,1.3C402.5,553.4,404.6,553.1,405,553.6z
		"/>
	<path id="XMLID_1040_" class="st8" d="M353.2,520.6c-4.7,0.1-9.4,1.2-14.2,0.7c1.8-4,5.6-6,8.5-9c1.1-1.2,2.5-2.1,3.7-3.1
		c1-1.3,2.4-2.2,3.6-3.1c-0.1,0,0.2-0.2,0,0c-0.4,0.2,0.1-0.2-0.3,0.1c-1.4,1-2.6,2.1-3.9,3.1c-5.7,2.9-11.3,5.9-16.5,9.4
		c-5.7,3.8-11.9,3-18,3c-2,0-1.3-1.4-0.6-2.3c2-2.8,4.8-4.7,7.5-6.7c1.4-0.8,2.5-1.9,3.5-3.1c0.6-0.9,1.5-1.3,1.8-1.4
		c-2.9,3-8.1,4-11,8.1c-4.5,1.5-8.4,4.9-13.6,4.4c-2.8,0-5.5-0.6-8.2-1.6c0.1-3.4,3.4-4,5.2-6.1c-2.2,1.1-4.1,2.6-6.2,3.5
		c-1.4,0.6-2.7,1.2-4.2,0.4c-3.2-1.8-4.8-4.5-4.5-8.3c0.3-4.2-0.7-8.5,0.6-12.6c1.6-4.9,4.2-6.9,9.3-6.9c8.5,0.1,16.9,0.1,25.4,0.2
		c-0.1,2.6-2.4,3.5-4.7,5.2c3.9-1.9,6.5-4.2,9.9-5.3c4.8,0,9.5,0,14.3,0c-1,3.1-3.9,4.3-6.1,6.2c-1,0.9-2,1.7-3.1,2.5
		c5.1-3.2,10.1-6.7,15.9-8.7c4.5,0,9,0,13.5,0c0.1,2.5-2.2,3-3.5,4.3c-2.9,3-6.2,5.6-9.5,8.1c-0.3,0.2-0.6,0.4-0.9,0.5
		c0.6,0,0.9-0.5,1.3-0.7c6.4-4.3,13.1-8.1,19.7-11.5c-1.4,0-3.4,0.9-5-0.8c3.4-1,6.8-0.4,10.3-0.1c3.3,0.3,6.7,0.2,10.1,0.2
		c0.5,1.7-0.8,2.6-1.8,3.4c-4.1,3.3-7.6,7.3-10.5,9.4c6.6-3.7,14.3-8.9,22.8-12.8c3.9-0.3,6.8,1.2,9,4.3c-0.7,0.9-1.3,1.9-2,2.8
		c-2.8,2.8-6.1,5-8.5,7.8c3.4-2.7,8.2-4,11.3-7.7c1.3,5.9,0.9,11.8,0.3,17.6c-0.3,3.1-2.6,5.1-5.9,5.9c-4.2,0.9-8.3,0.7-12.5-0.2
		c-0.3-2,1.5-2.6,2.5-3.8c-1.8,1.5-3.5,2.8-5.4,3.8c-5.5,0-11,0-16.6,0c-0.4-1.7,1.1-2.4,1.7-3.6c1-1.7,3-2.6,3.8-4.6
		C365,513.8,359.9,518.7,353.2,520.6z"/>
	<path id="XMLID_1039_" class="st9" d="M303.7,520.7c0.9-0.1,2,0.1,2.5-0.3c3.2-2.8,7.6-2.8,11-5c1.7-1.6,3.5-3.2,6-3.5
		c0.6,0.2,1,0.5,0.8,1.2c-3.1,2.3-6.2,4.5-8.8,8.1c6.5,0.2,12.5,0.9,18.1-3.2c4.5-3.3,9.6-5.7,14.5-8.5c1-0.6,2-1,3.2-0.9
		c0.6-0.2,0.9,0.1,0.8,0.7c-4.2,4-8.5,8-12.7,12c-10.9,0.7-21.7,1.3-32.6,0.1C305.5,521.2,304.5,521.5,303.7,520.7z"/>
	<path id="XMLID_1038_" class="st8" d="M350.3,571.8c-2.1-0.1-4.1-0.2-7.3-0.3c10.1-5.8,19.2-11,28.3-16.3c0.8-0.3,0.9,0.1,0.7,0.7
		c-6.3,5.2-12.9,9.9-18.8,15.7C352.3,571.6,351.3,571.7,350.3,571.8z"/>
	<path id="XMLID_1037_" class="st8" d="M393.7,489.2c-5.1,4-11,6.6-16.4,10c-3.2,2-6.5,3.7-9.9,5.3c4.9-5.5,11.1-9.7,15.8-15.3
		C386.7,489.1,390.2,489.2,393.7,489.2z"/>
	<path id="XMLID_1036_" class="st9" d="M353.2,520.6c6.2-3.8,12.4-7.6,19.1-10.9c1.7,4.4-3.2,4.6-4.1,7.2c-1.2,1.1-2.7,1.8-3.7,3.2
		C360.8,520.8,357,520.6,353.2,520.6z"/>
	<path id="XMLID_1035_" class="st8" d="M319.5,555.8c-6.5,4.6-13,9.1-19.5,13.8c-2.4,1.7-5.1,0.9-7.6,1.3c-0.2,0-0.4-0.1-0.6-0.1
		c8.6-5.9,17.9-10.7,26.9-15.7C319.5,554.8,319.6,555.2,319.5,555.8z"/>
	<path id="XMLID_1034_" class="st8" d="M347.3,501.1c4.5-4,9-8,13.5-12c0.7,0,1.4-0.1,2.1-0.1c2,0,4,0,5.9,0
		c-6.6,5-13.6,9.1-20.8,12.9C347.2,502.2,347.1,501.8,347.3,501.1z"/>
	<path id="XMLID_1033_" class="st8" d="M403.6,496.5c-0.1,1.2-0.3,2.1-1.5,2.8c-4,2.3-8,4.7-12.2,6.8c3-4,6.5-7.5,10.7-10.2
		c0.7-0.7,1.3-1.5,2.4-1.5C403.7,494.9,403.5,495.8,403.6,496.5z"/>
	<path id="XMLID_1032_" class="st8" d="M347.2,489.2c-5.9,3.5-11.9,7.1-17.8,10.6c-0.2-0.3-0.4-0.5-0.5-0.8
		c3.9-3.3,7.7-6.5,11.6-9.8C342.7,489.2,345,489.2,347.2,489.2z"/>
	<path id="XMLID_1031_" class="st8" d="M404.2,542.3c-4.6,1.6-8.2,5-12.7,6.8c-0.8,0.3-0.9-0.1-0.7-0.7c4.5-3.5,8.9-7,13.4-10.5
		C404.2,539.4,404.2,540.9,404.2,542.3z"/>
	<path id="XMLID_1030_" class="st9" d="M290.3,516.9c4.7-0.4,7.9-4.2,12.6-5.9c-1.3,4.2-5.8,4.9-7.4,8.2
		C293.6,518.7,291.9,518,290.3,516.9z"/>
	<path id="XMLID_1029_" class="st8" d="M285.2,552.2c3.7-2,7.4-4.1,11.1-6.1c0.8-0.3,0.9,0.1,0.7,0.8c-4.1,2.5-7.4,6.2-11.8,8.2
		C285.1,554.1,285.2,553.1,285.2,552.2z"/>
	<path id="XMLID_1028_" class="st8" d="M326.2,489.2c-3.1,2.7-6.6,4.8-11.2,6.6c1.5-3.3,4.7-4.1,6-6.6
		C322.8,489.2,324.5,489.2,326.2,489.2z"/>
	<path id="XMLID_1027_" class="st8" d="M366.9,571.6c3.6-3,8.2-4.6,11.9-7.4c0.8-0.3,0.9,0,0.8,0.7c-2.3,3.2-6.4,4-9,6.7
		C369.3,571.6,368.1,571.6,366.9,571.6z"/>
	<path id="XMLID_1026_" class="st8" d="M286.6,562.7c4.3-1.4,7.6-4.8,11.9-6.1c0.2,0.2,0.3,0.4,0.2,0.5c-0.1,0.2-0.2,0.3-0.2,0.3
		c-3.7,2.5-7.5,5-11.2,7.5C286.8,564.2,286.5,563.5,286.6,562.7z"/>
	<path id="XMLID_1025_" class="st8" d="M373.4,527.5c-3.7,2.2-7.3,4.4-11,6.6c-0.2-0.2-0.3-0.5-0.5-0.7c2.9-2,5.8-3.9,8.6-5.9
		C371.5,527.5,372.4,527.5,373.4,527.5z"/>
	<path id="XMLID_1024_" class="st8" d="M382.6,519.8c1.8-2.8,4.8-4,7.8-5.4c-1.6,1.8-3.2,3.6-4.8,5.4
		C384.5,519.8,383.5,519.8,382.6,519.8z"/>
	<path id="XMLID_1023_" class="st8" d="M285.9,540.9c1.7-1,3.3-2,5.9-3.5c-1.7,3.2-4.2,4.1-5.9,5.7
		C285.8,542.3,285.9,541.6,285.9,540.9z"/>
	<path id="XMLID_1022_" class="st8" d="M405,553.6c-1.3,0.4-2.5,0.9-4.4,1.6c1.5-2.1,2.9-3.4,4.4-4.5C405,551.6,405,552.6,405,553.6
		z"/>
	<path id="XMLID_1021_" class="st8" d="M364.6,520c0.1-2.3,2.1-2.5,3.7-3.2c-0.8,1-1.5,2-2.3,3C365.5,519.9,365,519.9,364.6,520z"/>
	<path id="XMLID_1020_" class="st177" d="M403,494.4c-0.5,1-1.3,1.4-2.4,1.5c0-1.4,0.7-2.2,2.1-2.3
		C402.8,493.8,402.9,494.1,403,494.4z"/>
	<path id="XMLID_1019_" class="st8" d="M310.5,571.6c0.6-0.8,1.4-1.4,2.3-1.2c0.5,0.1,0,0.8-0.1,1.2
		C312,571.6,311.2,571.6,310.5,571.6z"/>
	<path id="XMLID_1018_" class="st7" d="M351.9,439.8c-0.9-2.2-1.9-4.3-1.7-6.8c-0.3-6.2-1-12.4,0.4-18.5c1.4-2,3.7-2.4,5.8-3.2
		c2.6-0.1,5.2-0.1,7.9-0.2c1.5-0.1,2.2,0.4,2.5,2c0.7,4.8,1.5,9.6,2.4,14.3c0.6,2.9,0.8,5.7,0.7,8.6c-0.1,4.8-1.9,6.9-6.8,8.6
		c-3.4,1.2-7.1-0.1-9.8-3.4C353.2,440.4,352.5,440.1,351.9,439.8z"/>
	<path id="XMLID_1017_" class="st178" d="M351.8,414.3c-1.2,1.2-1.5,2.6-1.5,4.3c0.1,4.8,0,9.6,0,14.3c-1.5-7.1-0.3-14.3-0.3-21.4
		c0-0.1,0.8-0.3,1.2-0.4C352,412.1,351.8,413.2,351.8,414.3z"/>
	<path id="XMLID_1016_" class="st8" d="M351.8,414.3c-1.6-0.8-0.4-2.1-0.7-3.2c1.8,0,3.5,0.1,5.3,0.1
		C354.8,412.3,353.3,413.3,351.8,414.3z"/>
	<path id="XMLID_1015_" class="st8" d="M351.9,439.8c0.6,0.1,1.4-0.4,1.9,0.3c0.3,0.4-0.1,0.9-0.6,1.1
		C352.7,440.9,352,440.6,351.9,439.8z"/>
	<path id="XMLID_1014_" class="st8" d="M341.2,563.4c-3.7,2.8-7.5,5.5-11.2,8.3c0,0,0,0,0,0c-1.2,0-2.5,0-3.7,0
		c4.8-3.5,9.4-7,14.9-9.1c0.2,0.2,0.3,0.4,0.2,0.5C341.4,563.3,341.3,563.4,341.2,563.4z"/>
	<path id="XMLID_1013_" class="st8" d="M403.5,529.6c-2.9,0.3-4.7,3.2-8.6,3.6c2.7-2,4.7-3.5,6.8-5
		C403.4,527.1,403.5,528.3,403.5,529.6C403.5,529.6,403.5,529.6,403.5,529.6z"/>
	<path id="XMLID_1012_" class="st8" d="M379.5,564.9c-0.3-0.2-0.5-0.5-0.8-0.7c1.5-1,2.9-2,4.9-3.4
		C382.8,563.4,381.1,564.1,379.5,564.9z"/>
	<path id="XMLID_1011_" class="st8" d="M297,546.8c-0.2-0.3-0.5-0.5-0.7-0.8c1.3-1.2,2.8-2.2,4.9-2.4
		C299.7,544.8,298.3,545.8,297,546.8z"/>
	<path id="XMLID_1010_" class="st8" d="M319.5,555.8c-0.2-0.2-0.5-0.5-0.7-0.7c1.4-1.1,2.7-2.4,5.7-3
		C322.2,553.8,320.8,554.8,319.5,555.8z"/>
	<path id="XMLID_1009_" class="st8" d="M298.5,557.4c0-0.3,0-0.5,0-0.8c0.7-1.3,1.8-1.7,3.4-1.5
		C300.8,555.8,299.6,556.6,298.5,557.4z"/>
	<path id="XMLID_1008_" class="st8" d="M341.2,563.4c0-0.3,0-0.5,0-0.8c0.7-1.3,1.9-1.7,3.4-1.5
		C343.5,561.8,342.4,562.6,341.2,563.4z"/>
	<path id="XMLID_1007_" class="st8" d="M316.5,568.1c0.8-1.1,1.5-1.5,2.5-1.4C318.7,567.8,317.9,568,316.5,568.1z"/>
	<path id="XMLID_1006_" class="st8" d="M390.8,548.4c0.2,0.2,0.5,0.5,0.7,0.7c-0.6,0.8-1.5,1.1-2.5,1.4
		C389.1,549.2,390,548.8,390.8,548.4z"/>
	<path id="XMLID_1005_" class="st8" d="M372,555.8c-0.2-0.2-0.5-0.5-0.7-0.7c0.6-0.9,1.5-1.1,2.5-1.5
		C373.7,555.1,372.8,555.4,372,555.8z"/>
	<path id="XMLID_1004_" class="st8" d="M323.2,512.4c-2.4,0.3-3.8,2.3-6,3c-0.7-0.8,0-1.1,0.5-1.4c4.3-2.6,8.5-5.2,13-7.5
		c-0.6,2-3.1,1.7-3.8,3.5C325.8,510.9,324.8,512.1,323.2,512.4z"/>
	<path id="XMLID_1003_" class="st8" d="M292.6,505.5c-1.7,2.4-3.2,3.5-5.1,4.2c-0.1,0-0.6-0.7-0.5-0.8
		C288.3,507.5,289.9,506.4,292.6,505.5z"/>
	<path id="XMLID_1002_" class="st8" d="M351.8,509.3c-0.3-0.2-0.5-0.5-0.8-0.7c0.3-2.1,2.5-2,3.7-3c0.8-0.3,0.9,0.1,0.7,0.7
		C354.3,507.4,353,508.3,351.8,509.3z"/>
	<path id="XMLID_1001_" class="st9" d="M323.2,512.4c1.1-1,2.2-2,3.8-2.3c-0.7,1.3-1.7,2.3-3,3C323.7,512.9,323.5,512.6,323.2,512.4
		z"/>
	<path id="XMLID_1000_" class="st8" d="M347.3,501.1c0.2,0.3,0.5,0.5,0.7,0.8c-1,0.7-1.9,1.5-2.9,2.2
		C345.2,502.5,346.1,501.7,347.3,501.1z"/>
	<path id="XMLID_999_" class="st8" d="M355.5,506.4c-0.2-0.2-0.5-0.5-0.7-0.7c0.6-0.8,1.3-1.3,2.4-1.2
		C357.2,505.6,356.2,505.9,355.5,506.4z"/>
	<path id="XMLID_998_" class="st8" d="M304.3,511.3c-0.1-0.3-0.4-0.6-0.3-0.7c0.3-0.4,0.6-0.8,1-0.9c0.4-0.1,0.6,0.3,0.3,0.6
		C305.1,510.7,304.7,510.9,304.3,511.3z"/>
	<path id="XMLID_997_" class="st179" d="M377.2,507.4c0.9,0,1.3,0,0.9,0.5c-0.2,0.4-0.6,0.8-1,1c-0.5,0.2-0.6-0.2-0.5-0.6
		C376.8,507.9,377.1,507.5,377.2,507.4z"/>
</g>
</svg>
