<?xml version="1.0" encoding="utf-8"?>
<!-- Generator: Adobe Illustrator 19.0.0, SVG Export Plug-In . SVG Version: 6.00 Build 0)  -->
<svg version="1.1" id="Layer_1" xmlns="http://www.w3.org/2000/svg" xmlns:xlink="http://www.w3.org/1999/xlink" x="0px" y="0px"
	 viewBox="0 0 612 792" style="enable-background:new 0 0 612 792;" xml:space="preserve">
<style type="text/css">
	.st0{fill:#272626;}
	.st1{fill:#D0E0EE;}
	.st2{fill:#F47A20;}
	.st3{fill:#E0EAEE;}
	.st4{fill:#FFFEFC;}
	.st5{fill:#D1DBDF;}
	.st6{fill:#FFFEFD;}
	.st7{fill:#FFFEFB;}
	.st8{fill:#FFFDFA;}
	.st9{fill:#FFFDF9;}
	.st10{fill:#D2DCE0;}
	.st11{fill:#FEF9F8;}
	.st12{fill:#CED8DB;}
	.st13{fill:#FEFAF7;}
	.st14{fill:#FFFDF8;}
	.st15{fill:#FEFBF5;}
	.st16{fill:#FFFBF5;}
	.st17{fill:#FFFBF4;}
	.st18{fill:#FEFBF7;}
	.st19{fill:#FEFAF1;}
	.st20{fill:#FDF8F3;}
	.st21{fill:#FDF7F5;}
	.st22{fill:#FAF8F3;}
	.st23{fill:#FDFAF3;}
	.st24{fill:#FEFAF3;}
	.st25{fill:#FCF7F2;}
	.st26{fill:#F8F0EF;}
	.st27{fill:#FEFAF0;}
	.st28{fill:#FDF8F2;}
	.st29{fill:#FBF7F2;}
	.st30{fill:#FBF2F0;}
	.st31{fill:#FBF4F2;}
	.st32{fill:#FDFEFE;}
	.st33{fill:#DAE1DF;}
	.st34{fill:#FDF8EC;}
	.st35{fill:#F4EFE5;}
	.st36{fill:#F8F3E7;}
	.st37{fill:#F7F8F8;}
	.st38{fill:#FEF6E7;}
	.st39{fill:#F7E8E5;}
	.st40{fill:#F8F1E9;}
	.st41{fill:#F8E9E6;}
	.st42{fill:#E6E6E6;}
	.st43{fill:#F4F5F6;}
	.st44{fill:#F5E3E1;}
	.st45{fill:#F3E9DE;}
	.st46{fill:#F5E2DF;}
	.st47{fill:#D6CCD1;}
	.st48{fill:#E0DDE3;}
	.st49{fill:#D5C2C9;}
	.st50{fill:#F0E9D8;}
	.st51{fill:#F0CECB;}
	.st52{fill:#F9DFDB;}
	.st53{fill:#EFDCD9;}
	.st54{fill:#FBEAE7;}
	.st55{fill:#EFBFBB;}
	.st56{fill:#E3707F;}
	.st57{fill:#FCEFEC;}
	.st58{fill:#F7D2CE;}
	.st59{fill:#E8D5D3;}
	.st60{fill:#F6CAC6;}
	.st61{fill:#A78888;}
	.st62{fill:#FEF8EC;}
	.st63{fill:#FDF1D7;}
	.st64{fill:#FDF3DE;}
	.st65{fill:#FDF3DD;}
	.st66{fill:#FCF0D6;}
	.st67{fill:#FCEFD1;}
	.st68{fill:#FDF4E1;}
	.st69{fill:#FDF2DB;}
	.st70{fill:#FDF2DA;}
	.st71{fill:#FDF4E0;}
	.st72{fill:#FEFCF4;}
	.st73{fill:#FBEBC3;}
	.st74{fill:#FDF5E3;}
	.st75{fill:#FCEECE;}
	.st76{fill:#FCF0D3;}
	.st77{fill:#FBE9BC;}
	.st78{fill:#FBECC6;}
	.st79{fill:#FCEFD2;}
	.st80{fill:#FCF1D7;}
	.st81{fill:#FCF0D2;}
	.st82{fill:#FDF3DC;}
	.st83{fill:#FCEECF;}
	.st84{fill:#FCF0D5;}
	.st85{fill:#F9E2A4;}
	.st86{fill:#FCEDCA;}
	.st87{fill:#FEF9F6;}
	.st88{fill:#FCEFE9;}
	.st89{fill:#FCEBE4;}
	.st90{fill:#F7D4CF;}
	.st91{fill:#FBE8E4;}
	.st92{fill:#F4BDB9;}
	.st93{fill:#F9F5F1;}
	.st94{fill:#F7E4CC;}
	.st95{fill:#F9EAD8;}
	.st96{fill:#F7E4CB;}
	.st97{fill:#FDF6E6;}
	.st98{fill:#F9E4AE;}
	.st99{fill:#FAE7B7;}
	.st100{fill:#FBFCFC;}
	.st101{fill:#EBEEF0;}
</style>
<g id="XMLID_34_">
	<path id="XMLID_823_" class="st0" d="M256.4,353.9c-4.8-5.2-9.5-10.2-14-15.3c-17.4-19.8-26.3-43.1-26.4-69.4
		c-0.1-22.4,7.9-42.1,21.4-59.8c4.4-5.8,9.7-10.7,14.9-15.8c10.1-10,22.3-17.4,35.2-22c36.9-13.1,72.3-10.7,103.9,15.1
		c20.2,16.6,33.6,37.4,37.6,63.5c5.2,34.2-4.1,64.4-26.1,90.8c-3.6,4.3-7.7,8.1-12.1,12c15.7,5.5,21.2,17.6,22.5,32.7
		c1.2,14.3-1,28.4-1.9,42.6c-0.6,8.5-1,16.9,0.2,25.4c1.4,9.5-3.1,15.3-12.7,16.5c-3.2,0.4-6.5,0.4-9.7,0.2
		c-4.4-0.3-7.9-2.1-10.2-6.3c-4.3-7.7-6.9-16-9.9-24.1c-1.4-3.7-2.5-7.5-4.8-11.2c-1.8,3-3.4,5.8-5.7,8c-1.4,1.3-0.7,2.7-0.4,4.2
		c4.8,25.8,2.5,50.7-10,74.1c-3.4,6.3-8.1,11.6-13.2,16.7c-3,2.9-6,5.5-9.6,7.5c-2.4,1.3-4,1.4-6.3-0.4
		c-16.8-12.8-25.3-30.4-29.5-50.5c-3.2-15.5-3.2-31,0.6-46.4c0.4-1.5,0.4-2.8-0.9-4.1c-1.3-1.3-2.4-2.8-3.5-4.4
		c-1-1.4-1.7-3-2.7-4.8c-2.5,3.3-3.6,7.2-4.8,11c-2,5.9-3.5,11.9-6.2,17.6c-6,12.9-15.2,15.5-28.8,12.8c-4.8-1-6.4-3.7-6.2-8.6
		c0.6-13.9-1-27.7-1.8-41.5c-0.9-14.5-1.9-28.9,1.8-43.2C239.5,366.1,245.2,357.8,256.4,353.9z"/>
	<path id="XMLID_822_" class="st1" d="M400.5,326c0.2,1.1-0.5,1.9-1,2.7c-6.3,9.7-12.5,19.4-18.8,29.1c-0.7,1.5-2.8,1.9-2.9,3.9
		c-0.2,3.6-2.7,6.3-4,9.5c-1.4,3.4-3,6.6-2.9,10.6c0.2,4.6-2.8,6.7-8.6,7c-3.9,0.2-7.7-0.5-11.5-0.9c0.1-2.6,2.5-3.5,3.8-5.1
		c0.1,0,0.2,0,0.2,0c-0.2-0.2-0.3-0.1-0.5,0.1c-3.1,1.8-5.9,4.2-9.6,4.7c-2.6,0.9-3.9,0.1-3.6-2.8c0.2-1.7,0.2-3.4,0.3-5.1
		c1.8-3.3,5.4-4.6,7.7-6.7c-2.3,0.9-4.2,3.6-7.4,3.3c-0.1-6.3,0.7-12.7-0.2-19c-1.6-11.3-6.4-14.8-17.8-13.6
		c-0.9,0.1-1.7,0.2-2.6,0.4c-1.5-0.1-2.9-0.2-4.3,0.2c-7.2,1.2-9.6,6.6-11,12.8c-0.7,1.1-1.6,1.9-2.9,2.2c-4.9,2.2-9.2,5.5-14,8
		c-1.1,0.5-2.2,1-3.1,1.7c-3.3,1.4-5.8,4.4-9.7,4.6c-0.5-2.2-1.1-4.5-1.6-6.7c1.5-2.7,4.4-3.5,6.7-5.2c0,0,0,0,0,0
		c-2.5,1-4.3,3.6-7.3,3.2c-0.8-2.1-1.6-4.1-2.4-6.2c3.1-3.7,7.6-5.3,11.4-8c1.1-0.7,2.4-1.2,3.4-2c0,0,0.1-0.1,0.1-0.1
		s-0.2,0.1-0.3,0.1c-1.1,0.9-2.4,1.3-3.6,2c-2.6,1.8-5.4,3.4-8.2,5c-1.1,0.7-2.1,1.8-3.7,1.2c-1.5-1.7-3-3.4-4.6-5
		c0.3-1.4,1.5-1.9,2.5-2.6c12.6-8.5,25.3-16.9,38.2-24.9c1.4-0.7,2.6-1.7,4-2.4c0.6-0.3,1.2-0.7,1.5-1c-0.6,0.1-1.1,0.9-1.9,1.2
		c-1.3,0.8-2.6,1.7-4,2.4c-13.3,8.3-27.1,15.7-40.5,23.7c-0.9,0.5-1.7,1-2.8,0.6c-1.8-1.4-3.5-3-4.6-5.1c0.5-1.8,2.1-2.4,3.4-3.2
		c18.2-12.4,36.8-24.3,55.2-36.5c1.5-0.9,2.9-1.8,4.2-3c1.6-1.1,3.1-2.3,4.6-3.6c1.1-1,2.4-1.2,3.8-1.4
		c11.6-1.9,20.7-11.7,22.6-23.3c1-6.2-0.7-11.8-2-17.6c1-2.9,3.6-3.8,6.1-4.7c1.6-0.3,2.9-1.3,4.3-2.1c14.8-8.6,29.6-17.1,44.4-25.7
		c1.1-0.6,2.1-1.4,3.5-0.8c1,2,2,4,3,6c-2.9,3.9-7.6,5.5-11.4,8.1c-4.6,3.2-9.3,6.1-14.1,8.9c-1.3,0.6-2.4,1.6-3.7,2.2
		c0.1,0-0.4,0.2,0,0.1c0.4-0.1-0.1,0.2,0.3-0.1c1.2-0.8,2.4-1.6,3.7-2.3c7.4-4.8,15.1-9,22.7-13.4c1.1-0.6,2.2-1.2,3.5-1.1
		c1.3,1.9,2.2,4,2.7,6.3c-0.6,1.7-2.1,2.4-3.5,3.2c-6.4,4-12.7,8.2-19.2,11.9c-0.3,0.2-0.6,0.4-1,0.5c0.6,0,0.9-0.5,1.4-0.7
		c6.6-4.1,13.2-8,20-11.8c1-0.5,1.9-1.3,3.1-0.8c1.2,2.1,2.1,4.2,2.2,6.7c-0.2,1.8-1.9,2.2-3.1,3c-17.6,11.3-34.7,23.3-52.4,34.4
		c-0.3,0-0.4,0.2-0.2,0.4c0.1-0.2,0.2-0.4,0.5-0.5c17.5-10.8,35.6-20.7,53.3-31.1c1.1-0.6,2.1-1.4,3.5-0.9c1,2.2,1.6,4.6,1.4,7.1
		c-1.2,2.4-3.6,3.3-5.7,4.6c-11.5,7.2-22.4,15.2-34.1,22c-0.8,0.4-1.6,1-2.4,1.5c-0.3,0-0.3,0.1-0.2,0.3c0.1-0.2,0.2-0.3,0.5-0.4
		c0.7-0.7,1.6-1.1,2.4-1.5c11.9-7.4,24.2-14.2,36.4-21.2c1.1-0.7,2.3-1.6,3.8-1c0.6,2.5,0.8,4.9,0.6,7.5c-3.2,3.8-8.1,5.3-11.9,8.2
		c-1.2,0.7-2.6,1.3-3.7,2.2c-0.3,0-0.3,0.2-0.2,0.4c0.1-0.2,0.2-0.3,0.5-0.4c1.1-1,2.5-1.4,3.7-2.1c3.8-2.1,7.1-5.3,11.6-6.2
		c0.2,3-0.2,5.9-0.8,8.7c-2.7,2.8-6.3,4.3-9.5,6.5c-0.8,0.4-1.5,0.9-2.1,1.4c-0.7,0.1-1.2,0.6-1.7,0.9c0.5-0.2,0.9-0.7,1.5-0.8
		c0.9-0.4,1.7-1.2,2.6-1.6c3-1.2,5-4.7,8.8-4.2c-0.5,3.4-0.8,6.8-3,9.7c-1.2,2.2-3.5,3.2-5.5,4.4c-4.8,2.9-9.3,6.2-14.2,8.9
		c-1.1,0.8-2.3,1.4-3.5,2.1c-0.9,0.4-1.7,1-2.7,1.7c1-0.6,1.7-1.2,2.6-1.5c1.3-0.8,2.6-1.5,3.9-2.4c4.9-3,9.7-6.1,14.8-8.8
		c1.1-0.6,2.2-1.8,3.7-1.1c-3.4,9.5-8.4,18.3-14.2,26.5c-1.4,1.5-2.9,2.8-4.7,3.6c-0.7,0.4-1.4,0.9-2.1,1.4
		c-0.7,0.2-1.2,0.7-1.9,1.2c0.7-0.3,1.2-0.9,1.8-1.1c0.9-0.5,1.7-1.2,2.6-1.6C399.4,325.8,399.9,325.7,400.5,326z"/>
	<path id="XMLID_821_" class="st1" d="M227.1,255.4c0-3.6,0.8-7.1,1.8-10.6c4.3-4.8,9.6-8.5,14.5-12.6c0.3-0.4-0.5-0.5,0-0.2
		c0.1,0.1,0.1,0.2-0.1,0.4c-4,2.6-7.6,6-12.6,6.6c1.9-8,5.8-15,10-22c0.8-1.3,1.8-1.5,3.1-1.5c10.4,0.1,20.7,0.1,31.1,0.1
		c0.5,1.1-0.5,1.6-1.1,2.1c-4,3.3-7.8,6.9-12.1,9.8c-0.1,0-0.2,0-0.2,0c0.1,0.2,0.3,0.1,0.4-0.1c7-4.1,13.6-8.9,21.4-11.8
		c5.1,0,10.1,0,15.2,0c-0.4,2.4-2.6,3.1-4.2,4.3c-1.6,1.3-3.4,2.4-5.2,3.5c-0.3,0.2-0.6,0.4-1,0.5c0.6,0,0.9-0.5,1.4-0.6
		c4.5-2.9,8.9-6,14.2-7.7c5.1,0,10.2,0,15.3,0c0,1.1-0.7,1.9-1.5,2.4c-9.2,6.3-17.9,13.4-27.4,19.4c-0.8,0.5-1.5,1.1-2.3,1.6
		c-0.3,0-0.3,0.1-0.2,0.3c0.1-0.2,0.2-0.3,0.5-0.4c0.7-0.6,1.6-1.1,2.4-1.6c10.6-6.4,21.4-12.4,32-18.6c2.1-1.3,4.3-2.5,6.8-3.1
		c4.8,0,9.6,0,14.4,0c0,1.7-1.4,2.2-2.5,3c-4,2.7-8,5.3-12.2,7.8c-0.5,0.3-1,0.5-0.8,0.4c-0.1,0.1,0.6-0.1,1.1-0.5
		c6.4-3.7,12.2-8.3,19.3-10.7c4.8,0,9.7,0,14.5,0c0,1.3-1,2-1.9,2.6c-11.3,7.4-22.3,15.2-33.6,22.6c-0.5,0.3-1.1,0.6-1.7,0.8
		c-2.4,0.7-5,0.1-7.4,0.6c-11.9,2.4-18.7,10.1-21.9,21.5c-0.4,1.4-0.5,3-1.3,4.2c-1.3,1.6-3.2,2.5-4.9,3.6
		c-17.6,10-35.1,20.4-52.8,30.4c-1.1,0.6-2.1,1.8-3.7,1.2c-1.2-2.1-2.1-4.3-2.3-6.8c0.3-1.3,1.5-2,2.5-2.6
		c14.2-9.3,27.8-19.4,42.3-28.1c0.2,0,0.3-0.2,0.2-0.3c-0.1,0.2-0.3,0.3-0.5,0.4c-14,8.5-28.1,16.5-42.3,24.6
		c-1.1,0.7-2.2,1.7-3.8,1.1c-1-2.2-1.6-4.6-1.6-7c0.4-1.6,1.9-2.2,3.1-3c5.5-3.8,11.1-7.4,16.8-10.9c1.1-0.7,2.4-1.2,3.6-2.2
		c-1.4,1-2.7,1.5-3.9,2.3c-5.1,3.3-10.4,6.4-15.7,9.5c-1.3,0.8-2.7,1.9-4.5,1.4c-0.9-2.6-1-5.2-0.8-7.9c2.7-3.9,7-5.8,10.7-8.5
		c7.8-5.7,15.6-11.4,23.6-16.7c0.2,0,0.3-0.2,0.3-0.4c-0.1,0.2-0.3,0.3-0.5,0.4c-10.4,6.6-21.3,12.5-31.9,18.7
		c-0.8,0.5-1.7,1.2-2.8,0.6c-0.1-3.1-0.4-6.2,0.4-9.2c4-3.5,8.5-6.5,12.8-9.2c-3,1.6-5.9,3.7-9.1,5.2
		C229.4,255.1,228.5,256.2,227.1,255.4z"/>
	<path id="XMLID_820_" class="st2" d="M384.6,193c4.3,3.3,8.3,6.8,11.3,11.3c-2,2.3-4.5,3.7-7.6,3.9c-4.5,0-9.1,0-13.6,0
		c-1.2-1.6-2.5,0.6-3.7,0c-4.3,0.1-8.7,0.1-13,0.2c-0.1-0.3-0.1-0.7,0-1c-0.2-0.2,1-1.3-0.4-0.8c-1.1,0.4-2,1.3-3.1,1.7
		c-0.8,0.2-1.7,0.1-2.5,0.1c-8.8-0.1-17.6-0.2-26.4-0.2c0.2-2.4,2.5-3.4,3.7-5c1.7-1.8,3.9-3,6.1-5.3c-4.4,2.5-8.3,4.4-11.9,6.9
		c-2.4,1.3-4.4,3.3-7.2,3.7c-4.6-0.1-9.2-0.2-13.7-0.2c0.2-3.2,3.5-3.7,5.1-5.8c2.8-2.9,6.1-5.1,8.8-7.8
		c-5.8,3.3-11.7,6.9-17.7,10.3c-1.3,0.7-3.1,1-3.5,2.8c0.1,0.1,0.2,0.3,0.2,0.5c0,0.2,0,0.3-0.1,0.3c-15.9,0-31.7,0-48,0
		c19.8-28.3,62.3-46.1,103.4-33.7c-0.6,2.5-3.2,2.9-4.6,4.5c-2.9,3.3-6.5,5.7-9.3,8.4c5.3-3,10.8-6.3,16.4-9.5
		c1.2-0.7,2.4-1.2,3.8-1.3c2.7,1,5.4,1.8,7.8,3.5c-1,3.5-4.1,5.1-6.4,7.5c-0.9,1-2.1,1.7-3.2,2.5c-0.2,0.2-0.5,0.5-0.8,0.7
		c0.4-0.1,0.7-0.6,1.1-0.8c4.8-2.4,9-6,14.3-7.5c4.7,2.6,9.3,5.4,13.4,9C381.8,194.1,384.2,192.3,384.6,193z"/>
	<path id="XMLID_819_" class="st2" d="M402.9,433.2c-0.3,8.6-0.1,17.2-1.8,25.6c-0.1,0.4,0,0.8-0.2,1.1c-1.1,2.7-0.9,6.6-4.5,7
		c-3.3,0.4-4.9-2.8-6.5-5.4c0-1.3,0.9-2.2,1.6-3.5c-1.2,0.5-2.1,1.4-3.3,1c-3.2-4.7-5.5-9.9-7.7-15.2c0.7-2.3,2.7-3.4,4.3-4.9
		c0.2-0.1,0.4-0.2,0.6-0.3c-0.2-0.1-0.4-0.1-0.6,0.2c-1.7,1-3,2.8-5.4,2.4c-3.2-7.3-6.2-14.6-8.8-22.1c0.3-1.5,1.8-1.7,2.8-2.6
		c7.3-7,7.8-16.8,2.6-22.9c-0.6-0.7-1.6-1.3-0.4-2.4c4.8-4.8,5.1-11.2,5.9-17.3c0.5-4.1,1.2-8.1,2.9-11.9c1.4-3.1,3.2-3.8,6-1.9
		c1.1,0.8,2.6,0.9,3.2,2.4c-0.1,0.3-0.4,0.6,0,0.9c0.3,0.2,0.6,0,0.9-0.2c2.7,1.2,3.9,3.5,5.1,6c-0.3,2.4-3,2.6-3.9,4.3
		c1.4-1,2.8-2.3,4.9-2.2c1.6,2.6,1.6,5.5,1.3,8.5c-0.2,0.4-0.4,0.9-0.7,1.3c-1.4,1.6,0.7,0.6,0.8,1.1c0.8,5.1,0.6,10.2,0.7,15.3
		c0.2,11,0.3,21.9,0.5,32.9c-0.2,0.6-0.4,1.2-0.7,1.8c0.2,0.3-1.3,0.7,0,1C402.6,432.8,402.8,432.9,402.9,433.2z"/>
	<path id="XMLID_818_" class="st2" d="M243.7,403.2c-0.3-6.2-0.5-12.3,0.7-18.4c-0.3-0.9,2.6-1.3,0.5-2.6c1.1-9.2,4.6-17,12.4-22.4
		c1.3-0.9,2.8-2.1,4,0.2c-0.5,2.9-3,4.4-4.3,6.8c2.4-0.5,3.9-2.9,6.6-2.5c2.3,5.2,2.3,10.8,3.1,16.3c0.7,4.4,1.8,8.4,5.1,11.7
		c0.2,0.7-0.6,1.5,0.2,2.2c-5.6,8.9-5.4,13.9,0.9,21.4c0.4,1.3-0.6,1.9-1.3,2.6c1-0.8,2-1.4,3.4-1.1c2.4,0.3,2.9,1.4,2,3.8
		c-5,13-10.8,25.6-15.2,38.9c-1.8,5.3-10.1,7.5-14.5,4c-1.4-1.1-2-2.6-1.9-4.3c0.2-2.3,0.7-4.6,1-7c-0.1-0.8,2.6-1.4,0.2-2.4
		c-0.2-6.2-0.5-12.5-0.7-18.7c1.7-3.9,6.1-5.3,8.1-8.4c-2.6,1.6-5.6,3.3-8.5,5c-0.2-3.2-0.4-6.3-0.6-9.5c-0.2-0.5,0.8-1.3-0.3-1.7
		c-0.2-3.2-0.5-6.4-0.7-9.6c3.1-2.7,6.1-5.6,8.9-8.2C249.7,399.9,247.6,403.6,243.7,403.2z"/>
	<path id="XMLID_817_" class="st2" d="M349.7,484.3c-0.7,4.3-1.6,8.5-3.4,12.5c-0.9,1.6-2.1,3-3.4,4.2c0.6-0.5,1.3-0.5,2-0.2
		c-3.9,12.4-10.8,23.1-19.2,32.9c-1.7,2-2.1-0.2-2.9-1c-0.1-1.6,0.9-2.7,1.9-3.9c-1.6,0.2-2.5,2-4.2,1.5c-3-3.7-6.1-7.4-8.2-11.7
		c-0.1-1.4,0.8-2.3,1.8-3c2.7-2,4.9-4.5,6.9-6.2c-3.4,1.4-6.4,4.9-10.9,5.5c-1.5-2.1-2.8-4.2-3.5-6.8c0.6-2.3,2.7-3.1,4.2-4.5
		c3.2-2.9,6.3-5.9,9.9-8.3c-0.1-0.1-0.1,0.1-0.2,0.1c-4.4,2.8-9,5.3-13.5,7.9c-0.7,0.4-1.4,1.1-2.4,0.8c-1-2.5-2.4-5-2.6-7.8
		c1-2.3,3-3.6,4.8-5c3.8-3,7.1-6.5,11.2-9.1c0.1-0.1,0.3-0.2,0.5-0.3c-0.4-0.1-0.6,0.4-0.9,0.5c-4.2,2.5-8.4,5-12.7,7.5
		c-1.4,0.8-2.7,1.8-4.4,1.5c-1.3-2.4-1.4-5.2-2-7.8c2.8-4,7-6.2,10.6-9.2c1.9-1.7,3.6-3.9,6.4-4.3c5.7,1.1,11.4,0.8,17-0.4
		c5-1.1,7.2-4.9,8.6-9.3c2.6-2.8,6-4.3,9.3-6.1c1.2,8.6,1.3,17.2-0.1,25.8c-3.5,3.4-7,6.8-11.1,9.5c-0.1,0.1-0.3,0.3-0.5,0.4
		c0.4,0.1,0.5-0.4,0.9-0.5C343,487.8,345.7,484.8,349.7,484.3z"/>
	<path id="XMLID_816_" class="st2" d="M331.9,427c0.3,6.7,0.4,13.5,0.1,20.2c-0.5,0.8-1.1,1.6,0,2.4c0.4,4.8-0.3,9.5-0.6,14.2
		c-0.1,1.6-0.7,2.3-2.2,2.2c-2-0.1-4-0.1-6-0.1c-0.4-2.1,1-3.3,2-4.4c-1.7,0.7-3.1,3.2-5.8,2.4c-1.4-3.1-2-6.4-2.2-9.8
		c0-0.6,0.2-1.3-0.5-1.7c-1-6.4-1.9-12.8-1.7-19.3c0.5-1.3,1.4-2.3,2.1-3.5c-0.8,0.2-1.4,0.9-2.1,0.2c0-3.6,0-7.1,0-10.7
		c0.2-0.7,0.4-1.4,0.9-1.9c1.5-1.6-0.8-0.8-0.9-1.4c-0.1-11.2,1-22.4,1.2-33.6c0.2-9.7,0.6-19.4-0.4-29.1c-0.5-4.6,0.1-4.9,5.8-4.9
		c0.6,1.6-0.6,2.7-0.9,4.2c2.2-1.1,4.1-3,6.9-2.8c3,1.6,4.1,4.3,4.4,7.5c-0.4,0.9-0.6,1.7,0.5,2.3c0.1,2.1,0.4,4.2,0.2,6.3
		c-1.3,14.9-0.6,29.8-1.1,44.7c0.2,0.8-1.2,1.6,0,2.4c0.1,3.7,0.1,7.4,0.2,11.1C332.2,425,329,426,331.9,427z"/>
	<path id="XMLID_815_" class="st1" d="M326.2,298.6c-1.5,1.1-3.1,2.1-4.6,3.2c-1.7,0.7-3.2,2-4.9,2.8
		c-16.9,10.6-34.5,20.1-51.7,30.2c-2.2,1.3-4.3,2.5-6.5,3.8c-1.2,0.7-2.4,1.4-3.9,1c-1.8-1.4-2.9-3.4-4.2-5.3
		c1.3-2.5,3.9-3.3,6.1-4.7c6.1-4,12.4-7.8,18.6-11.6c1.1-0.8,2.5-1.2,3.5-2.1c0,0,0.1-0.1,0.1-0.1s-0.2,0.1-0.3,0.1
		c-1.1,0.9-2.4,1.3-3.6,2.1c-6.9,4.4-14.1,8.4-21.2,12.6c-1.4,0.8-2.7,1.8-4.4,1.8c-1.6-1.7-2.8-3.7-3.9-5.8
		c0.4-1.1,1.3-1.8,2.2-2.4c7.8-4.8,15.3-10,23.2-14.6c1.4-0.7,2.6-1.7,3.9-2.4c0.2-0.2,0.5-0.2,0.6-0.4c-0.3,0.2-0.7,0.3-1,0.5
		c-1.3,0.8-2.6,1.7-4,2.4c-7.3,4.7-15,8.8-22.5,13.2c-1.2,0.7-2.3,1.5-3.8,1.4c-1.6-1.8-2.7-3.8-3.5-6c1.1-2.4,3.4-3.2,5.4-4.5
		c13.5-8.6,26.7-17.6,40.2-26.1c0.9-0.5,1.7-1.1,2.5-1.7c0.9-0.6,1.4-1.5,2.2-2.1c1.8-0.7,3.1-2.7,5.4-2.1c1.2,0.6,1.8,1.7,2.4,2.8
		c5,8.7,13,11.9,22.5,12.4C323,297.1,325.1,296.3,326.2,298.6z"/>
	<path id="XMLID_814_" class="st1" d="M296.3,282.1c-2.2-0.1-3,2.9-5.4,2.3c-0.6,0.8-1.3,1.5-2.3,1.9c-0.8,0.6-1.7,1.2-2.6,1.6
		c-14.9,9.1-30,17.7-45.2,26.4c-0.6,0.4-1.3,0.8-2.1,0.5c-1.3-2-2.3-4.1-3-6.4c0-1.5,1.3-2,2.3-2.7c17.4-11.6,34.7-23.4,52.5-34.5
		c1.5-0.3,2.4-2.9,4.5-1.3C295.4,274,297,278,296.3,282.1z"/>
	<path id="XMLID_813_" class="st1" d="M356.7,251.5c-2.5,0.6-4.5,1.8-6,3.9c-3.1-2.2-5.5-5.1-7.1-8.5c0.2-1.4,1.3-2,2.4-2.6
		c15.5-9,31.1-17.8,46.5-26.9c1.4-0.8,3-1.1,4.5-1.7c1.7,0,3.5,0,5.2-0.2c2.3-0.3,3.5,0.8,3.9,2.9c-0.2,1.3-1.3,1.8-2.2,2.4
		c-14.7,9.1-28.8,19.2-43.7,28C359,249.6,357.9,250.5,356.7,251.5z"/>
	<path id="XMLID_812_" class="st3" d="M276.9,403c0.4-1.3,0.7-2.6,1.2-3.9c1.4-3.4,3.5-5.2,7.6-5c6,0.4,12,0.1,17.9,0
		c2.1-0.1,2.8,0.7,2.7,2.8c-0.1,5-0.1,10,0,15c0,1.3,0.1,2.3-1.8,2.5c-7.6,0.8-14.9,0.4-22-2.8c-2.5-1.1-4.8-2.6-5.4-5.7
		C278.5,404.7,277.2,403.9,276.9,403z"/>
	<path id="XMLID_811_" class="st1" d="M372,215.6c4.9,0,9.7,0,14.6,0c0.2,1.6-1.2,2.1-2.1,2.7c-13.2,8.8-26.3,17.7-39.5,26.3
		c-1,0.7-2.1,1.4-3.4,1.3c-4.1-1.9-8.7-2.4-12.6-4.8c-0.3-1.9,1.4-2.2,2.4-2.8c12.1-7.2,24.4-14,36.5-21.2
		C369.1,216.4,370.6,216.2,372,215.6z"/>
	<path id="XMLID_810_" class="st1" d="M302.6,358.8c1.1-0.5,2.1-1,3.2-1.6c0.2,6.5,0.4,13.1,0.6,19.6c-1.6,2.9-4.7,3.7-7.2,5
		c-4.2,2.3-7.9,5.7-12.8,6.6c-2.8-0.3-5.4-0.8-7.1-3.4c-0.1-0.9,0.4-1.4,1.1-1.8c0.5-0.1,0.1,0.4,0.2-0.1c0.1-0.3-0.1-0.3-0.3,0
		c-0.6,0.3-1.2,0.6-1.9,0.4c-1-2.2-1.6-4.4-1.7-6.8c2.2-3.6,6-5.2,9.5-7.3C291.6,366,297.3,362.7,302.6,358.8z"/>
	<path id="XMLID_809_" class="st3" d="M364.8,396.9c4.4,1.9,6.2,4.4,5.5,8.1c-1,4.7-2.8,8.4-7.8,8.5c-3,0.1-5.9,0.8-8.9,0
		c1.5-2.4,4.6-2.6,6.3-4.8c0.2-0.4,0.6-0.6,0.7-1c-0.4-0.1-0.6,0.2-0.9,0.4c-3.4,1.9-6.6,4.3-10.4,5.3c-2.5,0-5-0.1-7.5-0.1
		c-0.6-6.2-0.5-12.5-0.1-18.7c6.1-1.5,12.1-0.9,18.1,0.4c0.1,0.6-0.1,1.1-0.4,1.5c-1.5,1.7-2.6,3.8-4.9,5.3c1.9-1.2,3.5-2,5-3
		C361.3,398.1,362.6,396.4,364.8,396.9z"/>
	<path id="XMLID_808_" class="st2" d="M297.8,479.4c-1.8-10.3-1.4-20.6-0.2-30.9c0.3-2.5,1.2-3.3,3.5-1.8c0.7,0.5,1.5,0.9,2.4,1.1
		c2.6,0.5,2.7,1.9,2.5,4.3c-0.7,7.3,0.2,14.1,8,17.6c-0.1,1.6-1.6,2-2.6,2.6C306.9,474.8,303,478.4,297.8,479.4z"/>
	<path id="XMLID_807_" class="st4" d="M254.7,339.6c19.8-11.4,39.7-22.8,59.6-34.3c0.9-0.5,1.8-0.9,2.6-1.4c0.8-0.4,0.9,0,0.8,0.7
		c-19.8,13.1-39.5,26.2-59.3,39.3C256.9,342.7,255.7,341.3,254.7,339.6z"/>
	<path id="XMLID_806_" class="st5" d="M355.9,425.5c-2.2,7.2-7.2,12.6-14.8,15.7c0-6.7,0-13.2,0-19.7c0-1.7,1.1-1.7,2.3-1.7
		c4,0,8,0,11.9,0c1.4,0,2.3,0.3,1.4,2c-1,1.8-2.2,3.5-4.2,4.6C353.7,426,354.6,424.9,355.9,425.5z"/>
	<path id="XMLID_805_" class="st6" d="M290.7,271.7c-18.3,12.2-36.6,24.5-54.9,36.7c-0.9-1.6-1.8-3.3-2.1-5.2
		c18.7-10.8,37.4-21.6,56.2-32.3C290.7,270.6,290.9,271,290.7,271.7z"/>
	<path id="XMLID_804_" class="st4" d="M362,283.1c18.7-12.4,37.5-24.8,56.2-37.2c1.1,1.6,1.5,3.4,1.5,5.2
		c-17.3,9.9-34.5,19.9-51.8,29.8c-1.7,1-3.5,1.9-5.2,2.9C362,284.2,361.9,283.7,362,283.1z"/>
	<path id="XMLID_803_" class="st4" d="M341.9,245.6c13.9-9.3,27.8-18.5,41.7-27.8c1-0.7,2-1.5,3-2.2c3.5,0,6.9,0,10.4,0
		c-15,8.7-30.1,17.5-45.1,26.3c-2.8,1.6-5.5,3.3-8.3,5C342.7,247,341.8,247,341.9,245.6z"/>
	<path id="XMLID_802_" class="st7" d="M277.2,265.7c-15.3,10.3-30.5,20.5-45.8,30.8c-0.9-1.5-1.3-3.2-1.4-5
		c15.5-8.9,31-17.7,46.5-26.6C277.2,264.6,277.3,265,277.2,265.7z"/>
	<path id="XMLID_801_" class="st7" d="M372,215.6c-10.6,6.2-21.2,12.5-31.8,18.7c-3.7,2.2-7.5,4.4-11.2,6.7c-1,0.8-1.9,0.9-2.8-0.2
		c11-7.4,22-14.9,32.9-22.3c1.3-0.9,2.6-1.9,3.9-2.8C366,215.6,369,215.6,372,215.6z"/>
	<path id="XMLID_800_" class="st8" d="M359.8,248.6c15.5-10.1,30.9-20.1,46.4-30.2c0.7,1.2,1.4,2.4,2.1,3.6
		c-14.2,8.1-28.3,16.3-42.5,24.4c-1.7,1-3.5,1.9-5.2,2.8C359.8,249.7,359.7,249.3,359.8,248.6z"/>
	<path id="XMLID_799_" class="st8" d="M238.7,314.9c7.6-5.2,15.8-9.4,23.8-14c7.8-4.6,15.7-9,23.6-13.5c0.8-0.4,0.9,0,0.8,0.7
		c-15.5,10.1-30.9,20.1-46.4,30.2C240,317.2,239.4,316,238.7,314.9z"/>
	<path id="XMLID_798_" class="st7" d="M329,215.6c-12.8,7.8-25.7,15.3-38.9,22.5c-0.9,0.4-1-0.1-0.9-0.8
		c8.8-6.4,17.6-12.7,26.3-19.1c1.1-0.8,2.1-1.7,3.2-2.5C322.2,215.6,325.6,215.6,329,215.6z"/>
	<path id="XMLID_797_" class="st8" d="M226.4,267.7c11.7-6.7,23.4-13.4,35.1-20c0.8-0.3,0.9,0.1,0.8,0.7
		c-11.8,8.4-23.5,16.8-35.3,25.2C226.2,271.7,226.3,269.7,226.4,267.7z"/>
	<path id="XMLID_796_" class="st8" d="M307.2,324.9c-13.8,9.1-27.5,18.1-41.3,27.2c-1.2-0.8-2.2-1.8-3-3
		c14.5-8.3,28.9-16.6,43.4-24.9C307.2,323.8,307.3,324.2,307.2,324.9z"/>
	<path id="XMLID_795_" class="st9" d="M380.8,284.6c13.5-8.8,27-17.6,40.4-26.5c0.7,1.4,0.9,2.8,0.7,4.3
		c-12.3,7.1-24.6,14.1-36.9,21.1c-1.1,0.6-2.2,1.1-3.3,1.7C380.9,285.7,380.7,285.3,380.8,284.6z"/>
	<path id="XMLID_794_" class="st10" d="M295.2,430.8c-0.3-0.4-0.7-0.7-0.9-1.1c-1.7-3-4.5-6.7-3.1-9.5c1.1-2.2,5.7-0.6,8.7-0.8
		c2-0.1,4,0.1,5.9,0.2c0.8,1.5,0.2,3.1,0.4,4.7c-0.3,1.7-1.7,2.5-3.1,3.3C300.4,428.5,298.6,431.6,295.2,430.8z"/>
	<path id="XMLID_793_" class="st11" d="M356.8,176.7c-7.6,4.4-15.1,8.9-22.7,13.3c-0.2-0.3-0.5-0.7-0.7-1
		c5.8-4.7,10.9-10.2,17.1-14.4C352.6,175.3,354.7,176,356.8,176.7z"/>
	<path id="XMLID_792_" class="st12" d="M305.6,424.9c0-1.8,0.1-3.5,0.1-5.3c1.4,3.4,0.4,6.9,0.6,10.4c0.1,2.6-0.1,5.2-0.1,7.8
		c-0.6,1.1-1.4,1.9-2.8,1.4c-2.5-1.3-4.5-3.1-6.1-5.5c1.2-2.7,3.6-4.2,5.6-6.2C304,426.8,305.1,426.1,305.6,424.9z"/>
	<path id="XMLID_791_" class="st1" d="M306.4,379c0.1,11,2,8.6-8.7,9.7c-1.8,0.2-3.7,0-5.5,0c-0.1-1,0.5-1.6,1.2-2.1
		c3.6-2.5,7.2-5,10.9-7.2C304.9,378.9,305.6,378.6,306.4,379z"/>
	<path id="XMLID_790_" class="st13" d="M318.5,482.5c-5.5,4.6-11,9.2-16.5,13.8c-0.9-1.5-1.5-3.2-1.5-4.9c5.7-3.3,11.4-6.5,17.1-9.8
		C318.4,481.3,318.6,481.8,318.5,482.5z"/>
	<path id="XMLID_789_" class="st14" d="M283.2,215.6c-7.2,4.2-14.5,8.4-21.7,12.6c-0.8,0.3-1-0.1-0.8-0.8c4.7-3.9,9.4-7.9,14-11.8
		C277.6,215.6,280.4,215.6,283.2,215.6z"/>
	<path id="XMLID_788_" class="st15" d="M271.2,310c-8.6,5.6-17.3,11.1-25.9,16.7c-0.4-0.8-0.9-1.5-1.3-2.3
		c8.8-5.1,17.5-10.1,26.3-15.2C271.2,308.8,271.3,309.3,271.2,310z"/>
	<path id="XMLID_787_" class="st16" d="M385.3,244.8c8.7-5.6,17.4-11.1,26.1-16.7c0.3,0.8,0.7,1.6,1,2.4c-8.8,5-17.5,10.1-26.3,15.1
		C385.3,245.9,385.1,245.5,385.3,244.8z"/>
	<path id="XMLID_786_" class="st17" d="M275.7,318.2c-8.3,5.6-16.6,11-25.2,16.1c-0.4-0.6-0.8-1.3-1.3-1.9
		c8.4-5.3,17-10.2,25.7-14.9C275.8,317.1,275.9,317.5,275.7,318.2z"/>
	<path id="XMLID_785_" class="st18" d="M321.5,495.3c-5,4.3-10,8.5-15,12.8c-0.6-1.3-1.3-2.6-1.9-4c5-3.9,10.7-6.5,16.1-9.6
		C321.5,494.2,321.7,494.6,321.5,495.3z"/>
	<path id="XMLID_784_" class="st2" d="M341.7,457c-0.1-2,0.2-4-0.2-5.9c-0.5-2.2,0.6-3,2.4-3.8c5.2-2.4,5.2-2.4,6.1,3.5
		C347.7,453.5,345.5,456.3,341.7,457z"/>
	<path id="XMLID_783_" class="st19" d="M392,251.6c7.7-5,15.4-9.9,23.1-14.9c0.5,0.8,1,1.5,0.9,2.5c-7.7,4.4-15.5,8.8-23.2,13.1
		C392.1,252.7,392,252.3,392,251.6z"/>
	<path id="XMLID_782_" class="st20" d="M297.8,479.4c5.4-3.2,10.8-6.4,16.2-9.7c0.5,0.1,1,0.2,1.5,0.3c-5.6,4.6-11,9.4-17,13.5
		C298.2,482.2,298,480.8,297.8,479.4z"/>
	<path id="XMLID_781_" class="st21" d="M369.7,182.7c-4.7,2.7-9.5,5.5-14.2,8.2c-0.8,0.2-1.1-0.2-1-0.9c3.4-3.3,6.7-6.5,10.1-9.8
		C366.5,180.6,368,181.7,369.7,182.7z"/>
	<path id="XMLID_780_" class="st22" d="M306.4,379c-4.8,3.1-9.8,6-14.3,9.6c-1.9,0.2-3.9,0.2-5.8-0.2c6.7-3.9,13.4-7.7,20-11.6
		C306.4,377.6,306.4,378.3,306.4,379z"/>
	<path id="XMLID_779_" class="st23" d="M248.7,271c-6.8,4.5-13.6,9-20.4,13.6c-0.7-0.9-0.7-1.9-0.6-2.9c6.7-3.8,13.4-7.6,20.2-11.3
		C248.8,269.9,248.9,270.3,248.7,271z"/>
	<path id="XMLID_778_" class="st15" d="M230.6,238.9c4.4-2.5,8.9-5,13.3-7.5c0.2,0.3,0.4,0.6,0.6,0.9c-5.3,4.1-10.1,8.8-15.7,12.5
		C229.4,242.8,230,240.9,230.6,238.9z"/>
	<path id="XMLID_777_" class="st24" d="M417.4,296c-6.2,3.5-12.3,6.9-18.5,10.4c-0.8,0.2-1-0.1-0.9-0.8c6.7-4.3,13.4-8.6,20.1-13
		C418.6,293.9,417.9,294.9,417.4,296z"/>
	<path id="XMLID_776_" class="st1" d="M316.2,208.3c2.2-1.4,4.4-2.8,6.6-4.2c1.2-0.4,2.2-1.1,3.4-1.6c1.5-0.6,2.9-0.8,3.7,1.1
		c-1.4,1.5-2.9,3-4.3,4.5C322.5,208.8,319.3,208.5,316.2,208.3z"/>
	<path id="XMLID_775_" class="st25" d="M310,514.8c4.3-2.5,8.6-5,12.8-7.5c0.2,0.3,0.4,0.6,0.6,0.9c-3.8,3.4-7.5,6.9-11.3,10.3
		C311.3,517.4,310.4,516.3,310,514.8z"/>
	<path id="XMLID_774_" class="st19" d="M328.3,226.1c5-3.5,10.1-7,15.1-10.5c1.7,0,3.3,0,5,0c-6.3,4-12.7,7.7-19.3,11.2
		C328.3,227.2,328.2,226.8,328.3,226.1z"/>
	<path id="XMLID_773_" class="st26" d="M243.7,403.2c3.7-2,7.4-4,11.1-6.1c0.2,0.3,0.5,0.7,0.7,1c-4.1,2.8-6.7,7.4-11.7,9.2
		C243.8,405.9,243.7,404.6,243.7,403.2z"/>
	<path id="XMLID_772_" class="st27" d="M227.1,255.4c4.9-2.7,9.7-5.4,14.6-8.1c0.2,0.3,0.3,0.5,0.5,0.8c-5,3.6-9.6,7.9-15.4,10.5
		C226.9,257.5,227,256.4,227.1,255.4z"/>
	<path id="XMLID_771_" class="st28" d="M338.7,489.2c3.8-3.1,7-7,11.5-9.2c-0.2,1.4-0.4,2.8-0.6,4.3c-3.4,1.9-6.7,3.8-10.1,5.8
		C338.8,490.4,338.6,490,338.7,489.2z"/>
	<path id="XMLID_770_" class="st29" d="M341.7,457c2.7-2.1,5.5-4.1,8.2-6.2c0.2,1.1,0.3,2.3,0.5,3.4c-2.4,3.1-6.1,4.3-9.3,6.1
		C341.3,459.2,341.5,458.1,341.7,457z"/>
	<path id="XMLID_769_" class="st30" d="M245.4,428.2c2.8-3.9,7.5-4.8,11-7.4c0.2,0.3,0.4,0.6,0.7,0.9c-3.8,3.3-7.5,6.6-11.3,10
		C245.7,430.4,245.5,429.3,245.4,428.2z"/>
	<path id="XMLID_768_" class="st19" d="M303.5,215.6c-4.5,3.1-9.3,5.7-14.1,8.2c-0.9,0.3-1-0.1-0.9-0.8c3.3-2.5,6.6-5,9.9-7.4
		C300.1,215.6,301.8,215.6,303.5,215.6z"/>
	<path id="XMLID_767_" class="st31" d="M263.6,364.2c-2.8,1.5-5.3,3.5-9,4.6c2.2-3.6,4.3-6.3,6.7-8.9
		C262.3,361.2,263.2,362.6,263.6,364.2z"/>
	<path id="XMLID_766_" class="st32" d="M349.3,413.4c3.3-2.3,6.7-4.2,10.3-5.9c0.8,0.3,0.9,1,0.9,1.7c-1.6,2.6-4.5,3.1-6.9,4.4
		C352.2,413.5,350.7,413.5,349.3,413.4z"/>
	<path id="XMLID_765_" class="st2" d="M286.3,370.4c-3.7,1.4-6.3,4.4-9.6,6.3c-0.2-1-0.4-2-0.6-2.9c3.2-1.8,6.3-3.5,9.5-5.3
		c0.8-0.2,1,0.3,1.1,0.9C286.6,369.7,286.5,370.1,286.3,370.4z"/>
	<path id="XMLID_764_" class="st1" d="M295.2,208.4L295.2,208.4c2.9-2.7,6.4-4.1,9.7-5.9c1-0.6,2.1-0.6,3,0.4
		c-1.8,1.8-3.7,3.6-5.5,5.3C300.1,208.7,297.6,208.5,295.2,208.4z"/>
	<path id="XMLID_763_" class="st33" d="M344.7,387.6c3.3-1.9,6.5-3.7,9.8-5.6c0.8-0.2,1.1,0.2,0.9,0.9c-1.5,1.6-3,3.3-4.6,4.9
		C348.7,387.8,346.7,387.7,344.7,387.6z"/>
	<path id="XMLID_762_" class="st34" d="M270.5,357.1c4-2.2,7.9-4.5,11.9-6.7c0.8-0.4,1,0.1,0.9,0.8c-4,2.5-7.9,5.1-11.9,7.6
		C271.1,358.3,270.8,357.7,270.5,357.1z"/>
	<path id="XMLID_761_" class="st35" d="M341.6,376.3c3.2-1.8,6.3-3.6,9.5-5.4c0.2,0.3,0.4,0.6,0.6,0.9c-3.5,2.6-7,5.2-10.4,7.8
		C341.4,378.6,341.5,377.5,341.6,376.3z"/>
	<path id="XMLID_760_" class="st1" d="M327.5,349.6c-2.6,1.4-5.2,2.9-8,4.5c-0.1-2.4,1.5-3.9,2-5.8
		C323.7,347.9,325.8,348,327.5,349.6z"/>
	<path id="XMLID_759_" class="st36" d="M410,277.8c4-2.8,8.1-5.6,12.5-7.8c0,0.6-0.1,1.3-0.1,2c-3.8,2.2-7.7,4.4-11.5,6.6
		C410,278.9,409.9,278.5,410,277.8z"/>
	<path id="XMLID_758_" class="st37" d="M303.5,427.8c-1.8,2.3-3.7,4.3-6.1,6c-1-0.8-1.8-1.8-2.3-3c2.5-1.3,5-2.5,7.5-3.8
		C303.5,426.7,303.7,427.1,303.5,427.8z"/>
	<path id="XMLID_757_" class="st1" d="M388.3,208.2c2.6-1.2,4.8-3.2,7.6-3.9c0,0-0.1,0-0.1,0c0.6,1.3,2,2.4,1,4.1
		C393.9,208.6,391.1,208.9,388.3,208.2z"/>
	<path id="XMLID_756_" class="st2" d="M273.7,365.1c3.2-1.7,6.4-3.5,9.6-5.2c0.2,0.3,0.3,0.5,0.5,0.8c-2.9,2.4-6.1,4.4-9.4,6.3
		C274.2,366.4,273.9,365.7,273.7,365.1z"/>
	<path id="XMLID_755_" class="st2" d="M319.2,464c2.1-1,4.1-2.1,6.4-3.3c-0.4,2.3-1.8,3.6-2.6,5.3
		C321.5,465.8,319.3,467.1,319.2,464z"/>
	<path id="XMLID_754_" class="st38" d="M421.1,282.9c-2.9,1.6-5.8,3.1-8.8,4.7c-0.8,0.4-0.9-0.1-0.8-0.8c3.3-2.2,6.4-4.6,10-6.2
		C421.4,281.4,421.3,282.1,421.1,282.9z"/>
	<path id="XMLID_753_" class="st39" d="M400.4,371.1c-2.4,1.4-4.7,2.8-7.1,4.3c1.4-2.8,3.7-4.6,6.1-6.3
		C399.8,369.7,400.1,370.4,400.4,371.1z"/>
	<path id="XMLID_752_" class="st40" d="M320.4,530.3c1.7-1.5,3.6-2.6,6.4-3.7c-1,3.1-3.1,4.2-4.1,6.1
		C321.9,531.9,321.2,531.1,320.4,530.3z"/>
	<path id="XMLID_751_" class="st2" d="M359,396.2c0.3-0.4,0.5-0.8,0.8-1.2c1.7,0.5,3.5,0.7,5,1.9c-1.7,0.7-3,2.2-5,2.3
		C358.7,398.4,358.2,397.5,359,396.2z"/>
	<path id="XMLID_750_" class="st41" d="M385.3,439c-1.4,1.8-2.9,3.5-4.8,4.8c-0.4-0.9-0.7-1.7-1.1-2.6c1.9-1.1,3.9-2.2,5.8-3.2
		C385.6,438.3,385.6,438.7,385.3,439z"/>
	<path id="XMLID_749_" class="st42" d="M341.7,394.6c0,6.2,0,12.5,0.1,18.7C340.8,407.1,341,400.9,341.7,394.6z"/>
	<path id="XMLID_748_" class="st43" d="M355.9,425.5c-1.7,0.9-3.4,1.9-5.1,2.8c-0.2-0.2-0.3-0.3-0.5-0.5c2.1-2,4.3-4,6.4-6.1
		C357,423.1,356.4,424.3,355.9,425.5z"/>
	<path id="XMLID_747_" class="st44" d="M388.1,459c1.4-0.9,2.9-1.7,4.8-2.9c-0.3,2.7-1.8,4-3.1,5.5C389,460.9,388.4,460.1,388.1,459
		z"/>
	<path id="XMLID_746_" class="st45" d="M344.8,500.8c-1.3,0.7-2.6,1.3-3.9,2c-0.2-0.2-0.4-0.5-0.7-0.7c2-1.8,4-3.5,6-5.3
		C346.2,498.3,345.8,499.6,344.8,500.8z"/>
	<path id="XMLID_745_" class="st46" d="M274.9,417.2c-1.7,1-3.4,2.1-5.9,3.6c0.8-2.9,2.9-3.5,3.9-5.1
		C273.5,416.2,274.2,416.7,274.9,417.2z"/>
	<path id="XMLID_744_" class="st47" d="M314.8,429.8c1.2-0.6,2.3-1.2,4.1-2c-0.9,2.7-2.5,4-4,5.3C314.8,432,314.8,430.9,314.8,429.8
		z"/>
	<path id="XMLID_743_" class="st2" d="M396.8,208.3c-0.3-1.4-0.6-2.7-1-4.1c1.2,0.2,1.7,1.3,2.4,2.1c0.5,0.5,1.3,1.1,0.9,1.8
		C398.5,208.9,397.6,208.6,396.8,208.3z"/>
	<path id="XMLID_742_" class="st48" d="M314.8,415.8c1.1-0.5,2.2-1,3.7-1.7c-0.5,2.5-2.3,3.6-3.7,5
		C314.8,418,314.8,416.9,314.8,415.8z"/>
	<path id="XMLID_741_" class="st49" d="M331.9,427c-1,0.1-1.7,1.4-3.2,1c0.4-1.9,1.9-2.9,3.2-4.1C331.9,425,331.9,426,331.9,427z"/>
	<path id="XMLID_740_" class="st50" d="M400.5,326c-0.5,0.2-1.1,0.4-1.6,0.6c-0.9,0.4-1-0.1-0.9-0.8c1.7-1.1,3.4-2.2,5.2-3.3
		C402.6,323.9,402,325.3,400.5,326z"/>
	<path id="XMLID_739_" class="st51" d="M244.9,382.2c1-0.4,1.9-0.9,3.5-1.6c-0.9,2.3-2.6,3.1-3.9,4.1
		C244.1,383.8,244.3,382.9,244.9,382.2z"/>
	<path id="XMLID_738_" class="st52" d="M401.8,381.9c-1.1,0.5-2.2,1-3.8,1.8c0.6-2.5,2.4-3.1,3.7-4.1
		C401.8,380.3,401.8,381.1,401.8,381.9z"/>
	<path id="XMLID_737_" class="st53" d="M384.6,193c-1.3,0.8-2.6,1.6-4.4,2.7c0.5-2.2,2.1-2.8,2.8-4
		C383.7,191.9,384.3,192.2,384.6,193z"/>
	<path id="XMLID_736_" class="st1" d="M370.9,208.2c0.9-0.5,1.8-1.1,2.8-1.6c0.5-0.2,1.1-1,1.5-0.3c0.5,0.7-0.4,1.2-0.6,1.9
		C373.4,208.6,372.2,208.9,370.9,208.2z"/>
	<path id="XMLID_735_" class="st2" d="M377.8,361.6c-0.9-0.1-1.4-0.7-0.7-1.4c1.1-1,2.3-1.7,3.5-2.5
		C380.1,359.4,379.4,360.8,377.8,361.6z"/>
	<path id="XMLID_734_" class="st54" d="M246.5,450.3c1-0.2,1.7-1.3,3.2-1c-0.7,1.7-2,2.6-3.4,3.4C246.4,451.8,246.4,451,246.5,450.3
		z"/>
	<path id="XMLID_733_" class="st55" d="M272,394.3c-0.7,0-1.8,1-2-0.3c-0.2-1,1-1.5,1.8-1.9C273,392.8,273.3,393.5,272,394.3z"/>
	<path id="XMLID_732_" class="st1" d="M332.5,359.3c-0.8,0.1-1.8,1.3-2.3,0.5c-0.7-1.4,1-1.9,1.8-2.8
		C332.4,357.8,332.7,358.5,332.5,359.3z"/>
	<path id="XMLID_731_" class="st56" d="M276.9,403c2.5,0.7,2.5,1.7,0.4,2.9C277.2,404.9,276.3,404.1,276.9,403z"/>
	<path id="XMLID_692_" class="st2" d="M351.9,208.3c0.9-0.2,1.7-0.4,2.6-0.6c1.2-0.2,2.4-0.9,3.5,0.3c0.1,0.1,0.1,0.2,0,0.4
		C356,208.8,353.9,209,351.9,208.3z"/>
	<path id="XMLID_691_" class="st2" d="M303.5,439.2c0.9-0.5,1.8-1,2.8-1.5c0.1,0.9,0.6,2.1-0.4,2.5
		C305,440.7,304.2,439.9,303.5,439.2z"/>
	<path id="XMLID_690_" class="st57" d="M331.7,412.8c-0.7,0.3-1.3,1.2-2.5,0.5c0.3-1.4,1.6-1.9,2.4-2.9
		C331.7,411.2,331.7,412,331.7,412.8z"/>
	<path id="XMLID_689_" class="st58" d="M244.5,417c0.8-0.2,1.7-1.7,2.3-0.3c0.4,1.1-1.4,1.2-2,2C244.7,418.1,244.6,417.5,244.5,417z
		"/>
	<path id="XMLID_688_" class="st2" d="M331.9,449.6c-0.6,0.2-1.1,0.3-1.7,0.5c-0.2-1.5,0.8-2.1,1.8-2.8
		C332,448,332,448.8,331.9,449.6z"/>
	<path id="XMLID_687_" class="st59" d="M373.4,416.5c-0.5,1.3-1.6,1.9-2.8,2.6C369.8,416.3,372,416.8,373.4,416.5z"/>
	<path id="XMLID_686_" class="st2" d="M278.3,383.5c0.6-0.3,1.2-0.6,1.8-0.9c0.9-0.3,1,0.1,0.8,0.8c-0.6,0.5-1.1,1-1.7,1.6
		C278.9,384.5,278.6,384,278.3,383.5z"/>
	<path id="XMLID_685_" class="st2" d="M316.5,452.4c0.6-0.1,1.3-1.1,1.7-0.1c0.4,0.9-0.6,1.4-1.3,1.9
		C316.6,453.7,316.4,453.1,316.5,452.4z"/>
	<path id="XMLID_684_" class="st2" d="M316.7,344.4c1.4-1.2,2.8-1.2,4.3-0.2C319.6,344.3,318.2,344.3,316.7,344.4z"/>
	<path id="XMLID_683_" class="st60" d="M394.3,363.1c-0.7,0.9-1.5,1.6-2.8,1.5c0.2-1.2,1.1-1.6,1.9-2.1
		C393.8,362.7,394,362.9,394.3,363.1z"/>
	<path id="XMLID_682_" class="st61" d="M402.9,433.2l-0.2,0.1l-0.2,0c-0.7-0.5-0.6-1.3-0.5-2c0.4-0.4,0.7-0.8,1.1-1.2
		C403.3,431.1,403.4,432.2,402.9,433.2z"/>
	<path id="XMLID_681_" class="st0" d="M326.1,240.8c0.9,0.1,1.9,0.1,2.8,0.2c4.5,1.1,8.9,2.5,13,4.6c0.6,0.4,1.1,0.9,1.7,1.3
		c2.7,2.5,5.1,5.3,7.1,8.5c5.2,13,3.2,24.7-6.6,34.8c-4.1,4.1-9.2,6.4-14.9,7.1c-1.1,0.1-2.3,0.1-2.9,1.3c-2.1-1.5-4.6-0.4-6.8-0.6
		c-10.7-1-18.6-5.9-23.1-15.8c-1.2-4.1-1.9-8.2-1.9-12.5c-0.4-0.5-0.3-1,0-1.6c1-4.4,1.9-8.8,4.2-12.7
		C304.8,244.8,314.2,240.4,326.1,240.8z"/>
	<path id="XMLID_680_" class="st62" d="M286.3,370.4c0-0.4,0-0.8,0-1.2c0.4-1,1.4-1.5,2-2.3c4.7-2.8,9.1-6.1,14.3-8.1
		c0.3,1.1-0.6,1.5-1.3,2C296.3,364,291.3,367.2,286.3,370.4z"/>
	<path id="XMLID_679_" class="st63" d="M395,308.6c-1.2,1.1-2.6,2-4.9,2.8c1.4-2.3,3.1-3,4.8-3.7C395.3,307.9,395.3,308.2,395,308.6
		z"/>
	<path id="XMLID_678_" class="st64" d="M385.3,244.8c0.3,0.3,0.6,0.5,0.8,0.8c-1.1,1-2.3,1.8-3.7,2.3c-0.8,0.4-0.9-0.1-0.9-0.8
		C382.8,246.3,384,245.5,385.3,244.8z"/>
	<path id="XMLID_677_" class="st65" d="M307.2,324.9c-0.3-0.3-0.6-0.5-0.9-0.8c1.1-1,2.3-1.8,3.7-2.2c0.8-0.4,0.9,0,0.9,0.7
		C309.7,323.4,308.5,324.2,307.2,324.9z"/>
	<path id="XMLID_676_" class="st66" d="M311,322.6c-0.3-0.2-0.6-0.5-0.9-0.7c1.3-1,2.7-2,4.8-2.6C313.9,321.3,312.3,321.8,311,322.6
		z"/>
	<path id="XMLID_675_" class="st67" d="M395,308.6c0-0.3-0.1-0.7-0.1-1c0.8-1.1,1.9-1.6,3.1-2.1c0.3,0.3,0.6,0.6,0.9,0.8
		C397.9,307.5,396.5,308.2,395,308.6z"/>
	<path id="XMLID_674_" class="st16" d="M410,288.9c-1.2,0.8-2.4,1.6-3.6,2.4c0.6-1.9,2.1-2.5,3.6-3.3c0.2,0.2,0.3,0.4,0.2,0.6
		C410.1,288.8,410,288.9,410,288.9z"/>
	<path id="XMLID_673_" class="st68" d="M283.2,351.2c-0.3-0.3-0.6-0.5-0.9-0.8c1.3-0.7,2.5-1.5,3.8-2.2c0.8-0.4,0.9,0.1,0.8,0.7
		C285.7,349.7,284.5,350.5,283.2,351.2z"/>
	<path id="XMLID_672_" class="st69" d="M410,277.8c0.3,0.3,0.6,0.5,0.8,0.8c-1.3,0.8-2.5,1.5-3.8,2.3c-0.8,0.4-0.9-0.1-0.8-0.7
		C407.5,279.3,408.8,278.6,410,277.8z"/>
	<path id="XMLID_671_" class="st70" d="M317.7,304.6c-0.3-0.2-0.5-0.5-0.8-0.7c1.5-1,2.7-2.5,4.7-2.2
		C320.7,303.2,319.2,303.9,317.7,304.6z"/>
	<path id="XMLID_670_" class="st68" d="M392,251.6c0.3,0.2,0.6,0.5,0.8,0.7c-1.1,0.9-2.2,1.8-3.9,2
		C389.5,252.5,390.9,252.2,392,251.6z"/>
	<path id="XMLID_669_" class="st71" d="M359.8,248.6c0.3,0.2,0.5,0.5,0.8,0.7c-1.2,0.8-2.2,2.2-3.9,2.2
		C356.8,249.5,358.6,249.4,359.8,248.6z"/>
	<path id="XMLID_668_" class="st72" d="M396.5,327.8c-0.9,0.7-1.8,1.7-3.4,1.5c0.9-1.3,2.2-1.8,3.4-2.4c0.2,0.2,0.3,0.4,0.2,0.6
		C396.6,327.7,396.5,327.8,396.5,327.8z"/>
	<path id="XMLID_667_" class="st73" d="M288.1,358c-0.1-1.3,0.7-1.6,1.5-1.8c0.1,0,0.6,0.6,0.6,0.7C289.7,357.5,289,357.9,288.1,358
		z"/>
	<path id="XMLID_666_" class="st74" d="M380.8,284.6c0.3,0.2,0.6,0.5,0.9,0.7c-0.8,0.5-1.6,1-2.3,1.5c-0.8,0.4-0.9-0.1-0.8-0.7
		C379.3,285.6,380,285.1,380.8,284.6z"/>
	<path id="XMLID_665_" class="st75" d="M378.5,286.1c0.3,0.2,0.5,0.5,0.8,0.7c-0.7,0.7-1.5,1.2-2.6,1.4
		C376.4,286.6,377.7,286.6,378.5,286.1z"/>
	<path id="XMLID_664_" class="st17" d="M385.6,255.7c-0.4,1.3-1,2-2.6,1.6C384.1,256.6,384.9,256.2,385.6,255.7z"/>
	<path id="XMLID_663_" class="st76" d="M362,283.1c0.3,0.2,0.5,0.5,0.8,0.7c-0.7,0.8-1.5,1.2-2.5,1.4
		C359.8,283.6,361.3,283.6,362,283.1z"/>
	<path id="XMLID_662_" class="st2" d="M288.3,366.9c-0.3,1.1-0.9,1.9-2,2.3c-0.3-0.3-0.5-0.5-0.8-0.8
		C286.2,367.6,287.2,367.1,288.3,366.9z"/>
	<path id="XMLID_661_" class="st77" d="M375.6,251.5c0.6-1.2,1.2-2.2,2-1.7c1.2,0.7-0.1,1-0.6,1.3
		C376.8,251.3,376.4,251.3,375.6,251.5z"/>
	<path id="XMLID_660_" class="st78" d="M406.3,280.1c0.3,0.2,0.5,0.5,0.8,0.7c-0.8,0.5-1.6,1-2.5,1.6
		C404.1,280.6,405.5,280.6,406.3,280.1z"/>
	<path id="XMLID_659_" class="st79" d="M381.5,247.1c0.3,0.3,0.6,0.5,0.9,0.8c-0.7,0.7-1.5,1.2-2.6,1.4
		C379.3,247.6,380.7,247.6,381.5,247.1z"/>
	<path id="XMLID_658_" class="st75" d="M287,348.9c-0.3-0.2-0.5-0.5-0.8-0.7c0.7-0.6,1.6-1.6,2.2-0.8
		C289,348.2,287.7,348.6,287,348.9z"/>
	<path id="XMLID_657_" class="st80" d="M410,288.9c0-0.3,0-0.6,0-0.9c0.5-0.4,1-0.7,1.6-1.1c0.3,0.3,0.6,0.5,0.8,0.8
		C411.7,288.3,410.9,288.7,410,288.9z"/>
	<path id="XMLID_656_" class="st69" d="M352.1,371.1c0.4-1.3,1.1-1.6,2-1.6C354,370.4,353.4,370.8,352.1,371.1z"/>
	<path id="XMLID_655_" class="st76" d="M396.5,327.8c0-0.3,0-0.6,0-0.9c0.5-0.4,1-0.8,1.6-1.2c0.3,0.3,0.6,0.5,0.9,0.8
		C398.2,327.2,397.5,327.8,396.5,327.8z"/>
	<path id="XMLID_654_" class="st81" d="M355.3,382.9c-0.3-0.3-0.6-0.6-0.9-0.9c0.6-0.6,1.5-1.6,2-0.9
		C357.2,382,356,382.4,355.3,382.9z"/>
	<path id="XMLID_653_" class="st71" d="M248.7,271c-0.3-0.2-0.5-0.5-0.8-0.7c1.8-1.2,3.7-2.3,5.5-3.5C252.5,269,250.6,270,248.7,271
		z"/>
	<path id="XMLID_652_" class="st82" d="M294.4,268.1c0,0.5,0,1,0,1.6c-1.2,0.7-2.4,1.4-3.7,2.1c-0.3-0.3-0.6-0.5-0.9-0.8
		C291.4,270,292.9,269,294.4,268.1z"/>
	<path id="XMLID_651_" class="st81" d="M288.5,223.1c0.3,0.3,0.6,0.5,0.9,0.8c-1,0.9-2,1.7-3.7,1.8
		C286.2,224.1,287.4,223.6,288.5,223.1z"/>
	<path id="XMLID_650_" class="st64" d="M328.3,226.1c0.3,0.2,0.6,0.5,0.8,0.7c-1,0.9-2.1,1.7-3.8,1.8
		C325.9,227.1,327.1,226.6,328.3,226.1z"/>
	<path id="XMLID_649_" class="st83" d="M287.8,239.5c-0.7,0.7-1.5,1.2-2.5,1.4c-0.4-1.6,1-1.6,1.7-2.1
		C287.3,239,287.8,239.1,287.8,239.5z"/>
	<path id="XMLID_648_" class="st62" d="M287.8,239.5c-0.3-0.3-0.5-0.5-0.8-0.8c0.8-0.5,1.5-1,2.3-1.5c0.3,0.3,0.6,0.5,0.9,0.8
		C289.4,238.6,288.6,239.1,287.8,239.5z"/>
	<path id="XMLID_647_" class="st84" d="M262.2,248.5c-0.3-0.2-0.5-0.5-0.8-0.7c0.6-0.6,1.5-1.7,2.2-0.8
		C264.2,247.7,263,248.2,262.2,248.5z"/>
	<path id="XMLID_646_" class="st17" d="M281.5,262.4c-0.3,0.8-1,1.7-1.7,1.2c-0.8-0.6,0.3-0.9,0.7-1.2
		C280.8,262.2,281.1,261.9,281.5,262.4z"/>
	<path id="XMLID_645_" class="st85" d="M321.5,229.5c0.6,0.9,0.8,1.1,1,1.4c-0.4,0.2-0.7,0.6-1.1,0.7c-0.5,0.2-0.6-0.2-0.5-0.6
		C321,230.5,321.2,230.1,321.5,229.5z"/>
	<path id="XMLID_644_" class="st76" d="M277.2,265.7c-0.3-0.2-0.5-0.5-0.8-0.7c0.6-0.6,1.5-1.7,2.2-0.8
		C279.2,264.9,277.9,265.4,277.2,265.7z"/>
	<path id="XMLID_643_" class="st86" d="M260.7,227.5c0.3,0.3,0.5,0.5,0.8,0.8c-0.6,0.6-1.5,1.6-2,0.9
		C258.8,228.2,260.1,227.9,260.7,227.5z"/>
	<path id="XMLID_642_" class="st87" d="M307.9,202.8c-2.4-0.6-3.9,1.3-5.7,2.1c-2.3,1.1-4.3,2.9-7,3.4c-0.9-0.3-2,0.2-3.1-0.8
		c8.8-5.1,17.5-10.1,26.2-15.1c0.2,0.3,0.5,0.6,0.7,0.8C315.4,196.4,311.7,199.6,307.9,202.8z"/>
	<path id="XMLID_641_" class="st88" d="M329.9,203.6c-2.6-2.6-4.7,0.6-7.1,0.5c4.6-2.7,9.1-5.5,13.7-8.2c0.3,0.4,0.5,0.8,0.8,1.2
		C334.8,199.3,332.3,201.5,329.9,203.6z"/>
	<path id="XMLID_640_" class="st89" d="M358,208c-1.2,0.2-2.3,0.1-3.5-0.3c0.6-0.5,1.1-1,1.7-1.4c1.2-0.6,2.6-2.6,3.7-1.4
		C360.9,206.1,358.4,206.8,358,208z"/>
	<path id="XMLID_639_" class="st90" d="M354.5,190c0.3,0.3,0.7,0.6,1,0.9c-1,1-2,1.7-3.8,2C352.4,191.4,353.3,190.6,354.5,190z"/>
	<path id="XMLID_638_" class="st91" d="M401.9,431.3c0.7,0.5,0.6,1.3,0.5,2c-0.9,0.5-1.6,1.5-2.9,1.1
		C399.8,432.9,401.2,432.3,401.9,431.3z"/>
	<path id="XMLID_637_" class="st92" d="M385.3,439c0-0.4,0-0.7,0-1.1c0.4-0.6,1-1,2-0.9C386.8,438,386.2,438.7,385.3,439z"/>
	<path id="XMLID_636_" class="st93" d="M350.5,464.1c1.2,3.7,0.4,5.8-2.8,7.4c-4.4,2.2-8.5,4.8-12.8,7.3c-0.2-0.3-0.5-0.6-0.7-0.9
		C339.5,473.3,344.9,468.8,350.5,464.1z"/>
	<path id="XMLID_635_" class="st94" d="M338.7,489.2c0.3,0.3,0.6,0.6,0.9,0.8c-0.7,0.9-1.7,1.3-3.1,1.8
		C336.8,490.3,337.8,489.8,338.7,489.2z"/>
	<path id="XMLID_634_" class="st95" d="M318.5,482.5c-0.3-0.3-0.6-0.6-0.9-0.9c0.8-0.8,1.7-1.5,3.2-1.6
		C320.6,481.5,319.5,481.9,318.5,482.5z"/>
	<path id="XMLID_633_" class="st96" d="M321.5,495.3c-0.3-0.3-0.5-0.6-0.8-0.8c0.6-0.6,1.5-1.6,2-0.9
		C323.5,494.5,322.2,494.9,321.5,495.3z"/>
	<path id="XMLID_632_" class="st71" d="M271.2,310c-0.3-0.3-0.6-0.5-0.9-0.8c1.1-1,2.4-1.7,3.8-2.2c0.8-0.4,1,0.1,0.9,0.7
		C273.7,308.4,272.5,309.2,271.2,310z"/>
	<path id="XMLID_631_" class="st97" d="M275.7,318.2c-0.3-0.2-0.5-0.5-0.8-0.7c1.2-0.8,2.5-1.5,3.7-2.3c0.8-0.3,0.9,0.1,0.8,0.7
		C278.2,316.7,277,317.4,275.7,318.2z"/>
	<path id="XMLID_630_" class="st64" d="M275,307.7c-0.3-0.2-0.6-0.5-0.9-0.7c1-0.8,1.9-1.8,4.2-1.4
		C276.8,306.5,275.9,307.1,275,307.7z"/>
	<path id="XMLID_629_" class="st98" d="M284.7,312.5c-0.2,0.6-0.7,0.9-1.3,0.9c-0.2,0-0.3-0.5-0.5-0.7c0.4-0.3,0.8-0.6,1.2-0.8
		C284.5,311.7,284.6,312.1,284.7,312.5z"/>
	<path id="XMLID_628_" class="st64" d="M286.9,288.1c-0.3-0.2-0.5-0.5-0.8-0.7c0.8-0.5,1.5-1,2.3-1.5c0.8-0.3,0.9,0.1,0.8,0.7
		C288.5,287.2,287.7,287.6,286.9,288.1z"/>
	<path id="XMLID_627_" class="st78" d="M289.2,286.7c-0.3-0.2-0.5-0.5-0.8-0.7c0.8-0.5,1.6-1,2.5-1.5
		C291,285.7,290.3,286.3,289.2,286.7z"/>
	<path id="XMLID_626_" class="st27" d="M283.1,302.4c-0.5,0.3-1.1,1.1-1.5,0.9c-1.2-0.5-0.2-0.8,0.2-1c0.3-0.2,0.6-0.3,1-0.4
		C282.9,302.1,283,302.2,283.1,302.4z"/>
	<path id="XMLID_625_" class="st78" d="M279.5,315.9c-0.3-0.2-0.5-0.5-0.8-0.7c0.6-0.6,1.6-1.6,2.1-0.9
		C281.6,315.4,280.1,315.5,279.5,315.9z"/>
	<path id="XMLID_624_" class="st2" d="M280.9,383.5c-0.3-0.3-0.5-0.5-0.8-0.8c0.8-0.5,1.6-1,2.5-1.6
		C283,382.7,281.8,383,280.9,383.5z"/>
	<path id="XMLID_623_" class="st99" d="M289,377.3c0.6-0.3,1,0,0.9,0.3c-0.1,0.4-0.5,0.8-0.9,1c-0.2,0.1-0.9-0.1-0.9-0.2
		C287.9,377.6,288.7,377.5,289,377.3z"/>
	<path id="XMLID_622_" class="st100" d="M359,396.2c0.3,1,0.6,1.9,0.8,2.9c-1.7,2.4-4.7,2.8-7.2,4
		C354.7,400.8,356.9,398.5,359,396.2z"/>
	<path id="XMLID_621_" class="st2" d="M360.5,409.2c-0.8-0.3-0.7-1-0.9-1.7c0.6-1,1.5-1.4,3.1-1.4
		C362,407.3,361.6,408.5,360.5,409.2z"/>
	<path id="XMLID_620_" class="st101" d="M303.5,427.8c-0.3-0.3-0.5-0.5-0.8-0.8c1-0.7,1.9-1.4,2.9-2.1
		C305.7,426.4,304.6,427.1,303.5,427.8z"/>
	<path id="XMLID_619_" class="st2" d="M343.7,263.2c1.1,3.4,1.7,6.9,0.4,10.4c-0.5,1-0.9,2-1.7,2.8c-2,2.1,1.2,0.5,1,1.3
		c-2.2,10.6-12.1,15.9-23.5,12.6c-0.1-0.8,0.3-1.4,0.7-2c1.6-2.5,3.8-4.6,6.4-7.1c-3.6,1.8-6.4,3.7-9.3,5.2
		c-1.2,0.6-2.2,1.6-3.7,1.2c-2.5-1-4.5-2.7-6.2-4.9c2.2-4.3,6.3-6.9,9.4-10.3c-0.1,0,0.2-0.2,0-0.1c-0.4,0.3,0.1-0.2-0.3,0.2
		c-4,1.9-7.3,5.3-11.9,6c-1.7-2.4-2.4-5-2.2-7.9c0.4-1.1,0.9-2.2,2.3-2.9c-0.9,0.3-1.5,0.9-2.3,0.3c0.1-11,7.9-19.8,18.3-20.7
		c0.4,1.5-0.6,2.3-1.6,3c-0.4,0.3,0.4,0.5,0,0.2c-0.1,0,0-0.2,0.2-0.3c1.8-1,3.2-2.8,5.6-2.5c3.6,0.2,6.7,1.5,9.4,3.8
		c-0.6,2.9-3.7,2.9-5,4.5c2.3-0.6,4-3.4,7-3c2.3,1.5,4,3.4,5.1,5.9c-0.8,3-3.5,4.4-5.5,6.4c-1.1,1-2.4,1.8-3.3,3
		C336.7,267,339.4,263.3,343.7,263.2z"/>
	<path id="XMLID_618_" class="st1" d="M313.9,287.6c4.9-2.8,9.7-5.6,14.6-8.4c0.2,0.2,0.4,0.5,0.6,0.7c-3.1,3.5-6.1,6.9-9.2,10.4
		C317.7,289.8,315.6,289.1,313.9,287.6z"/>
	<path id="XMLID_617_" class="st1" d="M317.8,272.6c-3.3,3.4-6.7,6.7-10,10.1c-1.2-1.2-2.3-2.5-2.8-4.2c4-2.3,8-4.5,12-6.8
		C317.8,271.5,318,271.8,317.8,272.6z"/>
	<path id="XMLID_616_" class="st1" d="M343.7,263.2c-4.2,2.3-8.4,4.7-12.5,7c-0.2-0.3-0.5-0.6-0.7-0.9c3.7-3.5,7.5-7,11.2-10.5
		C342.8,260.1,343.2,261.6,343.7,263.2z"/>
	<path id="XMLID_615_" class="st1" d="M336.6,252.9c-3,1.8-6.1,3.5-9.1,5.3c1.2-3.7,4.9-4.4,7.2-6.7
		C335.5,251.6,336.1,252.2,336.6,252.9z"/>
	<path id="XMLID_614_" class="st1" d="M325.3,247.7c-2.5,1.5-5.1,3-7.6,4.5c-0.1-0.1-0.2-0.3-0.4-0.4c1.3-1.5,2.5-3,3.8-4.6
		C322.5,247,323.9,246.9,325.3,247.7z"/>
	<path id="XMLID_613_" class="st1" d="M343.4,277.7c-1.1,0.5-2.2,1-3.7,1.7c0.6-3,2.9-4.1,4.4-5.8
		C344.1,275,344.3,276.5,343.4,277.7z"/>
	<path id="XMLID_612_" class="st1" d="M302.7,267.9c1.3-0.4,2.3-1.7,4.3-1c-1.4,1.2-2.9,2.4-4.3,3.7
		C302.7,269.7,302.7,268.8,302.7,267.9z"/>
	<path id="XMLID_611_" class="st1" d="M317.8,272.6c-0.3-0.3-0.6-0.6-0.9-0.9c0.7-0.8,1.5-1.2,2.9-1.5
		C319.6,271.5,318.6,272,317.8,272.6z"/>
</g>
</svg>
