<?xml version="1.0" encoding="utf-8"?>
<!-- Generator: Adobe Illustrator 19.0.0, SVG Export Plug-In . SVG Version: 6.00 Build 0)  -->
<svg version="1.1" id="Layer_1" xmlns="http://www.w3.org/2000/svg" xmlns:xlink="http://www.w3.org/1999/xlink" x="0px" y="0px"
	 viewBox="0 0 612 792" style="enable-background:new 0 0 612 792;" xml:space="preserve">
<style type="text/css">
	.st0{fill:#272626;}
	.st1{fill:#76625A;}
	.st2{fill:#D7DFE2;}
	.st3{fill:#DBE3E6;}
	.st4{fill:#D5DCE0;}
	.st5{fill:#E1EAEE;}
	.st6{fill:#E0EAEE;}
	.st7{fill:#FEFEFE;}
	.st8{fill:#FDFDFE;}
	.st9{fill:#DFE9ED;}
	.st10{fill:#E0E9EE;}
	.st11{fill:#FDFDFD;}
	.st12{fill:#FEFFFF;}
	.st13{fill:#E0E9ED;}
	.st14{fill:#FCFDFD;}
	.st15{fill:#FBFBFB;}
	.st16{fill:#FDFEFE;}
	.st17{fill:#FCFCFC;}
	.st18{fill:#FCFCFD;}
	.st19{fill:#FBFCFC;}
	.st20{fill:#FBFBFC;}
	.st21{fill:#FAFBFC;}
	.st22{fill:#FBFCFD;}
	.st23{fill:#F8F9F9;}
	.st24{fill:#F1EFEE;}
	.st25{fill:#F4F2F1;}
	.st26{fill:#FCFDFE;}
	.st27{fill:#F4F1F0;}
	.st28{fill:#FAFCFC;}
	.st29{fill:#FBFDFD;}
	.st30{fill:#F8FBFB;}
	.st31{fill:#F8FAFB;}
	.st32{fill:#F6F8F9;}
	.st33{fill:#E4E0DE;}
	.st34{fill:#F0EEED;}
	.st35{fill:#F3F4F5;}
	.st36{fill:#ECE9E8;}
	.st37{fill:#E3DEDC;}
	.st38{fill:#EBE8E6;}
	.st39{fill:#DAD3D0;}
	.st40{fill:#D4CDCA;}
	.st41{fill:#C9C0BD;}
	.st42{fill:#E4DFDD;}
	.st43{fill:#EDEEEF;}
	.st44{fill:#EFF3F5;}
	.st45{fill:#F3F6F8;}
	.st46{fill:#DAE5E4;}
	.st47{fill:#DEE4E8;}
	.st48{fill:#F7FAFB;}
	.st49{fill:#F47A20;}
	.st50{fill:#F8FAFA;}
	.st51{fill:#DEE8ED;}
	.st52{fill:#DEE8EC;}
	.st53{fill:#F9FAFB;}
	.st54{fill:#DDE7EC;}
	.st55{fill:#DFE8ED;}
	.st56{fill:#FAFBFB;}
	.st57{fill:#DCE5EA;}
	.st58{fill:#F4F5F6;}
	.st59{fill:#F7F7F8;}
	.st60{fill:#DCE6EB;}
	.st61{fill:#D9E3E8;}
	.st62{fill:#EBF0F2;}
	.st63{fill:#D7E2E7;}
	.st64{fill:#D5E0E5;}
	.st65{fill:#E0E5E9;}
	.st66{fill:#F0F3F4;}
	.st67{fill:#D6E4EA;}
	.st68{fill:#CEDAE0;}
	.st69{fill:#D6E0E6;}
	.st70{fill:#D8E2E6;}
	.st71{fill:#D0DADE;}
	.st72{fill:#429075;}
	.st73{fill:#D1DCE3;}
	.st74{fill:#D6E6EC;}
	.st75{fill:#D7E3E8;}
	.st76{fill:#D9E3E7;}
	.st77{fill:#EFF1F2;}
	.st78{fill:#D9DFE4;}
	.st79{fill:#ACBDC8;}
	.st80{fill:#EDE7E8;}
	.st81{fill:#3E6A6E;}
	.st82{fill:#C8D5DC;}
	.st83{fill:#EDE1E2;}
	.st84{fill:#EAECEE;}
	.st85{fill:#CCD8DF;}
	.st86{fill:#C7D4DA;}
	.st87{fill:#EEEFF0;}
	.st88{fill:#CCCFD2;}
	.st89{fill:#D9B63D;}
	.st90{fill:#438D75;}
	.st91{fill:#597176;}
	.st92{fill:#E7E9EC;}
	.st93{fill:#CCDBE2;}
	.st94{fill:#CBD8DF;}
	.st95{fill:#D2DADF;}
	.st96{fill:#B0C2BF;}
	.st97{fill:#BACBD3;}
	.st98{fill:#C2D0D8;}
	.st99{fill:#C4D2DA;}
	.st100{fill:#CCE2E8;}
	.st101{fill:#BE9E36;}
	.st102{fill:#417479;}
	.st103{fill:#BB4762;}
	.st104{fill:#97ACB9;}
	.st105{fill:#8F9497;}
	.st106{fill:#427578;}
	.st107{fill:#96A5AE;}
	.st108{fill:#D2E0E6;}
	.st109{fill:#C0CFD7;}
	.st110{fill:#BECDD5;}
	.st111{fill:#CDD6DD;}
	.st112{fill:#C5D3DA;}
	.st113{fill:#C4D3DA;}
	.st114{fill:#CAD8DF;}
	.st115{fill:#DAE4E9;}
	.st116{fill:#BDCCD5;}
	.st117{fill:#C1CFD7;}
	.st118{fill:#B3C3CC;}
	.st119{fill:#B7C7D0;}
	.st120{fill:#C7D5DD;}
	.st121{fill:#DDE8EB;}
	.st122{fill:#DAE6EB;}
	.st123{fill:#A3B5C1;}
	.st124{fill:#DDE7EB;}
	.st125{fill:#BBCBD3;}
	.st126{fill:#9DB1BD;}
	.st127{fill:#9BB0BC;}
	.st128{fill:#ACBEC8;}
	.st129{fill:#C6D4DB;}
	.st130{fill:#BFCBD3;}
	.st131{fill:#D6E2E7;}
	.st132{fill:#B2C3CD;}
	.st133{fill:#AABCC7;}
	.st134{fill:#CCD9DF;}
	.st135{fill:#BAC9D2;}
	.st136{fill:#BCCBD3;}
	.st137{fill:#B5C5CF;}
	.st138{fill:#A3B6C1;}
	.st139{fill:#D4E1E6;}
	.st140{fill:#D4DCE2;}
	.st141{fill:#C8D2DA;}
	.st142{fill:#DAE5EA;}
	.st143{fill:#BECBD4;}
	.st144{fill:#AEBDC8;}
	.st145{fill:#9AADBA;}
	.st146{fill:#BACAD2;}
	.st147{fill:#CFE4EA;}
	.st148{fill:#CBE8EF;}
	.st149{fill:#637A80;}
	.st150{fill:#63766F;}
	.st151{fill:#617570;}
	.st152{fill:#427479;}
	.st153{fill:#427778;}
	.st154{fill:#AEBFCA;}
	.st155{fill:#B9C8D1;}
	.st156{fill:#A0B4C0;}
	.st157{fill:#D1DDE3;}
	.st158{fill:#A7B9C5;}
	.st159{fill:#F0F2F4;}
</style>
<g id="XMLID_34_">
	<path id="XMLID_1404_" class="st0" d="M380,249.2c15.2,14.5,28.3,30.6,37.6,49.5c23.7,47.8,22.3,95.4-1.5,142.7
		c-4.8,9.6-10.6,18.7-17,27.3c-1.5,2-1.5,3.3,0.1,5.1c8.1,10.1,18.2,18.1,27.9,26.6c11.7,10.3,23.9,20.2,33.7,32.5
		c3.4,4.2,6.3,8.7,8.1,13.8c2.2,6.3,1.6,12.1-3.1,17.4c-4.4,4.9-9.6,8.6-15.9,10.8c-2.6,0.9-5.2,1.7-7.8,0c-10.5-2-18.5-8.3-26-15.4
		c-12-11.4-21.9-24.6-32.9-37c-5.2-5.9-10.6-11.6-16.8-16.6c-2-1.6-3.3-1.6-5.5-0.1c-19.4,14-40.7,24-64.2,29.2
		c-35.6,7.8-70,3.6-102.9-11.7c-40.2-18.7-70.3-48.1-88.5-88.7c-23.4-52-19.1-102.7,10.7-151.1c18.8-30.6,44.7-53.5,77.4-68.5
		c26.3-12.1,54-16.2,82.8-13.3c17.6,1.8,34.4,6.7,50.8,13.1c2.1,0.4,4.2,0.9,5.6,2.7c2.2,1.1,4.5,2.1,6.7,3.2
		c1.7,0.4,3.5,0.7,4.5,2.4c11.7,6.7,22.6,14.4,32.9,23.1C378.3,246.9,379.1,248.1,380,249.2z"/>
	<path id="XMLID_1403_" class="st1" d="M442.1,574.8c2.6,0,5.2,0,7.8,0C445.5,578.1,444.3,578.1,442.1,574.8z"/>
	<path id="XMLID_1402_" class="st2" d="M343.9,223.2c-1.5-0.8-3-1.6-4.5-2.4C342.1,219.4,343.5,220.3,343.9,223.2z"/>
	<path id="XMLID_1401_" class="st3" d="M332.8,217.6c-1.9-0.8-3.9-1.4-5.6-2.7C329.6,214.6,332,214.4,332.8,217.6z"/>
	<path id="XMLID_1400_" class="st4" d="M380,249.2c-1.3-0.7-2.3-1.7-3.2-2.9C378.7,246.4,379.7,247.4,380,249.2z"/>
	<path id="XMLID_1399_" class="st0" d="M401,487c2,2,4,3.9,6.1,5.9c-0.6,1.4-2.1,2-2.8,3.1c1.4-0.3,2.6-1.6,4.2-1.5
		c6.1,5.4,11.8,11.2,17.3,17.2c-1,2.8-3.2,4.7-5.3,6.9c3.1-1,5.1-3.7,8.3-3.9c2.3,1.7,4.2,3.8,6,5.9c-0.2,1.6-1.7,2.3-2.6,3.5
		c1.3-0.7,2.4-1.9,4.1-1.9c5.8,5.7,11.5,11.4,17.3,17.1c-0.2,0.3-0.4,0.5-0.7,0.7c0.3-0.2,0.5-0.4,0.8-0.6c2.2,2.2,4.4,4.5,6.7,6.7
		c-1.7,2.1-3.3,4.2-5.3,6.2c2.4-0.6,4-3,6.7-2.4c1.5,2.5,0.5,5-0.3,7.2c-2.1,5.3-5.8,9.6-10.4,12.8c-2.1,1.5-4.4-0.1-6.5-1.1
		c0.3-0.7,0.8-1.1,1.5-1.4c-0.9,0.3-1.5,0.7-2.2,1.2c-3-1.9-6.1-3.8-9.1-5.7c1.6-2.5,4.3-4,6-6.7c-2.9,1.7-5.6,3.3-8.3,5
		c-2.2-1.9-4.5-3.9-6.7-5.8c0-0.6,0.7-0.8,0.8-1.3c-0.6,0.1-1.1,0.4-1.7,0.5c-5.9-5.5-11.5-11.4-17-17.4c1-1.6,2.7-2.5,4-3.9
		c-1.6,1.1-3.1,2.3-5,2.6c-2.1-1.8-3.6-4-5.1-6.2c-0.1-3.7,3.5-4.8,5-7.3c-2.8,1.1-5.2,3.2-8.1,4.5c-5.4-6.1-10.9-12.1-16.3-18.2
		c-0.3-1.3,0.7-1.9,1.4-2.8c-1.2,0.1-2.2,1.3-3.6,0.7c-1.5-1.3-2.9-2.6-4.5-3.9c-4.7-3.8-4.8-3.9-0.3-8.1
		c5.1-4.7,10.3-9.3,14.7-14.7c0.9-1.1,2.2-2.4,3.5-0.3c-0.4,1.2,0.2,1,0.9,0.7c1.9,2,3.9,4,5.8,6C400,486.8,400.3,487.1,401,487z"/>
	<path id="XMLID_1398_" class="st5" d="M208,214.6c8.1-3,16.5-4.6,25-5.7c0.2,1.1-0.7,1.5-1.4,2c-11.3,7.5-22.2,15.6-31.8,21.7
		c11.6-7.1,25.3-14.8,39-22.7c1.3-0.8,2.9-0.8,4-1.8c10.2-1.5,20.5-1.7,30.7-0.6c-0.1,2-1.9,2.5-3.1,3.3
		c-7.7,5.2-15.7,9.9-23.2,15.3c-0.3,0.2-0.6,0.5-0.9,0.6c-4,1.4-8.3,1.5-12.5,2.4c-23.9,5.3-45.1,15.8-63.8,31.6
		c-6.5,5.5-12.5,11.5-18,17.9c-0.7,0.8-1.4,1.4-2.4,1.8c-9,4.5-17.5,9.9-26.2,14.8c-2.1,1.2-4,3-6.7,2.9c1.4-4.5,3.5-8.8,6-12.8
		c1.9,0,3.1-1.5,4.6-2.3c1.2-0.9,2.6-1.4,3.8-2.3c0.3-0.2,0.6-0.4,0.9-0.5c-0.4,0.1-0.7,0.4-1,0.6c-1.2,0.9-2.7,1.4-3.8,2.3
		c-1.5,0.5-2.5,2.2-4.4,2.1c2.5-5.7,5.8-11,9.7-15.9c7.8-4.6,14.7-10.4,20.8-13.9c-2.8,1.8-7.3,4.6-12,7.2c-1.4,0.8-2.9,2.2-4.8,0.9
		c17.3-22.6,39.4-38.4,66.5-47.3c0.1,1.2,0.1,1.2-0.7,2.9C203.9,216.4,206.6,216.5,208,214.6z"/>
	<path id="XMLID_1397_" class="st5" d="M282.6,531.3c-5.5,1.1-11,1.6-16.6,1.3c0.1-2,1.9-2.4,3.2-3.3c7.9-5.4,16.1-10.4,24.1-15.7
		c1.4-0.9,2.6-2.4,4.2-2.8c1.3-0.4,0.3-1.3,0.9-1.7c6.4-2.8,13.1-4.7,19.6-7.2c18.3-7.2,34.5-17.4,48.3-31.4
		c3.9-4,7.5-8.4,10.9-12.8c0.9-1.2,1.7-2.5,3.1-3.2c6.4-2.4,11.9-6.5,17.9-9.7c3.4-1.7,6.2-4.5,10.2-5c-1.7,4.8-3.8,9.4-6.5,13.7
		c-5.6,2-10,6-15.1,8.8c-0.4,0.4-1,0.5-1.4,0.9c0.6-0.4,1.1-0.7,1.7-1.2c3.2-1.8,6.3-3.9,9.4-5.8c1.4-0.8,2.7-2.3,4.7-1.4
		c-2.2,4.8-5,9.3-8.3,13.5c-4.2,3.5-9.1,5.9-13.6,9.1c3.2-2.1,6.5-4.2,9.8-6.1c0.6-0.3,1.1-0.5,1.7,0.1
		c-5.3,7.6-11.6,14.2-18.2,20.7c-12,11.7-25.8,20.6-41,27.5c-5.2,2.4-10.4,4.8-16.1,5.9c-1.1-1.8,0.5-2.4,1.5-3.2
		c1.9-1.6,4.2-2.7,6.2-4.2c-4.5,3.3-9.6,5.6-14.2,8.8c-7.4,2.3-15.1,3.3-22.7,4.2c0-1.3,1.1-1.5,1.9-2c7.6-5,15.2-10.1,20.6-13.3
		C301.8,520.3,292.1,525.6,282.6,531.3z"/>
	<path id="XMLID_1396_" class="st5" d="M298.3,509.7c-0.3,2.6-2.6,3.3-4.5,4.3c-9.4,5.4-18.4,11.4-27.9,16.6
		c-1.7,0.9-3.4,1.5-5.1,2.1c-4.6,0.1-9.2,0.6-13.7-0.6c8.7-5.7,17.4-11.4,26.2-17c-0.7-0.6-1.6-0.4-2.1-1.1c-0.1-0.4,0-0.8,0.3-1.1
		c2.4-1.4,5.2-0.6,7.7-1c5.1-0.9,10.1-1.5,15.1-2.6C295.6,509.1,297,508.5,298.3,509.7z"/>
	<path id="XMLID_1395_" class="st5" d="M111.6,312.3c0.7-3.7,2-7.2,3.7-10.5c8.3-6.3,17.3-11.6,26.1-17.1c2.1-1.3,4-3.3,6.8-3.3
		c0.2,0.3,0.4,0.7,0.2,1c-4.2,5.8-7.6,12.2-12.4,17.5c-6.9,3.4-13.4,7.5-20.1,11.2C114.6,311.7,113.4,313.3,111.6,312.3z"/>
	<path id="XMLID_1394_" class="st5" d="M246.5,225.9c0-0.2,0-0.4,0-0.6c6.9-2.3,12.7-6.6,19-10.1c4.2-2.3,8.2-5,12.3-6.8
		c-0.2-0.1-1.4,0.3-1.3-1c4.8,0.1,9.5,0.4,14.2,1.4c0.2,0.9-0.4,1.4-1,1.8c-8.1,5.4-16.3,10.7-24.7,15.8c-4.9,0-9.9-0.4-14.8,0.4
		C248.9,227,247.5,227.1,246.5,225.9z"/>
	<path id="XMLID_1393_" class="st6" d="M296.7,209.6c3.1,0.2,6.1,0.9,9.1,2.1c0,2.1-1.8,2.5-3,3.3c-6.6,4.2-13.1,8.5-19.8,12.5
		c-2,1.2-3.3,3.3-5.7,3.9c-2.2-4.6-2.2-4.6-7.1-2.1c-1.2,0.6-2.4,1.5-3.7,0.3c-0.5-0.9-0.5-1.8-0.1-2.7c1.7-2.2,4.3-3,6.5-4.3
		c6.2-3.7,12.5-7.4,18.8-10.9C293.2,210.8,294.9,210.1,296.7,209.6z"/>
	<path id="XMLID_1392_" class="st5" d="M242,531.9c-4.3-0.4-8.7-0.6-12.9-2.1c7.6-4.5,15-9.4,22.4-14.3c1.6-1,3.2-2,5-2.4
		c4.9,0,9.8-1.2,14.6,0.7l0.2,0.3c0,1.1-0.8,1.5-1.5,1.9C260.5,521.2,251.5,527,242,531.9z"/>
	<path id="XMLID_1391_" class="st6" d="M413.8,424.7c-0.7,3.7-1.9,7.2-3.7,10.5c-1.9,2.3-4.5,3.5-6.9,5.1
		c-5.6,3.8-11.3,7.3-16.9,11.1c-1.2,0.8-2.3,2.1-4,1.2c-0.2-0.3-0.4-0.7-0.2-1c2.8-5,4.9-10.4,8.7-14.8c5.9-3.6,12-6.8,17.9-10.4
		C410.2,425.5,411.7,424.1,413.8,424.7z"/>
	<path id="XMLID_1390_" class="st6" d="M139,475.1c-3.2-3.4-5.8-7.2-8-11.3c4.3-3.1,8.9-5.9,13.5-8.5c4.6,2.8,7.9,6.7,9.8,11.7
		c-4.1,3.2-8.8,5.4-13.2,8C140.5,475.3,139.8,475.5,139,475.1z"/>
	<path id="XMLID_1389_" class="st5" d="M400.3,286.6c2.8,4.3,5,8.8,6.6,13.6c-4.3,3.2-8.8,6.1-13.7,8.5c-3.1-4.1-5.6-8.6-6.7-13.8
		C391.1,292.1,395.9,289.7,400.3,286.6z"/>
	<path id="XMLID_1388_" class="st6" d="M408.5,304c2.3,4.5,3.8,9.3,5.1,14.2c-3.6,1.7-6.9,3.9-10.4,5.9c-1.3,0.7-2.4,1.9-4.1,1
		c-2.3-3.9-3.9-8.1-4.6-12.6C398.4,308.4,403.5,306.2,408.5,304z"/>
	<path id="XMLID_1387_" class="st6" d="M129.4,461c-3-4-5.3-8.4-7.2-13c3.7-3.6,8.5-5.5,12.7-8.4c3.9,3.6,6.5,8.1,8.3,13.1
		C138.7,455.6,133.6,457.6,129.4,461z"/>
	<path id="XMLID_1386_" class="st6" d="M223.3,528.8c-3.4-0.7-6.8-1.2-10-2.7c3.9-4.2,9.2-6.2,13.8-9.4c3-2,6.1-3.7,8.8-6.2
		c4,0.5,8.2,0.2,12,2.2c0.9,1.8-0.6,2.5-1.7,3.1C238.5,520.1,231.2,525,223.3,528.8z"/>
	<path id="XMLID_1385_" class="st6" d="M107.9,325.8c0.5-3.4,1.2-6.7,2.6-9.9c7.4-5.3,15.3-10,23.1-14.9c0.4-0.3,0.9-0.3,1.4,0
		c0.2,0.3,0.4,0.8,0.3,1c-2.6,4.7-3.8,10.1-7.4,14.2c-5.7,2.1-10.5,5.8-15.9,8.6C110.6,325.5,109.5,326.8,107.9,325.8z"/>
	<path id="XMLID_1384_" class="st6" d="M311,213.2c3.2,0.4,6.2,1.5,9.1,3c-3.4,3.6-7.9,5.5-11.9,8.2c-2.9,1.9-5.8,3.7-8.7,5.8
		c-2.6,0.1-5.2-0.4-7.7,0.1c-2-0.8-4.2-0.7-6.3-1.2c-0.4-1,0.2-1.7,0.9-2.2C294.6,222.5,302.3,217,311,213.2z"/>
	<path id="XMLID_1383_" class="st6" d="M209.8,525.1c-2.7-0.6-5.2-1.4-7.6-2.7c-0.2-1.9,1.5-2.4,2.6-3.1c5.9-4.1,12.2-7.5,18-11.7
		c3.7,0.3,7.3,0.7,10.4,2.9c0.3,1.6-0.9,2.3-1.9,2.9c-6.2,3.8-12.5,7.4-18.7,11C211.7,524.9,210.7,524.7,209.8,525.1z"/>
	<path id="XMLID_1382_" class="st6" d="M418.1,408.3c-0.6,3.6-1.2,7.3-2.7,10.7c-5.9,3.9-11.8,7.7-17.7,11.6
		c-1.3,0.8-2.6,2.2-4.3,0.9c0.4-4.7,2.6-8.8,4.7-12.8c5.3-2.8,10.4-5.8,15.6-8.9C415,409,416.3,407.8,418.1,408.3z"/>
	<path id="XMLID_1381_" class="st6" d="M196.9,520.2c-2.9-0.9-5.8-2-8.3-3.9c5-3.5,10.3-6.4,15.4-9.7c1.8-1.1,3.5-2.4,5.2-3.5
		c3.6,0.5,7,1.2,9.8,3.8c-0.1,0.4-0.1,0.8-0.4,1C211.5,512.3,204.6,517,196.9,520.2z"/>
	<path id="XMLID_1380_" class="st6" d="M323,217.2c2.7,0.9,5.4,1.9,7.8,3.4c-0.1,0.6-0.4,1.2-1,1.5c-6.1,3.7-11.8,8.1-18.3,11.2
		c-3.4-0.3-6.9-0.7-9.6-3.1c-0.1-1,0.6-1.6,1.3-2.1C309.7,224.4,316,220.2,323,217.2z"/>
	<path id="XMLID_1379_" class="st6" d="M188,516.1c-2.7-1.1-5.4-2.4-7.7-4.3c6-4.6,13-7.9,19.1-12.3c0.3-0.2,0.7-0.3,1.1-0.3
		c2.9,0.9,6.2,1.3,8.1,4.2c-1,2.2-3.4,2.6-5.2,3.8C198.4,510.4,193.3,513.5,188,516.1z"/>
	<path id="XMLID_1378_" class="st6" d="M420.4,394c-0.4,4.1-0.7,8.2-2.1,12.1c-4.8,3.1-9.7,6.1-14.6,9.1c-1.3,0.8-2.7,2.5-4.6,0.9
		c-0.3-3.9,1-7.5,2.7-10.9C408.3,402.1,414.7,398.8,420.4,394z"/>
	<path id="XMLID_1377_" class="st6" d="M105.5,339.3c-0.1-2.9,0.4-5.6,1.4-8.3c1.6-2.9,4.8-3.8,7.3-5.6c2.8-2,5.8-3.8,8.8-5.6
		c1.1-0.7,2.2-1.8,3.7-0.8c-0.3,4.4-1.7,8.4-4,12.1c-4.6,2.1-8.8,4.9-13.2,7.3C108.2,339.1,107.1,340.3,105.5,339.3z"/>
	<path id="XMLID_1376_" class="st6" d="M179.8,511.6c-2.4-1.2-4.8-2.5-6.8-4.4c0.2-0.9,0.9-1.5,1.7-1.9c5.8-3.4,11.3-7.3,17.2-10.4
		c3,1.1,6.3,1.8,8.2,4.8l-0.3,0.2C193,503.8,186.6,508.1,179.8,511.6z"/>
	<path id="XMLID_1375_" class="st6" d="M335.1,222.7c2.7,0.9,5.2,2.3,7.5,4c-3.1,3.4-7.4,5-11,7.6c-2.1,1.5-4.3,2.9-6.6,4.2
		c-3.4-0.5-6.7-1.3-9.1-4c0-0.7,0.2-1.3,0.8-1.6C322.7,229.2,328.5,225.2,335.1,222.7z"/>
	<path id="XMLID_1374_" class="st7" d="M242.8,207.9c-3.1,3.2-7.3,4.6-11,6.8c-12,7.1-24.1,14-36.1,20.9c-0.2-0.3-0.4-0.6-0.6-0.9
		c12.6-8.7,25.3-17.3,37.9-26C236.2,208.5,239.4,207.6,242.8,207.9z"/>
	<path id="XMLID_1373_" class="st7" d="M223.3,528.8c3.2-3.7,8.1-4.9,11.9-7.7c4.1-2.9,9-4.5,12.8-7.9c2.7-1.7,5.2-1.5,7.5,0.7
		c-7.6,5-15.3,10-22.8,15.1c-1.2,0.8-2.3,0.6-3.5,0.8C227.1,530,225.2,529.1,223.3,528.8z"/>
	<path id="XMLID_1372_" class="st6" d="M170.8,505.7c-2.3-1.1-4.2-2.6-6-4.5c1.9-3.1,5.4-4.1,8.2-6c2.9-2,6-3.9,9.1-5.6
		c3.2,0.5,5.9,1.8,7.6,4.8c-1.5,2.7-4.4,3.5-6.9,4.9C178.9,501.4,175.3,504.4,170.8,505.7z"/>
	<path id="XMLID_1371_" class="st8" d="M311,213.2c-3.8,3.5-8.7,5-12.8,7.9c-4.1,2.9-9.1,4.3-12.7,8c0,1.5-1.2,2.1-2.2,2.6
		c-4,2.1-7.7,4.8-12.1,6.1c-0.8,0-1.5-0.3-1.8-1.1c1.5-3.3,4.6-4.5,7.8-5.5c4.6-5.2,11.1-7.7,16.6-11.6c3.9-2.8,8-5.3,12-7.9
		C307.6,211.9,309.4,212.3,311,213.2z"/>
	<path id="XMLID_1370_" class="st6" d="M421.2,383.5c0.2,2.8,0.2,5.6-0.7,8.3c-4.3,3.9-9.5,6.5-14.4,9.6c-1,0.6-2.3,1.2-3.3-0.2
		c-0.7-3.1,0-6,1.1-8.8c4.4-3.4,9.5-5.8,14.2-8.6C419,383.2,420.1,382.6,421.2,383.5z"/>
	<path id="XMLID_1369_" class="st6" d="M347.7,229.8c2.5,1.1,4.7,2.7,6.7,4.5c-1.4,2.4-4,3.1-6.2,4.5c-3.4,2.2-6.7,4.5-10.4,6.4
		c-3.2-0.6-5.8-2-7.7-4.7c0.9-2,3-2.6,4.7-3.5C339.3,234.6,343.1,231.4,347.7,229.8z"/>
	<path id="XMLID_1368_" class="st6" d="M161,498.2c-2.2-1.4-4.2-3.2-5.9-5.2c4.8-4.3,10.8-6.6,15.8-10.5c0.3-0.2,0.7-0.3,1-0.3
		c2.9,1.3,5.9,2.4,7.1,5.8C173,491.3,167.2,495.1,161,498.2z"/>
	<path id="XMLID_1367_" class="st6" d="M104,351.3c-0.1-3.9,0.4-7.7,1.3-11.5c1.5,1.1,2.7,0.4,4-0.5c3.1-2,6.3-4,9.4-5.9
		c1-0.6,2.1-1.9,3.5-0.5c-0.4,3.6-0.9,7.2-2.6,10.4c-4,2.4-8.1,4.8-12.2,7.1C106.5,351.1,105.4,351.8,104,351.3z"/>
	<path id="XMLID_1366_" class="st6" d="M154.3,492.1c-2-1.4-3.7-3.2-5.2-5.2c0.7-1.8,2.3-2.6,3.8-3.4c4-2.2,7.4-5.5,11.8-7
		c3.2,0.9,5.5,2.7,6.8,5.8l-0.3,0.2C165.5,485.6,160.3,489.7,154.3,492.1z"/>
	<path id="XMLID_1365_" class="st9" d="M421.3,363.9c0.9,5.6,0.8,11.2,0,16.8c-1.6-1.6-1-3.7-1.2-5.6c-1-2-2-0.2-2.8,0.2
		c-4,2.1-7.5,5-11.6,7c-0.4-0.1-0.7-0.4-0.8-0.7c-0.6-3,0.3-5.9,0.7-8.8C410.5,369,415.6,365.8,421.3,363.9z"/>
	<path id="XMLID_1364_" class="st6" d="M356.7,235.9c2,1.1,3.9,2.4,5.4,4.2c0.4,1.1-0.4,1.7-1.1,2.1c-4.7,2.8-9,6.1-14,8.3
		c-3.3-0.5-5.8-2.1-7.7-4.9C344.9,242,350.3,238.1,356.7,235.9z"/>
	<path id="XMLID_1363_" class="st10" d="M421.1,373.7c0.1,2.3,0.1,4.7,0.2,7c0.2,0.2,0.2,0.4-0.1,0.6c-4.6,4.2-10.3,6.8-15.6,9.8
		c-0.6,0.4-1.2,0-1.5-0.7c-0.4-3-0.3-5.8,1.5-8.4c0.2,0,0.4,0,0.6,0C411,378.9,415.5,375.2,421.1,373.7z"/>
	<path id="XMLID_1362_" class="st6" d="M363.5,241.2c2.2,1.4,4,3.2,5.8,5.1c-1.7,2.6-4.6,3.6-7.1,5.1c-2.6,1.6-5.1,3.4-7.8,4.9
		c-3-0.9-5.6-2.4-6.9-5.5C352.5,247,358,244.1,363.5,241.2z"/>
	<path id="XMLID_1361_" class="st10" d="M420.6,353.4c1,2.5,0.7,5.1,0.6,7.6c-3.6,4.4-8.8,6.5-13.7,9.1c-0.7,0.4-1.5,0.1-1.9-0.7
		c-1.3-3.8-1.6-7.7-0.8-11.6c0.2-0.4,0.4-0.6,0.8-0.8c0.8,0,1.1,0.5,1.2,1.1c0.3,2,1.3,1.8,2.5,1c2.4-1.5,5-2.8,7.4-4.3
		C418,354.2,419.1,353.3,420.6,353.4z"/>
	<path id="XMLID_1360_" class="st6" d="M145.2,482.6c-1.9-1.4-3.3-3.3-4.5-5.3c0.4-1.8,2.1-2.3,3.4-3.1c3.6-2.4,7.3-4.4,10.9-6.9
		c3.2,1,5.4,3,6.2,6.3C156,476.9,151,480.4,145.2,482.6z"/>
	<path id="XMLID_1359_" class="st6" d="M103.4,364c-0.1-2.8-0.5-5.6,0.5-8.3c1.9-2.2,4.5-3.4,6.9-5c2.4-1.6,5-2.8,6.9-5
		c0.5-0.5,1.1-1.1,1.8-0.2c0.5,3.6-0.2,7.1-1.4,10.6c-3.9,3.4-8.5,5.6-13,8C104.6,364.5,103.9,364.5,103.4,364z"/>
	<path id="XMLID_1358_" class="st6" d="M371.7,248.6c2,1.4,3.7,3.2,5.1,5.2c-1.9,2.7-5.1,3.8-7.7,5.5c-2.2,1.4-4.4,2.7-6.3,4.4
		c-3.3-1-5.4-3.3-6.9-6.2C360.9,254.1,366,250.8,371.7,248.6z"/>
	<path id="XMLID_1357_" class="st7" d="M347.7,229.8c-5.3,4.3-11.5,7.2-17.4,10.5c-2.3,0.6-3.9-0.4-5.1-2.4
		c5.3-4.5,11.2-8,17.4-11.2C344.5,227.4,346.2,228.6,347.7,229.8z"/>
	<path id="XMLID_1356_" class="st6" d="M406.2,357.2h-0.3l-0.3,0c-2.3-2.2-2.1-5-1.5-7.8c3.7-3.8,8.7-5.6,13.1-8.3
		c0.5-0.3,1.2-0.2,1.7,0.3c1,2.9,1.2,6,1.4,9c-1.2-0.5-2.1-0.2-3.3,0.5C413.4,352.9,410.5,356.2,406.2,357.2z"/>
	<path id="XMLID_1355_" class="st11" d="M242,531.9c3.1-3.7,7.8-5,11.7-7.5c5.7-3.6,11.8-6.9,17.7-10.2c1.2,0,2.5,0,4,0
		c-0.9,1.7-2.4,2.2-3.7,3c-7.1,4.6-14.2,9.1-21.2,13.7c-1.1,0.7-2.2,1.2-3.4,1.3C245.4,532,243.7,531.9,242,531.9z"/>
	<path id="XMLID_1354_" class="st6" d="M378.7,255.9c1.8,1.5,3.4,3.2,4.5,5.2c-2.8,2.8-6.6,4.2-9.8,6.5c-1.3,0.9-2.6,1.8-3.9,2.8
		c-3.3-0.9-5.4-3-6.3-6.3C368.1,260.8,372.8,257.1,378.7,255.9z"/>
	<path id="XMLID_1353_" class="st6" d="M389,268.7c1.8,1.8,3.1,3.9,4.3,6.1c-1.1,2.5-3.7,3-5.7,4.4c-2.5,1.7-5.1,3.4-7.8,4.8
		c-2.9-1.5-4.8-3.8-5.2-7.1C379.6,274.3,384.2,271.3,389,268.7z"/>
	<path id="XMLID_1352_" class="st10" d="M416.8,330.9c1.3,2.9,1.6,6,2,9.1c-4.2,2.5-8.4,5.1-12.6,7.6c-0.7,0.4-1.3,1.2-2.3,0.7
		c-1.3-2.5-1.6-5.1-1.2-7.8c1.7-2.1,4.2-3,6.4-4.3C411.8,334.5,414.5,332.9,416.8,330.9z"/>
	<path id="XMLID_1351_" class="st6" d="M414,319.7c1,2.2,1.7,4.5,1.9,6.8c-4.1,3.9-9,6.4-13.9,9.1c-2-2.4-2.4-5.2-2.2-8.2
		C404,324,408.4,320.8,414,319.7z"/>
	<path id="XMLID_1350_" class="st6" d="M383.8,261.9c1.9,1.7,3.5,3.7,4.7,6c-4,3.8-8.9,6.3-13.8,8.6c-2.8-0.8-4.6-2.5-4.9-5.5
		c0.8-2.2,3-2.8,4.8-3.9C377.6,265.3,380.6,263.4,383.8,261.9z"/>
	<path id="XMLID_1349_" class="st6" d="M395.7,278.6c1.6,1.8,2.6,3.8,3.6,5.9c-1.4,2.6-4.2,3.3-6.4,4.8c-2.2,1.5-4.6,2.9-6.9,4.3
		c-2.7-1.6-3.9-4.1-4.6-7C385.7,283.3,390.4,280.5,395.7,278.6z"/>
	<path id="XMLID_1348_" class="st6" d="M104,379.1c-1-2.7-0.6-5.6-0.6-8.3c4.2-3.7,8.7-7.1,14.1-9c0.9,3.1,0.3,6.2-0.1,9.3
		C113.5,374.8,108.7,376.9,104,379.1z"/>
	<path id="XMLID_1347_" class="st7" d="M393.6,431.5c4.7-1.8,8.3-5.4,12.7-7.8c3-1.7,5.4-4.5,9.1-4.8c-0.2,2-0.7,4-1.6,5.8
		c-7.6,4.2-15.2,8.4-22.8,12.7C390.8,435,391.3,432.8,393.6,431.5z"/>
	<path id="XMLID_1346_" class="st12" d="M145.2,482.6c5-3.6,10.2-6.8,15.8-9.1c2.4,0.1,3.5,1.5,4,3.7c-5.3,3.3-10.6,6.6-15.9,9.8
		C147.8,485.5,146.5,484.1,145.2,482.6z"/>
	<path id="XMLID_1345_" class="st7" d="M196.9,520.2c7-5,14.6-8.9,22.1-13.1c1.5-0.9,2.7-0.4,3.6,1c-3.1,4.1-8,5.5-11.9,8.4
		c-2.8,2-5.9,3.5-8.4,5.9C200.3,522,198.5,521.2,196.9,520.2z"/>
	<path id="XMLID_1344_" class="st13" d="M104.8,388.8c-0.9-2.4-0.9-5-0.7-7.5c4.1-3.4,8.4-6.5,13.5-8.2c1.5,2.7,1,5.5,0.5,8.4
		C114.2,384.7,110.2,388,104.8,388.8z"/>
	<path id="XMLID_1343_" class="st7" d="M161,498.2c0.7-2.4,3.2-2.7,4.9-3.6c4.3-2.3,8-5.9,13-6.8c1.8-0.4,2.8,0.4,3.1,2.2
		c-5.2,4.6-11.5,7.6-17.2,11.3C163.5,500.2,162.3,499.2,161,498.2z"/>
	<path id="XMLID_1342_" class="st10" d="M121.2,445.9c-1.6-2-2.4-4.4-3.1-6.8c3.2-4.2,8-6.1,12.4-8.5c2.6,1.9,3.6,4.6,3.8,7.7
		C130,440.9,125.5,443.2,121.2,445.9z"/>
	<path id="XMLID_1341_" class="st13" d="M106.1,397.8c-0.9-2.4-1.1-5-1.3-7.6c3.2-2.5,6.9-4.2,10.3-6.4c0.8-0.5,1.8-0.9,2.8-0.3
		c1.8,2.3,1.8,5,1.6,7.8c-3.8,2.3-7.8,4.3-11.6,6.5C107.4,398.1,106.7,398.2,106.1,397.8z"/>
	<path id="XMLID_1340_" class="st13" d="M108.4,409.1c-1.3-2.9-1.7-6-2-9.1c3.7-0.5,6.2-3.3,9.3-4.9c1.3-0.6,2.3-2,4-1.2
		c1.5,2.2,1.9,4.6,1.4,7.2C117.6,404.9,112.8,406.7,108.4,409.1z"/>
	<path id="XMLID_1339_" class="st10" d="M110.7,418.1c-1.2-2.4-1.7-5-2.1-7.6c3.2-2.2,6.5-4.2,9.8-6.2c1-0.6,1.9-1.2,3.1-0.7
		c1.8,2.2,2.4,4.7,2.3,7.5C119.5,413.6,115.5,416.6,110.7,418.1z"/>
	<path id="XMLID_1338_" class="st6" d="M116.7,435.4c-1.4-2.1-2.1-4.5-2.8-7c1-2.6,3.6-3.2,5.6-4.5c2.1-1.4,4.1-3.1,6.6-3.9
		c2.3,2,3.3,4.5,3,7.6C125.4,430.9,120.7,432.7,116.7,435.4z"/>
	<path id="XMLID_1337_" class="st13" d="M113.6,427.3c-1.4-2.4-2-5.1-2.7-7.8c4.1-2.7,7.8-6.3,13-7.1c2,1.9,2.7,4.2,2.3,6.8
		C122.3,422.5,117.8,424.6,113.6,427.3z"/>
	<path id="XMLID_1336_" class="st7" d="M296.7,209.6c-9.9,5.9-19.7,11.9-29.9,17.1c-0.5-0.1-0.8-0.4-0.8-0.9
		c1.9-3.1,5.3-4.2,8.1-6.1c5.5-3.7,11.1-7.3,16.7-10.9C292.8,208.6,294.7,209.4,296.7,209.6z"/>
	<path id="XMLID_1335_" class="st11" d="M276.5,207.4c0.6,0.8,1.6,0.5,2.8,1c-9.3,5.3-18.2,10.4-27.1,15.6c-1.8,1-3.7,1.5-5.7,1.3
		c8.6-5.7,17.2-11.4,25.8-17c0.4-0.3,0.8-0.6,1.2-0.9C274.5,207.3,275.5,207.3,276.5,207.4z"/>
	<path id="XMLID_1334_" class="st7" d="M402.4,335.7c0.2-1.9,1.9-2.1,3.1-2.9c3.4-2.3,6.7-4.6,10.4-6.3c0.4,1.4,1.1,2.8,0.9,4.4
		c-0.1,1.2-0.6,2.2-1.7,2.7c-4,2.1-7.6,4.9-11.9,6.4C401.4,338.9,401.3,337.4,402.4,335.7z"/>
	<path id="XMLID_1333_" class="st7" d="M335.1,222.7c-5.4,4.1-11.8,6.8-17.5,10.5c-0.5,0.3-1,0.7-1.4,1.1c-2,0.8-3.4,0.2-4.5-1.6
		c6.3-4,12.7-8.1,19-12.1C332.2,221.3,333.7,222,335.1,222.7z"/>
	<path id="XMLID_1332_" class="st7" d="M116.9,361.5c-3.8,4-8.8,6.4-13.5,9.2c0-2.2,0-4.5,0-6.7c5-2,9-5.7,14-7.5
		C118.8,358.4,119,360.1,116.9,361.5z"/>
	<path id="XMLID_1331_" class="st8" d="M382.2,452.5c7.5-3.9,14.2-9.1,21.4-13.5c2.1-1.3,4.1-2.8,6.5-3.7c-0.1,1.7-1,3-1.7,4.5
		c-8.8,5.2-17.6,10.3-26.4,15.4c-0.5,0.3-0.9,0-1.2-0.5C380.5,453.5,380.6,452.5,382.2,452.5z"/>
	<path id="XMLID_1330_" class="st14" d="M148.1,281.5c-10.1,5.7-19.5,12.4-29.2,18.6c-1.2,0.7-2.2,1.6-3.7,1.7
		c0.2-1.4,0.7-2.6,1.5-3.8c10.5-6.1,21-12.1,31.4-18.2c0.2-0.1,0.6,0.2,0.9,0.3C149.2,280.9,148.9,281.4,148.1,281.5z"/>
	<path id="XMLID_1329_" class="st7" d="M129.4,461c0.1-2.4,2.2-2.7,3.8-3.5c3.2-1.7,6-4.2,9.7-4.9c1.5,0.3,2.3,1.1,1.8,2.7
		c-4,3.7-8.4,6.7-13.6,8.5C130.3,462.9,129.6,462.1,129.4,461z"/>
	<path id="XMLID_1328_" class="st15" d="M406.2,357.2c3.6-3,7.9-5.1,11.6-7.8c1.9-1.4,1.8,0.5,2.5,1c0.1,1,0.1,2,0.2,2.9
		c-4.3,3.2-9,5.6-13.7,8C405.9,359.9,406.5,358.5,406.2,357.2z"/>
	<path id="XMLID_1327_" class="st8" d="M408.5,304c-4,3.6-9.1,5.3-13.4,8.2c-1.6-0.8-2.5-1.9-1.6-3.7c4.1-3.4,8.4-6.4,13.4-8.3
		C407.5,301.5,408,302.7,408.5,304z"/>
	<path id="XMLID_1326_" class="st16" d="M395.7,278.6c-4.4,3.2-9.2,5.6-14,8.1c-1.6-0.3-2-1.4-1.8-2.9c3.7-4.2,8.9-6,13.4-9.1
		C394.1,276.1,394.9,277.3,395.7,278.6z"/>
	<path id="XMLID_1325_" class="st17" d="M403,401.4c4.5-1.1,7.7-4.4,11.6-6.5c1.9-1.1,3.5-2.9,5.8-3.2c0,0.8-0.1,1.5-0.1,2.3
		c-0.8,2.4-2.6,3.7-4.8,4.8c-3.8,1.9-7.3,4.2-11,6.3c-0.8,0.5-1.4,1.2-2.2,0C401.5,403.7,401.2,402.4,403,401.4z"/>
	<path id="XMLID_1324_" class="st7" d="M126.3,319c-6.5,4-13,8-19.4,12c-0.1-1.8,0.5-3.5,0.9-5.2c6-2.6,11.3-6.4,17-9.4
		c0.8-0.4,1.5-1.6,2.4-0.2C128,317.4,127.5,318.3,126.3,319z"/>
	<path id="XMLID_1323_" class="st16" d="M209.8,525.1c6.7-3.9,13.4-7.9,20.1-11.8c1.1-0.7,2.1-1.6,3.2-2.4c0.8-0.5,1.6-0.5,2.2,0.3
		c0.4,0.7,0.5,1.3-0.4,1.9c-7.2,4.3-14.4,8.7-21.6,13.1C212.1,525.8,210.9,525.5,209.8,525.1z"/>
	<path id="XMLID_1322_" class="st11" d="M134.8,301c-7.5,4.8-15,9.7-22.6,14.5c-0.5,0.3-1.2,0.3-1.8,0.4c0.4-1.2,0.7-2.4,1.1-3.7
		c7.1-4,14.1-7.9,21.2-11.9c0.9-0.5,1.6-1.8,2.8-0.7C135.9,300.4,135.9,301,134.8,301z"/>
	<path id="XMLID_1321_" class="st14" d="M282.6,531.3c-0.5-0.4-0.5-0.9,0-1.2c10.2-5.9,20.4-11.7,30.8-17.2
		c-8.9,6.3-17.7,12.7-27.1,18.2C285.1,531.2,283.8,531.3,282.6,531.3z"/>
	<path id="XMLID_1320_" class="st11" d="M116.7,435.4c3.2-4,7.8-5.7,12.3-7.7c1.6,0.5,2.1,1.5,1.4,3c-3.5,3.6-8.3,5.3-12.1,8.3
		C117.3,438,116.8,436.8,116.7,435.4z"/>
	<path id="XMLID_1319_" class="st7" d="M323,217.2c-4.5,3.9-10.2,6-15.1,9.2c-2,1.3-4.1,2.3-6.1,3.5c-0.7,0.4-1.4,0.5-2-0.3
		c1.9-3.2,5.4-4.2,8.3-6c4-2.5,7.7-5.5,12.1-7.3C321,216.5,322,216.9,323,217.2z"/>
	<path id="XMLID_1318_" class="st18" d="M371.7,248.6c-4.9,3.5-10,6.6-15.6,8.9c-1.3,0.4-1.7-0.3-1.6-1.4c4.1-4.5,9.8-6.6,14.8-9.8
		C370.1,247,370.9,247.8,371.7,248.6z"/>
	<path id="XMLID_1317_" class="st14" d="M260.8,532.7c10.1-5.9,20.1-11.8,30.2-17.6c0.8-0.5,1.8-0.7,2.8-1
		c-5.6,4.6-12,7.9-17.9,11.9c-3.3,2.3-6.6,4.5-9.8,6.7C264.3,532.6,262.5,532.7,260.8,532.7z"/>
	<path id="XMLID_1316_" class="st19" d="M118.9,345.2c-3.9,5.1-9.7,7.4-15,10.5c0.1-1.5,0.1-3,0.2-4.5c5.3-2.3,9.7-6.1,15.1-8.2
		C119.7,343.9,119.6,344.6,118.9,345.2z"/>
	<path id="XMLID_1315_" class="st11" d="M170.8,505.7c5.9-4.4,12.6-7.5,18.8-11.2c1.2-0.6,1.8-0.2,2.1,1c-5.9,4.4-12.4,8-18.7,11.8
		C172.2,506.7,171.5,506.2,170.8,505.7z"/>
	<path id="XMLID_1314_" class="st19" d="M136.5,263.5c5.9-1.5,10.4-5.6,15.7-8.2c1.4-0.7,2.8-1.5,4.6-1.7c-2.3,1.6-4.6,3.2-6.9,4.8
		c-5.1,3.5-10.1,7.1-15.2,10.6c-0.6,0.4-1.4,1.3-2.2,0.2C133.4,267.1,135,265.4,136.5,263.5z"/>
	<path id="XMLID_1313_" class="st11" d="M386,293.5c2.9-3.7,7.4-5,11-7.7c0.7-0.5,1.5-0.8,2.3-1.2c0.3,0.7,0.7,1.4,1,2.1
		c-0.1,0.7-0.2,1.6-0.9,1.9c-4.4,1.8-7.7,5.6-12.6,6.4C386.1,294.7,385.7,294.3,386,293.5z"/>
	<path id="XMLID_1312_" class="st16" d="M356.7,235.9c-5.6,3.4-10.9,7.3-17.2,9.6c-0.9,0.4-1.3-0.1-1.5-0.9
		c5.1-4.1,10.8-7.2,16.5-10.4C355.2,234.8,356,235.3,356.7,235.9z"/>
	<path id="XMLID_1311_" class="st14" d="M399.3,416.4c5.8-2.5,10.6-6.6,16.2-9.6c0.9-0.5,1.6-1.7,2.8-0.8c-0.1,0.7-0.1,1.4-0.2,2.2
		c-5.9,3.4-11.9,6.8-17.8,10.2c-0.5,0.3-0.9,1-1.5,0.2C398.1,417.7,398,416.9,399.3,416.4z"/>
	<path id="XMLID_1310_" class="st16" d="M121.2,445.9c3.4-3.9,7.9-6.1,12.8-7.6c0.7,0.3,1.1,0.7,0.8,1.5c-3.5,3.9-8.1,6-12.6,8.3
		C121.8,447.3,121.5,446.6,121.2,445.9z"/>
	<path id="XMLID_1309_" class="st7" d="M119.1,394c-3.2,2.1-6.5,4.1-9.7,6.2c-1.1,0.7-2.1,1.4-3.1-0.1c-0.1-0.7-0.2-1.5-0.3-2.2
		c2.8-1.6,5.5-3.3,8.4-4.8c1.3-0.7,2.5-2.2,4.4-1.2C119.6,392.4,119.7,393.2,119.1,394z"/>
	<path id="XMLID_1308_" class="st11" d="M378.7,255.9c-5.1,2.8-10.1,5.6-15.2,8.3c-0.7,0.2-1-0.1-0.8-0.8c0.3-2.4,2.6-2.8,4.2-3.8
		c3.2-2.1,6.6-3.9,9.9-5.8C377.5,254.5,378.1,255.2,378.7,255.9z"/>
	<path id="XMLID_1307_" class="st11" d="M121.8,332.5c-4.5,2.9-9,5.7-13.4,8.6c-1.8,1.1-3,1.3-3-1.3c-0.2-0.2-0.1-0.4,0.1-0.5
		c5-1.9,9.3-5.1,14-7.6c0.8-0.4,1.4-1.5,2.6-0.7C122.4,331.6,122.4,332.1,121.8,332.5z"/>
	<path id="XMLID_1306_" class="st20" d="M155,467.5c-2.8,3.7-7.4,4.9-10.9,7.7c-1,0.8-2.3,1.4-3.4,2.1c-0.6-0.7-1.1-1.5-1.7-2.2
		c5.2-2.5,9.8-6.3,15.3-8.4C154.9,466.6,155.2,466.8,155,467.5z"/>
	<path id="XMLID_1305_" class="st16" d="M406.3,370c5-3,9.9-6,14.9-9c0,1,0.1,1.9,0.1,2.9c-4.9,3.1-9.6,6.3-15.1,8.4
		C405.6,371.5,405.6,370.7,406.3,370z"/>
	<path id="XMLID_1304_" class="st16" d="M116.8,372.9c-3.4,4-8.3,5.9-12.7,8.4c0-0.7-0.1-1.4-0.1-2.2c3.8-3.3,8.4-5.4,12.8-7.6
		C117.1,371.9,117.2,372.4,116.8,372.9z"/>
	<path id="XMLID_1303_" class="st19" d="M121.2,403.7c-2.9,1.8-5.9,3.6-8.8,5.5c-1.2,0.7-2.3,1.4-3.8,1.3c-0.1-0.5-0.1-0.9-0.2-1.4
		c3.3-3.7,8.1-5.1,12.2-7.7C122.1,401.9,121.9,402.8,121.2,403.7z"/>
	<path id="XMLID_1302_" class="st18" d="M414,319.7c-4.6,2.5-9.2,5.1-13.7,7.6c-1-0.5-1.4-1.2-0.7-2.2c3.5-1.4,6.4-3.7,9.7-5.5
		c1.3-0.7,2.5-2.2,4.4-1.3C413.7,318.7,413.8,319.2,414,319.7z"/>
	<path id="XMLID_1301_" class="st21" d="M154.3,492.1c5.3-3.8,10.6-7.6,17-9.5c-4.7,4.5-10.5,7.3-16.2,10.3
		C154.8,492.7,154.6,492.4,154.3,492.1z"/>
	<path id="XMLID_1300_" class="st22" d="M188,516.1c3.7-4,9.1-5.4,13.4-8.4c2.2-1.5,4.6-2.9,6.9-4.3c0.3-0.2,0.5-0.1,0.7,0.2
		c-0.9,2.3-3.3,2.8-5.1,4c-4.1,2.6-8.2,5.1-12.2,7.7c-1,0.6-2,1-3.1,1C188.3,516.4,188.2,516.3,188,516.1z"/>
	<path id="XMLID_1299_" class="st23" d="M309,526.9c-0.5-0.3-0.8-0.8-0.2-1.2c5.4-3.2,10.9-6.3,16.8-8.8c-2.3,1.6-4.8,3.2-7,5
		c-1.2,1-3,1.5-3.1,3.5C313.4,526.2,311.3,526.8,309,526.9z"/>
	<path id="XMLID_1298_" class="st24" d="M428.7,514.8c-3,2.4-6.4,4.1-10.1,5.6c1.9-3.2,4.3-6,7.1-8.6
		C426.7,512.8,427.7,513.8,428.7,514.8z"/>
	<path id="XMLID_1297_" class="st25" d="M398.5,526.8c2.5-3.7,7-4.3,10.6-6.4c-2.5,3.1-5,6.1-7.4,9.2
		C400.2,529.1,399.7,527.7,398.5,526.8z"/>
	<path id="XMLID_1296_" class="st26" d="M383.8,261.9c-2.1,3.3-5.9,3.9-8.8,6c-1.6,1.1-3.6,1.8-4.8,3.4c-0.5-0.1-0.8-0.3-0.7-0.8
		c0.1-1.3,0.8-2,1.9-2.5c4.1-2.1,7.4-5.4,11.9-6.7C383.4,261.4,383.6,261.6,383.8,261.9z"/>
	<path id="XMLID_1295_" class="st27" d="M432.4,561.3c0-2.3,2.2-2.3,3.5-3.2c2.1-1.4,4.4-2.6,6.8-3.5c-2.6,3-4.1,6.8-8.1,8.3
		C433.9,562.4,433.2,561.8,432.4,561.3z"/>
	<path id="XMLID_1294_" class="st28" d="M179.8,511.6c3.4-3.6,8-5.2,12.1-7.7c2.5-1.5,4.7-3.6,7.8-4c-6,4.8-12.4,8.7-19.4,11.9
		C180.1,511.9,179.9,511.8,179.8,511.6z"/>
	<path id="XMLID_1293_" class="st29" d="M363.5,241.2c-3.4,3.7-8.3,5-12.2,7.8c-1.1,0.8-2.4,1.2-3.6,1.8c-0.4,0-0.6-0.2-0.8-0.5
		c3.7-3,7.9-5.3,12-7.8c1.1-0.7,2.1-1.6,3.2-2.4C362.5,240.5,363,240.8,363.5,241.2z"/>
	<path id="XMLID_1292_" class="st29" d="M374.6,276.6c4.2-3.6,9-6.1,13.9-8.7c0.2,0.3,0.4,0.5,0.6,0.8c-4,4-8.8,6.7-14.2,8.3
		C374.8,276.8,374.7,276.7,374.6,276.6z"/>
	<path id="XMLID_1291_" class="st29" d="M123.6,412.7c-3.1,1.8-6.2,3.6-9.3,5.4c-1.1,0.6-2,1.6-3.3,1.4c-0.1-0.5-0.1-0.9-0.2-1.4
		c4-2.6,7.8-5.6,12.6-6.8C123.9,411.7,123.9,412.2,123.6,412.7z"/>
	<path id="XMLID_1290_" class="st25" d="M461.7,550c-2.8,1.5-5.5,3-8.3,4.5c-0.2-0.2-0.4-0.4-0.6-0.7c2.4-2.7,4.1-5.9,7.5-7.7
		C460.8,547.4,461.9,548.4,461.7,550z"/>
	<path id="XMLID_1289_" class="st28" d="M404.7,348.4c4.3-3.5,8.6-7.1,14.2-8.4c0,0.5,0.1,1,0.1,1.5c-4.4,1.5-8,4.7-12.2,6.7
		c-0.7,0.3-1.3,0.6-2,0.9l-0.2-0.3L404.7,348.4z"/>
	<path id="XMLID_1288_" class="st14" d="M113.6,427.3c0.2-2,2.1-2.3,3.4-3c2.9-1.6,5.4-3.9,8.7-4.7c0.1,0.2,0.1,0.3,0.2,0.5
		c-2.1,3.3-6,4.3-8.9,6.5c-1,0.8-2.1,1.3-3.1,2C113.8,428.1,113.7,427.7,113.6,427.3z"/>
	<path id="XMLID_1287_" class="st30" d="M404.8,391c5.5-3.3,10.9-6.5,16.4-9.8c0,0.7-0.1,1.5-0.1,2.2c-5.9,2.2-10.9,6.1-16.4,9
		C404.3,392,404.4,391.5,404.8,391z"/>
	<path id="XMLID_1286_" class="st31" d="M386.7,462.2c4-3.7,8.8-6.2,13.3-9.2c0.7-0.5,1.4-0.4,1.8,0.4c-0.1,0.5-0.1,1.1-0.7,1.4
		C396,456.5,392.1,460.7,386.7,462.2L386.7,462.2z"/>
	<path id="XMLID_1285_" class="st32" d="M390.8,471.4c-4.4,2.4-8.7,4.8-13.1,7.3c4.9-3.7,9.4-7.9,15.2-10.3
		C392.2,469.3,391.5,470.3,390.8,471.4z"/>
	<path id="XMLID_1284_" class="st22" d="M117.5,383.5c-3.1,1.8-6.2,3.6-9.3,5.4c-1.1,0.6-2,1.5-3.3,1.3c0-0.5,0-1-0.1-1.5
		c4.5-1.8,8.1-5.2,12.7-6.8C117.9,382.5,117.9,383,117.5,383.5z"/>
	<path id="XMLID_1283_" class="st33" d="M408.4,494.5c-1.9,1.5-4,2.6-6.3,3.3c1.2-2.2,2.4-4.2,4.9-5
		C407.5,493.4,408,494,408.4,494.5z"/>
	<path id="XMLID_1282_" class="st34" d="M406.8,535.8c2-2.2,4.8-3.1,7.4-4.3c-2,2-3.1,5.1-6.4,5.7
		C407.5,536.7,407.1,536.3,406.8,535.8z"/>
	<path id="XMLID_1281_" class="st35" d="M208,214.6c0.1,0.3,0.4,0.8,0.4,0.8c-2.5,1.5-5.1,3-8,4.7c0.3-2.2,2.7-2.2,2.5-4
		C204.5,215.3,206.2,214.8,208,214.6z"/>
	<path id="XMLID_1280_" class="st36" d="M436.3,522.3c-1.9,1.8-4.1,2.9-6.6,3.6c1.4-2,2.8-4.1,5.1-5.2
		C435.3,521.2,435.8,521.7,436.3,522.3z"/>
	<path id="XMLID_1279_" class="st37" d="M380.1,506.5c1.9-0.6,3.3-2.4,6.2-2.6c-1.7,2-2.9,3.3-4.1,4.7
		C381.2,508.3,380.4,507.6,380.1,506.5z"/>
	<path id="XMLID_1278_" class="st38" d="M443.9,568.7c0.3-2.3,2.3-2.3,3.9-2.7c-0.7,1.5-1.4,2.9-3.3,2.9
		C444.3,568.7,444.1,568.7,443.9,568.7z"/>
	<path id="XMLID_1277_" class="st39" d="M424.8,554.6c0.6-1.3,1.8-1.7,3.4-2.1c0.1,2-1.2,2.4-2.5,2.9
		C425.4,555.1,425.1,554.8,424.8,554.6z"/>
	<path id="XMLID_1276_" class="st40" d="M394.4,480.2c-0.2,1.7-1.6,1.8-2.9,2.3c-0.2-1.9,1.1-2.3,2-3
		C393.8,479.7,394.1,480,394.4,480.2z"/>
	<path id="XMLID_1275_" class="st41" d="M401,487c-0.6,0.8-1.4,1.3-2.8,1.4c0.4-1.2,1.1-1.8,2.1-2.2
		C400.5,486.5,400.7,486.7,401,487z"/>
	<path id="XMLID_1274_" class="st42" d="M453.6,539.4c-0.1,1.8-1.6,1.7-2.7,2.1C451.4,540.2,452,539.1,453.6,539.4
		C453.6,539.4,453.6,539.4,453.6,539.4z"/>
	<path id="XMLID_1273_" class="st0" d="M117.5,383.5c0-0.5,0-1,0-1.5c0-3.1,0.2-6.1-0.7-9.1c0-0.5,0-0.9-0.1-1.4
		c0.3-3.3,0.5-6.6,0.1-10c0.5-1.6,0.7-3.3,0.5-5c0.5-3.8,1-7.5,1.5-11.3c0.1-0.7,0.2-1.5,0.3-2.2c0.9-3.5,1.8-7,2.7-10.6
		c0.1-0.5,0.1-1,0.2-1.4c1.4-4,2.9-8,4.3-12.1c0.3-1,0.6-1.9,1-2.9c2.5-5,5-10.1,7.5-15.1c0.3-0.5,0.5-0.9,0.8-1.4
		c4.2-6.1,8.3-12.1,12.5-18.2c0.3-0.4,0.7-0.9,1-1.3c9.2-10.4,19-20.1,30.3-28.1c20.2-14.3,42.5-23,67.1-26.1
		c5.1-0.2,10.1-0.5,15.2-0.7c1.5-0.1,3-0.1,4.3,0.7c0.3,0.3,0.5,0.6,0.8,0.9c0,1-0.1,2-0.1,3.1c-0.3,2.9-2.6,3-4.7,3.2
		c-2.3,0.2-4.7-0.2-7,0.5c-0.6,0.2-1.2,0.3-1.9,0.3c-5.3,0.2-10.6,1.2-15.9,1.9c-1.2,0.2-2.3,0.4-3.4,0.8
		c-8.3,1.9-16.5,4.4-24.2,8.3c-12.8,5.1-24,12.7-34.5,21.4c-8.8,7.4-16.5,15.9-23,25.4c-1.5,2.2-3.4,3.9-4.6,6.3
		c-2.4,4.3-4.8,8.5-6.9,12.9c-0.6,0.9-1.2,1.7-1.6,2.7c-1.3,3.7-2.8,7.4-4.2,11.1c-0.8,2.3-1.5,4.5-2.4,6.8
		c-0.8,3.1-1.5,6.2-2.1,9.4c-0.3,1.1-0.6,2.3-0.9,3.4c-0.4,3.4-0.8,6.8-1.1,10.2c0,2.1-0.8,4-0.7,6.1c0,2.4,0,4.9,0,7.3
		c-0.2,1.3,0.3,2.7-0.9,4c3-2.1,4.7-5.3,7.1-7.7c6.5-6,13.5-10.6,22.9-10c3.5,0.2,6.6,1.1,9.5,2.9c0.6,0.4,1.2,0.8,1.8,1.3
		c2.6,2,5.4,3.7,7.6,6.2c0.7,0.8,1.2,1.7,1.8,2.4c3.2,3.3,3.6,3.3,6.8,0.2c1.2-1.2,2.5-2.4,4-3.3c0.9-0.7,1.7-1.5,2.5-2.4
		c1.7-2.4,3.9-4.4,5.7-6.7c1-1.1,2-2.3,2.8-3.6c5.3-5,9.6-10.8,14.5-16.1c9.4-10.2,18.9-20.3,32.7-24.8c1.8-0.4,3.5-0.2,5.3-0.3
		c1.6,0,3.2,0,4.7,0.3c4.6,1.2,8.7,3.3,12.1,6.7c2.4,1.5,3.9,3.8,5.6,5.9c1.5,1.7,2.8,1.7,4.4,0.2c4.3-4.3,8.6-8.6,13.1-13.1
		c-1.2-1.2-2.8-1.4-3.9-2.2c-0.8-0.5-1.4-1.1-2-1.8c-1.9-2.7-3.3-5.7-3.7-9c0-0.4,0-0.7,0-1.1c-0.4-5.2,0.3-10.1,3.4-14.4
		c1.2-1.8,3-3.1,5-4c0.6-0.2,1.2-0.3,1.8-0.4c5.9-0.1,11.7-1.3,17.6-0.9c1.5,0.1,3,0.1,4.4-0.4c1.1-0.2,2.2-0.3,3.3-0.3
		c4.7,0,9.4-0.1,14.1-0.1c2.5,0.1,5,0.7,7.4,1.1c3.2,0.8,6.4,1.8,9.2,3.7c0.7,0.5,1.3,1,1.6,1.7c0.3,0.6,0.4,1.2,0.5,1.8
		c0.6,2.8,0.9,5.6,0.8,8.5c0.1,1.7,0.6,3.3,0.7,5c-0.1,5.2,1.3,10.3,0.8,15.5c0,1.8-0.5,3.6-0.3,5.5c-0.2,3.4-0.5,6.8-1.2,10.1
		c-0.2,1.2-0.7,2.3-0.9,3.4c-2.9,8.2-8.7,11.7-18.3,10.9c-0.9-0.1-1.7-0.4-2.6-0.2c-0.4,0.1-0.8,0.1-1.1,0
		c-3.9-0.6-7.7-1.3-10.6-4.3c-1.4-1.2-2.5-0.4-3.7,0.3c-2.7,1.6-4.9,3.8-6.9,6.2c-7,6.9-14.1,13.7-23,18.2c-1.6,0.8-3,1.8-4.7,2.2
		c-2,0.1-4,0.8-6,0.9c-8.4,0.1-14.7-4.1-20-10.1c-0.7-0.8-1.4-1.8-2-2.7c-2.3-3-2.7-2.9-5.6-0.6c-4.8,3.9-8.8,8.4-12.9,13
		c-9.6,10.8-18.9,21.9-29.1,32.2c-5.5,4.4-11.1,8.8-17.8,11.3c-1.1,0.4-2.1,0.7-3.2,1c-7.9,1.5-14.9-0.3-20.9-5.7
		c-1.2-0.8-2.2-1.8-3.3-2.8c-2.1-1.7-3.2-4.2-5.2-5.9c-1.5,0.1-2,1.4-2.9,2.3c-4.6,4.1-8.8,8.6-13.2,12.9c-1.1,1-2.2,2.1-1.7,3.8
		c0.4,1.7,1.3,3.2,1.8,4.8c1.5,4.3,3.7,8.3,5.6,12.4c0.5,1.1,1,2.1,1.5,3.2c0.3,0.6,0.6,1.2,0.9,1.7c1.2,1.9,2.3,3.9,3.6,5.8
		c0.6,1.2,1.3,2.3,2.1,3.3c1.3,1.8,2.6,3.6,3.7,5.6c0.7,0.9,1.6,1.7,2.3,2.6c1.3,2,3,3.6,4.3,5.6c0.5,0.7,1,1.3,1.6,1.8
		c0.6,0.6,1.2,1.1,1.8,1.7c0.6,0.4,0.9,1.2,2,1.2c0.3-2,0.1-4,0-6.1c-0.3-3.9-0.2-7.7,0.9-11.4c0.5-1.7,1.3-3.2,1.8-4.9
		c4.8-9.5,12.7-13.2,23-12.7c1,0,2,0,3,0c3.9,0.4,7.7,1.3,11.4,2.9c0.9,0.3,1.7,0.8,2.6,1.2c3.7,1.4,4.5,4.9,5.8,7.9
		c0.6,1.3,0.8,2.6,1,4c1.1,3.2,1.4,6.5,1.4,9.9c0,1.5,0,3,0,4.5c0.1,3.3,0.1,6.7,0,10c0,0.7,0,1.3,0.1,2c-0.6,5.5-0.8,11-0.9,16.5
		c-0.4,9.2-0.3,9.4,8.4,11.9c6,1.7,6.1,1.7,6.1-4.4c0-5.5,0.1-11-0.1-16.5c0-6-0.1-12,0-18c-0.1-3.5-0.1-6.9,0-10.4
		c-0.1-1.4,0-2.7,0-4.1c-0.1-3.9,0-7.7,0-11.6c-0.1-1.1,0-2.3,0-3.4c-0.1-3.9-0.1-7.7,0-11.6c0-0.5,0-0.9,0-1.4
		c-0.1-4.1,0-8.2,0-12.3c0-3.5-0.1-7.1,0.1-10.6c1-8.8,7.3-12.5,14.7-15.1c1.9-0.3,3.8-0.1,5.6-0.4c3-0.9,6.1-0.6,9.1-0.6
		c1.6,0.1,3.1,0,4.7,0.2c6.5,1.7,11,5.5,13.3,11.9c2.6,7.1,3.9,14.5,4.1,22c0.5,19-0.4,37.9-2,56.9c-0.7,7.9-1.4,15.9-1,23.9
		c0.1,1.9,0.4,3.7,0.5,5.6c0.3,3.1,1.9,4.1,4.8,3.5c1.6-0.3,3.2-0.3,4.8-0.6c2.4-0.7,5.8,0.1,5.7-4.1c1-8.8,0.8-17.7,0.1-26.5
		c-0.6-8.6-1-17.2-1.7-25.8c-1.1-13-1-25.9-0.7-38.9c0.2-10.1,1.2-20.2,5.7-29.6c1.2-2.1,2.6-4,4-6c2.2-2.5,5.1-4.1,8.3-4.9
		c1.4-0.4,2.8-0.2,4.2-0.5c4.3-1,8.6-0.7,12.9,0.1c0.4,0,0.8,0,1.2,0c4.3,0.7,8.5,1.6,11.7,5c0.8,0.9,1.4,2,2,3
		c1.8,3.2,1.8,6.8,1.7,10.3c0.1,1.2-0.1,2.5,0,3.7c0,29.2,0,58.4,0,88.3c3.1-1.8,5.3-3.8,7.4-5.8c7.7-7.3,15-15,20.8-24
		c2.9-4.5,5.8-9.1,8.6-13.6c0.5-0.9,0.9-1.8,1.3-2.7c6.3-12.7,10.6-26.1,12.8-40.1c0.3-1.7,0.3-3.5,0.4-5.2c0-0.6,0.1-1.2,0.2-1.8
		c0.5-5.3,1.3-10.5,1.2-15.8c0-0.8,0-1.7,0-2.5c-0.1-2.4-0.9-4.8-0.7-7.3c0-1.6,0.1-3.2-0.4-4.7c-0.2-0.8-0.3-1.6-0.3-2.3
		c-0.4-2.7-0.6-5.4-1.1-8c-0.5-1.6-1-3.3-1.2-4.9c-0.5-2.3-1.1-4.6-1.9-6.8c-0.1-0.3-0.2-0.7-0.3-1c-0.2-1.4-0.7-2.7-1.2-4
		c-0.6-2-1.3-3.9-2.2-5.8c-0.4-1.1-0.7-2.3-1.2-3.4c-1.3-2.4-2.2-5-3.3-7.5c-0.5-0.9-1-1.8-1.5-2.6c-1-1.9-1.8-3.9-3-5.7
		c-0.8-1.3-1.7-2.5-2.5-3.8c-2.2-4.2-5.3-7.7-7.8-11.6c-0.7-0.9-1.5-1.7-2.3-2.6c-0.4-0.5-0.8-1-1.2-1.6c-1.4-2-3.3-3.5-4.8-5.4
		c-0.3-0.3-0.6-0.7-0.9-1.1c-0.5-0.6-1-1.2-1.6-1.7c-1.9-1.2-3.4-2.7-4.9-4.3c-1.3-1.3-2.5-2.6-3.9-3.8c-2-1.4-3.8-3.2-5.8-4.5
		c-1.2-1.1-2.6-1.9-3.9-3c-1.8-1.4-3.8-2.6-5.7-3.8c-1.1-0.8-2.1-1.5-3.3-2.2c-2.4-1.1-4.6-2.7-7.1-3.7c-1.3-0.7-2.7-1.4-4-2
		c-0.8-0.4-1.5-0.7-2.3-1c-2.4-0.9-4.7-2.2-7.2-3c-1.8-0.9-3.6-1.5-5.5-2c-3-0.8-6-1.8-8.9-2.7c-1.5-0.3-2.9-0.7-4.3-1.2
		c-0.9-0.4-1.5-1.2-1.9-2.2c-0.4-2-0.3-3.6,2.1-4.3c2.7-1.9,5.5-0.8,8.2-0.4c0.7,0.1,1.3,0.2,2,0.3c3.3,1.2,6.6,2.2,10,2.8
		c1.5,0.5,3,1.1,4.5,1.6c3,1.2,6,2.4,9,3.6c1.7,0.8,3.4,1.6,5.1,2.4c2.6,1.4,5.1,2.9,7.7,4.3c0.5,0.3,1,0.6,1.5,0.9
		c2.4,1.6,4.9,3.2,7.3,4.8c0.3,0.2,0.5,0.4,0.8,0.5c2.3,1.7,4.6,3.5,6.8,5.2c0.5,0.5,1.1,0.9,1.6,1.4c2.2,2,4.4,4,6.6,6
		c0.3,0.3,0.5,0.5,0.8,0.8c1.7,2.3,3.7,4.3,5.9,6.2c0.2,0.3,0.5,0.6,0.7,0.8c1.2,2,2.7,3.8,4.5,5.3c0,0.2,0,0.4,0.3,0.4
		c1.7,2.3,3.4,4.6,5.1,6.9c0.6,1,1.2,1.9,1.8,2.9c1.4,2.3,2.8,4.5,4.3,6.8c0.3,0.5,0.5,1,0.8,1.5c2.2,4.5,4.5,9,6.7,13.5
		c0.5,1.2,1,2.5,1.6,3.7c1.5,4.3,3,8.5,4.5,12.8c-0.1,0.9,0.1,1.6,0.7,2.2c0.6,2.9,1,5.7,2.2,8.5c0,1.5,0.1,3,0.9,4.3
		c0.5,2.8,0.9,5.6,1.4,8.4c-0.1,0.2-0.1,0.4,0.1,0.6c-0.2,2.8,0.3,5.5,0.8,8.3c-0.2,4.3,0.3,8.5,0.7,12.8c0,0.7,0,1.5-0.1,2.2
		c-0.2,3.2-0.4,6.5-0.6,9.7c-0.3,3-0.5,6-0.8,9c0,0.5-0.1,1-0.1,1.5c-0.6,3-1.2,6-1.7,8.9c-1,1.1-0.4,2.5-0.6,3.7
		c-1,3.8-2.1,7.5-3.1,11.3c-0.7,0.6-0.6,1.4-0.6,2.2c-1.7,4.3-3.4,8.6-5.1,12.9c-0.9,2-1.8,3.9-2.7,5.9c-2.9,5-5.8,10.1-8.7,15.1
		c-0.5,0.7-1,1.5-1.5,2.2c-12.1,16.5-26.7,30.1-44.8,39.9c-12,6.4-24.6,11.3-37.6,15.1c-8.9,2.1-18,3.4-27.1,4.2
		c-5.2,0-10.4,0.1-15.6,0.1c-2.5-0.6-5-0.8-7.5-0.7c-4.3-0.7-8.5-1.4-12.8-2.1c-0.7-0.1-1.5-0.2-2.2-0.3c-3.5-0.9-7-1.8-10.6-2.7
		c-1.2-0.3-2.4-0.7-3.6-1c-3.3-1.2-6.6-2.4-9.9-3.5c-0.2-0.1-0.5-0.1-0.7-0.2c-2.6-1.6-5.4-2.6-8.3-3.7c-2.8-1.4-5.5-2.8-8.3-4.3
		c-0.7-0.3-1.4-0.7-2.1-1c-2.4-1.8-4.8-3.4-7.6-4.5c-1-0.7-2.1-1.4-3.1-2.2c-2.5-1.8-4.9-3.6-7.4-5.3c-2-1.9-4.1-3.9-6.6-5.3
		c-1.3-1.2-2.6-2.4-4-3.7c-2-2-4-4-6-6c-0.2-0.2-0.5-0.5-0.7-0.7c-3.2-3.8-6.4-7.7-9.7-11.5c-0.6-0.9-1.2-1.8-1.8-2.7
		c-2.7-4.3-5.4-8.5-8.1-12.8c-0.3-0.5-0.5-1-0.8-1.5c-1-2.6-2.1-5.2-3.7-7.5c-0.5-1-0.9-2-1.4-3c-0.6-2.7-1.7-5.3-3-7.7
		c0.1-0.2,0-0.4-0.2-0.5c-0.1-2.4-1.3-4.6-2.2-6.8c-0.1-0.5-0.2-1-0.2-1.5c-0.7-2.5-1.4-5-2.1-7.5c0.1-0.8,0-1.6-0.6-2.3
		c-0.1-2.6-0.6-5.1-1.5-7.5c-0.1-0.7-0.2-1.5-0.3-2.2C118.7,389,118.6,386.1,117.5,383.5z"/>
	<path id="XMLID_1272_" class="st43" d="M240.6,219.2c6.1-4.6,12-9.6,19-12.5c0.2,0.4,0.5,0.8,0.7,1.2
		C253.7,211.7,247.1,215.4,240.6,219.2z"/>
	<path id="XMLID_1271_" class="st32" d="M127.3,283c-1.3,1.3-2.2,3.2-4.5,2.2c0,0,0,0,0,0C124.2,284.4,125.4,283.1,127.3,283
		L127.3,283z"/>
	<path id="XMLID_1270_" class="st44" d="M131,280.7c0.6-1.4,1.8-1.7,3.7-2.3C133.5,280.2,132.3,280.6,131,280.7L131,280.7z"/>
	<path id="XMLID_1269_" class="st45" d="M131,280.8c-0.8,1.5-2.2,2-3.7,2.3c0,0,0,0,0,0C128,281.5,129.5,281,131,280.8
		C131,280.7,131,280.8,131,280.8z"/>
	<path id="XMLID_1268_" class="st31" d="M386.8,462.3c-0.6,1.3-1.8,1.7-3.7,2.3C384.3,462.8,385.4,462.4,386.8,462.3
		C386.7,462.2,386.8,462.3,386.8,462.3z"/>
	<path id="XMLID_1267_" class="st46" d="M134,324.2c1.3-3.8,2.6-7.6,4.5-11.1c1.8-1.8,4.2-2.8,6.3-4.3c0.3-0.2,0.6-0.3,0.9-0.5
		c-0.5,0.1-0.9,0.4-1.3,0.6c-1.5,0.5-2.5,2.7-4.6,1.7c1.7-4.8,4.6-8.9,6.9-13.4c6.7-4.8,13.4-9.6,20.4-13.9c0.8-0.4,1.4-0.9,2.1-1.4
		c-0.8,0.5-1.6,1.1-2.5,1.5c-3.9,2.6-8,4.9-12.1,7.3c-1,0.6-2.1,1.4-3.4,0.7c4.8-8.1,11.2-14.9,18-21.3c11-10.4,23.3-18.9,37.1-25.2
		c0.9-0.4,1.9-0.6,2.8-0.9c0.2,1-0.3,1.7-1,2.2c-6.9,5.3-13.2,11.2-20.3,16.1c-0.3,0.2-0.5,0.4-0.8,0.6c0.5-0.1,0.8-0.5,1.2-0.7
		c14.2-8.8,28.8-16.8,43.2-25.2c0.8-0.4,1.7-0.5,2.4-0.9c0.9-0.6,2-0.6,2.9-1.1c5.4-1.5,11-2.1,16.6-2.3c-0.8,2.9-3.8,3.4-5.6,5.2
		c-9.3,5.9-18.1,12.8-27.6,18.3c-0.3,0.2-0.6,0.4-1,0.5c0.6,0,0.9-0.5,1.4-0.6c12.6-7.9,25.7-14.9,38.3-22.5c0.7,0,0.2-0.8,0.3-0.3
		c0,0-0.1,0.1-0.4,0.1c-0.6,0.1-1.2,0.1-1.9,0c-0.8-0.1-1.5-0.3-1.9-1c2.1-1,4.4-0.7,6.6-0.6c2.2,0.1,3.9-0.5,5.2-2.2
		c1.8-0.1,3.1-1.4,4.6-2.2c1.5-0.8,3-1.9,4.8-0.7c1.6,1.1,1.4,2.7,1.2,4.3c-2.5,1.7-5,3.4-7.5,5.2c-1.7,3-5.1,3.8-7.8,5.7
		c-1.3,0.8-2.4,1.7-3.8,2.4c-0.7,0.4-1.4,0.9-2,1.4c-0.7,0.2-1.2,0.7-2,1.3c0.7-0.5,1.2-1,1.8-1.2c0.9-0.4,1.6-1.2,2.5-1.5
		c1.3-0.8,2.5-1.6,3.8-2.4c3.1-1.5,5.7-3.9,9.1-4.6c4.6-2.9,9.7-5,14.2-8.2c2.2-1.1,4.3-1.3,6,0.8c-1,1.2-1.8,2.5-1.5,4.2
		c-0.3,1.5-1.6,2.2-2.7,2.9c-4.2,2.8-8.4,5.8-12.8,8.3c-14.8,9.5-29.1,19.8-44,29c-0.4,0.4-1.1,0.5-1.4,1c0.6-0.5,1.3-0.7,1.9-1.1
		c21.4-13,43.1-25.4,65-37.6c3,1,6,2,9,2.9c0.3,1.2-0.6,1.5-1.3,2c-15.1,9.7-29.9,19.8-45.3,29c-1.3,0.8-2.5,1.7-3.9,2.4
		c-0.7,0.4-1.4,0.9-2.1,1.4c-0.5,0.1-0.8,0.4-1.3,0.6c0.4,0,0.7-0.5,1.1-0.5c0.9-0.4,1.6-1.2,2.6-1.5c1.3-0.8,2.6-1.7,3.9-2.5
		c15.3-9,30.7-17.8,46-26.7c1.7-1,3.4-2.2,5.5-2c2.8,0.3,5.1,1.8,7.6,3c-0.2,1.4-1.4,2-2.4,2.7c-7.5,4.9-15.1,9.7-22.6,14.7
		c-14.1,8.6-27.6,18.2-41.8,26.5c-0.9,0.5-1.7,1.1-2.5,1.6c-0.7,0.4-1.3,0.8-1.9,1.3c-0.1,0.1-0.3,0.1-0.5,0.1
		c0.2,0.1,0.3,0.1,0.5,0c0.7-0.5,1.4-1,2.2-1.5c0.8-0.7,1.7-1.1,2.6-1.6c21.8-13.2,44-25.5,65.9-38.3c1.9-1.1,3.7-3.1,6.4-2.5
		c2.8,0.7,5,2.5,7.6,3.8c-11.4,7.7-23.2,14.7-34.7,22.2c-2.2,1.4-4.3,3.1-6.8,3.9c-4.5,3.3-9.2,6.2-14.1,8.9c-0.8,0.4-1.6,1-2.3,1.5
		c-0.2,0-0.3,0.1-0.2,0.3c0.1-0.2,0.2-0.3,0.5-0.4c0.7-0.6,1.6-1.1,2.4-1.5c2.5-1.2,4.6-2.9,7.1-4.2c1-0.5,1.8-1.4,3.1-0.7
		c-3,4.4-3.4,9.3-3.5,14.4c-3,0-4.6,2.6-7.1,3.6c-1.5,1.1-3.5,1.6-4.8,3.2c-0.3,0.2-0.5,0.4-0.8,0.5c-0.9,0.4-1.7,0.9-2.5,1.6
		c-3.3,2.5-6.5,5.2-10.7,6.1c-1.7-0.1-3.5-0.1-5.2-0.2c-2.1-1.2-4-0.9-5.9,0.4c-15.8,5.9-26,18.5-36.9,30.5c-3,3.3-5.1,7.5-9.3,9.7
		c-2.1,2.4-4.9,3.8-7.6,5.3c-4.2,2.4-8.5,4.8-12.6,7.3c-1.3,0.7-2.5,1.9-4.1,1c-2.5-2-5-4-7.5-6c3.7-3.2,8-5.4,12.1-8
		c2-1.3,4-2.5,6.1-3.7c1.4-0.7,2.5-1.7,3.9-2.3c0.9-0.4,1.6-1.2,2.6-1.5c0.3-0.3,0.9-0.3,0.8-0.9c-0.1,0.4-0.4,0.5-0.7,0.8
		c-1.1,0.4-2,1.2-3,1.7c-1.3,0.8-2.5,1.7-3.9,2.3c-5.4,3.4-10.8,6.8-16.5,9.7c-0.9,0.5-1.8,0.8-2.8,0.9c-8.3-5.3-20.1-3.2-26.9,2.6
		c-1.7,1.4-3.4,2.9-5.1,4.3c-2.8,0.8-4.4,4.1-7.8,3.8c0-2.8,0-5.6,0-8.4c1.8-2,4.2-3.2,6.4-4.6c18.4-11.9,36.6-23.9,55.2-35.4
		c1.1-0.6,2.2-1.3,3.2-2.1c0.3,0,0.4-0.1,0.2-0.4c-0.1,0.2-0.3,0.3-0.5,0.5c-1,0.9-2.2,1.4-3.3,2.1c-17.1,10.5-34.7,20.3-52.1,30.4
		c-2.6,1.5-5,3.9-8.4,3.7c0.3-3.5,0.3-7,1.3-10.4c2.1-0.1,3.7-1.4,5.4-2.4c13-8.4,25.9-17,39.2-25c1.1-0.7,2.4-1.2,3.5-2.1
		c0,0,0.1-0.1,0.1-0.1s-0.2,0.1-0.3,0.2c-1.1,0.9-2.5,1.3-3.6,2.1c-13.1,8.1-26.6,15.6-39.9,23.4c-1,0.6-2.1,1.4-3.5,0.8
		c0.3-3.3,1.2-6.6,2.3-9.7c0.9-0.9,1.7-1.8,2.8-2.5c15.6-10.4,31.1-21,47-30.9c0.8-0.6,1.8-1,2.6-1.8c-0.9,0.7-2,1.2-3,1.9
		c-14.5,8.8-29.4,17-44,25.6C136.2,324,135.3,324.8,134,324.2z"/>
	<path id="XMLID_1266_" class="st47" d="M271.4,237.3c-2.8,2.1-5.9,3.7-9,5.3c-0.9,0.3-1-0.1-0.9-0.8c2.7-1.8,5.5-3.6,8.2-5.4
		C270,237.1,270.7,237.2,271.4,237.3z"/>
	<path id="XMLID_1265_" class="st48" d="M421.1,373.7c-5,2.8-9.9,5.5-14.9,8.3c3.7-4.5,9.3-6.2,13.9-9.4
		C420.8,372.1,421.1,373,421.1,373.7z"/>
	<path id="XMLID_1264_" class="st46" d="M384.6,309.3c1.1,2.5,2.3,5,3.4,7.5c-5.7,4.6-12.2,8.1-18.4,12c-12,7.5-23.9,15.3-36.1,22.5
		c-1.1,0.6-2.1,1.3-3.3,1.8c-0.9,0.5-1.8,1.1-2.9,2.1c1.3-1,2.3-1.7,3.4-2.2c16.8-10.1,33.9-19.9,51-29.7c2.3-1.3,4.3-3.5,7.3-2.9
		c1.5,1.7,1.9,3.9,2.3,6c-0.6,1.7-2.2,2.3-3.5,3.2c-18.6,11.9-37.3,23.7-56,35.6c-1,0.7-2.3,1.1-2.8,2.4c-4.5-0.3-9-1.1-13.5-0.1
		c-1.5-0.1-3-0.6-4.5,0.3c-2.8,1-5.1,2.8-7.6,4.4c-1.5,1.5-3.3,2.8-3.1,5.3c-2.9,6.9-4.6,14.1-5.3,21.6c-1.5,16.3-0.6,32.6,0.3,48.9
		c0.8,13.5,2.1,27,2.1,40.6c0,3.7-0.1,7.5-0.9,11.2c-1.3,2.3-3.9,2.6-6,3.7c-2.8,1.2-5.8,0.9-8.7,1.5c-1.8,0.3-2.3-0.9-2.5-2.5
		c-1-6.7-0.9-13.4-0.5-20.1c0.5-9.1,1.4-18.1,2-27.2c0.9-13.3,1.2-26.7,0.8-40c-0.2-9.5-1.5-18.9-6.1-27.4c-2.1-4-6.1-6-10.4-7.3
		c-1.6-0.9-3.1-0.7-4.7-0.1c-2.9,0.3-5.8-0.3-8.6,0.5c-2.1-1.2-4.2-0.6-6.3,0.2c-0.7,0.5-1.4,1.2-2.1,1.4
		c-6.2,1.8-9.9,5.9-11.3,12.1c-5.1,4.5-11.4,7.2-17.3,10.5c-1.1,0.3-2,0.9-2.8,1.7c-0.8,0.6-1.5,1.1-2.4,1.5
		c-1.5,0.1-2.6,1.1-3.8,1.8c-1.4,0.6-2.6,1.5-3.9,2.3c-16.7,9.6-33.3,19.3-50.1,28.9c-1.2,0.7-2.2,1.7-3.8,1.2c-1.2-2-2.5-4-3.7-6
		c3.7-3.6,8.4-5.8,12.7-8.5c22.4-14,44.3-28.7,67-42.2c0.8-0.4,1.5-0.9,2.1-1.5c-0.8,0.6-1.6,1.1-2.5,1.6c-5.8,3.5-11.6,7-17.5,10.3
		c-1,0.6-2.1,1.4-3.4,0.6c4.3-4.7,8.6-9.3,12.8-14c7.5-8.4,14.8-16.8,22.3-25.1c2.5-2.8,5.5-5.1,8.2-7.6c1.9-1.8,3.2-1.4,4.7,0.8
		c3.7,5.6,8.4,10.1,14.9,12.5c2.3,0.8,4.6,1.1,7,1.2c2.4,1.3,4.4-0.3,6.5-0.8c10.4-4.9,18.9-12.4,27.1-20.3
		c3.5-2.7,7.1-5.4,11.4-6.8c2.7,3.1,6.7,3.4,10.3,4.5c0.5,1.3-0.8,1.3-1.4,1.8c-0.8,0.4-1.7,0.8-2.4,1.5c0.6-0.5,1.3-1,2.1-1.3
		c0.8-0.7,2.3-0.6,2.4-2.2c3-0.4,6-0.3,9-0.6c6.3-0.7,9.8-4.1,11.3-9.9c3.9-4,9.1-6,13.8-8.8C370.3,317.7,377.6,313.8,384.6,309.3z"
		/>
	<path id="XMLID_1263_" class="st46" d="M398.6,367.5c0.4,5.7,0,11.2-1.2,16.8c-0.5,0.4-1.2,0.7-0.2,1.3c0.2,7.4-1.9,14.5-3.8,21.5
		c-2.3,8.5-5.2,16.8-9.7,24.4c-1.8,1.7-4.1,2.8-6.2,4.1c-0.7,0.4-1.4,0.9-2.1,1.4c-0.5,0.1-0.9,0.4-1.3,0.7c0.4-0.2,0.7-0.5,1.1-0.6
		c0.9-0.4,1.6-1.2,2.6-1.6c1.7-0.7,2.8-2.8,5-2c-9.4,17.9-22,33.1-38,45.4c-0.8-0.1-0.8-0.6-0.8-1.1c0-29.7,0.1-59.5,0.1-89.2
		c1.6-2.7,4.5-3.5,6.9-4.9c14.4-8.3,28.7-16.7,43.1-24.8c1.1-0.6,2.2-1.8,3.7-1c0.2,2.5,0.4,5.1,0.7,7.6c-4.8,4-10.5,6.8-15.9,10
		c-1.3,0.8-2.5,1.7-3.8,2.4c-1.3,0.6-2.3,1.5-3.5,2.1c0.1,0-0.6,0.1,0,0.1c0.1,0,0.2-0.1,0.3-0.1c1.2-0.8,2.3-1.6,3.6-2.2
		c1.3-0.8,2.6-1.6,3.8-2.4c4-2.1,7.8-4.6,11.8-6.8C396,367.9,397,366.9,398.6,367.5z"/>
	<path id="XMLID_1262_" class="st49" d="M193.8,369.8c0.8-0.7,1.6-1.4,2.4-2.1c2.3-1.4,4.8-2.6,6.6-4.7c0.4-0.3,0.9-0.4,1.5-0.5
		c1.4-0.1,2.6-0.5,3.8-1.2c1.4-0.7,2.6-1.6,4-2.4c16.7-9.7,33.5-19.2,50.1-29c1.2-0.7,2.3-1.5,3.8-1c1.5,1.6,3.1,3.2,4.5,4.8
		c1,1.2,2.1,1.6,3.6,1.3c0.6,1.7,1.5,1.1,2.6,0.4c12.3-7.4,24.9-14.2,37.1-21.7c5.9-3.6,11.7-7.5,17.9-10.7c2.3-0.2,3.9-1.8,5.9-2.7
		c1.1-0.5,2-1.6,3.3-0.8c0,0.8,0,1.5-0.1,2.3c-0.5,0.9-0.3,2-0.2,2.9c0.4,2.9-0.4,5.1-3.5,6.1c1.3-0.3,2.2-2,3.8-0.7
		c0.2,3.5,0.4,7.1,0.7,10.6c-0.5,0.7-0.5,1.7-1.1,2.3c-0.2,0.1-0.3,0.3-0.5,0.4c0.2,0,0.4,0,0.6-0.2c0.4-0.1,0.8,0,1,0.3
		c0,1.2,0.2,2.5,0,3.7c-0.6,3-0.4,6.8-4.3,7.3c-4.3,0.5-9.3,2-12.1-3.4c-0.7-3.2,2.8-4.1,3.6-6.2c-1.3,0.6-2.4,2-4.2,0.9
		c-0.3-1.6,1.1-3.7-1-4.7c-2.3-1.2-4.5-0.2-6.3,1c-3.8,2.6-7.1,5.9-10.2,9.3c-5.7,6.3-11.2,12.7-17.1,18.8c-3.4,3.5-7.1,6.7-12.4,7
		c0.7-3,3.6-4,5.1-5.6c-3.5,1.6-6.4,5.6-11.3,5.1c-2.2-0.6-4.1-1.8-5.9-3.3c0.6-3.4,4.1-3.7,6.1-5.7c1.2-1.2,2.9-1.7,4.3-2.7
		c0.3,0,0.3-0.1,0.2-0.3c-0.1,0.2-0.3,0.3-0.5,0.4c-3.1,1.8-6,3.9-9.1,5.5c-1.1,0.5-2,1.5-3.4,0.7c-2-1.8-4.1-3.5-5.2-6.1
		c0.1-1.1-1-1-1.6-1.5c-1.4-2.8-3.4-2.9-6.1-1.9c-6.2,2.3-11.4,6.1-16.2,10.5c-11.2,10-20.4,21.9-30.4,33c-4,4.5-8.4,8.6-12.6,12.8
		c-4.3,4.3-9,5.9-14.8,4c-1.9-1.4-0.4-2.4,0.5-3.2c1.9-1.7,4.1-3.2,6-4.4c-3.2,1.7-6.2,4.6-10.2,5.4c-2.5-0.7-3.8-2.6-5.4-4.5
		c-0.1-2.4,2.4-2.2,3.4-3.5c0.8-0.4,1.4-1,2.2-1.4c-0.8,0.3-1.5,1-2.3,1.4c-1.4,0.8-2.6,2.3-4.6,1.8c-1.4-1.8-2.7-3.6-4.2-5.3
		c-3.7-4.3-6.5-4.8-11.4-1.7c-6.3,4-11,9.7-16,15.1c-0.7,0.8-1.1,2-2.6,2.2c-1.9-6.7-2.9-13.5-3.9-20.4c-0.2-1.3,0.7-2.1,1.4-2.9
		c5.6-6.2,11.5-12.2,17.8-17.7c1.5-1.3,3.2-2.3,5.3-2.5c2.9-0.3,2.1,1.3,1.2,2.6c-1.1,1.7-2.9,3-4.2,4.6c-0.5,0.7-1.3,1.1-1.9,1.5
		c4.3-1.6,7.6-5.3,12.4-6.3c4.2,3.1,7.3,7.2,10.5,11.2c-1.1,2.2,1.5,0.5,1.5,1.5c2.4,3.1,5.3,3.2,8.8,1.8c3.6-1.4,6.8-3.4,10-5.5
		C191.4,371.3,192.7,370.7,193.8,369.8z"/>
	<path id="XMLID_1261_" class="st49" d="M334.7,442.7c0,3.1,0,6.3,0,9.4c-0.2,2.6-2.6,3.4-4.2,5c1.4-0.2,2.5-1.8,4.1-0.9
		c0,3.4,0.3,6.8-0.3,10.2c-0.7,2.8-3.6,3.6-5.2,5.7c1.8-0.4,3.1-2.4,5.2-1.7c0.2,4.6,0.3,9.2,0.5,13.8c0,1.1-0.2,1.9-1.2,2.5
		c-8.7,5.4-17.8,9.8-27.7,12.8c0-5.3,0-10.4,0-15.5c1-2.8,3.6-4.3,5.4-6.3c-1.6,1-3.1,2.6-5.4,2c0-3.3,0-6.5,0-9.8
		c0.4-2,2.4-2.6,3.6-4.1c-1.4-0.1-2.3,1.5-3.6,0.8c0-6.9,0-13.8-0.1-20.7c0.2-0.7,1.1-1.4,0-2c-0.3-6.2-0.4-12.3,0-18.5
		c1-1.6,2.1-3,3.7-4.4c-1.4,0.5-2.4,1.7-3.8,1c-0.4-5.9-0.3-11.8,0-17.7c0.8-1.4,1.8-2.6,3.1-3.6c0,0,0.1-0.1,0.1-0.1
		s-0.2,0.1-0.2,0.1c-0.9,0.5-1.7,1.3-2.8,0.7c0-7.3-0.1-14.7,0.1-22c0.1-3.9,4.6-7.9,8.6-8c3.2-0.1,0.4,1.5,0.5,2.2
		c0.2,0.5,0.4,0.9,0.3,1.5c0,0.3-0.1,0.6-0.3,0.9c-0.1,0.2-0.2,0.3-0.4,0.4c0.4,0.3,0.4-0.2,0.7-0.3c0.8-0.5,1.6-1.1,2.4-1.6
		c2.2-0.8,3.9-2.8,6.6-2.6c2.8,0.6,5.3,1.7,7,4.1c-0.7,1.5-0.4,2.3,1.4,2c2.4,2.4,1.9,5.5,1.9,8.5c-0.5,1.6-1.5,2.7-2.9,3.6
		c-0.5,0.1,0.2,0.7-0.1,0.3c-0.1-0.1,0-0.1,0.2-0.2c0.9-0.3,1.8-0.8,2.8-0.2c0,5.8,0.1,11.7,0.1,17.5c-0.9,1.9-2.4,3.3-4,4.6
		c1.3-0.6,2.3-2,4-1c0,6,0,12.1-0.1,18.1c0.6,0.8-2.3,1.5,0,2.3c0,3-0.1,6.1-0.1,9.1c-0.2,0.5-0.4,1-0.7,1.4
		c-0.2,0.1-0.3,0.3-0.1,0.5c0.4,0.3-0.3,0,0.3,0C334.3,442.5,334.5,442.5,334.7,442.7z"/>
	<path id="XMLID_1260_" class="st49" d="M265.2,388.7c2,2.1,3.1,4.7,3.7,7.5c-0.6,0.8-0.1,1.3,0.6,1.5c2.6,8.3,2.2,17,3,25.5
		c-0.3,2.5-2.5,3.3-4,4.8c1.2-0.7,2.2-1.9,3.8-1c0.4,3.2,0.2,6.4-0.3,9.6c-1.3,3.4-4.6,4.7-6.9,7c-0.2,0.1-0.3,0.3-0.2,0.5
		c0.1-0.2,0.2-0.4,0.4-0.5c2.2-1.1,3.9-3.1,6.6-2.9c0,3.5,0.6,6.9-0.6,10.3c-2,3.4-5.1,5.9-7.7,8.3c2.4-0.9,4.2-3.9,7.6-3.2
		c-0.6,7-0.5,14-1.7,21.1c-0.7,3.7,0.2,8,0.1,12c-0.1,0.6-0.8,1.1,0,1.7c0.5,4.4-0.3,9,0.8,13.4c0.4,1.6-0.4,2.3-2,2.2
		c-1.5-0.1-3-0.1-4.5-0.1c-0.7-1.6,0.5-2.8,1-4.3c-3.1,1.6-5.9,3.7-9.4,4.3c-3.5-0.9-7.3-0.2-10.7-1.4c0.3-3.2,3.5-4.1,4.9-6.5
		c-2.7,0.7-4.7,3.9-8.1,3.1c0-3.1-0.6-6.3,0.4-9.4c0.6-0.4,0.7-1.2,1.2-1.7c0.1-0.1,0.2-0.1,0.2-0.1c-0.2-0.2-0.3-0.2-0.5,0
		c-0.4,0.1-0.8,0-1.1-0.3c-0.2-3-0.6-6,0.3-9c-0.4-3.3-0.3-6.7-0.3-10c0.6-4,4.4-5.4,6.3-8.1c-1.9,0.7-3.5,3.2-6.3,2.4
		c0-3.1,0-6.2,0-9.2c0.4-3.2,3.7-4,5.3-6.2c0.2-0.2,0.3-0.3,0.5-0.4c-0.3,0.1-0.5,0.3-0.8,0.5c-1.6,0.7-2.8,2.7-4.9,1.7
		c0-3.2-0.1-6.3-0.1-9.5c-0.2-1.1,2.9-1.9,0.4-3.3c-0.6-8.7-0.1-17.4-0.3-26.1c0.7-4.8-0.4-9.6-0.1-14.4c-0.7-3.1,0-6.1,1.1-9.1
		c0.7-1.9,2-3.4,3.7-4.5c3.6-2.1,13.4-1.1,16.8,1.6c0.2,1.5-1.1,2.1-1.8,3.2C262.8,389.5,263.7,388.1,265.2,388.7z"/>
	<path id="XMLID_1259_" class="st49" d="M177.7,462.9c-0.3-6.2-0.6-12.3,0.3-18.5c0.9-5.9,3.1-7.7,9.2-7.5c0.7,1.5-0.6,2.5-1.1,3.8
		c2.7-1.4,5.2-3.1,8.1-3.8c3.1-0.2,5.8,0.9,8,3c0,0.9,0.8,1,1.3,1.5c1.8,1.9,2.7,4.3,3,6.8c-0.9,2-2.4,3.4-4.1,4.5
		c1.1-0.3,2.1-1.9,3.6-0.9c2.1,0.2,1.2,1.9,1.3,2.9c0.5,7.2-0.3,14.5-1,21.7c-0.5,5.7-0.6,11.4-0.2,17.7c-4.4-2.4-8.8-3.8-12.4-6.9
		c-0.5-1.2,0.4-1.9,0.9-2.8c-0.1-0.3,1-1,0.1-0.8c-1.6,0.3-2.9,1.9-4.8,1.4c-4.2-1.9-7.6-5-11.3-7.8c-1.4-1.1-1.2-2.6-1.2-4.1
		c0-2.4,0.1-4.7,0.1-7.1c0.5-1.6,1.6-2.7,2.9-3.6C179.7,462.5,178.8,463.5,177.7,462.9z"/>
	<path id="XMLID_1258_" class="st49" d="M204.5,363.3c-0.5,0-1,0-1.6,0c-1,0.8-2,1.9-3.5,0.8c7.7-9.9,15.6-19.7,25.2-27.9
		c2.8-2.4,4.8-5.4,7.4-7.9c2.3-2.4,4.6-5,7-7.3c5.9-5.5,12.2-5.8,18.6-0.4c0.1,2.7-2.5,2.8-3.9,4c-0.2,0.1-0.3,0.2-0.5,0.2
		c0.5,0.1,0.7-0.3,1.1-0.4c1.8-1,3.3-2.8,5.7-1.8c1.3,1.3,2.6,2.6,3.9,3.8c0.1,2.1-1.6,2.7-3,3.4c-11.9,6.8-23.7,13.8-35.6,20.5
		c-4.5,2.6-8.7,5.8-13.4,8.2c-1.5,0.8-2.8,1.8-4.2,2.7C206.7,362,205.5,362.5,204.5,363.3z"/>
	<path id="XMLID_1257_" class="st49" d="M301.1,312.2c1.3-2.2,2.7-4.4,4-6.6c0.4-0.7,0.9-1.6,0.3-2.4c-0.7-1-1.7-0.8-2.7-0.5
		c-3.3,0.9-6.3,0.7-8.5-2.4c0.3-1.1,0.2-2.1-1.2-2.4c-1.5-4.4-0.8-8.9,0.1-13.2c0.7-3.3,3.3-1.7,5.3-1.1c0.4,0.7-0.2,1.5,0.2,2.4
		c2-0.5,3.5-2.4,5.6-2.3c5.3-1.5,10.7-0.5,16.1-0.4c0,2.2-2.4,2.2-3.2,3.6c2.5-1.4,4.9-3.2,7.8-3.7c8-2.2,13.6-0.2,16,5.9
		c0.1,2.1-1.6,2.7-3,3.4c-11.2,6.5-22.4,13-33.6,19.4C303.5,312.4,302.4,313.2,301.1,312.2z"/>
	<path id="XMLID_1256_" class="st46" d="M209.7,408.3c0.5-1.1,1.3-1.6,2.5-1.7c0.7-0.7,1.6-1.2,2-2.1c5.8-2.2,10.7-6,16.1-8.9
		c0.6-0.3,1.3-0.6,2-0.9c-0.1,3.8-0.1,7.5-0.2,11.3c-1.4,2.9-4.4,3.6-6.9,5.1c-0.9,0.3-1.7,0.8-2.5,1.3c-1.1,0.6-2.1,1.2-3,2.1
		c-0.3,0.2-0.5,0.3-0.8,0.4c-1.1,0.4-2.1,0.8-3,1.4c-1.3,0.7-2.5,1.6-3.8,2.3c-6.5,3.8-13,7.4-19.5,11.2
		c-10.1-0.6-17.4,3.7-22.5,12.2c-1.9,2.7-5,3.6-7.6,5.2c-2.6,1.6-5.2,3.3-8.1,4.4c-1.3-2-2.5-3.9-3.8-5.9c0.4-1.7,1.8-2.3,3-3.1
		c16.3-10.1,32.3-20.6,48.9-30.3c1.1-0.8,2.2-1.6,3.4-2.2C207.2,409.8,208.2,408.5,209.7,408.3z"/>
	<path id="XMLID_1255_" class="st46" d="M392.8,331.1c0.7,2.3,1.4,4.6,2.1,6.8c-0.5,1.1-1.4,1.7-2.3,2.3
		c-16.2,10.3-32.3,20.7-48.5,31.1c-0.9,0.6-1.8,1.4-3.1,1c-3.2-3-7.2-4-11.3-4.7c1.1-2.5,3.7-3.2,5.7-4.4
		c16.2-9.4,32.5-18.7,48.7-28.3C386.8,333.3,389.4,331.2,392.8,331.1z"/>
	<path id="XMLID_1254_" class="st46" d="M161.8,403.1c6,5.5,13.1,7.1,21,5.9c0.3,1.5-1.1,1.8-2,2.3c-11.5,6.8-23.1,13.4-34.7,20
		c-1.1,0.6-2.2,1.8-3.8,1.1c-2-4.3-4-8.5-6.1-12.8C144.5,413.6,153.3,408.5,161.8,403.1z"/>
	<path id="XMLID_1253_" class="st46" d="M395.9,343.1c0.4,2.7,0.9,5.5,1.3,8.2c-0.6,1-1.4,1.8-2.4,2.4c-6.3,3.6-12,8.1-18.3,11.7
		c-9.2,5.9-18.4,11.7-27.5,17.8c-1.5,1-3,2.3-5,1.9c-0.1-3.6-0.1-7.1-1.6-10.5c0.5-1.2,1.7-1.8,2.7-2.4
		c16.3-9.3,32.5-18.7,48.6-28.2C394.5,343.6,395.2,343.2,395.9,343.1z"/>
	<path id="XMLID_1252_" class="st46" d="M301.1,312.2c3.7-0.9,6.6-3.3,9.8-5.2c8.7-5,17.4-10,26.1-15c1.5-0.9,3.2-1.3,4.1-3.1
		c0.9,3,1.1,6,0,9c-1.2,0.9-2.5,1.6-3.7,2.5c-1.8,0.9-3.4,2.1-5.3,2.7c-10.6,6.5-21.3,13-32,19.4c-7.9,4.7-15.9,9.3-23.9,13.8
		c-0.9,0.5-1.8,1.4-3.1,1c-0.3-1.1,0.7-1.8,0.9-2.7c6.6-2.6,11.7-7.4,16.8-12C294.5,319.5,297.7,315.8,301.1,312.2z"/>
	<path id="XMLID_1251_" class="st46" d="M369.6,285.3c2.9,3.9,5.8,7.7,8.1,11.9c-1.7,2.3-4.3,3.3-6.6,4.8
		c-5.1,3.3-10.3,6.7-15.5,9.9c-1.2,0.7-2.4,2-4.1,1.3c-0.3-5.6-0.6-11.1-0.9-16.7c3.5-3.6,8.1-5.3,12.3-7.8
		C365.1,287.5,367,285.7,369.6,285.3z"/>
	<path id="XMLID_1250_" class="st46" d="M224.5,410.6c2.5-1.5,5.1-3.1,7.6-4.6c0,4.2,0,8.5,0,12.7c-7.3,5-15.3,8.8-22.8,13.5
		c-0.8,0.5-1.7,0.2-2.5,0.6c-3.7-1.4-7.5-2.5-11.4-3c0.1-1.8,1.7-2.3,2.9-3.1c4.6-2.9,9.3-5.6,13.9-8.5c1.4-0.7,2.5-1.7,3.9-2.3
		c0.8-0.5,1.7-0.9,2.4-1.7c0.4-0.1,0.8-0.1,1.1-0.2c0.8-0.7,1.7-1.4,2.7-1.8C223.1,411.9,223.9,411.3,224.5,410.6z"/>
	<path id="XMLID_1249_" class="st46" d="M310.2,276.9c-6.2,0.3-12.4,0.5-18.6,0.8c-0.4-1.3,0.8-1.4,1.4-1.8
		c12.4-6.9,24.6-14.2,36.9-21.2c1.3-0.7,2.4-1.9,4.1-1.1c2.4,0.7,4.2,2.4,6.1,3.8c-0.2,1.1-1.1,1.6-1.9,2.2
		c-8.9,5.5-17.5,11.5-26.6,16.7C311.2,276.5,310.7,276.6,310.2,276.9z"/>
	<path id="XMLID_1248_" class="st46" d="M215.6,488.3c0-5.7,0.2-11.4,0.9-17.1c0.6-1,1.5-1.6,2.5-2.1c1.2-0.7,2-1.8,3.2-2.6
		c0.3-0.2,0.6-0.3,0.9-0.4c1.1-0.3,1.7-1.3,2.5-2c2.2-1.1,4-3,6.6-3.2c0,6.2,0,12.5,0,18.7c-4.5,4.2-10.1,6.6-15.3,9.7
		C216.3,489.6,215.3,489.6,215.6,488.3z"/>
	<path id="XMLID_1247_" class="st50" d="M395.9,343.1c-0.2,0.7-0.6,1.3-1.3,1.7c-17.4,9.9-34.7,19.9-52.1,29.8
		c-0.5-0.8-1-1.5-1.6-2.3c17.3-11.1,34.6-22.3,51.9-33.4c0.6-0.4,1.3-0.7,2-1C395.2,339.6,395.6,341.4,395.9,343.1z"/>
	<path id="XMLID_1246_" class="st46" d="M215.6,488.3c3.6-0.3,5.9-3.1,8.9-4.5c2.6-1.3,4.9-3.2,7.7-4.2c0,6.8,0,13.7,0.1,20.5
		c0,2.2-0.6,2.9-2.7,2.1c-1.9-0.7-3.8-1-5.7-1.6C215.2,497.9,215.2,497.9,215.6,488.3z"/>
	<path id="XMLID_1245_" class="st46" d="M350.1,328c0.4-3.5,0.9-7,1.3-10.4c4.6-3.8,10.1-6.4,15.2-9.4c4.4-2.5,8.6-5.6,13.5-7.3
		c1.2,1.9,2.4,3.9,3,6.1c0,1.6-1.2,2.1-2.3,2.7c-9.1,5.7-18.2,11.4-27.3,17.1C352.5,327.6,351.5,328.5,350.1,328z"/>
	<path id="XMLID_1244_" class="st46" d="M256.9,310.8c3.4-2.3,6.9-4.5,10.3-6.8c1.1,0,1.6-0.8,2.3-1.4c0.4-0.1,0.7-0.1,1.1-0.2
		c1.5-1.5,3.5-2.2,5.2-3.4c2.3-0.8,3.8-3.4,6.6-2.8c1.1,3.1,1.9,6.3,3.9,9c-2.4,3.1-6.1,4.6-9.3,6.7c-1.3,0.8-2.5,1.6-3.8,2.5
		c-1.4,1-3.2,1.6-4.1,3.2c-0.3,0.1-0.6,0.1-0.9-0.1C265,314.3,261,312.5,256.9,310.8z"/>
	<path id="XMLID_1243_" class="st10" d="M344.1,385.1c10.7-6.8,21.4-13.6,32.1-20.4c3.3-0.6,5.6-2.9,8.4-4.5c4.2-2.3,8-5.4,12.7-6.8
		c0.9,1.4,0.6,3,0.6,4.5c-17,9.7-33.9,19.4-50.9,29.2c-1,0.6-2,1.1-3,1.6C344.1,387.4,344.1,386.3,344.1,385.1z"/>
	<path id="XMLID_1242_" class="st9" d="M230,274.1c14.7-9.8,29.4-19.6,44.2-29.4c4.5-1.2,7.9-4.4,11.9-6.6c1.7-0.9,3.4-2.1,5.4-2.2
		c1.5,0.3,3,0.5,4.5,0.8c-0.2,1.1-1.2,1.5-2.1,2c-20.7,11.9-41.3,23.9-62,35.8c-0.3,0.2-0.7,0.3-1,0.4
		C230,275.2,229.9,274.7,230,274.1z"/>
	<path id="XMLID_1241_" class="st9" d="M188.7,320.4c-20.1,13.1-40.2,26.1-60.4,39.2c-0.5,0.3-1.1,0.4-1.7,0.6
		c0.2-2,0.5-3.9,0.7-5.9c19.1-11,38.2-21.9,57.3-32.9c1.1-0.6,2.2-1.1,3.3-1.7C188.7,319.3,188.8,319.8,188.7,320.4z"/>
	<path id="XMLID_1240_" class="st9" d="M384.5,335.6c-14.1,8.2-28.2,16.4-42.3,24.7c-4.2,2.4-8.4,4.9-12.6,7.3c0,0-0.3,0-0.3,0
		s-0.3,0-0.3,0c-2.4-1.8,0.4-1.9,0.9-2.2c12.5-8,25.1-16,37.6-23.9c7.9-5,15.8-10,23.7-15c0.9,1.1,1.1,2.5,1.3,3.8
		C390.1,332.4,386.5,332.7,384.5,335.6z"/>
	<path id="XMLID_1239_" class="st46" d="M214.4,441.4c-1.4-2.7-1.7-6.3-5.3-7.6c2.1-2.6,5.2-3.7,7.9-5.4c5-3.1,9.6-6.8,15.2-9
		c0,4.1,0,8.1,0,12.2C226.5,435.5,221.2,439.8,214.4,441.4z"/>
	<path id="XMLID_1238_" class="st9" d="M323.6,247.6c-22.9,13.2-45.9,26.4-68.8,39.6c-1.2,0.7-2.4,1.3-3.6,1.9
		c-0.8,0.4-0.9,0-0.8-0.7c14-9,28-18,42-27.1c4.7-1.7,8.5-4.9,12.8-7.2c5-2.8,9.8-5.8,14.9-8.4C321.3,246.1,322.6,246.5,323.6,247.6
		z"/>
	<path id="XMLID_1237_" class="st9" d="M234.4,236.4c-15.4,8.8-30.8,17.7-46.2,26.5c-0.8,0.2-1-0.1-0.9-0.8c7.3-6,14.6-12,21.9-18.1
		c7.6-4.3,16-6.6,24.5-8.4C234.4,235.3,234.6,235.7,234.4,236.4z"/>
	<path id="XMLID_1236_" class="st46" d="M268.2,317.6c0.3,0,0.6-0.1,0.9-0.1c1.1-1.6,2.8-2.3,4.4-3.3c1.3-0.8,2.7-1.4,3.9-2.5
		c2.5-1.1,4.6-2.9,7-4c1.1-0.5,2-1.5,3.4-0.7c1.9,0.5,3.5,1.7,6.7,1.7c-5.8,5.7-11,10.8-16.1,15.8c-1.5,1.4-2.8,1.3-4.2-0.5
		C272.3,321.6,270.6,319.2,268.2,317.6z"/>
	<path id="XMLID_1235_" class="st9" d="M202.9,397.2c7-3.8,13.9-7.7,20.9-11.5c0.8-0.4,0.9,0,0.8,0.7
		c-26.1,16.6-52.3,33.3-78.4,49.9c-0.5,0.3-1.1,0.4-1.7,0.6c-0.2-0.5-0.4-1.1-0.7-1.6c0.6-2.2,2.7-2.9,4.3-3.9
		c12.4-7.8,25.1-15.2,37.4-23.2C191.9,405.4,197.4,401.2,202.9,397.2z"/>
	<path id="XMLID_1234_" class="st46" d="M332.1,276.2c-5,0-10.1,0-15.1,0c-0.2-1.3,0.9-1.7,1.7-2.1c7.4-4.5,15-8.7,22.5-13
		c0.9-0.5,1.7-1,2.8-0.6c2.3,1,4,3,6,4.5C344.4,269.3,338.6,273.3,332.1,276.2z"/>
	<path id="XMLID_1233_" class="st9" d="M182,298c-16.3,10.9-32.6,21.7-48.9,32.5c-0.4,0.3-0.9,0.3-1.4,0.5c0.8-2.3,1.5-4.6,2.3-6.8
		c15.7-9,31.4-18,47.1-27C182,296.9,182.2,297.3,182,298z"/>
	<path id="XMLID_1232_" class="st51" d="M389,320.4c-13.6,7.8-27.2,15.5-40.8,23.3c-5.8,3.3-11.7,6.6-17.5,9.9
		c-0.7,0.4-0.9,0-0.9-0.7c18.7-11.8,37.5-23.6,56.2-35.4c0.6-0.4,1.4-0.5,2.1-0.7C388.3,318,389.3,319.1,389,320.4z"/>
	<path id="XMLID_1231_" class="st46" d="M216.7,454.9c-0.1-3.4-0.5-6.7-1.4-10c5.2-4.1,10.6-7.9,16.8-10.5c0,4,0.1,8.1,0.1,12.1
		C227.2,449.7,222.6,453.5,216.7,454.9z"/>
	<path id="XMLID_1230_" class="st51" d="M257.8,270.3c14.9-9.7,29.8-19.4,44.7-29c0.8-0.5,1.6-1.1,2.5-1.7c1.8,0.5,3.7,0.8,5.2,2.1
		c-16.3,9.4-32.6,18.7-48.9,28.1c-0.9,0.5-1.8,0.9-2.6,1.3C257.8,271.4,257.6,271,257.8,270.3z"/>
	<path id="XMLID_1229_" class="st46" d="M223.2,466.8c-0.2,0-0.3,0-0.5-0.1c-1.2,0.6-2.2,1.6-3.4,2.2c-0.9,0.2-1.6,1.4-2.8,0.8
		c0.1-3.5,0.1-7,0.2-10.5c4.2-3.5,9.1-6,13.7-9c0.5-0.4,1.2-0.4,1.8,0c0,3.6,0.1,7.1,0.1,10.7c-2,1.6-4.1,3-6.6,3.7
		C225,465.4,224,466,223.2,466.8z"/>
	<path id="XMLID_1228_" class="st52" d="M202.9,412.6c-16.1,10.1-32.1,20.2-48.2,30.3c-1.5,0.9-2.9,1.9-4.4,2.9
		c-1.1-0.7-1.6-1.9-2.1-3c17.9-10.3,35.8-20.6,53.8-30.9C202.8,411.6,203,412,202.9,412.6z"/>
	<path id="XMLID_1227_" class="st46" d="M134.9,414.4c-1.3-0.9-1-1.9-0.1-2.8c5-4.9,10-9.7,15-14.6c1.4-0.8,2.6-1.9,3.8-2.9
		c1.7,2.2,3.4,4.4,5.2,6.7c0.3,1.3-0.8,1.7-1.6,2.2c-6.1,3.6-12.2,7.2-18.4,10.7C137.6,414.2,136.4,415.2,134.9,414.4z"/>
	<path id="XMLID_1226_" class="st53" d="M380.1,301c-5.3,4.2-11.5,7-17.2,10.4c-3.7,2.2-7.3,4.8-11.5,6.2c-1.2-1.5,0.6-2.9,0.2-4.4
		c7.4-4.6,14.8-9.2,22.2-13.8c1.3-0.8,2.6-1.4,3.9-2.2C378.5,298.5,379.3,299.7,380.1,301z"/>
	<path id="XMLID_1225_" class="st46" d="M211.2,358c16.8-10.5,34.1-20,51.1-30c0.6-0.4,1-1,1.6-1.5c0.7,0.8,1.4,1.5,2.1,2.3
		c-17.4,10-34.8,20-52.2,30.1c-0.5,0.3-1.1,0.5-1.7,0.8C210.7,359.7,210.8,358.9,211.2,358z"/>
	<path id="XMLID_1224_" class="st51" d="M334.1,253.6c-12,6.8-24,13.7-36,20.5c-2.2,1.2-4.4,2.4-6.5,3.5c-0.5,0.1-0.9,0.1-1.4,0.2
		c-0.8,0.4-0.9-0.1-0.9-0.6c13-8.3,26-16.6,39.1-24.9c0.9-0.6,1.7-0.9,2.8-0.8C332.1,252.2,333.4,252.5,334.1,253.6z"/>
	<path id="XMLID_1223_" class="st9" d="M134.9,414.4c8.2-4.1,16-8.9,23.9-13.6c1,0.8,2,1.6,3,2.4c0.1,1.1-0.7,1.5-1.5,1.9
		c-7.3,4.7-14.6,9.3-22,14c-0.6,0.4-1.3,0.7-2.1,0.6C136,417.8,134.5,416.3,134.9,414.4z"/>
	<path id="XMLID_1222_" class="st54" d="M129.5,340.7c13.1-7.5,26.1-15,39.2-22.5c1.4-0.8,2.8-1.5,4.3-2.3c0.8-0.4,0.9,0,0.8,0.7
		c-14.3,9.3-28.7,18.6-43,27.8c-1,0.7-2,1.4-2.1-0.7C128.9,342.8,129.2,341.8,129.5,340.7z"/>
	<path id="XMLID_1221_" class="st55" d="M344,260.4c-9,5.3-18,10.5-27,15.8c-1,0.1-1.9,0.1-2.9,0.2c-1,0.3-2,0.5-3-0.1
		c9.4-6.7,19.4-12.6,29.1-18.8C341.6,258.3,343.1,259,344,260.4z"/>
	<path id="XMLID_1220_" class="st46" d="M350.1,292c-0.3-3-0.5-6-0.8-8.9c3.7-3,8-4.9,12-7.4c1.7,2,3.4,3.9,5.1,5.9
		c-0.5,1.6-2.2,1.9-3.3,2.8c-1.3,0.8-2.5,1.7-3.7,2.5C356.1,288.3,353.7,291.2,350.1,292z"/>
	<path id="XMLID_1219_" class="st52" d="M350.1,328c11-7,22-13.9,33-20.9c0.5,0.7,1,1.5,1.5,2.2c0.2,1.2-0.7,1.7-1.6,2.2
		c-11.2,6.4-22.5,12.8-33.7,19.3C349.6,329.9,349.9,329,350.1,328z"/>
	<path id="XMLID_1218_" class="st56" d="M185.6,408.2c1.1,1.9-0.9,1.6-1.6,2c-12.6,7.9-25.3,15.7-38,23.5c-0.7,0.5-1.4,1-2.1,1.5
		c-0.5-0.9-1-1.9-1.5-2.8c13.5-7.8,26.9-15.6,40.4-23.4C183.7,408.7,184.6,408.4,185.6,408.2z"/>
	<path id="XMLID_1217_" class="st46" d="M347.8,280.6c-2.5-1.7-5.6-2.3-8.3-3.6c0-0.1-0.1-0.3-0.1-0.4c4.1-3.8,8.7-6.9,14.4-8
		c1.7,1.5,3.4,3,5.2,4.5C355.8,276.6,351.8,278.6,347.8,280.6z"/>
	<path id="XMLID_1216_" class="st55" d="M353.8,268.7c-4.9,2.6-9.7,5.2-14.3,8.3c-2.4-0.3-4.9-0.6-7.3-0.9c5.7-4.1,11.6-8,17.8-11.3
		C351.3,266.1,352.9,267,353.8,268.7z"/>
	<path id="XMLID_1215_" class="st55" d="M350.1,292c2.7-2.3,5.8-4.1,8.9-5.8c1.6-0.1,2.7-1.3,4-2c1.4-0.6,2.6-2,4.4-1.2
		c0.7,0.8,1.5,1.6,2.2,2.4c-5.8,4.5-12.4,7.7-18.9,11.2C350.5,295,350.3,293.5,350.1,292z"/>
	<path id="XMLID_1214_" class="st46" d="M168.5,446.6c-1.1,3.9-1,7.9-0.9,11.9c-0.3,0.2-0.6,0.2-0.9-0.1c-0.5-0.9-1.1-1.1-2-0.5
		c-1.3,0.7-2.4,1.6-3.9,2.1c-1.5-1.9-3-3.9-4.4-5.8C159.8,450.6,163.6,447.8,168.5,446.6z"/>
	<path id="XMLID_1213_" class="st46" d="M188.7,364c-1.4,1.3-2.7,2.5-4.1,3.8c-4.1,3.8-4.1,3.8-7.9-0.7c1.9-2.8,5.2-3.6,7.8-5.6
		c2.9-2.2,6.1-3.8,9.1-5.8c1-0.7,2-1.7,3.4-0.8c-2,2.3-4,4.6-6,6.9C190.1,362.3,189.3,363,188.7,364z"/>
	<path id="XMLID_1212_" class="st57" d="M232.1,450.1c-4,2.6-8.1,5.1-12.1,7.7c-1,0.6-1.9,1.6-3.3,1.4c0-1.4,0-2.9,0-4.3
		c5.2-2.7,9.9-6.5,15.5-8.4C232.1,447.7,232.1,448.9,232.1,450.1z"/>
	<path id="XMLID_1211_" class="st58" d="M232,434.4c-5.5,3.7-10.8,7.7-16.8,10.5c-0.3-1.2-0.6-2.3-0.9-3.5c6-3,11.5-7.1,17.7-9.7
		C232.1,432.6,232,433.5,232,434.4z"/>
	<path id="XMLID_1210_" class="st59" d="M320,245.7c-2.1,3-5.6,3.9-8.4,5.6c-5.3,3.2-10.6,6.3-16,9.3c-0.9,0.5-1.9,1.9-3.3,0.7
		c8.5-5.6,17-11.1,25.5-16.7C318.5,245,319.2,245.3,320,245.7z"/>
	<path id="XMLID_1209_" class="st60" d="M168.5,446.6c-4,2.5-8.1,5-12.1,7.5c-0.7-0.8-1.5-1.7-2.2-2.5c4.7-4.1,10.5-6.5,15.8-9.6
		C170.1,443.8,169.2,445.2,168.5,446.6z"/>
	<path id="XMLID_1208_" class="st61" d="M197,354.9c-5.5,3.5-11.1,6.9-16.6,10.3c-1.1,0.7-2.4,1.3-3.6,1.9c-0.7-0.6-1.4-1.3-1.5-2.2
		c8.1-4.5,16.2-9.1,24.3-13.6C199.7,353.1,197.9,353.7,197,354.9z"/>
	<path id="XMLID_1207_" class="st61" d="M232.1,419.5c-7.4,5.2-14.9,10.3-23,14.4c-0.7-0.3-1.5-0.7-2.2-1c7.9-4.7,15.9-9.3,23.8-14
		c0.4-0.2,1-0.1,1.5-0.1C232.1,419,232.1,419.2,232.1,419.5z"/>
	<path id="XMLID_1206_" class="st61" d="M151.3,291.4c5.2-2.8,10.4-5.7,15.6-8.5c0.8-0.4,1,0.1,0.9,0.8c-6.3,4.4-12.6,8.7-18.8,13.1
		c-0.7,0.5-1.3,0.7-2.1,0.5C148.3,295.3,149.8,293.3,151.3,291.4z"/>
	<path id="XMLID_1205_" class="st62" d="M397.3,353.3c-6.1,4.4-12.9,7.6-19.2,11.6c-0.7,0.4-1.4,0.6-1.9-0.3c7-4.5,14-8.9,21-13.4
		C397.2,352,397.3,352.7,397.3,353.3z"/>
	<path id="XMLID_1204_" class="st63" d="M166.4,357.9c6.2-4.2,12.7-7.7,19.2-11.2c0.9-0.4,1,0.1,0.9,0.8c-6.2,3.9-12,8.4-18.7,11.4
		C167.3,358.5,166.8,358.2,166.4,357.9z"/>
	<path id="XMLID_1203_" class="st64" d="M212.7,418.7c-5.8,3.7-11.5,7.5-17.3,11.2c-1,0-1.9,0-2.9,0c-0.1-0.9,0.5-1.3,1.2-1.7
		c6.1-3.4,12.1-6.9,18.2-10.3C212.7,417.5,212.8,418,212.7,418.7z"/>
	<path id="XMLID_1202_" class="st46" d="M241.6,501.6c3.3-1.7,6.7-3.4,10-5c0.2,0.2,0.3,0.4,0.5,0.6c-2.4,2.6-4.8,5.2-7.2,7.8
		C242.4,505.2,240.9,504.5,241.6,501.6z"/>
	<path id="XMLID_1201_" class="st65" d="M398.6,367.5c-5.1,2.9-10.2,5.7-15.4,8.6c-0.9,0.4-1-0.1-0.9-0.8c5.4-3.4,10.4-7.4,16.3-9.7
		C398.6,366.2,398.6,366.9,398.6,367.5z"/>
	<path id="XMLID_1200_" class="st58" d="M291.5,235.9c-5,3-10,5.9-15,8.9c-0.7,0.4-1.5,1.1-2.2-0.1c5.3-3.5,10.6-7,15.9-10.5
		C290.5,234.7,291,235.3,291.5,235.9z"/>
	<path id="XMLID_1199_" class="st66" d="M361.3,275.6c-3.2,3.8-7.7,5.5-12,7.4c0-0.5,0-1-0.1-1.5c2.7-3.8,6.2-6.3,11-6.7
		C360.6,275,361,275.3,361.3,275.6z"/>
	<path id="XMLID_1198_" class="st46" d="M271.2,456.1c-3.3,1.7-6.5,3.4-9.8,5.2c-0.2-0.1-0.3-0.3-0.5-0.4c3.5-3.3,6.9-6.6,10.4-9.9
		C271.3,452.7,271.2,454.4,271.2,456.1z"/>
	<path id="XMLID_1197_" class="st46" d="M255.6,506.3c3.5-2,6.9-3.9,10.4-5.9c0.2,0.2,0.4,0.3,0.5,0.5c-0.9,1.8-1.7,3.6-2.6,5.4
		C261.2,506.3,258.4,506.3,255.6,506.3z"/>
	<path id="XMLID_1196_" class="st46" d="M241.6,465.3c2.9-1.5,5.9-3,8.8-4.6c0.4,0.4,0.7,0.8,1.1,1.2c-3.2,2.8-6.4,5.6-9.7,8.5
		l-0.3,0C241.3,468.7,241.2,467,241.6,465.3z"/>
	<path id="XMLID_1195_" class="st67" d="M159.5,363.3c-4.7,2.8-9.4,5.7-14.5,8.8c0.2-2.8,2.3-3,3.3-4.2c2.9-2.4,5.7-5,9.7-5.5
		C158.5,362.7,159,363,159.5,363.3z"/>
	<path id="XMLID_1194_" class="st46" d="M172.2,400c3.8-2.9,8.1-4.9,12.7-6.7c-2.6,2-5.1,4-7.6,6.1c-0.8,0.7-2.6,1.1-1.3,2.8
		C174.4,402.1,173.4,400.9,172.2,400z"/>
	<path id="XMLID_1193_" class="st46" d="M276.4,345.1c-3.6,2.9-7.8,5-11.1,8.3c-0.8-0.7-1.6-1.4-2.4-2.1c4.2-2.3,8.5-4.6,12.7-6.9
		C276.5,344.1,276.5,344.5,276.4,345.1z"/>
	<path id="XMLID_1192_" class="st46" d="M271.2,356.7c4.9-1.1,8.5-5,13.4-6.1c-2.4,2.2-4.8,4.4-7.2,6.6
		C275.3,357.2,273.2,357.8,271.2,356.7z"/>
	<path id="XMLID_1191_" class="st68" d="M289.3,277.2c0.3,0.2,0.6,0.4,0.9,0.6c-1.4,1.2-2.7,2.4-4.1,3.5c-3.4,1.8-6.8,3.6-10.2,5.5
		c-0.7,0.4-0.9,0.1-0.9-0.6C279.8,283.2,284.6,280.2,289.3,277.2z"/>
	<path id="XMLID_1190_" class="st69" d="M317.9,337c-3.4,2.9-7.4,4.8-11.4,6.8c2-3.8,5.7-5.7,9.2-7.9
		C317,335.1,317.3,336.3,317.9,337z"/>
	<path id="XMLID_1189_" class="st70" d="M360.3,274.8c-4.1,1.6-7.7,4-11,6.7c-0.5-0.3-1-0.6-1.5-0.9c3.2-3.2,7.3-5.2,11.2-7.4
		C359.4,273.7,359.8,274.3,360.3,274.8z"/>
	<path id="XMLID_1188_" class="st46" d="M194.2,436.8c-3,1.9-6.1,3.7-9.1,5.6c-0.2-0.2-0.4-0.4-0.7-0.7c0.9-1.6,1.8-3.3,2.7-4.9
		C189.5,436.8,191.9,436.8,194.2,436.8z"/>
	<path id="XMLID_1187_" class="st71" d="M126.6,368.5c2.6-1.2,4.7-3.6,7.8-3.8c-2.4,2.6-4.7,5.3-7.8,8.7
		C126.6,371.1,126.6,369.8,126.6,368.5z"/>
	<path id="XMLID_1186_" class="st72" d="M241.9,412c0,7.9,0,15.9,0.1,23.8c0,1.2-0.6,2.9,1.5,3.2c0,1.3-0.7,1.3-1.6,0.8
		c-0.9-0.8-0.7-1.8-0.7-2.8c0.1-8.4,0.1-16.7,0.2-25.1L241.9,412z"/>
	<path id="XMLID_1185_" class="st46" d="M158,362.4c-3.2,1.8-6.5,3.7-9.7,5.5c0.8-2.3,3-3.5,4.4-5.2c1.1-1.3,0.3-1.6-0.8-1.8
		C154.4,359.8,156.1,361.3,158,362.4z"/>
	<path id="XMLID_1184_" class="st46" d="M305.8,479.7c2.5-1.3,4.9-2.6,7.4-3.9c0.2,0.3,0.5,0.5,0.7,0.8c-2.7,2.5-5.4,5-8.1,7.4
		C305.9,482.6,305.8,481.2,305.8,479.7z"/>
	<path id="XMLID_1183_" class="st73" d="M287.7,306.9c-3.4,1.8-6.8,3.6-10.3,5.4c-0.8,0.3-1-0.1-1-0.9c3.3-2.1,6.5-4.1,9.8-6.2
		C286.8,305.8,287.3,306.4,287.7,306.9z"/>
	<path id="XMLID_1182_" class="st46" d="M334.2,470.5c-2.3,1.3-4.6,2.5-6.9,3.8c-0.2-0.3-0.5-0.6-0.7-0.9c2.5-2.3,5.1-4.6,7.6-6.9
		C334.2,467.8,334.2,469.1,334.2,470.5z"/>
	<path id="XMLID_1181_" class="st46" d="M264.5,443.5c2.5-2.3,5-4.6,7.5-6.8c0,1.3,0,2.7-0.1,4c-2.2,1.2-4.4,2.4-6.6,3.6
		C264.5,444.5,264.3,444.2,264.5,443.5z"/>
	<path id="XMLID_1180_" class="st74" d="M325.1,283.1c-3.2,2-6.4,3.9-10.4,6.3c1.1-3.7,4-4.4,5.7-6.2
		C322,283.2,323.6,283.1,325.1,283.1z"/>
	<path id="XMLID_1179_" class="st75" d="M304.3,283.7c-1.2,0.8-2.4,1.6-3.6,2.3c-1.1,0.6-2.4,2.2-3.5,1c-1-1.1,0.7-2.3,1.3-3.4
		C300.5,282.8,302.4,282.2,304.3,283.7z"/>
	<path id="XMLID_1178_" class="st46" d="M324.5,325.8c2.4-0.1,3.9-2.3,6.4-2.8c-1.3,3.3-4.5,5-5.8,8
		C324.1,329.3,324.6,327.5,324.5,325.8z"/>
	<path id="XMLID_1177_" class="st76" d="M160.9,460c1.2-2.5,4-2.5,5.9-4.4c0.2,1.3,0.3,2.2,0.5,3c0.1,0.3,0,0.7-0.2,1
		c-1.4,1.1-2.8,1.9-4.6,2.1C161.9,461,161.4,460.5,160.9,460z"/>
	<path id="XMLID_1176_" class="st46" d="M334.5,456.2c-1.9,1-3.9,1.9-6.6,3.3c1.9-3.6,4.9-5,6.7-7.4
		C335,453.5,335,454.9,334.5,456.2z"/>
	<path id="XMLID_1175_" class="st46" d="M241.7,451.7c1.6-0.8,3.2-1.5,4.7-2.3c0.9-0.3,1.1,0.1,0.9,0.9c-1.9,1.9-3.8,3.9-5.7,5.8
		C241.2,454.6,241.3,453.2,241.7,451.7z"/>
	<path id="XMLID_1174_" class="st77" d="M254.8,232.6c0.7,0.1,1.4,0.2,2.1,0.3c-2,3.2-5.3,4.3-8.6,5.5c-0.6,0.2-1.2-0.2-1.1-1
		c2-1.5,4-3,6-4.5C253.8,232.7,254.3,232.7,254.8,232.6z"/>
	<path id="XMLID_1173_" class="st46" d="M305.9,466.6c1.8-0.8,3.3-2.3,6.3-2.8c-2.2,3-4.2,4.6-6.3,6.1
		C305.9,468.8,305.9,467.7,305.9,466.6z"/>
	<path id="XMLID_1172_" class="st78" d="M190.2,484.9c2.4-1,4.3-3,7.2-3.5c0,1.7-1.2,2.3-1.9,3.2c-1,0.7-1.6,2-3.1,1.8
		C191.4,486.2,190.6,485.8,190.2,484.9z"/>
	<path id="XMLID_1171_" class="st46" d="M334.9,411.2c-2,1-4.1,2-6.1,3.1c1.5-2.8,3.8-4.7,6.1-6.6
		C334.9,408.8,334.9,410,334.9,411.2z"/>
	<path id="XMLID_1170_" class="st46" d="M340.9,310c-2.2,0-3.6,2-6,2.1c4.3-2.3,6-5.9,6-10.4C340.9,304.5,340.9,307.3,340.9,310z"/>
	<path id="XMLID_1169_" class="st46" d="M166.9,459.2c0.1-0.2,0.2-0.5,0.3-0.7c0.1,0,0.3,0,0.4,0c0,2.5,0,5.1,0,7.9
		c-1.7-0.7-2.7-2-3.7-3.4C164.4,461.3,166.1,460.7,166.9,459.2z"/>
	<path id="XMLID_1168_" class="st46" d="M305.7,422c1.9-0.7,3.4-2.4,6.1-2.7c-1.9,2.7-4,4.3-6.1,6.1
		C305.7,424.3,305.7,423.2,305.7,422z"/>
	<path id="XMLID_1167_" class="st46" d="M272.3,427c-1.9,0.9-3.7,1.8-6.2,3c1.7-3.3,4.8-4.4,6.5-6.8
		C272.7,424.5,272.7,425.8,272.3,427z"/>
	<path id="XMLID_1166_" class="st79" d="M199.4,364.1c1.2-0.3,2.3-0.5,3.5-0.8c-1.2,3-3.6,4.2-6.7,4.4
		C195.8,365.2,198.7,365.6,199.4,364.1z"/>
	<path id="XMLID_1165_" class="st80" d="M206.2,451.7c-1.9,0.9-3.8,1.9-6.5,3.3c2.4-3.1,4.6-5,6.9-6.9
		C207,449.4,207.3,450.6,206.2,451.7z"/>
	<path id="XMLID_1164_" class="st81" d="M241.9,412c0,0-0.3,0-0.3,0c-0.4-4.5-0.5-9,0-13.5c0.1,2.9,0.4,5.9,0.2,8.8
		c-0.2,2.2,1.1,1.8,2.7,1.6C243.4,410.1,242.6,411,241.9,412z"/>
	<path id="XMLID_1163_" class="st46" d="M265.2,388.7c-1.8,1-3.5,2-6.1,3.5c1-3,3.1-4,4.1-5.7C264.1,387.1,264.8,387.8,265.2,388.7z
		"/>
	<path id="XMLID_1162_" class="st82" d="M282.5,296.3c-2.2,1.1-4.3,2.2-6.5,3.3c-0.8,0.4-1,0-0.9-0.7c2-1.3,4.1-2.6,6.1-4
		c1.3-0.9,1.4,0,1.5,0.9C282.5,296,282.5,296.1,282.5,296.3z"/>
	<path id="XMLID_1161_" class="st46" d="M334.8,390.2c-1.8,0.7-3.5,1.5-4.7,2c1.3-1.5,3-3.5,4.7-5.5
		C334.7,387.8,334.7,389,334.8,390.2z"/>
	<path id="XMLID_1160_" class="st83" d="M177.7,462.9c1.6-0.9,3.2-1.7,5.4-3c-1.3,3.2-3.6,4.4-5.4,6
		C177.7,464.9,177.7,463.9,177.7,462.9z"/>
	<path id="XMLID_1159_" class="st84" d="M384.5,335.6c1.7-3.3,4.9-4.4,8.1-5.4c0,0.3,0.1,0.5,0.1,0.8
		C390,332.6,387.3,334.1,384.5,335.6z"/>
	<path id="XMLID_1158_" class="st85" d="M145.2,309.2c-2.1,1.5-4.1,3.3-6.7,3.9c-0.3-1.2,0.7-1.8,1.4-2.5c1.5-0.7,3-1.4,4.5-2.2
		C145.2,308,145.3,308.5,145.2,309.2z"/>
	<path id="XMLID_1157_" class="st86" d="M382.8,433.6c-1.7,0.8-3.3,1.6-5,2.5c-0.8,0.4-0.9-0.1-0.8-0.8c2.2-1.4,4-3.4,6.7-3.8
		C384,432.4,383.1,432.9,382.8,433.6z"/>
	<path id="XMLID_1156_" class="st46" d="M253.3,324.4c1.3-1.4,3.4-1.9,4.3-3.8c0.8,0.7,1.6,1.3,2.4,2c-2.4-0.2-3.8,2-5.9,2.5
		C253.3,325.5,253.2,325,253.3,324.4z"/>
	<path id="XMLID_1155_" class="st87" d="M166.9,459.2c0.7,2.6-1.8,2.7-3,3.8c-0.5-0.5-1-1-1.5-1.5
		C163.7,460.2,165.2,459.6,166.9,459.2z"/>
	<path id="XMLID_1154_" class="st88" d="M290.7,503.5c1.6-1.9,3.8-2.7,6-3.7C296.7,504.3,293,502.7,290.7,503.5z"/>
	<path id="XMLID_1153_" class="st89" d="M300.4,377.5c-1.6-3.4,0.5-4.4,3.1-5.3C303.1,374.4,301.5,375.8,300.4,377.5z"/>
	<path id="XMLID_1152_" class="st49" d="M245.7,381.2c2.1-1.4,4.1-3.5,6.3-0.2C249.9,381.3,247.8,381.7,245.7,381.2z"/>
	<path id="XMLID_1151_" class="st46" d="M332.8,378.2c-1.4,0.7-2.8,1.4-4.5,2.4c0.2-2.3,2.2-3,3.1-4.3
		C332.3,376.6,332.6,377.3,332.8,378.2z"/>
	<path id="XMLID_1150_" class="st46" d="M309.6,400.9c-1.3,1.2-2.5,2.3-3.8,3.5c0-1,0-2,0.1-3c1-0.5,1.9-1,2.9-1.5
		C309.5,399.7,309.7,400.1,309.6,400.9z"/>
	<path id="XMLID_1149_" class="st90" d="M241.6,470.4c0,0,0.3,0,0.3,0c0.6,3.2-1,6.6,1.1,9.7c0,0-0.7,0.6-1,0.9
		C240.8,477.5,241.3,474,241.6,470.4z"/>
	<path id="XMLID_1148_" class="st91" d="M324.4,372.1c-2.2,1.2-4.4,2.4-6.6,3.5c-0.3-0.2-0.4-0.6-0.4-0.9c0.1-0.5,0.4-0.9,0.8-1.3
		c1.1-1.1,2.7-1.2,4-1.9C323,371.4,323.8,371.4,324.4,372.1z"/>
	<path id="XMLID_1147_" class="st49" d="M279.4,364.1c-2,1.6-4,3.4-6.5,0.8C275.1,364.7,277.2,363.6,279.4,364.1z"/>
	<path id="XMLID_1146_" class="st49" d="M245.8,311c1.9-1.6,3.7-3.9,5.9-0.4C249.7,310.7,247.7,310.9,245.8,311z"/>
	<path id="XMLID_1145_" class="st46" d="M170.7,392.4c-1.2,1.2-2.9,1.6-3.8,3.1c-0.4-0.5-0.9-1.1-1.3-1.6c1.5-0.7,2.9-1.5,4.4-2.2
		C170.8,391.4,170.9,391.8,170.7,392.4z"/>
	<path id="XMLID_1144_" class="st46" d="M293.1,297.9c1.1-0.4,2.1-0.8,3.5-1.4c-0.2,1.9-1.9,2.4-2.3,3.8
		C293.9,299.5,293.5,298.7,293.1,297.9z"/>
	<path id="XMLID_1143_" class="st46" d="M171.5,376c-1.4,0.5-2.7,0.9-4.2,1.5c0.4-1.6,1.7-2.1,2.7-3C170.5,375,171,375.5,171.5,376z
		"/>
	<path id="XMLID_1142_" class="st92" d="M367.4,282.9c-1.5,0.5-3.1,1-4.6,1.6c-0.2-0.2-0.3-0.3-0.3-0.5c0.1-0.2,0.2-0.3,0.2-0.3
		c1.2-0.8,2.4-1.5,3.7-2.3C366.7,282,367.1,282.5,367.4,282.9z"/>
	<path id="XMLID_1141_" class="st46" d="M334.8,431.6c-1,0.5-2,1-3.9,1.9c1.3-2.3,2.6-3.2,3.9-4.2
		C334.8,430,334.8,430.8,334.8,431.6z"/>
	<path id="XMLID_1140_" class="st93" d="M337.1,300.2c1.1-1.1,2.3-2.1,4-2.1c0,0.5-0.1,0.9-0.1,1.4c-1,0.5-2,1-3,1.4
		C337.6,300.7,337.2,300.7,337.1,300.2z"/>
	<path id="XMLID_1139_" class="st94" d="M322.2,371.5c-0.9,1.3-2.4,1.7-3.7,2.3c-0.8,0.2-1-0.1-0.9-0.9
		C319,371.7,320.4,370.9,322.2,371.5z"/>
	<path id="XMLID_1138_" class="st95" d="M153.6,394.1c-0.3,2.2-2.1,2.5-3.8,2.9C150.9,395.7,151.4,393.7,153.6,394.1z"/>
	<path id="XMLID_1137_" class="st96" d="M242,439.8c0.5-0.3,1-0.6,1.6-0.8c0.5,0.2,1.9-0.1,0.8,1.1c-0.8,0.9-1.9,1.5-2.8,2.2
		C241.2,441.4,241.6,440.6,242,439.8z"/>
	<path id="XMLID_1110_" class="st97" d="M317.7,372.9c0.3,0.3,0.6,0.6,0.9,0.9c-0.3,0.3-0.5,0.6-0.8,0.8c-0.8,1-1.8,1.6-3,0.7
		c0.1-0.6,0.2-1.1,0.3-1.7C316,373.4,316.8,373.2,317.7,372.9z"/>
	<path id="XMLID_1109_" class="st46" d="M256.2,343.8c0.9-0.2,2.4-0.7,2.7-0.4c0.7,0.8-0.3,1.4-1.1,1.8
		C257.1,344.9,256.4,344.6,256.2,343.8z"/>
	<path id="XMLID_1108_" class="st98" d="M216.5,469.7c0.8-0.4,1.5-0.8,2.3-1.2c0.5,0.1,0.7,0.4,0.6,0.9c-1,0.6-1.9,1.2-2.9,1.8
		C216.5,470.7,216.5,470.2,216.5,469.7z"/>
	<path id="XMLID_1107_" class="st49" d="M260.6,380.5c1.6-1.7,3.2-1.6,4.7,0.1C263.7,380.5,262.2,380.5,260.6,380.5z"/>
	<path id="XMLID_1106_" class="st99" d="M329,341.3c0.1,0.4,2-0.2,0.6,1c-0.8,0.7-1.9,1-2.9,1.4c-0.2-0.2-0.3-0.4-0.2-0.6
		c0.1-0.2,0.1-0.3,0.2-0.3c0.5-0.5,1-1,1.5-1.5C328.5,341.4,328.7,341.4,329,341.3z"/>
	<path id="XMLID_1105_" class="st100" d="M341.6,323.4c-0.4,0.1-0.9,0.2-1.3,0.3c-0.4-0.3-0.5-0.7-0.2-1.2c0.2-0.9,0.7-1.5,1.4-1.9
		C341.6,321.6,341.6,322.5,341.6,323.4z"/>
	<path id="XMLID_1104_" class="st46" d="M305.8,443.9c0.7-0.3,1.4-0.6,2.4-0.9c-0.2,1.8-1.4,2.3-2.3,2.9
		C305.8,445.2,305.8,444.5,305.8,443.9z"/>
	<path id="XMLID_1103_" class="st46" d="M193.8,369.8c-0.9,1.3-2,2.2-3.6,2.4C191.1,371,192,369.7,193.8,369.8z"/>
	<path id="XMLID_1102_" class="st46" d="M269.5,397.7c-1,0-1.5,1.3-2.7,0.9c0.1-1.3,1.2-1.8,2.1-2.4
		C269.1,396.7,269.3,397.2,269.5,397.7z"/>
	<path id="XMLID_1101_" class="st101" d="M311.1,367.8c1.4-1.6,2.9-1,4.5-0.3C314.1,367.6,312.6,367.7,311.1,367.8z"/>
	<path id="XMLID_1100_" class="st102" d="M243.5,490.8c-0.5,0.5-1.1,0.9-1.6,1.4c-0.1-0.7-0.2-1.5-0.3-2.2c0.3,0,0.7-0.1,1-0.1
		C243.5,489.7,243.7,490.1,243.5,490.8z"/>
	<path id="XMLID_1099_" class="st103" d="M203.6,441.3c-0.8-0.2-1.5,1-2.3,0.3c-0.1-0.1,0.6-1.1,0.9-1.8
		C202.7,440.3,203.1,440.8,203.6,441.3z"/>
	<path id="XMLID_1098_" class="st104" d="M397.2,385.6c-0.7-0.2-1.8,1.2-2,0c-0.2-1.1,1.2-1.1,2.2-1.3
		C397.3,384.8,397.3,385.2,397.2,385.6z"/>
	<path id="XMLID_1097_" class="st46" d="M192.4,486.4c1-0.6,2.1-1.2,3.1-1.8c-0.5,0.9-1.1,1.7-1.6,2.6
		C193.4,486.9,192.9,486.6,192.4,486.4z"/>
	<path id="XMLID_1096_" class="st46" d="M188.7,364c0.1-1.5,0.8-2.2,2.3-2.3C190.5,362.7,189.8,363.5,188.7,364z"/>
	<path id="XMLID_1095_" class="st105" d="M311.1,276.2c1,0,2,0.1,3,0.1c-1.2,0.7-2.5,0.6-3.9,0.6
		C310.5,276.7,310.8,276.5,311.1,276.2z"/>
	<path id="XMLID_1094_" class="st106" d="M269.6,490.9c-0.5,0.2-1.4,0.9-1.6,0.4c-0.3-1.1,0.9-1.5,1.6-2
		C269.6,489.8,269.6,490.3,269.6,490.9z"/>
	<path id="XMLID_1093_" class="st107" d="M234.4,236.4c-0.3-0.3-0.5-0.5-0.8-0.8c0.9-1,2-0.6,3.1-0.5
		C236.1,235.8,235.3,236.2,234.4,236.4z"/>
	<path id="XMLID_1092_" class="st46" d="M334.7,442.7l-0.2,0.1l-0.2,0c-0.8,0.3-1-0.1-0.8-0.8c0.4-0.4,0.8-0.8,1.2-1.2
		C334.7,441.4,334.7,442,334.7,442.7z"/>
	<path id="XMLID_1091_" class="st52" d="M247.3,237.3c2.2,1,3.4-0.9,5-1.7c1.6-0.8,3.1-1.8,4.7-2.7c1.4-0.1,2.7-0.2,4.1-0.3
		c0.1,0.3,0.2,0.5,0.4,0.8c-13.7,7.8-27.3,15.6-41,23.5c-0.8,0.3-0.9-0.1-0.8-0.7C228.8,249.9,238,243.6,247.3,237.3z"/>
	<path id="XMLID_1090_" class="st108" d="M176,341.4c-6.2,4-12.3,7.9-18.4,11.9c-1.6,1-3.3,0.9-6.2,0.8c8.5-4.8,16.1-9.2,23.8-13.5
		C176,340.3,176.1,340.7,176,341.4z"/>
	<path id="XMLID_1089_" class="st109" d="M275,298.9c0.3,0.2,0.6,0.5,0.9,0.7c-1.6,1.2-3.3,2.5-5.3,2.9
		C270.5,299.3,273.8,300.4,275,298.9z"/>
	<path id="XMLID_1088_" class="st110" d="M182,298c-0.3-0.3-0.6-0.6-0.9-0.8c1.4-1.1,2.8-2.2,5.4-2.8
		C185.1,296.6,183.5,297.3,182,298z"/>
	<path id="XMLID_1087_" class="st111" d="M261.5,241.8c0.3,0.3,0.6,0.5,0.9,0.8c-1.1,1-2.4,1.7-3.8,2.2c-0.8,0.4-0.9-0.1-0.9-0.7
		C259,243.3,260.3,242.5,261.5,241.8z"/>
	<path id="XMLID_1086_" class="st82" d="M257.8,270.3c0.3,0.3,0.6,0.5,0.9,0.8c-1.1,1.1-2.3,1.8-3.7,2.3c-0.8,0.4-0.9-0.1-0.9-0.7
		C255.3,271.8,256.5,271,257.8,270.3z"/>
	<path id="XMLID_1085_" class="st112" d="M167.7,283.7c-0.3-0.3-0.6-0.5-0.9-0.8c1.4-0.9,2.8-1.8,4.2-2.7
		C170.7,282.3,169.1,282.8,167.7,283.7z"/>
	<path id="XMLID_1084_" class="st113" d="M186.5,347.5c-0.3-0.3-0.6-0.5-0.9-0.8c1.1-1,2.4-1.7,3.8-2.2c0.8-0.4,0.9,0.1,0.9,0.7
		C189,345.9,187.7,346.7,186.5,347.5z"/>
	<path id="XMLID_1083_" class="st114" d="M173.7,316.7c-0.3-0.2-0.5-0.5-0.8-0.7c1.2-0.8,2.5-1.5,3.7-2.3c0.8-0.4,0.9,0,0.8,0.7
		C176.2,315.2,175,315.9,173.7,316.7z"/>
	<path id="XMLID_1082_" class="st115" d="M256.2,246.1c-1.1,1.1-2.4,1.8-4.5,2.5c1.4-2,3-2.5,4.5-3.4c0.2,0.2,0.3,0.4,0.2,0.6
		C256.4,246,256.3,246.1,256.2,246.1z"/>
	<path id="XMLID_1081_" class="st116" d="M176,341.4c-0.3-0.3-0.6-0.5-0.9-0.8c1.1-0.7,2.1-1.3,3.2-2c0.4,0.1,0.6,0.3,0.8,0.6
		C178.3,340.4,177.2,340.9,176,341.4z"/>
	<path id="XMLID_1080_" class="st117" d="M188.7,320.4c-0.3-0.3-0.6-0.5-0.8-0.8c1.1-0.7,2.1-1.3,3.2-2c0.4,0.1,0.6,0.3,0.8,0.6
		C191.1,319.4,189.9,320,188.7,320.4z"/>
	<path id="XMLID_1079_" class="st118" d="M219.6,256.1c0.3,0.2,0.5,0.5,0.8,0.7c-1.1,0.7-2.1,1.4-4,2.7
		C217.2,257.1,218.4,256.7,219.6,256.1z"/>
	<path id="XMLID_1078_" class="st119" d="M187.3,262.1c0.3,0.3,0.6,0.5,0.9,0.8c-0.9,1-2,1.7-3.7,2
		C185.1,263.3,186.1,262.6,187.3,262.1z"/>
	<path id="XMLID_1077_" class="st120" d="M230,274.1c0.3,0.2,0.5,0.5,0.8,0.7c-1,1-2.2,1.7-3.9,2C227.6,275,228.9,274.7,230,274.1z"
		/>
	<path id="XMLID_1076_" class="st82" d="M145.2,309.2c-0.3-0.2-0.6-0.5-0.9-0.7c1-0.9,2-1.7,3.7-1
		C147.1,308,146.2,308.6,145.2,309.2z"/>
	<path id="XMLID_1075_" class="st121" d="M191.9,318.3c-0.3-0.2-0.5-0.4-0.8-0.6c0.8-0.5,1.7-1,2.7-1.6
		C194,317.8,192.7,317.9,191.9,318.3z"/>
	<path id="XMLID_1074_" class="st122" d="M252.5,274.6c-1,0.8-1.9,1.7-4.2,1.5c1.8-1.1,3-1.8,4.2-2.5c0.2,0.2,0.3,0.4,0.2,0.6
		C252.6,274.5,252.5,274.6,252.5,274.6z"/>
	<path id="XMLID_1073_" class="st123" d="M246.5,291.9c-0.8,0.5-1.3,1.4-2.7,1.1c0.4-1.4,1.5-1.7,2.6-2.1
		C246.7,291.2,246.8,291.5,246.5,291.9z"/>
	<path id="XMLID_1072_" class="st122" d="M192.4,342.8c0.9-0.6,1.8-1.2,3.4-2.2c-0.9,2.1-2.1,2.5-3.2,3
		C192,343.4,192,343.1,192.4,342.8z"/>
	<path id="XMLID_1071_" class="st124" d="M179.1,339.3c-0.3-0.2-0.5-0.4-0.8-0.6c0.8-0.5,1.7-1,2.7-1.6
		C181.2,338.8,180,338.9,179.1,339.3z"/>
	<path id="XMLID_1070_" class="st125" d="M192.4,342.8c0.1,0.3,0.1,0.5,0.2,0.8c-0.8,0.5-1.5,1.1-2.3,1.6c-0.3-0.2-0.6-0.5-0.9-0.7
		C190.2,343.6,191.2,343,192.4,342.8z"/>
	<path id="XMLID_1069_" class="st126" d="M150.8,304.9c0-0.8,0.5-0.9,0.9-1.1c0.5-0.2,1.1-0.2,0.9,0.5c-0.1,0.4-0.6,0.7-1,0.9
		C151.4,305.3,151.1,305,150.8,304.9z"/>
	<path id="XMLID_1068_" class="st127" d="M269.5,302.6c-0.1,1.5-0.8,2.1-2.3,1.4C267.7,303.1,268.5,302.6,269.5,302.6z"/>
	<path id="XMLID_1067_" class="st128" d="M273.6,288.3c-0.7,0.7-1.5,1.2-2.5,1.4c-0.4-1.6,0.9-1.6,1.7-2.1
		C273.1,287.7,273.4,288,273.6,288.3z"/>
	<path id="XMLID_1066_" class="st129" d="M250.3,288.4c0.3,0.2,0.6,0.5,0.8,0.7c-0.8,0.5-1.5,1-2.3,1.5c-0.8,0.4-0.9-0.1-0.8-0.7
		C248.8,289.3,249.5,288.9,250.3,288.4z"/>
	<path id="XMLID_1065_" class="st94" d="M273.6,288.3c-0.3-0.2-0.5-0.5-0.8-0.7c0.8-0.5,1.5-0.9,2.3-1.4c0.3,0.2,0.6,0.4,0.9,0.6
		C275.1,287.3,274.4,287.8,273.6,288.3z"/>
	<path id="XMLID_1064_" class="st130" d="M256.2,246.1c0-0.3,0-0.6,0-0.9c0.5-0.4,1-0.8,1.6-1.1c0.3,0.2,0.6,0.5,0.9,0.7
		C258,245.5,257.2,246,256.2,246.1z"/>
	<path id="XMLID_1063_" class="st125" d="M252.5,274.6c0-0.3,0-0.6,0-0.9c0.5-0.4,1-0.7,1.6-1.1c0.3,0.2,0.6,0.5,0.9,0.7
		C254.2,274,253.5,274.5,252.5,274.6z"/>
	<path id="XMLID_1062_" class="st46" d="M200.2,326.6c-0.3,0.2-0.7,0.4-1.1,0.5c-0.2,0-0.5-0.3-0.7-0.4c0.4-0.2,0.7-0.5,1.1-0.7
		C199.9,325.9,200.2,326,200.2,326.6z"/>
	<path id="XMLID_1061_" class="st131" d="M188,293.9c0.2-1.5,1.2-1.3,2-2.2C189.9,293.3,189.1,293.5,188,293.9z"/>
	<path id="XMLID_1060_" class="st132" d="M248,289.8c0.3,0.2,0.5,0.5,0.8,0.7c-0.8,0.5-1.5,0.9-2.3,1.4c-0.1-0.3-0.1-0.7-0.2-1
		C246.9,290.6,247.5,290.2,248,289.8z"/>
	<path id="XMLID_1059_" class="st133" d="M177.4,314.4c-0.3-0.2-0.5-0.5-0.8-0.7c0.6-0.6,1.6-1.6,2.1-0.9
		C179.5,313.8,178.1,314,177.4,314.4z"/>
	<path id="XMLID_1058_" class="st99" d="M224.7,386.4c-0.3-0.2-0.6-0.5-0.8-0.7c1.4-1.2,3-2.2,5.7-3
		C227.9,384.9,226.2,385.5,224.7,386.4z"/>
	<path id="XMLID_1057_" class="st134" d="M329.8,352.9c0.3,0.2,0.6,0.4,0.9,0.7c-1.4,1.2-2.8,2.1-5.3,2.9
		C326.7,354.2,328.4,353.7,329.8,352.9z"/>
	<path id="XMLID_1056_" class="st135" d="M326.7,342.9c0,0.3,0,0.6,0,0.9c-1.2,1.2-2.6,2-4.9,2.8C323.2,344.3,325,343.6,326.7,342.9
		z"/>
	<path id="XMLID_1055_" class="st136" d="M202.9,412.6c-0.3-0.3-0.6-0.5-0.9-0.8c1.1-1.1,2.4-1.8,3.9-2.2c0.3,0.3,0.4,0.6,0.1,1
		C205.2,411.6,204.1,412.2,202.9,412.6z"/>
	<path id="XMLID_1054_" class="st137" d="M206,410.6c0-0.3-0.1-0.7-0.1-1c1-1,2.1-2.1,3.7-1.3C208.7,409.5,207.5,410.2,206,410.6z"
		/>
	<path id="XMLID_1053_" class="st138" d="M231.1,382.5c-0.5,0-0.9-0.2-0.7-0.6c0.2-0.4,0.6-0.7,1-0.9c0.3-0.2,0.8-0.1,0.8,0.3
		C232.3,382.1,231.5,382.2,231.1,382.5z"/>
	<path id="XMLID_1052_" class="st126" d="M214.2,404.5c0.4,1.7-0.8,2-2,2.1C212.1,405.2,213.3,405,214.2,404.5z"/>
	<path id="XMLID_1051_" class="st54" d="M324.2,356.5c-0.9,1.8-1.7,2.3-3.6,2.1C321.9,357.9,322.7,357.4,324.2,356.5z"/>
	<path id="XMLID_1050_" class="st139" d="M320.5,347.1c-1.2,1.5-1.9,2-3.1,1.8C317.9,347.8,318.8,347.6,320.5,347.1z"/>
	<path id="XMLID_1049_" class="st46" d="M303.8,357.5c-0.6,0.7-1.1,1.1-1.9,1c0,0-0.1-0.4,0-0.6
		C302.3,357.4,302.8,357.2,303.8,357.5z"/>
	<path id="XMLID_1048_" class="st140" d="M382.3,375.3c0.3,0.3,0.6,0.6,0.9,0.8c-1.1,1-2.4,1.8-3.8,2.2c-0.9,0.4-1-0.1-0.9-0.8
		C379.8,376.8,381,376,382.3,375.3z"/>
	<path id="XMLID_1047_" class="st141" d="M378.5,377.5c0.3,0.3,0.6,0.5,0.9,0.8c-1.1,1-2.4,1.7-3.8,2.2c-0.8,0.4-0.9-0.1-0.9-0.7
		C376,379.1,377.3,378.3,378.5,377.5z"/>
	<path id="XMLID_1046_" class="st142" d="M375.5,437.3c-1,0.7-1.8,1.9-3.8,1.4c1.4-0.9,2.6-1.6,3.8-2.3c0.2,0.2,0.3,0.4,0.2,0.6
		C375.6,437.2,375.5,437.3,375.5,437.3z"/>
	<path id="XMLID_1045_" class="st143" d="M374.8,379.8c0.3,0.2,0.6,0.5,0.9,0.7c-0.8,0.7-1.6,1.4-3,1.3
		C372.8,380.5,373.9,380.3,374.8,379.8z"/>
	<path id="XMLID_1044_" class="st144" d="M368.8,384.2c0.6-1.3,1.3-2.2,2.1-1.7c1.2,0.8-0.3,1-0.7,1.4
		C370,384.1,369.5,384.1,368.8,384.2z"/>
	<path id="XMLID_1043_" class="st145" d="M365.2,386.5c0.4-1.2,1.1-2,1.8-1.7c1.5,0.7,0.1,1-0.4,1.3
		C366.3,386.3,365.9,386.3,365.2,386.5z"/>
	<path id="XMLID_1042_" class="st146" d="M375.5,437.3c0-0.3,0-0.6,0-0.9c0.5-0.4,1-0.7,1.6-1.1c0.3,0.3,0.6,0.5,0.8,0.8
		C377.2,436.8,376.4,437.3,375.5,437.3z"/>
	<path id="XMLID_1041_" class="st46" d="M211.2,358c0,0.7,0.2,1.3,0.9,1.6c-1.2,0.9-2.3,1.9-3.9,2.1c-0.4-0.1-0.7-0.3-0.8-0.8
		C208.3,359.5,209.9,358.9,211.2,358z"/>
	<path id="XMLID_1040_" class="st147" d="M337.1,300.2c0.3,0.2,0.6,0.5,0.9,0.7c-2,0.8-3.4,2.9-5.9,2.4
		C333.5,301.9,335.3,301,337.1,300.2z"/>
	<path id="XMLID_1039_" class="st46" d="M170.7,392.4c-0.3-0.2-0.5-0.5-0.8-0.7c1.3-0.9,2.7-1.7,4-2.6
		C173.7,391.1,172.1,391.6,170.7,392.4z"/>
	<path id="XMLID_1038_" class="st46" d="M207.4,360.9c0.3,0.3,0.5,0.5,0.8,0.8c-1,1.2-2.2,1.8-3.8,1.5
		C205,361.9,205.9,361,207.4,360.9z"/>
	<path id="XMLID_1037_" class="st46" d="M276.4,345.1c-0.2-0.2-0.5-0.4-0.7-0.7c0.7-0.8,1.5-1.2,2.5-1.4
		C278.5,344.5,277.2,344.6,276.4,345.1z"/>
	<path id="XMLID_1036_" class="st148" d="M340.2,322.5c0.1,0.4,0.1,0.8,0.2,1.2c-0.4,0.5-0.8,1.1-1.7,1
		C338.6,323.6,339.6,323.2,340.2,322.5z"/>
	<path id="XMLID_1035_" class="st46" d="M315.5,376.8c-0.7,0.9-1.5,1.4-2.8,1.4c-0.1-1.4,1.3-1.6,1.8-2.3
		C315.4,375.4,315.6,375.9,315.5,376.8z"/>
	<path id="XMLID_1034_" class="st149" d="M315.5,376.8c-0.3-0.3-0.7-0.6-1-0.9c0.1-0.2,0.2-0.4,0.3-0.6c1-0.2,2-0.5,3-0.7
		c0,0.3,0,0.6,0,1C317.2,376.3,316.5,376.7,315.5,376.8z"/>
	<path id="XMLID_1033_" class="st150" d="M333.5,442c0.3,0.3,0.6,0.6,0.8,0.8c-0.6,0.5-1.5,1.4-2,0.8
		C331.6,442.7,332.8,442.4,333.5,442z"/>
	<path id="XMLID_1032_" class="st151" d="M309.6,400.9c-0.3-0.3-0.6-0.6-0.9-0.9c0.6-0.6,1.5-1.6,2.1-0.9
		C311.5,400,310.2,400.4,309.6,400.9z"/>
	<path id="XMLID_1031_" class="st46" d="M247.3,450.3c-0.3-0.3-0.6-0.6-0.9-0.9c0.9-0.6,1.7-1.2,3-2.1
		C249.2,449.1,248.2,449.7,247.3,450.3z"/>
	<path id="XMLID_1030_" class="st152" d="M264.5,443.5c0.3,0.3,0.5,0.5,0.8,0.8c-0.8,0.5-1.5,1-2.4,1.6
		C262.5,444.3,263.8,444.1,264.5,443.5z"/>
	<path id="XMLID_1029_" class="st153" d="M243.5,490.8c-0.3-0.3-0.6-0.6-0.9-0.8c0.8-0.5,1.6-1,2.5-1.6
		C245.4,490,244.2,490.2,243.5,490.8z"/>
	<path id="XMLID_1028_" class="st46" d="M253.3,324.4c0.3,0.2,0.5,0.5,0.8,0.7c-0.9,0.6-1.7,1.2-3.1,2.2
		C251.3,325.4,252.3,324.8,253.3,324.4z"/>
	<path id="XMLID_1027_" class="st112" d="M212.7,418.7c-0.3-0.3-0.6-0.5-0.9-0.8c1.1-1,2.4-1.7,3.8-2.2c0.9-0.4,1,0.1,0.9,0.8
		C215.2,417.2,214,418,212.7,418.7z"/>
	<path id="XMLID_1026_" class="st154" d="M222.5,412.7c-0.9,0.7-1.7,1.5-2.9,1.5c0-1.9,1.8-1.9,2.8-2.6
		C222.8,412,222.8,412.3,222.5,412.7z"/>
	<path id="XMLID_1025_" class="st155" d="M216.5,416.4c-0.3-0.3-0.6-0.5-0.9-0.8c0.8-0.8,1.6-1.4,2.8-1.3
		C218.6,415.8,217.4,416,216.5,416.4z"/>
	<path id="XMLID_1024_" class="st156" d="M222.5,412.7c0-0.4,0-0.7-0.1-1.1c0.5-0.6,1.2-1,2.1-1
		C224.6,412.1,223.5,412.3,222.5,412.7z"/>
	<path id="XMLID_1023_" class="st157" d="M219.4,469.3c-0.2-0.3-0.4-0.6-0.6-0.9c1.3-0.7,2.3-1.9,3.9-1.7
		C222.1,468.2,220.7,468.7,219.4,469.3z"/>
	<path id="XMLID_1022_" class="st158" d="M223.2,466.8c0-1.6,1.4-1.8,2.4-2.3C225.7,466.2,224.5,466.5,223.2,466.8z"/>
	<path id="XMLID_1021_" class="st112" d="M273.7,314.6c-1.5,0.9-3.1,1.9-4.6,2.8c-0.4-2.9,2.6-2.3,3.7-3.6
		C273.1,314,273.6,314.1,273.7,314.6z"/>
	<path id="XMLID_1020_" class="st112" d="M273.7,314.6c-0.3-0.3-0.6-0.5-0.9-0.8c1.2-0.8,2.5-1.5,3.7-2.3c0.3,0.3,0.6,0.6,1,0.9
		C276.4,313.4,275.1,314.1,273.7,314.6z"/>
	<path id="XMLID_1019_" class="st159" d="M362.7,283.7c0,0.3,0,0.5,0,0.8c-1,1.2-1.8,2.6-3.7,1.6
		C360.1,285.1,361.3,284.2,362.7,283.7z"/>
</g>
</svg>
