<?xml version="1.0" encoding="utf-8"?>
<!-- Generator: Adobe Illustrator 19.0.0, SVG Export Plug-In . SVG Version: 6.00 Build 0)  -->
<svg version="1.1" id="Layer_1" xmlns="http://www.w3.org/2000/svg" xmlns:xlink="http://www.w3.org/1999/xlink" x="0px" y="0px"
	 viewBox="0 0 612 792" style="enable-background:new 0 0 612 792;" xml:space="preserve">
<style type="text/css">
	.st0{fill:#272626;}
	.st1{fill:#FFFFFF;}
	.st2{fill:#B0CCDD;}
	.st3{fill:#F47A20;}
	.st4{fill:#FFFFFE;}
	.st5{fill:#FFFEFE;}
	.st6{fill:#FEFEFD;}
	.st7{fill:#FFFEFC;}
	.st8{fill:#FFFEFD;}
	.st9{fill:#FEFDFC;}
	.st10{fill:#FEFDFB;}
	.st11{fill:#FEFCFA;}
	.st12{fill:#FEFCFB;}
	.st13{fill:#FDFCFA;}
	.st14{fill:#FFFDFC;}
	.st15{fill:#FDFAF7;}
	.st16{fill:#FCFAF8;}
	.st17{fill:#FEFBF7;}
	.st18{fill:#FFFDFB;}
	.st19{fill:#FEFBF8;}
	.st20{fill:#FCFCFC;}
	.st21{fill:#FDFBF8;}
	.st22{fill:#FDFBF9;}
	.st23{fill:#FFFDFA;}
	.st24{fill:#FFFCFA;}
	.st25{fill:#FEFAF7;}
	.st26{fill:#FDF8F2;}
	.st27{fill:#FDF9F6;}
	.st28{fill:#FEFAF6;}
	.st29{fill:#FBF7F3;}
	.st30{fill:#FBF6F2;}
	.st31{fill:#FCF7F2;}
	.st32{fill:#FEF9F4;}
	.st33{fill:#FEF9F5;}
	.st34{fill:#FEF8F3;}
	.st35{fill:#FBF6F1;}
	.st36{fill:#FEF8F2;}
	.st37{fill:#FDF7F1;}
	.st38{fill:#FDF7F0;}
	.st39{fill:#FCF4EB;}
	.st40{fill:#FDF5EE;}
	.st41{fill:#FBF3EA;}
	.st42{fill:#FAF2E8;}
	.st43{fill:#F7F1EC;}
	.st44{fill:#FDF6EF;}
	.st45{fill:#FCF4EA;}
	.st46{fill:#FCF2E6;}
	.st47{fill:#F4F7F9;}
	.st48{fill:#FAF8F5;}
	.st49{fill:#FBF0E3;}
	.st50{fill:#FCF2E8;}
	.st51{fill:#FCF3EA;}
	.st52{fill:#FAEDDD;}
	.st53{fill:#F8EAD9;}
	.st54{fill:#F6F3F0;}
	.st55{fill:#EDB473;}
	.st56{fill:#FAEAD9;}
	.st57{fill:#F3CDA2;}
	.st58{fill:#FBEEE0;}
	.st59{fill:#FAECDC;}
	.st60{fill:#E7DACA;}
	.st61{fill:#F2F5F8;}
	.st62{fill:#F2F6F9;}
	.st63{fill:#FBEFE2;}
	.st64{fill:#F9E6D2;}
	.st65{fill:#F5EDE4;}
	.st66{fill:#E4D5C5;}
	.st67{fill:#E2DED9;}
	.st68{fill:#FDF8F3;}
	.st69{fill:#F9E6D1;}
	.st70{fill:#F6DEC2;}
	.st71{fill:#F9EBDA;}
	.st72{fill:#DED1C4;}
	.st73{fill:#ECE6E0;}
	.st74{fill:#F5D8B6;}
	.st75{fill:#FAEEDF;}
	.st76{fill:#F6DCBE;}
	.st77{fill:#F5D8B7;}
	.st78{fill:#D9BEA0;}
	.st79{fill:#CDB69E;}
	.st80{fill:#F7DFC4;}
	.st81{fill:#272726;}
	.st82{fill:#292929;}
	.st83{fill:#272727;}
	.st84{fill:#292928;}
	.st85{fill:#282727;}
	.st86{fill:#EEB87B;}
	.st87{fill:#AAA198;}
	.st88{fill:#EDB87B;}
	.st89{fill:#EEBB81;}
	.st90{fill:#EDB474;}
	.st91{fill:#EDB576;}
	.st92{fill:#ECB373;}
	.st93{fill:#ECB473;}
	.st94{fill:#EDB779;}
	.st95{fill:#EDB678;}
	.st96{fill:#EEB87C;}
	.st97{fill:#ECB577;}
	.st98{fill:#282828;}
	.st99{fill:#F3F7F9;}
	.st100{fill:#E4EBF1;}
	.st101{fill:#E0E9EF;}
	.st102{fill:#E0B37E;}
	.st103{fill:#D7E4EC;}
	.st104{fill:#C2D7E4;}
	.st105{fill:#DBE3E6;}
	.st106{fill:#FDF9F4;}
	.st107{fill:#F6DBBD;}
	.st108{fill:#FAEBDB;}
	.st109{fill:#F8E5CF;}
	.st110{fill:#F9E8D5;}
	.st111{fill:#F7DEC3;}
	.st112{fill:#FAE9D7;}
	.st113{fill:#F9EAD8;}
	.st114{fill:#F6DFC3;}
	.st115{fill:#FAEEE0;}
	.st116{fill:#F6DEC1;}
	.st117{fill:#F0C38F;}
	.st118{fill:#F0C48F;}
	.st119{fill:#F9E8D4;}
	.st120{fill:#F0C795;}
	.st121{fill:#F0C693;}
	.st122{fill:#F1CA9C;}
	.st123{fill:#F1C899;}
	.st124{fill:#FBEFE1;}
	.st125{fill:#FFFCF8;}
	.st126{fill:#FAEBDA;}
	.st127{fill:#F9E7D2;}
	.st128{fill:#F8E2C9;}
	.st129{fill:#F6DABB;}
	.st130{fill:#F9E9D7;}
	.st131{fill:#FDFBF7;}
	.st132{fill:#F8E2CB;}
	.st133{fill:#F9E9D6;}
	.st134{fill:#FEFEFE;}
	.st135{fill:#FAF9F7;}
</style>
<g id="XMLID_34_">
	<path id="XMLID_1548_" class="st0" d="M413.2,363.9c0,52.9,0,97.8,0,142.7c0,8-1,15.9-3.4,23.6c-1.2,3.8-4.4,6.3-7.6,8.5
		c-4.7,3.3-10,5-15.7,5.2c-49.8,2-99.7,0.4-149.6,0.4c-23.6,0-47.2,1.8-70.8,2.3c-16.2,0.3-32.5,0.2-48.5-3.3
		c-9.1-2-14.8-7.9-17.6-16.5c-3.7-11.4-2.6-23.2-2.2-34.9c0.1-4.1,0.5-8.2,0.5-12.4c0-56,0.2-112-0.1-168
		c-0.1-20.7-1.7-41.4-2.4-62.2c-0.5-13.2,0.2-26.5,2.3-39.6c2.2-13.8,9.7-19.7,22.6-23.3c15.8-4.4,31.9-3.3,48-2.1
		c8,0.6,15.9,1.2,23.9,1.9c1.8,0.1,2.9-0.2,4-1.9c1.7-2.7,4.5-3.6,7.6-4.2c6.1-1.1,12.2,0.6,18.3-0.5c2.3-0.4,4.3-1,6.3-2
		c5.2-2.7,10.3-5.5,15.6-8c7.2-3.4,14.5-3.1,21.7,0.1c1.5,0.7,3,1.3,4.3,2.2c10.1,6.4,20.8,10,32.9,8.3c4.5-0.6,8.7,0.9,11.6,4.8
		c1.3,1.7,2.9,1.2,4.4,1.1c11.8-0.8,23.7-1.8,35.5-2.5c11.6-0.7,23.3-0.4,34.6,2.7c7.6,2.1,14.7,5.1,19.4,12.1
		c3.7,5.4,4.4,11.6,5.1,17.7c3.3,30.2,1.7,60.4,0.4,90.6C413.3,328.5,413,350.2,413.2,363.9z"/>
	<path id="XMLID_1547_" class="st1" d="M203.4,224.2c4.4,0.7,8.9,0.1,13.3,0.4c0,2.1-2.1,2-3.1,3.1c2-1.1,4-2.5,6.4-3.1
		c8.3-0.1,16.5-0.2,24.8-0.3c1.7,0,3.4-0.3,6.1,0.6c-7.3,5.5-14.3,9.9-21.4,14.3c-0.8,0.5-1.5,1.2-2.4,1.6c-0.3,0-0.3,0.1-0.2,0.3
		c0.1-0.2,0.3-0.3,0.5-0.4c0.8-0.5,1.5-1.1,2.4-1.6c6.7-4.3,13.7-8.1,20.6-12.1c1.7-1,3.6-1.6,5.4-2.3c4.1-0.1,8.1-0.2,12.2-0.3
		c0.7,0,1.6-0.4,2,0.5c0.3,0.8-0.5,1.3-1.1,1.8c-2.9,2.2-6,3.9-9,5.9c-3.9,2.5-7.9,5.1-11.9,7.6c-0.8,0.4-1.5,0.9-2.3,1.2
		c0.9-0.4,1.8-0.9,2.7-1.3c7.4-5,15.4-9.1,23-13.7c1.3-0.8,2.8-1.1,4.1-1.6c4.4-0.6,8.8-0.1,13.2,0.4c-0.3,2-2,2.8-3.4,3.7
		c-7.1,4.7-14.2,9.1-21.5,13.5c-1.1,0.8-2.4,1.3-3.4,2.1c-0.3,0.2-0.5,0.5-0.9,0.5c0.8,0.1,1-0.7,1.5-0.9c1.1-0.4,2-1.2,3.1-1.7
		c8.5-5.3,17.2-10.3,25.9-15.3c1.2-0.7,2.5-0.9,3.8-1.4c4.3-0.2,8.7,0.4,13-0.6c3.2-0.8,6-2.2,8.2-4.8c1.4-0.4,2.4-1.5,3.7-2.1
		c5.1-0.3,10.2-1.1,15.3-0.7c-0.2,2-2,2.8-3.4,3.7c-12.6,7.8-24.9,16-37.6,23.5c-1.4,0.7-2.6,1.7-3.9,2.4c-1,0.8-2.3,1.2-3.3,2.1
		c-0.3,0.2-0.5,0.5-0.9,0.5c0.8,0.2,1-0.7,1.5-0.9c1.1-0.4,2-1.2,3-1.7c1.3-0.8,2.6-1.7,3.9-2.4c14.4-8.8,29.1-17.1,43.7-25.5
		c1.3-0.8,2.7-1.2,4.2-1.6c4.2-0.1,8.5-0.4,12.7,0.4c-0.2,1.3-1.2,1.9-2.2,2.4c-14.9,9.2-29.5,18.7-44.6,27.4
		c-0.8,0.4-1.4,0.9-2.1,1.4c0.8-0.5,1.6-1.1,2.5-1.5c15.5-9.4,31.2-18.4,46.9-27.4c1.5-0.9,3.1-1.5,4.8-2c3.9-0.3,7.7,0.2,11.5,1.2
		c-0.2,1.8-1.7,2.4-2.9,3.1c-14.4,8.5-28.2,17.7-42.7,26c-0.7,0.4-1.5,0.8-2.8,1.8c1.5-0.9,2.3-1.4,3.2-1.8
		c15.3-9.2,30.7-18.1,46.1-27c1-0.6,2.1-0.8,3.2-1c5,1.4,4.2,5.6,4.5,9.3c-3,3.7-7.6,5.1-11.5,7.4c-26.2,15.4-52.9,30-78.4,46.7
		c-1.4,0.7-2.7,1.5-4,2.4c-0.8,0.5-1.5,1-2.3,1.5c-1.3,0.5-2.4,1.3-3.6,1.8c-3.1,1.1-6.4,0.8-9.6,1c-2.8,0.1-5.7,0.3-8.7,1.8
		c1.4,1.7,3.1,1.2,4.5,1.2c17.2-0.3,34.4,1.3,51.6,0.8c1.1,0,2.2,0,3.3,0.3c2.6,1.5,0.5,2.5-0.5,3.2c-3,2-6.1,3.8-9.1,5.7
		c-4.7,3-9.5,5.8-14.2,8.7c-1.4,0.7-2.6,1.7-4,2.4c-1.1,0.8-2.3,1.2-3.3,2.1c-0.3,0.2-0.5,0.5-0.9,0.5c0.8,0.2,1-0.7,1.5-0.9
		c1.1-0.4,2-1.2,3-1.7c1.3-0.8,2.6-1.7,4-2.4c10.1-6,20-12.4,30.7-17.6c3.6-0.5,7.2-0.2,10.7-0.3c1.2,0.1,2.5,0,3.6,0.5
		c1.3,0.9,0.6,1.7-0.3,2.3c-1.2,0.8-2.5,1.6-3.8,2.3c-1.3,0.7-2.6,1.3-3.8,2.2c-0.3,0-0.3,0.2-0.2,0.4c0.1-0.2,0.3-0.3,0.5-0.4
		c1.1-1,2.5-1.4,3.7-2.2c3-1.8,5.8-3.7,8.8-5.3c1-0.4,2.1-0.9,3.2-0.9c2.4-0.1,3.8-1.4,4.6-3.6c7.5-4.7,15.1-9,22.9-13.2
		c3-1.7,3.6-1.3,3.6,2.2c0,2.5,0,5,0,7.4c-0.7,2-2.5,2.7-4.1,3.6c-18.5,10.8-37.3,21.3-55.6,32.4c-11,6.7-21.7,13.8-32.8,20.2
		c-0.8,0.4-1.5,0.9-2.2,1.4c0,0-0.1,0.1-0.1,0.1s0.2-0.1,0.3-0.1c0.7-0.6,1.5-1,2.3-1.4c29.2-17.6,59-34.2,88.5-51.5
		c1.2-0.7,2.4-1.4,3.9-1c0,0.7,0.1,1.5,0.1,2.2c-0.5,1.9,0.2,4-0.4,5.9l0,0c-2.5,3.3-6.4,4.6-9.7,6.6c-4.8,3-9.7,5.9-14.7,8.7
		c-1.7,0.8-3.2,2-4.9,2.9c-1,0.4-1.9,1-2.4,1.5c0.7-0.3,1.4-1.1,2.4-1.4c1.8-1.1,3.5-2.3,5.4-3.2c6.8-4.1,13.7-8.2,20.6-12.2
		c3.1-1.8,3.5-1.5,3.5,2.1c0,1.2-0.1,2.5,0,3.7c-0.1,0.6-0.2,1.2-0.3,1.7c-1,1.7-2.6,2.6-4.2,3.5C358,322,340.2,334,321.6,344.8
		c-1.2,0.6-2.3,1.4-3.5,2.2c-1.3,0.7-2.6,1.4-3.8,2.2c-0.3,0.2-0.5,0.5-0.9,0.5c0.8,0.1,1-0.7,1.5-0.9c1.1-0.4,2-1.2,3.1-1.6
		c1.3-0.9,2.5-1.8,3.9-2.4c18.4-11.1,37.1-21.7,55.6-32.5c1-0.6,2.1-1.4,3.5-0.8c0.4,5.3,0.1,10.6-0.1,16c-0.3,0.5-0.7,1-1.2,1.3
		c0.4,0.2,0.8-0.4,1.2,0c0,2.5,0,5.1-0.1,7.6c-0.5,1.4-1.6,2.1-2.8,2.9c-19.9,12.5-39.9,25.1-59.7,37.7c-0.9,0.6-1.9,1.3-3,1.5
		c-13.4,0.6-26.7,0.1-40.1,0.3c-3.5,0-7-0.1-10.5,0.1c-1.6,0.1-3.5,0.2-3.6,2.4c-0.1,2.5,2,2.6,3.7,2.7c10.4,0.2,20.7,0,31.1,0.1
		c2,0,4-0.2,6,0.3c2.5,1.2,1,2.3-0.3,3.1c-3,1.9-6.1,3.7-9.1,5.5c-0.7,0.4-1.5,0.8-1.9,1.2c0.6-0.4,1.4-0.9,2.2-1.3
		c5.3-2.9,10-6.9,16-8.6c14.1-0.3,28.2-0.5,42.4,0c1.3,0.4,2.1,1,0.8,2.3c-1,1-2.1,1.7-3.3,2.4c-14.5,9.1-28.8,18.4-43.5,27.2
		c-1.4,0.7-2.6,1.7-4,2.4c-0.7,0.4-1.4,0.9-2.1,1.4c-0.7,0.2-1.3,0.7-2,1.4c0.7-0.5,1.2-1,1.8-1.2c0.9-0.4,1.6-1.2,2.5-1.5
		c1.3-0.8,2.6-1.7,4-2.4c17.5-10.8,35.5-20.6,53.1-31.3c5.9-3.6,11.7-7.2,17.6-10.6c1.2-0.7,2.3-2,4.1-1.2c0,2.8-0.1,5.6-0.1,8.3
		c0.2,0.6-1.5,1.3,0,1.9c0.1,2.7,0.3,5.4-0.2,8c0.5,0.5-1.4,0.9,0,1.4c0.3,2.7,0.3,5.3-0.3,8c-0.4,0.9-1.5,1.2-2.1,1.8
		c0,0-0.1,0.1-0.1,0.1s0.3-0.1,0.3-0.1c1.7-0.9,2.3-0.4,2.1,1.4c-0.1,2-0.2,4-0.3,6c-2,2.9-5.2,4.2-8,6c-5.3,3.5-10.8,6.7-16.2,10
		c-1.2,0.8-2.6,1.3-3.7,2.2c-0.3,0-0.3,0.2-0.2,0.4c0.1-0.2,0.2-0.3,0.5-0.4c1.1-1,2.5-1.4,3.7-2.2c6.7-4.3,13.6-8.1,20.4-12.2
		c1-0.6,2.1-1.4,3.5-0.8c0,2.7,0,5.3,0,8c-3.6,4-8.5,6-12.8,9c-2.6,1.9-5.6,3.3-8.3,5c-0.7,0.4-1.4,0.9-2,1.4
		c-0.2,0.2-0.4,0.2-0.7,0.1c0.1,0.3,0.3,0.3,0.6,0c0.7-0.6,1.5-1.1,2.3-1.6c5.7-3.4,11.3-7,17.1-10.2c1.1-0.6,2.1-1.8,3.7-1.1
		c0,2.7,0,5.3,0,8c-1.9,2.8-5.1,3.8-7.7,5.7c-1.9,1.4-3.9,2.6-5.9,3.8c-0.7,0.4-1.4,0.9-2.1,1.4c-0.7,0.2-1.3,0.7-2,1.4
		c0.7-0.6,1.2-1,1.8-1.2c0.9-0.5,1.7-1.2,2.6-1.6c3.3-2.1,6.6-4.2,10-6.1c1-0.6,2-1.5,3.3-0.9c0.3,3,0.4,5.9,0,8.9
		c-1.5,2.4-4.1,3.2-6.2,4.6c-3.5,2.2-7,4.3-10.5,6.4c-0.7,0.4-1.5,0.8-1.9,1.3c0.6-0.3,1.4-1,2.3-1.4c4.2-2.8,8.7-5.1,13-7.8
		c1-0.6,2.1-1.4,3.4-0.8c0.8,8.2,0.6,16.4,0.7,24.6c-3.4,4.6-8.6,7.1-12.9,10.6c-0.7,0.6-1.7,1-2.3,1.5c4.1-2.7,8.6-5.1,13-7.7
		c0.8-0.5,1.7-1.2,2.7-0.4c0.2,2.1,0.3,4.1,0.5,6.2c0.4,2.5-1.1,3.9-2.8,5.3c-1.3,1-2.6,1.9-3.7,3c2.1-1.1,4-2.9,6.7-2.7
		c0.3,7,0.2,14.1-2.2,20.8c-1.9,5.1-4.4,6.8-9,6.5c-0.7-0.2,0.5-2.4-1.4-1.3c-1,0.6-2.2,0.8-3.3,1.3c-4.6,0.6-9.3,0.7-14,0.5
		c0.1-2,1.9-2.8,2.8-3.9c-2.8,1.2-5.3,3.5-8.6,4c-4.3,0-8.5,0-12.8,0c-0.3-1.4,0.9-1.9,1.7-2.6c2.9-2.5,5.8-5.1,8.6-7
		c-5.9,3-11.5,7.4-18.3,9.7c-4.3,0-8.5,0-12.8,0c-0.3-1.6,1.1-2.1,2-2.8c5.9-4.3,11.4-9.1,17.1-12.8c-7.8,4.7-16.1,9.5-24.4,14.2
		c-1.2,0.7-2.6,0.9-3.8,1.3c-4.8,0-9.7,0-14.5,0c-3.9-0.2-7.9-0.4-11.8-0.2c-4.4,0-8.8,0-13.1,0c-0.9,0-1.6-0.2-1-1.3
		c0.6-1.1,1.8-1.7,2.8-2.4c6.5-4.4,13-8.8,19.7-12.8c0.7-0.4,1.4-0.9,2.3-1.5c-1,0.6-1.7,1.2-2.6,1.5c-7.9,5.2-16.3,9.6-24.3,14.5
		c-1.3,0.8-2.8,0.8-4.2,1.5c-4.3,0.4-8.6,0.2-12.8,0c0-1.8,1.6-2.4,2.8-3.2c5.1-3.5,10.5-6.6,15.7-9.9c0.3-0.2,0.6-0.4,1-0.5
		c-0.5,0-0.9,0.4-1.3,0.6c-7.6,4.6-14.8,9.7-23.1,12.9c-4.3,0-8.5,0-12.8,0c0-2,1.8-2.6,3.1-3.4c7-4.5,14.1-9,21.2-13.3
		c1.1-0.7,2.3-1.3,3.3-2c-0.1,0,0.1-0.1,0-0.1c-0.2,0.1-0.4,0.3-0.6,0.5c-1.1,0.4-2,1.2-3.1,1.7c-8.3,5.5-17.1,10-25.5,15.2
		c-1.3,0.8-2.8,0.9-4.2,1.5c-4.3,0-8.6-0.1-12.9-0.1c0.2-2,1.9-2.5,3.2-3.3c8.7-5.6,17.3-11.1,26.2-16.4c1.1-0.7,2.3-1.3,3.3-2
		c-0.1,0,0.1-0.1,0-0.1c-0.2,0.1-0.4,0.3-0.6,0.5c-1.1,0.4-2,1.2-3.1,1.7c-10.1,6.3-20.4,12.2-30.7,18.2c-1.3,0.8-2.8,0.9-4.2,1.4
		c-4.3,0-8.5,0-12.8,0c0.1-1.7,1.8-1.7,2.6-2.6c2.1-1,3.8-2.5,5.9-3.5c0.3-0.2,0.8-0.2,1-0.7c-0.2,0.3-0.5,0.4-0.8,0.6
		c-2.2,1-4.1,2.7-6.3,3.7c-1.6,1.3-3.4,2-5.4,2.5c-4.5,0-9.1,0-13.6,0c-0.3-1,0.1-1.8,0.9-2.2c8.7-5.1,17.3-10.3,26.1-15.1
		c2.3-1.2,4.7-1.6,7.2-1.5c2,0.1,4,0.3,5.9-0.7c1.8-0.8,3.8-1.4,5.5-2.4c3.5-2,6.3-4.6,7.3-8.6c1.3-5.5,2.2-11,0.9-16.7
		c-0.2-0.9,0-2.2-1.5-2.1c-1.1,0.1-1.6,1-2,2c-0.4,1.1,0,2.2,0,3.3c-0.1,11.9-4,19.1-17.7,19.6c-7.5,0.3-15,0.2-22.4-1.2
		c-1.6-2.4,0.9-2.7,1.9-3.4c6.2-4.3,12.8-8.2,19.2-12.2c5.7-3.6,11.4-7.1,17.2-10.4c0.2,0,0.3-0.2,0.3-0.4c-0.1,0.2-0.3,0.3-0.5,0.5
		c-14.9,8.9-29.8,17.7-45,26.1c-5.2,0.2-10-3.2-12-8.7c-1.4-3.8-1.7-7.7-0.8-11.7c0.5-1.1,1.5-1.7,2.4-2.2
		c17.3-10.7,34.4-21.9,51.8-32.5c1.7-0.5,2.8-2.4,4.8-2c1.1,1.6-0.1,2.6-1,3.5c-8.3,8.5-16.7,16.9-25.3,25c-2.1,2-3.9,1.5-5.9-0.3
		c-1.2-1.2-2.5-3.5-4.6-1.3c-1.8,1.9-0.8,3.6,0.7,5.3c5.6,6.4,5.8,6.4,11.7,0.5c10.5-10.5,21-21,31.5-31.5c1.1-1.1,2.2-2,2.9-3.4
		c0.5-1.1,0.8-2.2-0.1-3.1c-1-1.1-2.1-0.3-3,0.4c-1,0.7-1.9,1.7-3,2.2c-3.2,1.5-6.2,3.3-9.3,5c-16.3,10.2-33.2,19.4-49.8,29.1
		c-1.2,0.7-2.6,1.7-4,0c-0.7-7.2-1.8-14.3-0.3-21.5c1.2-5.9,5.5-8.7,10.8-10.2c6.6-1.8,13.3-1.3,20.1-0.8c1.5,0.1,3,0.5,4.4-0.1
		c1.4-0.5,2.4-1.5,2.3-3.1c-0.1-1.7-1.6-1.8-2.8-1.8c-3.4,0-6.7-0.2-10-1.2c-1.8-1.3-0.4-2.2,0.5-2.8c1.8-1.3,3.7-2.5,5.6-3.6
		c2.1-1,3.9-2.3,5.7-3.7c5.6-3.3,10.9-7.4,16.9-10.1c9.4-4.7,13.1-12.4,11.5-24.1c-0.2-1.2-0.5-2.4-0.5-3.7c0-0.2,0.1-0.5,0.1-0.7
		c0-0.5,0.5-0.9,0.4-1.4c-0.3,0.4-0.7,0.6-1.2,0.7c-2.5,0.1-4.7,0.7-5.7,3.3c-7.5,5-15.5,9.3-23.4,13.8c-4.9,2.8-9.7,6-14.9,8.4
		c-4.1,0.6-8.2,0.6-11.6-2.3c-0.4-3.3,2.9-3,4.3-4.6c1.1-0.4,2-1.2,3-1.9c-1,0.5-1.8,1.3-2.8,1.6c-2.3,1.1-3.9,3.4-6.8,3.1
		c-2.8-1.6-4-4-4-7.2c1.5-2.8,4.6-3.7,7-5.4c3.4-2.3,7-4.3,10.4-6.7c1.3-0.9,2.7-1.8,4.5-1.4c5.9,4.4,4.8,4.7,10.8-1.2
		c5.7-5.6,11.3-11.3,16.9-16.9c1.6-1.6,3.3-3.1,5.2-4.3c1.1-1,3.3-0.8,3.1-3.1c1.7-3.6,5.2-5.6,7.7-8.6c1.2-1.4,3.8-3,2-4.9
		c-2-2-3.5,0.8-4.8,2c-7.9,7.8-15.7,15.7-23.6,23.5c-1.2,1.2-2.4,2.6-4,3.3c-3,1-5.3,3.5-8.4,4.3c-6.6-2.7-6.6-2.7-7.4,4.3
		c-5.3,4.3-11.4,7.4-17.1,10.9c-1.1,0.7-2.4,0.9-3.2-0.6c-0.9-3.5-0.3-7.1-0.4-10.7c-0.7-4.7,1.4-7.7,5.7-9.7c4.2-2,8-4.7,11.9-7.1
		c1.8-0.8,3.3-2.1,5-3c0.9-0.4,1.8-1,2.7-1.7c-0.9,0.5-1.7,1.2-2.6,1.5c-1.8,1-3.5,2.3-5.4,3.2c-4.2,2.8-8.6,5.3-13,7.8
		c-1.4,0.8-3,2.2-4.6,0.2c-0.6-3.1-1-6.2,0.5-9.1c7.7-5.4,15.7-10.4,23.8-15.2c1.4-0.9,3.1-0.9,4.7-0.9c2,0,4,0,6,0
		c1.1,0,2.4,0.2,2.9-1.1c0.6-1.3-0.8-1.9-1.5-2.7c-1.9-2.3,0.2-3.1,1.6-4c6.2-4.2,12.5-8.1,18.9-11.9c1.3-0.8,2.5-1.6,3.8-2.3
		c1.6-0.9,3-2.2,4.7-3c0.2-0.1,0.6-0.1,0.6-0.2c0.1-0.4,0-0.3-0.3,0c-0.3,0.4,0.1-0.1-0.3,0.2c-1.9,0.8-3.3,2.2-5.1,3.1
		c-9.1,5.6-18.4,10.9-27.7,16.3c-1,0.6-2,1.1-3.1,1.3c-4.9,0.3-9.8,0.6-14.7-0.1c-2.5-2.7,1-2.8,1.8-4.1c0.6-0.6,1.3-1.2,2.1-1.5
		c1.6-0.3,2.5-1.6,3.6-2.5c5.7-3.5,11.7-6.5,17.3-10.2c2.8-1.9,6.1-1.9,9.2-2.7c3.6-1,7.2-1.6,10.3-4.1c5.7-4.6,6.4-18.1,4.6-23.2
		c-0.5-1.4-1.6-1.9-2.9-1.7c-1.5,0.3-2.1,1.3-1.9,2.7c0.3,2.3,0,4.5-0.4,6.7c-1.5,9-6.9,15-16,15.7c-8.3,0.7-16.6,0.9-24.9,0
		c-2.2-1.7,1.3-1.8,0.8-2.9c0.4-0.4-0.4-0.5,0-0.2c0.1,0.1,0.1,0.2,0,0.4c-0.6,1-1.8,1.3-2.6,2c-6.7,0.9-12.7-3.3-14.4-9.7
		c0.1-1.1,1.1-1.6,1.8-2.2c-0.1,0,0.4-0.2,0,0c-0.4,0.2,0.1-0.2-0.3,0.2c-0.6,0.4-1.3,0.4-1.9,0c-1.6-2.9-0.9-5.9-0.7-8.9
		c0.1-0.2,0.1-0.5,0.3-0.7c1.3-1.4,1.3-1.4-0.2-2.5c-0.8-7.7-0.9-15.5-0.1-23.2c0.7-6.4,5.1-10.4,11.4-12c6.4-1.6,12.9-1.3,19.4-0.8
		c1.5,0.1,3,0.5,4.5,0.1c0.9-0.2,1.7-0.7,1.8-1.7c0.1-1.1-0.9-1.5-1.7-1.6c-10.5-1-21-2.4-31.1,1.4c-7.8,2.9-9.9,9.7-10.5,17.2
		c-0.3,3.9,0,7.7-0.1,11.6c-0.1,1.8-0.5,3.4-2.2,4.5c-6.6,4.1-13.3,7.9-20.1,11.6c-0.8,0.4-1.6,0.7-2.5,0.4c0-5.6,0-11.1,0-16.7
		c1.6-2.9,4.6-3.9,7-5.6c0.6-0.4,1.2-0.6,1.7-1.3c-0.6,0.8-1.4,1.1-2.2,1.5c-2.2,0.9-3.7,3.5-6.5,2.8c0-3.1,0-6.2,0.1-9.4
		c2.7-3.8,7.5-4.6,10.4-7.1c-2.4,1.1-4.9,3.1-7.8,4.5c-0.8,0.4-1.5,1.4-2.6,0.6c0-2.9,0-5.8,0-8.7c3.2-4.8,8.2-7.4,11.9-10.8
		c-2.5,1.4-5.4,3.2-8.4,4.8c-1.1,0.6-2,1.5-3.4,1c0-3.4,0-6.7-0.1-10.1c0.5-1.7,1.4-3.1,3-4.2c-1.1,0-2,1-3,0.2
		c-0.1-1.6-0.1-3.2-0.2-4.8c-0.5-4.8,1.5-8.1,5.9-10c0.9,0.7,0.4,1.8,0.5,2.9c4.3-1.9,7.7-5.1,12.2-6.1c3.6-0.3,7.1-0.4,10.7,0
		c1,1.5-0.2,2.4-1,3.2c-3,3.1-6,6.2-8.5,9.2c5.6-3.2,11.6-6.7,17.6-10.2c1.2-0.7,2.6-0.8,3.8-1.4c3.8-0.3,7.5,0.6,11.3,0.9
		c0.2,1.2-0.6,1.8-1.4,2.5c-5.9,4.8-11.5,9.9-16.7,13.8c7.2-4.4,15.5-9,23.7-13.8c1.4-0.8,3-1.1,4.5-1.7c2.8,0.7,3.2,4.1,5.7,5.1
		c-0.1,2.6-2.7,2.9-4.1,4.2c-1.5,1.4-3.5,2.2-5.1,3.4c-0.2,0.1-0.3,0.2-0.2,0.4c0.1-0.2,0.2-0.3,0.4-0.4c3-1.8,5.9-3.6,8.9-5.4
		C200.7,224.5,202,224.1,203.4,224.2z"/>
	<path id="XMLID_1546_" class="st2" d="M297,185.5c3.8-0.4,7.6-0.8,10.8,2c-0.8,2.2-3,3.3-4.1,5.2c-2.2,2.5-5.3,4.1-7.6,6.2
		c3-2.2,6.6-3.9,10-5.9c1-0.6,2.1-1.4,3.5-0.9c0.5,6.1,1.3,12.2,0.2,18.3c-1,5.5-3.4,7.9-9,8.8c-6.4,1.1-12.6-0.1-18.8-1
		c-0.3-1,0.3-1.5,0.8-2.2c0.1-0.1,0.4-0.2,0.3-0.4c-0.2,0.1-0.4,0.3-0.6,0.4c-1.6,1-3.3,1.5-5,2.3c-4.4,0-8.9,0-13.3,0
		c-0.5-1.5,0.8-1.9,1.5-2.6c3.4-3.4,7-6.5,11.3-10.1c-5.4,3.4-10.4,5.9-15.1,8.8c-2.8,1.2-5.3,3.3-8.4,3.9c-4.3,0-8.5,0-12.8,0
		c0.1-1.8,2-2,2.9-3c0,0,0.1-0.1,0.1-0.1s-0.2,0.1-0.3,0.2c-1.7,1.3-3.6,2.4-5.7,3c-7.5,0.2-14.9,1.7-22.4,1.5
		c-1.6,0-3.3,0.1-4.8-0.7c1.6-4,5.7-5.1,8.2-7.3c-3.9,1.6-7.3,5.3-12.1,6.4c-5.5-4.2-6-10.2-5.8-16.4c0.5-1.4,1-2.8,2.3-3.9
		c-0.8,0.4-1.4,0.6-2.2,0.2c0.5-9.1,4.5-12.8,13.5-12.5c2.5,0.1,5,0.5,7.4,0.7c0.9,1.9-0.8,2.7-1.7,3.9c-1,0.9-1.8,1.8-2.5,3
		c-0.8,1.1-1.8,1.9-2.7,2.8c0.2,0.1,0.2-0.1,0.3-0.2c9.8-5.9,19.7-11.6,29.7-17.2c6.2-2.2,12.4-4.1,19-1.6c-0.5,0.6-1.4,0.4-2,1
		c0.6-0.5,1.5-0.4,2-1c2.9,0.5,5.1,2.1,7.4,3.8c-1.6,3.6-5.5,4.5-8.1,6.9c-0.1,0.1-0.3,0.1-0.3,0.3c0.4-0.1,0.7-0.5,1.1-0.8
		c3.2-1.7,5.6-5,9.7-4.9c6.1,3.1,12.6,3.9,19.4,3.2c0.1,0.5,0,1-0.3,1.4c0.5,0.2,0.6-0.3,0.9-0.4C294.9,186.1,296,186.1,297,185.5z"
		/>
	<path id="XMLID_1545_" class="st3" d="M406.5,490.1c0.6,10,0.8,19.9-2.1,29.6c-2.3,7.8-6.9,13.7-14.9,16.5
		c-2.3-0.5-3.9,1.3-5.9,1.8c-4.8,1.6-9.8,1.8-14.9,1.5c0.3-2.6,2.4-3.5,4.3-4.6c0.2-0.1,0.4-0.1,0.5-0.3c-0.2,0-0.4,0.1-0.6,0.2
		c-2.9,1.7-5.5,3.8-8.8,4.7c-8.3,0.4-16.5-1.2-24.8-1.4c-0.1-0.3-0.1-0.5,0-0.8c0.2-0.3,0.2-0.5-0.3-0.2c-0.3,0.4,0,0.7,0.2,1
		c-5.2,0.7-10.5,0.2-15.7,0c0.2-2.2,2.2-2.9,3.6-3.9c1.9-1.4,4-2.6,5.9-3.9c0.8-0.5,1.6-0.9,2-1.8c0.2,0,0.3-0.2,0.2-0.3
		c0,0.2-0.1,0.4-0.3,0.5c-0.5,0.9-1.4,1.2-2.2,1.7c-4.1,2.9-8.3,5.6-12.9,7.5c-0.4,0.2,0.4,0.5,0.1,0.1c1.2-0.9,2.5-1,3.6,0.1
		c-3,1-6.1,0.2-9.2,0.2c-7.4,0-14.7-0.1-22.1-0.2c0.2-2.5,2.5-2.8,4-3.8c1.3-0.9,2.8-1.5,4.1-2.5c1.1-0.9,2.4-1.3,3.4-2.2
		c0,0,0.1-0.1,0.1-0.1s-0.2,0.1-0.3,0.1c-1.1,0.9-2.4,1.3-3.5,2.2c-3.7,2-7.1,4.7-11.1,6.1c-0.9,0.2-1.8,0.6-2.7,0.1
		c-3.6,0-7.2,0.1-10.8,0.1c-0.1-0.1-0.2-0.3-0.3-0.4c0.2-1.1,1.2-1.5,2-2.1c6.7-4.3,13.2-8.9,19.9-13.2c1.3-0.7,2.4-1.7,3.6-2.6
		c0.3-0.2,0.6-0.1,0.9,0.2c1.1-0.8,2.3-0.6,3.6-0.6c18.7-0.1,37.5-0.2,56.2-0.4c4.4,0,8.7-0.5,13-1.1c5-0.7,9-2.8,11.3-7.5
		c0.4-0.8,1.2-1.5,0.8-2.5c0.3-1.2,0.5-2.5,0.8-3.7c-0.1-6.2,5.2-7.4,9.3-9.6c2.5-0.8,4.5-2.5,6.7-3.7
		C404.2,490.4,405.1,489.4,406.5,490.1z"/>
	<path id="XMLID_1544_" class="st3" d="M122.2,196.1c12.7-6.3,26.4-6.1,40.1-5.6c-8.3,3-13.5,10.2-20.7,14.7
		c-0.2,0.1-0.3,0.3-0.5,0.4c0.4,0,0.6-0.4,0.9-0.5c7.1-4.5,14.6-8.3,21.8-12.8c1.3-0.8,2.8-0.8,4.2-1.5c3.8-0.3,7.6,0.2,11.3,0.7
		c0.3,1.4-0.9,1.9-1.8,2.6c-5.7,4.4-11.5,8.7-17.3,13c-1,0.8-2.3,1-3.3,1.6c-4.8,0.5-9.6,1-14.4,1.5c-4.7,0.5-8.8,2.4-12.8,4.6
		c-3.4,1.9-4.9,5.4-5.8,9.1c-3.4,4-8.4,5.5-12.6,8.2c-1.6,1-3,2.7-5.3,2c0-3,0.1-6,0.1-8.9c2.6-3.9,6.7-6.2,10.2-9
		c0,0,0.1-0.1,0.1-0.1s-0.3,0.1-0.3,0.2c-3.2,1.9-6,4.4-9.8,5.1c0.2-7.4,2.5-13.9,7.5-19.4c1.5-1.7,3.2-3.1,5.5-3.7
		C120.3,197.7,121.2,196.9,122.2,196.1z"/>
	<path id="XMLID_1543_" class="st1" d="M380.3,243.2c1.1,6,0.7,12.1,0.6,18.2c-2.8,3.6-7,5-10.7,7.2c-11.6,6.8-23.3,13.4-34.8,20.2
		c-0.9,0.5-1.7,0.9-2.7,1.1c-9.3,0.8-18.6,0-27.9-0.9c-2.8-1.9-0.1-3.1,0.9-3.8c4.3-2.9,8.6-5.8,13.2-8.1c1.5-0.4,2.9-1.1,4.1-2.1
		c1-0.6,2.1-1,3.1-1.6c1.3-0.7,2.6-1.6,3.9-2.4c15.5-9.1,31.1-18,46.7-27C377.8,243.4,378.9,242.6,380.3,243.2z"/>
	<path id="XMLID_1542_" class="st1" d="M215.3,403.1c-5.4,3.2-10.9,6.4-16.3,9.6c-2.3,0.8-4,2.5-6.2,3.5c-3.5,2.1-6.9,4.5-10.7,6.2
		c-3.4,0.4-6.9,0.8-10.3,1.4c-6.9,1.3-11.5,5.3-13.6,12.1c-3.9,3.7-8.9,5.8-13.4,8.5c-3.1,1.9-6.2,3.6-9.3,5.4
		c-1.2,0.7-2.3,1.5-3.8,1.1c0-2.5,0-5.1,0-7.6c0.5-1.4,1.7-2.1,2.8-2.8c7.2-4.5,14.5-8.9,21.9-13.2c1.2-0.5,2-1.6,3.2-2
		c0.2-0.1,0.4-0.2,0.6-0.3c-0.2,0-0.4,0.1-0.7,0.2c-1.3,0.6-2.3,1.7-3.6,2.3c-7.1,4.2-14.1,8.4-21.2,12.6c-0.9,0.6-1.9,1.2-3.1,0.5
		c0-2.5,0-5.1,0-7.6c0.3-1.4,1.4-2,2.5-2.6c13.1-8.1,26-16.5,39.1-24.7c2.3-1.4,4.7-2.3,7.4-2.3c10.6-1,21.1-0.7,31.7-1
		C213.2,402.3,214.4,402.1,215.3,403.1z"/>
	<path id="XMLID_1541_" class="st1" d="M319.6,277.7c-5.4,3.4-11.3,5.9-15.9,10.5c-0.7,0.8-1.7,1.1-2.7,1.1
		c-5.8,0-11.6,0.5-17.4-0.3c-0.6-0.3-1.2-0.5-1.1-1.3c0.9-0.7,1.8-1.4,2.9-1.9c1.4-0.8,2.7-1.8,4.1-2.5c17-10.5,34.4-20.2,51.7-30.2
		c11.5-6.7,23.1-13.4,34.7-20c1.1-0.6,2.1-1.9,3.7-1.1c0.7,2.5,0.4,5.1,0.4,7.7c-0.6,0.9-1.3,1.8-2.3,2.4
		c-16.1,9.6-31.8,19.9-48.1,29.3c-1.2,0.6-2.1,1.7-3.4,2.1c-1.3,0.6-2.5,1.4-3.7,2.1C321.9,276.6,320.5,276.8,319.6,277.7z"/>
	<path id="XMLID_1540_" class="st1" d="M380.4,356.7c0,0.6-0.1,1.2-0.1,1.7c-0.6,1.1-1.5,1.9-2.6,2.5c-1.7,0.8-3.1,1.9-4.8,2.8
		c-1.4,0.9-2.9,1.6-4.3,2.4c-1.5,1.3-3.6,1.8-4.8,3.5c-5.2,3.3-10.2,7.1-16.3,8.7c-8.5,0.3-16.9,0.5-25.4-0.1
		c-2.8-1.5-0.5-2.5,0.5-3.1c3.2-2.1,6.7-3.9,10-5.8c14.3-8.2,28.5-16.6,42.8-24.7c1.4-0.8,2.7-2,4.5-1.2c0.6,2.5,1.9,5.1-0.7,7.4
		c-0.1,0.1,1.1,0.2,1.2,0.8C380.7,353.4,380.8,355.1,380.4,356.7z"/>
	<path id="XMLID_1539_" class="st3" d="M105.4,313.8c-0.5-8-0.4-16-0.1-24c0.6-2.8-0.6-5.7,0.7-8.4c4.7-4.3,10.3-7.3,15.6-10.8
		c0.6-0.4,1.4-0.6,2.1-0.2c0,11.5,0,23,0,34.5c-0.6,0.7-1.2,1.2-2.1,1.4c-2,0.5-3.4,2.1-5.2,2.9c-3.4,1.7-6.3,4.3-10.1,5.2
		C105.9,314.2,105.6,314,105.4,313.8z"/>
	<path id="XMLID_1538_" class="st4" d="M210.8,313.9c-9,1.1-15.2,7.7-23,11.3c-1.1,0.5-2.1,1.3-3.4,1.4c-0.8,1.1-1.9,1.8-3.2,2.2
		c-0.4,0.5-0.9,1.1-1.3,1.6c-2.8,0.1-4.3,2.7-6.7,3.5c-5.9,1.6-11.4,3.8-15.2,8.9c-7.7,4.4-15.2,9-23,13.3c-1.1,0.6-2.1,1.5-3.4,1
		c0-2.6,0-5.1,0-7.7c2.1-3.3,5.8-4.6,8.9-6.6c10.2-6.4,20.4-13,30.7-19.3c1.2-0.6,2.3-1.5,3.5-2.1c1.7-0.9,3.2-2,4.6-3.3
		c2.7-2.4,6.1-3.4,9.4-4.6c5.9-0.7,11.8-1.3,17.7-1C207.9,312.7,209.5,312.4,210.8,313.9z"/>
	<path id="XMLID_1537_" class="st3" d="M301.5,520c-0.3,0-0.6,0.1-1,0.1c-1.2,0.9-2.5,1.8-3.7,2.6c-8.6,5.2-17.2,10.3-26.1,15.1
		c-0.7,0.2-1.4,0.3-2.1,0.4c-11.7,0.7-23.4,0.2-35.1,0.3c-12.2,0.1-24.4,0-36.6,0c-1.2,0-2.5-0.2-3.7-0.3c3.3-2.3,7-0.9,10.6-1.3
		c3.5,0.3,7-0.2,10.5,0c4.2,0.2,8.5-0.1,12.7,0c6.8,1,12.9-0.4,18.5-4.7c5-3.7,10.3-7,15.5-10.4c1.4-1,2.9-2,4.6-2.3
		c5.6,0,11.3-0.5,16.9,0.3c-0.7,1.6-2.3,2-3.7,2.8c-8.4,5.3-17.1,10.1-25.2,14.7c5.1-0.5,8.9-4.6,13.5-7.2c4.1-2.3,7.9-5.1,12-7.5
		c1.6-0.9,3.1-2.1,4.9-2.6C289.9,519,295.7,519.1,301.5,520z"/>
	<path id="XMLID_1536_" class="st3" d="M184.6,519.3c5-0.3,10.1-0.2,15.1,0c0.1,0.7-0.4,1.2-0.8,1.6c-0.2,0.1-0.4,0.2-0.6,0.1
		c0.1,0.3,0.2,0.3,0.5,0c0.6-0.5,1.3-0.8,2-1c5-1.8,10.1-0.5,15.2-0.6c0.1,1.3-1,1.7-1.8,2.2c-9.3,5.6-18.7,11-28.2,16.3
		c-0.7,0.2-1.4,0.3-2.1,0.4c-3.9,0-7.8-0.1-11.7-0.1c0.1-1.9,1.7-2.3,2.9-3c4.4-2.7,8.9-5.4,13.4-8c0.7-0.4,1.5-0.8,2.2-1.3
		c-0.8,0.5-1.7,1-2.5,1.4c-6.2,3.7-12.2,7.6-18.7,10.8c0.8-0.5,1.6-0.7,2.3,0.2c-5.4,0.6-10.8,0.1-16.1-0.1c-0.1-1.4,1-1.9,1.9-2.5
		c7.8-5,15.8-9.9,23.6-14.9C182.2,520,183.5,519.8,184.6,519.3z"/>
	<path id="XMLID_1535_" class="st4" d="M131.5,334.4c0-5.2,0-10.3,0-15.5c2.1-3.3,5.7-4.6,8.7-6.7c4-2.9,8.4-5.3,12.4-8.1
		c1.2-0.8,2.4-1.8,4.1-1.3c2.9,4.5,7.3,7.1,11.5,10.2c0,1.5-1.2,2.1-2.3,2.7c-9.9,5.6-19.7,11.4-29.7,17
		C134.8,333.6,133.4,334.8,131.5,334.4z"/>
	<path id="XMLID_1534_" class="st5" d="M131.5,403.8c-0.3-5.8-0.3-11.6,0-17.3c0.2-0.5,0.3-1,0.7-1.3c6.6-4.6,13.5-8.7,20.4-12.8
		c2.9-1.7,3.6,0.8,4.2,2.9c0.5,3.5,0.2,7,0.2,10.5c0,2.4-1.1,4.2-3.2,5.5c-6.4,4-12.8,8-19.3,11.9
		C133.7,403.7,132.8,404.5,131.5,403.8z"/>
	<path id="XMLID_1533_" class="st5" d="M187.5,314.6c-2.5,1.8-5.8,2.1-8.1,4.4c-1.7,0.6-3,1.9-4.7,2.6c-1.4,0.6-2.5,1.8-3.9,2.4
		c-11.6,7.1-23.4,13.9-35.2,20.7c-1.3,0.7-2.5,1.8-4.1,1.3c0-2.6,0-5.1,0-7.7c0.8-2,2.7-2.8,4.4-3.9c11-7.1,22.3-13.9,33.3-21
		c0.4-0.3,0.9-0.4,1.4-0.5c4.7,0.1,9.3,0.7,14,0.6C185.6,313.4,186.8,313.6,187.5,314.6z"/>
	<path id="XMLID_1532_" class="st3" d="M190.7,210.9c-10.4-0.1-20.7-1.5-31.1-2.1c0.2-2,2.1-2.4,3.3-3.1c7.7-4.8,15.8-9,23.6-13.8
		c0.7,0,1.5,0,2.2,0.1c5.2,0.6,5.2,0.6,4.3,6.1c-1.7,1.3-3.4,2.7-5.3,3.7c-0.7,0.4-1.4,1-2,1.3c0.9-0.2,1.6-1.1,2.5-1.5
		c1.6-0.5,2.6-2.6,4.7-1.8c0.2,3.3,0.4,6.5,0.6,9.8C192.7,210.4,191.8,210.8,190.7,210.9z"/>
	<path id="XMLID_1531_" class="st5" d="M131.5,428.5c-0.3-3.2-0.3-6.4,0-9.6c1.7-2.8,4.8-3.8,7.4-5.5c6.5-4.2,13.1-8.1,19.6-12.2
		c1.1-0.7,2.3-1.6,3.7-1.7c3.4,0.9,6.8,1.9,9.8,4c-0.2,1.5-1.4,2-2.4,2.7c-11.5,7-22.8,14.2-34.2,21.3
		C134.2,428,133,428.9,131.5,428.5z"/>
	<path id="XMLID_1530_" class="st3" d="M106.5,281.6c-1.8,2.5,0.2,5.6-1.2,8.1c-0.2-10.7-0.3-21.5,0.3-32.2c0.9,1.6,1.8,2,3.6,0.7
		c3.6-2.6,7.1-5.3,10.9-7.6c1.1-0.7,2-1.9,3.6-1.3c0,6.2,0,12.3,0,18.5c-3.9,3.9-9,5.9-13.7,8.7
		C107.9,277.8,106.4,279.1,106.5,281.6z"/>
	<path id="XMLID_1529_" class="st3" d="M396.9,495.2c-1.2,0.6-2.4,1.2-3.6,1.9c-2.9,1.7-5.6,3.5-6.2,7.2c0.2-7.2,0.4-14.5,0.6-21.7
		c1.8-2.6,4.6-3.7,7.1-5.2c1.1-0.4,2.2-0.8,3.2-1.5c2.3-1.4,4.4-3.3,7.1-3.9c1.2,5.2,1.4,10.4,1.3,15.7
		C404.1,491.3,399.8,492.4,396.9,495.2z"/>
	<path id="XMLID_1528_" class="st3" d="M406.4,328.8c0,7.3,0.5,14.7-0.5,22c-0.3-0.2-0.5-0.4-0.7-0.8c-0.2-2.7-1-3.5-3.6-1.7
		c-3.3,2.2-6.7,4.3-10.1,6.4c-1.1,0.7-2.1,1.8-3.7,1.1c0.1-5.2,0.1-10.5,0.2-15.7c0.8-1.4,1.8-2.6,3.3-3.4c4.1-2.3,8.1-4.9,12.2-7.2
		C404.3,328.8,405.2,327.8,406.4,328.8z"/>
	<path id="XMLID_1527_" class="st4" d="M380.9,264.3c0.3,2.5,0.5,5.1,0.1,7.6c-1,1.7-2.7,2.6-4.2,3.5c-6.9,4.3-13.8,8.6-20.7,12.8
		c-1.2,0.7-2.3,1.5-3.7,1.7c-4.4,0.2-8.8,0.5-13.2-0.2c-2.6-2,0.2-2.5,1-3c5.9-3.6,11.8-7,17.8-10.4c6.3-3.6,12.5-7.3,18.8-10.9
		C378.1,264.7,379.3,263.7,380.9,264.3z"/>
	<path id="XMLID_1526_" class="st3" d="M379.4,343.7c-19.6,11-39.1,22.2-58.3,33.7c-1.6,1.4-3.2,1.4-4.8,0
		c10.8-6.9,21.5-13.9,32.4-20.7c10.7-6.8,21.5-13.5,32.2-20.3c0,2.2,0,4.3-0.1,6.5C380.7,343.7,379.8,343.3,379.4,343.7z"/>
	<path id="XMLID_1525_" class="st6" d="M211.5,493.8c-1.9,1.3-4.1,0.7-6.2,0.6c-3.1-0.1-5.7,1.1-8.3,2.6c-8,4.6-15.9,9.1-23.9,13.7
		c-0.6,0.3-0.9,1.1-1.4,1.7c-4.7,0-9.5,0.1-14.2,0.1c-0.3-1.3,0.8-2,1.2-3c0.8-0.8,1.8-1.4,2.6-2.2c0.2-0.2,0.5-0.4,0.8-0.5
		c0.4-0.2,0.8-0.4,1.3-0.6c0.3-0.1,0.6-0.2,0.8-0.3c0.6-0.2,1.2-0.3,1.7-0.5c0.9-0.3,1.2-1.1,1.7-1.7c0.2-0.3,0.5-0.5,0.8-0.6
		c0.3-0.2,0.6-0.3,0.9-0.4c1.9-0.6,3.4-1.9,5.2-2.6c1.1-0.3,2.1-0.7,3.1-1.4c1.3-0.8,2.6-1.7,3.9-2.5c1-0.6,1.9-1.4,3-1.9
		c0.8-0.4,1.7-0.7,2.5-0.6c6.8,0.2,13.5-1,20.2-0.9C208.8,492.7,210.4,492.5,211.5,493.8z"/>
	<path id="XMLID_1524_" class="st3" d="M362.4,190.1c3.6-0.3,7,0.4,10.5,0.7c0.6,1.9-1,2.3-2.1,3c-3.8,2.6-7.7,4.8-11.6,7.2
		c-1.4,0.7-2.7,1.5-3.9,2.3c-1.1,0.7-2.2,1.5-3.3,2.1c-1,0.5-1.9,1.2-2.7,2c-0.4,0.3-0.8,0.6-1.2,0.8c-1.1,0.3-2.2,0.5-3.1,1.1
		c-6,0.9-11.9,1.5-18,1.6c0.6-3.5,3.9-3.9,6.2-5.3c1.8-0.2,3.1-1.2,4.2-2.5c0.4-0.3,0.9-0.4,1.4-0.6c2.1-0.3,3.6-1.9,5.4-2.7
		C350.3,196.8,355.8,192.4,362.4,190.1z"/>
	<path id="XMLID_1523_" class="st3" d="M105.7,517.7c-1.3-5.2-0.7-10.4-0.5-15.7c3.4-3.5,8-5.2,12.1-7.7c1.5-0.9,2.7-2.7,4.9-2.1
		c0,5.1,0.8,10.1,1.5,15.1c-4.4,4.7-10.6,6.7-15.9,10.1C107.2,517.8,106.5,518.2,105.7,517.7z"/>
	<path id="XMLID_1522_" class="st6" d="M174.8,500.5c-1.8,1-3.6,2-5.3,3c-0.2-0.3-0.5-0.2-0.7,0c-0.3,0-0.5,0-0.8,0
		c-0.8,0.8-1.3,1.7-2.3,2.4c-0.4,0.2-0.9,0.5-1.3,0.7c-0.3-0.3-0.6-0.4-0.9,0c-0.3,0.2-0.5,0.5-0.8,0.7c-0.2-0.3-0.4-0.3-0.6,0
		c-0.6,1.2-1.5,2.2-3,2.3c-0.8,0.2-1.3,1.1-2,1.4c-1.5,0.6-3.2,0.9-4.7,1.5c-3.5,0.3-7,0.3-10.5-0.8c-0.4-1.5,0.4-2.4,1.4-3.3
		c3.4-1.8,6.4-4.2,10.1-5.7c2.1-0.7,3.9-2,5.4-3.6c3.5-2.7,7.2-4.9,11.4-6.5c3.3,0.1,6.4,1.1,9.7,1.4c0.9,0.3,1.7,0.8,2,1.8
		c-0.8,1.4-2.5,1.8-3.7,2.8C176.9,499.1,175.7,499.6,174.8,500.5z"/>
	<path id="XMLID_1521_" class="st3" d="M227.7,538c-4.4,0-8.8,0-13.2-0.1c-0.2-1.1,0.6-1.6,1.3-2c8-5.1,15.8-10.3,23.8-15.4
		c0.8-0.5,1.9-0.7,2.8-1.1c5.6,0,11.2,0.1,16.8,0.1c0.2,1.4-1.1,1.5-1.8,2c-8.6,5.1-17.3,9.9-25.9,14.9
		C230.3,537.2,228.9,537.3,227.7,538z"/>
	<path id="XMLID_1520_" class="st3" d="M333.8,206.5c-2.7,1-5,2.5-6.8,4.6c-1.3,0.2-2.6,0.6-3.9,0.6c-6.1,0.1-5.2,0.8-5-5.1
		c0.4-0.5,0.7-1.1,1.2-1.4c8.5-5,16.7-10.6,25.9-14.4c4-1.1,8-0.6,12-0.6c0.6,1.5-0.3,2.5-1.4,3.1c-4,2.2-7.7,5.1-11.9,6.9
		c-1.5,1.2-3.5,1.8-4.7,3.3c-0.6,0-1.2,0.1-1.8,0.1C336.4,204.8,334.9,205.3,333.8,206.5z"/>
	<path id="XMLID_1519_" class="st3" d="M381.4,289.2c-22.2,12.8-44.3,25.5-66.5,38.3c-8.7,5-17.3,9.9-26,14.8
		c-0.7,0.4-0.9,0.1-0.8-0.6c27.2-18.1,55.6-34.3,83.9-50.5c3-1.7,6-3.5,9-5.3l0.2,0.1C381.3,287.1,381.3,288.1,381.4,289.2z"/>
	<path id="XMLID_1518_" class="st3" d="M143.7,538.1c-4,0.9-8,1-12,0.7c-0.1-1,0.5-1.7,1.3-2.1c9.8-5.8,19.1-12.4,29.3-17.7
		c0.7,0,1.5-0.1,2.2,0.3c4.3-0.2,8.5-0.4,12.8,0.1c0,1.2-0.9,1.8-1.7,2.3c-9.8,5.6-19.5,11.7-29.6,16.8
		C145.2,538.4,144.4,538.4,143.7,538.1z"/>
	<path id="XMLID_1517_" class="st3" d="M204.1,537.9c-3.6,0.1-7.2,0.2-10.9,0.2c-0.8,0-1.5,0-2.3,0c-0.1-1.2,0.8-1.8,1.6-2.3
		c8.2-5.2,16.4-10.3,24.6-15.4c0.8-0.5,1.9-0.7,2.8-1.1c5.2,0,10.4,0,15.5,0.1c-0.1,1.7-1.7,2.1-2.7,2.7c-8,4.9-16.4,9.3-24.4,14.3
		C207,537.2,205.5,537.3,204.1,537.9z"/>
	<path id="XMLID_1516_" class="st3" d="M164.4,519.2c-0.7,0-1.5,0.1-2.2,0.1c-7.7,2.5-13.9,7.6-21,11.1c-5.2,2.6-9.7,6.5-15.4,8.2
		c-3.1-0.4-6.2-0.8-8.9-2.7c0.6-2.1,2.7-2.5,4.2-3.5c6.9-4.4,14-8.6,21-12.7c-0.7,0.3-1.4,0.4-2.1,0.1c-0.3-0.1-0.6-0.4-0.8-0.7
		C147.7,518.9,156.1,518.5,164.4,519.2z"/>
	<path id="XMLID_1515_" class="st3" d="M304.5,415.8c13.9-8.8,27.8-17.7,41.7-26.5c2.1-1.3,4.2-2.8,6.2-4.1c0.1-1,0.8-1.6,1.6-2.2
		c7.8-4.2,14.9-9.5,22.5-13.8c1.1-0.6,2.1-1.9,3.7-1.3c0,1.7,0,3.3,0,5c-13,7.8-26,15.6-39.2,23.3c-11.8,6.9-23.8,13.6-35.6,20.4
		C304.5,416.9,304.4,416.5,304.5,415.8z"/>
	<path id="XMLID_1514_" class="st7" d="M135.5,508.9c-2.8-1.8-3.5-4.6-3.5-7.6c0.1-0.1,0.2-0.2,0.3-0.4c0.4-0.3,0.9-0.4,1.4-0.5
		c1.3-0.3,2.3-1.1,3.2-2.1c6.5-4.2,13.4-7.8,20-11.8c0.6-0.4,1.4-0.5,2.1-0.6c2.8,1.1,5,3,6.3,5.7c-1.5,2.7-4.4,3.5-6.8,4.9
		c-6.5,3.8-13,7.7-19.6,11.3C137.8,508.4,136.9,509.4,135.5,508.9z"/>
	<path id="XMLID_1513_" class="st6" d="M131.5,370.7c0-3.4,0-6.7-0.1-10.1c2.1-3.1,5.6-4.4,8.6-6.3c4.3-2.9,8.8-5.6,13.3-8.3
		c1.2-0.7,2.4-2,3.8-0.3c0,2.9-0.1,5.8-0.4,8.8c-0.4,1.5-1.4,2.6-2.7,3.4c-6.4,4.1-12.9,8.1-19.3,12.1
		C133.8,370.5,132.7,371.1,131.5,370.7z"/>
	<path id="XMLID_1512_" class="st3" d="M379.8,232c-29,16.7-57.9,33.4-86.9,50.1c-1.1,0.6-2.2,1.1-3.3,1.7c-0.8,0.4-0.9-0.1-0.8-0.7
		c18.9-12.7,38.8-23.9,58.5-35.3c10.7-6.1,21.4-12.2,32.1-18.4C379.6,230.3,379.7,231.1,379.8,232z"/>
	<path id="XMLID_1511_" class="st8" d="M380.2,367.9c-7.6,4.8-15.1,9.5-22.7,14.3c-1,0.7-1.9,1.6-3.3,1.3c0.1-3.7-2.5-5-5.4-6.1
		c5.4-2,9.8-6,15.2-8.2c1.3-1.7,3.4-2,5-3.4c1.6-0.5,2.8-1.8,4.4-2.3c1.6-0.8,3-2,4.7-2.8c0.8-0.3,1.4-1,2.4-0.5
		C380.2,362.8,380.2,365.3,380.2,367.9z"/>
	<path id="XMLID_1510_" class="st8" d="M131.5,415.6c0-2.6,0-5.1,0-7.7c1-2.1,3-2.9,4.8-4.1c5.5-3.7,11.2-6.9,16.7-10.6
		c1.1-0.8,2.3-1.5,3.8-1.1c1.9,1.8,3.3,3.9,4.1,6.4c-0.2,1.1-1,1.7-1.8,2.2c-8.5,4.9-16.9,9.9-25.4,14.7
		C133,415.7,132.3,416,131.5,415.6z"/>
	<path id="XMLID_1509_" class="st3" d="M347.9,208.1c0.2-0.3,0.5-0.6,0.7-0.8c1-0.6,1.9-1.4,3-1.8c1.4-0.6,2.4-1.7,3.8-2.3
		c1.3-0.8,2.5-1.7,3.9-2.3c3.9-2.3,7.9-4.5,11.7-7c1.7-1.1,3.4-1.8,5.3-2.3c3.2,0,6.3,0.8,9.2,2.2c0.2,0.9-0.3,1.5-1,1.8
		c-6.8,4.1-13.3,8.6-20.3,12.4c-0.7,0.4-1.5,0.3-2.1,0.8c-5.3,0.2-10.5,0.4-15.8,0.7C346.2,208,347.4,208.5,347.9,208.1z"/>
	<path id="XMLID_1508_" class="st6" d="M131.5,303.9c0-2.7,0-5.3,0-8c0.6-1.3,1.8-2.1,2.9-2.8c6.1-4.1,12.2-8.2,18.3-12.2
		c1.1-0.7,2.3-2.3,3.8-0.4c0.9,3.2-0.4,6.3-0.7,9.5c-2.7,3.5-6.9,4.6-10.4,6.9c-3.5,2.3-7.2,4.2-10.9,6.3
		C133.6,303.6,132.7,304.4,131.5,303.9z"/>
	<path id="XMLID_1507_" class="st6" d="M131.5,315.2c0-2.6,0-5.1,0-7.7c0.2-0.5,0.4-1,0.7-1.3c7-5.3,14.5-9.9,22-14.4
		c0.6-0.4,1.2-0.1,1.6,0.4c1.6,2.8,1.3,5.8,0.7,8.9c-5.2,4.3-11.3,7.2-17.1,10.5C137,313.2,134.8,315.5,131.5,315.2z"/>
	<path id="XMLID_1506_" class="st9" d="M131.5,479.8c0-2.5,0-5,0-7.5c0.6-0.9,1.2-1.9,2.1-2.7c6.7-4.4,13.9-8,20.6-12.6
		c0.9-0.6,1.9-0.7,2.5,0.5c0.7,2.6,0.6,5.2,0.1,7.8c-0.4,1.3-1.5,2-2.6,2.6c-6.1,3.6-12.3,7.1-18.5,10.7
		C134.4,479.4,133.1,480.3,131.5,479.8z"/>
	<path id="XMLID_1505_" class="st8" d="M131.5,382.7c0-2.6,0-5.1,0-7.7c0.5-1.2,1.4-2,2.5-2.7c5.8-3.7,11.6-7.4,17.4-11
		c3.6-2.3,4.7-1.6,4.8,2.9c0,1.4,0.1,2.8-0.1,4.1c-0.1,0.4-0.2,0.7-0.4,1.1c-5.6,4.1-11.8,7.2-17.8,10.7
		C135.9,381.2,134.2,383.2,131.5,382.7z"/>
	<path id="XMLID_1504_" class="st3" d="M131.5,428.5c13.4-8.3,26.8-16.5,40.1-24.8c2.4-1.5,4.9-1.4,7.3,0c0.4,0.2,0-0.1,0.1,0.3
		c0.2,0.6-0.4,0.1-0.6,0.2c-1.7,0.2-3,1-4.4,1.9c-14.2,9-28.4,18-42.7,26.9C131.5,431.5,131.5,430,131.5,428.5z"/>
	<path id="XMLID_1503_" class="st3" d="M139.3,519.1c0.4,0.1,0.8,0.2,1.2,0.3c-0.2,2-2.1,2.2-3.4,3.1c-6.2,4-12.7,7.3-18.9,11.1
		c-1.1,0.7-2.2,1.2-3.5,1.1c-2.1-1.2-3.7-2.8-5-4.9c0.8-1.7,2.5-2.3,3.9-3.3c4.3-2.8,8.7-5.3,13-7.9c1.2-0.7,2.3-1.6,3.8-1.1
		C133.2,519.1,136.3,518.9,139.3,519.1z"/>
	<path id="XMLID_1502_" class="st3" d="M123.8,225.3c0,3.7,0,7.4,0,11.2c-0.8,2.3-2.5,3.4-4.7,3.9c-2,0.2-3.2,1.9-4.9,2.7
		c-2.8,1.2-5,3.8-8.4,3.8c0-2.8,0.1-5.6,0.1-8.4c3-4.3,7.8-6.5,11.7-9.7C119.4,227.4,121.1,225.5,123.8,225.3z"/>
	<path id="XMLID_1501_" class="st3" d="M124.1,408.2c0.2,13.8,0.6,27.7-0.2,41.5c-1.4-1.2-1-2.9-1.2-4.5c-0.1-1.1,0.1-2.2,0-3.4
		c0-2.7,0-5.4,0-8c-0.1-2,0-4,0-5.9c0-2.5,0-5,0.1-7.5c0.1-0.6,0-1.2,0.6-1.7c-4.2,2.3-8.3,4.7-12.5,7c-1.4,0.8-2.6,2-4.4,1.4
		c-0.2-2.6-0.6-5.1-0.2-7.7c0.2-0.3,0.4-0.6,0.6-0.9c5.4-3.8,11.1-7.2,16.8-10.4C123.8,408.2,123.9,408.2,124.1,408.2z"/>
	<path id="XMLID_1500_" class="st10" d="M227.7,538c10.2-6.6,21-12.3,31.5-18.4c2.2,0,4.3,0,6.5,0c-8.6,6.5-17.7,12.3-27,17.9
		C235.6,539.3,231.4,538,227.7,538z"/>
	<path id="XMLID_1499_" class="st3" d="M391.1,196c2.6,0.8,4.7,2.3,6.4,4.3c-0.1,0.8-0.6,1.3-1.3,1.7c-6,3.2-11.1,7.8-17.6,10.1
		c-3.1-1.4-6.4-2.1-9.7-2.8c0-1.3,1.1-1.9,2-2.4c6-3.4,11.9-7.1,18-10.4C389.6,196.2,390.3,196,391.1,196z"/>
	<path id="XMLID_1498_" class="st3" d="M321,344.6c19.8-12.5,39.6-25.1,60-36.7c0,1.2,0,2.4,0,3.6c-18.9,10.9-37.9,21.8-56.8,32.7
		c-0.7,0.4-1.5,0.8-2.3,1.2C321.1,345.7,320.9,345.3,321,344.6z"/>
	<path id="XMLID_1497_" class="st9" d="M204.1,537.9c10.5-6.2,20.9-12.3,31.4-18.5c2.3,0,4.6,0,6.9,0c-8.2,5.4-16.3,10.8-24.5,16.2
		c-1.1,0.7-2.2,1.5-3.4,2.3C211.1,538.2,207.6,538.3,204.1,537.9z"/>
	<path id="XMLID_1496_" class="st7" d="M145.9,537.9c8.4-5.6,17.4-10.2,26-15.3c1.8-1.1,3.6-2.2,5.3-3.4c2.4,0,4.9,0,7.3,0
		c-8.6,5.5-17.3,11.1-25.9,16.6c-1,0.7-2,1.4-3,2.2c0,0-0.2,0-0.2,0C152.2,538.4,149,538.7,145.9,537.9z"/>
	<path id="XMLID_1495_" class="st3" d="M118.4,239.6c2.3-0.1,3.8-1.7,5.4-3.1c0,3.5,0,7-0.1,10.6c-5.4,4.5-11.1,8.3-18,10.2
		c-0.4-2.7-0.3-5.3,0.1-8c1.9-3.3,5.6-4.3,8.5-6.4C115.8,241.9,117.2,240.9,118.4,239.6z"/>
	<path id="XMLID_1494_" class="st3" d="M121.3,305.6c0.8-0.3,1.6-0.6,2.4-0.8c0,3,0,6,0,8.9c-3.6,3.9-8.6,5.7-13,8.3
		c-2.9,1.7-4.7,3.5-3.7,7c-0.1,1.1-0.2,2.3-1.3,3c-0.8-6.1-0.5-12.1-0.2-18.2c0.1,0,0.3,0,0.4,0.1c1.2,1.2,2.1,0,2.9-0.5
		c2.5-1.6,5.2-2.8,7.7-4.5C118.3,308,119.8,306.9,121.3,305.6z"/>
	<path id="XMLID_1493_" class="st3" d="M388.6,325.7c0-4.3-0.3-8.6,0.4-12.9c1.4,0.5,0.7,1.9,1.2,2.7c3.4-2.2,6.8-4.4,10.4-6
		c4.1-1.9,5.6-4.6,4.9-8.9c0.1-2.2-0.2-4.4,0.2-6.6c0.2-0.6,0.5-1.1,1.2-1.2c0.2,7.3,0.4,14.6-0.5,21.8
		C401.2,319.5,395.4,323.3,388.6,325.7z"/>
	<path id="XMLID_1492_" class="st3" d="M106.5,419.3c0,0-0.3,0.1-0.3,0.1c-0.5-4.7-0.3-9.5-0.2-14.2c0.7-1,1.7-1.5,2.8-1.9
		c1.3-0.2,2.3-1,3.3-1.9c0.3-0.2,0.6-0.3,0.9-0.4c1.4-0.3,2.2-1.3,3.2-2.2c1.6-1.2,3.3-2.3,5.4-2.7c0.8-0.2,1.6-0.6,2.4-0.4
		c0.4,4.2,0.5,8.4,0.1,12.6c0,0-0.1,0-0.1,0c-1-1.9-2.2-2.8-4.3-1.1c-1.3,1.1-2.9,1.8-4.5,2.7C111.2,411.9,106.9,413.9,106.5,419.3z
		"/>
	<path id="XMLID_1491_" class="st3" d="M125.1,510.8c1.2,2.2,2.6,4.2,4.5,5.8c-6.1,4.4-12.7,7.9-19.3,11.6c-0.4,0.3-1,0.1-1.5,0
		c-1.3-1.9-2.3-4-2.3-6.4c0.6-1.9,2.5-2.3,3.8-3.2c3.6-2.5,7.6-4.6,11.3-7C122.7,510.9,123.8,510.2,125.1,510.8z"/>
	<path id="XMLID_1490_" class="st3" d="M395.2,478c-2.5,1.5-5,3-7.6,4.5c0-3.2,0-6.4,0-9.6c0.9-1.4,2.3-2.2,3.7-3
		c3.4-2,6.9-3.9,10.3-6c1-0.6,2-1.6,3.4-0.9c0.4,2.7,1.1,5.5,0,8.2c-2.1,1.9-4.7,3.1-7,4.8C397.1,476.6,396.2,477.3,395.2,478z"/>
	<path id="XMLID_1489_" class="st3" d="M406.4,328.8c-6.3,3.5-12.6,7.1-18.5,11.2c-0.2-3.1-0.1-6.1,0.6-9.2c3.4-4,8.4-5.5,12.7-8.2
		c1.6-1,3-2.7,5.3-2.1C406.4,323.3,406.4,326,406.4,328.8z"/>
	<path id="XMLID_1488_" class="st3" d="M404.9,428c0,2.7,0,5.4,0,8c-2.9,3.9-7.4,5.6-11.2,8.3c-1.8,1.3-3.3,3.4-6,2.9
		c-0.3-3.2-0.3-6.3,0-9.5C392.9,433.5,398.4,429.8,404.9,428z"/>
	<path id="XMLID_1487_" class="st3" d="M106.1,487.8c0-5.1-0.6-10.2,0.3-15.2c0.3,0.2,0.5,0.5,0.7,0.8c0.7,4.9,0.7,4.9,5,2.1
		c2.6-1.7,5.3-3.2,7.9-4.9c1.1-0.7,2.2-1.7,3.7-1c0.3,2.9-0.1,5.8-0.7,8.7c-0.8,1.7-2.4,2.4-4,3.2c-4,2.2-7.8,4.8-11.9,6.7
		C106.7,488.1,106.4,488,106.1,487.8z"/>
	<path id="XMLID_1486_" class="st3" d="M387.7,399.2c-0.3-2.9-0.3-5.8,0-8.8c5.4-4.3,11.2-8,17.8-10.2c-0.1,3.4-0.2,6.9-0.3,10.3
		c-1.5-0.3-2.6,0.4-3.8,1.1c-3.5,2.1-6.9,4.4-10.4,6.5C390,398.7,389.1,399.9,387.7,399.2z"/>
	<path id="XMLID_1485_" class="st3" d="M106.1,487.8c0,0,0.3,0,0.3,0c1.9,3.6,1.8,3.5,5.7,1.2c3.5-2,6.4-5.2,10.7-5.7
		c-0.2,3-0.4,6-0.5,9c-5.6,3.3-11.1,6.9-17,9.7C105.5,497.3,105.8,492.5,106.1,487.8z"/>
	<path id="XMLID_1484_" class="st3" d="M406.3,232.7c0,2.8,0,5.5,0.1,8.3c-5,4.5-10.6,8-16.8,10.4c-0.1-3-0.2-6-0.4-8.9
		c2.1-2.5,5-4,7.9-5.3c1.8-0.2,3-1.3,4.1-2.6C402.9,233.9,404.1,231.9,406.3,232.7z"/>
	<path id="XMLID_1483_" class="st3" d="M399.7,202.7c1.8,1.6,2.9,3.6,3.7,5.9c-0.8,1.8-2.6,2.5-4.2,3.4c-3.2,1.9-6.3,3.9-9.4,5.9
		c-1.5,1-3.1,1.6-4.5-0.2c-1.4-1.5-2.8-2.9-4.2-4.4c3.6-3.9,8.6-5.6,13-8.4C395.7,204,397.3,202.2,399.7,202.7z"/>
	<path id="XMLID_1482_" class="st3" d="M404.9,452.6c0,2.6,0.1,5.3,0.1,7.9c-3.9,4.3-9.2,6.5-13.9,9.7c-1.1,0.4-2,1.6-3.4,1.2
		c-0.3-3-0.3-6.1,0-9.1c3.4-3.6,8-5.4,12.2-7.9C401.4,453.6,402.8,451.9,404.9,452.6z"/>
	<path id="XMLID_1481_" class="st3" d="M112.9,401.5c-0.2,0-0.4,0-0.5,0c-1.1,1-2.3,1.7-3.6,2.2c-0.7,1-1.7,1.4-2.8,1.5
		c0-2.5,0-5.1,0-7.6c2.9-3.6,7.2-5.2,10.9-7.6c2.1-1.3,4-3.5,6.9-3.1c0.5,2.6,0.6,5.2,0.1,7.9c-0.5,0.7-1.2,1.3-1.6,2.1
		c-2.5-0.3-4,2.1-6.3,2.4C115,400,114.3,401.3,112.9,401.5z"/>
	<path id="XMLID_1480_" class="st3" d="M105.6,332c0.3-1.1,0.6-2.1,0.9-3.2c-0.4-0.9,0.3-1.4,0.9-1.7c4.6-3.1,9.3-6,14-8.9
		c0.7-0.4,1.4-1,2.3-0.4c0,3,0,5.9,0,8.9c-0.7,0.6-1.2,1.3-2,1.8c-0.3,0.2-0.5,0.3-0.8,0.5c-0.9,0.4-1.5,1.1-2.2,1.7
		c-0.4,0.3-0.8,0.4-1.3,0.6c-0.9,0.3-1.8,0.7-2.6,1.2c-1.3,0.7-2.5,1.6-3.8,2.3c-1.8,0.5-3,2.6-5.2,1.8
		C105.7,335,105.7,333.5,105.6,332z"/>
	<path id="XMLID_1479_" class="st3" d="M123.8,375.8c0.3,2.9,0.4,5.7,0,8.6c-5.4,4.3-11.2,8-17.9,10.1c0-2.6,0-5.3-0.1-7.9
		C111.3,382.2,116.9,377.9,123.8,375.8z"/>
	<path id="XMLID_1478_" class="st3" d="M404.9,414.5c0,2.7,0,5.3,0,8c-5.2,4.4-10.4,8.8-17.2,10.7c-0.3-3-0.3-6,0-9
		C392.9,420,398.4,416.3,404.9,414.5z"/>
	<path id="XMLID_1477_" class="st3" d="M123.7,349.7c0,2.8,0,5.6,0,8.4c-5.3,4.5-11.1,8.2-17.9,10.2c0-2.6,0-5.2,0-7.8
		C111.3,356,116.8,351.8,123.7,349.7z"/>
	<path id="XMLID_1476_" class="st3" d="M407,282.3c0,2.6,0,5.3,0,7.9c-3.1,3.5-7.6,5-11.4,7.5c-1.9,1.2-3.5,3.3-6.2,2.7
		c0-3.9-0.3-7.8,0.4-11.6c0.2,0.1,0.3,0.2,0.5,0.2c0.9,1.8,2,0.8,3.1,0.2c3.4-2,6.8-4.1,10.3-6C404.7,282.8,405.6,281.8,407,282.3z"
		/>
	<path id="XMLID_1475_" class="st3" d="M404.9,442c0,2.6,0,5.1,0,7.7c-1.1,2.1-3.1,3.2-5.1,4.3c-4,2.3-7.4,5.7-12.1,6.7
		c-0.3-3-0.3-6,0-9C392.9,447.4,398.3,443.6,404.9,442z"/>
	<path id="XMLID_1474_" class="st3" d="M387.7,388c-0.3-2.8-0.3-5.5,0-8.3c5.4-4.4,11.1-8.3,17.9-10.2c0,2.6-0.1,5.3-0.1,7.9
		C400.1,381.7,394.5,385.8,387.7,388z"/>
	<path id="XMLID_1473_" class="st3" d="M405,214.6c1.1,2.3,0.7,4.7,0.6,7.1c-1.2,2.3-3.6,3.1-5.5,4.3c-3.9,2.4-7.7,5.1-11.9,7.1
		c-0.3-3-0.6-6-0.9-8.9c5-4,10.8-6.6,16.2-9.8C404,214.2,404.6,214.3,405,214.6z"/>
	<path id="XMLID_1472_" class="st3" d="M123.7,361.4c0.3,2.7,0.3,5.5,0,8.3c-3.2,3.5-7.6,5.2-11.5,7.5c-2,1.1-3.7,3.2-6.4,2.6
		c0-2.5,0-5,0-7.6c1.1-2.1,3.3-3,5.2-4.2c2.9-1.9,6-3.6,8.9-5.5C121.1,361.7,122.2,360.9,123.7,361.4z"/>
	<path id="XMLID_1471_" class="st3" d="M123.7,337c0,2.7,0,5.4,0,8.1c-5.4,4.3-11,8.3-17.9,10c0-2.5,0-5,0-7.5
		c1.2-1.8,3-2.7,4.8-3.8c1.8-0.8,3.4-2.1,5.1-3c1.1-0.6,2.2-1.4,3.2-2.1c0.9-0.7,1.9-1.2,3-1.7C122.5,336.9,123.1,336.6,123.7,337z"
		/>
	<path id="XMLID_1470_" class="st3" d="M387.7,377.6c-0.3-2.7-0.3-5.5,0-8.2c0.9-1.4,2.2-2.3,3.7-3c3.3-1.8,6.6-3.8,9.9-5.6
		c1.3-0.8,2.7-1.8,4.4-1.4c0,2.5,0,5-0.1,7.6c-3.3,3.9-8.2,5.6-12.3,8.3C391.7,376.4,390.1,378.1,387.7,377.6z"/>
	<path id="XMLID_1469_" class="st3" d="M131.5,479.8c8.1-4.6,16.3-9.2,24.4-13.8c1.5,1.3,1.1,2.9,0.8,4.6c-1.9,2.9-5.2,4.1-8,5.9
		c-5.4,3.3-10.5,7.2-16.2,10c-0.4,0.1-0.7,0-1-0.2C131.5,484.1,131.5,481.9,131.5,479.8z"/>
	<path id="XMLID_1468_" class="st3" d="M117.4,330.2c0.4,0,0.7,0,1.1,0.1c0.9-0.7,1.8-1.4,2.5-2.3l0.1,0.1c0.9,0.2,1.7-0.9,2.6-0.2
		c0,2.6,0,5.2,0,7.7c-0.5,0.9-1.3,1.4-2.1,1.9c-0.9,0.7-2.1,0.9-2.9,1.6c-1.3,0.4-2,1.6-3.2,2.2c-1.9,0.8-3.4,2.2-5.2,3
		c-1.5,0.5-2.5,2.4-4.5,1.8c-0.3-2.5-0.4-5,0-7.5c1.3-2.1,3.6-2.9,5.6-4.1c1.2-0.6,2.1-1.6,3.3-2.1
		C115.8,331.8,116.5,330.9,117.4,330.2z"/>
	<path id="XMLID_1467_" class="st3" d="M405.6,349.7c0.1,0.4,0.2,0.7,0.2,1.1c0,2.2-0.1,4.3-0.1,6.5c-0.9,2-3,2.6-4.6,3.6
		c-3.3,2-6.6,4-10,5.9c-1.1,0.4-2,1.7-3.4,1.1c-0.3-2.7-0.3-5.4,0.1-8.2C393.2,355.3,398.9,351.6,405.6,349.7z"/>
	<path id="XMLID_1466_" class="st3" d="M390.1,274.7c0-2.8,0-5.5,0-8.3c3.4-4,8.5-5.4,12.6-8.3c1.5-1,2.9-1.8,3.2-3.8
		c0.2-0.3,0.4-0.6,0.7-0.8c0.8,3.7,0.4,7.4,0.4,11.1c-3.5,3.6-8.2,5.5-12.3,8.2C393.4,273.8,392.1,275.3,390.1,274.7z"/>
	<path id="XMLID_1465_" class="st3" d="M397.6,238c-2.8,1.5-5.6,3-8.4,4.5c-0.9-2.6-0.7-5.3-0.7-8c5.2-4,10.5-8.1,17.2-9.5
		c0.2,2.6,0.4,5.1,0.6,7.7c-1.9,0.3-3.2,2.3-5.3,2.3C400.2,236.4,398.6,236.8,397.6,238z"/>
	<path id="XMLID_1464_" class="st3" d="M404.9,403.7c0,2.5,0,5.1,0,7.6c-5.1,4.5-10.5,8.6-17.2,10.5c-0.3-3-0.3-6,0-9
		c1-1.4,2.5-2,4-2.6c3-1.6,5.7-3.6,8.7-5.2C401.8,404.4,403.1,403.2,404.9,403.7z"/>
	<path id="XMLID_1463_" class="st3" d="M123.6,433.7c0,2.8,0,5.6,0,8.4c-2.4,3.5-6.5,4.6-9.9,6.6c-2.3,1.3-4.2,3.7-7.3,3.2
		c-0.3-2.5-0.3-5.1,0-7.6C111.6,439.6,117,435.7,123.6,433.7z"/>
	<path id="XMLID_1462_" class="st3" d="M123.7,445.1c0.1,1.5,0.1,3.1,0.2,4.6c0.2,2,0.7,3.9,0.1,5.9c-0.2,0-0.3-0.1-0.5-0.1
		c-4.3,0.4-7.2,3.6-10.9,5.3c-2,0.9-3.6,2.7-6.1,2.4c0-2.5,0-5.1,0-7.6C111.6,451.1,117.1,447.3,123.7,445.1z"/>
	<path id="XMLID_1461_" class="st3" d="M406.4,293.4c0,2.5,0,5,0,7.5c-5.1,4.5-10.6,8.5-17.3,10.6c0.1-2.8,0.1-5.6,0.2-8.5
		c3.9-4.2,9.3-6,14-9C404.3,293.4,405.2,292.6,406.4,293.4z"/>
	<path id="XMLID_1460_" class="st3" d="M387.7,412c-0.3-2.8-0.3-5.5,0-8.3c5.2-4.2,10.7-8,17.3-9.8c0,2.5-0.1,5.1-0.1,7.6
		c-3.6,4-8.8,5.7-13,8.8C390.4,410.7,389.5,412.4,387.7,412z"/>
	<path id="XMLID_1459_" class="st3" d="M106.6,473.6c-0.1-0.3-0.2-0.7-0.2-1c-0.2-2.2-0.3-4.3,0.1-6.5c5.2-4.5,10.8-8.2,17.3-10.6
		c0,0,0.2,0.1,0.2,0.1c-0.1,2.7-0.1,5.5-0.2,8.2c-1.3,2.5-4,3.4-6.2,4.5C113.9,470.2,111,473.4,106.6,473.6z"/>
	<path id="XMLID_1458_" class="st3" d="M123.7,419.5c0,2.7,0,5.5,0,8.2c-3.1,3.8-7.7,5.1-11.6,7.5c-1.7,1-3.2,2.9-5.6,2.2
		c-0.3-2.5-0.3-5.1,0-7.6c2.7-3.7,7-5,10.7-7.3C119.1,421.3,120.8,419,123.7,419.5z"/>
	<path id="XMLID_1457_" class="st3" d="M407,271c0,2.5,0,5.1,0.1,7.6c-2.4,3.4-6.3,4.6-9.5,6.7c-2.3,1.5-4.4,3.7-7.5,3.7
		c0,0-0.2-0.2-0.2-0.2c0.1-2.7,0.2-5.4,0.2-8.2c2.4-3.4,6.4-4.4,9.7-6.4C402,272.9,404,270.7,407,271z"/>
	<path id="XMLID_1456_" class="st3" d="M341.3,217.1c-15.8,9.5-31.8,18.7-47.9,27.7c-0.9,0.4-1-0.1-0.9-0.8
		c12.1-7.7,24.3-15.5,36.4-23.2c1.8-1.1,3.7-2,5.1-3.7C336.5,217.2,338.9,217.1,341.3,217.1z"/>
	<path id="XMLID_1455_" class="st3" d="M406.6,253.6c-0.1,0.3-0.1,0.5-0.2,0.8c-5,4.1-10.1,8-16.4,9.8c-0.2-3.8-0.4-7.5-0.5-11.3
		c2.6,1,2.6,1,6.1-1.1c2.4-1.5,5-2.8,7.4-4.3c1-0.6,2.1-1.4,3.5-0.7C406.5,249.1,406.6,251.3,406.6,253.6z"/>
	<path id="XMLID_1454_" class="st3" d="M135.5,508.9c9.9-5.8,19.7-11.6,29.6-17.4c2-0.9,3.3,0.2,4.4,1.7c-3.5,2.2-7,4.3-10.5,6.5
		c-1.7,1.4-3.9,2.1-5.4,3.7c-3.4,1.8-6.8,3.7-10.3,5.5c-1.2,0.6-2,1.6-3.1,2.3C138.3,511.1,136.7,510.3,135.5,508.9z"/>
	<path id="XMLID_1453_" class="st3" d="M359.4,217.8c-12.8,7.5-25.7,15-38.5,22.5c-4.4,2.6-8.8,5-13.3,7.5c-0.8,0.4-0.9,0-0.8-0.7
		c14.4-9,28.8-18,43.2-27.1c1.4-0.8,2.7-1.7,4-2.6C355.8,217.6,357.6,217.7,359.4,217.8z"/>
	<path id="XMLID_1452_" class="st3" d="M329.3,271.1c17-10.5,33.9-21,50.9-31.4c0,1.2,0.1,2.3,0.1,3.5
		c-15.9,9.2-31.9,18.3-47.8,27.5c-0.7,0.4-1.5,0.8-2.3,1.2C329.3,272.2,329.2,271.8,329.3,271.1z"/>
	<path id="XMLID_1451_" class="st3" d="M380.9,264.3c-14.2,8.2-28.3,16.4-42.5,24.6c-1.6,1.4-3.3,1.4-4.9,0
		c15.8-9.2,31.5-18.3,47.3-27.5C380.9,262.3,380.9,263.3,380.9,264.3z"/>
	<path id="XMLID_1450_" class="st3" d="M324.8,247.8c14.1-8.8,28.3-17.5,42.4-26.3c1.3-0.8,2.4-1.6,3.7-2.5c1.4,0.1,2.8,0.2,4.1,1
		c-16.4,9.5-32.9,19-49.3,28.5C324.8,249,324.7,248.5,324.8,247.8z"/>
	<path id="XMLID_1449_" class="st11" d="M391.1,196c-6.3,3.7-12.5,7.4-18.8,11.2c-1.2,0.7-2.3,1.5-3.4,2.2c-2.2-0.2-4.4-0.4-6.6-0.7
		c7.8-5,15.5-10,23.3-15C387.6,194,389.4,194.8,391.1,196z"/>
	<path id="XMLID_1448_" class="st7" d="M105.9,379.7c6-3.4,11.9-6.7,17.9-10.1c0,2.1,0,4.1,0,6.2c-6,3.6-11.9,7.2-17.9,10.8
		C105.9,384.3,105.9,382,105.9,379.7z"/>
	<path id="XMLID_1447_" class="st10" d="M405,214.6c-6.1,2.9-11.4,7.1-17.7,9.6c-0.2-2.3-1.2-4.3-2.1-6.4c1.5,1.2,2.6,0.2,3.9-0.6
		c4.7-2.9,9.5-5.8,14.2-8.6C404.2,210.5,405.1,212.4,405,214.6z"/>
	<path id="XMLID_1446_" class="st12" d="M345.2,190.7c-8.8,5.6-18,10.7-27.1,15.8c0-1.5,0-3,0-4.5c4.6-4.9,10.5-7.6,16.3-10.6
		C338,190.6,341.6,190.6,345.2,190.7z"/>
	<path id="XMLID_1445_" class="st3" d="M193.8,218c-10.4,6-20.7,12.1-31.1,18.1c-0.1-0.2-0.3-0.4-0.4-0.7
		c7.1-6.1,14.3-12.1,21.4-18.2C187.1,217.5,190.5,217.7,193.8,218z"/>
	<path id="XMLID_1444_" class="st13" d="M407,271c-5.6,3.2-11.3,6.5-16.9,9.7c0-2,0-4,0-6c5.8-3.1,10.9-7.3,16.9-10
		C407,266.8,407,268.9,407,271z"/>
	<path id="XMLID_1443_" class="st14" d="M106.4,437.5c5.7-3.3,11.5-6.5,17.2-9.8c0.4,2,0.3,3.9,0,5.9c-5.7,3.5-11.4,7-17.2,10.5
		C106.5,441.9,106.5,439.7,106.4,437.5z"/>
	<path id="XMLID_1442_" class="st3" d="M155.5,367.9c0-2.4,0-4.7,0-8c-8.4,5.3-16.2,10.2-24,15.2c0-1.4,0-2.9,0.1-4.3
		c8.1-5,16.5-9.7,24.1-15.4c1.8,4.2,2,8.5,0.5,12.9c-0.2,0.5,0.1-0.1-0.3,0.2C155.2,368.8,155.7,368,155.5,367.9z"/>
	<path id="XMLID_1441_" class="st15" d="M186.5,191.8c0.6,1.9-1.3,1.8-2.2,2.4c-8.2,4.9-16.5,9.7-24.7,14.6c-0.9,0-1.8,0-2.7-0.1
		c7.4-5.7,14.9-11.4,22.3-17.2C181.6,191.6,184.1,191.7,186.5,191.8z"/>
	<path id="XMLID_1440_" class="st16" d="M389.2,311.5c5.8-3.5,11.5-7.1,17.3-10.6c1.1,4.2-0.2,7-4.4,8.8c-4.3,1.9-8.2,4.6-12.3,7
		c-1.3-1.3-0.2-2.8-0.7-4C389.1,312.3,389.1,311.9,389.2,311.5z"/>
	<path id="XMLID_1439_" class="st3" d="M172.5,216.3c-8.1,4.8-16.1,9.5-24.2,14.3c-0.2-0.2-0.3-0.4-0.5-0.7c3.5-3.7,7-7.4,10.5-11.1
		c0.9-1,2.1-1.8,2.3-3.3C164.5,215.3,168.5,215.8,172.5,216.3z"/>
	<path id="XMLID_1438_" class="st17" d="M220,519.3c-7.9,5.8-16.5,10.5-24.7,15.8c-1.4,0.9-2.9,1.9-4.3,2.9
		c-0.6,0.1-1.2,0.1-1.8,0.2c-1.2-0.4-2.9,1.2-3.7-1c10.2-6,20.3-12,30.5-18C217.3,519.4,218.6,519.3,220,519.3z"/>
	<path id="XMLID_1437_" class="st3" d="M169.8,313.7c-11,7-22,14.1-33,21.1c-1.8,1.1-3.6,2.3-5.3,3.4c0-1.3,0-2.6,0-3.9
		c12.3-6.9,24.7-13.8,36.7-21.3C169,312.4,169.5,312.7,169.8,313.7z"/>
	<path id="XMLID_1436_" class="st18" d="M106.6,473.6c5.7-3.2,11.4-6.5,17.1-9.7c0,1.9-0.1,3.8-0.1,5.6c-5.6,3.3-11.1,6.7-17,10.2
		C106.2,477.4,106.3,475.5,106.6,473.6z"/>
	<path id="XMLID_1435_" class="st3" d="M131.5,345.9c13.1-7.5,26.2-15,39.4-22.5c0.8-0.4,0.9,0,0.8,0.7
		c-13.4,8.4-26.8,16.9-40.2,25.3C131.5,348.3,131.5,347.1,131.5,345.9z"/>
	<path id="XMLID_1434_" class="st3" d="M131.5,451c8.6-5,17.1-9.9,25.7-14.9c1.5,2,1.6,4,0.2,6.1c-0.7-0.9-1.4-1.1-2.5-0.4
		c-7.5,4.7-14.8,9.5-22.5,14c-0.4,0.1-0.7,0-0.8-0.4C131.5,453.8,131.5,452.4,131.5,451z"/>
	<path id="XMLID_1433_" class="st19" d="M125.9,538.6c10.7-6.3,21.4-12.5,32-18.8c1.4-0.8,2.9-0.7,4.3-0.5
		c-8.9,6.2-18.4,11.4-27.5,17.3c-1,0.7-2,1.4-3,2.2C129.8,538.7,127.8,538.7,125.9,538.6z"/>
	<path id="XMLID_1432_" class="st3" d="M303.1,513.1c10.1-5.9,20.1-11.8,30.2-17.7c0.2,0.3,0.4,0.6,0.6,0.9
		c-7.2,5.6-14.5,11.2-21.7,16.8C309.2,513.1,306.1,513.1,303.1,513.1z"/>
	<path id="XMLID_1431_" class="st18" d="M406.5,320.6c-6,3.4-12,6.8-18,10.3c0-1.7,0-3.4,0.1-5.2c6-3.7,12-7.3,17.9-11
		C406.5,316.6,406.5,318.6,406.5,320.6z"/>
	<path id="XMLID_1430_" class="st3" d="M156.7,392.3c-8.4,5.2-16.8,10.5-25.2,15.7c0-1.4,0-2.8,0.1-4.2c7.6-4.7,15.2-9.4,22.9-14
		c1.1-0.6,1.6-1.4,1.8-2.6c0-0.1,0-0.2,0-0.4c-0.1-0.4,0-0.5,0.3-0.3C158.3,388.4,158.1,390.3,156.7,392.3z"/>
	<path id="XMLID_1429_" class="st20" d="M245.2,178.7c-1.3,2.6-4,3.1-6.2,4.4c-7.9,4.7-15.8,9.2-23.8,13.7c-0.8,0.3-1-0.1-0.8-0.8
		c1-1,1.9-2,2.9-3c0.9-1,1.8-2,2.4-3.1c0.6-1.3,2.2-2,2.3-3.5c5.3,0.1,10.2-1.4,14.6-4.4C239.2,180.2,242.2,179.3,245.2,178.7z"/>
	<path id="XMLID_1428_" class="st21" d="M141,205c5.4-4.6,10.9-9.1,16.3-13.7c1.6-1.4,3.4-0.3,5-0.8c1.9,0.1,3.7,0.2,5.6,0.4
		c-8.7,5-17.3,10-26,15C141,206.1,140.9,205.7,141,205z"/>
	<path id="XMLID_1427_" class="st18" d="M404.9,442c-5.7,3.2-11.4,6.5-17.1,9.7c0-1.5,0-3,0-4.5c5.7-3.7,11.4-7.4,17.2-11.1
		C404.9,438,404.9,440,404.9,442z"/>
	<path id="XMLID_1426_" class="st18" d="M105.8,355.1c6-3.3,11.9-6.6,17.9-10c0,1.5,0,3,0,4.5c-6,3.6-12,7.2-17.9,10.8
		C105.8,358.7,105.8,356.9,105.8,355.1z"/>
	<path id="XMLID_1425_" class="st16" d="M122.7,483.3c-4.3,2.7-8.6,5.4-13,8.1c-0.9,0.6-1.9,1.8-2.9,1.3c-1.2-0.7-0.4-2.3-0.5-3.4
		c-0.1-0.5,0.1-1,0.1-1.5c5.5-3.2,11.1-6.4,16.6-9.6C122.9,479.9,122.8,481.6,122.7,483.3z"/>
	<path id="XMLID_1424_" class="st22" d="M406.5,246.8c-5.3,2.9-10.6,5.9-15.9,8.9c-1.3-0.6-0.2-2.1-1-2.8c0-0.5,0-0.9,0-1.4
		c5.6-3.5,11.2-6.9,16.8-10.4C406.4,243,406.4,244.9,406.5,246.8z"/>
	<path id="XMLID_1423_" class="st23" d="M387.7,433.2c5.7-3.6,11.4-7.1,17.2-10.7c0,1.8,0,3.7,0,5.5c-5.7,3.2-11.4,6.4-17.2,9.7
		C387.7,436.2,387.7,434.7,387.7,433.2z"/>
	<path id="XMLID_1422_" class="st24" d="M405,394c-5.8,3.3-11.5,6.5-17.3,9.8c0-1.5,0-3,0-4.5c5.1-3.2,10.2-6.3,15.2-9.6
		c1.3-0.9,2.2-1.1,2.3,0.9C405.2,391.7,405.1,392.8,405,394z"/>
	<path id="XMLID_1421_" class="st3" d="M334.4,191.4c-5.1,4-10.8,7.1-16.3,10.6c-0.2-2.7-0.4-5.4-0.6-8c0.5-1.4,2-1.1,2.9-1.7
		C325,191.6,329.7,191.3,334.4,191.4z"/>
	<path id="XMLID_1420_" class="st24" d="M123.7,317.7c-5.7,3.7-11.5,7.4-17.2,11.1c-1.4-2.2-1.8-4.3,0.9-5.9
		c5.4-3.1,10.8-6.1,16.3-9.2C123.7,315,123.7,316.4,123.7,317.7z"/>
	<path id="XMLID_1419_" class="st3" d="M381.3,286c0,0-0.2-0.1-0.2-0.1c-0.1-3.4,1.7-8-0.7-9.7c-1.6-1.2-5.6,2.6-8.5,4.2
		c-5.7,3.2-11.4,6.5-17.1,9.7c-0.8,0.2-1.5,0.1-1.5-1c9.3-5.7,18.5-11.5,27.8-17.2C381.8,276.6,381.9,281.3,381.3,286z"/>
	<path id="XMLID_1418_" class="st19" d="M125.1,510.8c-6.2,3.7-12.4,7.4-18.6,11.1c-0.9-1.3-0.9-2.7-0.8-4.2c6-3.4,12-6.9,18-10.3
		C124.2,508.5,124.6,509.6,125.1,510.8z"/>
	<path id="XMLID_1417_" class="st3" d="M237,492.9c-10,6.5-19.9,13-29.9,19.4c-2,0-3.9,0-5.9,0c11.7-6.7,23.3-13.4,35-20.1
		C237,491.8,237,492.2,237,492.9z"/>
	<path id="XMLID_1416_" class="st3" d="M131.5,415.6c9.7-5.7,19.4-11.4,29.2-17.1c1.1-0.2,1.5,0.4,1.6,1.3
		c-10.2,6.3-20.5,12.7-30.7,19C131.5,417.8,131.5,416.7,131.5,415.6z"/>
	<path id="XMLID_1415_" class="st3" d="M131.5,382.7c7.9-4.5,15.8-9,23.8-13.5c1.2,1.5,2.3,3,0.5,4.8c-0.4-2.5-1.7-1.6-3-0.8
		c-7.1,4.4-14.1,8.8-21.2,13.2C131.5,385.2,131.5,383.9,131.5,382.7z"/>
	<path id="XMLID_1414_" class="st21" d="M405.6,349.7c-6,3.3-11.9,6.7-17.9,10c0-1.3,0-2.6,0-4c5.9-3.6,11.7-7.1,17.6-10.7
		C406.3,346.8,405.9,348.2,405.6,349.7z"/>
	<path id="XMLID_1413_" class="st3" d="M156.6,345.2c-8.4,5.1-16.7,10.3-25.1,15.4c0-1.2,0-2.3,0-3.5c8.7-5,17.4-9.9,26.1-14.9
		C158.3,343.6,157.8,344.5,156.6,345.2z"/>
	<path id="XMLID_1412_" class="st3" d="M155.8,280c-8.1,5.3-16.2,10.6-24.3,15.9c0-1.3,0-2.6,0-3.9c7.4-4.2,14.7-8.4,22.1-12.6
		c1-0.6,1.9-1.2,2-2.4c-0.5,0.2,0.5-0.3,0-0.4c0,0,0-0.2,0-0.3C157.3,277.3,157,278.6,155.8,280z"/>
	<path id="XMLID_1411_" class="st3" d="M261.4,214c5.7-3.4,11.4-6.8,17.1-10.3c0.2,0.3,0.4,0.5,0.7,0.8c-5,4.6-10,9.2-14.9,13.8
		c-1.5,0-3,0-4.5,0C259.4,216.6,261,215.5,261.4,214z"/>
	<path id="XMLID_1410_" class="st3" d="M256.3,512.5c9.3-5.9,18.9-11.3,28.6-16.6c0.8-0.4,0.9,0.1,0.8,0.7
		c-7.7,5.2-15.4,10.5-23.1,15.7c-0.3,0.5-0.7,0.5-1.1,0.2C259.8,512.5,258.1,512.5,256.3,512.5z"/>
	<path id="XMLID_1409_" class="st3" d="M293.9,225.4c-9.9,5.7-19.8,11.4-29.8,17.1c-0.8,0.4-0.9,0-0.8-0.7
		c7.3-4.7,14.6-9.5,21.9-14.2c1.2-0.8,2.3-1.8,3.5-2.7C290.4,225.1,292.1,225.2,293.9,225.4z"/>
	<path id="XMLID_1408_" class="st3" d="M255.8,224.5c-8.5,5.4-17.3,10.3-26.1,15.1c-0.8,0.3-0.9-0.1-0.9-0.7
		c6.8-4.6,13.6-9.2,20.9-14.2c-2.1-0.2-3.5-0.3-5-0.5C248.5,223.6,252.1,224.4,255.8,224.5z"/>
	<path id="XMLID_1407_" class="st3" d="M219.9,512.4c9.7-6,19.7-11.7,29.7-17.2c0.8-0.4,0.9,0.1,0.8,0.7
		c-7.2,4.7-14.4,9.4-21.6,14.1c-1.1,0.7-2.2,1.6-3.3,2.4C223.7,512.4,221.8,512.4,219.9,512.4z"/>
	<path id="XMLID_1406_" class="st3" d="M131.5,315.2c8.2-4.6,16.4-9.3,24.5-13.9c0.9,0.3,1.3,0.8,0.6,1.7
		c-8.4,5.3-16.8,10.6-25.1,15.9C131.5,317.7,131.5,316.5,131.5,315.2z"/>
	<path id="XMLID_1405_" class="st3" d="M275.5,224.5c-8.8,5.7-18,10.7-27.2,15.8c-0.8,0.3-1-0.1-0.8-0.8c6.9-4.6,13.8-9.2,20.8-13.7
		c1.7-1.1,1-1.4-0.3-1.6C270.5,224.3,273,224.4,275.5,224.5z"/>
	<path id="XMLID_1404_" class="st25" d="M399.7,202.7c-6.2,3.6-12.4,7.1-18.6,10.7c-0.8-0.4-1.7-0.8-2.5-1.2
		c6.1-4.3,12.5-8,18.9-11.8C398.4,200.9,399.2,201.7,399.7,202.7z"/>
	<path id="XMLID_1403_" class="st3" d="M155.2,292.1c-7.9,5.2-15.8,10.4-23.8,15.5c0-1.2,0-2.5,0-3.7c7.9-4.5,15.8-9,23.7-13.5
		C155.7,290.9,155.7,291.5,155.2,292.1z"/>
	<path id="XMLID_1402_" class="st17" d="M123.7,361.4c-6,3.6-11.9,7.2-17.9,10.8c0-1.3,0-2.5,0-3.8c6-3.4,11.9-6.8,17.9-10.2
		C123.7,359.2,123.7,360.3,123.7,361.4z"/>
	<path id="XMLID_1401_" class="st26" d="M114.7,534.8c8.6-5.1,17.2-10.2,25.8-15.3c1-0.1,1.9-0.5,3.2,0.2
		c-9,5.5-17.8,10.9-26.7,16.2C116.2,535.5,115.4,535.1,114.7,534.8z"/>
	<path id="XMLID_1400_" class="st3" d="M325,513.1c7-4.1,14-8.3,21-12.4c0.2,0.3,0.4,0.5,0.6,0.8c-4.5,3.8-9.1,7.7-13.6,11.5
		C330.4,513.1,327.7,513.1,325,513.1z"/>
	<path id="XMLID_1399_" class="st27" d="M390,289c5.7-3.5,11.3-6.9,17-10.4c0,1.2,0,2.5,0,3.7c-4.9,2.8-9.8,5.6-14.6,8.5
		C389.6,292.6,389.7,291.1,390,289z"/>
	<path id="XMLID_1398_" class="st28" d="M105.7,257.2c6-3.4,12-6.8,18-10.2c0,0.8,0,1.5,0,2.3c-5.8,3.9-11.6,7.8-17.8,12
		c-0.1-1.5-0.2-2.7-0.3-3.8C105.6,257.5,105.7,257.2,105.7,257.2z"/>
	<path id="XMLID_1397_" class="st17" d="M123.7,445.1c-5.7,3.5-11.5,6.9-17.2,10.4c0-1.2,0-2.5,0-3.7c5.7-3.2,11.5-6.5,17.2-9.7
		C123.7,443.1,123.7,444.1,123.7,445.1z"/>
	<path id="XMLID_1396_" class="st29" d="M106.5,281.6c-1.8-1.7-1.4-3.3,0.6-4.4c5.5-3.1,11-6.2,16.6-9.3c0,0.8,0,1.6,0,2.4
		C117.9,274.1,112.2,277.9,106.5,281.6z"/>
	<path id="XMLID_1395_" class="st3" d="M354.8,425.6c8.2-5.3,16.5-10.5,24.7-15.8c0,1,0,2,0,3c-8,4.5-15.9,9-23.9,13.5
		C354.8,426.7,354.7,426.2,354.8,425.6z"/>
	<path id="XMLID_1394_" class="st30" d="M387.7,388c5.9-3.5,11.9-7.1,17.8-10.6c0,1,0,1.9,0,2.9c-5.9,3.4-11.8,6.8-17.8,10.2
		C387.7,389.6,387.7,388.8,387.7,388z"/>
	<path id="XMLID_1393_" class="st31" d="M105.9,394.5c6-3.4,11.9-6.7,17.9-10.1c0,0.8,0,1.7,0,2.5c-5.9,3.6-11.9,7.1-17.8,10.7
		C106,396.6,106,395.6,105.9,394.5z"/>
	<path id="XMLID_1392_" class="st32" d="M123.8,225.3c-6,4.4-12,8.8-17.9,13.2c0-1.5,0-2.9,0-4.4c6-3.4,11.9-6.8,17.9-10.2
		C123.8,224.4,123.8,224.9,123.8,225.3z"/>
	<path id="XMLID_1391_" class="st3" d="M381.4,306.1c-0.1-2-0.2-4.1-0.4-6.5c-8.2,4.6-16,9-23.9,13.5c-0.8,0.4-0.9-0.1-0.8-0.8
		c8.3-5,16.6-10,24.8-15C381.8,300.3,381.8,303.2,381.4,306.1z"/>
	<path id="XMLID_1390_" class="st3" d="M156.7,427.6c-8.4,5.2-16.8,10.5-25.2,15.7c0-0.9,0-1.8,0-2.7c8.1-4.6,16.3-9.1,24.4-13.7
		C156.7,426.5,156.8,427,156.7,427.6z"/>
	<path id="XMLID_1389_" class="st33" d="M405.7,225c-5.7,3.2-11.4,6.3-17.2,9.5c-0.1-0.5-0.2-1-0.3-1.4c2-3,5.4-3.9,8.1-5.7
		c3-2,6.2-3.8,9.3-5.6C405.7,222.8,405.7,223.9,405.7,225z"/>
	<path id="XMLID_1388_" class="st3" d="M238.4,512.4c7.6-4.8,15.4-9.2,23.2-13.5c0.8-0.4,0.9,0.1,0.8,0.7c-6.3,4.3-12.7,8.6-19,12.8
		C241.8,512.5,240.1,512.4,238.4,512.4z"/>
	<path id="XMLID_1387_" class="st3" d="M380.8,473.5c-5.6,3.1-11.1,6.3-16.7,9.4c-0.2-0.3-0.4-0.6-0.6-0.8
		c5.6-4.2,11.2-8.4,16.8-12.6C380.8,470.8,380.9,472.1,380.8,473.5z"/>
	<path id="XMLID_1386_" class="st34" d="M387.7,421.9c5.7-3.5,11.5-7,17.2-10.5c0,1.1,0,2.1,0,3.2c-5.7,3.2-11.5,6.4-17.2,9.7
		C387.7,423.4,387.7,422.6,387.7,421.9z"/>
	<path id="XMLID_1385_" class="st35" d="M406.4,293.4c-5.7,3.2-11.4,6.4-17.1,9.6c0-0.8,0-1.7,0-2.5c6-3.1,11.4-7.4,17.6-10.2
		c0,0.9,0,1.7-0.1,2.6C406.8,293,406.6,293.2,406.4,293.4z"/>
	<path id="XMLID_1384_" class="st3" d="M131.5,247.6c4.6-2.6,9.2-5.2,13.7-7.9c0.2,0.3,0.4,0.6,0.6,0.8c-4.8,4-9.6,8-14.4,12
		C131.5,250.9,131.5,249.3,131.5,247.6z"/>
	<path id="XMLID_1383_" class="st3" d="M357.8,434.6c7.2-4.6,14.4-9.2,21.6-13.8c0,0.9,0,1.8,0,2.6c-7,4-13.9,7.9-20.9,11.9
		C357.8,435.7,357.7,435.2,357.8,434.6z"/>
	<path id="XMLID_1382_" class="st34" d="M123.7,455.5c-5.8,3.5-11.5,7-17.3,10.6c0-1,0-2,0-2.9c5.1-2.9,10.2-5.8,15.3-8.7
		C123.1,453.6,124.1,453.2,123.7,455.5z"/>
	<path id="XMLID_1381_" class="st34" d="M123.7,419.5c-5.7,3.5-11.5,6.9-17.2,10.4c0-1,0-1.9,0-2.9c5.1-2.9,10.1-5.8,15.2-8.7
		C123,417.6,124.3,416.9,123.7,419.5z"/>
	<path id="XMLID_1380_" class="st36" d="M390,264.1c5.5-3.3,10.9-6.5,16.4-9.8c0.6,1.9-0.3,2.9-1.9,3.8c-4.8,2.7-9.6,5.5-14.5,8.2
		C390.1,265.6,390,264.9,390,264.1z"/>
	<path id="XMLID_1379_" class="st37" d="M387.7,377.6c6-3.5,12-7.1,17.9-10.6c0,0.8,0,1.7,0,2.5c-6,3.4-11.9,6.8-17.9,10.2
		C387.7,379,387.7,378.3,387.7,377.6z"/>
	<path id="XMLID_1378_" class="st3" d="M309.6,192.2c-5.1,2.8-10.1,5.7-15.9,8.9c2.5-4.5,6.7-5.9,9.3-8.9c2.1-0.9,3.5-3.2,6.1-2.9
		C310,190.2,309.7,191.2,309.6,192.2z"/>
	<path id="XMLID_1377_" class="st38" d="M387.7,460.7c5.7-3.7,11.5-7.3,17.2-11c0,1,0,1.9,0,2.9c-5.7,3.2-11.5,6.5-17.2,9.7
		C387.7,461.8,387.7,461.2,387.7,460.7z"/>
	<path id="XMLID_1376_" class="st39" d="M108.8,528.2c7-3.8,13.5-8.3,20.7-11.6c0.3,0.3,0.6,0.6,0.9,0.9
		c-6.9,4.1-13.8,8.2-20.7,12.4C109.4,529.3,109.1,528.8,108.8,528.2z"/>
	<path id="XMLID_1375_" class="st3" d="M149.8,215.6c-4.4,2.6-8.8,5.2-13.6,8.1c-0.3-2.3,1.3-3.4,0.9-4.9
		C141.1,216.6,145.4,215.8,149.8,215.6z"/>
	<path id="XMLID_1374_" class="st40" d="M189,527.4c-5.6,3.6-11.2,7.1-16.7,10.7c-0.2,0-0.3,0.1-0.5,0.1c-0.9-0.1-1.7-0.2-3.5-0.3
		c7.1-4,13.5-7.6,19.8-11.2C188.9,526.3,189,526.7,189,527.4z"/>
	<path id="XMLID_1373_" class="st3" d="M379.5,444.9c-5.5,3.1-10.9,6.1-16.4,9.2c-0.8,0.4-0.9-0.1-0.9-0.7c5.5-4,11.3-7.4,17.2-10.6
		C379.5,443.4,379.5,444.2,379.5,444.9z"/>
	<path id="XMLID_1372_" class="st41" d="M343.5,199.7c3.7-2.2,7.4-4.5,11.1-6.7c1.2-0.7,2.4-1.3,2.7-2.9c1.7,0,3.4,0,5.2,0
		c-5.8,3.9-11.8,7.2-17.9,10.5C343.5,200.9,343.4,200.5,343.5,199.7z"/>
	<path id="XMLID_1371_" class="st42" d="M376.4,191.5c-5.5,3.6-11.2,6.8-17,9.8c-0.8,0.3-1-0.1-0.9-0.8c3.9-2.4,7.8-4.9,11.7-7.3
		c1-0.6,2.3-1.1,2.7-2.4C374.2,190.7,375.3,191.1,376.4,191.5z"/>
	<path id="XMLID_1370_" class="st3" d="M206.8,218.3c4.4-3.4,9.5-5.6,14.1-8.5c0.2,0.3,0.4,0.5,0.6,0.8c-3.6,2.9-7.2,5.8-10.9,8.7
		C209.2,219.5,208,218.9,206.8,218.3z"/>
	<path id="XMLID_1369_" class="st43" d="M117,216.3c-3.7,3-7.3,6-11,9c0.1-1.3,0.1-2.6,0.2-3.9c3.4-2,6.7-3.9,10.1-5.9
		C117,215.2,117.2,215.6,117,216.3z"/>
	<path id="XMLID_1368_" class="st44" d="M323.5,538.1c-1.4,0-2.7,0-4.1,0c-0.1-0.2-0.2-0.4-0.3-0.6c4.6-2.6,9.2-5.2,13.8-7.8
		c0.8-0.3,1,0.1,0.8,0.8C330.3,533,326.9,535.5,323.5,538.1C323.5,538,323.5,538.1,323.5,538.1z"/>
	<path id="XMLID_1367_" class="st45" d="M390.8,366.3c5-3,10-6.1,15-9.1c0,0.7,0,1.5,0,2.2c-4.7,2.6-9.3,5.1-14,7.7
		C390.8,367.5,390.7,367,390.8,366.3z"/>
	<path id="XMLID_1366_" class="st44" d="M390.8,469.8c4.7-3.1,9.5-6.2,14.2-9.3c0,0.8,0,1.7,0.1,2.5c-4.5,2.5-9,5-13.5,7.6
		C390.8,470.9,390.6,470.5,390.8,469.8z"/>
	<path id="XMLID_1365_" class="st3" d="M379.4,433.8c-4.5,2.5-8.9,5-13.4,7.5c-0.8,0.4-0.9-0.1-0.8-0.7c4.7-3.1,9.4-6.1,14.2-9.2
		C379.4,432.2,379.4,433,379.4,433.8z"/>
	<path id="XMLID_1364_" class="st3" d="M189.8,230.5c3.3-2.5,6.5-5,9.8-7.5c1.3,0.4,2.6,0.8,3.8,1.1c-4.3,2.4-8.6,4.7-12.9,7.1
		C189.7,231.6,189.6,231.2,189.8,230.5z"/>
	<path id="XMLID_1363_" class="st3" d="M381.6,485.1c-2.9,1.6-5.9,3.1-8.8,4.7c-0.2-0.2-0.4-0.4-0.6-0.7c1.8-1.6,3.7-3.1,5.5-4.8
		c1.5-1.4,3.6-2.3,3.6-4.8C381.9,481.4,381.5,483.3,381.6,485.1z"/>
	<path id="XMLID_1362_" class="st46" d="M391.5,409.9c4.5-2.8,8.9-5.5,13.4-8.3c0,0.7,0,1.4,0,2.2c-4.3,2.4-8.5,4.7-12.8,7.1
		C391.6,410.8,391.3,410.5,391.5,409.9z"/>
	<path id="XMLID_1361_" class="st3" d="M345.9,513c3.6-2.1,7.1-4.2,11.6-6.8c-1.7,3.4-4.2,4.7-5.8,6.7
		C349.7,513,347.8,513,345.9,513z"/>
	<path id="XMLID_1360_" class="st3" d="M131.5,261.3c4.3-2.4,8.6-4.8,12.9-7.2c-3.5,4.2-8.5,6.2-12.9,9.2
		C131.5,262.6,131.5,262,131.5,261.3z"/>
	<path id="XMLID_1359_" class="st45" d="M288.7,537.2c3.7-2,7.5-4,11.2-6c0.8-0.3,1,0.1,0.8,0.8c-2.8,2-5.7,4.1-8.5,6.1
		c-0.1,0-0.3,0-0.4,0.1C290.7,538.2,289.2,539.2,288.7,537.2z"/>
	<path id="XMLID_1358_" class="st47" d="M263.1,187.7c2.4-2.8,5.7-4.4,8.4-6.8c0.8,0.5,1.6,1,2.4,1.5c-3.3,1.8-6.6,3.6-9.9,5.4
		C263.7,188.1,263.4,188,263.1,187.7z"/>
	<path id="XMLID_1357_" class="st48" d="M261.4,214c0.8,2-0.6,3.2-1.7,4.4c-2,0-4.1,0-6.1,0C256.1,216.8,258.5,214.9,261.4,214z"/>
	<path id="XMLID_1356_" class="st49" d="M396.9,495.2c2.3-3.6,6.3-5,9.5-7.4c0,0.8,0,1.6,0.1,2.3
		C403.2,491.6,400.4,494.1,396.9,495.2z"/>
	<path id="XMLID_1355_" class="st50" d="M373.4,534.5c-0.9,2.3-3.5,2.9-4.7,5c-1.5,0-3.1,0-4.6,0c2.9-2.2,5.9-4.1,9.4-5.3
		L373.4,534.5z"/>
	<path id="XMLID_1354_" class="st51" d="M114.7,243.1c-3,2-6,4.1-8.9,6.1c0-0.8,0-1.6,0-2.4c2.7-1.5,5.4-3,8.1-4.5
		C114.7,242,114.8,242.5,114.7,243.1z"/>
	<path id="XMLID_1353_" class="st3" d="M131.5,272.7c2.1-1.1,4.3-2.2,6.4-3.3c0.9-0.4,1,0.1,0.9,0.8c-2.4,1.7-4.8,3.4-7.3,5.1
		C131.5,274.5,131.5,273.6,131.5,272.7z"/>
	<path id="XMLID_1352_" class="st3" d="M131.4,233.6c1.6-0.8,3.2-1.5,5.4-2.6c-1.4,3.2-3.7,4.6-5.4,6.6
		C131.4,236.3,131.4,234.9,131.4,233.6z"/>
	<path id="XMLID_1351_" class="st3" d="M220,224.5c-2.6,2.1-5.6,3.5-8.9,4.4c1.9-1.5,3.8-2.9,5.7-4.4
		C217.8,224.5,218.9,224.5,220,224.5z"/>
	<path id="XMLID_1350_" class="st52" d="M379.4,343.7c0.5-0.3,0.9-0.6,1.4-0.8c0.2,4.7,0.3,9.3-0.4,13.9c-1-1.6,1.5-4.3-1.7-5.1
		c0.1-0.3,0.2-0.6,0.4-0.9C381,348.5,380.6,346.1,379.4,343.7z"/>
	<path id="XMLID_1349_" class="st53" d="M131.5,486.2c0.2,0,0.3,0.1,0.5,0.1c2.4,4.9,1.6,9.9,0.3,14.9c0,0-0.3,0.1-0.3,0.1
		C130.6,496.3,131.4,491.2,131.5,486.2z"/>
	<path id="XMLID_1348_" class="st9" d="M131.5,455.3c0.2,0.1,0.3,0.1,0.5,0.1c2,2.5,1,5.4,1.2,8.2c0.1,2.1,0.2,4.2-0.3,6.3
		c-0.3,0.6-0.5,1.4-1.4,1.4C131.5,465.9,131.5,460.6,131.5,455.3z"/>
	<path id="XMLID_1347_" class="st54" d="M309.1,189.3c-1.9,1.2-3.6,2.9-6.1,2.9c1.2-1.9,2.9-3.4,4.8-4.7
		C308.5,188,309,188.5,309.1,189.3z"/>
	<path id="XMLID_1346_" class="st55" d="M261.5,512.6c0.4-0.1,0.8-0.1,1.1-0.2c5,0,9.9,0.1,14.9,0.1c0,0.2-0.1,0.3-0.1,0.5
		C272.1,513.1,266.8,513.7,261.5,512.6z"/>
	<path id="XMLID_1345_" class="st56" d="M397.5,475.8c2.4-1.6,4.5-3.9,7.6-4.5c0,0.2,0,0.5,0.1,0.7c-2,2-4.4,3.2-6.8,4.5
		C397.5,476.9,397.4,476.5,397.5,475.8z"/>
	<path id="XMLID_1344_" class="st3" d="M201.1,198.2c1.3-0.7,2.6-1.3,4.4-2.2c-1,2.8-3,4.2-4.5,6
		C201.1,200.7,201.1,199.4,201.1,198.2z"/>
	<path id="XMLID_1343_" class="st3" d="M365.6,512.5c1.7-1.6,3.7-2.5,5.8-3.5c0.3,1.8-1,2.4-1.1,3.5
		C368.8,512.5,367.2,512.5,365.6,512.5z"/>
	<path id="XMLID_1342_" class="st57" d="M277.4,513c0.1-0.2,0.1-0.3,0.1-0.5c0.7,0.2,0.6-2.5,2.1-0.4c0.9,1.3,3,0.3,4.6,0.5
		c1.4,0.2,3-0.5,4.4,0.5C284.8,513.3,281.1,513.4,277.4,513z"/>
	<path id="XMLID_1341_" class="st58" d="M192.8,199.7c-1.5,0.8-3,1.5-4.4,2.3c-0.8,0.3-1-0.1-0.8-0.8c1.7-1.2,3.1-3,5.4-3.2
		C192.9,198.6,192.8,199.2,192.8,199.7z"/>
	<path id="XMLID_1340_" class="st59" d="M111.7,334.7c-2,1.3-4,2.5-6,3.8c0-0.7,0-1.3,0-2c1.7-0.9,3.4-1.7,5.1-2.6
		C111.6,333.5,111.8,333.9,111.7,334.7z"/>
	<path id="XMLID_1339_" class="st60" d="M383.6,538c1.1-1.5,3-2.1,4.5-3c1.2-0.7,1.9-0.3,1.4,1.2C387.7,537.2,385.8,538,383.6,538z"
		/>
	<path id="XMLID_1338_" class="st61" d="M297,185.5c-2,1.3-4,2.5-6.4,4c0.4-2.2,2.1-2.7,2.7-3.9C294.5,185.6,295.8,185.6,297,185.5z
		"/>
	<path id="XMLID_1337_" class="st62" d="M244.5,215.5c-1.2,1-2.5,1.9-3.7,2.9c-1,0-2,0-3,0c1.8-1.6,3.9-2.6,6-3.7
		C244.5,214.4,244.7,214.8,244.5,215.5z"/>
	<path id="XMLID_1336_" class="st63" d="M105.7,345.9c1.4-0.7,2.9-1.5,4.3-2.2c0.9-0.4,1,0.1,1,0.8c-1.7,1.1-3.5,2.1-5.2,3.2
		C105.8,347,105.7,346.5,105.7,345.9z"/>
	<path id="XMLID_1335_" class="st3" d="M281.9,215.5c1.1-0.7,2.3-1.4,4-2.4c-0.6,2.9-3,3.5-3.9,5.3c-0.6,0-1.2,0-1.8,0
		C280.1,217,281.6,216.6,281.9,215.5z"/>
	<path id="XMLID_1334_" class="st3" d="M145.9,537.9c3.2,0,6.3,0.1,9.5,0.1c-3.9,0.7-7.8,0.7-11.6,0
		C144.5,538,145.2,538,145.9,537.9z"/>
	<path id="XMLID_1333_" class="st3" d="M191.2,510.2c-0.9,0.7-1.9,1.4-2.8,2.1c-1,0-2,0-3,0c1.7-1,3.4-1.9,5.1-2.9
		C191.3,509.1,191.4,509.5,191.2,510.2z"/>
	<path id="XMLID_1332_" class="st64" d="M156.7,510.2c0.8-0.1,1-2.3,2.3-0.7c0.2,1.3-0.5,2.2-1.5,2.9c-0.8,0-1.5,0-2.3,0
		C155,511.2,156.5,511.2,156.7,510.2z"/>
	<path id="XMLID_1331_" class="st65" d="M281.9,215.5c0,1.3-1.1,1.9-1.7,2.9c-0.9,0-1.8,0-2.7,0
		C278.5,216.7,280.4,216.5,281.9,215.5z"/>
	<path id="XMLID_1330_" class="st66" d="M278.9,522.1c1.2-0.8,2.5-1.5,3.7-2.3c0.5,0.1,1.1,0.1,1.6,0.2c-1.3,1.2-2.7,2.3-4.4,2.9
		C279.4,522.7,278.9,522.6,278.9,522.1z"/>
	<path id="XMLID_1329_" class="st3" d="M376.5,402.3c1-0.6,2-1.2,3-1.8c0.2,1.1,0.9,2.1,0.2,3.2c-0.3-2.1-1.4-1-2.4-0.7
		C376.5,403.4,376.4,403,376.5,402.3z"/>
	<path id="XMLID_1328_" class="st67" d="M318.8,217.9c-1,1.1-1.5,3.1-3.7,2.1C315.6,218.1,316.8,217.4,318.8,217.9z"/>
	<path id="XMLID_1327_" class="st58" d="M390.8,366.3c0.3,0.3,0.6,0.5,0.9,0.8c-1.2,1-2.5,1.8-4,2.3c0-0.5,0-1.1,0-1.6
		C388.7,367.3,389.7,366.8,390.8,366.3z"/>
	<path id="XMLID_1326_" class="st68" d="M156.7,510.2c0.1,1.2-1,1.4-1.5,2.2c-1,0-2,0-3,0C153.4,511,155.1,510.7,156.7,510.2z"/>
	<path id="XMLID_1325_" class="st69" d="M390.8,469.8c0.3,0.3,0.6,0.5,0.9,0.8c-1.1,1-2.4,1.8-3.9,2.3c0-0.5,0-1,0-1.5
		C388.7,470.9,389.7,470.3,390.8,469.8z"/>
	<path id="XMLID_1324_" class="st3" d="M268.7,538.2c0.5-0.3,1.1-0.6,1.6-0.8c1.7,0.1,3.5-0.8,4.9,0.6c0,0,0.2,0.2,0.2,0.2
		C273.2,538.7,270.9,538.7,268.7,538.2z"/>
	<path id="XMLID_1323_" class="st3" d="M381.1,297.3c0.1-2,0.2-3.9,0.4-5.9C381.7,293.4,382.1,295.4,381.1,297.3z"/>
	<path id="XMLID_1322_" class="st3" d="M380,383.1c-0.9,0.3-1.8,0.5-3,0.9c0.7-1.8,2-2.1,3-2.8C380,381.8,380,382.5,380,383.1z"/>
	<path id="XMLID_1321_" class="st63" d="M391.5,409.9c0.2,0.3,0.4,0.6,0.6,0.9c-1.3,1-2.8,1.7-4.4,2c0-0.3,0-0.6,0-0.8
		C389,411.3,390.3,410.6,391.5,409.9z"/>
	<path id="XMLID_1320_" class="st70" d="M140.1,511.1c0.4-1.7,1.6-2.2,3.1-2.3c-0.5,0.9-1,1.8-1.5,2.8
		C141.2,511.4,140.7,511.3,140.1,511.1z"/>
	<path id="XMLID_1319_" class="st3" d="M185.5,537.3c0.9,1.5,2.6,0.3,3.7,1c-1.8,0.4-3.5,0.4-5.3-0.1
		C184.5,537.9,185,537.6,185.5,537.3z"/>
	<path id="XMLID_1318_" class="st71" d="M190.7,210.9c0.8-0.6,1.4-1.5,2.6-1.4C193.9,212.7,192.2,211.6,190.7,210.9z"/>
	<path id="XMLID_1317_" class="st3" d="M379.8,392.6c-0.9,0.5-1.8,0.9-3.2,1.6c0.8-1.9,2.3-2.1,3.2-3
		C379.8,391.6,379.8,392.1,379.8,392.6z"/>
	<path id="XMLID_1316_" class="st3" d="M380.9,328.7c-1,0.5-2,0.9-2.9,1.4c-0.1-0.2-0.3-0.3-0.4-0.5c1.1-0.7,2.2-1.4,3.3-2.2
		C380.9,327.9,380.9,328.3,380.9,328.7z"/>
	<path id="XMLID_1315_" class="st3" d="M380.2,360.2c-0.7,0.3-1.4,0.6-2.1,0.9c-0.9,0.4-1-0.1-0.9-0.8c1-0.6,2-1.2,3-1.8
		C380.2,359.1,380.2,359.6,380.2,360.2z"/>
	<path id="XMLID_1314_" class="st3" d="M288.7,537.2c0.7,1.5,2.1,0.5,3.1,0.9c-1.9,0.6-3.7,0.6-5.6-0.1
		C287.1,537.8,287.9,537.5,288.7,537.2z"/>
	<path id="XMLID_1313_" class="st72" d="M122.2,196.1c-0.2,1.9-1.5,2.1-3.1,2.1C119.7,196.8,120.8,196.2,122.2,196.1z"/>
	<path id="XMLID_1312_" class="st73" d="M320.4,192.3c-0.7,1-1.8,1.3-2.9,1.7C317,190.9,319.3,192.6,320.4,192.3z"/>
	<path id="XMLID_1311_" class="st74" d="M123.7,327.8c-0.9,0.1-1.6,1.3-2.6,0.2c0.6-0.9,1.5-1.3,2.6-1.4
		C123.7,327,123.7,327.4,123.7,327.8z"/>
	<path id="XMLID_1310_" class="st75" d="M339.8,537.3c-0.2,0.3-0.3,0.5-0.5,0.8c0,0-0.1,0-0.1,0c-0.7-0.1-1.4-0.1-2.1-0.2
		c0.1-1,1-1.1,1.7-1.4C339.7,536.2,339.9,536.5,339.8,537.3z"/>
	<path id="XMLID_1309_" class="st76" d="M347.9,208.1c-0.5,0.4-0.9,0.9-1.4,1.3c-0.5,0-1,0-1.6,0C345.6,208.2,346.3,207,347.9,208.1
		z"/>
	<path id="XMLID_1308_" class="st77" d="M198.7,520.4c0.3-0.4,0.7-0.7,1-1.1c0.4,0.2,0.7,0.5,1.1,0.7c-0.4,0.9-1.2,1.1-2.1,1.4
		C198.4,521.1,198.3,520.8,198.7,520.4z"/>
	<path id="XMLID_1307_" class="st78" d="M122.4,396.9c-0.5-1.5,0.6-1.7,1.6-2.1c0,0.3,0,0.6,0,0.9
		C123.4,396.1,122.9,396.5,122.4,396.9z"/>
	<path id="XMLID_1306_" class="st79" d="M386.4,507.9c1.1,1.3,0.7,2.1-0.8,2.5C385.8,509.6,386.1,508.8,386.4,507.9z"/>
	<path id="XMLID_1305_" class="st3" d="M131.5,471.2c0.2-0.2,0.4-0.4,0.5-0.7c0.5-0.5,1-0.4,1.5,0c-0.3,1.1-1.1,1.5-2,1.8
		C131.5,472,131.5,471.6,131.5,471.2z"/>
	<path id="XMLID_1304_" class="st80" d="M121.4,337c0.8-0.5,1.5-1,2.3-1.4c0,0.5,0,1,0,1.5c-0.5,0.2-1,0.4-1.5,0.6
		C121.9,337.5,121.5,337.4,121.4,337z"/>
	<path id="XMLID_1303_" class="st0" d="M155.2,292.1c0-0.6,0-1.1,0-1.7c0.2-3.5,0.4-7,0.6-10.4c0-1,0.4-2.1-0.2-3
		c-0.5-5.6-0.9-11.2,0.2-16.8c1.9-9.8,6.8-14.5,16.5-16.1c8.7-1.4,17.4-0.4,26.2,0c1.6,0.1,3,0.8,3.2,2.6c0.2,2-1.4,2.9-3.1,3.1
		c-1.8,0.2-3.7-0.1-5.6-0.2c-5.7-0.3-11.4-0.7-17.2,0.3c-6.4,1.2-12.6,6.2-12.5,14.4c0.1,7-0.3,13.9,0.2,20.9c0.4,0.4,0.3,0.8,0,1.3
		c0.1,3.3-0.7,6.7,0.6,9.9c0.6,0.4,0.5,0.9,0.2,1.4c1.9,6.6,6.6,10,13.8,9.9c0.5-0.2,0.8,0.2,1.1,0.4c8.3,0.1,16.7,0.6,25,0
		c10.5-0.7,17-9.5,15.9-20.5c-0.3-2.7-0.2-4.9,3-5.2c3.4-0.3,4.6,1.6,4.5,4.8c-0.1,2.9,0.3,5.7,0.1,8.6
		c-0.9,11.8-5.2,16.3-16.9,17.9c-7.8-0.4-15.5,0.2-23.3,0.8c-5.9,0.1-11.8-0.2-17.7-0.9c-0.4-0.5-0.9-0.7-1.6-0.6
		c-5.1-1.9-9.5-4.7-11.5-10.1c-0.2-0.6-0.4-1.1-0.6-1.7C156.1,298.2,156,295.1,155.2,292.1z"/>
	<path id="XMLID_1302_" class="st0" d="M157,441.5c0.6-1.8,0-3.7,0.1-5.5c2.1-8,7.2-12.4,15.9-13.5c3.1-0.4,6.2-0.6,9.3-0.9
		c1.1-0.4,2.2-1,3.3,0c3.7,0.2,7.5,0.5,11.2,0.7c1.9,0.1,4.3-0.5,4.1,2.8c-0.2,2.7-1.4,4.5-4.3,4.6c-1.6,0-3.2-0.2-4.9-0.3
		c-6-0.3-11.9-0.7-17.9,0.5c-7.1,1.5-10.6,5.4-11.4,12.7c-0.7,6.4,0.6,12.7,0.2,19c1.4,1.6,0.9,3.1,0,4.6c-0.6,4.4-0.1,8.7,1.7,12.7
		c2,4.5,5.4,7.3,10.7,7.1c2.1-0.6,4.2-1.7,6.3,0c7.1,0.5,14.1,1,21.2,0.9c13.6-0.2,19.2-6.4,18-20c-0.2-2.2,0.1-4.1,2-5.2
		c1.9-1.2,3.7-1.2,3.9,1.7c0.4,5.5,0.6,11-0.4,16.4c-1.5,8.2-7.4,11.9-14.8,13.9c-9.2,0-18.4,0.5-27.6,1.4c-1.4,0.9-2.4-0.5-3.6-0.5
		c-3.7-0.1-7.3-0.8-10.8-1.5c-1.5-0.6-2.9-1.1-4.4-1.7c-2-1.8-4-3.6-6-5.3c-3.4-4.5-4.8-9.4-3.2-15c0-1.7,0-3.4,0-5.1
		c0-3,0.1-6,0.1-9c-0.8-4.4-0.3-8.9-0.2-13.3C155.8,442.8,156.1,442,157,441.5z"/>
	<path id="XMLID_1301_" class="st81" d="M156.6,345.2c0.3-1,0.7-2,1-3c3.6-5.9,9.4-7.6,15.6-9c1-0.5,2-0.7,3-0.1
		c5.5,0,11,0.1,16.5,0.1c1.8-0.8,3.6-0.9,5.2,0.5c2.2,0.3,4,1.3,3.6,3.8c-0.4,2.3-2.5,2-4.2,1.9c-2.4-0.1-4.7-0.3-7.1-0.4
		c-3-0.2-5.9,1-8.9,1.1c-4.5,0.5-9,0.7-12.6,4c-1.9,1.7-3.4,3.6-3.9,6.2c-0.4,1.5-0.3,3.2-1.4,4.4c-1.2,3.2-0.6,6.5-0.5,9.7
		c0.8,2.1-0.4,4.2,0.2,6.3c0.1,4.4,0.3,8.8,0.4,13.2c0.9,1,1,2.2,0.6,3.4c0.3,2.9,1.8,5.2,4.1,7c0.6,0.4,1.6,0.2,1.7,1.2
		c3.7,2.4,7.7,2.8,12,2.4c1.9-0.7,3.8-1.2,5.8-1.1c5,0.2,9.9,0.3,14.9,0.6c8.9,0.6,15.4-3.9,16.2-12.8c0.2-2.1,0.6-4.2,0.5-6.3
		c0-0.8-0.2-1.6,0.3-2.4c0.3-4,3-3.9,5.9-3.5c0.6,0.2,1,0.5,1.1,1.1c2,6.9,1.5,13.8-0.9,20.5c-1.8,5-5.9,7.5-10.6,9.3
		c-12.2,0.8-24.4,0.9-36.7,1.1c-2.3-0.2-4.6-0.4-6.9-0.6c-3.2-1.3-6.3-2.5-9.5-3.8c-0.5-0.4-1-0.9-1.6-1.3c-1.6-1.9-2.9-4-4-6.3
		c-0.1-1.7-0.3-3.4-0.4-5.1c-0.2-4.4-0.3-8.8-0.5-13.2c0.4-1.7-0.4-3.2-0.5-4.9c0.1-0.4,0.2-0.9,0.2-1.3c0.7-4.2-0.2-8.4,0.2-12.6
		C156.3,352,155.6,348.5,156.6,345.2z"/>
	<path id="XMLID_1300_" class="st0" d="M348.7,377.4c5.5,0.1,6.6,1.4,5.4,6.1c-0.6,0.6-1.1,1.1-1.7,1.7c-15.1,0-30.3,0-45.4,0
		c-1.3,0-2.7,1-4,0c-13.1-0.1-26.2-0.1-39.2-0.2c-3.5,0-4.9-1.6-4.3-4.8c0.5-2.5,2.3-2.9,4.5-2.9c16.7,0,33.4,0,50.1,0
		c0.7,0,1.5-0.1,2.2-0.1c1.6,0,3.2,0,4.8,0C330.3,377.4,339.5,377.4,348.7,377.4z"/>
	<path id="XMLID_1299_" class="st82" d="M307.9,468c14.2,0,28.5,0,42.7,0c1.7,0,4.4-0.8,4.5,1.9c0.1,2.6-2.1,3.8-4.5,4.1
		c-0.7,0.1-1.5,0-2.2,0c-28.1,0-56.2,0-84.4,0c-2,0-5.2,1-5.1-2.4c0.1-3.1,2.8-3.6,5.6-3.6C278.9,468,293.4,468,307.9,468z"/>
	<path id="XMLID_1298_" class="st83" d="M353.2,289.1c0.5,0.3,1,0.7,1.5,1c1.3,1.7,0.2,2.5-1.3,2.8c-2,0.5-4.1,0.9-6.1,1.4
		c-1,0.3-2,0.5-3,0.7c-1.8-0.4-3.6-0.8-5.4-0.2c-4,0.1-8,0.2-12,0.3c-1.7,0.2-3.4,1.3-5.1,0c-19.4-0.3-38.7-0.6-58.1-0.9
		c-0.7,0-1.5,0.2-2.2,0c-1.3-0.2-2.6-0.9-2.8-2.1c-0.3-1.7,1.5-1.7,2.6-2.1c6.3-1.7,12.9-1.1,19.3-2c0.7-0.5,1.3-0.6,2,0
		c7,0,14,0,21,0c10,0.4,19.9,0.9,29.9,0.6c1.6,0,3.2,0,4.9,0C343.4,288.9,348.3,289,353.2,289.1z"/>
	<path id="XMLID_1297_" class="st83" d="M225.4,426.2c0.9-0.7,1.7-1.5,2.6-2.2c1.1-0.9,2.3-2.4,3.8-1.1c1.5,1.2,1.5,3.1,0.7,4.8
		c-0.4,0.8-1,1.4-1.6,2c-12.1,12.1-24.2,24.2-36.3,36.4c-2.3,2.3-4.2,2.9-6.4,0.1c-1.2-1.5-2.8-2.9-4.2-4.3
		c-1.6-1.5-1.7-3.2-0.9-5.1c1.2-2.7,2.9-3,5.1-1.1c4.3,3.8,4.3,3.8,8.3-0.2c7.5-7.5,15-15,22.5-22.5c0.9-0.9,2-1.5,2.3-2.9
		C222.2,428.5,223.9,427.4,225.4,426.2z"/>
	<path id="XMLID_1296_" class="st83" d="M199.1,363.1c9.5-8.6,18.2-18,27.4-27c0.5-0.5,1-1.1,1.6-1.6c1.1-1.1,2.4-2.2,3.9-1.1
		c1.6,1.3,1.5,3.2,0.4,4.7c-1.3,1.8-3.1,3.3-4.6,4.9c-1.9,2-3.8,3.9-5.7,5.9c-0.3,1.8-2.3,2-3.1,3.4c-7.9,6.6-14.7,14.2-22,21.4
		c-7,6.9-6,5.4-11.6,0.3c-1.1-0.3-2.2-0.6-2.2-2c-0.6-1.3-1.2-2.6-0.6-4.1c1.3-3.1,3.6-3.7,6.1-1.5c0.5,0.5,1.1,0.9,1.7,1.4
		c1.6,0.6,2.9,0.1,4-1C195.8,365.4,197.3,364.1,199.1,363.1z"/>
	<path id="XMLID_1295_" class="st83" d="M233.3,246.6c-0.3,1.3-1,2.6-2.2,3.8c-12,11.9-23.9,23.8-35.9,35.7c-3.9,3.9-4.1,3.8-8-0.1
		c-1.1-1.1-2.2-2.4-3.4-3.4c-2.4-2.1-1.7-4.2,0.1-6.1c1.9-2,3.5-0.8,5.1,0.7c3.5,3.4,3.5,3.4,7.1-0.2c10.2-10.3,20.5-20.5,30.8-30.8
		c0.8-0.8,1.6-1.7,2.5-2.2C231.2,242.9,233.2,244.1,233.3,246.6z"/>
	<path id="XMLID_1294_" class="st3" d="M162.8,466.4c0-1.5,0-3.1,0-4.6c16.1-9.2,32.2-18.4,48.2-27.6c1.6-0.9,3.3-1.8,4.9-2.6
		c0.8-0.3,0.9,0.1,0.8,0.7C198.7,443.6,180.7,455,162.8,466.4z"/>
	<path id="XMLID_1293_" class="st84" d="M276.3,358.8c-4.9-0.3-9.3,1.1-13.8,0.2c-1.6-0.3-3.4-0.6-3.7-2.5c-0.2-2,1.7-2.6,3.1-3.2
		c2.7-1.2,5.6-1.4,8.4-1c3.6,0.4,7.2,0.7,10.8,0.5c1.7-0.1,3.6-0.2,3.7,2c0,2.1-1.4,3.8-3.7,4C279.4,359,277.6,358.8,276.3,358.8z"
		/>
	<path id="XMLID_1292_" class="st85" d="M271.5,263.4c3.2,0,6.5-0.1,9.7,0c1.7,0,3.5,0.5,3.7,2.4c0.2,2-1.5,2.6-3.2,3.1
		c-2.6,0.8-5.2,0.7-7.8,0.4c-3.7-0.3-7.4-0.7-11.2-0.4c-2.2,0.2-4.1-0.6-4.1-3.1c0-2.5,2.1-2.3,3.9-2.4
		C265.5,263.3,268.5,263.4,271.5,263.4z"/>
	<path id="XMLID_1291_" class="st83" d="M271.8,442.6c3,0,6,0,8.9,0c2.1,0,4,0.5,4.1,2.8c0.1,2.5-2,2.7-4,2.7c-6,0-11.9,0-17.9,0
		c-2.1,0-4.2-0.3-4.2-3c0-2.7,2.3-2.5,4.1-2.5C265.8,442.5,268.8,442.6,271.8,442.6z"/>
	<path id="XMLID_1290_" class="st3" d="M181.5,486.1c-2.1,0-4.2,0-6.3,0c12.3-7.2,24.7-14.5,37.1-21.7c2.7-1.6,5.4-3,8.2-4.5
		c0.8-0.4,0.9,0,0.8,0.7c-12.1,7.7-24.3,15.4-36.4,23.2C183.7,484.6,182.6,485.4,181.5,486.1z"/>
	<path id="XMLID_1289_" class="st3" d="M219.7,375.8c0.1,0.5,0.2,1,0.3,1.4c-2.1,3-5.5,4.2-8.3,6.1c-6.5,4.3-13.2,8.4-19.8,12.6
		c-1.3,0.8-2.7,1.2-4.1,1.8c-2,0-3.9,0-5.9,0C194.3,390,207,382.9,219.7,375.8z"/>
	<path id="XMLID_1288_" class="st3" d="M181.6,339.1c2.9-0.4,5.8-0.5,8.6-0.2c-1.7,0.3-3.3,1-4.8,1.9c-7.3,4.6-14.7,9.2-22.1,13.8
		c-0.1-1.6-0.3-3.2,0.6-4.6C169.5,345.7,175.4,342.2,181.6,339.1z"/>
	<path id="XMLID_1287_" class="st3" d="M183.1,372.1c0.7,0.7,1.5,1.3,2.2,2c-7,4.4-14.1,8.7-21.1,13.1c-0.8-1-0.9-2.2-0.6-3.4
		C170.1,379.9,176.6,376,183.1,372.1z"/>
	<path id="XMLID_1286_" class="st3" d="M321.9,295.2c1.7,0,3.4,0,5.1,0c-9.9,5.7-19.9,11.4-29.8,17.1c-0.9,0.4-1-0.1-0.9-0.8
		C304.8,306.1,313.4,300.7,321.9,295.2z"/>
	<path id="XMLID_1285_" class="st3" d="M197.9,333.7c-1.7-0.2-3.5-0.3-5.2-0.5c9.8-6.1,19.8-11.8,29.9-17.3c0.8-0.4,0.9,0,0.9,0.7
		c-7.5,4.8-15.1,9.6-22.6,14.5C199.8,331.8,198.3,332.1,197.9,333.7z"/>
	<path id="XMLID_1284_" class="st3" d="M163.2,370.6c-0.7-2.1-0.2-4.2-0.2-6.3c5.6-3.1,11.3-6.2,16.9-9.4c0.8-0.3,1,0.1,0.8,0.8
		c-4.6,2.9-9.2,6.1-13.9,8.8C164.2,365.9,162.8,367.6,163.2,370.6z"/>
	<path id="XMLID_1283_" class="st3" d="M303,385.3c1.3,0,2.7,0,4,0c-4.8,2.7-9.6,5.4-14.3,8.1c-0.8,0.4-0.9,0-0.9-0.7
		C295.5,390.2,299.3,387.7,303,385.3z"/>
	<path id="XMLID_1282_" class="st3" d="M199.1,363.1c-1.6,1.7-3.3,3.3-4.7,5.1c-1.7,2.2-2.9,1.6-4-0.4
		C193.2,366.2,195.8,364,199.1,363.1z"/>
	<path id="XMLID_1281_" class="st3" d="M185.8,421.7c-1.1,0-2.2,0-3.3,0c3.4-2,6.8-4,10.3-6c0.8-0.4,0.9,0.1,0.8,0.7
		C190.9,418.2,188.3,420,185.8,421.7z"/>
	<path id="XMLID_1280_" class="st3" d="M216.7,432.2c-0.3-0.2-0.5-0.5-0.8-0.7c3-2,5.9-4.1,9.4-5.3c-1.1,1.6-2.1,3.4-4.2,3.9
		C219.4,430.2,218.4,431.9,216.7,432.2z"/>
	<path id="XMLID_1279_" class="st3" d="M344.2,294.4c1,0,2.1-0.1,3.1-0.1c-2.8,2.1-5.8,3.7-8.9,5.2c-0.9,0.4-0.9-0.1-0.9-0.8
		c1.8-1.2,3.5-2.5,5.3-3.7C343,294.4,343.8,294.8,344.2,294.4z"/>
	<path id="XMLID_1278_" class="st3" d="M170,395.4c-0.6-0.4-1.1-0.8-1.7-1.2c2.1-1.1,4.3-2.2,6.4-3.2c0.2,0.2,0.3,0.4,0.2,0.6
		c-0.1,0.2-0.1,0.3-0.2,0.3C173.2,393,171.6,394.2,170,395.4z"/>
	<path id="XMLID_1277_" class="st3" d="M191.2,510.2c-0.3-0.2-0.5-0.5-0.8-0.7c2.1-1.5,4.2-3.1,6.8-3.7c0.2,0.1,0.3,0.2,0.2,0.3
		c-0.1,0.1-0.1,0.2-0.2,0.2C195.5,507.9,193.4,509.1,191.2,510.2z"/>
	<path id="XMLID_1276_" class="st3" d="M176.2,333.1c-1,0-2,0.1-3,0.1c2.2-1.1,3.7-3.8,6.7-2.8C178.7,331.3,177.4,332.2,176.2,333.1
		z"/>
	<path id="XMLID_1275_" class="st3" d="M193.5,416.4c-0.3-0.2-0.5-0.5-0.8-0.7c2-1.1,3.6-3.2,6.2-3
		C197.5,414.5,195.4,415.4,193.5,416.4z"/>
	<path id="XMLID_1274_" class="st3" d="M324.8,247.8c0.3,0.3,0.6,0.5,0.8,0.8c-1.5,1.2-3,2.2-5.5,3
		C321.4,249.2,323.2,248.6,324.8,247.8z"/>
	<path id="XMLID_1273_" class="st3" d="M356.3,312.3c0.3,0.3,0.6,0.5,0.8,0.8c-1.6,1.3-3.3,2.4-5.3,3c-0.2-0.2-0.3-0.4-0.2-0.5
		c0.1-0.2,0.1-0.3,0.2-0.3C353,313.8,354.6,313.1,356.3,312.3z"/>
	<path id="XMLID_1272_" class="st3" d="M174.8,391.9c0-0.3,0-0.6-0.1-0.9c1.3-1.2,2.7-2.2,4.7-2.2
		C178.2,390.2,176.6,391.2,174.8,391.9z"/>
	<path id="XMLID_1271_" class="st3" d="M180.7,355.7c-0.3-0.3-0.6-0.5-0.8-0.8c1.6-1.3,3.3-2.4,5.3-3c0.2,0.2,0.3,0.3,0.2,0.5
		c-0.1,0.2-0.1,0.3-0.2,0.3C184,354.2,182.4,355,180.7,355.7z"/>
	<path id="XMLID_1270_" class="st3" d="M247.5,239.6c0.3,0.3,0.6,0.5,0.8,0.8c-1.5,1.2-3,2.2-5.8,3
		C244.4,241.1,245.9,240.3,247.5,239.6z"/>
	<path id="XMLID_1269_" class="st3" d="M185.3,352.8c0-0.3,0-0.5,0-0.8c1.1-1.4,2.7-1.9,5.1-3.2C188.7,351.5,187,352.2,185.3,352.8z
		"/>
	<path id="XMLID_1268_" class="st3" d="M223.4,316.6c-0.3-0.2-0.6-0.5-0.9-0.7c1.6-1.3,3.3-2.5,5.4-3c0.2,0.1,0.3,0.3,0.2,0.4
		c-0.1,0.1-0.1,0.2-0.2,0.2C226.7,314.9,225.1,315.8,223.4,316.6z"/>
	<path id="XMLID_1267_" class="st3" d="M351.7,315.2c0,0.3,0,0.5,0,0.8c-1.2,1.2-2.6,2-4.9,2.8C348.3,316.5,350,315.9,351.7,315.2z"
		/>
	<path id="XMLID_1266_" class="st3" d="M296.3,311.6c0.3,0.3,0.6,0.5,0.9,0.8c-1.1,1-2.3,1.8-3.8,2.2c-0.8,0.4-0.9-0.1-0.9-0.7
		C293.8,313.1,295,312.3,296.3,311.6z"/>
	<path id="XMLID_1265_" class="st3" d="M219,352.4c0.6-1.5,1.7-2.6,3.1-3.4c0.5,0.2,2-0.1,0.9,1C221.8,351,220.3,351.6,219,352.4z"
		/>
	<path id="XMLID_1264_" class="st3" d="M288.8,283.1c0.3,0.2,0.5,0.5,0.8,0.7c-1.1,1-2.3,1.7-3.7,2.3c-0.8,0.4-0.9-0.1-0.9-0.7
		C286.3,284.6,287.5,283.8,288.8,283.1z"/>
	<path id="XMLID_1263_" class="st3" d="M362.3,453.3c0.3,0.2,0.6,0.5,0.9,0.7c-1.4,0.9-2.8,1.8-4.2,2.7
		C359.3,454.7,360.9,454.1,362.3,453.3z"/>
	<path id="XMLID_1262_" class="st3" d="M306.8,247.2c0.3,0.2,0.5,0.5,0.8,0.7c-1.4,1.1-2.7,2.1-5.2,2.8
		C303.8,248.5,305.4,247.9,306.8,247.2z"/>
	<path id="XMLID_1261_" class="st3" d="M304.5,415.8c0.3,0.2,0.5,0.5,0.8,0.7c-1.1,1.1-2.3,1.8-3.7,2.3c-0.8,0.4-0.9-0.1-0.8-0.7
		C302,417.3,303.3,416.6,304.5,415.8z"/>
	<path id="XMLID_1260_" class="st3" d="M291.8,392.6c0.3,0.2,0.6,0.5,0.9,0.7c-1.3,1.2-2.8,2-5.4,3
		C288.8,394,290.4,393.4,291.8,392.6z"/>
	<path id="XMLID_1259_" class="st3" d="M292.5,244.1c0.3,0.3,0.6,0.5,0.9,0.8c-1.1,1-2.3,1.8-3.8,2.2c-0.8,0.4-0.9-0.1-0.9-0.7
		C290,245.6,291.3,244.8,292.5,244.1z"/>
	<path id="XMLID_1258_" class="st3" d="M285.7,496.6c-0.3-0.2-0.5-0.5-0.8-0.7c1.4-0.9,2.8-1.8,4.2-2.7
		C288.6,495.3,287.1,495.9,285.7,496.6z"/>
	<path id="XMLID_1257_" class="st3" d="M138.7,270.2c-0.3-0.3-0.6-0.5-0.9-0.8c1.4-0.9,2.8-1.8,4.2-2.7
		C141.7,268.8,140.1,269.4,138.7,270.2z"/>
	<path id="XMLID_1256_" class="st3" d="M321,344.6c0.3,0.3,0.6,0.5,0.8,0.8c-1.1,1-2.4,1.8-3.9,2.2c-0.2-0.2-0.3-0.4-0.2-0.6
		c0.1-0.2,0.1-0.3,0.2-0.3C318.7,345.5,319.9,345,321,344.6z"/>
	<path id="XMLID_1255_" class="st3" d="M337.5,298.8c0.3,0.3,0.6,0.5,0.9,0.8c-1.3,0.7-2.5,1.5-3.8,2.2c-0.8,0.4-0.9-0.1-0.8-0.7
		C335,300.3,336.3,299.6,337.5,298.8z"/>
	<path id="XMLID_1254_" class="st3" d="M354.8,425.6c0.3,0.2,0.5,0.5,0.8,0.7c-1.2,0.8-2.5,1.5-3.7,2.3c-0.8,0.4-0.9-0.1-0.8-0.7
		C352.3,427.1,353.5,426.3,354.8,425.6z"/>
	<path id="XMLID_1253_" class="st3" d="M299.2,420.1c-1.2,1-2.4,1.8-4.7,2.4c1.6-1.9,3.1-2.6,4.6-3.4c0.2,0.2,0.3,0.4,0.2,0.6
		C299.4,420,299.3,420.1,299.2,420.1z"/>
	<path id="XMLID_1252_" class="st3" d="M363.7,442.6c-1.2,0.8-2.4,1.6-3.6,2.4c0.6-1.8,2.2-2.5,3.6-3.3
		C364,442,364,442.3,363.7,442.6z"/>
	<path id="XMLID_1251_" class="st3" d="M318,346.6c0,0.3,0,0.6,0.1,0.9c-0.7,0.9-1.6,1.4-2.7,1.5c-0.4,0.3-0.8,0.3-1.2-0.1
		C315.2,347.9,316.5,347.1,318,346.6z"/>
	<path id="XMLID_1250_" class="st3" d="M369.7,388c1-1.2,2.4-1.8,3.8-2.4c0.2,0.2,0.3,0.3,0.2,0.5c-0.1,0.1-0.2,0.2-0.2,0.2
		c-1.1,1-2.3,1.8-3.7,2.3c-0.3-0.1-0.4-0.3-0.3-0.4C369.6,388.1,369.7,388,369.7,388z"/>
	<path id="XMLID_1249_" class="st3" d="M250.5,495.9c-0.3-0.2-0.5-0.5-0.8-0.7c0.7-0.8,1.6-1.4,2.7-1.5c0.4-0.3,0.8-0.3,1.2,0.1
		C252.6,494.5,251.5,495.2,250.5,495.9z"/>
	<path id="XMLID_1248_" class="st3" d="M262.5,499.6c-0.3-0.2-0.5-0.5-0.8-0.7c0.9-0.9,1.9-1.5,3.8-1.7
		C264.5,498.7,263.5,499.2,262.5,499.6z"/>
	<path id="XMLID_1247_" class="st3" d="M314.2,349c0.4,0,0.8,0.1,1.2,0.1c-1.1,0.7-2.2,1.4-3.5,2.4
		C311.9,349.5,313.3,349.5,314.2,349z"/>
	<path id="XMLID_1246_" class="st3" d="M181.2,328.8c1.1-0.7,2.1-1.5,3.2-2.2C184,328.3,182.9,329,181.2,328.8z"/>
	<path id="XMLID_1245_" class="st3" d="M290.6,316.1c-1.1,0.7-2.2,1.5-3.6,2.4c0.2-1.9,1.5-2,2.4-2.6
		C289.8,315.6,290.2,315.7,290.6,316.1z"/>
	<path id="XMLID_1244_" class="st3" d="M290.6,316.1c-0.4-0.1-0.8-0.1-1.2-0.2c1-0.7,2.1-1.4,3.1-2.1c0.3,0.2,0.6,0.5,0.9,0.7
		C292.6,315.3,291.7,315.9,290.6,316.1z"/>
	<path id="XMLID_1243_" class="st86" d="M179.3,308.2c-0.4-0.1-0.7-0.3-1.1-0.4c0.8-0.9,1.8-1.5,3.2-1.8
		C181.3,307.4,180,307.6,179.3,308.2z"/>
	<path id="XMLID_1242_" class="st87" d="M344.2,294.4c-0.5,0.2-0.9,0.4-1.4,0.7c-1.3-0.1-2.6-0.1-3.9-0.2
		C340.6,294.2,342.4,294.2,344.2,294.4z"/>
	<path id="XMLID_1241_" class="st88" d="M356.3,436.7c-0.7,0.6-1.4,1.3-2.8,1.3c0.4-1.5,1.6-1.8,2.6-2.3
		C356.5,436,356.6,436.3,356.3,436.7z"/>
	<path id="XMLID_1240_" class="st3" d="M286.8,248.6c-1.1,0.7-2.2,1.4-3.6,2.3c0.1-1.9,1.5-2,2.4-2.5
		C286.1,248.1,286.5,248.2,286.8,248.6z"/>
	<path id="XMLID_1239_" class="st3" d="M286.8,248.6c-0.4-0.1-0.8-0.1-1.2-0.2c1-0.7,2.1-1.4,3.1-2.1c0.3,0.2,0.6,0.5,0.9,0.7
		C288.8,247.8,287.9,248.4,286.8,248.6z"/>
	<path id="XMLID_1238_" class="st3" d="M261.3,244.1c-1.1,0.7-2.2,1.4-3.5,2.3c0.2-1.9,1.5-2,2.4-2.5
		C260.6,243.6,261,243.7,261.3,244.1z"/>
	<path id="XMLID_1237_" class="st3" d="M261.3,244.1c-0.4-0.1-0.8-0.1-1.2-0.2c1-0.7,2.1-1.4,3.1-2.1c0.3,0.2,0.5,0.5,0.8,0.7
		C263.3,243.4,262.4,243.9,261.3,244.1z"/>
	<path id="XMLID_1236_" class="st3" d="M228.8,238.9c0.3,0.2,0.6,0.5,0.9,0.7c-0.6,0.8-1.4,1.2-2.3,1.4c-0.8,0.4-0.9-0.1-0.8-0.7
		C227.3,239.9,228.1,239.4,228.8,238.9z"/>
	<path id="XMLID_1235_" class="st3" d="M237,492.9c-0.3-0.2-0.5-0.5-0.8-0.7c0.7-0.8,1.6-1.4,2.7-1.5c0.4-0.3,0.8-0.3,1.2,0.1
		C239.2,491.8,238.1,492.4,237,492.9z"/>
	<path id="XMLID_1234_" class="st89" d="M226.5,347.8c-0.5,0.6-0.9,1-1.6,0.9c-0.1,0-0.3-0.7-0.2-0.8c0.3-0.3,0.8-0.6,1.2-0.7
		C226.1,347.1,226.3,347.5,226.5,347.8z"/>
	<path id="XMLID_1233_" class="st3" d="M197.3,506.3c0-0.2,0-0.4,0-0.5c0.6-0.9,1.5-1.5,3-1.4C199.3,505.5,198.4,505.9,197.3,506.3z
		"/>
	<path id="XMLID_1232_" class="st90" d="M226.5,240.3c0.3,0.2,0.6,0.5,0.8,0.7c-0.8,0.5-1.6,1-2.5,1.6
		C224.3,240.9,225.8,240.9,226.5,240.3z"/>
	<path id="XMLID_1231_" class="st91" d="M225.3,458.3c-0.6-0.1-1-0.3-0.8-0.7c0.3-0.4,0.9-0.8,1.4-1c0.4-0.2,0.7,0.3,0.5,0.6
		C226.1,457.7,225.6,458,225.3,458.3z"/>
	<path id="XMLID_1230_" class="st3" d="M189.8,230.5c0.3,0.3,0.5,0.5,0.8,0.8c-0.8,0.5-1.5,1-2.4,1.6
		C187.7,231.1,189,231,189.8,230.5z"/>
	<path id="XMLID_1229_" class="st3" d="M240.1,490.8c-0.4,0-0.8-0.1-1.2-0.1c0.9-0.8,1.8-1.5,3.1-1.7
		C242,490.4,240.8,490.4,240.1,490.8z"/>
	<path id="XMLID_1228_" class="st88" d="M315.3,254.4c0.1-1.2,0.8-1.6,1.7-1.6c0.2,0,0.4,0.5,0.6,0.8
		C316.9,253.9,316.3,254.5,315.3,254.4z"/>
	<path id="XMLID_1227_" class="st3" d="M282.7,288.2c-0.7,0-1.3,0-2,0c0.9-0.6,1.8-1.2,2.8-1.8c0.3,0.3,0.3,0.7,0,1
		C283.2,287.7,283,287.9,282.7,288.2z"/>
	<path id="XMLID_1226_" class="st92" d="M351,427.8c0.3,0.2,0.5,0.5,0.8,0.7c-0.7,0.7-1.5,1.2-2.5,1.4
		C348.9,428.4,350.3,428.4,351,427.8z"/>
	<path id="XMLID_1225_" class="st3" d="M333.8,301.1c0.3,0.2,0.5,0.5,0.8,0.7c-0.8,0.5-1.6,1-2.5,1.6
		C331.6,301.6,333,301.6,333.8,301.1z"/>
	<path id="XMLID_1224_" class="st3" d="M285.3,396.7c-0.2,1.4-1,2-2.6,1.5C283.7,397.6,284.5,397.2,285.3,396.7z"/>
	<path id="XMLID_1223_" class="st3" d="M253.6,493.8c-0.4,0-0.8-0.1-1.2-0.1c0.9-0.8,1.8-1.5,3.1-1.7
		C255.5,493.4,254.4,493.4,253.6,493.8z"/>
	<path id="XMLID_1222_" class="st3" d="M181.4,387.6c0.5-1.5,1.5-1.5,2.1-1.8c0.3,0.2,0.4,0.3,0.5,0.3
		C183.5,386.9,182.7,387.3,181.4,387.6z"/>
	<path id="XMLID_1221_" class="st3" d="M288.1,341.7c0.3,0.2,0.5,0.4,0.8,0.6c-0.8,0.5-1.5,1-2.3,1.5c-0.8,0.3-0.9,0-0.8-0.7
		C286.6,342.6,287.3,342.2,288.1,341.7z"/>
	<path id="XMLID_1220_" class="st3" d="M226.8,373.4c-0.4-0.4-0.8-0.7-1.1-1.1c0.7-0.4,1.4-1.5,2.1-0.8
		C228.5,372.2,227,372.7,226.8,373.4z"/>
	<path id="XMLID_1219_" class="st3" d="M228,313.6c0-0.2,0-0.4-0.1-0.6c0.4-0.7,1.1-1.1,2-1.1C229.9,313.1,228.9,313.3,228,313.6z"
		/>
	<path id="XMLID_1218_" class="st93" d="M376.5,402.3c0.3,0.2,0.5,0.5,0.8,0.7c-0.6,0.6-1.6,1.6-2.1,0.9
		C374.4,402.8,375.9,402.7,376.5,402.3z"/>
	<path id="XMLID_1217_" class="st3" d="M221.2,460.6c-0.3-0.2-0.5-0.5-0.8-0.7c0.7-0.6,1.6-1.7,2.2-0.8
		C223.3,459.9,221.9,460.3,221.2,460.6z"/>
	<path id="XMLID_1216_" class="st3" d="M163.6,286.5c0-0.4,0-0.8,0-1.3c0.6-0.2,1.2-0.5,2-0.8C165.3,285.8,164.3,286,163.6,286.5z"
		/>
	<path id="XMLID_1215_" class="st3" d="M369.7,388c0,0.2,0,0.4,0,0.6c-0.6,0.5-1.1,1.2-2.1,1C367.9,388.4,368.8,388.2,369.7,388z"/>
	<path id="XMLID_1214_" class="st3" d="M283.5,287.4c0-0.3,0-0.7,0-1c0.5-0.4,1-0.7,1.6-1.1c0.3,0.2,0.6,0.5,0.9,0.7
		C285.1,286.5,284.3,287,283.5,287.4z"/>
	<path id="XMLID_1213_" class="st3" d="M363.7,442.6c0-0.3,0-0.6,0-1c0.5-0.4,1.1-0.7,1.6-1.1c0.3,0.2,0.5,0.5,0.8,0.7
		C365.5,442,364.7,442.5,363.7,442.6z"/>
	<path id="XMLID_1212_" class="st94" d="M373.4,386.3c0-0.2,0-0.5,0.1-0.7c0.2-0.7,0.7-1,1.3-0.9c0.2,0,0.4,0.5,0.5,0.8
		C374.7,385.8,374,386,373.4,386.3z"/>
	<path id="XMLID_1211_" class="st3" d="M356.3,436.7c-0.1-0.3-0.1-0.7-0.2-1c0.6-0.4,1.1-0.7,1.7-1.1c0.3,0.2,0.5,0.5,0.8,0.7
		C357.8,435.8,357,436.2,356.3,436.7z"/>
	<path id="XMLID_1210_" class="st95" d="M165.7,295.7c0.6-0.5,1.6-1.6,2.1-0.9c0.8,1.1-0.7,1.2-1.3,1.6
		C166.1,296.2,165.7,296.2,165.7,295.7z"/>
	<path id="XMLID_1209_" class="st3" d="M165.7,295.7c0.3,0.2,0.5,0.5,0.8,0.7c-0.7,0.5-1.4,1-2.1,1.4c-0.1-0.5-0.1-0.9-0.2-1.4
		C164.7,296.2,165.2,296,165.7,295.7z"/>
	<path id="XMLID_1208_" class="st3" d="M299.2,420.1c0-0.3,0-0.6,0-0.9c0.5-0.4,1.1-0.7,1.6-1.1c0.3,0.2,0.6,0.5,0.8,0.7
		C300.8,419.3,300,419.7,299.2,420.1z"/>
	<path id="XMLID_1207_" class="st96" d="M330.6,304.4c-0.6,0.3-1,0.6-1.4,0.7c-0.5,0.2-0.7-0.3-0.6-0.6c0.2-0.4,0.7-0.7,1.1-0.8
		C329.8,303.6,330.1,304,330.6,304.4z"/>
	<path id="XMLID_1206_" class="st97" d="M285.8,343.1c0.3,0.2,0.5,0.5,0.8,0.7c-0.6,0.6-1.5,1.6-2.1,0.9
		C283.7,343.6,285.2,343.5,285.8,343.1z"/>
	<path id="XMLID_1205_" class="st98" d="M255.9,191.9c1.6,0,3.2,0.1,4.8,0c2.8-0.1,4.1,1.2,4.2,4c0,2.9-1.6,3.9-4.3,3.8
		c-3.4-0.1-6.7,0-10.1,0c-2.9,0-3.9-1.6-4-4.2c-0.1-2.8,1.6-3.6,4.1-3.5C252.4,192,254.1,191.9,255.9,191.9z"/>
	<path id="XMLID_1204_" class="st99" d="M294.1,219.1c1.1-1.3,1.9-1.9,3.3-1.8C296.8,218.7,296,219.3,294.1,219.1z"/>
	<path id="XMLID_1203_" class="st100" d="M263.1,187.7c0.3,0,0.6,0,0.9,0.1c-1,0.7-1.9,1.4-2.9,2.2
		C261.2,188.5,261.9,187.8,263.1,187.7z"/>
	<path id="XMLID_1202_" class="st101" d="M264.2,177.1c-0.9,0.9-1.9,1.8-3.5,2.2C261.3,177.4,262.7,177.3,264.2,177.1
		C264.2,177.1,264.2,177.1,264.2,177.1z"/>
	<path id="XMLID_1201_" class="st102" d="M219.8,189.9c0.1,1.8-1.1,2.5-2.4,3.1C217.7,191.6,218.5,190.6,219.8,189.9z"/>
	<path id="XMLID_1200_" class="st103" d="M214.5,196c0.3,0.3,0.5,0.5,0.8,0.8c-0.6,0.6-1.2,1.5-2,0.7
		C212.9,197,213.8,196.3,214.5,196z"/>
	<path id="XMLID_1199_" class="st104" d="M258.9,180.5c-0.5,0.7-1,1.2-1.9,0.8C257.3,180.4,257.9,180.1,258.9,180.5z"/>
	<path id="XMLID_1198_" class="st105" d="M244.5,215.5c-0.2-0.3-0.5-0.5-0.7-0.8c0.6-0.6,1.3-1.5,2-0.7
		C246.1,214.6,245.1,215.2,244.5,215.5z"/>
	<path id="XMLID_1197_" class="st34" d="M275.2,538c-1.7-0.2-3.5,0.9-4.9-0.6c8.1-4.7,16.3-9.5,24.4-14.2c0.7-0.4,1.4-1.1,2.3-0.8
		c0.4-0.1,0.6,0.1,0.7,0.5C290.2,527.8,282.7,532.9,275.2,538z"/>
	<path id="XMLID_1196_" class="st106" d="M297.7,522.7c-0.2-0.2-0.4-0.3-0.7-0.5c0.6-1.6,2.1-1.7,3.5-2.1
		C300.5,522,298.8,522,297.7,522.7z"/>
	<path id="XMLID_1195_" class="st49" d="M300.7,532c-0.3-0.3-0.5-0.5-0.8-0.8c1.3-0.8,2.5-1.5,3.8-2.3c0.8-0.4,0.9,0,0.8,0.7
		C303.2,530.4,302,531.2,300.7,532z"/>
	<path id="XMLID_1194_" class="st107" d="M335.3,528.3c0.6-0.6,1.1-1.4,2.1-0.9c0.1,0,0.1,0.5,0,0.6
		C336.8,528.9,336,528.9,335.3,528.3L335.3,528.3z"/>
	<path id="XMLID_1193_" class="st76" d="M304.5,529.7c-0.3-0.2-0.5-0.5-0.8-0.7c0.6-0.6,1.5-1.5,2-0.9
		C306.5,529.1,305.1,529.2,304.5,529.7z"/>
	<path id="XMLID_1192_" class="st56" d="M333.7,530.5c-0.3-0.3-0.6-0.5-0.8-0.8c0.8-0.5,1.6-1,2.4-1.4c0,0-0.1-0.1-0.1-0.1
		C335.7,529.6,334.7,530,333.7,530.5z"/>
	<path id="XMLID_1191_" class="st108" d="M373.4,534.5c0,0,0.1-0.3,0.1-0.3c0.2-1.1,1.1-1,2.6-1.9
		C375,533.8,374.6,534.8,373.4,534.5z"/>
	<path id="XMLID_1190_" class="st109" d="M339.8,537.3c-0.3-0.3-0.6-0.5-0.8-0.8c0.7-0.5,1.6-1.7,2.3-0.8
		C341.7,536.4,340.5,536.9,339.8,537.3z"/>
	<path id="XMLID_1189_" class="st110" d="M141,205c0.3,0.3,0.6,0.6,0.9,0.8c-0.9,0.6-1.8,1.2-3.2,2.2C139,206.1,140,205.6,141,205z"
		/>
	<path id="XMLID_1188_" class="st111" d="M117,216.3c-0.3-0.3-0.5-0.5-0.8-0.8c0.6-0.6,1.5-1.5,2-0.9
		C119,215.5,117.7,215.8,117,216.3z"/>
	<path id="XMLID_1187_" class="st3" d="M329.3,271.1c0.3,0.2,0.5,0.5,0.8,0.7c-1.1,1-2.3,1.9-3.9,2.1c-0.2-0.2-0.3-0.3-0.2-0.5
		c0.1-0.2,0.1-0.3,0.2-0.3C327,272.1,328.1,271.6,329.3,271.1z"/>
	<path id="XMLID_1186_" class="st3" d="M326.2,273.2c0,0.3,0,0.5,0,0.8c-0.7,1-1.7,1.5-2.9,1.5c-0.3,0.4-0.6,0.3-0.9-0.1
		C323.5,274.4,324.8,273.6,326.2,273.2z"/>
	<path id="XMLID_1185_" class="st3" d="M322.4,275.5c0.3,0,0.6,0,0.9,0.1c-1,1.2-2.2,1.9-3.7,2.2C320.1,276.4,321.3,276,322.4,275.5
		z"/>
	<path id="XMLID_1184_" class="st3" d="M156.7,427.6c-0.3-0.2-0.6-0.5-0.8-0.7c1.1-1,2.3-1.9,3.9-2.1c0.2,0.2,0.3,0.3,0.2,0.5
		c-0.1,0.2-0.1,0.3-0.2,0.3C159,426.6,157.9,427.1,156.7,427.6z"/>
	<path id="XMLID_1183_" class="st3" d="M159.8,425.6c0-0.3,0-0.5,0-0.8c0.4-0.8,1.1-1.2,2.3-1.2
		C161.9,425.1,160.7,425.2,159.8,425.6z"/>
	<path id="XMLID_1182_" class="st96" d="M165.7,421.9c-0.1,0.7-0.7,0.9-1.2,1c-0.4,0.1-0.7-0.1-0.7-0.5c0.1-0.7,0.8-0.8,1.3-1
		C165.6,421.1,165.6,421.6,165.7,421.9z"/>
	<path id="XMLID_1181_" class="st3" d="M377.3,360.3c0.3,0.3,0.6,0.5,0.9,0.8c-1.6,0.9-3.1,1.9-4.7,2.8c-0.3-0.2-0.8-0.2-0.9-0.7
		C374.2,362.2,375.7,361.2,377.3,360.3z"/>
	<path id="XMLID_1180_" class="st3" d="M372.6,363.2c0.3,0.2,0.6,0.5,0.9,0.7c-1.4,0.8-2.9,1.6-4.3,2.4c-0.9,0.3-1-0.1-0.9-0.8
		C369.7,364.7,371.1,363.9,372.6,363.2z"/>
	<path id="XMLID_1179_" class="st3" d="M368.2,365.5c0.3,0.3,0.6,0.6,0.9,0.8c-1.6,1.2-3.2,2.4-5.2,2.9
		C363.7,366,367.3,367.3,368.2,365.5z"/>
	<path id="XMLID_1178_" class="st59" d="M117,309.2c-3.3,2-6.6,4.2-10,6.1c-2,1.1-1.3-0.5-1.2-1.5c3.4-1.8,6.9-3.6,10.3-5.4
		C117,308,117.1,308.5,117,309.2z"/>
	<path id="XMLID_1177_" class="st112" d="M117,309.2c-0.3-0.2-0.6-0.5-0.9-0.7c1.8-0.9,2.8-3,5.2-2.8
		C120.8,307.9,118.6,308.2,117,309.2z"/>
	<path id="XMLID_1176_" class="st3" d="M174.7,321.2c1.4-1.1,2.6-2.5,4.7-2.2c-1.2,1.6-2.8,2.4-4.6,3c-0.2-0.2-0.3-0.4-0.2-0.5
		C174.6,321.3,174.7,321.2,174.7,321.2z"/>
	<path id="XMLID_1175_" class="st3" d="M174.7,321.2c0,0.3,0,0.6,0,0.8c-0.8,1.1-1.9,1.6-3.1,2.1c-0.3-0.2-0.6-0.5-0.8-0.7
		C172,322.3,173.2,321.6,174.7,321.2z"/>
	<path id="XMLID_1174_" class="st32" d="M278.9,522.1c0.3,0.3,0.6,0.5,0.9,0.8c-7.2,4.7-14.4,9.5-21.7,14.2
		c-1.8,1.2-3.7,1.2-6.5,0.6C261.1,532.3,270,527.2,278.9,522.1z"/>
	<path id="XMLID_1173_" class="st113" d="M189,527.4c-0.3-0.2-0.6-0.5-0.9-0.7c1.6-1,2.8-2.8,5.9-2.8
		C192.1,525.8,190.7,526.7,189,527.4z"/>
	<path id="XMLID_1172_" class="st114" d="M198.7,520.4c0,0.3,0,0.6,0.1,0.9c-0.9,0.4-1.3,1.8-2.8,1.1
		C196.3,521,197.7,521,198.7,520.4z"/>
	<path id="XMLID_1171_" class="st115" d="M187.5,201.3c0.3,0.3,0.5,0.5,0.8,0.8c-1.6,1-3,2.2-5.3,2.8
		C183.8,202.1,186.3,202.6,187.5,201.3z"/>
	<path id="XMLID_1170_" class="st116" d="M397.5,475.8c0.3,0.2,0.5,0.5,0.8,0.7c-0.9,0.8-1.8,1.5-3.1,1.4
		C395.6,476.8,396.5,476.2,397.5,475.8z"/>
	<path id="XMLID_1169_" class="st117" d="M177.7,498.1c0.9-1.3,2.3-1.8,3.7-2.2c0.2,0.2,0.3,0.4,0.2,0.6c-0.1,0.2-0.1,0.3-0.2,0.3
		c-1.3,0.7-2.1,2.1-3.8,2.2c-0.2-0.2-0.3-0.4-0.2-0.5C177.6,498.2,177.6,498.1,177.7,498.1z"/>
	<path id="XMLID_1168_" class="st118" d="M181.5,496.8c0-0.3,0-0.6-0.1-0.9c-0.4-0.4-0.8-0.8-1.2-1.2c1.3-0.3,2.5-0.1,3.6,0.5
		C183.4,496.2,182.6,496.7,181.5,496.8z"/>
	<path id="XMLID_1167_" class="st119" d="M165.7,505.9c0-1.5,0.8-2.2,2.3-2.4C167.9,504.9,168.2,506.7,165.7,505.9z"/>
	<path id="XMLID_1166_" class="st120" d="M177.7,498.1c0,0.3,0,0.6,0,0.8c-0.6,1.3-1.7,1.5-3,1.5
		C174.9,498.7,176.4,498.6,177.7,498.1z"/>
	<path id="XMLID_1165_" class="st121" d="M162,507.2c0.3-0.6,0.5-0.6,0.6,0C162.5,507.2,162.2,507.2,162,507.2z"/>
	<path id="XMLID_1164_" class="st122" d="M168.8,503.5c0.2-0.5,0.4-0.7,0.7,0C169.2,503.5,169,503.5,168.8,503.5z"/>
	<path id="XMLID_1163_" class="st123" d="M163.5,506.5c0.3-0.8,0.6-0.4,0.9,0C164.1,506.5,163.8,506.5,163.5,506.5z"/>
	<path id="XMLID_1162_" class="st124" d="M343.5,199.7c0.3,0.3,0.6,0.6,0.9,0.9c-1.6,1.2-3.2,2.5-5.2,2.8
		C339.2,200.5,342,200.9,343.5,199.7z"/>
	<path id="XMLID_1161_" class="st125" d="M333.8,206.5c0.6-1.7,1.8-2.6,3.5-2.9C337.4,206.1,335.2,205.8,333.8,206.5z"/>
	<path id="XMLID_1160_" class="st126" d="M358.5,200.6c0.3,0.3,0.6,0.5,0.9,0.8c-1.3,0.7-2.5,1.5-3.8,2.2c-0.8,0.4-1-0.1-0.9-0.8
		C356,202.1,357.3,201.3,358.5,200.6z"/>
	<path id="XMLID_1159_" class="st127" d="M354.8,202.8c0.3,0.3,0.6,0.5,0.9,0.8c-1.2,0.9-2.4,1.9-3.9,2.2c-0.2-0.2-0.3-0.4-0.2-0.6
		c0.1-0.2,0.1-0.3,0.2-0.3C352.7,204.2,353.7,203.5,354.8,202.8z"/>
	<path id="XMLID_1158_" class="st128" d="M351.7,204.9c0,0.3,0,0.6,0.1,0.9c-0.8,1-1.8,1.6-3.1,1.5
		C349.1,205.8,350.4,205.3,351.7,204.9z"/>
	<path id="XMLID_1157_" class="st129" d="M153.5,503.3c0.9-2.5,3.4-2.8,5.4-3.7C157.7,501.7,155.7,502.7,153.5,503.3z"/>
	<path id="XMLID_1156_" class="st4" d="M155.9,471.1c0.2,5.2,1.3,10.2,3.2,15c-7.3,4.2-14.5,8.5-21.8,12.7c-1.1,1-2.7,1.1-3.7,2.3
		c-0.4,0-0.9,0-1.3-0.1c-0.1-5-0.2-9.9-0.3-14.9C139.8,480.9,147.7,475.9,155.9,471.1z"/>
	<path id="XMLID_1155_" class="st3" d="M133.6,501.2c0.3-2.3,2.2-2,3.7-2.3C136.5,500.3,135.1,500.9,133.6,501.2z"/>
	<path id="XMLID_1154_" class="st4" d="M157,441.5c-0.6,5.1,0.3,10.4-1.1,15.5c-7.5,4.5-15,9-22.5,13.5c-0.5,0-1,0-1.5,0
		c0-5.1-0.1-10.1-0.1-15.2c7.5-5.5,15.6-10,23.4-15C157.1,439.2,156.7,440.8,157,441.5z"/>
	<path id="XMLID_1153_" class="st130" d="M114.7,243.1c-0.3-0.2-0.5-0.5-0.8-0.7c1.6-0.8,2.4-2.8,4.5-2.9
		C118.4,242,116,242,114.7,243.1z"/>
	<path id="XMLID_1152_" class="st18" d="M106.5,419.3c-1-4,0.5-6.4,4.2-8.1c4.3-2,8.4-4.7,12.6-7.1c1,1.4,0.3,2.8,0.7,4.1
		C118.5,412.5,112.4,415.7,106.5,419.3z"/>
	<path id="XMLID_1151_" class="st131" d="M108.8,403.7c0.8-1.4,2.1-1.9,3.6-2.2C111.9,403.5,110.7,404.2,108.8,403.7z"/>
	<path id="XMLID_1150_" class="st132" d="M112.9,401.5c1-0.8,1.5-2.3,3.2-2.2C115.9,401.3,114.8,401.9,112.9,401.5z"/>
	<path id="XMLID_1149_" class="st131" d="M397.6,238c0.6-1.7,1.8-2.5,3.5-2.9C401,237.4,399.1,237.4,397.6,238z"/>
	<path id="XMLID_1148_" class="st110" d="M111.7,334.7c-0.3-0.3-0.6-0.5-0.9-0.8c1.2-1,2.4-1.9,4-2.2c0.2,0.2,0.3,0.4,0.2,0.6
		c-0.1,0.2-0.1,0.3-0.2,0.3C114,333.6,112.8,334.1,111.7,334.7z"/>
	<path id="XMLID_1147_" class="st70" d="M121,327.9c-0.1,1.6-1.1,2.1-2.5,2.3C118.5,328.6,119.9,328.4,121,327.9z"/>
	<path id="XMLID_1146_" class="st133" d="M114.8,332.6c0-0.3,0-0.6,0-0.8c0.6-1,1.6-1.3,2.6-1.5
		C117.1,331.7,116.1,332.3,114.8,332.6z"/>
	<path id="XMLID_1145_" class="st59" d="M111,344.5c-0.3-0.3-0.6-0.6-1-0.8c1.6-1.3,3.3-2.3,5.2-3c0.8-0.4,0.9,0.1,1,0.7
		C114.5,342.4,112.7,343.4,111,344.5z"/>
	<path id="XMLID_1144_" class="st108" d="M116.2,341.3c-0.3-0.2-0.7-0.5-1-0.7c1.1-0.7,1.7-2.2,3.2-2.2c0.5,0.1,0.8,0.4,0.9,0.9
		C118.3,340,117.3,340.7,116.2,341.3z"/>
	<path id="XMLID_1143_" class="st49" d="M119.4,339.3c-0.3-0.3-0.6-0.6-0.9-0.9c1-0.5,2-1,3-1.5c0.3,0.2,0.5,0.5,0.8,0.7
		C121.3,338.2,120.3,338.8,119.4,339.3z"/>
	<path id="XMLID_1142_" class="st134" d="M187.9,397.7c10.5-7.2,21.3-13.9,32.2-20.5c0.7,3.5,0.2,7-0.7,10.3
		c-2,7.5-7.9,11.4-17,10.7C197.6,397.9,192.7,397.9,187.9,397.7z"/>
	<path id="XMLID_1141_" class="st135" d="M181.6,339.1c-5.5,4.2-11.3,7.9-17.5,10.9c1.5-6.2,6.1-9.8,13.8-10.7
		C179.2,339.1,180.4,339.1,181.6,339.1z"/>
</g>
</svg>
