<?xml version="1.0" encoding="utf-8"?>
<!-- Generator: Adobe Illustrator 19.0.0, SVG Export Plug-In . SVG Version: 6.00 Build 0)  -->
<svg version="1.1" id="Layer_1" xmlns="http://www.w3.org/2000/svg" xmlns:xlink="http://www.w3.org/1999/xlink" x="0px" y="0px"
	 viewBox="0 0 612 792" style="enable-background:new 0 0 612 792;" xml:space="preserve">
<style type="text/css">
	.st0{fill:#272626;}
	.st1{fill:#F47A20;}
	.st2{fill:#EAF2F2;}
	.st3{fill:#EAF2F1;}
	.st4{fill:#FFFEFC;}
	.st5{fill:#FBFBFD;}
	.st6{fill:#FFFDFC;}
	.st7{fill:#E8F1F1;}
	.st8{fill:#E9F1F1;}
	.st9{fill:#E8F0F1;}
	.st10{fill:#FCFCFD;}
	.st11{fill:#FBFCFD;}
	.st12{fill:#FCFCFE;}
	.st13{fill:#FAFBFD;}
	.st14{fill:#FFFCF9;}
	.st15{fill:#E8EFEF;}
	.st16{fill:#F9F9FC;}
	.st17{fill:#FDFDFE;}
	.st18{fill:#FAFBFC;}
	.st19{fill:#F7F7FB;}
	.st20{fill:#F9FAFC;}
	.st21{fill:#FEFBF7;}
	.st22{fill:#F6F7FB;}
	.st23{fill:#FDF9F5;}
	.st24{fill:#F8F8FC;}
	.st25{fill:#F8F8FB;}
	.st26{fill:#F8F9FC;}
	.st27{fill:#EAEFED;}
	.st28{fill:#F4F5FA;}
	.st29{fill:#DFE8EC;}
	.st30{fill:#F2F3FA;}
	.st31{fill:#F7F8FB;}
	.st32{fill:#FEF9F4;}
	.st33{fill:#F7F8FC;}
	.st34{fill:#F5F6FA;}
	.st35{fill:#F4F5F9;}
	.st36{fill:#F3F4FA;}
	.st37{fill:#F9F4EF;}
	.st38{fill:#F0F1F7;}
	.st39{fill:#F1F2F8;}
	.st40{fill:#F2F3F9;}
	.st41{fill:#F0F1F8;}
	.st42{fill:#F1F2F9;}
	.st43{fill:#FCF3EA;}
	.st44{fill:#E0E7E9;}
	.st45{fill:#E7EAF6;}
	.st46{fill:#EBEDF7;}
	.st47{fill:#E9EBF6;}
	.st48{fill:#FCF8F3;}
	.st49{fill:#F4EFE9;}
	.st50{fill:#E6E5DB;}
	.st51{fill:#F3EFED;}
	.st52{fill:#C6D3E1;}
	.st53{fill:#E0E4F3;}
	.st54{fill:#C8D5DF;}
	.st55{fill:#E9EAEE;}
	.st56{fill:#D8DDEF;}
	.st57{fill:#D7DDF0;}
	.st58{fill:#DBE0F1;}
	.st59{fill:#D8DBE7;}
	.st60{fill:#AFC1D9;}
	.st61{fill:#DFE3F3;}
	.st62{fill:#EEE1D1;}
	.st63{fill:#DCE5E8;}
	.st64{fill:#EDDFCC;}
	.st65{fill:#E5E7F5;}
	.st66{fill:#D8DDF0;}
	.st67{fill:#BDC7E5;}
	.st68{fill:#D1D6E8;}
	.st69{fill:#DEE2F2;}
	.st70{fill:#D6DBED;}
	.st71{fill:#F2E6D7;}
	.st72{fill:#B9BAC5;}
	.st73{fill:#DBE3E8;}
	.st74{fill:#B4B3B8;}
	.st75{fill:#AAB5C0;}
	.st76{fill:#292929;}
	.st77{fill:#2B2B2B;}
	.st78{fill:#323232;}
	.st79{fill:#FFFFFF;}
	.st80{fill:#CED9DF;}
	.st81{fill:#282827;}
	.st82{fill:#29292A;}
	.st83{fill:#292A2A;}
	.st84{fill:#D8E5EF;}
	.st85{fill:#7999CF;}
	.st86{fill:#CFDFEE;}
	.st87{fill:#D1E1EF;}
	.st88{fill:#83A6D7;}
	.st89{fill:#272726;}
	.st90{fill:#FDF3E7;}
	.st91{fill:#FBE9D2;}
	.st92{fill:#FBEBD6;}
	.st93{fill:#FBEFDE;}
	.st94{fill:#FDF2E6;}
	.st95{fill:#EBE2CF;}
	.st96{fill:#EAF0EF;}
	.st97{fill:#FFFDFB;}
	.st98{fill:#282828;}
	.st99{fill:#C3D0DB;}
	.st100{fill:#C6D9EE;}
	.st101{fill:#82A5D7;}
	.st102{fill:#7DA1D4;}
	.st103{fill:#FBF8F5;}
	.st104{fill:#FCF0E1;}
	.st105{fill:#FCEFDF;}
	.st106{fill:#FAE7CF;}
	.st107{fill:#FBEAD5;}
	.st108{fill:#FAE8D0;}
	.st109{fill:#D4DAEF;}
	.st110{fill:#EFF1F9;}
	.st111{fill:#F9E2C5;}
	.st112{fill:#EEE6DD;}
	.st113{fill:#F8F5F3;}
	.st114{fill:#E2E5F4;}
	.st115{fill:#D4D9EE;}
	.st116{fill:#B8C2E3;}
	.st117{fill:#DDE1F2;}
	.st118{fill:#E1E4F3;}
	.st119{fill:#D9DEF0;}
	.st120{fill:#ECEEF7;}
	.st121{fill:#CAD1EA;}
	.st122{fill:#F4F5FB;}
	.st123{fill:#DFE9EB;}
	.st124{fill:#CDD4EC;}
	.st125{fill:#E8E9E8;}
	.st126{fill:#E7E8E8;}
	.st127{fill:#E9E0DE;}
	.st128{fill:#FEFEFD;}
</style>
<g id="XMLID_34_">
	<path id="XMLID_1431_" class="st0" d="M377.4,161.1c8.7,4.3,16.2,10.3,23.3,16.5c27.5,24.1,47.3,53.2,55.3,89.4
		c8.7,39.7,1.2,77-17,112.6c-0.5,1-0.9,2.1-1.6,3c-4.1,4.8-2.8,9.3,0.2,14.2c8.6,14.4,18.9,27.6,28.5,41.2
		c9.1,13,18.4,25.8,24.8,40.4c1.5,3.5,2.7,7.2,3.5,11c2.5,12.9-5.3,19.1-16.8,19.6c-13.2,0.6-26.4,0.1-39.7,0.2
		c-17.2,0.1-34.4,0.3-51.6,0.3c-12,0-23.9-0.2-35.9-0.3c-19.1,0-38.2-0.1-57.3,0.6c-4.8,0.2-9.5-0.9-13.9-2.4
		c-7.2-2.5-10.1-8.3-8-15.8c1.8-6.5,5.6-11.9,9.5-17.3c0.7-1,1.4-1.9,2.5-3.3c-11.2,0.2-21.7-0.8-32.1-2.9
		c-28.6-5.6-53.7-18.4-75.2-37.8c-32.1-28.9-51.5-64.8-57.7-107.5c-6.1-41.9,3.5-80.2,28.3-114.7c20.3-28.2,45.6-50.1,78.2-63
		c14-5.5,28.5-8.8,43.5-10.3c9.5-1,19-1.1,28.4-0.4c9.9,0.7,20,2.1,29.7,5c2.1-0.4,4,0,5.6,1.5c3.4,1.1,6.7,2.1,10.1,3.2
		c2.2,0.2,4.3,0.6,6,2.2c1.2,0.5,2.4,1,3.6,1.5c2.2,0,4,0.8,5.5,2.3c2,1,4,1.9,6,2.9c2.1,0.3,4,1,5.4,2.9c1.4,0.8,2.8,1.5,4.2,2.3
		C374.7,158.2,376.2,159.4,377.4,161.1z"/>
	<path id="XMLID_1430_" class="st1" d="M347.8,146.3c-2.2-0.3-4.2-1.1-6-2.2C344.6,142.4,346.8,142.8,347.8,146.3z"/>
	<path id="XMLID_1429_" class="st1" d="M368.3,155.9c-1.9-0.7-3.7-1.6-5.4-2.9C366.1,151.4,367.8,152.6,368.3,155.9z"/>
	<path id="XMLID_1428_" class="st1" d="M356.9,150.1c-2-0.4-3.9-1.1-5.5-2.3C354.4,145.9,356.2,146.8,356.9,150.1z"/>
	<path id="XMLID_1427_" class="st1" d="M331.6,140.9c-2-0.1-3.8-0.7-5.6-1.5C328.6,137.3,330.5,137.7,331.6,140.9z"/>
	<path id="XMLID_1426_" class="st1" d="M377.4,161.1c-1.6-1-3.3-1.9-4.9-2.9C375.7,156.5,376.9,158.2,377.4,161.1z"/>
	<path id="XMLID_1425_" class="st2" d="M161.4,347.2c-0.6-2.1-1.2-4.1-1.8-6.2c0.1-1,0.8-1.4,1.6-1.6c0.3-0.2,0.6-0.5,0.8-0.7
		c-0.3,0-0.4,0.4-0.7,0.5c-0.8,0.2-1.4,1-2.2,0.4c-0.5-2.2-1-4.5-1.6-6.7c1.1-2.3,3.4-3.3,5.3-4.5c13-8,25.8-16.4,39-24.2
		c1.4-0.7,2.5-1.7,3.9-2.3c0.7-0.4,1.4-0.9,2.1-1.4c0.5-0.1,0.9-0.4,1.3-0.6c-0.4,0.1-0.7,0.4-1.2,0.5c-0.9,0.4-1.6,1.2-2.5,1.5
		c-1.3,0.8-2.6,1.7-3.9,2.4c-13.5,8.5-27.5,16.1-41.3,24.2c-1,0.6-2.1,1.4-3.5,0.8c-1.8-7.3-2.7-14.8-2.9-22.3
		c1.1-1.9,3.1-2.9,4.9-4c8.7-5.4,17.3-10.8,26-16.1c2.1-1.1,4-2.6,6.1-3.7c0.2-0.1,0.6-0.1,0.6-0.2c0.1-0.4,0-0.3-0.2,0
		c-0.3,0.4,0.1-0.1-0.3,0.2c-2.2,1.1-4.2,2.7-6.5,3.8c-8.7,5.4-17.6,10.6-26.5,15.7c-1.2,0.7-2.5,1.7-4.1,1.1
		c-0.3-2.6-0.4-5.3,0-7.9c0.7-1.6,2.2-2.4,3.5-3.2c20.2-12.8,39.9-26.4,60.4-38.7c0.4-0.3,0.9-0.5,1.3-0.8c-0.6,0.3-1.1,0.6-1.6,0.9
		c-15.8,9.6-31.9,18.8-48,28c-1.3,0.7-2.6,1.5-3.9,2.3c-2.7,1.3-5.3,3-7.9,4.6c-1.1,0.6-2.2,1.7-3.7,0.8c-0.3-3,0.5-6,0.7-9
		c0.4-1.2,1.3-1.7,2.3-2.3c9.9-5.6,19.2-12,28.7-18.2c6.4-4.1,12.8-8.2,19.3-12.2c1.4-0.7,2.6-1.7,4-2.4c0.2-0.2,0.6-0.2,0.8-0.6
		c-0.4,0.2-0.8,0.4-1.2,0.7c-1.3,0.8-2.6,1.7-4,2.4c-15.1,9.3-30.7,17.9-46.1,26.9c-0.9,0.6-1.9,1.2-3.1,0.4c0.5-2.8,1-5.6,1.5-8.5
		c1-1.7,2.7-2.3,4.2-3.2c0.2-0.1,0.4-0.2,0.6-0.2c-0.4-0.4-0.4,0.3-0.7,0.2c-1.2,0.2-1.8,2.2-3.4,1.1c0.2-3.2,1.4-6.2,2.3-9.2
		c3.9-4.6,9.4-7,14.2-10.3c3-2,6.1-3.9,9.2-5.7c0.3-0.2,0.6-0.4,1-0.5c-0.6,0-0.9,0.5-1.4,0.6c-5.5,3.7-11.3,6.9-17,10.2
		c-1.3,0.8-2.7,1.9-4.5,1.3c2.9-9,6.6-17.6,12-25.4c1.4-1.4,2.9-2.6,4.6-3.7c1-0.6,1.8-1.5,2.8-2.2c6.4-4.3,12.4-9.3,19-13.3
		c0.4-0.3,1-0.4,1.3-0.9c-0.6,0.5-1.2,0.8-1.8,1.1c-5.3,3.7-11.1,6.5-16.5,9.9c-1,0.6-2.2,1.2-3.4,0.1c8.5-12.6,19.6-22.3,32.2-30.6
		c8.6-5.7,17.8-10.3,27.7-13.5c1,2-1.1,2-1.8,3c3.8-2.2,7.5-4.7,11.8-6.1c6.4-2.1,13-3.7,19.8-4.4c0.6,1.7-0.9,2.2-1.8,2.8
		c-12.9,9.1-25.5,18.8-38.7,27.4c-0.3,0.2-0.6,0.4-1,0.5c0.6,0,0.9-0.5,1.4-0.6c14.5-9.2,29.7-17,44.1-26.4c1.4-0.5,2.7-1.2,4-1.9
		c1.6-0.6,2.8-2,4.6-2.4c1-0.4,2.2-0.5,3.2-0.9c3.8-0.1,7.6-0.3,11.3,0.6c0,2.3-2.4,2-3.4,3.2c-0.6,0.6-1.4,1-2.7,1.5
		c1.6-0.5,2.5-1.1,3.2-1.9c1.9-0.8,3.3-2.3,5.4-2.7c3.6,0,7,0.6,10.5,1.5c0.2,1.8-1.3,2.3-2.4,3c-9.6,6-18.9,12.6-28.7,18.3
		c-0.7,0.4-1.5,0.8-2.6,1.6c1.3-0.8,2.2-1.3,3-1.7c10.5-6.7,21.5-12.6,32.2-18.9c1.3-0.8,2.7-1.3,4.2-1.1c2.7,0.7,5.4,1.4,8,2
		c-0.5,2.9-3.2,3.2-5.1,4.5c-1.8,1.3-3.9,2.3-5.7,3.5c-0.6,0.3-1.3,0.6-1.9,0.9c0.9-0.4,1.9-0.7,2.7-1.4c2.8-1.9,5.8-3.4,8.6-5.2
		c1.2-0.8,2.4-1.9,4.1-1.3c2.5,0.9,5,1.7,7.5,2.6c0.1,1.3-0.8,2-1.8,2.6c-18.6,11.8-36.8,24.3-55.6,35.8c-1.4,0.7-2.6,1.7-4,2.4
		c-0.3,0.2-0.6,0.4-0.9,0.4c0.5,0,0.9-0.4,1.3-0.6c1.3-0.8,2.6-1.7,4-2.4c19.3-11.9,39.3-22.6,58.8-34.4c1.3-0.8,2.6-1.6,4.2-1.2
		c2.3,1.1,4.6,2.2,6.9,3.2c-0.5,2.8-3,3.5-4.9,4.7c-17.4,11.1-34.7,22.5-52,33.7c-1.1,0.5-2.1,1.1-3,1.8c-3.5,2.1-7,4.4-10.5,6.5
		c-0.7,0.4-1.5,0.9-2.3,1.2c1-0.3,1.9-0.9,2.8-1.4c1.8-1.3,3.8-2.2,5.6-3.5c1.1-0.7,2.5-1.8,3.7,0.1c-0.9,8.9-1.6,17.8-2,26.8
		c-0.3,6.2-0.7,12.4,0.1,18.7c0.5,4,0.3,8,0.2,12c0,2.3-1.2,3.7-3.3,4.5c-0.9,0.3-1.9,0.7-2.8,1.1c-10,4.4-14,12.4-11.7,23
		c0.2,0.7,0.3,1.5,0.4,2.2c0,0.6-0.2,1.3-0.1,1.9c1.1,4.7-0.6,7.8-5.3,9.3c-1.3,1.4-2.9,2.4-4.8,3.1c-17.9,10.9-36.2,21.1-54.4,31.6
		c-1.2,0.7-2.3,1.6-3.8,1.4c-2.4-3.5-5.9-2.3-9.2-2c-0.5-0.2-0.9-0.6-0.9-1.2c2.5-3.3,6.3-4.6,9.6-6.7c2.7-1.8,5.4-3.4,8.2-5
		c1.7-0.8,3.2-2,4.9-2.9c1-0.3,1.7-1.2,2.7-1.6c-0.9,0.4-1.7,1.2-2.6,1.5c-1.8,1-3.5,2.3-5.4,3.1c-11.2,7-22.6,13.5-34,20
		c-1.1,0.6-2.1,1.5-3.4,0.8c-2.2-4-4-8.3-5.1-12.7c0.2-1.5,1.5-1.9,2.5-2.5c15.5-9.7,30.8-19.6,46.5-28.8c0.9-0.5,1.8-1,2.7-1.5
		c-1,0.5-2.1,1-3.1,1.6c-15.1,9.3-30.5,17.9-45.8,26.8C164.3,346.8,163,347.7,161.4,347.2z"/>
	<path id="XMLID_1424_" class="st2" d="M260.2,321.1c0.1-1.4,0.9-2.4,2.3-2.3c3.4,0.3,3.2-2,2.8-4.1c-0.3-1.5-0.2-2.9,0.1-4.3
		c1.8,0,2.1,1.6,2.8,2.7c4.2,6.4,10.1,9.9,17.6,10.6c5.1,0.5,9.6-1.8,13.6-4.5c3.1-2.1,5.3-1.7,8,0.5c4.9,3.9,10.2,7.2,16.4,8.8
		c1.1,0.3,2.7,1.1,3.4-0.3c0.7-1.3-0.7-2.3-1.5-3.1c-4.1-4-8.9-6.8-13.7-9.7c-4.6-2.7-4.6-2.8-3.1-7.6c0.9-2.8,1.3-5.6,1.4-8.5
		c0.2-1.4,1.1-2.3,2.1-3.2c2.7-1.2,4.1-4.6,7.5-4.6c2.2,0.1,3.7-1.5,5.4-2.4c1.4-0.7,2.6-1.7,4-2.4c25-14.5,50.1-28.8,75.1-43.4
		c1.1-0.7,2.3-1.6,3.8-1c1.2,1.8,2.3,3.8,2.9,5.9c-0.2,1.1-1,1.7-1.9,2.2c-11.6,7.4-23.3,14.7-35.2,21.6c-1.3,0.6-2.3,1.5-3.5,2.2
		c-1,0.3-1.7,1.3-2.1,1.4c0.3-0.1,1-0.9,2-1.2c1.3-0.8,2.6-1.8,4-2.4c11.2-6.8,22.5-13.4,33.9-19.9c1.2-0.7,2.4-2,4.1-1.2
		c1.8,4,3.6,8.1,4.6,12.4c-0.5,1.7-2.1,2.1-3.3,3c-1.5,0.8-2.9,1.6-4.1,2.8c-0.4,0.5-0.9,1-1.5,1.3c-1.4,0.3-2.6,1.1-3.8,1.8
		c-1.3,0.7-2.4,1.6-3.5,2.6c-0.3,0.2-0.6,0.4-0.9,0.5c-1.6,0.5-2.9,1.4-4.2,2.3c-1.5,1-3.1,1.8-4.6,2.8c-1,0.8-2.4,1.1-3.4,2
		c-2.1,1.1-4.1,2.2-5.9,3.7c-2,1.3-4.1,2.2-5.9,3.7c-0.9,0.2-1.5,1-2.5,1.4c0.9-0.3,1.3-1.1,2.1-1.2c1.8-1.5,4-2.4,5.9-3.7
		c1.9-1.4,3.9-2.6,6-3.7c0.7-0.2,1.1-0.8,1.8-0.9c7.4-3,13.9-7.8,20.9-11.5c2.5-1.3,4.7-3.2,7.6-3.9c1.3,2.1,1.6,4.5,2.1,6.8
		c-0.5,1.4-2,1.7-3,2.6c-0.6,0.1-1,0.7-1.7,0.7c0.7,0.1,1-0.6,1.7-0.6c1-0.5,1.8-1.8,3.3-1.1c0.9,2.1,1.4,4.3,1.4,6.6
		c-0.5,1.8-2.1,2.4-3.5,3.2c-14.9,9.5-29.7,19-44.9,28.1c-0.8,0.6-1.7,0.8-2.5,1.5c1-0.6,1.9-1,2.8-1.6c5.2-3.3,10.5-6.3,15.8-9.4
		c0.9-0.6,1.9-1.2,3.1-0.6c3.9,3.8,8.3,3.9,14.3,0.2c3.9-1.9,7.6-4.2,11.3-6.4c1.7-1,3.2-2.4,5.4-1.8c0.1,2.4,0.1,4.8,0.2,7.3
		c-0.7,1.5-2.1,2.1-3.4,2.8c-1.2,0.6-2.1,1.7-3.4,2.1c-0.9,0.4-1.6,1-2.4,1.4c0.8-0.4,1.5-1,2.4-1.3c1.4-0.6,2.5-1.8,4-2.4
		c0.9-0.5,1.8-1.2,3-0.6c0,2.6-0.1,5.1-0.1,7.7c-0.9,2.1-3,3-4.7,4.1c-7.1,4.5-14,9.1-21,13.5c-0.9,0.6-1.8,1.3-3.1,1.2
		c-2.8-1.1-5.5-2.4-8.6-2.5c-1.8-1.3-3.7-1.3-5.6-0.2c-3.9,2.1-8.4,3.4-10.9,7.4c-7.7,7.2-13.3,16-19.6,24.3
		c-0.1,0.3-0.3,0.6-0.7,0.8c-0.5,0.2-0.9,0.7-1.5,0.2c0.3,0.7,1.1,0.1,1.5,0.6c-7.8,13.9-15.5,27.7-23.3,41.6
		c-2.8,3.5-7,5.1-10.8,7.2c-15.8,9-31.4,18.2-47.2,27.2c-1.6,0.9-3.3,1.7-5.1,2.1c-3.2-0.1-6.3-1.1-9.4-1.8c-0.1-1.3,0.9-2,1.8-2.6
		c8.3-5.5,16.6-11,25.1-16.2c0.6-0.4,1.3-0.7,2.1-0.5c4.9,3.8,7.8,2.5,8.7-3.8c0.1-0.8,0.1-1.7,0.5-2.5c1.3-1.6,3.3-2.1,4.8-3.3
		c0.2,0,0.3-0.2,0.2-0.3c-0.1,0.2-0.3,0.3-0.4,0.4c-1.6,0.9-2.9,2.3-4.9,2.1c-5.4-1.9-6.2-1.4-8.6,5.6c-4.7,3.7-10.2,6.2-15.3,9.3
		c-5.1,3.1-10.4,6-15.5,9c-1.3,0.7-2.6,1.5-4.2,1.2c-2.8-0.3-5.4-1.6-8-2.5c0.1-1.7,1.9-1.7,2.7-2.7c1.1-0.6,2.2-1.1,3.4-2.1
		c-1.3,1-2.5,1.5-3.7,2.2c-1.2,1-2.5,1.7-4.1,1.8c-2.6-1-5.3-1.7-7.6-3.5c1.4-2.4,3.9-3.4,6.1-4.7c11.4-7.3,22.8-14.8,34.2-22.2
		c0.9-0.6,1.9-1.2,2.4-2.3c4.1-3.6,9.1-5.7,13.6-8.5c5.1-3.2,10.2-6.2,15.4-9.3c0.3-0.2,0.6-0.4,1-0.5c-0.6,0-0.9,0.5-1.4,0.6
		c-17,10.5-34.5,20.2-51.7,30.2c-7.2,4.2-14.5,8.4-21.8,12.5c-1.2,0.7-2.3,1.6-3.8,1.1c-2.3-0.9-4.4-2.2-6.4-3.7
		c1.5-2.8,4.7-3.3,7-5.1c1.7-0.8,3.1-2,4.8-2.9c0.8-0.6,1.6-0.9,2.4-1.5c-0.7,0.5-1.6,0.8-2.3,1.3c-1.8,1-3.4,2.3-5.3,3.1
		c-2.7,1.5-5,3.7-8.3,4.1c-2-1.4-4-2.8-6-4.1c0-0.9,0.6-1.3,1.2-1.7c5.3-3.2,10.3-6.9,15.9-9.7c2.9-0.9,5.5-2.2,7.3-4.8
		c2.2-3.4,1.5-5.1-2.4-5.8c-0.6-0.1-1.2-0.3-1.7-0.7c-0.4-1.5,0.9-1.9,1.8-2.4c7.9-4.9,15.8-10,23.9-14.6c0.7-0.4,1.5-0.8,1.9-1.3
		c-0.6,0.4-1.4,1-2.3,1.4c-16.6,10.2-33.6,19.6-50.4,29.5c-1.7,1-3.3,2.4-5.5,1.7c-1.7-1.4-3.4-2.8-4.7-4.6c0.1-0.7-0.2-0.9-0.9-0.9
		c-1.9-1.5-3.6-3.2-4.9-5.3c1.1-1.9,3.2-2.8,4.9-3.9c12-7.7,24.3-14.9,36.5-22.3c-8.8,5.3-17.7,10.4-26.6,15.5
		c-4.5,2.6-9,5.3-13.5,7.9c-0.9,0.5-1.8,1.5-3,0.7c-3.3-3.1-5.8-6.7-8.2-10.5c-0.4-1.9,1.4-2.1,2.4-2.7
		c11.7-7.4,23.3-14.7,35.2-21.7c1.4-0.8,2.5-1.9,4-2.4c0.8-0.4,1.4-1,1.4-1c-0.1,0.1-0.8,0.7-1.8,1.1c-1.5,0.6-2.6,1.8-4,2.4
		c-11.8,7.2-23.8,14.1-35.8,20.9c-1.1,0.6-2.2,1.3-3.5,0.7c-1.1-1.8-2.2-3.6-3.2-5.5c0.2-1.4,1.3-2,2.4-2.7
		c22.2-13.9,44.1-28.1,66.3-42c4.1-2.6,8.4-4.9,12.3-7.7C257.5,323.5,259.2,322.8,260.2,321.1z"/>
	<path id="XMLID_1423_" class="st1" d="M432.9,404.9c2.5,3.9,5.4,7.5,6.7,12.1c-1,0.7-2.1,1.2-3.9,2.2c1.8-1,3-1.4,3.9-2.3
		c2.3,1.4,3,4,4.3,6.1c-0.5,1.7-2.1,2.5-3.3,3.4c-13.6,9.3-27.1,18.6-40.6,27.9c-1.4,0.7-2.5,1.8-3.7,2.7c-0.3,0.2-0.7,0.2-1,0.2
		c-4.1-1.5-8-3.8-12.8-2.7c-6.8,1.5-12.2,4.6-14.6,11.6c-0.2,0.6-0.5,1.1-1,1.6c-1.3,1.3-3.1,1.8-4.6,2.7
		c-10,6.6-20.6,12.1-30.9,18.2c-5.9,3.5-11.8,6.9-17.8,10.3c-2.4,1.4-4.7,2.7-7.4,3.5c-7.2,0.1-14.4-0.4-21.3-2.3
		c-4.5-1.3-5.9-3.6-4.9-7.4c1.1-1.4,2.3-2.6,3.8-3.5c15.9-10.4,31.4-21.3,47.5-31.3c0.4-0.3,0.9-0.5,0.6-0.3
		c0.2-0.1-0.5,0.1-1.1,0.5c-13.4,8.4-27.4,16-41,24c-1.1,0.6-2.2,1.2-3.5,0.6c2.6-4.6,5.5-9,8.6-13.3c0.7-0.3,0.9-1,1.5-1.4
		c1.1-0.7-0.6-0.3-0.3-0.7c5.4-8.8,10.8-17.5,16.2-26.3c5.4-4.9,11.6-8.4,17.7-12.3c0.7-0.5,1.4-0.9,2.3-1.5
		c-1.1,0.6-1.9,1.1-2.8,1.7c-3.5,2.1-7,4.3-10.7,6.2c-1,0.5-2,1.6-3.4,0.7c7.8-13.1,15.5-26.3,23-39.6c6-10.5,11.8-21,17.5-31.7
		c2-1.6,3.5-3.7,6.2-5.2c-1.3,0.4-2.1,0.7-2.9,0c3.7-6.9,7.9-13.6,13.1-19.5c2.8-3.2,5.8-6.4,10.6-6c-0.2,2.6-2.2,4.1-3.8,5.9
		c-0.3,0.4,0-0.2-0.3,0.2c-0.1,0.1,0.2,0.2,0.5,0c1.2-0.4,2.3-0.8,3.3-1.4c1.9-0.9,3.5-2.7,5.9-2.5c2.3,1.2,4,3.1,5.5,5.2
		c-0.4,2.4-2.7,3.1-4.2,4.4c-3.2,3-6.5,6-10.1,8.5c-0.2,0.1-0.3,0.2-0.1,0.4c0.1-0.2,0.2-0.3,0.4-0.5c4.5-2.8,9.2-5.3,13.7-8
		c1-0.6,2-1.4,3.4-1c1.5,1.7,3.1,3.4,3.7,5.6c0.1,1.4-1.3,1.6-1.9,2.4c0.8-0.1,1.2-0.8,2-0.9c0.3,0,0.7,0,0.9,0.3
		c2.1,1.1,2.6,3.5,3.9,5.2c0,1.5-1.2,2.1-2.1,2.8c-1.6,1-3.2,2-4.6,3.4c-1.4,1.3-2.6,2.8-4.7,2.6c-1-0.2-1.9-0.6-2.8-1
		c-13.1-5-26,5.5-24.5,19.5c1.1,9.6,0.3,19.2,0.4,28.8c0,3.2,0.4,6.2,1.5,9.2c1.6,4.3,4.4,7.5,8.8,9c1.1,0.4,2.2,0.5,2.9,1.5
		c-0.5,2.1-2.7,2.2-4,3.3c-0.8,0.5-1.7,0.8-2.6,1.5c1-0.6,2-1.1,2.9-1.6c1.7-1.2,3.6-2.1,5.4-3.2c7.4-0.5,13-3.9,16.9-10.3
		c10.2-5.4,20-11.5,30-17.2C430.1,405.5,431.2,404.3,432.9,404.9z"/>
	<path id="XMLID_1422_" class="st2" d="M320.2,291.8c-3.3,0.4-4.4,4.4-7.7,4.6c-0.8,0.6-1.7,0.5-2.5,0c-1.5-1.3-1.8-3.3-2.9-4.8
		c-2.8-3.8-6.1-6.9-10.7-8.4c-4.8-1.6-5-1.9-5-6.9c0-9.5-0.2-19,0-28.5c0.2-9.7-0.9-19.2-2.5-28.7c0.2-1.8,1.7-2.7,3.1-3.5
		c18.9-10.8,37.7-21.7,56.6-32.6c1.1-0.6,2.1-1.4,3.5-0.9c2.2,0.9,4.2,2.2,6,3.8c0,1.9-1.6,2.3-2.8,3.1
		c-11.4,7.3-22.8,14.5-34.5,21.3c-1.2,0.8-2.5,1.5-3.8,2.4c1.5-0.9,2.8-1.7,4.1-2.5c12-7.3,24.2-14.4,36.4-21.4
		c1.2-0.7,2.4-1.3,3.9-0.9c6,4,11.5,8.5,16.6,13.6c-0.3,1.9-1.9,2.5-3.3,3.4c-14.9,9.3-29.7,18.9-44.9,27.8
		c-1.2,0.6-2.3,1.5-3.5,2.2c-0.9,0.4-1.7,1-2.6,1.7c1-0.6,1.7-1.2,2.6-1.6c1.3-0.9,2.6-1.8,4-2.4c15.4-9.5,31.2-18.3,46.9-27.4
		c1.2-0.7,2.4-1.5,3.9-0.9c1.4,1.4,2.8,2.8,4.2,4.2c-0.1,2.5-2.6,2.3-3.8,3.6c-0.3,0.2-0.5,0.5-0.8,0.7c0.6-0.1,0.9-0.8,1.4-1.1
		c1.6-0.5,2.8-2.2,4.7-1.4c1.3,1.5,2.6,3,3.9,4.4c-0.3,2-2.1,2.7-3.5,3.6c-15.2,9.7-30.4,19.2-45.8,28.5c-1.4,0.7-2.6,1.7-3.9,2.3
		c-0.7,0.4-1.4,0.9-2.1,1.4c-0.7,0.2-1.2,0.7-2.1,1.4c0.8-0.6,1.3-1.1,1.9-1.3c0.9-0.4,1.6-1.2,2.5-1.5c1.3-0.8,2.6-1.7,4-2.4
		c15.8-9.7,32-18.8,48.1-28.1c1-0.6,2-1.6,3.4-0.7c2.6,3.6,5.1,7.2,7.7,10.8c-0.7,2.6-3.2,3.4-5.2,4.6
		c-10.6,6.6-21.1,13.2-31.9,19.5c-1.3,0.7-2.4,1.8-3.9,2.3c-1,0.7-2.2,1.2-3.2,1.9c0,0-0.1,0.1,0,0.1c0.2-0.1,0.4-0.3,0.6-0.4
		c1.1-0.4,1.9-1.2,3-1.6c1.4-0.6,2.5-1.7,3.9-2.3c4.7-2.4,8.7-6.3,14.1-7.5c0.5,0.2,0.9,0.5,1.1,1c-0.3,2.3,0.5,3.5,3,2.8
		c1.2-0.3,2.4-0.6,3.4,0.3c0.3,2.1-1.6,2.7-2.8,3.5c-17.9,11.2-35.5,22.9-53.7,33.7c-1.4,0.7-2.6,1.7-4,2.4
		C323.6,290.3,322,291.2,320.2,291.8z"/>
	<path id="XMLID_1421_" class="st1" d="M455.3,504c-16.9-0.1-33.9-0.2-50.8-0.2c0.5-2.3,2.7-3,4.3-4.2c2.5-1.8,4.9-3.7,7.5-5.3
		c0.1,0,0.2,0,0.2,0c-0.1-0.2-0.3-0.1-0.4,0.1c-5.6,3.4-11,7.1-17.1,9.5c-4.4,0-8.9,0-13.3,0c-0.2-0.1,0.7-1.4-0.5-0.5
		c-0.3,0.2-0.6,0.4-1,0.5c-9.4,0-18.9,0-28.3,0c-0.3-1.7,1.2-2,2.1-2.7c5.9-3.8,11.5-8.2,17.4-11.9c1.5-0.9,2.8-1.9,4.1-3.1
		c1.5-1,3.2-1.5,4.8-2.3c5.4-1.6,10.1-4.2,13.2-9c3.8-5.9,3.8-9.6-0.2-15.4c-0.6-0.8-1.3-1.5-1.2-2.6c0.1-0.1,0.2-0.2,0.3-0.3
		c1.2-1,2.4-2,3.8-2.6c14.4-9.1,29.5-17,44.1-25.8c0.8-0.5,1.6-0.7,2.5-0.6c1.3,2.1,2.7,4.2,4,6.3c0,0.4-0.1,0.8-0.4,1
		c-8.8,5.4-16.9,11.8-25.8,17c-0.4,0.2-0.7,0.6-1.2,0.8c0.6-0.2,1-0.7,1.6-0.9c7.5-4.7,15.2-9,22.9-13.5c1.4-0.8,2.7-1.8,4.5-1.4
		c1.2,1.9,2.4,3.7,3.6,5.6c-0.4,1.6-1.8,2.3-3,3.1c-5,3.4-10,6.9-15.1,10.1c-0.8,0.4-1.4,0.9-2.1,1.4c0.8-0.5,1.6-1.2,2.6-1.6
		c5.1-3.5,10.6-6.2,15.8-9.5c1-0.6,2.1-1.4,3.4-0.7c3.9,6,8.1,11.9,11.5,18.2c-1.4,3.7-5.3,4.4-7.4,6.7c2.8-1.3,5.2-4.1,8.9-4.4
		c1.4,2.1,2.9,4.3,4.3,6.4c-3,4.3-7.5,7-11.4,10.3c-0.1,0.2-0.5,0.2-0.4,0.6c0.2-0.3,0.5-0.5,0.7-0.7c4.4-2.3,8.4-5.3,13-7.3
		c2.8,4.4,5.7,8.7,8.5,13.1c-0.3,0.8-0.1,1.3,0.8,1.5c4,8.9,0.1,16.2-8.9,16.5c-0.9-1.4,0.2-2.3,0.8-3.4c-2.4,0.8-4.2,2.9-6.8,3
		c-4.3-0.5-8.7-1-13-1.6c1.5-1.7,3.7-2.5,5-4.1C460.6,501.6,458.1,503.2,455.3,504z"/>
	<path id="XMLID_1420_" class="st1" d="M231.7,169.4c-2.9,2.2-6.4,3.2-9.6,4.8c-16.2,8-30,19.1-42.1,32.4c-1.2,1.3-2.2,2.7-3.8,3.5
		c-4.5,4-10.2,6.2-15.2,9.4c-4.8,3-9.9,5.8-14.9,8.5c-1,0.6-2,1.6-3.4,0.9c2.4-4.7,4.5-9.6,8-13.7c9.1-7.3,19.1-13.4,28.9-19.8
		c0.8-0.6,1.8-1.1,2.7-1.6c-1,0.6-2.1,1.1-3.1,1.8c-6.6,4.3-13.7,8-20.5,12.1c-1.2,0.8-2.5,1.7-4.1,1.2
		c7.1-11.9,16.1-22.1,26.2-31.4c14-13,29.9-23,47.9-29.5c1.9,1.7,3-0.9,4.6-0.9c7-3.9,14.7-5.1,22.5-6.1c1,1.5,1.8-0.1,2.7-0.2
		c0.6-0.3,1.3-0.1,1.8-0.6c5-1,10.1-1.4,15.2-1.3c0.5,1.7-1.1,1.9-1.9,2.4C259.6,150.7,246,160.5,231.7,169.4z"/>
	<path id="XMLID_1419_" class="st1" d="M329,503.3c-4.4-0.1-8.8-0.2-13.2-0.2c0.2-1.9,2-2.4,3.3-3.3c14.2-9.9,28.4-19.7,42.8-29.3
		c1.5-0.5,2.6-2.2,4.4-1.5c0.6,3.5,2.3,6.8,3.3,10.2c-0.2,1.5-1.4,2.2-2.5,3c-10.4,6.1-20.9,12-31.3,18.1
		C333.6,501.5,331.5,502.7,329,503.3z"/>
	<path id="XMLID_1418_" class="st3" d="M324.8,404.8c-3.2,6.3-6.5,12.6-10.6,18.4c-6.3,5.1-13.7,8.5-20.6,12.5
		c-3.3,1.9-6.3,4.5-10.3,5c-3.8-0.2-7.6-0.5-11.4-0.7c0-1.6,1.3-2.3,2.4-3c15.4-9.9,30.2-20.7,45.8-30.5
		C321.6,405.7,322.8,404.1,324.8,404.8z"/>
	<path id="XMLID_1417_" class="st1" d="M285.1,139c4.2-0.1,8.3,0.3,12.4,1.1c-1.7,2.6-4.6,3.8-7,5.3c-8.1,4.9-15.5,10.8-23.9,15.3
		c-0.7,0.5-1.7-0.1-2.4,0.6c-9.3,1.5-18.4,3.9-27.5,6.6c0.2-1.8,1.6-2.4,2.9-3.2c14-8,27.8-16.1,41.8-24
		C282.6,139.8,283.8,139.4,285.1,139z"/>
	<path id="XMLID_1416_" class="st1" d="M419.2,381.1c2.2,3.8,4.8,7.4,6.4,11.6c-0.9,2.8-3.6,3.4-5.7,4.7c-1.4,0.8-2.8,1.6-3.8,2.9
		c-0.2,0.3-0.5,0.5-0.8,0.6c-2,0.9-4.3,1.3-5.7,3.3c-1.7,1.8-4,2.8-6.1,4.1c-1,0.6-2.2,1.5-3-0.3c-0.7-5.2-0.5-10.3-0.1-15.5
		c0.2-0.6,0.4-1.2,0.9-1.6c5.4-3.8,11-7.1,16.8-9.9C418.5,380.7,418.9,380.9,419.2,381.1z"/>
	<path id="XMLID_1415_" class="st1" d="M384,484.7c-1.4,0.7-2.8,1.4-4.3,2.1c-1.9,0.5-3.2,2-4.8,2.8c-7,4.2-14.1,8.3-21.2,12.3
		c-1.4,0.8-2.8,1.5-4.4,1.9c-6,0-12,0.3-18-0.4c13.7-4.5,23.5-15.3,36-21.8c1.2-0.6,2.1-1.9,3.6-1.5C374.8,483,379.7,483,384,484.7z
		"/>
	<path id="XMLID_1414_" class="st1" d="M394.7,366c1.2-1,2.4-2,3.6-3c1.8-0.6,3.3-1.6,4.9-2.5c1.1-0.3,1.8-1.6,3.2-1
		c3.8,5.9,7.5,11.9,10.7,18.2c-4,4.7-9.3,7.5-14.5,10.5c-0.5,0.3-1.2,0-1.7-0.5c-0.7-1.1-0.6-2.4-0.6-3.6c0.1-5.8-1-11.2-5-15.6
		C394.7,367.7,394.1,367,394.7,366z"/>
	<path id="XMLID_1413_" class="st1" d="M328.5,286.6c17.6-11.2,35.2-22.5,52.8-33.8c1.4-0.9,3.1-1.6,4.2-3c0.7-2.1,2.8-2.6,4.4-3.7
		c4-2.2,7.8-4.8,11.7-7.2c1.2-0.8,2.3-2.1,4-1.4c1.2,1.3,2,2.9,2.5,4.6c-25.6,14.7-51.2,29.5-76.8,44.2c-0.6,0.4-1.3,0.7-2,1
		C328.6,287.7,328.4,287.3,328.5,286.6z"/>
	<path id="XMLID_1412_" class="st1" d="M256.4,324.5c-26.1,16.6-52.1,33.2-78.2,49.8c-1.2,0.7-2.3,1.5-3.4,2.2
		c-1.2-1.3-2-2.9-2.6-4.6c0.1-1.5,1.4-1.9,2.4-2.5c3.7-2.2,7.3-4.5,11.3-6.3c4.7-0.9,8.3-3.8,12.1-6.4c18-10.4,36.1-20.7,54.1-31.1
		c1.2-0.7,2-2.1,3.6-2.3C256.3,323.6,256.6,323.9,256.4,324.5z"/>
	<path id="XMLID_1411_" class="st1" d="M175,212.3c-4.3,6.2-8.6,12.3-12.9,18.5c-1.2,0.7-2.1,1.9-3.3,2.5
		c-6.7,3.9-13.4,7.9-20.2,11.7c-1.1,0.6-2.1,1.3-3.5,0.9c1.4-4.1,2.9-8.1,5.1-11.8c10.6-7.4,21.4-14.4,32.4-21.2
		C173.4,212.3,174.1,211.6,175,212.3z"/>
	<path id="XMLID_1410_" class="st1" d="M352,182.1c-20.8,12.1-41.7,24.1-62.5,36.2c-1.2,0-1.3-0.7-1.1-1.6
		c15.2-9.9,30.5-19.9,45.7-29.9c4-2.7,8.4-4.9,12-8.2C348,179.8,350,181,352,182.1z"/>
	<path id="XMLID_1409_" class="st1" d="M286.8,446.2c1.6-1.1,3.4,0.2,4.9-0.1c2.2-0.5,5.5-1.8,6.2,0.1c0.7,1.9-1.6,4.5-3.7,6.1
		c-1.1,0.8-2,2-3.5,2.2c-0.8,0.2-1.6,0.4-2.4,0.8c-1.4,0.8-2.6,2-4.1,2.7c-1.3,0.7-2.5,1.6-3.9,2.3c-3.6,1.6-6.5,4.5-10.5,5.3
		c-3.5,0-6.8-0.4-10.1-1.5c0-0.8,0.4-1.5,1.1-1.9C269.5,456.8,277.6,450.7,286.8,446.2z"/>
	<path id="XMLID_1408_" class="st1" d="M287.9,159.7c-5.7,0.2-11.4,0.5-17,0.7c-0.2-1.7,1.3-1.9,2.3-2.5c8.6-5.3,17.5-10,26.1-15.2
		c1.4-0.9,2.9-1.4,4.5-1.7c3.6-0.3,7,0.8,10.4,1.6c0.3,0.9-0.5,1.4-1,1.8c-7.3,4.8-14.7,9.4-22,14.1
		C290.1,159.1,288.9,159.2,287.9,159.7z"/>
	<path id="XMLID_1407_" class="st1" d="M401.3,408.7c2.8-1.8,5.6-3.6,8.4-5.4c1.8-1.2,3.9-2,5.8-3c0-0.2,0-0.3,0-0.5
		c1.2-1,2.8-1.4,4.1-2.4c2.5-0.7,4.2-3.5,7.2-3.2c1.2,2,2.4,3.9,3.6,5.9c-0.3,0.9-0.9,1.5-1.7,1.9c-8.6,5.1-16.6,11.4-25.1,16.7
		c-1,0.6-2.3,2.5-3.6,0.3C400.5,415.7,399.2,412,401.3,408.7z"/>
	<path id="XMLID_1406_" class="st1" d="M324.8,404.8c-3.9,1.7-7.2,4.5-10.7,6.8c-13.4,8.9-26.8,17.8-40.1,26.8
		c-0.7,0.5-1.3,1.1-2,1.7c-2.9-0.5-5.9-0.3-8.8-1.4c16.7-9.7,33.4-19.4,50.1-29.1c4.3-2.5,8.6-5,13-7.4
		C326.1,403.2,325.6,404.1,324.8,404.8z"/>
	<path id="XMLID_1405_" class="st1" d="M339.1,175.4c-19.9,11.5-39.8,23-59.7,34.5c-1.1,0.6-2.2,1.1-3.3,1.7c-0.9,0.4-1-0.1-0.9-0.8
		c18.2-11.9,36.4-23.8,54.7-35.7c1.1-0.7,2.2-1.6,3.2-2.5C335.2,173.5,337.4,174,339.1,175.4z"/>
	<path id="XMLID_1404_" class="st1" d="M254,463c-3.3-0.4-6.5-1.1-9.5-2.4c0.4-1.8,2-2.5,3.3-3.3c5.2-3.3,10.5-6.5,15.6-10
		c1.4-0.9,2.8-1.4,4.3-1.8c4.7,0,9.3,0.1,13.9,0.8c-0.1,1-0.7,1.6-1.5,2C271.5,453.2,263.1,458.7,254,463z"/>
	<path id="XMLID_1403_" class="st1" d="M228.1,195.1c12.1-8.7,24.3-17.5,36.4-26.2c1.6-1.2,3.5-2,4.6-3.7c5.2-1.1,10.5-1.6,15.8-1.4
		c-0.8,0.8-1.8,1.1-2.8,1.3c-1.8-0.2-3.1,1-4.4,1.8c-1.5,0.6-2.9,1.4-3.9,2.7c-14,9-28.4,17.1-42.8,25.4c-0.6,0.4-1.3,0.7-2,1
		C228.1,196.2,227.9,195.8,228.1,195.1z"/>
	<path id="XMLID_1402_" class="st1" d="M318.1,143.5c3.2,0.7,6.5,1.3,9.5,2.7c-0.1,0.4-0.2,0.7-0.5,0.9
		c-7.4,4.9-14.4,10.4-22.6,14.1c-2.6,0.3-5.1-0.4-7.6-0.8c-1.2-1.4-3.9,0.4-4.5-2.2c5.6-4.4,12-7.4,18.1-11
		C312.8,145.8,315.2,144.1,318.1,143.5z"/>
	<path id="XMLID_1401_" class="st4" d="M362.2,471c-15.5,10.7-31,21.4-46.4,32c-3.3-0.2-6.6-0.4-9.9-0.6c12.8-7.5,25.6-15,38.4-22.5
		c5.8-3.4,11.5-6.8,17.2-10.3C362.1,469.9,362.6,470.2,362.2,471z"/>
	<path id="XMLID_1400_" class="st1" d="M160.4,233.1c-1.6,4.7-4.4,8.8-6.8,13.1c-6.9,5.6-14.5,10-22.8,13.1c0.8-3.5,1.5-7,3.3-10.2
		c2.5-2.9,6-4.4,9.1-6.4c5.3-3.4,10.6-6.8,16.2-9.8C159.8,232.8,160.1,232.9,160.4,233.1z"/>
	<path id="XMLID_1399_" class="st1" d="M165,283.6c17.4-10.1,34.9-20.1,52.3-30.2c0.8-0.4,0.9,0,0.8,0.7
		c-21.5,13.9-42.9,27.8-64.4,41.7c0-1.4,0.1-2.7,0.1-4.1c2.4-2.6,5.7-3.8,8.5-5.7C163.4,285.3,164.6,284.9,165,283.6z"/>
	<path id="XMLID_1398_" class="st1" d="M443.9,345.5c-0.9,3.4-1.6,7-3.4,10.1c-5.9,5-12.3,9.2-19.2,12.5c-4-3.4-2-6.9,0.1-10.3
		c6.4-4.8,13.7-8.1,20.4-12.3C442.3,345.2,443.1,345.1,443.9,345.5z"/>
	<path id="XMLID_1397_" class="st5" d="M285.1,139c-8,5.5-16.7,9.8-25,14.9c-7.8,4.7-15.9,8.7-23.4,13.9c-1.7,0.5-3.1,1.8-5,1.6
		c0.5-1.6,2-2.1,3.2-2.9c13.5-9.2,27-18.3,40.6-27.5C278.7,139,281.9,139,285.1,139z"/>
	<path id="XMLID_1396_" class="st1" d="M239.4,458.9c-2.8-0.5-5.5-1.4-7.9-2.9c0-0.3,0-0.6,0.2-0.7c6.3-5,13.1-9.5,20.5-12.8
		c3.7,0.4,7.4,1.1,11,2.2c-0.1,1.3-1.1,1.9-2.1,2.5c-6.3,3.6-12.5,7.3-18.8,10.9C241.3,458.6,240.3,458.8,239.4,458.9z"/>
	<path id="XMLID_1395_" class="st4" d="M446.5,427.5c-15.3,9.4-31,18.2-46.7,27c-0.8,0.3-0.9-0.1-0.8-0.8
		c14.9-10.3,29.8-20.5,44.8-30.8C444.7,424.5,445.6,426,446.5,427.5z"/>
	<path id="XMLID_1394_" class="st1" d="M319.6,164.2c-3.2-0.6-6.4-1.3-9.5-1.9c2.1-3,5.6-3.9,8.5-5.6c5-3,9.8-6.4,15.3-8.3
		c3,0.6,5.9,1.7,8.6,3.2c-0.6,1.6-2.1,2.1-3.4,2.9c-1.6,1.1-3.6,1.7-5,3.3c-0.3,0.2-0.5,0.4-0.8,0.5c-0.9,0.4-1.7,0.9-2.5,1.5
		c-1.8,1.3-3.6,2.6-5.8,3.3C323.4,163.7,321.4,163.6,319.6,164.2z"/>
	<path id="XMLID_1393_" class="st1" d="M447,331.5c-0.1,3.3-0.9,6.5-2.1,9.5c-6.4,5.2-13.7,9.1-20.5,13.5c-0.5,0.3-1.2,0.4-1.8,0.1
		c1.4-3.9,2.9-7.9,4.3-11.8c4-3.9,9.1-5.9,13.8-8.7C442.6,332.9,444.3,330.9,447,331.5z"/>
	<path id="XMLID_1392_" class="st6" d="M286,482.7c10.8-6.1,21.6-12.3,32.4-18.4c4.1-2.3,8.2-4.6,12.3-6.9c0.8-0.4,0.9,0.1,0.8,0.7
		c-17.3,11.5-34.5,23.1-51.8,34.6C281.2,489.1,283.7,485.9,286,482.7z"/>
	<path id="XMLID_1391_" class="st2" d="M402.9,337.5c-1.6-1.7-3.3-3.4-4.9-5.1c0.4-1.6,1.9-2.2,3.1-3c6-3.6,12.1-6.9,18.1-10.4
		c1.2-0.7,2.3-1.5,3.8-1.1c0.2,0.3,0.3,0.7,0.1,1.1c0,2.4-0.3,4.8-1,7.2c-0.8,1.8-2.9,2.2-4.1,3.6c-3.4,2.7-7.3,4.6-10.9,7.1
		C405.9,337.6,404.5,338.2,402.9,337.5z"/>
	<path id="XMLID_1390_" class="st1" d="M127.6,275.1c0-3.1,0.7-6,1.6-8.9c0.8-1.6,2.4-2.5,3.8-3.4c4.9-2.9,9.4-6.4,14.3-9.2
		c1.2-0.6,2.2-1.7,3.7-1.3c-1.4,4.1-2.8,8.3-4.2,12.4c-3.9,3.7-8.8,5.9-13.5,8.2c-1.1,0.2-2.2,0.5-3.2,1.3
		C129.3,274.7,128.7,275.8,127.6,275.1z"/>
	<path id="XMLID_1389_" class="st1" d="M227.9,454.5c-2.9-0.6-5.5-2-8-3.5c3.6-3.6,8.3-5.8,12.5-8.6c2.1-1.4,4.2-3.2,6.9-3.6
		c3.4,0.6,6.7,1.7,10,3c0.1,1.1-0.7,1.5-1.4,2c-5.8,3.6-11.8,6.8-17.7,10.3C229.4,454.4,228.6,454.5,227.9,454.5z"/>
	<path id="XMLID_1388_" class="st1" d="M324.5,162.2c2.3-0.4,4-2.1,5.9-3.2c1.1,0,1.7-0.8,2.3-1.4c0.4-0.1,0.8-0.1,1.2-0.2
		c1.4-1.4,3.3-2.1,5-3.2c1.7-0.6,2.9-2.1,4.8-2.5c2.6,1,5.2,1.9,7.6,3.5c0.1,1-0.6,1.6-1.4,2.1c-4.8,3-9.6,6.2-14.6,9.1
		c-1.5,0.9-3.1,0.7-4.7,0.8c-1.8-0.5-3.6-1-5.5-1.5C323.8,164.7,323.5,163.6,324.5,162.2z"/>
	<path id="XMLID_1387_" class="st1" d="M303,381.6c-8.3,5.8-17.1,10.8-25.8,15.8c-1.2,0.7-2.3,1.5-3.4,2.2
		c-6.5,5.1-13.9,8.6-20.9,12.8c-7.3,4.4-14.9,8.5-22.2,12.9c-1.1,0.7-2.3,1-3.4,1.2c-1-0.1-1.8-0.6-2.4-1.3
		c25-14.4,50.1-28.9,75.1-43.3c0.7-0.4,1.5-0.8,2.3-1.2C303,380.5,303,381,303,381.6z"/>
	<path id="XMLID_1386_" class="st1" d="M205.5,248.2c-16.8,11-33.3,22.5-50.8,32.4c-0.3-1.8,0.5-3.5,0.8-5.2c12.3-7,24.6-14,36.9-21
		c4.1-2.3,8.2-4.6,12.3-6.9C205.4,247,205.6,247.5,205.5,248.2z"/>
	<path id="XMLID_1385_" class="st7" d="M209.2,415.4c-2-1.2-3.9-2.6-5.5-4.4c0-1.5,1.2-2.1,2.2-2.7c6.3-3.8,12.5-7.8,18.8-11.7
		c1-0.6,2.1-1.5,3.4-0.7c0.8,1.3,0.1,2.5-0.5,3.5c-0.9,1.8-0.8,3.6-0.7,5.5c-3.2,3.8-8,5.2-11.8,7.9
		C213.4,414.1,211.6,415.6,209.2,415.4z"/>
	<path id="XMLID_1384_" class="st1" d="M449.1,319c-0.3,3-0.4,6-1.4,8.8c-0.8,1.7-2.5,2.4-3.9,3.3c-3.9,2.5-7.9,4.8-11.7,7.4
		c-1.3,0.9-2.6,2.1-4.4,1.5c0.9-3.5,1.9-7.1,2.8-10.6C436.2,325.2,442.2,321.3,449.1,319z"/>
	<path id="XMLID_1383_" class="st6" d="M400.6,419.8c10-6.4,19.5-13.5,29.7-19.5c0.8,1.5,1.7,3.1,2.5,4.6
		c-10.2,5.9-20.5,11.9-30.7,17.8c-1,0.6-1.9,1.3-3.1,1.1C398.5,422,399.3,420.8,400.6,419.8z"/>
	<path id="XMLID_1382_" class="st1" d="M132.6,272.3c3.9-1.6,7.4-3.8,10.9-6c1.1-0.7,2-1.4,3.3-1.6c-0.9,3.5-1.9,6.9-2.8,10.4
		c-5.5,4.1-11.2,7.9-17.9,10c0.1-2.9,0.3-5.7,1.3-8.5c0.9-0.9,1.7-1.9,2.9-2.6C131.1,273.5,132,273.1,132.6,272.3z"/>
	<path id="XMLID_1381_" class="st1" d="M228.1,396.1c-4.9,1.9-8.9,5.3-13.4,7.9c-3.7,2.2-7.3,4.7-11,7c-1.3-0.7-2.5-1.5-3.3-2.8
		c10-5,19.4-11,29.2-16.5c9-5.1,17.9-10.2,26.9-15.3c0.8-0.4,0.9,0,0.8,0.7c-8.7,5.5-17.4,11.1-26.1,16.6
		C231.1,395.8,229.8,396.2,228.1,396.1z"/>
	<path id="XMLID_1380_" class="st1" d="M344.3,172.3c-2.9-1.1-5.8-2.3-8.7-3.4c-0.1-1.1,0.7-1.5,1.4-2c5.2-3,10.5-6,15.7-9
		c0.9-0.5,1.8-0.7,2.8-0.6c2.7,0.8,5,2.2,7.3,3.7C357.1,165.6,351.1,169.7,344.3,172.3z"/>
	<path id="XMLID_1379_" class="st8" d="M422.2,285c1,2,0.7,4.3,1,6.4c0.2,1-0.4,1.7-1.1,2.1c-4.6,2.9-9.2,5.8-14,8.3
		c-0.3,0.2-0.7,0-1.1-0.1c-2.7-1.5-5.8-1.3-8.6-2.3c-0.9-1.4,0.3-2.1,1.1-2.6c6.7-4,13.4-7.9,20.2-11.7
		C420.5,284.9,421.4,284.5,422.2,285z"/>
	<path id="XMLID_1378_" class="st1" d="M214.1,447.8c-2.6-0.6-4.7-2.1-6.7-3.8c0-0.7,0.2-1.3,0.8-1.6c5.4-3.4,10.6-7.4,16.5-10.1
		c2.9,1.4,5.8,2.7,8.8,4.1c-1.7,2.7-4.6,3.6-7.2,5C222.2,443.6,218.6,446.6,214.1,447.8z"/>
	<path id="XMLID_1377_" class="st1" d="M449.9,303.9c0,3.1,0.5,6.2-0.4,9.3c-4.5,2.5-8.8,5.4-13.1,8.2c-1.5,1-3,2.3-5,2.1
		c0.5-3.3,1-6.6,1.5-9.9C438.1,309.5,443.4,305.7,449.9,303.9z"/>
	<path id="XMLID_1376_" class="st1" d="M340.5,246.8c15.4-9.7,30.9-19.5,46.3-29.3c1.2-0.8,2.4-1.7,3.6-2.6c0.8,1.1,1.7,2.2,2.5,3.3
		c-14.8,8.5-29.6,16.9-44.4,25.4c-2.4,1.4-4.8,2.6-7.2,4C340.5,248,340.4,247.5,340.5,246.8z"/>
	<path id="XMLID_1375_" class="st1" d="M143.5,278.5c-0.4,3.2-0.8,6.4-1.2,9.5c-4.8,4.5-11.1,6.8-16.6,10.4c0,0-0.2-0.1-0.2-0.1
		c0-0.1,0-0.2,0-0.4c-0.4-2.9-0.3-5.8,0.5-8.6C131.2,284.7,136.8,280.8,143.5,278.5z"/>
	<path id="XMLID_1374_" class="st1" d="M329.3,232.6c14.5-9.1,28.9-18.2,43.3-27.4c1.8-1.1,3.5-2.3,5.3-3.5c1.3,0.7,2.2,1.7,3,2.9
		c-10,5-19.5,11.1-29.3,16.6c-7.2,4-14.3,8.1-21.5,12.2C329.3,233.7,329.2,233.3,329.3,232.6z"/>
	<path id="XMLID_1373_" class="st1" d="M354.8,177c-2-0.3-3.6-1.5-5.3-2.4c-0.5-0.9-1.5-1.3-2.2-2.1c-0.1-0.4-0.1-0.8,0.2-1
		c5.7-3.2,11-7.1,17.2-9.4c2.6,1,4.8,2.6,7,4.2c-1.6,2.1-4.1,3.1-6.2,4.5c-1.5,0.9-2.9,1.7-4.5,2.3c-1.4,1.1-3.2,1.8-4.4,3.2
		C356.1,176.8,355.5,177,354.8,177z"/>
	<path id="XMLID_1372_" class="st1" d="M213.1,426.1c2.5,1.4,5,2.9,7.4,4.3c-5.4,4.5-11.5,7.9-18.1,10.6c-2.3-1.1-4.4-2.4-6.1-4.3
		c2.3-3.4,6.3-4.3,9.2-6.7c1.4-0.7,2.6-1.5,3.9-2.3C210.6,426.9,211.9,426.6,213.1,426.1z"/>
	<path id="XMLID_1371_" class="st9" d="M402.9,337.5c4.7-1.1,7.9-4.7,12.1-6.7c1-0.5,1.9-1.1,2.9-1.6c1.2-0.4,2.3-2.8,3.8-0.4
		c-0.6,2.6-1.2,5.3-1.8,7.9c-3.5,3.5-7.2,6.8-12.4,7.6C406,342,404.5,339.8,402.9,337.5z"/>
	<path id="XMLID_1370_" class="st10" d="M333.9,148.2c-7.6,5.3-15.8,9.6-23.8,14c-1.9-0.3-3.8-0.7-5.7-1c7.5-5.4,15.3-10.3,23.2-15
		C329.7,146.8,331.8,147.5,333.9,148.2z"/>
	<path id="XMLID_1369_" class="st1" d="M204.9,421.4c3.1,0.3,5,2.7,7.4,4.2c-0.3,1.6-1.9,1.4-2.8,2.1c-1.4,0.8-2.6,1.7-4,2.4
		c-3.5,1.8-6.4,4.7-10.5,5.6c-2.1-1.2-4-2.5-5.5-4.4c-0.1-1.7,1.7-1.8,2.4-2.8c0.6-0.6,1.2-1.1,2-1.3c1.4-0.1,2.3-1,3.2-1.9
		C199.6,423.8,201.6,421.2,204.9,421.4z"/>
	<path id="XMLID_1368_" class="st1" d="M212.2,319.4c-16.5,10.4-33,20.7-49.5,31.1c-0.9-0.9-1-2.2-1.3-3.3
		c15.9-9.1,31.8-18.2,47.7-27.3c0.8-0.4,1.5-0.8,2.3-1.2C212.2,318.3,212.3,318.7,212.2,319.4z"/>
	<path id="XMLID_1367_" class="st10" d="M214.1,447.8c6.1-4.3,12.8-7.6,19.3-11.4c2,0.8,3.9,1.6,5.9,2.4
		c-6.3,4.3-12.6,8.7-19.3,12.3C217.9,450,215.8,449.3,214.1,447.8z"/>
	<path id="XMLID_1366_" class="st1" d="M354.8,177c0.4-0.6,1-0.7,1.6-0.8c1.4-1.5,3.4-2.1,5-3.4c1.6-0.5,2.9-1.8,4.5-2.4
		c2.2-0.9,3.7-3.1,6.3-3.2c2.9,0.2,4.7,2.2,6.8,3.8c0.1,1.1-0.7,1.5-1.4,2c-3.8,2.6-7.8,4.9-11.8,7.3c-1.1,0.6-2.2,1.2-3.5,0.5
		l0.1,0.1c-1.2-0.9-2.3-2-4-1.7C357.1,178.4,355.6,178.2,354.8,177z"/>
	<path id="XMLID_1365_" class="st1" d="M422.2,285c-8.1,4.6-16.4,8.9-24.1,14.1c-1.7,1.6-4,2.2-6,3.3c-6.2,3.4-12.3,6.9-18.5,10.3
		c-0.8,0.4-0.9-0.1-0.8-0.7c16.3-10.3,32.5-20.6,48.8-31C422.5,282.3,422.2,283.7,422.2,285z"/>
	<path id="XMLID_1364_" class="st1" d="M204.9,421.4c-2.5,1.5-5,3-7.5,4.6c-1.3,0.2-2.2,1.4-3.5,1.5c-0.4,0.5-0.8,1.1-1.2,1.6
		c-1.6-0.2-2.6,1.2-4,1.4c-2.3-1-3.8-2.9-5.5-4.6c4.5-4.4,9.7-7.7,15.6-9.8C201,417.7,203.7,418.7,204.9,421.4z"/>
	<path id="XMLID_1363_" class="st1" d="M371.7,187.2c-2.4-1.6-4.9-3.2-7.3-4.8c1.7-2.7,4.6-3.5,7.1-5c3-1.8,5.9-4.1,9.5-4.8
		c2.3,1.1,4.2,2.7,6,4.5c-0.2,1.3-1.2,1.9-2.2,2.4C380.4,181.9,376.4,185.2,371.7,187.2z"/>
	<path id="XMLID_1362_" class="st11" d="M303.7,141c-10.2,6-20.5,12-30.7,18c-0.7,0.4-1.4,0.9-2.1,1.4c-1,0.1-2,0.2-3,0.2
		c-0.7,0.2-1.3,0.3-1.9-0.2c10.4-7,20.7-14.1,31.5-20.4C299.6,140.3,301.8,140,303.7,141z"/>
	<path id="XMLID_1361_" class="st1" d="M433.5,308.4c0.1-2.9,0.1-5.8,0.2-8.6c0.6-1.1,1.5-1.8,2.6-2.3c4.3-2.8,8.6-5.4,13.2-7.6
		c0.9,2.8,0.4,5.6,0.4,8.4C444.9,302.4,439.8,306.5,433.5,308.4z"/>
	<path id="XMLID_1360_" class="st12" d="M227.1,426.7c10.8-7,22.2-12.9,33.2-19.5c4.4-2.6,8.9-5,13.4-7.5c0.8,0.7,0.1,1.1-0.4,1.4
		c-14.2,9.1-28.3,18.2-42.5,27.3C229.6,427.8,228.4,427.2,227.1,426.7z"/>
	<path id="XMLID_1359_" class="st1" d="M141.8,289.6c0.7,3-0.3,6-0.2,9c-0.5,1.2-1.6,1.5-2.5,2.3c-0.2,0.2-0.5,0.4-0.8,0.5
		c-0.8,0.4-1.7,0.8-2.5,1.4c-0.9,0.7-1.9,1.2-2.9,1.7c-1.7,0.7-3,1.9-4.7,2.7c-0.8,0.3-1.5,0.8-2.4,0.4c-0.9-2.6-0.7-5.3-0.4-7.9
		C130.7,295.9,136.1,292.5,141.8,289.6z"/>
	<path id="XMLID_1358_" class="st1" d="M191.1,409.6c2.3,1.3,4,3.4,6,5.1c-4.6,4.3-10.3,6.9-16,9.6c-1.8-1.5-3.7-3.1-5-5.1
		c-0.1-0.5,0.1-1,0.5-1.3C181.4,415,185.6,411.2,191.1,409.6z"/>
	<path id="XMLID_1357_" class="st1" d="M433.6,298.3c0-2.7-0.1-5.4-0.1-8.1c1-2.7,3.8-3.4,5.9-4.9c1.4-0.4,2.8-0.9,3.8-2.2
		c0.4-0.3,0.9-0.4,1.4-0.6c1.4-0.1,2.5-1.3,4-0.8c1.1,2.3,0.7,4.7,0.7,7.1c-1.9,2.8-5.2,3.7-7.8,5.5c-1.6,1.1-3.4,2.1-5,3.2
		C435.4,297.6,434.8,298.9,433.6,298.3z"/>
	<path id="XMLID_1356_" class="st9" d="M405.7,237.5c-4.1,2.6-8.2,5.1-12.3,7.7c-1,0.6-2,1.6-3.3,1.5c0.1-2.4-0.4-4.1-3.4-3.1
		c-0.9,0.3-1.9,0.3-2.8-0.4c-0.2-0.3-0.3-0.7-0.2-1c0.7-1.5,2-2.1,3.3-2.8c4-2.2,7.9-4.6,11.9-6.7c1-0.5,1.9-1.7,3.3-0.9
		C403.7,233.5,404.9,235.4,405.7,237.5z"/>
	<path id="XMLID_1355_" class="st1" d="M381.7,193.6c-2.4,0.1-3.5-1.9-5.1-3.1c-1.1-1.2-0.2-2.2,0.7-2.7c4.5-2.7,8.8-5.9,13.8-7.6
		c1.9,1.7,3.8,3.3,5.6,5c-3.7,4-8.6,6.2-13.2,8.8C382.9,194.3,382.3,194,381.7,193.6z"/>
	<path id="XMLID_1354_" class="st1" d="M156.8,329.2c14.2-8.1,28.3-16.2,42.5-24.4c0.8-0.4,1.5-0.8,2.3-1.2c0.8-0.4,1,0.1,0.9,0.8
		c-15,9.5-29.9,18.9-44.9,28.4C157,331.7,156.6,330.5,156.8,329.2z"/>
	<path id="XMLID_1353_" class="st1" d="M138,300.7c0.3,0,0.6,0,0.8,0c0.8-0.7,1.7-1,2.8-0.6c0,2.7,0,5.4,0.1,8
		c-4.6,3.6-9.2,7.1-15,8.5c-1.2-2.4-0.6-5-0.6-7.5c0.6-1,1.6-1.6,2.7-2.1c1.6-0.8,2.9-2,4.5-2.8c0.9-0.7,1.9-1,2.8-1.6
		C136.9,302.2,137.5,301.6,138,300.7z"/>
	<path id="XMLID_1352_" class="st5" d="M151.1,252.3c-7.3,4.6-14.6,9.2-21.9,13.9c0.6-2.3,1.1-4.6,1.7-6.9
		c7.6-4.4,15.2-8.7,22.8-13.1C152.8,248.2,151.9,250.3,151.1,252.3z"/>
	<path id="XMLID_1351_" class="st1" d="M166.3,408.5c-1.5-1.8-3.4-3.3-4.3-5.6c4-4.1,8.7-7.2,14.3-8.8c1.8,1.7,3.6,3.5,5,5.6
		C176.8,403.6,171.8,406.4,166.3,408.5z"/>
	<path id="XMLID_1350_" class="st1" d="M183.3,402c1.8,1.7,3.5,3.5,5.3,5.2c0.1,0.9-0.5,1.5-1.1,1.8c-4.7,2.5-8.7,6.1-14.1,7.3
		c-2-1.3-3.5-3.1-4.6-5.2C173,407.2,177.8,404.1,183.3,402z"/>
	<path id="XMLID_1349_" class="st1" d="M128.1,326.7c-0.7-2.4-1.2-4.9-1.2-7.5c4.2-4.3,9.4-7.1,15-9.4c1,2.7,0.6,5.4,0.7,8.2
		C138.3,321.9,133.4,324.6,128.1,326.7z"/>
	<path id="XMLID_1348_" class="st1" d="M389.3,201c-1.6-1.5-3.3-3-4.9-4.4c0.3-1.9,2.1-2.3,3.4-3.1c3.7-2.2,7.1-4.8,11.4-5.9
		c2,1.4,3.7,3.2,5.2,5.1c0.3,1.7-1.3,2-2.2,2.6c-3.2,2-6.5,3.7-9.7,5.7C391.4,201.5,390.4,201.9,389.3,201z"/>
	<path id="XMLID_1347_" class="st1" d="M444.9,283.5c-0.6,0-1.2,0.1-1.8,0.1c-0.8,1.2-2.2,1.6-3.5,2c-1.5,2.2-4.3,2.8-6.1,4.6
		c-0.9-2.7-0.8-5.6-0.7-8.4c4.2-4,9.2-6.6,14.5-8.7c0.6,2.4,1.5,4.8,1.2,7.3C447.8,282.1,445.6,282,444.9,283.5z"/>
	<path id="XMLID_1346_" class="st13" d="M254,463c1.8-2.4,4.7-3.2,7.1-4.6c6.8-4.1,13.7-8.1,20.6-12.1c1.7,0,3.4,0,5.1,0
		c-7.4,5.5-15.4,10-23,15.1c-1.3,0.9-2.6,1.9-3.9,2.8C257.9,463.8,256,463.4,254,463z"/>
	<path id="XMLID_1345_" class="st1" d="M389.3,201c4.4-1.1,7.6-4.5,11.7-6.2c1.2-0.5,2.2-1.4,3.3-2.2c1.9,1.6,3.7,3.2,5,5.3
		c-4.2,3.7-8.7,6.9-14.2,8.5C393.2,204.6,391.2,202.8,389.3,201z"/>
	<path id="XMLID_1344_" class="st1" d="M133.5,348.8c-1.3-2.1-1.6-4.5-2.1-6.8c4.1-3.8,8.6-7,14.1-8.4c1.2,2.2,1.4,4.7,2.1,7
		c-0.6,1.6-2,2.5-3.4,3.2c-2.7,1.4-5.4,2.9-8,4.6C135.4,348.9,134.5,349.6,133.5,348.8z"/>
	<path id="XMLID_1343_" class="st1" d="M130.6,338.4c-0.9-2.2-1.6-4.4-1.5-6.9c4.2-3.9,8.9-6.9,14.3-8.9c0.8,2.6,1.5,5.2,1.4,8
		C140.5,334,136.2,337.5,130.6,338.4z"/>
	<path id="XMLID_1342_" class="st1" d="M158.6,398.8c-1.5-2-3.2-3.8-4.1-6.2c1.9-2.8,5-3.9,7.7-5.6c2-1.2,3.8-2.9,6.1-3.5
		c1.6,2.1,3.1,4.3,4.7,6.4C168.8,393.8,163.6,396.1,158.6,398.8z"/>
	<path id="XMLID_1341_" class="st12" d="M431.4,323.4c5-3.2,10-6.5,15.1-9.6c0.8-0.5,1.6-2.4,3-0.7c-0.1,1.9-0.3,3.9-0.4,5.8
		c-6.2,3.5-12.1,7.7-18.7,10.5C430.7,327.4,431.1,325.4,431.4,323.4z"/>
	<path id="XMLID_1340_" class="st1" d="M445.1,263.3c0.6,2.5,1.2,4.9,1.8,7.4c-4.4,3.8-9,7.2-14.7,8.9c-0.5-2.5-0.9-5.1-1.4-7.6
		C435,268.3,440,265.7,445.1,263.3z"/>
	<path id="XMLID_1339_" class="st1" d="M282.7,417.9c-9.7,6.3-19.6,12.1-28.8,19c-1.9-0.5-4-0.7-5.7-1.8
		c11.5-6.6,22.9-13.2,34.4-19.8C283.5,416.1,283.4,417,282.7,417.9z"/>
	<path id="XMLID_1338_" class="st1" d="M162.9,375.2c1.4,2.1,2.8,4.3,4.2,6.4c-4.2,3.7-9.1,6.3-14.3,8.3c-1.5-1.8-2.8-3.7-3.6-6
		C153.1,380,157.8,377.3,162.9,375.2z"/>
	<path id="XMLID_1337_" class="st1" d="M430.2,269.1c-0.9-2.4-1.8-4.9-1.9-7.5c0.8-2.3,3.1-2.8,4.9-3.7c2.9-1.6,5.5-3.8,8.9-4.4
		c1.2,2.1,1.9,4.4,2,6.8C440.1,264.2,435.4,267,430.2,269.1z"/>
	<path id="XMLID_1336_" class="st1" d="M401.9,213.9c-1.9-1.5-3.6-3.4-5-5.4c0.7-2.1,2.7-2.5,4.3-3.3c3.3-1.8,6.1-4.3,9.9-5
		c1.9,1.4,3.3,3.2,4.4,5.2C411.8,209.4,407.2,212.2,401.9,213.9z"/>
	<path id="XMLID_1335_" class="st1" d="M133.5,348.8c4.7-2.7,9.4-5.5,14.1-8.2c0.7,2.3,1.5,4.6,2.2,6.9c-4,3.8-8.7,6.5-14.1,8
		C134.6,353.4,133.8,351.2,133.5,348.8z"/>
	<path id="XMLID_1334_" class="st1" d="M150.7,350.1c1,2.2,1.9,4.5,2.9,6.7c-4.2,3.4-8.7,6.5-14.1,7.8c-1.4-1.9-2-4.1-2.7-6.2
		C140.8,354.7,145.2,351.5,150.7,350.1z"/>
	<path id="XMLID_1333_" class="st1" d="M143.2,372.8c-1.4-1.8-2.3-3.9-2.9-6.1c3.9-3.9,8.6-6.6,13.6-8.7c1.1,2.3,2.3,4.6,3.4,6.9
		C153.1,368.4,148.5,371.3,143.2,372.8z"/>
	<path id="XMLID_1332_" class="st1" d="M407.3,220.8c-1.5-1.8-2.9-3.7-4.4-5.5c0.7-2.2,2.9-2.5,4.6-3.4c3.1-1.7,5.8-4.2,9.5-4.8
		c1.4,1.9,2.9,3.8,4.3,5.6C417.1,216.2,412.8,219.5,407.3,220.8z"/>
	<path id="XMLID_1331_" class="st1" d="M147.1,380.5c-1.3-1.8-2.5-3.7-3-5.9c3.9-4,8.8-6.3,13.7-8.6c1.3,2.1,2.8,4.2,3.5,6.6
		C157.1,376.3,152.6,379.2,147.1,380.5z"/>
	<path id="XMLID_1330_" class="st1" d="M427.2,258.7c-0.9-2.4-1.8-4.9-2.6-7.3c4-3.6,8.7-6.1,13.6-8.1c1.2,2.1,2.2,4.3,2.7,6.6
		C437,253.9,432.2,256.5,427.2,258.7z"/>
	<path id="XMLID_1329_" class="st1" d="M422.7,246.8c-1.1-2.3-2.2-4.6-3.3-6.9c3.9-3.7,8.6-6.1,13.6-8c1.5,1.9,2.4,4.2,3.2,6.4
		C432.1,242,427.6,244.7,422.7,246.8z"/>
	<path id="XMLID_1328_" class="st1" d="M422.3,214.4c1.6,1.6,2.8,3.4,3.7,5.5c-3.8,3.9-8.2,6.8-13.4,8.3c-1.4-2-2.8-4-4.3-6
		C412.5,218.7,416.9,215.6,422.3,214.4z"/>
	<path id="XMLID_1327_" class="st7" d="M185.8,363.8c-4.5,2.7-9.1,5.5-13.6,8.2c-1-1.9-2-3.8-3-5.7c0-0.7,0.1-1.3,0.7-1.6
		c5-3.1,9.5-7,15.2-8.8c0.6,0.1,1,0.4,1.1,0.9C184.8,359,183.7,361.3,185.8,363.8z"/>
	<path id="XMLID_1326_" class="st14" d="M367.4,482.1c-9.7,6.6-19.4,13.2-29,19.9c-2.3,1.6-4.8,1-7.2,1.4c-0.7-0.1-1.5-0.1-2.2-0.2
		c12.3-7.7,25-14.7,37.6-21.9C367.4,481.1,367.6,481.5,367.4,482.1z"/>
	<path id="XMLID_1325_" class="st1" d="M418.1,237.7c-1.3-2.2-2.6-4.4-3.8-6.6c4-3.6,8.5-6.4,13.8-7.7c1.4,1.8,2.7,3.6,3.2,5.8
		C427.6,233.1,423,235.6,418.1,237.7z"/>
	<path id="XMLID_1324_" class="st15" d="M312.6,426c-2.3,5-6,8.9-9.2,13.3c-0.8,1.1-1.9,1-3,1.1c-3.6,0.2-7.1,0.9-10.7,0.5
		c-0.3-1.3,0.8-1.8,1.5-2.3c6.2-4.2,12.3-8.4,18.7-12.2C310.8,425.8,311.6,425.1,312.6,426z"/>
	<path id="XMLID_1323_" class="st1" d="M438.7,360.7c-1,3.7-2.4,7.3-4.4,10.6c-0.9,1.1-2.1,2-3.3,2.8c-1,0.6-1.7,1.4-2.6,2.2
		c-0.6,0.4-1.1,0.7-1.9,0.3c-1.7-2.1-3.1-4.3-4.2-6.8C427.3,366,432.4,362.2,438.7,360.7z"/>
	<path id="XMLID_1322_" class="st16" d="M175,212.3c-10.1,6.6-20.3,13.1-30.4,19.7c-1.3,0.9-2.5,2.2-4.3,2c0.8-1.7,1.6-3.4,2.4-5.1
		c9.9-5.7,19.9-11.4,29.8-17.1c1.2-0.7,2.2-1.7,3.7-1.7C176.3,211.1,175.7,211.7,175,212.3z"/>
	<path id="XMLID_1321_" class="st1" d="M290.2,453.8c1.4-0.5,2.7-1,4.1-1.4c-1.7,4.9-4.9,8.8-7.7,13.1c-0.4,0.7-1.2,1.3-2.2,1.2
		c-3.8-0.3-7.7,0.5-11.5-0.7c1.8-3,5.1-4,7.9-5.7c1.3-0.8,2.5-1.7,3.8-2.4c1.2-0.6,2.1-1.6,3.2-2.3
		C288.8,455.2,289.6,454.5,290.2,453.8z"/>
	<path id="XMLID_1320_" class="st13" d="M239.4,458.9c7.9-4.7,15.8-9.4,23.7-14.2c1.6,0,3.2-0.1,4.8,0.7c-7.8,5-15.5,10.1-23.3,15.1
		C242.8,460,241.1,459.5,239.4,458.9z"/>
	<path id="XMLID_1319_" class="st5" d="M202.5,440.9c5.8-3.9,11.9-7.3,18.1-10.6c1.3,0.7,2.7,1.3,4,2c-3.9,3.8-8.9,5.9-13.2,8.9
		c-1.3,0.9-2.7,1.8-4,2.7C205.7,443,204.1,442,202.5,440.9z"/>
	<path id="XMLID_1318_" class="st17" d="M188.2,395.3c15-8.5,30-17.1,45-25.6c0.2,0.3,0.3,0.6,0.5,0.8c-6,3.7-12,7.5-18,11.1
		c-8.6,5.3-17.2,10.5-25.7,15.8C189.4,396.8,188.8,396,188.2,395.3z"/>
	<path id="XMLID_1317_" class="st1" d="M314.9,167c-11.1,6.3-22.1,12.6-33.2,18.9c-1.1,0.6-2.2,1.2-3.3,1.7c-0.8,0.3-1-0.1-0.9-0.8
		c9.3-6.1,18.7-12.2,28-18.3c1.2-0.8,2.3-1.8,3.5-2.7C311.1,165.7,313,166.4,314.9,167z"/>
	<path id="XMLID_1316_" class="st1" d="M178,382.1c11-5.6,21.4-12.2,32.1-18.2c2.4-1.3,4.8-2.6,7.2-3.9c0.8-0.4,0.9,0,0.9,0.7
		c-11.9,7.5-23.8,15-35.7,22.5c-0.8,0.5-1.6,1.1-2.4,1.7C179.4,383.9,178.7,383,178,382.1z"/>
	<path id="XMLID_1315_" class="st1" d="M320.3,210.1c11.6-7.3,23.2-14.6,34.8-22c1-0.7,2-1.5,3-2.2c1.3,0.3,2.3,1.2,3.3,2.1
		c-11.6,6.6-23.1,13.2-34.7,19.7c-1.8,1-3.7,2-5.6,3C320.3,211.2,320.2,210.7,320.3,210.1z"/>
	<path id="XMLID_1314_" class="st11" d="M158.6,398.8c4.2-3.9,9.5-6.1,14.4-8.8c1.1,1.4,2.2,2.8,3.2,4.2c-4.8,2.9-9.6,5.9-14.3,8.8
		C160.8,401.5,159.7,400.1,158.6,398.8z"/>
	<path id="XMLID_1313_" class="st1" d="M402.3,231.7c-6.1,3.6-12.2,7.1-18.3,10.7c-0.6,1-1.6,1.6-2.6,2.1c-1,0.8-2.2,1.3-3.5,1.4
		c-4.7,2.6-9.3,5.1-14,7.7c-0.8,0.4-0.9,0-0.9-0.7c11.3-7.1,22.6-14.2,33.9-21.3c1.3-0.8,2.5-1.7,3.7-2.6
		C401.5,229.7,402,230.6,402.3,231.7z"/>
	<path id="XMLID_1312_" class="st1" d="M394.9,330c9.6-6.3,19.2-12.6,28.8-18.8c0,1.2,0,2.5,0,3.7c-0.4,0.6-0.8,1.2-1.4,1.6
		c-8.3,5.2-16.3,10.7-25.1,15.1C396.1,331.5,395.5,330.7,394.9,330z"/>
	<path id="XMLID_1311_" class="st1" d="M373.6,271.6c12.5-7.8,25-15.7,37.5-23.5c0.8,0.7,1,1.7,1.3,2.7
		c-11.4,6.6-22.9,13.2-34.3,19.7c-1.2,0.7-2.4,1.3-3.6,1.9C373.6,272.7,373.4,272.3,373.6,271.6z"/>
	<path id="XMLID_1310_" class="st5" d="M433.5,308.4c5.5-3.4,11-6.7,16.5-10.1c0,1.9,0,3.7,0,5.6c-5.7,3.2-11.4,6.4-17,9.6
		C433.1,311.8,433.3,310.1,433.5,308.4z"/>
	<path id="XMLID_1309_" class="st18" d="M391.1,180.2c-3.6,3.2-8.2,4.9-12.2,7.6c-1,0.7-2.8,0.8-2.3,2.8c-1.6-1.1-3.3-2.2-4.9-3.3
		c4.6-4.2,10.2-6.7,15.3-10.2C388.3,178.1,389.7,179.1,391.1,180.2z"/>
	<path id="XMLID_1308_" class="st1" d="M185.2,356.2c-5.5,3.2-11,6.3-16,10.1c-0.7-0.9-1.2-1.9-1.3-3.1
		c11.7-6.7,23.5-13.4,35.2-20.1c0.7-0.4,1.5-0.8,2.3-1.2c0.8-0.3,1,0.1,0.8,0.8c-6,3.8-11.9,7.6-17.9,11.4
		C187.8,355.6,186.5,356,185.2,356.2z"/>
	<path id="XMLID_1307_" class="st5" d="M422.7,246.8c4.2-3.2,8.7-6,13.5-8.4c0.7,1.6,1.4,3.3,2.1,4.9c-4.2,3.3-8.9,5.7-13.6,8.1
		C423.9,249.8,423.3,248.3,422.7,246.8z"/>
	<path id="XMLID_1306_" class="st19" d="M154.5,208.9c8.2-4.6,16.4-9.3,24.6-13.9c0.8-0.3,1,0.1,0.8,0.8
		c-9.2,6.3-18.3,12.5-27.5,18.8c-0.5,0.3-1.1,0.4-1.7,0.7C151.5,212.8,153,210.8,154.5,208.9z"/>
	<path id="XMLID_1305_" class="st5" d="M143.3,322.6c-4.8,3-9.5,6-14.3,8.9c-0.3-1.6-0.7-3.2-1-4.8c4.5-3.5,9.6-5.9,14.5-8.7
		C143.2,319.5,143.3,321,143.3,322.6z"/>
	<path id="XMLID_1304_" class="st16" d="M422.5,354.6c6.4-4,12.7-8.1,19.1-12.1c1-0.6,1.8-1.7,3.2-1.6c-0.3,1.5-0.7,3-1,4.5
		c-6.2,3.6-12.4,7.1-18.6,10.6c-1.3,0.7-2.4,1.8-4,1.7C421.7,356.8,422.1,355.7,422.5,354.6z"/>
	<path id="XMLID_1303_" class="st20" d="M355.5,157.3c-6.6,3.9-13.3,7.7-19.9,11.6c-1.7-0.4-3.4-0.8-4.9-1.7
		c7.5-2.8,13.8-7.8,20.6-12C352.7,155.9,354.1,156.6,355.5,157.3z"/>
	<path id="XMLID_1302_" class="st21" d="M452.2,436.9c-9.2,5.2-18.3,10.3-27.5,15.5c-0.8,0.2-0.9-0.1-0.9-0.8
		c8.1-5.6,16.2-11.1,24.4-16.7c0.7-0.5,1.6-0.7,2.3-1.1C451.1,434.9,451.6,435.9,452.2,436.9z"/>
	<path id="XMLID_1301_" class="st1" d="M312.6,426c-3.4,0.8-5.8,3.2-8.5,5c-4.9,3.2-9.6,6.5-14.4,9.8c-2.1,0-4.2,0-6.4,0
		c10.3-5.9,20.3-12.2,30.8-17.6C314.6,424.7,313.1,425,312.6,426z"/>
	<path id="XMLID_1300_" class="st1" d="M185.2,287.2c-10.5,6.6-20.9,13.1-31.4,19.7c0-1.1,0-2.1-0.1-3.2
		c10.2-5.8,20.4-11.5,30.6-17.3C185.3,286.1,185.4,286.5,185.2,287.2z"/>
	<path id="XMLID_1299_" class="st1" d="M179.4,216.7c2.9-0.1,4.9-2.2,7.3-3.5c4.3-2.3,8.5-4.7,12.7-7.1c0.8-0.3,1,0.1,0.9,0.8
		c-6.4,4.6-12.8,9.1-19.2,13.7c-1,0.2-1.8,0.7-2.4,1.5c-1.2-0.7-1.7,1.8-3,0.7C175.7,220,177.9,218.6,179.4,216.7z"/>
	<path id="XMLID_1298_" class="st22" d="M318.1,143.5c-8.2,5.5-16.9,10-25.4,14.9c-0.5,0.6-0.8,1.4-1.8,1.4c-1,0-2,0-2.9,0
		c8.7-5.7,17.5-11.4,26.2-17.1C315.4,142.9,316.7,143.2,318.1,143.5z"/>
	<path id="XMLID_1297_" class="st23" d="M349.3,503.8c8.2-5.6,16.9-10.2,25.6-15c0.9-0.3,1,0.1,0.9,0.9c-6.7,4.7-13.4,9.4-20,14.1
		C353.6,503.9,351.4,503.8,349.3,503.8z"/>
	<path id="XMLID_1296_" class="st24" d="M143.5,278.5c-5.8,3.6-11.6,7.2-17.4,10.8c0-1.4,0.1-2.9,0.1-4.3c6-3.3,11.7-7.1,17.9-10
		C143.9,276.3,143.7,277.4,143.5,278.5z"/>
	<path id="XMLID_1295_" class="st19" d="M227.9,454.5c7.1-4.3,14.2-8.5,21.3-12.8c1,0.3,1.9,0.5,2.9,0.8c-6.9,4.5-13.8,9-20.7,13.5
		C230.1,455.8,228.9,455.3,227.9,454.5z"/>
	<path id="XMLID_1294_" class="st1" d="M401.5,387.9c5.2-3.4,10.3-6.8,15.5-10.3c1.1,0.9,1.7,2.2,2.2,3.4
		c-5.9,3.5-11.9,6.9-17.8,10.4C400.2,390.2,400.1,389,401.5,387.9z"/>
	<path id="XMLID_1293_" class="st25" d="M438.7,360.7c-5.5,3-10.9,6.1-16.4,9.1c-0.4-0.6-0.7-1.1-1.1-1.7c6-4.7,12.6-8.6,19.2-12.5
		C439.8,357.3,439.3,359,438.7,360.7z"/>
	<path id="XMLID_1292_" class="st26" d="M173.3,416.3c5.1-3,10.1-6.1,15.2-9.1c0.9,0.8,1.7,1.6,2.6,2.4c-5,3.2-10,6.4-15,9.6
		C175.2,418.3,174.3,417.3,173.3,416.3z"/>
	<path id="XMLID_1291_" class="st16" d="M183.3,402c-4.6,3.4-9.6,6.3-14.6,9.2c-0.8-0.9-1.6-1.8-2.4-2.6c4.7-3.5,9.8-6.1,15-8.9
		C181.9,400.5,182.6,401.2,183.3,402z"/>
	<path id="XMLID_1290_" class="st27" d="M396.8,345c-5.7,3.3-11.5,6.5-17.2,9.8c-0.8,0.3-1-0.1-0.8-0.8c5-4.3,10-8.6,15-12.9
		C395.1,342.1,396,343.5,396.8,345z"/>
	<path id="XMLID_1289_" class="st25" d="M147.1,380.5c4.7-2.6,9.4-5.3,14.2-7.9c0.6,0.9,1.1,1.7,1.7,2.6c-4.3,3.4-9.1,5.9-13.7,8.8
		C148.5,382.8,147.8,381.7,147.1,380.5z"/>
	<path id="XMLID_1288_" class="st25" d="M428.1,223.3c-4.6,2.6-9.2,5.1-13.8,7.7c-0.6-1-1.2-2-1.8-2.9c4.5-2.8,8.9-5.5,13.4-8.3
		C426.7,221,427.4,222.2,428.1,223.3z"/>
	<path id="XMLID_1287_" class="st19" d="M399.1,187.5c-4.9,3-9.8,6-14.8,9c-1-0.9-2.7-1-2.6-2.9c4.3-1.1,7.4-4.3,11.2-6.2
		c1.3-0.7,2.6-1.4,3.8-2.2C397.5,186,398.3,186.7,399.1,187.5z"/>
	<path id="XMLID_1286_" class="st25" d="M427.2,258.7c4.2-3.5,9-5.9,13.6-8.8c0.4,1.2,0.8,2.3,1.2,3.5c-4.6,2.7-9.2,5.5-13.7,8.2
		C428,260.6,427.6,259.7,427.2,258.7z"/>
	<path id="XMLID_1285_" class="st26" d="M430.2,269.1c4.3-3.5,9.1-6,13.8-8.9c0.4,1,0.7,2.1,1.1,3.1c-4.3,3.8-9.5,6-14.4,8.7
		C430.6,271.1,430.4,270.1,430.2,269.1z"/>
	<path id="XMLID_1284_" class="st28" d="M427.6,340c6.7-4.1,13.4-8.2,20.1-12.2c0.2,1.3-0.4,2.5-0.7,3.7
		c-6.7,3.8-13.4,7.6-20.2,11.3C427.1,341.9,427.3,341,427.6,340z"/>
	<path id="XMLID_1283_" class="st29" d="M418.4,342c-1.2,4.3-2.4,8.6-5,12.5c-2-2.1-2.9-4.9-4.2-7.3
		C411.3,343.7,414.2,341.7,418.4,342z"/>
	<path id="XMLID_1282_" class="st30" d="M159.7,233.2c-8.5,5.4-16.7,11.1-25.5,15.9c0.3-1.1,0.7-2.2,1-3.3c7.9-4.5,15.8-9,23.7-13.4
		C159.7,232,159.8,232.5,159.7,233.2z"/>
	<path id="XMLID_1281_" class="st31" d="M152.8,390c4.5-3.2,9.3-5.9,14.3-8.3c0.4,0.6,0.9,1.2,1.3,1.8c-4,4-9.1,6.2-13.8,9.1
		C153.9,391.7,153.4,390.9,152.8,390z"/>
	<path id="XMLID_1280_" class="st1" d="M183.7,239.9c-8,5.2-15.9,10.4-23.9,15.7c0.5-1.5,1-2.9,1.5-4.4c7.2-4,14.4-8,21.6-12
		C183.7,238.8,183.8,239.2,183.7,239.9z"/>
	<path id="XMLID_1279_" class="st31" d="M130.6,338.4c4.7-2.6,9.5-5.2,14.2-7.8c0.6,0.9,0.8,1.9,0.8,3c-4.7,2.8-9.4,5.6-14.1,8.4
		C131.1,340.8,130.8,339.6,130.6,338.4z"/>
	<path id="XMLID_1278_" class="st26" d="M417.8,266.1c-5.7,4.4-12.3,7.2-18.3,11.1c-2.7,1.7-5.6,3.2-8.3,4.8
		c-0.7,0.4-1.2,0.9-1.9,0.1c0.2-1.1,1.2-1.5,2-2.1c1.5-1,3.1-1.9,4.6-2.8c1.3-1,2.7-1.8,4.1-2.7c0.2,0,0.4,0,0.5,0
		c1.2-0.9,2.3-1.9,3.7-2.5c1.3-0.5,2.4-1.7,3.9-2c0.2-0.4,0.5-0.8,0.7-1.3c1.9-0.7,3.5-1.9,5.2-2.9c1.2-0.6,2.1-2,3.7-1.2
		C417.7,265.1,417.7,265.6,417.8,266.1z"/>
	<path id="XMLID_1277_" class="st24" d="M397.2,331.6c8.3-5.3,16.7-10.6,25-16c1.6,0.5,1.3,1.4,0.5,2.4c-8.2,4.8-16.5,9.6-24.7,14.4
		C397.8,332.1,397.5,331.8,397.2,331.6z"/>
	<path id="XMLID_1276_" class="st24" d="M418.1,237.7c4-3.5,8.7-5.8,13.2-8.5c0.5,0.9,1.1,1.8,1.6,2.7c-4.3,3.1-8.9,5.6-13.6,8
		C418.9,239.2,418.5,238.4,418.1,237.7z"/>
	<path id="XMLID_1275_" class="st32" d="M457.4,445.3c-6.4,3.6-12.9,7.2-19.3,10.7c-0.8,0.4-0.9-0.1-0.8-0.7
		c6.2-4.3,12.3-8.6,18.5-12.9C456.3,443.4,456.9,444.4,457.4,445.3z"/>
	<path id="XMLID_1274_" class="st33" d="M411.2,200.2c-4.7,2.8-9.5,5.5-14.2,8.3c-0.6-0.7-1.2-1.4-1.8-2.1c4.7-2.8,9.5-5.7,14.2-8.5
		C410,198.7,410.6,199.4,411.2,200.2z"/>
	<path id="XMLID_1273_" class="st34" d="M150.7,350.1c-4.7,2.8-9.3,5.5-14,8.3c-0.3-1-0.6-2-0.9-3c4.7-2.7,9.4-5.4,14.1-8.1
		C150.1,348.3,150.4,349.2,150.7,350.1z"/>
	<path id="XMLID_1272_" class="st35" d="M181.2,424.3c4.9-3.9,10.6-6.5,16-9.6c0.6,0.5,1.1,1,1.7,1.5c-5.2,3.3-10.4,6.5-15.6,9.8
		C182.5,425.4,181.8,424.8,181.2,424.3z"/>
	<path id="XMLID_1271_" class="st36" d="M364.7,162.1c-5.3,3.8-11.1,6.7-16.7,9.9c-0.1,0.1-0.2,0.2-0.2,0.3c0,0.1,0.1,0.2,0.2,0.3
		c0.1,0.7,0,1.2-0.9,0.8c-0.9-0.3-1.9-0.7-2.8-1c6.1-3.9,12.1-8,18.6-11.3C363.5,161.4,364.1,161.7,364.7,162.1z"/>
	<path id="XMLID_1270_" class="st23" d="M476.5,475.1c-3.6,3.7-8.5,5.4-12.9,8c-0.8,0.2-1.1-0.2-0.9-0.9c3.9-3.5,7.6-7.1,11.9-10
		C475.3,473.2,475.9,474.1,476.5,475.1z"/>
	<path id="XMLID_1269_" class="st28" d="M432.2,279.7c4.9-3,9.8-6,14.7-8.9c0.1,0.8,0.3,1.6,0.4,2.4c-4.5,3.5-9.6,5.9-14.5,8.7
		C432.6,281.1,432.4,280.4,432.2,279.7z"/>
	<path id="XMLID_1268_" class="st37" d="M417,494.3c-4.2,3.2-8.4,6.3-12.6,9.5c-1.9,0-3.7,0-5.6,0.1c5.5-4,11.5-7,17.4-10.3
		C417,493.2,417.2,493.6,417,494.3z"/>
	<path id="XMLID_1267_" class="st36" d="M380.9,172.6c-5.5,3.3-11,6.5-16.6,9.8c-0.8-0.4-1.8-0.6-2.2-1.6c6.1-2.4,11.2-6.4,16.7-9.7
		C379.6,171.5,380.2,172,380.9,172.6z"/>
	<path id="XMLID_1266_" class="st1" d="M330,429c-5.9,4.1-11.6,8.6-18,11.9c1.1-1.7,2.1-3.4,3.2-5.2c4.7-2.5,9.3-5.1,14-7.6
		C330,427.9,330.1,428.3,330,429z"/>
	<path id="XMLID_1265_" class="st38" d="M141.8,289.6c-4.9,4.2-10.4,7.6-16.3,10.1c0-0.6,0-1.1,0-1.7c5.2-4,11-6.9,16.8-9.9
		C142.1,288.6,142,289.1,141.8,289.6z"/>
	<path id="XMLID_1264_" class="st1" d="M418.4,342c-3.5,1-6.4,2.9-9.2,5.2c-0.6-1-1.1-1.9-1.7-2.9c4.1-2.5,8.3-5.1,12.4-7.6
		C419.7,338.6,419.3,340.3,418.4,342z"/>
	<path id="XMLID_1263_" class="st36" d="M141.9,309.9c-5,3.1-10,6.3-15,9.4c-0.1-0.9-0.1-1.8-0.2-2.7c5-2.8,10-5.6,15-8.5
		C141.8,308.7,141.8,309.3,141.9,309.9z"/>
	<path id="XMLID_1262_" class="st39" d="M417,207.1c-4.7,2.7-9.4,5.5-14,8.2c-0.3-0.5-0.7-0.9-1-1.4c4.5-2.8,9.1-5.6,13.6-8.4
		C416,206,416.5,206.5,417,207.1z"/>
	<path id="XMLID_1261_" class="st1" d="M209.2,415.4c5.8-3.5,11.6-7,17.4-10.5c0.8-0.3,1.3,0.1,1.6,0.8c-5.8,3.6-11.6,7.2-17.4,10.9
		C210.2,416.2,209.7,415.8,209.2,415.4z"/>
	<path id="XMLID_1260_" class="st40" d="M154,358c-4.2,3.5-9,5.9-13.6,8.7c-0.3-0.7-0.6-1.4-0.9-2c4.7-2.6,9.1-5.7,14.1-7.8
		C153.7,357.3,153.8,357.6,154,358z"/>
	<path id="XMLID_1259_" class="st1" d="M369.8,334.7c0.6-3.1,11.7-10.1,14.6-9.2c1,0.3,1.7,1,1.9,2
		C379.7,327.5,374.7,331.1,369.8,334.7z"/>
	<path id="XMLID_1258_" class="st41" d="M157.8,366c-4.2,3.4-9,5.9-13.7,8.6c-0.3-0.6-0.6-1.1-0.9-1.7c4.7-2.8,9.1-5.8,14.2-7.9
		C157.5,365.3,157.6,365.6,157.8,366z"/>
	<path id="XMLID_1257_" class="st42" d="M422.3,214.4c-4.7,2.5-9.1,5.7-14,7.8c-0.3-0.5-0.6-0.9-0.9-1.4c4.8-2.5,9-5.9,14-8.1
		C421.6,213.3,422,213.8,422.3,214.4z"/>
	<path id="XMLID_1256_" class="st1" d="M407.3,301.6c5.5-3.1,11-6.1,15.9-10.1c0.5,0.8,0.4,1.8,0.3,2.7c-5.6,3.1-11.2,6.2-16.9,9.3
		C406.5,302.7,406.7,302.1,407.3,301.6z"/>
	<path id="XMLID_1255_" class="st43" d="M470.3,465.8c-3.8,2.2-7.5,4.5-11.3,6.7c-0.2-0.3-0.4-0.6-0.6-0.9c3.5-2.7,7-5.4,10.4-8.1
		C469.3,464.3,469.8,465,470.3,465.8z"/>
	<path id="XMLID_1254_" class="st1" d="M249.2,169.5c-4.6,2.7-9.2,5.5-14.7,8.8c1.3-3.1,4.1-3.4,4.7-5.6
		C242.4,171.2,245.7,170,249.2,169.5z"/>
	<path id="XMLID_1253_" class="st1" d="M165,283.6c0.7,1.1,0.2,2-0.8,2.4c-3.7,1.5-6.5,4.6-10.4,5.7c0-0.7,0-1.4,0-2.2
		C157.6,287.6,161.3,285.6,165,283.6z"/>
	<path id="XMLID_1252_" class="st1" d="M426.5,376.6c0.5-0.3,1.1-0.6,1.6-0.9c1-0.7,2-1.4,3.1-1.9c0.5-0.2,1-0.3,1.5-0.1
		c0,2.9-1.9,5-3.2,7.8C428.3,379.9,427.1,378.4,426.5,376.6z"/>
	<path id="XMLID_1251_" class="st44" d="M378.8,340.7c-0.6,0.3-1.2,0.7-1.9,1c-0.1-0.1-0.3-0.3-0.4-0.4c2-2.5,4.1-5,6.1-7.5
		c1.4-0.3,2.7,0.3,3.9,0.8c-0.3,2.5-2.7,2.8-4.3,4.1C381.1,339.5,379.8,339.9,378.8,340.7z"/>
	<path id="XMLID_1250_" class="st45" d="M435.8,297.2c4.5-2.8,9-5.5,13.5-8.3c0.1,0.3,0.2,0.6,0.2,1c-3.7,3.8-8.7,5.5-13.1,8.2
		C435.8,298,435.6,297.7,435.8,297.2z"/>
	<path id="XMLID_1249_" class="st1" d="M325.7,170.1c-4.3,2.3-8.5,4.6-12.8,7c-0.5,0.3-0.9,0.3-1.2-0.2c3.5-3,8-4.6,11.3-7.8
		C323.8,169.4,324.7,169.7,325.7,170.1z"/>
	<path id="XMLID_1248_" class="st46" d="M281.2,460.5c-2.8,1.8-5.5,3.6-8.3,5.4c-1-0.1-2-0.2-2.9-0.2c3.3-2.3,6.7-4.3,10.3-6
		C281.2,459.3,281.3,459.7,281.2,460.5z"/>
	<path id="XMLID_1247_" class="st47" d="M195,435.7c3.2-2.4,6.7-4.3,10.3-6c0.9-0.4,1,0.1,0.9,0.8c-3.3,2.1-6.6,4.1-9.9,6.2
		C195.9,436.3,195.5,436,195,435.7z"/>
	<path id="XMLID_1246_" class="st48" d="M470.9,505.8c2.6-1.6,5.2-3.2,8.2-5.1c0.1,2.6-2,3.7-2.2,5.5
		C474.9,506.4,472.9,506.5,470.9,505.8z"/>
	<path id="XMLID_1245_" class="st49" d="M455.3,504c3.3-2,6.5-4,9.8-6c0.2,0.3,0.4,0.5,0.6,0.8c-2.6,1.9-3.7,5.5-7.7,5.6
		C457,504.2,456.1,504.1,455.3,504z"/>
	<path id="XMLID_1244_" class="st50" d="M358.9,359.3c1.4,0.3,2.5-0.8,4-0.8c-2.1,2.4-4.1,4.9-7.3,6
		C356.7,362.8,357.8,361,358.9,359.3z"/>
	<path id="XMLID_1243_" class="st1" d="M225.7,416.9c-2.5,1.6-4.9,3.1-7.4,4.7c-0.5-0.3-1.1-0.6-1.6-0.9c2.7-1.5,5.4-3,8.2-4.6
		C225.7,415.8,225.8,416.3,225.7,416.9z"/>
	<path id="XMLID_1242_" class="st51" d="M426.8,394.4c-2.3,1.2-4.5,2.5-6.8,3.7c-0.6-0.2-0.8-0.6-0.7-1.2c2.1-1.4,4.3-2.8,6.4-4.2
		C426,393.2,426.4,393.8,426.8,394.4z"/>
	<path id="XMLID_1241_" class="st1" d="M381.8,338.4c1.4-1.4,3.6-1.9,4.7-3.7c0.7,0.3,1.4,0.6,1.7,1.3c-1.9,1-3.8,2.1-5.6,3.1
		C381.8,339.5,381.7,339,381.8,338.4z"/>
	<path id="XMLID_1240_" class="st52" d="M324.5,162.2c0,1.2,0,2.4,0.7,3.5c-1.9-0.5-3.7-1-5.6-1.5
		C320.8,162.4,323.1,163.3,324.5,162.2z"/>
	<path id="XMLID_1239_" class="st53" d="M372.1,167.2c-1.9,1.5-3.9,2.8-6.1,3.7c-0.3-0.2-0.8-0.3-0.9-0.7c2.1-1.4,4-3.3,6.7-3.9
		C371.8,166.6,372,166.9,372.1,167.2z"/>
	<path id="XMLID_1238_" class="st54" d="M290.9,159.8c0.3-0.8,0.9-1.3,1.8-1.4c1.1,1.2,3.5,0,4.1,2.1
		C294.8,160.4,292.7,160.9,290.9,159.8z"/>
	<path id="XMLID_1237_" class="st55" d="M233.3,147.1c-1.1,1.7-3.1,2.1-4.7,3.2c-0.9-0.9,0.3-1.6,0.1-2.3
		C230.2,147.7,231.5,146.4,233.3,147.1z"/>
	<path id="XMLID_1236_" class="st1" d="M175.6,222.8c1.1,0.2,1.5-1.8,2.8-0.8c0.2,0.1,0.3,0.3,0.2,0.4c-0.1,0.1-0.1,0.2-0.2,0.2
		c-1.6,1.2-3,2.8-5.1,3.2C173.3,224.2,174.6,223.6,175.6,222.8z"/>
	<path id="XMLID_1235_" class="st1" d="M380.9,212.2c1.2-1.4,3.2-1.7,4.2-3.4c0.5,0.6,1,1.2,1.5,1.8c-1.5,0.6-3,1.2-4.5,1.8
		C381.7,212.6,381.2,212.6,380.9,212.2z"/>
	<path id="XMLID_1234_" class="st1" d="M421.7,328.8c-1.4-1.5-2.5,0.9-3.8,0.4c0.7-2,2.8-2.1,4.2-3.1
		C422.2,327,422.5,328,421.7,328.8z"/>
	<path id="XMLID_1233_" class="st1" d="M298.6,164.4c-1.5,1.3-3.1,2.4-5,3c-0.4,0.3-0.9,0.2-1.2-0.2c1.3-1,2.5-2,3.8-3
		C296.9,164.3,297.7,164.3,298.6,164.4z"/>
	<path id="XMLID_1232_" class="st56" d="M343.7,151.7c-1.3,1.5-2.8,2.3-4.7,2.8c-0.2-0.2-0.3-0.4-0.2-0.6c0.1-0.2,0.1-0.3,0.2-0.3
		c0.9-1.2,2.2-1.7,3.5-2.3C342.9,151.5,343.3,151.6,343.7,151.7z"/>
	<path id="XMLID_1231_" class="st1" d="M417.6,264.7c-1.2,0.5-2.4,1.1-3.5,1.6c-0.8,0.3-0.9-0.1-0.8-0.7c1.2-0.8,2.5-1.6,3.7-2.4
		C417.4,263.6,417.7,264,417.6,264.7z"/>
	<path id="XMLID_1230_" class="st57" d="M444.9,283.5c-0.3-2.8,2.4-1.9,3.6-3c0.1,0.4,0.1,0.9,0.2,1.3
		C447.3,282.3,446.3,283.4,444.9,283.5z"/>
	<path id="XMLID_1229_" class="st1" d="M423.8,303.5c-1,0.4-1.9,0.7-2.9,1.1c-0.8,0.3-1,0-0.9-0.8c1.2-0.8,2.5-1.6,3.7-2.4
		C423.8,302.1,423.8,302.8,423.8,303.5z"/>
	<path id="XMLID_1228_" class="st1" d="M406.4,359.4c-0.9,0.5-1.8,0.9-2.7,1.4c-0.9,0.3-1-0.1-0.9-0.9c0.9-0.8,1.8-1.5,2.6-2.3
		C405.7,358.3,406,358.9,406.4,359.4z"/>
	<path id="XMLID_1227_" class="st1" d="M157.5,264.7c1.2-0.5,2.5-1,3.7-1.6c0.2,0.1,0.3,0.3,0.2,0.5c-0.1,0.2-0.1,0.2-0.2,0.2
		c-1.5,1-2.9,2-4.4,3C156.7,266,157,265.4,157.5,264.7z"/>
	<path id="XMLID_1226_" class="st58" d="M259.3,141c-0.8,0.5-1.6,1.1-2.5,1.6c-0.5,0.3-1.2,0.8-1.5,0c-0.2-0.4,0.3-1.1,0.5-1.7
		c0.2-0.1,0.4-0.2,0.6-0.1C257.4,140.6,258.3,140.5,259.3,141z"/>
	<path id="XMLID_1225_" class="st1" d="M243,430.4c-1,0.7-1.9,1.5-2.9,2.2c-0.6-0.2-1.1-0.5-1.7-0.7c1.3-0.7,2.5-1.4,3.8-2.2
		C243,429.3,243.1,429.8,243,430.4z"/>
	<path id="XMLID_1224_" class="st59" d="M432.8,373.8c-0.5,0.2-0.9,0.4-1.4,0.5c-0.9,0.4-0.9-0.1-0.9-0.8c1.2-0.7,2.5-1.5,3.7-2.2
		C434.2,372.4,433.7,373.2,432.8,373.8z"/>
	<path id="XMLID_1223_" class="st60" d="M397.2,353.2c0.8-1.2,2.1-1.8,3.2-2.6c0.8,0.3,0.9,1.1,1,1.8c-0.2,0.1-0.5,0.2-0.7,0.2
		C399.6,352.8,398.6,354.3,397.2,353.2z"/>
	<path id="XMLID_1222_" class="st61" d="M188.6,430.5c1.2-0.9,2.1-2.5,4-1.4c-1.1,0.7-2.1,1.5-3.2,2.2
		C189.2,431.1,188.9,430.8,188.6,430.5z"/>
	<path id="XMLID_1221_" class="st62" d="M295.8,467.2c0.8-0.3,1.7-0.7,3.4-1.3c-1.6,2.1-3,2.9-4.6,3.5
		C294.9,468.7,295.3,467.9,295.8,467.2z"/>
	<path id="XMLID_1220_" class="st63" d="M358.2,179.1c2.2-1.4,3.2-0.1,4,1.7C360.6,181,359.6,179.6,358.2,179.1z"/>
	<path id="XMLID_1219_" class="st1" d="M416.9,274.9c1-0.7,2-1.3,2.9-2c0.1,0.5,0.2,1,0.3,1.6c-1.1,0.5-2.1,0.9-3.2,1.4
		C416.6,275.6,416.6,275.3,416.9,274.9z"/>
	<path id="XMLID_1218_" class="st64" d="M384,503.8c0.7-1.4,2-1.8,3.4-2.4c0.1,1.7-1.5,1.5-2,2.4C385,503.8,384.5,503.8,384,503.8z"
		/>
	<path id="XMLID_1217_" class="st65" d="M129,307.4c-1,0.6-2,1.1-2.9,1.7c0-0.5-0.1-1-0.1-1.5c0.7-0.3,1.4-0.7,2.1-1
		C128.9,306.3,129.1,306.7,129,307.4z"/>
	<path id="XMLID_1216_" class="st66" d="M209.1,427.4c1.1-0.6,2.1-1.2,3.2-1.8c0.3,0.2,0.5,0.3,0.8,0.5c-0.7,1.2-1.9,1.6-3.1,2.1
		C209.7,428,209.2,427.9,209.1,427.4z"/>
	<path id="XMLID_1215_" class="st67" d="M141.6,300.1c-0.9,0.2-1.9,0.4-2.8,0.6c0-1.9,1.9-1.4,2.8-2.2
		C141.6,299.1,141.6,299.6,141.6,300.1z"/>
	<path id="XMLID_1214_" class="st68" d="M159.7,233.2c-0.3-0.3-0.6-0.5-0.9-0.8c1-0.8,1.8-1.8,3.3-1.6c-0.1,1.1-1.1,1.5-1.7,2.3
		c0,0-0.4,0.1-0.4,0.1L159.7,233.2z"/>
	<path id="XMLID_1213_" class="st69" d="M130.6,274.5c-1,0.7-2.1,1.4-3.1,2.1c0-0.5,0.1-1,0.1-1.5c0.7-0.5,1.4-1,2.1-1.5
		C130.2,273.8,130.5,274.1,130.6,274.5z"/>
	<path id="XMLID_1212_" class="st70" d="M435.8,297.2c0.2,0.3,0.4,0.6,0.6,0.9c-0.9,0.6-1.9,1.1-2.8,1.7c0-0.5,0-0.9,0-1.4
		C434.3,297.9,435.1,297.5,435.8,297.2z"/>
	<path id="XMLID_1211_" class="st71" d="M485.8,489.7c-0.8,0.3-1.5,1.3-2.6,0.5c0.3-1,1-1.5,1.8-2
		C485.3,488.7,485.6,489.2,485.8,489.7z"/>
	<path id="XMLID_1210_" class="st72" d="M422.8,318c0.1-0.9,0.3-1.7-0.5-2.4c0.5-0.2,0.9-0.5,1.4-0.7c0,1.4,0.3,2.8-0.5,4
		C423,318.6,422.9,318.3,422.8,318z"/>
	<path id="XMLID_1209_" class="st1" d="M349.5,360.6c-0.6,0.1-1.2,0.1-1.7,0.2c-0.1-0.1-0.1-0.3-0.2-0.4c0.8-0.4,1.7-0.8,2.5-1.3
		C350.3,359.7,350.1,360.2,349.5,360.6z"/>
	<path id="XMLID_1208_" class="st1" d="M194.8,402.7c0.6-0.5,1.5-1.5,2.1-0.9c0.8,1-0.8,1.1-1.2,1.8
		C195.4,403.3,195.1,403,194.8,402.7z"/>
	<path id="XMLID_1207_" class="st73" d="M347.1,173.3c0.3-0.3,0.6-0.6,0.9-0.8c1.2,0.2,1.4,1.1,1.5,2.1
		C348.6,174.3,347.6,174.2,347.1,173.3z"/>
	<path id="XMLID_1206_" class="st74" d="M259.3,141c-1-0.1-1.9-0.1-2.9-0.2c1.2-0.8,2.6-0.8,4-0.6C260.2,140.8,259.8,141,259.3,141z
		"/>
	<path id="XMLID_1205_" class="st1" d="M161.2,339.6c-0.5,0.5-1.1,0.9-1.6,1.4c-0.5-0.3-0.6-0.8-0.5-1.4c0.7-0.2,1.4-0.5,2.1-0.7
		c0.2,0.1,0.3,0.3,0.2,0.5C161.4,339.5,161.3,339.6,161.2,339.6z"/>
	<path id="XMLID_1204_" class="st75" d="M266,160.4c0.6,0.1,1.3,0.1,1.9,0.2c-1.2,0.9-2.5,0.6-3.8,0.5
		C264.6,160.4,265.3,160.4,266,160.4z"/>
	<path id="XMLID_1203_" class="st0" d="M288.4,216.7c0.4,0.5,0.8,1.1,1.1,1.6c3.4,11.9,3.1,24.2,3.3,36.3c0.1,8-0.2,16-0.4,23.9
		c0,1.4-0.3,2.5,1.8,2.9c8.5,1.6,13.8,7,16.5,15c0.8,0.7-0.1,1.7,0.4,2.5c0.3,3.8-0.1,7.5-1.8,10.9c-1,1.9-0.1,2.6,1.3,3.5
		c5.3,3.1,10.6,6,15.2,10.2c1.6,1.5,4.3,3.1,3.2,5.3c-1.3,2.5-4.2,0.8-6.1,0.2c-6.4-2-11.9-5.5-17.2-9.6c-1.2-0.9-2.1-1.9-3.8-0.6
		c-12.9,10.2-28.7,6.2-36.3-8.4c-3.7-14.5,0.4-22.3,14.8-27.8c1.9-0.7,2.6-1.6,2.5-3.7c-0.4-11.7-0.9-23.4-0.3-35.1
		c0.4-7.6,0.9-15.1,2.4-22.6c-0.4-1.2,0.3-2.1,1-3C286.5,217.3,287.1,216.4,288.4,216.7z"/>
	<path id="XMLID_1202_" class="st76" d="M237,207.5c-0.2,2-1,4-4.1,4.1c-3.3,0-7-3.9-7.1-7.4c-0.1-2.7,1.9-4.6,4.7-4.6
		C234,199.6,237.1,203,237,207.5z"/>
	<path id="XMLID_1201_" class="st76" d="M188.7,241.5c3.1,0.6,5.8,2.2,8.1,4.2c2,1.7,1,4.4-1.5,5.2c-2.9,0.9-9.4-1.1-11.2-3.6
		c-0.7-0.9-1.3-1.9-0.4-3C184.8,242.5,186.6,241.8,188.7,241.5z"/>
	<path id="XMLID_1200_" class="st76" d="M185.8,363.8c-3.6-2.4-3.6-3.3,0.1-6.9c0.7-1.2,1.8-1.9,3.2-2c2.2-0.6,4.2-1.8,6.6-1
		c1.4,0.5,2.2,1.5,2.2,3C195.2,361.3,190.8,363.1,185.8,363.8z"/>
	<path id="XMLID_1199_" class="st77" d="M282.8,191.8c0.2-4.3,3.8-7,7.8-6.2c1,0.2,1.7,0.8,1.7,1.7c0,2.2,0.6,4.6-1.2,6.3
		c-1.8,1.7-4.4,2-6.6,1.8C282.1,195.3,282.9,193.1,282.8,191.8z"/>
	<path id="XMLID_1198_" class="st78" d="M168.2,303.6c2.4-2.3,10.9-4.1,13.5-2.8c0.4,0.2,0.8,0.7,0.7,1c-0.1,0.4-0.5,0.8-0.9,1
		C179.1,304.4,171.3,304.8,168.2,303.6z"/>
	<path id="XMLID_1197_" class="st1" d="M285.9,218.2c-0.3,1-0.6,2-1,3c-2.9,1.5-5.9,3.1-8.8,4.6c-0.8,0.3-0.9-0.1-0.8-0.8
		C278.8,222.8,282.3,220.5,285.9,218.2z"/>
	<path id="XMLID_1196_" class="st1" d="M185.2,287.2c-0.3-0.2-0.5-0.5-0.8-0.7c2.1-1.5,4.2-3.1,6.8-3.7c0.2,0.1,0.3,0.2,0.2,0.3
		c-0.1,0.1-0.1,0.2-0.2,0.2C189.5,284.9,187.4,286.2,185.2,287.2z"/>
	<path id="XMLID_1195_" class="st45" d="M277.5,166.3c1.4-0.9,2.4-3.1,4.6-1.4c-1.6,0.6-2.6,2.5-4.6,2.3
		C277.1,166.9,277.1,166.6,277.5,166.3z"/>
	<path id="XMLID_1194_" class="st1" d="M277.5,186.8c0.3,0.3,0.6,0.5,0.9,0.8c-1.5,1.2-3,2.3-5.8,2.9
		C274.3,188.4,275.9,187.5,277.5,186.8z"/>
	<path id="XMLID_1193_" class="st1" d="M275.3,225c0.3,0.3,0.5,0.5,0.8,0.8c-1.5,1-3,1.9-4.6,2.9C272.1,226.5,273.7,225.8,275.3,225
		z"/>
	<path id="XMLID_1192_" class="st1" d="M206.2,342.7c-0.3-0.3-0.5-0.5-0.8-0.8c1.6-1.3,3.3-2.4,5.3-3c0.2,0.2,0.3,0.3,0.2,0.5
		c-0.1,0.2-0.1,0.3-0.2,0.3C209.5,341.1,207.9,342,206.2,342.7z"/>
	<path id="XMLID_1191_" class="st1" d="M212.2,319.4c-0.3-0.2-0.5-0.5-0.8-0.7c1.4-1.1,2.8-2,5.4-2.8
		C215.3,318.1,213.7,318.7,212.2,319.4z"/>
	<path id="XMLID_1190_" class="st1" d="M210.8,339.8c0-0.3,0-0.5,0-0.8c1.2-1.2,2.6-2.1,4.9-2.8
		C214.2,338.5,212.5,339.2,210.8,339.8z"/>
	<path id="XMLID_1189_" class="st1" d="M205.5,248.2c-0.3-0.3-0.6-0.5-0.9-0.8c1.1-1,2.3-1.8,3.7-2.2c0.8-0.4,0.9,0,0.9,0.7
		C208,246.6,206.7,247.4,205.5,248.2z"/>
	<path id="XMLID_1188_" class="st1" d="M275.3,210.8c0.3,0.3,0.6,0.5,0.9,0.8c-1.1,1-2.3,1.8-3.7,2.2c-0.8,0.4-1,0-0.9-0.7
		C272.8,212.4,274,211.6,275.3,210.8z"/>
	<path id="XMLID_1187_" class="st1" d="M202.5,304.4c-0.3-0.3-0.6-0.5-0.9-0.8c1.1-1,2.3-1.8,3.8-2.2c0.8-0.4,0.9,0.1,0.9,0.7
		C205,302.9,203.7,303.7,202.5,304.4z"/>
	<path id="XMLID_1186_" class="st1" d="M256.4,324.5c-0.2-0.4-0.4-0.7-0.7-1.1c1.5-0.8,3-1.6,4.5-2.4
		C260.1,323.4,257.8,323.5,256.4,324.5z"/>
	<path id="XMLID_1185_" class="st79" d="M277.5,166.3c0,0.3,0,0.6,0,0.9c-0.9,1.4-2.4,1.6-3.7,2.2C274,167.3,276,167.2,277.5,166.3z
		"/>
	<path id="XMLID_1184_" class="st1" d="M271.5,213.1c0.3,0.2,0.6,0.5,0.9,0.7c-1.1,0.7-2.2,1.4-4,2.6
		C269.2,214.1,270.5,213.7,271.5,213.1z"/>
	<path id="XMLID_1183_" class="st1" d="M228.1,195.1c0.3,0.3,0.6,0.5,0.8,0.8c-1,0.8-1.9,1.7-3.6,1.8
		C225.8,196.1,226.9,195.6,228.1,195.1z"/>
	<path id="XMLID_1182_" class="st1" d="M207.8,300c1.1-0.7,2.1-1.7,3.8-1.8c-0.8,1.8-2.4,2.2-3.7,2.9
		C207.5,300.8,207.4,300.4,207.8,300z"/>
	<path id="XMLID_1181_" class="st1" d="M311.7,176.9c0.4,0.1,0.8,0.1,1.2,0.2c-1.4,0.9-2.8,1.8-4.2,2.6
		C309,177.9,310.4,177.4,311.7,176.9z"/>
	<path id="XMLID_1180_" class="st1" d="M221.3,313.1c-0.7,1.7-1.9,2-3.4,2.9C218.4,313.8,219.7,313.6,221.3,313.1z"/>
	<path id="XMLID_1179_" class="st80" d="M189.2,354.8c-1.1,0.7-2.1,1.4-3.2,2c-0.3-0.2-0.5-0.5-0.8-0.7c1-0.7,2.1-1.4,3.1-2
		C188.6,354.4,188.9,354.6,189.2,354.8z"/>
	<path id="XMLID_1178_" class="st1" d="M218.2,254.1c-0.3-0.2-0.5-0.5-0.8-0.7c0.9-0.9,1.9-1.6,4.1-1.9
		C220.2,253.2,219.2,253.7,218.2,254.1z"/>
	<path id="XMLID_1177_" class="st1" d="M209.2,245.9c-0.3-0.2-0.6-0.5-0.9-0.7c1-0.7,1.8-1.7,3.6-1.6
		C211.2,244.9,210.2,245.4,209.2,245.9z"/>
	<path id="XMLID_1176_" class="st1" d="M200.2,206.9c-0.3-0.3-0.6-0.5-0.9-0.8c0.9-0.8,1.9-1.7,3.8-1.6
		C202.2,205.9,201.3,206.5,200.2,206.9z"/>
	<path id="XMLID_1175_" class="st1" d="M292.3,167.2c0.4,0.1,0.8,0.1,1.2,0.2c-1.2,1.2-2.6,2.1-4.6,1.7
		C290.1,168.5,291.2,167.8,292.3,167.2z"/>
	<path id="XMLID_1174_" class="st1" d="M161.2,339.6c0-0.2,0-0.5,0-0.7c0.6-0.9,1.6-1.4,3.1-1.7
		C163.5,338.6,162.3,339.1,161.2,339.6z"/>
	<path id="XMLID_1173_" class="st1" d="M183.7,239.9c-0.3-0.2-0.5-0.5-0.8-0.7c0.9-0.8,1.8-1.6,3.6-1.4
		C185.7,239,184.7,239.5,183.7,239.9z"/>
	<path id="XMLID_1172_" class="st1" d="M178.5,222.6c0-0.2,0-0.4,0-0.6c0.2-1.6,1.4-1.5,2.5-1.3C180.2,221.3,179.3,222,178.5,222.6z
		"/>
	<path id="XMLID_1171_" class="st1" d="M268.6,192.4c0.9-0.6,1.7-1,2.5-1.5c0.1,0.3,0.3,0.6,0.2,0.7
		C270.7,192.3,270,193,268.6,192.4z"/>
	<path id="XMLID_1170_" class="st1" d="M191.3,283.3c0-0.2,0-0.4,0-0.5c0.4-0.8,1.1-1.1,2-1.1C193.1,282.9,192.1,283,191.3,283.3z"
		/>
	<path id="XMLID_1169_" class="st1" d="M207.8,300c0,0.3,0.1,0.7,0.1,1c-0.5,0.4-1.1,0.7-1.6,1.1c-0.3-0.2-0.6-0.5-0.9-0.7
		C206.2,301,207,300.5,207.8,300z"/>
	<path id="XMLID_1168_" class="st1" d="M161.2,263.9c0-0.2,0-0.5,0-0.7c0.6-0.4,1.2-0.8,2.1-1.4
		C163.1,263.4,162.1,263.5,161.2,263.9z"/>
	<path id="XMLID_1167_" class="st81" d="M282.7,417.9c0-0.9-0.1-1.7-0.1-2.6c1-6.9,4.5-9.1,9.3-5.7c0.5,0.4,0.9,0.9,0.7,1.7
		c0,2.1,0.2,4.2-0.8,6.1c-1,2-2.3,3.4-4.7,3.5C284.7,421.1,283.4,419.9,282.7,417.9z"/>
	<path id="XMLID_1166_" class="st82" d="M228.1,405.7c-0.5-0.3-1.1-0.5-1.6-0.8c-2.4-3.5,0.9-6,1.6-8.9c1-0.8,2.7-0.6,3-2.3
		c2,0.4,4.8-1.4,5.9,1.5c1.1,2.9-0.4,5.2-2.4,7.3C232.8,404.3,230.8,405.6,228.1,405.7z"/>
	<path id="XMLID_1165_" class="st83" d="M407.3,301.6c-0.2,0.6-0.4,1.3-0.6,1.9c-4,3.8-8.7,2.5-13.2,1.6c-1.4-0.3-1.4-1.5-1.4-2.6
		c1.3-2.5,3.8-2.6,6-3.3C401.3,299.6,404.8,298.6,407.3,301.6z"/>
	<path id="XMLID_1164_" class="st1" d="M292.5,411.3c-0.2-0.6-0.5-1.1-0.7-1.7c1.7-0.8,3.4-1.6,5.1-2.5c0.8-0.4,0.9,0.1,0.8,0.7
		C296,409.1,294.2,410.2,292.5,411.3z"/>
	<path id="XMLID_1163_" class="st1" d="M243,430.4c-0.3-0.2-0.5-0.5-0.8-0.7c1.9-1.2,3.8-2.3,5.7-3.5
		C246.8,428.5,244.9,429.5,243,430.4z"/>
	<path id="XMLID_1162_" class="st1" d="M387.7,282.5c-1.8,1.5-3.8,2.8-6,3.7c-0.3-0.1-0.4-0.3-0.3-0.4c0.1-0.2,0.2-0.2,0.2-0.2
		c1.8-1.6,3.7-2.9,6-3.7c0.2,0.1,0.3,0.3,0.2,0.4C387.9,282.5,387.8,282.5,387.7,282.5z"/>
	<path id="XMLID_1161_" class="st1" d="M413.3,265.6c0.3,0.2,0.5,0.5,0.8,0.7c-1.7,1.1-2.9,3-5.4,2.5
		C409.8,267.1,411.6,266.4,413.3,265.6z"/>
	<path id="XMLID_1160_" class="st1" d="M381.7,285.6c0,0.2,0.1,0.4,0.1,0.7c-1.8,1.6-3.8,2.8-6,3.7c-0.2-0.1-0.3-0.2-0.2-0.4
		c0.1-0.1,0.2-0.2,0.2-0.2C377.4,287.6,379.5,286.5,381.7,285.6z"/>
	<path id="XMLID_1159_" class="st1" d="M320.2,291.8c0.8-2.1,3.2-1.6,4.5-2.9c0.4,0.2,0.8,0.2,0.9,0.7
		C323.9,290.5,322.7,292.7,320.2,291.8z"/>
	<path id="XMLID_1158_" class="st1" d="M370.5,274.6c-1.3,1.3-2.9,2.1-5.5,3.1c1.7-2.5,3.6-3.2,5.4-4c0.2,0.2,0.3,0.4,0.2,0.6
		C370.6,274.4,370.6,274.6,370.5,274.6z"/>
	<path id="XMLID_1157_" class="st1" d="M372.8,312.1c0.3,0.2,0.5,0.5,0.8,0.7c-1.5,1.2-3,2.3-5.9,3
		C369.6,313.6,371.1,312.8,372.8,312.1z"/>
	<path id="XMLID_1156_" class="st1" d="M225.7,416.9c-0.3-0.3-0.6-0.5-0.9-0.8c1.7-1.2,3.3-2.4,5.4-2.9c0.2,0.2,0.3,0.3,0.2,0.4
		c-0.1,0.1-0.2,0.2-0.2,0.2C229,415.4,227.4,416.2,225.7,416.9z"/>
	<path id="XMLID_1155_" class="st1" d="M221.1,357.7c1.4-1.1,2.8-2.1,4.6-2.6c0.2,0.3,0.3,0.6,0.5,0.8c-1.4,0.8-2.8,1.6-4.2,2.4
		C221.6,358.2,221.2,358.1,221.1,357.7z"/>
	<path id="XMLID_1154_" class="st1" d="M325.7,289.6c-0.3-0.2-0.6-0.5-0.9-0.7c1.3-0.8,2.5-1.5,3.8-2.3c0.3,0.3,0.6,0.5,0.9,0.8
		C328.3,288.4,327.1,289.1,325.7,289.6z"/>
	<path id="XMLID_1153_" class="st1" d="M396,277.5c-1.5,1-3,1.9-4.6,2.9c-0.3-0.1-0.6-0.3-0.7-0.6c1.5-1,3-1.9,4.5-2.9
		C395.6,277,395.9,277.2,396,277.5z"/>
	<path id="XMLID_1152_" class="st1" d="M230.2,413.9c0-0.2,0-0.4,0-0.6c1.1-1.3,2.6-2,4.7-2.8C233.7,412.7,231.9,413.3,230.2,413.9z
		"/>
	<path id="XMLID_1151_" class="st1" d="M257.2,377.1c-0.3-0.2-0.5-0.5-0.8-0.7c1.3-1.1,2.7-2,4.9-2.8
		C260.2,375.8,258.6,376.4,257.2,377.1z"/>
	<path id="XMLID_1150_" class="st1" d="M417,306.8c-1.2,1.3-2.7,1.9-5,3c1.6-2.5,3.2-3.2,5-3.8c0.2,0.2,0.3,0.4,0.2,0.5
		C417.1,306.7,417.1,306.8,417,306.8z"/>
	<path id="XMLID_1149_" class="st1" d="M404.3,272.3c-1.1,1.1-2.3,2-3.8,2.2c0.4-2.1,2.2-2.4,3.8-3.1c0.2,0.2,0.3,0.4,0.2,0.6
		C404.4,272.2,404.3,272.3,404.3,272.3z"/>
	<path id="XMLID_1148_" class="st1" d="M370.5,274.6c0-0.3,0-0.6-0.1-0.9c0.8-1.1,1.9-1.6,3.1-2c0.3,0.3,0.6,0.5,0.9,0.8
		C373.3,273.4,372,274.2,370.5,274.6z"/>
	<path id="XMLID_1147_" class="st1" d="M221.1,357.7c0.3,0.2,0.6,0.5,0.9,0.7c-1.3,0.8-2.5,1.5-3.8,2.3c-0.3-0.2-0.6-0.5-0.9-0.7
		C218.4,358.9,219.7,358.1,221.1,357.7z"/>
	<path id="XMLID_1146_" class="st1" d="M396,277.5c-0.2-0.2-0.5-0.4-0.7-0.7c1.5-0.9,2.7-2.3,4.6-2.4
		C398.9,275.9,397.6,276.9,396,277.5z"/>
	<path id="XMLID_1145_" class="st1" d="M417,306.8c0-0.3,0-0.5,0-0.8c0.8-1.1,1.9-1.6,3-2.1c0.3,0.3,0.6,0.5,0.9,0.8
		C419.8,305.6,418.6,306.5,417,306.8z"/>
	<path id="XMLID_1144_" class="st1" d="M375.7,289.4c0,0.2,0,0.4,0,0.5c-1.2,0.9-2.5,1.7-3.7,2.6
		C372.8,290.8,374.1,289.8,375.7,289.4z"/>
	<path id="XMLID_1143_" class="st1" d="M416.9,274.9c0,0.3,0,0.6,0.1,1c-1.1,0.7-2.2,1.4-3.3,2.1C414,276,415.6,275.6,416.9,274.9z"
		/>
	<path id="XMLID_1142_" class="st1" d="M404.3,272.3c0-0.3,0-0.6-0.1-0.9c1.1-0.8,2-2.4,3.8-1.4C407,271.2,405.7,271.9,404.3,272.3z
		"/>
	<path id="XMLID_1141_" class="st1" d="M390.7,279.7c0.2,0.2,0.5,0.4,0.7,0.6c-0.7,0.6-1.5,1.1-2.2,1.7c-0.5,0.2-1,0.3-1.5,0.5
		c0-0.2,0-0.5,0-0.7C388.4,280.7,389.6,280.3,390.7,279.7z"/>
	<path id="XMLID_1140_" class="st1" d="M311.1,299c-0.6-0.8-0.6-1.6-0.4-2.5c0.6,0,1.2-0.1,1.9-0.1C312.8,297.7,311.3,298,311.1,299
		z"/>
	<path id="XMLID_1139_" class="st1" d="M303,381.6c-0.3-0.2-0.5-0.5-0.8-0.7c0.9-0.8,1.8-1.6,3.5-1.4
		C304.9,380.7,304,381.2,303,381.6z"/>
	<path id="XMLID_1138_" class="st84" d="M259.2,396.3c-0.6,1.2-1.4,1.3-2.4,1.6C257.2,396.5,257.9,396.3,259.2,396.3z"/>
	<path id="XMLID_1137_" class="st85" d="M200.9,399.9c0.1,0.7-0.5,0.8-0.9,1c-0.2,0.1-0.8-0.1-0.8-0.3c-0.1-0.6,0.4-0.8,0.9-1
		C200.4,399.4,200.7,399.4,200.9,399.9z"/>
	<path id="XMLID_1110_" class="st86" d="M270,413.5c0.8-1.1,1.5-1.5,2.5-1.4C272.2,413.2,271.4,413.4,270,413.5z"/>
	<path id="XMLID_1109_" class="st1" d="M250.6,425.6c0-1.6,1.1-1.2,1.7-2.1C252.4,425.2,251.5,425.2,250.6,425.6z"/>
	<path id="XMLID_1108_" class="st87" d="M339.3,366.3c-0.6,0.7-1.1,1.1-1.9,0.9c-0.1,0-0.1-0.4,0-0.6
		C337.9,366,338.5,365.9,339.3,366.3z"/>
	<path id="XMLID_1107_" class="st88" d="M362.1,319.8c-0.6,0.3-1,0.6-1.4,0.7c-0.5,0.1-0.7-0.3-0.5-0.6c0.1-0.3,0.5-0.6,0.8-0.7
		C361.2,319.2,361.5,319.5,362.1,319.8z"/>
	<path id="XMLID_1106_" class="st1" d="M265.1,371.5c-0.2,0.9-0.7,1.3-1.5,1.4C263.2,371.4,264.6,371.9,265.1,371.5z"/>
	<path id="XMLID_1105_" class="st1" d="M297.7,407.9c-0.3-0.2-0.5-0.5-0.8-0.7c0.7-0.6,1.6-1.6,2.2-0.8
		C299.7,407.2,298.4,407.6,297.7,407.9z"/>
	<path id="XMLID_1104_" class="st0" d="M401.5,387.9c0,1.2-0.1,2.4-0.1,3.6c-0.2,5.8-0.8,11.5-0.1,17.3c-0.1,3.7,0.2,7.4-0.7,11
		c-0.5,1.3-1,2.6-1.5,4c-3.4,7.5-9.6,10.4-17.4,10.6c-0.7,0.3-1.3,0.5-1.7-0.3c-9.1-2.5-13.2-7.6-14-17.4c-0.5-6.6,0-13.2,0.1-19.8
		c0-4.4-0.1-8.7-0.5-13.1c-0.7-7.1,2.2-13,8.1-17.1c5.7-4,11.9-4.8,18.4-1.9c0.9,0.4,1.8,0.9,2.7,1.3
		C401.2,372,401.3,379.9,401.5,387.9z"/>
	<path id="XMLID_1103_" class="st89" d="M384,484.7c-5.1,0.5-9.6-0.9-13.5-4.2c-0.7-0.1-1.2-0.5-1.2-1.3c-2.1-3.1-3.6-6.5-3.4-10.4
		c-0.4-0.5-0.3-1,0.1-1.5c3-8.3,8.8-13,17.6-14.1c4.7-0.6,8.5,1.5,12.3,3.6c7.8,8.3,6.2,18-4,24.6C389.5,483,386.8,484.1,384,484.7z
		"/>
	<path id="XMLID_1102_" class="st90" d="M380,434c0.6,0.1,1.2,0.2,1.7,0.3c-1.5,1.3-3.2,2.2-5.1,3c-0.8,0.3-1-0.1-0.9-0.8
		C377,435.5,378.4,434.5,380,434z"/>
	<path id="XMLID_1101_" class="st91" d="M375.8,436.5c0.3,0.3,0.6,0.5,0.9,0.8c-1.5,1-3,1.9-4.5,2.9
		C372.6,438.1,374.2,437.3,375.8,436.5z"/>
	<path id="XMLID_1100_" class="st1" d="M330,429c-0.3-0.3-0.6-0.5-0.9-0.8c1.6-1,3.2-2.1,4.8-3.1C333.3,427.3,331.7,428.2,330,429z"
		/>
	<path id="XMLID_1099_" class="st92" d="M366,467.4c0,0.5,0,1-0.1,1.5c-1.2,0.7-2.4,1.4-3.7,2.1c-0.2-0.4-0.5-0.9-0.7-1.3
		C363,468.9,364.5,468.1,366,467.4z"/>
	<path id="XMLID_1098_" class="st1" d="M402.7,359.9c0.3,0.3,0.6,0.6,0.9,0.9c-1.6,1.2-3.1,2.5-5.4,2.2
		C399.7,362,401.2,361,402.7,359.9z"/>
	<path id="XMLID_1097_" class="st93" d="M439.5,416.9c-1,2.1-3.2,2.3-5,3.1C435.8,418.5,437.3,417.1,439.5,416.9
		C439.6,417,439.5,416.9,439.5,416.9z"/>
	<path id="XMLID_1096_" class="st2" d="M397.2,353.2c1.2-0.2,2.3-0.4,3.5-0.6c-1.2,0.7-2.3,1.5-3.5,2.1c-0.4,0.2-1.1,0.1-0.8-0.7
		C396.6,353.7,397,353.5,397.2,353.2z"/>
	<path id="XMLID_1095_" class="st91" d="M399,453.8c0.3,0.3,0.5,0.5,0.8,0.8c-1.1,1-2.2,1.8-3.7,2.1
		C396.2,454.8,397.9,454.5,399,453.8z"/>
	<path id="XMLID_1094_" class="st94" d="M331.5,458.2c-0.3-0.2-0.6-0.5-0.8-0.7c0.9-0.9,1.9-1.7,3.6-1
		C333.3,457,332.4,457.6,331.5,458.2z"/>
	<path id="XMLID_1093_" class="st1" d="M381.8,338.4c0.3,0.2,0.5,0.5,0.8,0.7c-1.1,1-2.3,1.7-3.8,1.6
		C379.3,339.3,380.7,339.1,381.8,338.4z"/>
	<path id="XMLID_1092_" class="st95" d="M378.7,354c0.3,0.3,0.5,0.5,0.8,0.8c-0.6,0.8-1.5,1.2-2.5,1.4
		C376.7,354.8,378,354.5,378.7,354z"/>
	<path id="XMLID_1091_" class="st96" d="M395.1,355.6c-0.6,1-1.3,1.5-2.4,1.2C393.1,355.6,393.9,355.4,395.1,355.6z"/>
	<path id="XMLID_1090_" class="st97" d="M293.3,500.9c0.8-1.2,1.7-1.4,3-2C295.7,500.6,294.8,500.9,293.3,500.9z"/>
	<path id="XMLID_1089_" class="st98" d="M340.7,211.7c-2.1,0-3.5-1.5-3-4c0.7-3.7,3-6.5,6.6-8c1.3-0.6,2.9-0.7,4.2,0.5
		c1.3,1.2,1.2,2.6,0.8,4.1C348.2,208,344.3,211.6,340.7,211.7z"/>
	<path id="XMLID_1088_" class="st76" d="M384,243.1c1.2-0.2,2.4-0.6,3.6-0.7c1.3-0.2,2.8-0.5,3.7,0.9c0.9,1.5-0.5,2.4-1.2,3.4
		c-1.5,1.1-3,2.1-4.5,3.2c-1.5-0.4-2.9,0.4-4.3,0.7c-1.1,0.3-2.6,0.4-3.4-0.8c-0.9-1.2,0.5-2,0.9-3c0.6-1.2,1.6-2,2.7-2.5
		C382.3,243.7,383.1,243.2,384,243.1z"/>
	<path id="XMLID_1087_" class="st1" d="M320.3,210.1c0.3,0.2,0.5,0.5,0.8,0.7c-2,1.3-4,2.5-6.1,3.8
		C316,212.1,318.3,211.3,320.3,210.1z"/>
	<path id="XMLID_1086_" class="st1" d="M326.3,235.6c-1.4,0.9-2.7,1.8-4.1,2.7c0.6-2.3,2.3-2.9,4-3.7c0.2,0.2,0.3,0.4,0.2,0.6
		C326.4,235.4,326.3,235.6,326.3,235.6z"/>
	<path id="XMLID_1085_" class="st1" d="M340.5,246.8c0.3,0.2,0.6,0.5,0.8,0.7c-1.1,1-2.3,1.8-3.7,2.2c-0.8,0.4-0.9-0.1-0.9-0.7
		C338,248.3,339.3,247.6,340.5,246.8z"/>
	<path id="XMLID_1084_" class="st1" d="M363,252.9c0.3,0.2,0.6,0.5,0.9,0.7c-1.1,1-2.3,1.8-3.8,2.2c-0.8,0.4-0.9,0-0.9-0.7
		C360.5,254.4,361.8,253.6,363,252.9z"/>
	<path id="XMLID_1083_" class="st1" d="M326.3,235.6c0-0.3,0-0.6-0.1-0.9c0.8-1.1,1.9-1.6,3.1-2c0.3,0.3,0.6,0.5,0.9,0.8
		C329,234.4,327.8,235.2,326.3,235.6z"/>
	<path id="XMLID_1082_" class="st1" d="M335.2,251.1c-1.1,1-2.4,1.8-4.4,2.4c1.4-1.9,3-2.5,4.4-3.3c0.2,0.2,0.3,0.4,0.2,0.6
		C335.3,251,335.3,251.1,335.2,251.1z"/>
	<path id="XMLID_1081_" class="st99" d="M381.8,244.5c-1,0.7-2,1.5-3,2.2c-0.3-0.3-0.6-0.6-0.9-0.9c1.1-0.7,2.1-1.3,3.2-2
		C381.4,244,381.7,244.2,381.8,244.5z"/>
	<path id="XMLID_1080_" class="st1" d="M359.3,255.1c0.3,0.2,0.6,0.5,0.9,0.7c-0.8,0.8-1.7,1.4-2.8,1.5c-0.4,0.3-0.8,0.3-1.2-0.1
		C357.2,256.5,358.2,255.8,359.3,255.1z"/>
	<path id="XMLID_1079_" class="st1" d="M380.9,212.2c0.4,0,0.8,0.1,1.2,0.1c-1,1-2.3,1.6-3.9,2.2
		C378.8,212.9,379.9,212.7,380.9,212.2z"/>
	<path id="XMLID_1078_" class="st100" d="M365.2,201.5c-0.7,1.1-1.4,1.5-2.6,1.5C363.1,201.9,363.8,201.6,365.2,201.5z"/>
	<path id="XMLID_1077_" class="st101" d="M372.1,218.5c-0.5,0.2-0.8-0.1-0.7-0.5c0.1-0.3,0.4-0.6,0.7-0.7c0.2-0.1,0.8,0.1,0.9,0.3
		C373.1,218.3,372.4,218.3,372.1,218.5z"/>
	<path id="XMLID_1076_" class="st1" d="M335.2,251.1c0-0.3,0-0.6,0-0.8c0.5-0.4,1-0.8,1.6-1.2c0.3,0.2,0.6,0.5,0.9,0.7
		C337,250.5,336.2,251,335.2,251.1z"/>
	<path id="XMLID_1075_" class="st102" d="M375.5,216.5c-0.2-0.4-0.5-0.8-0.4-0.8c0.3-0.3,0.7-0.6,1.1-0.7c0.1,0,0.4,0.4,0.6,0.7
		C376.4,215.9,376,216.2,375.5,216.5z"/>
	<path id="XMLID_1074_" class="st1" d="M356.2,257.2c0.4,0,0.8,0.1,1.2,0.1c-0.8,0.7-1.5,1.5-2.9,1.3
		C354.8,257.7,355.5,257.5,356.2,257.2z"/>
	<path id="XMLID_1073_" class="st103" d="M444.8,489.1c-5.3,4.5-10.3,9.3-15.8,13.5c-2.6,2-6.1,0.6-9.5,0
		c8.2-4.8,16.5-9.5,24.7-14.3C444.3,488.6,444.6,488.9,444.8,489.1z"/>
	<path id="XMLID_1072_" class="st104" d="M437.3,455.3c0.3,0.2,0.6,0.5,0.8,0.7c-1.5,1-3.1,2-4.6,2.9
		C434.1,457,435.8,456.2,437.3,455.3z"/>
	<path id="XMLID_1071_" class="st105" d="M375.7,489.7c-0.3-0.3-0.6-0.6-0.9-0.9c1.6-0.9,2.7-2.8,4.9-2.1
		C378.7,488.1,377.3,489.1,375.7,489.7z"/>
	<path id="XMLID_1070_" class="st106" d="M423.8,451.6c0.3,0.3,0.6,0.5,0.9,0.8c-1,0.9-2,1.8-3.8,1.8
		C421.4,452.6,422.7,452.2,423.8,451.6z"/>
	<path id="XMLID_1069_" class="st107" d="M462.7,482.2c0.3,0.3,0.6,0.6,0.9,0.9c-0.7,0.9-1.7,1.4-3.1,1.7
		C460.7,483.3,461.7,482.8,462.7,482.2z"/>
	<path id="XMLID_1068_" class="st108" d="M417,494.3c-0.3-0.3-0.5-0.5-0.8-0.8c0.6-0.6,1.5-1.6,2-0.9
		C419,493.6,417.7,493.9,417,494.3z"/>
	<path id="XMLID_1067_" class="st109" d="M180,195.8c-0.3-0.3-0.6-0.5-0.8-0.8c1.4-1.1,2.8-2.2,5.7-2.7
		C182.9,194.2,181.6,195.1,180,195.8z"/>
	<path id="XMLID_1066_" class="st110" d="M250.8,145c0.8-0.4,1.6-0.9,3-1.7C253,145.1,252.1,145.4,250.8,145z"/>
	<path id="XMLID_1065_" class="st111" d="M369.4,479.2c0.4,0.4,0.8,0.9,1.2,1.3c-1,0.5-2.1,1.1-3.1,1.6c-0.3-0.2-0.5-0.5-0.8-0.7
		C367.5,480.7,368.4,479.9,369.4,479.2z"/>
	<path id="XMLID_1064_" class="st112" d="M415.5,400.4c-1.6,1.7-3.4,2.9-5.8,3C410.9,401,413,400.3,415.5,400.4z"/>
	<path id="XMLID_1063_" class="st113" d="M419.3,396.9c0.2,0.4,0.5,0.8,0.7,1.2c-1.3,1.1-2.8,1.7-4.5,1.8
		C416.1,398,417.9,397.8,419.3,396.9z"/>
	<path id="XMLID_1062_" class="st114" d="M281.2,460.5c-0.3-0.3-0.6-0.6-0.9-0.8c1.1-1,2.4-1.8,3.8-2.2c0.8-0.4,0.9,0.1,0.9,0.7
		C283.7,458.9,282.5,459.7,281.2,460.5z"/>
	<path id="XMLID_1061_" class="st61" d="M285,458.2c-0.3-0.2-0.6-0.5-0.9-0.7c1.4-0.8,2.3-2.3,3.9-2.7c0.4,0.5,0.4,0.9,0,1.4
		C287,456.8,286,457.5,285,458.2z"/>
	<path id="XMLID_1060_" class="st5" d="M288,456.1c0-0.5,0-0.9,0-1.4c0.7-0.5,1.2-1.1,2.2-1C290.4,455.4,289.1,455.7,288,456.1z"/>
	<path id="XMLID_1059_" class="st115" d="M339,153.7c0,0.3,0,0.6,0,0.8c-1.4,1.4-3.1,2.4-5,2.9C334.3,154.3,337.3,155,339,153.7z"/>
	<path id="XMLID_1058_" class="st116" d="M332.8,157.6c-0.1,1.6-0.9,2.1-2.3,1.4C330.9,158.1,331.7,157.6,332.8,157.6z"/>
	<path id="XMLID_1057_" class="st5" d="M130.6,274.5c-0.3-0.3-0.6-0.6-0.9-0.9c0.9-0.6,1.7-1.4,2.9-1.3
		C132.9,273.9,131.5,274,130.6,274.5z"/>
	<path id="XMLID_1056_" class="st117" d="M361.7,173.3c-1.6,1.2-3.2,2.5-5.3,2.9c0.2-2.8,2.9-2.5,4.4-3.7
		C361.2,172.6,361.5,172.9,361.7,173.3z"/>
	<path id="XMLID_1055_" class="st45" d="M361.7,173.3c-0.3-0.3-0.6-0.6-0.9-0.9c1.4-0.8,2.9-1.5,4.3-2.3c0.3,0.2,0.6,0.5,0.9,0.7
		C364.5,171.7,363.1,172.5,361.7,173.3z"/>
	<path id="XMLID_1054_" class="st118" d="M209.1,427.4c0.3,0.3,0.6,0.5,0.9,0.8c-1.2,0.8-2.5,1.5-3.7,2.3c-0.3-0.3-0.6-0.5-0.9-0.8
		C206.6,428.9,207.8,428.2,209.1,427.4z"/>
	<path id="XMLID_1053_" class="st119" d="M193.9,427.5c1-0.8,1.9-2.2,3.5-1.5C196.4,426.9,195.6,428.3,193.9,427.5z"/>
	<path id="XMLID_1052_" class="st66" d="M129,307.4c-0.3-0.3-0.6-0.5-0.9-0.8c1.6-0.9,3.2-1.9,4.7-2.8c0.3,0.2,0.7,0.2,0.8,0.7
		C132.1,305.5,130.5,306.5,129,307.4z"/>
	<path id="XMLID_1051_" class="st120" d="M133.6,304.5c-0.3-0.2-0.5-0.5-0.8-0.7c1-0.5,1.9-1.1,2.9-1.6c0.8-0.4,0.9,0,0.8,0.7
		C135.5,303.4,134.5,304,133.6,304.5z"/>
	<path id="XMLID_1050_" class="st121" d="M136.4,302.9c-0.3-0.2-0.5-0.5-0.8-0.7c0.8-0.5,1.6-1,2.3-1.5
		C138.4,302.1,137.5,302.5,136.4,302.9z"/>
	<path id="XMLID_1049_" class="st122" d="M439.6,285.6c1.2-0.5,1.9-2.1,3.5-2C443,286.2,441.1,285.6,439.6,285.6z"/>
	<path id="XMLID_1048_" class="st123" d="M381.8,244.5c-0.2-0.2-0.5-0.4-0.7-0.6c1-0.5,2-1,2.9-1.6c0,0.2,0,0.5,0,0.7
		C383.3,243.6,382.5,244,381.8,244.5z"/>
	<path id="XMLID_1047_" class="st124" d="M430.5,373.6c0.3,0.3,0.6,0.5,0.9,0.8c-0.9,0.8-1.9,1.6-3.2,1.4
		C428.5,374.6,429.5,374,430.5,373.6z"/>
	<path id="XMLID_1046_" class="st1" d="M276.7,311.9c-4.2-6.3-4.7-14.8-0.8-20.3c2.8-4,6.5-6.4,11.7-5.7c0.7,2.5-2.3,3.1-2.7,5.1
		c2.5-1.2,4.6-3.3,7.6-3.3c5.1,2.6,7.6,6.9,8.7,12.3c-0.6,1.1-1,2.3-1.9,3.2c0.7,0.2,1.4-0.4,2.1,0.1c0.5,6.7-2.3,12-7.8,14.8
		c-4.7,2.3-9.7,1.2-14.6-3.2c0.4-2.2,2.1-3.6,3.5-5.4C280.5,310.2,279,312.1,276.7,311.9z"/>
	<path id="XMLID_1045_" class="st125" d="M292.6,287.8c-3.2,1.3-5.9,3.8-10.3,5.1c2.2-2.9,3.8-4.9,5.4-7
		C289.4,286.2,291.2,286.5,292.6,287.8z"/>
	<path id="XMLID_1044_" class="st126" d="M276.7,311.9c2.6-1.5,5.2-3,7.8-4.5c-1,3.3-3.3,5.4-5.3,7.7
		C277.9,314.3,277.1,313.3,276.7,311.9z"/>
	<path id="XMLID_1043_" class="st127" d="M301.5,303.5c-1.3,0.6-2.6,1.2-3.9,1.8c-0.2-0.2-0.3-0.3-0.5-0.5c1.4-1.6,2.8-3.1,4.2-4.7
		C301.6,301.2,302,302.3,301.5,303.5z"/>
	<path id="XMLID_1042_" class="st79" d="M388.9,373.5c2.3,2,2.5,4.8,2.9,7.5c0.3,2.4-0.9,4.1-2.4,5.9c1-0.4,1.8-0.7,2.7-0.2
		c-0.5,8.1-0.6,16.1,0.1,24.2c0.4,4.6-1,9.1-3.5,13.1c-3,4.7-6.6,4.8-9.7,0.3c-2.1-3.1-3.7-6.3-3.2-10.4c0.8-7.2-1-14.4-0.7-21.6
		c0.4-0.6,0.5-1.4,0.9-1.9c1.2-1.7-1-0.5-1-1.1c-0.6-5.7,0.2-11,3.3-15.9c1.6-2.5,3.6-3.7,6.5-2.5c0.4,1.9-1.1,3.2-1.8,5
		C385.2,375.5,386.7,373.5,388.9,373.5z"/>
	<path id="XMLID_1041_" class="st1" d="M388.9,373.5c-2.4,1.5-4.7,3-7.7,4.9c0.5-3.4,2.5-5.3,3.6-7.6
		C386.4,371.2,387.9,371.9,388.9,373.5z"/>
	<path id="XMLID_1040_" class="st1" d="M392,386.7c-1.7,0.2-2.8,2-4.9,1.7c1.5-2.7,4.4-4.3,4.7-7.4
		C392.4,382.9,392.1,384.8,392,386.7z"/>
	<path id="XMLID_1039_" class="st1" d="M374.9,389.2c1.1-0.4,1.9-1.6,3.9-1.3c-1.4,1.6-2.6,3-3.7,4.3
		C375,391.3,375,390.3,374.9,389.2z"/>
	<path id="XMLID_1038_" class="st128" d="M387.8,461.8c5.1,4.9,5.4,11.5,0.6,15.2c-0.4,0.3-0.8,0.6-1.3,0.8c-3.1,1.7-6,1-8.6-1.9
		c-3.3-3.7-4-10.2-1.2-13.9c1.9-2.5,4.3-4.2,7.6-2.2c0.5,1.3-0.5,2.3-0.9,3.4C385.1,462.2,386.2,461.2,387.8,461.8z"/>
	<path id="XMLID_1037_" class="st1" d="M387.8,461.8c-1.7,0.6-2.9,2.2-5.3,2.4c0.9-1.7,1.6-3.1,2.4-4.5
		C386.1,460,387.1,460.7,387.8,461.8z"/>
</g>
</svg>
