<?xml version="1.0" encoding="utf-8"?>
<!-- Generator: Adobe Illustrator 19.0.0, SVG Export Plug-In . SVG Version: 6.00 Build 0)  -->
<svg version="1.1" id="Layer_1" xmlns="http://www.w3.org/2000/svg" xmlns:xlink="http://www.w3.org/1999/xlink" x="0px" y="0px"
	 viewBox="0 0 612 792" style="enable-background:new 0 0 612 792;" xml:space="preserve">
<style type="text/css">
	.st0{fill:#C1DBF0;}
	.st1{fill:#F47822;}
	.st2{fill:#FFFFFF;}
	.st3{fill:#010101;}
</style>
<path id="XMLID_151_" class="st0" d="M336.9,594.1c-1.9,0-3.5-1.6-3.5-3.5c0-0.8,0.4-1.8,1-2.4l5.2-5.4l-8.3,4.8
	c-1.7,1.1-3.8,0.6-4.9-1.1c-1.1-1.7-0.6-3.8,1.1-4.9c0,0,0.1,0,0.2-0.1l29.2-16.9c1.7-1,3.8-0.4,4.8,1.3c0.7,1.3,0.6,3-0.5,4.2
	l-5.2,5.5l3.1-1.8c1.7-1.1,3.8-0.6,4.9,1.1c1.1,1.7,0.6,3.8-1.1,4.9c0,0-0.1,0-0.2,0.1l-24,13.9c0,0-1.2,0.5-1.8,0.5L336.9,594.1z"
	/>
<path id="XMLID_150_" class="st0" d="M373.5,576.4c-1.9,0-3.5-1.6-3.5-3.5c0-0.8,0.4-1.7,0.8-2.4l1-1.1l-6.6,3.7
	c-1.7,1.1-3.8,0.6-4.9-1.1c-1-1.4-0.6-3.4,0.7-4.6l1.8-1.8l-3.6,2c-1.7,1.1-3.8,0.6-4.9-1.1c-1.1-1.7-0.6-3.8,1.1-4.9
	c0,0,0.1,0,0.2-0.1l29.1-16.8c1.7-1.1,3.8-0.5,4.8,1.2c1,1.4,0.6,3.4-0.7,4.4l-1.8,1.8c1.7-1,3.8-0.2,4.8,1.4c0.7,1.3,0.5,2.9-0.5,4
	l-4,4.4c1.8,0.7,2.6,2.9,1.8,4.7c-0.4,0.7-0.8,1.3-1.4,1.7l-12.7,7.3c0,0-1.1,0.5-1.7,0.5l0,0L373.5,576.4z"/>
<path id="XMLID_149_" class="st0" d="M391.8,547.5c-1.9,0-3.5-1.6-3.5-3.5c0-0.8,0.2-1.6,0.8-2.3l3-3.6l-9.5,5.5
	c-1.7,1.1-3.8,0.6-4.9-1.1c-1.1-1.7-0.6-3.8,1.1-4.9c0,0,0.1,0,0.2-0.1l26.4-15.2c1.7-1,3.8-0.4,4.8,1.3c0.7,1.3,0.6,2.9-0.4,4
	l-4.7,5.6c1.9,0.4,3.1,2.3,2.6,4.2c-0.2,1-0.8,1.8-1.7,2.3l-12.7,7.3c0,0-1.2,0.5-1.8,0.5l0,0H391.8z"/>
<path id="XMLID_148_" class="st0" d="M236.1,380.8c-1.9,0-3.5-1.6-3.5-3.5c0-1.2,0.7-2.4,1.8-3l21.6-12.5c1.7-1.1,3.8-0.6,4.9,1.1
	c1.1,1.7,0.6,3.8-1.1,4.9c0,0-0.1,0-0.2,0.1l-21.6,12.5c0,0-1.2,0.5-1.8,0.5L236.1,380.8z"/>
<path id="XMLID_147_" class="st0" d="M314.4,615.4c-1.9,0-3.5-1.6-3.5-3.5c0-0.8,0.2-1.6,0.8-2.3l5.5-6.8l-11.5,6.6
	c-1.7,1-3.8,0.4-4.8-1.3c-0.8-1.6-0.5-3.6,1-4.6l30-22.1l-34.5,19.9c-1.7,1-3.8,0.4-4.8-1.3c-0.8-1.6-0.5-3.5,1-4.6l42.9-30
	l-48.7,28.2c-1.7,1-3.8,0.4-4.8-1.3c-1-1.6-0.5-3.6,1.1-4.7l51.1-35.6l-58,33.4c-1.7,1-3.8,0.4-4.8-1.3c-1-1.6-0.5-3.6,1-4.7
	l60.3-42.8L265,576.3c-1.7,1-3.8,0.5-4.8-1.2s-0.5-3.8,1.2-4.8l3.7-2.4l-6.4,3.7c-1.7,1-3.8,0.4-4.8-1.3c-1-1.6-0.5-3.6,1.1-4.7
	l38.1-25.4l-43,24.8c-1.7,1-3.8,0.5-4.8-1.2c-1-1.7-0.5-3.8,1.2-4.8l0,0l14.9-9.6l-18.1,10.4c-1.7,1-3.8,0.4-4.8-1.3
	c-0.8-1.6-0.5-3.6,1.1-4.6l63.5-44.1l-71.6,41.2c-1.7,1-3.8,0.4-4.8-1.3c-0.8-1.6-0.5-3.6,1.1-4.6l61.7-42.3l-69,39.9
	c-1.7,1-3.8,0.2-4.8-1.4c-0.8-1.6-0.4-3.6,1.1-4.6l11.7-7.6l-14.7,8.5c-1.7,1-3.8,0.2-4.8-1.4c-0.8-1.6-0.4-3.5,1.1-4.6l35.2-22.9
	l-39.7,22.9c-1.7,1-3.7,0.5-4.8-1.2c-1-1.6-0.6-3.7,1-4.8l65.3-44.2l-72.8,42c-1.7,1-3.8,0.4-4.8-1.3c-0.8-1.6-0.5-3.6,1.1-4.7
	l58.6-39.1l-67,38.7c-1.7,1-3.8,0.4-4.8-1.3c-1-1.6-0.5-3.7,1.1-4.7l60.2-39.9l-73,42.1c-1.7,1-3.8,0.4-4.8-1.3
	c-1-1.6-0.5-3.7,1.1-4.7l79.8-53.7l-88.5,51.1c-1.7,1-3.8,0.2-4.8-1.4c-0.8-1.6-0.4-3.6,1.1-4.6l39.1-24.9l-38.6,22.3
	c-1.7,1-3.8,0.4-4.8-1.3c-1-1.7-0.5-3.7,1.1-4.7l59-38.5l-52.7,30.4c-1.7,1-3.8,0.4-4.8-1.3c-0.8-1.6-0.4-3.6,1.1-4.7l53.1-34.8
	l-46.9,27.1c-1.7,1-3.8,0.4-4.8-1.3c-0.8-1.6-0.5-3.6,1.1-4.7l51.3-34.4l-45.1,26c-1.7,1-3.8,0.5-4.8-1.2c-1-1.7-0.5-3.8,1.2-4.8
	l12.1-7.9l-6.6,3.8c-1.7,1-3.8,0.4-4.8-1.3c-1-1.6-0.5-3.6,1.1-4.7l30.1-20.4L162,431.5c-1.7,1-3.8,0.4-4.8-1.3
	c-0.7-1.3-0.6-2.9,0.4-4.1l6.5-7.4c-1.8,0.8-3.8,0-4.7-1.8c-0.7-1.7,0-3.6,1.4-4.4l17.5-10.1c1.7-1,3.8-0.4,4.8,1.3
	c0.7,1.3,0.6,2.9-0.4,4.1l-6.4,7.4l91.5-52.7c1.7-1,3.8-0.4,4.8,1.4c0.8,1.6,0.4,3.5-1.1,4.6l-30,20.4l39.4-22.8
	c1.7-1,3.8-0.4,4.8,1.3c0.8,1.6,0.4,3.6-1.1,4.7l-12.2,7.9l19.2-11c1.7-1,3.8-0.2,4.8,1.4c0.8,1.6,0.4,3.5-1.1,4.6l-51.3,34.3
	l62.7-36.2c1.7-1,3.8-0.4,4.8,1.3c0.8,1.6,0.4,3.6-1.1,4.7l-53.1,34.9l57.9-33.4c1.7-1,3.8-0.4,4.8,1.3c1,1.6,0.5,3.6-1.1,4.7
	l-59,38.5l61.6-35.6c1.7-1,3.8-0.2,4.8,1.4c0.8,1.6,0.4,3.6-1.1,4.6l-39.1,24.9l40.6-23.5c1.7-1.1,3.8-0.5,4.8,1.1
	c1,1.6,0.5,3.8-1.1,4.8l-79.8,53.8l84.1-48.7c1.7-1,3.8-0.4,4.8,1.3c1,1.6,0.5,3.7-1.1,4.7l-60.2,39.9l63.3-36.6
	c1.7-1,3.8-0.4,4.8,1.3c1,1.6,0.5,3.6-1.1,4.7l-58.7,39.1l61.7-35.6c1.7-1,3.8-0.4,4.8,1.3c1,1.6,0.5,3.6-1.1,4.7L287,476.8l69-39.8
	c1.7-1,3.8-0.2,4.8,1.4c0.8,1.6,0.4,3.5-1.1,4.6l-35.2,22.9l36.9-21.3c1.7-1,3.8-0.5,4.8,1.2c1,1.7,0.5,3.7-1.2,4.8l-11.7,7.6
	l12.6-7.3c1.7-1,3.8-0.4,4.8,1.3c0.8,1.6,0.5,3.6-1.1,4.6L307.8,499l65.6-37.8c1.7-1,3.8-0.4,4.8,1.3c1,1.6,0.5,3.6-1.1,4.7
	l-63.5,44l67.6-39.1c1.7-1,3.8-0.5,4.8,1.2s0.5,3.8-1.2,4.8l-15,9.7l15.9-9.2c1.7-1,3.8-0.5,4.8,1.2c1,1.7,0.5,3.7-1.1,4.8
	L351.3,510l40.3-23.3c1.7-1,3.8-0.5,4.9,1.2c1,1.7,0.5,3.8-1.2,4.9l-3.6,2.3l4.2-2.4c1.7-1,3.8-0.4,4.8,1.3c1,1.6,0.5,3.6-1,4.7
	l-60.3,42.7l64.6-37.3c1.7-1,3.8-0.4,4.8,1.3c0.8,1.6,0.5,3.5-1,4.6l-51.1,35.6l48.1-27.8c1.7-1,3.8-0.5,4.8,1.2
	c1,1.6,0.5,3.7-1.1,4.7l-42.9,30l18.7-10.8c1.7-1.1,3.8-0.6,4.9,1.1c1.1,1.7,0.6,3.8-1.1,4.9l-52.9,38.8c1,1.3,1,3.1,0,4.3l-5.5,6.8
	l0.6-0.4c1.7-1.1,3.8-0.6,4.9,1.1c1.1,1.7,0.6,3.8-1.1,4.9c0,0-0.1,0-0.2,0.1l-17.3,9.9c0,0-1.2,0.5-1.8,0.5l0,0L314.4,615.4z"/>
<g id="XMLID_186_">
	<path id="XMLID_146_" class="st1" d="M329.8,330.9c-1.9,0-3.5-1.6-3.5-3.5c0-0.5,0-0.8,0.2-1.3l1.2-3.2l-5.2,3
		c-1.7,1-3.8,0.4-4.8-1.3c-0.7-1.2-0.6-2.6,0.2-3.8l2.4-3.2l-6.5,3.7c-1.7,1-3.8,0.4-4.8-1.3c-0.7-1.2-0.6-2.6,0.2-3.8l9.1-12.7
		l-18.3,10.5c-1.7,1-3.8,0.4-4.8-1.3c-0.8-1.4-0.5-3.4,0.8-4.4l5.4-4.4l-43.5,25.2c-1.7,1.1-3.8,0.6-4.9-1c-1.1-1.6-0.6-3.8,1-4.9
		l48.3-35.5l-41.5,24c-1.7,1-3.8,0.4-4.8-1.3c-0.8-1.6-0.5-3.5,1-4.6l18-12.6l-12.2,7.1c-1.7,1-3.8,0.4-4.8-1.3
		c-0.8-1.6-0.5-3.5,0.8-4.6l23.1-18.2l-19.4,11.1c-1.7,1-3.8,0.4-4.8-1.3c-0.8-1.4-0.5-3.4,0.8-4.4l20.1-16.7L254.1,279
		c-1.7,1-3.8,0.4-4.8-1.3c-0.8-1.4-0.5-3.4,0.7-4.4l24.6-20.6l-30,17.3c-1,0.6-2.2,0.6-3.1,0.2c-1.1-0.5-1.8-1.3-2-2.4l-2.2-9.7
		l-2.5,1.4c-1.7,1-3.8,0.4-4.8-1.3c-1-1.7-0.4-3.8,1.3-4.8l6.7-3.8c1-0.6,2.2-0.6,3.2-0.1c1.1,0.5,1.8,1.3,2,2.4l2.2,9.7l60.8-35.1
		c1.7-1,3.8-0.4,4.8,1.3c0.8,1.4,0.5,3.4-0.7,4.4l-24.6,20.6l26.2-15.1c1.7-1,3.8-0.4,4.8,1.3c0.8,1.4,0.5,3.4-0.8,4.4l-20.1,16.7
		l25.6-14.7c1.7-1,3.8-0.4,4.8,1.3c0.8,1.6,0.5,3.4-0.8,4.4l-23.1,18.2l37.2-21.5c1.7-1,3.8-0.4,4.8,1.3c1,1.6,0.5,3.6-1.1,4.7
		l-18,12.7l28.6-16.5c1.7-1,3.8-0.4,4.8,1.3c0.8,1.6,0.5,3.5-1,4.6l-48.3,35.5l25.4-14.6c1.7-1,3.8-0.4,4.8,1.3
		c0.8,1.4,0.5,3.4-0.8,4.4l-7.9,6.5c1.9,0,3.5,1.7,3.5,3.6c0,0.7-0.2,1.4-0.6,1.9l-9.1,12.7l6.8-4c1.7-1,3.8-0.4,4.8,1.3
		c0.7,1.2,0.6,2.8-0.2,3.8l-2.4,3.4c1.8-0.6,3.8,0.4,4.4,2.3c0.2,0.7,0.2,1.6,0,2.4l-1.6,4.1c1.9,0,3.5,1.8,3.4,3.7
		c0,1.2-0.7,2.3-1.8,2.9l-6.4,3.7c0,0-1.2,0.5-1.8,0.5l0,0L329.8,330.9z"/>
	<path id="XMLID_145_" class="st1" d="M282.4,237.2c-1.9,0-3.5-1.6-3.5-3.5c0-0.7,0.2-1.3,0.6-1.9l10.5-15.9c0,0-0.4-0.5-0.5-0.7
		c-1-1.7-0.4-3.8,1.3-4.8l0,0l5.4-3.1c1.7-1,3.8-0.4,4.8,1.3c0.7,1.2,0.6,2.6,0,3.7l-7.3,11l8.6-4.9c1.7-1,3.8-0.2,4.8,1.4
		c0.8,1.7,0.4,3.6-1.2,4.6l-21.6,12.5c0,0-1.2,0.5-1.8,0.5L282.4,237.2z"/>
	<path id="XMLID_144_" class="st0" d="M204.3,358.6c-1.9,0-3.5-1.6-3.5-3.5c0-0.4,0-0.8,0.2-1.2l0.8-2.4l-3.8,2.2
		c-1.7,1-3.8,0.4-4.8-1.3c-0.7-1.2-0.6-2.6,0.1-3.7l1.7-2.4l-5.3,3c-1.7,1-3.8,0.4-4.8-1.3c-0.7-1.3-0.6-3,0.5-4.1l6.5-7L158.8,356
		c-1.7,1-3.8,0.4-4.8-1.3c-0.8-1.6-0.5-3.5,0.8-4.6l22.8-17.6l-16.7,9.6c-1.7,1-3.8,0.5-4.8-1.2c-0.8-1.4-0.6-3.2,0.6-4.4l19.8-18.9
		l-16.2,9.5c-1.7,1-3.8,0.4-4.8-1.3c-0.8-1.4-0.5-3.2,0.6-4.3l11.3-10.3l-14.5,8.4c-1.7,1-3.8,0.4-4.8-1.3c-0.1-0.2-0.2-0.6-0.4-0.8
		l-2.4-9l-2,1.1c-1.7,1.1-3.8,0.6-4.9-1.1c-1.1-1.7-0.6-3.8,1.1-4.9c0,0,0.1,0,0.2-0.1l6-3.5c1-0.6,2.2-0.6,3.1-0.2s1.8,1.3,2,2.4
		l2.4,9l38.5-22.2c1.7-1,3.8-0.4,4.8,1.3c0.8,1.4,0.5,3.2-0.6,4.3l-11.3,10.3l13.5-7.8c1.7-1,3.8-0.5,4.8,1.2
		c0.8,1.4,0.6,3.2-0.6,4.4l-19.8,18.9l36.9-21.3c1.7-1,3.8-0.4,4.8,1.3c0.8,1.6,0.5,3.4-0.8,4.4l-22.7,17.5l7.7-4.4
		c1.7-1,3.8-0.4,4.8,1.3c0.7,1.3,0.6,3-0.5,4.2l-6.7,7.3c1.9-0.5,3.8,0.6,4.3,2.5c0.2,1,0,2-0.5,2.9l-2,2.9c1-0.1,2,0.1,2.8,0.8
		c1.1,1,1.6,2.5,1.1,4l-1.3,3.6c1.9,0.4,3.1,2.2,2.8,4.1c-0.2,1-0.8,1.9-1.7,2.4l-5.5,3.2C206.1,358.1,204.9,358.6,204.3,358.6
		C204.3,358.6,204.3,358.6,204.3,358.6z"/>
	<path id="XMLID_143_" class="st0" d="M171.8,298.9c-1.9,0-3.5-1.6-3.5-3.5c0-0.6,0.2-1.3,0.5-1.9l9.2-14.9c0,0-0.2-0.4-0.4-0.5
		c-1-1.7-0.4-3.8,1.3-4.8l0,0l4.3-2.5c1.7-1,3.8-0.5,4.8,1.2c0.7,1.2,0.6,2.6,0,3.7l-6,9.6l6.4-3.7c1.7-1.1,3.8-0.6,4.9,1.1
		c1.1,1.7,0.6,3.8-1.1,4.9c0,0-0.1,0-0.2,0.1l-18.5,10.7c0,0-1.1,0.5-1.7,0.5H171.8z"/>
	<path id="XMLID_142_" class="st0" d="M427.9,357.7c-0.8,0-1.6-0.2-2.2-0.7c-1.1-0.8-1.6-2.4-1.2-3.7l2.4-8l-9.3,5.4
		c-1.7,1-3.8,0.4-4.8-1.3c-0.7-1.2-0.6-2.8,0.2-4l10.4-13.1l-39.1,22.5c-1.7,1-3.8,0.4-4.8-1.3c-0.8-1.6-0.5-3.5,1-4.6l10.3-7.4
		l-4.8,2.9c-1.7,1-3.8,0.5-4.8-1.2c-0.8-1.4-0.6-3.4,0.7-4.4l18.1-15.5l-11.7,6.8c-1.7,1-3.8,0.4-4.8-1.3c-0.8-1.3-0.6-3.1,0.5-4.2
		l15.9-16.9L378.5,320c-1.7,1-3.8,0.4-4.8-1.3c-0.1-0.2-0.2-0.5-0.4-0.8l-2.8-9.5l-2,1.2c-1.7,1.1-3.8,0.6-4.9-1.1
		c-1.1-1.7-0.6-3.8,1.1-4.9c0,0,0.1,0,0.2-0.1l6-3.5c1.7-1,3.8-0.4,4.8,1.3c0.1,0.2,0.2,0.5,0.4,0.8l2.8,9.5l38.5-22.2
		c1.7-1,3.8-0.4,4.8,1.3c0.7,1.3,0.6,3-0.5,4.2l-15.9,16.9l23.9-13.8c1.7-1,3.8-0.4,4.8,1.3c0.8,1.4,0.5,3.2-0.7,4.4l-18.1,15.5
		l32-18.5c1.7-1,3.8-0.4,4.8,1.3c0.8,1.6,0.5,3.5-1,4.6l-13.7,9.8c1.1,0,2,0.5,2.8,1.2c1.1,1.3,1.2,3.2,0,4.6l-10.4,13.1l0.8-0.5
		c1.7-1,3.8-0.4,4.8,1.3c0.5,0.8,0.6,1.8,0.4,2.8l-2.4,8.2c1.9-0.6,3.8,0.5,4.4,2.3c0.5,1.6-0.1,3.2-1.6,4.1l-7,4
		c0,0-1.1,0.5-1.7,0.5l0,0L427.9,357.7z"/>
	<path id="XMLID_141_" class="st0" d="M396.9,299.7c-1,0-1.9-0.4-2.5-1.1c-1.1-1.2-1.3-2.9-0.5-4.3l9.6-15.7c0,0-0.2-0.4-0.4-0.5
		c-1-1.7-0.4-3.8,1.3-4.8l0,0l4.3-2.5c1.7-1,3.8-0.4,4.8,1.3c0.6,1.1,0.6,2.5,0,3.6l-6.4,10.4l7.1-4.1c1.7-1,3.8-0.4,4.8,1.3
		c1,1.7,0.4,3.8-1.3,4.8l-19.1,11C398.7,299.2,397.5,299.7,396.9,299.7C396.9,299.7,396.9,299.7,396.9,299.7z"/>
</g>
<path id="XMLID_140_" class="st1" d="M265,621.4c-1.9,0-3.5-1.6-3.5-3.5c0-0.8,0.4-1.8,1-2.4l13.3-14.1L253,614.5
	c-1.7,1-3.8,0.4-4.8-1.3c-0.8-1.4-0.6-3.2,0.6-4.3l15.6-14.3l-14.6,8.5c-1.7,1-3.8,0.4-4.8-1.3c-0.8-1.4-0.6-3.2,0.6-4.3l8.7-8
	l-21.9,12.6c-1.7,1-3.8,0.2-4.8-1.4c-0.7-1.4-0.5-3.1,0.6-4.2l19.4-17.5l-25.3,14.6c-1.7,1-3.8,0.5-4.8-1.2
	c-0.8-1.6-0.5-3.5,0.8-4.6l15.6-12.6l-12.8,7.4c-1.7,1-3.8,0.4-4.8-1.3c-0.8-1.4-0.6-3.2,0.6-4.3l16.7-15.3L205.5,578
	c-1.7,1.1-3.8,0.5-4.8-1.2c-1-1.4-0.6-3.4,0.7-4.4l19.9-18.8l-24.1,13.9c-1.7,1-3.8,0.4-4.8-1.3c-0.8-1.4-0.5-3.1,0.6-4.3l18.1-16.5
	L192.5,556c-1.7,1-3.8,0.4-4.8-1.3c-0.8-1.3-0.6-3.1,0.5-4.2l9.1-9.3L178,552.3c-1.7,1-3.8,0.4-4.8-1.3c-0.8-1.6-0.5-3.4,0.8-4.4
	l1.6-1.3l-1.9,1.1c-1.7,1-3.8,0.4-4.8-1.3c-0.8-1.4-0.6-3.2,0.7-4.4l12.7-11.3l-9,5.2c-1.7,1-3.8,0.2-4.8-1.4
	c-0.7-1.4-0.5-3.1,0.6-4.2l14.3-12.8c-1.2-1.6-1-3.7,0.6-4.9c0.1,0,0.2-0.2,0.4-0.2l13.7-7.9c1.7-1,3.8-0.2,4.8,1.4
	c0.7,1.4,0.5,3.1-0.6,4.2l-3.5,3.1l9.9-5.8c1.7-1,3.8-0.4,4.8,1.3c0.8,1.4,0.6,3.2-0.7,4.4l-12.6,11.3l14.6-8.5
	c1.7-1,3.8-0.4,4.8,1.3c0.8,1.6,0.5,3.5-0.8,4.6l-2.5,2c1.9-0.5,3.8,0.7,4.2,2.6c0.2,1.2,0,2.4-1,3.2l-9.1,9.5l25.1-14.5
	c1.7-1,3.8-0.4,4.8,1.3c0.8,1.4,0.5,3.1-0.6,4.3l-18.1,16.5l22.1-12.7c1.7-1.1,3.8-0.5,4.8,1.2c1,1.4,0.6,3.4-0.7,4.4l-19.8,18.8
	l29.7-17.1c1.7-1,3.8-0.4,4.8,1.3c0.8,1.4,0.6,3.2-0.6,4.3l-16.7,15.3l24.9-14.4c1.7-1,3.8-0.4,4.8,1.3c0.8,1.6,0.5,3.4-0.8,4.6
	L258.4,565l14.7-8.5c1.7-1,3.8-0.2,4.8,1.4c0.7,1.4,0.5,3.1-0.6,4.2L258,579.6l20-11.5c1.7-1,3.8-0.4,4.8,1.3
	c0.8,1.4,0.6,3.2-0.6,4.3l-8.7,8l15-8.6c1.7-1,3.8-0.4,4.8,1.3c0.8,1.4,0.6,3.2-0.6,4.3l-15.5,14.3L293,584c1.7-1,3.8-0.4,4.8,1.3
	c0.7,1.3,0.6,3-0.5,4.2L280.7,607c0.7,0.2,1.3,0.8,1.8,1.6c1,1.7,0.4,3.8-1.3,4.8l-14.5,8.4c0,0-1.2,0.5-1.8,0.5l0,0L265,621.4z"/>
<path id="XMLID_139_" class="st1" d="M265,621.4c-1.9,0-3.5-1.6-3.5-3.5c0-0.8,0.4-1.8,1-2.4l13.3-14.1L253,614.5
	c-1.7,1-3.8,0.4-4.8-1.3c-0.8-1.4-0.6-3.2,0.6-4.3l15.6-14.3l-14.6,8.5c-1.7,1-3.8,0.4-4.8-1.3c-0.8-1.4-0.6-3.2,0.6-4.3l8.7-8
	l-21.9,12.6c-1.7,1-3.8,0.2-4.8-1.4c-0.7-1.4-0.5-3.1,0.6-4.2l19.4-17.5l-25.3,14.6c-1.7,1-3.8,0.5-4.8-1.2
	c-0.8-1.6-0.5-3.5,0.8-4.6l15.6-12.6l-12.8,7.4c-1.7,1-3.8,0.4-4.8-1.3c-0.8-1.4-0.6-3.2,0.6-4.3l16.7-15.3L205.5,578
	c-1.7,1.1-3.8,0.5-4.8-1.2c-1-1.4-0.6-3.4,0.7-4.4l19.9-18.8l-24.1,13.9c-1.7,1-3.8,0.4-4.8-1.3c-0.8-1.4-0.5-3.1,0.6-4.3l18.1-16.5
	L192.5,556c-1.7,1-3.8,0.4-4.8-1.3c-0.8-1.3-0.6-3.1,0.5-4.2l9.1-9.3L178,552.3c-1.7,1-3.8,0.4-4.8-1.3c-0.8-1.6-0.5-3.4,0.8-4.4
	l1.6-1.3l-1.9,1.1c-1.7,1-3.8,0.4-4.8-1.3c-0.8-1.4-0.6-3.2,0.7-4.4l12.7-11.3l-9,5.2c-1.7,1-3.8,0.2-4.8-1.4
	c-0.7-1.4-0.5-3.1,0.6-4.2l14.3-12.8c-1.2-1.6-1-3.7,0.6-4.9c0.1,0,0.2-0.2,0.4-0.2l13.7-7.9c1.7-1,3.8-0.2,4.8,1.4
	c0.7,1.4,0.5,3.1-0.6,4.2l-3.5,3.1l9.9-5.8c1.7-1,3.8-0.4,4.8,1.3c0.8,1.4,0.6,3.2-0.7,4.4l-12.6,11.3l14.6-8.5
	c1.7-1,3.8-0.4,4.8,1.3c0.8,1.6,0.5,3.5-0.8,4.6l-2.5,2c1.9-0.5,3.8,0.7,4.2,2.6c0.2,1.2,0,2.4-1,3.2l-9.1,9.5l25.1-14.5
	c1.7-1,3.8-0.4,4.8,1.3c0.8,1.4,0.5,3.1-0.6,4.3l-18.1,16.5l22.1-12.7c1.7-1.1,3.8-0.5,4.8,1.2c1,1.4,0.6,3.4-0.7,4.4l-19.8,18.8
	l29.7-17.1c1.7-1,3.8-0.4,4.8,1.3c0.8,1.4,0.6,3.2-0.6,4.3l-16.7,15.3l24.9-14.4c1.7-1,3.8-0.4,4.8,1.3c0.8,1.6,0.5,3.4-0.8,4.6
	L258.4,565l14.7-8.5c1.7-1,3.8-0.2,4.8,1.4c0.7,1.4,0.5,3.1-0.6,4.2L258,579.6l20-11.5c1.7-1,3.8-0.4,4.8,1.3
	c0.8,1.4,0.6,3.2-0.6,4.3l-8.7,8l15-8.6c1.7-1,3.8-0.4,4.8,1.3c0.8,1.4,0.6,3.2-0.6,4.3l-15.5,14.3L293,584c1.7-1,3.8-0.4,4.8,1.3
	c0.7,1.3,0.6,3-0.5,4.2L280.7,607c0.7,0.2,1.3,0.8,1.8,1.6c1,1.7,0.4,3.8-1.3,4.8l-14.5,8.4c0,0-1.2,0.5-1.8,0.5l0,0L265,621.4z"/>
<path id="XMLID_138_" class="st1" d="M208.3,579.4c-1.9,0-3.5-1.6-3.5-3.5c0-1,0.5-2,1.2-2.6l11.1-9.7l-16.8,9.7
	c-1.7,1-3.8,0.4-4.8-1.3c-0.8-1.4-0.6-3.2,0.6-4.3l21.1-19.8l-20.3,11.7c-1.7,1-3.8,0.5-4.8-1.2c-0.8-1.4-0.6-3.2,0.6-4.3l20.1-19.5
	c-1.4-1.3-1.7-3.5-0.4-4.9c0.2-0.4,0.6-0.6,1-0.7l13.7-7.9c1.7-1,3.8-0.5,4.8,1.2c0.8,1.4,0.6,3.2-0.6,4.3l-13.2,12.8l22.4-12.8
	c1.7-1,3.8-0.5,4.8,1.2c0.8,1.4,0.6,3.2-0.7,4.4L223.7,552l20.9-12.1c1.7-1,3.8-0.4,4.8,1.3c0.8,1.4,0.6,3.4-0.7,4.4l-15.7,13.9
	c1.8,0.6,2.8,2.6,2.2,4.4c-0.2,0.8-0.8,1.4-1.6,1.9l-23.3,13.4c0,0-1.2,0.5-1.8,0.5L208.3,579.4z"/>
<path id="XMLID_137_" class="st1" d="M265.4,621.2c-1.9,0-3.5-1.6-3.5-3.5c0-1,0.4-1.8,1-2.4l12.3-13.1l-21.8,12.6
	c-1.7,1-3.8,0.4-4.8-1.3c-0.8-1.4-0.5-3.4,0.7-4.4l11.9-10.3l-11.5,6.7c-1.7,1-3.8,0.4-4.8-1.3c-0.7-1.3-0.6-3,0.5-4.2l17-18.6
	c-1.8-0.7-2.8-2.8-2-4.6c0.2-0.7,0.8-1.4,1.6-1.8l13.7-7.9c1.7-1,3.8-0.4,4.8,1.3c0.7,1.3,0.6,3-0.5,4.2l-14.1,15.5l24.1-13.9
	c1.7-1,3.8-0.4,4.8,1.3c0.8,1.4,0.6,3.4-0.7,4.4l-11.9,10.3l10.8-6.2c1.7-1,3.8-0.4,4.8,1.3c0.7,1.3,0.6,3-0.5,4.2L280.6,607
	c0,0,1.1,0.7,1.4,1.3c1,1.7,0.4,3.8-1.3,4.8l-13.7,7.9c0,0-1.2,0.5-1.8,0.5l0,0L265.4,621.2z"/>
<path id="XMLID_136_" class="st1" d="M405.6,522.8c-1.9,0-3.5-1.6-3.5-3.5c0-1,0.4-1.8,1-2.5l9.8-9.9l-12.9,7.4
	c-1.7,1-3.8,0.5-4.8-1.2c-0.8-1.4-0.6-3.2,0.6-4.4l11.6-11.1l-15.5,9c-1.7,1-3.8,0.4-4.8-1.3c-0.8-1.4-0.5-3.2,0.6-4.3l14.5-13.3
	l-18.8,10.8c-1.7,1-3.8,0.4-4.8-1.3c-0.8-1.4-0.5-3.4,0.7-4.4l14.3-12.1l-18,10.4c-1.7,1-3.8,0.4-4.8-1.3c-0.8-1.6-0.5-3.5,1-4.6
	l6-4.6l-8.2,4.7c-1.7,1-3.8,0.4-4.8-1.3c-0.8-1.4-0.5-3.4,0.8-4.4l19.3-15.7l-23.5,13.5c-1.7,1-3.8,0.4-4.8-1.3
	c-0.8-1.4-0.5-3.4,0.7-4.4l27.9-23.5l-33.9,19.5c-1.7,1-3.8,0.4-4.8-1.3c-0.8-1.6-0.5-3.5,1-4.6l18.9-14.1l-22.4,12.9
	c-1.7,1-3.8,0.2-4.8-1.4c-0.7-1.4-0.5-3.1,0.6-4.2l25.3-22.7l-31.6,18.2c-1.7,1-3.8,0.4-4.8-1.3c-0.8-1.6-0.5-3.5,1-4.6l1.9-1.4
	l-3.5,2c-1.7,1-3.8,0.4-4.8-1.3c-0.8-1.4-0.5-3.4,0.7-4.4l18.1-15.3L319.8,437c-1.7,1-3.8,0.4-4.8-1.3c-0.8-1.4-0.5-3.4,0.8-4.4
	l15-12.5L312,429.7c-1.7,1-3.8,0.4-4.8-1.3c-0.8-1.4-0.5-3.4,0.8-4.4l11.6-9.5l-23.3,13.4c-1.7,1-3.8,0.2-4.8-1.4
	c-0.8-1.7-0.4-3.6,1.2-4.6l61.6-35.6c1.7-1,3.8-0.4,4.8,1.3c0.8,1.4,0.5,3.4-0.8,4.4l-11.6,9.5l16.4-9.5c1.7-1,3.8-0.4,4.8,1.3
	c0.8,1.4,0.5,3.4-0.8,4.4l-15,12.5l20.6-11.9c1.7-1,3.8-0.4,4.8,1.3c0.8,1.4,0.5,3.4-0.7,4.4l-18.1,15.3l24.5-14.1
	c1.7-1,3.8-0.4,4.8,1.4c0.8,1.6,0.5,3.5-1,4.4l-1.9,1.4l5.9-3.4c1.7-1,3.8-0.2,4.8,1.4c0.7,1.4,0.5,3.1-0.6,4.2l-25.3,22.7
	l44.3-25.6c1.7-1,3.8-0.4,4.8,1.3c0.8,1.6,0.5,3.5-1,4.6L399.3,432l17.3-9.9c1.7-1,3.8-0.4,4.8,1.3c0.8,1.4,0.5,3.4-0.7,4.4
	l-27.9,23.5l27.1-15.6c1.7-1,3.8-0.4,4.8,1.3c0.8,1.4,0.5,3.4-0.8,4.4l-19.3,15.7l17.9-10.3c1.7-1,3.8-0.4,4.8,1.3
	c0.8,1.6,0.5,3.5-1,4.6l-6,4.6l4-2.3c1.7-1,3.8-0.4,4.8,1.3c0.8,1.4,0.5,3.4-0.7,4.4l-14.3,12.1l12.6-7.3c1.7-1,3.8-0.4,4.8,1.3
	c0.8,1.4,0.5,3.1-0.6,4.3l-14.5,13.3l12.9-7.4c1.7-1,3.8-0.4,4.8,1.3c0.8,1.4,0.6,3.1-0.6,4.3l-11.6,11.1l9.9-5.8
	c1.7-1,3.8-0.4,4.8,1.3c0.8,1.3,0.6,3.1-0.6,4.2l-9.8,9.9l8-4.7c1.7-1,3.8-0.4,4.8,1.3c1,1.7,0.4,3.8-1.3,4.8l-30.4,17.6
	c0,0-1.2,0.5-1.8,0.5l0,0L405.6,522.8z"/>
<path id="XMLID_135_" class="st1" d="M235.1,466.6c-1.9,0-3.5-1.6-3.5-3.5c0-1.2,0.6-2.3,1.6-2.9l36.7-24.9l-42.3,24.5
	c-1.7,1-3.8,0.4-4.8-1.3c-1-1.6-0.5-3.6,1.1-4.7l29.4-19.8l-30,17.3c-1.7,1-3.8,0.4-4.8-1.3c-1-1.6-0.5-3.6,1.1-4.7l30.4-20.9
	l-25.6,14.9c-1.7,1-3.8,0.4-4.8-1.3c-0.8-1.6-0.5-3.5,1-4.6l21.1-15.5l-2.8,1.6c-1.7,1-3.8,0.4-4.8-1.3c-0.8-1.4-0.6-3.4,0.7-4.4
	l13.2-11.5c0,0-0.5-0.5-0.6-0.8c-1-1.7-0.4-3.8,1.3-4.8l17.4-10.1c1.7-1,3.8-0.5,4.8,1.2c0.8,1.4,0.6,3.4-0.7,4.4l-3.5,3l29-16.8
	c1.7-1,3.8-0.4,4.8,1.3c0.8,1.6,0.5,3.5-1,4.6l-21.2,15.5l49-28.4c1.7-1,3.8-0.5,4.8,1.2c1,1.7,0.5,3.7-1.1,4.8l-30.4,20.7
	l38.5-22.2c1.7-1,3.8-0.4,4.8,1.3c1,1.6,0.5,3.6-1.1,4.7l-29.4,19.8l34.4-19.9c1.7-1,3.8-0.4,4.8,1.3c1,1.6,0.5,3.6-1.1,4.7
	l-73.8,50.3l0,0c1,1.8,0.4,4-1.3,4.9l-39.6,22.9c0,0-1.2,0.5-1.8,0.5l0,0L235.1,466.6z"/>
<path id="XMLID_134_" class="st2" d="M440,526.9c-1.1,0-2-0.5-2.8-1.3c-1.1-1.3-1-3.4,0.2-4.6l7.6-8l-10.3,6c-1.7,1-3.8,0.4-4.8-1.3
	c-0.8-1.4-0.6-3.4,0.7-4.4l2.4-2c-1.7,1-3.8,0.4-4.8-1.3c-0.7-1.3-0.6-2.9,0.4-4.1l14.1-16.2l-12.8,7.4c-1.7,1-3.8,0.4-4.8-1.3
	c-0.7-1.3-0.6-3,0.5-4.2l11.7-12.2l-10.1,5.8c-1.7,1-3.8,0.2-4.8-1.4c-0.7-1.4-0.5-3.1,0.6-4.2l5.2-4.7l-2.9,1.7
	c-1.7,1-3.8,0.5-4.8-1.2c-0.8-1.4-0.6-3.2,0.7-4.4l7.6-7.1l-5.4,3.1c-1.7,1-3.8,0.4-4.8-1.3c-0.7-1.3-0.6-3,0.5-4.1l14.1-15.7
	l-12.8,7.4c-1.7,1-3.8,0.2-4.8-1.4c-0.7-1.3-0.5-3,0.6-4.1l11.1-11.3l-9.5,5.4c-1.7,1-3.8,0.4-4.8-1.3c-0.7-1.3-0.6-3,0.5-4.1
	l14.5-16.1l-13.3,7.7c-1.7,1-3.8,0.4-4.8-1.3c-0.7-1.3-0.6-3,0.5-4.2l9.9-10.8l-8.2,4.7c-1.7,1-3.8,0.4-4.8-1.3
	c-0.7-1.1-0.6-2.5,0-3.7l3-4.8c-1.9,0.1-3.6-1.3-3.8-3.2c0-1.3,0.6-2.6,1.8-3.4l10.4-6c1.7-1,3.8-0.4,4.8,1.3c0.6,1.1,0.6,2.5,0,3.6
	l-2.6,4.2l15.8-9.1c1.7-1,3.8-0.4,4.8,1.3c0.7,1.3,0.6,3-0.5,4.2l-9.9,10.8l12.6-7.3c1.7-1,3.8-0.4,4.8,1.3c0.7,1.3,0.6,3-0.5,4.1
	l-14.5,16.1l12.9-7.4c1.7-1,3.8-0.2,4.8,1.4c0.7,1.3,0.5,3-0.6,4.1l-11.1,11.3l9.2-5.3c1.7-1,3.8-0.4,4.8,1.3c0.7,1.3,0.6,3-0.5,4.1
	l-14.1,15.7l12.6-7.3c1.7-1,3.8-0.5,4.8,1.2c0.8,1.4,0.6,3.2-0.7,4.4l-7.6,7.1l5.3-3c1.7-1,3.8-0.2,4.8,1.4c0.7,1.4,0.5,3.1-0.6,4.2
	l-5.2,4.7l2.8-1.6c1.7-1,3.8-0.4,4.8,1.3c0.7,1.3,0.6,3-0.5,4.2l-11.6,12.2l9.8-5.6c1.7-1,3.8-0.4,4.8,1.3c0.7,1.3,0.6,2.9-0.4,4.1
	l-14.1,16.2l12.6-7.3c1.7-1,3.8-0.4,4.8,1.3c0.8,1.4,0.5,3.2-0.7,4.4l-2.4,2c1.7-0.8,3.8-0.2,4.8,1.6c0.7,1.3,0.5,2.9-0.6,4l-7.6,8
	l3.4-1.9c1.7-1,3.8-0.4,4.8,1.3c1,1.7,0.4,3.8-1.3,4.8l-23.9,13.8c0,0-1.2,0.5-1.8,0.5l0,0L440,526.9z"/>
<path id="XMLID_133_" class="st2" d="M148.7,523.5c-1.9,0-3.5-1.6-3.5-3.5c0-0.7,0.2-1.3,0.6-1.9l3.8-6l-15.3,8.9
	c-1.7,1-3.8,0.4-4.8-1.3c-0.8-1.4-0.6-3.2,0.7-4.4l4.4-4l-3.7,2.2c-1.7,1-3.8,0.4-4.8-1.3c-0.8-1.4-0.6-3.2,0.7-4.4l10.3-9.2
	l-7.1,4.1c-1.7,1-3.8,0.5-4.8-1.2c-0.8-1.4-0.6-3.2,0.6-4.4l18.8-18.1l-12.5,7.2c-1.7,1-3.8,0.4-4.8-1.3c-0.8-1.4-0.6-3.2,0.6-4.3
	l17.3-15.9l-11,6.4c-1.7,1-3.8,0.4-4.8-1.3c-0.8-1.4-0.6-3.4,0.7-4.4l14.4-12.7l-8.5,4.9c-1.7,1-3.8,0.4-4.8-1.3
	c-0.8-1.6-0.5-3.5,0.8-4.6l3.8-3c-1.9,0.2-3.7-1.1-4-3.1c-0.1-1.2,0.2-2.3,1.2-3.1l15.9-14.1l-9.9,5.8c-1.6,1.1-3.8,0.7-4.9-0.8
	c-1.1-1.6-0.7-3.8,0.8-4.9l9.1-7.6l-3.5,2c-1.7,1-3.8,0.5-4.8-1.2c-0.8-1.4-0.6-3.4,0.7-4.4l3.5-3c-1.9,0-3.5-1.6-3.5-3.6
	c0-0.8,0.4-1.7,0.8-2.3l3.7-4.2c-1.9-0.1-3.4-1.8-3.2-3.8c0-1.2,0.7-2.2,1.8-2.8l15.5-8.9c1.7-1,3.8-0.4,4.8,1.3
	c0.7,1.3,0.6,3-0.4,4.1l-2.4,2.8l11-6.4c1.7-1,3.8-0.4,4.8,1.3c0.8,1.4,0.5,3.4-0.7,4.4l-1.4,1.2l4.4-2.5c1.7-1,3.8-0.4,4.8,1.3
	c0.8,1.4,0.5,3.4-0.8,4.4l-9.1,7.7l5.8-3.2c1.7-1,3.8-0.4,4.8,1.3c0.8,1.4,0.5,3.2-0.7,4.3l-15.9,14.1l9.2-5.3
	c1.7-1,3.8-0.4,4.8,1.3c0.8,1.6,0.5,3.4-0.8,4.4l-4.2,3.4c1.2-0.1,2.4,0.5,3.1,1.4c1.1,1.4,0.8,3.5-0.5,4.7l-14.4,12.7l7.8-4.4
	c1.7-1,3.8-0.4,4.8,1.3c0.8,1.4,0.6,3.2-0.6,4.3l-17.3,15.9l10.3-5.9c1.7-1,3.8-0.5,4.8,1.2c0.8,1.4,0.6,3.2-0.6,4.4l-18.9,18.2
	l11.6-6.7c1.7-1,3.8-0.4,4.8,1.3c0.8,1.4,0.6,3.2-0.7,4.4l-10.3,9.2l4-2.3c1.7-1,3.8-0.4,4.8,1.3c0.8,1.4,0.6,3.2-0.7,4.4l-5,4.4
	c1.9-0.5,3.8,0.7,4.2,2.6c0.2,1,0,1.9-0.5,2.8l-4.9,7.6c1,0.2,1.9,0.8,2.4,1.7c1,1.7,0.4,3.8-1.3,4.8l-9.3,5.4c0,0-1.1,0.5-1.8,0.5
	l0,0L148.7,523.5z"/>
<path id="XMLID_132_" class="st2" d="M117.1,549.2c-1.9,0-3.5-1.6-3.5-3.5c0-0.7,0.2-1.3,0.6-1.9l4.4-7.1l-16.9,9.7
	c-1.7,1-3.8,0.2-4.8-1.4c-0.7-1.3-0.5-2.9,0.5-4l14.7-15.3l-18.5,10.7c-1.7,1-3.8,0.4-4.8-1.3c-0.8-1.4-0.5-3.4,0.8-4.4l3.1-2.4
	c-1.4,0.4-2.9-0.1-3.7-1.3c-1.1-1.4-0.8-3.5,0.5-4.7l21-19.2l-16.9,9.7c-1.7,1-3.8,0.4-4.8-1.4c-0.7-1.4-0.5-3.1,0.6-4.2l23.9-21.7
	l-19.7,11.4c-1.7,1-3.8,0.4-4.8-1.3c-0.8-1.6-0.5-3.5,1-4.6l3.2-2.4c-1.8,0.6-3.8-0.4-4.4-2.2c-0.5-1.4,0-3,1.2-4l2.9-2.2
	c-1.9,0.5-3.8-0.7-4.2-2.6c-0.4-1.3,0.2-2.8,1.3-3.6l14.1-11.1l-10.3,5.9c-1.7,1-3.8,0.4-4.8-1.3c-0.8-1.6-0.5-3.5,1-4.6l7.3-5.4
	l-3.5,2c-1.7,1-3.8,0.4-4.8-1.3c-0.8-1.6-0.5-3.5,0.8-4.6l16.1-12.3l-12.1,7c-1.7,1-3.8,0.4-4.8-1.3c-0.8-1.6-0.5-3.5,1-4.4l15-11.4
	l-11.1,6.5c-1.7,1-3.8,0.4-4.8-1.3c-0.8-1.6-0.5-3.5,1-4.6L99,425l-5.3,3.1c-1.7,1-3.8,0.4-4.8-1.3c-0.8-1.4-0.5-3.4,0.8-4.4
	l21.3-17.5L93.8,415c-1.6,0.8-3.5,0.5-4.6-1c-1.1-1.4-0.8-3.5,0.5-4.7l13.9-12.8l-9.7,5.6c-1.7,1-3.8,0.4-4.8-1.3
	c-0.7-1.3-0.5-3.1,0.6-4.2l4.2-4.2c-1.7,1-3.8,0.4-4.8-1.3c-0.6-1.1-0.6-2.3,0-3.4l3.1-5.8c-1.9-0.2-3.4-1.9-3.1-4
	c0.1-1.1,0.7-2,1.8-2.6l7.9-4.6c1.7-1,3.8-0.4,4.8,1.3c0.6,1.1,0.6,2.4,0,3.5l-2.4,4.6l12.6-7.2c1.7-1,3.8-0.4,4.8,1.3
	c0.7,1.3,0.5,3.1-0.6,4.2l-4.2,4.2l13.5-7.9c1.7-1,3.8-0.4,4.8,1.3c0.8,1.4,0.6,3.2-0.6,4.3l-13.9,12.8l27.6-15.9
	c1.7-1,3.8-0.4,4.8,1.3c0.8,1.4,0.5,3.4-0.8,4.4l-21.3,17.5l24.2-14c1.7-1,3.8-0.4,4.8,1.3c0.8,1.6,0.5,3.5-1,4.6l-9.1,6.7l3.6-2
	c1.7-1,3.8-0.4,4.8,1.3c0.8,1.6,0.5,3.5-1,4.6l-15,11.4l9-5.2c1.7-1,3.8-0.4,4.8,1.3c0.8,1.6,0.5,3.4-0.8,4.4l-16.1,12.3l9.8-5.8
	c1.7-1,3.8-0.4,4.8,1.3c0.8,1.6,0.5,3.5-1,4.6l-7.3,5.4l1.6-0.8c1.7-1,3.8-0.4,4.8,1.3c0.8,1.6,0.5,3.4-0.8,4.4l-14.1,11.1l8-4.7
	c1.7-1,3.8-0.4,4.8,1.3c0.8,1.6,0.5,3.5-1,4.6l-4.1,3c1.3,0,2.5,0.5,3.2,1.6c1.1,1.6,0.7,3.6-0.8,4.8l-4.3,3.2
	c1.3-0.2,2.6,0.4,3.4,1.4c1.1,1.4,0.8,3.5-0.5,4.7l-23.9,21.7l16.5-9.6c1.7-1,3.8-0.4,4.8,1.3c0.8,1.4,0.5,3.1-0.6,4.3l-21,19.2
	l13.9-8c1.7-1,3.8-0.4,4.8,1.3c0.8,1.4,0.5,3.4-0.8,4.4l-4.2,3.2c1.2,0,2.4,0.4,3.1,1.3c1.1,1.4,1,3.4-0.2,4.6l-14.9,15.3l7.7-4.4
	c1.7-1,3.8-0.4,4.8,1.3c0.6,1.1,0.6,2.5,0,3.6l-5.3,8.4c1.9,0.2,3.2,2,3,4c-0.1,1.1-0.7,2-1.7,2.6l-9.5,5.4c0,0-1.2,0.5-1.8,0.5l0,0
	H117.1z"/>
<path id="XMLID_131_" class="st1" d="M475.5,551.4c-1.9,0-3.5-1.6-3.5-3.5c0-1,0.4-1.9,1.1-2.5l2.5-2.4l-7,4.1
	c-1.7,1-3.8,0.4-4.8-1.3c-0.8-1.4-0.5-3.4,0.8-4.4l2.8-2.3l-1.1,0.6c-1.7,1-3.8,0.4-4.8-1.4c-0.7-1.3-0.5-3,0.6-4.2l16.9-17
	l-15.7,9.1c-1.7,1-3.8,0.4-4.8-1.3c-0.8-1.4-0.6-3.1,0.6-4.2l19.1-18.7l-17.9,10.3c-1.7,1-3.8,0.4-4.8-1.3c-0.8-1.4-0.5-3.4,0.8-4.4
	l5.5-4.4l-3.5,2c-1.7,1-3.8,0.5-4.8-1.2c-1-1.6-0.6-3.5,0.8-4.6l6.6-5.3l-4.6,2.6c-1.7,1-3.8,0.4-4.8-1.3c-0.8-1.4-0.5-3.2,0.7-4.4
	l18.3-16.1l-16.9,9.8c-1.7,1-3.8,0.2-4.8-1.4c-0.7-1.4-0.5-3.1,0.6-4.2l23.6-21.3l-22.5,13.1c-1.7,1-3.8,0.4-4.8-1.3
	c-0.8-1.6-0.5-3.5,0.8-4.6l14.5-11.5l-12.7,7.3c-1.7,1-3.8,0.4-4.8-1.3c-0.8-1.6-0.5-3.5,1-4.6l6.2-4.7l-4.2,2.4
	c-1.7,1-3.8,0.4-4.8-1.3c-0.8-1.6-0.5-3.5,1-4.6l5.2-3.8l-3.1,1.8c-1.7,1-3.8,0.4-4.8-1.3c-0.8-1.6-0.5-3.5,0.8-4.6l14.5-11.1
	l-12.7,7.3c-1.7,1-3.8,0.4-4.8-1.3c-0.8-1.4-0.5-3.4,0.7-4.4l29.7-25.3l-28.9,16.7c-1.6,1.1-3.8,0.7-4.9-1c-1.1-1.6-0.7-3.8,1-4.9
	l16.5-13.1l-14.9,8.5c-1.7,1-3.8,0.4-4.8-1.3c-0.8-1.4-0.5-3.4,0.7-4.4l4.3-3.8l-2.2,1.2c-1.7,1-3.8,0.4-4.8-1.3
	c-0.7-1.2-0.6-2.6,0-3.7l2.6-4c-1.9-0.1-3.5-1.8-3.4-3.7c0-1.2,0.7-2.3,1.8-2.9l10.4-6c1.7-1,3.8-0.4,4.8,1.3c0.7,1.2,0.6,2.6,0,3.7
	l-1.9,2.9l21.1-12.1c1.7-1,3.8-0.4,4.8,1.3c0.8,1.4,0.5,3.2-0.7,4.3l-4.3,3.8l23.7-13.7c1.7-1,3.8-0.4,4.8,1.3
	c0.8,1.6,0.5,3.5-0.8,4.6l-16.4,13.1l21.5-12.5c1.7-1,3.8-0.4,4.8,1.3c0.8,1.4,0.5,3.4-0.7,4.4L473,408.2l25.6-14.9
	c1.7-1,3.8-0.4,4.8,1.3c0.8,1.6,0.5,3.5-0.8,4.6l-14.5,11.1l10.7-6.1c1.7-1,3.8-0.4,4.8,1.3c0.8,1.6,0.5,3.5-1,4.6l-5.2,3.8l1.3-0.7
	c1.7-1,3.8-0.4,4.8,1.3c0.8,1.6,0.5,3.5-1,4.6l-6.2,4.7l2.4-1.4c1.7-1,3.8-0.4,4.8,1.3c0.8,1.4,0.5,3.4-0.8,4.4l-14.4,11.5l10.4-6
	c1.7-1,3.8-0.2,4.8,1.4c0.7,1.4,0.5,3.1-0.6,4.2l-23.6,21.3l19.5-11.3c1.7-1,3.8-0.4,4.8,1.3c0.8,1.4,0.5,3.2-0.7,4.4l-18.3,16.1
	l14.3-8.3c1.6-1,3.6-0.5,4.7,1.1c1.1,1.6,0.7,3.6-0.7,4.8l-6.6,5.3l2.6-1.6c1.7-1,3.8-0.4,4.8,1.3c0.8,1.6,0.5,3.5-0.8,4.6l-5.6,4.4
	l1.7-1c1.7-1,3.8-0.4,4.8,1.3c0.8,1.4,0.6,3.1-0.6,4.2L484,506l14.7-8.5c1.7-1,3.8-0.4,4.8,1.4c0.7,1.3,0.5,3-0.6,4.2l-17,17
	l12.7-7.3c1.7-1,3.8-0.4,4.8,1.3c0.8,1.4,0.5,3.4-0.8,4.4l-3.2,2.6c1.9-0.5,3.8,0.6,4.3,2.5c0.4,1.2,0,2.6-1,3.5l-3.1,2.9
	c1.9-0.4,3.7,0.8,4.2,2.8c0.2,1.4-0.4,3-1.7,3.7L477.3,551c0,0-1.1,0.5-1.7,0.5l0,0L475.5,551.4z"/>
<path id="XMLID_169_" class="st3" d="M227,300.5c-8.6-2-16.4-2.2-25.4-4.2c-13.4-36-22.4-33.8-35.7,0.7c-36.6,4-36.2,7.1-10.1,31.5
	c-7.9,34.2-4.6,40,26.6,19.7c31.6,20.6,37.5,13.8,28.8-21.5C214.8,320.3,239.4,306.1,227,300.5C227,300.5,227,300.5,227,300.5z
	 M220,307.3c-16.5,14.9-22.5,21.1-15.5,43.7c-16.4-13.9-26.2-9.7-42.5,1.3c6.4-29,4.8-27.6-14.6-46.6c19.1-1.1,30.6-4.4,35.7-24.5
	c7,22.9,16.2,22.8,37.6,25.1h0.1c0,0.2-0.7,0.7-1,1l0,0H220z"/>
<path id="XMLID_166_" class="st3" d="M451.4,300.5c-8.6-2-16.4-2.2-25.4-4.2c-13.4-36-22.4-33.8-35.7,0.7
	c-36.6,4-36.3,7.1-10.1,31.5c-7.9,34.2-4.6,40,26.6,19.7c31.6,20.6,37.5,13.8,28.8-21.5C439.2,320.3,463.8,306.1,451.4,300.5
	C451.4,300.5,451.4,300.5,451.4,300.5z M444.3,307.3c-16.5,14.9-22.5,21.1-15.5,43.7c-16.4-13.9-26.2-9.7-42.5,1.3
	c6.4-29,4.7-27.6-14.6-46.6c19.1-1.1,30.6-4.4,35.7-24.5c7,22.9,16.2,22.8,37.6,25.1h0.1c0,0.2-0.7,0.7-1,1l0,0H444.3z"/>
<path id="XMLID_129_" class="st3" d="M356.4,250.5c-11.6-2.7-22.1-2.9-34.3-5.7c-18.1-48.5-30.2-45.6-48.2,1
	c-49.3,5.3-49,9.5-13.6,42.5c-10.7,46.1-6.1,54,35.9,26.5c42.7,27.8,50.6,18.6,38.8-28.9C339.9,277.2,373,258.1,356.4,250.5
	C356.4,250.5,356.4,250.5,356.4,250.5z M346.8,259.8c-22.3,20-30.4,28.5-20.9,59c-22.1-18.8-35.4-13.1-57.4,1.8
	c8.6-39.1,6.3-37.2-19.7-62.9c25.7-1.5,41.2-6,48.2-33c9.4,30.9,21.8,30.7,50.8,33.8h0.2c0,0.3-1,1-1.3,1.3l0,0H346.8z"/>
<path id="XMLID_123_" class="st3" d="M268.7,615.4L268.7,615.4C268.7,615.4,268.6,615.4,268.7,615.4z"/>
<path id="XMLID_153_" class="st3" d="M86.8,528.2c-2.5,12.2,4.3,19.2,16.4,18.6c19.2,4.9,31.9-4.6,32-24.5
	c10.5,1.7,23.3,3.2,27.8-7.3l14,3.2c-19.8,12.5-11,42.8,13.4,36.8c-2.9,10.4,3.4,21.1,13.8,24c3.4,1,7,1,10.3,0
	c-4.8,16.3,14,28.3,28.3,21.8c0.5,30.4,38.2,19.9,48.9,0.8c11.7,18.7,44.9,15.9,46.3-7.3c12,3.6,28.9-7,27.9-19.7
	c14.9,5.4,36.4-12.8,25.6-28.4c12.7-1.6,24.2-12.6,20.4-24.7l15.7-4.3c3.7,13.2,17.6,10.3,28.8,8c1.8,18.6,8.6,30.8,29.1,23.4
	c6.7-1.2,17.4-1.7,19.8-9.5c1-18.3,0-37.2,0.4-55.6c0-34.8,0-69.5,0-104.3c-6-17-30.3-1.8-43.4-2.4c-10.5,1.9-32.4,2.3-34.4,15.5
	c-10.9,1.7-25.2,4-24.1,17.1c-15.1,2.4-27.7-14.1-40.6-20.5c-14.9-10.5-29.6-21.5-48.7-14.3c-17-3.8-33.7-11.1-51.1-13.1
	c-32.2-0.2-49.1,44.7-80.2,41.7c0.4-12.7-13.5-13.8-24.5-15c-2.9-17.9-29.4-11-42.5-15.5c-10.1-1.4-28.8-5.3-29.5,9.9
	c-1.7,48.4,0.7,97.1,0,145.5l0,0L86.8,528.2z M187.2,550.5c-15.1-4-14-23.1-2.6-30.9c3,0.2,7.1-2.5,5.4-5.6c1.8-2,3.7-4,5.9-5.5
	c0,0,0.8-0.5,1.1-0.6c0.1,0,0.2,0,0.4,0c-1.2,0.2,1.4-0.2,1.6-0.1c27.4,6.6,6.2,32-6.6,42.4c0.4-0.2-1.1,0.5-1,0.5
	c-0.2,0.1-0.6,0.4,0,0c-1.3,0.4-2.8,0.4-4.2,0l0,0L187.2,550.5z M210.1,572.9c-25.5-11.1,3.7-37.9,17-46.1
	C259.5,530,227.2,573.1,210.1,572.9L210.1,572.9z M229.7,593.9c-18.1-15.8,14.7-42.3,27.9-49.1c8.3,1.6,13.8,9.5,12.3,17.7
	c-0.5,2.6-1.7,5-3.4,7.1c-11.1,7.2-21.6,34.5-36.9,24.2l0,0V593.9z M273.5,611.2c-1.2,1.4-2.6,2.6-4.1,3.7c0,0-0.8,0.5-1.1,0.6
	c-0.1,0-0.2,0-0.4,0c1.2-0.2-1.4,0.2-1.6,0c-27.1-6.5-6.8-32.5,6.6-42.5c26.2-0.7,16.5,27,0.5,38l0,0V611.2z M447,383.8
	c12.2,1,43.5-15.7,48.2-1.9c-0.5,53.5,1.3,107.6-0.5,160.7c-29.2,12.6-27-17.9-32.1-37.5C463.2,484.8,422.8,382.2,447,383.8z
	 M417.4,401.3c3.5-1.2,7.1-1.9,10.8-2.2c8.7,39.8,18,79.3,26.5,119.1c-22.1,9.5-18.8-18.8-23.4-32.5c-1.8-24.8-21.9-63.6-13.8-84.5
	l0,0H417.4z M336.2,381.2c22.2,10.4,41.7,38.7,68.1,32.4c7.6,33.3,14.3,66.8,22.2,100l-16.4,4.4c-32-32.4-64.8-67.1-100.6-94.8
	c-26.5-7.2-39.4,20-56.2,34.9c-7,5.8-17.1,4.8-22.9-2.2c-0.7-0.8-1.3-1.8-1.9-2.9c-9.8-22.4,20.3-46.9,35.5-60.2
	c23.1-4.7,48.7-20.7,72-11.5l0,0L336.2,381.2z M204.6,404.5c37.2-28.3,47.8-47.3,96.4-26.4c-15.8,5.2-33,7.2-47.7,14.7
	c-14.4,16.2-47.3,40.3-33.7,64.4c7.7,9.2,20.5,12.3,31.6,7.7c21.3-5.6,31.2-47,55.6-34.8c31,28.5,60.8,59,91.6,88
	c9,10.8-0.7,30.9-14.4,19.5c-22.9-1.3,6.1,12.7-0.5,24.1c-3.7,12-16.9,8-22.7,0c-2-2-11.7,1.3-9.6,3.7c12.3,16.1-3.5,35.8-18.6,15.8
	c-2-1.9-11.7,1.3-9.6,3.7c15.9,26.7-11.6,30.4-25.5,9c8.4-13.4-5.6-29.5-20.3-26.4c11.1-16.8-8.9-35-25.8-27.2
	c1.8-15.2-16.2-24.6-28.9-18.7c1.8-21.3-28-24.9-39.3-10.7l-18.6-4.2c5.6-32.6,12.1-65.1,17.5-97.8c7.8,1.4,15.8-0.4,22.2-4.9l0,0
	L204.6,404.5z M172.7,406.9c-5.9,33.9-12.3,67.8-18.3,101.8c0.4,11.1-10.3,8.5-18,6.6c7.2-40,14.3-80.1,21.5-120.1
	c7.4,0.2,17.1,2.2,14.9,11.6l0,0V406.9z M97,381.2c0.2-4-1.4-7,4.2-5.2c14.3,5.5,44.6-3.2,47.6,15.9c-9,48.9-17.1,98.2-26.2,146.9
	c-1.6,5.2-2.6,4.8-7.2,4.2c-7.6-0.8-19.7-0.4-18.3-10.9C97,481.8,97,431.5,97,381.2C97,381.2,97,381.2,97,381.2z"/>
</svg>
