<?xml version="1.0" encoding="utf-8"?>
<!-- Generator: Adobe Illustrator 19.0.0, SVG Export Plug-In . SVG Version: 6.00 Build 0)  -->
<svg version="1.1" id="Layer_1" xmlns="http://www.w3.org/2000/svg" xmlns:xlink="http://www.w3.org/1999/xlink" x="0px" y="0px"
	 viewBox="0 0 612 792" style="enable-background:new 0 0 612 792;" xml:space="preserve">
<style type="text/css">
	.st0{fill:#2C2B2A;}
	.st1{fill:#DAE5E4;}
	.st2{fill:#F47A20;}
	.st3{fill:#37B792;}
	.st4{fill:#9382BC;}
	.st5{fill:#2D2B27;}
</style>
<g id="XMLID_34_">
	<path id="XMLID_1533_" class="st0" d="M124.3,397.1c0-43.4,0.1-86.7-0.1-130.1c0-7.7,2.4-14.2,7.7-19.6
		c11.3-11.3,22.6-22.6,34.1-33.7c4-3.8,9-5.7,14.5-6c27-1.5,54-0.2,80.9,0c32.5,0.2,65-0.6,97.5,0c11.5,0.2,18.2,6.7,18.2,18.1
		c0,18.5-0.1,37-0.1,55.5c0,26.1,0,52.2-0.1,78.4c0,3,0,4.2,3.9,3.7c57.4-7.5,111.4,32.6,122.3,89.5c9.4,49.2-20.2,108.3-77.8,126
		c-44.7,13.7-84.1,3.2-117.6-29.4c-1.6-1.6-3.2-1.9-5.3-1.9c-51.1,0-102.2,0-153.3,0c-4.1,0-8.3-0.1-12.3-1.2
		c-8.5-2.2-12.5-7.2-12.6-16.2c-0.1-15-0.1-30-0.1-45C124.2,455.8,124.2,426.4,124.3,397.1C124.3,397.1,124.3,397.1,124.3,397.1z
		 M207.4,395.2L207.4,395.2c-0.9-0.3-1.2,0.4-1.6,1c-1.3,1-2.1,1.9,0,2.9c1.4,1.9,3.2,3.4,5.3,4.6c0.7,1,1.6,1.7,2.8,2.1
		c1.8,1.7,3.8,3,6.1,4c1.7,1.4,3.6,2.4,5.7,3c2.4,1.5,4.9,2.5,7.6,3.1c2.3,1.3,4.9,1.9,7.5,2.3c3.4,1,7,1.4,10.5,1.8
		c2.7,0.3,5.4,0.5,8.2,0.2c13.7,0.1,26.4-3.6,38.2-10.4c2-1.1,3.7-2.4,5.2-4.2c4.4-5.7,9.6-10.8,15.2-15.4c2.5-2,4.4-4.4,5.6-7.3
		c0.4-0.7,1.4-1.2,1-2.3l0,0c0.9-0.1,0.8-1,1.1-1.6c2.4-3.9,4-8.1,5.3-12.4c0.8-2.1,1.6-4.2,1.8-6.4c1.1-3.1,1.6-6.4,1.8-9.7
		c0.9-2.2,0.5-4.4,0.5-6.6c-4.2-1.6-8.6-0.5-12.9-0.7c-2.1,0-4.1,0-6.2,0c-4.4,0-8.8,0-13.2,0c-1.3,0-2.5,0-3.8,0
		c-4.4,0-8.9,0-13.3,0c-2.2,0-4.5,0-6.7,0c-4.4,0-8.8,0-13.2,0c-1.6,0-3.2,0-4.8,0c-2-0.6-2.9,0.8-4.1,1.9
		c-15.6,15.6-31.1,31.2-46.7,46.8c-0.8,0.8-2.2,1.3-2,2.9l0,0C207.5,394.2,207.3,394.5,207.4,395.2z M295,433.4
		c-0.6,0.5-0.5,1.2-0.5,1.9c-1.9,3.2-2.5,6.9-3.5,10.4c-0.5,2.2-1.1,4.3-1.6,6.5c-0.3,3.2-1.2,6.4-1.1,9.6c-0.9,2.2-0.5,4.5-0.5,6.8
		c0,2.7,0,5.5,0,8.2c0.1,1.5,0.1,3,0.2,4.4c0.3,2.5,0.6,5,0.9,7.4c0.1,0.6,0.2,1.3,0.4,1.9c0.1,2.5,0.6,4.9,1.5,7.2
		c0.1,1.9,0.5,3.7,1.5,5.4c0.9,4.5,2.6,8.7,4.6,12.7c0.2,1.5,1,2.7,1.7,3.9c1.9,4.2,4.1,8.2,6.8,11.9c0.5,0.7,1,1.4,1.5,2.2
		c1.1,1.9,2.3,3.8,4,5.3c0.7,1.5,1.8,2.8,3.1,3.8c1.4,1.9,2.8,3.8,4.7,5.1c0.5,0.5,1,1,1.5,1.5c1.4,1.9,3.2,3.3,5.1,4.6
		c0.5,0.4,0.9,0.8,1.4,1.2c1.6,1.6,3.4,3.1,5.4,4.2c1.2,1.2,2.6,2.2,4.2,2.8c1.9,1.6,4,3,6.4,3.8c1.8,1.5,3.9,2.3,6,3.2
		c2.6,1.4,5.1,2.7,8,3.3c2.2,0.7,4.3,1.5,6.5,2.2c2.9,1.1,5.9,2,9,2.3c1.9,0.6,3.8,1,5.9,1c3.7,0.8,7.4,1.3,11.1,1.2
		c1.6,0,3.3,0,4.9,0c5.1,0.5,10-0.4,15-0.9c0.2-0.1,0.3-0.3,0.2-0.5l0,0.1c1.9,0.2,3.8-0.2,5.6-0.9c0.7-0.1,1.5-0.1,2.2-0.2
		c22.2-5.3,39.9-17.6,54.4-34.9c6.7-8,12.3-16.9,15.8-26.8c0.6-1.4,1.2-2.8,1.8-4.2c1.5-3.5,2.6-7.1,3.3-10.9
		c0.4-1.8,0.8-3.6,1.2-5.4c0.7-3.1,1.4-6.2,1.2-9.4c0.7-2.2,0.8-4.4,0.6-6.6c0-2.7,0-5.3,0-8c-0.1-1.6-0.1-3.1-0.2-4.7
		c-0.2-2.5-0.2-5-1.1-7.4c-0.1-0.5-0.2-1-0.2-1.6c0-2.4-0.4-4.7-1.4-6.9c-0.1-0.7-0.3-1.4-0.4-2.1c-0.5-2.2-0.9-4.5-2-6.5
		c-0.5-1.6-1-3.1-1.6-4.7c-0.6-2.3-1.4-4.4-2.7-6.4c-0.3-0.7-0.6-1.4-0.9-2.1c-1.8-4.2-3.9-8.2-6.7-11.9c-0.8-1.2-1.6-2.4-2.4-3.6
		c-2.4-3.8-5.1-7.3-8.3-10.5c-1.2-1.7-2.5-3.1-4.2-4.4c-1.4-1.9-3-3.5-5-4.7c-0.6-0.5-1.2-1-1.8-1.5c-1.6-1.9-3.5-3.4-5.7-4.4
		c-1.2-0.9-2.5-1.8-3.7-2.7c-2.1-1.3-3.7-3.5-6.5-3.4c-1.4-2.2-3.9-2.7-6-3.8c-2.5-1.5-5-2.8-7.9-3.4c-2.2-1.3-4.6-2-7.1-2.6
		c-2.8-1.3-5.9-1.9-8.9-2.4c-2.3-0.4-4.5-1.3-6.9-1.1c-3.8-1.1-7.6-1-11.4-0.8c-4.6-0.3-9.2-0.4-13.8,0.6c-2.3-0.6-3.9,1.8-6,1.6
		c-8.3-0.4-15.6,3-22.8,6.1c-16.3,7.1-30,17.5-40.5,32c-2,2.3-4.1,4.5-5.1,7.5l0,0c-1,0.1-0.9,1-1.2,1.5c-2.9,4.2-5.1,8.8-6.9,13.6
		C295.7,431.5,295.3,432.5,295,433.4z M191.7,294c-0.6,0-0.7,0.4-0.8,0.9c-0.8,1.3-1.6,2.7-2.4,4c-0.7,1.1-0.5,1.8,0.9,2
		c2.4,1.6,4.8,3,7.6,3.7c0.5,0.3,1,0.6,1.5,0.9c2.4,1.6,4.8,2.9,7.6,3.7c1.2,1,2.6,1.7,4.2,2.1c7.8,4.5,16,8.3,24.2,12.1
		c0.8,0.4,1.6,0.8,2.3,1.2c2.5,1.5,5,3,7.8,3.8c1.4,1,3,1.9,4.7,2.3c1.3,0.6,3.2,3.6,3.2-0.7c0-14.3-0.1-28.5-0.1-42.8
		c0-1,0-1.9,0-2.9c0-3,0-6.1,0-9.1c0-0.5,0-1,0-1.5c0-2.8,0-5.7,0-8.5c0-1.7,0-3.3,0-5c0.4-1.7-0.1-2.5-2-2.4
		c-3.4,0.1-6.7,0.4-9.9,1.2c-2.7,0.7-5.4,1.5-8,2.2c-9.6,3.1-18.2,8-25.6,14.6C200.8,281.1,195.1,286.6,191.7,294L191.7,294z
		 M215.8,540.3c0.7,0.4,1.5,0.3,2.2,0.1c4,0.2,8,0.5,12-0.2c2.7,0,5.5,0.1,8.2,0.1c0.5,0,1,0,1.5,0.1c4.3,0.2,8.5,0.4,12.8-0.1
		c1.5,0.4,3,0.4,4.5,0.1c4,0.2,8,0.5,12.1-0.2c1.5,0,3,0.1,4.5,0.1c8.6,0,17.3,0,26.3,0c-2.8-4.4-5.5-8.5-8.2-12.6
		c0-0.2,0-0.4-0.2-0.5c-0.2-0.6-0.4-1.2-0.7-1.7c-9.2-18-13.2-37.1-12.2-57.3c0.4-8.5,2.3-16.7,4.1-25c0.7-0.6,0.7-1.5,0.7-2.3
		c3.5-9,7.1-17.8,12.8-26.5c-1.2,0.4-1.7,0.6-2.1,0.8c-11.9,6-24.6,8.4-37.8,8.7c-12.9,0.3-25.2-2.4-37-7.5
		c-10.5-4.6-19.8-10.8-27.6-19.4c-3.8-4.2-6.9-8.8-10.2-13.3c-0.3-0.4-0.5-0.9-0.8-1.3c-1.3-2.5-2.6-5-3.8-7.5
		c-0.1-1.1-0.6-2-1.3-2.8c-0.4-2.5-1.3-4.8-2.5-7c-0.3-1.2-0.6-2.5-0.9-3.7c-0.7-3-1.3-6-2-9.1c-0.1-1.2-0.2-2.5-0.3-3.7
		c-0.2-3.3-0.4-6.5-0.6-9.8c0-1.3,0-2.5,0.1-3.8c1-6.8,2-13.6,3.7-20.3c0.8-1.4,1.3-2.9,1.5-4.5c2.6-5.3,5.1-10.7,8.2-15.8l0,0
		c0.4-0.1,0.7-0.3,0.6-0.7c0.7-1,1.4-1.9,2-2.9c15.6-19.9,35.8-32.3,61-35.6c4.7-0.6,8.8-3.7,13.7-2.8c0.2,0.2,0.4,0.3,0.6,0.2
		c0.6,0.9,1.4,1.3,2.5,1.4c4.9,0.5,9.9,0.9,14.8,1.4c0.3,0.1,0.6,0.2,0.9,0.3c0.2,0.1,0.4,0.2,0.6,0.2c0.5,0.1,1.1,0.2,1.6,0.3
		c6.4,2.2,12.8,4.2,18.8,7.2c0.7,0.3,1.4,0.7,2.1,1c2.9,1.8,5.7,3.6,8.6,5.4c0.9,0.7,1.8,1.4,2.7,2.1c2.5,2.2,5.1,4.5,7.6,6.7
		c0.5,0.5,1,1,1.5,1.5c2,2.3,3.9,4.5,5.9,6.8c0.2,0.3,0.4,0.6,0.6,0.9c1.8,2.8,3.6,5.5,5.5,8.3c0.3,0.7,0.7,1.4,1,2
		c1.9,4.5,3.9,9,5.8,13.5c-0.1,0.3,0,0.5,0.1,0.7c0.7,2.5,1.4,5,2,7.6c0.1,0.5,0.2,0.9,0.2,1.4c0.4,2.8,0.8,5.6,1.2,8.3
		c0.1,0.5,0.1,1,0.2,1.4c0,3,0.1,6,0.1,9c0,1.2-0.1,2.5-0.1,3.7c-0.9,3.2-1.1,6.5-1.4,9.8c-0.3,1.5-0.7,3-1,4.4
		c-1.2,3.8-2.4,7.5-3.6,11.3c-0.5,1.2-1.1,2.5-1.6,3.7c-0.9,1.3-1.8,2.7-2.1,4.7c8.4-4.2,16.2-8.6,25.2-10.7c8.3-1.9,8.2-2.3,7.4-11
		c0-0.1-0.1-0.2-0.2-0.3c0-1.2,0-2.4,0-3.6c0.6-2.8,0.5-5.5,0-8.3c0-1.5,0-3,0-4.5c0.6-2.8,0.5-5.5,0-8.3c0-1.5,0-3,0-4.4
		c0.5-2.8,0.5-5.6,0-8.4c0-0.7,0-1.4,0-2.1c0.6-2.8,0.5-5.5,0-8.3c0-0.7,0-1.5,0-2.2c0.6-2.8,0.5-5.6,0-8.4c0-0.5,0-0.9,0-1.4
		c0.6-5.5,0.5-11.1,0-16.6c0-1.5,0-2.9,0-4.4c0.5-3,0.6-6.1,0-9.1c0-1,0-1.9,0-2.9l0.2-0.2c0,0-0.1-0.3-0.1-0.3
		c0.1-0.1,0.2-0.2,0.2-0.2c0-0.2-0.1-0.4-0.1-0.6c0.4-2.1,0.4-4.1,0-6.2c0.1-0.1,0.2-0.2,0.2-0.3c0-0.2-0.1-0.4-0.2-0.6
		c0-2,0.1-3.9,0.1-5.9l0-0.1c0.1-0.4,0.1-0.8,0.2-1.2c0.1-2,0.1-4,0.2-6.1c0-0.3,0-0.5,0-0.8c0-2,0-4,0-6c0.2-2.5,0.3-5.1-0.2-7.6
		c-0.3-2,0.1-4.1-1.1-5.9c-0.6-3.4-3.2-4.8-6-5.8c-3.2-1.1-6.5-1.1-9.9-0.8c-3.7,0.1-7.5,0.1-11.2,0.2c-4.8-0.3-9.5-0.3-14.3,0
		c-2.8,0-5.5,0-8.3,0c-5-0.3-10-0.3-15,0c-2.7,0-5.5,0-8.2,0c-9.3-0.3-18.5-0.3-27.8,0c-3.2,0-6.5,0-9.7,0c-4.8-0.2-9.5-0.3-14.3,0
		c-1.7,0-3.5,0-5.2,0c-4.8-0.3-9.5-0.3-14.3,0c-0.7,0-1.5,0-2.2,0c-4.8-0.3-9.5-0.3-14.3,0c-1.5,0-3,0-4.5,0
		c-4.8,0-9.5-0.1-14.3-0.1c-1.2,0-2.4-0.2-3.6-0.1c-5.3,0.1-5.3,0.1-4.7,5.2c-0.9,6.7-0.1,13.4-0.3,20.2
		c-0.3,8.4-3.5,13.1-11.4,16.1c-3.3,1.3-6.8,1.7-10.3,1.7c-6.6,0-13.2,0-19.9,0c-1.1,0-2.8-0.4-2.9,1.5c-0.3,4.8-1.5,9.6-0.2,14.5
		c0.1,1,0.1,2,0.2,3c0,2.8,0,5.5,0,8.3c0,2,0,4,0,6c0,5.3,0,10.5,0,15.8c0,1.7,0,3.5,0,5.2c0,2.5,0,5,0,7.5c0,2,0,4,0,6
		c0,2.5,0,5,0,7.5c0,2,0,4,0,6c0,5.3,0,10.5,0,15.8c0,2,0,4,0,6c0,2.5,0,5,0,7.5c0,2.2,0,4.5,0,6.7c0,2.5,0,5,0,7.5
		c0,2.2,0,4.5,0,6.7c0,2.5,0,5,0,7.5c0,1.2,0,2.5,0,3.7c0,2.8,0,5.5,0,8.3c0,1.7,0,3.5,0,5.2c0,5.3,0,10.5,0,15.8c0,0.7,0,1.5,0,2.2
		c0,2.5,0,5,0,7.5c0,1,0,2,0,3c0,2.5,0,5,0,7.5c0,1,0,2,0,3c0,2.5,0,5,0,7.5c0,1.7,0,3.5,0,5.2c0,2.5,0,5,0,7.5c0,1.7,0,3.5,0,5.2
		c0,2.5,0,5,0,7.5c0,1.5,0,3,0,4.5c0,2.5,0,5,0,7.5c0,1.2,0,2.5,0,3.7c0,2.8,0,5.5,0,8.3c0,1.2,0,2.5,0,3.7c0,2.5,0,5,0,7.5
		c0,2.2,0,4.5,0,6.7c-0.3,2.4-0.1,4.7,1.1,6.9c0.3,1.3,1,2.3,2.1,3.1c2.9,2.9,6.5,2.8,10.2,2.7c1.5,0,3,0,4.4,0
		c3.8,0.4,7.5,0.4,11.3,0c3,0.2,6,0.1,9-0.2c0.5,0,1,0,1.5,0c4.3,0.2,8.5,0.5,12.8-0.2c3.3,0,6.5,0.1,9.8,0.1
		c0.7,0.4,1.5,0.3,2.2,0.1c4.3,0.2,8.5,0.5,12.8-0.2C212.8,540.3,214.3,540.3,215.8,540.3z M242,336c-5-2.9-10.1-5.5-15.4-7.6
		c-0.9-0.5-1.8-0.9-2.6-1.4c-5-2.9-10.2-5.5-15.6-7.8c-0.9-0.4-1.7-0.8-2.6-1.3c-5.4-3-10.8-5.8-16.5-8.2c-1.1-0.6-2.3-1.2-3.4-1.8
		c-2.6-1.1-2.2,1.4-2.5,2.4c-5,13.5-6.1,27.4-3.5,41.5c0.2,0.7,0.4,1.4,0.5,2.1c0.5,5.3,2.2,10.2,4.4,15c0.6,1.3,1.1,2.5,1.7,3.8
		c0.6,2.4,1.9,4.4,3.1,6.4c0.4,0.6,0.8,1.2,1.2,1.8c0.9,2.1,2.1,4,3.8,5.6c0.5,1.3,1.4,2.3,2.4,3.3c1,2.6,2.1,2.2,3.9,0.5
		c15.7-15.8,31.4-31.5,47.1-47.2c2.9-2.9,2.9-2.9-1-4.7C245.3,337.6,243.7,336.8,242,336z M323.2,297c-2.3-4.4-5.3-8.3-8.8-11.8
		c-0.5-0.6-1.1-1.2-1.6-1.7c-1.5-2.4-3.9-4-6-5.8c-6.4-5.3-13-10.1-21-13c-1.9-1.4-4.2-2-6.5-2.7c-3.1-1.2-6.3-2.2-9.6-2.5
		c-1.5-0.8-3.2-0.5-4.7-1.1c-3.5-1.3-3.7,1.7-3.4,3.2c1.2,6.3,0.4,12.6,0.5,18.9c0.2,17.9,0,35.7-0.1,53.6c0.2,1.4,1.3,1.3,2.2,1.3
		c3.3,0,6.6-0.1,9.9-0.2c1.2,0.4,2.4,0.3,3.7,0c9.7,0.3,19.3,0.3,29,0c2.3,0.4,4.6,0.4,6.9,0c6.3,0.1,12.7,0.1,19,0.2
		c1.9,0,2.3-0.8,2.2-2.5c-0.3-3.5-1.3-7-1.8-10.4c-1.3-8.6-4.7-16.3-8.9-23.7C324,298.3,323.6,297.7,323.2,297z M169.2,222.3
		c-10.6,10.8-21.2,21.4-31.4,31.8c6.8,0,14.3,0,21.7,0c6.1,0,9.4-2.6,9.6-8.6C169.5,237.6,169.2,229.8,169.2,222.3z"/>
	<path id="XMLID_1532_" class="st0" d="M412.3,258.4c-3.6,3.6-6.5,6.5-9.3,9.4c-2.1,2.2-4.7,3.3-7.7,3c-1.9-0.2-2.6-0.9-1-2.5
		c6.3-6.3,12.4-12.7,18.9-18.7c3.5-3.3,7.3-2.8,10.8,0.6c5.1,5.1,10.2,10.3,15.4,15.3c2.2,2.1,1.6,3.3-0.8,4.4
		c-3.2,1.4-6.1,1.8-8.7-1.4c-2.2-2.7-4.8-5-7.9-8.2c0,2.3,0,3.6,0,4.9c0,23.7,0,47.5,0.1,71.2c0,3.1-1,5-4.1,5.7
		c-4.1,0.9-5.6-0.3-5.6-4.5c0-24.6,0-49.2,0-73.8C412.3,262.3,412.3,260.9,412.3,258.4z"/>
	<path id="XMLID_1531_" class="st0" d="M484.3,275c-5,1.5-9.8,2.9-14.7,4.3c-2.7,0.8-6.2,2.2-7.5-1.4c-1.3-3.9,2.6-4.5,5.2-5.3
		c7.6-2.4,15.2-4.7,22.9-6.9c4.8-1.4,6.3-0.6,7.7,4.1c2.3,7.5,4.4,15,6.8,22.5c1.1,3.5-0.6,5-3.4,5.8c-2.7,0.8-5,0.3-5.9-2.8
		c-1.5-4.9-3-9.7-4.6-15.3c-1.9,3.6-3.6,6.6-5.2,9.5c-10,18.4-19.9,36.8-29.8,55.3c-1.7,3.2-4.1,4.8-7.7,4.9
		c-2.8,0.1-3.2-0.7-1.8-3.2c5.7-10.2,11.2-20.6,16.7-30.9c6.6-12.3,13.2-24.6,19.8-36.9C483.4,277.7,484.3,276.8,484.3,275z"/>
	<path id="XMLID_1520_" class="st1" d="M134.1,439.5c0-2.5,0-5,0-7.5c2.9-0.5,5-2.7,7.4-4.2c6.1-3.8,12.6-6.9,18.1-11.6
		c0.6,0,1.2-0.1,1.5-0.8c0.3-0.2,0.5-0.5,0.8-0.7c0.3-0.1,0.7-0.2,1-0.3c-0.1-0.1-0.1-0.2-0.2-0.3c-0.3,0.2-0.5,0.4-0.8,0.6
		c-0.2,0.3-0.5,0.5-0.7,0.8c-0.6,0-1.2,0.1-1.5,0.7c-1.2-0.1-2.1,0.5-3.1,1.1c-7.5,4-14.5,9.1-22.3,12.5c0-5.3,0-10.5,0-15.8
		c1.2-0.1,2.1-0.7,3.1-1.3c10.2-6.5,20.5-12.8,30.6-19.4c4.6-3.1,9.9-5.3,13.7-9.5c3.4,4.5,6.5,9.1,10.2,13.3
		c7.7,8.6,17.1,14.8,27.6,19.4c11.8,5.1,24.1,7.7,37,7.5c13.2-0.3,25.9-2.7,37.8-8.7c0.4-0.2,0.9-0.3,2.1-0.8
		c-5.7,8.7-9.4,17.6-12.8,26.5c-1.2,0.6-2.5,0.9-3.1,2.2c-0.2,0.2-0.5,0.5-0.7,0.7c-1.3-0.1-2.4,0.2-3,1.5c-0.2,0.3-0.5,0.5-0.7,0.8
		c-0.3,0.1-0.7,0.2-1,0.3c0.1,0.1,0.1,0.2,0.2,0.3c0.3-0.2,0.5-0.4,0.8-0.6c0.3-0.2,0.5-0.5,0.8-0.7c1.3,0.1,2.4-0.2,3-1.5
		c0.2-0.2,0.5-0.5,0.8-0.7c0.8,0,1.6,0,2.4,0c-1.8,8.3-3.6,16.5-4.1,25c-1.1,20.2,3,39.3,12.2,57.3c0.3,0.5,0.4,1.1,0.7,1.7
		c-2.9,0.5-5.2,2.4-7.6,3.9c-5,3-10.5,5.1-14.8,9.1c-4,0.7-8,0.4-12.1,0.2c0-0.2-0.1-0.4-0.1-0.6c2.4-3.3,6.6-4.2,9.2-7.3
		c0.2-0.3,0.5-0.5,0.7-0.8c0.3-0.1,0.7-0.2,1-0.3c-0.1-0.1-0.1-0.2-0.2-0.3c-0.3,0.2-0.5,0.4-0.8,0.6c-0.3,0.2-0.5,0.5-0.8,0.7
		c-5,1.4-9.1,4.5-13.3,7.3c-0.1,0.2-0.1,0.3-0.2,0.5c-4.3,0.5-8.5,0.3-12.8,0.1c0-0.2,0-0.4-0.1-0.6c1-0.8,1.9-1.6,2.9-2.3
		c8.7-5.9,17.6-11.6,26.2-17.7c2.9-2.1,6.6-3.4,8.6-6.8c0.9-0.2,2.3,0.4,2.3-1.4c-1.2-0.2-1.9,0.4-2.3,1.4c-1,0.4-2.1,0.7-3.1,1.2
		c-10,5.7-20,11.4-29.9,17.3c-4.8,2.8-10,4.9-14.2,8.7c-4,0.7-8,0.4-12,0.2c0-0.2,0-0.4-0.1-0.6c5-4.6,11.2-7.5,16.7-11.4
		c3.5-2.5,7.9-4,10.5-7.8c2.9-0.1,4.9-1.8,6.7-3.8c0.2-0.3,0.5-0.5,0.7-0.8c0.3-0.2,1,0.4,0.8-0.6c-0.3,0.2-0.5,0.4-0.8,0.6
		c-0.3,0.2-0.5,0.5-0.8,0.7c-2.8,0.2-4.8,1.9-6.8,3.7c-1.1,0.5-2.4,0.8-3.4,1.4c-7.3,4.2-14.6,8.4-21.8,12.8
		c-2.9,1.8-6.4,2.6-8.5,5.6c-4.3,0.6-8.5,0.3-12.8,0.2c0-0.1,0-0.3,0.1-0.4c1-1.7,2.7-2.6,4.2-3.6c13.6-9,27.1-18,40.7-27
		c4.1-0.1,8.2-0.1,12.2-0.2c2.6-0.1,5.2-0.6,5.7-3.6c0.6-3.3-2.5-3-4.4-3.8c0.2-1.8,1.9-2.1,3-2.9c2-1.6,4.5-2.4,6.1-4.5
		c0.2-0.3,0.5-0.5,0.7-0.8c0.3-0.1,0.7-0.2,1-0.3c-0.1-0.1-0.1-0.2-0.2-0.3c-0.3,0.2-0.5,0.4-0.8,0.6c-0.3,0.2-0.5,0.5-0.8,0.7
		c-5,1.7-9.4,4.3-13.5,7.5c-6.4,0.1-12.7,0-19.1,0.3c-3,0.1-3.7-0.9-3.6-3.8c0.1-14.1,0.1-28.2,0-42.3c0-1.3,0.6-2.8-1.1-3.6
		c-3.2-1.6-8.3,1.6-8.4,5.2c-0.1,5-0.1,10-0.2,15c-1.3,0.1-2.3,0.9-3.4,1.5c-4.1,2.3-7.9,5.2-12.4,6.8c-0.1-2.6-1.5-3.3-3.9-3
		c-4.2,0.5-5.7,1.9-5.7,6.1c0,1.2-0.1,2.5-0.2,3.7c-2.4,0.6-4.4,2-6.6,3.1c-3,1.5-5.5,4.2-9.1,4.4c-0.5-3-0.4-6,0-9
		c3.5-2.5,8-3.7,10.5-7.5c1.8,0,3.3-0.6,4.9-3c-2.5,1.1-4.1,1.4-5,3c-3.9,1.1-6.7,4.1-10.6,5.3c-0.4-3.3-0.4-6.5,0-9.8
		c3.8-1.9,7.5-3.8,10.5-6.7c0.1,0,0.2-0.1,0.3-0.1c0,0,0-0.1,0.1-0.2c-0.1,0.1-0.2,0.2-0.3,0.3c-1.3-0.2-2.2,0.7-3.3,1.2
		c-2.4,1.1-4.2,3.5-7.2,3.3c-0.4-3.3-0.4-6.5,0-9.8c5.5-2.4,10.9-5.1,15-9.8c1.9,0,3.5-0.6,4.5-2.3c0.7-0.1,1.5-0.2,1.8-1
		c0-0.1-0.1-0.3-0.2-0.3c-0.9-0.1-1.2,0.6-1.6,1.2c-2-0.2-3.2,1.1-4.5,2.3c-1.4,0.1-2.4,1.1-3.6,1.7c-3.9,1.8-7,5-11.4,5.9
		c-0.4-3.3-0.4-6.5,0-9.8c8.3-4.4,16-9.7,23.6-15.1c-1.9-0.3-3.1,0.9-4.5,1.6c-6.5,3.3-12.4,7.8-19.2,10.5c-0.6-2.6,0.2-5.3-0.8-7.8
		c0.4-1.6,1.8-2.3,3.1-3.1c6.8-4.3,13.9-8.2,20.3-13.1c0.2-0.3,0.5-0.5,0.7-0.8c0.3-0.1,0.7-0.2,1-0.3c-0.1-0.1-0.1-0.2-0.2-0.3
		c-0.3,0.2-0.5,0.4-0.8,0.6c-0.3,0.2-0.5,0.5-0.8,0.7c-3.6,0.6-6.5,3-9.5,4.8c-5.6,3.4-11.5,6.1-16.7,10.1c-2.5,0.2-4.7,0.8-6.1,3.1
		c-7.9,4.5-15.7,9.1-23.6,13.5c-3.8,2.1-7.1,5-11.5,6c0-2.5,0-5,0-7.5c0.8-0.3,1.7-0.5,2.4-0.9c7.6-4.7,15.2-9.5,22.8-14.2
		c4.6-2.9,9.1-5.8,13.7-8.6c-0.2-0.3-0.4-0.7-0.6-1c-12.7,7.3-25.5,14.5-38.2,21.8c0-2.5,0-5,0-7.5c6.7-4.1,13.4-8.3,20.1-12.4
		c-0.2-0.4-0.4-0.7-0.6-1.1c-1.4,0.7-2.7,1.5-4.1,2.2C144.3,433.9,139.6,437.5,134.1,439.5z M198.5,473.2c0.3-0.2,1,0.3,0.8-0.6
		C199,472.9,198.8,473.1,198.5,473.2c-0.1,0-0.2,0.1-0.2,0.1c0,0,0,0.1-0.1,0.2C198.3,473.5,198.4,473.3,198.5,473.2z M176.7,426
		c-1.2,0.1-2.2,0.5-2.8,2C175.6,427.9,176.6,427.5,176.7,426c0.1-0.1,0.2-0.2,0.3-0.3C177,425.8,176.9,425.9,176.7,426z M167,421.5
		c-1.3,0.3-2.6,0.5-3.3,2.1C165.6,423.8,166.3,422.6,167,421.5c0.3-0.2,1,0.3,0.8-0.6C167.5,421.1,167.3,421.3,167,421.5z
		 M158,426.8c1.8,0,3.3-0.6,4.1-2.3C160.5,424.8,158.8,425.1,158,426.8c-1.2,0.1-2.3,0.4-2.9,2C156.8,428.7,157.8,428.3,158,426.8z
		 M209.7,430.5c-2.4,0.1-4.1,1.6-5.6,3.2C206.5,433.6,208.2,432.2,209.7,430.5c0.8,0,1.5-0.1,1.8-1c0-0.1-0.1-0.3-0.2-0.3
		C210.4,429.2,210.1,429.8,209.7,430.5z M181,423.6c-1.1-0.1-1.9,0.3-2.3,1.3C180,425.4,180.7,425,181,423.6z M196.7,475
		c0-0.5-0.2-0.8-0.6-0.7c-0.3,0.1-0.7,0.3-0.8,0.6c-0.2,0.4,0.2,0.6,0.6,0.5C196.2,475.3,196.5,475.1,196.7,475z M281.4,511.1
		c0.2-0.1,0.4-0.2,0.5-0.3c0.1-0.1-0.1-0.3-0.1-0.5c-0.2,0.1-0.5,0.1-0.5,0.3C281.2,510.6,281.4,510.9,281.4,511.1z M183,422.7
		c0-0.1,0-0.2-0.1-0.2c-0.1-0.1-0.2,0-0.3-0.1c0,0.1,0.1,0.3,0.1,0.4C182.8,422.8,182.9,422.8,183,422.7z"/>
	<path id="XMLID_1512_" class="st1" d="M260,252.7c-4.9-0.9-9,2.2-13.7,2.8c-25.2,3.3-45.3,15.7-61,35.6c-1.3-0.2-2.4,0.5-3.5,1.1
		c-10.1,5.8-20.1,11.8-30.3,17.5c-5.8,3.3-11.3,7.2-17.5,9.8c0-2.5,0-5,0-7.5c11.5-7.5,23.2-15,34.6-22.7c3.3-2.2,7.3-3.6,9.6-7.3
		c0.9-0.2,2.3,0.4,2.3-1.3c-1.2-0.3-1.8,0.4-2.3,1.3c-5,1.6-9.2,5-13.7,7.5c-10.2,5.6-20.3,11.5-30.4,17.3c0-5.3,0-10.5,0-15.8
		c10.5-7.2,21.1-14.2,31.5-21.6c3.1-2.2,6.9-3.4,8.9-6.9c0.6,0,1.2-0.1,1.5-0.8c0.6,0,1.2-0.1,1.5-0.8c0.2-0.3,0.5-0.5,0.7-0.8
		c0.3-0.2,1,0.4,0.8-0.6c-0.3,0.2-0.5,0.4-0.8,0.6c-0.3,0.2-0.5,0.5-0.8,0.7c-0.6,0-1.2,0.1-1.5,0.7c-0.6,0-1.2,0.1-1.5,0.7
		c-8,3.6-15.2,8.7-23,12.8c-5.9,3.1-11.3,7.1-17.5,9.7c0-2.8,0-5.5,0-8.3c5.6-2.9,10.6-6.5,15.2-10.8c-5.5,1.8-10,5.8-15.4,7.8
		c-1.3-4.8-0.1-9.6,0.2-14.5c0.1-1.9,1.7-1.5,2.9-1.5c6.6,0,13.2,0,19.9,0c3.5,0,7-0.5,10.3-1.7c7.9-3,11.1-7.7,11.4-16.1
		c0.2-6.7-0.6-13.5,0.3-20.2c3.2-1,6.2-2.4,8.3-5.1c4.8,0,9.5,0.1,14.3,0.1c-1.3,0.9-2.7,1.7-3.8,2.8c-2.4,2.3-6,3.2-7.5,6.7
		c-0.8,0-1.7-0.1-2.2,0.8c-0.2,0.3-0.5,0.5-0.7,0.8c-0.2,0.3-0.5,0.5-0.7,0.8c-0.3,0.2-1-0.3-0.8,0.6c0.3-0.2,0.5-0.4,0.8-0.6
		c0.3-0.2,0.5-0.5,0.8-0.7c0.3-0.2,0.5-0.5,0.8-0.7c0.8,0,1.7,0.1,2.3-0.7c3.4-1,6.2-3.1,9.1-4.9c2.3-1.4,5.1-2,6.6-4.6
		c4.8-0.3,9.5-0.3,14.3,0c-1.2,1.8-4,1.8-4.5,4.2c-1.8-0.2-3,0.7-3.7,2.3c-0.3,0.1-0.7,0.2-1,0.3c0.1,0.1,0.1,0.2,0.2,0.3
		c0.3-0.2,0.5-0.4,0.8-0.6c1.5-0.3,2.9-0.8,3.8-2.2c2.6-0.8,5.2-1.7,6.7-4.2c4.8-0.3,9.5-0.3,14.3,0c-6.9,4.9-13.9,9.7-20.8,14.6
		c0.2,0.3,0.4,0.6,0.6,1c4.9-2.8,9.9-5.4,14.7-8.5c3.6-2.3,8-3.4,10.7-7c4.8-0.3,9.5-0.3,14.3,0c-14.5,10.1-28.9,20.2-43.4,30.3
		c0.2,0.3,0.3,0.6,0.5,0.9c1.1-0.5,2.2-0.9,3.2-1.5c14.7-8.4,29.4-16.8,44-25.4c1.9-1.1,4.6-1.5,5.4-4.2c9.3-0.4,18.5-0.3,27.8,0
		c-0.5,0.4-0.9,0.9-1.4,1.2c-14.5,9.5-29.1,19-43.6,28.6c-1.2,0.8-2.8,1.2-3.1,3c-2.3,0-4.1,1-5.2,3c-0.6,0-1.2,0.1-1.5,0.8
		c-0.1,0-0.2,0.1-0.3,0.1c0,0,0,0.1-0.1,0.2c0.1-0.1,0.2-0.2,0.3-0.3c0.6,0,1.2-0.1,1.5-0.7c2-0.5,4-1.2,5.3-3
		c0.9-0.4,1.9-0.6,2.8-1.1c13.2-7.5,26.4-15,39.4-22.8c4.7-2.8,10-4.8,14-8.9c5-0.3,10-0.3,15,0c-0.9,0.4-1.8,0.8-2.6,1.3
		c-17.5,11.3-35,22.6-52.5,34C260.8,250.6,260,251.4,260,252.7z M207.5,249c0.3-0.1,0.7-0.2,1-0.3c-0.1-0.1-0.1-0.2-0.2-0.3
		C208,248.6,207.8,248.8,207.5,249c-0.1,0-0.2,0.1-0.3,0.1c0,0,0,0.1-0.1,0.2C207.3,249.2,207.4,249.1,207.5,249z M210.5,247.5
		c0.5-0.1,1.2-0.1,1.1-0.9c0-0.1-0.2-0.2-0.2-0.2C210.6,246.3,210.6,246.9,210.5,247.5c-0.1,0-0.2,0-0.3,0.1c0,0,0,0.1-0.1,0.2
		C210.3,247.7,210.4,247.6,210.5,247.5z M214.8,230.4c-1.4,0.1-2,0.7-2.3,1.8C213.6,232.1,214.5,231.9,214.8,230.4z M152.1,264.8
		c0.3-0.6-0.1-0.8-0.4-0.7c-0.3,0-0.7,0.2-0.8,0.4c-0.2,0.4,0.1,0.7,0.5,0.7C151.6,265.2,151.9,265,152.1,264.8z M182.4,280.1
		c0.2-0.1,0.4-0.2,0.5-0.3c0.1-0.1-0.1-0.3-0.1-0.5c-0.2,0.1-0.5,0.1-0.5,0.3C182.2,279.6,182.4,279.9,182.4,280.1z M153.9,263.6
		c0.2-0.1,0.4-0.2,0.5-0.3c0.1-0.1-0.1-0.3-0.1-0.5c-0.2,0.1-0.5,0.1-0.5,0.3C153.7,263.1,153.9,263.4,153.9,263.6z"/>
	<path id="XMLID_1509_" class="st2" d="M211.1,403.6c-2-1.2-3.8-2.7-5.3-4.6c3.3-2.3,6.5-4.7,10.6-7.6c-3.8,0.3-5.5,3.2-8.3,3
		c-0.2-1.6,1.2-2.1,2-2.9c15.5-15.6,31.1-31.2,46.7-46.8c1.1-1.1,2.1-2.5,4.1-1.9c-1.4,1.4-2.7,2.8-4,4.3c-0.1,0.2-0.2,0.4-0.4,0.7
		c0.3-0.1,0.5-0.1,0.8-0.2c3.1-1.1,5.8-2.9,8.4-4.7c4.4,0,8.8,0,13.2,0c-5.5,4.1-10.9,8.2-16.4,12.2c0.2,0.4,0.4,0.7,0.6,1.1
		c7.5-4.4,15-8.9,22.5-13.3c4.4,0,8.9,0,13.3,0c-3.5,2.5-7,5-10.5,7.5c0.2,0.3,0.4,0.6,0.5,0.9c4.6-2.8,9.2-5.6,13.8-8.4
		c4.4,0,8.8,0,13.2,0c-6.7,4.8-13.5,9.6-20.2,14.4c-0.4,0.4-1.7,0.1-1.3,0.9c0.2,0.5,1.3,0.2,1.8-0.4c8.9-4.6,17.5-9.7,26-15
		c4.3,0.2,8.7-1,12.9,0.7c-12,8.5-24.1,16.9-36.1,25.4c-2.1,1.4-4.2,2.9-6.3,4.3c0.2,0.3,0.3,0.5,0.5,0.8c2.2-1.4,4.5-2.8,6.7-4.2
		c11.6-6.5,23.1-13.1,34.7-19.6c-0.2,3.3-0.6,6.6-1.8,9.7c-8.7,6.1-17.4,12.2-26.2,18.4c1.5,1,2.4,0.1,3.1-0.3
		c7.1-3.8,14.2-7.8,21.2-11.7c-1.3,4.3-2.8,8.6-5.3,12.4c-0.5,0.4-1.9,0.3-1.1,1.6c0,0,0,0,0,0c-3.6,0.1-5.1,3.4-7.8,4.9
		c2.7,0.2,4.4-2,6.8-2.6c-1.2,2.9-3.2,5.3-5.6,7.3c-5.6,4.6-10.8,9.6-15.2,15.4c-1.4,1.8-3.2,3.1-5.2,4.2
		c-11.8,6.8-24.5,10.5-38.2,10.4c6.6-5.1,13.2-10.2,19.8-15.3c0.3-0.3,1.1-0.4,0.7-0.9c-0.3-0.4-0.9-0.1-1.2,0.3
		c-9.4,4.9-18.4,10.3-27.4,15.7c-3.5-0.3-7.1-0.8-10.5-1.8c12-8.6,24-17.1,36-25.7c-0.3-0.4-0.5-0.8-0.8-1.2
		c-14.2,8.2-28.5,16.3-42.7,24.5c-2.7-0.6-5.2-1.7-7.6-3.1c13.2-9.3,26.4-18.6,39.6-27.9c-0.2-0.4-0.4-0.7-0.7-1.1
		c-14.9,8.7-29.8,17.3-44.7,26c-2.2-1-4.3-2.3-6.1-4c6.3-4.5,12.7-9,19-13.5c-0.2-0.3-0.4-0.6-0.6-0.9
		C225.2,395.4,218.1,399.5,211.1,403.6z M286.6,351.3c0.1,0.1,0.3,0.3,0.4,0.4c0.2,0,0.4-0.1,0.6-0.2c-0.1-0.1-0.2-0.3-0.4-0.4
		C287,351.1,286.8,351.2,286.6,351.3z"/>
	<path id="XMLID_1505_" class="st0" d="M285.9,263.4c7.9,2.8,14.6,7.7,21,13c2.1,1.8,4.5,3.4,6,5.8c-2,2.1-4.9,3.2-7,6.2
		c3.6-1.1,6-3,8.6-4.5c3.5,3.5,6.4,7.5,8.8,11.8c-2.1,1.7-4.2,3.4-6.3,5.1c-0.4,0.2-0.8,0.4-1.2,0.6c0.6,0.5,1.1,0.4,1.6,0
		c2.3-1.2,4.7-2.5,7-3.7c4.2,7.4,7.6,15.1,8.9,23.7c0.5,3.5,1.4,6.9,1.8,10.4c0.2,1.7-0.3,2.5-2.2,2.5c-6.3-0.1-12.7-0.2-19-0.2
		c1.6-2,3.2-4,4.8-6c0.1-0.2,0.2-0.5,0.4-0.7c-0.3,0.1-0.6,0.1-0.8,0.2c-3.7,2.2-7.5,4.3-11.2,6.5c-9.7,0.3-19.3,0.3-29,0
		c1.1-1.3,2.9-1.9,3.8-3.8c-3.1,0.6-5.1,2.4-7.5,3.8c-3.3,0.1-6.6,0.2-9.9,0.2c-0.9,0-2.1,0.2-2.2-1.2c2.2-1.8,4.9-3,6.9-5.6
		c-2.1,0-3.3,1.2-4.6,2c-2.2,1.3-3.1,0.9-3.1-1.7c0.1-3,0.2-5.9,0-8.9c-0.3-3.3,0.3-6.1,3.3-7.9c0.6-0.2,1.6-0.6,1.2-1.2
		c-0.4-0.6-1.1,0.4-1.7,0.7c-3.4,1.4-2.7-1.2-2.8-2.9c0-13.4,0.1-26.7-0.1-40.1c0-3,0.7-4.8,3.5-6c1.8-0.8,3.4-2,5.1-3.1
		c3.3,0.3,6.5,1.4,9.6,2.5c-2.6,3.3-5.4,6.4-7.6,10c-0.1,0.2-0.2,0.5-0.4,0.7c0.3-0.1,0.6-0.1,0.8-0.2
		C277,268.9,281.6,266.4,285.9,263.4z M305.7,288.4c-0.4,0-0.7-0.1-1,0c-0.4,0.1-0.4,0.3,0,0.4c0.2,0.1,0.4,0.2,0.6,0.1
		C305.5,288.9,305.5,288.7,305.7,288.4z M267.1,309c0.1-0.1,0.2-0.1,0.3-0.2c-0.1-0.1-0.1-0.2-0.2-0.2c-0.1,0-0.2,0.1-0.3,0.2
		C266.9,308.9,267,309,267.1,309z"/>
	<path id="XMLID_1504_" class="st2" d="M247,338.4c3.9,1.7,3.9,1.7,1,4.7c-15.7,15.7-31.4,31.4-47.1,47.2c-1.8,1.8-2.9,2.1-3.9-0.5
		c4-3.5,8-6.9,11.9-10.4c-0.2-0.3-0.4-0.6-0.6-0.9c-4.6,2.6-9.2,5.3-13.8,7.9c-1.7-1.6-2.9-3.5-3.8-5.6c2.1-2,5.1-3.1,6.4-6.1
		c-2.5,1.4-5.1,2.9-7.6,4.3c-1.3-2-2.6-4-3.1-6.4c5.3-4.2,10.5-8.5,15.8-12.7c-0.3-0.4-0.5-0.7-0.8-1.1c-5.6,3.3-11.5,6-16.7,10
		c-2.2-4.8-3.8-9.7-4.4-15c2-1.5,4.2-2.8,6.2-5.3c-3,0.7-4.7,2.3-6.7,3.3c-2.6-14.2-1.5-28,3.5-41.5c0.4-1,0-3.5,2.5-2.4
		c-0.8,1.6-1.5,3.2-2.3,4.7c0.2,0.1,0.4,0.3,0.6,0.4c1.7-1.1,3.4-2.2,5.1-3.4c5.6,2.4,11.1,5.2,16.5,8.2c-1.6,1.4-3.3,2.7-4.9,4.1
		c3.1,0.3,5.1-1.6,7.5-2.8c5.3,2.3,10.5,4.9,15.6,7.8c-2.6,2.1-5.2,4.2-7.9,6.3c4.1-0.5,7.3-2.8,10.5-5c5.3,2.2,10.4,4.8,15.4,7.6
		c-6.3,5.1-12.7,10.2-19,15.3c0.2,0.3,0.4,0.5,0.5,0.8C231.4,347.7,239.4,343.4,247,338.4z"/>
	<path id="XMLID_1503_" class="st2" d="M252.4,287.2c0,14.3,0.1,28.5,0.1,42.8c0,4.4-2,1.3-3.2,0.7c0.5-1.8,1-3.7,1.8-6.3
		c-2.6,1.6-4.5,2.8-6.5,4c-2.8-0.9-5.3-2.4-7.8-3.8c1-1.5,2.9-2.3,3.1-4.3c0.1-0.1,0.2-0.2,0.4-0.4c-0.1,0.1-0.3,0.2-0.4,0.3
		c-2,0.6-4,1.4-5.4,3.1c-8.2-3.8-16.3-7.6-24.2-12.1c3.4-4,8.3-6.3,11.5-10.4c0.2-0.3,0.5-0.5,0.7-0.8c0.3-0.2,1,0.3,0.8-0.5
		c-0.3,0.2-0.5,0.4-0.8,0.6c-0.3,0.2-0.5,0.5-0.8,0.7c-5.7,1.9-10.4,5.7-15.7,8.4c-2.7-0.8-5.2-2.2-7.6-3.7c3.5-1.3,6-3.9,8.9-6.1
		c-0.2-0.3-0.4-0.5-0.5-0.8c-3.3,2-6.6,4-9.9,6.1c-2.8-0.8-5.2-2.2-7.6-3.7c5.6-4.2,11.1-8.5,17.1-13.1c-2.4-0.8-3.4,0.4-4.6,1
		c-3.5,1.6-6.3,4.5-10.2,5.2c3.4-7.4,9.1-12.9,15-18.1c7.5-6.6,16.1-11.5,25.6-14.6c-0.3,0.9-0.6,1.9-0.8,2.8
		c-0.1,0-0.2,0.1-0.3,0.1c0,0,0,0.1-0.1,0.2c0.1-0.1,0.2-0.2,0.3-0.3c3.4-0.9,6.2-2.9,8.9-5c3.3-0.8,6.6-1,9.9-1.2
		c2-0.1,2.4,0.7,2,2.4c-6.4,4.1-12.1,9.2-18,14.1c6.6-1.9,11.9-6.4,18-9.2c0,2.8,0,5.7,0,8.5c-1.8,0.5-3,1.8-3.8,3.6
		c1.3-0.7,2.5-1.4,3.8-2.1c0,3,0,6.1,0,9.1c-2.7,1.7-5.1,3.7-6.7,6.6C247.9,289.7,250.1,288.4,252.4,287.2z"/>
	<path id="XMLID_1502_" class="st2" d="M487.2,515.5c-3.6,9.9-9.1,18.8-15.8,26.8c-14.4,17.3-32.2,29.6-54.4,34.9
		c-0.7,0.2-1.5,0.2-2.2,0.2c1.4-2.6,4.7-3.1,5.9-5.9c-3.9,2.2-8.2,3.6-11.5,6.8c0,0,0-0.1,0-0.1c0,0.2-0.1,0.4-0.2,0.5
		c-5,0.5-10,1.4-15,0.9c4.6-3.3,9.1-6.6,13.7-9.9c-0.2-0.3-0.4-0.6-0.6-0.9c-6,3.6-12,7.2-18,10.7c-3.8,0.1-7.5-0.4-11.1-1.2
		c9.9-6.8,19.7-13.6,29.6-20.3c0.7-0.2,1.4-0.6,2.1-0.7c24.9-5.7,43.8-19.5,57.2-41.1c0.7-1.1,1.6-2.1,2.4-3.2
		c1.4,0.1,2.3-0.8,3.4-1.4c6.6-3.8,13.1-7.5,19.7-11.3c-0.7,3.8-1.9,7.4-3.3,10.9c-0.7-0.4-1.2,0-1.7,0.3
		c-7.5,5.1-14.9,10.2-22.4,15.3C473,524.2,479.8,519.3,487.2,515.5z"/>
	<path id="XMLID_1501_" class="st2" d="M291,445.7c1-3.5,1.5-7.2,3.5-10.4c1.5-0.8,3-1.5,4-2.9l0.1-0.1c1-0.1,1.7-0.5,2.2-1.4
		l0.1-0.1c1-0.1,1.8-0.5,2.2-1.4l0-0.1c0.7,0,1.2-0.3,1.4-0.9l0,0c0.4-0.1,0.8-0.2,0.9-0.7l0,0.1c0.7,0,1.2-0.3,1.4-0.9
		c0,0,0,0.1,0,0.1c1-0.2,1.8-0.7,2.3-1.6l0,0c1-0.2,1.8-0.8,2.5-1.6c2.5-1.4,5-2.9,7.8-5.7c-4.3,1.5-7,3.5-9.9,5.2
		c-0.8,0.5-1.5,0.9-2.3,1.4c-3.6,1.9-7.1,3.9-10.7,5.8c1.7-4.8,4-9.3,6.9-13.6c0.5-0.5,1.7-0.3,1.2-1.5c0,0,0,0,0,0
		c1.7,0.6,2.4-0.9,3.4-1.6c4.3-3.1,8.5-6.4,12.8-9.7c1.3-1,2.6-2.1,4.6-3.7c-3,0.3-4.3,1.8-6,2.5c-3.4,1.5-6,4.4-9.8,5
		c10.5-14.5,24.3-24.9,40.5-32c7.2-3.2,14.5-6.5,22.8-6.1c2.1,0.1,3.7-2.2,6-1.6c-11.2,8.6-22.5,17.2-33.7,25.8
		c0.2,0.3,0.3,0.5,0.5,0.8c3.9-2.3,7.9-4.5,11.8-6.8c11.7-6.9,23.7-13.1,35.1-20.4c3.8-0.2,7.7-0.3,11.4,0.8c-4,2.8-8,5.5-11.9,8.3
		c-6.2,4.4-12.7,8.2-18.6,13.1c-8.4,2-16.4,4.9-24,9c-14.7,8-26.1,19.3-34.7,33.6C306.8,436.8,298.9,441.3,291,445.7z"/>
	<path id="XMLID_1500_" class="st1" d="M299.8,263.8c-6-3-12.5-5.1-18.8-7.2c0.1-1.7,1.6-2.2,2.7-2.8c16.9-9.8,33.8-19.4,50.6-29.2
		c5.5-3.2,11.4-6,16.5-10c3.3-0.3,6.7-0.4,9.9,0.8c2.8,1,5.4,2.4,6,5.8c-1.9,1.1-3.9,2.1-5.8,3.3c-13.7,8.7-27.5,17.3-41.1,26.2
		C313,255.1,305.9,258.8,299.8,263.8z"/>
	<path id="XMLID_1499_" class="st1" d="M147.5,540.6c-3.7,0.1-7.3,0.2-10.2-2.7c2.7-0.5,4.6-2.4,6.8-3.7
		c13.1-8.3,26.2-16.6,39.4-24.9c11-0.3,22-0.3,33,0c-3.5,3.2-8,5-12,7.4c-13.7,8.1-27.5,16-41.2,24c-3.8,0.3-7.5,0.3-11.3,0
		c0.9-2.9,3.9-3.1,5.9-4.7c4.1-3.2,9.2-4.8,12.9-8.7c0.6,0,1.2-0.1,1.5-0.8c0.1,0,0.2-0.1,0.3-0.1c0,0,0-0.1,0.1-0.2
		c-0.1,0.1-0.2,0.2-0.3,0.3c-0.6,0-1.2,0.1-1.5,0.7C162.6,531,154.9,535.5,147.5,540.6z"/>
	<path id="XMLID_1498_" class="st1" d="M277.9,255.8c-4.9-0.5-9.9-1-14.8-1.4c-1.1-0.1-1.9-0.6-2.5-1.4c19-10.9,37.9-21.7,56.8-32.8
		c2.7-1.6,6.1-2.3,7.8-5.4c4.8-0.3,9.5-0.3,14.3,0c-19.5,12.5-38.9,25.1-58.4,37.7C279.8,253.3,278,253.8,277.9,255.8z"/>
	<path id="XMLID_1497_" class="st1" d="M134.1,354.8c0-5.3,0-10.5,0-15.8c1.2,0,2.1-0.7,3.1-1.3c8.5-5.5,16.9-11,25.4-16.4
		c3.5-2.2,6.6-4.8,10.5-6.4c-1.7,6.7-2.7,13.5-3.7,20.3c-1.7,0.1-3,1.1-4.4,1.9C154.6,343,144.3,348.9,134.1,354.8z"/>
	<path id="XMLID_1496_" class="st1" d="M367.7,227.1c0.5,2.5,0.3,5.1,0.2,7.6c-0.4,0.1-0.8,0.1-1.1,0.3c-12.6,8-25.1,16-37.7,23.9
		c-6.2,3.8-11.9,8.4-18.7,11.3c-2.9-1.8-5.7-3.6-8.6-5.4c0.9-0.6,1.9-1.2,2.8-1.8c14.5-8.4,29-16.9,43.5-25.1
		C354.7,234.3,360.8,230.1,367.7,227.1z"/>
	<path id="XMLID_1495_" class="st1" d="M169.2,222.3c0,7.5,0.2,15.3-0.1,23.1c-0.2,6-3.5,8.7-9.6,8.6c-7.5,0-15,0-21.7,0
		C148,243.7,158.6,233.1,169.2,222.3z"/>
	<path id="XMLID_1494_" class="st1" d="M340.9,312c-1.9-4.5-3.9-9-5.8-13.5c7.1-4,14.3-7.9,21.3-12c3.7-2.2,7.9-3.6,10.9-6.8
		c0.5,5.5,0.6,11.1,0,16.6c-2.2,1.2-4.4,2.2-6.4,3.6c-5.8,3.9-12.2,6.8-17.6,11.4l0,0C342.5,311.5,341.7,311.8,340.9,312z"/>
	<path id="XMLID_1493_" class="st1" d="M186.5,540.2c-4.2,0.6-8.5,0.3-12.8,0.2c0-0.1,0-0.3,0.1-0.4c1.3-1.9,3.3-2.9,5.2-4.1
		c13.8-8.8,27.5-17.7,41.3-26.5c5.5-0.3,11-0.3,16.5,0c-1.4,3-4.6,3.6-7.1,5c-14.4,8.4-28.8,16.6-43.2,24.9c-0.5,0.3-0.4,0.6,0,0.8
		L186.5,540.2z"/>
	<path id="XMLID_1492_" class="st1" d="M367.8,241.5c-0.1,2-0.1,4-0.2,6.1c-0.1,0.4-0.1,0.8-0.2,1.2c0,0,0,0.1,0,0.1
		c-10.7,6.7-21.5,13.3-32.1,20.2c-5,3.2-10.4,5.7-14.7,9.9c-2.5-2.2-5.1-4.5-7.6-6.7c11.1-6.4,22.1-12.9,33.2-19.2
		c6.9-3.9,13.6-8.3,20.8-11.6C367.4,241.5,367.6,241.5,367.8,241.5z"/>
	<path id="XMLID_1491_" class="st1" d="M134.1,333c0-2.5,0-5,0-7.5c15.3-9.9,30.6-19.9,45.9-29.9c0.9-0.6,1.7-0.9,2.8-0.9
		c-3.1,5-5.6,10.4-8.2,15.8c-8.1,3.5-15.2,8.7-23,12.8C145.7,326.4,140.2,330.3,134.1,333z"/>
	<path id="XMLID_1490_" class="st1" d="M367.3,297.6c0.5,2.8,0.5,5.6,0,8.4c-6.1,3.4-12.1,7-17.9,11.1c0.2,0.3,0.4,0.6,0.6,0.9
		c5.8-3.3,11.6-6.5,17.3-9.8c0.5,2.8,0.5,5.5,0,8.3c-0.9,0.3-1.9,0.5-2.7,1c-6.7,4.1-13.4,8.4-20,12.6c-0.4-2.8-0.8-5.6-1.2-8.3
		c0.7-0.5,1.4-1,2.2-1.4c1.2-0.2,2.2-0.5,2.8-2c-1.7,0.1-2.7,0.5-2.9,2c-0.8,0-1.6,0.1-2.4,0.1c-0.7-2.5-1.4-5-2-7.6
		c1.1,0,1.8-0.5,2.2-1.5c0,0,0,0,0,0c0.5,0,1.1,0.1,1.5-0.1C352.2,306.5,360.2,302.8,367.3,297.6z"/>
	<path id="XMLID_1489_" class="st1" d="M134.1,408.8c0-2.8,0-5.5,0-8.3c0.9-0.4,1.9-0.6,2.7-1.1c8.8-5.5,17.6-11.2,26.5-16.6
		c4.4-2.7,8.5-6,13.5-7.8c1.3,2.5,2.6,5,3.8,7.5c-1.4,0.6-2.8,1-4.1,1.7C162.4,392.3,148.2,400.5,134.1,408.8z"/>
	<path id="XMLID_1488_" class="st1" d="M367.4,255.7c0.4,2.1,0.4,4.1,0,6.2c0,0.3,0,0.5-0.1,0.8l0.1,0.3c0,0-0.2,0.2-0.2,0.2
		c-0.5,0.1-1,0.2-1.4,0.4c-12.6,7.9-25.2,15.8-37.8,23.7c-2-2.3-3.9-4.5-5.9-6.8c0.6-0.2,1.2-0.2,1.8-0.5
		c8.8-5.1,17.6-10.3,26.5-15.2c5.5-3.1,10.7-6.7,16.6-9.2C367.1,255.6,367.3,255.7,367.4,255.7z"/>
	<path id="XMLID_1487_" class="st1" d="M134.1,396.8c0-2.5,0-5,0-7.5c9.8-6.2,19.5-12.4,29.3-18.5c3.1-1.9,5.9-4.6,9.6-5.5
		c1.1,2.2,2,4.5,2.5,7c-2.3,3.4-6.2,4.5-9.4,6.3C155.4,384.7,145,391.2,134.1,396.8z"/>
	<path id="XMLID_1486_" class="st1" d="M135.2,534.9c-1.2-2.2-1.4-4.5-1.1-6.9c5.8-3.7,11.4-7.4,17.3-11c5.9-3.6,11.4-7.9,17.8-10.8
		c0.7,2.1,2.4,2.7,4.3,2.9c1.8,0.1,3.7,0.2,5.6,0.2c-1.3,2-3.7,2.5-5.6,3.6C160.7,520.3,147.9,527.5,135.2,534.9z"/>
	<path id="XMLID_1485_" class="st1" d="M170.1,352.4c0.7,3,1.3,6,2,9.1c-6.7,2.7-12.5,7-18.8,10.4c-6.4,3.4-12.4,7.7-19.2,10.6
		c0-2.5,0-5,0-7.5C146.1,367.5,158.1,360,170.1,352.4z"/>
	<path id="XMLID_1484_" class="st1" d="M367.3,266.1c0.5,3,0.5,6.1,0,9.1c-0.9,0.3-1.9,0.5-2.7,1c-6.5,4.1-13.1,8-19.4,12.3
		c-3.7,2.5-8.3,4-11.1,7.9c-1.8-2.8-3.6-5.5-5.5-8.3c1.3-0.1,2.3-0.6,3.4-1.2c4.4-2.6,9-4.9,13.3-7.6
		C352.6,274.8,360.5,271.4,367.3,266.1z"/>
	<path id="XMLID_1483_" class="st1" d="M277.9,255.8c0.2-2,2-2.5,3.3-3.3c19.4-12.6,38.9-25.1,58.4-37.7c3.7-0.1,7.5-0.1,11.2-0.2
		c-5.1,4-10.9,6.7-16.5,10c-16.8,9.8-33.8,19.5-50.6,29.2c-1.1,0.6-2.6,1.1-2.7,2.8c-0.5-0.1-1.1-0.2-1.6-0.3
		c-0.2-0.1-0.4-0.2-0.6-0.2C278.5,255.9,278.2,255.9,277.9,255.8z"/>
	<path id="XMLID_1482_" class="st1" d="M134.1,368.3c0-2.5,0-5,0-7.5c0.6-0.2,1.2-0.4,1.7-0.7c11.2-7,22.3-14,33.4-21.1
		c0.2,3.3,0.4,6.5,0.6,9.8c-8.4,4-16.2,9.1-24.3,13.5C141.7,364.3,138.4,367.2,134.1,368.3z"/>
	<path id="XMLID_1481_" class="st1" d="M134.1,486c0-2.5,0-5,0-7.5c1.3-0.7,2.7-1.4,3.9-2.1c10.4-6.5,20.8-13.1,31.1-19.6
		c0,3.3,0,6.5,0,9.8c-4.1,2.3-8.2,4.5-12.3,6.8C149.2,477.6,142,482.3,134.1,486z"/>
	<path id="XMLID_1480_" class="st1" d="M134.1,473.3c0-2.5,0-5,0-7.5c1-0.6,1.9-1.1,2.9-1.7c10.7-6.7,21.5-13.3,32.2-20
		c0,3.3,0,6.5,0,9.8c-1.7,0.2-3,1.2-4.4,2C154.5,461.6,144.3,467.4,134.1,473.3z"/>
	<path id="XMLID_1479_" class="st1" d="M367.7,227.1c-6.9,2.9-13,7.2-19.5,10.8c-14.6,8.3-29,16.7-43.5,25.1c-1,0.6-1.9,1.2-2.8,1.8
		c-0.7-0.3-1.4-0.7-2.1-1c6.2-5.1,13.2-8.7,19.9-13.1c13.6-8.9,27.4-17.5,41.1-26.2c1.9-1.2,3.9-2.2,5.8-3.3
		C367.8,223,367.4,225.1,367.7,227.1z"/>
	<path id="XMLID_1478_" class="st1" d="M134.1,498c0-2.5,0-5,0-7.5c5.2-3.1,10.4-6.3,15.6-9.4c6.5-3.8,12.5-8.5,19.4-11.6
		c0,3,0,6,0,9c-3.7,2.1-7.3,4.2-11,6.2C150.1,489.1,142.5,494.3,134.1,498z"/>
	<path id="XMLID_1477_" class="st1" d="M134.1,521.3c0-2.5,0-5,0-7.5c7-3.1,12.8-8,19.4-11.7c5.3-3,10-6.9,15.6-9.3c0,3,0,6,0,9
		c-4.9,2.8-9.8,5.7-14.8,8.5C147.5,513.9,141.3,518.4,134.1,521.3z"/>
	<path id="XMLID_1476_" class="st1" d="M134.1,510c0-2.8,0-5.5,0-8.3c3.3-0.9,5.9-3.1,8.7-4.9c8.8-5.3,17.5-10.8,26.3-16.2
		c0,3,0,6,0,9C157.4,496.5,145.8,503.3,134.1,510z"/>
	<path id="XMLID_1475_" class="st1" d="M186.5,539.3c14.4-8.3,28.9-16.5,43.2-24.9c2.5-1.4,5.7-2,7.1-5c2.2,0,4.5,0,6.7,0
		c-13.6,9-27.2,18-40.7,27c-1.5,1-3.2,1.9-4.2,3.6c-0.8-0.1-1.6-0.2-2.3,0.3c-3.3,0-6.5-0.1-9.8-0.1c0,0,0-0.2,0-0.2
		C186.5,539.8,186.5,539.5,186.5,539.3z"/>
	<path id="XMLID_1474_" class="st2" d="M332.1,559.7c-2.1-1-3.8-2.5-5.4-4.2c4.3-2.8,8.5-5.5,12.8-8.3c-0.2-0.3-0.4-0.6-0.6-0.9
		c-4.5,2.7-9.1,5.3-13.6,8c-1.9-1.3-3.7-2.7-5.1-4.6c1.4-1,2.9-2,4.3-3c3.5-2.2,7-4.5,10.6-6.7c4.9,3.2,9.8,6.4,14.7,9.6
		C343.8,553,338,556.4,332.1,559.7z"/>
	<path id="XMLID_1473_" class="st1" d="M367.2,241.5c-7.2,3.3-13.9,7.7-20.8,11.6c-11.1,6.4-22.2,12.8-33.2,19.2
		c-0.9-0.7-1.8-1.4-2.7-2.1c6.8-2.9,12.5-7.5,18.7-11.3c12.6-7.8,25.1-15.9,37.7-23.9c0.3-0.2,0.7-0.2,1.1-0.3c0,2,0,4,0,6
		C367.6,241,367.4,241.2,367.2,241.5z"/>
	<path id="XMLID_1472_" class="st2" d="M410.7,369.4c3.1,0.5,6.1,1.1,8.9,2.4c-7.7,5.3-15.4,10.6-23.1,15.9
		c-6.3-0.1-12.5,0.5-18.8,1C388.8,382.2,399.7,375.8,410.7,369.4z"/>
	<path id="XMLID_1471_" class="st1" d="M325.2,214.8c-1.7,3.1-5.1,3.8-7.8,5.4c-18.9,11-37.9,21.9-56.8,32.8c-0.2,0-0.4,0-0.6-0.2
		c0-1.3,0.8-2,1.8-2.7c17.5-11.3,35-22.7,52.5-34c0.8-0.5,1.8-0.9,2.6-1.3C319.7,214.8,322.5,214.8,325.2,214.8z"/>
	<path id="XMLID_1470_" class="st2" d="M494.2,458.9c0.9,2.4,0.9,4.9,1.1,7.4c-5.3,3.4-10.6,6.8-15.8,10.1c0-6-0.5-12.1-1.1-18.1
		c4.7-2.6,9.5-5.3,14.2-7.9c1,2.2,1.4,4.5,1.4,6.9c-3.9,2.4-7.7,4.8-11.6,7.2c-0.4,0.5-1.7,0.1-1.3,1c0.2,0.5,1.3,0.3,1.9-0.4
		C486.6,463.1,490.4,461,494.2,458.9z"/>
	<path id="XMLID_1469_" class="st2" d="M372.1,577.4c-3.1-0.3-6.1-1.2-9-2.3c7.4-5.2,14.8-10.4,22.3-15.6c6.1-0.3,12.1-0.5,18.2-0.8
		c-1.3,0.8-2.5,1.6-3.8,2.4C390.5,566.6,381.3,572,372.1,577.4z"/>
	<path id="XMLID_1468_" class="st1" d="M367.3,344.2c0.5,2.8,0.5,5.5,0,8.3c-4.3,2-8.1,4.9-12.2,7.3c-5.6,3.2-10.6,7.4-16.5,10
		c1.2-3.8,2.4-7.5,3.6-11.3C350.9,354.3,359.1,349.1,367.3,344.2z"/>
	<path id="XMLID_1467_" class="st2" d="M305.4,531.9c-2.7-3.7-5-7.7-6.8-11.9c4.5-2.9,9-5.7,13.5-8.6c2.4,4.1,4.9,8.2,7.3,12.3
		C314.7,526.4,310.1,529.1,305.4,531.9z"/>
	<path id="XMLID_1466_" class="st2" d="M467.6,402.6c3.2,3.1,6,6.6,8.3,10.5c-4.5,2.9-9,5.8-13.6,8.6c-3.2-3.5-6.3-7.1-9.5-10.6
		C457.8,408.3,462.7,405.5,467.6,402.6z"/>
	<path id="XMLID_1465_" class="st1" d="M367,255.6c-5.9,2.4-11.1,6.1-16.6,9.2c-8.9,5-17.6,10.2-26.5,15.2c-0.5,0.3-1.2,0.4-1.8,0.5
		c-0.5-0.5-1-1-1.5-1.5c4.3-4.2,9.7-6.7,14.7-9.9c10.6-6.8,21.4-13.5,32.1-20.2c0,2-0.1,3.9-0.1,5.9
		C367.2,255.1,367.1,255.3,367,255.6z"/>
	<path id="XMLID_1464_" class="st2" d="M296.9,516.1c-2-4.1-3.7-8.3-4.6-12.7c4.6-3,9.2-6.1,13.8-9.1c1.5,4.7,3.1,9.4,4.6,14
		C306.1,510.9,301.5,513.5,296.9,516.1z"/>
	<path id="XMLID_1463_" class="st2" d="M478.3,416.7c2.7,3.7,4.9,7.7,6.7,11.9c-4.5,2.7-9,5.5-13.5,8.2c-2.4-4.1-4.8-8.1-7.2-12.2
		C469,422,473.6,419.4,478.3,416.7z"/>
	<path id="XMLID_1462_" class="st1" d="M266,214.8c-0.8,2.7-3.5,3.1-5.4,4.2c-14.6,8.6-29.3,17-44,25.4c-1,0.6-2.2,1-3.2,1.5
		c-0.2-0.3-0.3-0.6-0.5-0.9c14.5-10.1,28.9-20.2,43.4-30.3C259.5,214.8,262.7,214.8,266,214.8z"/>
	<path id="XMLID_1461_" class="st1" d="M392.4,367.5c-11.4,7.3-23.5,13.5-35.1,20.4c-3.9,2.3-7.9,4.6-11.8,6.8
		c-0.2-0.3-0.3-0.5-0.5-0.8c11.2-8.6,22.5-17.2,33.7-25.8C383.2,367.1,387.8,367.2,392.4,367.5z"/>
	<path id="XMLID_1460_" class="st1" d="M134.1,408.8c14.1-8.2,28.3-16.4,42.5-24.6c1.3-0.7,2.7-1.1,4.1-1.7c0.3,0.4,0.5,0.9,0.8,1.3
		c-3.9,4.2-9.1,6.5-13.7,9.5c-10.1,6.6-20.4,13-30.6,19.4c-0.9,0.6-1.9,1.2-3.1,1.3C134.1,412.2,134.1,410.5,134.1,408.8z"/>
	<path id="XMLID_1459_" class="st1" d="M343.3,354c0.3-3.3,0.5-6.6,1.4-9.8c7.6-4.3,15.1-8.5,22.7-12.8c0.5,2.8,0.5,5.5,0,8.3
		c-0.7,0.3-1.4,0.5-2,0.8C357.8,344.8,351,350.1,343.3,354z"/>
	<path id="XMLID_1458_" class="st1" d="M134.1,382.5c6.8-2.9,12.7-7.1,19.2-10.6c6.3-3.4,12.2-7.7,18.8-10.4
		c0.3,1.2,0.6,2.5,0.9,3.7c-3.7,1-6.5,3.6-9.6,5.5c-9.8,6-19.6,12.3-29.3,18.5C134.1,387,134.1,384.8,134.1,382.5z"/>
	<path id="XMLID_1457_" class="st1" d="M134.1,333c6.1-2.7,11.6-6.6,17.5-9.7c7.7-4.1,14.9-9.3,23-12.8c-0.2,1.6-0.7,3.1-1.5,4.5
		c-3.8,1.6-7,4.2-10.5,6.4c-8.5,5.4-16.9,10.9-25.4,16.4c-0.9,0.6-1.9,1.2-3.1,1.3C134.1,337,134.1,335,134.1,333z"/>
	<path id="XMLID_1456_" class="st1" d="M367.3,318.6c0.5,2.8,0.5,5.6,0,8.4c-2.4,1.5-4.8,3.1-7.2,4.5c-5.2,2.8-9.6,6.9-15.3,9
		c0-3-0.1-6-0.1-9C352.7,328,360.1,323.5,367.3,318.6z"/>
	<path id="XMLID_1455_" class="st1" d="M245.7,247.5c0.2-1.8,1.9-2.2,3.1-3c14.5-9.5,29-19,43.6-28.6c0.5-0.3,0.9-0.8,1.4-1.2
		c2.7,0,5.5,0,8.2,0c-4,4-9.3,6.1-14,8.9c-13.1,7.7-26.3,15.2-39.4,22.8C247.7,246.9,246.7,247.2,245.7,247.5
		C245.8,247.5,245.7,247.5,245.7,247.5z"/>
	<path id="XMLID_1454_" class="st2" d="M356.6,572.9c-2.8-0.7-5.4-1.9-8-3.3c6.4-4.3,12.8-8.6,19.2-13c4.1,0.8,8.1,1.5,12.2,2.3
		C372.2,563.6,364.4,568.2,356.6,572.9z"/>
	<path id="XMLID_1453_" class="st1" d="M182.7,294.7c-1-0.1-1.9,0.3-2.8,0.9c-15.3,10-30.6,19.9-45.9,29.9c0-2,0-4,0-6
		c6.2-2.6,11.7-6.5,17.5-9.8c10.2-5.7,20.2-11.7,30.3-17.5c1.1-0.6,2.1-1.3,3.5-1.1c-0.7,1-1.4,1.9-2,2.9
		C183.1,294.2,182.9,294.5,182.7,294.7L182.7,294.7z"/>
	<path id="XMLID_1452_" class="st2" d="M288.3,461.9c-0.2-3.3,0.8-6.4,1.1-9.6c4.8-1.8,8.6-5.2,12.7-8.2c2.4-1.4,4.9-2.8,6.9-4.8
		c0,0,0.1-0.1,0.1-0.1c0.9-0.4,1.8-0.9,2.7-1.3c-1.6,4.5-3.3,9-4.9,13.6C300.7,454.9,294.5,458.4,288.3,461.9z"/>
	<path id="XMLID_1451_" class="st2" d="M494.8,485.5c0.2,3.2-0.5,6.3-1.2,9.4c-2.6,0.3-4.2,2.4-6.3,3.6c-5.4,3.1-10,7.6-15.8,10
		c1-4.3,2.9-8.3,4.5-12.4C482.3,492.6,488.5,489.1,494.8,485.5z"/>
	<path id="XMLID_1450_" class="st2" d="M426.7,374.3c2.9,0.6,5.4,1.9,7.9,3.4c-6.3,4.2-12.7,8.4-19,12.6c-4.1-0.8-8.3-1.5-12.4-2.3
		C411.1,383.6,419.1,379.3,426.7,374.3z"/>
	<path id="XMLID_1449_" class="st1" d="M134.1,368.3c4.3-1,7.6-3.9,11.4-6c8.2-4.4,15.9-9.6,24.3-13.5c0.1,1.2,0.2,2.5,0.3,3.7
		c-12,7.5-24,15-36,22.5C134.1,372.7,134.1,370.5,134.1,368.3z"/>
	<path id="XMLID_1448_" class="st1" d="M220.2,509.3c-13.7,8.8-27.5,17.7-41.3,26.5c-1.9,1.2-3.9,2.2-5.2,4.1
		c-0.6-0.1-1.1-0.1-1.5,0.4c-3,0.4-6,0.5-9,0.2c13.8-8,27.5-15.9,41.2-24c4-2.4,8.5-4.1,12-7.4C217.8,509.3,219,509.3,220.2,509.3z"
		/>
	<path id="XMLID_1447_" class="st1" d="M169.2,339c-11.1,7-22.3,14.1-33.4,21.1c-0.5,0.3-1.1,0.5-1.7,0.7c0-2,0-4,0-6
		c10.3-5.9,20.5-11.8,30.8-17.6c1.4-0.8,2.7-1.8,4.4-1.9C169.2,336.5,169.2,337.7,169.2,339z"/>
	<path id="XMLID_1446_" class="st1" d="M233.2,415.7c14.2-8.2,28.5-16.3,42.7-24.5c0.3,0.4,0.5,0.8,0.8,1.2c-12,8.6-24,17.1-36,25.7
		C238.1,417.6,235.5,417,233.2,415.7z"/>
	<path id="XMLID_1445_" class="st1" d="M134.1,521.3c7.2-2.8,13.4-7.4,20.2-11c5-2.7,9.9-5.6,14.8-8.5c0,1.5,0,3,0,4.5
		c-6.3,2.9-11.8,7.2-17.8,10.8c-5.8,3.5-11.5,7.3-17.3,11C134.1,525.7,134.1,523.5,134.1,521.3z"/>
	<path id="XMLID_1444_" class="st1" d="M219.9,409.7c14.9-8.7,29.8-17.3,44.7-26c0.2,0.4,0.4,0.7,0.7,1.1
		c-13.2,9.3-26.4,18.6-39.6,27.9C223.5,412,221.6,411,219.9,409.7z"/>
	<path id="XMLID_1443_" class="st1" d="M291.7,527.8c2.7,4.1,5.3,8.2,8.2,12.6c-9,0-17.6,0-26.3,0
		C279.9,536.5,286,532.5,291.7,527.8z"/>
	<path id="XMLID_1442_" class="st1" d="M367.3,356.1c0.1,0.1,0.1,0.2,0.2,0.3c0.9,8.7,0.9,9-7.4,11c-8.9,2.1-16.8,6.5-25.2,10.7
		c0.2-2,1.2-3.3,2.1-4.7C347.6,368.5,357.5,362.3,367.3,356.1z"/>
	<path id="XMLID_1441_" class="st1" d="M277.3,513c-1.9,3.4-5.6,4.7-8.6,6.8c-8.6,6.1-17.5,11.8-26.2,17.7c-1,0.7-1.9,1.5-2.9,2.3
		c-0.5,0.2-0.9,0.4-1.4,0.6c-2.7,0-5.5-0.1-8.2-0.1c4.2-3.7,9.4-5.8,14.2-8.7c9.9-5.9,19.9-11.6,29.9-17.3
		C275.1,513.7,276.2,513.4,277.3,513L277.3,513z"/>
	<path id="XMLID_1440_" class="st1" d="M135.2,534.9c12.8-7.3,25.5-14.6,38.2-22c1.9-1.1,4.3-1.6,5.6-3.6c1.5,0,3,0,4.5,0
		c-13.1,8.3-26.2,16.6-39.4,24.9c-2.2,1.4-4.1,3.3-6.8,3.7C136.2,537.2,135.5,536.1,135.2,534.9z"/>
	<path id="XMLID_1439_" class="st2" d="M342.6,566.4c-2.4-0.8-4.5-2.2-6.4-3.8c5.6-3.8,11.2-7.5,16.7-11.3c3,1.2,6.1,2.4,9.1,3.7
		C355.6,558.7,349.1,562.6,342.6,566.4z"/>
	<path id="XMLID_1438_" class="st1" d="M334.1,296.5c2.8-3.8,7.3-5.3,11.1-7.9c6.3-4.3,12.9-8.3,19.4-12.3c0.8-0.5,1.8-0.7,2.7-1
		c0,1.5,0,2.9,0,4.4c-3.1,3.2-7.2,4.6-10.9,6.8c-7,4.1-14.2,8-21.3,12C334.8,297.8,334.5,297.1,334.1,296.5z"/>
	<path id="XMLID_1437_" class="st2" d="M495.4,470.9c0,2.7,0,5.3,0,8c-6,3.9-12,7.8-18,11.7c0.6-3.6,1.1-7.1,1.7-10.7
		C484.5,477,490,473.9,495.4,470.9z"/>
	<path id="XMLID_1436_" class="st1" d="M134.1,473.3c10.2-5.8,20.4-11.7,30.7-17.5c1.4-0.8,2.7-1.8,4.4-2c0,1,0,2,0,3
		c-10.4,6.5-20.7,13.1-31.1,19.6c-1.3,0.8-2.6,1.4-3.9,2.1C134.1,476.7,134.1,475,134.1,473.3z"/>
	<path id="XMLID_1435_" class="st2" d="M287.8,476.9c0-2.7,0-5.5,0-8.2c5.7-3.7,11.5-7.5,17.2-11.2c0.4,3.5-0.9,6.8-1,10.3
		C298.6,470.8,293.2,473.9,287.8,476.9z"/>
	<path id="XMLID_1434_" class="st2" d="M440.6,381.5c2.8,0,4.4,2.1,6.5,3.4c-5.4,3.7-10.8,7.3-16.2,11c-2.9-1.2-5.8-2.5-8.7-3.7
		C428.3,388.6,434.5,385.1,440.6,381.5z"/>
	<path id="XMLID_1433_" class="st1" d="M174.5,262.5c-2,3.5-5.9,4.8-8.9,6.9c-10.4,7.3-21,14.4-31.5,21.6c0-2,0-4,0-6
		c6.2-2.6,11.6-6.6,17.5-9.7C159.3,271.2,166.5,266.1,174.5,262.5C174.5,262.5,174.5,262.5,174.5,262.5z"/>
	<path id="XMLID_1432_" class="st1" d="M426.7,374.3c-7.6,5-15.6,9.3-23.5,13.7c-2.2-0.1-4.4-0.3-6.6-0.4
		c7.7-5.3,15.4-10.6,23.1-15.9C422.1,372.3,424.5,373.1,426.7,374.3z"/>
	<path id="XMLID_1431_" class="st1" d="M298.9,368.9c12-8.5,24.1-16.9,36.1-25.4c0,2.2,0.3,4.5-0.5,6.6
		c-11.6,6.5-23.1,13.1-34.7,19.6C299.5,369.5,299.2,369.2,298.9,368.9z"/>
	<path id="XMLID_1430_" class="st1" d="M134.1,306.8c10.1-5.8,20.2-11.7,30.4-17.3c4.6-2.5,8.7-5.9,13.7-7.5l0,0
		c-2.3,3.7-6.3,5.1-9.6,7.3c-11.4,7.7-23,15.1-34.6,22.7C134.1,310.2,134.1,308.5,134.1,306.8z"/>
	<path id="XMLID_1429_" class="st2" d="M289,488.8c-0.3-2.5-0.6-5-0.9-7.4c5.3-3.5,10.6-6.9,15.8-10.4c0,3,0.1,6,0.1,9
		C299,482.9,294,485.9,289,488.8z"/>
	<path id="XMLID_1428_" class="st2" d="M450.8,387.6c2.2,1.1,4.1,2.6,5.7,4.4c-5.1,3.3-10.1,6.5-15.2,9.8c-2.4-1.4-4.7-2.9-7.1-4.3
		C439.8,394.3,445.3,390.9,450.8,387.6z"/>
	<path id="XMLID_1427_" class="st1" d="M169.1,444c-10.7,6.7-21.4,13.3-32.2,20c-0.9,0.6-1.9,1.2-2.9,1.7c0-1.7,0-3.5,0-5.2
		c4.3-1,7.7-3.9,11.5-6c7.9-4.4,15.8-9,23.6-13.5C169.2,442,169.1,443,169.1,444z"/>
	<path id="XMLID_1426_" class="st2" d="M458.4,393.6c2,1.2,3.6,2.8,5,4.7c-4.7,3.2-9.4,6.4-14.1,9.6c-2.2-1.7-4.4-3.4-6.5-5.1
		C448,399.8,453.2,396.7,458.4,393.6z"/>
	<path id="XMLID_1425_" class="st1" d="M440.6,381.5c-6.1,3.6-12.3,7.2-18.4,10.7c-2.2-0.6-4.4-1.2-6.6-1.9
		c6.3-4.2,12.7-8.4,19-12.6C436.7,378.8,439.2,379.2,440.6,381.5z"/>
	<path id="XMLID_1424_" class="st1" d="M134.1,396.8c10.9-5.6,21.4-12.1,32-18.2c3.3-1.9,7.2-2.9,9.4-6.3c0.7,0.8,1.2,1.7,1.3,2.8
		c-4.9,1.9-9,5.1-13.5,7.8c-8.9,5.4-17.7,11.1-26.5,16.6c-0.8,0.5-1.8,0.7-2.7,1.1C134.1,399.3,134.1,398,134.1,396.8z"/>
	<path id="XMLID_1423_" class="st2" d="M318.7,548.2c-2-1.3-3.4-3.2-4.7-5.1c4.8-3.1,9.6-6.2,14.3-9.3c1.9,1.8,3.9,3.5,5.8,5.3
		c-3.4,2.1-6.9,4.1-10.3,6.2C322.1,546.3,320.4,547.3,318.7,548.2z"/>
	<path id="XMLID_1422_" class="st1" d="M169.1,469.5c-6.9,3.1-12.9,7.8-19.4,11.6c-5.2,3.1-10.4,6.2-15.6,9.4c0-1.5,0-3,0-4.5
		c7.9-3.7,15.1-8.5,22.7-12.7c4.1-2.3,8.2-4.5,12.3-6.8C169.1,467.5,169.1,468.5,169.1,469.5z"/>
	<path id="XMLID_1421_" class="st1" d="M342.6,566.4c6.5-3.8,13-7.6,19.5-11.4c1.9,0.6,3.8,1.1,5.8,1.7c-6.4,4.3-12.8,8.6-19.2,13
		C346.6,568.7,344.4,567.8,342.6,566.4z"/>
	<path id="XMLID_1420_" class="st1" d="M356.6,572.9c7.8-4.7,15.6-9.3,23.4-14c1.8,0.2,3.5,0.4,5.3,0.7
		c-7.4,5.2-14.8,10.4-22.3,15.6C360.9,574.4,358.8,573.6,356.6,572.9z"/>
	<path id="XMLID_1419_" class="st2" d="M290.8,497.9c-0.9-2.3-1.4-4.7-1.5-7.2c4.9-3,9.8-6.1,14.8-9.1c0.3,2.7,0.6,5.4,0.9,8.2
		C300.3,492.5,295.5,495.2,290.8,497.9z"/>
	<path id="XMLID_1418_" class="st1" d="M134.1,510c11.7-6.7,23.4-13.5,35-20.2c0,1,0,2,0,3c-5.6,2.5-10.3,6.3-15.6,9.3
		c-6.6,3.7-12.4,8.6-19.4,11.7C134.1,512.5,134.1,511.3,134.1,510z"/>
	<path id="XMLID_1417_" class="st1" d="M410.7,369.4c-11,6.4-21.9,12.8-32.9,19.2c-1.5,0.4-3,0.8-4.5,1.1
		c5.8-4.9,12.4-8.7,18.6-13.1c3.9-2.8,7.9-5.6,11.9-8.3C406.2,368.1,408.4,368.9,410.7,369.4z"/>
	<path id="XMLID_1416_" class="st2" d="M310.8,539.3c-1.7-1.5-2.9-3.4-4-5.3c4.5-3,9.1-6,13.6-9c1.6,1.9,3.2,3.9,4.8,5.8
		C320.5,533.7,315.7,536.5,310.8,539.3z"/>
	<path id="XMLID_1415_" class="st1" d="M367.3,266.1c-6.8,5.3-14.7,8.7-22,13.3c-4.3,2.7-8.9,5-13.3,7.6c-1.1,0.7-2.2,1.2-3.4,1.2
		c-0.2-0.3-0.4-0.6-0.6-0.9c12.6-7.9,25.2-15.8,37.8-23.7c0.4-0.2,0.9-0.3,1.4-0.4C367.3,264.2,367.3,265.2,367.3,266.1z"/>
	<path id="XMLID_1414_" class="st2" d="M485.8,430.7c1.3,2,2.1,4.1,2.7,6.4c-4.5,2.9-9,5.8-13.6,8.7c-0.9-2.4-1.8-4.8-2.8-7.1
		C476.8,436,481.3,433.3,485.8,430.7z"/>
	<path id="XMLID_1413_" class="st2" d="M490.2,441.8c1.1,2,1.5,4.3,2,6.5c-4.7,2.9-9.4,5.9-14.1,8.8c-0.6-2.5-1.3-4.9-1.9-7.4
		C480.8,447,485.5,444.4,490.2,441.8z"/>
	<path id="XMLID_1412_" class="st1" d="M372.1,577.4c9.2-5.4,18.5-10.8,27.7-16.2c1.3-0.8,2.5-1.6,3.8-2.4c1.3-0.2,2.6-1,4-0.7
		c-9.9,6.8-19.7,13.6-29.6,20.3C375.9,578.4,374,578,372.1,577.4z"/>
	<path id="XMLID_1411_" class="st1" d="M343.3,354c7.7-3.9,14.5-9.2,22-13.4c0.6-0.4,1.3-0.5,2-0.8c0,1.5,0,3,0,4.5
		c-8.3,4.9-16.4,10-25.1,14.2C342.6,357,342.9,355.5,343.3,354z"/>
	<path id="XMLID_1410_" class="st1" d="M305.1,457.5c-5.7,3.7-11.5,7.5-17.2,11.2c-0.1-2.3-0.4-4.6,0.5-6.8
		c6.2-3.5,12.4-7,18.6-10.5c-0.5,1.8-0.9,3.7-1.4,5.5C305.4,457.1,305.2,457.3,305.1,457.5C305,457.5,305.1,457.5,305.1,457.5z"/>
	<path id="XMLID_1409_" class="st1" d="M367.3,356.1c-9.9,6.2-19.8,12.3-30.3,17.3c0.5-1.2,1.1-2.5,1.6-3.7c6-2.6,10.9-6.8,16.5-10
		c4.1-2.3,7.8-5.3,12.2-7.3C367.3,353.7,367.3,354.9,367.3,356.1z"/>
	<path id="XMLID_1408_" class="st1" d="M169.1,480.7c-8.8,5.4-17.5,10.8-26.3,16.2c-2.8,1.7-5.4,4-8.7,4.9c0-1.2,0-2.5,0-3.7
		c8.4-3.7,16-8.9,24-13.3c3.7-2,7.3-4.1,11-6.2C169.1,479.3,169.1,480,169.1,480.7z"/>
	<path id="XMLID_1407_" class="st1" d="M477.5,490.7c6-3.9,12-7.8,18-11.7c0.2,2.2,0.1,4.5-0.6,6.6c-6.3,3.5-12.6,7.1-18.8,10.6
		C476.5,494.3,477,492.5,477.5,490.7z"/>
	<path id="XMLID_1406_" class="st1" d="M471.5,508.5c5.8-2.4,10.4-6.9,15.8-10c2.1-1.2,3.7-3.3,6.3-3.6c-0.4,1.8-0.8,3.6-1.2,5.4
		c-6.6,3.8-13.1,7.5-19.7,11.3c-1.1,0.6-2,1.5-3.4,1.4c-0.4-1.5,0.8-2.4,1.4-3.5C471.2,509.3,471.7,509.2,471.5,508.5L471.5,508.5z"
		/>
	<path id="XMLID_1405_" class="st1" d="M269.8,259.5c-1.7,1-3.3,2.3-5.1,3.1c-2.8,1.2-3.6,3-3.5,6c0.2,13.4,0.1,26.7,0.1,40.1
		c0,1.7-0.6,4.3,2.8,2.9c0.2,0.2,0.3,0.3,0.5,0.5c-3,1.8-3.6,4.6-3.3,7.9c0.2,2.9,0.1,5.9,0,8.9c-0.1,2.7,0.9,3,3.1,1.7
		c1.3-0.8,2.5-2,4.6-2c-2,2.6-4.7,3.8-6.9,5.6c0.1-17.9,0.3-35.8,0.1-53.6c-0.1-6.3,0.7-12.6-0.5-18.9c-0.3-1.5,0-4.5,3.4-3.2
		C266.6,259,268.4,258.7,269.8,259.5z"/>
	<path id="XMLID_1404_" class="st1" d="M134.1,450c12.7-7.3,25.5-14.5,38.2-21.8c0.2,0.3,0.4,0.7,0.6,1c-4.6,2.9-9.1,5.8-13.7,8.6
		c-7.6,4.8-15.2,9.5-22.8,14.2c-0.7,0.4-1.6,0.6-2.4,0.9C134.1,452,134.1,451,134.1,450z"/>
	<path id="XMLID_1403_" class="st1" d="M302.1,444c-4.1,3-7.9,6.4-12.7,8.2c0.5-2.2,1.1-4.3,1.6-6.5c7.9-4.5,15.8-8.9,23.7-13.4
		c-0.6,1.2-1.2,2.3-1.8,3.5c-0.5,0.1-0.9,0.4-0.6,1c0.1,0.2,0,0.3-0.2,0.4c-1.7-0.5-2.9-0.2-3,1.9c0,0-0.1,0.1-0.1,0.1
		c-3.7,0.1-6.2,2.3-8.5,4.8c-0.3,0.1-0.6,0.2-1,0.3c0.1,0.1,0.2,0.3,0.2,0.3c0.3-0.2,0.6-0.4,0.8-0.5C301,444,301.6,444,302.1,444z"
		/>
	<path id="XMLID_1402_" class="st1" d="M449.3,407.9c4.7-3.2,9.4-6.4,14.1-9.6c1.6,1.2,3,2.7,4.2,4.4c-4.9,2.8-9.8,5.6-14.7,8.5
		C451.7,410.1,450.5,409,449.3,407.9z"/>
	<path id="XMLID_1401_" class="st1" d="M331,366.3c-7.1,3.9-14.1,7.8-21.2,11.7c-0.8,0.4-1.7,1.3-3.1,0.3
		c8.8-6.2,17.5-12.3,26.2-18.4C332.6,362.1,331.7,364.2,331,366.3z"/>
	<path id="XMLID_1400_" class="st1" d="M245,520.5c-2.6,3.8-6.9,5.3-10.5,7.8c-5.5,3.9-11.6,6.8-16.7,11.4c-0.7,0.2-1.4,0.4-2.1,0.6
		c-1.5,0-3-0.1-4.5-0.1c2.1-3,5.6-3.8,8.5-5.6c7.2-4.4,14.5-8.5,21.8-12.8C242.6,521.3,243.8,520.9,245,520.5L245,520.5z"/>
	<path id="XMLID_1399_" class="st1" d="M344.8,340.5c5.6-2.1,10.1-6.2,15.3-9c2.5-1.4,4.8-3,7.2-4.5c0,1.5,0,3,0,4.4
		c-7.6,4.3-15.1,8.5-22.7,12.8C344.7,343,344.8,341.8,344.8,340.5z"/>
	<path id="XMLID_1398_" class="st1" d="M290.8,497.9c4.7-2.7,9.5-5.4,14.2-8.2c1,1.3,0.7,3,1.1,4.5c-4.6,3-9.2,6.1-13.8,9.1
		C291.3,501.6,290.9,499.8,290.8,497.9z"/>
	<path id="XMLID_1397_" class="st1" d="M279.1,404.7c-6.6,5.1-13.2,10.2-19.8,15.3c-2.7,0.3-5.5,0.2-8.2-0.2
		c9-5.4,18.1-10.9,27.4-15.7C278.8,404.3,279,404.5,279.1,404.7z"/>
	<path id="XMLID_1396_" class="st1" d="M353,551.3c-5.6,3.8-11.2,7.5-16.7,11.3c-1.6-0.7-3-1.6-4.2-2.8c5.9-3.4,11.8-6.8,17.7-10.1
		C350.9,549.9,352.1,550.4,353,551.3z"/>
	<path id="XMLID_1395_" class="st1" d="M247,338.4c-7.6,5-15.6,9.3-23.6,13.8c-0.2-0.3-0.4-0.5-0.5-0.8c6.3-5.1,12.7-10.2,19-15.3
		C243.7,336.8,245.3,337.6,247,338.4z"/>
	<path id="XMLID_1394_" class="st1" d="M310.8,539.3c4.8-2.8,9.6-5.6,14.5-8.5c1,1,2,2,2.9,3c-4.8,3.1-9.6,6.2-14.3,9.3
		C312.6,542.1,311.5,540.9,310.8,539.3z"/>
	<path id="XMLID_1393_" class="st1" d="M450.8,387.6c-5.5,3.3-11.1,6.6-16.6,9.9c-1.1-0.6-2.2-1.1-3.3-1.7c5.4-3.7,10.8-7.3,16.2-11
		C448.4,385.8,449.6,386.7,450.8,387.6z"/>
	<path id="XMLID_1392_" class="st1" d="M490.2,441.8c-4.7,2.6-9.3,5.3-14,7.9c-0.4-1.3-0.7-2.6-1.1-3.9c4.5-2.9,9-5.8,13.6-8.7
		C489.1,438.6,489.6,440.2,490.2,441.8z"/>
	<path id="XMLID_1391_" class="st1" d="M242,214.8c-2.7,3.6-7.1,4.7-10.7,7c-4.8,3-9.8,5.7-14.7,8.5c-0.2-0.3-0.4-0.6-0.6-1
		c6.9-4.9,13.9-9.7,20.8-14.6C238.5,214.8,240.2,214.8,242,214.8z"/>
	<path id="XMLID_1390_" class="st1" d="M495.4,470.9c-5.4,3-10.9,6.1-16.3,9.1c0.1-1.2,0.2-2.4,0.3-3.6c5.3-3.4,10.6-6.8,15.8-10.1
		C495.3,467.8,495.3,469.3,495.4,470.9z"/>
	<path id="XMLID_1389_" class="st1" d="M478.3,416.7c-4.7,2.6-9.3,5.3-14,7.9c-0.7-1-1.3-1.9-2-2.9c4.5-2.9,9-5.8,13.6-8.6
		C476.7,414.3,477.5,415.5,478.3,416.7z"/>
	<path id="XMLID_1388_" class="st1" d="M295.7,357.3c6.7-4.8,13.5-9.6,20.2-14.4c2.1,0,4.1,0,6.2,0c-8.5,5.3-17.1,10.4-26,15
		C296,357.7,295.8,357.5,295.7,357.3z"/>
	<path id="XMLID_1387_" class="st1" d="M303.9,471c-5.3,3.5-10.6,6.9-15.8,10.4c-0.1-1.5-0.1-3-0.2-4.4c5.4-3,10.8-6.1,16.2-9.1
		C304,468.9,303.9,469.9,303.9,471z"/>
	<path id="XMLID_1386_" class="st1" d="M487.2,515.5c-7.4,3.8-14.3,8.8-22.3,11.4c7.5-5.1,14.9-10.2,22.4-15.3
		c0.5-0.3,1-0.7,1.7-0.3C488.4,512.7,487.8,514.1,487.2,515.5z"/>
	<path id="XMLID_1385_" class="st1" d="M296.9,516.1c4.6-2.6,9.2-5.2,13.9-7.8c0.4,1,0.9,2.1,1.3,3.1c-4.5,2.9-9,5.7-13.5,8.6
		C297.8,518.7,297.1,517.5,296.9,516.1z"/>
	<path id="XMLID_1384_" class="st1" d="M252.4,265.2c-6.1,2.8-11.4,7.2-18,9.2c5.9-4.9,11.6-10,18-14.1
		C252.4,261.9,252.4,263.6,252.4,265.2z"/>
	<path id="XMLID_1383_" class="st1" d="M285.6,342.9c-7.5,4.4-15,8.9-22.5,13.3c-0.2-0.4-0.4-0.7-0.6-1.1
		c5.5-4.1,10.9-8.2,16.4-12.2C281.1,342.9,283.3,342.9,285.6,342.9z"/>
	<path id="XMLID_1382_" class="st1" d="M184.8,368.9c5.2-4,11.2-6.6,16.7-10c0.3,0.4,0.5,0.7,0.8,1.1c-5.3,4.2-10.5,8.5-15.8,12.7
		C185.9,371.4,185.4,370.2,184.8,368.9z"/>
	<path id="XMLID_1381_" class="st1" d="M191.7,294c3.9-0.7,6.8-3.6,10.2-5.2c1.2-0.5,2.1-1.8,4.6-1c-6,4.6-11.5,8.8-17.1,13.1
		c-1.4-0.2-1.6-0.9-0.9-2c0.8-1.3,1.6-2.7,2.4-4C191.4,294.7,191.7,294.5,191.7,294L191.7,294z"/>
	<path id="XMLID_1380_" class="st1" d="M367.3,318.6c-7.2,4.9-14.6,9.4-22.6,12.9c-0.1-0.5-0.1-1-0.2-1.4c6.7-4.2,13.3-8.4,20-12.6
		c0.8-0.5,1.8-0.7,2.7-1C367.3,317.2,367.3,317.9,367.3,318.6z"/>
	<path id="XMLID_1379_" class="st1" d="M309.3,407.9c3.8-0.6,6.5-3.5,9.8-5c1.7-0.7,3-2.2,6-2.5c-2,1.6-3.3,2.7-4.6,3.7
		c-4.2,3.2-8.5,6.5-12.8,9.7c-1,0.7-1.7,2.2-3.4,1.6C305.1,412.4,307.3,410.2,309.3,407.9z"/>
	<path id="XMLID_1378_" class="st1" d="M291.7,527.8c-5.6,4.8-11.8,8.8-18.1,12.6c-1.5,0-3-0.1-4.5-0.1c4.3-4,9.9-6.1,14.8-9.1
		c2.4-1.5,4.6-3.4,7.6-3.9C291.6,527.4,291.7,527.5,291.7,527.8z"/>
	<path id="XMLID_1377_" class="st1" d="M211.1,403.6c7-4.1,14.1-8.3,21.1-12.4c0.2,0.3,0.4,0.6,0.6,0.9c-6.3,4.5-12.7,9-19,13.5
		C212.6,405.4,211.8,404.6,211.1,403.6z"/>
	<path id="XMLID_1376_" class="st1" d="M285.9,264.7c-4.3,3-8.9,5.5-13.6,7.9c-0.2-0.2-0.3-0.4-0.5-0.5c2.2-3.6,5-6.7,7.6-10
		C281.7,262.7,284,263.3,285.9,264.7z"/>
	<path id="XMLID_1375_" class="st1" d="M159.5,416.3c-5.5,4.7-12,7.8-18.1,11.6c-2.4,1.5-4.4,3.7-7.4,4.2c0-0.7,0-1.5,0-2.2
		c7.9-3.4,14.8-8.4,22.3-12.5C157.4,416.8,158.3,416.1,159.5,416.3C159.5,416.2,159.5,416.3,159.5,416.3z"/>
	<path id="XMLID_1374_" class="st1" d="M194.6,386.5c4.6-2.6,9.2-5.3,13.8-7.9c0.2,0.3,0.4,0.6,0.6,0.9c-4,3.5-8,6.9-11.9,10.4
		C196,388.8,195.1,387.9,194.6,386.5z"/>
	<path id="XMLID_1373_" class="st1" d="M134.1,439.5c5.5-2.1,10.2-5.6,15.3-8.3c1.4-0.7,2.7-1.5,4.1-2.2c0.2,0.4,0.4,0.7,0.6,1.1
		c-6.7,4.1-13.4,8.3-20.1,12.4C134.1,441.5,134.1,440.5,134.1,439.5z"/>
	<path id="XMLID_1372_" class="st1" d="M206.1,309.1c5.3-2.7,10-6.5,15.7-8.4c0,0,0,0,0,0c-3.3,4.1-8.2,6.4-11.6,10.4
		C208.7,310.8,207.3,310.1,206.1,309.1z"/>
	<path id="XMLID_1371_" class="st1" d="M389.1,579.6c6-3.6,12-7.2,18-10.7c0.2,0.3,0.4,0.6,0.6,0.9c-4.6,3.3-9.1,6.6-13.7,9.9
		C392.4,579.6,390.7,579.6,389.1,579.6z"/>
	<path id="XMLID_1370_" class="st1" d="M367.3,297.6c-7.2,5.1-15.2,8.9-22.6,13.5c-0.4,0.2-1,0.1-1.5,0.1
		c5.4-4.6,11.8-7.5,17.6-11.4c2-1.4,4.3-2.4,6.4-3.6C367.3,296.7,367.3,297.2,367.3,297.6z"/>
	<path id="XMLID_1369_" class="st1" d="M170.8,527.3c-3.6,3.9-8.8,5.5-12.9,8.7c-2,1.5-5,1.7-5.9,4.7c-1.5,0-3,0-4.4,0
		C154.9,535.5,162.6,531,170.8,527.3L170.8,527.3z"/>
	<path id="XMLID_1368_" class="st1" d="M190.2,224.2c1.4-3.4,5-4.4,7.5-6.7c1.1-1.1,2.5-1.9,3.8-2.8c1.5,0,3,0,4.5,0
		c-1.5,2.6-4.3,3.2-6.6,4.6C196.4,221.1,193.6,223.2,190.2,224.2L190.2,224.2z"/>
	<path id="XMLID_1367_" class="st1" d="M458.4,393.6c-5.2,3.1-10.4,6.2-15.6,9.3c-0.5-0.3-0.9-0.6-1.4-0.9
		c5.1-3.3,10.1-6.5,15.2-9.8C457.2,392.6,457.8,393.1,458.4,393.6z"/>
	<path id="XMLID_1366_" class="st1" d="M133.9,273.7c5.4-2,9.8-5.9,15.4-7.8c-4.6,4.3-9.6,7.9-15.2,10.8
		C134,275.7,134,274.7,133.9,273.7z"/>
	<path id="XMLID_1365_" class="st1" d="M320.5,525.1c-4.5,3-9.1,6-13.6,9c-0.5-0.7-1-1.4-1.5-2.2c4.7-2.7,9.3-5.5,14-8.2
		C319.8,524.1,320.1,524.6,320.5,525.1z"/>
	<path id="XMLID_1364_" class="st1" d="M485.8,430.7c-4.5,2.6-9.1,5.3-13.6,7.9c-0.3-0.6-0.5-1.2-0.8-1.8c4.5-2.7,9-5.5,13.5-8.2
		C485.2,429.3,485.5,430,485.8,430.7z"/>
	<path id="XMLID_1363_" class="st1" d="M367.3,308.2c-5.8,3.3-11.6,6.5-17.3,9.8c-0.2-0.3-0.4-0.6-0.6-0.9c5.7-4,11.7-7.6,17.9-11.1
		C367.3,306.7,367.3,307.5,367.3,308.2z"/>
	<path id="XMLID_1362_" class="st1" d="M304.1,481.6c-4.9,3-9.8,6.1-14.8,9.1c-0.1-0.6-0.2-1.3-0.4-1.9c5-2.9,10-5.9,15-8.8
		C304,480.5,304,481,304.1,481.6z"/>
	<path id="XMLID_1361_" class="st1" d="M478.1,457.1c4.7-2.9,9.4-5.9,14.1-8.8c0.1,0.7,0.3,1.4,0.4,2.1c-4.7,2.6-9.5,5.3-14.2,7.9
		C478.2,457.9,478.1,457.5,478.1,457.1z"/>
	<path id="XMLID_1360_" class="st1" d="M187.2,214.7c-2.2,2.7-5.1,4.1-8.3,5.1c-0.6-5.2-0.6-5.2,4.7-5.2
		C184.8,214.5,186,214.6,187.2,214.7z"/>
	<path id="XMLID_1359_" class="st1" d="M318.6,329.4c-1.6,2-3.2,4-4.8,6c-2.3,0.4-4.6,0.4-6.9,0c3.7-2.2,7.5-4.3,11.2-6.5
		C318.3,329,318.4,329.2,318.6,329.4z"/>
	<path id="XMLID_1358_" class="st1" d="M302.7,342.9c-4.6,2.8-9.2,5.6-13.8,8.4c-0.2-0.3-0.4-0.6-0.5-0.9c3.5-2.5,7-5,10.5-7.5
		C300.2,342.9,301.4,342.9,302.7,342.9z"/>
	<path id="XMLID_1357_" class="st1" d="M325.2,554.3c4.5-2.7,9.1-5.3,13.6-8c0.2,0.3,0.4,0.6,0.6,0.9c-4.3,2.8-8.5,5.5-12.8,8.3
		C326.1,555.2,325.7,554.7,325.2,554.3z"/>
	<path id="XMLID_1356_" class="st1" d="M409.3,578.3c3.3-3.2,7.6-4.6,11.5-6.8c-1.2,2.8-4.5,3.4-5.9,5.9
		C413,578.1,411.2,578.5,409.3,578.3z"/>
	<path id="XMLID_1355_" class="st1" d="M226.6,328.4c-3.2,2.2-6.4,4.5-10.5,5c2.6-2.1,5.3-4.2,7.9-6.3
		C224.8,327.5,225.7,327.9,226.6,328.4z"/>
	<path id="XMLID_1354_" class="st1" d="M208.2,394.5c2.8,0.2,4.5-2.7,8.3-3c-4.1,2.9-7.4,5.3-10.6,7.6c-2.1-1-1.3-1.9,0-2.9
		c0.7-0.1,1.4-0.2,1.6-1c0,0-0.1,0-0.1,0C207.9,395.2,208.3,395.1,208.2,394.5L208.2,394.5z"/>
	<path id="XMLID_1353_" class="st1" d="M296.1,430.5c3.6-1.9,7.1-3.9,10.7-5.8c0.1,0.2,0.2,0.4,0.4,0.6c-0.2,0.6-0.4,1.1-0.6,1.7
		c0,0,0-0.1,0-0.1c-0.7-0.1-1.4-0.1-1.4,0.9c0,0,0-0.1,0-0.1c-0.5,0-0.8,0.3-0.9,0.7c0,0,0,0,0,0c-0.7-0.1-1.4-0.1-1.4,0.9
		c0,0,0,0.1,0,0.1c-1.4-0.5-2.2-0.1-2.2,1.5c0,0-0.1,0.1-0.1,0.1c-1.4-0.5-2.2-0.1-2.2,1.4c0,0-0.1,0.1-0.1,0.1
		c-1.5-0.9-2.3,1-3.5,1C295.3,432.5,295.7,431.5,296.1,430.5z"/>
	<path id="XMLID_1352_" class="st1" d="M197,304.6c3.3-2,6.6-4,9.9-6.1c0.2,0.3,0.4,0.5,0.5,0.8c-2.9,2.2-5.4,4.8-8.9,6.1
		C198,305.1,197.5,304.8,197,304.6z"/>
	<path id="XMLID_1351_" class="st1" d="M482.3,464.5c3.9-2.4,7.7-4.8,11.6-7.2c0.1,0.5,0.2,1,0.2,1.6c-3.8,2.1-7.5,4.2-11.3,6.3
		C482.7,464.9,482.5,464.7,482.3,464.5z"/>
	<path id="XMLID_1350_" class="st1" d="M244.5,328.4c1.9-1.2,3.9-2.4,6.5-4c-0.7,2.6-1.3,4.5-1.8,6.3
		C247.5,330.3,246,329.4,244.5,328.4z"/>
	<path id="XMLID_1349_" class="st1" d="M252.4,287.2c-2.2,1.3-4.5,2.5-6.7,3.8c1.6-2.9,4-4.9,6.7-6.6
		C252.4,285.3,252.4,286.2,252.4,287.2z"/>
	<path id="XMLID_1348_" class="st1" d="M256.9,347.1c1.3-1.4,2.7-2.8,4-4.3c1.6,0,3.2,0,4.8,0c-2.7,1.8-5.3,3.6-8.4,4.7
		C257.2,347.4,257,347.3,256.9,347.1z"/>
	<path id="XMLID_1347_" class="st1" d="M314.5,285.2c-2.6,1.5-5,3.4-8.6,4.5c2.1-3,5-4.1,7-6.2C313.4,284,313.9,284.6,314.5,285.2z"
		/>
	<path id="XMLID_1346_" class="st1" d="M240.4,259c-2.7,2.1-5.5,4.1-8.9,5l0,0c0.3-0.9,0.6-1.9,0.8-2.8
		C235,260.5,237.7,259.7,240.4,259z"/>
	<path id="XMLID_1345_" class="st1" d="M189.7,379.1c2.5-1.4,5.1-2.9,7.6-4.3c-1.3,3-4.3,4.1-6.4,6.1
		C190.4,380.3,190,379.7,189.7,379.1z"/>
	<path id="XMLID_1344_" class="st1" d="M323.5,382.7c-2.4,0.6-4.1,2.8-6.8,2.6c2.7-1.5,4.2-4.8,7.8-4.9
		C324.9,381.4,323.9,381.9,323.5,382.7z"/>
	<path id="XMLID_1343_" class="st1" d="M208.4,319.2c-2.3,1.2-4.3,3.1-7.5,2.8c1.6-1.4,3.3-2.7,4.9-4.1
		C206.7,318.4,207.5,318.8,208.4,319.2z"/>
	<path id="XMLID_1342_" class="st1" d="M324.4,298.9c-2.3,1.2-4.7,2.5-7,3.7c-0.1-0.2-0.3-0.4-0.4-0.5c2.1-1.7,4.2-3.4,6.3-5.1
		C323.6,297.7,324,298.3,324.4,298.9z"/>
	<path id="XMLID_1341_" class="st1" d="M189.4,309.8c-1.7,1.1-3.4,2.2-5.1,3.4c-0.2-0.1-0.4-0.3-0.6-0.4c0.8-1.6,1.5-3.2,2.3-4.7
		C187.1,308.6,188.2,309.2,189.4,309.8z"/>
	<path id="XMLID_1340_" class="st1" d="M318.7,548.2c1.7-0.9,3.4-1.9,5.1-2.8c0.2,0.4,0.5,0.9,0.7,1.3c-1.4,1-2.9,2-4.3,3
		C319.7,549.2,319.2,548.7,318.7,548.2z"/>
	<path id="XMLID_1339_" class="st1" d="M179.9,351.9c2-1,3.8-2.6,6.7-3.3c-2,2.6-4.2,3.9-6.2,5.3
		C180.3,353.2,180.1,352.6,179.9,351.9z"/>
	<path id="XMLID_1338_" class="st1" d="M215.7,219c0.5-2.4,3.3-2.5,4.5-4.2c0.7,0,1.5,0,2.2,0C220.9,217.3,218.4,218.2,215.7,219
		L215.7,219z"/>
	<path id="XMLID_1337_" class="st1" d="M274.3,335.3c2.3-1.4,4.4-3.2,7.5-3.8c-0.9,1.9-2.7,2.5-3.8,3.8
		C276.7,335.6,275.5,335.7,274.3,335.3z"/>
	<path id="XMLID_1336_" class="st1" d="M239.8,320.3c-0.2,2-2.1,2.8-3.1,4.3c-0.8-0.4-1.6-0.8-2.3-1.2
		C235.8,321.6,237.7,320.8,239.8,320.3L239.8,320.3z"/>
	<path id="XMLID_1335_" class="st1" d="M252.4,275.2c-1.3,0.7-2.5,1.4-3.8,2.1c0.8-1.8,2-3,3.8-3.6
		C252.4,274.3,252.4,274.7,252.4,275.2z"/>
	<path id="XMLID_1334_" class="st1" d="M295,433.4c1.3,0,2-1.9,3.5-1c-1,1.5-2.6,2.1-4,2.9C294.5,434.7,294.4,434,295,433.4z"/>
	<path id="XMLID_1333_" class="st1" d="M280.2,443.2c0.6-1.3,1.9-1.7,3.1-2.2c0,0.8,0,1.7-0.7,2.3
		C281.8,443.3,281.1,443.3,280.2,443.2C280.3,443.3,280.2,443.2,280.2,443.2z"/>
	<path id="XMLID_1332_" class="st1" d="M256.8,539.8c0.1,0.2,0.1,0.4,0.1,0.6c-1.5,0.3-3,0.3-4.5-0.1c0-0.2,0.1-0.3,0.2-0.5
		C254.1,539.8,255.5,539.8,256.8,539.8z"/>
	<path id="XMLID_1331_" class="st1" d="M343.1,320.3c0.8,0,1.6-0.1,2.4-0.1l0,0c-0.7,0.5-1.4,1-2.2,1.4
		C343.3,321.2,343.2,320.8,343.1,320.3z"/>
	<path id="XMLID_1330_" class="st1" d="M343.3,311.2c-0.4,1-1.1,1.5-2.2,1.5c-0.2-0.2-0.2-0.4-0.1-0.7
		C341.7,311.8,342.5,311.5,343.3,311.2z"/>
	<path id="XMLID_1329_" class="st1" d="M304.2,415.5c0.5,1.3-0.7,1.1-1.2,1.5C303.3,416.4,303.2,415.5,304.2,415.5z"/>
	<path id="XMLID_1328_" class="st1" d="M196.3,540.3c0.7-0.6,1.5-0.4,2.3-0.3c0,0.1,0,0.3-0.1,0.4
		C197.8,540.6,197,540.7,196.3,540.3z"/>
	<path id="XMLID_1327_" class="st1" d="M215.8,540.3c0.7-0.2,1.4-0.4,2.1-0.6c0.1,0.2,0.1,0.4,0.1,0.6
		C217.3,540.6,216.5,540.7,215.8,540.3z"/>
	<path id="XMLID_1326_" class="st3" d="M207.5,395.1c-0.2,0.8-0.9,0.9-1.6,1C206.2,395.6,206.5,394.8,207.5,395.1z"/>
	<path id="XMLID_1325_" class="st1" d="M324.6,380.3c-0.7-1.3,0.6-1.1,1.1-1.6C325.4,379.3,325.5,380.2,324.6,380.3z"/>
	<path id="XMLID_1324_" class="st1" d="M238.3,540.4c0.5-0.2,0.9-0.4,1.4-0.6c0.1,0.2,0.1,0.4,0.1,0.6
		C239.3,540.4,238.8,540.4,238.3,540.4z"/>
	<path id="XMLID_1323_" class="st1" d="M172.3,540.4c0.4-0.5,1-0.5,1.5-0.4c0,0.1,0,0.3-0.1,0.4
		C173.3,540.4,172.8,540.4,172.3,540.4z"/>
	<path id="XMLID_1322_" class="st1" d="M367.5,248.8c0.1-0.4,0.1-0.8,0.2-1.2C367.6,248,367.5,248.4,367.5,248.8z"/>
	<path id="XMLID_1321_" class="st1" d="M367.2,241.5c0.2-0.2,0.4-0.5,0.7-0.7c0,0.3,0,0.5,0,0.8
		C367.6,241.5,367.4,241.5,367.2,241.5z"/>
	<path id="XMLID_1320_" class="st1" d="M367.3,262.7c0-0.3,0-0.5,0.1-0.8c0,0.2,0.1,0.4,0.1,0.6
		C367.5,262.6,367.4,262.7,367.3,262.7z"/>
	<path id="XMLID_1319_" class="st3" d="M208.2,394.5c0.1,0.7-0.3,0.7-0.8,0.7C207.3,394.5,207.5,394.2,208.2,394.5z"/>
	<path id="XMLID_1318_" class="st1" d="M278.8,256c0.2,0.1,0.4,0.2,0.6,0.2C279.2,256.2,279,256.1,278.8,256z"/>
	<path id="XMLID_1317_" class="st4" d="M191.7,294c0,0.5-0.4,0.8-0.8,0.9C191,294.4,191.1,293.9,191.7,294z"/>
	<path id="XMLID_1316_" class="st1" d="M182.7,294.7c0.2-0.2,0.4-0.5,0.6-0.7C183.4,294.4,183.1,294.6,182.7,294.7z"/>
	<path id="XMLID_1315_" class="st1" d="M367,255.6c0.1-0.3,0.2-0.5,0.3-0.8c0.1,0.2,0.2,0.4,0.2,0.6c0,0.1-0.1,0.2-0.2,0.3
		C367.3,255.7,367.1,255.6,367,255.6z"/>
	<path id="XMLID_1314_" class="st1" d="M409,578.7c0.1-0.2,0.2-0.3,0.2-0.5C409.3,578.4,409.3,578.6,409,578.7z"/>
	<path id="XMLID_1313_" class="st0" d="M169.1,480.7c0-0.7,0-1.5,0-2.2c0-3,0-6,0-9c0-1,0-2,0-3c0-3.3,0-6.5,0-9.8c0-1,0-2,0-3
		c0-3.3,0-6.5,0-9.8c0-1,0-2,0.1-3c1.4-2.3,3.6-2.9,6.1-3.1c1,0.4,1.9,0.9,2.9,1.3c1,2.5,0.2,5.2,0.8,7.8c0,1,0,2,0,3
		c-0.5,3.3-0.4,6.5,0,9.8c0,0.7,0,1.5,0,2.2c-0.4,3.3-0.4,6.5,0,9.8c0,0.7,0,1.5,0,2.2c-0.5,3.2-0.4,6.5,0,9.8c0,0.7,0,1.5,0,2.2
		c-0.4,3-0.5,6,0,9c0,1.2,0,2.5,0,3.7c-0.8,2.4,0,3.4,2.6,3.3c3.6-0.2,7.2-0.2,10.8,0c2,0.1,2.6-0.7,2.5-2.6
		c-0.2-3.2-0.1-6.5-0.2-9.7c0-0.7,0-1.5,0-2.2c0.1-1.2,0.1-2.5,0.2-3.7c0-4.1,1.5-5.6,5.7-6.1c2.4-0.3,3.9,0.4,3.9,3
		c0,0.7,0,1.5,0,2.2c-0.1,5.6-0.1,11.2-0.3,16.8c-0.1,2,0.9,2.2,2.5,2.2c3.7-0.1,7.5-0.1,11.2,0c1.6,0,2.5-0.2,2.5-2.2
		c-0.2-8.6-0.2-17.2-0.2-25.8c0-0.5,0-1,0-1.5c0.1-5,0.1-10,0.2-15c0.1-3.6,5.1-6.8,8.4-5.2c1.7,0.8,1,2.4,1.1,3.6
		c0,14.1,0.1,28.2,0,42.3c0,2.8,0.6,3.9,3.6,3.8c6.3-0.3,12.7-0.2,19.1-0.3c1.5,0,3,0,4.5,0c1.9,0.8,5,0.5,4.4,3.8
		c-0.5,3-3.1,3.5-5.7,3.6c-4.1,0.1-8.2,0.1-12.2,0.2c-2.2,0-4.5,0-6.7,0c-5.5-0.3-11-0.3-16.5,0c-1.2,0-2.5,0-3.7,0
		c-11-0.3-22-0.3-33,0c-1.5,0-3,0-4.5,0c-1.9-0.1-3.7-0.1-5.6-0.2c-1.9-0.1-3.7-0.7-4.3-2.9c0-1.5,0-3,0-4.5c0-3,0-6,0-9
		c0-1,0-2,0-3C169.1,486.8,169.1,483.7,169.1,480.7z"/>
	<path id="XMLID_1312_" class="st1" d="M179,450c0-1,0-2,0-3c6.8-2.7,12.7-7.2,19.2-10.5c1.4-0.7,2.6-1.8,4.5-1.6
		C195,440.3,187.3,445.6,179,450z"/>
	<path id="XMLID_1311_" class="st1" d="M194.7,487.5c0,0.7,0,1.5,0,2.2c-5.5,2.6-9.8,7.1-15.7,9c0-1.2,0-2.5,0-3.7
		c3.7-0.1,6.1-2.8,9.1-4.4C190.3,489.5,192.3,488.1,194.7,487.5z"/>
	<path id="XMLID_1310_" class="st1" d="M178.1,439.2c-1-0.4-1.9-0.9-2.9-1.3c5.2-4,11.2-6.8,16.7-10.1c3-1.8,5.8-4.1,9.5-4.8
		c0,0,0,0,0,0c-6.4,4.9-13.5,8.9-20.3,13.1C179.9,436.9,178.6,437.6,178.1,439.2z"/>
	<path id="XMLID_1309_" class="st1" d="M179,462c0-0.7,0-1.5,0-2.2c4.4-0.9,7.5-4.1,11.4-5.9c1.2-0.6,2.2-1.5,3.6-1.7c0,0,0,0,0,0
		C189.9,456.9,184.5,459.6,179,462z"/>
	<path id="XMLID_1308_" class="st1" d="M204.5,483c0-0.7,0-1.5,0-2.2c4.5-1.6,8.3-4.5,12.4-6.8c1.1-0.6,2.1-1.4,3.4-1.5
		c0,0.5,0,1,0,1.5c-1.4,0.1-2.5,1-3.7,1.7C212.5,478,208.9,481.1,204.5,483z"/>
	<path id="XMLID_1307_" class="st1" d="M257,501.7c-1.5,0-3,0-4.5,0c4.1-3.2,8.5-5.8,13.5-7.5l0,0c-1.6,2.1-4.1,2.9-6.1,4.5
		C258.9,499.7,257.2,500,257,501.7z"/>
	<path id="XMLID_1306_" class="st1" d="M256.8,539.8c-1.4,0-2.8,0-4.2,0c4.2-2.9,8.3-5.9,13.3-7.3c0,0,0,0,0,0
		C263.5,535.6,259.2,536.5,256.8,539.8z"/>
	<path id="XMLID_1305_" class="st1" d="M179,486c0-0.7,0-1.5,0-2.2c3.8-1.2,6.7-4.2,10.6-5.3l0,0C186.9,482.3,182.5,483.5,179,486z"
		/>
	<path id="XMLID_1304_" class="st1" d="M179,474c0-0.7,0-1.5,0-2.2c3,0.2,4.8-2.2,7.2-3.3c1.1-0.5,2-1.4,3.3-1.2l0,0
		C186.5,470.2,182.7,472.1,179,474z"/>
	<path id="XMLID_1303_" class="st1" d="M245,520.5c1.9-1.8,4-3.5,6.8-3.7C249.9,518.8,247.9,520.4,245,520.5
		C245,520.5,245,520.5,245,520.5z"/>
	<path id="XMLID_1302_" class="st1" d="M209.8,430.5c-1.5,1.7-3.2,3.1-5.6,3.2C205.7,432.1,207.3,430.6,209.8,430.5L209.8,430.5z"/>
	<path id="XMLID_1301_" class="st1" d="M158,426.7c0.8-1.6,2.5-1.9,4.1-2.3C161.4,426.2,159.9,426.8,158,426.7L158,426.7z"/>
	<path id="XMLID_1300_" class="st1" d="M189.5,478.5c0.8-1.6,2.5-1.9,5-3C192.9,478,191.4,478.5,189.5,478.5
		C189.5,478.5,189.5,478.5,189.5,478.5z"/>
	<path id="XMLID_1299_" class="st1" d="M198.5,450c-1,1.7-2.6,2.3-4.5,2.3c0,0,0,0,0,0C195.3,451.1,196.5,449.8,198.5,450L198.5,450
		z"/>
	<path id="XMLID_1298_" class="st1" d="M167,421.5c-0.7,1.1-1.4,2.3-3.3,2.1C164.4,422,165.7,421.8,167,421.5L167,421.5z"/>
	<path id="XMLID_1297_" class="st1" d="M176.8,426c-0.2,1.5-1.2,1.9-2.9,2C174.5,426.4,175.6,426.1,176.8,426L176.8,426z"/>
	<path id="XMLID_1296_" class="st1" d="M158,426.8c-0.2,1.5-1.2,1.9-2.9,2C155.7,427.2,156.8,426.9,158,426.8
		C158,426.7,158,426.8,158,426.8z"/>
	<path id="XMLID_1295_" class="st1" d="M181,423.6c-0.3,1.4-1,1.8-2.3,1.3C179.2,423.9,179.9,423.5,181,423.6z"/>
	<path id="XMLID_1294_" class="st1" d="M277.2,513c0.5-0.9,1.1-1.6,2.3-1.4C279.5,513.4,278.2,512.8,277.2,513
		C277.3,513,277.2,513,277.2,513z"/>
	<path id="XMLID_1293_" class="st1" d="M276.5,445.5c0.6-1.3,1.7-1.6,3-1.5c0,0,0,0,0,0C278.9,445.3,277.8,445.6,276.5,445.5
		C276.5,445.5,276.5,445.5,276.5,445.5z"/>
	<path id="XMLID_1292_" class="st1" d="M196.7,475c-0.2,0.1-0.5,0.3-0.8,0.4c-0.4,0.1-0.8-0.1-0.6-0.5c0.1-0.3,0.5-0.5,0.8-0.6
		C196.5,474.2,196.7,474.4,196.7,475z"/>
	<path id="XMLID_1291_" class="st1" d="M198.5,450c0.3-0.7,0.7-1.3,1.6-1.2c0.1,0,0.2,0.2,0.2,0.3C200,449.8,199.3,450,198.5,450
		C198.5,450,198.5,450,198.5,450z"/>
	<path id="XMLID_1290_" class="st1" d="M209.7,430.5c0.3-0.7,0.7-1.3,1.6-1.2c0.1,0,0.2,0.2,0.2,0.3
		C211.2,430.3,210.5,430.5,209.7,430.5C209.8,430.5,209.7,430.5,209.7,430.5z"/>
	<path id="XMLID_1289_" class="st1" d="M281.4,511.1c-0.1-0.2-0.2-0.4-0.1-0.6c0.1-0.1,0.4-0.2,0.5-0.3c0.1,0.2,0.2,0.4,0.1,0.5
		C281.8,510.9,281.6,511,281.4,511.1z"/>
	<path id="XMLID_1288_" class="st1" d="M167,421.5c0.3-0.2,0.5-0.4,0.8-0.6C168,421.8,167.3,421.3,167,421.5
		C167,421.5,167,421.5,167,421.5z"/>
	<path id="XMLID_1287_" class="st1" d="M252.5,516c0.3-0.2,0.5-0.4,0.8-0.6C253.5,516.3,252.8,515.8,252.5,516L252.5,516z"/>
	<path id="XMLID_1286_" class="st1" d="M161.7,414.7c0.3-0.2,0.5-0.4,0.8-0.6c0.1,0.1,0.1,0.2,0.2,0.3
		C162.4,414.6,162.1,414.7,161.7,414.7C161.8,414.8,161.7,414.7,161.7,414.7z"/>
	<path id="XMLID_1285_" class="st1" d="M161,415.5c-0.3,0.6-0.9,0.7-1.5,0.8c0,0,0,0,0,0C159.8,415.6,160.4,415.5,161,415.5
		C161,415.5,161,415.5,161,415.5z"/>
	<path id="XMLID_1284_" class="st1" d="M266.7,493.5c0.3-0.2,0.5-0.4,0.8-0.6c0.1,0.1,0.1,0.2,0.2,0.3
		C267.4,493.3,267.1,493.4,266.7,493.5C266.8,493.5,266.7,493.5,266.7,493.5z"/>
	<path id="XMLID_1283_" class="st1" d="M202.2,422.2c0.3-0.2,0.5-0.4,0.8-0.6c0.1,0.1,0.1,0.2,0.2,0.3
		C202.9,422.1,202.6,422.2,202.2,422.2L202.2,422.2z"/>
	<path id="XMLID_1282_" class="st1" d="M198.5,473.3c0.3-0.2,0.5-0.4,0.8-0.6C199.5,473.6,198.8,473.1,198.5,473.3
		C198.5,473.2,198.5,473.3,198.5,473.3z"/>
	<path id="XMLID_1281_" class="st1" d="M183,422.7c-0.1,0-0.2,0.1-0.3,0.1c0-0.1-0.1-0.3-0.1-0.4c0.1,0,0.2,0,0.3,0.1
		C183,422.5,183,422.6,183,422.7z"/>
	<path id="XMLID_1280_" class="st1" d="M266.7,531.7c0.3-0.2,0.5-0.4,0.8-0.6c0.1,0.1,0.1,0.2,0.2,0.3
		C267.4,531.6,267.1,531.7,266.7,531.7L266.7,531.7z"/>
	<path id="XMLID_1279_" class="st1" d="M275.8,446.3c-0.3,0.2-0.5,0.4-0.8,0.6c-0.1-0.1-0.1-0.2-0.2-0.3
		C275.1,446.4,275.4,446.3,275.8,446.3L275.8,446.3z"/>
	<path id="XMLID_1278_" class="st1" d="M252.5,516c-0.2,0.3-0.5,0.5-0.7,0.8C252,516.5,252.3,516.3,252.5,516
		C252.5,516,252.5,516,252.5,516z"/>
	<path id="XMLID_1277_" class="st1" d="M198.5,473.2c-0.1,0.1-0.2,0.2-0.3,0.3c0-0.1,0-0.2,0.1-0.2
		C198.3,473.3,198.4,473.3,198.5,473.2C198.5,473.3,198.5,473.2,198.5,473.2z"/>
	<path id="XMLID_1276_" class="st1" d="M176.7,426c0.1-0.1,0.2-0.2,0.3-0.3C177,425.8,176.9,425.9,176.7,426
		C176.8,426,176.7,426,176.7,426z"/>
	<path id="XMLID_1275_" class="st1" d="M266,494.2c0.3-0.2,0.5-0.5,0.8-0.7c0,0,0,0,0,0C266.5,493.8,266.3,494,266,494.2
		C266,494.3,266,494.2,266,494.2z"/>
	<path id="XMLID_1274_" class="st1" d="M202.3,422.3c-0.2,0.3-0.5,0.5-0.7,0.8c0,0,0,0,0,0C201.7,422.7,202,422.5,202.3,422.3
		C202.2,422.2,202.3,422.3,202.3,422.3z"/>
	<path id="XMLID_1273_" class="st1" d="M280.3,443.3c-0.3,0.2-0.5,0.5-0.8,0.7c0,0,0,0,0,0C279.7,443.7,280,443.5,280.3,443.3
		C280.2,443.2,280.3,443.3,280.3,443.3z"/>
	<path id="XMLID_1272_" class="st1" d="M161.8,414.8c-0.3,0.2-0.5,0.5-0.8,0.7c0,0,0,0,0,0C161.2,415.3,161.5,415,161.8,414.8
		C161.7,414.7,161.8,414.8,161.8,414.8z"/>
	<path id="XMLID_1271_" class="st1" d="M275.7,446.2c0.2-0.3,0.5-0.5,0.7-0.8c0,0,0,0,0,0C276.3,445.8,276,446,275.7,446.2
		C275.8,446.3,275.7,446.2,275.7,446.2z"/>
	<path id="XMLID_1270_" class="st1" d="M266.8,531.8c-0.2,0.3-0.5,0.5-0.7,0.8c0,0,0,0,0,0C266.2,532.2,266.5,532,266.8,531.8
		C266.7,531.7,266.8,531.8,266.8,531.8z"/>
	<path id="XMLID_1269_" class="st1" d="M189.5,467.2c0.1-0.1,0.2-0.2,0.3-0.3c0,0.1,0,0.2-0.1,0.2
		C189.7,467.2,189.6,467.2,189.5,467.2C189.5,467.3,189.5,467.2,189.5,467.2z"/>
	<path id="XMLID_1268_" class="st1" d="M240.5,250.5c1.2-2,2.9-3,5.2-3c0,0,0,0,0,0C244.5,249.4,242.5,250,240.5,250.5
		C240.5,250.5,240.5,250.5,240.5,250.5z"/>
	<path id="XMLID_1267_" class="st1" d="M215.8,219c-0.8,1.5-2.2,2-3.8,2.2l0,0C212.8,219.7,213.9,218.8,215.8,219
		C215.7,219,215.8,219,215.8,219z"/>
	<path id="XMLID_1266_" class="st1" d="M214.8,230.4c-0.3,1.5-1.2,1.7-2.3,1.8C212.8,231.1,213.4,230.6,214.8,230.4z"/>
	<path id="XMLID_1265_" class="st1" d="M178.2,282c0.5-0.9,1.1-1.6,2.3-1.3C180.5,282.4,179.2,281.8,178.2,282
		C178.3,282,178.2,282,178.2,282z"/>
	<path id="XMLID_1264_" class="st1" d="M152.1,264.8c-0.2,0.1-0.5,0.3-0.8,0.4c-0.4,0-0.7-0.3-0.5-0.7c0.1-0.2,0.5-0.4,0.8-0.4
		C152,264.1,152.4,264.2,152.1,264.8z"/>
	<path id="XMLID_1263_" class="st1" d="M210.5,247.5c0.1-0.6,0.1-1.2,0.9-1.1c0.1,0,0.2,0.1,0.2,0.2
		C211.7,247.4,211.1,247.4,210.5,247.5L210.5,247.5z"/>
	<path id="XMLID_1262_" class="st1" d="M182.4,280.1c-0.1-0.2-0.2-0.4-0.2-0.6c0.1-0.1,0.3-0.2,0.5-0.3c0.1,0.2,0.2,0.4,0.1,0.5
		C182.8,279.9,182.6,280,182.4,280.1z"/>
	<path id="XMLID_1261_" class="st1" d="M153.9,263.6c-0.1-0.2-0.2-0.4-0.2-0.6c0.1-0.1,0.3-0.2,0.5-0.3c0.1,0.2,0.2,0.4,0.1,0.5
		C154.3,263.4,154.1,263.5,153.9,263.6z"/>
	<path id="XMLID_1260_" class="st1" d="M190.3,224.3c-0.5,0.9-1.4,0.7-2.3,0.7l0,0C188.5,224.1,189.4,224.2,190.3,224.3
		C190.2,224.2,190.3,224.3,190.3,224.3z"/>
	<path id="XMLID_1259_" class="st1" d="M212,221.3c-0.3,0.2-0.5,0.4-0.8,0.6c-0.1-0.1-0.1-0.2-0.2-0.3
		C211.3,221.4,211.7,221.3,212,221.3C212,221.2,212,221.3,212,221.3z"/>
	<path id="XMLID_1258_" class="st1" d="M176,261.8c-0.3,0.6-0.9,0.8-1.5,0.8c0,0,0,0,0,0C174.8,261.9,175.4,261.8,176,261.8
		C176,261.7,176,261.8,176,261.8z"/>
	<path id="XMLID_1257_" class="st1" d="M177.5,261c-0.3,0.6-0.9,0.7-1.5,0.8c0,0,0,0,0,0C176.3,261.1,176.9,261,177.5,261
		C177.5,261,177.5,261,177.5,261z"/>
	<path id="XMLID_1256_" class="st1" d="M178.3,260.3c0.3-0.2,0.5-0.4,0.8-0.6C179.3,260.6,178.5,260.1,178.3,260.3L178.3,260.3z"/>
	<path id="XMLID_1255_" class="st1" d="M239,251.2c0.3-0.6,0.9-0.7,1.5-0.8c0,0,0,0,0,0C240.2,251.1,239.6,251.3,239,251.2
		L239,251.2z"/>
	<path id="XMLID_1254_" class="st1" d="M207.5,249c0.3-0.2,0.5-0.4,0.8-0.6c0.1,0.1,0.1,0.2,0.2,0.3
		C208.2,248.8,207.8,248.9,207.5,249L207.5,249z"/>
	<path id="XMLID_1253_" class="st1" d="M186.5,226.5c-0.3,0.2-0.5,0.4-0.8,0.6C185.5,226.2,186.2,226.7,186.5,226.5
		C186.5,226.5,186.5,226.5,186.5,226.5z"/>
	<path id="XMLID_1252_" class="st1" d="M239,251.3c-0.1,0.1-0.2,0.2-0.3,0.3c0-0.1,0-0.2,0.1-0.2C238.8,251.3,238.9,251.3,239,251.3
		C239,251.2,239,251.3,239,251.3z"/>
	<path id="XMLID_1251_" class="st1" d="M207.5,249c-0.1,0.1-0.2,0.2-0.3,0.3c0-0.1,0-0.2,0.1-0.2C207.3,249.1,207.4,249,207.5,249
		C207.5,249,207.5,249,207.5,249z"/>
	<path id="XMLID_1250_" class="st1" d="M210.5,247.5c-0.1,0.1-0.2,0.2-0.3,0.3c0-0.1,0-0.2,0.1-0.2
		C210.3,247.6,210.4,247.5,210.5,247.5C210.5,247.5,210.5,247.5,210.5,247.5z"/>
	<path id="XMLID_1249_" class="st1" d="M186.5,226.5c0.2-0.3,0.5-0.5,0.7-0.8c0,0,0,0,0,0C187,226,186.8,226.3,186.5,226.5
		C186.5,226.5,186.5,226.5,186.5,226.5z"/>
	<path id="XMLID_1248_" class="st1" d="M188,225c-0.3,0.2-0.5,0.5-0.8,0.7c0,0,0,0,0,0C187.5,225.5,187.7,225.2,188,225
		C188,225,188,225,188,225z"/>
	<path id="XMLID_1247_" class="st1" d="M178.2,260.2c-0.2,0.3-0.5,0.5-0.7,0.8c0,0,0,0,0,0C177.8,260.8,178,260.5,178.2,260.2
		C178.3,260.3,178.2,260.2,178.2,260.2z"/>
	<path id="XMLID_1246_" class="st1" d="M298.9,368.9c0.3,0.3,0.6,0.6,0.9,0.9c-2.2,1.4-4.5,2.8-6.7,4.2c-0.2-0.3-0.3-0.5-0.5-0.8
		C294.7,371.8,296.8,370.3,298.9,368.9z"/>
	<path id="XMLID_1245_" class="st1" d="M296.1,357.9c-0.5,0.6-1.5,0.9-1.8,0.4c-0.3-0.8,0.9-0.5,1.3-0.9
		C295.8,357.5,296,357.7,296.1,357.9z"/>
	<path id="XMLID_1244_" class="st1" d="M278.6,404.1c0.3-0.4,0.9-0.7,1.2-0.3c0.4,0.6-0.4,0.7-0.7,0.9
		C279,404.5,278.8,404.3,278.6,404.1z"/>
	<path id="XMLID_1243_" class="st1" d="M286.6,351.3c0.2-0.1,0.4-0.2,0.6-0.2c0.1,0,0.2,0.2,0.4,0.4c-0.2,0.1-0.4,0.2-0.6,0.2
		C286.8,351.7,286.7,351.4,286.6,351.3z"/>
	<path id="XMLID_1242_" class="st1" d="M257.3,347.6c-0.3,0.1-0.5,0.1-0.8,0.2c0.1-0.2,0.2-0.4,0.4-0.7
		C257,347.3,257.2,347.4,257.3,347.6z"/>
	<path id="XMLID_1241_" class="st1" d="M264.1,311.6c0.5-0.3,1.3-1.3,1.7-0.7c0.5,0.6-0.6,1-1.2,1.2
		C264.4,311.9,264.3,311.8,264.1,311.6z"/>
	<path id="XMLID_1240_" class="st1" d="M317.3,302.7c-0.5,0.4-1.1,0.6-1.6,0c0.4-0.2,0.8-0.4,1.2-0.6
		C317.1,302.3,317.2,302.5,317.3,302.7z"/>
	<path id="XMLID_1239_" class="st1" d="M305.7,289.6c-0.2,0.3-0.2,0.6-0.4,0.6c-0.2,0-0.4-0.1-0.6-0.1c-0.3-0.1-0.3-0.3,0-0.4
		C305,289.6,305.3,289.6,305.7,289.6z"/>
	<path id="XMLID_1238_" class="st1" d="M318.1,328.8c0.3-0.1,0.6-0.1,0.8-0.2c-0.1,0.2-0.2,0.5-0.4,0.7
		C318.4,329.2,318.3,329,318.1,328.8z"/>
	<path id="XMLID_1237_" class="st1" d="M267.1,310.3c-0.1-0.1-0.1-0.2-0.2-0.2c0.1-0.1,0.2-0.2,0.3-0.2c0.1,0,0.1,0.1,0.2,0.2
		C267.2,310.2,267.1,310.3,267.1,310.3z"/>
	<path id="XMLID_1236_" class="st1" d="M272.3,272.6c-0.3,0.1-0.6,0.1-0.8,0.2c0.1-0.2,0.2-0.5,0.4-0.7
		C272,272.3,272.2,272.4,272.3,272.6z"/>
	<path id="XMLID_1235_" class="st1" d="M222.5,300c0.3-0.2,0.5-0.4,0.8-0.6C223.5,300.3,222.8,299.8,222.5,300
		C222.5,300,222.5,300,222.5,300z"/>
	<path id="XMLID_1234_" class="st1" d="M239.7,320.2c0.1-0.1,0.3-0.2,0.4-0.3C240,320,239.9,320.2,239.7,320.2
		C239.8,320.3,239.7,320.2,239.7,320.2z"/>
	<path id="XMLID_1233_" class="st1" d="M222.5,300c-0.2,0.3-0.5,0.5-0.7,0.8c0,0,0,0,0,0C222,300.5,222.3,300.3,222.5,300
		C222.5,300,222.5,300,222.5,300z"/>
	<path id="XMLID_1232_" class="st1" d="M231.5,264c-0.1,0.1-0.2,0.2-0.3,0.3c0-0.1,0-0.2,0.1-0.2C231.3,264.1,231.4,264.1,231.5,264
		C231.5,264,231.5,264,231.5,264z"/>
	<path id="XMLID_1229_" class="st5" d="M478.1,457.1c0.1,0.4,0.2,0.8,0.2,1.2c0.6,6,1.1,12,1.1,18.1c-0.1,1.2-0.2,2.4-0.3,3.6
		c-0.6,3.6-1.1,7.1-1.7,10.7c-0.5,1.8-1,3.7-1.5,5.5c-1.5,4.1-3.4,8.1-4.5,12.4c0,0,0,0,0,0c-0.7,0-0.7,0.5-0.8,1
		c-0.6,1.1-1.8,2-1.4,3.5c-0.8,1.1-1.7,2.1-2.4,3.2c-13.4,21.6-32.4,35.4-57.2,41.1c-0.7,0.2-1.4,0.5-2.1,0.7
		c-1.4-0.3-2.7,0.5-4,0.7c-6.1,0.3-12.1,0.5-18.2,0.8c-1.8-0.2-3.5-0.4-5.3-0.7c-4.1-0.8-8.1-1.5-12.2-2.3c-1.9-0.6-3.8-1.1-5.8-1.7
		c-3-1.2-6.1-2.4-9.1-3.7c-0.9-0.9-2-1.3-3.2-1.7c-4.9-3.2-9.8-6.4-14.7-9.6c-0.3-0.3-0.6-0.5-1-0.8c-1.9-1.8-3.9-3.5-5.8-5.3
		c-1-1-2-2-2.9-3c-1.6-1.9-3.2-3.9-4.8-5.8c-0.4-0.5-0.7-1-1.1-1.4c-2.4-4.1-4.9-8.2-7.3-12.3c-0.4-1-0.9-2.1-1.3-3.1
		c-1.5-4.7-3.1-9.4-4.6-14c-0.5-1.5-0.2-3.1-1.1-4.5c-0.3-2.7-0.6-5.4-0.9-8.2c0-0.5-0.1-1-0.1-1.6c0-3-0.1-6-0.1-9
		c0.1-1.1,0.1-2.1,0.2-3.2c0.1-3.5,1.4-6.8,1-10.3c0,0-0.1,0-0.1,0c0.7,0.2,0.6-0.3,0.6-0.7c0.5-1.8,0.9-3.7,1.4-5.5
		c1.6-4.5,3.3-9,4.9-13.6c0.1-0.2,0.2-0.4,0.3-0.6c0.2-0.1,0.2-0.3,0.1-0.4c0.2-0.3,0.4-0.6,0.6-1c0.6-1.2,1.2-2.3,1.8-3.5
		c8.6-14.3,20-25.6,34.7-33.6c7.6-4.1,15.6-7,24-9c1.5-0.4,3-0.8,4.5-1.1c6.2-0.5,12.5-1.1,18.8-1c2.2,0.1,4.4,0.3,6.6,0.4
		c4.1,0.8,8.3,1.5,12.4,2.3c2.2,0.6,4.4,1.2,6.6,1.9c2.9,1.2,5.8,2.5,8.7,3.7c1.1,0.6,2.2,1.1,3.3,1.7c2.4,1.4,4.7,2.9,7.1,4.3
		c0.5,0.3,0.9,0.6,1.4,0.9c2.2,1.7,4.4,3.4,6.5,5.1c1.2,1.1,2.4,2.1,3.5,3.2c3.2,3.5,6.3,7.1,9.5,10.6c0.7,1,1.3,1.9,2,2.9
		c2.4,4.1,4.8,8.1,7.2,12.2c0.3,0.6,0.5,1.2,0.8,1.8c0.9,2.4,1.8,4.8,2.8,7.1c0.4,1.3,0.7,2.6,1.1,3.9
		C476.8,452.1,477.4,454.6,478.1,457.1z M370.4,550.3c0.8,0.2,1.6,0.5,2.4,0.7c3.3,0.9,6.7,1.9,10.2,1.8c2.7,1,5.5,0.7,8.3,0.7
		c4.6,0.4,9.2-0.1,13.8-0.7c29.5-4,54.1-29,61.2-54.8c0.9-1,0.8-2.4,1.1-3.6c1-3.5,1.9-7,1.9-10.6c0.2-1.3,0.3-2.5,0.5-3.8
		c0.6-5.8,0.3-11.5-0.7-17.2c0.1-0.8-0.1-1.6-0.6-2.3c0-2.6-0.7-5-1.6-7.4c0.1-0.6-0.1-1.2-0.6-1.6c-0.2-2.9-1.5-5.4-2.6-7.9
		c-0.2-0.3-0.4-0.7-0.5-1c-0.6-2.2-1.5-4.2-2.9-6c-0.4-0.8-0.8-1.5-1.3-2.3c-0.8-2-2-3.8-3.4-5.5c-0.4-0.5-0.9-1-1.3-1.5
		c-0.3-1.4-1.3-2.4-2.3-3.3c-1-1.8-2.4-3.2-3.9-4.6c-1.2-1.7-2.7-3.2-4.4-4.4c-1.8-1.9-3.6-3.6-5.9-4.9c-0.8-0.9-1.7-1.8-2.9-2.2
		c-7-5-14.5-9.1-23-11c-1.2-1.1-2.7-1-4.1-1.3c-4.7-1.4-9.5-2.1-14.4-1.7c-1.8-0.7-3.6-0.3-5.4-0.1c-6.9-0.3-13.7,1.1-20.2,3.2
		c-24.6,8.2-41.5,24.4-50,49.1c-0.7,0.9-1,2-1,3.2c-3.3,9.3-4,18.9-3.4,28.6c-0.3,1.6,0.2,3,0.6,4.5c-0.3,2.3,0.5,4.5,0.9,6.8
		c0.5,1.7,0.9,3.5,1.4,5.2c0.1,2.2,1,4.2,1.9,6.2c0.2,1,0.4,2,1.1,2.8c-0.1,1.1,0.6,1.8,1,2.7c0.7,2,1.5,3.9,2.8,5.7
		c0.6,1.1,1.3,2.2,1.9,3.3c2.3,4.3,5.1,8.2,8.5,11.7c0.4,1,1.1,1.7,2,2.2c1.3,1.8,2.8,3.3,4.7,4.6c0.7,0.8,1.2,1.8,2.3,2.2
		c3.9,3.2,7.9,6.3,12.6,8.4c0.7,0.8,1.6,1.2,2.6,1.3c0.9,0.5,1.9,0.9,2.8,1.4c2.6,1.4,5.3,2.6,8.3,3.1
		C369.3,549.9,369.8,550.1,370.4,550.3z"/>
	<path id="XMLID_1228_" class="st1" d="M309.2,423.3c2.9-1.7,5.6-3.8,9.9-5.2c-2.8,2.8-5.3,4.3-7.8,5.7c-0.6,0-1.2,0-1.8-0.1
		C309.4,423.6,309.3,423.5,309.2,423.3z"/>
	<path id="XMLID_1227_" class="st1" d="M306.9,424.7c0.8-0.4,1.5-0.9,2.3-1.4c0.1,0.1,0.2,0.3,0.4,0.4c-0.2,0.6-0.4,1.1-0.7,1.7
		c0,0,0,0,0,0c-0.5,0-1.1-0.1-1.6-0.1C307.1,425.1,307,424.9,306.9,424.7z"/>
	<path id="XMLID_1226_" class="st1" d="M298.6,432.3c0-1.6,0.8-2,2.2-1.4C300.3,431.8,299.5,432.2,298.6,432.3z"/>
	<path id="XMLID_1225_" class="st1" d="M300.8,430.8c0-1.5,0.8-1.9,2.2-1.5C302.6,430.3,301.8,430.7,300.8,430.8z"/>
	<path id="XMLID_1224_" class="st1" d="M307.3,425.3c0.5,0,1.1,0.1,1.6,0.1c-0.5,0.9-1.3,1.4-2.3,1.6
		C306.8,426.4,307,425.8,307.3,425.3z"/>
	<path id="XMLID_1223_" class="st1" d="M308.8,425.4c0.2-0.6,0.4-1.1,0.7-1.7c0.6,0,1.2,0,1.8,0.1
		C310.6,424.6,309.9,425.2,308.8,425.4z"/>
	<path id="XMLID_1222_" class="st1" d="M305.2,427.8c0-1,0.7-1,1.4-0.9C306.4,427.5,305.9,427.8,305.2,427.8z"/>
	<path id="XMLID_1221_" class="st1" d="M303,429.3c0-1,0.7-1,1.4-0.9C304.1,429,303.7,429.3,303,429.3z"/>
	<path id="XMLID_1220_" class="st1" d="M304.4,428.4c0.1-0.5,0.3-0.8,0.9-0.7C305.2,428.2,304.8,428.4,304.4,428.4z"/>
	<path id="XMLID_1219_" class="st1" d="M170.7,527.2c0.3-0.6,0.9-0.7,1.5-0.7l0,0C171.9,527.1,171.4,527.2,170.7,527.2
		C170.8,527.3,170.7,527.2,170.7,527.2z"/>
	<path id="XMLID_1218_" class="st1" d="M172.2,526.5c0.1-0.1,0.2-0.2,0.3-0.3c0,0.1,0,0.2-0.1,0.2
		C172.4,526.4,172.3,526.5,172.2,526.5C172.3,526.5,172.2,526.5,172.2,526.5z"/>
	<path id="XMLID_1217_" class="st1" d="M186.5,539.3c0,0.3,0,0.5,0,0.8C186.1,539.8,186,539.5,186.5,539.3z"/>
	<path id="XMLID_1216_" class="st1" d="M345.5,320.2c0.2-1.5,1.2-1.9,2.9-2C347.8,319.8,346.7,320.1,345.5,320.2
		C345.5,320.3,345.5,320.2,345.5,320.2z"/>
	<path id="XMLID_1215_" class="st1" d="M334.1,539.2c0.3,0.3,0.6,0.5,1,0.8c-3.5,2.2-7,4.5-10.6,6.7c-0.2-0.4-0.5-0.9-0.7-1.3
		C327.2,543.3,330.6,541.3,334.1,539.2z"/>
	<path id="XMLID_1214_" class="st1" d="M482.9,465.2c-0.5,0.7-1.7,0.9-1.9,0.4c-0.4-0.9,1-0.5,1.3-1
		C482.5,464.7,482.7,464.9,482.9,465.2z"/>
	<path id="XMLID_1213_" class="st1" d="M300.5,444c2.3-2.5,4.8-4.7,8.5-4.8c-2,2.1-4.5,3.4-6.9,4.8C301.6,444,301,444,300.5,444
		L300.5,444z"/>
	<path id="XMLID_1212_" class="st1" d="M312.1,437.2c-0.1,0.2-0.2,0.4-0.3,0.6c-0.9,0.4-1.8,0.9-2.7,1.3
		C309.2,437.1,310.4,436.8,312.1,437.2z"/>
	<path id="XMLID_1211_" class="st2" d="M305.6,456.9c0,0.4,0.1,0.9-0.6,0.7C305.2,457.3,305.4,457.1,305.6,456.9z"/>
	<path id="XMLID_1210_" class="st2" d="M470.8,509.5c0-0.5,0.1-1,0.8-1C471.7,509.2,471.2,509.3,470.8,509.5z"/>
	<path id="XMLID_1209_" class="st1" d="M300.5,444c-0.3,0.2-0.5,0.4-0.8,0.5c0,0-0.1-0.2-0.2-0.3C299.8,444.2,300.1,444.1,300.5,444
		C300.5,444,300.5,444,300.5,444z"/>
	<path id="XMLID_1208_" class="st1" d="M312.9,435.8c-0.2,0.3-0.4,0.6-0.6,1C312,436.2,312.4,436,312.9,435.8z"/>
	<path id="XMLID_1207_" class="st1" d="M204.5,483c4.3-1.9,8-4.9,12.1-7.3c1.2-0.7,2.2-1.6,3.7-1.7c0.1,8.6,0.1,17.2,0.2,25.8
		c0,2-0.9,2.2-2.5,2.2c-3.7-0.1-7.5-0.1-11.2,0c-1.6,0-2.6-0.2-2.5-2.2C204.4,494.2,204.4,488.6,204.5,483z"/>
	<path id="XMLID_1206_" class="st1" d="M179,498.8c5.9-1.9,10.2-6.4,15.7-9c0.1,3.2,0,6.5,0.2,9.7c0.1,1.9-0.4,2.6-2.5,2.6
		c-3.6-0.1-7.2-0.1-10.8,0C179,502.1,178.2,501.2,179,498.8z"/>
	<path id="XMLID_1200_" class="st2" d="M317.8,446c8.5-24.7,25.4-40.9,50-49.1c6.5-2.2,13.2-3.5,20.2-3.2c-4.1,3.1-8.2,6.2-12.3,9.4
		c0.2,0.3,0.4,0.6,0.6,0.8c5.7-3.4,11.4-6.7,17.1-10.1c4.9-0.4,9.7,0.3,14.4,1.7c-9.1,6.3-18.2,12.5-27.3,18.8
		c3.9-0.6,6.9-2.7,10-4.6c7.1-4.3,14.7-7.8,21.4-12.8c8.5,1.9,16,5.9,23,11c-0.1,1-0.5,1.8-1.5,2.5c-7.6,5-15.3,10.1-22.9,15.2
		c-3.3-1.7-6.5-3.8-10.3-4.2c-3.1-0.3-4.3-1.3-3.9-4.6c0.3-2.7-1.2-4.2-4.1-4.1c-2.7,0.1-5.5,0.9-5.3,4c0.3,4.1-1.7,4.9-5,5.9
		c-14,4.2-22.7,18.5-19.9,31.9c1.3,6.5,5.1,11.5,10,15.8c-0.5,1.8,0.9,0.5,1.3,0.8c3.5,1.8,7.1,3.7,11.2,3.9
		c2.4,0.1,2.3,1.6,2.3,3.3c0,13.7,0,27.4,0,41.1c0,0.5,0.3,1.3-0.8,1.7c-8.6-3.9-13.7-10.5-15.1-20c-0.2-1.3,0.4-3.2-1.2-3.6
		c-2.5-0.7-4.9,0.1-7.1,1.4c-1.8,1-1.2,2.8-1,4.4c0.6,5.1,2.8,9.5,5.8,13.6c0,1-0.8,1.5-1.5,1.9c-8.5,4.9-17,9.8-25.5,14.6
		c-1.8-1.2-3.4-2.8-4.7-4.6c8.3-5.5,16.5-11.1,24.8-16.6c-0.2-0.3-0.3-0.6-0.5-0.8c-8.8,5.1-17.5,10.2-26.3,15.3
		c-3.4-3.5-6.2-7.4-8.5-11.7c6.4-5.6,14.2-9.3,20.7-14.8c-3.2,0.5-5.5,2.7-8.2,4c-4.9,2.4-9.1,6.1-14.4,7.5
		c-1.2-1.7-2.1-3.7-2.8-5.7c5.4-3.6,10.9-7.1,16.3-10.8c1.6-1.1,3.6-1.7,4.3-3.7c2.7,0.1,4.2-2.2,6.1-3.5c7.1-4.6,14.4-9.1,21-14.5
		c1,0,1.5-0.5,1.5-1.5c0.1-0.1,0.1-0.2,0.2-0.3c-0.1,0.1-0.1,0.2-0.2,0.3c-1,0-1.5,0.5-1.5,1.5c-1-0.1-2,0.2-2.9,0.7
		c-8.7,5-17.3,10.1-26.1,15.1c-6.9,3.9-13.4,8.5-20.9,11.4c-0.8-2-1.8-4-1.9-6.2c13.2-8.9,26.4-17.8,39.8-26.8
		c-1.1-1-1.7-0.5-2.2-0.2c-8.8,5.1-17.6,10.4-26.5,15.3c-4.1,2.3-7.7,5.4-12.5,6.5c-0.4-2.2-1.2-4.4-0.9-6.8
		c9-5.9,17.9-11.8,26.9-17.6c-0.2-0.4-0.5-0.7-0.7-1.1c-5.6,3.3-11.2,6.7-17,9.7c-3.2,1.6-5.7,4.8-9.8,4.5
		c-0.6-9.8,0.2-19.3,3.4-28.6c4.9-3.3,9.8-6.7,14.7-10c0.3-0.3,0.7-0.5,1-0.8c-0.6-0.5-1-0.2-1.4,0.3
		C326.7,441.1,322.3,443.5,317.8,446z M358.3,465c-0.5,0.1-1.2,0.1-1.1,0.9c0,0.1,0.1,0.2,0.2,0.2
		C358.2,466.2,358.2,465.5,358.3,465c0.1-0.1,0.1-0.2,0.2-0.3C358.4,464.8,358.3,464.9,358.3,465z M348.3,498.6
		c0.3-0.6,0.2-0.7-0.2-0.6c-0.3,0.1-0.7,0.3-0.8,0.5c-0.2,0.4,0.1,0.7,0.5,0.5c0.3-0.1,0.4-0.5,1-1.6c-0.1,0.2-0.3,0.4-0.4,0.5
		c0.1,0,0.2,0,0.3,0c0.2-0.1,0.4-0.2,0.6-0.3C349.3,497.6,349.1,497.6,348.3,498.6z M360.8,463.9c-0.2-0.1-0.4-0.1-0.5-0.2
		c0,0.1,0.1,0.2,0.1,0.3C360.5,464,360.6,464,360.8,463.9z M379.9,415.1c-0.3-0.1-0.5-0.3-0.7-0.2c-0.1,0-0.3,0.2-0.4,0.4
		c0.2,0.1,0.4,0.2,0.6,0.2C379.6,415.4,379.7,415.2,379.9,415.1z"/>
	<path id="XMLID_1195_" class="st2" d="M463.7,443.5c1.1,2.6,2.4,5.1,2.6,7.9c-2.9,1.9-5.9,3.8-8.8,5.6c3.8,0,6.3-2.6,9.4-4
		c0.9,2.4,1.6,4.8,1.6,7.4c-0.8,0.3-1.7,0.4-2.4,0.9c-6.6,4.4-13.2,8.9-19.9,13.3c-0.4,0.3-0.8,0.6-0.1,1.6c7.6-4.5,15.3-9,23-13.5
		c1,5.7,1.3,11.4,0.7,17.2c-1.2-0.1-2.1,0.6-3,1.2c-5.2,3.6-10.6,6.9-15.7,10.7c-3.8,2.9-8.2,4.9-11.6,8.3c0.2,0.3,0.3,0.5,0.5,0.8
		c9.7-5.8,19.5-11.5,29.2-17.3c0.1,3.7-0.9,7.2-1.9,10.6c-5.6,1.4-9,6-13.6,9c1.4,0.3,2.3-0.6,3.4-1c3.1-1.3,5.4-4.3,9.1-4.3
		c-7.1,25.8-31.7,50.8-61.2,54.8c-4.6,0.6-9.2,1.1-13.8,0.7c8.5-6.4,17-12.8,25.4-19.2c-0.2-0.3-0.4-0.6-0.6-0.8
		c-2.5,1.4-5,2.9-7.5,4.3c-8.5,5-17.1,10.1-25.6,15.1c-3.5,0.1-6.8-0.9-10.2-1.8c2.2-2.1,5.5-2.9,7.1-5.7c4.8-1.6,8.1-5.7,12.7-7.8
		c0.7-0.3,0.9-1.2,0.9-1.9c0,0,0,0,0,0c1.3,0,2.8,0,3.3-1.6c0.2-0.7-0.9-0.6-1.4-0.8c0.3-0.7,0.9-1.4,0.8-2
		c-0.9-4.6,2.1-5.5,5.6-6.6c13-4.3,21.3-17.2,19.6-29.7c-1.6-11.4-9.9-20.1-21.6-22.4c-2.3-0.4-3.8-0.9-3.5-3.9
		c0.3-4.3,0.1-8.7,0.1-13.1c0-9.7,0-19.4,0-29.2c7.8,1.9,14.7,10.5,15.9,19.3c0.6,4.8,1.5,5.3,6.1,3.8c1.2-0.4,2.2-1.1,3.3-1.7
		c6.3-2.6,11.7-6.7,17.6-10.1c5.9-2.1,10.8-6.1,16.4-8.8c1.4,1.7,2.6,3.5,3.4,5.5c-6.7,4.3-13.4,8.6-20,13c-1.1,0.7-2.6,1.1-2.7,2.8
		c-0.1,0.1-0.1,0.2-0.2,0.3c0.1-0.1,0.1-0.2,0.2-0.3c8.3-4,16-9,24-13.5c1.4,1.8,2.3,3.8,2.9,6c-1,0.7-2,1.4-3,2.2
		c-1.1,0.6-2.6,0.7-2.9,2.4c-0.4,0.1-0.9,0.1-1.3,0.2c0,0.1,0.1,0.3,0.1,0.3c0.5,0.1,0.9-0.1,1.1-0.6c1.4-0.2,2.4-1.1,3.4-1.8
		C461.7,444.6,462.7,444.1,463.7,443.5z M443,477.7c0.5-0.1,1.2-0.1,1.1-0.9c0-0.1-0.1-0.2-0.2-0.2
		C443.1,476.6,443.1,477.2,443,477.7c-0.1,0.1-0.1,0.2-0.2,0.3C442.9,478,442.9,477.9,443,477.7z M451.8,504.3
		c-0.1,0.2-0.2,0.4-0.3,0.6c0.2,0.1,0.5,0.3,0.6,0.2c0.1-0.1,0.2-0.4,0.3-0.6C452.2,504.5,452,504.4,451.8,504.3z M441,478.9
		c-0.2,0-0.4,0-0.6,0c0.1,0.1,0.2,0.2,0.3,0.2C440.8,479.1,440.9,479,441,478.9z"/>
	<path id="XMLID_1194_" class="st2" d="M355.1,543.8c-4.7-2.1-8.7-5.2-12.6-8.4c0.5-0.6,0.7-1.4,1.6-1.9c4.1-2,7.9-4.4,11.8-6.9
		c4.3-2.8,8.4-6.2,13.5-7.7c4.8,4.2,10.3,6.7,16.6,7.6c-6.9,4-13.7,8.1-20.6,12C362,540.5,359.1,543.1,355.1,543.8z"/>
	<path id="XMLID_1193_" class="st2" d="M448.1,419.3c1.5,1.4,2.9,2.8,3.9,4.6c-3,3-6.6,5.1-10.1,7.3c-6.7,4.4-12.9,9.5-20.1,13
		c-0.7-2.5-1.4-5-2.1-7.5c0.1-2.4,2.4-2.7,3.9-3.5C431.7,428.3,439.6,423.2,448.1,419.3z"/>
	<path id="XMLID_1192_" class="st2" d="M437.8,409.9c2.3,1.3,4.1,3,5.9,4.9c-0.1,1.6-1.3,2.3-2.4,3c-5.9,3.8-11.8,7.7-17.7,11.5
		c-1.9,1.3-3.6,3-6.1,3.4c-1.8-2-3.6-4-5.3-6c0.4-0.4,0.8-1,1.3-1.3c7.1-4.1,14.2-8.1,21.3-12.2C436.2,412.5,437.8,412,437.8,409.9z
		"/>
	<path id="XMLID_1191_" class="st2" d="M368.8,549.7c-2.9-0.5-5.6-1.8-8.3-3.1c0.8-0.6,1.5-1.3,2.3-1.9c4-2.2,7.7-4.8,11.3-7.6
		c2.1-1.4,4.7-2,5.9-4.6l-0.1,0c0.8,0.4,1.3,0,1.5-0.8c2-0.2,3.1-2.3,5.2-2.3c0.4,4.6,1.1,5.2,5.9,5.1c0.3,0.3,0.6,0.6,0.9,0.9
		c0,0,0,0,0,0C385,539.7,376.9,544.7,368.8,549.7z"/>
	<path id="XMLID_1190_" class="st2" d="M314.9,489c4.7-1,8.4-4.2,12.5-6.5c8.9-5,17.7-10.2,26.5-15.3c0.5-0.3,1-0.8,2.2,0.2
		c-13.4,9-26.6,17.9-39.8,26.8C315.9,492.5,315.4,490.7,314.9,489z"/>
	<path id="XMLID_1189_" class="st2" d="M318.2,500.4c7.5-2.9,14-7.5,20.9-11.4c8.7-4.9,17.4-10,26.1-15.1c0.9-0.5,1.8-0.8,2.9-0.7
		c0,0,0,0,0,0c-6.6,5.4-13.8,9.9-21,14.5c-1.9,1.3-3.4,3.5-6.1,3.5c-1.1-0.2-1.9,0.5-2.7,1c-6.3,3.6-12.6,7.3-18.9,10.9
		C318.5,502.4,318.4,501.4,318.2,500.4z"/>
	<path id="XMLID_1188_" class="st2" d="M421.7,444.1c7.3-3.4,13.5-8.6,20.1-13c3.5-2.3,7.1-4.3,10.1-7.3c1,0.9,2,1.9,2.3,3.3
		c-5.1,3.2-10.3,6.4-15.4,9.6c0,0,0.2,0.5,0.3,0.8c-5.9,3.4-11.3,7.5-17.6,10.1C421.7,446.4,421.7,445.3,421.7,444.1z"/>
	<path id="XMLID_1187_" class="st2" d="M417.6,432.8c2.4-0.4,4.1-2.1,6.1-3.4c5.9-3.8,11.8-7.7,17.7-11.5c1.2-0.8,2.3-1.4,2.4-3
		c1.7,1.2,3.2,2.7,4.4,4.4c-8.6,3.9-16.4,9.1-24.5,13.8c-1.5,0.9-3.7,1.1-3.9,3.5C419,435.3,418.3,434,417.6,432.8z"/>
	<path id="XMLID_1186_" class="st2" d="M383,552.8c8.5-5,17.1-10.1,25.6-15.1c2.5-1.5,5-2.9,7.5-4.3c0.2,0.3,0.4,0.6,0.6,0.8
		c-8.5,6.4-17,12.8-25.4,19.2C388.5,553.5,385.7,553.8,383,552.8z"/>
	<path id="XMLID_1185_" class="st1" d="M411.9,396.7c-6.7,5-14.3,8.5-21.4,12.8c-3.1,1.9-6.2,4-10,4.6c9.1-6.3,18.2-12.5,27.3-18.8
		C409.2,395.7,410.7,395.7,411.9,396.7z"/>
	<path id="XMLID_1184_" class="st2" d="M469.2,483.7c-9.7,5.8-19.5,11.5-29.2,17.3c-0.2-0.3-0.3-0.5-0.5-0.8
		c3.4-3.3,7.8-5.4,11.6-8.3c5-3.8,10.4-7.2,15.7-10.7c0.9-0.6,1.8-1.4,3-1.2C469.6,481.2,469.4,482.5,469.2,483.7z"/>
	<path id="XMLID_1183_" class="st2" d="M437.8,409.9c0,2.1-1.7,2.5-3.1,3.3c-7.1,4-14.2,8.1-21.3,12.2c-0.5,0.3-0.8,0.9-1.3,1.3
		c-0.6-0.5-1.1-0.9-1.7-1.4c7.6-5.1,15.2-10.2,22.9-15.2c0.9-0.6,1.3-1.4,1.5-2.5C436.1,408.2,437,409,437.8,409.9z"/>
	<path id="XMLID_1182_" class="st2" d="M313.4,477.8c4.1,0.2,6.6-2.9,9.8-4.5c5.8-3,11.3-6.5,17-9.7c0.2,0.4,0.5,0.7,0.7,1.1
		c-9,5.9-17.9,11.8-26.9,17.6C313.7,480.8,313.2,479.3,313.4,477.8z"/>
	<path id="XMLID_1181_" class="st2" d="M369.4,519c-5.1,1.5-9.1,4.9-13.5,7.7c-3.9,2.5-7.7,4.9-11.8,6.9c-1,0.5-1.1,1.2-1.6,1.9
		c-1.1-0.4-1.6-1.3-2.3-2.2c8.5-4.9,17-9.8,25.5-14.6c0.8-0.4,1.5-0.9,1.5-1.9C368,517.5,368.7,518.3,369.4,519z"/>
	<path id="XMLID_1180_" class="st1" d="M333.5,526.5c8.8-5.1,17.5-10.2,26.3-15.3c0.2,0.3,0.3,0.6,0.5,0.8
		c-8.3,5.5-16.5,11.1-24.8,16.6C334.7,528.2,333.9,527.5,333.5,526.5z"/>
	<path id="XMLID_1179_" class="st2" d="M386.7,529.5c-2.1,0-3.2,2.1-5.2,2.3c-0.6,0.1-1.3-0.1-1.5,0.8c0,0,0.1,0,0.1,0
		c-2.9,0.9-5.4,2.6-7.8,4.4c-3.1,1.8-6.3,3.6-9.4,5.4c-1.8,0.7-3.5,1.6-5,2.9c-1-0.1-1.9-0.6-2.6-1.3c3.9-0.7,6.9-3.3,10.2-5.2
		c6.9-3.9,13.8-8,20.6-12C387.5,527.3,386.5,528.5,386.7,529.5z"/>
	<path id="XMLID_1178_" class="st2" d="M469.1,462.8c-7.7,4.5-15.4,9-23,13.5c-0.7-1-0.3-1.3,0.1-1.6c6.6-4.4,13.2-8.9,19.9-13.3
		c0.7-0.5,1.6-0.6,2.4-0.9C469,461.2,469.2,462,469.1,462.8z"/>
	<path id="XMLID_1177_" class="st1" d="M319.3,503.2c6.3-3.6,12.6-7.3,18.9-10.9c0.8-0.5,1.6-1.2,2.7-1c-0.7,2.1-2.8,2.7-4.3,3.7
		c-5.4,3.7-10.8,7.2-16.3,10.8C319.9,505,319.2,504.2,319.3,503.2z"/>
	<path id="XMLID_1176_" class="st2" d="M460.3,436.5c-8,4.5-15.7,9.5-24,13.5l0,0c0.1-1.7,1.7-2.1,2.7-2.8c6.6-4.4,13.3-8.7,20-13
		C459.4,434.9,459.9,435.7,460.3,436.5z"/>
	<path id="XMLID_1175_" class="st2" d="M323.1,511.5c5.4-1.4,9.6-5.1,14.4-7.5c2.7-1.3,5-3.5,8.2-4c-6.5,5.5-14.3,9.2-20.7,14.8
		C324.4,513.7,323.8,512.6,323.1,511.5z"/>
	<path id="XMLID_1174_" class="st2" d="M368.8,549.7c8.1-4.9,16.2-10,24.7-14.2c0,0.8-0.2,1.6-0.9,1.9c-4.5,2.1-7.8,6.2-12.7,7.8
		c-3.6,0.8-6.4,3.3-9.6,5C369.8,550.1,369.3,549.9,368.8,549.7z"/>
	<path id="XMLID_1173_" class="st1" d="M393.4,393.7c-5.7,3.4-11.4,6.7-17.1,10.1c-0.2-0.3-0.4-0.6-0.6-0.8
		c4.1-3.1,8.2-6.2,12.3-9.4C389.8,393.3,391.6,393,393.4,393.7z"/>
	<path id="XMLID_1172_" class="st1" d="M439.2,437.5c-0.1-0.3-0.3-0.8-0.3-0.8c5.1-3.2,10.2-6.4,15.4-9.6c0.4,0.5,0.9,1,1.3,1.5
		C450,431.3,445.1,435.4,439.2,437.5z"/>
	<path id="XMLID_1171_" class="st2" d="M466.3,498c-3.7,0.1-6,3.1-9.1,4.3c-1.1,0.4-1.9,1.4-3.4,1c4.5-3,8-7.6,13.6-9
		C467,495.6,467.2,497,466.3,498z"/>
	<path id="XMLID_1170_" class="st1" d="M331.6,439.1c-4.9,3.3-9.8,6.7-14.7,10c0-1.2,0.2-2.2,1-3.2c4.5-2.4,8.9-4.9,13.4-7.3
		C331.3,438.8,331.4,439,331.6,439.1z"/>
	<path id="XMLID_1169_" class="st1" d="M466.9,453.1c-3.1,1.4-5.6,4-9.4,4c2.9-1.9,5.9-3.8,8.8-5.6
		C466.8,451.9,467,452.4,466.9,453.1z"/>
	<path id="XMLID_1168_" class="st1" d="M370.4,550.3c3.2-1.7,5.9-4.2,9.6-5c-1.6,2.8-4.9,3.6-7.1,5.7
		C372,550.7,371.2,550.5,370.4,550.3z"/>
	<path id="XMLID_1167_" class="st1" d="M357.7,545.1c1.5-1.2,3.2-2.2,5-2.9c0,0.8,0,1.6,0.1,2.4c-0.8,0.6-1.5,1.3-2.3,1.9
		C359.6,546.1,358.6,545.6,357.7,545.1z"/>
	<path id="XMLID_1166_" class="st1" d="M460.2,444.7c1-0.7,2-1.4,3-2.2c0.2,0.3,0.4,0.7,0.5,1c-1,0.5-2,1.1-3,1.6
		C460.5,445,460.4,444.8,460.2,444.7z"/>
	<path id="XMLID_1162_" class="st5" d="M386.7,529.5c-0.1-1,0.8-2.2-0.7-2.9c-6.3-0.9-11.8-3.4-16.6-7.6c-0.7-0.8-1.4-1.5-2.1-2.3
		c-2.9-4.1-5.1-8.5-5.8-13.6c-0.2-1.6-0.8-3.3,1-4.4c2.2-1.3,4.7-2.1,7.1-1.4c1.6,0.5,1,2.4,1.2,3.6c1.4,9.5,6.5,16.1,15.1,20
		c1.1-0.5,0.8-1.2,0.8-1.7c0-13.7,0-27.4,0-41.1c0-1.7,0-3.2-2.3-3.3c-4.1-0.2-7.6-2.1-11.2-3.9c-0.2-0.6-0.7-0.8-1.3-0.8
		c-4.9-4.3-8.7-9.3-10-15.8c-2.8-13.4,6-27.6,19.9-31.9c3.3-1,5.4-1.8,5-5.9c-0.3-3.1,2.6-3.9,5.3-4c2.8-0.1,4.4,1.4,4.1,4.1
		c-0.4,3.2,0.9,4.3,3.9,4.6c3.8,0.3,7,2.4,10.3,4.2c0.6,0.5,1.1,0.9,1.7,1.4c1.8,2,3.6,4,5.3,6c0.7,1.3,1.4,2.5,2.1,3.8
		c0.7,2.5,1.4,5,2.1,7.5c0,1.2-0.1,2.3-0.1,3.5c-1.1,0.6-2.1,1.3-3.3,1.7c-4.6,1.6-5.5,1-6.1-3.8c-1.1-8.8-8.1-17.3-15.9-19.3
		c0,9.8,0,19.5,0,29.2c0,4.4,0.2,8.8-0.1,13.1c-0.2,3,1.2,3.4,3.5,3.9c11.6,2.2,19.9,10.9,21.6,22.4c1.8,12.4-6.6,25.3-19.6,29.7
		c-3.5,1.2-6.5,2.1-5.6,6.6c0.1,0.6-0.5,1.4-0.8,2c-0.9,0.5-1.9,1-2.8,1.5C387.8,534.7,387.1,534.1,386.7,529.5z M386.8,447
		c0-5.7,0-11.5,0-17.2c0-5.3-0.5-5.7-5.2-3c-8.5,5-11.4,12.9-10.6,22.3c0.8,9.2,5.7,15.7,13.9,19.9c2.3,1.1,1.9-0.6,1.9-1.7
		C386.8,460.5,386.8,453.8,386.8,447z M396.4,499.7c0,6.6,0.1,13.2,0,19.8c0,2.3,0.7,3,2.8,1.9c0.3-0.2,0.7-0.2,1.1-0.4
		c7.8-3.4,12.5-12,12.1-22.2c-0.3-8.5-6.9-18.1-13.9-20.7c-2.1-0.8-2,0.4-2,1.7C396.4,486.5,396.4,493.1,396.4,499.7z"/>
	<path id="XMLID_1161_" class="st2" d="M369.5,471.7c0,1-0.5,1.5-1.5,1.5c0,0,0,0,0,0C368,472.3,368.5,471.8,369.5,471.7
		L369.5,471.7z"/>
	<path id="XMLID_1160_" class="st2" d="M348.3,498.6c0,0-0.2,0.4-0.4,0.5c-0.4,0.2-0.7-0.1-0.5-0.5c0.1-0.2,0.5-0.4,0.8-0.5
		C348.5,497.9,348.6,498,348.3,498.6z"/>
	<path id="XMLID_1159_" class="st2" d="M358.2,465c-0.1,0.5-0.1,1.2-0.9,1.1c-0.1,0-0.2-0.1-0.2-0.2
		C357.1,465.1,357.7,465.1,358.2,465L358.2,465z"/>
	<path id="XMLID_1158_" class="st2" d="M372,470.1c0.6,0.1,1,0.3,1.3,0.8C372.9,470.6,371.5,471.9,372,470.1z"/>
	<path id="XMLID_1157_" class="st2" d="M360.8,463.9c-0.2,0.1-0.3,0.1-0.4,0.1c0-0.1-0.1-0.2-0.1-0.3
		C360.4,463.8,360.6,463.9,360.8,463.9z"/>
	<path id="XMLID_1156_" class="st1" d="M331.2,438.7c0.3-0.6,0.8-0.8,1.4-0.3c-0.3,0.3-0.7,0.5-1,0.8
		C331.4,439,331.3,438.8,331.2,438.7z"/>
	<path id="XMLID_1155_" class="st1" d="M379.9,415.1c-0.2,0.1-0.3,0.4-0.5,0.4c-0.2,0-0.4-0.1-0.6-0.2c0.1-0.1,0.3-0.4,0.4-0.4
		C379.4,414.8,379.6,414.9,379.9,415.1z"/>
	<path id="XMLID_1154_" class="st2" d="M348.9,497.5c0.2,0.1,0.4,0.2,0.5,0.3c-0.2,0.1-0.4,0.2-0.6,0.3c-0.1,0-0.2,0-0.3,0
		C348.6,497.8,348.8,497.6,348.9,497.5z"/>
	<path id="XMLID_1153_" class="st2" d="M358.3,465c0.1-0.1,0.1-0.2,0.2-0.3C358.4,464.8,358.3,464.9,358.3,465L358.3,465z"/>
	<path id="XMLID_1152_" class="st2" d="M369.5,471.8c0.1-0.1,0.1-0.2,0.2-0.3C369.6,471.5,369.6,471.6,369.5,471.8L369.5,471.8z"/>
	<path id="XMLID_1151_" class="st2" d="M392.6,534.6c0.9-0.5,1.9-1,2.8-1.5c0.5,0.2,1.6,0.1,1.4,0.8c-0.4,1.6-1.9,1.5-3.3,1.6
		C393.2,535.2,392.9,534.9,392.6,534.6z"/>
	<path id="XMLID_1150_" class="st1" d="M460.7,445.1c-1,0.8-2.1,1.6-3.4,1.8l0.1,0.1c0.2-1.7,1.7-1.8,2.9-2.4
		C460.4,444.8,460.5,445,460.7,445.1z"/>
	<path id="XMLID_1149_" class="st2" d="M443,477.8c0.1-0.5,0.1-1.2,0.9-1.1c0.1,0,0.2,0.1,0.2,0.2
		C444.2,477.7,443.5,477.7,443,477.8L443,477.8z"/>
	<path id="XMLID_1148_" class="st2" d="M451.8,504.3c0.2,0.1,0.4,0.2,0.6,0.3c-0.1,0.2-0.1,0.5-0.3,0.6c-0.2,0.1-0.4-0.1-0.6-0.2
		C451.6,504.7,451.7,504.5,451.8,504.3z"/>
	<path id="XMLID_1147_" class="st1" d="M457.2,447c-0.2,0.4-0.6,0.7-1.1,0.6c-0.1,0-0.1-0.2-0.1-0.3
		C456.4,447.2,456.9,447.1,457.2,447C457.3,447.1,457.2,447,457.2,447z"/>
	<path id="XMLID_1146_" class="st2" d="M441,478.9c-0.1,0.1-0.2,0.2-0.3,0.2c-0.1,0-0.2-0.1-0.3-0.2
		C440.7,478.9,440.8,478.9,441,478.9z"/>
	<path id="XMLID_1145_" class="st2" d="M443,477.7c-0.1,0.1-0.1,0.2-0.2,0.3C442.9,478,442.9,477.9,443,477.7L443,477.7z"/>
	<path id="XMLID_1144_" class="st2" d="M436.2,450c-0.1,0.1-0.1,0.2-0.2,0.3C436.1,450.2,436.2,450.1,436.2,450
		C436.3,450,436.2,450,436.2,450z"/>
	<path id="XMLID_1143_" class="st1" d="M362.8,544.6c0-0.8,0-1.6-0.1-2.4c3.2-1.8,6.3-3.6,9.5-5.4c0.6,0.1,1.3,0.1,1.9,0.2
		C370.5,539.8,366.8,542.4,362.8,544.6z"/>
	<path id="XMLID_1142_" class="st1" d="M374.1,537.1c-0.6-0.1-1.3-0.1-1.9-0.2c2.4-1.8,4.9-3.5,7.8-4.4
		C378.8,535,376.2,535.7,374.1,537.1z"/>
	<path id="XMLID_1141_" class="st1" d="M380,532.5c0.2-0.8,0.9-0.7,1.5-0.8C381.3,532.6,380.8,532.9,380,532.5z"/>
	<path id="XMLID_1140_" class="st2" d="M386.8,447c0,6.7,0,13.5,0,20.2c0,1.2,0.4,2.9-1.9,1.7c-8.2-4.1-13.2-10.7-13.9-19.9
		c-0.8-9.4,2.1-17.3,10.6-22.3c4.7-2.8,5.2-2.4,5.2,3C386.8,435.5,386.8,441.3,386.8,447z"/>
	<path id="XMLID_1139_" class="st2" d="M396.4,499.7c0-6.6,0-13.2,0-19.8c0-1.4-0.1-2.5,2-1.7c7.1,2.6,13.6,12.2,13.9,20.7
		c0.4,10.2-4.3,18.8-12.1,22.2c-0.3,0.1-0.7,0.2-1.1,0.4c-2.1,1.1-2.8,0.5-2.8-1.9C396.4,512.9,396.4,506.3,396.4,499.7z"/>
</g>
</svg>
