<?xml version="1.0" encoding="utf-8"?>
<!-- Generator: Adobe Illustrator 19.0.0, SVG Export Plug-In . SVG Version: 6.00 Build 0)  -->
<svg version="1.1" id="Layer_1" xmlns="http://www.w3.org/2000/svg" xmlns:xlink="http://www.w3.org/1999/xlink" x="0px" y="0px"
	 viewBox="0 0 612 792" style="enable-background:new 0 0 612 792;" xml:space="preserve">
<style type="text/css">
	.st0{fill:#272626;}
	.st1{fill:#BAB7B7;}
	.st2{fill:#F47A20;}
	.st3{fill:#E6BDA1;}
	.st4{fill:#FEFEFE;}
	.st5{fill:#FEFDFC;}
	.st6{fill:#F9F9FC;}
	.st7{fill:#FDFBFA;}
	.st8{fill:#F8F9FB;}
	.st9{fill:#FEFCFB;}
	.st10{fill:#FDFCFB;}
	.st11{fill:#FEFCFA;}
	.st12{fill:#FDFAF8;}
	.st13{fill:#FDFBF9;}
	.st14{fill:#FCF9F6;}
	.st15{fill:#FDF9F7;}
	.st16{fill:#FCF7F3;}
	.st17{fill:#F9F4F1;}
	.st18{fill:#F3ECE7;}
	.st19{fill:#FBF8F6;}
	.st20{fill:#EEEFF6;}
	.st21{fill:#FAF5F2;}
	.st22{fill:#F2F3F8;}
	.st23{fill:#FBF6F2;}
	.st24{fill:#E8E8ED;}
	.st25{fill:#F1F1F7;}
	.st26{fill:#F9F2EC;}
	.st27{fill:#DAB7A2;}
	.st28{fill:#DFBDA7;}
	.st29{fill:#D9D9E2;}
	.st30{fill:#F9F3EE;}
	.st31{fill:#DBDDEC;}
	.st32{fill:#D4B5A5;}
	.st33{fill:#FBF5F0;}
	.st34{fill:#C6C7D6;}
	.st35{fill:#FAF1EB;}
	.st36{fill:#FBF5F1;}
	.st37{fill:#FAF3EE;}
	.st38{fill:#CACBD7;}
	.st39{fill:#D8D4D8;}
	.st40{fill:#C6C9E1;}
	.st41{fill:#B8BCD3;}
	.st42{fill:#FFFFFF;}
	.st43{fill:#D0E0EE;}
	.st44{fill:#FCFDFE;}
	.st45{fill:#FCFCFD;}
	.st46{fill:#FDFCFC;}
	.st47{fill:#FCFBFA;}
	.st48{fill:#FAF9F9;}
	.st49{fill:#FBFBFD;}
	.st50{fill:#FCFAF9;}
	.st51{fill:#F9F9FB;}
	.st52{fill:#FBFBFC;}
	.st53{fill:#FAFAFC;}
	.st54{fill:#FAF7F6;}
	.st55{fill:#F5F5F8;}
	.st56{fill:#FBF8F7;}
	.st57{fill:#F6F3F4;}
	.st58{fill:#F7F7FA;}
	.st59{fill:#F9F7F5;}
	.st60{fill:#F8F8FA;}
	.st61{fill:#F8F8FB;}
	.st62{fill:#F4F4F8;}
	.st63{fill:#F8F5F4;}
	.st64{fill:#F7F7FB;}
	.st65{fill:#F8F5F3;}
	.st66{fill:#F6F6FA;}
	.st67{fill:#F6F7FA;}
	.st68{fill:#F5F5F9;}
	.st69{fill:#F4F4F9;}
	.st70{fill:#F5F5FA;}
	.st71{fill:#F0F0F6;}
	.st72{fill:#F3F3F5;}
	.st73{fill:#F2F2F7;}
	.st74{fill:#EDEDF3;}
	.st75{fill:#F1EBE8;}
	.st76{fill:#E4E4EF;}
	.st77{fill:#F0EAE7;}
	.st78{fill:#F3EEEB;}
	.st79{fill:#E4E5F0;}
	.st80{fill:#EAE2DE;}
	.st81{fill:#F2ECE9;}
	.st82{fill:#F0E9E5;}
	.st83{fill:#EEE8E4;}
	.st84{fill:#E1E3EF;}
	.st85{fill:#EFE9E6;}
	.st86{fill:#E5DEDB;}
	.st87{fill:#E0D2CB;}
	.st88{fill:#D8DBE3;}
	.st89{fill:#5979B1;}
	.st90{fill:#DCDEEB;}
	.st91{fill:#5F7EB4;}
	.st92{fill:#E4D8D2;}
	.st93{fill:#DCDDE7;}
	.st94{fill:#BEC9E0;}
	.st95{fill:#9B989F;}
	.st96{fill:#EDF0F5;}
	.st97{fill:#E1E2ED;}
	.st98{fill:#ACAFC2;}
	.st99{fill:#B7A8A3;}
	.st100{fill:#B9BEDB;}
	.st101{fill:#C7CADF;}
	.st102{fill:#848A95;}
	.st103{fill:#EDE5E1;}
	.st104{fill:#F1EDEB;}
	.st105{fill:#F9F1EB;}
	.st106{fill:#F7EDE5;}
	.st107{fill:#F6E9DF;}
	.st108{fill:#F5E6DB;}
	.st109{fill:#F6E8DF;}
	.st110{fill:#F8EFE8;}
	.st111{fill:#F7ECE3;}
	.st112{fill:#F6E9E0;}
	.st113{fill:#F9F0E9;}
	.st114{fill:#F7EBE2;}
	.st115{fill:#F6EAE1;}
	.st116{fill:#F6EAE0;}
	.st117{fill:#F4E4D8;}
	.st118{fill:#F2DED0;}
	.st119{fill:#F2DFD1;}
	.st120{fill:#F3E1D4;}
	.st121{fill:#F4E5D9;}
	.st122{fill:#F8EFE7;}
	.st123{fill:#F1DDCE;}
	.st124{fill:#F8EDE6;}
	.st125{fill:#F4E5DA;}
	.st126{fill:#F5E8DD;}
	.st127{fill:#F5E7DC;}
	.st128{fill:#F5E4D8;}
	.st129{fill:#F4E3D7;}
	.st130{fill:#EBCCB6;}
	.st131{fill:#F1DBCB;}
	.st132{fill:#F2E0D2;}
	.st133{fill:#F3E2D6;}
	.st134{fill:#EFD6C4;}
	.st135{fill:#F0D8C8;}
	.st136{fill:#F5E5D9;}
	.st137{fill:#E7E8F2;}
	.st138{fill:#E5E4EC;}
	.st139{fill:#D9DCEB;}
	.st140{fill:#B2B9D7;}
	.st141{fill:#D6D8E9;}
	.st142{fill:#A1A9CF;}
	.st143{fill:#B2B8D7;}
	.st144{fill:#BBC0DC;}
	.st145{fill:#CACEE4;}
	.st146{fill:#272726;}
	.st147{fill:#EAEBF4;}
	.st148{fill:#5A7BB2;}
	.st149{fill:#6884B7;}
	.st150{fill:#D4D7E9;}
	.st151{fill:#6C88B9;}
	.st152{fill:#7993C0;}
	.st153{fill:#738EBD;}
	.st154{fill:#6381B5;}
	.st155{fill:#5B7CB2;}
	.st156{fill:#EEE7E3;}
	.st157{fill:#E5D9D4;}
	.st158{fill:#E6DBD5;}
	.st159{fill:#E9DFDA;}
	.st160{fill:#E0D2CA;}
	.st161{fill:#DCCCC3;}
	.st162{fill:#D7C5BC;}
	.st163{fill:#D6C3BA;}
	.st164{fill:#E7DDD8;}
	.st165{fill:#CFB9AF;}
	.st166{fill:#D6C2B9;}
	.st167{fill:#D5C1B8;}
	.st168{fill:#DED0C8;}
	.st169{fill:#F7F3F1;}
	.st170{fill:#EBE2DD;}
	.st171{fill:#E9E0DB;}
	.st172{fill:#F0E9E6;}
	.st173{fill:#ECE4E0;}
	.st174{fill:#DAC8C0;}
	.st175{fill:#D3BEB5;}
	.st176{fill:#EDE9E6;}
	.st177{fill:#E6D9D1;}
	.st178{fill:#EADFD9;}
	.st179{fill:#E4D6CD;}
	.st180{fill:#E6DCD6;}
	.st181{fill:#FFFEFE;}
	.st182{fill:#F8F6F4;}
	.st183{fill:#EDE6E2;}
	.st184{fill:#E3D8D3;}
	.st185{fill:#D8C6BD;}
	.st186{fill:#7892BF;}
	.st187{fill:#6A86B8;}
	.st188{fill:#B6BCD9;}
	.st189{fill:#E6E7F2;}
	.st190{fill:#C0C4DE;}
	.st191{fill:#C5C9E1;}
	.st192{fill:#D5D7E9;}
	.st193{fill:#B0B6D7;}
	.st194{fill:#E5D9D3;}
	.st195{fill:#D8DAEB;}
	.st196{fill:#B9BFDB;}
	.st197{fill:#D2D5E7;}
	.st198{fill:#C9CDE3;}
	.st199{fill:#D4D7E8;}
	.st200{fill:#D7DAEA;}
	.st201{fill:#DEE0EE;}
</style>
<g id="XMLID_34_">
	<path id="XMLID_1374_" class="st0" d="M175.9,452.2c12.4-0.8,24.9-2.1,37.4-1.2c5.2,0.3,10.3,1.3,14.9,3.7c9.3,4.9,19,4.1,28.8,1.9
		c7-1.5,13.3-4.9,19.6-8.2c6.2-3.3,12.3-6.5,18.8-9.2c2.3-0.9,4.5-0.9,6.9-0.6c12.8,1.5,25.6,2.7,38.3,4.2
		c23.9,2.7,47.9,4.7,70.7,13.5c6.6,2.6,13.2,5.6,15.5,13.4c0.6,2.1,1.6,0.8,2.5,0.2c5.8-3.9,11-8.6,16.6-12.8
		c7-5.4,14-10.9,23.2-12.3c7.3-1.1,15.9,3.2,18.7,9.6c3.2,7.1,1.7,15.7-4.7,20.3c-24.1,17.5-45,38.8-68.5,57
		c-13.6,10.6-28.1,19.8-44.2,26.3c-6.6,2.7-12.8,1.1-19-0.1c-17.5-3.3-33.6-10.6-50.1-17.1c-13.4-5.3-26.9-10.5-41.3-12.6
		c-13.5-2-26.9-2.9-39.2,4.7c-0.5,0.3-1.2,0.6-1.7,0.5c-8.8-1.5-17.5,1.5-26.4,0.9c-8.1-0.6-16.2-0.8-24.3-1.2
		c-8.4-0.4-16.8-0.5-25.2-1c-3.7-0.2-7.1,1.5-11,0.9c-4-0.6-6.5-2.2-8.4-5.3c-2-3.3-2.7-6.9-3.1-10.7c-0.1-0.8,0.4-1.8-0.8-2.2
		c0-0.5,0-1,0-1.5c0.6-2,0.6-4,0-6c0-0.8,0-1.5,0-2.3c1.6-1.8,0.8-4,1-5.9c1.1-10.9,2.3-21.8,0.3-32.7c-1.1-6,1.7-9.7,6.9-12.7
		c5-2.9,10.3-1.6,15.5-2c8.9-0.7,17.7,1.4,26.6,0.8C172,451.5,173.9,451.8,175.9,452.2z"/>
	<path id="XMLID_1373_" class="st1" d="M119.8,507.3c1.2,2,1.2,4,0,6C119.8,511.3,119.8,509.3,119.8,507.3z"/>
	<path id="XMLID_1372_" class="st0" d="M366.5,264.5c3.4-4.5,6.3-8.5,9.4-12.4c1.2-1.6,1.3-3,0.6-4.8c-3-7.3-5.8-14.5-8.6-21.9
		c-1.6-4.1-2.5-8.4-2.2-12.8c0.4-6.5,4.1-10,12.3-11.3c1.6-0.3,2.3-0.4,2.2-2.3c-0.9-11.3,3.9-16.5,15.7-17.2
		c7.1-0.5,14.2-0.1,21.4,0.1c4.5,0.1,9,0.1,13.5-0.3c3.4-0.3,6.7,0,9.9,1.3c7.3,3,9.5,8.3,7.3,18.1c1.5,0.1,3,0.1,4.4,0.2
		c7.4,0.7,11.2,5.2,10.6,12.6c-0.5,6.2-2.8,11.9-5,17.5c-1.7,4.4-3.5,8.8-5.5,13.1c-1.2,2.6-0.7,4.4,1.1,6.6
		c15,17.9,28,37,37.2,58.5c7.1,16.6,11.4,33.8,10.1,52c-0.5,7.2-2,14.1-4.1,21c-1.6,5-4.5,8.9-6.8,13.3c-4.6,8.7-12,14.6-19.6,20.3
		c-9.2,6.9-19.7,11.2-30.9,13.7c-20.9,4.7-41.3,2.9-61.5-4.2c-4.8-1.7-9.4-3.9-13.7-6.1c-3.7-1.9-7.8-4.2-11.2-7.2
		c-6.2-5.4-12.5-10.7-17.8-16.9c-1.6-1.9-2.4,0.2-3.2,0.9c-10.3,9.1-21.8,16.1-34.7,20.9c-20.6,7.6-41.7,9.3-63.3,5.4
		c-30.6-5.6-56.2-19.8-75.8-44.1c-12.6-15.6-19.5-33.6-22.5-53.4c-5.1-33.1,3-62.8,23.6-88.7c24.7-31,57-49.2,96.9-48.2
		c50.3,1.3,86.8,26,108.5,71.8C365.1,261.4,365.7,262.7,366.5,264.5z"/>
	<path id="XMLID_1371_" class="st2" d="M175.9,452.2c-1.9,0.1-3.8,0.1-5.7,0.2C172,450.6,173.9,450.4,175.9,452.2z"/>
	<path id="XMLID_1370_" class="st3" d="M308,535.5c-2.6-1.1-5.3-1.7-7.6-3.3c-0.4-1.9,1.3-2.5,2.3-3.4c1.7-1.7,4-2.5,5.7-4.1
		c0.1-0.2,0.3-0.3,0.6-0.2c0,0,0-0.2,0-0.2c-0.5,0.1-0.7,0.5-1,0.8c-3.4,2.3-6.8,4.5-10.5,6.2c-3-1.2-6-2.4-9-3.6
		c0.5-2.3,2.7-3.1,4.3-4.4c3.3-2.7,6.6-5.6,10.2-7.9c0.1-0.1,0.3-0.2,0.5-0.3c-0.4-0.1-0.5,0.4-0.9,0.5c-6.4,3.6-12.3,8-19.3,10.5
		c-2.8-0.9-5.6-1.8-8.3-2.7c-0.2-2,1.5-2.4,2.6-3.1c5.1-3.6,10.4-6.9,15.7-10.1c1.3-0.9,2.7-1.6,3.9-2.6c-1.3,1-2.8,1.8-4.2,2.7
		c-6,3.9-12.3,7.3-18.4,11c-1.1,0.6-2.3,0.8-3.4,1.3c-3.5-0.7-7-1.4-10.5-2.1c0.3-1.2,1.3-1.7,2.2-2.4c7.9-5.4,15.5-11.2,23.7-16.1
		c1.3-1,2.8-1.4,4.4-3.4c-1.7,2-3.3,2.5-4.6,3.5c-8.8,5.4-17.8,10.5-26.8,15.7c-1.1,0.6-2.3,1.1-2.7,2.4c-5.7-0.5-11.4-0.7-17.1,0.1
		c-0.2-1.2,0.9-1.4,1.5-1.8c4.8-2.9,9.4-6.1,14.3-8.9c0.9-0.4,1.6-1.2,2.6-1.5c0.6-0.3,1-0.9,1.7-1.3c-0.7,0.3-1,0.9-1.5,1.1
		c-1.1,0.4-2,1.2-3.1,1.7c-6.2,3.7-12.1,7.8-18.7,10.9c-2.3,1.3-3.6,1.2-3.4-2.1c0.3-5,0.3-10.1,0.4-15.2c1.3-1.7,3.4-2.3,5-3.6
		c1.3-0.9,2.7-1.5,3.6-2.3c-1.1,0.6-2.4,1.6-3.9,2.4c-1.5,0.8-2.7,2.4-4.7,1.9c-0.8-11.7-0.6-23.4-0.6-35.1c0-2.1,0.9-2.5,2.7-2.4
		c2.4,0.1,4.7,0.1,7.1,0.2c0.4,3.3-2.6,4.6-3.8,6.8c4.5-2,8.4-5.5,13.4-6.8c9.9-0.7,18.8-4.5,27.5-8.8c7.9-3.9,15.6-8.2,24.5-9.6
		c2.5-0.4,4.9-0.6,7.4-0.3c0.1,1.9-1.5,2.5-2.7,3.3c-4.4,3.1-8.7,6.2-13.3,9c-0.9,0.5-1.7,1.1-2.5,1.7c-0.2,0.1-0.4,0.2-0.6,0.3
		c0.4,0,0.6-0.3,0.9-0.4c0.8-0.6,1.7-1.2,2.6-1.6c5.5-3.8,11.4-6.9,17.1-10.2c1.2-0.7,2.4-1.3,3.8-1.4c3.2-0.1,6.2,0.8,9,2.1
		c0.4,1.8-1.3,2.2-2.2,2.9c-4,2.9-8.2,5.4-12.3,8.1c-2.1,1.2-3.9,2.8-6.2,3.7c-0.7,0.2-1.1,1-2.2,1.2c1.1,0,1.3-0.8,1.9-1.1
		c2.4-0.9,4.3-2.7,6.6-3.9c5.9-3.6,11.4-7.7,18-9.9c3,0.7,6.1,1.4,9.1,2.1c-1.2,3.3-4.7,3.8-7.1,5.5c-0.8,0.1-1,1-2.3,1.2
		c1.2-0.1,1.4-0.8,2-1c3.7-1.5,6.5-4.5,10.4-5.6c3.5,0.5,7,1,10.5,1.4c0,1.7-1.5,2.1-2.6,2.9c-4.4,3.1-9,5.8-13.5,8.7
		c-1.3,0.9-2.8,1.5-3.9,2.6c1.3-1.1,2.8-1.8,4.2-2.7c6.2-3.8,12.2-8,18.9-10.9c4,0,8,0.6,11.9,1.5c-4,4.5-9.6,7.1-14.3,10.6
		c-4.9,3.6-10,7-15.2,10.1c-0.6,0.4-1.2,0.7-1.8,1.1c0.7-0.3,1.4-0.8,2.1-1.2c10.3-6.7,21.2-12.5,31.8-18.8c0.9-0.5,1.8-0.9,2.8-1
		c3.5,0.1,7,0.5,10.4,1.6c0.2,2-1.5,2.5-2.6,3.2c-5.7,3.8-11.3,7.7-17.2,11.2c-1.2,0.9-2.6,1.5-3.8,2.4c-0.9,0.4-1.6,1.2-2.5,1.5
		c-0.5,0.3-0.9,0.7-1.3,1.1c0.4-0.2,0.7-0.7,1.1-0.9c1.1-0.4,2-1.2,3-1.7c1.2-1,2.7-1.5,3.8-2.5c6.7-4.1,13.5-7.9,20.2-11.9
		c1.4-0.9,3-1.1,4.5-1.6c3.4,0.3,6.6,1,9.8,2.1c-0.3,2.5-3,3.1-3.9,4.7c2.2-1.5,4.7-3.1,7.6-3.8c3.7,1,7.3,2.1,10.5,4.3
		c-1.1,1.9-3.2,3-4.3,5c2.4-0.8,4.3-2.7,6.7-3.4c3.8,3.3,4.2,6.3,1,9.8c-2.7,2.9-5.1,6.7-10.1,5.8c-1.2-1.4-2.4-0.3-3.7,0.1
		c-4.5,0.5-9,0.3-13.5,0c0.4-3.5,3.5-5.2,5.2-7.9c-5.3,2.2-9.5,6.2-15,7.8c-11,0.2-22-0.7-32.9,0.9c-7.5,1.1-14.9,0-22.4,0.7
		c-2.9,0.3-5.9,0.4-8.9,2.3c3.3,2,6.6,1.7,9.7,2c3.8,0.3,7.8,0.4,11.6-0.1c3.4-0.4,5.8,0.5,7.7,3.2c0.4,1.7-1.1,2.1-1.9,2.9
		c-4.2,3.9-8.9,7.2-13.5,10.7c-0.1,0.1-0.3,0.1-0.3,0.3c0.2-0.2,0.5-0.4,0.7-0.7c5.8-3.9,11.9-7.2,17.9-10.7
		c2.2,1.7,4.3,3.6,6.1,5.8c-1.5,2.9-4.7,3.7-6.9,5.7c-0.2,0-0.4,0.2-0.3,0.4c0.1-0.2,0.3-0.4,0.5-0.5c2.6-1.7,5.1-3.7,8.1-4.5
		c1.9,1.5,3.8,3,5.3,5c0.5,1.6-1,1.9-1.8,2.7c-0.8,0.4-1.5,1.1-2.3,1.4c-0.2,0.1-0.4,0.1-0.6,0.1c0.2,0.1,0.4,0.1,0.6-0.1
		c0.8-0.3,1.5-1,2.3-1.3c1-0.7,2-1.6,3.3-1.8c2,1.6,4.1,3.3,6.1,4.9c0.5,1.7-0.9,2.4-1.7,3.4c-2.9,3.3-6.4,5.9-9.9,9
		c6.2-3.1,11.4-7.1,17.6-9.4c23.6-8,41.9-24.1,60.8-39.3c9.5-7.7,19.1-15.3,29.7-21.5c7.4-4.3,14.7-1.2,16.7,7
		c-0.6,1.5-2.2,1.9-3.4,2.7c-1.3,0.9-2.8,1.5-4,2.7c-0.2,0.1-0.4,0.2-0.7,0.2c0.6,0.2,0.9-0.3,1.2-0.6c1.1-0.9,2.5-1.5,3.7-2.3
		c1-0.5,1.8-1.5,3.1-1.1c0.5,2.8-0.3,5.4-2.3,7.2c-7.4,6.5-14.8,13-23.1,18.4c-5,4.2-10.7,7.5-16.1,11.1c0.1,0-0.2,0.1,0,0.1
		c0.2,0,0.4-0.3,0.5-0.5c2.1-0.6,3.3-3.5,6-2.4c-10.5,9.4-21.6,18.1-32.6,26.9c-10.3,8.3-20.9,16.2-31.6,23.9
		c-3.5,2.6-7.1,4.1-11.6,4.2c-6.6,0.1-13.2-0.2-19.6-1.8c14.6-9.6,28.7-19.8,43.6-28.9c1.3-0.9,2.8-1.5,4-2.6
		c0.2-0.1,0.4-0.2,0.4-0.4c-0.3,0.2-0.5,0.5-0.8,0.7c-1.2,0.9-2.5,1.6-3.8,2.4c-14.4,9.2-29.5,17.2-44.2,26c-1.4,0.8-3,1.2-4.5,1.9
		c-3.1-0.8-6.2-1.3-9.1-2.7c3-3.4,7.3-4.7,10.9-7.2c1.4-0.9,2.8-1.8,4.2-2.7c0.3-0.3,0.8-0.4,1-0.8c-0.3,0.4-0.8,0.5-1.2,0.9
		c-1.3,0.8-2.7,1.4-3.8,2.5c-4.4,2-8.1,5.3-12.6,7c-3.1-1-6.2-1.9-9.1-3.4c5.3-6,11.4-11,17.4-16.1c0.2-0.1,0.5-0.1,0.7-0.2
		c-0.2-0.1-0.4,0-0.7,0.1c-6.8,5-14.4,8.7-21.6,13c-0.8,0.5-1.7,0.4-2.5,0.6c-2.9-0.9-5.7-1.9-8.4-3.5c1.2-2.2,3.6-2.7,5.3-4.1
		c0.1,0,0.2,0,0.2,0c-0.1-0.3-0.3-0.3-0.4,0C312.4,533.1,310.4,534.7,308,535.5z"/>
	<path id="XMLID_1369_" class="st2" d="M143.8,529.7c-6.4-0.1-9.6-2.7-11.8-9.5c2.5-3.6,6.6-4.9,9.9-7.4c0.7-0.5,1.4-0.9,2.3-1.5
		c-1.1,0.6-1.9,1.1-2.8,1.7c-3.3,1.5-5.8,4.7-9.8,4.7c-1-2.4-0.9-4.9-1.1-7.4c0.1-0.4,0.8-0.8-0.1-1.2c0-2.7-0.1-5.3-0.1-8
		c0.3-0.6,0.8-1.1,0-1.6c0.1-12.7,0.1-25.4,0.2-38.1c0.1-5.6,0.2-5.6,5.9-5.2c0.9,1.6-0.5,2.7-0.9,4.1c2.3-1.4,4.5-2.9,7.2-3.5
		c4.3,0,8.7,0.1,13,0.1c0.3,2.1-1.5,2.8-2.7,4.1c2.6-1.8,5.2-3.3,8.2-4.2c9.7,0.1,19.4-0.9,29.1-1.5c0.7,0.1-0.8,1.5,0.5,1
		c1.1-0.4,2.4-0.4,3.4-1.3c4-1,8-0.7,12-0.6c0.9,1.7-0.5,2.5-1.5,3.3c-1.5,1.1-3,2.2-4.6,3.1c-0.8,0.4-1.6,1-2.4,1.5
		c-0.2,0-0.3,0.2-0.2,0.3c0.1-0.2,0.2-0.3,0.5-0.4c0.7-0.6,1.6-1.1,2.4-1.5c3.7-2.3,7.1-4.9,11.4-6.2c3,0.3,5.7,1.1,7.7,3.5
		c-0.1,0.5-0.6,0.9-0.8,1.3c0.5-0.3,1-0.5,1.6-0.3c1.6,1.9,2.4,4.1,2.9,6.5c-0.6,1.5-2.1,2.1-3.2,3.1c-2.5,2.1-5.4,3.7-8.1,5.5
		c-0.6,0.4-1.2,0.6-1.8,0.9c-0.2,0.1-0.5,0.2-0.5,0.4c-0.1,0.3,0,0.3,0.2,0c0.2-0.4-0.1,0.2,0.3-0.2c0.7-0.4,1.5-0.7,2.1-1.1
		c2.4-1.6,4.9-3.1,7.4-4.6c1.3-0.6,2.4-1.6,4-1c1.3,5,1.5,10.2,1.3,15.3c-0.7,2.1-2.8,2.9-4.2,4.3c-4.3,3-8.2,6.4-12.5,9.3
		c-0.1,0.2-0.6,0.1-0.5,0.5c0.1-0.2,0.3-0.3,0.5-0.4c4.7-3.5,9.7-6.2,14.8-9c0.7-0.2,1.3-0.5,2-0.1c0,3,0,6-0.1,9
		c-0.4,0.9-0.9,1.8-1.6,2.5c-1,1-1.9,1.9-3.1,2.6c-1.7,1.4-3.3,2.7-5.1,3.9c-0.2,0.1-0.3,0.3-0.3,0.5c0.1-0.2,0.2-0.4,0.4-0.5
		c1.4-1,3-1.8,4.4-2.8c1.7-0.7,3.1-2.1,5.1-1.8c-0.2,8.1-0.4,16.1-0.5,24.2c0,1.9-0.9,2.3-2.5,2.2c-1.6-0.2-3.2-0.2-4.8-0.3
		c-0.5-0.7-0.1-1.4,0.2-2.4c-1.8,1-3.2,2.1-5.1,2.3c-4.2-0.2-8.4-0.4-12.5-0.5c-0.3-2.3,1.8-3,2.8-4.2c-2.7,1.5-5.4,3.5-8.7,4.2
		c-4.6,0.2-9.3,0.4-13.9,0.6c0.7-3.3,3.9-4.4,5.9-6.4c2.6-2.6,5.6-4.6,7.5-6.5c-7.3,4.2-15.1,8.9-23.3,13.2
		c-0.6,0.3-1.4,0.1-1.9,0.5c-4.2,0.1-8.4,1.2-12.7,0.8c-0.4-1.9,1-2.7,2.1-3.6c6.8-5,13.2-10.5,20.2-15.1c0.5,0,0.1,0.5,0.1,0
		c0-0.1-0.2-0.1-0.4,0.1c-9.6,6-19.5,11.2-29.1,17.1C146.7,529,145.1,529,143.8,529.7z"/>
	<path id="XMLID_1368_" class="st4" d="M354.7,489.4c16.1,0,31.3,0,47.2,0c-6.9,5.3-13.3,10.3-19.7,15.1c-3.4,2.6-6.9,2.2-10.4-0.2
		C365.9,500,360.8,494.8,354.7,489.4z"/>
	<path id="XMLID_1367_" class="st5" d="M344,548.3c6.3-4.5,13.2-7.9,19.9-11.8c9.6-5.6,19.2-11,28.9-16.5c0.8-0.3,0.9,0,0.7,0.7
		c-13.5,9.1-26.9,18.2-40.4,27.3c-1.2,0.8-2.4,1.2-3.8,1.4C347.5,549,345.8,548.7,344,548.3z"/>
	<path id="XMLID_1366_" class="st6" d="M143.8,529.7c11.2-6.5,22.4-13,33.7-19.5c0.8-0.3,1,0.1,0.8,0.8
		c-6.6,5.1-13.3,10.2-19.9,15.3c-1.3,1-2.8,1.7-3.4,3.4C151.3,530,147.6,530.7,143.8,529.7z"/>
	<path id="XMLID_1365_" class="st7" d="M337.3,475.1c10-6.8,19.7-14.1,30-20.4c1.8,0.1,3.6-0.1,5.3,0.8c-6.9,5.1-14.7,8.7-22,13.2
		c-4.1,2.5-8.4,4.8-12.6,7.2C337.2,476.1,337.1,475.7,337.3,475.1z"/>
	<path id="XMLID_1364_" class="st5" d="M317.8,539.4c8.1-4.9,16.3-9.8,24.7-14.2c0.2,0.2,0.3,0.4,0.2,0.6c-0.1,0.2-0.2,0.3-0.2,0.3
		c-4.8,4.5-9.6,8.9-14.5,13.4c-1.1,1-2,2.3-3.6,2.5C322.2,541.1,320,540.2,317.8,539.4z"/>
	<path id="XMLID_1363_" class="st8" d="M169,528.2c8.9-5.3,17.8-10.5,26.7-15.8c0.2,0.3,0.4,0.5,0.6,0.8c-5.6,5-11.2,10-16.8,14.9
		c-2.1,0.1-4.2,0.2-6.3,0.2C171.8,528.7,170.4,528.9,169,528.2z"/>
	<path id="XMLID_1362_" class="st9" d="M287,502c-8.8,6-17.5,12.1-26.3,18.1c-1.3-0.1-2.5-0.2-3.8-0.3c-1.7-1.1-0.7-1.6,0.4-2.2
		c9.6-5.5,19.3-10.9,28.9-16.4C287,500.9,287.2,501.3,287,502z"/>
	<path id="XMLID_1361_" class="st10" d="M372.5,514.6c-6.1,4.5-13,7.6-19.6,11.3c3.9-5.5,9.8-8.9,13.7-14.3
		C368.6,512.6,370.5,513.6,372.5,514.6z"/>
	<path id="XMLID_1360_" class="st11" d="M303.5,515.5c-5,4-10,8.1-15,12.1c-1.7-0.6-3.4-1.1-5.2-1.7c6.2-4.1,12.8-7.7,19.4-11.2
		C303.5,514.4,303.6,514.8,303.5,515.5z"/>
	<path id="XMLID_1359_" class="st12" d="M388.2,457.9c-8.2,4.7-16.4,9.4-24.6,14.1c-0.8,0.3-1-0.1-0.8-0.8c6-4.1,12-8.2,18-12.4
		c0.8-0.6,1.8-0.9,2.2-1.9C384.8,456.8,386.5,457.6,388.2,457.9z"/>
	<path id="XMLID_1358_" class="st9" d="M378.5,482.3c5.2-3.8,10.9-6.7,16.6-9.5c-1.6,3.8-4.8,6.3-6.9,9.6
		C385,482.4,381.8,482.4,378.5,482.3z"/>
	<path id="XMLID_1357_" class="st13" d="M327.3,505c5.3-4.5,10.7-9.1,16-13.6c1,0.8,2,1.6,3,2.5c-0.1,1.4-1.3,1.7-2.3,2.2
		c-5.3,3-10.5,6-15.8,9C327.9,505.4,327.6,505.3,327.3,505z"/>
	<path id="XMLID_1356_" class="st14" d="M317.1,445.7c-7,4-14,8.1-21,12.1c-0.8,0.3-0.9-0.1-0.8-0.7c5.4-4.1,11.4-7.5,16.5-12
		C313.6,444.9,315.4,444.8,317.1,445.7z"/>
	<path id="XMLID_1355_" class="st15" d="M293.7,510.2c-6.2,4.3-12.5,8.6-18.7,12.9c-1.2-0.3-2.5-0.6-3.7-0.9
		c6.9-4.8,14.4-8.6,21.7-12.7C293.7,509.1,293.9,509.5,293.7,510.2z"/>
	<path id="XMLID_1354_" class="st11" d="M252.4,463.9c-5,2.9-9.9,5.9-15.7,9.3c1.8-4.1,4.9-6.1,6.2-9.3
		C246,463.9,249.2,463.9,252.4,463.9z"/>
	<path id="XMLID_1353_" class="st14" d="M311,458.5c5-3.6,10-7.1,15.1-10.7c1.2,0.4,2.4,0.7,3.6,1.1c-5.8,3.8-11.8,7.1-17.9,10.3
		C311,459.6,310.9,459.2,311,458.5z"/>
	<path id="XMLID_1352_" class="st16" d="M335.8,463.8c5.5-3.7,11-7.5,16.5-11.2c1.1-0.1,2.2,0,3.2,0.5c-5.8,4.7-12.6,7.6-18.9,11.4
		C335.7,464.8,335.6,464.5,335.8,463.8z"/>
	<path id="XMLID_1351_" class="st17" d="M256.2,509.4c-5.5,3.4-10.6,7.5-16.3,10.5c-1,0.1-2.1,0.1-3.1,0.2c2.2-2.5,5.2-3.6,8-5.2
		c3.6-2.1,7.1-4.1,10.7-6.1C256.3,508.4,256.4,508.8,256.2,509.4z"/>
	<path id="XMLID_1350_" class="st18" d="M444.7,496.1c-2.4,0.2-4,2.2-6.2,2.9c-0.3,0.3-0.6,0.3-0.9-0.1c5.3-4.1,10.7-8.1,16.7-11.2
		C451.8,491.4,448.1,493.5,444.7,496.1z"/>
	<path id="XMLID_1349_" class="st19" d="M414.6,466.8c-2,2.9-5.6,3.4-8.4,5.1c1.4-2.8,2.7-5.6,6-6.7
		C413,465.7,413.8,466.3,414.6,466.8z"/>
	<path id="XMLID_1348_" class="st20" d="M199.3,460.9c2.1-2.3,5.6-2.9,6.8-6.1c1.8-0.4,3.6-0.1,5.4,0.1c-3.5,2.7-7.5,4.7-11.4,6.7
		C199.3,462,199.2,461.5,199.3,460.9z"/>
	<path id="XMLID_1347_" class="st21" d="M297.4,531.2c2.8-3.3,6.9-4.6,10.5-6.7c0.4-0.3,0.7-0.3,1,0.1c-2.4,3-6.3,4.4-8.5,7.6
		C299.4,531.8,298.4,531.5,297.4,531.2z"/>
	<path id="XMLID_1346_" class="st20" d="M142.3,513.3c-3.4,2.3-6.8,4.6-10.3,7c-0.1-0.8-0.2-1.6-0.4-2.4c3.2-1.8,6.5-3.6,9.7-5.4
		C142.2,512.1,142.4,512.5,142.3,513.3z"/>
	<path id="XMLID_1345_" class="st22" d="M193.4,527.5c3.6-2.2,7.1-4.3,11.4-6.9c-1.2,3.6-4.2,4.6-5.6,6.9
		C197.3,527.5,195.3,527.5,193.4,527.5z"/>
	<path id="XMLID_1344_" class="st23" d="M401.7,460.9c-3.2,2-6.4,3.9-9.6,5.9c-0.2-0.2-0.4-0.5-0.6-0.7c2.2-2,4.3-4.1,6.5-6.1
		C399.2,460.3,400.5,460.6,401.7,460.9z"/>
	<path id="XMLID_1343_" class="st24" d="M142.6,457c-2.5,2-5.3,3.3-8.7,5.1c1.1-2.5,1.8-4.1,2.5-5.7
		C138.5,456.2,140.6,456.5,142.6,457z"/>
	<path id="XMLID_1342_" class="st25" d="M161.2,457.1c-3.2,2.5-6.8,4.1-10.7,5.5c1.7-1.8,3.5-3.7,5.2-5.5
		C157.5,457.1,159.3,457.1,161.2,457.1z"/>
	<path id="XMLID_1341_" class="st16" d="M344.8,505.1c2.5-1.8,5.1-3.7,7.6-5.5c0.4,0.4,0.9,0.7,1.3,1.1c-2.3,2.4-5.4,3.5-8.2,5.1
		C344.8,506.1,344.6,505.7,344.8,505.1z"/>
	<path id="XMLID_1340_" class="st26" d="M346.2,538.7c-3.8,2.3-7.5,4.6-11.3,7c-0.5-0.1-0.9-0.2-1.4-0.3c3.9-3.1,8.3-5.3,12.7-7.4
		c0.2,0.2,0.3,0.4,0.2,0.5C346.4,538.6,346.3,538.7,346.2,538.7z"/>
	<path id="XMLID_1339_" class="st27" d="M224.5,502c-1.6,0.9-3.3,1.8-4.9,2.6c-0.8-0.8-0.6-1.6-0.1-2.5c0.9-0.8,1.9-1.7,2.8-2.5
		c0.9,0.2,1.4-1,2.3-0.6C224.5,500,224.5,501,224.5,502z"/>
	<path id="XMLID_1338_" class="st26" d="M341.7,451.2c-3.3,2.3-6.7,4.4-10.4,6c-0.2-0.2-0.3-0.4-0.2-0.6c0.1-0.2,0.1-0.3,0.2-0.3
		c2.5-1.7,5.4-3,7.5-5.3C339.8,451.1,340.7,451.1,341.7,451.2z"/>
	<path id="XMLID_1337_" class="st28" d="M220.1,487.5c1.5-1.2,3-2.4,4.5-3.5c0,1.5,0,3,0.1,4.6c-0.5,0.2-1,0.4-1.4,0.6
		C222,489,220.5,489.3,220.1,487.5z"/>
	<path id="XMLID_1336_" class="st29" d="M211.8,528c1.9-1.7,4.2-2.8,7.3-4.4c-1,2-1.7,3.3-2.4,4.6C215,528.1,213.4,528,211.8,528z"
		/>
	<path id="XMLID_1335_" class="st30" d="M315.4,531.9c-2.1,1.2-3.6,3.3-6,4c-0.5-0.1-0.9-0.3-1.4-0.4c1.7-2.3,4.4-2.9,6.7-4.3
		C315.5,530.9,315.6,531.3,315.4,531.9z"/>
	<path id="XMLID_1334_" class="st31" d="M194.1,455.4c-1.9,1.7-4,2.9-6.6,3.8c0.2-2.1,2.3-2.1,2.7-3.6
		C191.5,455.5,192.8,455.5,194.1,455.4z"/>
	<path id="XMLID_1333_" class="st32" d="M219.6,468.2c1.1-0.8,2.2-1.6,3.3-2.4c0.5,0.9,0.5,1.9,0.3,2.8c-1.2,0.6-2.5,1.2-3.7,1.8
		C218.6,469.7,219.4,469,219.6,468.2z"/>
	<path id="XMLID_1332_" class="st33" d="M239,499.7c-1.8,1-3.1,2.7-5.2,3.1c0-0.5,0-1.1,0-1.6c1.5-0.8,3-1.5,4.5-2.3
		C239,498.7,239.1,499,239,499.7z"/>
	<path id="XMLID_1331_" class="st34" d="M220.1,459.3c-1.1,0.8-2.2,1.8-4.2,2c0.7-1.8,2.1-2.3,3.3-3
		C219.5,458.7,219.8,459,220.1,459.3z"/>
	<path id="XMLID_1330_" class="st35" d="M401.8,482.5c0.9-0.6,1.8-1.4,2.8-1.7c2.8-0.9,0.4,1.2,0.9,1.6
		C404.2,482.4,403,482.4,401.8,482.5z"/>
	<path id="XMLID_1329_" class="st36" d="M360.5,506.7c-0.7,1.2-1.9,1.5-3,2.1c-0.8,0.3-0.9-0.1-0.8-0.7c0.9-0.7,1.8-1.3,2.3-2.3
		C359.5,506,360,506.3,360.5,506.7z"/>
	<path id="XMLID_1328_" class="st37" d="M476,463.1c1.2-0.8,2.4-1.5,3.6-2.3c0,0.5,0.1,1,0.1,1.5c-1,0.5-1.9,1-2.9,1.5
		C476,464.1,475.9,463.7,476,463.1z"/>
	<path id="XMLID_1327_" class="st38" d="M169,528.2c1.4,0.1,2.8,0.1,4.1,0.2c-1.8,0.7-3.6,0.7-5.4,0.6
		C167.9,528.3,168.4,528.2,169,528.2z"/>
	<path id="XMLID_1326_" class="st39" d="M224.6,499c-0.8,0.1-1.1,1.9-2.3,0.6c0.8-0.7,1.5-1.4,2.3-2
		C224.6,498,224.6,498.5,224.6,499z"/>
	<path id="XMLID_1325_" class="st40" d="M130.3,499.7c0.6,0,1.5-1.1,1.7,0.1c0.2,1-1,1.2-1.7,1.6
		C130.3,500.8,130.3,500.2,130.3,499.7z"/>
	<path id="XMLID_1324_" class="st41" d="M130.4,509.3c0.6-0.2,1.6-1.3,1.8-0.6c0.5,1.2-1,1.3-1.8,1.8
		C130.5,510,130.5,509.7,130.4,509.3z"/>
	<path id="XMLID_1323_" class="st42" d="M276.1,389.6c-4.9,2.3-10.2,2.7-15.5,3.1c-1.5,0.1-1.7-0.5-1.3-1.7c1.3-2.6,3.9-3.8,6-5.5
		c5.9-4.7,11.8-9.2,18-13.4c0.7-0.6,1.6-1,1.9-1.9c0.2,0,0.3-0.2,0.3-0.4c-0.1,0.2-0.2,0.4-0.4,0.5c-0.5,0.9-1.4,1.2-2.1,1.9
		c-6.7,4.3-13.8,7.9-20.5,12c-1,0.6-2.1,1.4-3.4,0.8c-1.3-2.2-2-5.3-5.4-4.5c-3.3,0.8-4,3.7-4.3,6.7c-0.5,5.6-0.8,5.8-6.3,4.8
		c-2.2-0.4-4.4-0.9-6.6-1.3c-0.1-0.9-0.9-0.2-1.3-0.5c-3.2-0.2-6.1-1.4-9-2.5c1.2-2.9,4.4-3.3,6.5-5.2c0.1,0,0.2,0,0.2,0
		c-0.1-0.2-0.3-0.2-0.5,0c-2.9,1.6-5.2,4.2-8.8,4.2c-2.5-1.2-5-2.3-7.6-3.5c0.2-1.6,1.5-2.2,2.6-2.9c7.5-4.3,14.5-9.4,21.9-13.8
		c0.8-0.4,1.4-1,2.2-1.4c-0.9,0.5-1.7,1-2.6,1.5c-7.4,4.8-15.1,9-22.7,13.4c-1.4,0.8-2.8,1.5-4.5,1.5c-2.5-1.4-5.1-2.6-7-4.8
		c2.2-3,5.7-3.9,8.6-5.8c1.9-1.1,3.8-2.3,5.6-3.5c1.6-0.4,2.8-1.6,4.3-2.3c0.8-0.6,1.7-0.9,2.4-1.4c0,0,0.1-0.1,0.1-0.1
		s-0.2,0.1-0.2,0.1c-0.9,0.5-1.8,0.9-2.6,1.5c-1.3,0.6-2.4,1.8-3.9,2.1c-2,1.3-4,2.6-6.1,3.7c-3.1,1.5-5.7,4.1-9.3,4.9
		c-1.2-0.1-1.9-1.1-2.8-1.8c-1.6-1.3-3.9-2.5-4.6-4.3c-0.9-2.3,2.6-2.7,3.5-4.5c0.5-1.1,1.5-2,2-3.1c1.4-2.7,0.7-4.3-2.5-4.5
		c0-1.4,1-2,1.9-2.6c5.7-3.8,11.3-7.8,17.2-11.2c1.1-0.8,2.3-1.4,3.4-2.1c0.9-0.4,1.7-0.9,2.4-1.5c0,0,0.1-0.1,0.1-0.1
		s-0.2,0.1-0.2,0.1c-0.6,0.6-1.4,0.9-2.2,1.3c-1.2,0.9-2.6,1.5-3.8,2.4c-8.7,5.4-17.7,10.5-26.7,15.6c-1.1,0.6-2.1,1.4-3.4,1.2
		c-3.1-2.9-5.1-6.6-7.4-10c-0.6-0.9-0.1-1.3,0.2-1.9c1.8-3.4,5.2-4.9,8.2-6.8c4.9-3,9.4-6.6,14.5-9.3c2,0.2,2.3-2.3,3.9-2.6
		c0.9-0.4,1.3-1.3,1.8-2.1c4.6-3.8,10.2-6,15.1-9.3c1.7-1.2,3.5-2.4,5.4-3.3c0.8-0.4,1.5-0.9,2.1-1.4c0,0,0.1-0.1,0.1-0.1
		s-0.2,0.1-0.3,0.2c-0.7,0.6-1.5,1-2.3,1.4c-15.3,9.3-31,18-46.4,27.1c-1.7,1-3.3,2.3-5.5,1.9c-1-2-2.3-3.9-2.6-6.2
		c0.5-1.6,2-2.2,3.2-3c6.5-4.4,13.1-8.8,19.9-12.7c1.1-0.6,2-1.4,2.9-2.2c0.3-0.5-0.6-0.5-0.1-0.2c0.2,0.1,0.2,0.2,0,0.4
		c-8.7,5.5-17.2,11.4-26.8,15.3c-0.8-2.2-1.5-4.3-2.3-6.5c0.4-2.7,3.4-2.5,4.6-4c-1.5,0.8-2.9,2.3-5,1.9c-0.9-2.3-1.5-4.6-1.4-7
		c0.5-1.1,1.3-1.8,2.2-2.4c7.4-5,14.9-9.9,22.5-14.4c0.8-0.4,1.5-0.9,2.1-1.4c0,0,0.1-0.1,0.1-0.1s-0.2,0.1-0.3,0.1
		c-0.7,0.6-1.5,1-2.3,1.4c-7,4.3-14.1,8.5-21.3,12.5c-1.2,0.6-2.2,1.7-3.8,1.2c-0.1-0.2-0.1-0.5-0.1-0.7c-0.7-6.1-0.7-6.1,5.4-6.6
		c1-0.1,1.9-0.4,2.9-0.6c1.5-0.4,2.9-1.1,3.2-2.7c0.3-1.8-1.4-2.4-2.6-3.2c1.6-3.3,5.3-3.9,7.9-5.9c0.8-0.5,1.6-1,2.5-1.6
		c-1,0.5-1.9,1.1-2.7,1.7c-3.5,1.7-6.5,4.6-10.5,5.3c-6.8,0.3-6.8,0.3-5.8-7.8c1.5-2.6,4.3-3.3,6.6-4.6c7.5-4.4,15-8.8,22.5-13.2
		c0.4-0.3,0.9-0.5,1.3-0.9c-0.6,0.4-1.2,0.6-1.8,1c-7.5,4.5-15,8.9-22.6,13.2c-1.8,1-3.4,2.7-5.8,2.1c0.8-7.4,2.8-14.5,6.1-21.2
		c0.6-0.7,1.2-1.4,1.9-2.1c1.1-0.9-0.9-0.3-0.5-1c2.9-7.3,7.4-13.4,12.4-19.4c2.4,2.2,4.5,4.3,7.7,4.8c1.7,0.3,3.3,0.3,4.4-1.3
		c1-1.5,0.3-2.9-0.5-4.2c-1.3-2.3-3.5-3.8-5.6-5.5c6.8-6.4,14.1-11.6,22.6-14.9c8.7-3.4,17.6-6.6,27.1-7.3c2.6-0.2,4.1,0.2,3.5,3.3
		c-0.2,1.1-0.1,2.2-0.2,3.4c-0.2,1.8-1.1,4,1.7,4.5c2.7,0.5,5.4,0.3,6.7-2.6c0.6-1.3,0.9-2.8,1.4-4.2c1.2-2.2,3.4-2.8,5.6-3.5
		c7.2,0.6,14.1,2.5,20.7,5.5c0,1.4-1.3,1.8-2.1,2.4c-10,6.8-19.9,13.8-29.1,19.8c9.9-5.6,20.6-12.2,31.1-19.1
		c1.2-0.8,2.3-1.5,3.8-1.4c3,0.9,5.7,2.5,8.2,4.4c-0.3,1.4-1.5,1.9-2.5,2.6c-5.9,4-11.7,7.9-17.7,11.8c-1.4,0.8-3.1,1.1-4,2.6
		c-0.5,0.5-1,0.9-1.6,1.2c-1,0.4-1.8,1-2.5,1.7c-3.8,2.9-7.5,5.8-12.4,6.8c-5.2,0.9-6.3,2-6.1,7.1c0.3,8.1-0.9,16.2-0.8,24.3
		c0,1.1,0,2.2,0.1,3.4c1.2,14.3,7.4,19.7,21.9,20.9c0.8,0.1,1.5,0,2.2-0.3c1.1-0.5,2.1-1.1,2.2-2.3c0.1-1.4-1-1.9-2.1-2.3
		c-2.8-1.1-5.7-1.9-8.5-2.9c-1.5-0.5-3.2-0.8-4.3-2.1c-0.6-2,0.8-3.1,2.1-3.8c2.1-1.2,4.1-2.7,6.3-3.8c2.1-0.2,3.5-1.8,5.3-2.7
		c15.6-9.7,31-19.7,46.4-29.6c1.5-1,3-2.3,5.1-2c3,4.6,5.5,9.4,6.8,14.7c-0.1,1.2-1.2,1.5-2,2c-8.3,5.5-16.5,11.2-22.2,14.7
		c5.3-3.4,13.6-7.7,21.7-12.6c1.1-0.7,2.3-1.5,3.8-1c1.9,5.4,2.7,11,3.7,16.7c-0.4,4.2-3.9,4.7-6.8,6c-1.7,0.9-3.8,1.1-4.9,3
		c-0.6,1.5-2.1,2-3.3,2.7c-0.8,0.4-1.5,1-2.2,1.5c0.1,0.1,0.2-0.1,0.3-0.1c0.7-0.6,1.5-1,2.3-1.4c1.1-0.6,2.2-1.6,3.6-1.2
		c2.5,1.1,5.2,1.1,7.9,1.1c1.1,0,2.4-0.9,3.3,0.4c-0.5,1.4-1.7,2.1-2.9,2.8c-5.5,3.6-10.9,7.4-16.6,10.8c5-3,10.1-6,15.1-8.9
		c1.3-0.7,2.5-1.8,4.1-1.1c-0.5,3.9-2,7.3-4,10.6c-0.9,1.3-2.2,1.9-3.5,2.6c0.9-0.2,1.7-1.2,2.6-0.2c-2.3,7.8-3.7,15.9-6.9,23.5
		c-4.3,3.6-8.8,6.9-14.2,8.9c-2.5-0.6-5.3-2.4-7.1,0.5c-1.8,2.9,0,5.5,2.1,7.6c1.2,1.2,2.5,2.4,4,3.7c-7.7,7.1-16.3,12.7-26,16.3
		c-0.2,0.1-0.6-0.2-0.9-0.3c-0.1-0.5,0.1-1.3-0.9-0.6C281.3,387.6,278.8,388.7,276.1,389.6z"/>
	<path id="XMLID_1322_" class="st43" d="M417.4,428c-4.9-0.3-9.9,0.3-14.8-0.8c7.6-5.1,14.8-10.8,22.6-15.5c0.5-0.2,0.9-0.6,1.5-0.8
		c-0.8,0-1.3,0.6-1.9,0.8c-8.2,5.5-17,9.9-25.4,15.1c-3.7-0.9-7.5-1.8-11.2-2.6c6.1-5.3,12.9-9.6,19.5-14.3
		c7.2-5.2,14.3-10.7,21.9-15.5c0.4-0.3,0.8-0.6,1.3-1c-0.7,0.4-1.2,0.8-1.7,1.1c-9.1,6-18.9,11-28.3,16.6
		c-5.2,3.1-10.5,6.2-15.8,9.2c-1.2,0.7-2.4,1.2-3.8,1.5c-2.9-0.7-5.5-2.3-8.2-3.6c2.6-2.8,6.2-4.3,9.3-6.4c1.1-0.7,2.2-1.5,3.3-2.1
		c0.1,0,0.2,0,0.2,0c-0.1-0.2-0.2-0.2-0.4,0c-1.1,0.8-2.3,1.5-3.4,2.2c-3.5,1.8-6.4,4.6-10.4,5.4c-2.4-1.1-4.8-2.4-6.8-4.2
		c1.6-2.7,4.8-3.4,7.1-5.1c0.8-0.5,1.6-1,2.4-1.6c-1,0.5-1.8,1.1-2.7,1.7c-2.6,1.5-5.2,3-7.7,4.7c-2-1.8-4.4-3-6-5.3
		c0-1.7,1.5-2.2,2.6-2.9c10-7.2,20.4-13.8,30.6-20.6c1.5-1,3.1-1.9,4.5-3.1c0.4-0.3,0.8-0.6,1.2-0.8c1.1-0.4,1.7-1.4,2.6-2.1
		c0.5-0.3,1-0.4,1.5-0.5c2.5-0.3,4.6,1.1,6.8,1.7c1.9,0.5,2.1,2.2,2.2,3.9c0.1,2-0.1,4,0.5,5.9c0.4,1.2,1,2.3,2.5,2.5
		c1.4,0.2,2.4-0.6,3.1-1.6c1.5-2,1.7-4.4,1.7-6.7c0-2,0.6-3.7,2.6-4.5c8.4-3,14-8.8,16.5-17.4c2.5-2.1,5.4-3.6,8.2-5.1
		c1.1-0.4,2.2-0.8,3.2-1.5c0.9-0.6,1.7-1.1,2.6-1.6c11.8-6.9,23.7-13.6,35.5-20.6c0.4-0.3,0.9-0.4,1.4-0.4c0.6,2.5,1.3,5,1.9,7.6
		c-1.3,2.1-3.6,2.9-5.6,4.2c-0.7,0.4-1.5,0.9-2,1.5c0.8-0.7,1.7-1.3,2.6-1.8c1.7-0.6,2.9-2.8,5.1-1.9c1.1,2.2,0.8,4.7,1.4,7
		c-1.3,2.4-4.1,2.9-5.9,4.4c1.9-0.7,3.4-2.9,6-2.4c-0.2,4.8,2.1,9.5,0.2,14.3c-1.5-1.1-0.6-2.8-1.2-4.2c-11,7.7-21.7,15.7-31.7,22.5
		c8.3-5.3,18.1-10.4,27.5-16.1c1.5-0.9,3-2.4,5.1-1.7c0.4,3.4-0.5,6.6-1.2,9.9c-3,2.3-6.2,4.5-9.5,6.5c-0.3,0.2-0.6,0.4-0.9,0.5
		c0.6,0,1-0.5,1.5-0.6c2.7-1.3,4.7-4.2,8.1-3.9c-3.3,14.1-11.3,25.1-22.5,33.8c-8.1,6.3-17.2,10.4-27.1,13.1c-1.1,0.3-2.4,1-3.6,0.2
		c-0.8-0.1-1.4,0.4-2.1,0.6c-0.6,0.3-1.6-0.1-1.8,1c-4.3,0.7-8.5,1.7-12.9,1.2C418.1,426.7,417.9,426.7,417.4,428z"/>
	<path id="XMLID_1321_" class="st43" d="M336.7,359.7c0-2.7,0-5.3,0-8c1.5-3,4.7-4,7.1-5.8c2.1-1.5,4.3-2.9,6.5-4.4
		c6.3-4,12.3-8.6,18.7-12.4c0.9-0.3,1.4-1.2,1.9-1.3c-0.5,0.1-1.3,1-2.3,1.4c-5.9,3.8-12.1,7.3-18.2,10.8c-3,1.7-6,3.5-9.1,5.2
		c-1.2,0.7-2.3,2-4,1.3c0.7-3.4,1.5-6.8,2.2-10.2c1.5-1,2.9-2.2,4.7-3.2c-1.3,0.4-2.1,1.8-3.4,0.9c0.4-3.7,1.7-7.1,3.1-10.5
		c3.2-3.7,7.6-5.9,11.5-8.7c5.3-3.8,10.7-7.6,16.2-11.1c0.8-0.4,1.5-0.9,2.1-1.4c0,0,0.1-0.1,0.1-0.1s-0.2,0.1-0.3,0.1
		c-0.7,0.6-1.5,1-2.2,1.4c-5.6,3.8-11.7,6.9-17.4,10.6c-1.1,0.4-2.2,0.8-3.3,1.4c-1.5,0.5-2.6,2.4-4.6,1.6c1.4-4.1,2.9-8.2,4.9-12
		c2.6-2.9,6-4.6,9.1-6.6c-2.5,0.8-4.1,3.7-7.3,3.1c4-9.4,8.5-18.4,15.2-26.2c1.2-1.4,1.1-3.2,2.1-4.7c4-5.4,7.8-11,11.6-16.5
		c1.2-1.7,2.7-2.6,4.8-2.1c0.2,0.8-0.2,1.4-1.1,2.5c1.3-1.3,2.1-2.1,3.1-2.6c5.3,0,10.6,0,15.8,0c-0.5,2.3-2.7,2.9-4.1,4.2
		c-0.7,0.6-1.4,1.2-2.1,1.7c0.9-0.5,1.8-1.1,2.7-1.6c2.8-1.6,5.5-3.4,8.6-4.3c8.9,0,17.7-0.1,26.6-0.1c0.7,0,1.5-0.1,2,0.6
		c-0.2,1.4-1.3,2-2.3,2.7c-5.7,4-11.4,8.2-17.4,11.8c-0.1,0.2-0.3,0.3-0.5,0.3c0.4,0.2,0.5-0.2,0.8-0.4c6.5-4.2,13.3-7.8,19.9-11.7
		c1.6-0.6,2.8-2.3,4.8-1.8c1.7,2,3.4,4,5.1,6c-10.3,7.2-20.6,14.5-31,21.6c-1.4,1-3,1.8-4.2,3.2c-0.2,0.3-0.5,0.6-0.8,0.8
		c-2.6,2.2-2.9,5.2-2.7,8.2c0.2,3.4-1.1,5.1-4.3,6.4c-11.1,4.3-15.8,13-13.6,24.6c0.1,0.7,0.3,1.5,0.1,2.2c-2.3,3.9-5.9,6.2-10,7.9
		c-1,0.2-2,0.5-3,0.5c-1.9-0.5-3,0.4-3.4,2.3c-1.1,2.2-3.5,2.7-5.3,3.8c-7.8,4.6-15.5,9.2-23.4,13.6c-2.3,1.4-4.8,2.7-7.2,4.1
		C339.1,359.5,338,360.4,336.7,359.7z"/>
	<path id="XMLID_1320_" class="st43" d="M438.3,201.8c-1.2,4.7-1,5,3.3,5.6c0.1,1.8-1.7,2-2.7,3c2.1-1.3,4.1-2.5,6.3-3.1
		c3.3,0.1,6.4,0.5,7.6,4.3c-1.5,2.6-4.1,4-6.3,5.7c-2.2,1.7-4.3,3.6-6.8,5c3.3-2,6.6-4,9.9-5.9c1.2-0.6,2.3-1.5,3.8-1.1
		c-0.6,7.7-5,14-7,21.2c-2.1,7.8-6.2,10.2-14.2,9.7c-13.6-0.8-27.2-0.4-40.8-0.1c-4.2,0.1-6.2-1.3-6.8-5.2c0.4-0.5,1-0.6,1.5-1
		c0,0,0.1-0.1,0.1-0.1s-0.2,0.1-0.2,0.1c-0.5,0.2-0.9,0.5-1.4,0.1c-1-2.3-2-4.6-2.9-6.8c0.3-1,0.9-1.8,1.7-2.4
		c5.7-4.4,11-9.2,16.9-13.2c-0.1-0.1-0.2,0.1-0.3,0.1c-6.7,4.1-13.5,7.9-20.2,11.9c-2.1-4.6-4.4-9.1-4.9-14.2
		c-0.6-5.7,1-7.5,6.8-8.1c1,3.5,2-0.1,3,0c1.9-0.6,4.7,0.8,5.3-2.5c9.7-6.2,19.6-12.2,30-17.2c4,0,8.1-0.5,12,0.9
		c0.2,1.8-1.3,2.2-2.5,3.1c1.6-1,3-2,4.7-2.4c3.1,1.2,4.6,3.6,5,6.8c-5.6,5.6-12,10.1-17.6,14.5c4.4-2.9,9.5-5.7,14.7-8.6
		C436.8,201.6,437.6,201.4,438.3,201.8z"/>
	<path id="XMLID_1319_" class="st43" d="M381.9,334.2c2.9-2.2,7.1-2.7,8.4-6.9c0.2-0.7,1.1-0.2,1.6,0c1.2,0.3,1.7,1.3,2.3,2.3
		c4.9,8.3,12.5,12.5,21.9,13c6.4,0.4,10,3.8,11.9,9.1c2.8,8.1,0.5,18.5-8.2,21.9c-7.3,2.9-16.7-1.6-19.7-9.6c-0.6-1.5-1-3.1-1.3-4.7
		c-0.4-2.1-1.1-4-3.8-3.7c-2.3,0.3-3.5,1.7-3.6,4c0,0.6-0.1,1.2-0.2,1.9c-0.1,0.4-0.2,0.7-0.4,1.1c-0.8,0.8-1.7,1.4-2.7,2.1
		c-13.4,7.7-26.6,15.5-40,23.1c-1.2,0.7-2.3,2.1-4,1.1c-1.8-1.6-2.2-4-3-6.1c0.7-1.5,2-2.2,3.3-3c6.6-4.4,13.2-8.9,20.1-13
		c0.9-0.5,1.9-1,2.7-1.7c0,0-0.1-0.2-0.1-0.2s0,0.2-0.1,0.2c-0.9,0.7-1.9,1.2-2.8,1.7c-7,4.5-14.2,8.5-21.4,12.6
		c-0.6,0.4-1.4,0.6-2.1,0.3c-2.5-4.4-3-9.3-3.3-14.2c0.1-0.9,0.8-1.6,1.4-2.2c11.7-7.6,23-15.7,34.6-23.3c1.4-0.9,2.7-1.8,4-2.7
		C378.8,336.2,380.4,335.3,381.9,334.2z"/>
	<path id="XMLID_1318_" class="st43" d="M477.4,304.7c1,2,2,4.1,3,6.1c-1.3,2.3-3.6,3.4-5.6,4.8c-12.8,8.5-25.4,17.2-38.1,25.8
		c-1.7,0.6-2.8,2.4-4.9,2.5c-1.4-0.5-2.3-1.5-3.3-2.5c-4.6-4.1-10-6.2-16-6.4c-5.7-0.2-9.6-2.8-11.7-7.8c-2.7-6.2-2.5-12.5,1.3-18.3
		c3.1-4.7,7.6-6.8,13.2-5.9c5.6,0.9,9.9,3.8,12.2,9.3c-1.4,2.4-4.5,2.5-5.9,4.2c1.8-0.8,3.5-2.9,6.2-2.5c1.6,1.2,1.5,3,1.9,4.7
		c0.5,2.2,1.9,3,4.1,2.8c2.1-0.2,2.8-1.5,3.1-3.5c0.3-3.1-1.3-5.7-1.6-8.7c0.3-1.2,1.4-1.7,2.3-2.3c9.5-5.4,18.8-10.9,28.3-16.3
		c1.1-0.6,2.1-1.3,3.5-1.2c2.7,3.7,4.7,7.8,6.7,12c-0.3,1-1.1,1.6-2,2.2c-8.1,5.4-16,10.9-22.1,14.6c5.4-3.5,13.4-7.6,21.1-12.3
		C474.3,305.4,475.6,304.2,477.4,304.7z"/>
	<path id="XMLID_1317_" class="st42" d="M270.2,298c-2.2,3.1-6.8,3.2-8.7,6.8c-3.2,1.3-3.8-1-4-3.1c-0.3-4.3-0.4-8.7,0.2-13
		c0.3-1.8,0.3-3.7,0.6-5.5c1-3,0.7-6.1,0.6-9.2c-0.1-3.2,1.2-5.5,3.8-7.1c2.8-1.8,5.6-3.6,8.5-5.2c1.3-0.5,2.7-0.8,3.9-1.7
		c0.9-0.6,1.8-1.1,2.7-1.7c8.5-5.2,17.3-9.9,25.9-15.1c1.5-0.9,2.9-2,4.8-1.6c1.2,0.6,2.1,1.6,3,2.8c-2.7,2.3-5.5,4.5-6.9,7.8
		c-0.3,1.1-1.4,1.2-2,1.7c0,0-0.1,0.1-0.1,0.1s0.2-0.1,0.2-0.1c0.6-0.4,1.1-0.8,1.8-0.3c0.8,1.7,2.2,1.8,3.7,1.3
		c1.9-0.6,3.5-1.7,5-3c3.4-2.9,3.4-2.9,5.8,0.9c-0.4,1.6-1.9,2.2-3.1,3c-7.1,4.9-14.4,9.6-21.9,14c-0.2,0.2-0.6,0.2-0.8,0.6
		c0.4-0.2,0.8-0.4,1.2-0.6c7.4-4.7,14.9-8.9,22.4-13.3c1.3-0.7,2.5-1.6,4.2-1.3c1.5,1.7,3,3.6,3.8,5.8c-0.2,1.3-1.3,1.8-2.2,2.4
		c-16.1,10.6-31.9,21.8-48.2,32.1C273.2,296.2,272,297.6,270.2,298z"/>
	<path id="XMLID_1316_" class="st2" d="M256.3,418.6c-4,0.3-7.9-0.2-11.8-0.6c-0.3-1.8,1.3-2.2,2.3-2.9c3.8-2.8,8-5.2,11.7-8.1
		c0.9-0.5,1.5-1.4,2.2-2.1c3.8-2.6,8-4.6,11.9-7.2c11.2-2.5,22.1-6.1,31.9-12.3c5.7-3.6,10.9-7.8,15.9-12.3c1.9-1.2,3.3-3.4,6.1-3
		c0.5,3.1,1,6.3,1.6,9.4c-0.3,1.2-1.5,1.4-2.2,2.1c0.1,0-0.4,0.2,0,0c0.4-0.2-0.1,0.2,0.3-0.1c0.6-0.5,1.3-0.9,2.1-0.4
		c2.9,6.6,2.9,6.7-2.5,11.3c-9.6,8.1-20.1,14.7-32.1,18.8c0.2-3.3,3.8-3.4,5.1-5.2c-3.9,2.6-8.1,5.3-12.8,7.2
		c-1.2,0.5-2.4,1.1-3.6,1.8c-6,1.6-12,2.9-18.2,3c0-1.1,0.6-1.9,1.5-2.4c4-2.6,7.5-6,11.7-8.2c0.7-0.5,1.4-1,2.1-1.5
		c0,0,0.1-0.1,0.1-0.1s-0.2,0.1-0.3,0.1c-0.7,0.6-1.4,1-2.2,1.5c-6.3,3.6-12.3,7.5-18.8,10.7C257.6,418.4,256.9,418.3,256.3,418.6z"
		/>
	<path id="XMLID_1315_" class="st2" d="M167,241.7c5.9-8.9,13.7-16,21.9-22.6c6.5-5.2,13.2-10.1,21-13.1c-1.3,3.9-5,5.2-7.8,7.5
		c-0.3,0.3-0.8,0.5-1.1,0.8c0.4-0.3,0.8-0.6,1.3-0.9c9-5,17.5-11,27-15c4.2-2.7,9.1-2.8,13.7-3.8c2.1-0.5,4.4-0.5,6.6-0.7
		c-0.1,2.4-2.3,3.1-3.8,4.2c-11.4,8.2-22.8,16.5-34.2,24.7c-0.9,0.6-1.9,1.2-2.6,2.1c-0.9,1.4-3.2,1.5-3.5,3.5
		c-9.9,5.9-18.9,13-26.5,21.7c-7.3,5.6-15.8,9.4-23.6,14.2c-0.8,0.5-1.6,1.4-2.7,0.4c2.3-5.6,4.9-11,9.1-15.5
		c6.9-5.8,14.3-10.9,21.8-15.9c0.7-0.6,1.6-1,1.9-1.9c0.2,0,0.3-0.2,0.2-0.4c0,0.2-0.1,0.4-0.3,0.5c-0.5,0.9-1.4,1.3-2.2,1.9
		c-3.8,2.4-7.6,4.6-11.5,6.8C170.4,241.1,168.9,242.2,167,241.7z"/>
	<path id="XMLID_1314_" class="st43" d="M446,356.5c-2.8,1.4-5.1,3.7-8.2,4.5c-0.3-0.2-0.6-0.5-0.7-0.9c-0.1-5.5-2.4-10.3-4.4-15.2
		c0.4-2.3,2.7-2.5,4.1-3.7c12.9-7.9,26.2-15.3,39.3-22.9c2-1.2,3.9-2.7,6-3.7c1.9,4.4,3.7,9,4.9,13.7c-3.1,4.1-7.8,6.1-11.8,9
		c-7.8,5.5-15.8,10.9-24,15.8c-0.9,0.5-1.7,1.1-2.5,1.6C447.8,355.2,446.9,355.8,446,356.5z"/>
	<path id="XMLID_1313_" class="st43" d="M397.3,380.5c-0.3,0.3-0.6,0.6-0.9,0.9c-2.2,0.1-3.5,1.9-5.3,2.7
		c-11.1,6.7-22.4,13.1-33.6,19.6c-0.8,0.4-1.5,0.8-2.5,0.8c-3.6-3.2-6.2-7.1-8.7-11.2c0.4-0.6,0.9-1.2,1.5-1.6
		c13.5-9,26.8-18.4,40.5-27.2c0.9-0.5,1.5-1.3,2.2-2l0.2-0.2c2.7,5.6,6.3,10.6,10.6,15.1c0.1,0.1,0,0.5-0.1,0.7
		c-0.6,0-1.1,0.1-1.7,0.1C399,379.2,398,379.7,397.3,380.5z"/>
	<path id="XMLID_1312_" class="st43" d="M413,284.6c0-0.3,0-0.5,0-0.8c7-3.1,13.1-7.5,19.8-11.1c4.9-2.7,9.7-5.7,14.6-8.4
		c1.2-0.6,2.3-1.7,3.8-0.8c1.9,1.4,3,3.5,4.5,5.3c-3.9,3.5-8.6,5.9-13,8.7c-0.8,0.4-1.4,1-2.1,1.4c0.9-0.4,1.6-1.1,2.5-1.5
		c4.4-2.4,8.2-6.1,13.4-7.1c1.5,2,2.9,4,4.4,6c-0.9,1.4-2.5,2.1-3.8,3c-9.1,6.1-18.3,12.2-27.3,18.4c-1.4,1-2.8,2.2-4.6,2.3
		c-0.9-0.1-1.7-0.4-2.5-0.6c-3.3-0.6-5-2.5-4.7-6c0.1-0.6-0.1-1.2,0-1.9C418.2,287.8,416.1,285.8,413,284.6z"/>
	<path id="XMLID_1311_" class="st4" d="M272,262c-2,1.3-3.9,2.8-6.1,3.9c-4.6,2.3-6.8,5.7-6,11c0.3,1.7,0.7,3.7-0.5,5.4
		c-0.8-0.5-1.1-1.4-1.1-2.2c-0.1-7-0.1-14-1.6-20.9c4.5-1.4,8.4-3.9,12-6.9c1.1,0,1.7-0.8,2.3-1.4c0.6-0.3,1.2-0.6,1.8-0.9
		c1.3-1.2,3.1-1.7,4.5-2.7c5.9-3.8,12.1-7.3,18.2-10.8c1.3-0.8,2.5-2.1,4.4-1.6c2.4,0.9,4.2,2.6,6.1,4.2c-0.2,1.7-1.7,2.4-2.9,3.2
		c-8.5,5.2-16.6,11.1-25.2,16.2c-0.7,0.4-1.4,0.8-2.1,1.4C274.6,260.7,273.4,261.5,272,262z"/>
	<path id="XMLID_1310_" class="st2" d="M205.5,228.4c-1.3-2.8,2-2.5,2.7-3.9c11.2-6.5,22.3-13.2,33.6-19.5
		c6.8-3.8,13.2-8.5,20.6-11.2c3.9-0.4,7.6,0.5,11.4,1.2c-0.7,2.1-2.7,2.8-4.3,3.9c-7.4,5-14.8,10.1-22,15.3c-1.3,1-2.9,1.4-4.3,2.1
		c-5.5,1.2-10.9,2.4-16.4,3.5c-2.4-0.2-4.6,0.3-6.5,1.8C215.4,223.9,210.4,226.1,205.5,228.4z"/>
	<path id="XMLID_1309_" class="st43" d="M462.8,279.2c1.2,2,2.9,3.6,3.5,5.9c0.1,2.1-1.8,2.5-3,3.3c-9.5,6.4-19,13-28.5,19.4
		c-3-2-5.4-4.6-7.2-7.8c0.2-1.3,1.1-1.8,2.1-2.4c9.9-5.9,20-11.6,30-17.4C460.6,279.8,461.6,279.2,462.8,279.2z"/>
	<path id="XMLID_1308_" class="st2" d="M272.5,397.6c0.6,0.3,0.8,0.8,0.2,1.1c-3.8,2.2-7.7,4.3-11.6,6.5c-0.9,0.6-1.5,1.5-2.6,1.9
		c-5.9,3.7-11.7,7.8-18.4,10.2c-3.5,0.2-6.8-0.9-10.2-1.7c2-3.7,6.1-4.7,9-7.2c0.8-0.5,1.6-1.1,2.4-1.6c0.8-0.5,1.3-1.4,2.1-2
		c3.5-1.9,6.6-4.4,10.4-5.7c0.8,0,1.7-0.1,2.5-0.1c1.1-0.3,2.3,0.1,3.4-0.3C264.1,398.4,268.3,398,272.5,397.6z"/>
	<path id="XMLID_1307_" class="st2" d="M282.4,196.9c2.7,0.7,5.5,1.2,7.9,2.8c0,1.9-1.5,2.5-2.7,3.2c-6.9,4.2-13.4,8.9-20.2,13.2
		c-1.4-0.2-2.8-0.4-4.3-0.6c-1.5-0.8-3-0.8-4.6-0.1c-2.5,0-5,0-7.5,0.1c-0.2-1.7,1.3-2,2.3-2.6c8.6-5,17.3-10,25.9-15
		C280.2,197.3,281.4,197.3,282.4,196.9z"/>
	<path id="XMLID_1306_" class="st44" d="M262.5,193.8c-10.4,6.1-20.7,12.2-31.1,18.3c-6.5,3.8-13.1,7.6-19.7,11.4
		c-1.1,0.6-2,1.5-3.4,1c11.2-8.2,22.5-16.4,33.7-24.7c2.6-1.9,5.1-3.9,7.7-5.9C253.9,193.5,258.2,193.4,262.5,193.8z"/>
	<path id="XMLID_1305_" class="st2" d="M254,399.2c-3.2,2.5-6.4,4.9-10.4,6c-0.6,0.8-1.3,1.5-2.2,1.9c-0.8,0.6-1.6,1.1-2.5,1.6
		c-3.8,2.2-7.2,5.1-11.6,6.2c-3-0.5-5.9-1.4-8.7-2.7c0.1-0.5,0.2-1,0.7-1.3c6.5-4.5,12.5-9.7,19.8-13
		C244.1,398.3,249,398.7,254,399.2z"/>
	<path id="XMLID_1304_" class="st2" d="M173.8,381.1c-3.5-3-6.5-6.4-9.1-10.2c3.6-3.9,7.9-6.6,12.9-8.3c3.3,3.6,6.7,7.1,10,10.7
		C183.5,376.8,179.1,379.7,173.8,381.1z"/>
	<path id="XMLID_1303_" class="st5" d="M381.5,421.7c4.8-3.7,10.3-6.3,15.6-9.3c10.7-6.2,21.5-12.4,32.3-18.5c0.8-0.2,1,0.1,0.9,0.8
		c-13.2,9.5-26.3,19-39.5,28.5c-0.7,0.5-1.6,0.6-2.4,0.9C386,423.4,383.8,422.5,381.5,421.7z"/>
	<path id="XMLID_1302_" class="st2" d="M173.6,256.7c-2.7,5.3-5.5,10.5-8.2,15.8c-6.1,4.3-12.1,8.7-19.4,10.6
		c0.4-3.6,1.8-6.9,3.1-10.2c3-4.2,7.8-6,11.6-9c3-2.4,6.3-4.3,9.5-6.4C171.3,256.9,172.3,255.8,173.6,256.7z"/>
	<path id="XMLID_1301_" class="st2" d="M345.6,283.1c-1.5-4.6-2.9-9.1-4.4-13.7c1.5-2.7,4.4-3.5,6.8-4.9c1.7-1,3.3-2.5,5.4-2.9
		c2,4.3,4.1,8.6,6.1,12.9C355.4,278.2,351.1,281.6,345.6,283.1z"/>
	<path id="XMLID_1300_" class="st2" d="M295.5,201.6c2.5,1.1,5,2.2,7.2,3.8c-0.3,1.4-1.6,1.9-2.6,2.6c-4.4,3-8.9,6-13.4,8.9
		c-1.1,0.8-2.2,1.6-3.7,1.6c-3.9-0.8-7.9-1.5-11.8-2.3c-0.3-0.9,0.4-1.4,1-1.7c6.9-4,13.9-8.1,20.8-12
		C293.9,202,294.7,201.9,295.5,201.6z"/>
	<path id="XMLID_1299_" class="st45" d="M282.4,196.9c-9.3,5.4-18.6,10.9-28,16.4c-1.2,0.7-2.3,1.5-3.4,2.2
		c-2.6,0.7-5.2,0.8-7.8,0.8c9.9-7.5,20.3-14.3,30.6-21.3C276.7,195.6,279.6,196.3,282.4,196.9z"/>
	<path id="XMLID_1298_" class="st46" d="M482.2,314.6c0.1,1-0.4,1.6-1.2,2c-14.6,8.3-29.1,16.7-43.7,25c-0.8,0.2-1-0.2-0.9-0.9
		c14.7-10,29.4-20,44.2-29.9C481,312.1,481.6,313.3,482.2,314.6z"/>
	<path id="XMLID_1297_" class="st2" d="M212.1,409.2c-2.4-0.9-4.6-2.2-6.7-3.8c0.2-0.9,0.9-1.5,1.6-2c5.2-3.2,9.6-7.5,15.6-9.5
		c3.7,1,7.4,2,11.1,2.9c0,0.3,0,0.6-0.2,0.7c-6.6,4.4-13.3,8.7-20.6,11.8C212.6,409.4,212.4,409.3,212.1,409.2z"/>
	<path id="XMLID_1296_" class="st10" d="M389,364.7c-13.8,9.4-27.5,18.8-41.3,28.2c-0.4,0.3-0.9,0.3-1.4,0.5c-0.8-1.5-2-2.7-2.2-4.5
		c13.4-7.7,26.9-15.4,40.3-23.1c1.2-0.7,2.4-1.3,3.6-1.9C388.8,363.6,389,364,389,364.7z"/>
	<path id="XMLID_1295_" class="st2" d="M143.1,297.3c0.1-3,0.6-6,1.5-8.9c5.4-5.2,12-8.6,18.1-12.7c0.5-0.3,1.2-0.3,1.8-0.1
		c-1.1,4-2.2,7.9-3.2,11.9c-4.7,3.5-10,6.1-15,9.1C145.3,297.2,144.3,297.7,143.1,297.3z"/>
	<path id="XMLID_1294_" class="st46" d="M434.6,307.6c0.4-1.5,1.8-1.9,2.9-2.7c9.6-6.6,19.1-13.2,28.7-19.8c1.5,1.2,2.2,3,3,4.6
		c-11.1,6.8-22.3,13.2-33.7,19.4C434.8,309,434.3,308.5,434.6,307.6z"/>
	<path id="XMLID_1293_" class="st2" d="M307.8,208.6c2.1,1,4.1,2.3,5.7,4c0.1,0.7-0.2,1.3-0.7,1.6c-4.9,3.5-9.8,7.1-15.4,9.5
		c-3-1.2-6.1-2.4-9.1-3.6c0-0.4,0-0.8,0.3-1c5.7-4.1,11.8-7.5,18.2-10.6C307,208.3,307.5,208.4,307.8,208.6z"/>
	<path id="XMLID_1292_" class="st2" d="M160.7,291.5c-0.4,3.4-0.8,6.8-1.2,10.2c-3.3,3.6-7.9,5.1-11.9,7.6c-1.6,1-3,2.8-5.3,2.1
		c0-2.7,0-5.4,0.1-8C148,298.6,153.7,294.2,160.7,291.5z"/>
	<path id="XMLID_1291_" class="st2" d="M159.5,306.3c0.2,2.9,0.4,5.9,0.6,8.8c-5,4.1-10.4,7.5-16.6,9.6c-0.3-2.5-0.7-4.9-1-7.4
		c0.4-1.1,1.1-1.9,2.1-2.5c4.3-2.5,8.3-5.4,12.5-8C157.8,306.4,158.5,305.8,159.5,306.3z"/>
	<path id="XMLID_1290_" class="st7" d="M491.6,365.3c-10.5,6-21,11.9-31.4,17.9c-1.5,0.8-3,1.7-4.5,2.5c-0.2-0.3-0.4-0.6-0.6-0.8
		c12-8.7,24-17.3,36.4-26.2c0.8,2.2,0.1,4.2,0.4,6C491.7,364.9,491.6,365.1,491.6,365.3z"/>
	<path id="XMLID_1289_" class="st2" d="M209.8,388.7c2.9,1,5.8,2.1,8.4,3.7c-0.2,1.1-1,1.7-1.9,2.2c-4.3,2.4-8.5,5.1-12.8,7.4
		c-0.9,0.5-1.8,0.9-2.8,0.5c-2.2-1-4.2-2.3-6-3.9c0.1-0.9,0.7-1.6,1.5-2C200.7,393.8,204.6,390.1,209.8,388.7z"/>
	<path id="XMLID_1288_" class="st2" d="M274.3,295.1c16.9-11.4,33.9-22.8,50.8-34.2c0.5,0.8,1,1.6,1.5,2.5c-15.8,10-31.5,20-47.3,30
		c-1.4,0.9-2.8,1.6-4.2,2.4C274.3,296.2,274.2,295.8,274.3,295.1z"/>
	<path id="XMLID_1287_" class="st47" d="M451.2,263.4c-11,6.3-22,12.5-33,18.8c-1.6,0.9-3.2,2-5.2,1.6c11.1-7.7,22.1-15.5,33.2-23.2
		c0.8-0.6,1.6-1.2,2.7-0.8C449.6,260.9,450.4,262.2,451.2,263.4z"/>
	<path id="XMLID_1286_" class="st48" d="M377.7,337.7c-12.4,8.5-24.6,17.5-37.5,25.2c-0.4,0.2-0.7,0.7-1.1,1
		c-0.7,0.3-1.4,0.7-2.3,0.3c-0.1-0.6-0.1-1.2-0.2-1.9c1-2.6,3.6-3.4,5.6-4.7c1.6-1,3.1-2.1,4.6-3.2c4.7-3.7,10.2-6.1,15.2-9.2
		c4.4-2.7,9-5.3,13.5-8c0.2-0.7,0.8-0.8,1.4-0.7C377.5,336.7,378,337,377.7,337.7z"/>
	<path id="XMLID_1285_" class="st2" d="M160.2,318.6c1.1,2.5,0.9,5.3,1.4,7.9c-0.6,1.6-1.9,2.4-3.5,2.9c-2.1,0.2-3.5,1.8-5.2,2.8
		c-1.4,0.6-2.7,1.5-3.9,2.3c-1,0.5-1.9,1-3,0.6c-1.4-2-1.3-4.5-2-6.7c2.5-3.4,6.6-4.5,9.7-6.9C155.6,320.2,157.4,318.2,160.2,318.6z
		"/>
	<path id="XMLID_1284_" class="st43" d="M390.3,201.2c-0.4-2.7-1.1-5.3-1.3-8c-0.2-2.8,1.1-4.6,4.1-4.7c5.7,0,11.4,0.1,17,0.1
		c0.1,1.2-0.7,1.8-1.6,2.3C402.5,194.3,396.7,198.2,390.3,201.2z"/>
	<path id="XMLID_1283_" class="st2" d="M318,216.2c2.1,1.1,3.7,2.8,5.2,4.6c-0.2,2.1-2.1,2.6-3.5,3.5c-3.4,2.2-6.4,5-10.5,6
		c-2.5-1.5-4.9-2.9-7.4-4.4c0-0.7,0.3-1.2,0.9-1.5C307.8,221.4,312.4,217.8,318,216.2z"/>
	<path id="XMLID_1282_" class="st2" d="M192.4,396.9c-2.2-1.2-4.1-2.7-5.8-4.4c0.3-1.5,1.5-2.2,2.7-2.9c3.7-2.2,7-5,11.1-6.5
		c2.6,1.5,5.2,3.1,7.8,4.6C203.5,391.8,198.3,395,192.4,396.9z"/>
	<path id="XMLID_1281_" class="st10" d="M390.3,201.2c0.6-1.8,2.3-2.1,3.7-2.9c5.4-3.3,10.8-6.5,16.2-9.7c3.2-0.9,6.4-0.9,9.7-0.9
		c-6.3,4.7-13.5,8.2-20.3,12.1c-3.2,1.8-6,4.3-9.8,5.1C390.5,203.7,390.6,202.5,390.3,201.2z"/>
	<path id="XMLID_1280_" class="st47" d="M462.8,279.2c-7.2,5.1-15.2,8.9-22.8,13.6c-4,2.5-8.4,4.4-12.1,7.3c-1.1,0.9-1.6,0.3-2-0.7
		c11.1-7.6,22.2-15.2,33.3-22.7c0.5-0.3,1.2-0.3,1.7-0.4C461.5,277.2,462.1,278.2,462.8,279.2z"/>
	<path id="XMLID_1279_" class="st49" d="M212.1,409.2c7.2-4.1,14.4-8.2,21.5-12.4c1.8,0.3,3.6,0.7,5.4,1
		c-6.8,4.8-13.7,9.5-20.5,14.3C216.2,411.8,214.1,410.6,212.1,409.2z"/>
	<path id="XMLID_1278_" class="st2" d="M157.7,328.9c1.3-0.8,2.6-1.6,3.9-2.4c0.6,2.7,1.1,5.4,1.7,8.1c-4.3,4-9.1,7.1-14.9,8.5
		c-0.7-2-1.4-4.1-2.2-6.1c0.4-1.7,2.1-1.9,3.2-2.8c1-0.8,2.2-1.3,3.3-2C154.5,331.2,156,329.9,157.7,328.9z"/>
	<path id="XMLID_1277_" class="st50" d="M355,404.5c3.3-2.9,7.3-4.6,11-6.7c8.3-4.9,16.7-9.6,25.1-14.4c0.9-0.3,1,0.1,0.9,0.9
		c-11.3,7.7-22.5,15.4-33.8,23.1C356.8,406.8,355.9,405.6,355,404.5z"/>
	<path id="XMLID_1276_" class="st51" d="M173.6,256.7c-5.4,2.6-9.9,6.5-14.9,9.8c-3.2,2.1-6.4,4.3-9.6,6.5c1-2.8,1.9-5.7,3.6-8.2
		c7.5-4.3,15.1-8.7,22.6-12.9c1.2-0.7,2.2-1.7,3.6-1.7C177.2,252.3,175.4,254.5,173.6,256.7z"/>
	<path id="XMLID_1275_" class="st2" d="M289.2,228.8c-12.6,8.3-25.3,16.4-38.6,23.4c-0.2-0.3-0.4-0.7-0.6-1
		c11.9-8,23.7-16.1,35.6-24.2C286.8,227.6,288.1,227.8,289.2,228.8z"/>
	<path id="XMLID_1274_" class="st50" d="M450.6,352.9c12.2-8.2,24.3-16.4,36.5-24.6c0.4,1.2,0.8,2.4,1.1,3.5
		c-0.4,0.5-0.7,1.1-1.2,1.4c-11.9,6.8-23.7,13.6-35.6,20.4C450.6,354,450.5,353.5,450.6,352.9z"/>
	<path id="XMLID_1273_" class="st2" d="M164.2,337.2c1,2.7,2,5.3,3,8c-0.2,0.3-0.4,0.6-0.7,0.7c-1.7,0.5-3.2,1.4-4.6,2.3
		c-3,1.4-5.5,4.2-9.1,4.1c-1.3-1.8-2.3-3.8-2.8-6C153.9,342.2,158.7,339.1,164.2,337.2z"/>
	<path id="XMLID_1272_" class="st2" d="M191.1,376.6c2.3,1.7,4.7,3.4,7,5c-4.4,3.7-9.2,6.6-14.7,8.3c-2-1.3-3.8-3-5.3-4.8
		C181.8,381.4,186,378.2,191.1,376.6z"/>
	<path id="XMLID_1271_" class="st2" d="M166.3,345.2c0.3,0,0.6-0.1,0.9-0.1c1.1,2.2,2.3,4.5,3.4,6.7c-4,3.7-8.5,6.6-13.9,7.8
		c-1.3-1.8-2.6-3.6-3.2-5.8c2.1-3.1,5.7-3.9,8.5-5.9C163.3,346.9,164.8,346,166.3,345.2z"/>
	<path id="XMLID_1270_" class="st52" d="M307.8,208.6c-6.5,3.8-13,7.7-19.6,11.5c-1.8-0.2-3.6-0.6-5.2-1.5
		c6.6-4.4,13.1-8.7,19.7-13.1C304.6,206.2,306.3,207.3,307.8,208.6z"/>
	<path id="XMLID_1269_" class="st2" d="M318.3,237c-2-1.6-4-3.3-5.9-4.9c-0.1-0.4-0.1-0.8,0.2-1c4.4-2.8,8.6-6,13.7-7.4
		c1.9,1.4,3.5,3.2,4.9,5.1c-0.4,1.3-1.5,1.8-2.5,2.5c-1.7,1-3.6,1.9-5.1,3.2c-0.6,0.6-1.2,1.2-1.9,1.5
		C320.2,235.5,319.5,237.1,318.3,237z"/>
	<path id="XMLID_1268_" class="st2" d="M172.2,354.7c1.3,2,2.6,4,4,6c-0.6,2-2.5,2.3-3.9,3.1c-3.1,1.7-5.9,4-9.4,5.1
		c-1.3-2-2.7-3.9-4-5.9C162.6,359.1,166.8,356,172.2,354.7z"/>
	<path id="XMLID_1267_" class="st2" d="M231.5,315.9c-6.6,5-14,8.6-20.9,13c-0.6,0.8-1.3,1.5-2.3,1.8c-1.3,0.8-2.4,1.8-3.9,2.3
		c-7.1,4.6-14.6,8.7-21.9,13c-0.9,0.5-1.8,0.9-2.8,0.7c-0.4-0.6-0.8-1.2-1.2-1.8c16.1-9.2,32.1-18.4,48.2-27.6
		c1.3-0.7,2.6-1.4,3.9-2.1C231.3,314.8,231.5,315.2,231.5,315.9z"/>
	<path id="XMLID_1266_" class="st6" d="M295.5,201.6c-6.4,4.6-13.5,7.9-20.2,12c-1.4,0.8-2.7,1.7-4.1,2.6c-1.3,0-2.6-0.1-3.9-0.1
		c-0.1-1.8,1.6-2,2.6-2.7c6.7-4.6,13.5-9.1,20.3-13.7C292.1,200.3,293.8,201,295.5,201.6z"/>
	<path id="XMLID_1265_" class="st2" d="M321.5,235.8c0.3-0.8,0.9-1.3,1.7-1.6c2-0.9,3.8-2.2,5.7-3.2c1.1-0.3,1.8-1.7,3.2-1.2
		c1.7,1.5,3.1,3.3,4.3,5.2c-3.2,3.7-7.2,6.3-11.9,7.6c-1.8-1.7-3.6-3.5-5.4-5.2C319.5,236.3,320.4,236.1,321.5,235.8z"/>
	<path id="XMLID_1264_" class="st2" d="M348.8,253.3c1.1,2.1,2.3,4.2,3.4,6.3c-3.4,3.4-7.1,6.2-11.9,7.2c-1.3-2-2.4-4.1-3.1-6.3
		C340.3,256.8,344.4,254.8,348.8,253.3z"/>
	<path id="XMLID_1263_" class="st2" d="M330.6,250.2c-1.5-1.8-2.9-3.6-4.4-5.4c0.6-2.3,2.9-2.6,4.5-3.5c2.4-1.4,4.6-3.4,7.6-3.8
		c1.3,1.9,2.6,3.8,4,5.7c-0.9,2.5-3.6,2.9-5.4,4.3c-1.3,0.8-2.5,1.7-3.8,2.4C332.3,250.4,331.5,250.6,330.6,250.2z"/>
	<path id="XMLID_1262_" class="st2" d="M335.5,257.6c-1.3-2-2.6-4-3.9-6c-0.1-1.1,0.8-1.4,1.6-1.9c1.3-0.8,2.6-1.7,3.9-2.5
		c2.2-0.5,3.5-3,6.1-2.5c1.5,1.7,2.8,3.6,3.7,5.7C343.6,253.6,340.2,256.6,335.5,257.6z"/>
	<path id="XMLID_1261_" class="st53" d="M318,216.2c-5.4,3.2-10.8,6.4-16.1,9.7c-1.5-0.7-3-1.5-4.5-2.2c5.4-3.7,10.7-7.4,16.1-11.1
		C315.2,213.5,316.8,214.6,318,216.2z"/>
	<path id="XMLID_1260_" class="st2" d="M259.2,385c8-4.5,16-9.1,24-13.6c0.8-0.3,1,0.1,0.8,0.8c-8.2,6.2-16.4,12.5-24.7,18.7
		C259.3,389,259.2,387,259.2,385z"/>
	<path id="XMLID_1259_" class="st53" d="M159.5,306.3c-5.7,3.7-11.3,7.4-17,11c-0.1-2-0.1-4-0.2-6c5.7-3.2,11.5-6.5,17.2-9.7
		C159.5,303.2,159.5,304.8,159.5,306.3z"/>
	<path id="XMLID_1258_" class="st51" d="M160.7,291.5c-6.1,4-12.2,7.9-18.3,11.9c0.2-2,0.5-4.1,0.7-6.1c4.9-2.8,9.9-5.6,14.8-8.4
		c1-0.6,1.9-1.6,3.3-1.4C161.1,288.8,160.9,290.2,160.7,291.5z"/>
	<path id="XMLID_1257_" class="st53" d="M200.8,402.5c5.8-3.4,11.7-6.7,17.5-10.1c1.6,0.2,3,0.7,4.4,1.5
		c-5.7,3.8-11.5,7.7-17.2,11.5C203.7,404.7,202.1,403.7,200.8,402.5z"/>
	<path id="XMLID_1256_" class="st51" d="M191.1,376.6c-4.3,2.8-8.7,5.7-13,8.5c-1.7-1.1-3.1-2.5-4.3-4.1c4.6-2.7,9-5.7,13.9-7.8
		C188.8,374.4,190,375.5,191.1,376.6z"/>
	<path id="XMLID_1255_" class="st2" d="M220.2,344.5c-6.6,4.5-13.1,8.9-19.7,13.4c-2.6,0.6-4.9,2-6.6,3.9c-2.1,2.4-3.5,1.6-4.7-0.8
		c9.8-6.1,19.9-11.8,30.1-17.4C220.1,343.4,220.3,343.8,220.2,344.5z"/>
	<path id="XMLID_1254_" class="st2" d="M334.7,281.3c-10.2,5.8-20.5,11.7-30.7,17.5c-0.2-0.4-0.5-0.7-0.7-1.1
		c10-6.5,20.1-13,30.1-19.6C333.8,279.2,334.3,280.3,334.7,281.3z"/>
	<path id="XMLID_1253_" class="st2" d="M277.3,258.3c9.6-6.4,19.1-12.8,28.7-19.2c0.9,0.8,1.9,1.7,2.8,2.5
		c-10.2,5.8-20.4,11.6-30.6,17.4C277.3,259.4,277.2,259,277.3,258.3z"/>
	<path id="XMLID_1252_" class="st54" d="M477.4,304.7c-10.1,5.8-20.2,11.6-30.2,17.4c-0.2-0.4-0.5-0.7-0.7-1.1
		c9.8-6.4,19.6-12.8,29.5-19.3C476.5,302.7,477,303.7,477.4,304.7z"/>
	<path id="XMLID_1251_" class="st55" d="M229.4,198.4c-8.8,5.6-17.9,10.7-27,15.7c-0.8,0.3-1-0.1-0.9-0.9c2.8-2.4,5.7-4.8,8.5-7.3
		C216,202.4,222.3,199.2,229.4,198.4z"/>
	<path id="XMLID_1250_" class="st56" d="M379.7,229.7c0-1.3,0.9-1.6,1.8-2.1c6.2-3.6,12.5-7.1,18.7-10.6c0.8-0.3,1,0.1,0.8,0.8
		c-6.5,5.2-12.9,10.4-19.4,15.6C380.9,232.2,380.3,230.9,379.7,229.7z"/>
	<path id="XMLID_1249_" class="st57" d="M372.5,303.9c-9.4,6.7-18.6,13.5-28.4,19.6c0.5-1.2,0.9-2.4,1.4-3.6c1.3-2.1,3.6-3,5.5-4.3
		c1-0.5,1.9-1.3,2.9-1.9c5.6-4,11.6-7.4,17.7-10.6C372.4,302.8,372.6,303.2,372.5,303.9z"/>
	<path id="XMLID_1248_" class="st54" d="M425.7,411.9c-6.5,5.1-13.8,9.2-20,14.6c-1,0.9-2.1,0.2-3.1,0.6c-1-0.1-2-0.2-3.1-0.3
		c-0.6-1.2,0.5-1.5,1.1-1.8c8.1-4.6,16.1-9.2,24.2-13.8C425.7,410.8,425.8,411.2,425.7,411.9z"/>
	<path id="XMLID_1247_" class="st58" d="M164.5,275.6c-6.6,4.2-13.3,8.5-19.9,12.7c0.1-1.9,0.6-3.6,1.4-5.3
		c6.7-3.2,12.6-7.7,19.4-10.6C165.9,273.7,164.9,274.6,164.5,275.6z"/>
	<path id="XMLID_1246_" class="st25" d="M179.6,346.7c8.2-4.7,16.5-9.5,24.7-14.2c0.9-0.3,1,0.1,0.9,0.8c-3.9,2.8-7.8,5.7-12,8.1
		c-3.9,2.2-7.5,5.1-11.2,7.7C180.2,349.2,180,347.8,179.6,346.7z"/>
	<path id="XMLID_1245_" class="st59" d="M438.3,201.8c-6.5,3.6-12.9,7.3-19.4,10.9c-0.2-0.3-0.3-0.5-0.5-0.8
		c7-5.1,13.2-11.4,20.7-15.9C439.4,198,438.7,199.9,438.3,201.8z"/>
	<path id="XMLID_1244_" class="st2" d="M213,381.7c9.1-5.2,18.2-10.3,27.3-15.5c0.8-0.4,0.9,0.1,0.8,0.7c-8,5.9-16.7,10.9-25.1,16.4
		C215.1,382.8,214.1,382.2,213,381.7z"/>
	<path id="XMLID_1243_" class="st60" d="M345.6,283.1c4.6-2.9,9.3-5.7,13.9-8.6c-1.4,3.6-3.7,6.7-5.8,9.9c-2,2-4,3.9-7.1,3.9
		C346.3,286.5,345.9,284.8,345.6,283.1z"/>
	<path id="XMLID_1242_" class="st2" d="M321.3,255.2c-8.9,5-17.8,10.1-26.7,15.1c-0.8,0.4-0.9,0-0.8-0.7c8.5-5.6,17-11.2,25.5-16.8
		C320,253.6,320.6,254.4,321.3,255.2z"/>
	<path id="XMLID_1241_" class="st61" d="M160.2,318.6c-5.6,3-10.4,7.2-16.2,9.8c-0.2-1.2-0.3-2.4-0.5-3.7c5.4-3.5,10.9-6.7,16.6-9.6
		C160.1,316.3,160.2,317.4,160.2,318.6z"/>
	<path id="XMLID_1240_" class="st2" d="M196.2,303.8c-8.5,5.6-16.9,11.1-25.4,16.7c-0.2-1.1-0.4-2.1-0.6-3.2
		c8.4-4.7,16.7-9.5,25.1-14.2C196,302.8,196.3,303.1,196.2,303.8z"/>
	<path id="XMLID_1239_" class="st62" d="M167,241.7c5.5-3,10.9-6,16.4-9c0.8-0.3,1,0.1,0.8,0.8c-6.9,5.1-13.8,10.1-20.7,15.1
		c-0.5,0.3-1.1,0.4-1.7,0.6C162.7,246.1,164.9,243.9,167,241.7z"/>
	<path id="XMLID_1238_" class="st2" d="M174.9,336.2c9.2-5.5,18.5-10.9,27.7-16.4c0.2,0.3,0.4,0.7,0.7,1
		c-9.1,5.9-18.3,11.9-27.4,17.8C175.6,337.8,175.2,337,174.9,336.2z"/>
	<path id="XMLID_1237_" class="st63" d="M340.5,379.7c7.9-4.5,15.7-9,23.6-13.5c0.9-0.4,1,0.1,0.9,0.8c-8,5.2-15.9,10.5-23.9,15.7
		C340.7,381.7,340.2,380.8,340.5,379.7z"/>
	<path id="XMLID_1236_" class="st64" d="M326.2,223.7c-4.6,2.8-9.3,5.6-13.9,8.4c-1-0.6-2-1.2-3-1.9c4.6-3.2,9.3-6.3,14-9.5
		C324.4,221.5,325.5,222.4,326.2,223.7z"/>
	<path id="XMLID_1235_" class="st2" d="M199.9,277.6c-9.6,6.4-19.7,12-29.7,17.6c0-0.8-0.2-1.7,0.4-2.4c8.3-4.7,16.5-9.4,24.8-14.1
		c1.2-0.7,2.4-1.3,3.6-1.9C199.8,276.6,200,276.9,199.9,277.6z"/>
	<path id="XMLID_1234_" class="st65" d="M439.3,256c-6.3,4.7-13.4,8.1-20.2,12c-0.8,0.2-1-0.1-0.9-0.9c6.8-4.7,13.6-9.5,20.4-14.2
		c0.2,0.1,0.5,0.1,0.7,0.2C440.2,254,440,255,439.3,256z"/>
	<path id="XMLID_1233_" class="st66" d="M183.4,390c4.8-2.9,9.6-6,14.7-8.3c0.8,0.5,1.5,1,2.3,1.4c-4.2,3.7-9.3,6-13.7,9.4
		C185.5,391.7,184.5,390.8,183.4,390z"/>
	<path id="XMLID_1232_" class="st67" d="M172.2,354.7c-4.4,2.8-8.9,5.5-13.3,8.3c-0.7-1.1-1.5-2.3-2.2-3.4c4.6-2.6,9.3-5.2,13.9-7.8
		C171.1,352.8,171.6,353.8,172.2,354.7z"/>
	<path id="XMLID_1231_" class="st2" d="M299.9,234.9c-7.5,4.3-15,8.6-22.5,12.9c-0.9,0.4-1-0.1-0.9-0.8c7-4.6,13.9-9.2,20.9-13.8
		C298.4,233.6,299.3,234,299.9,234.9z"/>
	<path id="XMLID_1230_" class="st2" d="M350.7,342.1c-4.7,3.2-9.4,6.4-14.1,9.6c-0.5-1.8,0.4-3.5,0.7-5.2c4.2-2.3,8.3-4.7,12.5-7
		C350.9,340.1,351.6,340.8,350.7,342.1z"/>
	<path id="XMLID_1229_" class="st2" d="M338.5,313.6c-7.2,4-14.4,8.1-21.6,12.1c-0.2-0.3-0.4-0.6-0.6-0.9
		c7.5-4.9,14.9-9.9,22.4-14.8C338.6,311.2,338.6,312.4,338.5,313.6z"/>
	<path id="XMLID_1228_" class="st68" d="M164.2,337.2c-4.8,3-9.6,6.1-14.4,9.1c-0.5-1.1-0.9-2.1-1.4-3.2c5-2.8,10-5.6,14.9-8.5
		C164.1,335.3,164,336.3,164.2,337.2z"/>
	<path id="XMLID_1227_" class="st69" d="M257.6,417.9c6.3-4.1,12.8-7.8,19.4-11.3c0.9-0.4,1,0.1,0.9,0.8c-4.6,3.5-9.2,7-13.8,10.5
		c-0.6,0.1-1.2,0.1-1.8,0.2C260.8,418.4,259.2,418.7,257.6,417.9z"/>
	<path id="XMLID_1226_" class="st68" d="M335.5,257.6c3.8-2.4,7.6-4.8,11.4-7.2c0.6,1,1.2,1.9,1.8,2.9c-3.9,2.4-7.7,4.7-11.6,7.1
		C336.3,259.7,335.8,258.7,335.5,257.6z"/>
	<path id="XMLID_1225_" class="st65" d="M453.4,215.5c-5.2,3-10.5,5.9-15.7,8.9c-0.2-0.3-0.4-0.6-0.6-0.9
		c5.2-3.9,10.5-7.9,15.7-11.8C453.6,212.8,453.6,214.1,453.4,215.5z"/>
	<path id="XMLID_1224_" class="st70" d="M338.4,237.5c-3.7,3-8.1,4.9-12.1,7.3c-0.6-0.7-1.2-1.5-1.9-2.2c4-2.5,7.9-5.1,11.9-7.6
		C337,235.8,337.7,236.7,338.4,237.5z"/>
	<path id="XMLID_1223_" class="st62" d="M162.9,369c3.9-3.6,8.8-5.5,13.3-8.2c0.5,0.6,1,1.2,1.5,1.9c-4.3,2.8-8.6,5.5-12.9,8.3
		C164.1,370.3,163.5,369.6,162.9,369z"/>
	<path id="XMLID_1222_" class="st71" d="M240.2,417.3c5.9-3.9,12-7.3,18.2-10.6c0.8-0.4,0.9,0.1,0.8,0.8c-4.9,3.5-9.8,7-14.7,10.5
		C243,418.1,241.6,417.9,240.2,417.3z"/>
	<path id="XMLID_1221_" class="st71" d="M192.4,396.9c5.3-3.1,10.5-6.1,15.8-9.2c0.5,0.3,1.1,0.6,1.6,0.9c-5,3.3-10,6.6-15,9.9
		C194,398,193.2,397.4,192.4,396.9z"/>
	<path id="XMLID_1220_" class="st72" d="M325.1,353.7c-1,3-3,5.4-4.8,7.8c-1.5,1.9-2.8,3.1-4.5,0.2c-0.4-0.7-1.2-1.3-1.7-1.9
		C317.2,356.8,320.6,354.3,325.1,353.7z"/>
	<path id="XMLID_1219_" class="st73" d="M340.2,266.8c4-2.4,7.9-4.8,11.9-7.2c0.4,0.7,0.8,1.3,1.2,2c-3.4,3.7-8.2,5.1-12.2,7.8
		C340.9,268.5,340.6,267.7,340.2,266.8z"/>
	<path id="XMLID_1218_" class="st2" d="M325.1,353.7c-3.7,2.1-7.4,4.1-11.1,6.2c-0.5-0.3-1-0.7-1.5-1c4.5-3.4,9.3-6.3,14.2-8.9
		C326.2,351.2,325.7,352.5,325.1,353.7z"/>
	<path id="XMLID_1217_" class="st74" d="M285.5,412.9c4.8-2.8,9.6-5.6,15.3-8.8c-2,3.7-5.3,4.7-7.1,7.1c-2.3,1.1-4.7,2.1-7.3,2.5
		C285.6,413.9,285.4,413.6,285.5,412.9z"/>
	<path id="XMLID_1216_" class="st2" d="M346.6,288.2c2.4-1.3,4.7-2.6,7.1-3.9c-1.8,3.4-3.6,6.8-5.6,10.5
		C346.6,292.6,347.2,290.3,346.6,288.2z"/>
	<path id="XMLID_1215_" class="st75" d="M456.5,270.3c-4.4,2.5-8.9,5.1-13.3,7.6c-0.8,0.4-0.9,0-0.9-0.7c4.4-2.9,8.4-6.3,13.3-8.4
		C455.9,269.2,456.2,269.8,456.5,270.3z"/>
	<path id="XMLID_1214_" class="st76" d="M227.3,414.9c3.7-2.5,7.6-4.7,11.6-6.7c0.8-0.4,0.9,0,0.9,0.7c-3.2,2.2-6.5,4.5-9.7,6.7
		C229.1,415.4,228.2,415.1,227.3,414.9z"/>
	<path id="XMLID_1213_" class="st77" d="M383,412c-3.1,2.2-6.1,4.7-9.7,6.1c-0.5-0.3-1-0.6-1.5-0.9c3.2-2.4,6.7-4.2,10.3-6
		C383,410.8,383.1,411.3,383,412z"/>
	<path id="XMLID_1212_" class="st2" d="M346.9,354.5c-2.5,3.8-7,5.1-10.2,8c0-0.9,0-1.8,0-2.8C340.3,358.3,343.1,355.5,346.9,354.5z
		"/>
	<path id="XMLID_1211_" class="st2" d="M353.1,301.9c2.8-1.5,5.6-3,8.3-4.4c-2.5,3.9-6.4,5.8-10.1,7.9
		C351.9,304.2,352.5,303,353.1,301.9z"/>
	<path id="XMLID_1210_" class="st43" d="M400.2,255.9c1.5-1.2,3-2.3,4.5-3.5c1.7,0,3.4,0,5.2,0c-2.4,2.3-5.6,3.2-8.2,5.1
		C401.2,257,400.4,256.7,400.2,255.9z"/>
	<path id="XMLID_1209_" class="st78" d="M480.5,381.3c3.3-2,5.8-5.4,9.9-6.1c-0.3,0.8-0.5,1.6-0.8,2.5c-2.7,1.5-5.4,3-8.2,4.5
		C480.6,382.5,480.4,382,480.5,381.3z"/>
	<path id="XMLID_1208_" class="st2" d="M187.3,298c-2.8,1.8-5.5,3.7-8.3,5.5c-1-0.2-1.9-0.3-2.9-0.5c3.4-2,6.9-3.9,10.3-5.9
		C187.2,296.9,187.4,297.3,187.3,298z"/>
	<path id="XMLID_1207_" class="st79" d="M162.5,348.3c-3,1.9-6,3.8-9,5.7c-0.7-0.3-0.7-1-0.8-1.6c3-1.6,6-3.2,9-4.9
		C162.5,347.1,162.6,347.5,162.5,348.3z"/>
	<path id="XMLID_1206_" class="st80" d="M491.7,350.4c-2.8,1.5-5.6,3-8.3,4.6c-0.2-0.3-0.4-0.6-0.7-0.9c3-1.9,5.9-3.8,8.9-5.6
		C491.6,349.1,491.6,349.8,491.7,350.4z"/>
	<path id="XMLID_1205_" class="st2" d="M223.7,386.8c3.1-1.6,6.1-3.3,9.2-4.9c0.9-0.4,1,0.1,0.9,0.8c-2.5,1.7-5,3.4-7.4,5.1
		C225.4,387.5,224.6,387.1,223.7,386.8z"/>
	<path id="XMLID_1204_" class="st2" d="M276.1,389.6c3.3-2,6.5-3.9,9.9-6c0.5,2-1.3,2-1.5,3C282.1,388.7,279.3,389.5,276.1,389.6z"
		/>
	<path id="XMLID_1203_" class="st2" d="M326.4,370c-2,1-3.7,2.7-6.1,3c1.1-2.6,3.7-4.1,5.2-6.4C326.8,367.7,326.5,368.9,326.4,370z"
		/>
	<path id="XMLID_1202_" class="st2" d="M331.6,304c1.8-2.5,5.8-2.6,6.8-6.1c0.1,1.3,0.1,2.6,0.2,3.9c-0.5,1.5-2,1.6-3.2,2.2
		C334.1,304,332.9,304,331.6,304z"/>
	<path id="XMLID_1201_" class="st2" d="M204.9,376c2.9-2.1,5.9-3.9,9.2-5.4c0.8-0.4,1,0,0.9,0.7c-3,1.8-6,3.7-9,5.5
		C205.6,376.6,205.3,376.3,204.9,376z"/>
	<path id="XMLID_1200_" class="st81" d="M364.2,412.7c1.4-3.3,4.9-3.5,7.4-5.3c0.9-0.3,1,0.1,0.9,0.9c-2.4,1.8-4.8,3.5-7.5,4.8
		C364.7,412.9,364.4,412.8,364.2,412.7z"/>
	<path id="XMLID_1199_" class="st82" d="M445.2,207.3c-2.5,2.2-5.4,3.5-8.5,4.8c0.9-2.3,3.4-3,4.9-4.7
		C442.8,207.4,444,207.4,445.2,207.3z"/>
	<path id="XMLID_1198_" class="st2" d="M172.2,327.6c2.4-1.3,4.9-2.6,7.3-3.9c-1.5,3.1-5,3.6-7,6C172.5,329,172.3,328.3,172.2,327.6
		z"/>
	<path id="XMLID_1197_" class="st83" d="M434.1,189.3c-1.8,2.3-4.6,3.1-7.7,4.9c1.3-3.1,4.1-3.6,5.4-5.6
		C432.6,188.8,433.4,189.1,434.1,189.3z"/>
	<path id="XMLID_1196_" class="st43" d="M439.3,256c0-1,0-2,0-2.9c1.7-0.9,3.3-1.6,4.5,0.7C442.3,254.6,441.1,255.9,439.3,256z"/>
	<path id="XMLID_1195_" class="st84" d="M343.2,244.7c-1.9,1-3.9,2.1-5.8,3.1c-0.9,0.4-1-0.1-1-0.8c1.9-1.3,3.9-2.5,5.8-3.8
		C342.6,243.7,342.9,244.2,343.2,244.7z"/>
	<path id="XMLID_1194_" class="st2" d="M264.8,221.6c-1.9,1.2-3.7,2.3-5.6,3.5C259.2,221.1,259.2,221,264.8,221.6z"/>
	<path id="XMLID_1193_" class="st85" d="M484.3,343.1c1.8-1.5,3.7-2.8,5.8-3.7c0,0.7,0.1,1.4,0.1,2.1c-1.7,0.8-3.3,1.6-5,2.4
		C484.4,344.2,484.2,343.8,484.3,343.1z"/>
	<path id="XMLID_1192_" class="st86" d="M384.6,207.4c0,2.9-2.8,2.1-4.1,3.6c-0.5-1.8,0.7-2.5,1.1-3.6
		C382.5,207.4,383.6,207.4,384.6,207.4z"/>
	<path id="XMLID_1191_" class="st2" d="M340.9,334c1.7-0.4,3-2.1,5.6-2.1c-2.6,1.9-3.9,4.3-6.9,4.4
		C340.1,335.5,340.5,334.8,340.9,334z"/>
	<path id="XMLID_1190_" class="st2" d="M351.5,315.9c-2,1.3-4,2.7-6,4c-0.1-1,0.4-1.7,0.9-2.5c1.4-0.7,2.9-1.5,4.3-2.2
		C351.5,314.8,351.6,315.2,351.5,315.9z"/>
	<path id="XMLID_1189_" class="st87" d="M388.9,252.3c-1.1,1.6-1.9,3.5-4.4,4c-0.1-2,1.8-2.6,2.4-4
		C387.5,252.4,388.2,252.3,388.9,252.3z"/>
	<path id="XMLID_1188_" class="st88" d="M220.3,221.6c1.8-2.1,3.7-3.5,6.5-1.8C224.7,220.7,222.5,221.3,220.3,221.6z"/>
	<path id="XMLID_1187_" class="st89" d="M178.2,268.6c1.1,0.4,1.9-1.3,3.6-0.3c-1.9,1.2-3.4,2.3-5,3.4
		C177,270.5,177.3,269.4,178.2,268.6z"/>
	<path id="XMLID_1186_" class="st2" d="M323,309.4c1.2-0.8,2.4-1.6,3.7-2.4c0.2,0.5,0.5,1,0.7,1.4c-1.1,0.6-2.3,1.1-3.4,1.7
		C323.2,310.4,323,310.1,323,309.4z"/>
	<path id="XMLID_1185_" class="st90" d="M149.7,334.7c-1.2,0.8-2.3,1.5-3.5,2.3c-0.1-0.6-0.2-1.2-0.3-1.8c0.9-0.4,1.9-0.9,2.8-1.3
		C149.6,333.5,149.8,334,149.7,334.7z"/>
	<path id="XMLID_1184_" class="st91" d="M333.6,326.5c-0.9,0.2-1.8,0.4-3.1,0.7c1.1-1.9,2.5-2.6,4-3.1
		C334.1,324.9,334.7,326,333.6,326.5z"/>
	<path id="XMLID_1183_" class="st92" d="M417.4,428c-0.3-0.1-1-0.3-0.9-0.4c0.2-1.2,1.3-1.5,2.2-1.5c0.9-0.1,1,0.8,0.9,1.6
		C418.8,427.7,418.1,427.8,417.4,428z"/>
	<path id="XMLID_1182_" class="st93" d="M332,229.8c-0.9,0.5-1.9,1-2.8,1.5c-0.9,0.4-1-0.1-0.9-0.8c1-0.6,1.9-1.2,2.9-1.8
		C331.4,229.1,331.7,229.5,332,229.8z"/>
	<path id="XMLID_1181_" class="st94" d="M258.5,215.4c1.6-1.4,3.1-1.7,4.6,0.1C261.6,215.8,260.1,215.7,258.5,215.4z"/>
	<path id="XMLID_1180_" class="st95" d="M257.6,417.9c1.6,0.1,3.1,0.1,4.7,0.2c-2,0.9-4,0.7-6.1,0.4
		C256.7,418.3,257.2,418.1,257.6,417.9z"/>
	<path id="XMLID_1179_" class="st96" d="M335.4,304c0.8-1.2,2.1-1.5,3.2-2.2C339.4,305.3,336.9,303.9,335.4,304z"/>
	<path id="XMLID_1178_" class="st97" d="M328.2,381.1c-0.7,0.3-1.4,0.6-2.2,1c-0.8,0.3-0.9-0.1-0.8-0.8c0.9-0.6,1.8-1.2,2.7-1.8
		C328.1,380,328.1,380.5,328.2,381.1z"/>
	<path id="XMLID_1177_" class="st98" d="M285.5,412.9c0.3,0.3,0.6,0.5,0.9,0.8c-1.2,0.9-2.6,1-4,1.2
		C283.2,413.9,284.3,413.3,285.5,412.9z"/>
	<path id="XMLID_1176_" class="st2" d="M235.3,390.3c0.9-0.5,1.7-1,2.7-1.7c0,1.4-1.1,1.5-1.5,2.2C236,391,235.6,390.7,235.3,390.3z
		"/>
	<path id="XMLID_1175_" class="st2" d="M304.8,253.6c-0.7,0.3-1.3,0.6-2,0.9c-0.8,0.4-0.9,0-0.7-0.6c0.9-0.5,1.8-1.1,2.8-1.6
		C304.8,252.7,304.8,253.2,304.8,253.6z"/>
	<path id="XMLID_1174_" class="st99" d="M432.5,426.4c-0.4-1.5,0.9-1.1,1.6-1.6c0.5,0.3,1.3,0.1,1.5,0.8
		C434.7,426.3,433.6,426.4,432.5,426.4z"/>
	<path id="XMLID_1173_" class="st100" d="M321.5,235.8c-0.8,0.5-1.6,1.1-2.5,1.6c-0.2-0.1-0.5-0.3-0.7-0.4
		C319.1,236.1,319.8,234.7,321.5,235.8z"/>
	<path id="XMLID_1172_" class="st101" d="M333.6,250.1c-0.6,0.5-1.3,1-1.9,1.5c-0.4-0.5-0.7-0.9-1.1-1.4c0.7-0.3,1.4-0.6,2.1-1
		C333.1,249.5,333.5,249.6,333.6,250.1z"/>
	<path id="XMLID_1171_" class="st2" d="M336.9,364.3c0.8-0.1,1.5-0.2,2.3-0.3c-0.6,0.5-1.3,1-1.9,1.6
		C336.9,365.2,336.5,364.8,336.9,364.3z"/>
	<path id="XMLID_1170_" class="st102" d="M259.9,398.7c-1.1,0.9-2.2,0.5-3.4,0.3C257.6,398.2,258.8,398.4,259.9,398.7z"/>
	<path id="XMLID_1169_" class="st103" d="M384.5,240.2c0.5-0.2,0.9-0.5,1.4-0.7c0.8-0.3,1,0.1,0.8,0.8c-0.5,0.8-1.3,1-2.1,0.8
		C384.6,240.8,384.5,240.5,384.5,240.2z"/>
	<path id="XMLID_1168_" class="st75" d="M435.6,425.6c-0.5-0.3-1.3,0-1.5-0.8c0.8,0,1.5-1.8,2.3,0
		C436.1,425.1,435.9,425.3,435.6,425.6z"/>
	<path id="XMLID_1167_" class="st15" d="M379.9,541.7c-3.6,2.5-7.2,4.9-10.7,7.5c-1.8,1.4-3.7,1.8-6.8,1c6-3.3,11.3-6.3,16.7-9.3
		C380,540.6,380.1,541,379.9,541.7z"/>
	<path id="XMLID_1166_" class="st104" d="M360.3,481.3c3.8-2.1,6.9-3.9,10-5.6C368,478.9,366.1,482.8,360.3,481.3z"/>
	<path id="XMLID_1165_" class="st105" d="M239.9,487.8c-1.8,1.4-3.7,2.9-6.3,5c1-3.7,3.5-4,5.3-5
		C239.3,487.4,239.6,487.4,239.9,487.8z"/>
	<path id="XMLID_1164_" class="st106" d="M287,502c-0.3-0.3-0.5-0.5-0.8-0.8c2-1.4,3.9-2.8,6.3-3.4C290.8,499.5,289.2,501.1,287,502
		z"/>
	<path id="XMLID_1163_" class="st107" d="M239,499.7c-0.3-0.3-0.5-0.5-0.8-0.8c2-1.3,4-2.5,6-3.8c0.2,0.3,0.3,0.5,0.5,0.8
		C242.8,497.2,240.9,498.5,239,499.7z"/>
	<path id="XMLID_1162_" class="st108" d="M335.8,463.8c0.2,0.2,0.5,0.5,0.7,0.7c-2,1.3-4,2.5-6,3.8c-0.2-0.3-0.3-0.5-0.5-0.8
		C332,466.3,333.9,465.1,335.8,463.8z"/>
	<path id="XMLID_1161_" class="st109" d="M293.7,510.2c-0.3-0.2-0.5-0.5-0.8-0.7c2-1.3,4-2.5,6-3.8c0.2,0.3,0.3,0.5,0.5,0.8
		C297.5,507.7,295.6,508.9,293.7,510.2z"/>
	<path id="XMLID_1160_" class="st110" d="M311,458.5c0.3,0.3,0.5,0.5,0.8,0.8c-2.2,1.5-4.2,3.1-6.8,3.8c-0.2-0.2-0.3-0.4-0.2-0.6
		c0.1-0.2,0.2-0.3,0.2-0.3C307,461,309,459.8,311,458.5z"/>
	<path id="XMLID_1159_" class="st111" d="M379.9,541.7c-0.3-0.2-0.5-0.5-0.8-0.7c1.5-1.1,2.8-2.4,5-2.3
		C382.8,539.7,381.4,540.7,379.9,541.7z"/>
	<path id="XMLID_1158_" class="st112" d="M464.2,455.5c2.2-1.5,3.3-2.9,5.8-3C468.2,454,467,455,464.2,455.5z"/>
	<path id="XMLID_1157_" class="st113" d="M362.8,471.3c0.3,0.3,0.5,0.5,0.8,0.8c-1.3,0.7-2.5,1.5-3.8,2.2c-0.8,0.3-0.9-0.1-0.7-0.7
		C360.3,472.8,361.5,472,362.8,471.3z"/>
	<path id="XMLID_1156_" class="st114" d="M476,463.1c0.2,0.2,0.5,0.5,0.7,0.7c-1.3,0.7-2.5,1.5-3.8,2.2c-0.3,0.3-0.6,0.3-0.9-0.1
		C473.1,464.6,474.7,463.9,476,463.1z"/>
	<path id="XMLID_1155_" class="st115" d="M393.4,520.7c-0.2-0.2-0.5-0.5-0.7-0.7c1.2-0.8,2.5-1.5,3.7-2.3c0.3-0.3,0.6-0.3,0.9,0.1
		C396.4,519.2,394.8,519.8,393.4,520.7z"/>
	<path id="XMLID_1154_" class="st116" d="M337.3,475.1c0.2,0.2,0.5,0.5,0.7,0.7c-1.1,1.1-2.4,1.7-4.4,2.3
		C334.8,476.4,336.1,475.8,337.3,475.1z"/>
	<path id="XMLID_1153_" class="st117" d="M331.3,456.3c0,0.3,0,0.5,0,0.8c-0.7,1.3-2,1.5-3.5,1.4
		C328.9,457.8,330.1,457.1,331.3,456.3z"/>
	<path id="XMLID_1152_" class="st118" d="M305,462.3c0,0.3,0,0.5,0,0.8c-0.7,1.2-1.9,1.7-3.4,1.4C302.7,463.8,303.9,463.1,305,462.3
		z"/>
	<path id="XMLID_1151_" class="st119" d="M356.8,475.9c-0.8,1.2-1.9,1.7-3.5,1.4c1.1-0.8,2.3-1.5,3.4-2.3
		C357.2,475.3,357.2,475.6,356.8,475.9z"/>
	<path id="XMLID_1150_" class="st120" d="M258.4,507.1c0.7-1.2,2-1.6,3.5-1.4c-1.2,0.8-2.3,1.5-3.5,2.3
		C258.1,507.7,258,507.4,258.4,507.1z"/>
	<path id="XMLID_1149_" class="st121" d="M346.2,538.7c0-0.3,0-0.5,0-0.8c0.9-1.4,2.2-1.9,3.7-2.2l0.1,0.1
		C349.2,537.2,347.6,537.8,346.2,538.7z"/>
	<path id="XMLID_1148_" class="st117" d="M293.8,459.3c-0.9,0.8-1.8,1.6-3.6,1.2c1.1-0.8,2-1.3,2.8-1.9
		C293.4,458.7,293.6,458.9,293.8,459.3z"/>
	<path id="XMLID_1147_" class="st122" d="M303.5,515.5c-0.3-0.3-0.5-0.5-0.8-0.8c0.9-0.6,1.7-1.2,3-2.1
		C305.4,514.4,304.5,515,303.5,515.5z"/>
	<path id="XMLID_1146_" class="st123" d="M350,535.7c0.7-1.3,1.8-1.7,3.8-2.2C352.5,535.1,351.4,535.6,350,535.7
		C350.1,535.8,350,535.7,350,535.7z"/>
	<path id="XMLID_1145_" class="st124" d="M293.8,459.3c-0.3-0.2-0.5-0.5-0.8-0.7c0.8-0.5,1.5-1,2.3-1.5c0.3,0.2,0.5,0.5,0.8,0.7
		C295.3,458.3,294.5,458.8,293.8,459.3z"/>
	<path id="XMLID_1144_" class="st125" d="M344.8,505.1c0.2,0.2,0.5,0.5,0.7,0.7c-0.7,0.7-1.4,1.3-2.5,1.2
		C343.1,505.8,344,505.5,344.8,505.1z"/>
	<path id="XMLID_1143_" class="st126" d="M258.4,507.1c0,0.3,0,0.6,0,0.9c-0.8,0.5-1.5,1-2.3,1.5c-0.2-0.2-0.5-0.5-0.7-0.7
		C256.2,507.8,257.3,507.4,258.4,507.1z"/>
	<path id="XMLID_1142_" class="st116" d="M356.8,508c0.3,0.2,0.5,0.5,0.8,0.7c-0.8,0.9-1.9,1.4-3,1.6c-0.2-0.2-0.3-0.4-0.2-0.6
		c0.1-0.2,0.2-0.3,0.2-0.3C355.3,509,356,508.5,356.8,508z"/>
	<path id="XMLID_1141_" class="st127" d="M472.1,465.9c0.3,0,0.6,0,0.9,0.1c-0.9,0.8-1.8,1.6-3.3,1.3
		C470.3,466.3,471.2,466.1,472.1,465.9z"/>
	<path id="XMLID_1140_" class="st127" d="M356.8,475.9c0-0.3,0-0.6,0-0.9c0.8-0.5,1.5-1,2.3-1.5c0.2,0.2,0.5,0.5,0.7,0.7
		C359,475.2,357.9,475.6,356.8,475.9z"/>
	<path id="XMLID_1139_" class="st128" d="M308.9,524.5c-0.3,0-0.7-0.1-1-0.1c0.8-0.6,1.7-1.2,2.8-2
		C310.7,524.1,309.9,524.4,308.9,524.5z"/>
	<path id="XMLID_1138_" class="st129" d="M315.4,531.9c-0.2-0.2-0.5-0.5-0.7-0.7c0.7-0.7,1.4-1.3,2.5-1.2
		C317.2,531.2,316.3,531.5,315.4,531.9z"/>
	<path id="XMLID_1137_" class="st130" d="M299,493.3c-0.8,1.9-1.6,2.1-2.8,2.3C296.5,494.3,297.5,494.3,299,493.3z"/>
	<path id="XMLID_1110_" class="st126" d="M327.3,505c0.3,0,0.7,0.1,1,0.1c-0.7,0.5-1.5,1-2.3,1.5C325.7,505.1,326.6,505.1,327.3,505
		z"/>
	<path id="XMLID_1109_" class="st118" d="M466.7,469.8c0.2-1.5,1.1-1.4,2-1.5C468.3,469.5,467.5,469.3,466.7,469.8z"/>
	<path id="XMLID_1108_" class="st131" d="M354.5,509.5c0,0.3,0,0.6,0,0.8c-0.4,0.6-1.3,1.5-1.5,1C352.5,510.4,353.8,510,354.5,509.5
		z"/>
	<path id="XMLID_1107_" class="st132" d="M241.2,486.2c0.3-0.2,0.5-0.6,0.8-0.7c0.6-0.2,1.4-1.2,1.7-0.3c0.2,0.6-0.9,0.9-1.6,1
		C241.8,486.6,241.5,486.6,241.2,486.2z"/>
	<path id="XMLID_1106_" class="st114" d="M241.2,486.2c0.3,0,0.6,0,0.9,0c-0.5,0.9-1.2,1.4-2.2,1.5c-0.3,0-0.6-0.1-1-0.1
		C239.7,487.2,240.5,486.7,241.2,486.2z"/>
	<path id="XMLID_1105_" class="st133" d="M397.4,517.8c-0.3,0-0.6,0-0.9-0.1c0.6-0.7,1.4-1.2,2.7-1.3
		C398.8,517.4,398.2,517.7,397.4,517.8z"/>
	<path id="XMLID_1104_" class="st134" d="M342.5,526c0-0.3,0-0.5,0.1-0.8c0.3-0.6,1.3-1.5,1.5-1.1
		C344.5,525.1,343.2,525.5,342.5,526z"/>
	<path id="XMLID_1103_" class="st135" d="M434.3,501.5c-0.6,0.7-1.1,1.1-1.9,0.9c0,0-0.1-0.5,0-0.6
		C432.8,501.4,433.3,501.2,434.3,501.5z"/>
	<path id="XMLID_1102_" class="st136" d="M437.6,499c0.3,0,0.6,0,0.9,0.1c-0.6,0.8-1.4,1.2-2.4,1.3C436,499.1,436.9,499.1,437.6,499
		z"/>
	<path id="XMLID_1101_" class="st25" d="M220.1,487.5c1,0.5,2.1,1.1,3.1,1.6c-5.2,3-10.5,6-15.7,9c-0.2-0.2-0.3-0.3-0.3-0.5
		c0-0.2,0.1-0.3,0.1-0.3C211.5,494,215.8,490.8,220.1,487.5z"/>
	<path id="XMLID_1100_" class="st137" d="M219.6,468.2c0.6,0.8-0.3,1.5-0.1,2.3c-2.5,1.5-5,2.9-7.6,4.4c-0.4-0.1-0.8-0.2-0.8-0.7
		C213.7,471.9,216.7,470,219.6,468.2z"/>
	<path id="XMLID_1099_" class="st138" d="M219.5,502.1c0,0.8,0,1.7,0.1,2.5c-1.5,0.9-3,1.8-4.5,2.6c-0.8,0.3-1-0.1-0.8-0.8
		C215.9,504.9,217.4,503.2,219.5,502.1z"/>
	<path id="XMLID_1098_" class="st139" d="M142.3,513.3c-0.3-0.3-0.6-0.6-0.9-0.9c1.4-1.2,3-2.2,5.7-3
		C145.4,511.7,143.8,512.5,142.3,513.3z"/>
	<path id="XMLID_1097_" class="st140" d="M207.3,497.2c0.1,0.3,0.1,0.6,0.2,0.9c-0.4,0.8-1.1,1.2-2.2,1.2
		C205.3,497.9,206.3,497.6,207.3,497.2z"/>
	<path id="XMLID_1096_" class="st141" d="M199.3,460.9c0.3,0.2,0.6,0.5,0.8,0.7c-0.8,0.5-1.5,1-2.3,1.5c-0.8,0.3-0.9-0.1-0.8-0.7
		C197.8,461.8,198.5,461.3,199.3,460.9z"/>
	<path id="XMLID_1095_" class="st142" d="M212.1,463.8c0.6-1.2,1.2-2.2,2-1.8c1.1,0.7-0.1,1-0.6,1.3
		C213.2,463.5,212.9,463.5,212.1,463.8z"/>
	<path id="XMLID_1094_" class="st143" d="M197,462.3c0.3,0.2,0.5,0.5,0.8,0.7c-0.7,0.7-1.5,1.2-2.5,1.4
		C194.9,462.9,196.2,462.8,197,462.3z"/>
	<path id="XMLID_1093_" class="st144" d="M214.2,506.4c0.3,0.3,0.5,0.6,0.8,0.8c-0.7,0.7-1.5,1.2-2.5,1.4
		C212.3,507.2,213.4,507,214.2,506.4z"/>
	<path id="XMLID_1092_" class="st61" d="M209.8,476c-0.8,0.8-1.5,1.6-3.2,1c1.2-0.7,2.1-1.3,3.1-1.8c0.2,0.2,0.3,0.4,0.2,0.6
		C210,475.9,209.9,476,209.8,476z"/>
	<path id="XMLID_1091_" class="st42" d="M209.8,476c0-0.3,0-0.6-0.1-0.9c0.4-0.3,0.9-0.6,1.3-0.9c0.3,0.2,0.6,0.4,0.8,0.7
		C211.2,475.2,210.5,475.6,209.8,476z"/>
	<path id="XMLID_1090_" class="st145" d="M178.3,511c-0.3-0.3-0.5-0.5-0.8-0.8c0.7-0.6,1.6-1.7,2.2-0.8
		C180.3,510.2,179,510.7,178.3,511z"/>
	<path id="XMLID_1089_" class="st146" d="M256.7,259.1c2.4,3.5,2.6,7.6,2.6,11.7c0,3.8,0,7.6,0.1,11.4c-0.4,6.3-1,12.6-0.9,18.9
		c0,2.2,0.5,3.7,3,3.6c4,2,8.4,2.9,12.6,4.5c1.7,0.7,4,1,3.8,3.4c-0.2,2.4-2.3,3.6-4.4,4c-10.5,2.2-22.3-6.4-24-17.1
		c-0.9-5.5-0.9-11-0.5-16.4c0.5-5.9,0.6-11.7,0.5-17.6C249.5,260.9,251.9,258.7,256.7,259.1z"/>
	<path id="XMLID_1088_" class="st2" d="M215,371.4c-0.3-0.2-0.6-0.5-0.9-0.7c1.9-1.6,3.9-2.8,6.2-3.7c0.4,0.3,0.4,0.6,0.1,0.9
		C218.7,369.4,217.1,370.7,215,371.4z"/>
	<path id="XMLID_1087_" class="st2" d="M187.3,298c-0.3-0.3-0.6-0.6-0.9-0.9c1.4-1.1,2.8-2.2,5.3-2.8
		C190.4,296.6,188.8,297.2,187.3,298z"/>
	<path id="XMLID_1086_" class="st2" d="M276.5,247c0.3,0.3,0.6,0.5,0.9,0.8c-1.4,1.1-2.7,2.3-4.6,2.1
		C272.7,247.3,275.3,248.1,276.5,247z"/>
	<path id="XMLID_1085_" class="st147" d="M205.2,333.3c-0.3-0.3-0.6-0.6-0.9-0.8c1.1-1,2.4-1.7,3.8-2.2c0.8-0.3,1,0.1,0.8,0.8
		C207.4,331.2,207.3,333.8,205.2,333.3z"/>
	<path id="XMLID_1084_" class="st2" d="M274.3,295.1c0.3,0.2,0.6,0.5,0.8,0.7c-1.5,1-2.7,2.8-4.9,2.2
		C271.3,296.7,272.8,295.9,274.3,295.1z"/>
	<path id="XMLID_1083_" class="st2" d="M220.3,367.9c0-0.3,0-0.6-0.1-0.9c1.3-0.7,2.5-1.4,3.8-2.1c0.3,0.2,0.8,0.2,0.8,0.7
		C223.5,366.7,222.2,367.8,220.3,367.9z"/>
	<path id="XMLID_1082_" class="st2" d="M220.2,344.5c-0.3-0.3-0.6-0.6-0.9-0.9c1.1-1.1,2.4-1.8,3.9-2.2c0.3,0.3,0.4,0.6,0.1,1
		C222.5,343.4,221.4,344,220.2,344.5z"/>
	<path id="XMLID_1081_" class="st2" d="M298.8,301.4c0.8-1.4,2-2.2,4.2-3C301.7,300.6,300.2,300.9,298.8,301.4z"/>
	<path id="XMLID_1080_" class="st2" d="M241.2,366.9c-0.3-0.2-0.6-0.5-0.8-0.7c1.4-0.9,2.8-1.8,4.9-3.2
		C244.4,365.7,242.6,366.1,241.2,366.9z"/>
	<path id="XMLID_1079_" class="st2" d="M199.9,277.6c-0.3-0.3-0.6-0.5-0.9-0.8c0.9-0.9,1.9-1.7,3.9-1.7
		C202,276.6,201,277.2,199.9,277.6z"/>
	<path id="XMLID_1078_" class="st2" d="M224.9,365.6c-0.3-0.2-0.6-0.4-0.8-0.7c1-0.6,1.9-1.1,2.9-1.7c0.8-0.4,0.9,0,0.8,0.7
		C226.8,364.4,225.8,365,224.9,365.6z"/>
	<path id="XMLID_1077_" class="st2" d="M248.8,252.1c-0.2,1.7-1.2,2.3-3.3,2.3C246.9,253.4,247.9,252.8,248.8,252.1z"/>
	<path id="XMLID_1076_" class="st2" d="M223.3,342.4c0-0.3-0.1-0.7-0.1-1c0.7-0.5,1.5-1,2.2-1.5c0.8-0.4,0.9,0.1,0.8,0.7
		C225.2,341.3,224.3,341.8,223.3,342.4z"/>
	<path id="XMLID_1075_" class="st2" d="M323,309.4c0.3,0.2,0.6,0.5,0.9,0.7c-0.8,0.5-1.6,1-2.4,1.5c-0.8,0.4-0.9-0.1-0.8-0.7
		C321.5,310.3,322.3,309.9,323,309.4z"/>
	<path id="XMLID_1074_" class="st148" d="M320.8,310.8c0.3,0.2,0.5,0.5,0.8,0.7c-0.7,0.7-1.5,1.2-2.6,1.4
		C318.6,311.4,320,311.3,320.8,310.8z"/>
	<path id="XMLID_1073_" class="st2" d="M231.5,315.9c-0.3-0.2-0.6-0.5-0.9-0.7c0.8-0.5,1.6-1,2.3-1.5c0.8-0.4,0.9,0.1,0.8,0.7
		C233,314.9,232.2,315.4,231.5,315.9z"/>
	<path id="XMLID_1072_" class="st149" d="M315.1,326.6c-0.2,0.7-0.8,0.9-1.4,1c-0.1,0-0.5-0.7-0.5-0.7c0.3-0.3,0.7-0.7,1.2-0.9
		C314.8,325.8,315.1,326.1,315.1,326.6z"/>
	<path id="XMLID_1071_" class="st149" d="M182.8,321.7c0.5-0.2,0.7,0.2,0.7,0.5c-0.1,0.7-0.7,0.9-1.3,1.1c-0.4,0.1-0.7-0.1-0.7-0.5
		C181.6,322,182.3,321.9,182.8,321.7z"/>
	<path id="XMLID_1070_" class="st150" d="M209,331c-0.3-0.3-0.6-0.5-0.8-0.8c0.8-0.5,1.6-0.9,2.4-1.4C210.5,329.9,210.5,331,209,331
		z"/>
	<path id="XMLID_1069_" class="st151" d="M271,250.9c-0.1,1.6-0.8,2.2-2.3,1.4C269.2,251.3,270,250.9,271,250.9z"/>
	<path id="XMLID_1068_" class="st152" d="M204.9,275.5c-0.5-1.3-0.8-1.7-0.7-1.8c0.3-0.3,0.7-0.6,1.1-0.8c0.5-0.2,0.7,0.2,0.6,0.5
		C205.7,274,205.4,274.5,204.9,275.5z"/>
	<path id="XMLID_1067_" class="st2" d="M196.2,303.8c-0.3-0.2-0.6-0.5-0.9-0.7c0.8-0.5,1.6-1,2.3-1.5c0.8-0.4,0.9,0.1,0.8,0.7
		C197.7,302.9,197,303.4,196.2,303.8z"/>
	<path id="XMLID_1066_" class="st2" d="M284,372.2c-0.3-0.3-0.5-0.5-0.8-0.8c0.8-0.5,1.5-1,2.3-1.4l0-0.1
		C286,371.4,285,371.8,284,372.2z"/>
	<path id="XMLID_1065_" class="st153" d="M285.5,370c0.6-0.5,1.1-1.4,2.1-0.9c0.1,0,0.1,0.5,0,0.6C287,370.7,286.3,370.6,285.5,370
		C285.5,369.9,285.5,370,285.5,370z"/>
	<path id="XMLID_1064_" class="st154" d="M226.2,340.7c-0.3-0.2-0.5-0.5-0.8-0.7c0.7-0.5,1.6-1.7,2.2-0.8
		C228.2,340,226.9,340.3,226.2,340.7z"/>
	<path id="XMLID_1063_" class="st155" d="M227.7,363.9c-0.3-0.2-0.5-0.5-0.8-0.7c0.7-0.6,1.6-1.7,2.2-0.8
		C229.8,363.2,228.4,363.6,227.7,363.9z"/>
	<path id="XMLID_1062_" class="st2" d="M233.7,382.7c-0.3-0.3-0.6-0.5-0.9-0.8c0.7-0.6,1.6-1.8,2.3-0.9
		C235.8,381.9,234.5,382.3,233.7,382.7z"/>
	<path id="XMLID_1061_" class="st2" d="M235.9,381.1c0.3-1.6,1.2-1.7,2-1.9C238.1,380.5,237,380.5,235.9,381.1z"/>
	<path id="XMLID_1060_" class="st148" d="M233.7,314.4c-0.3-0.2-0.5-0.5-0.8-0.7c0.7-0.5,1.6-1.7,2.3-0.8
		C235.8,313.7,234.4,314.1,233.7,314.4z"/>
	<path id="XMLID_1059_" class="st2" d="M198.5,302.4c-0.3-0.2-0.6-0.5-0.8-0.7c0.7-0.6,1.6-1.7,2.3-0.8
		C200.5,301.7,199.2,302.1,198.5,302.4z"/>
	<path id="XMLID_1058_" class="st2" d="M195.6,292c-0.7,1.2-1.3,1.6-2,1.8C193.2,292.2,194.4,292.5,195.6,292z"/>
	<path id="XMLID_1057_" class="st0" d="M425.9,299.4c0.6,0.4,1.2,0.9,2,0.7c2.2,2.5,5.1,4.5,6.8,7.5c0.3,0.5,0.6,1,1,1.6
		c1.4,3,2.3,6,2.3,9.3c0,3.2-1.9,4.1-4.5,4.3c-2.5,0.2-4.4-0.4-4.7-3.4c-0.2-1.7-0.3-3.5-1.4-4.9c-0.5-0.5-0.5-1-0.2-1.5
		c-3.2-5.5-7.4-9.2-14.3-9.1c-3.2,0.1-5.8,1.2-8,3.3c-6.2,6-6.5,17.6-0.4,23.7c1.8,1.8,3.9,3,6.6,3c8.6,0,15.6,3.4,21.3,9.7
		c0.5-0.1,0.6,0.4,0.9,0.7c3,5.1,5.2,10.5,4.6,16.6c-1.8,9.4-7.8,15-16.5,18c-1.9,0.7-2.5,1.7-2.3,3.6c0.2,2.8-0.1,5.4-1.8,7.8
		c-1,1.4-2.3,2.3-4.1,2.1c-1.9-0.2-2.8-1.5-3.2-3.1c-0.3-1.2-0.6-2.4-0.6-3.6c-0.2-5.9-1.5-7.2-8.1-7.6c-1.2-2.2-3.5-3.3-5.1-5.1
		c-2.9-3.1-4.4-6.7-5.3-10.7c-0.6-5.7,0-7,3.8-7.8c2.7-0.5,4.6,0.1,5,3.3c0.8,6.8,4,12,10.5,14.7c7.6,3.2,15.7-1.2,17.6-9.8
		c1-4.5,1.1-9.2-1.6-13.4c-1.9-3-4.1-5.6-8.1-5.7c-11.8-0.5-20.7-5.5-25.9-16.4c-5-14.8,3.8-25.1,15-28.8c1.9-0.6,2.5-1.6,2.4-3.5
		c-0.1-2.1-0.1-4.2,0.4-6.3c0.5-2,1.5-3.3,3.3-4.1c4-0.8,5.4,1.6,6,4.9c0,0.2,0.1,0.5,0.1,0.7C417.6,296,420.7,298.4,425.9,299.4z"
		/>
	<path id="XMLID_1056_" class="st156" d="M484.3,343.1c0.3,0.3,0.7,0.5,1,0.8c-1.6,1-3.2,2-4.8,3.1c-0.2-0.3-0.4-0.5-0.6-0.8
		C481,344.7,482.7,343.9,484.3,343.1z"/>
	<path id="XMLID_1055_" class="st157" d="M392,384.3c-0.3-0.3-0.6-0.6-0.9-0.9c1.7-0.9,2.8-3.2,5.3-2
		C394.9,382.4,393.5,383.3,392,384.3z"/>
	<path id="XMLID_1054_" class="st158" d="M372.5,408.3c-0.3-0.3-0.6-0.6-0.9-0.9c1.5-0.9,3.1-1.9,4.6-2.8c0.2,0.3,0.4,0.7,0.6,1
		C375.4,406.5,373.9,407.4,372.5,408.3z"/>
	<path id="XMLID_1053_" class="st159" d="M383,412c-0.3-0.3-0.6-0.6-0.9-0.9c1.3-0.7,2.5-1.5,3.8-2.2c0.8-0.4,0.9,0.1,0.8,0.7
		C385.5,410.4,384.2,411.2,383,412z"/>
	<path id="XMLID_1052_" class="st87" d="M480.5,381.3c0.3,0.3,0.6,0.5,0.9,0.8c-1,0.9-2,1.7-3.8,1.8
		C478.2,382.4,479.4,381.9,480.5,381.3z"/>
	<path id="XMLID_1051_" class="st160" d="M430.2,394.7c-0.3-0.3-0.6-0.6-0.9-0.8c0.9-1,2-1.6,4-1.8
		C432.3,393.7,431.3,394.2,430.2,394.7z"/>
	<path id="XMLID_1050_" class="st161" d="M425.7,411.9c-0.3-0.3-0.6-0.5-0.8-0.8c0.9-0.9,1.9-1.6,3.9-1.7
		C427.7,410.9,426.8,411.5,425.7,411.9z"/>
	<path id="XMLID_1049_" class="st162" d="M480.1,357.1c-0.2-0.4-0.5-0.9-0.4-1c0.4-0.4,0.9-0.6,1.4-0.9c0,0,0.5,0.7,0.5,0.7
		C481.2,356.3,480.7,356.6,480.1,357.1z"/>
	<path id="XMLID_1048_" class="st163" d="M446,356.5c0.3-1.2,1.2-1.8,2.3-2.2c0.3,0.2,0.7,0.3,0.8,0.7
		C448.2,355.9,447.3,356.6,446,356.5z"/>
	<path id="XMLID_1047_" class="st164" d="M449.1,355.1c-0.3-0.2-0.5-0.5-0.8-0.7c0.8-0.5,1.5-0.9,2.3-1.4c0.3,0.2,0.5,0.5,0.8,0.7
		C450.6,354.1,449.8,354.6,449.1,355.1z"/>
	<path id="XMLID_1046_" class="st165" d="M397.3,380.5c0.1-1.4,1.2-1.7,2.2-2.2C399.8,380.1,398.5,380.3,397.3,380.5z"/>
	<path id="XMLID_1045_" class="st166" d="M476,349c0.6-1.3,1.3-2.2,2.1-1.7c1.1,0.8-0.2,1-0.7,1.4C477.2,348.8,476.8,348.8,476,349z
		"/>
	<path id="XMLID_1044_" class="st167" d="M378.3,403.8c-0.1-0.8,0.5-0.9,0.9-1c0.5-0.2,1-0.1,0.9,0.5c-0.1,0.4-0.6,0.7-1,0.9
		C378.8,404.3,378.5,403.9,378.3,403.8z"/>
	<path id="XMLID_1043_" class="st168" d="M386.7,409.7c-0.3-0.2-0.6-0.5-0.8-0.7c0.7-0.5,1.6-1.7,2.3-0.8
		C388.8,408.9,387.4,409.3,386.7,409.7z"/>
	<path id="XMLID_1042_" class="st169" d="M350.7,342.1c-0.3-0.9-0.6-1.8-0.9-2.6c6.3-3.6,12.5-7.2,18.8-10.8c0.8-0.4,1,0.1,0.9,0.8
		C363.2,333.7,357,337.9,350.7,342.1z"/>
	<path id="XMLID_1041_" class="st170" d="M400.2,255.9c1,0,1.5,0.6,1.5,1.6c-1.6,0.9-3.3,1.9-5.7,3.2
		C397.1,258,399.1,257.3,400.2,255.9z"/>
	<path id="XMLID_1040_" class="st43" d="M376.8,336.9c-0.4,0.1-0.8,0.2-1.3,0.3c0-2.9,0.8-4.4,3.7-2.2
		C379.3,336.7,377.9,336.6,376.8,336.9z"/>
	<path id="XMLID_1039_" class="st159" d="M376.8,336.9c0.8-0.6,1.7-1.3,2.5-1.9c0.7-0.9,1.5-1.1,2.6-0.9c-0.6,2.2-2.6,2.6-4.2,3.6
		C377.4,337.5,377.1,337.2,376.8,336.9z"/>
	<path id="XMLID_1038_" class="st171" d="M369.5,329.4c-0.3-0.3-0.6-0.5-0.9-0.8c1.4-0.9,2.8-1.8,4.2-2.7
		C372.5,328,370.9,328.7,369.5,329.4z"/>
	<path id="XMLID_1037_" class="st87" d="M418.2,267.1c0.3,0.3,0.6,0.6,0.9,0.9c-0.8,0.5-1.5,1-2.6,1.7
		C416.1,267.8,417.5,267.7,418.2,267.1z"/>
	<path id="XMLID_1036_" class="st2" d="M351.5,315.9c-0.3-0.2-0.5-0.5-0.8-0.7c0.9-0.8,1.9-1.6,3.2-1.5
		C353.5,314.9,352.6,315.5,351.5,315.9z"/>
	<path id="XMLID_1035_" class="st172" d="M421,255.1c0-1.5,1-1.7,2.1-2.2C423.3,254.7,421.9,254.6,421,255.1z"/>
	<path id="XMLID_1034_" class="st173" d="M372.5,303.9c-0.3-0.2-0.6-0.5-0.9-0.7c0.8-0.5,1.6-1,2.3-1.5c0.8-0.3,0.9,0.1,0.8,0.7
		C374,302.9,373.2,303.4,372.5,303.9z"/>
	<path id="XMLID_1033_" class="st174" d="M374.7,302.5c-0.3-0.2-0.5-0.5-0.8-0.7c0.7-0.5,1.6-1.7,2.2-0.8
		C376.7,301.7,375.4,302.1,374.7,302.5z"/>
	<path id="XMLID_1032_" class="st175" d="M365.4,294.8c0.8-0.3,1.1-0.1,1,0.3c-0.1,0.4-0.5,0.8-0.8,1c-0.5,0.3-1-0.1-0.9-0.6
		C364.8,295.2,365.4,294.9,365.4,294.8z"/>
	<path id="XMLID_1031_" class="st176" d="M407.3,238.3c-4.3,2.6-7.1,7.9-13.7,6.5c4.3-2.5,8.7-5,13-7.5
		C406.9,237.7,407.1,238,407.3,238.3z"/>
	<path id="XMLID_1030_" class="st177" d="M380.8,218.8c-1.5,1.6-2.2,2.5-3.9,2.5C377.4,219.6,378.5,219.2,380.8,218.8z"/>
	<path id="XMLID_1029_" class="st178" d="M428.8,245.4c1-1,1.7-2,3.5-1.4C431.6,245.7,430.5,245.8,428.8,245.4z"/>
	<path id="XMLID_1028_" class="st179" d="M401,217.7c-0.3-0.3-0.5-0.5-0.8-0.8c0.6-0.6,1.5-1.6,2-0.9C403,217,401.7,217.3,401,217.7
		z"/>
	<path id="XMLID_1027_" class="st177" d="M386.8,240.3c-0.3-0.3-0.6-0.6-0.8-0.8c0.7-0.5,1.6-1.6,2.2-0.8
		C388.7,239.4,387.5,239.9,386.8,240.3z"/>
	<path id="XMLID_1026_" class="st159" d="M365,367c-0.3-0.3-0.6-0.5-0.9-0.8c1.1-0.6,2.1-1.3,3.2-1.9c0.4,0.1,0.7,0.3,0.8,0.6
		C367.3,365.9,366.2,366.5,365,367z"/>
	<path id="XMLID_1025_" class="st180" d="M389,364.7c-0.3-0.3-0.6-0.6-0.9-0.8c0.6-0.8,1.4-1.3,2.4-1.3
		C390.8,363.8,390.1,364.4,389,364.7z"/>
	<path id="XMLID_1024_" class="st181" d="M368.2,364.8c-0.3-0.2-0.6-0.4-0.8-0.6c0.7-0.2,1.2-1.6,2-0.5
		C369.6,364.2,368.8,364.7,368.2,364.8z"/>
	<path id="XMLID_1023_" class="st182" d="M371,363c0.2-1.5,1.1-1.6,1.9-1.8C372.9,362.4,372,362.4,371,363z"/>
	<path id="XMLID_1022_" class="st183" d="M427.1,313c0.1,0.5,0.1,1,0.2,1.5c-2.8,1.5-5.6,3-8.3,4.5c-0.2-0.3-0.4-0.6-0.5-0.9
		C421.2,316.3,423.4,313.5,427.1,313z"/>
	<path id="XMLID_1021_" class="st184" d="M433.2,344.4c-0.3-0.2-0.6-0.4-0.9-0.7c0.8-1.6,2.4-2.3,3.9-3c0.3,0.3,0.6,0.6,0.9,0.9
		C435.9,342.6,434.5,343.5,433.2,344.4z"/>
	<path id="XMLID_1020_" class="st167" d="M414.9,321c0-1.1,0.7-1.4,1.6-1.6c0.2,0,0.4,0.5,0.6,0.7
		C416.4,320.7,415.9,321.4,414.9,321z"/>
	<path id="XMLID_1019_" class="st185" d="M441.6,324.7c0.4-1,1-1.6,1.9-1.6c0.2,0,0.4,0.5,0.5,0.8
		C443.4,324.4,442.9,325.1,441.6,324.7z"/>
	<path id="XMLID_1018_" class="st2" d="M293.8,269.6c0.3,0.2,0.6,0.5,0.8,0.7c-1.1,0.9-2.2,1.8-3.9,2
		C291.3,270.5,292.6,270.2,293.8,269.6z"/>
	<path id="XMLID_1017_" class="st2" d="M272,262c0.9-1.3,2.4-1.7,3.7-2.5c0.4,0.3,0.4,0.7,0.1,1.1C274.7,261.4,273.5,262.1,272,262z
		"/>
	<path id="XMLID_1016_" class="st186" d="M287.1,275c-0.4,0.2-0.7,0.1-0.8-0.3c-0.1-0.6,0.4-0.9,0.8-1c0.2-0.1,0.7,0.2,0.8,0.4
		C288.2,274.8,287.4,274.8,287.1,275z"/>
	<path id="XMLID_1015_" class="st2" d="M275.8,260.5c0-0.4,0-0.7-0.1-1.1c0.5-0.4,1.1-0.7,1.6-1.1c0.3,0.2,0.5,0.5,0.8,0.7
		C277.3,259.5,276.5,260,275.8,260.5z"/>
	<path id="XMLID_1014_" class="st187" d="M302.1,253.9c0.2,0.2,0.5,0.4,0.7,0.6c-0.6,0.6-1.5,1.7-2.2,0.8
		C300.1,254.5,301.4,254.2,302.1,253.9z"/>
	<path id="XMLID_1013_" class="st188" d="M325.3,381.3c0.3,0.3,0.5,0.5,0.8,0.8c-0.7,0.7-1.5,1.2-2.5,1.4
		C323.2,381.9,324.5,381.8,325.3,381.3z"/>
	<path id="XMLID_1012_" class="st189" d="M278,407.4c-0.3-0.3-0.6-0.5-0.9-0.8c0.8-0.5,1.6-1,2.4-1.5c0.8-0.3,0.9,0.1,0.8,0.7
		C279.5,406.4,278.7,406.9,278,407.4z"/>
	<path id="XMLID_1011_" class="st190" d="M280.2,405.9c-0.3-0.2-0.5-0.5-0.8-0.7c0.7-0.6,1.5-1.7,2.2-0.8
		C282.2,405.1,280.9,405.6,280.2,405.9z"/>
	<path id="XMLID_1010_" class="st141" d="M259.2,407.4c-0.3-0.3-0.6-0.5-0.8-0.8c0.7-0.9,1.7-1.3,2.8-1.5
		C261.1,406.4,260.4,407.1,259.2,407.4z"/>
	<path id="XMLID_1009_" class="st191" d="M201.5,213.2c0.3,0.3,0.6,0.6,0.9,0.9c-0.9,0.9-1.9,1.5-3.5,1.9
		C199.2,214.3,200.4,213.8,201.5,213.2z"/>
	<path id="XMLID_1008_" class="st192" d="M184.2,233.5c-0.3-0.3-0.5-0.5-0.8-0.8c0.8-0.5,1.5-1,2.3-1.5l0-0.1
		C186.3,232.6,185.3,233.1,184.2,233.5z"/>
	<path id="XMLID_1007_" class="st193" d="M185.7,231.2c0.6-0.6,1.1-1.2,2.1-1c0.1,0,0.1,0.7,0,0.9
		C187.2,232,186.4,231.9,185.7,231.2C185.7,231.2,185.7,231.2,185.7,231.2z"/>
	<path id="XMLID_1006_" class="st194" d="M442.3,277.1c0.3,0.2,0.6,0.5,0.9,0.7c-1.4,1.1-2.8,2.1-5.3,2.8
		C439.4,278.5,440.9,277.9,442.3,277.1z"/>
	<path id="XMLID_1005_" class="st195" d="M239.7,408.9c-0.3-0.2-0.6-0.5-0.9-0.7c0.8-0.5,1.6-1,2.3-1.5c0.8-0.3,0.9,0.1,0.8,0.8
		C241.2,407.9,240.5,408.4,239.7,408.9z"/>
	<path id="XMLID_1004_" class="st196" d="M242,407.5c-0.3-0.3-0.5-0.5-0.8-0.8c0.8-0.5,1.6-1,2.5-1.5
		C243.9,406.6,243,407.1,242,407.5z"/>
	<path id="XMLID_1003_" class="st197" d="M157.7,328.9c-0.7,2.5-3.1,2.7-4.9,3.8c-0.3-0.3-0.4-0.7-0.1-1
		C154.2,330.4,155.3,328.5,157.7,328.9z"/>
	<path id="XMLID_1002_" class="st198" d="M152.7,331.6c0,0.3,0.1,0.7,0.1,1c-0.8,1.1-1.9,1.5-3.1,2c-0.3-0.3-0.7-0.6-1-0.8
		C149.9,332.8,151.2,332,152.7,331.6z"/>
	<path id="XMLID_1001_" class="st199" d="M162.5,348.3c-0.3-0.3-0.6-0.6-0.9-0.8c1.5-0.9,2.6-2.7,4.7-2.2
		C165.7,347.1,163.7,347.2,162.5,348.3z"/>
	<path id="XMLID_1000_" class="st200" d="M328.3,230.5c0.3,0.3,0.6,0.5,0.9,0.8c-1.9,1.3-3.6,2.9-6,2.9
		C324,231.9,326.6,231.8,328.3,230.5z"/>
	<path id="XMLID_999_" class="st201" d="M333.6,250.1c-0.3-0.3-0.6-0.5-0.9-0.8c1.2-0.8,2.5-1.5,3.7-2.3c0.3,0.3,0.6,0.6,1,0.8
		C336.2,248.6,334.9,249.3,333.6,250.1z"/>
</g>
</svg>
