<?xml version="1.0" encoding="utf-8"?>
<!-- Generator: Adobe Illustrator 19.0.0, SVG Export Plug-In . SVG Version: 6.00 Build 0)  -->
<svg version="1.1" id="Layer_1" xmlns="http://www.w3.org/2000/svg" xmlns:xlink="http://www.w3.org/1999/xlink" x="0px" y="0px"
	 viewBox="0 0 612 792" style="enable-background:new 0 0 612 792;" xml:space="preserve">
<style type="text/css">
	.st0{fill:#2C2C2A;}
	.st1{fill:#F47A20;}
	.st2{fill:#F0F3EC;}
	.st3{fill:#EAEDE4;}
	.st4{fill:#E3E8DB;}
	.st5{fill:#DAE5E4;}
	.st6{fill:#FCF8EF;}
	.st7{fill:#FCF7EC;}
	.st8{fill:#FCF5E6;}
	.st9{fill:#FBF0D8;}
	.st10{fill:#FAECCC;}
	.st11{fill:#2B2927;}
</style>
<g id="XMLID_34_">
	<path id="XMLID_1079_" class="st0" d="M204.6,259.5c-8.1,6.5-15.5,13.7-22,21.8c-23.8,29.4-35.8,62.8-34.2,100.7
		c1.4,34.1,11.1,65.5,32.6,92.6c22.8,28.7,52.5,46.8,87.9,55.3c37.8,9.1,74.6,6,109-12.7c40.4-21.9,65-56.4,76.6-100.5
		c2.6-9.8,4-19.8,3.9-30c0-3.8,0.5-7.5,1.5-11.1c2.4-8.2,11.2-14.2,19.1-13c9.4,1.4,15.3,8.3,15.1,17.9c-0.1,5.9-0.2,11.8-0.8,17.6
		c-3.4,33.8-15.4,64.3-36,91.3c-21.9,28.7-50,49.5-83.3,63.4c-23.8,9.9-48.5,15-74.2,14.9c-53-0.2-97.4-20.3-133.7-58.7
		c-23-24.4-40.1-52.1-48.2-84.9c-10.3-41.3-5.1-81.1,12.5-119.6c6.6-14.4,15.2-27.7,24.8-40.3c9-11.8,19.6-21.9,30.8-31.3
		c26-21.7,55.7-35.7,89-41.4c38.4-6.6,75-0.2,109.9,16.6c15.6,7.5,30,16.8,43.4,27.8c2.2,1.8,3.6,2.3,5.8,0c2.5-2.6,5.5-4.7,8.8-6.3
		c7.1-3.5,12.3-1.6,15.3,5.7c1.7,4.1,2.4,8.4,2.9,12.7c1.1,9.7,1.1,19.5,0.8,29.2c-0.3,9.4-6.5,14.5-17.8,15.2
		c-5.1,0.3-10.3,0-15.3-0.7c-7.2-0.9-14.5,0.5-21.7-0.6c-2.4-0.4-4.6-1.1-6.6-2.4c-4.6-2.9-6.2-7.9-4-13.4c1.7-4.3,4.5-7.8,8.2-10.5
		c2.1-1.6,2.4-2.4,0.2-4.3c-24-20.7-51.4-33.6-83-37c-27-2.9-52.9,1.3-77.9,12.1c-2.5,1.1-4.9,2.5-7.3,3.7c-0.8,0-1.5,0-1.8,0.9
		c0,0,0.1,0,0.1,0c-0.7-0.1-1.3,0-1.5,0.9c0,0,0.1,0,0.1,0c-6,1.9-11,5.6-16.1,9c-3.3,2.2-7.1,4-9.5,7.5c0,0,0,0,0,0
		c-1-0.1-1.7,0.2-1.6,1.4c0,0,0,0,0,0C205.4,258.4,205,258.9,204.6,259.5z M144.7,291C144.7,291,144.8,290.9,144.7,291
		c-0.1,0.2-0.3,0.4-0.5,0.7c-1.8,3.4-4.3,6.5-4.7,10.6l0,0c-0.7-0.2-0.8,0.4-0.9,0.9c-0.6,1.1-1.6,2.1-1.4,3.6l0,0
		c-0.7,0-0.7,0.5-0.7,1c-6.5,14.9-10.7,30.3-12.2,46.5c-0.6,1.1-0.7,2.4-0.5,3.6c-1.5,8.2-0.8,16.5-0.8,24.8
		c-0.1,9.2,0.7,18.2,2.3,27.3c1.2,6.7,2.3,13.3,4.4,19.8c-0.2,1.4,0.7,2.5,1,3.7c0.8,2.9,1.4,5.8,3,8.4c0.1,1,0.2,2,1.1,2.6
		c2.7,8.5,6.8,16.2,11.6,23.7c0.1,1,0.6,1.9,1.4,2.5c3,5.6,6.7,10.8,10.7,15.7c0.4,0.8,0.8,1.7,1.8,2.1c1.5,2.6,3.5,4.7,5.6,6.8
		c0.6,1.1,1.5,2.1,2.6,2.8c7.6,8.9,16.3,16.7,25.8,23.6c0.9,1,2,1.9,3.3,2.4c4.9,4.3,10.8,7,16,10.8c1.4,1,3.2,0.4,4.4,1.7
		c2.4,2.7,5.7,3.7,8.9,5c0.7,1,1.8,1.3,3,1.5c16.6,8.4,34.3,13.4,52.7,16c3.1,0.9,6.2,1.3,9.3,1.2c4.3,0.8,8.6,1,12.9,0.7
		c1.8,0,3.5,0,5.3,0c4.8,0.2,9.6,0.3,14.3-0.7c2,0.3,3.9,0,5.8-0.7c6.6-0.4,13.1-1.5,19.3-3.8c3.9-0.2,7.5-1.7,11.1-3
		c0.5,0,0.9,0,0.9-0.7l0,0c0.7,0.1,1.5,0.3,1.5-0.8l0,0c2,0.7,3.6-0.5,5.3-1.2c14.3-5.4,27.5-13.1,40-21.9
		c14.4-10.1,26.8-22.2,37.5-36.3c7-9.3,13.2-18.9,18.5-29.1c7.7-15,13.2-30.9,16.4-47.5c0.2-0.9,0.5-1.8,0.1-2.7
		c0.2-0.4,0.6-0.8,0.7-1.3c1.8-10.4,3.2-20.9,3.1-31.5c0-3-1.4-5.6-3.4-7.7c-3.8-4.2-8.5-3.4-10.9,1.7c-1.3,2.9-2,5.9-2.3,9
		c-0.6,6.6,0.4,13.4-0.7,19.7c-1.9,11.2-4.4,22.5-8.5,33.2c-10.1,26.5-26.3,48.8-48.3,66.8c-15,12.3-31.9,21.2-49.6,28.8
		c-0.7-0.1-1.3-0.3-1.6,0.6l0,0c-3.9,0.6-7.6,2.2-11.2,3.6c-7,1.6-14,3.3-21,4.9c-4.8-0.1-9.4,0.9-14.2,1.5c-8-0.3-15.9,0.8-24,0
		c-7.2-0.7-14.2-1.7-21.3-3c-6.4-1.1-12.4-3.4-18.6-4.8c-1.3-0.9-2.7-1.3-4.2-1.5c-2.9-1.4-5.8-2.8-9-3.7c-0.8-0.9-1.9-1.3-3.1-1.5
		c-2.5-1.6-5.1-3-7.9-4c-0.7-0.8-1.5-1.5-2.7-1.6c-2.6-1.6-5.1-3.2-7.7-4.8c-1-1.1-2.2-1.8-3.6-2.4c-9.6-6.8-19-13.8-27.2-22.2
		c-0.5-1.2-1.5-1.9-2.5-2.7c-1.9-2.2-3.9-4.5-5.8-6.7c-0.6-0.7-1.2-1.5-1.9-2.2c-6.3-8.9-12.5-17.8-17.2-27.8
		c-2.4-5.1-4.4-10.4-7-15.4c-1.4-2.7-1.8-6.7-2.9-10c-0.1-1,0-2.1-0.9-3c-0.2-1-0.2-2-0.5-2.9c-4.3-17.2-5.7-34.7-4.6-52.4
		c0.4-6.1,1.3-12.1,2-18.1c0.2-1.1,0.5-2.3,0.7-3.4c0.2-0.8,0.5-1.7,0.7-2.5c5.4-26.1,16.3-49.6,33-70.4c1.6-2,3.9-3.5,4.6-6.2
		l0,0.1c0.7-0.1,0.9-0.5,0.8-1.1c0.6-0.5,1.5-0.7,1.6-1.7c1.1-0.8,2.3-1.4,3.3-2.4c22.4-22.6,49.7-36.1,80.3-43.4
		c1.5-0.4,2.9-0.7,4.1-1.7c4,0.7,7.7-0.6,11.5-1.4c5-0.3,10-0.6,15-1c3.9,0,7.8,0,11.7,0c4.1,0.3,8.1,0.6,12.2,0.8
		c2.7,0.3,5.5,0.6,8.2,0.9c3.5,0.7,7,1.4,10.5,2.1c1.2,0.3,2.5,0.5,3.7,0.8c3.1,0.8,6.2,1.6,9.3,2.5c2,1.1,4.2,1.8,6.5,2.2
		c6.3,2.5,12.6,5.1,18.9,7.6c0.4,1.3,1.6,1.4,2.6,1.8c4.8,2.8,9.6,5.7,14.5,8.5c0.6,0.9,1.4,1.3,2.4,1.6c2.1,1.9,4.4,3.5,6.8,4.9
		c0.6,0.9,1.3,1.6,2.4,1.8c2.2,2,4.3,4,6.7,5.8c2.4,1.8,3.7,3.8,2.6,6.8l0,0c-0.7-0.1-0.9,0.4-1.1,0.8c-1.8,1.5-3.7,2.9-5.4,4.5
		c-1.6,1.5-4,2.6-3.9,5.4c-3.2,2.7-2.5,6.5,1.5,7.9c4.3,1.5,8.8,2.7,13.5,2.4c1.8,0.3,3.6,0.6,5.5,0.4c4.3,0.6,8.6,0.4,12.9,0.2
		c1.4,0,2.8,0,4.2,0c6.9,0.6,8.5-0.8,8.4-7.7c-0.2-9-0.6-17.9-1-26.9c0-1.6-0.1-3.1-0.1-4.7c0.1-2.7-0.4-5.3-1.4-7.9
		c0-1.7-1-2.4-2.5-2.7c-2.6-0.4-4.5,0.7-5.7,2.9l0,0c-0.4,0.3-0.8,0.6-1.1,0.8c-3.1,2.8-5.5,6.4-9.6,8c-2-0.1-3.4-1.2-5-2.2
		c-3.8-2.6-6.4-6.7-10.5-8.9c-0.4-0.9-1.2-1.3-2.1-1.7c-4.1-3.8-8.6-7-13.5-9.6c-0.5-0.9-1.3-1.3-2.3-1.5
		c-5.1-3.7-10.8-6.5-16.5-9.1c-1.8-1.2-3.8-2.2-5.9-2.7c-2.7-1.6-5.6-2.6-8.5-3.5c-1.1-0.5-2.1-1.3-3.4-1.1c-2.9-1.4-6-2.5-9.2-2.9
		c-1.9-1-4-1.5-6.1-1.7c-3.4-1.2-7-2-10.6-2.2c-2.8-0.8-5.7-1.4-8.7-1.3c-4-1-8.1-1.2-12.2-1.3c-2.7,0-5.4-0.1-8.1-0.1
		c-8.1-0.1-16.1-0.6-24,1.6c-4.7-0.5-9.1,0.7-13.5,1.9c-1.6,0.2-3.2,0.4-4.8,0.7c-7.8,1.8-15.6,3.7-22.9,7.1
		c-5.5,1.3-10.7,3.5-15.5,6.5c-0.8-0.1-1.6-0.1-1.8,0.9l0,0c-1.2-0.4-2.2,0.4-3.1,0.9c-15,7.5-28.8,16.8-41.3,28.1
		c-5,4.6-10.3,8.9-14.1,14.7l0-0.1c-0.4,0.3-0.7,0.6-1.1,0.9c-2.5,2.8-5.3,5.4-7.1,8.8c-3.8,4.7-8,9.1-9.9,15l0,0
		c-0.7-0.2-0.9,0.4-1.1,0.8c-0.9,1.7-2.6,3-2.7,5.1l0,0C144.8,290.1,144.8,290.6,144.7,291z"/>
	<path id="XMLID_1076_" class="st0" d="M191.5,379.6c1.5-37.9,15.7-70.9,49.4-93.7c14.4-9.8,30.6-14.5,47.8-16.8
		c9.1-1.2,18.3-1.3,27.2-0.5c40.6,3.7,80.2,26,95.3,75.1c14.4,46.9-3.3,98.8-42.8,126c-12.5,8.6-26.3,14-41,17.3
		c-6.8,1.5-13.6,1.3-20.4,1.6c-27.1,1.2-56-5.6-78.2-24.1c-21-17.5-32.3-40.4-36.1-67.2C192,391.9,191.9,386.6,191.5,379.6z
		 M369.8,462.1c0.5,0,0.8-0.3,1-0.7c2.9-2,5.3-4.4,7.7-6.9c3-3.3,5.6-6.9,8.2-10.5c3.4-4.5,6.3-9.1,8.6-14.2c0.7-1,1.5-2.1,1.5-3.4
		c2.2-3.6,3.5-7.4,4.4-11.5c0.6-1.2,1.2-2.4,0.9-3.8l-0.1,0c0.8,0.2,0.6-0.4,0.6-0.8c1.2-3.1,1.7-6.4,2.2-9.6c0.1-1.5,1-3,0.3-4.6
		l-0.1,0c0.8,0.2,0.6-0.4,0.6-0.8c0.3-2.8,1.1-5.6,0.7-8.5c0-1,0-2,0-3.1c0.5-7.8-0.1-15.6-1.6-23.3c-0.3-1.4-0.5-2.7-0.8-4.1
		c-0.5-2.3-0.8-4.7-1.9-6.9c-0.3-1.3-0.7-2.6-1-3.9c-0.8-2.2-1.5-4.4-2.3-6.6c-0.3-0.8-0.7-1.6-1-2.4c-1.5-4.2-3.5-8.2-5.8-12.1
		c-1-1.7-2-3.3-3-5c-1.2-1.9-1.9-4.3-4.2-5.3c-0.1-2-1.6-3-2.8-4.3c-1.2-1.8-2.4-3.5-4.2-4.8c-0.4-0.5-0.9-0.9-1.3-1.4
		c-3.2-3.7-6.7-7.1-10.9-9.7c-0.4-0.8-1.1-1.2-1.9-1.5c-1.7-1.7-3.6-3-5.8-4c-0.5-0.6-1.1-1.1-1.9-1.1c-1.9-1.7-4.2-2.7-6.5-3.7
		c-1.9-1-3.7-2.1-5.8-2.5c-2.5-1.5-5.2-2.5-8.1-2.9c-0.4-0.8-1-0.7-1.7-0.7c-2.8-1.2-5.7-2.1-8.8-2.3c-2.5-1-5-1.5-7.7-1.5
		c-3.5-1.1-7.1-0.9-10.7-1.2c-3.2-0.3-6.5-0.5-9.7,0.3c-6.4,0.2-12.8,0.4-18.7,3.3c-3.5-0.6-6.5,1.2-9.6,2.3
		c-7.2,2.1-13.8,5.5-20.1,9.5c-12.6,8-23.3,17.9-31,30.7c-1,1.4-2.6,2.5-2.4,4.5l0.1,0c-0.8-0.4-0.7,0.4-0.9,0.8
		c-3,4.1-5.3,8.7-7.1,13.5c-1,2.1-2.1,4.2-2.4,6.5c-2.7,6.4-4.2,13-4.6,19.9c-0.6,1.9-0.8,3.9-0.6,5.9c-0.3,2.7-0.4,5.3-0.1,8
		c0,0.6,0,1.2,0,1.8c-0.1,2.5-0.4,4.9,0.6,7.3c0.1,0.8,0.1,1.6,0.2,2.4c0.4,4.9,1.4,9.6,3,14.2c-0.1,0.6,0.1,1.2,0.6,1.6
		c0.2,2.4,1,4.5,2.1,6.6c0.4,1.5,0.7,3,1.7,4.2c0.5,2.4,1.5,4.5,2.8,6.5c0.5,1.8,1.4,3.4,2.5,4.9c1.9,4.2,4.3,8.1,7.3,11.6
		c0.5,0.7,1,1.4,1.5,2.1c1,1.9,2.4,3.6,4,5.1c0.7,1.3,1.6,2.4,2.8,3.3c1.3,1.9,2.8,3.6,4.7,5c1,1,2,2,3.1,3
		c5.4,5.4,11.4,10.1,18.1,13.7c0.7,0.8,1.6,1.3,2.6,1.6c2.1,1.6,4.4,2.7,6.8,3.6c1.8,1.1,3.6,2,5.6,2.4c2.6,1.5,5.3,2.5,8.2,2.9
		c1.7,0.9,3.5,1.4,5.4,1.5c3,1.2,6.1,1.6,9.3,1.8c2.2,0.8,4.5,0.6,6.7,0.6c4.2,0.9,8.4,0.9,12.7-0.1c1.9,0.1,3.9,0.1,5.8-0.4
		c7.8-1.2,15.7-2.4,22.7-6.5c1,0.3,1.9,0,2.9-0.4c8.6-3.4,16.6-7.9,24-13.6c0.5-0.4,1.5-0.5,1.1-1.6l-0.1,0.1
		C369.3,463.5,369.5,462.6,369.8,462.1L369.8,462.1z"/>
	<path id="XMLID_1075_" class="st1" d="M207.8,257.4c2.3-3.5,6.1-5.3,9.5-7.5c5.1-3.4,10.1-7.1,16.1-9c-3.9,4-9,6.4-13.6,9.4
		C215.9,252.8,212.4,256,207.8,257.4z"/>
	<path id="XMLID_1074_" class="st1" d="M206.2,258.8c-0.1-1.2,0.6-1.5,1.6-1.4C208,258.6,207.1,258.6,206.2,258.8z"/>
	<path id="XMLID_1073_" class="st1" d="M234.8,240.1c0.3-0.9,1.1-0.9,1.8-0.9C236.1,239.7,235.6,240.2,234.8,240.1z"/>
	<path id="XMLID_1072_" class="st1" d="M233.3,240.9c0.2-0.9,0.8-0.9,1.5-0.9C234.6,240.8,234.1,241.2,233.3,240.9z"/>
	<path id="XMLID_1071_" class="st1" d="M204.6,259.5c0.4-0.6,0.8-1.1,1.6-0.8C205.9,259.5,205.5,259.9,204.6,259.5z"/>
	<path id="XMLID_1066_" class="st1" d="M165.9,495.2c-2.1-2.1-4.1-4.2-5.6-6.8c0.8-1.3,2.1-2.3,2.3-3.9c0.2-0.1,0.3-0.3,0.5-0.4
		c-0.1,0-0.3-0.1-0.3-0.1c-0.3,0.1-0.4,0.3-0.1,0.6c-1.8-0.4-2.8,1.2-4.2,1.7c-4-4.9-7.7-10.1-10.7-15.7c1-1.3,1.9-2.7,2.9-4
		c0-0.1,0.1-0.2,0.1-0.3c0,0-0.1-0.1-0.1-0.1c0,0.2,0,0.3,0,0.5c-1.9-0.8-2.9,1.2-4.4,1.5c-4.8-7.4-8.9-15.2-11.6-23.7
		c0.9-1.2,2.4-2.1,2.3-4c-1.5-0.1-2.3,1-3.4,1.4c-1.6-2.6-2.3-5.5-3-8.4c1-2,3.1-3.3,3.5-6.2c-1.8,1-3.2,1.8-4.5,2.5
		c-2.2-6.4-3.2-13.1-4.4-19.8c-1.7-9.1-2.4-18.2-2.3-27.3c0.1-8.3-0.6-16.6,0.8-24.8c1.8-1.5,3.6-2.9,5.1-5.9
		c-2.1,1-3.3,1.7-4.6,2.3c1.5-16.2,5.7-31.7,12.2-46.5c0.4-0.2,0.9-0.4,0.7-1c0,0,0,0,0,0c3.5-1.2,5.6-4,8.8-6.6
		c-3.1-0.2-4.3,2.3-6.5,2.2c0.4-4,2.9-7.1,4.7-10.6c0.2-0.3,0.4-0.5,0.5-0.8c0,0-0.1,0.1-0.1,0.1c0.6,0,1.3,0.2,0.7-0.8c0,0,0,0,0,0
		c1.5,1.1,2.2-0.5,3-1c9.9-6.4,19.8-12.9,29.7-19.3c1-0.6,1.8-1.8,3.2-1.5c-0.6,2.7-3,4.2-4.6,6.2c-16.7,20.8-27.6,44.3-33,70.4
		c-0.2,0.9-0.5,1.7-0.7,2.5c-1.6,1.6-3.3,3.1-5.1,4.9c2.1,0.4,3-1.2,4.4-1.4c-0.7,6-1.6,12.1-2,18.1c-1,17.7,0.3,35.2,4.6,52.4
		c0.2,1,0.3,1.9,0.5,2.9c-1.2,1.4-2.4,2.9-3.8,4.5c2.1,0.4,3.2-1,4.6-1.5c1.1,3.3,1.5,7.3,2.9,10c2.6,5,4.6,10.3,7,15.4
		c4.7,10,10.9,18.9,17.2,27.8c-0.8,1.2-1.6,2.5-2.9,4.6c2.2-1.1,3.5-1.7,4.8-2.3c1.9,2.2,3.9,4.5,5.8,6.7c-0.9,1.5-1.8,3-2.7,4.4
		c0.3,0.3,0.5,0.5,0.8,0.8c1.5-0.8,2.9-1.7,4.4-2.5c8.2,8.4,17.6,15.4,27.2,22.2c-1.2,1.9-2.3,3.8-3.5,5.6c0.2,0.2,0.4,0.4,0.7,0.6
		c2.1-1.3,4.3-2.6,6.4-3.9c2.6,1.6,5.1,3.2,7.7,4.8c-1,0.9-1.9,2-2.4,3.3c-0.1,0.2-0.3,0.5-0.4,0.7c0.3,0,0.6-0.1,0.8-0.1
		c1.5-0.8,3.1-1.6,4.6-2.4c2.8,1,5.4,2.4,7.9,4c-0.8,1.2-1.5,2.3-2.3,3.5c0,0.3-0.1,0.6-0.1,0.9c0.3-0.1,0.6-0.3,0.9-0.4
		c1.5-0.8,3-1.7,4.6-2.5c3.1,0.9,6.1,2.2,9,3.7c-1,1.5-2,3-3.2,4.6c3.2,0.2,5-2.1,7.4-3.1c6.3,1.4,12.3,3.7,18.6,4.8
		c7.1,1.3,14.1,2.3,21.3,3c8,0.8,16-0.3,24,0c-2.3,3.3-4.6,6.7-6.9,10c0.2,0.3,0.4,0.5,0.6,0.8c6.8-4.2,14-7.6,20.5-12.3
		c7-1.6,14-3.3,21-4.9c-2.4,2.3-4.8,4.6-7.2,6.8c1.3,0.6,2.3-0.3,3.4-0.9c3.8-2.2,7.6-4.2,11.3-6.6c1.3-0.8,3.4-0.9,3.7-2.9
		c0,0,0,0,0,0c0.9,0.8,1.2,0,1.6-0.6c17.7-7.5,34.6-16.5,49.6-28.8c22-18,38.2-40.3,48.3-66.8c4.1-10.7,6.6-22,8.5-33.2
		c1.1-6.3,0.2-13.1,0.7-19.7c0.3-3.1,1-6.1,2.3-9c2.4-5.1,7-5.9,10.9-1.7c2,2.2,3.4,4.7,3.4,7.7c0.1,10.6-1.3,21.1-3.1,31.5
		c-0.1,0.5-0.5,0.9-0.7,1.3c-2.4,0.6-3.4,2.7-5.1,4.4c2.3,0.5,3.4-1.2,5-1.6c-3.2,16.6-8.7,32.5-16.4,47.5
		c-5.3,10.3-11.5,19.9-18.5,29.1C435,506,422.6,518,408.2,528.1c-12.5,8.8-25.6,16.5-40,21.9c-1.7,0.6-3.3,1.9-5.3,1.2
		c2.9-3.5,7.3-5.2,10.5-8.2c1.7-0.9,3.4-1.9,4.3-4c-1.7,1-3.4,2.1-5.2,3.1c-7.9,4.3-15.7,8.6-23.2,13.5c-6.2,2.4-12.7,3.4-19.3,3.8
		c5.2-3.5,10.4-7.1,15.6-10.6c-0.2-0.3-0.4-0.6-0.6-0.9c-6.9,4.1-13.8,8.2-20.7,12.3c-4.7,1-9.5,1-14.3,0.7c2.2-2,4.3-4.1,6.5-6.1
		c-0.2-0.2-0.3-0.4-0.5-0.7c-3.7,2.3-7.5,4.5-11.2,6.8c-4.3,0.3-8.7,0.1-13-0.7c2.1-3.1,4.3-6.2,6.4-9.3c-0.2-0.2-0.4-0.5-0.6-0.7
		c-5.1,2.9-10.1,5.8-15.2,8.7c-18.4-2.5-36.1-7.6-52.7-16c0.9-1.5,1.8-3,2.7-4.5c0.1-0.1,0.2-0.1,0.3-0.2c0,0,0-0.1,0-0.2
		c-0.1,0.2-0.1,0.3-0.2,0.5c-2.4,0.1-4.1,1.5-5.7,3c-3.2-1.3-6.5-2.3-8.9-5c-1.2-1.3-3-0.8-4.4-1.7c-5.2-3.7-11.1-6.5-16-10.8
		c0.9-1.7,1.8-3.3,2.7-5c0.1-0.1,0.2-0.1,0.3-0.2c0,0,0-0.1-0.1-0.2c0,0.2-0.1,0.3-0.1,0.5c-2.5-0.3-3.9,2-6,2.6
		c-9.5-6.9-18.1-14.7-25.8-23.6c0.6-1.8,2.4-3.1,2.6-5.2c0.5,0,0.6-0.2,0.3-0.6c-0.1,0.2-0.3,0.3-0.4,0.5
		C169,493,167.7,494.5,165.9,495.2z M129.8,351.8c-0.3,0-0.6,0.1-0.8,0.1c0,0.1,0.1,0.2,0.1,0.3C129.3,352.1,129.6,352,129.8,351.8
		c0-0.1,0.1-0.2,0.2-0.3c0,0,0-0.1,0-0.2C130,351.5,129.9,351.7,129.8,351.8z M379,538.6c0,0.1-0.2,0.2-0.1,0.2
		c0,0.1,0.2,0.2,0.2,0.3c0.1-0.2,0.1-0.3,0.2-0.5C379.2,538.7,379.1,538.6,379,538.6z M298.9,550.1l-0.2-0.1l0,0.2L298.9,550.1z"/>
	<path id="XMLID_1063_" class="st1" d="M167.3,259.7c3.8-5.8,9.1-10.2,14.1-14.7c12.4-11.3,26.3-20.5,41.3-28.1
		c1-0.5,1.9-1.3,3.1-0.9c-2.3,3.2-6.1,4.4-8.9,7.4c1.8,0.3,2.9-0.7,4-1.3c6.5-3.7,12.9-7.4,19.4-11.2c1-0.6,2.4-0.9,2.8-2.3
		c7.3-3.4,15.1-5.3,22.9-7.1c1.6-0.4,3.2-0.5,4.8-0.7c-1.3,1-2.6,2-3.9,2.9c-12.4,8.6-24.9,17.2-37.3,25.8c-2.1,1.4-4.3,2.7-6.4,4.1
		c3-0.2,5.2-1.6,7.4-3.2c17.6-10.1,35.3-20.2,52.9-30.3c0.4-0.2,0.6-0.8,0.9-1.1c7.9-2.2,16-1.7,24-1.6c-2.2,2.6-4.4,5.2-6.6,7.8
		c0.2,0.2,0.4,0.5,0.6,0.7c4.7-2.8,9.4-5.6,14.1-8.5c4.1,0.1,8.2,0.3,12.2,1.3c-1.7,2.7-3.5,5.4-5.8,9c5.9-2.1,10-5.2,14.5-7.6
		c3.6,0.3,7.2,1,10.6,2.2c-1.7,2.5-3.4,4.9-5.1,7.4c0.2,0.3,0.4,0.5,0.6,0.8c3.5-2.1,7.1-4.3,10.6-6.4c3.2,0.4,6.3,1.5,9.2,2.9
		c-0.8,1.2-1.7,2.3-2.7,3.7c2.7,0.1,4.1-1.9,6.1-2.6c3,0.9,5.9,1.9,8.5,3.5c-1.4,2.6-2.8,5.1-4.6,8.7c4.1-2.3,7.3-4.1,10.5-6
		c5.7,2.6,11.4,5.4,16.5,9.1c-0.6,1-1.2,2-1.8,2.9c-0.2,0.3-0.4,0.6-0.6,0.9c-0.1,0-0.2,0.1-0.3,0.1c0,0,0,0.1,0,0.2
		c0.1-0.1,0.2-0.3,0.3-0.4c0.4-0.1,0.8-0.1,1.2-0.2c1.2-0.7,2.4-1.4,3.6-2.1c4.9,2.7,9.4,5.9,13.5,9.6c-0.8,1.4-2.2,2.3-2.4,4
		c-0.1,0-0.2,0.1-0.3,0.1c0,0,0,0.1,0,0.2c0.1-0.1,0.2-0.3,0.3-0.4c1.9,0,3.2-1.3,4.6-2.3c4.1,2.3,6.7,6.3,10.5,8.9
		c1.6,1.1,3,2.2,5,2.2c-0.3,0.4-1,0.9-0.9,1.1c0.6,1.1,1.3,0.3,2,0c6-3.3,11.9-6.7,17.8-10.1c1,2.5,1.5,5.1,1.4,7.9
		c-4.7,3.8-9.3,7.6-14,11.4c5.3-1.1,9.4-4.5,14.1-6.6c0.3,9,0.8,17.9,1,26.9c0.1,7-1.5,8.3-8.4,7.7c0.4-1,1.5-1.6,1.4-2.8
		c0.2-0.1,0.3-0.3,0.5-0.4c-0.1,0-0.2-0.1-0.3-0.1c0,0.2-0.1,0.4-0.1,0.6c-2.4-0.1-3.8,1.7-5.6,2.7c-4.3,0.2-8.6,0.4-12.9-0.2
		c2.2-2.1,4.4-4.3,6.7-6.4c-0.3-0.3-0.5-0.6-0.8-0.8c-3.8,2.3-7.6,4.6-11.4,6.9c-4.7,0.4-9.1-0.8-13.5-2.4c-4.1-1.4-4.7-5.2-1.5-7.9
		c3.7-3,7.4-6,11.1-9c0.5-0.4,1.5-0.7,0.7-1.6c-0.2-0.2-0.9-0.1-1.4-0.1c1.1-3-0.2-5-2.6-6.8c-2.3-1.8-4.5-3.9-6.7-5.8
		c0.4-1.3,2-2.1,1.6-4.1c-1.5,0.8-2.7,1.5-4,2.2c-2.5-1.4-4.7-3-6.8-4.9c0.8-1.2,1.5-2.4,2.3-3.6c0.1-0.3,0.2-0.5,0.3-0.8
		c-0.2,0.1-0.5,0.2-0.7,0.3c-1.6,0.4-3,1.4-4.3,2.4c-4.8-2.8-9.6-5.7-14.5-8.5c0.8-1.3,1.7-2.5,3-4.6c-2.5,1.2-4,2-5.6,2.8
		c-6.3-2.5-12.6-5.1-18.9-7.6c1.4-2.4,2.8-4.8,4.2-7.2c0-0.3,0.1-0.6,0.1-0.9c-0.3,0.1-0.5,0.2-0.8,0.4c-3.3,1.9-6.7,3.7-10,5.6
		c-3.1-0.8-6.2-1.6-9.3-2.5c0.7-1.5,2.5-2.5,3.1-5.1c-2.7,1.7-4.8,3-6.8,4.3c-3.5-0.7-7-1.4-10.5-2.1c1.7-2.7,3.5-5.5,5.2-8.2
		c0-0.2,0.7-0.2,0.1-0.4c0,0.2,0,0.3,0,0.5c-5.1,1.4-9.1,4.7-13.5,7.3c-4.1-0.3-8.1-0.6-12.2-0.8c2-3.1,4-6.1,6-9.2
		c0-0.3,0.1-0.6,0.1-0.9c-0.3,0.1-0.6,0.2-0.9,0.4c-5.8,2.9-11.4,6.2-16.9,9.7c-5,0.3-10,0.6-15,1c2.4-2.9,4.8-5.7,7.3-8.6
		c-0.2-0.3-0.4-0.5-0.6-0.8c-6.1,3.6-12.2,7.2-18.3,10.7c-1.2,1-2.6,1.3-4.1,1.7c-30.6,7.3-57.9,20.9-80.3,43.4
		c-0.9,0.9-2.2,1.6-3.3,2.4c-1.4-0.5-2.3,0.6-3.4,1.2c-4.9,2.8-9.7,5.7-14.6,8.4c-5.6,3-10.7,6.8-16.6,9.1c1.9-5.9,6.2-10.3,9.9-15
		c0.6-0.2,1.3-0.2,1.7-0.5C170.9,261.9,181,255,191,248c0.4-0.2,0.9-0.5,0.5-1.7c-3.1,1.8-6,3.5-9,5.1
		C177.5,254.2,172.9,257.8,167.3,259.7z M419.9,263.6c-0.1-0.1-0.2-0.2-0.2-0.2c-0.1,0-0.2,0.1-0.3,0.2c0.1,0.1,0.2,0.2,0.4,0.2
		C419.8,263.8,419.8,263.7,419.9,263.6z"/>
	<path id="XMLID_1062_" class="st2" d="M229.5,229.5c12.4-8.6,24.9-17.2,37.3-25.8c1.3-0.9,2.6-1.9,3.9-2.9
		c4.4-1.2,8.9-2.4,13.5-1.9c-0.3,0.4-0.5,0.9-0.9,1.1c-17.6,10.1-35.3,20.2-52.9,30.3C230.1,230.1,229.8,229.8,229.5,229.5z"/>
	<path id="XMLID_1061_" class="st3" d="M149.2,284.3c6-2.3,11.1-6.1,16.6-9.1c4.9-2.7,9.7-5.6,14.6-8.4c1-0.6,2-1.7,3.4-1.2
		c-0.1,1-1,1.2-1.6,1.7c-0.4,0.3-1.1,0.4-0.8,1.1c0,0,0-0.1,0-0.1c-1.4-0.3-2.2,0.9-3.2,1.5c-9.9,6.4-19.8,12.9-29.7,19.3
		c-0.8,0.5-1.5,2.1-3,1c0-2.2,1.8-3.4,2.7-5.1C148.7,285,149.2,284.9,149.2,284.3L149.2,284.3z"/>
	<path id="XMLID_1060_" class="st3" d="M167.3,259.7c5.6-1.8,10.2-5.5,15.3-8.2c3-1.6,5.9-3.4,9-5.1c0.3,1.2-0.2,1.4-0.5,1.7
		c-10,6.9-20.1,13.8-30.1,20.7c-0.5,0.3-1.1,0.3-1.7,0.5c1.8-3.4,4.6-6,7.1-8.8c0.6,0,1.2-0.1,1.1-0.9L167.3,259.7z"/>
	<path id="XMLID_1059_" class="st2" d="M327,540.1c-6.5,4.7-13.7,8.1-20.5,12.3c-0.2-0.3-0.4-0.5-0.6-0.8c2.3-3.3,4.6-6.7,6.9-10
		C317.5,541,322.2,540.1,327,540.1z"/>
	<path id="XMLID_1058_" class="st3" d="M315.6,206.6c-2,3.1-4,6.1-6,9.2c-3.9,0-7.8,0-11.7,0c5.5-3.5,11.1-6.8,16.9-9.7
		C315.1,206.3,315.3,206.4,315.6,206.6z"/>
	<path id="XMLID_1057_" class="st3" d="M243,208.6c-0.4,1.4-1.7,1.7-2.8,2.3c-6.4,3.8-12.9,7.5-19.4,11.2c-1.2,0.7-2.2,1.6-4,1.3
		c2.8-3,6.7-4.2,8.9-7.4c0,0,0,0,0,0c0.9,0.2,1.3-0.4,1.8-0.9C232.4,212.1,237.5,209.9,243,208.6z"/>
	<path id="XMLID_1056_" class="st2" d="M271.4,218.1c6.1-3.6,12.2-7.2,18.3-10.7c0.2,0.3,0.4,0.5,0.6,0.8c-2.4,2.9-4.8,5.7-7.3,8.6
		C279.2,217.5,275.4,218.8,271.4,218.1z"/>
	<path id="XMLID_1055_" class="st3" d="M449.9,238.4c-5.9,3.4-11.9,6.7-17.8,10.1c-0.6,0.3-1.4,1.1-2,0c-0.1-0.2,0.6-0.7,0.9-1.1
		c4.1-1.6,6.5-5.3,9.6-8c0.6,0,1.1-0.1,1.1-0.8c0,0,0,0,0,0c2.2-0.3,3.9-1.8,5.7-2.9C448.9,235.9,450,236.7,449.9,238.4z"/>
	<path id="XMLID_1054_" class="st3" d="M349.4,555.7c7.5-4.9,15.3-9.2,23.2-13.5c0.3,0.3,0.6,0.5,0.9,0.8c-3.3,3.1-7.7,4.7-10.5,8.2
		c0,0,0,0,0,0c-0.8-0.3-1.2,0.1-1.5,0.8c0,0,0,0,0,0c-0.3,0.2-0.6,0.4-0.9,0.7C357,554,353.4,555.5,349.4,555.7z"/>
	<path id="XMLID_1053_" class="st2" d="M282.5,559c5.1-2.9,10.1-5.8,15.2-8.7c0.2,0.2,0.4,0.5,0.6,0.7c-2.1,3.1-4.3,6.2-6.4,9.3
		C288.6,560.2,285.5,559.8,282.5,559z"/>
	<path id="XMLID_1052_" class="st2" d="M337.3,200c-4.5,2.4-8.6,5.5-14.5,7.6c2.3-3.6,4.1-6.3,5.8-9
		C331.6,198.6,334.5,199.2,337.3,200z"/>
	<path id="XMLID_1051_" class="st2" d="M359.2,531.7c-0.4,2.1-2.4,2.1-3.7,2.9c-3.7,2.3-7.5,4.4-11.3,6.6c-1.1,0.6-2.1,1.5-3.4,0.9
		c2.4-2.3,4.8-4.5,7.2-6.8C351.7,533.8,355.3,532.3,359.2,531.7z"/>
	<path id="XMLID_1050_" class="st3" d="M324.3,560.2c6.9-4.1,13.8-8.2,20.7-12.3c0.2,0.3,0.4,0.6,0.6,0.9
		c-5.2,3.5-10.4,7.1-15.6,10.6C328.2,560.1,326.3,560.5,324.3,560.2z"/>
	<path id="XMLID_1049_" class="st2" d="M321.8,216.6c4.4-2.6,8.5-5.9,13.5-7.3c0,0-0.1,0-0.1,0c-1.7,2.7-3.5,5.5-5.2,8.2
		C327.3,217.2,324.6,216.9,321.8,216.6z"/>
	<path id="XMLID_1048_" class="st2" d="M451.5,250.9c-4.7,2.1-8.7,5.6-14.1,6.6c4.7-3.8,9.3-7.6,14-11.4
		C451.4,247.8,451.4,249.4,451.5,250.9z"/>
	<path id="XMLID_1047_" class="st2" d="M316.4,197.4c-4.7,2.8-9.4,5.6-14.1,8.5c-0.2-0.2-0.4-0.5-0.6-0.7c2.2-2.6,4.4-5.2,6.6-7.8
		C311,197.3,313.7,197.3,316.4,197.4z"/>
	<path id="XMLID_1046_" class="st2" d="M364.3,217.9c-1.4,2.4-2.8,4.8-4.2,7.2c-2.3-0.4-4.4-1.1-6.5-2.2c3.3-1.9,6.7-3.7,10-5.6
		C363.8,217.5,364.1,217.7,364.3,217.9z"/>
	<path id="XMLID_1045_" class="st2" d="M354.1,204c-3.5,2.1-7.1,4.3-10.6,6.4c-0.2-0.3-0.4-0.5-0.6-0.8c1.7-2.5,3.4-4.9,5.1-7.4
		C350.1,202.5,352.2,203,354.1,204z"/>
	<path id="XMLID_1044_" class="st2" d="M381.2,214.3c-3.2,1.8-6.4,3.6-10.5,6c1.9-3.5,3.3-6.1,4.6-8.7
		C377.4,212.1,379.3,213.1,381.2,214.3z"/>
	<path id="XMLID_1043_" class="st3" d="M421.6,284.9c3.8-2.3,7.6-4.6,11.4-6.9c0.3,0.3,0.5,0.6,0.8,0.8c-2.2,2.1-4.4,4.3-6.7,6.4
		C425.2,285.6,423.4,285.3,421.6,284.9z"/>
	<path id="XMLID_1042_" class="st3" d="M417,264c0.5,0,1.2-0.1,1.4,0.1c0.8,0.9-0.2,1.2-0.7,1.6c-3.7,3-7.4,6-11.1,9
		c-0.1-2.8,2.3-3.9,3.9-5.4c1.7-1.6,3.6-3,5.4-4.5C416.4,264.8,416.9,264.6,417,264L417,264z"/>
	<path id="XMLID_1041_" class="st3" d="M304.8,560.9c3.7-2.3,7.5-4.5,11.2-6.8c0.2,0.2,0.3,0.4,0.5,0.7c-2.2,2-4.3,4.1-6.5,6.1
		C308.3,560.9,306.5,560.9,304.8,560.9z"/>
	<path id="XMLID_1040_" class="st3" d="M214.4,516.7c-2.1,1.3-4.3,2.6-6.4,3.9c-0.2-0.2-0.4-0.4-0.7-0.6c1.2-1.9,2.3-3.8,3.5-5.6
		C212.1,514.9,213.4,515.7,214.4,516.7z"/>
	<path id="XMLID_1039_" class="st4" d="M139.5,302.3c2.2,0.1,3.4-2.3,6.5-2.2c-3.2,2.6-5.4,5.4-8.8,6.6c-0.2-1.5,0.8-2.5,1.4-3.6
		C139.1,303,139.6,302.9,139.5,302.3L139.5,302.3z"/>
	<path id="XMLID_1038_" class="st3" d="M248.9,533.8c-2.4,1-4.2,3.4-7.4,3.1c1.1-1.7,2.2-3.2,3.2-4.6
		C246.2,532.5,247.7,532.9,248.9,533.8z"/>
	<path id="XMLID_1037_" class="st4" d="M200.2,519c-0.9,1.7-1.8,3.3-2.7,5c-1.3-0.5-2.4-1.4-3.3-2.4
		C196.4,521,197.8,518.7,200.2,519C200.3,519,200.2,519,200.2,519z"/>
	<path id="XMLID_1036_" class="st4" d="M340.6,219.6c2.1-1.3,4.1-2.6,6.8-4.3c-0.5,2.7-2.3,3.6-3.1,5.1
		C343.1,220.2,341.8,219.9,340.6,219.6z"/>
	<path id="XMLID_1035_" class="st4" d="M183.6,492.2c-1.5,0.8-2.9,1.7-4.4,2.5c-0.3-0.3-0.5-0.5-0.8-0.8c0.9-1.5,1.8-3,2.7-4.4
		C182.1,490.2,183.1,491,183.6,492.2z"/>
	<path id="XMLID_1034_" class="st4" d="M165.9,495.2c1.8-0.6,3.1-2.2,5-2.5l0.1,0.1c-0.1,2.1-2,3.3-2.6,5.2
		C167.4,497.3,166.6,496.3,165.9,495.2z"/>
	<path id="XMLID_1033_" class="st3" d="M129.8,429.7c1.4-0.8,2.7-1.5,4.5-2.5c-0.4,2.9-2.5,4.3-3.5,6.2
		C130.4,432.2,129.5,431.1,129.8,429.7z"/>
	<path id="XMLID_1032_" class="st4" d="M226.8,541.5c1.6-1.5,3.4-2.8,5.7-3l-0.1,0c-0.9,1.5-1.8,3-2.7,4.5
		C228.6,542.9,227.6,542.5,226.8,541.5z"/>
	<path id="XMLID_1031_" class="st3" d="M480.6,415.2c-1.6,0.4-2.7,2.2-5,1.6c1.8-1.6,2.8-3.7,5.1-4.4
		C481.1,413.4,480.8,414.3,480.6,415.2z"/>
	<path id="XMLID_1030_" class="st4" d="M366.7,208.1c-1.9,0.8-3.4,2.7-6.1,2.6c1-1.4,1.9-2.6,2.7-3.7
		C364.6,206.8,365.6,207.6,366.7,208.1z"/>
	<path id="XMLID_1029_" class="st4" d="M124.4,354.2c1.3-0.6,2.5-1.3,4.6-2.3c-1.5,3-3.3,4.4-5.1,5.9
		C123.6,356.6,123.8,355.4,124.4,354.2z"/>
	<path id="XMLID_1028_" class="st4" d="M142.4,350.9c-1.4,0.2-2.3,1.8-4.4,1.4c1.9-1.8,3.5-3.3,5.1-4.9
		C142.9,348.6,142.7,349.8,142.4,350.9z"/>
	<path id="XMLID_1027_" class="st4" d="M235.7,528.6c-1.5,0.8-3,1.7-4.6,2.5c-0.3-0.2-0.5-0.3-0.8-0.5c0.8-1.2,1.5-2.3,2.3-3.5
		C233.8,527.3,234.9,527.8,235.7,528.6z"/>
	<path id="XMLID_1026_" class="st3" d="M146.4,427.3c-1.4,0.5-2.5,2-4.6,1.5c1.3-1.6,2.6-3.1,3.8-4.5
		C146.4,425.2,146.3,426.3,146.4,427.3z"/>
	<path id="XMLID_1025_" class="st4" d="M445.5,282.7c0.1,1.2-1,1.8-1.4,2.8c-1.4,0-2.8,0-4.2,0C441.7,284.5,443.2,282.7,445.5,282.7
		L445.5,282.7z"/>
	<path id="XMLID_1024_" class="st4" d="M396.1,243c1.3-1,2.7-2,4.3-2.4c0.1,0.1,0.3,0.3,0.4,0.4c-0.8,1.2-1.5,2.4-2.3,3.6
		C397.5,244.3,396.7,243.9,396.1,243z"/>
	<path id="XMLID_1023_" class="st4" d="M224.7,523.2c-1.5,0.8-3.1,1.6-4.6,2.4c-0.1-0.2-0.3-0.4-0.4-0.6c0.5-1.3,1.3-2.4,2.4-3.3
		C223.2,521.7,224,522.4,224.7,523.2z"/>
	<path id="XMLID_1022_" class="st4" d="M379,232.7c1.6-0.8,3.2-1.6,5.6-2.8c-1.3,2-2.2,3.3-3,4.6C380.6,234.2,379.4,234.1,379,232.7
		z"/>
	<path id="XMLID_1021_" class="st4" d="M415.6,236.2c-1.5,0.9-2.7,2.3-4.6,2.3l0.1,0.1c0.3-1.7,1.7-2.6,2.4-4
		C414.3,234.9,415.1,235.3,415.6,236.2z"/>
	<path id="XMLID_1020_" class="st3" d="M162.7,484.5c-0.3,1.6-1.5,2.6-2.3,3.9c-0.9-0.5-1.3-1.3-1.8-2.1
		C160,485.7,161,484.1,162.7,484.5L162.7,484.5z"/>
	<path id="XMLID_1019_" class="st4" d="M146.5,468.1c1.5-0.3,2.5-2.3,4.4-1.5c0,0-0.1,0-0.1,0c-1,1.3-1.9,2.7-2.9,4
		C147.1,470,146.6,469.1,146.5,468.1z"/>
	<path id="XMLID_1018_" class="st4" d="M405.3,249.5c1.2-0.7,2.5-1.4,4-2.2c0.4,2-1.2,2.8-1.6,4.1
		C406.7,251.1,405.9,250.4,405.3,249.5z"/>
	<path id="XMLID_1017_" class="st4" d="M175.3,482.8c-1.3,0.6-2.5,1.2-4.8,2.3c1.3-2.1,2.1-3.3,2.9-4.6
		C174.1,481.3,174.7,482,175.3,482.8z"/>
	<path id="XMLID_1016_" class="st4" d="M133.8,441.8c1.1-0.4,1.9-1.5,3.4-1.4c0,1.9-1.5,2.8-2.3,4
		C134,443.8,133.9,442.8,133.8,441.8z"/>
	<path id="XMLID_1015_" class="st4" d="M395.8,226.3c0.6-1,1.2-2,1.8-2.9c1,0.2,1.8,0.6,2.3,1.5c-1.2,0.7-2.4,1.4-3.6,2.1
		C396.2,226.8,396,226.6,395.8,226.3z"/>
	<path id="XMLID_1014_" class="st1" d="M447.4,235.6c-1.8,1.2-3.4,2.6-5.7,2.9C443,236.3,444.9,235.3,447.4,235.6z"/>
	<path id="XMLID_1013_" class="st2" d="M360.8,531.1c-0.4,0.6-0.7,1.4-1.6,0.6C359.5,530.8,360.1,531,360.8,531.1z"/>
	<path id="XMLID_1012_" class="st1" d="M227.6,215.1c-0.5,0.5-0.9,1.1-1.8,0.9C226,215,226.8,215,227.6,215.1z"/>
	<path id="XMLID_1011_" class="st1" d="M361.5,552c0.3-0.7,0.7-1.1,1.5-0.8C362.9,552.3,362.2,552.1,361.5,552z"/>
	<path id="XMLID_1010_" class="st4" d="M137.2,306.7c0.3,0.6-0.3,0.8-0.7,1C136.6,307.2,136.6,306.7,137.2,306.7z"/>
	<path id="XMLID_1009_" class="st1" d="M139.5,302.2c0,0.6-0.5,0.7-0.9,0.9C138.8,302.7,138.8,302.1,139.5,302.2z"/>
	<path id="XMLID_1008_" class="st3" d="M144.8,290.9c-0.2,0.3-0.4,0.5-0.5,0.8C144.4,291.5,144.6,291.2,144.8,290.9z"/>
	<path id="XMLID_1007_" class="st3" d="M145.5,290.2c0.5,1-0.2,0.9-0.7,0.8C144.8,290.6,144.8,290.1,145.5,290.2z"/>
	<path id="XMLID_1006_" class="st1" d="M149.3,284.2c-0.1,0.7-0.6,0.8-1.1,0.8C148.4,284.6,148.6,284.1,149.3,284.2z"/>
	<path id="XMLID_1005_" class="st1" d="M181.4,268.5c-0.3-0.7,0.4-0.8,0.8-1.1C182.3,268,182.1,268.4,181.4,268.5z"/>
	<path id="XMLID_1004_" class="st1" d="M417,264c-0.1,0.7-0.6,0.8-1.1,0.8C416.1,264.4,416.4,263.9,417,264z"/>
	<path id="XMLID_1003_" class="st1" d="M167.3,259.5c0.1,0.9-0.5,0.9-1.1,0.9C166.6,260.2,167,259.9,167.3,259.5z"/>
	<path id="XMLID_1002_" class="st1" d="M360.6,552.7c0.3-0.2,0.6-0.4,0.9-0.7C361.5,552.6,361.1,552.7,360.6,552.7z"/>
	<path id="XMLID_1001_" class="st1" d="M441.8,238.5c-0.1,0.7-0.6,0.8-1.1,0.8C441,239.1,441.4,238.8,441.8,238.5z"/>
	<path id="XMLID_989_" class="st5" d="M398.8,338.9c0.8,2.2,1.5,4.4,2.3,6.6c-16.7,10.2-33,21.1-49.3,31.8c-2,0.9-3.8,2.1-5.4,3.6
		c-0.3,0.2-0.6,0.4-0.9,0.6c-0.3,0.2-0.7,0.5-1,0.7c0.6,0.4,1,0.2,1.4-0.3c0.3-0.2,0.6-0.4,0.9-0.6c2.2-0.7,4-1.9,5.7-3.3
		c16.5-9.5,33.1-19.1,49.6-28.6c1.1,2.2,1.4,4.6,1.9,6.9c-14.7,9.5-29.3,19-44,28.5c-1.8,0.8-3.4,1.7-5.2,3.8c2.7-0.7,4.4-1.9,6-3.1
		c14.7-8.4,29.3-16.8,44-25.1c1.5,7.7,2.1,15.5,1.6,23.3c-7.2,4.6-14.4,9.2-21.6,13.8c-1.7,0.8-3.4,1.7-5.1,3.9
		c2.7-0.6,4.4-1.7,6-3.1c6.9-3.9,13.8-7.7,20.7-11.6c0.3,2.9-0.4,5.7-0.7,8.5c-0.4,0.1-0.7,0.3-0.6,0.8c0,0,0.1,0,0.1,0
		c-0.5,0.1-1,0.1-1.4,0.3c-11.3,7.6-22.7,15.3-34,22.9c-2.2,1.3-4.4,2.7-7.4,4.6c4-0.3,6.1-2.2,8.4-3.7c11.4-6.5,22.8-13,34.1-19.5
		c-0.5,3.3-1,6.5-2.2,9.6c-0.2,0.3-0.4,0.5-0.6,0.8c0,0,0.1,0,0.1,0c-2.1,0.2-3.5,1.8-5.1,2.9c-6.5,4.3-13,8.7-19.5,13.1
		c0.2,0.4,0.4,0.7,0.6,1.1c7.7-4.4,15.4-8.8,23.1-13.2c-0.9,4.1-2.3,7.9-4.4,11.5c-4.4,2-8.1,5.2-12,7.9c-1.8,0.9-3.4,1.9-4.8,3.4
		c-0.3,0.3-0.7,0.5-1,0.8c0.6,0.6,1,0.1,1.4-0.4c2-0.7,3.7-1.7,5.3-3c3.2-1.8,6.4-3.5,9.6-5.3c-2.3,5.1-5.2,9.7-8.6,14.2
		c-2.7,3.5-5.2,7.2-8.2,10.5c-2.3,2.5-4.8,4.9-7.7,6.9c-0.5,0-1,0-1,0.7c0,0,0.1,0,0.1,0c-0.8-0.2-1.4-0.1-1.5,0.9
		c0,0,0.1-0.1,0.1-0.1c-1-0.4-1.7,0.3-2.4,0.7c-8.5,4.9-17,9.9-25.5,14.8c-7,4.2-14.8,5.4-22.7,6.5c1.7-2.7,4.8-3.6,6.9-5.7
		c1.5-0.7,2.8-1.6,4-2.8c0.3-0.2,0.6-0.4,0.9-0.7c0.3-0.2,1.2-0.2,0.8-0.8c-0.3-0.4-0.9-0.1-1.2,0.4c-0.3,0.2-0.6,0.4-1,0.5
		c-1.6,0.6-3.1,1.3-4.3,2.5c-3.9,2.3-7.9,4.6-11.8,6.9c-4.2,1-8.4,1-12.7,0.1c8.7-6.1,17.3-12.2,26-18.3c-0.2-0.3-0.4-0.6-0.6-0.9
		c-10.7,6.2-21.4,12.4-32.1,18.6c-3.2-0.2-6.3-0.6-9.3-1.8c1.2-0.9,2.4-1.8,3.6-2.6c10.2-7,20.5-13.9,30.7-20.9
		c0.3-0.3,0.5-0.6,0.8-0.9c-0.6-0.5-1-0.2-1.4,0.3c-2.4,1.3-4.9,2.5-7.2,3.9c-10.7,6.2-21.3,12.5-31.9,18.7
		c-2.9-0.4-5.7-1.4-8.2-2.9c10.1-6.8,20.1-13.6,30.2-20.4c5.8,1.7,8.1,0.1,8.7-5.9c3.1-2,6.3-4.1,9.4-6.1c-3.7,0.3-6.4,2.5-9.4,4
		c-0.9-3.5,0.4-4.8,4-5.6c16.9-3.5,27.7-18.5,27.2-36.7c-0.5-16-12.1-28.9-28.4-31.5c-2.3-0.4-3.1-1.2-3.1-3.6
		c0.1-17.1,0.1-34.2,0-51.4c0-2.8,1-3.1,3.3-2.5c6.6,1.5,12.6,4.2,17.6,8.7c2,1.7,4.1,2.3,6.5,2.1c1.7-0.2,3.9,0.1,4.6-1.8
		c0.7-1.9-1.1-3.2-2.5-4.2c-7.8-6.1-16.4-10.5-26.2-12.1c-3-0.5-3.9-1.4-3.1-4.2c13.8-7.8,27.5-15.5,41-23.8c2.3,1,4.6,2,6.5,3.7
		c-3.8,2.6-7.7,5.1-11.5,7.7c-0.5,0.3-1,0.6-1.6,0.8c0.8,0.7,1.5,0.4,2.1-0.2c4.3-2.4,8.6-4.8,12.8-7.2c2.2,1,4.1,2.3,5.8,4
		c-7,4.5-14,9.1-21,13.6c-1.7,0.8-3.5,1.7-5.3,4c2.8-0.9,4.5-2,6.1-3.3c7.5-4.1,14.9-8.2,22.1-12.9c4.2,2.6,7.6,6,10.9,9.7
		c-3.6,2.3-7.2,4.6-10.8,6.9c0.2,0.3,0.4,0.6,0.6,0.9c3.8-2.1,7.7-4.3,11.5-6.4c1.7,1.3,3,3,4.2,4.8c-1,0.7-2,1.5-3,2.1
		c-17.6,11.5-35.2,23.1-52.8,34.6c-2,0.9-3.8,2.1-5.4,3.5c-0.9,0.5-2.2,0.6-2.3,2.1c1.7,0.7,2.2-0.6,2.9-1.6c2-0.9,4-1.9,5.7-3.3
		c3.6-1.8,7.2-3.8,10.7-5.9c13.6-8.1,27.4-15.9,41.1-23.9c2-1.2,4.6-1.2,6-3.4c2.3,1,3,3.4,4.2,5.3c-3.4,0.8-5.5,3.5-8.2,5.3
		c-10.7,7-21.4,14.1-32.2,21.1c-7.5,4.8-15.2,9.5-22.4,14.9c-2.7,1.4-5.3,3.1-7.7,5.1c-0.9,0.3-2.2,0-2.5,1.4c1.4,0.6,2.2-0.2,3-0.9
		c2.6-1.1,5.1-2.5,7.4-4.2c1.3-0.7,2.6-1.4,3.9-2.1c20.6-11.8,41.1-23.7,61.7-35.5c2.3,3.8,4.3,7.8,5.8,12.1
		c-8.8,5.6-17.7,11.2-26.5,16.9c-1.7,0.8-3.4,1.7-5.1,3.8c2.7-0.7,4.4-1.8,6-3.1C381,349,389.9,344,398.8,338.9z M336.4,310.2
		c-0.3,0.3-0.6,0.5-1,0.8c0.6,0.4,1,0.2,1.4-0.3c0.2-0.2,0.6-0.6,0.6-0.6C337.1,309.6,336.8,309.9,336.4,310.2z M353.8,389
		c-0.6,0.1-1.1,0.3-1.4,0.9c-0.2,0.2-0.3,0.4-0.5,0.6c0.2-0.1,0.5-0.2,0.7-0.3c0.6,0,1.2-0.2,1.5-0.8c0.3-0.1,0.7-0.2,0.5-0.6
		C354.6,388.7,354.1,388.9,353.8,389z M364,358.8c0.9-0.2,1.7-0.4,2.1-1.5c-1.2-0.3-1.8,0.4-2.5,1.1c-0.3,0.1-0.7,0.2-0.5,0.6
		C363.2,359.1,363.7,358.8,364,358.8z M377.5,403c0.9-0.2,1.8-0.4,2.1-1.5c-1.3-0.3-1.9,0.4-2.5,1.1c-0.3,0.1-0.7,0.2-0.4,0.6
		C376.7,403.3,377.2,403.1,377.5,403z M359.5,315.2c0.8-0.2,1.8-0.3,2-1.5c-1.2-0.3-1.8,0.4-2.4,1.2c-0.3,0.1-0.7,0.2-0.5,0.6
		C358.7,315.6,359.2,315.3,359.5,315.2z M364.5,311.3c-0.9,0.4-1.9,0.8-2.4,1.9c1.3,0.4,1.9-0.3,2.5-0.8c0.3-0.2,0.5-0.5,0.8-0.7
		C365.1,311.6,364.8,311.5,364.5,311.3z M361.9,359.9c0.1-0.1,0.2-0.2,0.3-0.2c-0.1-0.1-0.2-0.2-0.3-0.2c-0.1,0-0.2,0.1-0.3,0.2
		C361.7,359.7,361.8,359.8,361.9,359.9z M357.7,316.2c-0.1-0.1-0.2-0.2-0.2-0.2c-0.1,0-0.2,0.1-0.3,0.2c0.1,0.1,0.2,0.2,0.3,0.2
		C357.5,316.4,357.6,316.2,357.7,316.2z M350.6,391.3c0.1-0.1,0.2-0.1,0.3-0.2c-0.1-0.1-0.2-0.2-0.2-0.2c-0.1,0-0.2,0.1-0.3,0.2
		C350.5,391.2,350.6,391.3,350.6,391.3z M375.7,403.9c-0.1-0.1-0.2-0.2-0.2-0.2c-0.1,0-0.2,0.1-0.3,0.2c0.1,0.1,0.2,0.2,0.2,0.2
		C375.5,404.1,375.6,404,375.7,403.9z"/>
	<path id="XMLID_977_" class="st5" d="M200.2,386.8c-1-2.4-0.7-4.8-0.6-7.3c2.7-1.6,5.5-3.1,7.9-5.2c0-0.3,0.2-0.7,0.1-0.7
		c-0.6-0.2-1.1,0.2-1.5,0.6c-2.2,1.2-4.4,2.4-6.6,3.5c-0.4-2.7-0.3-5.3,0.1-8c15.9-10.6,31.7-21.2,47.6-31.8
		c0.3-0.3,0.6-0.6,0.8-0.9c-0.6-0.5-1-0.2-1.4,0.3c-1.5,0.8-3.1,1.5-4.6,2.4c-13.9,8-27.9,16.1-41.8,24.1c0.4-6.9,1.9-13.6,4.6-19.9
		c10.8-7.4,21.6-14.7,32.4-22.1c-0.2-0.4-0.5-0.7-0.7-1.1c-9.8,5.5-19.5,11.1-29.3,16.6c1.8-4.8,4.1-9.3,7.1-13.5
		c0.5,0,1-0.1,0.9-0.8c0,0-0.1,0-0.1,0c5.4-2.4,9.6-6.5,14.2-10.1c-4.5,0.8-7.7,4.1-11.9,5.5c7.8-12.8,18.5-22.7,31-30.7
		c6.3-4,12.9-7.4,20.1-9.5c-2.2,3-5.6,4.5-7.8,7.5c6-3,12.1-5.7,17.4-9.8c5.9-2.9,12.3-3.2,18.7-3.3c-9.2,6.7-18.3,13.3-27.5,20
		c0.2,0.3,0.4,0.7,0.6,1c12.2-7.1,24.4-14.2,36.5-21.3c3.6,0.2,7.2,0,10.7,1.2c-1,0.7-2,1.5-3,2.2c-12.7,8.9-25.4,17.7-38.1,26.6
		c-0.4,0.5-1.7,0.1-1.3,1c0.2,0.5,1.3,0.2,1.8-0.4c3.9-2.2,7.9-4.3,11.8-6.5c12.2-7.1,24.3-14.2,36.5-21.4c3.1,0.2,6,1,8.8,2.3
		c-1.1,1.4-3.2,1.6-4.2,3.9c2.5-0.7,4.3-1.8,5.9-3.2c2.9,0.4,5.6,1.4,8.1,2.9c-11.7,7.9-23.5,15.7-35.2,23.6c-0.4-2.7,0.4-6.4-4.1-6
		c-4.2,0.4-5.8,1.3-5.4,6.6c0.1,0.9-0.1,1.8,0,2.6c0.5,3-0.9,4.2-3.7,4.7c-7.3,1.4-13.5,5-18.5,10.5c-14,15.3-12.9,43.8,9.5,55.1
		c-0.5,0.4-1,0.8-1.5,1.2l0.1,0c-0.5,0-0.9,0.2-0.8,0.8l0,0c-1.2-0.1-2.3-0.2-2.3,1.5c0,0,0,0,0,0c-2.6-0.3-4.3,1.6-6.2,2.9
		c-4,2.3-8,4.5-12,6.8c-17.8,10.3-35.5,20.6-53.2,30.9c-1.4-2-2.4-4.1-2.8-6.5c18.2-11.9,36.5-23.7,54.7-35.6c2-0.9,3.8-2.1,5.4-3.5
		c1.1-0.4,2.2-0.9,2.9-2.4c-1.7,0.3-2.6,0.9-3.5,1.8c-2.1,0.8-4,1.9-5.7,3.3c-6.6,3.8-13.2,7.5-19.8,11.3
		c-12,6.9-23.9,13.9-35.8,20.9c-1.1-2.1-1.9-4.3-2.1-6.6c3.6-2.3,7.2-4.5,10.9-6.8c-4.4,0.7-7.7,3.4-11.4,5.2
		c-1.6-4.6-2.6-9.4-3-14.2c6.7-4.3,13.4-8.5,20.1-12.8c0.9-0.4,2-0.7,2.4-1.9c-1.2-0.5-1.7,0.3-2.4,0.7
		C213.7,379.1,206.9,383,200.2,386.8z M213.1,370.6c0.4-0.2,0.7-0.4,1.1-0.6c-0.1-0.1-0.1-0.2-0.2-0.2c-0.5-0.1-0.8,0.1-1,0.6
		c-0.3,0.1-0.8,0.1-0.5,0.5C212.7,371.3,213,371,213.1,370.6z M225.5,372.5c-0.8,0.3-1.8,0.3-2,1.7c1.1-0.1,1.9-0.6,2.4-1.4
		c0.3-0.1,0.7-0.2,0.4-0.6C226.3,372.2,225.8,372.4,225.5,372.5z M221.2,393.7c-1-0.1-1.9,0-2,1.5
		C220.1,394.8,220.9,394.7,221.2,393.7c0.2-0.1,0.4-0.2,0.6-0.2c-0.1-0.1-0.2-0.2-0.3-0.3C221.4,393.4,221.3,393.6,221.2,393.7z
		 M327.3,283c0.9-0.2,1.8-0.4,2.1-1.5c-1.3-0.3-1.9,0.4-2.5,1.1c-0.3,0.2-0.7,0.2-0.4,0.7C326.4,283.3,327,283.1,327.3,283z
		 M216,397.4c0.9-0.4,1.8-0.8,2.5-2.1c-1.3,0.1-2,0.5-2.5,1.2c-0.3,0.2-0.5,0.4-0.8,0.6C215.4,397.2,215.7,397.3,216,397.4z
		 M211.8,371.2c-1.6,0.3-2.6,0.7-3.6,2.5C209.8,373.2,210.9,372.8,211.8,371.2z M271.8,373.6c-0.1,0.1-0.2,0.1-0.3,0.2
		c0.1,0.1,0.1,0.2,0.2,0.2c0.1,0,0.2-0.1,0.3-0.2C272,373.8,271.9,373.7,271.8,373.6z M227.6,371.4c-0.1,0.1-0.2,0.1-0.3,0.2
		c0.1,0.1,0.2,0.2,0.2,0.2c0.1,0,0.2-0.1,0.3-0.2C227.8,371.5,227.7,371.4,227.6,371.4z M223.3,392.6c-0.1-0.1-0.1-0.2-0.2-0.2
		c-0.1,0-0.2,0.1-0.2,0.2c0.1,0.1,0.1,0.2,0.2,0.2C223.2,392.8,223.2,392.7,223.3,392.6z M325.4,283.9c-0.1-0.1-0.2-0.2-0.3-0.2
		c-0.1,0-0.2,0.1-0.3,0.2c0.1,0.1,0.2,0.2,0.3,0.2C325.2,284.1,325.3,284,325.4,283.9z"/>
	<path id="XMLID_971_" class="st5" d="M233.4,454.3c-1.9-1.4-3.4-3.1-4.7-5c16.3-10.6,32.5-21.1,48.8-31.7c1.7-0.8,3.5-1.7,5.1-3.8
		c-2.7,0.6-4.4,1.7-5.9,3c-16.9,9.7-33.8,19.4-50.7,29.2c-1.7-1.5-3-3.2-4-5.1c8.5-5.5,17.1-11,25.6-16.5c1.7-0.8,3.5-1.7,5.1-3.8
		c-2.7,0.6-4.4,1.7-6,3.1c-8.8,5.1-17.5,10.1-26.3,15.2c-3-3.5-5.4-7.4-7.3-11.6c21.2-13.9,42.4-27.8,63.7-41.7
		c1.9-1,3.9-1.9,5.3-3.7c0,0,0,0,0,0c1.1-0.1,1.9-0.5,2.3-1.5c0,0,0,0,0,0c0.5,0,0.9-0.2,0.8-0.8c0,0-0.1,0-0.1,0
		c0.9,0.2,1.4-0.2,1.9-0.9c3.9,1.1,7.8,2.1,11.6,3.2c0,18.9,0,37.8,0,56.8c-0.5,0-1,0-1.5,0c-0.5-0.2-1.1-0.3-1.6-0.5
		c-6.5-1-12-3.9-16.9-8.2c2.9-1.8,5.7-3.7,8.6-5.5c-0.2-0.3-0.4-0.6-0.6-0.9c-3,1.8-6,3.6-9,5.5c-1.7-1.3-3.7-1.4-5.7-1.2
		c-1.7,0.2-3.8-0.1-4.7,1.7c-0.9,1.8,1.1,2.8,1.9,4.2C257.1,440.5,245.3,447.4,233.4,454.3z M254.7,419c-0.9,0.2-1.8,0.4-2.1,1.6
		c1.3,0.3,1.9-0.4,2.5-1.1c0.3-0.2,0.7-0.3,0.4-0.7C255.5,418.6,255,418.9,254.7,419z M284.8,412.3c-0.8,0.2-1.8,0.3-2,1.5
		c1.2,0.3,1.8-0.5,2.4-1.2c0.3-0.1,0.7-0.2,0.5-0.6C285.6,411.9,285,412.2,284.8,412.3z M287.1,411.4c-0.1-0.1-0.2-0.2-0.2-0.2
		c-0.1,0-0.2,0.1-0.3,0.2c0.1,0.1,0.2,0.2,0.2,0.2C286.9,411.6,287,411.4,287.1,411.4z M256.7,417.9c0,0.1-0.1,0.1-0.1,0.2
		c0.1,0,0.3,0,0.4,0c0-0.1,0-0.2-0.1-0.2C256.9,417.9,256.8,417.9,256.7,417.9z"/>
	<path id="XMLID_967_" class="st5" d="M254.6,471c-6.8-3.6-12.7-8.3-18.1-13.7c11.4-7.5,22.8-14.9,34.2-22.4
		c6.6,4.1,13.3,7.9,20.8,10c2.5,0.7,6.4,0.7,7.3,2.3c1.2,2.3,0.3,5.8,0.2,8.8c-11.6,6.7-23.3,13.4-34.9,20.1c-2.5-0.8-4.8-2-6.8-3.6
		c9.2-6,18.5-12.1,27.7-18.1c1.7-0.8,3.4-1.7,5.1-3.8c-2.7,0.6-4.3,1.8-6,3.1C274.2,459.3,264.1,464.6,254.6,471z M292.3,449.1
		c-0.9,0.2-1.8,0.3-2.1,1.7c1.1-0.2,1.9-0.6,2.4-1.4c0.2-0.2,0.3-0.4,0.5-0.6C292.8,448.9,292.6,449,292.3,449.1z M294.6,448.1
		c-0.1-0.1-0.1-0.2-0.2-0.2s-0.2,0.1-0.3,0.2c0.1,0.1,0.2,0.2,0.2,0.2C294.4,448.3,294.5,448.2,294.6,448.1z"/>
	<path id="XMLID_966_" class="st6" d="M392.1,324.5c-20.6,11.8-41.1,23.7-61.7,35.5c-1.3,0.7-2.6,1.4-3.9,2.1
		c-0.1-0.5-0.1-0.9-0.2-1.4c7.2-5.4,14.8-10.1,22.4-14.9c10.8-6.9,21.4-14.1,32.2-21.1c2.7-1.8,4.9-4.5,8.2-5.3
		C390.1,321.1,391.1,322.8,392.1,324.5z"/>
	<path id="XMLID_965_" class="st6" d="M276.7,385.4c-21.2,13.9-42.4,27.8-63.7,41.7c-1.1-1.5-2-3.1-2.5-4.9
		c17.7-10.3,35.5-20.6,53.2-30.9c4-2.3,8-4.5,12-6.8C276.1,384.9,276.4,385.2,276.7,385.4z"/>
	<path id="XMLID_964_" class="st6" d="M326.3,346.5c17.6-11.5,35.2-23,52.8-34.6c1-0.7,2-1.4,3-2.1c1.1,1.3,2.6,2.4,2.8,4.3
		c-1.4,2.2-4,2.3-6,3.4c-13.7,8-27.5,15.8-41.1,23.9c-3.5,2.1-7,4.1-10.7,5.9C326.8,347.1,326.5,346.8,326.3,346.5z"/>
	<path id="XMLID_963_" class="st6" d="M206,411.6c11.9-7,23.9-14,35.8-20.9c6.6-3.8,13.2-7.5,19.8-11.3c0.3,0.3,0.6,0.5,0.8,0.8
		c-18.2,11.9-36.5,23.7-54.7,35.6C206.7,414.6,206.4,413.1,206,411.6z"/>
	<path id="XMLID_962_" class="st6" d="M308.6,304.7c11.7-7.9,23.5-15.7,35.2-23.6c2.1,0.4,3.9,1.6,5.8,2.6
		c-13.5,8.3-27.3,16-41,23.8C308.6,306.5,308.6,305.6,308.6,304.7z"/>
	<path id="XMLID_961_" class="st6" d="M276.3,302.5c12.7-8.8,25.4-17.7,38.1-26.6c1-0.7,2-1.5,3-2.2c2.7,0,5.2,0.5,7.7,1.5
		c-12.2,7.1-24.3,14.3-36.5,21.4c-3.9,2.3-7.8,4.4-11.8,6.5C276.7,302.9,276.5,302.7,276.3,302.5z"/>
	<path id="XMLID_960_" class="st7" d="M225.9,446c16.9-9.7,33.8-19.4,50.7-29.2c0.3,0.3,0.6,0.5,0.9,0.8
		c-16.3,10.6-32.5,21.1-48.8,31.7C227.5,448.5,226.6,447.4,225.9,446z"/>
	<path id="XMLID_959_" class="st7" d="M247.2,338c-15.9,10.6-31.7,21.2-47.6,31.8c-0.3-2-0.1-4,0.6-5.9c13.9-8,27.9-16.1,41.8-24.1
		c1.5-0.9,3.1-1.6,4.6-2.4C246.8,337.6,247,337.8,247.2,338z"/>
	<path id="XMLID_958_" class="st7" d="M351.8,377.3c16.4-10.7,32.6-21.6,49.3-31.8c0.3,1.3,0.7,2.6,1,3.9
		c-16.5,9.5-33.1,19.1-49.6,28.6C352.3,377.8,352,377.5,351.8,377.3z"/>
	<path id="XMLID_957_" class="st6" d="M264.1,476.1c11.6-6.7,23.3-13.4,34.9-20.1c0.3,0.7,0.6,1.5,0.9,2.2
		c-10.1,6.8-20.1,13.6-30.2,20.4C267.7,478.1,265.8,477.3,264.1,476.1z"/>
	<path id="XMLID_956_" class="st7" d="M404.8,360.4c-14.7,8.4-29.3,16.8-44,25.1c-0.3-0.2-0.5-0.5-0.8-0.7c14.7-9.5,29.3-19,44-28.5
		C404.3,357.7,404.5,359,404.8,360.4z"/>
	<path id="XMLID_955_" class="st6" d="M270.7,434.9c-11.4,7.5-22.8,14.9-34.2,22.4c-1-1-2-2-3.1-3c11.9-6.9,23.8-13.9,35.6-20.8
		C269.6,434,270.1,434.5,270.7,434.9z"/>
	<path id="XMLID_954_" class="st7" d="M306.7,272.6c-12.2,7.1-24.4,14.2-36.5,21.3c-0.2-0.3-0.4-0.7-0.6-1
		c9.2-6.7,18.3-13.3,27.5-20C300.2,272.1,303.4,272.3,306.7,272.6z"/>
	<path id="XMLID_953_" class="st7" d="M277.9,481.5c10.6-6.2,21.3-12.5,31.9-18.7c2.4-1.4,4.8-2.6,7.2-3.9c0.2,0.2,0.4,0.4,0.6,0.6
		c-10.2,7-20.5,13.9-30.7,20.9c-1.2,0.8-2.4,1.7-3.6,2.6C281.5,482.9,279.6,482.4,277.9,481.5z"/>
	<path id="XMLID_952_" class="st7" d="M369.8,419.3c11.3-7.6,22.6-15.3,34-22.9c0.4-0.2,0.9-0.2,1.4-0.3c0.7,1.6-0.2,3.1-0.3,4.6
		c-11.4,6.5-22.8,13-34.1,19.5C370.4,419.8,370.1,419.6,369.8,419.3z"/>
	<path id="XMLID_951_" class="st7" d="M207.2,337.4c9.8-5.5,19.5-11.1,29.3-16.6c0.2,0.4,0.5,0.7,0.7,1.1
		c-10.8,7.4-21.6,14.7-32.4,22.1C205.1,341.6,206.1,339.5,207.2,337.4z"/>
	<path id="XMLID_950_" class="st7" d="M292.7,484.8c10.7-6.2,21.4-12.4,32.1-18.6c0.2,0.3,0.4,0.6,0.6,0.9
		c-8.6,6.1-17.3,12.2-26,18.3C297.2,485.4,294.9,485.6,292.7,484.8z"/>
	<path id="XMLID_949_" class="st8" d="M285,454.4c-9.2,6-18.5,12.1-27.7,18.1c-1-0.3-1.9-0.8-2.6-1.6c9.5-6.4,19.6-11.7,29.5-17.3
		C284.4,453.9,284.7,454.2,285,454.4z"/>
	<path id="XMLID_948_" class="st7" d="M401.2,414.9c-7.7,4.4-15.4,8.8-23.1,13.2c-0.2-0.4-0.4-0.7-0.6-1.1c6.5-4.4,13-8.8,19.5-13.1
		c1.6-1.1,3-2.7,5.1-2.9C402.5,412.5,401.9,413.7,401.2,414.9z"/>
	<path id="XMLID_947_" class="st8" d="M398.8,338.9c-8.9,5.1-17.8,10.1-26.7,15.2c-0.3-0.2-0.6-0.5-0.8-0.7
		c8.8-5.6,17.7-11.2,26.5-16.9C398.2,337.3,398.5,338.1,398.8,338.9z"/>
	<path id="XMLID_946_" class="st8" d="M247.5,424.4c-8.5,5.5-17.1,11-25.6,16.5c-0.5-0.7-1-1.4-1.5-2.2c8.8-5.1,17.5-10.1,26.3-15.2
		C246.9,423.9,247.2,424.2,247.5,424.4z"/>
	<path id="XMLID_945_" class="st2" d="M340.5,478.4c8.5-4.9,17-9.9,25.5-14.8c0.7-0.4,1.4-1.1,2.4-0.7c0.4,1-0.6,1.2-1.1,1.6
		c-7.3,5.7-15.3,10.2-24,13.6C342.4,478.4,341.5,478.7,340.5,478.4z"/>
	<path id="XMLID_944_" class="st8" d="M406.4,386.8c-6.9,3.9-13.8,7.7-20.7,11.6c-0.3-0.3-0.6-0.5-0.9-0.8
		c7.2-4.6,14.4-9.2,21.6-13.8C406.4,384.7,406.4,385.8,406.4,386.8z"/>
	<path id="XMLID_943_" class="st8" d="M365.7,294c-7.1,4.7-14.6,8.8-22.1,12.9c-0.3-0.3-0.6-0.5-0.8-0.8c7-4.5,14-9.1,21-13.6
		C364.6,292.7,365.3,293.2,365.7,294z"/>
	<path id="XMLID_942_" class="st7" d="M278.3,276.1c-5.4,4.1-11.5,6.9-17.4,9.8c2.2-3.1,5.7-4.6,7.8-7.5
		C271.8,277.4,274.7,275.5,278.3,276.1z"/>
	<path id="XMLID_941_" class="st8" d="M200.2,386.8c6.8-3.8,13.5-7.7,20.3-11.5c0,0.4,0,0.8,0,1.2c-6.7,4.3-13.4,8.5-20.1,12.8
		C200.3,388.4,200.3,387.6,200.2,386.8z"/>
	<path id="XMLID_940_" class="st8" d="M217.5,318.7c4.1-1.4,7.3-4.8,11.9-5.5c-4.6,3.6-8.8,7.7-14.2,10.1
		C214.9,321.1,216.5,320.1,217.5,318.7z"/>
	<path id="XMLID_939_" class="st8" d="M384.8,434.3c3.9-2.8,7.6-5.9,12-7.9c-0.1,1.3-0.8,2.4-1.5,3.4c-3.2,1.8-6.4,3.5-9.6,5.3
		C385.4,434.8,385.1,434.6,384.8,434.3z"/>
	<path id="XMLID_938_" class="st7" d="M312.1,485.3c3.9-2.3,7.9-4.6,11.8-6.9c0.3,0.3,0.6,0.6,0.9,0.8c-2.1,2.1-5.2,3-6.9,5.7
		C315.9,485.4,314,485.4,312.1,485.3z"/>
	<path id="XMLID_937_" class="st9" d="M344.6,295c3.8-2.6,7.7-5.1,11.5-7.7c0.8,0.1,1.4,0.6,1.9,1.1c-4.3,2.4-8.6,4.8-12.8,7.2
		C345,295.5,344.8,295.3,344.6,295z"/>
	<path id="XMLID_936_" class="st9" d="M377.9,305c-3.8,2.1-7.7,4.3-11.5,6.4c-0.2-0.3-0.4-0.6-0.6-0.9c3.6-2.3,7.2-4.6,10.8-6.9
		C377,304.1,377.4,304.6,377.9,305z"/>
	<path id="XMLID_935_" class="st9" d="M203.4,403.5c3.7-1.9,7-4.5,11.4-5.2c-3.6,2.3-7.2,4.5-10.9,6.8
		C203.4,404.6,203.2,404.1,203.4,403.5z"/>
	<path id="XMLID_934_" class="st9" d="M199.5,377.7c2.2-1.2,4.4-2.4,6.6-3.5c0.4,0,0.9,0.1,1.3,0.1c-2.4,2.1-5.2,3.6-7.9,5.2
		C199.6,378.9,199.5,378.3,199.5,377.7z"/>
	<path id="XMLID_933_" class="st10" d="M335.7,278.2c-1.6,1.4-3.5,2.5-5.9,3.2c1-2.2,3.1-2.5,4.2-3.9
		C334.6,277.5,335.3,277.4,335.7,278.2z"/>
	<path id="XMLID_932_" class="st2" d="M368.3,462.9c0.1-1,0.7-1,1.5-0.9C369.5,462.6,369.3,463.5,368.3,462.9z"/>
	<path id="XMLID_931_" class="st2" d="M369.8,462.1c0-0.8,0.5-0.7,1-0.7C370.6,461.8,370.3,462.1,369.8,462.1z"/>
	<path id="XMLID_930_" class="st7" d="M405.1,396.1c-0.1-0.5,0.2-0.7,0.6-0.8C405.6,395.7,405.9,396.2,405.1,396.1z"/>
	<path id="XMLID_929_" class="st8" d="M215.2,323.1c0,0.7-0.4,0.8-0.9,0.8C214.5,323.5,214.4,322.8,215.2,323.1z"/>
	<path id="XMLID_928_" class="st7" d="M402,411.1c0.2-0.3,0.4-0.5,0.6-0.8C402.6,410.7,402.8,411.3,402,411.1z"/>
	<path id="XMLID_927_" class="st4" d="M373.5,543c-0.3-0.3-0.6-0.5-0.9-0.8c1.7-1,3.4-2.1,5.2-3.1
		C376.9,541.1,375.2,542.1,373.5,543z"/>
	<path id="XMLID_926_" class="st4" d="M129.8,351.8c-0.2,0.2-0.4,0.3-0.6,0.5c0-0.1-0.1-0.2-0.1-0.3
		C129.3,351.9,129.6,351.9,129.8,351.8L129.8,351.8z"/>
	<path id="XMLID_925_" class="st4" d="M129.8,351.8c0.1-0.2,0.1-0.3,0.2-0.5c0,0.1,0,0.2,0,0.2C130,351.7,129.9,351.7,129.8,351.8
		C129.8,351.8,129.8,351.8,129.8,351.8z"/>
	<path id="XMLID_924_" class="st4" d="M150.9,466.6c0-0.2,0-0.3,0-0.5c0,0,0.1,0.1,0.1,0.1C150.9,466.4,150.9,466.5,150.9,466.6
		C150.8,466.6,150.9,466.6,150.9,466.6z"/>
	<path id="XMLID_923_" class="st3" d="M162.8,484.5c-0.3-0.2-0.3-0.4,0.1-0.6c0.1,0,0.2,0.1,0.3,0.1
		C163.1,484.2,162.9,484.3,162.8,484.5C162.7,484.5,162.8,484.5,162.8,484.5z"/>
	<path id="XMLID_922_" class="st4" d="M171,492.7c0.1-0.2,0.3-0.3,0.4-0.5c0.3,0.4,0.2,0.6-0.3,0.6C171.1,492.9,171,492.7,171,492.7
		z"/>
	<path id="XMLID_921_" class="st4" d="M200.3,519c0-0.2,0.1-0.3,0.1-0.5c0,0.1,0.1,0.2,0.1,0.2C200.4,518.9,200.3,518.9,200.3,519
		C200.2,519,200.3,519,200.3,519z"/>
	<path id="XMLID_920_" class="st4" d="M220.1,525.5c-0.3,0-0.6,0.1-0.8,0.1c0.1-0.2,0.3-0.5,0.4-0.7
		C219.8,525.1,220,525.3,220.1,525.5z"/>
	<path id="XMLID_919_" class="st4" d="M231.1,531.2c-0.3,0.1-0.6,0.3-0.9,0.4c0-0.3,0.1-0.6,0.1-0.9
		C230.6,530.8,230.9,531,231.1,531.2z"/>
	<path id="XMLID_918_" class="st4" d="M232.6,538.5c0.1-0.2,0.1-0.3,0.2-0.5c0,0.1,0,0.2,0,0.2C232.7,538.4,232.6,538.4,232.6,538.5
		C232.5,538.5,232.6,538.5,232.6,538.5z"/>
	<path id="XMLID_917_" class="st4" d="M379,538.6c0.1,0,0.2,0,0.3,0c-0.1,0.2-0.1,0.3-0.2,0.5c-0.1-0.1-0.2-0.2-0.2-0.3
		C378.8,538.8,378.9,538.7,379,538.6z"/>
	<polygon id="XMLID_916_" class="st2" points="298.9,550.1 298.7,550.2 298.7,550 	"/>
	<path id="XMLID_915_" class="st4" d="M229.5,229.5c0.3,0.3,0.6,0.6,0.9,0.9c-2.2,1.7-4.4,3.1-7.4,3.2
		C225.2,232.2,227.4,230.9,229.5,229.5z"/>
	<path id="XMLID_914_" class="st4" d="M411,238.5c-0.1,0.1-0.2,0.3-0.3,0.4c0-0.1,0-0.2,0-0.2C410.8,238.6,410.9,238.6,411,238.5
		C411,238.5,411,238.5,411,238.5z"/>
	<path id="XMLID_913_" class="st4" d="M395.2,227.2c-0.1,0.1-0.2,0.3-0.3,0.4c0-0.1,0-0.1,0-0.2
		C395.1,227.4,395.2,227.3,395.2,227.2C395.3,227.3,395.2,227.2,395.2,227.2z"/>
	<path id="XMLID_912_" class="st4" d="M395.3,227.3c0.2-0.3,0.4-0.6,0.6-0.9c0.2,0.2,0.4,0.4,0.5,0.7
		C396,227.1,395.6,227.1,395.3,227.3C395.2,227.2,395.3,227.3,395.3,227.3z"/>
	<path id="XMLID_911_" class="st2" d="M363.6,217.4c0.3-0.1,0.5-0.2,0.8-0.4c0,0.3-0.1,0.6-0.1,0.9
		C364.1,217.7,363.8,217.5,363.6,217.4z"/>
	<path id="XMLID_910_" class="st2" d="M335.3,209.3c0-0.2,0-0.3,0-0.5C336,209.1,335.3,209.1,335.3,209.3
		C335.3,209.3,335.3,209.3,335.3,209.3z"/>
	<path id="XMLID_909_" class="st3" d="M314.8,206.1c0.3-0.1,0.6-0.2,0.9-0.4c0,0.3-0.1,0.6-0.1,0.9
		C315.3,206.4,315.1,206.3,314.8,206.1z"/>
	<path id="XMLID_908_" class="st4" d="M445.5,282.8c0-0.2,0.1-0.4,0.1-0.6c0.1,0,0.2,0.1,0.3,0.1
		C445.8,282.5,445.7,282.6,445.5,282.8C445.5,282.7,445.5,282.8,445.5,282.8z"/>
	<path id="XMLID_907_" class="st3" d="M419.9,263.6c0,0.1-0.1,0.2-0.1,0.2c-0.1-0.1-0.2-0.2-0.4-0.2c0.1-0.1,0.2-0.2,0.3-0.2
		C419.7,263.4,419.8,263.5,419.9,263.6z"/>
	<path id="XMLID_906_" class="st4" d="M400.4,240.6c0.2-0.1,0.5-0.2,0.7-0.3c-0.1,0.3-0.2,0.5-0.3,0.8
		C400.6,240.9,400.5,240.8,400.4,240.6z"/>
	<path id="XMLID_902_" class="st11" d="M270.7,434.9c-0.5-0.5-1.1-0.9-1.6-1.4c-0.7-1.3-2.7-2.4-1.9-4.2c0.9-1.8,3-1.5,4.7-1.7
		c2-0.2,4,0,5.7,1.2c0.3,0.3,0.7,0.6,1,0.9c4.9,4.2,10.4,7.2,16.9,8.2c0.4,0.5,1,0.6,1.6,0.5c0.5,0,1,0,1.5,0
		c1.1-0.5,0.6-1.5,0.6-2.3c0-17.4,0-34.7,0-52.1c0-0.8,0.4-1.8-0.6-2.3c-3.9-1.1-7.8-2.1-11.6-3.2c-0.1-0.2-0.2-0.3-0.4-0.3
		c-22.4-11.3-23.6-39.9-9.5-55.1c5-5.5,11.2-9.1,18.5-10.5c2.8-0.6,4.2-1.8,3.7-4.7c-0.1-0.9,0-1.7,0-2.6c-0.5-5.3,1.2-6.2,5.4-6.6
		c4.5-0.4,3.7,3.3,4.1,6c0,0.9,0,1.9,0,2.8c-0.8,2.8,0.1,3.7,3.1,4.2c9.8,1.6,18.4,6,26.2,12.1c1.4,1.1,3.2,2.3,2.5,4.2
		c-0.7,1.9-2.9,1.6-4.6,1.8c-2.4,0.3-4.5-0.3-6.5-2.1c-5.1-4.4-11.1-7.1-17.6-8.7c-2.3-0.6-3.4-0.3-3.3,2.5
		c0.1,17.1,0.1,34.2,0,51.4c0,2.4,0.8,3.2,3.1,3.6c16.3,2.6,27.9,15.5,28.4,31.5c0.6,18.3-10.3,33.2-27.2,36.7
		c-3.6,0.8-4.9,2.1-4,5.6c0,0.7,0,1.4,0,2c-0.6,6-2.9,7.6-8.7,5.9c-0.3-0.7-0.6-1.5-0.9-2.2c0-3,1-6.5-0.2-8.8
		c-0.8-1.6-4.7-1.6-7.3-2.3C283.9,442.8,277.2,439,270.7,434.9z M299.1,346.8c0-7.2,0-14.5,0-21.7c0-7.4-0.1-7.4-7-4.4
		c-10.4,4.7-16.3,15.2-15.4,27.9c0.7,11,9.7,22.5,19.9,25.4c2.2,0.6,2.5-0.1,2.5-2.1C299.1,363.5,299.1,355.2,299.1,346.8z
		 M308.4,410.8c0,7.2,0,14.5,0,21.7c0,7.2,0.1,7.3,6.7,4.3c10.6-4.6,16.6-15.4,15.6-28.1c-0.8-11.1-10.1-22.7-20-25.3
		c-2.4-0.6-2.4,0.6-2.4,2.3C308.4,394.1,308.4,402.5,308.4,410.8z"/>
	<path id="XMLID_901_" class="st9" d="M308.6,452.3c0-0.7,0-1.4,0-2c3-1.6,5.7-3.7,9.4-4C314.9,448.2,311.7,450.3,308.6,452.3z"/>
	<path id="XMLID_900_" class="st9" d="M326.3,360.8c0.1,0.5,0.1,0.9,0.2,1.4c-2.3,1.7-4.7,3.1-7.4,4.2c-0.2-0.2-0.3-0.3-0.5-0.5
		C321,363.9,323.5,362.2,326.3,360.8z"/>
	<path id="XMLID_899_" class="st9" d="M369.8,419.3c0.3,0.3,0.6,0.6,0.9,0.9c-2.3,1.5-4.3,3.5-8.4,3.7
		C365.4,422,367.6,420.6,369.8,419.3z"/>
	<path id="XMLID_898_" class="st10" d="M351.8,377.3c0.3,0.2,0.5,0.5,0.8,0.7c-1.7,1.4-3.6,2.6-5.7,3.3c-0.1-0.1-0.3-0.3-0.4-0.4
		C348,379.4,349.8,378.2,351.8,377.3z"/>
	<path id="XMLID_897_" class="st9" d="M384.8,434.3c0.3,0.3,0.6,0.5,0.9,0.8c-1.6,1.3-3.4,2.4-5.3,3c-0.1-0.1-0.2-0.3-0.4-0.4
		C381.3,436.2,383,435.2,384.8,434.3z"/>
	<path id="XMLID_896_" class="st9" d="M326.3,346.5c0.3,0.3,0.6,0.5,0.8,0.8c-1.7,1.5-3.7,2.4-5.7,3.3c-0.2-0.2-0.4-0.4-0.6-0.6
		C322.5,348.6,324.3,347.5,326.3,346.5z"/>
	<path id="XMLID_895_" class="st10" d="M384.8,397.6c0.3,0.3,0.6,0.5,0.9,0.8c-1.6,1.3-3.3,2.4-6,3.1
		C381.3,399.3,383,398.4,384.8,397.6z"/>
	<path id="XMLID_894_" class="st10" d="M371.3,353.4c0.3,0.2,0.6,0.5,0.8,0.7c-1.6,1.3-3.3,2.4-6,3.1
		C367.9,355,369.6,354.2,371.3,353.4z"/>
	<path id="XMLID_893_" class="st10" d="M360,384.8c0.3,0.2,0.5,0.5,0.8,0.7c-1.6,1.3-3.2,2.4-6,3.1
		C356.6,386.6,358.3,385.6,360,384.8z"/>
	<path id="XMLID_892_" class="st10" d="M342.8,306.1c0.3,0.3,0.6,0.5,0.8,0.8c-1.6,1.3-3.3,2.4-6.1,3.3
		C339.3,307.8,341,306.9,342.8,306.1z"/>
	<path id="XMLID_891_" class="st10" d="M324.7,479.2c-0.3-0.3-0.6-0.6-0.9-0.8c1.2-1.2,2.7-1.9,4.3-2.5c0.2,0.2,0.4,0.4,0.5,0.5
		C327.6,477.7,326.2,478.6,324.7,479.2z"/>
	<path id="XMLID_890_" class="st9" d="M321.4,350.6c-0.7,1-1.2,2.2-2.9,1.6c0.1-1.6,1.4-1.7,2.3-2.1
		C321,350.3,321.2,350.5,321.4,350.6z"/>
	<path id="XMLID_889_" class="st10" d="M364.6,312.4c-0.7,0.5-1.2,1.3-2.5,0.8c0.5-1.1,1.5-1.5,2.4-1.9
		C364.5,311.7,364.6,312,364.6,312.4z"/>
	<path id="XMLID_888_" class="st9" d="M319.1,366.3c-0.8,0.7-1.6,1.5-3,0.9c0.3-1.5,1.6-1.1,2.5-1.4
		C318.7,366,318.9,366.2,319.1,366.3z"/>
	<path id="XMLID_887_" class="st10" d="M359.1,314.9c0.6-0.7,1.2-1.4,2.4-1.1c-0.2,1.2-1.2,1.3-2,1.5
		C359.4,315.1,359.2,315,359.1,314.9z"/>
	<path id="XMLID_886_" class="st10" d="M377.1,402.6c0.6-0.7,1.2-1.4,2.5-1.1c-0.3,1.1-1.2,1.3-2.1,1.5
		C377.4,402.9,377.2,402.7,377.1,402.6z"/>
	<path id="XMLID_885_" class="st10" d="M363.6,358.4c0.6-0.7,1.2-1.4,2.5-1.1c-0.3,1.1-1.2,1.3-2.1,1.5
		C363.9,358.6,363.7,358.5,363.6,358.4z"/>
	<path id="XMLID_884_" class="st9" d="M345.2,295.7c-0.7,0.6-1.4,0.9-2.1,0.2c0.5-0.3,1-0.6,1.6-0.8
		C344.8,295.3,345,295.5,345.2,295.7z"/>
	<path id="XMLID_883_" class="st10" d="M345.9,381.9c-0.4,0.5-0.8,0.8-1.4,0.3c0.3-0.2,0.7-0.5,1-0.7
		C345.6,381.6,345.7,381.7,345.9,381.9z"/>
	<path id="XMLID_882_" class="st10" d="M354.1,389.4c-0.3,0.6-0.9,0.7-1.5,0.8l-0.2-0.2c0.2-0.6,0.8-0.8,1.4-0.9
		C353.9,389.1,354,389.2,354.1,389.4z"/>
	<path id="XMLID_881_" class="st7" d="M317.1,458.8c0.4-0.5,0.8-0.7,1.4-0.3c-0.3,0.3-0.6,0.6-0.8,0.9
		C317.5,459.3,317.3,459,317.1,458.8z"/>
	<path id="XMLID_880_" class="st10" d="M329.1,475.4c0.3-0.5,0.9-0.8,1.2-0.4c0.4,0.6-0.4,0.6-0.8,0.8
		C329.4,475.6,329.3,475.5,329.1,475.4z"/>
	<path id="XMLID_879_" class="st10" d="M336.9,310.7c-0.4,0.5-0.9,0.7-1.4,0.3c0.3-0.3,0.6-0.5,1-0.8
		C336.6,310.4,336.8,310.5,336.9,310.7z"/>
	<path id="XMLID_878_" class="st9" d="M380.3,438.1c-0.4,0.5-0.7,0.9-1.4,0.4c0.3-0.3,0.7-0.5,1-0.8
		C380.1,437.8,380.2,438,380.3,438.1z"/>
	<path id="XMLID_877_" class="st10" d="M361.9,359.9c-0.1-0.1-0.2-0.2-0.2-0.3c0.1-0.1,0.2-0.2,0.3-0.2c0.1,0,0.2,0.1,0.3,0.2
		C362.1,359.7,362,359.8,361.9,359.9z"/>
	<path id="XMLID_876_" class="st10" d="M364,358.8c-0.3,0.1-0.8,0.3-0.8,0.3c-0.3-0.4,0.2-0.5,0.5-0.6
		C363.7,358.5,363.9,358.6,364,358.8z"/>
	<path id="XMLID_875_" class="st10" d="M346.8,381.3c-0.3,0.2-0.6,0.4-0.9,0.6c-0.1-0.1-0.3-0.2-0.4-0.4c0.3-0.2,0.6-0.4,0.9-0.6
		C346.5,381,346.7,381.2,346.8,381.3z"/>
	<path id="XMLID_874_" class="st10" d="M357.7,316.2c-0.1,0.1-0.2,0.2-0.3,0.2c-0.1,0-0.2-0.2-0.3-0.2c0.1-0.1,0.2-0.2,0.3-0.2
		C357.5,315.9,357.6,316.1,357.7,316.2z"/>
	<path id="XMLID_873_" class="st10" d="M359.5,315.2c-0.3,0.1-0.8,0.3-0.8,0.3c-0.2-0.5,0.2-0.5,0.5-0.6
		C359.2,315,359.4,315.1,359.5,315.2z"/>
	<path id="XMLID_872_" class="st9" d="M364.6,312.4c0-0.4,0-0.7-0.1-1.1c0.3,0.1,0.6,0.2,0.9,0.4
		C365.1,311.9,364.9,312.2,364.6,312.4z"/>
	<path id="XMLID_871_" class="st10" d="M336.4,310.2c0.3-0.3,0.7-0.6,1-0.1c0,0-0.4,0.4-0.6,0.6
		C336.8,310.5,336.6,310.4,336.4,310.2z"/>
	<path id="XMLID_870_" class="st10" d="M353.8,389c0.3-0.1,0.8-0.3,0.8-0.3c0.2,0.5-0.2,0.5-0.5,0.6
		C354,389.2,353.9,389.1,353.8,389z"/>
	<path id="XMLID_869_" class="st10" d="M352.6,390.1c-0.2,0.1-0.5,0.2-0.7,0.3c0.2-0.2,0.3-0.4,0.5-0.6
		C352.4,389.9,352.6,390.1,352.6,390.1z"/>
	<path id="XMLID_868_" class="st10" d="M350.6,391.3c-0.1-0.1-0.2-0.1-0.2-0.2c0.1-0.1,0.2-0.2,0.3-0.2c0.1,0,0.2,0.1,0.2,0.2
		C350.8,391.2,350.7,391.3,350.6,391.3z"/>
	<path id="XMLID_867_" class="st10" d="M328.2,475.9c0.3-0.2,0.6-0.4,1-0.5c0.1,0.1,0.3,0.3,0.4,0.4c-0.3,0.2-0.6,0.4-0.9,0.7
		C328.5,476.3,328.3,476.1,328.2,475.9z"/>
	<path id="XMLID_866_" class="st10" d="M377.5,403c-0.3,0.1-0.8,0.3-0.8,0.3c-0.3-0.4,0.2-0.5,0.4-0.6
		C377.2,402.7,377.4,402.9,377.5,403z"/>
	<path id="XMLID_865_" class="st10" d="M375.7,403.9c-0.1,0.1-0.2,0.2-0.3,0.2c-0.1,0-0.2-0.2-0.2-0.2c0.1-0.1,0.2-0.2,0.3-0.2
		C375.5,403.7,375.6,403.8,375.7,403.9z"/>
	<path id="XMLID_864_" class="st10" d="M276.7,385.4c-0.3-0.3-0.6-0.5-0.9-0.8c1.9-1.3,3.6-3.1,6.2-2.9
		C280.7,383.6,278.6,384.4,276.7,385.4z"/>
	<path id="XMLID_863_" class="st10" d="M262.5,380.2c-0.3-0.3-0.6-0.5-0.8-0.8c1.7-1.4,3.6-2.5,5.7-3.3c0.2,0.2,0.4,0.4,0.5,0.6
		C266.3,378.1,264.5,379.3,262.5,380.2z"/>
	<path id="XMLID_862_" class="st10" d="M211.8,371.2c-0.9,1.6-2,1.9-3.6,2.5C209.1,371.9,210.2,371.6,211.8,371.2z"/>
	<path id="XMLID_861_" class="st10" d="M267.4,376.1c0.8-0.9,1.8-1.5,3.5-1.8c-0.7,1.5-1.8,1.9-2.9,2.4
		C267.7,376.5,267.6,376.3,267.4,376.1z"/>
	<path id="XMLID_860_" class="st10" d="M215.9,396.5c0.6-0.6,1.2-1.1,2.5-1.2c-0.6,1.3-1.6,1.7-2.5,2.1
		C216,397.1,215.9,396.8,215.9,396.5z"/>
	<path id="XMLID_859_" class="st10" d="M220.5,376.4c0-0.4,0-0.8,0-1.2c0.7-0.5,1.2-1.3,2.4-0.7C222.4,375.7,221.4,376,220.5,376.4z
		"/>
	<path id="XMLID_858_" class="st10" d="M284.3,380.2c-0.4,1-1.2,1.5-2.3,1.5C282,380.1,283.1,380.1,284.3,380.2z"/>
	<path id="XMLID_857_" class="st10" d="M326.8,282.6c0.6-0.7,1.2-1.4,2.5-1.1c-0.3,1.1-1.2,1.3-2.1,1.5
		C327.1,282.9,327,282.7,326.8,282.6z"/>
	<path id="XMLID_856_" class="st10" d="M221.3,393.8c-0.3,0.9-1.2,1.1-2,1.5C219.3,393.7,220.3,393.7,221.3,393.8L221.3,393.8z"/>
	<path id="XMLID_855_" class="st10" d="M225.9,372.9c-0.6,0.8-1.3,1.2-2.4,1.4c0.2-1.4,1.2-1.5,2-1.7
		C225.6,372.6,225.7,372.7,225.9,372.9z"/>
	<path id="XMLID_854_" class="st6" d="M276.9,303.1c-0.5,0.7-1.6,0.9-1.8,0.4c-0.4-0.9,0.9-0.5,1.3-1
		C276.5,302.7,276.7,302.9,276.9,303.1z"/>
	<path id="XMLID_853_" class="st7" d="M246.6,337.4c0.4-0.5,0.8-0.8,1.4-0.3c-0.3,0.3-0.6,0.6-0.8,0.9
		C247,337.8,246.8,337.6,246.6,337.4z"/>
	<path id="XMLID_852_" class="st10" d="M212.9,370.4c0.2-0.5,0.5-0.7,1-0.6c0.1,0,0.2,0.2,0.2,0.2c-0.4,0.2-0.7,0.4-1.1,0.6
		L212.9,370.4z"/>
	<path id="XMLID_851_" class="st10" d="M207.5,374.3c-0.4,0-0.9-0.1-1.3-0.1c0.4-0.4,0.8-0.8,1.5-0.6
		C207.6,373.6,207.5,374.1,207.5,374.3z"/>
	<path id="XMLID_850_" class="st10" d="M286.4,378.3c0.2,0,0.3,0.1,0.4,0.3c-0.5,0.6-1,1.1-1.9,0.9
		C285.5,379.1,285.9,378.7,286.4,378.3z"/>
	<path id="XMLID_849_" class="st10" d="M271.8,373.6c0.1,0.1,0.2,0.2,0.2,0.3c-0.1,0.1-0.2,0.2-0.3,0.2c-0.1,0-0.2-0.2-0.2-0.2
		C271.6,373.8,271.7,373.7,271.8,373.6z"/>
	<path id="XMLID_848_" class="st10" d="M285,379.5c0.1,0.6-0.3,0.8-0.8,0.8C284.1,379.6,284.5,379.5,285,379.5z"/>
	<path id="XMLID_847_" class="st10" d="M225.5,372.5c0.3-0.1,0.8-0.3,0.8-0.3c0.3,0.4-0.2,0.5-0.4,0.6
		C225.7,372.7,225.6,372.6,225.5,372.5z"/>
	<path id="XMLID_846_" class="st10" d="M227.6,371.4c0.1,0.1,0.2,0.2,0.2,0.3c-0.1,0.1-0.2,0.2-0.3,0.2c-0.1,0-0.2-0.2-0.2-0.2
		C227.4,371.5,227.5,371.4,227.6,371.4z"/>
	<path id="XMLID_845_" class="st10" d="M213.1,370.6c-0.1,0.3-0.4,0.7-0.7,0.3c-0.3-0.4,0.2-0.4,0.5-0.5
		C212.9,370.4,213.1,370.6,213.1,370.6z"/>
	<path id="XMLID_844_" class="st10" d="M223.3,392.6c-0.1,0.1-0.2,0.2-0.2,0.2c-0.1,0-0.1-0.1-0.2-0.2c0.1-0.1,0.2-0.2,0.2-0.2
		C223.2,392.4,223.2,392.6,223.3,392.6z"/>
	<path id="XMLID_843_" class="st10" d="M221.2,393.7c0.1-0.2,0.2-0.4,0.3-0.5c0.1,0.1,0.2,0.2,0.3,0.3
		C221.6,393.6,221.4,393.7,221.2,393.7C221.3,393.8,221.2,393.7,221.2,393.7z"/>
	<path id="XMLID_842_" class="st9" d="M215.9,396.5c0,0.3,0,0.6,0.1,0.9c-0.3-0.1-0.5-0.2-0.8-0.3
		C215.4,396.9,215.7,396.7,215.9,396.5z"/>
	<path id="XMLID_841_" class="st10" d="M325.4,283.9c-0.1,0.1-0.2,0.2-0.3,0.2c-0.1,0-0.2-0.2-0.3-0.2c0.1-0.1,0.2-0.2,0.3-0.2
		C325.3,283.7,325.3,283.8,325.4,283.9z"/>
	<path id="XMLID_840_" class="st10" d="M327.3,283c-0.3,0.1-0.8,0.3-0.9,0.2c-0.3-0.4,0.2-0.5,0.4-0.7
		C327,282.7,327.1,282.9,327.3,283z"/>
	<path id="XMLID_839_" class="st5" d="M298.5,381.8c1,0.6,0.6,1.5,0.6,2.3c0,17.4,0,34.7,0,52.1c0,0.8,0.4,1.8-0.6,2.3
		C298.5,419.7,298.5,400.8,298.5,381.8z"/>
	<path id="XMLID_838_" class="st9" d="M278.5,429.9c-0.3-0.3-0.7-0.6-1-0.9c3-1.8,6-3.6,9-5.5c0.2,0.3,0.4,0.6,0.6,0.9
		C284.2,426.2,281.3,428.1,278.5,429.9z"/>
	<path id="XMLID_837_" class="st10" d="M277.5,417.7c-0.3-0.3-0.6-0.5-0.9-0.8c1.6-1.3,3.3-2.4,5.9-3
		C280.9,416,279.2,416.8,277.5,417.7z"/>
	<path id="XMLID_836_" class="st10" d="M247.5,424.4c-0.3-0.3-0.6-0.5-0.9-0.8c1.6-1.4,3.3-2.4,6-3.1
		C250.9,422.7,249.2,423.6,247.5,424.4z"/>
	<path id="XMLID_835_" class="st10" d="M285.1,412.6c-0.6,0.7-1.2,1.4-2.4,1.2c0.2-1.2,1.2-1.3,2-1.5
		C284.9,412.4,285,412.5,285.1,412.6z"/>
	<path id="XMLID_834_" class="st10" d="M255.2,419.4c-0.7,0.7-1.2,1.4-2.5,1.1c0.3-1.1,1.2-1.3,2.1-1.6
		C254.9,419.1,255,419.3,255.2,419.4z"/>
	<path id="XMLID_833_" class="st5" d="M297,438.5c-0.6,0.1-1.2,0-1.6-0.5C295.9,438.2,296.4,438.4,297,438.5z"/>
	<path id="XMLID_832_" class="st10" d="M287.1,411.4c-0.1,0.1-0.2,0.2-0.3,0.2c-0.1,0-0.2-0.1-0.2-0.2c0.1-0.1,0.2-0.2,0.3-0.2
		C286.9,411.1,287,411.3,287.1,411.4z"/>
	<path id="XMLID_831_" class="st10" d="M284.8,412.3c0.3-0.1,0.8-0.3,0.8-0.3c0.2,0.5-0.2,0.5-0.5,0.6
		C285,412.5,284.9,412.4,284.8,412.3z"/>
	<path id="XMLID_830_" class="st10" d="M256.7,417.9c0.1,0,0.2,0,0.2,0c0.1,0,0.1,0.1,0.1,0.2c-0.1,0-0.3,0-0.4,0
		C256.6,418.1,256.7,418,256.7,417.9z"/>
	<path id="XMLID_829_" class="st10" d="M254.7,419c0.3-0.1,0.8-0.3,0.9-0.2c0.3,0.4-0.2,0.5-0.4,0.7
		C255,419.3,254.9,419.1,254.7,419z"/>
	<path id="XMLID_828_" class="st10" d="M285,454.4c-0.3-0.3-0.6-0.5-0.8-0.8c1.6-1.2,3.3-2.4,6-3.1
		C288.4,452.7,286.7,453.6,285,454.4z"/>
	<path id="XMLID_827_" class="st10" d="M292.6,449.4c-0.5,0.8-1.3,1.2-2.4,1.4c0.3-1.4,1.2-1.5,2.1-1.7
		C292.4,449.2,292.5,449.3,292.6,449.4z"/>
	<path id="XMLID_826_" class="st10" d="M294.6,448.1c-0.1,0.1-0.2,0.2-0.2,0.2c-0.1,0-0.2-0.1-0.2-0.2c0.1-0.1,0.2-0.2,0.3-0.2
		S294.5,448.1,294.6,448.1z"/>
	<path id="XMLID_825_" class="st10" d="M292.3,449.1c0.3-0.1,0.5-0.2,0.8-0.3c-0.2,0.2-0.3,0.4-0.5,0.6
		C292.5,449.3,292.4,449.2,292.3,449.1z"/>
	<path id="XMLID_824_" class="st5" d="M299.1,346.8c0,8.4,0,16.7,0,25.1c0,1.9-0.3,2.7-2.5,2.1c-10.1-2.9-19.1-14.3-19.9-25.4
		c-0.8-12.7,5-23.2,15.4-27.9c6.9-3.1,7-3,7,4.4C299.1,332.3,299.1,339.6,299.1,346.8z"/>
	<path id="XMLID_823_" class="st5" d="M308.4,410.8c0-8.4,0-16.7,0-25.1c0-1.7,0-2.9,2.4-2.3c9.9,2.6,19.2,14.2,20,25.3
		c0.9,12.7-5.1,23.5-15.6,28.1c-6.6,2.9-6.7,2.8-6.7-4.3C308.4,425.3,308.4,418.1,308.4,410.8z"/>
</g>
</svg>
